<?xml version="1.0" encoding="utf-8" standalone="no"?>
<!DOCTYPE svg PUBLIC "-//W3C//DTD SVG 1.1//EN" "http://www.w3.org/Graphics/SVG/1.1/DTD/svg11.dtd">
<svg width="600" height="400" version="1.1" xmlns:xlink="http://www.w3.org/1999/xlink" xmlns="http://www.w3.org/2000/svg">
  <rect x="0" y="0" width="600" height="400" style="fill:rgb(255,255,255);stroke:none;" />
  <polyline points="34.012,352.1162 30.012,352.1162" style="fill:none;stroke:black;stroke-width:1" />
  <polyline points="34.012,328.7131 30.012,328.7131" style="fill:none;stroke:black;stroke-width:1" />
  <polyline points="34.012,305.3101 30.012,305.3101" style="fill:none;stroke:black;stroke-width:1" />
  <polyline points="34.012,258.5041 30.012,258.5041" style="fill:none;stroke:black;stroke-width:1" />
  <polyline points="34.012,235.101 30.012,235.101" style="fill:none;stroke:black;stroke-width:1" />
  <polyline points="34.012,211.698 30.012,211.698" style="fill:none;stroke:black;stroke-width:1" />
  <polyline points="34.012,164.892 30.012,164.892" style="fill:none;stroke:black;stroke-width:1" />
  <polyline points="34.012,141.4889 30.012,141.4889" style="fill:none;stroke:black;stroke-width:1" />
  <polyline points="34.012,118.0859 30.012,118.0859" style="fill:none;stroke:black;stroke-width:1" />
  <polyline points="34.012,71.2798 30.012,71.2798" style="fill:none;stroke:black;stroke-width:1" />
  <polyline points="34.012,47.8768 30.012,47.8768" style="fill:none;stroke:black;stroke-width:1" />
  <text dominant-baseline="middle" text-anchor="end" transform="translate(23.012,281.9071)" font-family="Segoe UI" font-size="12" font-weight="400" fill="black">200</text>
  <text dominant-baseline="middle" text-anchor="end" transform="translate(23.012,188.295)" font-family="Segoe UI" font-size="12" font-weight="400" fill="black">400</text>
  <text dominant-baseline="middle" text-anchor="end" transform="translate(23.012,94.6829)" font-family="Segoe UI" font-size="12" font-weight="400" fill="black">600</text>
  <polyline points="34.012,281.9071 27.012,281.9071" style="fill:none;stroke:black;stroke-width:1" />
  <polyline points="34.012,188.295 27.012,188.295" style="fill:none;stroke:black;stroke-width:1" />
  <polyline points="34.012,94.6829 27.012,94.6829" style="fill:none;stroke:black;stroke-width:1" />
  <text dominant-baseline="hanging" text-anchor="middle" transform="translate(95.6681,381.947)" font-family="Segoe UI" font-size="12" font-weight="400" fill="black">01. September</text>
  <text dominant-baseline="hanging" text-anchor="middle" transform="translate(188.1523,381.947)" font-family="Segoe UI" font-size="12" font-weight="400" fill="black">01. October</text>
  <text dominant-baseline="hanging" text-anchor="middle" transform="translate(283.7193,381.947)" font-family="Segoe UI" font-size="12" font-weight="400" fill="black">01. November</text>
  <text dominant-baseline="hanging" text-anchor="middle" transform="translate(376.2035,381.947)" font-family="Segoe UI" font-size="12" font-weight="400" fill="black">01. December</text>
  <text dominant-baseline="hanging" text-anchor="middle" transform="translate(471.7705,381.947)" font-family="Segoe UI" font-size="12" font-weight="400" fill="black">01. January</text>
  <text dominant-baseline="hanging" text-anchor="middle" transform="translate(567.3375,381.947)" font-family="Segoe UI" font-size="12" font-weight="400" fill="black">01. February</text>
  <polyline points="95.6681,370.947 95.6681,377.947" style="fill:none;stroke:black;stroke-width:1" />
  <polyline points="188.1523,370.947 188.1523,377.947" style="fill:none;stroke:black;stroke-width:1" />
  <polyline points="283.7193,370.947 283.7193,377.947" style="fill:none;stroke:black;stroke-width:1" />
  <polyline points="376.2035,370.947 376.2035,377.947" style="fill:none;stroke:black;stroke-width:1" />
  <polyline points="471.7705,370.947 471.7705,377.947" style="fill:none;stroke:black;stroke-width:1" />
  <polyline points="567.3375,370.947 567.3375,377.947" style="fill:none;stroke:black;stroke-width:1" />
  <polyline points="34.012,361.4774 40.1776,357.2648 49.426,360.0732 52.5088,357.2648 55.5916,359.1371 58.6745,356.7968 61.7573,357.2648 71.0057,357.7329 74.0885,361.4774 77.1713,361.9454 80.2541,361.0093 83.3369,361.0093 92.5853,364.2857 95.6681,365.6899 98.7509,365.6899 101.8337,364.7538 104.9166,365.2219 114.165,365.2219 117.2478,367.5622 120.3306,366.158 123.4134,363.3496 126.4962,361.4774 135.7446,356.7968 138.8274,353.5204 141.9102,348.8398 144.993,348.3717 148.0758,346.9675 157.3243,351.1801 160.4071,352.1162 163.4899,351.6481 166.5727,349.7759 169.6555,347.4356 178.9039,336.2021 181.9867,337.6063 185.0695,338.0744 188.1523,331.0534 191.2351,324.5006 200.4836,317.0116 203.5664,323.5645 206.6492,317.4797 209.732,310.9268 212.8148,309.0546 222.0632,295.0128 225.146,305.7782 228.2288,300.1615 231.3116,287.5238 234.3944,269.2695 243.6429,245.8664 246.7257,247.2706 249.8085,244.4622 252.8913,222.9315 255.9741,218.7189 265.2225,155.5307 268.3053,172.849 271.3881,172.849 274.4709,167.7003 277.5537,139.6167 286.8021,148.5098 289.885,195.3159 292.9678,185.0186 296.0506,171.4448 299.1334,165.8281 308.3818,134.468 311.4646,153.6585 314.5474,140.0847 320.713,113.8734 329.9614,108.2566 333.0442,134.468 336.127,141.4889 339.2099,112.0011 342.2927,134.9361 351.5411,156.4669 354.6239,173.7851 357.7067,167.7003 360.7895,182.2102 363.8723,160.2113 373.1207,132.5958 376.2035,148.0418 379.2863,171.9129 382.3691,163.4878 385.452,175.6573 394.7004,117.1498 397.7832,141.957 400.866,155.5307 403.9488,132.1277 407.0316,117.1498 416.28,70.3437 419.3628,99.8315 422.4456,111.065 425.5284,95.1509 428.6112,69.8757 437.8597,33.835 440.9425,61.4506 444.0253,84.8536 459.4393,32.4308 462.5221,57.7061 465.6049,76.4285 468.6877,56.77 481.019,57.238 484.1018,82.5133 487.1846,118.0859 490.2674,126.0429 493.3502,98.8954 505.6814,150.8501 508.7642,174.7212 511.847,164.4239 514.9298,190.6353 524.1783,206.0813 527.2611,233.2288 530.3439,240.2497 533.4267,238.3775 536.5095,234.1649 545.7579,233.6969 551.9235,244.4622 555.0063,224.8037 558.0891,212.1661 567.3375,214.0383 570.4204,235.5691 573.5032,254.2915 576.586,245.3984 579.6688,245.3984 588.9172,262.2485 592,274.4181" style="fill:none;stroke:rgb(31,119,180);stroke-width:2;stroke-linejoin:bevel" />
  <text dominant-baseline="hanging" text-anchor="middle" transform="translate(313.006,8)" font-family="Segoe UI" font-size="18" font-weight="700" fill="black">Aktive Fälle Stadt Aachen 09.02.2021</text>
  <polygon points="34.012,29.0795 592,29.0795 592,370.947 34.012,370.947" style="fill:none;stroke:black;stroke-width:1" />
  <polygon points="42.012,37.0795 228.483,37.0795 228.483,63.1325 42.012,63.1325" style="fill:none;stroke:none;" />
  <text dominant-baseline="hanging" text-anchor="start" transform="translate(70.012,45.0795)" font-family="Segoe UI" font-size="12" font-weight="400" fill="black">Aktive Fälle Stadt Aachen 09.02.2021</text>
  <polyline points="50.012,50.106 66.012,50.106" style="fill:none;stroke:rgb(31,119,180);stroke-width:2" />
</svg>