<?xml version="1.0" encoding="utf-8" standalone="no"?>
<!DOCTYPE svg PUBLIC "-//W3C//DTD SVG 1.1//EN" "http://www.w3.org/Graphics/SVG/1.1/DTD/svg11.dtd">
<svg width="600" height="400" version="1.1" xmlns:xlink="http://www.w3.org/1999/xlink" xmlns="http://www.w3.org/2000/svg">
  <rect x="0" y="0" width="600" height="400" style="fill:rgb(255,255,255);stroke:none;" />
  <polyline points="34.012,352.1162 30.012,352.1162" style="fill:none;stroke:black;stroke-width:1" />
  <polyline points="34.012,328.7131 30.012,328.7131" style="fill:none;stroke:black;stroke-width:1" />
  <polyline points="34.012,305.3101 30.012,305.3101" style="fill:none;stroke:black;stroke-width:1" />
  <polyline points="34.012,258.5041 30.012,258.5041" style="fill:none;stroke:black;stroke-width:1" />
  <polyline points="34.012,235.101 30.012,235.101" style="fill:none;stroke:black;stroke-width:1" />
  <polyline points="34.012,211.698 30.012,211.698" style="fill:none;stroke:black;stroke-width:1" />
  <polyline points="34.012,164.892 30.012,164.892" style="fill:none;stroke:black;stroke-width:1" />
  <polyline points="34.012,141.4889 30.012,141.4889" style="fill:none;stroke:black;stroke-width:1" />
  <polyline points="34.012,118.0859 30.012,118.0859" style="fill:none;stroke:black;stroke-width:1" />
  <polyline points="34.012,71.2798 30.012,71.2798" style="fill:none;stroke:black;stroke-width:1" />
  <polyline points="34.012,47.8768 30.012,47.8768" style="fill:none;stroke:black;stroke-width:1" />
  <text dominant-baseline="middle" text-anchor="end" transform="translate(23.012,281.9071)" font-family="Segoe UI" font-size="12" font-weight="400" fill="black">200</text>
  <text dominant-baseline="middle" text-anchor="end" transform="translate(23.012,188.295)" font-family="Segoe UI" font-size="12" font-weight="400" fill="black">400</text>
  <text dominant-baseline="middle" text-anchor="end" transform="translate(23.012,94.6829)" font-family="Segoe UI" font-size="12" font-weight="400" fill="black">600</text>
  <polyline points="34.012,281.9071 27.012,281.9071" style="fill:none;stroke:black;stroke-width:1" />
  <polyline points="34.012,188.295 27.012,188.295" style="fill:none;stroke:black;stroke-width:1" />
  <polyline points="34.012,94.6829 27.012,94.6829" style="fill:none;stroke:black;stroke-width:1" />
  <text dominant-baseline="hanging" text-anchor="middle" transform="translate(91.2415,381.947)" font-family="Segoe UI" font-size="12" font-weight="400" fill="black">01. September</text>
  <text dominant-baseline="hanging" text-anchor="middle" transform="translate(177.0858,381.947)" font-family="Segoe UI" font-size="12" font-weight="400" fill="black">01. October</text>
  <text dominant-baseline="hanging" text-anchor="middle" transform="translate(265.7916,381.947)" font-family="Segoe UI" font-size="12" font-weight="400" fill="black">01. November</text>
  <text dominant-baseline="hanging" text-anchor="middle" transform="translate(351.6359,381.947)" font-family="Segoe UI" font-size="12" font-weight="400" fill="black">01. December</text>
  <text dominant-baseline="hanging" text-anchor="middle" transform="translate(440.3417,381.947)" font-family="Segoe UI" font-size="12" font-weight="400" fill="black">01. January</text>
  <text dominant-baseline="hanging" text-anchor="middle" transform="translate(529.0475,381.947)" font-family="Segoe UI" font-size="12" font-weight="400" fill="black">01. February</text>
  <polyline points="91.2415,370.947 91.2415,377.947" style="fill:none;stroke:black;stroke-width:1" />
  <polyline points="177.0858,370.947 177.0858,377.947" style="fill:none;stroke:black;stroke-width:1" />
  <polyline points="265.7916,370.947 265.7916,377.947" style="fill:none;stroke:black;stroke-width:1" />
  <polyline points="351.6359,370.947 351.6359,377.947" style="fill:none;stroke:black;stroke-width:1" />
  <polyline points="440.3417,370.947 440.3417,377.947" style="fill:none;stroke:black;stroke-width:1" />
  <polyline points="529.0475,370.947 529.0475,377.947" style="fill:none;stroke:black;stroke-width:1" />
  <polyline points="34.012,361.4774 39.735,357.2648 48.3194,360.0732 51.1809,357.2648 54.0423,359.1371 56.9038,356.7968 59.7653,357.2648 68.3497,357.7329 71.2112,361.4774 74.0727,361.9454 76.9342,361.0093 79.7956,361.0093 88.3801,364.2857 91.2415,365.6899 94.103,365.6899 96.9645,364.7538 99.826,365.2219 108.4104,365.2219 111.2719,367.5622 114.1334,366.158 116.9948,363.3496 119.8563,361.4774 128.4407,356.7968 131.3022,353.5204 134.1637,348.8398 137.0252,348.3717 139.8866,346.9675 148.4711,351.1801 151.3326,352.1162 154.194,351.6481 157.0555,349.7759 159.917,347.4356 168.5014,336.2021 171.3629,337.6063 174.2244,338.0744 177.0858,331.0534 179.9473,324.5006 188.5318,317.0116 191.3932,323.5645 194.2547,317.4797 197.1162,310.9268 199.9777,309.0546 208.5621,295.0128 211.4236,305.7782 214.285,300.1615 217.1465,287.5238 220.008,269.2695 228.5924,245.8664 231.4539,247.2706 234.3154,244.4622 237.1769,222.9315 240.0383,218.7189 248.6228,155.5307 251.4842,172.849 254.3457,172.849 257.2072,167.7003 260.0687,139.6167 268.6531,148.5098 271.5146,195.3159 274.3761,185.0186 277.2375,171.4448 280.099,165.8281 288.6834,134.468 291.5449,153.6585 294.4064,140.0847 300.1294,113.8734 308.7138,108.2566 311.5753,134.468 314.4367,141.4889 317.2982,112.0011 320.1597,134.9361 328.7441,156.4669 331.6056,173.7851 334.4671,167.7003 337.3286,182.2102 340.19,160.2113 348.7745,132.5958 351.6359,148.0418 354.4974,171.9129 357.3589,163.4878 360.2204,175.6573 368.8048,117.1498 371.6663,141.957 374.5278,155.5307 377.3892,132.1277 380.2507,117.1498 388.8351,70.3437 391.6966,99.8315 394.5581,111.065 397.4196,95.1509 400.281,69.8757 408.8655,33.835 411.727,61.4506 414.5884,84.8536 428.8958,32.4308 431.7573,57.7061 434.6188,76.4285 437.4802,56.77 448.9262,57.238 451.7876,82.5133 454.6491,118.0859 457.5106,126.0429 460.3721,98.8954 471.818,150.8501 474.6794,174.7212 477.5409,164.4239 480.4024,190.6353 488.9868,206.0813 491.8483,233.2288 494.7098,240.2497 497.5713,238.3775 500.4327,234.1649 509.0172,233.6969 514.7401,244.4622 517.6016,224.8037 520.4631,212.1661 529.0475,214.0383 531.909,235.5691 534.7705,254.2915 537.6319,245.3984 540.4934,245.3984 549.0778,262.2485 551.9393,274.4181 554.8008,267.3972 557.6623,253.3554 560.5238,239.3136 569.1082,249.6109 571.9697,284.2474 574.8311,282.3752 577.6926,272.5459 580.5541,293.6086 589.1385,302.5018 592,310.9268" style="fill:none;stroke:rgb(31,119,180);stroke-width:2;stroke-linejoin:bevel" />
  <text dominant-baseline="hanging" text-anchor="middle" transform="translate(313.006,8)" font-family="Segoe UI" font-size="18" font-weight="700" fill="black">Aktive Fälle Stadt Aachen 23.02.2021</text>
  <polygon points="34.012,29.0795 592,29.0795 592,370.947 34.012,370.947" style="fill:none;stroke:black;stroke-width:1" />
  <polygon points="42.012,37.0795 228.483,37.0795 228.483,63.1325 42.012,63.1325" style="fill:none;stroke:none;" />
  <text dominant-baseline="hanging" text-anchor="start" transform="translate(70.012,45.0795)" font-family="Segoe UI" font-size="12" font-weight="400" fill="black">Aktive Fälle Stadt Aachen 23.02.2021</text>
  <polyline points="50.012,50.106 66.012,50.106" style="fill:none;stroke:rgb(31,119,180);stroke-width:2" />
</svg>