<?xml version="1.0" encoding="utf-8" standalone="no"?>
<!DOCTYPE svg PUBLIC "-//W3C//DTD SVG 1.1//EN" "http://www.w3.org/Graphics/SVG/1.1/DTD/svg11.dtd">
<svg width="600" height="400" version="1.1" xmlns:xlink="http://www.w3.org/1999/xlink" xmlns="http://www.w3.org/2000/svg">
  <rect x="0" y="0" width="600" height="400" style="fill:rgb(255,255,255);stroke:none;" />
  <polyline points="34.012,365.7474 30.012,365.7474" style="fill:none;stroke:black;stroke-width:1" />
  <polyline points="34.012,353.6488 30.012,353.6488" style="fill:none;stroke:black;stroke-width:1" />
  <polyline points="34.012,341.5502 30.012,341.5502" style="fill:none;stroke:black;stroke-width:1" />
  <polyline points="34.012,329.4516 30.012,329.4516" style="fill:none;stroke:black;stroke-width:1" />
  <polyline points="34.012,305.2544 30.012,305.2544" style="fill:none;stroke:black;stroke-width:1" />
  <polyline points="34.012,293.1558 30.012,293.1558" style="fill:none;stroke:black;stroke-width:1" />
  <polyline points="34.012,281.0571 30.012,281.0571" style="fill:none;stroke:black;stroke-width:1" />
  <polyline points="34.012,268.9585 30.012,268.9585" style="fill:none;stroke:black;stroke-width:1" />
  <polyline points="34.012,244.7613 30.012,244.7613" style="fill:none;stroke:black;stroke-width:1" />
  <polyline points="34.012,232.6627 30.012,232.6627" style="fill:none;stroke:black;stroke-width:1" />
  <polyline points="34.012,220.5641 30.012,220.5641" style="fill:none;stroke:black;stroke-width:1" />
  <polyline points="34.012,208.4655 30.012,208.4655" style="fill:none;stroke:black;stroke-width:1" />
  <polyline points="34.012,184.2683 30.012,184.2683" style="fill:none;stroke:black;stroke-width:1" />
  <polyline points="34.012,172.1697 30.012,172.1697" style="fill:none;stroke:black;stroke-width:1" />
  <polyline points="34.012,160.0711 30.012,160.0711" style="fill:none;stroke:black;stroke-width:1" />
  <polyline points="34.012,147.9725 30.012,147.9725" style="fill:none;stroke:black;stroke-width:1" />
  <polyline points="34.012,123.7753 30.012,123.7753" style="fill:none;stroke:black;stroke-width:1" />
  <polyline points="34.012,111.6767 30.012,111.6767" style="fill:none;stroke:black;stroke-width:1" />
  <polyline points="34.012,99.5781 30.012,99.5781" style="fill:none;stroke:black;stroke-width:1" />
  <polyline points="34.012,87.4795 30.012,87.4795" style="fill:none;stroke:black;stroke-width:1" />
  <polyline points="34.012,63.2823 30.012,63.2823" style="fill:none;stroke:black;stroke-width:1" />
  <polyline points="34.012,51.1837 30.012,51.1837" style="fill:none;stroke:black;stroke-width:1" />
  <polyline points="34.012,39.085 30.012,39.085" style="fill:none;stroke:black;stroke-width:1" />
  <text dominant-baseline="middle" text-anchor="end" transform="translate(23.012,317.353)" font-family="Segoe UI" font-size="12" font-weight="400" fill="black">100</text>
  <text dominant-baseline="middle" text-anchor="end" transform="translate(23.012,256.8599)" font-family="Segoe UI" font-size="12" font-weight="400" fill="black">200</text>
  <text dominant-baseline="middle" text-anchor="end" transform="translate(23.012,196.3669)" font-family="Segoe UI" font-size="12" font-weight="400" fill="black">300</text>
  <text dominant-baseline="middle" text-anchor="end" transform="translate(23.012,135.8739)" font-family="Segoe UI" font-size="12" font-weight="400" fill="black">400</text>
  <text dominant-baseline="middle" text-anchor="end" transform="translate(23.012,75.3809)" font-family="Segoe UI" font-size="12" font-weight="400" fill="black">500</text>
  <polyline points="34.012,317.353 27.012,317.353" style="fill:none;stroke:black;stroke-width:1" />
  <polyline points="34.012,256.8599 27.012,256.8599" style="fill:none;stroke:black;stroke-width:1" />
  <polyline points="34.012,196.3669 27.012,196.3669" style="fill:none;stroke:black;stroke-width:1" />
  <polyline points="34.012,135.8739 27.012,135.8739" style="fill:none;stroke:black;stroke-width:1" />
  <polyline points="34.012,75.3809 27.012,75.3809" style="fill:none;stroke:black;stroke-width:1" />
  <text dominant-baseline="hanging" text-anchor="middle" transform="translate(49.6565,381.947)" font-family="Segoe UI" font-size="12" font-weight="400" fill="black">15. August</text>
  <text dominant-baseline="hanging" text-anchor="middle" transform="translate(122.6643,381.947)" font-family="Segoe UI" font-size="12" font-weight="400" fill="black">29. August</text>
  <text dominant-baseline="hanging" text-anchor="middle" transform="translate(195.6721,381.947)" font-family="Segoe UI" font-size="12" font-weight="400" fill="black">12. September</text>
  <text dominant-baseline="hanging" text-anchor="middle" transform="translate(268.6799,381.947)" font-family="Segoe UI" font-size="12" font-weight="400" fill="black">26. September</text>
  <text dominant-baseline="hanging" text-anchor="middle" transform="translate(341.6876,381.947)" font-family="Segoe UI" font-size="12" font-weight="400" fill="black">10. October</text>
  <text dominant-baseline="hanging" text-anchor="middle" transform="translate(414.6954,381.947)" font-family="Segoe UI" font-size="12" font-weight="400" fill="black">24. October</text>
  <text dominant-baseline="hanging" text-anchor="middle" transform="translate(487.7032,381.947)" font-family="Segoe UI" font-size="12" font-weight="400" fill="black">07. November</text>
  <text dominant-baseline="hanging" text-anchor="middle" transform="translate(560.711,381.947)" font-family="Segoe UI" font-size="12" font-weight="400" fill="black">21. November</text>
  <polyline points="49.6565,370.947 49.6565,377.947" style="fill:none;stroke:black;stroke-width:1" />
  <polyline points="122.6643,370.947 122.6643,377.947" style="fill:none;stroke:black;stroke-width:1" />
  <polyline points="195.6721,370.947 195.6721,377.947" style="fill:none;stroke:black;stroke-width:1" />
  <polyline points="268.6799,370.947 268.6799,377.947" style="fill:none;stroke:black;stroke-width:1" />
  <polyline points="341.6876,370.947 341.6876,377.947" style="fill:none;stroke:black;stroke-width:1" />
  <polyline points="414.6954,370.947 414.6954,377.947" style="fill:none;stroke:black;stroke-width:1" />
  <polyline points="487.7032,370.947 487.7032,377.947" style="fill:none;stroke:black;stroke-width:1" />
  <polyline points="560.711,370.947 560.711,377.947" style="fill:none;stroke:black;stroke-width:1" />
  <polyline points="34.012,359.6981 44.4417,354.2537 60.0862,357.8833 65.301,354.2537 70.5159,356.6734 75.7307,353.6488 80.9456,354.2537 96.5901,354.8586 101.8049,359.6981 107.0198,360.303 112.2346,359.0931 117.4495,359.0931 133.094,363.3277 138.3088,365.1425 143.5237,365.1425 148.7385,363.9326 153.9533,364.5375 169.5979,364.5375 174.8127,367.5622 180.0276,365.7474 185.2424,362.1178 190.4572,359.6981 206.1018,353.6488 211.3166,349.4143 216.5314,343.365 221.7463,342.76 226.9611,340.9452 242.6056,346.3896 247.8205,347.5995 253.0353,346.9945 258.2502,344.5748 263.465,341.5502 279.1095,327.0318 284.3244,328.8466 289.5392,329.4516 294.7541,320.3776 299.9689,311.9086 315.6134,302.2297 320.8283,310.6987 326.0431,302.8346 331.2579,294.3656 336.4728,291.9459 352.1173,273.798 357.3321,287.7114 362.547,280.4522 367.7618,264.1191 372.9767,240.5268 388.6212,210.2803 393.836,212.0951 399.0509,208.4655 404.2657,180.6387 409.4806,175.1944 425.1251,93.5288 430.3399,115.9112 435.5548,115.9112 440.7696,109.257 445.9844,72.9611 461.629,84.4548 466.8438,144.9478 472.0587,131.6394 477.2735,114.0964 482.4883,106.8372 498.1329,66.3069 503.3477,91.109 508.5625,73.5661 518.9922,39.69 534.6367,32.4308 539.8516,66.3069 545.0664,75.3809 550.2813,37.2703 555.4961,66.9118 571.1406,94.7386 576.3555,117.121 581.5703,109.257 586.7852,128.0098 592,99.5781" style="fill:none;stroke:rgb(31,119,180);stroke-width:2;stroke-linejoin:bevel" />
  <text dominant-baseline="hanging" text-anchor="middle" transform="translate(313.006,8)" font-family="Segoe UI" font-size="18" font-weight="700" fill="black">Aktive Fälle Stadt Aachen 27.11.2020</text>
  <polygon points="34.012,29.0795 592,29.0795 592,370.947 34.012,370.947" style="fill:none;stroke:black;stroke-width:1" />
  <polygon points="42.012,37.0795 228.483,37.0795 228.483,63.1325 42.012,63.1325" style="fill:none;stroke:none;" />
  <text dominant-baseline="hanging" text-anchor="start" transform="translate(70.012,45.0795)" font-family="Segoe UI" font-size="12" font-weight="400" fill="black">Aktive Fälle Stadt Aachen 27.11.2020</text>
  <polyline points="50.012,50.106 66.012,50.106" style="fill:none;stroke:rgb(31,119,180);stroke-width:2" />
</svg>