<?xml version="1.0" encoding="utf-8" standalone="no"?>
<!DOCTYPE svg PUBLIC "-//W3C//DTD SVG 1.1//EN" "http://www.w3.org/Graphics/SVG/1.1/DTD/svg11.dtd">
<svg width="600" height="400" version="1.1" xmlns:xlink="http://www.w3.org/1999/xlink" xmlns="http://www.w3.org/2000/svg">
  <rect x="0" y="0" width="600" height="400" style="fill:rgb(255,255,255);stroke:none;" />
  <polyline points="34.012,352.1162 30.012,352.1162" style="fill:none;stroke:black;stroke-width:1" />
  <polyline points="34.012,328.7131 30.012,328.7131" style="fill:none;stroke:black;stroke-width:1" />
  <polyline points="34.012,305.3101 30.012,305.3101" style="fill:none;stroke:black;stroke-width:1" />
  <polyline points="34.012,258.5041 30.012,258.5041" style="fill:none;stroke:black;stroke-width:1" />
  <polyline points="34.012,235.101 30.012,235.101" style="fill:none;stroke:black;stroke-width:1" />
  <polyline points="34.012,211.698 30.012,211.698" style="fill:none;stroke:black;stroke-width:1" />
  <polyline points="34.012,164.892 30.012,164.892" style="fill:none;stroke:black;stroke-width:1" />
  <polyline points="34.012,141.4889 30.012,141.4889" style="fill:none;stroke:black;stroke-width:1" />
  <polyline points="34.012,118.0859 30.012,118.0859" style="fill:none;stroke:black;stroke-width:1" />
  <polyline points="34.012,71.2798 30.012,71.2798" style="fill:none;stroke:black;stroke-width:1" />
  <polyline points="34.012,47.8768 30.012,47.8768" style="fill:none;stroke:black;stroke-width:1" />
  <text dominant-baseline="middle" text-anchor="end" transform="translate(23.012,281.9071)" font-family="Segoe UI" font-size="12" font-weight="400" fill="black">200</text>
  <text dominant-baseline="middle" text-anchor="end" transform="translate(23.012,188.295)" font-family="Segoe UI" font-size="12" font-weight="400" fill="black">400</text>
  <text dominant-baseline="middle" text-anchor="end" transform="translate(23.012,94.6829)" font-family="Segoe UI" font-size="12" font-weight="400" fill="black">600</text>
  <polyline points="34.012,281.9071 27.012,281.9071" style="fill:none;stroke:black;stroke-width:1" />
  <polyline points="34.012,188.295 27.012,188.295" style="fill:none;stroke:black;stroke-width:1" />
  <polyline points="34.012,94.6829 27.012,94.6829" style="fill:none;stroke:black;stroke-width:1" />
  <text dominant-baseline="hanging" text-anchor="middle" transform="translate(82.1144,381.947)" font-family="Segoe UI" font-size="12" font-weight="400" fill="black">01. September</text>
  <text dominant-baseline="hanging" text-anchor="middle" transform="translate(154.268,381.947)" font-family="Segoe UI" font-size="12" font-weight="400" fill="black">01. October</text>
  <text dominant-baseline="hanging" text-anchor="middle" transform="translate(228.8268,381.947)" font-family="Segoe UI" font-size="12" font-weight="400" fill="black">01. November</text>
  <text dominant-baseline="hanging" text-anchor="middle" transform="translate(300.9804,381.947)" font-family="Segoe UI" font-size="12" font-weight="400" fill="black">01. December</text>
  <text dominant-baseline="hanging" text-anchor="middle" transform="translate(375.5391,381.947)" font-family="Segoe UI" font-size="12" font-weight="400" fill="black">01. January</text>
  <text dominant-baseline="hanging" text-anchor="middle" transform="translate(450.0979,381.947)" font-family="Segoe UI" font-size="12" font-weight="400" fill="black">01. February</text>
  <text dominant-baseline="hanging" text-anchor="middle" transform="translate(517.4413,381.947)" font-family="Segoe UI" font-size="12" font-weight="400" fill="black">01. March</text>
  <text dominant-baseline="hanging" text-anchor="middle" transform="translate(592,381.947)" font-family="Segoe UI" font-size="12" font-weight="400" fill="black">01. April</text>
  <polyline points="82.1144,370.947 82.1144,377.947" style="fill:none;stroke:black;stroke-width:1" />
  <polyline points="154.268,370.947 154.268,377.947" style="fill:none;stroke:black;stroke-width:1" />
  <polyline points="228.8268,370.947 228.8268,377.947" style="fill:none;stroke:black;stroke-width:1" />
  <polyline points="300.9804,370.947 300.9804,377.947" style="fill:none;stroke:black;stroke-width:1" />
  <polyline points="375.5391,370.947 375.5391,377.947" style="fill:none;stroke:black;stroke-width:1" />
  <polyline points="450.0979,370.947 450.0979,377.947" style="fill:none;stroke:black;stroke-width:1" />
  <polyline points="517.4413,370.947 517.4413,377.947" style="fill:none;stroke:black;stroke-width:1" />
  <polyline points="592,370.947 592,377.947" style="fill:none;stroke:black;stroke-width:1" />
  <polyline points="34.012,361.4774 38.8222,357.2648 46.0376,360.0732 48.4427,357.2648 50.8478,359.1371 53.253,356.7968 55.6581,357.2648 62.8734,357.7329 65.2786,361.4774 67.6837,361.9454 70.0888,361.0093 72.4939,361.0093 79.7093,364.2857 82.1144,365.6899 84.5195,365.6899 86.9247,364.7538 89.3298,365.2219 96.5451,365.2219 98.9503,367.5622 101.3554,366.158 103.7605,363.3496 106.1656,361.4774 113.381,356.7968 115.7861,353.5204 118.1912,348.8398 120.5963,348.3717 123.0015,346.9675 130.2168,351.1801 132.6219,352.1162 135.0271,351.6481 137.4322,349.7759 139.8373,347.4356 147.0527,336.2021 149.4578,337.6063 151.8629,338.0744 154.268,331.0534 156.6732,324.5006 163.8885,317.0116 166.2936,323.5645 168.6988,317.4797 171.1039,310.9268 173.509,309.0546 180.7244,295.0128 183.1295,305.7782 185.5346,300.1615 187.9397,287.5238 190.3448,269.2695 197.5602,245.8664 199.9653,247.2706 202.3704,244.4622 204.7756,222.9315 207.1807,218.7189 214.3961,155.5307 216.8012,172.849 219.2063,172.849 221.6114,167.7003 224.0165,139.6167 231.2319,148.5098 233.637,195.3159 236.0421,185.0186 238.4473,171.4448 240.8524,165.8281 248.0677,134.468 250.4729,153.6585 252.878,140.0847 257.6882,113.8734 264.9036,108.2566 267.3087,134.468 269.7138,141.4889 272.1189,112.0011 274.5241,134.9361 281.7394,156.4669 284.1446,173.7851 286.5497,167.7003 288.9548,182.2102 291.3599,160.2113 298.5753,132.5958 300.9804,148.0418 303.3855,171.9129 305.7906,163.4878 308.1958,175.6573 315.4111,117.1498 317.8162,141.957 320.2214,155.5307 322.6265,132.1277 325.0316,117.1498 332.247,70.3437 334.6521,99.8315 337.0572,111.065 339.4623,95.1509 341.8674,69.8757 349.0828,33.835 351.4879,61.4506 353.8931,84.8536 365.9187,32.4308 368.3238,57.7061 370.7289,76.4285 373.134,56.77 382.7545,57.238 385.1596,82.5133 387.5647,118.0859 389.9699,126.0429 392.375,98.8954 401.9955,150.8501 404.4006,174.7212 406.8057,164.4239 409.2108,190.6353 416.4262,206.0813 418.8313,233.2288 421.2364,240.2497 423.6416,238.3775 426.0467,234.1649 433.262,233.6969 438.0723,244.4622 440.4774,224.8037 442.8825,212.1661 450.0979,214.0383 452.503,235.5691 454.9081,254.2915 457.3132,245.3984 459.7184,245.3984 466.9337,262.2485 469.3388,274.4181 471.744,267.3972 474.1491,253.3554 476.5542,239.3136 483.7696,249.6109 486.1747,284.2474 488.5798,282.3752 490.9849,272.5459 493.3901,293.6086 500.6054,302.5018 503.0105,310.9268 505.4157,305.3101 507.8208,303.4379 510.2259,305.7782 517.4413,308.1185 519.8464,319.82 522.2515,311.863 524.6566,286.5877 527.0617,285.1835 534.2771,265.993 536.6822,265.993 539.0873,258.5041 541.4925,246.8025 543.8976,232.2927 551.1129,222.4634 553.5181,223.8676 555.9232,224.8037 558.3283,195.3159 560.7334,175.1893 567.9488,150.3821 570.3539,150.8501 572.759,152.7224 575.1642,120.4262 577.5693,114.3414 584.7846,110.1289 587.1898,143.3612 589.5949,149.914 592,138.6806" style="fill:none;stroke:rgb(31,119,180);stroke-width:2;stroke-linejoin:bevel" />
  <text dominant-baseline="hanging" text-anchor="middle" transform="translate(313.006,8)" font-family="Segoe UI" font-size="18" font-weight="700" fill="black">Aktive Fälle Stadt Aachen 01.04.2021</text>
  <polygon points="34.012,29.0795 592,29.0795 592,370.947 34.012,370.947" style="fill:none;stroke:black;stroke-width:1" />
  <polygon points="42.012,37.0795 228.483,37.0795 228.483,63.1325 42.012,63.1325" style="fill:none;stroke:none;" />
  <text dominant-baseline="hanging" text-anchor="start" transform="translate(70.012,45.0795)" font-family="Segoe UI" font-size="12" font-weight="400" fill="black">Aktive Fälle Stadt Aachen 01.04.2021</text>
  <polyline points="50.012,50.106 66.012,50.106" style="fill:none;stroke:rgb(31,119,180);stroke-width:2" />
</svg>