<?xml version="1.0" encoding="utf-8" standalone="no"?>
<!DOCTYPE svg PUBLIC "-//W3C//DTD SVG 1.1//EN" "http://www.w3.org/Graphics/SVG/1.1/DTD/svg11.dtd">
<svg width="600" height="400" version="1.1" xmlns:xlink="http://www.w3.org/1999/xlink" xmlns="http://www.w3.org/2000/svg">
  <rect x="0" y="0" width="600" height="400" style="fill:rgb(255,255,255);stroke:none;" />
  <polyline points="34.012,352.0512 30.012,352.0512" style="fill:none;stroke:black;stroke-width:1" />
  <polyline points="34.012,328.5497 30.012,328.5497" style="fill:none;stroke:black;stroke-width:1" />
  <polyline points="34.012,305.0482 30.012,305.0482" style="fill:none;stroke:black;stroke-width:1" />
  <polyline points="34.012,258.0452 30.012,258.0452" style="fill:none;stroke:black;stroke-width:1" />
  <polyline points="34.012,234.5437 30.012,234.5437" style="fill:none;stroke:black;stroke-width:1" />
  <polyline points="34.012,211.0422 30.012,211.0422" style="fill:none;stroke:black;stroke-width:1" />
  <polyline points="34.012,164.0392 30.012,164.0392" style="fill:none;stroke:black;stroke-width:1" />
  <polyline points="34.012,140.5377 30.012,140.5377" style="fill:none;stroke:black;stroke-width:1" />
  <polyline points="34.012,117.0362 30.012,117.0362" style="fill:none;stroke:black;stroke-width:1" />
  <polyline points="34.012,70.0332 30.012,70.0332" style="fill:none;stroke:black;stroke-width:1" />
  <polyline points="34.012,46.5317 30.012,46.5317" style="fill:none;stroke:black;stroke-width:1" />
  <text dominant-baseline="middle" text-anchor="end" transform="translate(23.012,281.5467)" font-family="Segoe UI" font-size="12" font-weight="400" fill="black">200</text>
  <text dominant-baseline="middle" text-anchor="end" transform="translate(23.012,187.5407)" font-family="Segoe UI" font-size="12" font-weight="400" fill="black">400</text>
  <text dominant-baseline="middle" text-anchor="end" transform="translate(23.012,93.5347)" font-family="Segoe UI" font-size="12" font-weight="400" fill="black">600</text>
  <polyline points="34.012,281.5467 27.012,281.5467" style="fill:none;stroke:black;stroke-width:1" />
  <polyline points="34.012,187.5407 27.012,187.5407" style="fill:none;stroke:black;stroke-width:1" />
  <polyline points="34.012,93.5347 27.012,93.5347" style="fill:none;stroke:black;stroke-width:1" />
  <text dominant-baseline="hanging" text-anchor="middle" transform="translate(119.201,381.947)" font-family="Segoe UI" font-size="12" font-weight="400" fill="black">01. September</text>
  <text dominant-baseline="hanging" text-anchor="middle" transform="translate(246.9845,381.947)" font-family="Segoe UI" font-size="12" font-weight="400" fill="black">01. October</text>
  <text dominant-baseline="hanging" text-anchor="middle" transform="translate(379.0275,381.947)" font-family="Segoe UI" font-size="12" font-weight="400" fill="black">01. November</text>
  <text dominant-baseline="hanging" text-anchor="middle" transform="translate(506.811,381.947)" font-family="Segoe UI" font-size="12" font-weight="400" fill="black">01. December</text>
  <polyline points="119.201,370.947 119.201,377.947" style="fill:none;stroke:black;stroke-width:1" />
  <polyline points="246.9845,370.947 246.9845,377.947" style="fill:none;stroke:black;stroke-width:1" />
  <polyline points="379.0275,370.947 379.0275,377.947" style="fill:none;stroke:black;stroke-width:1" />
  <polyline points="506.811,370.947 506.811,377.947" style="fill:none;stroke:black;stroke-width:1" />
  <polyline points="34.012,361.4518 42.5309,357.2215 55.3093,360.0417 59.5687,357.2215 63.8282,359.1016 68.0876,356.7515 72.3471,357.2215 85.1254,357.6915 89.3849,361.4518 93.6443,361.9218 97.9038,360.9818 102.1632,360.9818 114.9416,364.272 119.201,365.6821 123.4605,365.6821 127.7199,364.742 131.9794,365.212 144.7577,365.212 149.0172,367.5622 153.2766,366.1521 157.5361,363.3319 161.7955,361.4518 174.5739,356.7515 178.8333,353.4613 183.0928,348.761 187.3522,348.2909 191.6117,346.8809 204.39,351.1111 208.6495,352.0512 212.9089,351.5812 217.1684,349.701 221.4278,347.3509 234.2062,336.0702 238.4656,337.4803 242.7251,337.9503 246.9845,330.8998 251.244,324.3194 264.0223,316.7989 268.2818,323.3794 272.5412,317.269 276.8007,310.6885 281.0601,308.8084 293.8385,294.7075 298.0979,305.5182 302.3574,299.8779 306.6168,287.1871 310.8763,268.8559 323.6546,245.3544 327.9141,246.7645 332.1735,243.9443 336.433,222.3229 340.6924,218.0926 353.4708,154.6386 357.7302,172.0297 361.9897,172.0297 366.2491,166.8594 370.5086,138.6576 383.2869,147.5882 387.5464,194.5911 391.8058,184.2505 396.0653,170.6196 400.3247,164.9793 413.1031,133.4873 417.3625,152.7585 421.622,139.1276 430.1409,112.8059 442.9192,107.1656 447.1787,133.4873 451.4381,140.5377 455.6976,110.9258 459.957,133.9573 472.7354,155.5787 476.9948,172.9698 481.2543,166.8594 485.5137,181.4303 489.7732,159.3389 502.5515,131.6071 506.811,147.1181 511.0704,171.0897 515.3299,162.6291 519.5893,174.8499 532.3677,116.0961 536.6271,141.0077 540.8866,154.6386 545.146,131.1371 549.4055,116.0961 562.1838,69.0932 566.4433,98.705 570.7027,109.9858 574.9622,94.0047 579.2216,68.6231 592,32.4308" style="fill:none;stroke:rgb(31,119,180);stroke-width:2;stroke-linejoin:bevel" />
  <text dominant-baseline="hanging" text-anchor="middle" transform="translate(313.006,8)" font-family="Segoe UI" font-size="18" font-weight="700" fill="black">Aktive Fälle Stadt Aachen 21.12.2020</text>
  <polygon points="34.012,29.0795 592,29.0795 592,370.947 34.012,370.947" style="fill:none;stroke:black;stroke-width:1" />
  <polygon points="42.012,37.0795 228.483,37.0795 228.483,63.1325 42.012,63.1325" style="fill:none;stroke:none;" />
  <text dominant-baseline="hanging" text-anchor="start" transform="translate(70.012,45.0795)" font-family="Segoe UI" font-size="12" font-weight="400" fill="black">Aktive Fälle Stadt Aachen 21.12.2020</text>
  <polyline points="50.012,50.106 66.012,50.106" style="fill:none;stroke:rgb(31,119,180);stroke-width:2" />
</svg>