<?xml version="1.0" encoding="utf-8" standalone="no"?>
<!DOCTYPE svg PUBLIC "-//W3C//DTD SVG 1.1//EN" "http://www.w3.org/Graphics/SVG/1.1/DTD/svg11.dtd">
<svg width="600" height="400" version="1.1" xmlns:xlink="http://www.w3.org/1999/xlink" xmlns="http://www.w3.org/2000/svg">
  <rect x="0" y="0" width="600" height="400" style="fill:rgb(255,255,255);stroke:none;" />
  <polyline points="34.012,365.5908 30.012,365.5908" style="fill:none;stroke:black;stroke-width:1" />
  <polyline points="34.012,352.4484 30.012,352.4484" style="fill:none;stroke:black;stroke-width:1" />
  <polyline points="34.012,339.306 30.012,339.306" style="fill:none;stroke:black;stroke-width:1" />
  <polyline points="34.012,326.1636 30.012,326.1636" style="fill:none;stroke:black;stroke-width:1" />
  <polyline points="34.012,299.8788 30.012,299.8788" style="fill:none;stroke:black;stroke-width:1" />
  <polyline points="34.012,286.7364 30.012,286.7364" style="fill:none;stroke:black;stroke-width:1" />
  <polyline points="34.012,273.594 30.012,273.594" style="fill:none;stroke:black;stroke-width:1" />
  <polyline points="34.012,260.4516 30.012,260.4516" style="fill:none;stroke:black;stroke-width:1" />
  <polyline points="34.012,234.1667 30.012,234.1667" style="fill:none;stroke:black;stroke-width:1" />
  <polyline points="34.012,221.0243 30.012,221.0243" style="fill:none;stroke:black;stroke-width:1" />
  <polyline points="34.012,207.8819 30.012,207.8819" style="fill:none;stroke:black;stroke-width:1" />
  <polyline points="34.012,194.7395 30.012,194.7395" style="fill:none;stroke:black;stroke-width:1" />
  <polyline points="34.012,168.4547 30.012,168.4547" style="fill:none;stroke:black;stroke-width:1" />
  <polyline points="34.012,155.3123 30.012,155.3123" style="fill:none;stroke:black;stroke-width:1" />
  <polyline points="34.012,142.1699 30.012,142.1699" style="fill:none;stroke:black;stroke-width:1" />
  <polyline points="34.012,129.0275 30.012,129.0275" style="fill:none;stroke:black;stroke-width:1" />
  <polyline points="34.012,102.7427 30.012,102.7427" style="fill:none;stroke:black;stroke-width:1" />
  <polyline points="34.012,89.6003 30.012,89.6003" style="fill:none;stroke:black;stroke-width:1" />
  <polyline points="34.012,76.4579 30.012,76.4579" style="fill:none;stroke:black;stroke-width:1" />
  <polyline points="34.012,63.3155 30.012,63.3155" style="fill:none;stroke:black;stroke-width:1" />
  <polyline points="34.012,37.0307 30.012,37.0307" style="fill:none;stroke:black;stroke-width:1" />
  <text dominant-baseline="middle" text-anchor="end" transform="translate(23.012,313.0212)" font-family="Segoe UI" font-size="12" font-weight="400" fill="black">100</text>
  <text dominant-baseline="middle" text-anchor="end" transform="translate(23.012,247.3092)" font-family="Segoe UI" font-size="12" font-weight="400" fill="black">200</text>
  <text dominant-baseline="middle" text-anchor="end" transform="translate(23.012,181.5971)" font-family="Segoe UI" font-size="12" font-weight="400" fill="black">300</text>
  <text dominant-baseline="middle" text-anchor="end" transform="translate(23.012,115.8851)" font-family="Segoe UI" font-size="12" font-weight="400" fill="black">400</text>
  <text dominant-baseline="middle" text-anchor="end" transform="translate(23.012,50.1731)" font-family="Segoe UI" font-size="12" font-weight="400" fill="black">500</text>
  <polyline points="34.012,313.0212 27.012,313.0212" style="fill:none;stroke:black;stroke-width:1" />
  <polyline points="34.012,247.3092 27.012,247.3092" style="fill:none;stroke:black;stroke-width:1" />
  <polyline points="34.012,181.5971 27.012,181.5971" style="fill:none;stroke:black;stroke-width:1" />
  <polyline points="34.012,115.8851 27.012,115.8851" style="fill:none;stroke:black;stroke-width:1" />
  <polyline points="34.012,50.1731 27.012,50.1731" style="fill:none;stroke:black;stroke-width:1" />
  <text dominant-baseline="hanging" text-anchor="middle" transform="translate(52.2073,381.947)" font-family="Segoe UI" font-size="12" font-weight="400" fill="black">15. August</text>
  <text dominant-baseline="hanging" text-anchor="middle" transform="translate(137.1185,381.947)" font-family="Segoe UI" font-size="12" font-weight="400" fill="black">29. August</text>
  <text dominant-baseline="hanging" text-anchor="middle" transform="translate(222.0297,381.947)" font-family="Segoe UI" font-size="12" font-weight="400" fill="black">12. September</text>
  <text dominant-baseline="hanging" text-anchor="middle" transform="translate(306.9409,381.947)" font-family="Segoe UI" font-size="12" font-weight="400" fill="black">26. September</text>
  <text dominant-baseline="hanging" text-anchor="middle" transform="translate(391.8521,381.947)" font-family="Segoe UI" font-size="12" font-weight="400" fill="black">10. October</text>
  <text dominant-baseline="hanging" text-anchor="middle" transform="translate(476.7633,381.947)" font-family="Segoe UI" font-size="12" font-weight="400" fill="black">24. October</text>
  <text dominant-baseline="hanging" text-anchor="middle" transform="translate(561.6746,381.947)" font-family="Segoe UI" font-size="12" font-weight="400" fill="black">07. November</text>
  <polyline points="52.2073,370.947 52.2073,377.947" style="fill:none;stroke:black;stroke-width:1" />
  <polyline points="137.1185,370.947 137.1185,377.947" style="fill:none;stroke:black;stroke-width:1" />
  <polyline points="222.0297,370.947 222.0297,377.947" style="fill:none;stroke:black;stroke-width:1" />
  <polyline points="306.9409,370.947 306.9409,377.947" style="fill:none;stroke:black;stroke-width:1" />
  <polyline points="391.8521,370.947 391.8521,377.947" style="fill:none;stroke:black;stroke-width:1" />
  <polyline points="476.7633,370.947 476.7633,377.947" style="fill:none;stroke:black;stroke-width:1" />
  <polyline points="561.6746,370.947 561.6746,377.947" style="fill:none;stroke:black;stroke-width:1" />
  <polyline points="34.012,359.0196 46.1422,353.1055 64.3374,357.0482 70.4025,353.1055 76.4676,355.734 82.5327,352.4484 88.5978,353.1055 106.793,353.7626 112.8581,359.0196 118.9232,359.6767 124.9883,358.3625 131.0534,358.3625 149.2487,362.9623 155.3137,364.9337 161.3788,364.9337 167.4439,363.6195 173.509,364.2766 191.7043,364.2766 197.7693,367.5622 203.8344,365.5908 209.8995,361.6481 215.9646,359.0196 234.1599,352.4484 240.225,347.8486 246.29,341.2774 252.3551,340.6202 258.4202,338.6489 276.6155,344.563 282.6806,345.8772 288.7457,345.2201 294.8107,342.5916 300.8758,339.306 319.0711,323.5351 325.1362,325.5065 331.2013,326.1636 337.2663,316.3068 343.3314,307.1071 361.5267,296.5932 367.5918,305.7929 373.6569,297.2503 379.722,288.0506 385.787,285.4221 403.9823,265.7085 410.0474,280.8223 416.1125,272.9368 422.1776,255.1946 428.2427,229.5669 446.4379,196.7109 452.503,198.6823 458.5681,194.7395 464.6332,164.512 470.6983,158.5979 488.8935,69.8867 494.9586,94.2001 501.0237,94.2001 507.0888,86.9718 513.1539,47.5446 531.3491,60.0299 537.4142,125.7419 543.4793,111.2853 549.5444,92.2288 555.6095,84.3433 573.8047,40.3163 579.8698,67.2582 585.9349,48.2017 592,32.4308" style="fill:none;stroke:rgb(31,119,180);stroke-width:2;stroke-linejoin:bevel" />
  <text dominant-baseline="hanging" text-anchor="middle" transform="translate(313.006,8)" font-family="Segoe UI" font-size="18" font-weight="700" fill="black">Aktive Fälle Stadt Aachen 12.11.2020</text>
  <polygon points="34.012,29.0795 592,29.0795 592,370.947 34.012,370.947" style="fill:none;stroke:black;stroke-width:1" />
  <polygon points="42.012,37.0795 228.483,37.0795 228.483,63.1325 42.012,63.1325" style="fill:none;stroke:none;" />
  <text dominant-baseline="hanging" text-anchor="start" transform="translate(70.012,45.0795)" font-family="Segoe UI" font-size="12" font-weight="400" fill="black">Aktive Fälle Stadt Aachen 12.11.2020</text>
  <polyline points="50.012,50.106 66.012,50.106" style="fill:none;stroke:rgb(31,119,180);stroke-width:2" />
</svg>