<?xml version="1.0" encoding="utf-8" standalone="no"?>
<!DOCTYPE svg PUBLIC "-//W3C//DTD SVG 1.1//EN" "http://www.w3.org/Graphics/SVG/1.1/DTD/svg11.dtd">
<svg width="600" height="400" version="1.1" xmlns:xlink="http://www.w3.org/1999/xlink" xmlns="http://www.w3.org/2000/svg">
  <rect x="0" y="0" width="600" height="400" style="fill:rgb(255,255,255);stroke:none;" />
  <polyline points="39.016,357.0495 35.016,357.0495" style="fill:none;stroke:black;stroke-width:1" />
  <polyline points="39.016,341.1212 35.016,341.1212" style="fill:none;stroke:black;stroke-width:1" />
  <polyline points="39.016,325.1929 35.016,325.1929" style="fill:none;stroke:black;stroke-width:1" />
  <polyline points="39.016,293.3363 35.016,293.3363" style="fill:none;stroke:black;stroke-width:1" />
  <polyline points="39.016,277.408 35.016,277.408" style="fill:none;stroke:black;stroke-width:1" />
  <polyline points="39.016,261.4797 35.016,261.4797" style="fill:none;stroke:black;stroke-width:1" />
  <polyline points="39.016,229.6231 35.016,229.6231" style="fill:none;stroke:black;stroke-width:1" />
  <polyline points="39.016,213.6948 35.016,213.6948" style="fill:none;stroke:black;stroke-width:1" />
  <polyline points="39.016,197.7665 35.016,197.7665" style="fill:none;stroke:black;stroke-width:1" />
  <polyline points="39.016,165.9099 35.016,165.9099" style="fill:none;stroke:black;stroke-width:1" />
  <polyline points="39.016,149.9816 35.016,149.9816" style="fill:none;stroke:black;stroke-width:1" />
  <polyline points="39.016,134.0533 35.016,134.0533" style="fill:none;stroke:black;stroke-width:1" />
  <polyline points="39.016,102.1968 35.016,102.1968" style="fill:none;stroke:black;stroke-width:1" />
  <polyline points="39.016,86.2685 35.016,86.2685" style="fill:none;stroke:black;stroke-width:1" />
  <polyline points="39.016,70.3402 35.016,70.3402" style="fill:none;stroke:black;stroke-width:1" />
  <polyline points="39.016,38.4836 35.016,38.4836" style="fill:none;stroke:black;stroke-width:1" />
  <text dominant-baseline="middle" text-anchor="end" transform="translate(28.016,309.2646)" font-family="Segoe UI" font-size="12" font-weight="400" fill="black">200</text>
  <text dominant-baseline="middle" text-anchor="end" transform="translate(28.016,245.5514)" font-family="Segoe UI" font-size="12" font-weight="400" fill="black">400</text>
  <text dominant-baseline="middle" text-anchor="end" transform="translate(28.016,181.8382)" font-family="Segoe UI" font-size="12" font-weight="400" fill="black">600</text>
  <text dominant-baseline="middle" text-anchor="end" transform="translate(28.016,118.125)" font-family="Segoe UI" font-size="12" font-weight="400" fill="black">800</text>
  <text dominant-baseline="middle" text-anchor="end" transform="translate(28.016,54.4119)" font-family="Segoe UI" font-size="12" font-weight="400" fill="black">1000</text>
  <polyline points="39.016,309.2646 32.016,309.2646" style="fill:none;stroke:black;stroke-width:1" />
  <polyline points="39.016,245.5514 32.016,245.5514" style="fill:none;stroke:black;stroke-width:1" />
  <polyline points="39.016,181.8382 32.016,181.8382" style="fill:none;stroke:black;stroke-width:1" />
  <polyline points="39.016,118.125 32.016,118.125" style="fill:none;stroke:black;stroke-width:1" />
  <polyline points="39.016,54.4119 32.016,54.4119" style="fill:none;stroke:black;stroke-width:1" />
  <text dominant-baseline="hanging" text-anchor="middle" transform="translate(82.558,381.947)" font-family="Segoe UI" font-size="12" font-weight="400" fill="black">01. September</text>
  <text dominant-baseline="hanging" text-anchor="middle" transform="translate(147.8711,381.947)" font-family="Segoe UI" font-size="12" font-weight="400" fill="black">01. October</text>
  <text dominant-baseline="hanging" text-anchor="middle" transform="translate(215.3613,381.947)" font-family="Segoe UI" font-size="12" font-weight="400" fill="black">01. November</text>
  <text dominant-baseline="hanging" text-anchor="middle" transform="translate(280.6744,381.947)" font-family="Segoe UI" font-size="12" font-weight="400" fill="black">01. December</text>
  <text dominant-baseline="hanging" text-anchor="middle" transform="translate(348.1645,381.947)" font-family="Segoe UI" font-size="12" font-weight="400" fill="black">01. January</text>
  <text dominant-baseline="hanging" text-anchor="middle" transform="translate(415.6547,381.947)" font-family="Segoe UI" font-size="12" font-weight="400" fill="black">01. February</text>
  <text dominant-baseline="hanging" text-anchor="middle" transform="translate(476.6136,381.947)" font-family="Segoe UI" font-size="12" font-weight="400" fill="black">01. March</text>
  <text dominant-baseline="hanging" text-anchor="middle" transform="translate(544.1037,381.947)" font-family="Segoe UI" font-size="12" font-weight="400" fill="black">01. April</text>
  <polyline points="82.558,370.947 82.558,377.947" style="fill:none;stroke:black;stroke-width:1" />
  <polyline points="147.8711,370.947 147.8711,377.947" style="fill:none;stroke:black;stroke-width:1" />
  <polyline points="215.3613,370.947 215.3613,377.947" style="fill:none;stroke:black;stroke-width:1" />
  <polyline points="280.6744,370.947 280.6744,377.947" style="fill:none;stroke:black;stroke-width:1" />
  <polyline points="348.1645,370.947 348.1645,377.947" style="fill:none;stroke:black;stroke-width:1" />
  <polyline points="415.6547,370.947 415.6547,377.947" style="fill:none;stroke:black;stroke-width:1" />
  <polyline points="476.6136,370.947 476.6136,377.947" style="fill:none;stroke:black;stroke-width:1" />
  <polyline points="544.1037,370.947 544.1037,377.947" style="fill:none;stroke:black;stroke-width:1" />
  <polyline points="39.016,363.4208 43.3702,360.5537 49.9015,362.4651 52.0786,360.5537 54.2557,361.828 56.4328,360.2352 58.6099,360.5537 65.1412,360.8723 67.3183,363.4208 69.4954,363.7394 71.6725,363.1023 73.8496,363.1023 80.3809,365.3322 82.558,366.2879 84.7351,366.2879 86.9123,365.6508 89.0894,365.9693 95.6207,365.9693 97.7978,367.5622 99.9749,366.6065 102.152,364.6951 104.3291,363.4208 110.8604,360.2352 113.0375,358.0052 115.2146,354.8195 117.3917,354.501 119.5688,353.5453 126.1001,356.4124 128.2772,357.0495 130.4543,356.7309 132.6314,355.4567 134.8085,353.8638 141.3398,346.2183 143.5169,347.174 145.694,347.4925 147.8711,342.714 150.0482,338.2541 156.5795,333.1571 158.7566,337.617 160.9337,333.4756 163.1108,329.0157 165.2879,327.7414 171.8192,318.1845 173.9963,325.5115 176.1734,321.6887 178.3506,313.0874 180.5277,300.6633 187.059,284.735 189.2361,285.6907 191.4132,283.7793 193.5903,269.1253 195.7674,266.2582 202.2987,223.2518 204.4758,235.0387 206.6529,235.0387 208.83,231.5345 211.0071,212.4206 217.5384,218.4733 219.7155,250.3299 221.8926,243.3215 224.0697,234.083 226.2468,230.2603 232.7781,208.9163 234.9552,221.9775 237.1323,212.7391 241.4865,194.8994 248.0178,191.0766 250.1949,208.9163 252.372,213.6948 254.5491,193.6252 256.7262,209.2349 263.2575,223.8889 265.4346,235.6759 267.6117,231.5345 269.7889,241.4101 271.966,226.4375 278.4973,207.6421 280.6744,218.1548 282.8515,234.4016 285.0286,228.6674 287.2057,236.9501 293.737,197.1294 295.9141,214.0134 298.0912,223.2518 300.2683,207.3235 302.4454,197.1294 308.9767,165.2728 311.1538,185.3425 313.3309,192.988 315.508,182.1568 317.6851,164.9542 324.2164,140.4247 326.3935,159.2201 328.5706,175.1484 339.4561,139.469 341.6332,156.6715 343.8103,169.4142 345.9874,156.0344 354.6958,156.353 356.8729,173.5555 359.05,197.7665 361.2271,203.1822 363.4043,184.7053 372.1127,220.0661 374.2898,236.313 376.4669,229.3046 378.644,247.1443 385.1753,257.6569 387.3524,276.1338 389.5295,280.9122 391.7066,279.638 393.8837,276.7709 400.415,276.4523 404.7692,283.7793 406.9463,270.3996 409.1234,261.7983 415.6547,263.0725 417.8318,277.7266 420.0089,290.4692 422.186,284.4165 424.3631,284.4165 430.8944,295.8848 433.0715,304.1676 435.2486,299.3891 437.4257,289.8321 439.6028,280.2751 446.1341,287.2836 448.3112,310.8574 450.4883,309.5832 452.6654,302.8933 454.8426,317.2288 461.3739,323.2815 463.551,329.0157 465.7281,325.1929 467.9052,323.9186 470.0823,325.5115 476.6136,327.1043 478.7907,335.0684 480.9678,329.6528 483.1449,312.4503 485.322,311.4946 491.8533,298.4334 494.0304,298.4334 496.2075,293.3363 498.3846,285.3722 500.5617,275.4966 507.093,268.8067 509.2701,269.7624 511.4472,270.3996 513.6243,250.3299 515.8014,236.6316 522.3327,219.7476 524.5098,220.0661 526.6869,221.3404 528.864,199.3594 531.0411,195.218 537.5724,192.3509 539.7495,214.9691 541.9266,219.429 544.1037,211.7834 546.2809,188.5281 554.9893,174.1927 557.1664,176.7412 559.3435,153.4859 561.5206,148.3888 568.0519,142.6546 570.229,144.2475 572.4061,126.7263 574.5832,113.6651 576.7603,116.2137 583.2916,99.9668 585.4687,95.1883 587.6458,72.8887 589.8229,44.5363 592,32.4308" style="fill:none;stroke:rgb(31,119,180);stroke-width:2;stroke-linejoin:bevel" />
  <text dominant-baseline="hanging" text-anchor="middle" transform="translate(315.508,8)" font-family="Segoe UI" font-size="18" font-weight="700" fill="black">Aktive Fälle Stadt Aachen 23.04.2021</text>
  <polygon points="39.016,29.0795 592,29.0795 592,370.947 39.016,370.947" style="fill:none;stroke:black;stroke-width:1" />
  <polygon points="47.016,37.0795 233.487,37.0795 233.487,63.1325 47.016,63.1325" style="fill:none;stroke:none;" />
  <text dominant-baseline="hanging" text-anchor="start" transform="translate(75.016,45.0795)" font-family="Segoe UI" font-size="12" font-weight="400" fill="black">Aktive Fälle Stadt Aachen 23.04.2021</text>
  <polyline points="55.016,50.106 71.016,50.106" style="fill:none;stroke:rgb(31,119,180);stroke-width:2" />
</svg>