<?xml version="1.0" encoding="utf-8" standalone="no"?>
<!DOCTYPE svg PUBLIC "-//W3C//DTD SVG 1.1//EN" "http://www.w3.org/Graphics/SVG/1.1/DTD/svg11.dtd">
<svg width="600" height="400" version="1.1" xmlns:xlink="http://www.w3.org/1999/xlink" xmlns="http://www.w3.org/2000/svg">
  <rect x="0" y="0" width="600" height="400" style="fill:rgb(255,255,255);stroke:none;" />
  <polyline points="34.012,352.1162 30.012,352.1162" style="fill:none;stroke:black;stroke-width:1" />
  <polyline points="34.012,328.7131 30.012,328.7131" style="fill:none;stroke:black;stroke-width:1" />
  <polyline points="34.012,305.3101 30.012,305.3101" style="fill:none;stroke:black;stroke-width:1" />
  <polyline points="34.012,258.5041 30.012,258.5041" style="fill:none;stroke:black;stroke-width:1" />
  <polyline points="34.012,235.101 30.012,235.101" style="fill:none;stroke:black;stroke-width:1" />
  <polyline points="34.012,211.698 30.012,211.698" style="fill:none;stroke:black;stroke-width:1" />
  <polyline points="34.012,164.892 30.012,164.892" style="fill:none;stroke:black;stroke-width:1" />
  <polyline points="34.012,141.4889 30.012,141.4889" style="fill:none;stroke:black;stroke-width:1" />
  <polyline points="34.012,118.0859 30.012,118.0859" style="fill:none;stroke:black;stroke-width:1" />
  <polyline points="34.012,71.2798 30.012,71.2798" style="fill:none;stroke:black;stroke-width:1" />
  <polyline points="34.012,47.8768 30.012,47.8768" style="fill:none;stroke:black;stroke-width:1" />
  <text dominant-baseline="middle" text-anchor="end" transform="translate(23.012,281.9071)" font-family="Segoe UI" font-size="12" font-weight="400" fill="black">200</text>
  <text dominant-baseline="middle" text-anchor="end" transform="translate(23.012,188.295)" font-family="Segoe UI" font-size="12" font-weight="400" fill="black">400</text>
  <text dominant-baseline="middle" text-anchor="end" transform="translate(23.012,94.6829)" font-family="Segoe UI" font-size="12" font-weight="400" fill="black">600</text>
  <polyline points="34.012,281.9071 27.012,281.9071" style="fill:none;stroke:black;stroke-width:1" />
  <polyline points="34.012,188.295 27.012,188.295" style="fill:none;stroke:black;stroke-width:1" />
  <polyline points="34.012,94.6829 27.012,94.6829" style="fill:none;stroke:black;stroke-width:1" />
  <text dominant-baseline="hanging" text-anchor="middle" transform="translate(97.7821,381.947)" font-family="Segoe UI" font-size="12" font-weight="400" fill="black">01. September</text>
  <text dominant-baseline="hanging" text-anchor="middle" transform="translate(193.4371,381.947)" font-family="Segoe UI" font-size="12" font-weight="400" fill="black">01. October</text>
  <text dominant-baseline="hanging" text-anchor="middle" transform="translate(292.2807,381.947)" font-family="Segoe UI" font-size="12" font-weight="400" fill="black">01. November</text>
  <text dominant-baseline="hanging" text-anchor="middle" transform="translate(387.9358,381.947)" font-family="Segoe UI" font-size="12" font-weight="400" fill="black">01. December</text>
  <text dominant-baseline="hanging" text-anchor="middle" transform="translate(486.7794,381.947)" font-family="Segoe UI" font-size="12" font-weight="400" fill="black">01. January</text>
  <text dominant-baseline="hanging" text-anchor="middle" transform="translate(585.623,381.947)" font-family="Segoe UI" font-size="12" font-weight="400" fill="black">01. February</text>
  <polyline points="97.7821,370.947 97.7821,377.947" style="fill:none;stroke:black;stroke-width:1" />
  <polyline points="193.4371,370.947 193.4371,377.947" style="fill:none;stroke:black;stroke-width:1" />
  <polyline points="292.2807,370.947 292.2807,377.947" style="fill:none;stroke:black;stroke-width:1" />
  <polyline points="387.9358,370.947 387.9358,377.947" style="fill:none;stroke:black;stroke-width:1" />
  <polyline points="486.7794,370.947 486.7794,377.947" style="fill:none;stroke:black;stroke-width:1" />
  <polyline points="585.623,370.947 585.623,377.947" style="fill:none;stroke:black;stroke-width:1" />
  <polyline points="34.012,361.4774 40.389,357.2648 49.9545,360.0732 53.143,357.2648 56.3315,359.1371 59.52,356.7968 62.7085,357.2648 72.274,357.7329 75.4625,361.4774 78.651,361.9454 81.8395,361.0093 85.028,361.0093 94.5936,364.2857 97.7821,365.6899 100.9706,365.6899 104.1591,364.7538 107.3476,365.2219 116.9131,365.2219 120.1016,367.5622 123.2901,366.158 126.4786,363.3496 129.6671,361.4774 139.2326,356.7968 142.4211,353.5204 145.6096,348.8398 148.7981,348.3717 151.9866,346.9675 161.5521,351.1801 164.7406,352.1162 167.9291,351.6481 171.1176,349.7759 174.3061,347.4356 183.8716,336.2021 187.0601,337.6063 190.2486,338.0744 193.4371,331.0534 196.6256,324.5006 206.1912,317.0116 209.3797,323.5645 212.5682,317.4797 215.7567,310.9268 218.9452,309.0546 228.5107,295.0128 231.6992,305.7782 234.8877,300.1615 238.0762,287.5238 241.2647,269.2695 250.8302,245.8664 254.0187,247.2706 257.2072,244.4622 260.3957,222.9315 263.5842,218.7189 273.1497,155.5307 276.3382,172.849 279.5267,172.849 282.7152,167.7003 285.9037,139.6167 295.4692,148.5098 298.6577,195.3159 301.8462,185.0186 305.0347,171.4448 308.2232,165.8281 317.7888,134.468 320.9773,153.6585 324.1658,140.0847 330.5428,113.8734 340.1083,108.2566 343.2968,134.468 346.4853,141.4889 349.6738,112.0011 352.8623,134.9361 362.4278,156.4669 365.6163,173.7851 368.8048,167.7003 371.9933,182.2102 375.1818,160.2113 384.7473,132.5958 387.9358,148.0418 391.1243,171.9129 394.3128,163.4878 397.5013,175.6573 407.0668,117.1498 410.2553,141.957 413.4438,155.5307 416.6323,132.1277 419.8208,117.1498 429.3864,70.3437 432.5749,99.8315 435.7634,111.065 438.9519,95.1509 442.1404,69.8757 451.7059,33.835 454.8944,61.4506 458.0829,84.8536 474.0254,32.4308 477.2139,57.7061 480.4024,76.4285 483.5909,56.77 496.3449,57.238 499.5334,82.5133 502.7219,118.0859 505.9104,126.0429 509.0989,98.8954 521.8529,150.8501 525.0414,174.7212 528.2299,164.4239 531.4184,190.6353 540.984,206.0813 544.1725,233.2288 547.361,240.2497 550.5495,238.3775 553.738,234.1649 563.3035,233.6969 569.6805,244.4622 572.869,224.8037 576.0575,212.1661 585.623,214.0383 588.8115,235.5691 592,254.2915" style="fill:none;stroke:rgb(31,119,180);stroke-width:2;stroke-linejoin:bevel" />
  <text dominant-baseline="hanging" text-anchor="middle" transform="translate(313.006,8)" font-family="Segoe UI" font-size="18" font-weight="700" fill="black">Aktive Fälle Stadt Aachen 03.02.2021</text>
  <polygon points="34.012,29.0795 592,29.0795 592,370.947 34.012,370.947" style="fill:none;stroke:black;stroke-width:1" />
  <polygon points="42.012,37.0795 228.483,37.0795 228.483,63.1325 42.012,63.1325" style="fill:none;stroke:none;" />
  <text dominant-baseline="hanging" text-anchor="start" transform="translate(70.012,45.0795)" font-family="Segoe UI" font-size="12" font-weight="400" fill="black">Aktive Fälle Stadt Aachen 03.02.2021</text>
  <polyline points="50.012,50.106 66.012,50.106" style="fill:none;stroke:rgb(31,119,180);stroke-width:2" />
</svg>