<?xml version="1.0" encoding="utf-8" standalone="no"?>
<!DOCTYPE svg PUBLIC "-//W3C//DTD SVG 1.1//EN" "http://www.w3.org/Graphics/SVG/1.1/DTD/svg11.dtd">
<svg width="600" height="400" version="1.1" xmlns:xlink="http://www.w3.org/1999/xlink" xmlns="http://www.w3.org/2000/svg">
  <rect x="0" y="0" width="600" height="400" style="fill:rgb(255,255,255);stroke:none;" />
  <polyline points="39.016,357.0495 35.016,357.0495" style="fill:none;stroke:black;stroke-width:1" />
  <polyline points="39.016,341.1212 35.016,341.1212" style="fill:none;stroke:black;stroke-width:1" />
  <polyline points="39.016,325.1929 35.016,325.1929" style="fill:none;stroke:black;stroke-width:1" />
  <polyline points="39.016,293.3363 35.016,293.3363" style="fill:none;stroke:black;stroke-width:1" />
  <polyline points="39.016,277.408 35.016,277.408" style="fill:none;stroke:black;stroke-width:1" />
  <polyline points="39.016,261.4797 35.016,261.4797" style="fill:none;stroke:black;stroke-width:1" />
  <polyline points="39.016,229.6231 35.016,229.6231" style="fill:none;stroke:black;stroke-width:1" />
  <polyline points="39.016,213.6948 35.016,213.6948" style="fill:none;stroke:black;stroke-width:1" />
  <polyline points="39.016,197.7665 35.016,197.7665" style="fill:none;stroke:black;stroke-width:1" />
  <polyline points="39.016,165.9099 35.016,165.9099" style="fill:none;stroke:black;stroke-width:1" />
  <polyline points="39.016,149.9816 35.016,149.9816" style="fill:none;stroke:black;stroke-width:1" />
  <polyline points="39.016,134.0533 35.016,134.0533" style="fill:none;stroke:black;stroke-width:1" />
  <polyline points="39.016,102.1968 35.016,102.1968" style="fill:none;stroke:black;stroke-width:1" />
  <polyline points="39.016,86.2685 35.016,86.2685" style="fill:none;stroke:black;stroke-width:1" />
  <polyline points="39.016,70.3402 35.016,70.3402" style="fill:none;stroke:black;stroke-width:1" />
  <polyline points="39.016,38.4836 35.016,38.4836" style="fill:none;stroke:black;stroke-width:1" />
  <polyline points="74.1261,370.947 74.1261,374.947" style="fill:none;stroke:black;stroke-width:1" />
  <polyline points="181.2119,370.947 181.2119,374.947" style="fill:none;stroke:black;stroke-width:1" />
  <polyline points="288.2977,370.947 288.2977,374.947" style="fill:none;stroke:black;stroke-width:1" />
  <polyline points="391.8725,370.947 391.8725,374.947" style="fill:none;stroke:black;stroke-width:1" />
  <polyline points="498.9582,370.947 498.9582,374.947" style="fill:none;stroke:black;stroke-width:1" />
  <text dominant-baseline="middle" text-anchor="end" transform="translate(28.016,309.2646)" font-family="Segoe UI" font-size="12" font-weight="400" fill="black">200</text>
  <text dominant-baseline="middle" text-anchor="end" transform="translate(28.016,245.5514)" font-family="Segoe UI" font-size="12" font-weight="400" fill="black">400</text>
  <text dominant-baseline="middle" text-anchor="end" transform="translate(28.016,181.8382)" font-family="Segoe UI" font-size="12" font-weight="400" fill="black">600</text>
  <text dominant-baseline="middle" text-anchor="end" transform="translate(28.016,118.125)" font-family="Segoe UI" font-size="12" font-weight="400" fill="black">800</text>
  <text dominant-baseline="middle" text-anchor="end" transform="translate(28.016,54.4119)" font-family="Segoe UI" font-size="12" font-weight="400" fill="black">1000</text>
  <polyline points="39.016,309.2646 32.016,309.2646" style="fill:none;stroke:black;stroke-width:1" />
  <polyline points="39.016,245.5514 32.016,245.5514" style="fill:none;stroke:black;stroke-width:1" />
  <polyline points="39.016,181.8382 32.016,181.8382" style="fill:none;stroke:black;stroke-width:1" />
  <polyline points="39.016,118.125 32.016,118.125" style="fill:none;stroke:black;stroke-width:1" />
  <polyline points="39.016,54.4119 32.016,54.4119" style="fill:none;stroke:black;stroke-width:1" />
  <text dominant-baseline="hanging" text-anchor="middle" transform="translate(126.7912,381.947)" font-family="Segoe UI" font-size="12" font-weight="400" fill="black">01. October</text>
  <text dominant-baseline="hanging" text-anchor="middle" transform="translate(233.877,381.947)" font-family="Segoe UI" font-size="12" font-weight="400" fill="black">01. December</text>
  <text dominant-baseline="hanging" text-anchor="middle" transform="translate(342.7183,381.947)" font-family="Segoe UI" font-size="12" font-weight="400" fill="black">01. February</text>
  <text dominant-baseline="hanging" text-anchor="middle" transform="translate(446.2931,381.947)" font-family="Segoe UI" font-size="12" font-weight="400" fill="black">01. April</text>
  <text dominant-baseline="hanging" text-anchor="middle" transform="translate(553.3789,381.947)" font-family="Segoe UI" font-size="12" font-weight="400" fill="black">01. June</text>
  <polyline points="126.7912,370.947 126.7912,377.947" style="fill:none;stroke:black;stroke-width:1" />
  <polyline points="233.877,370.947 233.877,377.947" style="fill:none;stroke:black;stroke-width:1" />
  <polyline points="342.7183,370.947 342.7183,377.947" style="fill:none;stroke:black;stroke-width:1" />
  <polyline points="446.2931,370.947 446.2931,377.947" style="fill:none;stroke:black;stroke-width:1" />
  <polyline points="553.3789,370.947 553.3789,377.947" style="fill:none;stroke:black;stroke-width:1" />
  <polyline points="39.016,363.4208 42.527,360.5537 47.7935,362.4651 49.549,360.5537 51.3045,361.828 53.06,360.2352 54.8155,360.5537 60.0821,360.8723 61.8376,363.4208 63.5931,363.7394 65.3486,363.1023 67.1041,363.1023 72.3706,365.3322 74.1261,366.2879 75.8816,366.2879 77.6371,365.6508 79.3926,365.9693 84.6591,365.9693 86.4146,367.5622 88.1701,366.6065 89.9256,364.6951 91.6811,363.4208 96.9477,360.2352 98.7032,358.0052 100.4587,354.8195 102.2142,354.501 103.9697,353.5453 109.2362,356.4124 110.9917,357.0495 112.7472,356.7309 114.5027,355.4567 116.2582,353.8638 121.5247,346.2183 123.2802,347.174 125.0357,347.4925 126.7912,342.714 128.5467,338.2541 133.8133,333.1571 135.5688,337.617 137.3243,333.4756 139.0798,329.0157 140.8353,327.7414 146.1018,318.1845 147.8573,325.5115 149.6128,321.6887 151.3683,313.0874 153.1238,300.6633 158.3903,284.735 160.1458,285.6907 161.9013,283.7793 163.6568,269.1253 165.4123,266.2582 170.6789,223.2518 172.4344,235.0387 174.1899,235.0387 175.9454,231.5345 177.7009,212.4206 182.9674,218.4733 184.7229,250.3299 186.4784,243.3215 188.2339,234.083 189.9894,230.2603 195.2559,208.9163 197.0114,221.9775 198.7669,212.7391 202.2779,194.8994 207.5445,191.0766 209.3,208.9163 211.0555,213.6948 212.811,193.6252 214.5665,209.2349 219.833,223.8889 221.5885,235.6759 223.344,231.5345 225.0995,241.4101 226.855,226.4375 232.1215,207.6421 233.877,218.1548 235.6325,234.4016 237.388,228.6674 239.1435,236.9501 244.4101,197.1294 246.1656,214.0134 247.9211,223.2518 249.6766,207.3235 251.4321,197.1294 256.6986,165.2728 258.4541,185.3425 260.2096,192.988 261.9651,182.1568 263.7206,164.9542 268.9871,140.4247 270.7426,159.2201 272.4981,175.1484 281.2757,139.469 283.0312,156.6715 284.7867,169.4142 286.5422,156.0344 293.5642,156.353 295.3197,173.5555 297.0752,197.7665 298.8307,203.1822 300.5862,184.7053 307.6082,220.0661 309.3637,236.313 311.1192,229.3046 312.8747,247.1443 318.1413,257.6569 319.8968,276.1338 321.6523,280.9122 323.4078,279.638 325.1633,276.7709 330.4298,276.4523 333.9408,283.7793 335.6963,270.3996 337.4518,261.7983 342.7183,263.0725 344.4738,277.7266 346.2293,290.4692 347.9848,284.4165 349.7403,284.4165 355.0069,295.8848 356.7624,304.1676 358.5179,299.3891 360.2734,289.8321 362.0289,280.2751 367.2954,287.2836 369.0509,310.8574 370.8064,309.5832 372.5619,302.8933 374.3174,317.2288 379.5839,323.2815 381.3394,329.0157 383.0949,325.1929 384.8504,323.9186 386.6059,325.5115 391.8725,327.1043 393.628,335.0684 395.3835,329.6528 397.139,312.4503 398.8945,311.4946 404.161,298.4334 405.9165,298.4334 407.672,293.3363 409.4275,285.3722 411.183,275.4966 416.4495,268.8067 418.205,269.7624 419.9605,270.3996 421.716,250.3299 423.4715,236.6316 428.7381,219.7476 430.4936,220.0661 432.2491,221.3404 434.0046,199.3594 435.7601,195.218 441.0266,192.3509 442.7821,214.9691 444.5376,219.429 446.2931,211.7834 448.0486,188.5281 455.0706,174.1927 456.8261,176.7412 458.5816,153.4859 460.3371,148.3888 465.6037,142.6546 467.3592,144.2475 469.1147,126.7263 470.8702,113.6651 472.6257,116.2137 477.8922,99.9668 479.6477,95.1883 481.4032,72.8887 483.1587,44.5363 484.9142,32.4308 490.1807,42.3064 491.9362,49.3148 493.6917,66.1988 495.4472,77.6672 497.2027,71.2959 502.4693,109.8423 504.2248,105.701 505.9803,125.7706 507.7358,134.6905 509.4913,148.3888 514.7578,149.0259 516.5133,175.7855 518.2688,170.6884 521.7798,185.3425 527.0463,171.9627 528.8018,185.661 530.5573,186.2982 532.3128,180.564 534.0683,185.0239 541.0904,213.3763 542.8459,232.8088 544.6014,239.8172 546.3569,234.7202 551.6234,261.4797 553.3789,282.1865 555.1344,289.195 558.6454,301.9376 563.9119,310.5389 565.6674,317.8659 567.4229,328.6971 569.1784,332.5199 570.9339,337.2984 576.2005,338.5727 577.956,337.617 579.7115,348.7668 581.467,348.1297 583.2225,349.7225 588.489,350.6782 590.2445,351.9524 592,352.5896" style="fill:none;stroke:rgb(31,119,180);stroke-width:2;stroke-linejoin:bevel" />
  <text dominant-baseline="hanging" text-anchor="middle" transform="translate(315.508,8)" font-family="Segoe UI" font-size="18" font-weight="700" fill="black">Aktive Fälle Stadt Aachen 23.06.2021</text>
  <polygon points="39.016,29.0795 592,29.0795 592,370.947 39.016,370.947" style="fill:none;stroke:black;stroke-width:1" />
  <polygon points="47.016,37.0795 233.487,37.0795 233.487,63.1325 47.016,63.1325" style="fill:none;stroke:none;" />
  <text dominant-baseline="hanging" text-anchor="start" transform="translate(75.016,45.0795)" font-family="Segoe UI" font-size="12" font-weight="400" fill="black">Aktive Fälle Stadt Aachen 23.06.2021</text>
  <polyline points="55.016,50.106 71.016,50.106" style="fill:none;stroke:rgb(31,119,180);stroke-width:2" />
</svg>