<?xml version="1.0" encoding="utf-8" standalone="no"?>
<!DOCTYPE svg PUBLIC "-//W3C//DTD SVG 1.1//EN" "http://www.w3.org/Graphics/SVG/1.1/DTD/svg11.dtd">
<svg width="600" height="400" version="1.1" xmlns:xlink="http://www.w3.org/1999/xlink" xmlns="http://www.w3.org/2000/svg">
  <rect x="0" y="0" width="600" height="400" style="fill:rgb(255,255,255);stroke:none;" />
  <polyline points="34.012,352.1162 30.012,352.1162" style="fill:none;stroke:black;stroke-width:1" />
  <polyline points="34.012,328.7131 30.012,328.7131" style="fill:none;stroke:black;stroke-width:1" />
  <polyline points="34.012,305.3101 30.012,305.3101" style="fill:none;stroke:black;stroke-width:1" />
  <polyline points="34.012,258.5041 30.012,258.5041" style="fill:none;stroke:black;stroke-width:1" />
  <polyline points="34.012,235.101 30.012,235.101" style="fill:none;stroke:black;stroke-width:1" />
  <polyline points="34.012,211.698 30.012,211.698" style="fill:none;stroke:black;stroke-width:1" />
  <polyline points="34.012,164.892 30.012,164.892" style="fill:none;stroke:black;stroke-width:1" />
  <polyline points="34.012,141.4889 30.012,141.4889" style="fill:none;stroke:black;stroke-width:1" />
  <polyline points="34.012,118.0859 30.012,118.0859" style="fill:none;stroke:black;stroke-width:1" />
  <polyline points="34.012,71.2798 30.012,71.2798" style="fill:none;stroke:black;stroke-width:1" />
  <polyline points="34.012,47.8768 30.012,47.8768" style="fill:none;stroke:black;stroke-width:1" />
  <text dominant-baseline="middle" text-anchor="end" transform="translate(23.012,281.9071)" font-family="Segoe UI" font-size="12" font-weight="400" fill="black">200</text>
  <text dominant-baseline="middle" text-anchor="end" transform="translate(23.012,188.295)" font-family="Segoe UI" font-size="12" font-weight="400" fill="black">400</text>
  <text dominant-baseline="middle" text-anchor="end" transform="translate(23.012,94.6829)" font-family="Segoe UI" font-size="12" font-weight="400" fill="black">600</text>
  <polyline points="34.012,281.9071 27.012,281.9071" style="fill:none;stroke:black;stroke-width:1" />
  <polyline points="34.012,188.295 27.012,188.295" style="fill:none;stroke:black;stroke-width:1" />
  <polyline points="34.012,94.6829 27.012,94.6829" style="fill:none;stroke:black;stroke-width:1" />
  <text dominant-baseline="hanging" text-anchor="middle" transform="translate(109.9287,381.947)" font-family="Segoe UI" font-size="12" font-weight="400" fill="black">01. September</text>
  <text dominant-baseline="hanging" text-anchor="middle" transform="translate(223.8038,381.947)" font-family="Segoe UI" font-size="12" font-weight="400" fill="black">01. October</text>
  <text dominant-baseline="hanging" text-anchor="middle" transform="translate(341.4748,381.947)" font-family="Segoe UI" font-size="12" font-weight="400" fill="black">01. November</text>
  <text dominant-baseline="hanging" text-anchor="middle" transform="translate(455.3499,381.947)" font-family="Segoe UI" font-size="12" font-weight="400" fill="black">01. December</text>
  <text dominant-baseline="hanging" text-anchor="middle" transform="translate(573.0208,381.947)" font-family="Segoe UI" font-size="12" font-weight="400" fill="black">01. January</text>
  <polyline points="109.9287,370.947 109.9287,377.947" style="fill:none;stroke:black;stroke-width:1" />
  <polyline points="223.8038,370.947 223.8038,377.947" style="fill:none;stroke:black;stroke-width:1" />
  <polyline points="341.4748,370.947 341.4748,377.947" style="fill:none;stroke:black;stroke-width:1" />
  <polyline points="455.3499,370.947 455.3499,377.947" style="fill:none;stroke:black;stroke-width:1" />
  <polyline points="573.0208,370.947 573.0208,377.947" style="fill:none;stroke:black;stroke-width:1" />
  <polyline points="34.012,361.4774 41.6037,357.2648 52.9912,360.0732 56.787,357.2648 60.5829,359.1371 64.3787,356.7968 68.1745,357.2648 79.562,357.7329 83.3579,361.4774 87.1537,361.9454 90.9496,361.0093 94.7454,361.0093 106.1329,364.2857 109.9287,365.6899 113.7246,365.6899 117.5204,364.7538 121.3162,365.2219 132.7038,365.2219 136.4996,367.5622 140.2954,366.158 144.0913,363.3496 147.8871,361.4774 159.2746,356.7968 163.0704,353.5204 166.8663,348.8398 170.6621,348.3717 174.458,346.9675 185.8455,351.1801 189.6413,352.1162 193.4371,351.6481 197.233,349.7759 201.0288,347.4356 212.4163,336.2021 216.2122,337.6063 220.008,338.0744 223.8038,331.0534 227.5997,324.5006 238.9872,317.0116 242.783,323.5645 246.5789,317.4797 250.3747,310.9268 254.1705,309.0546 265.558,295.0128 269.3539,305.7782 273.1497,300.1615 276.9456,287.5238 280.7414,269.2695 292.1289,245.8664 295.9247,247.2706 299.7206,244.4622 303.5164,222.9315 307.3122,218.7189 318.6998,155.5307 322.4956,172.849 326.2914,172.849 330.0873,167.7003 333.8831,139.6167 345.2706,148.5098 349.0664,195.3159 352.8623,185.0186 356.6581,171.4448 360.454,165.8281 371.8415,134.468 375.6373,153.6585 379.4331,140.0847 387.0248,113.8734 398.4123,108.2566 402.2082,134.468 406.004,141.4889 409.7998,112.0011 413.5957,134.9361 424.9832,156.4669 428.779,173.7851 432.5749,167.7003 436.3707,182.2102 440.1665,160.2113 451.554,132.5958 455.3499,148.0418 459.1457,171.9129 462.9416,163.4878 466.7374,175.6573 478.1249,117.1498 481.9207,141.957 485.7166,155.5307 489.5124,132.1277 493.3082,117.1498 504.6958,70.3437 508.4916,99.8315 512.2874,111.065 516.0833,95.1509 519.8791,69.8757 531.2666,33.835 535.0624,61.4506 538.8583,84.8536 557.8375,32.4308 561.6333,57.7061 565.4291,76.4285 569.225,56.77 584.4083,57.238 588.2042,82.5133 592,118.0859" style="fill:none;stroke:rgb(31,119,180);stroke-width:2;stroke-linejoin:bevel" />
  <text dominant-baseline="hanging" text-anchor="middle" transform="translate(313.006,8)" font-family="Segoe UI" font-size="18" font-weight="700" fill="black">Aktive Fälle Stadt Aachen 06.01.2021</text>
  <polygon points="34.012,29.0795 592,29.0795 592,370.947 34.012,370.947" style="fill:none;stroke:black;stroke-width:1" />
  <polygon points="42.012,37.0795 228.483,37.0795 228.483,63.1325 42.012,63.1325" style="fill:none;stroke:none;" />
  <text dominant-baseline="hanging" text-anchor="start" transform="translate(70.012,45.0795)" font-family="Segoe UI" font-size="12" font-weight="400" fill="black">Aktive Fälle Stadt Aachen 06.01.2021</text>
  <polyline points="50.012,50.106 66.012,50.106" style="fill:none;stroke:rgb(31,119,180);stroke-width:2" />
</svg>