<?xml version="1.0" encoding="utf-8" standalone="no"?>
<!DOCTYPE svg PUBLIC "-//W3C//DTD SVG 1.1//EN" "http://www.w3.org/Graphics/SVG/1.1/DTD/svg11.dtd">
<svg width="600" height="400" version="1.1" xmlns:xlink="http://www.w3.org/1999/xlink" xmlns="http://www.w3.org/2000/svg">
  <rect x="0" y="0" width="600" height="400" style="fill:rgb(255,255,255);stroke:none;" />
  <polyline points="39.016,357.0495 35.016,357.0495" style="fill:none;stroke:black;stroke-width:1" />
  <polyline points="39.016,341.1212 35.016,341.1212" style="fill:none;stroke:black;stroke-width:1" />
  <polyline points="39.016,325.1929 35.016,325.1929" style="fill:none;stroke:black;stroke-width:1" />
  <polyline points="39.016,293.3363 35.016,293.3363" style="fill:none;stroke:black;stroke-width:1" />
  <polyline points="39.016,277.408 35.016,277.408" style="fill:none;stroke:black;stroke-width:1" />
  <polyline points="39.016,261.4797 35.016,261.4797" style="fill:none;stroke:black;stroke-width:1" />
  <polyline points="39.016,229.6231 35.016,229.6231" style="fill:none;stroke:black;stroke-width:1" />
  <polyline points="39.016,213.6948 35.016,213.6948" style="fill:none;stroke:black;stroke-width:1" />
  <polyline points="39.016,197.7665 35.016,197.7665" style="fill:none;stroke:black;stroke-width:1" />
  <polyline points="39.016,165.9099 35.016,165.9099" style="fill:none;stroke:black;stroke-width:1" />
  <polyline points="39.016,149.9816 35.016,149.9816" style="fill:none;stroke:black;stroke-width:1" />
  <polyline points="39.016,134.0533 35.016,134.0533" style="fill:none;stroke:black;stroke-width:1" />
  <polyline points="39.016,102.1968 35.016,102.1968" style="fill:none;stroke:black;stroke-width:1" />
  <polyline points="39.016,86.2685 35.016,86.2685" style="fill:none;stroke:black;stroke-width:1" />
  <polyline points="39.016,70.3402 35.016,70.3402" style="fill:none;stroke:black;stroke-width:1" />
  <polyline points="39.016,38.4836 35.016,38.4836" style="fill:none;stroke:black;stroke-width:1" />
  <polyline points="77.2848,370.947 77.2848,374.947" style="fill:none;stroke:black;stroke-width:1" />
  <polyline points="194.0046,370.947 194.0046,374.947" style="fill:none;stroke:black;stroke-width:1" />
  <polyline points="310.7244,370.947 310.7244,374.947" style="fill:none;stroke:black;stroke-width:1" />
  <polyline points="423.6173,370.947 423.6173,374.947" style="fill:none;stroke:black;stroke-width:1" />
  <polyline points="540.3371,370.947 540.3371,374.947" style="fill:none;stroke:black;stroke-width:1" />
  <text dominant-baseline="middle" text-anchor="end" transform="translate(28.016,309.2646)" font-family="Segoe UI" font-size="12" font-weight="400" fill="black">200</text>
  <text dominant-baseline="middle" text-anchor="end" transform="translate(28.016,245.5514)" font-family="Segoe UI" font-size="12" font-weight="400" fill="black">400</text>
  <text dominant-baseline="middle" text-anchor="end" transform="translate(28.016,181.8382)" font-family="Segoe UI" font-size="12" font-weight="400" fill="black">600</text>
  <text dominant-baseline="middle" text-anchor="end" transform="translate(28.016,118.125)" font-family="Segoe UI" font-size="12" font-weight="400" fill="black">800</text>
  <text dominant-baseline="middle" text-anchor="end" transform="translate(28.016,54.4119)" font-family="Segoe UI" font-size="12" font-weight="400" fill="black">1000</text>
  <polyline points="39.016,309.2646 32.016,309.2646" style="fill:none;stroke:black;stroke-width:1" />
  <polyline points="39.016,245.5514 32.016,245.5514" style="fill:none;stroke:black;stroke-width:1" />
  <polyline points="39.016,181.8382 32.016,181.8382" style="fill:none;stroke:black;stroke-width:1" />
  <polyline points="39.016,118.125 32.016,118.125" style="fill:none;stroke:black;stroke-width:1" />
  <polyline points="39.016,54.4119 32.016,54.4119" style="fill:none;stroke:black;stroke-width:1" />
  <text dominant-baseline="hanging" text-anchor="middle" transform="translate(134.688,381.947)" font-family="Segoe UI" font-size="12" font-weight="400" fill="black">01. October</text>
  <text dominant-baseline="hanging" text-anchor="middle" transform="translate(251.4078,381.947)" font-family="Segoe UI" font-size="12" font-weight="400" fill="black">01. December</text>
  <text dominant-baseline="hanging" text-anchor="middle" transform="translate(370.041,381.947)" font-family="Segoe UI" font-size="12" font-weight="400" fill="black">01. February</text>
  <text dominant-baseline="hanging" text-anchor="middle" transform="translate(482.934,381.947)" font-family="Segoe UI" font-size="12" font-weight="400" fill="black">01. April</text>
  <polyline points="134.688,370.947 134.688,377.947" style="fill:none;stroke:black;stroke-width:1" />
  <polyline points="251.4078,370.947 251.4078,377.947" style="fill:none;stroke:black;stroke-width:1" />
  <polyline points="370.041,370.947 370.041,377.947" style="fill:none;stroke:black;stroke-width:1" />
  <polyline points="482.934,370.947 482.934,377.947" style="fill:none;stroke:black;stroke-width:1" />
  <polyline points="39.016,363.4208 42.8429,360.5537 48.5832,362.4651 50.4966,360.5537 52.4101,361.828 54.3235,360.2352 56.237,360.5537 61.9773,360.8723 63.8907,363.4208 65.8042,363.7394 67.7176,363.1023 69.631,363.1023 75.3713,365.3322 77.2848,366.2879 79.1982,366.2879 81.1117,365.6508 83.0251,365.9693 88.7654,365.9693 90.6789,367.5622 92.5923,366.6065 94.5057,364.6951 96.4192,363.4208 102.1595,360.2352 104.0729,358.0052 105.9864,354.8195 107.8998,354.501 109.8133,353.5453 115.5536,356.4124 117.467,357.0495 119.3805,356.7309 121.2939,355.4567 123.2073,353.8638 128.9477,346.2183 130.8611,347.174 132.7745,347.4925 134.688,342.714 136.6014,338.2541 142.3417,333.1571 144.2552,337.617 146.1686,333.4756 148.082,329.0157 149.9955,327.7414 155.7358,318.1845 157.6492,325.5115 159.5627,321.6887 161.4761,313.0874 163.3896,300.6633 169.1299,284.735 171.0433,285.6907 172.9568,283.7793 174.8702,269.1253 176.7836,266.2582 182.524,223.2518 184.4374,235.0387 186.3508,235.0387 188.2643,231.5345 190.1777,212.4206 195.918,218.4733 197.8315,250.3299 199.7449,243.3215 201.6584,234.083 203.5718,230.2603 209.3121,208.9163 211.2256,221.9775 213.139,212.7391 216.9659,194.8994 222.7062,191.0766 224.6196,208.9163 226.5331,213.6948 228.4465,193.6252 230.3599,209.2349 236.1003,223.8889 238.0137,235.6759 239.9271,231.5345 241.8406,241.4101 243.754,226.4375 249.4943,207.6421 251.4078,218.1548 253.3212,234.4016 255.2347,228.6674 257.1481,236.9501 262.8884,197.1294 264.8019,214.0134 266.7153,223.2518 268.6287,207.3235 270.5422,197.1294 276.2825,165.2728 278.1959,185.3425 280.1094,192.988 282.0228,182.1568 283.9362,164.9542 289.6766,140.4247 291.59,159.2201 293.5034,175.1484 303.0706,139.469 304.9841,156.6715 306.8975,169.4142 308.811,156.0344 316.4647,156.353 318.3782,173.5555 320.2916,197.7665 322.205,203.1822 324.1185,184.7053 331.7722,220.0661 333.6857,236.313 335.5991,229.3046 337.5126,247.1443 343.2529,257.6569 345.1663,276.1338 347.0798,280.9122 348.9932,279.638 350.9066,276.7709 356.6469,276.4523 360.4738,283.7793 362.3873,270.3996 364.3007,261.7983 370.041,263.0725 371.9545,277.7266 373.8679,290.4692 375.7813,284.4165 377.6948,284.4165 383.4351,295.8848 385.3485,304.1676 387.262,299.3891 389.1754,289.8321 391.0889,280.2751 396.8292,287.2836 398.7426,310.8574 400.6561,309.5832 402.5695,302.8933 404.4829,317.2288 410.2233,323.2815 412.1367,329.0157 414.0501,325.1929 415.9636,323.9186 417.877,325.5115 423.6173,327.1043 425.5308,335.0684 427.4442,329.6528 429.3576,312.4503 431.2711,311.4946 437.0114,298.4334 438.9248,298.4334 440.8383,293.3363 442.7517,285.3722 444.6652,275.4966 450.4055,268.8067 452.3189,269.7624 454.2324,270.3996 456.1458,250.3299 458.0592,236.6316 463.7996,219.7476 465.713,220.0661 467.6264,221.3404 469.5399,199.3594 471.4533,195.218 477.1936,192.3509 479.1071,214.9691 481.0205,219.429 482.934,211.7834 484.8474,188.5281 492.5011,174.1927 494.4146,176.7412 496.328,153.4859 498.2415,148.3888 503.9818,142.6546 505.8952,144.2475 507.8087,126.7263 509.7221,113.6651 511.6355,116.2137 517.3759,99.9668 519.2893,95.1883 521.2027,72.8887 523.1162,44.5363 525.0296,32.4308 530.7699,42.3064 532.6834,49.3148 534.5968,66.1988 536.5103,77.6672 538.4237,71.2959 544.164,109.8423 546.0775,105.701 547.9909,125.7706 549.9043,134.6905 551.8178,148.3888 557.5581,149.0259 559.4715,175.7855 561.385,170.6884 565.2118,185.3425 570.9522,171.9627 572.8656,185.661 574.779,186.2982 576.6925,180.564 578.6059,185.0239 586.2597,213.3763 588.1731,232.8088 590.0866,239.8172 592,234.7202" style="fill:none;stroke:rgb(31,119,180);stroke-width:2;stroke-linejoin:bevel" />
  <text dominant-baseline="hanging" text-anchor="middle" transform="translate(315.508,8)" font-family="Segoe UI" font-size="18" font-weight="700" fill="black">Aktive Fälle Stadt Aachen 28.05.2021</text>
  <polygon points="39.016,29.0795 592,29.0795 592,370.947 39.016,370.947" style="fill:none;stroke:black;stroke-width:1" />
  <polygon points="47.016,37.0795 233.487,37.0795 233.487,63.1325 47.016,63.1325" style="fill:none;stroke:none;" />
  <text dominant-baseline="hanging" text-anchor="start" transform="translate(75.016,45.0795)" font-family="Segoe UI" font-size="12" font-weight="400" fill="black">Aktive Fälle Stadt Aachen 28.05.2021</text>
  <polyline points="55.016,50.106 71.016,50.106" style="fill:none;stroke:rgb(31,119,180);stroke-width:2" />
</svg>