<?xml version="1.0" encoding="utf-8" standalone="no"?>
<!DOCTYPE svg PUBLIC "-//W3C//DTD SVG 1.1//EN" "http://www.w3.org/Graphics/SVG/1.1/DTD/svg11.dtd">
<svg width="600" height="400" version="1.1" xmlns:xlink="http://www.w3.org/1999/xlink" xmlns="http://www.w3.org/2000/svg">
  <rect x="0" y="0" width="600" height="400" style="fill:rgb(255,255,255);stroke:none;" />
  <polyline points="34.012,365.5433 30.012,365.5433" style="fill:none;stroke:black;stroke-width:1" />
  <polyline points="34.012,352.0842 30.012,352.0842" style="fill:none;stroke:black;stroke-width:1" />
  <polyline points="34.012,338.6251 30.012,338.6251" style="fill:none;stroke:black;stroke-width:1" />
  <polyline points="34.012,325.166 30.012,325.166" style="fill:none;stroke:black;stroke-width:1" />
  <polyline points="34.012,298.2479 30.012,298.2479" style="fill:none;stroke:black;stroke-width:1" />
  <polyline points="34.012,284.7888 30.012,284.7888" style="fill:none;stroke:black;stroke-width:1" />
  <polyline points="34.012,271.3297 30.012,271.3297" style="fill:none;stroke:black;stroke-width:1" />
  <polyline points="34.012,257.8706 30.012,257.8706" style="fill:none;stroke:black;stroke-width:1" />
  <polyline points="34.012,230.9524 30.012,230.9524" style="fill:none;stroke:black;stroke-width:1" />
  <polyline points="34.012,217.4933 30.012,217.4933" style="fill:none;stroke:black;stroke-width:1" />
  <polyline points="34.012,204.0342 30.012,204.0342" style="fill:none;stroke:black;stroke-width:1" />
  <polyline points="34.012,190.5751 30.012,190.5751" style="fill:none;stroke:black;stroke-width:1" />
  <polyline points="34.012,163.6569 30.012,163.6569" style="fill:none;stroke:black;stroke-width:1" />
  <polyline points="34.012,150.1979 30.012,150.1979" style="fill:none;stroke:black;stroke-width:1" />
  <polyline points="34.012,136.7388 30.012,136.7388" style="fill:none;stroke:black;stroke-width:1" />
  <polyline points="34.012,123.2797 30.012,123.2797" style="fill:none;stroke:black;stroke-width:1" />
  <polyline points="34.012,96.3615 30.012,96.3615" style="fill:none;stroke:black;stroke-width:1" />
  <polyline points="34.012,82.9024 30.012,82.9024" style="fill:none;stroke:black;stroke-width:1" />
  <polyline points="34.012,69.4433 30.012,69.4433" style="fill:none;stroke:black;stroke-width:1" />
  <polyline points="34.012,55.9842 30.012,55.9842" style="fill:none;stroke:black;stroke-width:1" />
  <polyline points="34.012,29.0795 30.012,29.0795" style="fill:none;stroke:black;stroke-width:1" />
  <text dominant-baseline="middle" text-anchor="end" transform="translate(23.012,311.7069)" font-family="Segoe UI" font-size="12" font-weight="400" fill="black">100</text>
  <text dominant-baseline="middle" text-anchor="end" transform="translate(23.012,244.4115)" font-family="Segoe UI" font-size="12" font-weight="400" fill="black">200</text>
  <text dominant-baseline="middle" text-anchor="end" transform="translate(23.012,177.116)" font-family="Segoe UI" font-size="12" font-weight="400" fill="black">300</text>
  <text dominant-baseline="middle" text-anchor="end" transform="translate(23.012,109.8206)" font-family="Segoe UI" font-size="12" font-weight="400" fill="black">400</text>
  <text dominant-baseline="middle" text-anchor="end" transform="translate(23.012,42.5251)" font-family="Segoe UI" font-size="12" font-weight="400" fill="black">500</text>
  <polyline points="34.012,311.7069 27.012,311.7069" style="fill:none;stroke:black;stroke-width:1" />
  <polyline points="34.012,244.4115 27.012,244.4115" style="fill:none;stroke:black;stroke-width:1" />
  <polyline points="34.012,177.116 27.012,177.116" style="fill:none;stroke:black;stroke-width:1" />
  <polyline points="34.012,109.8206 27.012,109.8206" style="fill:none;stroke:black;stroke-width:1" />
  <polyline points="34.012,42.5251 27.012,42.5251" style="fill:none;stroke:black;stroke-width:1" />
  <text dominant-baseline="hanging" text-anchor="middle" transform="translate(52.4072,381.947)" font-family="Segoe UI" font-size="12" font-weight="400" fill="black">15. August</text>
  <text dominant-baseline="hanging" text-anchor="middle" transform="translate(138.2515,381.947)" font-family="Segoe UI" font-size="12" font-weight="400" fill="black">29. August</text>
  <text dominant-baseline="hanging" text-anchor="middle" transform="translate(224.0958,381.947)" font-family="Segoe UI" font-size="12" font-weight="400" fill="black">12. September</text>
  <text dominant-baseline="hanging" text-anchor="middle" transform="translate(309.9401,381.947)" font-family="Segoe UI" font-size="12" font-weight="400" fill="black">26. September</text>
  <text dominant-baseline="hanging" text-anchor="middle" transform="translate(395.7844,381.947)" font-family="Segoe UI" font-size="12" font-weight="400" fill="black">10. October</text>
  <text dominant-baseline="hanging" text-anchor="middle" transform="translate(481.6287,381.947)" font-family="Segoe UI" font-size="12" font-weight="400" fill="black">24. October</text>
  <text dominant-baseline="hanging" text-anchor="middle" transform="translate(567.4731,381.947)" font-family="Segoe UI" font-size="12" font-weight="400" fill="black">07. November</text>
  <polyline points="52.4072,370.947 52.4072,377.947" style="fill:none;stroke:black;stroke-width:1" />
  <polyline points="138.2515,370.947 138.2515,377.947" style="fill:none;stroke:black;stroke-width:1" />
  <polyline points="224.0958,370.947 224.0958,377.947" style="fill:none;stroke:black;stroke-width:1" />
  <polyline points="309.9401,370.947 309.9401,377.947" style="fill:none;stroke:black;stroke-width:1" />
  <polyline points="395.7844,370.947 395.7844,377.947" style="fill:none;stroke:black;stroke-width:1" />
  <polyline points="481.6287,370.947 481.6287,377.947" style="fill:none;stroke:black;stroke-width:1" />
  <polyline points="567.4731,370.947 567.4731,377.947" style="fill:none;stroke:black;stroke-width:1" />
  <polyline points="34.012,358.8138 46.2755,352.7572 64.6707,356.7949 70.8024,352.7572 76.9342,355.449 83.0659,352.0842 89.1976,352.7572 107.5928,353.4301 113.7246,358.8138 119.8563,359.4867 125.988,358.1408 132.1198,358.1408 150.515,362.8515 156.6467,364.8704 162.7785,364.8704 168.9102,363.5244 175.0419,364.1974 193.4371,364.1974 199.5689,367.5622 205.7006,365.5433 211.8324,361.5056 217.9641,358.8138 236.3593,352.0842 242.491,347.3735 248.6228,340.644 254.7545,339.971 260.8862,337.9522 279.2815,344.0088 285.4132,345.3547 291.5449,344.6817 297.6767,341.9899 303.8084,338.6251 322.2036,322.4742 328.3353,324.4931 334.4671,325.166 340.5988,315.0717 346.7305,305.6504 365.1258,294.8831 371.2575,304.3044 377.3892,295.556 383.521,286.1347 389.6527,283.4429 408.0479,263.2542 414.1796,278.7322 420.3114,270.6567 426.4431,252.4869 432.5749,226.2417 450.9701,192.594 457.1018,194.6129 463.2335,190.5751 469.3653,159.6192 475.497,153.5626 493.8922,62.7138 500.024,87.6131 506.1557,87.6131 512.2874,80.2106 518.4192,39.8333 536.8144,52.6194 542.9461,119.9149 549.0778,105.1099 555.2096,85.5942 561.3413,77.5188 579.7365,32.4308 585.8683,60.0219 592,40.5063" style="fill:none;stroke:rgb(31,119,180);stroke-width:2;stroke-linejoin:bevel" />
  <text dominant-baseline="hanging" text-anchor="middle" transform="translate(313.006,8)" font-family="Segoe UI" font-size="18" font-weight="700" fill="black">Aktive Fälle Stadt Aachen 11.11.2020</text>
  <polygon points="34.012,29.0795 592,29.0795 592,370.947 34.012,370.947" style="fill:none;stroke:black;stroke-width:1" />
  <polygon points="42.012,37.0795 228.483,37.0795 228.483,63.1325 42.012,63.1325" style="fill:none;stroke:none;" />
  <text dominant-baseline="hanging" text-anchor="start" transform="translate(70.012,45.0795)" font-family="Segoe UI" font-size="12" font-weight="400" fill="black">Aktive Fälle Stadt Aachen 11.11.2020</text>
  <polyline points="50.012,50.106 66.012,50.106" style="fill:none;stroke:rgb(31,119,180);stroke-width:2" />
</svg>