<?xml version="1.0" encoding="utf-8" standalone="no"?>
<!DOCTYPE svg PUBLIC "-//W3C//DTD SVG 1.1//EN" "http://www.w3.org/Graphics/SVG/1.1/DTD/svg11.dtd">
<svg width="600" height="400" version="1.1" xmlns:xlink="http://www.w3.org/1999/xlink" xmlns="http://www.w3.org/2000/svg">
  <rect x="0" y="0" width="600" height="400" style="fill:rgb(255,255,255);stroke:none;" />
  <polyline points="34.012,352.1162 30.012,352.1162" style="fill:none;stroke:black;stroke-width:1" />
  <polyline points="34.012,328.7131 30.012,328.7131" style="fill:none;stroke:black;stroke-width:1" />
  <polyline points="34.012,305.3101 30.012,305.3101" style="fill:none;stroke:black;stroke-width:1" />
  <polyline points="34.012,258.5041 30.012,258.5041" style="fill:none;stroke:black;stroke-width:1" />
  <polyline points="34.012,235.101 30.012,235.101" style="fill:none;stroke:black;stroke-width:1" />
  <polyline points="34.012,211.698 30.012,211.698" style="fill:none;stroke:black;stroke-width:1" />
  <polyline points="34.012,164.892 30.012,164.892" style="fill:none;stroke:black;stroke-width:1" />
  <polyline points="34.012,141.4889 30.012,141.4889" style="fill:none;stroke:black;stroke-width:1" />
  <polyline points="34.012,118.0859 30.012,118.0859" style="fill:none;stroke:black;stroke-width:1" />
  <polyline points="34.012,71.2798 30.012,71.2798" style="fill:none;stroke:black;stroke-width:1" />
  <polyline points="34.012,47.8768 30.012,47.8768" style="fill:none;stroke:black;stroke-width:1" />
  <text dominant-baseline="middle" text-anchor="end" transform="translate(23.012,281.9071)" font-family="Segoe UI" font-size="12" font-weight="400" fill="black">200</text>
  <text dominant-baseline="middle" text-anchor="end" transform="translate(23.012,188.295)" font-family="Segoe UI" font-size="12" font-weight="400" fill="black">400</text>
  <text dominant-baseline="middle" text-anchor="end" transform="translate(23.012,94.6829)" font-family="Segoe UI" font-size="12" font-weight="400" fill="black">600</text>
  <polyline points="34.012,281.9071 27.012,281.9071" style="fill:none;stroke:black;stroke-width:1" />
  <polyline points="34.012,188.295 27.012,188.295" style="fill:none;stroke:black;stroke-width:1" />
  <polyline points="34.012,94.6829 27.012,94.6829" style="fill:none;stroke:black;stroke-width:1" />
  <text dominant-baseline="hanging" text-anchor="middle" transform="translate(83.8324,381.947)" font-family="Segoe UI" font-size="12" font-weight="400" fill="black">01. September</text>
  <text dominant-baseline="hanging" text-anchor="middle" transform="translate(158.5629,381.947)" font-family="Segoe UI" font-size="12" font-weight="400" fill="black">01. October</text>
  <text dominant-baseline="hanging" text-anchor="middle" transform="translate(235.7844,381.947)" font-family="Segoe UI" font-size="12" font-weight="400" fill="black">01. November</text>
  <text dominant-baseline="hanging" text-anchor="middle" transform="translate(310.515,381.947)" font-family="Segoe UI" font-size="12" font-weight="400" fill="black">01. December</text>
  <text dominant-baseline="hanging" text-anchor="middle" transform="translate(387.7365,381.947)" font-family="Segoe UI" font-size="12" font-weight="400" fill="black">01. January</text>
  <text dominant-baseline="hanging" text-anchor="middle" transform="translate(464.9581,381.947)" font-family="Segoe UI" font-size="12" font-weight="400" fill="black">01. February</text>
  <text dominant-baseline="hanging" text-anchor="middle" transform="translate(534.7066,381.947)" font-family="Segoe UI" font-size="12" font-weight="400" fill="black">01. March</text>
  <polyline points="83.8324,370.947 83.8324,377.947" style="fill:none;stroke:black;stroke-width:1" />
  <polyline points="158.5629,370.947 158.5629,377.947" style="fill:none;stroke:black;stroke-width:1" />
  <polyline points="235.7844,370.947 235.7844,377.947" style="fill:none;stroke:black;stroke-width:1" />
  <polyline points="310.515,370.947 310.515,377.947" style="fill:none;stroke:black;stroke-width:1" />
  <polyline points="387.7365,370.947 387.7365,377.947" style="fill:none;stroke:black;stroke-width:1" />
  <polyline points="464.9581,370.947 464.9581,377.947" style="fill:none;stroke:black;stroke-width:1" />
  <polyline points="534.7066,370.947 534.7066,377.947" style="fill:none;stroke:black;stroke-width:1" />
  <polyline points="34.012,361.4774 38.994,357.2648 46.4671,360.0732 48.9581,357.2648 51.4491,359.1371 53.9401,356.7968 56.4312,357.2648 63.9042,357.7329 66.3952,361.4774 68.8862,361.9454 71.3773,361.0093 73.8683,361.0093 81.3413,364.2857 83.8324,365.6899 86.3234,365.6899 88.8144,364.7538 91.3054,365.2219 98.7785,365.2219 101.2695,367.5622 103.7605,366.158 106.2515,363.3496 108.7425,361.4774 116.2156,356.7968 118.7066,353.5204 121.1976,348.8398 123.6886,348.3717 126.1797,346.9675 133.6527,351.1801 136.1437,352.1162 138.6347,351.6481 141.1258,349.7759 143.6168,347.4356 151.0898,336.2021 153.5809,337.6063 156.0719,338.0744 158.5629,331.0534 161.0539,324.5006 168.527,317.0116 171.018,323.5645 173.509,317.4797 176,310.9268 178.491,309.0546 185.9641,295.0128 188.4551,305.7782 190.9461,300.1615 193.4371,287.5238 195.9282,269.2695 203.4012,245.8664 205.8922,247.2706 208.3832,244.4622 210.8743,222.9315 213.3653,218.7189 220.8383,155.5307 223.3294,172.849 225.8204,172.849 228.3114,167.7003 230.8024,139.6167 238.2755,148.5098 240.7665,195.3159 243.2575,185.0186 245.7485,171.4448 248.2395,165.8281 255.7126,134.468 258.2036,153.6585 260.6946,140.0847 265.6767,113.8734 273.1497,108.2566 275.6407,134.468 278.1317,141.4889 280.6228,112.0011 283.1138,134.9361 290.5868,156.4669 293.0779,173.7851 295.5689,167.7003 298.0599,182.2102 300.5509,160.2113 308.024,132.5958 310.515,148.0418 313.006,171.9129 315.497,163.4878 317.988,175.6573 325.4611,117.1498 327.9521,141.957 330.4431,155.5307 332.9341,132.1277 335.4252,117.1498 342.8982,70.3437 345.3892,99.8315 347.8802,111.065 350.3713,95.1509 352.8623,69.8757 360.3353,33.835 362.8264,61.4506 365.3174,84.8536 377.7725,32.4308 380.2635,57.7061 382.7545,76.4285 385.2455,56.77 395.2096,57.238 397.7006,82.5133 400.1916,118.0859 402.6826,126.0429 405.1737,98.8954 415.1377,150.8501 417.6287,174.7212 420.1198,164.4239 422.6108,190.6353 430.0838,206.0813 432.5749,233.2288 435.0659,240.2497 437.5569,238.3775 440.0479,234.1649 447.521,233.6969 452.503,244.4622 454.994,224.8037 457.485,212.1661 464.9581,214.0383 467.4491,235.5691 469.9401,254.2915 472.4311,245.3984 474.9222,245.3984 482.3952,262.2485 484.8862,274.4181 487.3772,267.3972 489.8683,253.3554 492.3593,239.3136 499.8323,249.6109 502.3234,284.2474 504.8144,282.3752 507.3054,272.5459 509.7964,293.6086 517.2695,302.5018 519.7605,310.9268 522.2515,305.3101 524.7425,303.4379 527.2335,305.7782 534.7066,308.1185 537.1976,319.82 539.6886,311.863 542.1796,286.5877 544.6707,285.1835 552.1437,265.993 554.6347,265.993 557.1257,258.5041 559.6168,246.8025 562.1078,232.2927 569.5808,222.4634 572.0719,223.8676 574.5629,224.8037 577.0539,195.3159 579.5449,175.1893 587.018,150.3821 589.509,150.8501 592,152.7224" style="fill:none;stroke:rgb(31,119,180);stroke-width:2;stroke-linejoin:bevel" />
  <text dominant-baseline="hanging" text-anchor="middle" transform="translate(313.006,8)" font-family="Segoe UI" font-size="18" font-weight="700" fill="black">Aktive Fälle Stadt Aachen 24.03.2021</text>
  <polygon points="34.012,29.0795 592,29.0795 592,370.947 34.012,370.947" style="fill:none;stroke:black;stroke-width:1" />
  <polygon points="42.012,37.0795 228.483,37.0795 228.483,63.1325 42.012,63.1325" style="fill:none;stroke:none;" />
  <text dominant-baseline="hanging" text-anchor="start" transform="translate(70.012,45.0795)" font-family="Segoe UI" font-size="12" font-weight="400" fill="black">Aktive Fälle Stadt Aachen 24.03.2021</text>
  <polyline points="50.012,50.106 66.012,50.106" style="fill:none;stroke:rgb(31,119,180);stroke-width:2" />
</svg>