<?xml version="1.0" encoding="utf-8" standalone="no"?>
<!DOCTYPE svg PUBLIC "-//W3C//DTD SVG 1.1//EN" "http://www.w3.org/Graphics/SVG/1.1/DTD/svg11.dtd">
<svg width="600" height="400" version="1.1" xmlns:xlink="http://www.w3.org/1999/xlink" xmlns="http://www.w3.org/2000/svg">
  <rect x="0" y="0" width="600" height="400" style="fill:rgb(255,255,255);stroke:none;" />
  <polyline points="34.012,352.1162 30.012,352.1162" style="fill:none;stroke:black;stroke-width:1" />
  <polyline points="34.012,328.7131 30.012,328.7131" style="fill:none;stroke:black;stroke-width:1" />
  <polyline points="34.012,305.3101 30.012,305.3101" style="fill:none;stroke:black;stroke-width:1" />
  <polyline points="34.012,258.5041 30.012,258.5041" style="fill:none;stroke:black;stroke-width:1" />
  <polyline points="34.012,235.101 30.012,235.101" style="fill:none;stroke:black;stroke-width:1" />
  <polyline points="34.012,211.698 30.012,211.698" style="fill:none;stroke:black;stroke-width:1" />
  <polyline points="34.012,164.892 30.012,164.892" style="fill:none;stroke:black;stroke-width:1" />
  <polyline points="34.012,141.4889 30.012,141.4889" style="fill:none;stroke:black;stroke-width:1" />
  <polyline points="34.012,118.0859 30.012,118.0859" style="fill:none;stroke:black;stroke-width:1" />
  <polyline points="34.012,71.2798 30.012,71.2798" style="fill:none;stroke:black;stroke-width:1" />
  <polyline points="34.012,47.8768 30.012,47.8768" style="fill:none;stroke:black;stroke-width:1" />
  <text dominant-baseline="middle" text-anchor="end" transform="translate(23.012,281.9071)" font-family="Segoe UI" font-size="12" font-weight="400" fill="black">200</text>
  <text dominant-baseline="middle" text-anchor="end" transform="translate(23.012,188.295)" font-family="Segoe UI" font-size="12" font-weight="400" fill="black">400</text>
  <text dominant-baseline="middle" text-anchor="end" transform="translate(23.012,94.6829)" font-family="Segoe UI" font-size="12" font-weight="400" fill="black">600</text>
  <polyline points="34.012,281.9071 27.012,281.9071" style="fill:none;stroke:black;stroke-width:1" />
  <polyline points="34.012,188.295 27.012,188.295" style="fill:none;stroke:black;stroke-width:1" />
  <polyline points="34.012,94.6829 27.012,94.6829" style="fill:none;stroke:black;stroke-width:1" />
  <text dominant-baseline="hanging" text-anchor="middle" transform="translate(83.3915,381.947)" font-family="Segoe UI" font-size="12" font-weight="400" fill="black">01. September</text>
  <text dominant-baseline="hanging" text-anchor="middle" transform="translate(157.4607,381.947)" font-family="Segoe UI" font-size="12" font-weight="400" fill="black">01. October</text>
  <text dominant-baseline="hanging" text-anchor="middle" transform="translate(233.9988,381.947)" font-family="Segoe UI" font-size="12" font-weight="400" fill="black">01. November</text>
  <text dominant-baseline="hanging" text-anchor="middle" transform="translate(308.0681,381.947)" font-family="Segoe UI" font-size="12" font-weight="400" fill="black">01. December</text>
  <text dominant-baseline="hanging" text-anchor="middle" transform="translate(384.6062,381.947)" font-family="Segoe UI" font-size="12" font-weight="400" fill="black">01. January</text>
  <text dominant-baseline="hanging" text-anchor="middle" transform="translate(461.1444,381.947)" font-family="Segoe UI" font-size="12" font-weight="400" fill="black">01. February</text>
  <text dominant-baseline="hanging" text-anchor="middle" transform="translate(530.2757,381.947)" font-family="Segoe UI" font-size="12" font-weight="400" fill="black">01. March</text>
  <polyline points="83.3915,370.947 83.3915,377.947" style="fill:none;stroke:black;stroke-width:1" />
  <polyline points="157.4607,370.947 157.4607,377.947" style="fill:none;stroke:black;stroke-width:1" />
  <polyline points="233.9988,370.947 233.9988,377.947" style="fill:none;stroke:black;stroke-width:1" />
  <polyline points="308.0681,370.947 308.0681,377.947" style="fill:none;stroke:black;stroke-width:1" />
  <polyline points="384.6062,370.947 384.6062,377.947" style="fill:none;stroke:black;stroke-width:1" />
  <polyline points="461.1444,370.947 461.1444,377.947" style="fill:none;stroke:black;stroke-width:1" />
  <polyline points="530.2757,370.947 530.2757,377.947" style="fill:none;stroke:black;stroke-width:1" />
  <polyline points="34.012,361.4774 38.9499,357.2648 46.3569,360.0732 48.8258,357.2648 51.2948,359.1371 53.7638,356.7968 56.2328,357.2648 63.6397,357.7329 66.1087,361.4774 68.5776,361.9454 71.0466,361.0093 73.5156,361.0093 80.9225,364.2857 83.3915,365.6899 85.8604,365.6899 88.3294,364.7538 90.7984,365.2219 98.2053,365.2219 100.6743,367.5622 103.1433,366.158 105.6122,363.3496 108.0812,361.4774 115.4881,356.7968 117.9571,353.5204 120.4261,348.8398 122.895,348.3717 125.364,346.9675 132.7709,351.1801 135.2399,352.1162 137.7089,351.6481 140.1779,349.7759 142.6468,347.4356 150.0538,336.2021 152.5227,337.6063 154.9917,338.0744 157.4607,331.0534 159.9296,324.5006 167.3366,317.0116 169.8055,323.5645 172.2745,317.4797 174.7435,310.9268 177.2125,309.0546 184.6194,295.0128 187.0884,305.7782 189.5573,300.1615 192.0263,287.5238 194.4953,269.2695 201.9022,245.8664 204.3712,247.2706 206.8401,244.4622 209.3091,222.9315 211.7781,218.7189 219.185,155.5307 221.654,172.849 224.123,172.849 226.5919,167.7003 229.0609,139.6167 236.4678,148.5098 238.9368,195.3159 241.4058,185.0186 243.8747,171.4448 246.3437,165.8281 253.7506,134.468 256.2196,153.6585 258.6886,140.0847 263.6265,113.8734 271.0335,108.2566 273.5024,134.468 275.9714,141.4889 278.4404,112.0011 280.9093,134.9361 288.3163,156.4669 290.7852,173.7851 293.2542,167.7003 295.7232,182.2102 298.1922,160.2113 305.5991,132.5958 308.0681,148.0418 310.537,171.9129 313.006,163.4878 315.475,175.6573 322.8819,117.1498 325.3509,141.957 327.8198,155.5307 330.2888,132.1277 332.7578,117.1498 340.1647,70.3437 342.6337,99.8315 345.1027,111.065 347.5716,95.1509 350.0406,69.8757 357.4475,33.835 359.9165,61.4506 362.3855,84.8536 374.7303,32.4308 377.1993,57.7061 379.6683,76.4285 382.1373,56.77 392.0132,57.238 394.4821,82.5133 396.9511,118.0859 399.4201,126.0429 401.889,98.8954 411.7649,150.8501 414.2339,174.7212 416.7029,164.4239 419.1719,190.6353 426.5788,206.0813 429.0478,233.2288 431.5167,240.2497 433.9857,238.3775 436.4547,234.1649 443.8616,233.6969 448.7995,244.4622 451.2685,224.8037 453.7375,212.1661 461.1444,214.0383 463.6134,235.5691 466.0824,254.2915 468.5513,245.3984 471.0203,245.3984 478.4272,262.2485 480.8962,274.4181 483.3652,267.3972 485.8341,253.3554 488.3031,239.3136 495.71,249.6109 498.179,284.2474 500.648,282.3752 503.117,272.5459 505.5859,293.6086 512.9928,302.5018 515.4618,310.9268 517.9308,305.3101 520.3998,303.4379 522.8687,305.7782 530.2757,308.1185 532.7446,319.82 535.2136,311.863 537.6826,286.5877 540.1516,285.1835 547.5585,265.993 550.0275,265.993 552.4964,258.5041 554.9654,246.8025 557.4344,232.2927 564.8413,222.4634 567.3103,223.8676 569.7792,224.8037 572.2482,195.3159 574.7172,175.1893 582.1241,150.3821 584.5931,150.8501 587.0621,152.7224 589.531,120.4262 592,114.3414" style="fill:none;stroke:rgb(31,119,180);stroke-width:2;stroke-linejoin:bevel" />
  <text dominant-baseline="hanging" text-anchor="middle" transform="translate(313.006,8)" font-family="Segoe UI" font-size="18" font-weight="700" fill="black">Aktive Fälle Stadt Aachen 26.03.2021</text>
  <polygon points="34.012,29.0795 592,29.0795 592,370.947 34.012,370.947" style="fill:none;stroke:black;stroke-width:1" />
  <polygon points="42.012,37.0795 228.483,37.0795 228.483,63.1325 42.012,63.1325" style="fill:none;stroke:none;" />
  <text dominant-baseline="hanging" text-anchor="start" transform="translate(70.012,45.0795)" font-family="Segoe UI" font-size="12" font-weight="400" fill="black">Aktive Fälle Stadt Aachen 26.03.2021</text>
  <polyline points="50.012,50.106 66.012,50.106" style="fill:none;stroke:rgb(31,119,180);stroke-width:2" />
</svg>