<?xml version="1.0" encoding="utf-8" standalone="no"?>
<!DOCTYPE svg PUBLIC "-//W3C//DTD SVG 1.1//EN" "http://www.w3.org/Graphics/SVG/1.1/DTD/svg11.dtd">
<svg width="600" height="400" version="1.1" xmlns:xlink="http://www.w3.org/1999/xlink" xmlns="http://www.w3.org/2000/svg">
  <rect x="0" y="0" width="600" height="400" style="fill:rgb(255,255,255);stroke:none;" />
  <polyline points="34.012,352.1162 30.012,352.1162" style="fill:none;stroke:black;stroke-width:1" />
  <polyline points="34.012,328.7131 30.012,328.7131" style="fill:none;stroke:black;stroke-width:1" />
  <polyline points="34.012,305.3101 30.012,305.3101" style="fill:none;stroke:black;stroke-width:1" />
  <polyline points="34.012,258.5041 30.012,258.5041" style="fill:none;stroke:black;stroke-width:1" />
  <polyline points="34.012,235.101 30.012,235.101" style="fill:none;stroke:black;stroke-width:1" />
  <polyline points="34.012,211.698 30.012,211.698" style="fill:none;stroke:black;stroke-width:1" />
  <polyline points="34.012,164.892 30.012,164.892" style="fill:none;stroke:black;stroke-width:1" />
  <polyline points="34.012,141.4889 30.012,141.4889" style="fill:none;stroke:black;stroke-width:1" />
  <polyline points="34.012,118.0859 30.012,118.0859" style="fill:none;stroke:black;stroke-width:1" />
  <polyline points="34.012,71.2798 30.012,71.2798" style="fill:none;stroke:black;stroke-width:1" />
  <polyline points="34.012,47.8768 30.012,47.8768" style="fill:none;stroke:black;stroke-width:1" />
  <text dominant-baseline="middle" text-anchor="end" transform="translate(23.012,281.9071)" font-family="Segoe UI" font-size="12" font-weight="400" fill="black">200</text>
  <text dominant-baseline="middle" text-anchor="end" transform="translate(23.012,188.295)" font-family="Segoe UI" font-size="12" font-weight="400" fill="black">400</text>
  <text dominant-baseline="middle" text-anchor="end" transform="translate(23.012,94.6829)" font-family="Segoe UI" font-size="12" font-weight="400" fill="black">600</text>
  <polyline points="34.012,281.9071 27.012,281.9071" style="fill:none;stroke:black;stroke-width:1" />
  <polyline points="34.012,188.295 27.012,188.295" style="fill:none;stroke:black;stroke-width:1" />
  <polyline points="34.012,94.6829 27.012,94.6829" style="fill:none;stroke:black;stroke-width:1" />
  <text dominant-baseline="hanging" text-anchor="middle" transform="translate(90.9496,381.947)" font-family="Segoe UI" font-size="12" font-weight="400" fill="black">01. September</text>
  <text dominant-baseline="hanging" text-anchor="middle" transform="translate(176.3559,381.947)" font-family="Segoe UI" font-size="12" font-weight="400" fill="black">01. October</text>
  <text dominant-baseline="hanging" text-anchor="middle" transform="translate(264.6091,381.947)" font-family="Segoe UI" font-size="12" font-weight="400" fill="black">01. November</text>
  <text dominant-baseline="hanging" text-anchor="middle" transform="translate(350.0154,381.947)" font-family="Segoe UI" font-size="12" font-weight="400" fill="black">01. December</text>
  <text dominant-baseline="hanging" text-anchor="middle" transform="translate(438.2686,381.947)" font-family="Segoe UI" font-size="12" font-weight="400" fill="black">01. January</text>
  <text dominant-baseline="hanging" text-anchor="middle" transform="translate(526.5218,381.947)" font-family="Segoe UI" font-size="12" font-weight="400" fill="black">01. February</text>
  <polyline points="90.9496,370.947 90.9496,377.947" style="fill:none;stroke:black;stroke-width:1" />
  <polyline points="176.3559,370.947 176.3559,377.947" style="fill:none;stroke:black;stroke-width:1" />
  <polyline points="264.6091,370.947 264.6091,377.947" style="fill:none;stroke:black;stroke-width:1" />
  <polyline points="350.0154,370.947 350.0154,377.947" style="fill:none;stroke:black;stroke-width:1" />
  <polyline points="438.2686,370.947 438.2686,377.947" style="fill:none;stroke:black;stroke-width:1" />
  <polyline points="526.5218,370.947 526.5218,377.947" style="fill:none;stroke:black;stroke-width:1" />
  <polyline points="34.012,361.4774 39.7058,357.2648 48.2464,360.0732 51.0933,357.2648 53.9401,359.1371 56.787,356.7968 59.6339,357.2648 68.1745,357.7329 71.0214,361.4774 73.8683,361.9454 76.7152,361.0093 79.562,361.0093 88.1027,364.2857 90.9496,365.6899 93.7964,365.6899 96.6433,364.7538 99.4902,365.2219 108.0308,365.2219 110.8777,367.5622 113.7246,366.158 116.5714,363.3496 119.4183,361.4774 127.959,356.7968 130.8058,353.5204 133.6527,348.8398 136.4996,348.3717 139.3465,346.9675 147.8871,351.1801 150.734,352.1162 153.5809,351.6481 156.4277,349.7759 159.2746,347.4356 167.8152,336.2021 170.6621,337.6063 173.509,338.0744 176.3559,331.0534 179.2028,324.5006 187.7434,317.0116 190.5903,323.5645 193.4371,317.4797 196.284,310.9268 199.1309,309.0546 207.6715,295.0128 210.5184,305.7782 213.3653,300.1615 216.2122,287.5238 219.059,269.2695 227.5997,245.8664 230.4466,247.2706 233.2934,244.4622 236.1403,222.9315 238.9872,218.7189 247.5278,155.5307 250.3747,172.849 253.2216,172.849 256.0684,167.7003 258.9153,139.6167 267.456,148.5098 270.3028,195.3159 273.1497,185.0186 275.9966,171.4448 278.8435,165.8281 287.3841,134.468 290.231,153.6585 293.0779,140.0847 298.7716,113.8734 307.3122,108.2566 310.1591,134.468 313.006,141.4889 315.8529,112.0011 318.6998,134.9361 327.2404,156.4669 330.0873,173.7851 332.9341,167.7003 335.781,182.2102 338.6279,160.2113 347.1685,132.5958 350.0154,148.0418 352.8623,171.9129 355.7092,163.4878 358.556,175.6573 367.0967,117.1498 369.9436,141.957 372.7904,155.5307 375.6373,132.1277 378.4842,117.1498 387.0248,70.3437 389.8717,99.8315 392.7186,111.065 395.5654,95.1509 398.4123,69.8757 406.953,33.835 409.7998,61.4506 412.6467,84.8536 426.8811,32.4308 429.728,57.7061 432.5749,76.4285 435.4217,56.77 446.8092,57.238 449.6561,82.5133 452.503,118.0859 455.3499,126.0429 458.1968,98.8954 469.5843,150.8501 472.4311,174.7212 475.278,164.4239 478.1249,190.6353 486.6655,206.0813 489.5124,233.2288 492.3593,240.2497 495.2062,238.3775 498.053,234.1649 506.5937,233.6969 512.2874,244.4622 515.1343,224.8037 517.9812,212.1661 526.5218,214.0383 529.3687,235.5691 532.2156,254.2915 535.0624,245.3984 537.9093,245.3984 546.45,262.2485 549.2968,274.4181 552.1437,267.3972 554.9906,253.3554 557.8375,239.3136 566.3781,249.6109 569.225,284.2474 572.0719,282.3752 574.9187,272.5459 577.7656,293.6086 586.3062,302.5018 589.1531,310.9268 592,305.3101" style="fill:none;stroke:rgb(31,119,180);stroke-width:2;stroke-linejoin:bevel" />
  <text dominant-baseline="hanging" text-anchor="middle" transform="translate(313.006,8)" font-family="Segoe UI" font-size="18" font-weight="700" fill="black">Aktive Fälle Stadt Aachen 24.02.2021</text>
  <polygon points="34.012,29.0795 592,29.0795 592,370.947 34.012,370.947" style="fill:none;stroke:black;stroke-width:1" />
  <polygon points="42.012,37.0795 228.483,37.0795 228.483,63.1325 42.012,63.1325" style="fill:none;stroke:none;" />
  <text dominant-baseline="hanging" text-anchor="start" transform="translate(70.012,45.0795)" font-family="Segoe UI" font-size="12" font-weight="400" fill="black">Aktive Fälle Stadt Aachen 24.02.2021</text>
  <polyline points="50.012,50.106 66.012,50.106" style="fill:none;stroke:rgb(31,119,180);stroke-width:2" />
</svg>