<?xml version="1.0" encoding="utf-8" standalone="no"?>
<!DOCTYPE svg PUBLIC "-//W3C//DTD SVG 1.1//EN" "http://www.w3.org/Graphics/SVG/1.1/DTD/svg11.dtd">
<svg width="600" height="400" version="1.1" xmlns:xlink="http://www.w3.org/1999/xlink" xmlns="http://www.w3.org/2000/svg">
  <rect x="0" y="0" width="600" height="400" style="fill:rgb(255,255,255);stroke:none;" />
  <polyline points="34.012,352.1162 30.012,352.1162" style="fill:none;stroke:black;stroke-width:1" />
  <polyline points="34.012,328.7131 30.012,328.7131" style="fill:none;stroke:black;stroke-width:1" />
  <polyline points="34.012,305.3101 30.012,305.3101" style="fill:none;stroke:black;stroke-width:1" />
  <polyline points="34.012,258.5041 30.012,258.5041" style="fill:none;stroke:black;stroke-width:1" />
  <polyline points="34.012,235.101 30.012,235.101" style="fill:none;stroke:black;stroke-width:1" />
  <polyline points="34.012,211.698 30.012,211.698" style="fill:none;stroke:black;stroke-width:1" />
  <polyline points="34.012,164.892 30.012,164.892" style="fill:none;stroke:black;stroke-width:1" />
  <polyline points="34.012,141.4889 30.012,141.4889" style="fill:none;stroke:black;stroke-width:1" />
  <polyline points="34.012,118.0859 30.012,118.0859" style="fill:none;stroke:black;stroke-width:1" />
  <polyline points="34.012,71.2798 30.012,71.2798" style="fill:none;stroke:black;stroke-width:1" />
  <polyline points="34.012,47.8768 30.012,47.8768" style="fill:none;stroke:black;stroke-width:1" />
  <text dominant-baseline="middle" text-anchor="end" transform="translate(23.012,281.9071)" font-family="Segoe UI" font-size="12" font-weight="400" fill="black">200</text>
  <text dominant-baseline="middle" text-anchor="end" transform="translate(23.012,188.295)" font-family="Segoe UI" font-size="12" font-weight="400" fill="black">400</text>
  <text dominant-baseline="middle" text-anchor="end" transform="translate(23.012,94.6829)" font-family="Segoe UI" font-size="12" font-weight="400" fill="black">600</text>
  <polyline points="34.012,281.9071 27.012,281.9071" style="fill:none;stroke:black;stroke-width:1" />
  <polyline points="34.012,188.295 27.012,188.295" style="fill:none;stroke:black;stroke-width:1" />
  <polyline points="34.012,94.6829 27.012,94.6829" style="fill:none;stroke:black;stroke-width:1" />
  <text dominant-baseline="hanging" text-anchor="middle" transform="translate(107.4315,381.947)" font-family="Segoe UI" font-size="12" font-weight="400" fill="black">01. September</text>
  <text dominant-baseline="hanging" text-anchor="middle" transform="translate(217.5607,381.947)" font-family="Segoe UI" font-size="12" font-weight="400" fill="black">01. October</text>
  <text dominant-baseline="hanging" text-anchor="middle" transform="translate(331.3609,381.947)" font-family="Segoe UI" font-size="12" font-weight="400" fill="black">01. November</text>
  <text dominant-baseline="hanging" text-anchor="middle" transform="translate(441.4901,381.947)" font-family="Segoe UI" font-size="12" font-weight="400" fill="black">01. December</text>
  <text dominant-baseline="hanging" text-anchor="middle" transform="translate(555.2903,381.947)" font-family="Segoe UI" font-size="12" font-weight="400" fill="black">01. January</text>
  <polyline points="107.4315,370.947 107.4315,377.947" style="fill:none;stroke:black;stroke-width:1" />
  <polyline points="217.5607,370.947 217.5607,377.947" style="fill:none;stroke:black;stroke-width:1" />
  <polyline points="331.3609,370.947 331.3609,377.947" style="fill:none;stroke:black;stroke-width:1" />
  <polyline points="441.4901,370.947 441.4901,377.947" style="fill:none;stroke:black;stroke-width:1" />
  <polyline points="555.2903,370.947 555.2903,377.947" style="fill:none;stroke:black;stroke-width:1" />
  <polyline points="34.012,361.4774 41.3539,357.2648 52.3669,360.0732 56.0378,357.2648 59.7088,359.1371 63.3798,356.7968 67.0508,357.2648 78.0637,357.7329 81.7347,361.4774 85.4056,361.9454 89.0766,361.0093 92.7476,361.0093 103.7605,364.2857 107.4315,365.6899 111.1024,365.6899 114.7734,364.7538 118.4444,365.2219 129.4573,365.2219 133.1283,367.5622 136.7993,366.158 140.4702,363.3496 144.1412,361.4774 155.1541,356.7968 158.8251,353.5204 162.4961,348.8398 166.1671,348.3717 169.838,346.9675 180.8509,351.1801 184.5219,352.1162 188.1929,351.6481 191.8639,349.7759 195.5348,347.4356 206.5478,336.2021 210.2187,337.6063 213.8897,338.0744 217.5607,331.0534 221.2317,324.5006 232.2446,317.0116 235.9156,323.5645 239.5865,317.4797 243.2575,310.9268 246.9285,309.0546 257.9414,295.0128 261.6124,305.7782 265.2833,300.1615 268.9543,287.5238 272.6253,269.2695 283.6382,245.8664 287.3092,247.2706 290.9802,244.4622 294.6511,222.9315 298.3221,218.7189 309.335,155.5307 313.006,172.849 316.677,172.849 320.3479,167.7003 324.0189,139.6167 335.0318,148.5098 338.7028,195.3159 342.3738,185.0186 346.0448,171.4448 349.7157,165.8281 360.7287,134.468 364.3996,153.6585 368.0706,140.0847 375.4126,113.8734 386.4255,108.2566 390.0964,134.468 393.7674,141.4889 397.4384,112.0011 401.1094,134.9361 412.1223,156.4669 415.7933,173.7851 419.4642,167.7003 423.1352,182.2102 426.8062,160.2113 437.8191,132.5958 441.4901,148.0418 445.1611,171.9129 448.832,163.4878 452.503,175.6573 463.5159,117.1498 467.1869,141.957 470.8579,155.5307 474.5288,132.1277 478.1998,117.1498 489.2127,70.3437 492.8837,99.8315 496.5547,111.065 500.2257,95.1509 503.8966,69.8757 514.9096,33.835 518.5805,61.4506 522.2515,84.8536 540.6064,32.4308 544.2773,57.7061 547.9483,76.4285 551.6193,56.77 566.3032,57.238 569.9742,82.5133 573.6451,118.0859 577.3161,126.0429 580.9871,98.8954 592,112.0011" style="fill:none;stroke:rgb(31,119,180);stroke-width:2;stroke-linejoin:bevel" />
  <text dominant-baseline="hanging" text-anchor="middle" transform="translate(313.006,8)" font-family="Segoe UI" font-size="18" font-weight="700" fill="black">Aktive Fälle Stadt Aachen 11.01.2021</text>
  <polygon points="34.012,29.0795 592,29.0795 592,370.947 34.012,370.947" style="fill:none;stroke:black;stroke-width:1" />
  <polygon points="42.012,37.0795 228.483,37.0795 228.483,63.1325 42.012,63.1325" style="fill:none;stroke:none;" />
  <text dominant-baseline="hanging" text-anchor="start" transform="translate(70.012,45.0795)" font-family="Segoe UI" font-size="12" font-weight="400" fill="black">Aktive Fälle Stadt Aachen 11.01.2021</text>
  <polyline points="50.012,50.106 66.012,50.106" style="fill:none;stroke:rgb(31,119,180);stroke-width:2" />
</svg>