<?xml version="1.0" encoding="utf-8" standalone="no"?>
<!DOCTYPE svg PUBLIC "-//W3C//DTD SVG 1.1//EN" "http://www.w3.org/Graphics/SVG/1.1/DTD/svg11.dtd">
<svg width="600" height="400" version="1.1" xmlns:xlink="http://www.w3.org/1999/xlink" xmlns="http://www.w3.org/2000/svg">
  <rect x="0" y="0" width="600" height="400" style="fill:rgb(255,255,255);stroke:none;" />
  <polyline points="34.012,352.1162 30.012,352.1162" style="fill:none;stroke:black;stroke-width:1" />
  <polyline points="34.012,328.7131 30.012,328.7131" style="fill:none;stroke:black;stroke-width:1" />
  <polyline points="34.012,305.3101 30.012,305.3101" style="fill:none;stroke:black;stroke-width:1" />
  <polyline points="34.012,258.5041 30.012,258.5041" style="fill:none;stroke:black;stroke-width:1" />
  <polyline points="34.012,235.101 30.012,235.101" style="fill:none;stroke:black;stroke-width:1" />
  <polyline points="34.012,211.698 30.012,211.698" style="fill:none;stroke:black;stroke-width:1" />
  <polyline points="34.012,164.892 30.012,164.892" style="fill:none;stroke:black;stroke-width:1" />
  <polyline points="34.012,141.4889 30.012,141.4889" style="fill:none;stroke:black;stroke-width:1" />
  <polyline points="34.012,118.0859 30.012,118.0859" style="fill:none;stroke:black;stroke-width:1" />
  <polyline points="34.012,71.2798 30.012,71.2798" style="fill:none;stroke:black;stroke-width:1" />
  <polyline points="34.012,47.8768 30.012,47.8768" style="fill:none;stroke:black;stroke-width:1" />
  <text dominant-baseline="middle" text-anchor="end" transform="translate(23.012,281.9071)" font-family="Segoe UI" font-size="12" font-weight="400" fill="black">200</text>
  <text dominant-baseline="middle" text-anchor="end" transform="translate(23.012,188.295)" font-family="Segoe UI" font-size="12" font-weight="400" fill="black">400</text>
  <text dominant-baseline="middle" text-anchor="end" transform="translate(23.012,94.6829)" font-family="Segoe UI" font-size="12" font-weight="400" fill="black">600</text>
  <polyline points="34.012,281.9071 27.012,281.9071" style="fill:none;stroke:black;stroke-width:1" />
  <polyline points="34.012,188.295 27.012,188.295" style="fill:none;stroke:black;stroke-width:1" />
  <polyline points="34.012,94.6829 27.012,94.6829" style="fill:none;stroke:black;stroke-width:1" />
  <text dominant-baseline="hanging" text-anchor="middle" transform="translate(87.1537,381.947)" font-family="Segoe UI" font-size="12" font-weight="400" fill="black">01. September</text>
  <text dominant-baseline="hanging" text-anchor="middle" transform="translate(166.8663,381.947)" font-family="Segoe UI" font-size="12" font-weight="400" fill="black">01. October</text>
  <text dominant-baseline="hanging" text-anchor="middle" transform="translate(249.2359,381.947)" font-family="Segoe UI" font-size="12" font-weight="400" fill="black">01. November</text>
  <text dominant-baseline="hanging" text-anchor="middle" transform="translate(328.9485,381.947)" font-family="Segoe UI" font-size="12" font-weight="400" fill="black">01. December</text>
  <text dominant-baseline="hanging" text-anchor="middle" transform="translate(411.3182,381.947)" font-family="Segoe UI" font-size="12" font-weight="400" fill="black">01. January</text>
  <text dominant-baseline="hanging" text-anchor="middle" transform="translate(493.6878,381.947)" font-family="Segoe UI" font-size="12" font-weight="400" fill="black">01. February</text>
  <text dominant-baseline="hanging" text-anchor="middle" transform="translate(568.0862,381.947)" font-family="Segoe UI" font-size="12" font-weight="400" fill="black">01. March</text>
  <polyline points="87.1537,370.947 87.1537,377.947" style="fill:none;stroke:black;stroke-width:1" />
  <polyline points="166.8663,370.947 166.8663,377.947" style="fill:none;stroke:black;stroke-width:1" />
  <polyline points="249.2359,370.947 249.2359,377.947" style="fill:none;stroke:black;stroke-width:1" />
  <polyline points="328.9485,370.947 328.9485,377.947" style="fill:none;stroke:black;stroke-width:1" />
  <polyline points="411.3182,370.947 411.3182,377.947" style="fill:none;stroke:black;stroke-width:1" />
  <polyline points="493.6878,370.947 493.6878,377.947" style="fill:none;stroke:black;stroke-width:1" />
  <polyline points="568.0862,370.947 568.0862,377.947" style="fill:none;stroke:black;stroke-width:1" />
  <polyline points="34.012,361.4774 39.3262,357.2648 47.2974,360.0732 49.9545,357.2648 52.6116,359.1371 55.2687,356.7968 57.9258,357.2648 65.897,357.7329 68.5541,361.4774 71.2112,361.9454 73.8683,361.0093 76.5254,361.0093 84.4966,364.2857 87.1537,365.6899 89.8108,365.6899 92.4679,364.7538 95.125,365.2219 103.0962,365.2219 105.7533,367.5622 108.4104,366.158 111.0675,363.3496 113.7246,361.4774 121.6958,356.7968 124.3529,353.5204 127.01,348.8398 129.6671,348.3717 132.3242,346.9675 140.2954,351.1801 142.9525,352.1162 145.6096,351.6481 148.2667,349.7759 150.9238,347.4356 158.895,336.2021 161.5521,337.6063 164.2092,338.0744 166.8663,331.0534 169.5234,324.5006 177.4946,317.0116 180.1517,323.5645 182.8088,317.4797 185.4659,310.9268 188.123,309.0546 196.0942,295.0128 198.7513,305.7782 201.4084,300.1615 204.0655,287.5238 206.7226,269.2695 214.6938,245.8664 217.3509,247.2706 220.008,244.4622 222.6651,222.9315 225.3222,218.7189 233.2934,155.5307 235.9505,172.849 238.6076,172.849 241.2647,167.7003 243.9218,139.6167 251.893,148.5098 254.5501,195.3159 257.2072,185.0186 259.8643,171.4448 262.5214,165.8281 270.4926,134.468 273.1497,153.6585 275.8068,140.0847 281.121,113.8734 289.0922,108.2566 291.7493,134.468 294.4064,141.4889 297.0635,112.0011 299.7206,134.9361 307.6918,156.4669 310.3489,173.7851 313.006,167.7003 315.6631,182.2102 318.3202,160.2113 326.2914,132.5958 328.9485,148.0418 331.6056,171.9129 334.2627,163.4878 336.9198,175.6573 344.891,117.1498 347.5481,141.957 350.2052,155.5307 352.8623,132.1277 355.5194,117.1498 363.4906,70.3437 366.1477,99.8315 368.8048,111.065 371.4619,95.1509 374.119,69.8757 382.0902,33.835 384.7473,61.4506 387.4044,84.8536 400.6898,32.4308 403.3469,57.7061 406.004,76.4285 408.6611,56.77 419.2894,57.238 421.9465,82.5133 424.6036,118.0859 427.2607,126.0429 429.9178,98.8954 440.5461,150.8501 443.2032,174.7212 445.8603,164.4239 448.5174,190.6353 456.4886,206.0813 459.1457,233.2288 461.8028,240.2497 464.4599,238.3775 467.117,234.1649 475.0882,233.6969 480.4024,244.4622 483.0595,224.8037 485.7166,212.1661 493.6878,214.0383 496.3449,235.5691 499.002,254.2915 501.6591,245.3984 504.3162,245.3984 512.2874,262.2485 514.9445,274.4181 517.6016,267.3972 520.2587,253.3554 522.9158,239.3136 530.887,249.6109 533.5441,284.2474 536.2012,282.3752 538.8583,272.5459 541.5154,293.6086 549.4866,302.5018 552.1437,310.9268 554.8008,305.3101 557.4579,303.4379 560.115,305.7782 568.0862,308.1185 570.7433,319.82 573.4004,311.863 576.0575,286.5877 578.7146,285.1835 586.6858,265.993 589.3429,265.993 592,258.5041" style="fill:none;stroke:rgb(31,119,180);stroke-width:2;stroke-linejoin:bevel" />
  <text dominant-baseline="hanging" text-anchor="middle" transform="translate(313.006,8)" font-family="Segoe UI" font-size="18" font-weight="700" fill="black">Aktive Fälle Stadt Aachen 10.03.2021</text>
  <polygon points="34.012,29.0795 592,29.0795 592,370.947 34.012,370.947" style="fill:none;stroke:black;stroke-width:1" />
  <polygon points="42.012,37.0795 228.483,37.0795 228.483,63.1325 42.012,63.1325" style="fill:none;stroke:none;" />
  <text dominant-baseline="hanging" text-anchor="start" transform="translate(70.012,45.0795)" font-family="Segoe UI" font-size="12" font-weight="400" fill="black">Aktive Fälle Stadt Aachen 10.03.2021</text>
  <polyline points="50.012,50.106 66.012,50.106" style="fill:none;stroke:rgb(31,119,180);stroke-width:2" />
</svg>