<?xml version="1.0" encoding="utf-8" standalone="no"?>
<!DOCTYPE svg PUBLIC "-//W3C//DTD SVG 1.1//EN" "http://www.w3.org/Graphics/SVG/1.1/DTD/svg11.dtd">
<svg width="600" height="400" version="1.1" xmlns:xlink="http://www.w3.org/1999/xlink" xmlns="http://www.w3.org/2000/svg">
  <rect x="0" y="0" width="600" height="400" style="fill:rgb(255,255,255);stroke:none;" />
  <polyline points="34.012,352.1162 30.012,352.1162" style="fill:none;stroke:black;stroke-width:1" />
  <polyline points="34.012,328.7131 30.012,328.7131" style="fill:none;stroke:black;stroke-width:1" />
  <polyline points="34.012,305.3101 30.012,305.3101" style="fill:none;stroke:black;stroke-width:1" />
  <polyline points="34.012,258.5041 30.012,258.5041" style="fill:none;stroke:black;stroke-width:1" />
  <polyline points="34.012,235.101 30.012,235.101" style="fill:none;stroke:black;stroke-width:1" />
  <polyline points="34.012,211.698 30.012,211.698" style="fill:none;stroke:black;stroke-width:1" />
  <polyline points="34.012,164.892 30.012,164.892" style="fill:none;stroke:black;stroke-width:1" />
  <polyline points="34.012,141.4889 30.012,141.4889" style="fill:none;stroke:black;stroke-width:1" />
  <polyline points="34.012,118.0859 30.012,118.0859" style="fill:none;stroke:black;stroke-width:1" />
  <polyline points="34.012,71.2798 30.012,71.2798" style="fill:none;stroke:black;stroke-width:1" />
  <polyline points="34.012,47.8768 30.012,47.8768" style="fill:none;stroke:black;stroke-width:1" />
  <text dominant-baseline="middle" text-anchor="end" transform="translate(23.012,281.9071)" font-family="Segoe UI" font-size="12" font-weight="400" fill="black">200</text>
  <text dominant-baseline="middle" text-anchor="end" transform="translate(23.012,188.295)" font-family="Segoe UI" font-size="12" font-weight="400" fill="black">400</text>
  <text dominant-baseline="middle" text-anchor="end" transform="translate(23.012,94.6829)" font-family="Segoe UI" font-size="12" font-weight="400" fill="black">600</text>
  <polyline points="34.012,281.9071 27.012,281.9071" style="fill:none;stroke:black;stroke-width:1" />
  <polyline points="34.012,188.295 27.012,188.295" style="fill:none;stroke:black;stroke-width:1" />
  <polyline points="34.012,94.6829 27.012,94.6829" style="fill:none;stroke:black;stroke-width:1" />
  <text dominant-baseline="hanging" text-anchor="middle" transform="translate(105.5489,381.947)" font-family="Segoe UI" font-size="12" font-weight="400" fill="black">01. September</text>
  <text dominant-baseline="hanging" text-anchor="middle" transform="translate(212.8543,381.947)" font-family="Segoe UI" font-size="12" font-weight="400" fill="black">01. October</text>
  <text dominant-baseline="hanging" text-anchor="middle" transform="translate(323.7365,381.947)" font-family="Segoe UI" font-size="12" font-weight="400" fill="black">01. November</text>
  <text dominant-baseline="hanging" text-anchor="middle" transform="translate(431.0419,381.947)" font-family="Segoe UI" font-size="12" font-weight="400" fill="black">01. December</text>
  <text dominant-baseline="hanging" text-anchor="middle" transform="translate(541.9242,381.947)" font-family="Segoe UI" font-size="12" font-weight="400" fill="black">01. January</text>
  <polyline points="105.5489,370.947 105.5489,377.947" style="fill:none;stroke:black;stroke-width:1" />
  <polyline points="212.8543,370.947 212.8543,377.947" style="fill:none;stroke:black;stroke-width:1" />
  <polyline points="323.7365,370.947 323.7365,377.947" style="fill:none;stroke:black;stroke-width:1" />
  <polyline points="431.0419,370.947 431.0419,377.947" style="fill:none;stroke:black;stroke-width:1" />
  <polyline points="541.9242,370.947 541.9242,377.947" style="fill:none;stroke:black;stroke-width:1" />
  <polyline points="34.012,361.4774 41.1657,357.2648 51.8962,360.0732 55.4731,357.2648 59.0499,359.1371 62.6268,356.7968 66.2036,357.2648 76.9342,357.7329 80.511,361.4774 84.0878,361.9454 87.6647,361.0093 91.2415,361.0093 101.9721,364.2857 105.5489,365.6899 109.1258,365.6899 112.7026,364.7538 116.2795,365.2219 127.01,365.2219 130.5868,367.5622 134.1637,366.158 137.7405,363.3496 141.3174,361.4774 152.0479,356.7968 155.6248,353.5204 159.2016,348.8398 162.7785,348.3717 166.3553,346.9675 177.0858,351.1801 180.6627,352.1162 184.2395,351.6481 187.8164,349.7759 191.3932,347.4356 202.1238,336.2021 205.7006,337.6063 209.2775,338.0744 212.8543,331.0534 216.4312,324.5006 227.1617,317.0116 230.7385,323.5645 234.3154,317.4797 237.8922,310.9268 241.4691,309.0546 252.1996,295.0128 255.7765,305.7782 259.3533,300.1615 262.9302,287.5238 266.507,269.2695 277.2375,245.8664 280.8144,247.2706 284.3912,244.4622 287.9681,222.9315 291.5449,218.7189 302.2755,155.5307 305.8523,172.849 309.4292,172.849 313.006,167.7003 316.5828,139.6167 327.3134,148.5098 330.8902,195.3159 334.4671,185.0186 338.0439,171.4448 341.6208,165.8281 352.3513,134.468 355.9282,153.6585 359.505,140.0847 366.6587,113.8734 377.3892,108.2566 380.9661,134.468 384.5429,141.4889 388.1198,112.0011 391.6966,134.9361 402.4272,156.4669 406.004,173.7851 409.5808,167.7003 413.1577,182.2102 416.7345,160.2113 427.4651,132.5958 431.0419,148.0418 434.6188,171.9129 438.1956,163.4878 441.7725,175.6573 452.503,117.1498 456.0798,141.957 459.6567,155.5307 463.2335,132.1277 466.8104,117.1498 477.5409,70.3437 481.1178,99.8315 484.6946,111.065 488.2715,95.1509 491.8483,69.8757 502.5788,33.835 506.1557,61.4506 509.7325,84.8536 527.6168,32.4308 531.1936,57.7061 534.7705,76.4285 538.3473,56.77 552.6547,57.238 556.2315,82.5133 559.8084,118.0859 563.3852,126.0429 566.9621,98.8954 577.6926,112.0011 581.2695,150.8501 584.8463,174.7212 588.4232,164.4239 592,190.6353" style="fill:none;stroke:rgb(31,119,180);stroke-width:2;stroke-linejoin:bevel" />
  <text dominant-baseline="hanging" text-anchor="middle" transform="translate(313.006,8)" font-family="Segoe UI" font-size="18" font-weight="700" fill="black">Aktive Fälle Stadt Aachen 15.01.2021</text>
  <polygon points="34.012,29.0795 592,29.0795 592,370.947 34.012,370.947" style="fill:none;stroke:black;stroke-width:1" />
  <polygon points="42.012,37.0795 228.483,37.0795 228.483,63.1325 42.012,63.1325" style="fill:none;stroke:none;" />
  <text dominant-baseline="hanging" text-anchor="start" transform="translate(70.012,45.0795)" font-family="Segoe UI" font-size="12" font-weight="400" fill="black">Aktive Fälle Stadt Aachen 15.01.2021</text>
  <polyline points="50.012,50.106 66.012,50.106" style="fill:none;stroke:rgb(31,119,180);stroke-width:2" />
</svg>