<?xml version="1.0" encoding="utf-8" standalone="no"?>
<!DOCTYPE svg PUBLIC "-//W3C//DTD SVG 1.1//EN" "http://www.w3.org/Graphics/SVG/1.1/DTD/svg11.dtd">
<svg width="600" height="400" version="1.1" xmlns:xlink="http://www.w3.org/1999/xlink" xmlns="http://www.w3.org/2000/svg">
  <rect x="0" y="0" width="600" height="400" style="fill:rgb(255,255,255);stroke:none;" />
  <polyline points="34.012,352.1162 30.012,352.1162" style="fill:none;stroke:black;stroke-width:1" />
  <polyline points="34.012,328.7131 30.012,328.7131" style="fill:none;stroke:black;stroke-width:1" />
  <polyline points="34.012,305.3101 30.012,305.3101" style="fill:none;stroke:black;stroke-width:1" />
  <polyline points="34.012,258.5041 30.012,258.5041" style="fill:none;stroke:black;stroke-width:1" />
  <polyline points="34.012,235.101 30.012,235.101" style="fill:none;stroke:black;stroke-width:1" />
  <polyline points="34.012,211.698 30.012,211.698" style="fill:none;stroke:black;stroke-width:1" />
  <polyline points="34.012,164.892 30.012,164.892" style="fill:none;stroke:black;stroke-width:1" />
  <polyline points="34.012,141.4889 30.012,141.4889" style="fill:none;stroke:black;stroke-width:1" />
  <polyline points="34.012,118.0859 30.012,118.0859" style="fill:none;stroke:black;stroke-width:1" />
  <polyline points="34.012,71.2798 30.012,71.2798" style="fill:none;stroke:black;stroke-width:1" />
  <polyline points="34.012,47.8768 30.012,47.8768" style="fill:none;stroke:black;stroke-width:1" />
  <text dominant-baseline="middle" text-anchor="end" transform="translate(23.012,281.9071)" font-family="Segoe UI" font-size="12" font-weight="400" fill="black">200</text>
  <text dominant-baseline="middle" text-anchor="end" transform="translate(23.012,188.295)" font-family="Segoe UI" font-size="12" font-weight="400" fill="black">400</text>
  <text dominant-baseline="middle" text-anchor="end" transform="translate(23.012,94.6829)" font-family="Segoe UI" font-size="12" font-weight="400" fill="black">600</text>
  <polyline points="34.012,281.9071 27.012,281.9071" style="fill:none;stroke:black;stroke-width:1" />
  <polyline points="34.012,188.295 27.012,188.295" style="fill:none;stroke:black;stroke-width:1" />
  <polyline points="34.012,94.6829 27.012,94.6829" style="fill:none;stroke:black;stroke-width:1" />
  <text dominant-baseline="hanging" text-anchor="middle" transform="translate(83.6109,381.947)" font-family="Segoe UI" font-size="12" font-weight="400" fill="black">01. September</text>
  <text dominant-baseline="hanging" text-anchor="middle" transform="translate(158.0093,381.947)" font-family="Segoe UI" font-size="12" font-weight="400" fill="black">01. October</text>
  <text dominant-baseline="hanging" text-anchor="middle" transform="translate(234.8877,381.947)" font-family="Segoe UI" font-size="12" font-weight="400" fill="black">01. November</text>
  <text dominant-baseline="hanging" text-anchor="middle" transform="translate(309.2861,381.947)" font-family="Segoe UI" font-size="12" font-weight="400" fill="black">01. December</text>
  <text dominant-baseline="hanging" text-anchor="middle" transform="translate(386.1644,381.947)" font-family="Segoe UI" font-size="12" font-weight="400" fill="black">01. January</text>
  <text dominant-baseline="hanging" text-anchor="middle" transform="translate(463.0428,381.947)" font-family="Segoe UI" font-size="12" font-weight="400" fill="black">01. February</text>
  <text dominant-baseline="hanging" text-anchor="middle" transform="translate(532.4813,381.947)" font-family="Segoe UI" font-size="12" font-weight="400" fill="black">01. March</text>
  <polyline points="83.6109,370.947 83.6109,377.947" style="fill:none;stroke:black;stroke-width:1" />
  <polyline points="158.0093,370.947 158.0093,377.947" style="fill:none;stroke:black;stroke-width:1" />
  <polyline points="234.8877,370.947 234.8877,377.947" style="fill:none;stroke:black;stroke-width:1" />
  <polyline points="309.2861,370.947 309.2861,377.947" style="fill:none;stroke:black;stroke-width:1" />
  <polyline points="386.1644,370.947 386.1644,377.947" style="fill:none;stroke:black;stroke-width:1" />
  <polyline points="463.0428,370.947 463.0428,377.947" style="fill:none;stroke:black;stroke-width:1" />
  <polyline points="532.4813,370.947 532.4813,377.947" style="fill:none;stroke:black;stroke-width:1" />
  <polyline points="34.012,361.4774 38.9719,357.2648 46.4117,360.0732 48.8917,357.2648 51.3716,359.1371 53.8516,356.7968 56.3315,357.2648 63.7714,357.7329 66.2513,361.4774 68.7313,361.9454 71.2112,361.0093 73.6911,361.0093 81.131,364.2857 83.6109,365.6899 86.0909,365.6899 88.5708,364.7538 91.0508,365.2219 98.4906,365.2219 100.9706,367.5622 103.4505,366.158 105.9305,363.3496 108.4104,361.4774 115.8502,356.7968 118.3302,353.5204 120.8101,348.8398 123.2901,348.3717 125.77,346.9675 133.2099,351.1801 135.6898,352.1162 138.1698,351.6481 140.6497,349.7759 143.1297,347.4356 150.5695,336.2021 153.0494,337.6063 155.5294,338.0744 158.0093,331.0534 160.4893,324.5006 167.9291,317.0116 170.4091,323.5645 172.889,317.4797 175.369,310.9268 177.8489,309.0546 185.2887,295.0128 187.7687,305.7782 190.2486,300.1615 192.7286,287.5238 195.2085,269.2695 202.6484,245.8664 205.1283,247.2706 207.6083,244.4622 210.0882,222.9315 212.5682,218.7189 220.008,155.5307 222.4879,172.849 224.9679,172.849 227.4478,167.7003 229.9278,139.6167 237.3676,148.5098 239.8476,195.3159 242.3275,185.0186 244.8075,171.4448 247.2874,165.8281 254.7273,134.468 257.2072,153.6585 259.6871,140.0847 264.647,113.8734 272.0869,108.2566 274.5668,134.468 277.0468,141.4889 279.5267,112.0011 282.0067,134.9361 289.4465,156.4669 291.9265,173.7851 294.4064,167.7003 296.8863,182.2102 299.3663,160.2113 306.8061,132.5958 309.2861,148.0418 311.766,171.9129 314.246,163.4878 316.7259,175.6573 324.1658,117.1498 326.6457,141.957 329.1257,155.5307 331.6056,132.1277 334.0855,117.1498 341.5254,70.3437 344.0053,99.8315 346.4853,111.065 348.9652,95.1509 351.4452,69.8757 358.885,33.835 361.365,61.4506 363.8449,84.8536 376.2446,32.4308 378.7246,57.7061 381.2045,76.4285 383.6845,56.77 393.6043,57.238 396.0842,82.5133 398.5642,118.0859 401.0441,126.0429 403.5241,98.8954 413.4438,150.8501 415.9238,174.7212 418.4037,164.4239 420.8837,190.6353 428.3235,206.0813 430.8035,233.2288 433.2834,240.2497 435.7634,238.3775 438.2433,234.1649 445.6831,233.6969 450.643,244.4622 453.123,224.8037 455.6029,212.1661 463.0428,214.0383 465.5227,235.5691 468.0027,254.2915 470.4826,245.3984 472.9626,245.3984 480.4024,262.2485 482.8823,274.4181 485.3623,267.3972 487.8422,253.3554 490.3222,239.3136 497.762,249.6109 500.242,284.2474 502.7219,282.3752 505.2019,272.5459 507.6818,293.6086 515.1217,302.5018 517.6016,310.9268 520.0815,305.3101 522.5615,303.4379 525.0414,305.7782 532.4813,308.1185 534.9612,319.82 537.4412,311.863 539.9211,286.5877 542.4011,285.1835 549.8409,265.993 552.3209,265.993 554.8008,258.5041 557.2807,246.8025 559.7607,232.2927 567.2005,222.4634 569.6805,223.8676 572.1604,224.8037 574.6404,195.3159 577.1203,175.1893 584.5602,150.3821 587.0401,150.8501 589.5201,152.7224 592,120.4262" style="fill:none;stroke:rgb(31,119,180);stroke-width:2;stroke-linejoin:bevel" />
  <text dominant-baseline="hanging" text-anchor="middle" transform="translate(313.006,8)" font-family="Segoe UI" font-size="18" font-weight="700" fill="black">Aktive Fälle Stadt Aachen 25.03.2021</text>
  <polygon points="34.012,29.0795 592,29.0795 592,370.947 34.012,370.947" style="fill:none;stroke:black;stroke-width:1" />
  <polygon points="42.012,37.0795 228.483,37.0795 228.483,63.1325 42.012,63.1325" style="fill:none;stroke:none;" />
  <text dominant-baseline="hanging" text-anchor="start" transform="translate(70.012,45.0795)" font-family="Segoe UI" font-size="12" font-weight="400" fill="black">Aktive Fälle Stadt Aachen 25.03.2021</text>
  <polyline points="50.012,50.106 66.012,50.106" style="fill:none;stroke:rgb(31,119,180);stroke-width:2" />
</svg>