<?xml version="1.0" encoding="utf-8" standalone="no"?>
<!DOCTYPE svg PUBLIC "-//W3C//DTD SVG 1.1//EN" "http://www.w3.org/Graphics/SVG/1.1/DTD/svg11.dtd">
<svg width="600" height="400" version="1.1" xmlns:xlink="http://www.w3.org/1999/xlink" xmlns="http://www.w3.org/2000/svg">
  <rect x="0" y="0" width="600" height="400" style="fill:rgb(255,255,255);stroke:none;" />
  <polyline points="34.012,352.1162 30.012,352.1162" style="fill:none;stroke:black;stroke-width:1" />
  <polyline points="34.012,328.7131 30.012,328.7131" style="fill:none;stroke:black;stroke-width:1" />
  <polyline points="34.012,305.3101 30.012,305.3101" style="fill:none;stroke:black;stroke-width:1" />
  <polyline points="34.012,258.5041 30.012,258.5041" style="fill:none;stroke:black;stroke-width:1" />
  <polyline points="34.012,235.101 30.012,235.101" style="fill:none;stroke:black;stroke-width:1" />
  <polyline points="34.012,211.698 30.012,211.698" style="fill:none;stroke:black;stroke-width:1" />
  <polyline points="34.012,164.892 30.012,164.892" style="fill:none;stroke:black;stroke-width:1" />
  <polyline points="34.012,141.4889 30.012,141.4889" style="fill:none;stroke:black;stroke-width:1" />
  <polyline points="34.012,118.0859 30.012,118.0859" style="fill:none;stroke:black;stroke-width:1" />
  <polyline points="34.012,71.2798 30.012,71.2798" style="fill:none;stroke:black;stroke-width:1" />
  <polyline points="34.012,47.8768 30.012,47.8768" style="fill:none;stroke:black;stroke-width:1" />
  <text dominant-baseline="middle" text-anchor="end" transform="translate(23.012,281.9071)" font-family="Segoe UI" font-size="12" font-weight="400" fill="black">200</text>
  <text dominant-baseline="middle" text-anchor="end" transform="translate(23.012,188.295)" font-family="Segoe UI" font-size="12" font-weight="400" fill="black">400</text>
  <text dominant-baseline="middle" text-anchor="end" transform="translate(23.012,94.6829)" font-family="Segoe UI" font-size="12" font-weight="400" fill="black">600</text>
  <polyline points="34.012,281.9071 27.012,281.9071" style="fill:none;stroke:black;stroke-width:1" />
  <polyline points="34.012,188.295 27.012,188.295" style="fill:none;stroke:black;stroke-width:1" />
  <polyline points="34.012,94.6829 27.012,94.6829" style="fill:none;stroke:black;stroke-width:1" />
  <text dominant-baseline="hanging" text-anchor="middle" transform="translate(100.0461,381.947)" font-family="Segoe UI" font-size="12" font-weight="400" fill="black">01. September</text>
  <text dominant-baseline="hanging" text-anchor="middle" transform="translate(199.0972,381.947)" font-family="Segoe UI" font-size="12" font-weight="400" fill="black">01. October</text>
  <text dominant-baseline="hanging" text-anchor="middle" transform="translate(301.45,381.947)" font-family="Segoe UI" font-size="12" font-weight="400" fill="black">01. November</text>
  <text dominant-baseline="hanging" text-anchor="middle" transform="translate(400.5012,381.947)" font-family="Segoe UI" font-size="12" font-weight="400" fill="black">01. December</text>
  <text dominant-baseline="hanging" text-anchor="middle" transform="translate(502.854,381.947)" font-family="Segoe UI" font-size="12" font-weight="400" fill="black">01. January</text>
  <polyline points="100.0461,370.947 100.0461,377.947" style="fill:none;stroke:black;stroke-width:1" />
  <polyline points="199.0972,370.947 199.0972,377.947" style="fill:none;stroke:black;stroke-width:1" />
  <polyline points="301.45,370.947 301.45,377.947" style="fill:none;stroke:black;stroke-width:1" />
  <polyline points="400.5012,370.947 400.5012,377.947" style="fill:none;stroke:black;stroke-width:1" />
  <polyline points="502.854,370.947 502.854,377.947" style="fill:none;stroke:black;stroke-width:1" />
  <polyline points="34.012,361.4774 40.6154,357.2648 50.5205,360.0732 53.8222,357.2648 57.1239,359.1371 60.4256,356.7968 63.7273,357.2648 73.6324,357.7329 76.9342,361.4774 80.2359,361.9454 83.5376,361.0093 86.8393,361.0093 96.7444,364.2857 100.0461,365.6899 103.3478,365.6899 106.6495,364.7538 109.9512,365.2219 119.8563,365.2219 123.158,367.5622 126.4597,366.158 129.7614,363.3496 133.0631,361.4774 142.9682,356.7968 146.2699,353.5204 149.5716,348.8398 152.8733,348.3717 156.1751,346.9675 166.0802,351.1801 169.3819,352.1162 172.6836,351.6481 175.9853,349.7759 179.287,347.4356 189.1921,336.2021 192.4938,337.6063 195.7955,338.0744 199.0972,331.0534 202.3989,324.5006 212.304,317.0116 215.6057,323.5645 218.9074,317.4797 222.2091,310.9268 225.5108,309.0546 235.416,295.0128 238.7177,305.7782 242.0194,300.1615 245.3211,287.5238 248.6228,269.2695 258.5279,245.8664 261.8296,247.2706 265.1313,244.4622 268.433,222.9315 271.7347,218.7189 281.6398,155.5307 284.9415,172.849 288.2432,172.849 291.5449,167.7003 294.8466,139.6167 304.7517,148.5098 308.0534,195.3159 311.3551,185.0186 314.6569,171.4448 317.9586,165.8281 327.8637,134.468 331.1654,153.6585 334.4671,140.0847 341.0705,113.8734 350.9756,108.2566 354.2773,134.468 357.579,141.4889 360.8807,112.0011 364.1824,134.9361 374.0875,156.4669 377.3892,173.7851 380.6909,167.7003 383.9926,182.2102 387.2943,160.2113 397.1995,132.5958 400.5012,148.0418 403.8029,171.9129 407.1046,163.4878 410.4063,175.6573 420.3114,117.1498 423.6131,141.957 426.9148,155.5307 430.2165,132.1277 433.5182,117.1498 443.4233,70.3437 446.725,99.8315 450.0267,111.065 453.3284,95.1509 456.6301,69.8757 466.5352,33.835 469.8369,61.4506 473.1387,84.8536 489.6472,32.4308 492.9489,57.7061 496.2506,76.4285 499.5523,56.77 512.7591,57.238 516.0608,82.5133 519.3625,118.0859 522.6642,126.0429 525.9659,98.8954 539.1727,150.8501 542.4744,174.7212 545.7761,164.4239 549.0778,190.6353 558.983,206.0813 562.2847,233.2288 565.5864,240.2497 568.8881,238.3775 572.1898,234.1649 582.0949,233.6969 588.6983,244.4622 592,224.8037" style="fill:none;stroke:rgb(31,119,180);stroke-width:2;stroke-linejoin:bevel" />
  <text dominant-baseline="hanging" text-anchor="middle" transform="translate(313.006,8)" font-family="Segoe UI" font-size="18" font-weight="700" fill="black">Aktive Fälle Stadt Aachen 28.01.2021</text>
  <polygon points="34.012,29.0795 592,29.0795 592,370.947 34.012,370.947" style="fill:none;stroke:black;stroke-width:1" />
  <polygon points="42.012,37.0795 228.483,37.0795 228.483,63.1325 42.012,63.1325" style="fill:none;stroke:none;" />
  <text dominant-baseline="hanging" text-anchor="start" transform="translate(70.012,45.0795)" font-family="Segoe UI" font-size="12" font-weight="400" fill="black">Aktive Fälle Stadt Aachen 28.01.2021</text>
  <polyline points="50.012,50.106 66.012,50.106" style="fill:none;stroke:rgb(31,119,180);stroke-width:2" />
</svg>