<?xml version="1.0" encoding="utf-8" standalone="no"?>
<!DOCTYPE svg PUBLIC "-//W3C//DTD SVG 1.1//EN" "http://www.w3.org/Graphics/SVG/1.1/DTD/svg11.dtd">
<svg width="600" height="400" version="1.1" xmlns:xlink="http://www.w3.org/1999/xlink" xmlns="http://www.w3.org/2000/svg">
  <rect x="0" y="0" width="600" height="400" style="fill:rgb(255,255,255);stroke:none;" />
  <polyline points="39.016,357.0495 35.016,357.0495" style="fill:none;stroke:black;stroke-width:1" />
  <polyline points="39.016,341.1212 35.016,341.1212" style="fill:none;stroke:black;stroke-width:1" />
  <polyline points="39.016,325.1929 35.016,325.1929" style="fill:none;stroke:black;stroke-width:1" />
  <polyline points="39.016,293.3363 35.016,293.3363" style="fill:none;stroke:black;stroke-width:1" />
  <polyline points="39.016,277.408 35.016,277.408" style="fill:none;stroke:black;stroke-width:1" />
  <polyline points="39.016,261.4797 35.016,261.4797" style="fill:none;stroke:black;stroke-width:1" />
  <polyline points="39.016,229.6231 35.016,229.6231" style="fill:none;stroke:black;stroke-width:1" />
  <polyline points="39.016,213.6948 35.016,213.6948" style="fill:none;stroke:black;stroke-width:1" />
  <polyline points="39.016,197.7665 35.016,197.7665" style="fill:none;stroke:black;stroke-width:1" />
  <polyline points="39.016,165.9099 35.016,165.9099" style="fill:none;stroke:black;stroke-width:1" />
  <polyline points="39.016,149.9816 35.016,149.9816" style="fill:none;stroke:black;stroke-width:1" />
  <polyline points="39.016,134.0533 35.016,134.0533" style="fill:none;stroke:black;stroke-width:1" />
  <polyline points="39.016,102.1968 35.016,102.1968" style="fill:none;stroke:black;stroke-width:1" />
  <polyline points="39.016,86.2685 35.016,86.2685" style="fill:none;stroke:black;stroke-width:1" />
  <polyline points="39.016,70.3402 35.016,70.3402" style="fill:none;stroke:black;stroke-width:1" />
  <polyline points="39.016,38.4836 35.016,38.4836" style="fill:none;stroke:black;stroke-width:1" />
  <polyline points="72.632,370.947 72.632,374.947" style="fill:none;stroke:black;stroke-width:1" />
  <polyline points="175.161,370.947 175.161,374.947" style="fill:none;stroke:black;stroke-width:1" />
  <polyline points="277.6899,370.947 277.6899,374.947" style="fill:none;stroke:black;stroke-width:1" />
  <polyline points="376.8573,370.947 376.8573,374.947" style="fill:none;stroke:black;stroke-width:1" />
  <polyline points="479.3862,370.947 479.3862,374.947" style="fill:none;stroke:black;stroke-width:1" />
  <polyline points="581.9152,370.947 581.9152,374.947" style="fill:none;stroke:black;stroke-width:1" />
  <text dominant-baseline="middle" text-anchor="end" transform="translate(28.016,309.2646)" font-family="Segoe UI" font-size="12" font-weight="400" fill="black">200</text>
  <text dominant-baseline="middle" text-anchor="end" transform="translate(28.016,245.5514)" font-family="Segoe UI" font-size="12" font-weight="400" fill="black">400</text>
  <text dominant-baseline="middle" text-anchor="end" transform="translate(28.016,181.8382)" font-family="Segoe UI" font-size="12" font-weight="400" fill="black">600</text>
  <text dominant-baseline="middle" text-anchor="end" transform="translate(28.016,118.125)" font-family="Segoe UI" font-size="12" font-weight="400" fill="black">800</text>
  <text dominant-baseline="middle" text-anchor="end" transform="translate(28.016,54.4119)" font-family="Segoe UI" font-size="12" font-weight="400" fill="black">1000</text>
  <polyline points="39.016,309.2646 32.016,309.2646" style="fill:none;stroke:black;stroke-width:1" />
  <polyline points="39.016,245.5514 32.016,245.5514" style="fill:none;stroke:black;stroke-width:1" />
  <polyline points="39.016,181.8382 32.016,181.8382" style="fill:none;stroke:black;stroke-width:1" />
  <polyline points="39.016,118.125 32.016,118.125" style="fill:none;stroke:black;stroke-width:1" />
  <polyline points="39.016,54.4119 32.016,54.4119" style="fill:none;stroke:black;stroke-width:1" />
  <text dominant-baseline="hanging" text-anchor="middle" transform="translate(123.0561,381.947)" font-family="Segoe UI" font-size="12" font-weight="400" fill="black">01. October</text>
  <text dominant-baseline="hanging" text-anchor="middle" transform="translate(225.5851,381.947)" font-family="Segoe UI" font-size="12" font-weight="400" fill="black">01. December</text>
  <text dominant-baseline="hanging" text-anchor="middle" transform="translate(329.7948,381.947)" font-family="Segoe UI" font-size="12" font-weight="400" fill="black">01. February</text>
  <text dominant-baseline="hanging" text-anchor="middle" transform="translate(428.9622,381.947)" font-family="Segoe UI" font-size="12" font-weight="400" fill="black">01. April</text>
  <text dominant-baseline="hanging" text-anchor="middle" transform="translate(531.4911,381.947)" font-family="Segoe UI" font-size="12" font-weight="400" fill="black">01. June</text>
  <polyline points="123.0561,370.947 123.0561,377.947" style="fill:none;stroke:black;stroke-width:1" />
  <polyline points="225.5851,370.947 225.5851,377.947" style="fill:none;stroke:black;stroke-width:1" />
  <polyline points="329.7948,370.947 329.7948,377.947" style="fill:none;stroke:black;stroke-width:1" />
  <polyline points="428.9622,370.947 428.9622,377.947" style="fill:none;stroke:black;stroke-width:1" />
  <polyline points="531.4911,370.947 531.4911,377.947" style="fill:none;stroke:black;stroke-width:1" />
  <polyline points="39.016,363.4208 42.3776,360.5537 47.42,362.4651 49.1008,360.5537 50.7816,361.828 52.4624,360.2352 54.1432,360.5537 59.1856,360.8723 60.8664,363.4208 62.5472,363.7394 64.228,363.1023 65.9088,363.1023 70.9512,365.3322 72.632,366.2879 74.3129,366.2879 75.9937,365.6508 77.6745,365.9693 82.7169,365.9693 84.3977,367.5622 86.0785,366.6065 87.7593,364.6951 89.4401,363.4208 94.4825,360.2352 96.1633,358.0052 97.8441,354.8195 99.5249,354.501 101.2057,353.5453 106.2481,356.4124 107.9289,357.0495 109.6097,356.7309 111.2905,355.4567 112.9713,353.8638 118.0137,346.2183 119.6945,347.174 121.3753,347.4925 123.0561,342.714 124.7369,338.2541 129.7793,333.1571 131.4601,337.617 133.1409,333.4756 134.8217,329.0157 136.5025,327.7414 141.5449,318.1845 143.2258,325.5115 144.9066,321.6887 146.5874,313.0874 148.2682,300.6633 153.3106,284.735 154.9914,285.6907 156.6722,283.7793 158.353,269.1253 160.0338,266.2582 165.0762,223.2518 166.757,235.0387 168.4378,235.0387 170.1186,231.5345 171.7994,212.4206 176.8418,218.4733 178.5226,250.3299 180.2034,243.3215 181.8842,234.083 183.565,230.2603 188.6074,208.9163 190.2882,221.9775 191.969,212.7391 195.3306,194.8994 200.373,191.0766 202.0538,208.9163 203.7346,213.6948 205.4154,193.6252 207.0962,209.2349 212.1387,223.8889 213.8195,235.6759 215.5003,231.5345 217.1811,241.4101 218.8619,226.4375 223.9043,207.6421 225.5851,218.1548 227.2659,234.4016 228.9467,228.6674 230.6275,236.9501 235.6699,197.1294 237.3507,214.0134 239.0315,223.2518 240.7123,207.3235 242.3931,197.1294 247.4355,165.2728 249.1163,185.3425 250.7971,192.988 252.4779,182.1568 254.1587,164.9542 259.2011,140.4247 260.8819,159.2201 262.5627,175.1484 270.9667,139.469 272.6475,156.6715 274.3283,169.4142 276.0091,156.0344 282.7324,156.353 284.4132,173.5555 286.094,197.7665 287.7748,203.1822 289.4556,184.7053 296.1788,220.0661 297.8596,236.313 299.5404,229.3046 301.2212,247.1443 306.2636,257.6569 307.9444,276.1338 309.6252,280.9122 311.306,279.638 312.9868,276.7709 318.0292,276.4523 321.3908,283.7793 323.0716,270.3996 324.7524,261.7983 329.7948,263.0725 331.4756,277.7266 333.1564,290.4692 334.8372,284.4165 336.518,284.4165 341.5604,295.8848 343.2412,304.1676 344.922,299.3891 346.6028,289.8321 348.2836,280.2751 353.3261,287.2836 355.0069,310.8574 356.6877,309.5832 358.3685,302.8933 360.0493,317.2288 365.0917,323.2815 366.7725,329.0157 368.4533,325.1929 370.1341,323.9186 371.8149,325.5115 376.8573,327.1043 378.5381,335.0684 380.2189,329.6528 381.8997,312.4503 383.5805,311.4946 388.6229,298.4334 390.3037,298.4334 391.9845,293.3363 393.6653,285.3722 395.3461,275.4966 400.3885,268.8067 402.0693,269.7624 403.7501,270.3996 405.4309,250.3299 407.1117,236.6316 412.1541,219.7476 413.8349,220.0661 415.5157,221.3404 417.1965,199.3594 418.8773,195.218 423.9198,192.3509 425.6006,214.9691 427.2814,219.429 428.9622,211.7834 430.643,188.5281 437.3662,174.1927 439.047,176.7412 440.7278,153.4859 442.4086,148.3888 447.451,142.6546 449.1318,144.2475 450.8126,126.7263 452.4934,113.6651 454.1742,116.2137 459.2166,99.9668 460.8974,95.1883 462.5782,72.8887 464.259,44.5363 465.9398,32.4308 470.9822,42.3064 472.663,49.3148 474.3438,66.1988 476.0246,77.6672 477.7054,71.2959 482.7478,109.8423 484.4286,105.701 486.1094,125.7706 487.7902,134.6905 489.4711,148.3888 494.5135,149.0259 496.1943,175.7855 497.8751,170.6884 501.2367,185.3425 506.2791,171.9627 507.9599,185.661 509.6407,186.2982 511.3215,180.564 513.0023,185.0239 519.7255,213.3763 521.4063,232.8088 523.0871,239.8172 524.7679,234.7202 529.8103,261.4797 531.4911,282.1865 533.1719,289.195 536.5335,301.9376 541.5759,310.5389 543.2567,317.8659 544.9375,328.6971 546.6183,332.5199 548.2991,337.2984 553.3415,338.5727 555.0223,337.617 556.7031,348.7668 558.384,348.1297 560.0648,349.7225 565.1072,350.6782 566.788,351.9524 568.4688,352.5896 570.1496,352.9081 571.8304,352.9081 576.8728,354.1824 578.5536,356.0938 580.2344,355.7752 581.9152,353.5453 583.596,354.8195 588.6384,356.0938 592,355.7752" style="fill:none;stroke:rgb(31,119,180);stroke-width:2;stroke-linejoin:bevel" />
  <text dominant-baseline="hanging" text-anchor="middle" transform="translate(315.508,8)" font-family="Segoe UI" font-size="18" font-weight="700" fill="black">Aktive Fälle Stadt Aachen 07.07.2021</text>
  <polygon points="39.016,29.0795 592,29.0795 592,370.947 39.016,370.947" style="fill:none;stroke:black;stroke-width:1" />
  <polygon points="47.016,37.0795 233.487,37.0795 233.487,63.1325 47.016,63.1325" style="fill:none;stroke:none;" />
  <text dominant-baseline="hanging" text-anchor="start" transform="translate(75.016,45.0795)" font-family="Segoe UI" font-size="12" font-weight="400" fill="black">Aktive Fälle Stadt Aachen 07.07.2021</text>
  <polyline points="55.016,50.106 71.016,50.106" style="fill:none;stroke:rgb(31,119,180);stroke-width:2" />
</svg>