<?xml version="1.0" encoding="utf-8" standalone="no"?>
<!DOCTYPE svg PUBLIC "-//W3C//DTD SVG 1.1//EN" "http://www.w3.org/Graphics/SVG/1.1/DTD/svg11.dtd">
<svg width="600" height="400" version="1.1" xmlns:xlink="http://www.w3.org/1999/xlink" xmlns="http://www.w3.org/2000/svg">
  <rect x="0" y="0" width="600" height="400" style="fill:rgb(255,255,255);stroke:none;" />
  <polyline points="34.012,352.1162 30.012,352.1162" style="fill:none;stroke:black;stroke-width:1" />
  <polyline points="34.012,328.7131 30.012,328.7131" style="fill:none;stroke:black;stroke-width:1" />
  <polyline points="34.012,305.3101 30.012,305.3101" style="fill:none;stroke:black;stroke-width:1" />
  <polyline points="34.012,258.5041 30.012,258.5041" style="fill:none;stroke:black;stroke-width:1" />
  <polyline points="34.012,235.101 30.012,235.101" style="fill:none;stroke:black;stroke-width:1" />
  <polyline points="34.012,211.698 30.012,211.698" style="fill:none;stroke:black;stroke-width:1" />
  <polyline points="34.012,164.892 30.012,164.892" style="fill:none;stroke:black;stroke-width:1" />
  <polyline points="34.012,141.4889 30.012,141.4889" style="fill:none;stroke:black;stroke-width:1" />
  <polyline points="34.012,118.0859 30.012,118.0859" style="fill:none;stroke:black;stroke-width:1" />
  <polyline points="34.012,71.2798 30.012,71.2798" style="fill:none;stroke:black;stroke-width:1" />
  <polyline points="34.012,47.8768 30.012,47.8768" style="fill:none;stroke:black;stroke-width:1" />
  <text dominant-baseline="middle" text-anchor="end" transform="translate(23.012,281.9071)" font-family="Segoe UI" font-size="12" font-weight="400" fill="black">200</text>
  <text dominant-baseline="middle" text-anchor="end" transform="translate(23.012,188.295)" font-family="Segoe UI" font-size="12" font-weight="400" fill="black">400</text>
  <text dominant-baseline="middle" text-anchor="end" transform="translate(23.012,94.6829)" font-family="Segoe UI" font-size="12" font-weight="400" fill="black">600</text>
  <polyline points="34.012,281.9071 27.012,281.9071" style="fill:none;stroke:black;stroke-width:1" />
  <polyline points="34.012,188.295 27.012,188.295" style="fill:none;stroke:black;stroke-width:1" />
  <polyline points="34.012,94.6829 27.012,94.6829" style="fill:none;stroke:black;stroke-width:1" />
  <text dominant-baseline="hanging" text-anchor="middle" transform="translate(108.9097,381.947)" font-family="Segoe UI" font-size="12" font-weight="400" fill="black">01. September</text>
  <text dominant-baseline="hanging" text-anchor="middle" transform="translate(221.2563,381.947)" font-family="Segoe UI" font-size="12" font-weight="400" fill="black">01. October</text>
  <text dominant-baseline="hanging" text-anchor="middle" transform="translate(337.3478,381.947)" font-family="Segoe UI" font-size="12" font-weight="400" fill="black">01. November</text>
  <text dominant-baseline="hanging" text-anchor="middle" transform="translate(449.6943,381.947)" font-family="Segoe UI" font-size="12" font-weight="400" fill="black">01. December</text>
  <text dominant-baseline="hanging" text-anchor="middle" transform="translate(565.7858,381.947)" font-family="Segoe UI" font-size="12" font-weight="400" fill="black">01. January</text>
  <polyline points="108.9097,370.947 108.9097,377.947" style="fill:none;stroke:black;stroke-width:1" />
  <polyline points="221.2563,370.947 221.2563,377.947" style="fill:none;stroke:black;stroke-width:1" />
  <polyline points="337.3478,370.947 337.3478,377.947" style="fill:none;stroke:black;stroke-width:1" />
  <polyline points="449.6943,370.947 449.6943,377.947" style="fill:none;stroke:black;stroke-width:1" />
  <polyline points="565.7858,370.947 565.7858,377.947" style="fill:none;stroke:black;stroke-width:1" />
  <polyline points="34.012,361.4774 41.5018,357.2648 52.7364,360.0732 56.4813,357.2648 60.2262,359.1371 63.9711,356.7968 67.716,357.2648 78.9506,357.7329 82.6955,361.4774 86.4404,361.9454 90.1853,361.0093 93.9302,361.0093 105.1648,364.2857 108.9097,365.6899 112.6546,365.6899 116.3995,364.7538 120.1444,365.2219 131.379,365.2219 135.1239,367.5622 138.8688,366.158 142.6137,363.3496 146.3586,361.4774 157.5932,356.7968 161.3381,353.5204 165.083,348.8398 168.8279,348.3717 172.5728,346.9675 183.8074,351.1801 187.5523,352.1162 191.2972,351.6481 195.0421,349.7759 198.787,347.4356 210.0216,336.2021 213.7665,337.6063 217.5114,338.0744 221.2563,331.0534 225.0012,324.5006 236.2358,317.0116 239.9807,323.5645 243.7256,317.4797 247.4705,310.9268 251.2154,309.0546 262.45,295.0128 266.1949,305.7782 269.9398,300.1615 273.6847,287.5238 277.4296,269.2695 288.6642,245.8664 292.4091,247.2706 296.154,244.4622 299.8989,222.9315 303.6438,218.7189 314.8784,155.5307 318.6233,172.849 322.3682,172.849 326.1131,167.7003 329.858,139.6167 341.0926,148.5098 344.8375,195.3159 348.5824,185.0186 352.3273,171.4448 356.0722,165.8281 367.3068,134.468 371.0517,153.6585 374.7966,140.0847 382.2864,113.8734 393.521,108.2566 397.2659,134.468 401.0108,141.4889 404.7557,112.0011 408.5006,134.9361 419.7352,156.4669 423.4801,173.7851 427.225,167.7003 430.9699,182.2102 434.7148,160.2113 445.9494,132.5958 449.6943,148.0418 453.4392,171.9129 457.1841,163.4878 460.929,175.6573 472.1637,117.1498 475.9085,141.957 479.6534,155.5307 483.3983,132.1277 487.1432,117.1498 498.3779,70.3437 502.1227,99.8315 505.8676,111.065 509.6125,95.1509 513.3574,69.8757 524.5921,33.835 528.3369,61.4506 532.0818,84.8536 550.8063,32.4308 554.5511,57.7061 558.296,76.4285 562.0409,56.77 577.0205,57.238 580.7653,82.5133 584.5102,118.0859 588.2551,126.0429 592,98.8954" style="fill:none;stroke:rgb(31,119,180);stroke-width:2;stroke-linejoin:bevel" />
  <text dominant-baseline="hanging" text-anchor="middle" transform="translate(313.006,8)" font-family="Segoe UI" font-size="18" font-weight="700" fill="black">Aktive Fälle Stadt Aachen 08.01.2021</text>
  <polygon points="34.012,29.0795 592,29.0795 592,370.947 34.012,370.947" style="fill:none;stroke:black;stroke-width:1" />
  <polygon points="42.012,37.0795 228.483,37.0795 228.483,63.1325 42.012,63.1325" style="fill:none;stroke:none;" />
  <text dominant-baseline="hanging" text-anchor="start" transform="translate(70.012,45.0795)" font-family="Segoe UI" font-size="12" font-weight="400" fill="black">Aktive Fälle Stadt Aachen 08.01.2021</text>
  <polyline points="50.012,50.106 66.012,50.106" style="fill:none;stroke:rgb(31,119,180);stroke-width:2" />
</svg>