<?xml version="1.0" encoding="utf-8" standalone="no"?>
<!DOCTYPE svg PUBLIC "-//W3C//DTD SVG 1.1//EN" "http://www.w3.org/Graphics/SVG/1.1/DTD/svg11.dtd">
<svg width="600" height="400" version="1.1" xmlns:xlink="http://www.w3.org/1999/xlink" xmlns="http://www.w3.org/2000/svg">
  <rect x="0" y="0" width="600" height="400" style="fill:rgb(255,255,255);stroke:none;" />
  <polyline points="34.012,352.1162 30.012,352.1162" style="fill:none;stroke:black;stroke-width:1" />
  <polyline points="34.012,328.7131 30.012,328.7131" style="fill:none;stroke:black;stroke-width:1" />
  <polyline points="34.012,305.3101 30.012,305.3101" style="fill:none;stroke:black;stroke-width:1" />
  <polyline points="34.012,258.5041 30.012,258.5041" style="fill:none;stroke:black;stroke-width:1" />
  <polyline points="34.012,235.101 30.012,235.101" style="fill:none;stroke:black;stroke-width:1" />
  <polyline points="34.012,211.698 30.012,211.698" style="fill:none;stroke:black;stroke-width:1" />
  <polyline points="34.012,164.892 30.012,164.892" style="fill:none;stroke:black;stroke-width:1" />
  <polyline points="34.012,141.4889 30.012,141.4889" style="fill:none;stroke:black;stroke-width:1" />
  <polyline points="34.012,118.0859 30.012,118.0859" style="fill:none;stroke:black;stroke-width:1" />
  <polyline points="34.012,71.2798 30.012,71.2798" style="fill:none;stroke:black;stroke-width:1" />
  <polyline points="34.012,47.8768 30.012,47.8768" style="fill:none;stroke:black;stroke-width:1" />
  <text dominant-baseline="middle" text-anchor="end" transform="translate(23.012,281.9071)" font-family="Segoe UI" font-size="12" font-weight="400" fill="black">200</text>
  <text dominant-baseline="middle" text-anchor="end" transform="translate(23.012,188.295)" font-family="Segoe UI" font-size="12" font-weight="400" fill="black">400</text>
  <text dominant-baseline="middle" text-anchor="end" transform="translate(23.012,94.6829)" font-family="Segoe UI" font-size="12" font-weight="400" fill="black">600</text>
  <polyline points="34.012,281.9071 27.012,281.9071" style="fill:none;stroke:black;stroke-width:1" />
  <polyline points="34.012,188.295 27.012,188.295" style="fill:none;stroke:black;stroke-width:1" />
  <polyline points="34.012,94.6829 27.012,94.6829" style="fill:none;stroke:black;stroke-width:1" />
  <text dominant-baseline="hanging" text-anchor="middle" transform="translate(113.1592,381.947)" font-family="Segoe UI" font-size="12" font-weight="400" fill="black">01. September</text>
  <text dominant-baseline="hanging" text-anchor="middle" transform="translate(231.8801,381.947)" font-family="Segoe UI" font-size="12" font-weight="400" fill="black">01. October</text>
  <text dominant-baseline="hanging" text-anchor="middle" transform="translate(354.5583,381.947)" font-family="Segoe UI" font-size="12" font-weight="400" fill="black">01. November</text>
  <text dominant-baseline="hanging" text-anchor="middle" transform="translate(473.2791,381.947)" font-family="Segoe UI" font-size="12" font-weight="400" fill="black">01. December</text>
  <polyline points="113.1592,370.947 113.1592,377.947" style="fill:none;stroke:black;stroke-width:1" />
  <polyline points="231.8801,370.947 231.8801,377.947" style="fill:none;stroke:black;stroke-width:1" />
  <polyline points="354.5583,370.947 354.5583,377.947" style="fill:none;stroke:black;stroke-width:1" />
  <polyline points="473.2791,370.947 473.2791,377.947" style="fill:none;stroke:black;stroke-width:1" />
  <polyline points="34.012,361.4774 41.9267,357.2648 53.7988,360.0732 57.7562,357.2648 61.7135,359.1371 65.6709,356.7968 69.6283,357.2648 81.5003,357.7329 85.4577,361.4774 89.4151,361.9454 93.3724,361.0093 97.3298,361.0093 109.2019,364.2857 113.1592,365.6899 117.1166,365.6899 121.074,364.7538 125.0313,365.2219 136.9034,365.2219 140.8608,367.5622 144.8181,366.158 148.7755,363.3496 152.7329,361.4774 164.6049,356.7968 168.5623,353.5204 172.5197,348.8398 176.477,348.3717 180.4344,346.9675 192.3065,351.1801 196.2638,352.1162 200.2212,351.6481 204.1786,349.7759 208.1359,347.4356 220.008,336.2021 223.9654,337.6063 227.9227,338.0744 231.8801,331.0534 235.8374,324.5006 247.7095,317.0116 251.6669,323.5645 255.6243,317.4797 259.5816,310.9268 263.539,309.0546 275.4111,295.0128 279.3684,305.7782 283.3258,300.1615 287.2831,287.5238 291.2405,269.2695 303.1126,245.8664 307.07,247.2706 311.0273,244.4622 314.9847,222.9315 318.942,218.7189 330.8141,155.5307 334.7715,172.849 338.7289,172.849 342.6862,167.7003 346.6436,139.6167 358.5157,148.5098 362.473,195.3159 366.4304,185.0186 370.3877,171.4448 374.3451,165.8281 386.2172,134.468 390.1746,153.6585 394.1319,140.0847 402.0466,113.8734 413.9187,108.2566 417.8761,134.468 421.8334,141.4889 425.7908,112.0011 429.7482,134.9361 441.6203,156.4669 445.5776,173.7851 449.535,167.7003 453.4923,182.2102 457.4497,160.2113 469.3218,132.5958 473.2791,148.0418 477.2365,171.9129 481.1939,163.4878 485.1512,175.6573 497.0233,117.1498 500.9807,141.957 504.938,155.5307 508.8954,132.1277 512.8528,117.1498 524.7249,70.3437 528.6822,99.8315 532.6396,111.065 536.5969,95.1509 540.5543,69.8757 552.4264,33.835 556.3837,61.4506 560.3411,84.8536 580.1279,32.4308 584.0853,57.7061 588.0426,76.4285 592,56.77" style="fill:none;stroke:rgb(31,119,180);stroke-width:2;stroke-linejoin:bevel" />
  <text dominant-baseline="hanging" text-anchor="middle" transform="translate(313.006,8)" font-family="Segoe UI" font-size="18" font-weight="700" fill="black">Aktive Fälle Stadt Aachen 31.12.2020</text>
  <polygon points="34.012,29.0795 592,29.0795 592,370.947 34.012,370.947" style="fill:none;stroke:black;stroke-width:1" />
  <polygon points="42.012,37.0795 228.483,37.0795 228.483,63.1325 42.012,63.1325" style="fill:none;stroke:none;" />
  <text dominant-baseline="hanging" text-anchor="start" transform="translate(70.012,45.0795)" font-family="Segoe UI" font-size="12" font-weight="400" fill="black">Aktive Fälle Stadt Aachen 31.12.2020</text>
  <polyline points="50.012,50.106 66.012,50.106" style="fill:none;stroke:rgb(31,119,180);stroke-width:2" />
</svg>