<?xml version="1.0" encoding="utf-8" standalone="no"?>
<!DOCTYPE svg PUBLIC "-//W3C//DTD SVG 1.1//EN" "http://www.w3.org/Graphics/SVG/1.1/DTD/svg11.dtd">
<svg width="600" height="400" version="1.1" xmlns:xlink="http://www.w3.org/1999/xlink" xmlns="http://www.w3.org/2000/svg">
  <rect x="0" y="0" width="600" height="400" style="fill:rgb(255,255,255);stroke:none;" />
  <polyline points="34.012,352.1162 30.012,352.1162" style="fill:none;stroke:black;stroke-width:1" />
  <polyline points="34.012,328.7131 30.012,328.7131" style="fill:none;stroke:black;stroke-width:1" />
  <polyline points="34.012,305.3101 30.012,305.3101" style="fill:none;stroke:black;stroke-width:1" />
  <polyline points="34.012,258.5041 30.012,258.5041" style="fill:none;stroke:black;stroke-width:1" />
  <polyline points="34.012,235.101 30.012,235.101" style="fill:none;stroke:black;stroke-width:1" />
  <polyline points="34.012,211.698 30.012,211.698" style="fill:none;stroke:black;stroke-width:1" />
  <polyline points="34.012,164.892 30.012,164.892" style="fill:none;stroke:black;stroke-width:1" />
  <polyline points="34.012,141.4889 30.012,141.4889" style="fill:none;stroke:black;stroke-width:1" />
  <polyline points="34.012,118.0859 30.012,118.0859" style="fill:none;stroke:black;stroke-width:1" />
  <polyline points="34.012,71.2798 30.012,71.2798" style="fill:none;stroke:black;stroke-width:1" />
  <polyline points="34.012,47.8768 30.012,47.8768" style="fill:none;stroke:black;stroke-width:1" />
  <text dominant-baseline="middle" text-anchor="end" transform="translate(23.012,281.9071)" font-family="Segoe UI" font-size="12" font-weight="400" fill="black">200</text>
  <text dominant-baseline="middle" text-anchor="end" transform="translate(23.012,188.295)" font-family="Segoe UI" font-size="12" font-weight="400" fill="black">400</text>
  <text dominant-baseline="middle" text-anchor="end" transform="translate(23.012,94.6829)" font-family="Segoe UI" font-size="12" font-weight="400" fill="black">600</text>
  <polyline points="34.012,281.9071 27.012,281.9071" style="fill:none;stroke:black;stroke-width:1" />
  <polyline points="34.012,188.295 27.012,188.295" style="fill:none;stroke:black;stroke-width:1" />
  <polyline points="34.012,94.6829 27.012,94.6829" style="fill:none;stroke:black;stroke-width:1" />
  <text dominant-baseline="hanging" text-anchor="middle" transform="translate(93.3724,381.947)" font-family="Segoe UI" font-size="12" font-weight="400" fill="black">01. September</text>
  <text dominant-baseline="hanging" text-anchor="middle" transform="translate(182.4131,381.947)" font-family="Segoe UI" font-size="12" font-weight="400" fill="black">01. October</text>
  <text dominant-baseline="hanging" text-anchor="middle" transform="translate(274.4217,381.947)" font-family="Segoe UI" font-size="12" font-weight="400" fill="black">01. November</text>
  <text dominant-baseline="hanging" text-anchor="middle" transform="translate(363.4624,381.947)" font-family="Segoe UI" font-size="12" font-weight="400" fill="black">01. December</text>
  <text dominant-baseline="hanging" text-anchor="middle" transform="translate(455.471,381.947)" font-family="Segoe UI" font-size="12" font-weight="400" fill="black">01. January</text>
  <text dominant-baseline="hanging" text-anchor="middle" transform="translate(547.4797,381.947)" font-family="Segoe UI" font-size="12" font-weight="400" fill="black">01. February</text>
  <polyline points="93.3724,370.947 93.3724,377.947" style="fill:none;stroke:black;stroke-width:1" />
  <polyline points="182.4131,370.947 182.4131,377.947" style="fill:none;stroke:black;stroke-width:1" />
  <polyline points="274.4217,370.947 274.4217,377.947" style="fill:none;stroke:black;stroke-width:1" />
  <polyline points="363.4624,370.947 363.4624,377.947" style="fill:none;stroke:black;stroke-width:1" />
  <polyline points="455.471,370.947 455.471,377.947" style="fill:none;stroke:black;stroke-width:1" />
  <polyline points="547.4797,370.947 547.4797,377.947" style="fill:none;stroke:black;stroke-width:1" />
  <polyline points="34.012,361.4774 39.948,357.2648 48.8521,360.0732 51.8201,357.2648 54.7881,359.1371 57.7562,356.7968 60.7242,357.2648 69.6283,357.7329 72.5963,361.4774 75.5643,361.9454 78.5323,361.0093 81.5003,361.0093 90.4044,364.2857 93.3724,365.6899 96.3404,365.6899 99.3085,364.7538 102.2765,365.2219 111.1806,365.2219 114.1486,367.5622 117.1166,366.158 120.0846,363.3496 123.0526,361.4774 131.9567,356.7968 134.9247,353.5204 137.8927,348.8398 140.8608,348.3717 143.8288,346.9675 152.7329,351.1801 155.7009,352.1162 158.6689,351.6481 161.6369,349.7759 164.6049,347.4356 173.509,336.2021 176.477,337.6063 179.445,338.0744 182.4131,331.0534 185.3811,324.5006 194.2851,317.0116 197.2532,323.5645 200.2212,317.4797 203.1892,310.9268 206.1572,309.0546 215.0613,295.0128 218.0293,305.7782 220.9973,300.1615 223.9654,287.5238 226.9334,269.2695 235.8374,245.8664 238.8055,247.2706 241.7735,244.4622 244.7415,222.9315 247.7095,218.7189 256.6136,155.5307 259.5816,172.849 262.5496,172.849 265.5177,167.7003 268.4857,139.6167 277.3897,148.5098 280.3578,195.3159 283.3258,185.0186 286.2938,171.4448 289.2618,165.8281 298.1659,134.468 301.1339,153.6585 304.1019,140.0847 310.038,113.8734 318.942,108.2566 321.9101,134.468 324.8781,141.4889 327.8461,112.0011 330.8141,134.9361 339.7182,156.4669 342.6862,173.7851 345.6542,167.7003 348.6223,182.2102 351.5903,160.2113 360.4943,132.5958 363.4624,148.0418 366.4304,171.9129 369.3984,163.4878 372.3664,175.6573 381.2705,117.1498 384.2385,141.957 387.2065,155.5307 390.1746,132.1277 393.1426,117.1498 402.0466,70.3437 405.0147,99.8315 407.9827,111.065 410.9507,95.1509 413.9187,69.8757 422.8228,33.835 425.7908,61.4506 428.7588,84.8536 443.5989,32.4308 446.567,57.7061 449.535,76.4285 452.503,56.77 464.3751,57.238 467.3431,82.5133 470.3111,118.0859 473.2791,126.0429 476.2472,98.8954 488.1193,150.8501 491.0873,174.7212 494.0553,164.4239 497.0233,190.6353 505.9274,206.0813 508.8954,233.2288 511.8634,240.2497 514.8314,238.3775 517.7995,234.1649 526.7035,233.6969 532.6396,244.4622 535.6076,224.8037 538.5756,212.1661 547.4797,214.0383 550.4477,235.5691 553.4157,254.2915 556.3837,245.3984 559.3518,245.3984 568.2558,262.2485 571.2239,274.4181 574.1919,267.3972 577.1599,253.3554 580.1279,239.3136 589.032,249.6109 592,284.2474" style="fill:none;stroke:rgb(31,119,180);stroke-width:2;stroke-linejoin:bevel" />
  <text dominant-baseline="hanging" text-anchor="middle" transform="translate(313.006,8)" font-family="Segoe UI" font-size="18" font-weight="700" fill="black">Aktive Fälle Stadt Aachen 16.02.2021</text>
  <polygon points="34.012,29.0795 592,29.0795 592,370.947 34.012,370.947" style="fill:none;stroke:black;stroke-width:1" />
  <polygon points="42.012,37.0795 228.483,37.0795 228.483,63.1325 42.012,63.1325" style="fill:none;stroke:none;" />
  <text dominant-baseline="hanging" text-anchor="start" transform="translate(70.012,45.0795)" font-family="Segoe UI" font-size="12" font-weight="400" fill="black">Aktive Fälle Stadt Aachen 16.02.2021</text>
  <polyline points="50.012,50.106 66.012,50.106" style="fill:none;stroke:rgb(31,119,180);stroke-width:2" />
</svg>