<?xml version="1.0" encoding="utf-8" standalone="no"?>
<!DOCTYPE svg PUBLIC "-//W3C//DTD SVG 1.1//EN" "http://www.w3.org/Graphics/SVG/1.1/DTD/svg11.dtd">
<svg width="600" height="400" version="1.1" xmlns:xlink="http://www.w3.org/1999/xlink" xmlns="http://www.w3.org/2000/svg">
  <rect x="0" y="0" width="600" height="400" style="fill:rgb(255,255,255);stroke:none;" />
  <polyline points="34.012,352.1162 30.012,352.1162" style="fill:none;stroke:black;stroke-width:1" />
  <polyline points="34.012,328.7131 30.012,328.7131" style="fill:none;stroke:black;stroke-width:1" />
  <polyline points="34.012,305.3101 30.012,305.3101" style="fill:none;stroke:black;stroke-width:1" />
  <polyline points="34.012,258.5041 30.012,258.5041" style="fill:none;stroke:black;stroke-width:1" />
  <polyline points="34.012,235.101 30.012,235.101" style="fill:none;stroke:black;stroke-width:1" />
  <polyline points="34.012,211.698 30.012,211.698" style="fill:none;stroke:black;stroke-width:1" />
  <polyline points="34.012,164.892 30.012,164.892" style="fill:none;stroke:black;stroke-width:1" />
  <polyline points="34.012,141.4889 30.012,141.4889" style="fill:none;stroke:black;stroke-width:1" />
  <polyline points="34.012,118.0859 30.012,118.0859" style="fill:none;stroke:black;stroke-width:1" />
  <polyline points="34.012,71.2798 30.012,71.2798" style="fill:none;stroke:black;stroke-width:1" />
  <polyline points="34.012,47.8768 30.012,47.8768" style="fill:none;stroke:black;stroke-width:1" />
  <text dominant-baseline="middle" text-anchor="end" transform="translate(23.012,281.9071)" font-family="Segoe UI" font-size="12" font-weight="400" fill="black">200</text>
  <text dominant-baseline="middle" text-anchor="end" transform="translate(23.012,188.295)" font-family="Segoe UI" font-size="12" font-weight="400" fill="black">400</text>
  <text dominant-baseline="middle" text-anchor="end" transform="translate(23.012,94.6829)" font-family="Segoe UI" font-size="12" font-weight="400" fill="black">600</text>
  <polyline points="34.012,281.9071 27.012,281.9071" style="fill:none;stroke:black;stroke-width:1" />
  <polyline points="34.012,188.295 27.012,188.295" style="fill:none;stroke:black;stroke-width:1" />
  <polyline points="34.012,94.6829 27.012,94.6829" style="fill:none;stroke:black;stroke-width:1" />
  <text dominant-baseline="hanging" text-anchor="middle" transform="translate(113.7246,381.947)" font-family="Segoe UI" font-size="12" font-weight="400" fill="black">01. September</text>
  <text dominant-baseline="hanging" text-anchor="middle" transform="translate(233.2934,381.947)" font-family="Segoe UI" font-size="12" font-weight="400" fill="black">01. October</text>
  <text dominant-baseline="hanging" text-anchor="middle" transform="translate(356.8479,381.947)" font-family="Segoe UI" font-size="12" font-weight="400" fill="black">01. November</text>
  <text dominant-baseline="hanging" text-anchor="middle" transform="translate(476.4168,381.947)" font-family="Segoe UI" font-size="12" font-weight="400" fill="black">01. December</text>
  <polyline points="113.7246,370.947 113.7246,377.947" style="fill:none;stroke:black;stroke-width:1" />
  <polyline points="233.2934,370.947 233.2934,377.947" style="fill:none;stroke:black;stroke-width:1" />
  <polyline points="356.8479,370.947 356.8479,377.947" style="fill:none;stroke:black;stroke-width:1" />
  <polyline points="476.4168,370.947 476.4168,377.947" style="fill:none;stroke:black;stroke-width:1" />
  <polyline points="34.012,361.4774 41.9833,357.2648 53.9401,360.0732 57.9258,357.2648 61.9114,359.1371 65.897,356.7968 69.8827,357.2648 81.8395,357.7329 85.8252,361.4774 89.8108,361.9454 93.7964,361.0093 97.7821,361.0093 109.7389,364.2857 113.7246,365.6899 117.7102,365.6899 121.6958,364.7538 125.6815,365.2219 137.6383,365.2219 141.624,367.5622 145.6096,366.158 149.5952,363.3496 153.5809,361.4774 165.5377,356.7968 169.5234,353.5204 173.509,348.8398 177.4946,348.3717 181.4803,346.9675 193.4371,351.1801 197.4228,352.1162 201.4084,351.6481 205.394,349.7759 209.3797,347.4356 221.3365,336.2021 225.3222,337.6063 229.3078,338.0744 233.2934,331.0534 237.2791,324.5006 249.2359,317.0116 253.2216,323.5645 257.2072,317.4797 261.1928,310.9268 265.1785,309.0546 277.1353,295.0128 281.121,305.7782 285.1066,300.1615 289.0922,287.5238 293.0779,269.2695 305.0347,245.8664 309.0204,247.2706 313.006,244.4622 316.9916,222.9315 320.9773,218.7189 332.9341,155.5307 336.9198,172.849 340.9054,172.849 344.891,167.7003 348.8767,139.6167 360.8335,148.5098 364.8192,195.3159 368.8048,185.0186 372.7904,171.4448 376.7761,165.8281 388.7329,134.468 392.7186,153.6585 396.7042,140.0847 404.6755,113.8734 416.6323,108.2566 420.618,134.468 424.6036,141.4889 428.5892,112.0011 432.5749,134.9361 444.5317,156.4669 448.5174,173.7851 452.503,167.7003 456.4886,182.2102 460.4743,160.2113 472.4311,132.5958 476.4168,148.0418 480.4024,171.9129 484.388,163.4878 488.3737,175.6573 500.3305,117.1498 504.3162,141.957 508.3018,155.5307 512.2874,132.1277 516.2731,117.1498 528.2299,70.3437 532.2156,99.8315 536.2012,111.065 540.1868,95.1509 544.1725,69.8757 556.1293,33.835 560.115,61.4506 564.1006,84.8536 584.0287,32.4308 588.0144,57.7061 592,76.4285" style="fill:none;stroke:rgb(31,119,180);stroke-width:2;stroke-linejoin:bevel" />
  <text dominant-baseline="hanging" text-anchor="middle" transform="translate(313.006,8)" font-family="Segoe UI" font-size="18" font-weight="700" fill="black">Aktive Fälle Stadt Aachen 30.12.2020</text>
  <polygon points="34.012,29.0795 592,29.0795 592,370.947 34.012,370.947" style="fill:none;stroke:black;stroke-width:1" />
  <polygon points="42.012,37.0795 228.483,37.0795 228.483,63.1325 42.012,63.1325" style="fill:none;stroke:none;" />
  <text dominant-baseline="hanging" text-anchor="start" transform="translate(70.012,45.0795)" font-family="Segoe UI" font-size="12" font-weight="400" fill="black">Aktive Fälle Stadt Aachen 30.12.2020</text>
  <polyline points="50.012,50.106 66.012,50.106" style="fill:none;stroke:rgb(31,119,180);stroke-width:2" />
</svg>