<?xml version="1.0" encoding="utf-8" standalone="no"?>
<!DOCTYPE svg PUBLIC "-//W3C//DTD SVG 1.1//EN" "http://www.w3.org/Graphics/SVG/1.1/DTD/svg11.dtd">
<svg width="600" height="400" version="1.1" xmlns:xlink="http://www.w3.org/1999/xlink" xmlns="http://www.w3.org/2000/svg">
  <rect x="0" y="0" width="600" height="400" style="fill:rgb(255,255,255);stroke:none;" />
  <polyline points="34.012,375.4863 30.012,375.4863" style="fill:none;stroke:black;stroke-width:1" />
  <polyline points="34.012,361.9574 30.012,361.9574" style="fill:none;stroke:black;stroke-width:1" />
  <polyline points="34.012,348.4286 30.012,348.4286" style="fill:none;stroke:black;stroke-width:1" />
  <polyline points="34.012,334.8997 30.012,334.8997" style="fill:none;stroke:black;stroke-width:1" />
  <polyline points="34.012,307.8419 30.012,307.8419" style="fill:none;stroke:black;stroke-width:1" />
  <polyline points="34.012,294.3131 30.012,294.3131" style="fill:none;stroke:black;stroke-width:1" />
  <polyline points="34.012,280.7842 30.012,280.7842" style="fill:none;stroke:black;stroke-width:1" />
  <polyline points="34.012,267.2553 30.012,267.2553" style="fill:none;stroke:black;stroke-width:1" />
  <polyline points="34.012,240.1976 30.012,240.1976" style="fill:none;stroke:black;stroke-width:1" />
  <polyline points="34.012,226.6687 30.012,226.6687" style="fill:none;stroke:black;stroke-width:1" />
  <polyline points="34.012,213.1398 30.012,213.1398" style="fill:none;stroke:black;stroke-width:1" />
  <polyline points="34.012,199.611 30.012,199.611" style="fill:none;stroke:black;stroke-width:1" />
  <polyline points="34.012,172.5532 30.012,172.5532" style="fill:none;stroke:black;stroke-width:1" />
  <polyline points="34.012,159.0243 30.012,159.0243" style="fill:none;stroke:black;stroke-width:1" />
  <polyline points="34.012,145.4955 30.012,145.4955" style="fill:none;stroke:black;stroke-width:1" />
  <polyline points="34.012,131.9666 30.012,131.9666" style="fill:none;stroke:black;stroke-width:1" />
  <polyline points="34.012,104.9088 30.012,104.9088" style="fill:none;stroke:black;stroke-width:1" />
  <polyline points="34.012,91.38 30.012,91.38" style="fill:none;stroke:black;stroke-width:1" />
  <polyline points="34.012,77.8511 30.012,77.8511" style="fill:none;stroke:black;stroke-width:1" />
  <polyline points="34.012,64.3222 30.012,64.3222" style="fill:none;stroke:black;stroke-width:1" />
  <polyline points="34.012,37.2645 30.012,37.2645" style="fill:none;stroke:black;stroke-width:1" />
  <text dominant-baseline="middle" text-anchor="end" transform="translate(23.012,321.3708)" font-family="Segoe UI" font-size="12" font-weight="400" fill="black">100</text>
  <text dominant-baseline="middle" text-anchor="end" transform="translate(23.012,253.7264)" font-family="Segoe UI" font-size="12" font-weight="400" fill="black">200</text>
  <text dominant-baseline="middle" text-anchor="end" transform="translate(23.012,186.0821)" font-family="Segoe UI" font-size="12" font-weight="400" fill="black">300</text>
  <text dominant-baseline="middle" text-anchor="end" transform="translate(23.012,118.4377)" font-family="Segoe UI" font-size="12" font-weight="400" fill="black">400</text>
  <text dominant-baseline="middle" text-anchor="end" transform="translate(23.012,50.7933)" font-family="Segoe UI" font-size="12" font-weight="400" fill="black">500</text>
  <polyline points="34.012,321.3708 27.012,321.3708" style="fill:none;stroke:black;stroke-width:1" />
  <polyline points="34.012,253.7264 27.012,253.7264" style="fill:none;stroke:black;stroke-width:1" />
  <polyline points="34.012,186.0821 27.012,186.0821" style="fill:none;stroke:black;stroke-width:1" />
  <polyline points="34.012,118.4377 27.012,118.4377" style="fill:none;stroke:black;stroke-width:1" />
  <polyline points="34.012,50.7933 27.012,50.7933" style="fill:none;stroke:black;stroke-width:1" />
  <polyline points="34.012,32.5294 591.9312,368.7219 591.9327,362.6339 591.935,366.6925 591.9357,362.6339 591.9365,365.3397 591.9372,361.9574 591.9402,363.3103 591.941,368.7219 591.9433,368.0454 591.9455,372.7805 591.9463,374.8099 591.9508,374.1334 591.9516,377.5156 591.9524,375.4863 591.9531,371.4276 591.9539,368.7219 591.9561,361.9574 591.9569,357.2223 591.9576,350.4579 591.9584,349.7814 591.9592,347.7521 591.9614,353.8401 591.9629,354.5166 591.9637,351.8108 591.9645,348.4286 591.9667,332.1939 591.9675,334.2232 591.9682,334.8997 591.969,324.753 591.9697,315.2828 591.972,304.4597 591.9728,313.9299 591.9735,305.1362 591.9743,295.666 591.975,292.9602 591.9773,272.6669 591.9781,288.2251 591.9788,280.1077 591.9796,261.8438 591.9803,235.4625 591.9826,201.6403 591.9834,203.6696 591.9841,199.611 591.9849,168.4945 591.9856,162.4065 591.9879,71.0867 591.9887,96.1151 591.9894,96.1151 591.9902,88.6742 591.9909,48.0876 591.9932,60.94 591.9939,128.5844 591.9947,113.7026 591.9955,94.0857 591.9962,85.9684 591.9985,40.6467 591.9992,68.3809 592,48.764" style="fill:none;stroke:rgb(31,119,180);stroke-width:2;stroke-linejoin:bevel" />
  <text dominant-baseline="hanging" text-anchor="middle" transform="translate(313.006,8)" font-family="Segoe UI" font-size="18" font-weight="700" fill="black">Aktive Fälle Stadt Aachen 11.11.2020</text>
  <polygon points="34.012,29.0795 592,29.0795 592,381 34.012,381" style="fill:none;stroke:black;stroke-width:1" />
  <polygon points="42.012,37.0795 228.483,37.0795 228.483,63.1325 42.012,63.1325" style="fill:none;stroke:none;" />
  <text dominant-baseline="hanging" text-anchor="start" transform="translate(70.012,45.0795)" font-family="Segoe UI" font-size="12" font-weight="400" fill="black">Aktive Fälle Stadt Aachen 11.11.2020</text>
  <polyline points="50.012,50.106 66.012,50.106" style="fill:none;stroke:rgb(31,119,180);stroke-width:2" />
</svg>