<?xml version="1.0" encoding="utf-8" standalone="no"?>
<!DOCTYPE svg PUBLIC "-//W3C//DTD SVG 1.1//EN" "http://www.w3.org/Graphics/SVG/1.1/DTD/svg11.dtd">
<svg width="600" height="400" version="1.1" xmlns:xlink="http://www.w3.org/1999/xlink" xmlns="http://www.w3.org/2000/svg">
  <rect x="0" y="0" width="600" height="400" style="fill:rgb(255,255,255);stroke:none;" />
  <polyline points="34.012,365.5433 30.012,365.5433" style="fill:none;stroke:black;stroke-width:1" />
  <polyline points="34.012,352.0842 30.012,352.0842" style="fill:none;stroke:black;stroke-width:1" />
  <polyline points="34.012,338.6251 30.012,338.6251" style="fill:none;stroke:black;stroke-width:1" />
  <polyline points="34.012,325.166 30.012,325.166" style="fill:none;stroke:black;stroke-width:1" />
  <polyline points="34.012,298.2479 30.012,298.2479" style="fill:none;stroke:black;stroke-width:1" />
  <polyline points="34.012,284.7888 30.012,284.7888" style="fill:none;stroke:black;stroke-width:1" />
  <polyline points="34.012,271.3297 30.012,271.3297" style="fill:none;stroke:black;stroke-width:1" />
  <polyline points="34.012,257.8706 30.012,257.8706" style="fill:none;stroke:black;stroke-width:1" />
  <polyline points="34.012,230.9524 30.012,230.9524" style="fill:none;stroke:black;stroke-width:1" />
  <polyline points="34.012,217.4933 30.012,217.4933" style="fill:none;stroke:black;stroke-width:1" />
  <polyline points="34.012,204.0342 30.012,204.0342" style="fill:none;stroke:black;stroke-width:1" />
  <polyline points="34.012,190.5751 30.012,190.5751" style="fill:none;stroke:black;stroke-width:1" />
  <polyline points="34.012,163.6569 30.012,163.6569" style="fill:none;stroke:black;stroke-width:1" />
  <polyline points="34.012,150.1979 30.012,150.1979" style="fill:none;stroke:black;stroke-width:1" />
  <polyline points="34.012,136.7388 30.012,136.7388" style="fill:none;stroke:black;stroke-width:1" />
  <polyline points="34.012,123.2797 30.012,123.2797" style="fill:none;stroke:black;stroke-width:1" />
  <polyline points="34.012,96.3615 30.012,96.3615" style="fill:none;stroke:black;stroke-width:1" />
  <polyline points="34.012,82.9024 30.012,82.9024" style="fill:none;stroke:black;stroke-width:1" />
  <polyline points="34.012,69.4433 30.012,69.4433" style="fill:none;stroke:black;stroke-width:1" />
  <polyline points="34.012,55.9842 30.012,55.9842" style="fill:none;stroke:black;stroke-width:1" />
  <polyline points="34.012,29.0795 30.012,29.0795" style="fill:none;stroke:black;stroke-width:1" />
  <text dominant-baseline="middle" text-anchor="end" transform="translate(23.012,311.7069)" font-family="Segoe UI" font-size="12" font-weight="400" fill="black">100</text>
  <text dominant-baseline="middle" text-anchor="end" transform="translate(23.012,244.4115)" font-family="Segoe UI" font-size="12" font-weight="400" fill="black">200</text>
  <text dominant-baseline="middle" text-anchor="end" transform="translate(23.012,177.116)" font-family="Segoe UI" font-size="12" font-weight="400" fill="black">300</text>
  <text dominant-baseline="middle" text-anchor="end" transform="translate(23.012,109.8206)" font-family="Segoe UI" font-size="12" font-weight="400" fill="black">400</text>
  <text dominant-baseline="middle" text-anchor="end" transform="translate(23.012,42.5251)" font-family="Segoe UI" font-size="12" font-weight="400" fill="black">500</text>
  <polyline points="34.012,311.7069 27.012,311.7069" style="fill:none;stroke:black;stroke-width:1" />
  <polyline points="34.012,244.4115 27.012,244.4115" style="fill:none;stroke:black;stroke-width:1" />
  <polyline points="34.012,177.116 27.012,177.116" style="fill:none;stroke:black;stroke-width:1" />
  <polyline points="34.012,109.8206 27.012,109.8206" style="fill:none;stroke:black;stroke-width:1" />
  <polyline points="34.012,42.5251 27.012,42.5251" style="fill:none;stroke:black;stroke-width:1" />
  <text dominant-baseline="hanging" text-anchor="middle" transform="translate(52.6116,381.947)" font-family="Segoe UI" font-size="12" font-weight="400" fill="black">15. August</text>
  <text dominant-baseline="hanging" text-anchor="middle" transform="translate(139.4097,381.947)" font-family="Segoe UI" font-size="12" font-weight="400" fill="black">29. August</text>
  <text dominant-baseline="hanging" text-anchor="middle" transform="translate(226.2079,381.947)" font-family="Segoe UI" font-size="12" font-weight="400" fill="black">12. September</text>
  <text dominant-baseline="hanging" text-anchor="middle" transform="translate(313.006,381.947)" font-family="Segoe UI" font-size="12" font-weight="400" fill="black">26. September</text>
  <text dominant-baseline="hanging" text-anchor="middle" transform="translate(399.8041,381.947)" font-family="Segoe UI" font-size="12" font-weight="400" fill="black">10. October</text>
  <text dominant-baseline="hanging" text-anchor="middle" transform="translate(486.6023,381.947)" font-family="Segoe UI" font-size="12" font-weight="400" fill="black">24. October</text>
  <text dominant-baseline="hanging" text-anchor="middle" transform="translate(573.4004,381.947)" font-family="Segoe UI" font-size="12" font-weight="400" fill="black">07. November</text>
  <polyline points="52.6116,370.947 52.6116,377.947" style="fill:none;stroke:black;stroke-width:1" />
  <polyline points="139.4097,370.947 139.4097,377.947" style="fill:none;stroke:black;stroke-width:1" />
  <polyline points="226.2079,370.947 226.2079,377.947" style="fill:none;stroke:black;stroke-width:1" />
  <polyline points="313.006,370.947 313.006,377.947" style="fill:none;stroke:black;stroke-width:1" />
  <polyline points="399.8041,370.947 399.8041,377.947" style="fill:none;stroke:black;stroke-width:1" />
  <polyline points="486.6023,370.947 486.6023,377.947" style="fill:none;stroke:black;stroke-width:1" />
  <polyline points="573.4004,370.947 573.4004,377.947" style="fill:none;stroke:black;stroke-width:1" />
  <polyline points="34.012,358.8138 46.4117,352.7572 65.0113,356.7949 71.2112,352.7572 77.4111,355.449 83.6109,352.0842 89.8108,352.7572 108.4104,353.4301 114.6103,358.8138 120.8101,359.4867 127.01,358.1408 133.2099,358.1408 151.8095,362.8515 158.0093,364.8704 164.2092,364.8704 170.4091,363.5244 176.6089,364.1974 195.2085,364.1974 201.4084,367.5622 207.6083,365.5433 213.8081,361.5056 220.008,358.8138 238.6076,352.0842 244.8075,347.3735 251.0073,340.644 257.2072,339.971 263.4071,337.9522 282.0067,344.0088 288.2065,345.3547 294.4064,344.6817 300.6063,341.9899 306.8061,338.6251 325.4057,322.4742 331.6056,324.4931 337.8055,325.166 344.0053,315.0717 350.2052,305.6504 368.8048,294.8831 375.0047,304.3044 381.2045,295.556 387.4044,286.1347 393.6043,283.4429 412.2039,263.2542 418.4037,278.7322 424.6036,270.6567 430.8035,252.4869 437.0033,226.2417 455.6029,192.594 461.8028,194.6129 468.0027,190.5751 474.2025,159.6192 480.4024,153.5626 499.002,62.7138 505.2019,87.6131 511.4017,87.6131 517.6016,80.2106 523.8015,39.8333 542.4011,52.6194 548.6009,119.9149 554.8008,105.1099 561.0007,85.5942 567.2005,77.5188 585.8001,32.4308 592,60.0219" style="fill:none;stroke:rgb(31,119,180);stroke-width:2;stroke-linejoin:bevel" />
  <text dominant-baseline="hanging" text-anchor="middle" transform="translate(313.006,8)" font-family="Segoe UI" font-size="18" font-weight="700" fill="black">Aktive Fälle Stadt Aachen 10.11.2020</text>
  <polygon points="34.012,29.0795 592,29.0795 592,370.947 34.012,370.947" style="fill:none;stroke:black;stroke-width:1" />
  <polygon points="42.012,37.0795 228.483,37.0795 228.483,63.1325 42.012,63.1325" style="fill:none;stroke:none;" />
  <text dominant-baseline="hanging" text-anchor="start" transform="translate(70.012,45.0795)" font-family="Segoe UI" font-size="12" font-weight="400" fill="black">Aktive Fälle Stadt Aachen 10.11.2020</text>
  <polyline points="50.012,50.106 66.012,50.106" style="fill:none;stroke:rgb(31,119,180);stroke-width:2" />
</svg>