<?xml version="1.0" encoding="utf-8" standalone="no"?>
<!DOCTYPE svg PUBLIC "-//W3C//DTD SVG 1.1//EN" "http://www.w3.org/Graphics/SVG/1.1/DTD/svg11.dtd">
<svg width="600" height="400" version="1.1" xmlns:xlink="http://www.w3.org/1999/xlink" xmlns="http://www.w3.org/2000/svg">
  <rect x="0" y="0" width="600" height="400" style="fill:rgb(255,255,255);stroke:none;" />
  <polyline points="34.012,352.1162 30.012,352.1162" style="fill:none;stroke:black;stroke-width:1" />
  <polyline points="34.012,328.7131 30.012,328.7131" style="fill:none;stroke:black;stroke-width:1" />
  <polyline points="34.012,305.3101 30.012,305.3101" style="fill:none;stroke:black;stroke-width:1" />
  <polyline points="34.012,258.5041 30.012,258.5041" style="fill:none;stroke:black;stroke-width:1" />
  <polyline points="34.012,235.101 30.012,235.101" style="fill:none;stroke:black;stroke-width:1" />
  <polyline points="34.012,211.698 30.012,211.698" style="fill:none;stroke:black;stroke-width:1" />
  <polyline points="34.012,164.892 30.012,164.892" style="fill:none;stroke:black;stroke-width:1" />
  <polyline points="34.012,141.4889 30.012,141.4889" style="fill:none;stroke:black;stroke-width:1" />
  <polyline points="34.012,118.0859 30.012,118.0859" style="fill:none;stroke:black;stroke-width:1" />
  <polyline points="34.012,71.2798 30.012,71.2798" style="fill:none;stroke:black;stroke-width:1" />
  <polyline points="34.012,47.8768 30.012,47.8768" style="fill:none;stroke:black;stroke-width:1" />
  <text dominant-baseline="middle" text-anchor="end" transform="translate(23.012,281.9071)" font-family="Segoe UI" font-size="12" font-weight="400" fill="black">200</text>
  <text dominant-baseline="middle" text-anchor="end" transform="translate(23.012,188.295)" font-family="Segoe UI" font-size="12" font-weight="400" fill="black">400</text>
  <text dominant-baseline="middle" text-anchor="end" transform="translate(23.012,94.6829)" font-family="Segoe UI" font-size="12" font-weight="400" fill="black">600</text>
  <polyline points="34.012,281.9071 27.012,281.9071" style="fill:none;stroke:black;stroke-width:1" />
  <polyline points="34.012,188.295 27.012,188.295" style="fill:none;stroke:black;stroke-width:1" />
  <polyline points="34.012,94.6829 27.012,94.6829" style="fill:none;stroke:black;stroke-width:1" />
  <text dominant-baseline="hanging" text-anchor="middle" transform="translate(84.2812,381.947)" font-family="Segoe UI" font-size="12" font-weight="400" fill="black">01. September</text>
  <text dominant-baseline="hanging" text-anchor="middle" transform="translate(159.685,381.947)" font-family="Segoe UI" font-size="12" font-weight="400" fill="black">01. October</text>
  <text dominant-baseline="hanging" text-anchor="middle" transform="translate(237.6022,381.947)" font-family="Segoe UI" font-size="12" font-weight="400" fill="black">01. November</text>
  <text dominant-baseline="hanging" text-anchor="middle" transform="translate(313.006,381.947)" font-family="Segoe UI" font-size="12" font-weight="400" fill="black">01. December</text>
  <text dominant-baseline="hanging" text-anchor="middle" transform="translate(390.9232,381.947)" font-family="Segoe UI" font-size="12" font-weight="400" fill="black">01. January</text>
  <text dominant-baseline="hanging" text-anchor="middle" transform="translate(468.8405,381.947)" font-family="Segoe UI" font-size="12" font-weight="400" fill="black">01. February</text>
  <text dominant-baseline="hanging" text-anchor="middle" transform="translate(539.2174,381.947)" font-family="Segoe UI" font-size="12" font-weight="400" fill="black">01. March</text>
  <polyline points="84.2812,370.947 84.2812,377.947" style="fill:none;stroke:black;stroke-width:1" />
  <polyline points="159.685,370.947 159.685,377.947" style="fill:none;stroke:black;stroke-width:1" />
  <polyline points="237.6022,370.947 237.6022,377.947" style="fill:none;stroke:black;stroke-width:1" />
  <polyline points="313.006,370.947 313.006,377.947" style="fill:none;stroke:black;stroke-width:1" />
  <polyline points="390.9232,370.947 390.9232,377.947" style="fill:none;stroke:black;stroke-width:1" />
  <polyline points="468.8405,370.947 468.8405,377.947" style="fill:none;stroke:black;stroke-width:1" />
  <polyline points="539.2174,370.947 539.2174,377.947" style="fill:none;stroke:black;stroke-width:1" />
  <polyline points="34.012,361.4774 39.0389,357.2648 46.5793,360.0732 49.0928,357.2648 51.6062,359.1371 54.1197,356.7968 56.6331,357.2648 64.1735,357.7329 66.687,361.4774 69.2004,361.9454 71.7139,361.0093 74.2274,361.0093 81.7677,364.2857 84.2812,365.6899 86.7946,365.6899 89.3081,364.7538 91.8216,365.2219 99.3619,365.2219 101.8754,367.5622 104.3889,366.158 106.9023,363.3496 109.4158,361.4774 116.9562,356.7968 119.4696,353.5204 121.9831,348.8398 124.4965,348.3717 127.01,346.9675 134.5504,351.1801 137.0638,352.1162 139.5773,351.6481 142.0908,349.7759 144.6042,347.4356 152.1446,336.2021 154.6581,337.6063 157.1715,338.0744 159.685,331.0534 162.1984,324.5006 169.7388,317.0116 172.2523,323.5645 174.7657,317.4797 177.2792,310.9268 179.7926,309.0546 187.333,295.0128 189.8465,305.7782 192.3599,300.1615 194.8734,287.5238 197.3869,269.2695 204.9272,245.8664 207.4407,247.2706 209.9542,244.4622 212.4676,222.9315 214.9811,218.7189 222.5215,155.5307 225.0349,172.849 227.5484,172.849 230.0618,167.7003 232.5753,139.6167 240.1157,148.5098 242.6291,195.3159 245.1426,185.0186 247.6561,171.4448 250.1695,165.8281 257.7099,134.468 260.2234,153.6585 262.7368,140.0847 267.7637,113.8734 275.3041,108.2566 277.8176,134.468 280.331,141.4889 282.8445,112.0011 285.3579,134.9361 292.8983,156.4669 295.4118,173.7851 297.9252,167.7003 300.4387,182.2102 302.9522,160.2113 310.4925,132.5958 313.006,148.0418 315.5195,171.9129 318.0329,163.4878 320.5464,175.6573 328.0868,117.1498 330.6002,141.957 333.1137,155.5307 335.6271,132.1277 338.1406,117.1498 345.681,70.3437 348.1944,99.8315 350.7079,111.065 353.2214,95.1509 355.7348,69.8757 363.2752,33.835 365.7886,61.4506 368.3021,84.8536 380.8694,32.4308 383.3829,57.7061 385.8963,76.4285 388.4098,56.77 398.4636,57.238 400.9771,82.5133 403.4905,118.0859 406.004,126.0429 408.5175,98.8954 418.5713,150.8501 421.0848,174.7212 423.5982,164.4239 426.1117,190.6353 433.6521,206.0813 436.1655,233.2288 438.679,240.2497 441.1924,238.3775 443.7059,234.1649 451.2463,233.6969 456.2732,244.4622 458.7866,224.8037 461.3001,212.1661 468.8405,214.0383 471.3539,235.5691 473.8674,254.2915 476.3809,245.3984 478.8943,245.3984 486.4347,262.2485 488.9482,274.4181 491.4616,267.3972 493.9751,253.3554 496.4885,239.3136 504.0289,249.6109 506.5424,284.2474 509.0558,282.3752 511.5693,272.5459 514.0828,293.6086 521.6231,302.5018 524.1366,310.9268 526.6501,305.3101 529.1635,303.4379 531.677,305.7782 539.2174,308.1185 541.7308,319.82 544.2443,311.863 546.7577,286.5877 549.2712,285.1835 556.8116,265.993 559.325,265.993 561.8385,258.5041 564.3519,246.8025 566.8654,232.2927 574.4058,222.4634 576.9192,223.8676 579.4327,224.8037 581.9462,195.3159 584.4596,175.1893 592,150.3821" style="fill:none;stroke:rgb(31,119,180);stroke-width:2;stroke-linejoin:bevel" />
  <text dominant-baseline="hanging" text-anchor="middle" transform="translate(313.006,8)" font-family="Segoe UI" font-size="18" font-weight="700" fill="black">Aktive Fälle Stadt Aachen 22.03.2021</text>
  <polygon points="34.012,29.0795 592,29.0795 592,370.947 34.012,370.947" style="fill:none;stroke:black;stroke-width:1" />
  <polygon points="42.012,37.0795 228.483,37.0795 228.483,63.1325 42.012,63.1325" style="fill:none;stroke:none;" />
  <text dominant-baseline="hanging" text-anchor="start" transform="translate(70.012,45.0795)" font-family="Segoe UI" font-size="12" font-weight="400" fill="black">Aktive Fälle Stadt Aachen 22.03.2021</text>
  <polyline points="50.012,50.106 66.012,50.106" style="fill:none;stroke:rgb(31,119,180);stroke-width:2" />
</svg>