<?xml version="1.0" encoding="utf-8" standalone="no"?>
<!DOCTYPE svg PUBLIC "-//W3C//DTD SVG 1.1//EN" "http://www.w3.org/Graphics/SVG/1.1/DTD/svg11.dtd">
<svg width="600" height="400" version="1.1" xmlns:xlink="http://www.w3.org/1999/xlink" xmlns="http://www.w3.org/2000/svg">
  <rect x="0" y="0" width="600" height="400" style="fill:rgb(255,255,255);stroke:none;" />
  <polyline points="34.012,352.1162 30.012,352.1162" style="fill:none;stroke:black;stroke-width:1" />
  <polyline points="34.012,328.7131 30.012,328.7131" style="fill:none;stroke:black;stroke-width:1" />
  <polyline points="34.012,305.3101 30.012,305.3101" style="fill:none;stroke:black;stroke-width:1" />
  <polyline points="34.012,258.5041 30.012,258.5041" style="fill:none;stroke:black;stroke-width:1" />
  <polyline points="34.012,235.101 30.012,235.101" style="fill:none;stroke:black;stroke-width:1" />
  <polyline points="34.012,211.698 30.012,211.698" style="fill:none;stroke:black;stroke-width:1" />
  <polyline points="34.012,164.892 30.012,164.892" style="fill:none;stroke:black;stroke-width:1" />
  <polyline points="34.012,141.4889 30.012,141.4889" style="fill:none;stroke:black;stroke-width:1" />
  <polyline points="34.012,118.0859 30.012,118.0859" style="fill:none;stroke:black;stroke-width:1" />
  <polyline points="34.012,71.2798 30.012,71.2798" style="fill:none;stroke:black;stroke-width:1" />
  <polyline points="34.012,47.8768 30.012,47.8768" style="fill:none;stroke:black;stroke-width:1" />
  <text dominant-baseline="middle" text-anchor="end" transform="translate(23.012,281.9071)" font-family="Segoe UI" font-size="12" font-weight="400" fill="black">200</text>
  <text dominant-baseline="middle" text-anchor="end" transform="translate(23.012,188.295)" font-family="Segoe UI" font-size="12" font-weight="400" fill="black">400</text>
  <text dominant-baseline="middle" text-anchor="end" transform="translate(23.012,94.6829)" font-family="Segoe UI" font-size="12" font-weight="400" fill="black">600</text>
  <polyline points="34.012,281.9071 27.012,281.9071" style="fill:none;stroke:black;stroke-width:1" />
  <polyline points="34.012,188.295 27.012,188.295" style="fill:none;stroke:black;stroke-width:1" />
  <polyline points="34.012,94.6829 27.012,94.6829" style="fill:none;stroke:black;stroke-width:1" />
  <text dominant-baseline="hanging" text-anchor="middle" transform="translate(80.511,381.947)" font-family="Segoe UI" font-size="12" font-weight="400" fill="black">01. September</text>
  <text dominant-baseline="hanging" text-anchor="middle" transform="translate(150.2595,381.947)" font-family="Segoe UI" font-size="12" font-weight="400" fill="black">01. October</text>
  <text dominant-baseline="hanging" text-anchor="middle" transform="translate(222.3329,381.947)" font-family="Segoe UI" font-size="12" font-weight="400" fill="black">01. November</text>
  <text dominant-baseline="hanging" text-anchor="middle" transform="translate(292.0814,381.947)" font-family="Segoe UI" font-size="12" font-weight="400" fill="black">01. December</text>
  <text dominant-baseline="hanging" text-anchor="middle" transform="translate(364.1549,381.947)" font-family="Segoe UI" font-size="12" font-weight="400" fill="black">01. January</text>
  <text dominant-baseline="hanging" text-anchor="middle" transform="translate(436.2283,381.947)" font-family="Segoe UI" font-size="12" font-weight="400" fill="black">01. February</text>
  <text dominant-baseline="hanging" text-anchor="middle" transform="translate(501.3269,381.947)" font-family="Segoe UI" font-size="12" font-weight="400" fill="black">01. March</text>
  <text dominant-baseline="hanging" text-anchor="middle" transform="translate(573.4004,381.947)" font-family="Segoe UI" font-size="12" font-weight="400" fill="black">01. April</text>
  <polyline points="80.511,370.947 80.511,377.947" style="fill:none;stroke:black;stroke-width:1" />
  <polyline points="150.2595,370.947 150.2595,377.947" style="fill:none;stroke:black;stroke-width:1" />
  <polyline points="222.3329,370.947 222.3329,377.947" style="fill:none;stroke:black;stroke-width:1" />
  <polyline points="292.0814,370.947 292.0814,377.947" style="fill:none;stroke:black;stroke-width:1" />
  <polyline points="364.1549,370.947 364.1549,377.947" style="fill:none;stroke:black;stroke-width:1" />
  <polyline points="436.2283,370.947 436.2283,377.947" style="fill:none;stroke:black;stroke-width:1" />
  <polyline points="501.3269,370.947 501.3269,377.947" style="fill:none;stroke:black;stroke-width:1" />
  <polyline points="573.4004,370.947 573.4004,377.947" style="fill:none;stroke:black;stroke-width:1" />
  <polyline points="34.012,361.4774 38.6619,357.2648 45.6367,360.0732 47.9617,357.2648 50.2866,359.1371 52.6116,356.7968 54.9365,357.2648 61.9114,357.7329 64.2363,361.4774 66.5613,361.9454 68.8862,361.0093 71.2112,361.0093 78.186,364.2857 80.511,365.6899 82.8359,365.6899 85.1609,364.7538 87.4858,365.2219 94.4607,365.2219 96.7856,367.5622 99.1106,366.158 101.4355,363.3496 103.7605,361.4774 110.7353,356.7968 113.0603,353.5204 115.3852,348.8398 117.7102,348.3717 120.0351,346.9675 127.01,351.1801 129.3349,352.1162 131.6599,351.6481 133.9848,349.7759 136.3098,347.4356 143.2846,336.2021 145.6096,337.6063 147.9345,338.0744 150.2595,331.0534 152.5844,324.5006 159.5593,317.0116 161.8842,323.5645 164.2092,317.4797 166.5341,310.9268 168.8591,309.0546 175.8339,295.0128 178.1589,305.7782 180.4838,300.1615 182.8088,287.5238 185.1337,269.2695 192.1086,245.8664 194.4335,247.2706 196.7585,244.4622 199.0834,222.9315 201.4084,218.7189 208.3832,155.5307 210.7082,172.849 213.0331,172.849 215.3581,167.7003 217.683,139.6167 224.6579,148.5098 226.9828,195.3159 229.3078,185.0186 231.6327,171.4448 233.9577,165.8281 240.9325,134.468 243.2575,153.6585 245.5824,140.0847 250.2323,113.8734 257.2072,108.2566 259.5321,134.468 261.8571,141.4889 264.182,112.0011 266.507,134.9361 273.4818,156.4669 275.8068,173.7851 278.1317,167.7003 280.4567,182.2102 282.7816,160.2113 289.7565,132.5958 292.0814,148.0418 294.4064,171.9129 296.7313,163.4878 299.0563,175.6573 306.0311,117.1498 308.3561,141.957 310.681,155.5307 313.006,132.1277 315.3309,117.1498 322.3058,70.3437 324.6307,99.8315 326.9557,111.065 329.2806,95.1509 331.6056,69.8757 338.5804,33.835 340.9054,61.4506 343.2303,84.8536 354.8551,32.4308 357.18,57.7061 359.505,76.4285 361.8299,56.77 371.1297,57.238 373.4547,82.5133 375.7796,118.0859 378.1046,126.0429 380.4295,98.8954 389.7293,150.8501 392.0543,174.7212 394.3792,164.4239 396.7042,190.6353 403.679,206.0813 406.004,233.2288 408.3289,240.2497 410.6539,238.3775 412.9788,234.1649 419.9537,233.6969 424.6036,244.4622 426.9285,224.8037 429.2535,212.1661 436.2283,214.0383 438.5533,235.5691 440.8782,254.2915 443.2032,245.3984 445.5281,245.3984 452.503,262.2485 454.8279,274.4181 457.1529,267.3972 459.4778,253.3554 461.8028,239.3136 468.7776,249.6109 471.1026,284.2474 473.4275,282.3752 475.7525,272.5459 478.0774,293.6086 485.0523,302.5018 487.3772,310.9268 489.7022,305.3101 492.0271,303.4379 494.3521,305.7782 501.3269,308.1185 503.6519,319.82 505.9768,311.863 508.3018,286.5877 510.6267,285.1835 517.6016,265.993 519.9265,265.993 522.2515,258.5041 524.5764,246.8025 526.9014,232.2927 533.8762,222.4634 536.2012,223.8676 538.5261,224.8037 540.8511,195.3159 543.176,175.1893 550.1509,150.3821 552.4758,150.8501 554.8008,152.7224 557.1257,120.4262 559.4507,114.3414 566.4255,110.1289 568.7505,143.3612 571.0754,149.914 573.4004,138.6806 575.7253,104.5121 585.0251,83.4494 587.3501,87.1939 589.675,53.0255 592,45.5365" style="fill:none;stroke:rgb(31,119,180);stroke-width:2;stroke-linejoin:bevel" />
  <text dominant-baseline="hanging" text-anchor="middle" transform="translate(313.006,8)" font-family="Segoe UI" font-size="18" font-weight="700" fill="black">Aktive Fälle Stadt Aachen 09.04.2021</text>
  <polygon points="34.012,29.0795 592,29.0795 592,370.947 34.012,370.947" style="fill:none;stroke:black;stroke-width:1" />
  <polygon points="42.012,37.0795 228.483,37.0795 228.483,63.1325 42.012,63.1325" style="fill:none;stroke:none;" />
  <text dominant-baseline="hanging" text-anchor="start" transform="translate(70.012,45.0795)" font-family="Segoe UI" font-size="12" font-weight="400" fill="black">Aktive Fälle Stadt Aachen 09.04.2021</text>
  <polyline points="50.012,50.106 66.012,50.106" style="fill:none;stroke:rgb(31,119,180);stroke-width:2" />
</svg>