<?xml version="1.0" encoding="utf-8" standalone="no"?>
<!DOCTYPE svg PUBLIC "-//W3C//DTD SVG 1.1//EN" "http://www.w3.org/Graphics/SVG/1.1/DTD/svg11.dtd">
<svg width="600" height="400" version="1.1" xmlns:xlink="http://www.w3.org/1999/xlink" xmlns="http://www.w3.org/2000/svg">
  <rect x="0" y="0" width="600" height="400" style="fill:rgb(255,255,255);stroke:none;" />
  <polyline points="39.016,357.0495 35.016,357.0495" style="fill:none;stroke:black;stroke-width:1" />
  <polyline points="39.016,341.1212 35.016,341.1212" style="fill:none;stroke:black;stroke-width:1" />
  <polyline points="39.016,325.1929 35.016,325.1929" style="fill:none;stroke:black;stroke-width:1" />
  <polyline points="39.016,293.3363 35.016,293.3363" style="fill:none;stroke:black;stroke-width:1" />
  <polyline points="39.016,277.408 35.016,277.408" style="fill:none;stroke:black;stroke-width:1" />
  <polyline points="39.016,261.4797 35.016,261.4797" style="fill:none;stroke:black;stroke-width:1" />
  <polyline points="39.016,229.6231 35.016,229.6231" style="fill:none;stroke:black;stroke-width:1" />
  <polyline points="39.016,213.6948 35.016,213.6948" style="fill:none;stroke:black;stroke-width:1" />
  <polyline points="39.016,197.7665 35.016,197.7665" style="fill:none;stroke:black;stroke-width:1" />
  <polyline points="39.016,165.9099 35.016,165.9099" style="fill:none;stroke:black;stroke-width:1" />
  <polyline points="39.016,149.9816 35.016,149.9816" style="fill:none;stroke:black;stroke-width:1" />
  <polyline points="39.016,134.0533 35.016,134.0533" style="fill:none;stroke:black;stroke-width:1" />
  <polyline points="39.016,102.1968 35.016,102.1968" style="fill:none;stroke:black;stroke-width:1" />
  <polyline points="39.016,86.2685 35.016,86.2685" style="fill:none;stroke:black;stroke-width:1" />
  <polyline points="39.016,70.3402 35.016,70.3402" style="fill:none;stroke:black;stroke-width:1" />
  <polyline points="39.016,38.4836 35.016,38.4836" style="fill:none;stroke:black;stroke-width:1" />
  <polyline points="75.1587,370.947 75.1587,374.947" style="fill:none;stroke:black;stroke-width:1" />
  <polyline points="185.3941,370.947 185.3941,374.947" style="fill:none;stroke:black;stroke-width:1" />
  <polyline points="295.6295,370.947 295.6295,374.947" style="fill:none;stroke:black;stroke-width:1" />
  <polyline points="402.2506,370.947 402.2506,374.947" style="fill:none;stroke:black;stroke-width:1" />
  <polyline points="512.486,370.947 512.486,374.947" style="fill:none;stroke:black;stroke-width:1" />
  <text dominant-baseline="middle" text-anchor="end" transform="translate(28.016,309.2646)" font-family="Segoe UI" font-size="12" font-weight="400" fill="black">200</text>
  <text dominant-baseline="middle" text-anchor="end" transform="translate(28.016,245.5514)" font-family="Segoe UI" font-size="12" font-weight="400" fill="black">400</text>
  <text dominant-baseline="middle" text-anchor="end" transform="translate(28.016,181.8382)" font-family="Segoe UI" font-size="12" font-weight="400" fill="black">600</text>
  <text dominant-baseline="middle" text-anchor="end" transform="translate(28.016,118.125)" font-family="Segoe UI" font-size="12" font-weight="400" fill="black">800</text>
  <text dominant-baseline="middle" text-anchor="end" transform="translate(28.016,54.4119)" font-family="Segoe UI" font-size="12" font-weight="400" fill="black">1000</text>
  <polyline points="39.016,309.2646 32.016,309.2646" style="fill:none;stroke:black;stroke-width:1" />
  <polyline points="39.016,245.5514 32.016,245.5514" style="fill:none;stroke:black;stroke-width:1" />
  <polyline points="39.016,181.8382 32.016,181.8382" style="fill:none;stroke:black;stroke-width:1" />
  <polyline points="39.016,118.125 32.016,118.125" style="fill:none;stroke:black;stroke-width:1" />
  <polyline points="39.016,54.4119 32.016,54.4119" style="fill:none;stroke:black;stroke-width:1" />
  <text dominant-baseline="hanging" text-anchor="middle" transform="translate(129.3729,381.947)" font-family="Segoe UI" font-size="12" font-weight="400" fill="black">01. October</text>
  <text dominant-baseline="hanging" text-anchor="middle" transform="translate(239.6082,381.947)" font-family="Segoe UI" font-size="12" font-weight="400" fill="black">01. December</text>
  <text dominant-baseline="hanging" text-anchor="middle" transform="translate(351.6507,381.947)" font-family="Segoe UI" font-size="12" font-weight="400" fill="black">01. February</text>
  <text dominant-baseline="hanging" text-anchor="middle" transform="translate(458.2718,381.947)" font-family="Segoe UI" font-size="12" font-weight="400" fill="black">01. April</text>
  <text dominant-baseline="hanging" text-anchor="middle" transform="translate(568.5072,381.947)" font-family="Segoe UI" font-size="12" font-weight="400" fill="black">01. June</text>
  <polyline points="129.3729,370.947 129.3729,377.947" style="fill:none;stroke:black;stroke-width:1" />
  <polyline points="239.6082,370.947 239.6082,377.947" style="fill:none;stroke:black;stroke-width:1" />
  <polyline points="351.6507,370.947 351.6507,377.947" style="fill:none;stroke:black;stroke-width:1" />
  <polyline points="458.2718,370.947 458.2718,377.947" style="fill:none;stroke:black;stroke-width:1" />
  <polyline points="568.5072,370.947 568.5072,377.947" style="fill:none;stroke:black;stroke-width:1" />
  <polyline points="39.016,363.4208 42.6303,360.5537 48.0517,362.4651 49.8588,360.5537 51.666,361.828 53.4731,360.2352 55.2802,360.5537 60.7016,360.8723 62.5088,363.4208 64.3159,363.7394 66.1231,363.1023 67.9302,363.1023 73.3516,365.3322 75.1587,366.2879 76.9659,366.2879 78.773,365.6508 80.5802,365.9693 86.0016,365.9693 87.8087,367.5622 89.6158,366.6065 91.423,364.6951 93.2301,363.4208 98.6515,360.2352 100.4587,358.0052 102.2658,354.8195 104.0729,354.501 105.8801,353.5453 111.3015,356.4124 113.1086,357.0495 114.9158,356.7309 116.7229,355.4567 118.53,353.8638 123.9515,346.2183 125.7586,347.174 127.5657,347.4925 129.3729,342.714 131.18,338.2541 136.6014,333.1571 138.4085,337.617 140.2157,333.4756 142.0228,329.0157 143.83,327.7414 149.2514,318.1845 151.0585,325.5115 152.8656,321.6887 154.6728,313.0874 156.4799,300.6633 161.9013,284.735 163.7085,285.6907 165.5156,283.7793 167.3227,269.1253 169.1299,266.2582 174.5513,223.2518 176.3584,235.0387 178.1656,235.0387 179.9727,231.5345 181.7798,212.4206 187.2013,218.4733 189.0084,250.3299 190.8155,243.3215 192.6227,234.083 194.4298,230.2603 199.8512,208.9163 201.6584,221.9775 203.4655,212.7391 207.0798,194.8994 212.5012,191.0766 214.3083,208.9163 216.1155,213.6948 217.9226,193.6252 219.7297,209.2349 225.1511,223.8889 226.9583,235.6759 228.7654,231.5345 230.5725,241.4101 232.3797,226.4375 237.8011,207.6421 239.6082,218.1548 241.4154,234.4016 243.2225,228.6674 245.0296,236.9501 250.4511,197.1294 252.2582,214.0134 254.0653,223.2518 255.8725,207.3235 257.6796,197.1294 263.101,165.2728 264.9082,185.3425 266.7153,192.988 268.5224,182.1568 270.3296,164.9542 275.751,140.4247 277.5581,159.2201 279.3653,175.1484 288.4009,139.469 290.2081,156.6715 292.0152,169.4142 293.8224,156.0344 301.0509,156.353 302.858,173.5555 304.6652,197.7665 306.4723,203.1822 308.2795,184.7053 315.508,220.0661 317.3151,236.313 319.1223,229.3046 320.9294,247.1443 326.3508,257.6569 328.158,276.1338 329.9651,280.9122 331.7722,279.638 333.5794,276.7709 339.0008,276.4523 342.6151,283.7793 344.4222,270.3996 346.2293,261.7983 351.6507,263.0725 353.4579,277.7266 355.265,290.4692 357.0722,284.4165 358.8793,284.4165 364.3007,295.8848 366.1078,304.1676 367.915,299.3891 369.7221,289.8321 371.5293,280.2751 376.9507,287.2836 378.7578,310.8574 380.5649,309.5832 382.3721,302.8933 384.1792,317.2288 389.6006,323.2815 391.4078,329.0157 393.2149,325.1929 395.022,323.9186 396.8292,325.5115 402.2506,327.1043 404.0577,335.0684 405.8649,329.6528 407.672,312.4503 409.4791,311.4946 414.9005,298.4334 416.7077,298.4334 418.5148,293.3363 420.322,285.3722 422.1291,275.4966 427.5505,268.8067 429.3576,269.7624 431.1648,270.3996 432.9719,250.3299 434.7791,236.6316 440.2005,219.7476 442.0076,220.0661 443.8147,221.3404 445.6219,199.3594 447.429,195.218 452.8504,192.3509 454.6576,214.9691 456.4647,219.429 458.2718,211.7834 460.079,188.5281 467.3075,174.1927 469.1147,176.7412 470.9218,153.4859 472.7289,148.3888 478.1504,142.6546 479.9575,144.2475 481.7646,126.7263 483.5718,113.6651 485.3789,116.2137 490.8003,99.9668 492.6075,95.1883 494.4146,72.8887 496.2217,44.5363 498.0289,32.4308 503.4503,42.3064 505.2574,49.3148 507.0645,66.1988 508.8717,77.6672 510.6788,71.2959 516.1002,109.8423 517.9074,105.701 519.7145,125.7706 521.5216,134.6905 523.3288,148.3888 528.7502,149.0259 530.5573,175.7855 532.3645,170.6884 535.9787,185.3425 541.4002,171.9627 543.2073,185.661 545.0144,186.2982 546.8216,180.564 548.6287,185.0239 555.8573,213.3763 557.6644,232.8088 559.4715,239.8172 561.2787,234.7202 566.7001,261.4797 568.5072,282.1865 570.3144,289.195 573.9286,301.9376 579.35,310.5389 581.1572,317.8659 582.9643,328.6971 584.7715,332.5199 586.5786,337.2984 592,338.5727" style="fill:none;stroke:rgb(31,119,180);stroke-width:2;stroke-linejoin:bevel" />
  <text dominant-baseline="hanging" text-anchor="middle" transform="translate(315.508,8)" font-family="Segoe UI" font-size="18" font-weight="700" fill="black">Aktive Fälle Stadt Aachen 14.06.2021</text>
  <polygon points="39.016,29.0795 592,29.0795 592,370.947 39.016,370.947" style="fill:none;stroke:black;stroke-width:1" />
  <polygon points="47.016,37.0795 233.487,37.0795 233.487,63.1325 47.016,63.1325" style="fill:none;stroke:none;" />
  <text dominant-baseline="hanging" text-anchor="start" transform="translate(75.016,45.0795)" font-family="Segoe UI" font-size="12" font-weight="400" fill="black">Aktive Fälle Stadt Aachen 14.06.2021</text>
  <polyline points="55.016,50.106 71.016,50.106" style="fill:none;stroke:rgb(31,119,180);stroke-width:2" />
</svg>