<?xml version="1.0" encoding="utf-8" standalone="no"?>
<!DOCTYPE svg PUBLIC "-//W3C//DTD SVG 1.1//EN" "http://www.w3.org/Graphics/SVG/1.1/DTD/svg11.dtd">
<svg width="600" height="400" version="1.1" xmlns:xlink="http://www.w3.org/1999/xlink" xmlns="http://www.w3.org/2000/svg">
  <rect x="0" y="0" width="600" height="400" style="fill:rgb(255,255,255);stroke:none;" />
  <polyline points="39.016,357.0495 35.016,357.0495" style="fill:none;stroke:black;stroke-width:1" />
  <polyline points="39.016,341.1212 35.016,341.1212" style="fill:none;stroke:black;stroke-width:1" />
  <polyline points="39.016,325.1929 35.016,325.1929" style="fill:none;stroke:black;stroke-width:1" />
  <polyline points="39.016,293.3363 35.016,293.3363" style="fill:none;stroke:black;stroke-width:1" />
  <polyline points="39.016,277.408 35.016,277.408" style="fill:none;stroke:black;stroke-width:1" />
  <polyline points="39.016,261.4797 35.016,261.4797" style="fill:none;stroke:black;stroke-width:1" />
  <polyline points="39.016,229.6231 35.016,229.6231" style="fill:none;stroke:black;stroke-width:1" />
  <polyline points="39.016,213.6948 35.016,213.6948" style="fill:none;stroke:black;stroke-width:1" />
  <polyline points="39.016,197.7665 35.016,197.7665" style="fill:none;stroke:black;stroke-width:1" />
  <polyline points="39.016,165.9099 35.016,165.9099" style="fill:none;stroke:black;stroke-width:1" />
  <polyline points="39.016,149.9816 35.016,149.9816" style="fill:none;stroke:black;stroke-width:1" />
  <polyline points="39.016,134.0533 35.016,134.0533" style="fill:none;stroke:black;stroke-width:1" />
  <polyline points="39.016,102.1968 35.016,102.1968" style="fill:none;stroke:black;stroke-width:1" />
  <polyline points="39.016,86.2685 35.016,86.2685" style="fill:none;stroke:black;stroke-width:1" />
  <polyline points="39.016,70.3402 35.016,70.3402" style="fill:none;stroke:black;stroke-width:1" />
  <polyline points="39.016,38.4836 35.016,38.4836" style="fill:none;stroke:black;stroke-width:1" />
  <text dominant-baseline="middle" text-anchor="end" transform="translate(28.016,309.2646)" font-family="Segoe UI" font-size="12" font-weight="400" fill="black">200</text>
  <text dominant-baseline="middle" text-anchor="end" transform="translate(28.016,245.5514)" font-family="Segoe UI" font-size="12" font-weight="400" fill="black">400</text>
  <text dominant-baseline="middle" text-anchor="end" transform="translate(28.016,181.8382)" font-family="Segoe UI" font-size="12" font-weight="400" fill="black">600</text>
  <text dominant-baseline="middle" text-anchor="end" transform="translate(28.016,118.125)" font-family="Segoe UI" font-size="12" font-weight="400" fill="black">800</text>
  <text dominant-baseline="middle" text-anchor="end" transform="translate(28.016,54.4119)" font-family="Segoe UI" font-size="12" font-weight="400" fill="black">1000</text>
  <polyline points="39.016,309.2646 32.016,309.2646" style="fill:none;stroke:black;stroke-width:1" />
  <polyline points="39.016,245.5514 32.016,245.5514" style="fill:none;stroke:black;stroke-width:1" />
  <polyline points="39.016,181.8382 32.016,181.8382" style="fill:none;stroke:black;stroke-width:1" />
  <polyline points="39.016,118.125 32.016,118.125" style="fill:none;stroke:black;stroke-width:1" />
  <polyline points="39.016,54.4119 32.016,54.4119" style="fill:none;stroke:black;stroke-width:1" />
  <text dominant-baseline="hanging" text-anchor="middle" transform="translate(78.6564,381.947)" font-family="Segoe UI" font-size="12" font-weight="400" fill="black">01. September</text>
  <text dominant-baseline="hanging" text-anchor="middle" transform="translate(138.1171,381.947)" font-family="Segoe UI" font-size="12" font-weight="400" fill="black">01. October</text>
  <text dominant-baseline="hanging" text-anchor="middle" transform="translate(199.5597,381.947)" font-family="Segoe UI" font-size="12" font-weight="400" fill="black">01. November</text>
  <text dominant-baseline="hanging" text-anchor="middle" transform="translate(259.0204,381.947)" font-family="Segoe UI" font-size="12" font-weight="400" fill="black">01. December</text>
  <text dominant-baseline="hanging" text-anchor="middle" transform="translate(320.4631,381.947)" font-family="Segoe UI" font-size="12" font-weight="400" fill="black">01. January</text>
  <text dominant-baseline="hanging" text-anchor="middle" transform="translate(381.9057,381.947)" font-family="Segoe UI" font-size="12" font-weight="400" fill="black">01. February</text>
  <text dominant-baseline="hanging" text-anchor="middle" transform="translate(437.4023,381.947)" font-family="Segoe UI" font-size="12" font-weight="400" fill="black">01. March</text>
  <text dominant-baseline="hanging" text-anchor="middle" transform="translate(498.845,381.947)" font-family="Segoe UI" font-size="12" font-weight="400" fill="black">01. April</text>
  <text dominant-baseline="hanging" text-anchor="middle" transform="translate(558.3056,381.947)" font-family="Segoe UI" font-size="12" font-weight="400" fill="black">01. May</text>
  <polyline points="78.6564,370.947 78.6564,377.947" style="fill:none;stroke:black;stroke-width:1" />
  <polyline points="138.1171,370.947 138.1171,377.947" style="fill:none;stroke:black;stroke-width:1" />
  <polyline points="199.5597,370.947 199.5597,377.947" style="fill:none;stroke:black;stroke-width:1" />
  <polyline points="259.0204,370.947 259.0204,377.947" style="fill:none;stroke:black;stroke-width:1" />
  <polyline points="320.4631,370.947 320.4631,377.947" style="fill:none;stroke:black;stroke-width:1" />
  <polyline points="381.9057,370.947 381.9057,377.947" style="fill:none;stroke:black;stroke-width:1" />
  <polyline points="437.4023,370.947 437.4023,377.947" style="fill:none;stroke:black;stroke-width:1" />
  <polyline points="498.845,370.947 498.845,377.947" style="fill:none;stroke:black;stroke-width:1" />
  <polyline points="558.3056,370.947 558.3056,377.947" style="fill:none;stroke:black;stroke-width:1" />
  <polyline points="39.016,363.4208 42.98,360.5537 48.9261,362.4651 50.9081,360.5537 52.8902,361.828 54.8722,360.2352 56.8542,360.5537 62.8003,360.8723 64.7823,363.4208 66.7643,363.7394 68.7463,363.1023 70.7283,363.1023 76.6744,365.3322 78.6564,366.2879 80.6385,366.2879 82.6205,365.6508 84.6025,365.9693 90.5486,365.9693 92.5306,367.5622 94.5126,366.6065 96.4946,364.6951 98.4766,363.4208 104.4227,360.2352 106.4047,358.0052 108.3868,354.8195 110.3688,354.501 112.3508,353.5453 118.2969,356.4124 120.2789,357.0495 122.2609,356.7309 124.2429,355.4567 126.2249,353.8638 132.171,346.2183 134.153,347.174 136.1351,347.4925 138.1171,342.714 140.0991,338.2541 146.0452,333.1571 148.0272,337.617 150.0092,333.4756 151.9912,329.0157 153.9732,327.7414 159.9193,318.1845 161.9013,325.5115 163.8834,321.6887 165.8654,313.0874 167.8474,300.6633 173.7935,284.735 175.7755,285.6907 177.7575,283.7793 179.7395,269.1253 181.7215,266.2582 187.6676,223.2518 189.6496,235.0387 191.6317,235.0387 193.6137,231.5345 195.5957,212.4206 201.5418,218.4733 203.5238,250.3299 205.5058,243.3215 207.4878,234.083 209.4698,230.2603 215.4159,208.9163 217.3979,221.9775 219.38,212.7391 223.344,194.8994 229.2901,191.0766 231.2721,208.9163 233.2541,213.6948 235.2361,193.6252 237.2182,209.2349 243.1642,223.8889 245.1462,235.6759 247.1283,231.5345 249.1103,241.4101 251.0923,226.4375 257.0384,207.6421 259.0204,218.1548 261.0024,234.4016 262.9844,228.6674 264.9665,236.9501 270.9125,197.1294 272.8945,214.0134 274.8766,223.2518 276.8586,207.3235 278.8406,197.1294 284.7867,165.2728 286.7687,185.3425 288.7507,192.988 290.7327,182.1568 292.7148,164.9542 298.6608,140.4247 300.6428,159.2201 302.6249,175.1484 312.535,139.469 314.517,156.6715 316.499,169.4142 318.481,156.0344 326.4091,156.353 328.3911,173.5555 330.3732,197.7665 332.3552,203.1822 334.3372,184.7053 342.2653,220.0661 344.2473,236.313 346.2293,229.3046 348.2114,247.1443 354.1574,257.6569 356.1394,276.1338 358.1215,280.9122 360.1035,279.638 362.0855,276.7709 368.0316,276.4523 371.9956,283.7793 373.9776,270.3996 375.9597,261.7983 381.9057,263.0725 383.8877,277.7266 385.8698,290.4692 387.8518,284.4165 389.8338,284.4165 395.7799,295.8848 397.7619,304.1676 399.7439,299.3891 401.7259,289.8321 403.708,280.2751 409.654,287.2836 411.636,310.8574 413.6181,309.5832 415.6001,302.8933 417.5821,317.2288 423.5282,323.2815 425.5102,329.0157 427.4922,325.1929 429.4742,323.9186 431.4563,325.5115 437.4023,327.1043 439.3843,335.0684 441.3664,329.6528 443.3484,312.4503 445.3304,311.4946 451.2765,298.4334 453.2585,298.4334 455.2405,293.3363 457.2225,285.3722 459.2046,275.4966 465.1506,268.8067 467.1326,269.7624 469.1147,270.3996 471.0967,250.3299 473.0787,236.6316 479.0248,219.7476 481.0068,220.0661 482.9888,221.3404 484.9708,199.3594 486.9529,195.218 492.8989,192.3509 494.8809,214.9691 496.863,219.429 498.845,211.7834 500.827,188.5281 508.7551,174.1927 510.7371,176.7412 512.7191,153.4859 514.7012,148.3888 520.6472,142.6546 522.6292,144.2475 524.6113,126.7263 526.5933,113.6651 528.5753,116.2137 534.5214,99.9668 536.5034,95.1883 538.4854,72.8887 540.4674,44.5363 542.4495,32.4308 548.3955,42.3064 550.3775,49.3148 552.3596,66.1988 554.3416,77.6672 556.3236,71.2959 562.2697,109.8423 564.2517,105.701 566.2337,125.7706 568.2157,134.6905 570.1978,148.3888 576.1438,149.0259 578.1258,175.7855 580.1079,170.6884 584.0719,185.3425 590.018,171.9627 592,185.661" style="fill:none;stroke:rgb(31,119,180);stroke-width:2;stroke-linejoin:bevel" />
  <text dominant-baseline="hanging" text-anchor="middle" transform="translate(315.508,8)" font-family="Segoe UI" font-size="18" font-weight="700" fill="black">Aktive Fälle Stadt Aachen 18.05.2021</text>
  <polygon points="39.016,29.0795 592,29.0795 592,370.947 39.016,370.947" style="fill:none;stroke:black;stroke-width:1" />
  <polygon points="47.016,37.0795 233.487,37.0795 233.487,63.1325 47.016,63.1325" style="fill:none;stroke:none;" />
  <text dominant-baseline="hanging" text-anchor="start" transform="translate(75.016,45.0795)" font-family="Segoe UI" font-size="12" font-weight="400" fill="black">Aktive Fälle Stadt Aachen 18.05.2021</text>
  <polyline points="55.016,50.106 71.016,50.106" style="fill:none;stroke:rgb(31,119,180);stroke-width:2" />
</svg>