<?xml version="1.0" encoding="utf-8" standalone="no"?>
<!DOCTYPE svg PUBLIC "-//W3C//DTD SVG 1.1//EN" "http://www.w3.org/Graphics/SVG/1.1/DTD/svg11.dtd">
<svg width="600" height="400" version="1.1" xmlns:xlink="http://www.w3.org/1999/xlink" xmlns="http://www.w3.org/2000/svg">
  <rect x="0" y="0" width="600" height="400" style="fill:rgb(255,255,255);stroke:none;" />
  <polyline points="34.012,352.1162 30.012,352.1162" style="fill:none;stroke:black;stroke-width:1" />
  <polyline points="34.012,328.7131 30.012,328.7131" style="fill:none;stroke:black;stroke-width:1" />
  <polyline points="34.012,305.3101 30.012,305.3101" style="fill:none;stroke:black;stroke-width:1" />
  <polyline points="34.012,258.5041 30.012,258.5041" style="fill:none;stroke:black;stroke-width:1" />
  <polyline points="34.012,235.101 30.012,235.101" style="fill:none;stroke:black;stroke-width:1" />
  <polyline points="34.012,211.698 30.012,211.698" style="fill:none;stroke:black;stroke-width:1" />
  <polyline points="34.012,164.892 30.012,164.892" style="fill:none;stroke:black;stroke-width:1" />
  <polyline points="34.012,141.4889 30.012,141.4889" style="fill:none;stroke:black;stroke-width:1" />
  <polyline points="34.012,118.0859 30.012,118.0859" style="fill:none;stroke:black;stroke-width:1" />
  <polyline points="34.012,71.2798 30.012,71.2798" style="fill:none;stroke:black;stroke-width:1" />
  <polyline points="34.012,47.8768 30.012,47.8768" style="fill:none;stroke:black;stroke-width:1" />
  <text dominant-baseline="middle" text-anchor="end" transform="translate(23.012,281.9071)" font-family="Segoe UI" font-size="12" font-weight="400" fill="black">200</text>
  <text dominant-baseline="middle" text-anchor="end" transform="translate(23.012,188.295)" font-family="Segoe UI" font-size="12" font-weight="400" fill="black">400</text>
  <text dominant-baseline="middle" text-anchor="end" transform="translate(23.012,94.6829)" font-family="Segoe UI" font-size="12" font-weight="400" fill="black">600</text>
  <polyline points="34.012,281.9071 27.012,281.9071" style="fill:none;stroke:black;stroke-width:1" />
  <polyline points="34.012,188.295 27.012,188.295" style="fill:none;stroke:black;stroke-width:1" />
  <polyline points="34.012,94.6829 27.012,94.6829" style="fill:none;stroke:black;stroke-width:1" />
  <text dominant-baseline="hanging" text-anchor="middle" transform="translate(96.0107,381.947)" font-family="Segoe UI" font-size="12" font-weight="400" fill="black">01. September</text>
  <text dominant-baseline="hanging" text-anchor="middle" transform="translate(189.0087,381.947)" font-family="Segoe UI" font-size="12" font-weight="400" fill="black">01. October</text>
  <text dominant-baseline="hanging" text-anchor="middle" transform="translate(285.1066,381.947)" font-family="Segoe UI" font-size="12" font-weight="400" fill="black">01. November</text>
  <text dominant-baseline="hanging" text-anchor="middle" transform="translate(378.1046,381.947)" font-family="Segoe UI" font-size="12" font-weight="400" fill="black">01. December</text>
  <text dominant-baseline="hanging" text-anchor="middle" transform="translate(474.2025,381.947)" font-family="Segoe UI" font-size="12" font-weight="400" fill="black">01. January</text>
  <text dominant-baseline="hanging" text-anchor="middle" transform="translate(570.3005,381.947)" font-family="Segoe UI" font-size="12" font-weight="400" fill="black">01. February</text>
  <polyline points="96.0107,370.947 96.0107,377.947" style="fill:none;stroke:black;stroke-width:1" />
  <polyline points="189.0087,370.947 189.0087,377.947" style="fill:none;stroke:black;stroke-width:1" />
  <polyline points="285.1066,370.947 285.1066,377.947" style="fill:none;stroke:black;stroke-width:1" />
  <polyline points="378.1046,370.947 378.1046,377.947" style="fill:none;stroke:black;stroke-width:1" />
  <polyline points="474.2025,370.947 474.2025,377.947" style="fill:none;stroke:black;stroke-width:1" />
  <polyline points="570.3005,370.947 570.3005,377.947" style="fill:none;stroke:black;stroke-width:1" />
  <polyline points="34.012,361.4774 40.2119,357.2648 49.5117,360.0732 52.6116,357.2648 55.7115,359.1371 58.8115,356.7968 61.9114,357.2648 71.2112,357.7329 74.3111,361.4774 77.4111,361.9454 80.511,361.0093 83.6109,361.0093 92.9107,364.2857 96.0107,365.6899 99.1106,365.6899 102.2105,364.7538 105.3105,365.2219 114.6103,365.2219 117.7102,367.5622 120.8101,366.158 123.9101,363.3496 127.01,361.4774 136.3098,356.7968 139.4097,353.5204 142.5097,348.8398 145.6096,348.3717 148.7095,346.9675 158.0093,351.1801 161.1093,352.1162 164.2092,351.6481 167.3091,349.7759 170.4091,347.4356 179.7089,336.2021 182.8088,337.6063 185.9087,338.0744 189.0087,331.0534 192.1086,324.5006 201.4084,317.0116 204.5083,323.5645 207.6083,317.4797 210.7082,310.9268 213.8081,309.0546 223.1079,295.0128 226.2079,305.7782 229.3078,300.1615 232.4077,287.5238 235.5077,269.2695 244.8075,245.8664 247.9074,247.2706 251.0073,244.4622 254.1073,222.9315 257.2072,218.7189 266.507,155.5307 269.6069,172.849 272.7069,172.849 275.8068,167.7003 278.9067,139.6167 288.2065,148.5098 291.3065,195.3159 294.4064,185.0186 297.5063,171.4448 300.6063,165.8281 309.9061,134.468 313.006,153.6585 316.1059,140.0847 322.3058,113.8734 331.6056,108.2566 334.7055,134.468 337.8055,141.4889 340.9054,112.0011 344.0053,134.9361 353.3051,156.4669 356.4051,173.7851 359.505,167.7003 362.6049,182.2102 365.7049,160.2113 375.0047,132.5958 378.1046,148.0418 381.2045,171.9129 384.3045,163.4878 387.4044,175.6573 396.7042,117.1498 399.8041,141.957 402.9041,155.5307 406.004,132.1277 409.1039,117.1498 418.4037,70.3437 421.5037,99.8315 424.6036,111.065 427.7035,95.1509 430.8035,69.8757 440.1033,33.835 443.2032,61.4506 446.3031,84.8536 461.8028,32.4308 464.9027,57.7061 468.0027,76.4285 471.1026,56.77 483.5023,57.238 486.6023,82.5133 489.7022,118.0859 492.8021,126.0429 495.9021,98.8954 508.3018,150.8501 511.4017,174.7212 514.5017,164.4239 517.6016,190.6353 526.9014,206.0813 530.0013,233.2288 533.1013,240.2497 536.2012,238.3775 539.3011,234.1649 548.6009,233.6969 554.8008,244.4622 557.9007,224.8037 561.0007,212.1661 570.3005,214.0383 573.4004,235.5691 576.5003,254.2915 579.6003,245.3984 582.7002,245.3984 592,262.2485" style="fill:none;stroke:rgb(31,119,180);stroke-width:2;stroke-linejoin:bevel" />
  <text dominant-baseline="hanging" text-anchor="middle" transform="translate(313.006,8)" font-family="Segoe UI" font-size="18" font-weight="700" fill="black">Aktive Fälle Stadt Aachen 08.02.2021</text>
  <polygon points="34.012,29.0795 592,29.0795 592,370.947 34.012,370.947" style="fill:none;stroke:black;stroke-width:1" />
  <polygon points="42.012,37.0795 228.483,37.0795 228.483,63.1325 42.012,63.1325" style="fill:none;stroke:none;" />
  <text dominant-baseline="hanging" text-anchor="start" transform="translate(70.012,45.0795)" font-family="Segoe UI" font-size="12" font-weight="400" fill="black">Aktive Fälle Stadt Aachen 08.02.2021</text>
  <polyline points="50.012,50.106 66.012,50.106" style="fill:none;stroke:rgb(31,119,180);stroke-width:2" />
</svg>