<?xml version="1.0" encoding="utf-8" standalone="no"?>
<!DOCTYPE svg PUBLIC "-//W3C//DTD SVG 1.1//EN" "http://www.w3.org/Graphics/SVG/1.1/DTD/svg11.dtd">
<svg width="600" height="400" version="1.1" xmlns:xlink="http://www.w3.org/1999/xlink" xmlns="http://www.w3.org/2000/svg">
  <rect x="0" y="0" width="600" height="400" style="fill:rgb(255,255,255);stroke:none;" />
  <polyline points="39.016,357.0495 35.016,357.0495" style="fill:none;stroke:black;stroke-width:1" />
  <polyline points="39.016,341.1212 35.016,341.1212" style="fill:none;stroke:black;stroke-width:1" />
  <polyline points="39.016,325.1929 35.016,325.1929" style="fill:none;stroke:black;stroke-width:1" />
  <polyline points="39.016,293.3363 35.016,293.3363" style="fill:none;stroke:black;stroke-width:1" />
  <polyline points="39.016,277.408 35.016,277.408" style="fill:none;stroke:black;stroke-width:1" />
  <polyline points="39.016,261.4797 35.016,261.4797" style="fill:none;stroke:black;stroke-width:1" />
  <polyline points="39.016,229.6231 35.016,229.6231" style="fill:none;stroke:black;stroke-width:1" />
  <polyline points="39.016,213.6948 35.016,213.6948" style="fill:none;stroke:black;stroke-width:1" />
  <polyline points="39.016,197.7665 35.016,197.7665" style="fill:none;stroke:black;stroke-width:1" />
  <polyline points="39.016,165.9099 35.016,165.9099" style="fill:none;stroke:black;stroke-width:1" />
  <polyline points="39.016,149.9816 35.016,149.9816" style="fill:none;stroke:black;stroke-width:1" />
  <polyline points="39.016,134.0533 35.016,134.0533" style="fill:none;stroke:black;stroke-width:1" />
  <polyline points="39.016,102.1968 35.016,102.1968" style="fill:none;stroke:black;stroke-width:1" />
  <polyline points="39.016,86.2685 35.016,86.2685" style="fill:none;stroke:black;stroke-width:1" />
  <polyline points="39.016,70.3402 35.016,70.3402" style="fill:none;stroke:black;stroke-width:1" />
  <polyline points="39.016,38.4836 35.016,38.4836" style="fill:none;stroke:black;stroke-width:1" />
  <polyline points="73.4698,370.947 73.4698,374.947" style="fill:none;stroke:black;stroke-width:1" />
  <polyline points="178.554,370.947 178.554,374.947" style="fill:none;stroke:black;stroke-width:1" />
  <polyline points="283.6382,370.947 283.6382,374.947" style="fill:none;stroke:black;stroke-width:1" />
  <polyline points="385.277,370.947 385.277,374.947" style="fill:none;stroke:black;stroke-width:1" />
  <polyline points="490.3612,370.947 490.3612,374.947" style="fill:none;stroke:black;stroke-width:1" />
  <text dominant-baseline="middle" text-anchor="end" transform="translate(28.016,309.2646)" font-family="Segoe UI" font-size="12" font-weight="400" fill="black">200</text>
  <text dominant-baseline="middle" text-anchor="end" transform="translate(28.016,245.5514)" font-family="Segoe UI" font-size="12" font-weight="400" fill="black">400</text>
  <text dominant-baseline="middle" text-anchor="end" transform="translate(28.016,181.8382)" font-family="Segoe UI" font-size="12" font-weight="400" fill="black">600</text>
  <text dominant-baseline="middle" text-anchor="end" transform="translate(28.016,118.125)" font-family="Segoe UI" font-size="12" font-weight="400" fill="black">800</text>
  <text dominant-baseline="middle" text-anchor="end" transform="translate(28.016,54.4119)" font-family="Segoe UI" font-size="12" font-weight="400" fill="black">1000</text>
  <polyline points="39.016,309.2646 32.016,309.2646" style="fill:none;stroke:black;stroke-width:1" />
  <polyline points="39.016,245.5514 32.016,245.5514" style="fill:none;stroke:black;stroke-width:1" />
  <polyline points="39.016,181.8382 32.016,181.8382" style="fill:none;stroke:black;stroke-width:1" />
  <polyline points="39.016,118.125 32.016,118.125" style="fill:none;stroke:black;stroke-width:1" />
  <polyline points="39.016,54.4119 32.016,54.4119" style="fill:none;stroke:black;stroke-width:1" />
  <text dominant-baseline="hanging" text-anchor="middle" transform="translate(125.1506,381.947)" font-family="Segoe UI" font-size="12" font-weight="400" fill="black">01. October</text>
  <text dominant-baseline="hanging" text-anchor="middle" transform="translate(230.2348,381.947)" font-family="Segoe UI" font-size="12" font-weight="400" fill="black">01. December</text>
  <text dominant-baseline="hanging" text-anchor="middle" transform="translate(337.0416,381.947)" font-family="Segoe UI" font-size="12" font-weight="400" fill="black">01. February</text>
  <text dominant-baseline="hanging" text-anchor="middle" transform="translate(438.6804,381.947)" font-family="Segoe UI" font-size="12" font-weight="400" fill="black">01. April</text>
  <text dominant-baseline="hanging" text-anchor="middle" transform="translate(543.7646,381.947)" font-family="Segoe UI" font-size="12" font-weight="400" fill="black">01. June</text>
  <polyline points="125.1506,370.947 125.1506,377.947" style="fill:none;stroke:black;stroke-width:1" />
  <polyline points="230.2348,370.947 230.2348,377.947" style="fill:none;stroke:black;stroke-width:1" />
  <polyline points="337.0416,370.947 337.0416,377.947" style="fill:none;stroke:black;stroke-width:1" />
  <polyline points="438.6804,370.947 438.6804,377.947" style="fill:none;stroke:black;stroke-width:1" />
  <polyline points="543.7646,370.947 543.7646,377.947" style="fill:none;stroke:black;stroke-width:1" />
  <polyline points="39.016,363.4208 42.4614,360.5537 47.6295,362.4651 49.3521,360.5537 51.0748,361.828 52.7975,360.2352 54.5202,360.5537 59.6883,360.8723 61.411,363.4208 63.1337,363.7394 64.8564,363.1023 66.5791,363.1023 71.7471,365.3322 73.4698,366.2879 75.1925,366.2879 76.9152,365.6508 78.6379,365.9693 83.806,365.9693 85.5287,367.5622 87.2514,366.6065 88.9741,364.6951 90.6967,363.4208 95.8648,360.2352 97.5875,358.0052 99.3102,354.8195 101.0329,354.501 102.7556,353.5453 107.9237,356.4124 109.6464,357.0495 111.369,356.7309 113.0917,355.4567 114.8144,353.8638 119.9825,346.2183 121.7052,347.174 123.4279,347.4925 125.1506,342.714 126.8733,338.2541 132.0413,333.1571 133.764,337.617 135.4867,333.4756 137.2094,329.0157 138.9321,327.7414 144.1002,318.1845 145.8229,325.5115 147.5456,321.6887 149.2683,313.0874 150.991,300.6633 156.159,284.735 157.8817,285.6907 159.6044,283.7793 161.3271,269.1253 163.0498,266.2582 168.2179,223.2518 169.9406,235.0387 171.6633,235.0387 173.3859,231.5345 175.1086,212.4206 180.2767,218.4733 181.9994,250.3299 183.7221,243.3215 185.4448,234.083 187.1675,230.2603 192.3356,208.9163 194.0582,221.9775 195.7809,212.7391 199.2263,194.8994 204.3944,191.0766 206.1171,208.9163 207.8398,213.6948 209.5625,193.6252 211.2852,209.2349 216.4532,223.8889 218.1759,235.6759 219.8986,231.5345 221.6213,241.4101 223.344,226.4375 228.5121,207.6421 230.2348,218.1548 231.9575,234.4016 233.6801,228.6674 235.4028,236.9501 240.5709,197.1294 242.2936,214.0134 244.0163,223.2518 245.739,207.3235 247.4617,197.1294 252.6298,165.2728 254.3524,185.3425 256.0751,192.988 257.7978,182.1568 259.5205,164.9542 264.6886,140.4247 266.4113,159.2201 268.134,175.1484 276.7474,139.469 278.4701,156.6715 280.1928,169.4142 281.9155,156.0344 288.8063,156.353 290.529,173.5555 292.2517,197.7665 293.9744,203.1822 295.697,184.7053 302.5878,220.0661 304.3105,236.313 306.0332,229.3046 307.7559,247.1443 312.924,257.6569 314.6467,276.1338 316.3693,280.9122 318.092,279.638 319.8147,276.7709 324.9828,276.4523 328.4282,283.7793 330.1509,270.3996 331.8736,261.7983 337.0416,263.0725 338.7643,277.7266 340.487,290.4692 342.2097,284.4165 343.9324,284.4165 349.1005,295.8848 350.8232,304.1676 352.5459,299.3891 354.2686,289.8321 355.9913,280.2751 361.1593,287.2836 362.882,310.8574 364.6047,309.5832 366.3274,302.8933 368.0501,317.2288 373.2182,323.2815 374.9409,329.0157 376.6636,325.1929 378.3862,323.9186 380.1089,325.5115 385.277,327.1043 386.9997,335.0684 388.7224,329.6528 390.4451,312.4503 392.1678,311.4946 397.3359,298.4334 399.0585,298.4334 400.7812,293.3363 402.5039,285.3722 404.2266,275.4966 409.3947,268.8067 411.1174,269.7624 412.8401,270.3996 414.5628,250.3299 416.2855,236.6316 421.4535,219.7476 423.1762,220.0661 424.8989,221.3404 426.6216,199.3594 428.3443,195.218 433.5124,192.3509 435.2351,214.9691 436.9578,219.429 438.6804,211.7834 440.4031,188.5281 447.2939,174.1927 449.0166,176.7412 450.7393,153.4859 452.462,148.3888 457.6301,142.6546 459.3527,144.2475 461.0754,126.7263 462.7981,113.6651 464.5208,116.2137 469.6889,99.9668 471.4116,95.1883 473.1343,72.8887 474.857,44.5363 476.5797,32.4308 481.7477,42.3064 483.4704,49.3148 485.1931,66.1988 486.9158,77.6672 488.6385,71.2959 493.8066,109.8423 495.5293,105.701 497.252,125.7706 498.9747,134.6905 500.6973,148.3888 505.8654,149.0259 507.5881,175.7855 509.3108,170.6884 512.7562,185.3425 517.9243,171.9627 519.647,185.661 521.3696,186.2982 523.0923,180.564 524.815,185.0239 531.7058,213.3763 533.4285,232.8088 535.1512,239.8172 536.8739,234.7202 542.0419,261.4797 543.7646,282.1865 545.4873,289.195 548.9327,301.9376 554.1008,310.5389 555.8235,317.8659 557.5462,328.6971 559.2689,332.5199 560.9916,337.2984 566.1596,338.5727 567.8823,337.617 569.605,348.7668 571.3277,348.1297 573.0504,349.7225 578.2185,350.6782 579.9412,351.9524 581.6639,352.5896 583.3865,352.9081 585.1092,352.9081 590.2773,354.1824 592,356.0938" style="fill:none;stroke:rgb(31,119,180);stroke-width:2;stroke-linejoin:bevel" />
  <text dominant-baseline="hanging" text-anchor="middle" transform="translate(315.508,8)" font-family="Segoe UI" font-size="18" font-weight="700" fill="black">Aktive Fälle Stadt Aachen 29.06.2021</text>
  <polygon points="39.016,29.0795 592,29.0795 592,370.947 39.016,370.947" style="fill:none;stroke:black;stroke-width:1" />
  <polygon points="47.016,37.0795 233.487,37.0795 233.487,63.1325 47.016,63.1325" style="fill:none;stroke:none;" />
  <text dominant-baseline="hanging" text-anchor="start" transform="translate(75.016,45.0795)" font-family="Segoe UI" font-size="12" font-weight="400" fill="black">Aktive Fälle Stadt Aachen 29.06.2021</text>
  <polyline points="55.016,50.106 71.016,50.106" style="fill:none;stroke:rgb(31,119,180);stroke-width:2" />
</svg>