<?xml version="1.0" encoding="utf-8" standalone="no"?>
<!DOCTYPE svg PUBLIC "-//W3C//DTD SVG 1.1//EN" "http://www.w3.org/Graphics/SVG/1.1/DTD/svg11.dtd">
<svg width="600" height="400" version="1.1" xmlns:xlink="http://www.w3.org/1999/xlink" xmlns="http://www.w3.org/2000/svg">
  <rect x="0" y="0" width="600" height="400" style="fill:rgb(255,255,255);stroke:none;" />
  <polyline points="34.012,365.4977 30.012,365.4977" style="fill:none;stroke:black;stroke-width:1" />
  <polyline points="34.012,351.7346 30.012,351.7346" style="fill:none;stroke:black;stroke-width:1" />
  <polyline points="34.012,337.9715 30.012,337.9715" style="fill:none;stroke:black;stroke-width:1" />
  <polyline points="34.012,324.2084 30.012,324.2084" style="fill:none;stroke:black;stroke-width:1" />
  <polyline points="34.012,296.6822 30.012,296.6822" style="fill:none;stroke:black;stroke-width:1" />
  <polyline points="34.012,282.9191 30.012,282.9191" style="fill:none;stroke:black;stroke-width:1" />
  <polyline points="34.012,269.156 30.012,269.156" style="fill:none;stroke:black;stroke-width:1" />
  <polyline points="34.012,255.393 30.012,255.393" style="fill:none;stroke:black;stroke-width:1" />
  <polyline points="34.012,227.8668 30.012,227.8668" style="fill:none;stroke:black;stroke-width:1" />
  <polyline points="34.012,214.1037 30.012,214.1037" style="fill:none;stroke:black;stroke-width:1" />
  <polyline points="34.012,200.3406 30.012,200.3406" style="fill:none;stroke:black;stroke-width:1" />
  <polyline points="34.012,186.5775 30.012,186.5775" style="fill:none;stroke:black;stroke-width:1" />
  <polyline points="34.012,159.0513 30.012,159.0513" style="fill:none;stroke:black;stroke-width:1" />
  <polyline points="34.012,145.2882 30.012,145.2882" style="fill:none;stroke:black;stroke-width:1" />
  <polyline points="34.012,131.5251 30.012,131.5251" style="fill:none;stroke:black;stroke-width:1" />
  <polyline points="34.012,117.762 30.012,117.762" style="fill:none;stroke:black;stroke-width:1" />
  <polyline points="34.012,90.2358 30.012,90.2358" style="fill:none;stroke:black;stroke-width:1" />
  <polyline points="34.012,76.4727 30.012,76.4727" style="fill:none;stroke:black;stroke-width:1" />
  <polyline points="34.012,62.7096 30.012,62.7096" style="fill:none;stroke:black;stroke-width:1" />
  <polyline points="34.012,48.9465 30.012,48.9465" style="fill:none;stroke:black;stroke-width:1" />
  <text dominant-baseline="middle" text-anchor="end" transform="translate(23.012,310.4453)" font-family="Segoe UI" font-size="12" font-weight="400" fill="black">100</text>
  <text dominant-baseline="middle" text-anchor="end" transform="translate(23.012,241.6299)" font-family="Segoe UI" font-size="12" font-weight="400" fill="black">200</text>
  <text dominant-baseline="middle" text-anchor="end" transform="translate(23.012,172.8144)" font-family="Segoe UI" font-size="12" font-weight="400" fill="black">300</text>
  <text dominant-baseline="middle" text-anchor="end" transform="translate(23.012,103.9989)" font-family="Segoe UI" font-size="12" font-weight="400" fill="black">400</text>
  <text dominant-baseline="middle" text-anchor="end" transform="translate(23.012,35.1834)" font-family="Segoe UI" font-size="12" font-weight="400" fill="black">500</text>
  <polyline points="34.012,310.4453 27.012,310.4453" style="fill:none;stroke:black;stroke-width:1" />
  <polyline points="34.012,241.6299 27.012,241.6299" style="fill:none;stroke:black;stroke-width:1" />
  <polyline points="34.012,172.8144 27.012,172.8144" style="fill:none;stroke:black;stroke-width:1" />
  <polyline points="34.012,103.9989 27.012,103.9989" style="fill:none;stroke:black;stroke-width:1" />
  <polyline points="34.012,35.1834 27.012,35.1834" style="fill:none;stroke:black;stroke-width:1" />
  <text dominant-baseline="hanging" text-anchor="middle" transform="translate(53.4767,381.947)" font-family="Segoe UI" font-size="12" font-weight="400" fill="black">15. August</text>
  <text dominant-baseline="hanging" text-anchor="middle" transform="translate(144.312,381.947)" font-family="Segoe UI" font-size="12" font-weight="400" fill="black">29. August</text>
  <text dominant-baseline="hanging" text-anchor="middle" transform="translate(235.1472,381.947)" font-family="Segoe UI" font-size="12" font-weight="400" fill="black">12. September</text>
  <text dominant-baseline="hanging" text-anchor="middle" transform="translate(325.9825,381.947)" font-family="Segoe UI" font-size="12" font-weight="400" fill="black">26. September</text>
  <text dominant-baseline="hanging" text-anchor="middle" transform="translate(416.8177,381.947)" font-family="Segoe UI" font-size="12" font-weight="400" fill="black">10. October</text>
  <text dominant-baseline="hanging" text-anchor="middle" transform="translate(507.653,381.947)" font-family="Segoe UI" font-size="12" font-weight="400" fill="black">24. October</text>
  <polyline points="53.4767,370.947 53.4767,377.947" style="fill:none;stroke:black;stroke-width:1" />
  <polyline points="144.312,370.947 144.312,377.947" style="fill:none;stroke:black;stroke-width:1" />
  <polyline points="235.1472,370.947 235.1472,377.947" style="fill:none;stroke:black;stroke-width:1" />
  <polyline points="325.9825,370.947 325.9825,377.947" style="fill:none;stroke:black;stroke-width:1" />
  <polyline points="416.8177,370.947 416.8177,377.947" style="fill:none;stroke:black;stroke-width:1" />
  <polyline points="507.653,370.947 507.653,377.947" style="fill:none;stroke:black;stroke-width:1" />
  <polyline points="34.012,358.6162 46.9885,352.4228 66.4532,356.5517 72.9414,352.4228 79.4296,355.1754 85.9179,351.7346 92.4061,352.4228 111.8708,353.1109 118.359,358.6162 124.8473,359.3043 131.3355,357.928 137.8237,357.928 157.2884,362.7451 163.7767,364.8096 170.2649,364.8096 176.7531,363.4332 183.2413,364.1214 202.706,364.1214 209.1943,367.5622 215.6825,365.4977 222.1707,361.3688 228.659,358.6162 248.1237,351.7346 254.6119,346.9175 261.1001,340.036 267.5884,339.3478 274.0766,337.2834 293.5413,343.4768 300.0295,344.8531 306.5178,344.1649 313.006,341.4123 319.4942,337.9715 338.9589,321.4558 345.4472,323.5203 351.9354,324.2084 358.4236,313.8861 364.9119,304.2519 384.3766,293.2415 390.8648,302.8756 397.353,293.9296 403.8413,284.2954 410.3295,281.5428 429.7942,260.8982 436.2824,276.7257 442.7707,268.4679 449.2589,249.8877 455.7471,223.0497 475.2118,188.6419 481.7,190.7064 488.1883,186.5775 494.6765,154.9224 501.1647,148.729 520.6294,55.8281 527.1177,81.2898 533.6059,81.2898 540.0941,73.7201 546.5824,32.4308 566.0471,45.5058 572.5353,114.3212 579.0235,99.1818 585.5118,79.2253 592,70.9675" style="fill:none;stroke:rgb(31,119,180);stroke-width:2;stroke-linejoin:bevel" />
  <text dominant-baseline="hanging" text-anchor="middle" transform="translate(313.006,8)" font-family="Segoe UI" font-size="18" font-weight="700" fill="black">Aktive Fälle Stadt Aachen 06.11.2020</text>
  <polygon points="34.012,29.0795 592,29.0795 592,370.947 34.012,370.947" style="fill:none;stroke:black;stroke-width:1" />
  <polygon points="42.012,37.0795 228.483,37.0795 228.483,63.1325 42.012,63.1325" style="fill:none;stroke:none;" />
  <text dominant-baseline="hanging" text-anchor="start" transform="translate(70.012,45.0795)" font-family="Segoe UI" font-size="12" font-weight="400" fill="black">Aktive Fälle Stadt Aachen 06.11.2020</text>
  <polyline points="50.012,50.106 66.012,50.106" style="fill:none;stroke:rgb(31,119,180);stroke-width:2" />
</svg>