<?xml version="1.0" encoding="utf-8" standalone="no"?>
<!DOCTYPE svg PUBLIC "-//W3C//DTD SVG 1.1//EN" "http://www.w3.org/Graphics/SVG/1.1/DTD/svg11.dtd">
<svg width="600" height="400" version="1.1" xmlns:xlink="http://www.w3.org/1999/xlink" xmlns="http://www.w3.org/2000/svg">
  <rect x="0" y="0" width="600" height="400" style="fill:rgb(255,255,255);stroke:none;" />
  <polyline points="39.016,359.3113 35.016,359.3113" style="fill:none;stroke:black;stroke-width:1" />
  <polyline points="39.016,339.4159 35.016,339.4159" style="fill:none;stroke:black;stroke-width:1" />
  <polyline points="39.016,319.5205 35.016,319.5205" style="fill:none;stroke:black;stroke-width:1" />
  <polyline points="39.016,299.6251 35.016,299.6251" style="fill:none;stroke:black;stroke-width:1" />
  <polyline points="39.016,259.8343 35.016,259.8343" style="fill:none;stroke:black;stroke-width:1" />
  <polyline points="39.016,239.9389 35.016,239.9389" style="fill:none;stroke:black;stroke-width:1" />
  <polyline points="39.016,220.0435 35.016,220.0435" style="fill:none;stroke:black;stroke-width:1" />
  <polyline points="39.016,200.1481 35.016,200.1481" style="fill:none;stroke:black;stroke-width:1" />
  <polyline points="39.016,160.3573 35.016,160.3573" style="fill:none;stroke:black;stroke-width:1" />
  <polyline points="39.016,140.4619 35.016,140.4619" style="fill:none;stroke:black;stroke-width:1" />
  <polyline points="39.016,120.5665 35.016,120.5665" style="fill:none;stroke:black;stroke-width:1" />
  <polyline points="39.016,100.6711 35.016,100.6711" style="fill:none;stroke:black;stroke-width:1" />
  <polyline points="39.016,60.8803 35.016,60.8803" style="fill:none;stroke:black;stroke-width:1" />
  <polyline points="39.016,40.9849 35.016,40.9849" style="fill:none;stroke:black;stroke-width:1" />
  <text dominant-baseline="middle" text-anchor="end" transform="translate(28.016,379.2067)" font-family="Segoe UI" font-size="12" font-weight="400" fill="black">0</text>
  <text dominant-baseline="middle" text-anchor="end" transform="translate(28.016,279.7297)" font-family="Segoe UI" font-size="12" font-weight="400" fill="black">1000</text>
  <text dominant-baseline="middle" text-anchor="end" transform="translate(28.016,180.2527)" font-family="Segoe UI" font-size="12" font-weight="400" fill="black">2000</text>
  <text dominant-baseline="middle" text-anchor="end" transform="translate(28.016,80.7757)" font-family="Segoe UI" font-size="12" font-weight="400" fill="black">3000</text>
  <polyline points="39.016,379.2067 32.016,379.2067" style="fill:none;stroke:black;stroke-width:1" />
  <polyline points="39.016,279.7297 32.016,279.7297" style="fill:none;stroke:black;stroke-width:1" />
  <polyline points="39.016,180.2527 32.016,180.2527" style="fill:none;stroke:black;stroke-width:1" />
  <polyline points="39.016,80.7757 32.016,80.7757" style="fill:none;stroke:black;stroke-width:1" />
  <polyline points="39.016,347.2746 591.6067,376.2224 591.6322,374.5313 591.6329,373.5366 591.6397,373.2381 591.6419,370.8507 591.6442,369.7564 591.6449,368.3638 591.6487,366.8716 591.6494,365.4789 591.6502,365.081 591.6524,362.0967 591.6532,364.3847 591.6539,363.1909 591.6547,360.5051 591.6554,356.6255 591.6576,351.6516 591.6591,351.3532 591.6599,346.7772 591.6606,345.8819 591.6629,332.4526 591.6636,336.1332 591.6651,335.039 591.6659,329.0703 591.6681,330.9604 591.6689,340.9081 591.6696,338.7196 591.6704,335.8348 591.6711,334.641 591.6734,327.9761 591.6741,332.0546 591.6749,329.1698 591.6764,323.5991 591.6786,322.4054 591.6794,327.9761 591.6801,329.4682 591.6809,323.2012 591.6816,328.0756 591.6839,332.6515 591.6846,336.3322 591.6861,338.1227 591.6869,333.4473 591.6891,327.5782 591.6899,330.8609 591.6906,335.9342 591.6921,336.7301 591.6944,324.2954 591.6951,329.5677 591.6959,332.4526 591.6966,327.4787 591.6974,324.2954 591.6996,314.3477 591.7003,320.6148 591.7011,323.0022 591.7018,319.62 591.7026,314.2483 591.7048,306.5885 591.7056,312.4577 591.7063,317.4315 591.7101,306.2901 591.7108,311.6619 591.7116,315.6409 591.7123,311.4629 591.7153,311.5624 591.7161,316.9341 591.7168,324.4944 591.7176,326.1855 591.7183,320.4158 591.7213,331.4578 591.7221,336.5311 591.7228,334.3426 591.7236,339.9133 591.7258,343.1961 591.7266,348.9657 591.7311,349.0652 591.7326,351.3532 591.7333,347.1752 591.7341,344.4893 591.7363,344.8872 591.7371,349.4631 591.7378,353.4422 591.7416,355.1333 591.7423,357.7197 591.7431,356.2276 591.7438,353.2432 591.7445,350.2589 591.7468,352.4474 591.7475,359.8087 591.7483,359.4108 591.749,357.3218 591.7498,361.7983 591.752,363.6883 591.7528,365.4789 591.7588,365.6779 591.7595,360.3061 591.7603,360.0077 591.7625,355.9291 591.764,354.3375 591.7648,351.8506 591.7655,348.7668 591.7678,346.6778 591.7693,347.1752 591.77,340.9081 591.7708,336.6306 591.773,331.3583 591.7745,331.8557 591.7753,324.9918 591.776,323.6986 591.7783,322.8033 591.779,329.8662 591.7805,328.8714 591.7813,321.6096 591.7843,317.1331 591.785,317.9289 591.7858,310.6671 591.7865,309.0755 591.7887,307.2849 591.7895,307.7823 591.7902,302.311 591.791,298.2325 591.7917,299.0283 591.794,293.9549 591.7947,292.4628 591.7955,285.4994 591.7962,276.6459 591.797,272.8658 591.7992,275.9496 591.8,278.1381 591.8007,283.4104 591.8015,286.9916 591.8022,285.002 591.8045,297.0387 591.8052,295.7455 591.806,302.0126 591.8067,304.7979 591.8075,309.0755 591.8097,309.2744 591.8105,317.6305 591.8112,316.0388 591.8127,320.6148 591.815,316.4368 591.8157,320.7143 591.818,320.5153 591.821,329.3688 591.8217,335.4369 591.8225,337.6254 591.8232,336.0337 591.8255,344.3898 591.8262,350.8558 591.827,353.0443 591.8285,357.0234 591.8307,359.7093 591.8314,361.9972 591.8322,365.3794 591.8329,366.5732 591.8337,368.0653 591.8367,368.1648 591.8374,371.6465 591.8464,373.3376 591.8472,373.9345 591.8584,373.636 591.8599,371.6465 591.8637,368.4632 591.8652,364.7826 591.8689,364.0862 591.8704,362.0967 591.8741,364.4842 591.8756,363.4894 591.8794,359.0129 591.8809,351.8506 591.8846,347.2746 591.8861,342.9971 591.8899,333.8452 591.9019,335.7353 591.9071,341.1071 591.9109,346.6778 591.9124,347.5731 591.9161,350.7563 591.9176,352.4474 591.9213,356.4265 591.9281,358.4161 591.9318,358.5155 591.9333,355.0338 591.9371,350.06 591.9386,338.7196 591.9423,334.9395 591.9438,324.0965 591.9476,314.4472 591.9491,302.51 591.9528,291.468 591.9543,284.4052 591.958,268.4888 591.9595,255.8553 591.9633,248.8919 591.97,250.7819 591.9738,261.1275 591.9753,256.3526 591.9895,248.5934 591.991,200.6455 591.9948,148.1217 591.9963,99.5769 592,32.5294" style="fill:none;stroke:rgb(31,119,180);stroke-width:2;stroke-linejoin:bevel" />
  <text dominant-baseline="hanging" text-anchor="middle" transform="translate(315.508,8)" font-family="Segoe UI" font-size="18" font-weight="700" fill="black">Aktive Fälle Stadt Aachen 19.01.2022</text>
  <polygon points="39.016,29.0795 592,29.0795 592,381 39.016,381" style="fill:none;stroke:black;stroke-width:1" />
  <polygon points="47.016,37.0795 233.487,37.0795 233.487,63.1325 47.016,63.1325" style="fill:none;stroke:none;" />
  <text dominant-baseline="hanging" text-anchor="start" transform="translate(75.016,45.0795)" font-family="Segoe UI" font-size="12" font-weight="400" fill="black">Aktive Fälle Stadt Aachen 19.01.2022</text>
  <polyline points="55.016,50.106 71.016,50.106" style="fill:none;stroke:rgb(31,119,180);stroke-width:2" />
</svg>