<?xml version="1.0" encoding="utf-8" standalone="no"?>
<!DOCTYPE svg PUBLIC "-//W3C//DTD SVG 1.1//EN" "http://www.w3.org/Graphics/SVG/1.1/DTD/svg11.dtd">
<svg width="600" height="400" version="1.1" xmlns:xlink="http://www.w3.org/1999/xlink" xmlns="http://www.w3.org/2000/svg">
  <rect x="0" y="0" width="600" height="400" style="fill:rgb(255,255,255);stroke:none;" />
  <polyline points="39.016,357.0495 35.016,357.0495" style="fill:none;stroke:black;stroke-width:1" />
  <polyline points="39.016,341.1212 35.016,341.1212" style="fill:none;stroke:black;stroke-width:1" />
  <polyline points="39.016,325.1929 35.016,325.1929" style="fill:none;stroke:black;stroke-width:1" />
  <polyline points="39.016,293.3363 35.016,293.3363" style="fill:none;stroke:black;stroke-width:1" />
  <polyline points="39.016,277.408 35.016,277.408" style="fill:none;stroke:black;stroke-width:1" />
  <polyline points="39.016,261.4797 35.016,261.4797" style="fill:none;stroke:black;stroke-width:1" />
  <polyline points="39.016,229.6231 35.016,229.6231" style="fill:none;stroke:black;stroke-width:1" />
  <polyline points="39.016,213.6948 35.016,213.6948" style="fill:none;stroke:black;stroke-width:1" />
  <polyline points="39.016,197.7665 35.016,197.7665" style="fill:none;stroke:black;stroke-width:1" />
  <polyline points="39.016,165.9099 35.016,165.9099" style="fill:none;stroke:black;stroke-width:1" />
  <polyline points="39.016,149.9816 35.016,149.9816" style="fill:none;stroke:black;stroke-width:1" />
  <polyline points="39.016,134.0533 35.016,134.0533" style="fill:none;stroke:black;stroke-width:1" />
  <polyline points="39.016,102.1968 35.016,102.1968" style="fill:none;stroke:black;stroke-width:1" />
  <polyline points="39.016,86.2685 35.016,86.2685" style="fill:none;stroke:black;stroke-width:1" />
  <polyline points="39.016,70.3402 35.016,70.3402" style="fill:none;stroke:black;stroke-width:1" />
  <polyline points="39.016,38.4836 35.016,38.4836" style="fill:none;stroke:black;stroke-width:1" />
  <text dominant-baseline="middle" text-anchor="end" transform="translate(28.016,309.2646)" font-family="Segoe UI" font-size="12" font-weight="400" fill="black">200</text>
  <text dominant-baseline="middle" text-anchor="end" transform="translate(28.016,245.5514)" font-family="Segoe UI" font-size="12" font-weight="400" fill="black">400</text>
  <text dominant-baseline="middle" text-anchor="end" transform="translate(28.016,181.8382)" font-family="Segoe UI" font-size="12" font-weight="400" fill="black">600</text>
  <text dominant-baseline="middle" text-anchor="end" transform="translate(28.016,118.125)" font-family="Segoe UI" font-size="12" font-weight="400" fill="black">800</text>
  <text dominant-baseline="middle" text-anchor="end" transform="translate(28.016,54.4119)" font-family="Segoe UI" font-size="12" font-weight="400" fill="black">1000</text>
  <polyline points="39.016,309.2646 32.016,309.2646" style="fill:none;stroke:black;stroke-width:1" />
  <polyline points="39.016,245.5514 32.016,245.5514" style="fill:none;stroke:black;stroke-width:1" />
  <polyline points="39.016,181.8382 32.016,181.8382" style="fill:none;stroke:black;stroke-width:1" />
  <polyline points="39.016,118.125 32.016,118.125" style="fill:none;stroke:black;stroke-width:1" />
  <polyline points="39.016,54.4119 32.016,54.4119" style="fill:none;stroke:black;stroke-width:1" />
  <text dominant-baseline="hanging" text-anchor="middle" transform="translate(79.6766,381.947)" font-family="Segoe UI" font-size="12" font-weight="400" fill="black">01. September</text>
  <text dominant-baseline="hanging" text-anchor="middle" transform="translate(140.6675,381.947)" font-family="Segoe UI" font-size="12" font-weight="400" fill="black">01. October</text>
  <text dominant-baseline="hanging" text-anchor="middle" transform="translate(203.6914,381.947)" font-family="Segoe UI" font-size="12" font-weight="400" fill="black">01. November</text>
  <text dominant-baseline="hanging" text-anchor="middle" transform="translate(264.6823,381.947)" font-family="Segoe UI" font-size="12" font-weight="400" fill="black">01. December</text>
  <text dominant-baseline="hanging" text-anchor="middle" transform="translate(327.7062,381.947)" font-family="Segoe UI" font-size="12" font-weight="400" fill="black">01. January</text>
  <text dominant-baseline="hanging" text-anchor="middle" transform="translate(390.7301,381.947)" font-family="Segoe UI" font-size="12" font-weight="400" fill="black">01. February</text>
  <text dominant-baseline="hanging" text-anchor="middle" transform="translate(447.6549,381.947)" font-family="Segoe UI" font-size="12" font-weight="400" fill="black">01. March</text>
  <text dominant-baseline="hanging" text-anchor="middle" transform="translate(510.6788,381.947)" font-family="Segoe UI" font-size="12" font-weight="400" fill="black">01. April</text>
  <text dominant-baseline="hanging" text-anchor="middle" transform="translate(571.6697,381.947)" font-family="Segoe UI" font-size="12" font-weight="400" fill="black">01. May</text>
  <polyline points="79.6766,370.947 79.6766,377.947" style="fill:none;stroke:black;stroke-width:1" />
  <polyline points="140.6675,370.947 140.6675,377.947" style="fill:none;stroke:black;stroke-width:1" />
  <polyline points="203.6914,370.947 203.6914,377.947" style="fill:none;stroke:black;stroke-width:1" />
  <polyline points="264.6823,370.947 264.6823,377.947" style="fill:none;stroke:black;stroke-width:1" />
  <polyline points="327.7062,370.947 327.7062,377.947" style="fill:none;stroke:black;stroke-width:1" />
  <polyline points="390.7301,370.947 390.7301,377.947" style="fill:none;stroke:black;stroke-width:1" />
  <polyline points="447.6549,370.947 447.6549,377.947" style="fill:none;stroke:black;stroke-width:1" />
  <polyline points="510.6788,370.947 510.6788,377.947" style="fill:none;stroke:black;stroke-width:1" />
  <polyline points="571.6697,370.947 571.6697,377.947" style="fill:none;stroke:black;stroke-width:1" />
  <polyline points="39.016,363.4208 43.0821,360.5537 49.1811,362.4651 51.2142,360.5537 53.2472,361.828 55.2802,360.2352 57.3133,360.5537 63.4124,360.8723 65.4454,363.4208 67.4784,363.7394 69.5114,363.1023 71.5445,363.1023 77.6436,365.3322 79.6766,366.2879 81.7096,366.2879 83.7426,365.6508 85.7757,365.9693 91.8748,365.9693 93.9078,367.5622 95.9408,366.6065 97.9739,364.6951 100.0069,363.4208 106.106,360.2352 108.139,358.0052 110.172,354.8195 112.2051,354.501 114.2381,353.5453 120.3372,356.4124 122.3702,357.0495 124.4032,356.7309 126.4363,355.4567 128.4693,353.8638 134.5684,346.2183 136.6014,347.174 138.6344,347.4925 140.6675,342.714 142.7005,338.2541 148.7996,333.1571 150.8326,337.617 152.8656,333.4756 154.8987,329.0157 156.9317,327.7414 163.0308,318.1845 165.0638,325.5115 167.0969,321.6887 169.1299,313.0874 171.1629,300.6633 177.262,284.735 179.295,285.6907 181.3281,283.7793 183.3611,269.1253 185.3941,266.2582 191.4932,223.2518 193.5262,235.0387 195.5593,235.0387 197.5923,231.5345 199.6253,212.4206 205.7244,218.4733 207.7574,250.3299 209.7905,243.3215 211.8235,234.083 213.8565,230.2603 219.9556,208.9163 221.9886,221.9775 224.0217,212.7391 228.0877,194.8994 234.1868,191.0766 236.2199,208.9163 238.2529,213.6948 240.2859,193.6252 242.3189,209.2349 248.418,223.8889 250.4511,235.6759 252.4841,231.5345 254.5171,241.4101 256.5501,226.4375 262.6492,207.6421 264.6823,218.1548 266.7153,234.4016 268.7483,228.6674 270.7814,236.9501 276.8804,197.1294 278.9135,214.0134 280.9465,223.2518 282.9795,207.3235 285.0126,197.1294 291.1116,165.2728 293.1447,185.3425 295.1777,192.988 297.2107,182.1568 299.2438,164.9542 305.3429,140.4247 307.3759,159.2201 309.4089,175.1484 319.5741,139.469 321.6071,156.6715 323.6401,169.4142 325.6731,156.0344 333.8053,156.353 335.8383,173.5555 337.8713,197.7665 339.9044,203.1822 341.9374,184.7053 350.0695,220.0661 352.1025,236.313 354.1356,229.3046 356.1686,247.1443 362.2677,257.6569 364.3007,276.1338 366.3337,280.9122 368.3668,279.638 370.3998,276.7709 376.4989,276.4523 380.5649,283.7793 382.598,270.3996 384.631,261.7983 390.7301,263.0725 392.7631,277.7266 394.7961,290.4692 396.8292,284.4165 398.8622,284.4165 404.9613,295.8848 406.9943,304.1676 409.0274,299.3891 411.0604,289.8321 413.0934,280.2751 419.1925,287.2836 421.2255,310.8574 423.2586,309.5832 425.2916,302.8933 427.3246,317.2288 433.4237,323.2815 435.4567,329.0157 437.4898,325.1929 439.5228,323.9186 441.5558,325.5115 447.6549,327.1043 449.6879,335.0684 451.721,329.6528 453.754,312.4503 455.787,311.4946 461.8861,298.4334 463.9191,298.4334 465.9522,293.3363 467.9852,285.3722 470.0182,275.4966 476.1173,268.8067 478.1504,269.7624 480.1834,270.3996 482.2164,250.3299 484.2494,236.6316 490.3485,219.7476 492.3816,220.0661 494.4146,221.3404 496.4476,199.3594 498.4806,195.218 504.5797,192.3509 506.6128,214.9691 508.6458,219.429 510.6788,211.7834 512.7119,188.5281 520.844,174.1927 522.877,176.7412 524.91,153.4859 526.9431,148.3888 533.0421,142.6546 535.0752,144.2475 537.1082,126.7263 539.1412,113.6651 541.1743,116.2137 547.2734,99.9668 549.3064,95.1883 551.3394,72.8887 553.3724,44.5363 555.4055,32.4308 561.5046,42.3064 563.5376,49.3148 565.5706,66.1988 567.6036,77.6672 569.6367,71.2959 575.7358,109.8423 577.7688,105.701 579.8018,125.7706 581.8349,134.6905 583.8679,148.3888 589.967,149.0259 592,175.7855" style="fill:none;stroke:rgb(31,119,180);stroke-width:2;stroke-linejoin:bevel" />
  <text dominant-baseline="hanging" text-anchor="middle" transform="translate(315.508,8)" font-family="Segoe UI" font-size="18" font-weight="700" fill="black">Aktive Fälle Stadt Aachen 11.05.2021</text>
  <polygon points="39.016,29.0795 592,29.0795 592,370.947 39.016,370.947" style="fill:none;stroke:black;stroke-width:1" />
  <polygon points="47.016,37.0795 233.487,37.0795 233.487,63.1325 47.016,63.1325" style="fill:none;stroke:none;" />
  <text dominant-baseline="hanging" text-anchor="start" transform="translate(75.016,45.0795)" font-family="Segoe UI" font-size="12" font-weight="400" fill="black">Aktive Fälle Stadt Aachen 11.05.2021</text>
  <polyline points="55.016,50.106 71.016,50.106" style="fill:none;stroke:rgb(31,119,180);stroke-width:2" />
</svg>