<?xml version="1.0" encoding="utf-8" standalone="no"?>
<!DOCTYPE svg PUBLIC "-//W3C//DTD SVG 1.1//EN" "http://www.w3.org/Graphics/SVG/1.1/DTD/svg11.dtd">
<svg width="600" height="400" version="1.1" xmlns:xlink="http://www.w3.org/1999/xlink" xmlns="http://www.w3.org/2000/svg">
  <rect x="0" y="0" width="600" height="400" style="fill:rgb(255,255,255);stroke:none;" />
  <polyline points="39.016,357.0495 35.016,357.0495" style="fill:none;stroke:black;stroke-width:1" />
  <polyline points="39.016,341.1212 35.016,341.1212" style="fill:none;stroke:black;stroke-width:1" />
  <polyline points="39.016,325.1929 35.016,325.1929" style="fill:none;stroke:black;stroke-width:1" />
  <polyline points="39.016,293.3363 35.016,293.3363" style="fill:none;stroke:black;stroke-width:1" />
  <polyline points="39.016,277.408 35.016,277.408" style="fill:none;stroke:black;stroke-width:1" />
  <polyline points="39.016,261.4797 35.016,261.4797" style="fill:none;stroke:black;stroke-width:1" />
  <polyline points="39.016,229.6231 35.016,229.6231" style="fill:none;stroke:black;stroke-width:1" />
  <polyline points="39.016,213.6948 35.016,213.6948" style="fill:none;stroke:black;stroke-width:1" />
  <polyline points="39.016,197.7665 35.016,197.7665" style="fill:none;stroke:black;stroke-width:1" />
  <polyline points="39.016,165.9099 35.016,165.9099" style="fill:none;stroke:black;stroke-width:1" />
  <polyline points="39.016,149.9816 35.016,149.9816" style="fill:none;stroke:black;stroke-width:1" />
  <polyline points="39.016,134.0533 35.016,134.0533" style="fill:none;stroke:black;stroke-width:1" />
  <polyline points="39.016,102.1968 35.016,102.1968" style="fill:none;stroke:black;stroke-width:1" />
  <polyline points="39.016,86.2685 35.016,86.2685" style="fill:none;stroke:black;stroke-width:1" />
  <polyline points="39.016,70.3402 35.016,70.3402" style="fill:none;stroke:black;stroke-width:1" />
  <polyline points="39.016,38.4836 35.016,38.4836" style="fill:none;stroke:black;stroke-width:1" />
  <polyline points="75.5166,370.947 75.5166,374.947" style="fill:none;stroke:black;stroke-width:1" />
  <polyline points="186.8434,370.947 186.8434,374.947" style="fill:none;stroke:black;stroke-width:1" />
  <polyline points="298.1702,370.947 298.1702,374.947" style="fill:none;stroke:black;stroke-width:1" />
  <polyline points="405.847,370.947 405.847,374.947" style="fill:none;stroke:black;stroke-width:1" />
  <polyline points="517.1738,370.947 517.1738,374.947" style="fill:none;stroke:black;stroke-width:1" />
  <text dominant-baseline="middle" text-anchor="end" transform="translate(28.016,309.2646)" font-family="Segoe UI" font-size="12" font-weight="400" fill="black">200</text>
  <text dominant-baseline="middle" text-anchor="end" transform="translate(28.016,245.5514)" font-family="Segoe UI" font-size="12" font-weight="400" fill="black">400</text>
  <text dominant-baseline="middle" text-anchor="end" transform="translate(28.016,181.8382)" font-family="Segoe UI" font-size="12" font-weight="400" fill="black">600</text>
  <text dominant-baseline="middle" text-anchor="end" transform="translate(28.016,118.125)" font-family="Segoe UI" font-size="12" font-weight="400" fill="black">800</text>
  <text dominant-baseline="middle" text-anchor="end" transform="translate(28.016,54.4119)" font-family="Segoe UI" font-size="12" font-weight="400" fill="black">1000</text>
  <polyline points="39.016,309.2646 32.016,309.2646" style="fill:none;stroke:black;stroke-width:1" />
  <polyline points="39.016,245.5514 32.016,245.5514" style="fill:none;stroke:black;stroke-width:1" />
  <polyline points="39.016,181.8382 32.016,181.8382" style="fill:none;stroke:black;stroke-width:1" />
  <polyline points="39.016,118.125 32.016,118.125" style="fill:none;stroke:black;stroke-width:1" />
  <polyline points="39.016,54.4119 32.016,54.4119" style="fill:none;stroke:black;stroke-width:1" />
  <text dominant-baseline="hanging" text-anchor="middle" transform="translate(130.2675,381.947)" font-family="Segoe UI" font-size="12" font-weight="400" fill="black">01. October</text>
  <text dominant-baseline="hanging" text-anchor="middle" transform="translate(241.5943,381.947)" font-family="Segoe UI" font-size="12" font-weight="400" fill="black">01. December</text>
  <text dominant-baseline="hanging" text-anchor="middle" transform="translate(354.7461,381.947)" font-family="Segoe UI" font-size="12" font-weight="400" fill="black">01. February</text>
  <text dominant-baseline="hanging" text-anchor="middle" transform="translate(462.4229,381.947)" font-family="Segoe UI" font-size="12" font-weight="400" fill="black">01. April</text>
  <text dominant-baseline="hanging" text-anchor="middle" transform="translate(573.7497,381.947)" font-family="Segoe UI" font-size="12" font-weight="400" fill="black">01. June</text>
  <polyline points="130.2675,370.947 130.2675,377.947" style="fill:none;stroke:black;stroke-width:1" />
  <polyline points="241.5943,370.947 241.5943,377.947" style="fill:none;stroke:black;stroke-width:1" />
  <polyline points="354.7461,370.947 354.7461,377.947" style="fill:none;stroke:black;stroke-width:1" />
  <polyline points="462.4229,370.947 462.4229,377.947" style="fill:none;stroke:black;stroke-width:1" />
  <polyline points="573.7497,370.947 573.7497,377.947" style="fill:none;stroke:black;stroke-width:1" />
  <polyline points="39.016,363.4208 42.6661,360.5537 48.1411,362.4651 49.9662,360.5537 51.7912,361.828 53.6162,360.2352 55.4413,360.5537 60.9164,360.8723 62.7414,363.4208 64.5664,363.7394 66.3914,363.1023 68.2165,363.1023 73.6916,365.3322 75.5166,366.2879 77.3416,366.2879 79.1667,365.6508 80.9917,365.9693 86.4668,365.9693 88.2918,367.5622 90.1168,366.6065 91.9419,364.6951 93.7669,363.4208 99.242,360.2352 101.067,358.0052 102.892,354.8195 104.7171,354.501 106.5421,353.5453 112.0172,356.4124 113.8422,357.0495 115.6672,356.7309 117.4923,355.4567 119.3173,353.8638 124.7924,346.2183 126.6174,347.174 128.4425,347.4925 130.2675,342.714 132.0925,338.2541 137.5676,333.1571 139.3926,337.617 141.2177,333.4756 143.0427,329.0157 144.8677,327.7414 150.3428,318.1845 152.1678,325.5115 153.9929,321.6887 155.8179,313.0874 157.6429,300.6633 163.118,284.735 164.943,285.6907 166.7681,283.7793 168.5931,269.1253 170.4181,266.2582 175.8932,223.2518 177.7183,235.0387 179.5433,235.0387 181.3683,231.5345 183.1933,212.4206 188.6684,218.4733 190.4935,250.3299 192.3185,243.3215 194.1435,234.083 195.9686,230.2603 201.4436,208.9163 203.2687,221.9775 205.0937,212.7391 208.7438,194.8994 214.2189,191.0766 216.0439,208.9163 217.8689,213.6948 219.6939,193.6252 221.519,209.2349 226.9941,223.8889 228.8191,235.6759 230.6441,231.5345 232.4691,241.4101 234.2942,226.4375 239.7693,207.6421 241.5943,218.1548 243.4193,234.4016 245.2444,228.6674 247.0694,236.9501 252.5445,197.1294 254.3695,214.0134 256.1945,223.2518 258.0196,207.3235 259.8446,197.1294 265.3197,165.2728 267.1447,185.3425 268.9697,192.988 270.7948,182.1568 272.6198,164.9542 278.0949,140.4247 279.9199,159.2201 281.745,175.1484 290.8701,139.469 292.6951,156.6715 294.5202,169.4142 296.3452,156.0344 303.6453,156.353 305.4703,173.5555 307.2954,197.7665 309.1204,203.1822 310.9454,184.7053 318.2455,220.0661 320.0706,236.313 321.8956,229.3046 323.7206,247.1443 329.1957,257.6569 331.0208,276.1338 332.8458,280.9122 334.6708,279.638 336.4958,276.7709 341.9709,276.4523 345.621,283.7793 347.446,270.3996 349.271,261.7983 354.7461,263.0725 356.5712,277.7266 358.3962,290.4692 360.2212,284.4165 362.0463,284.4165 367.5213,295.8848 369.3464,304.1676 371.1714,299.3891 372.9964,289.8321 374.8215,280.2751 380.2966,287.2836 382.1216,310.8574 383.9466,309.5832 385.7716,302.8933 387.5967,317.2288 393.0718,323.2815 394.8968,329.0157 396.7218,325.1929 398.5469,323.9186 400.3719,325.5115 405.847,327.1043 407.672,335.0684 409.497,329.6528 411.3221,312.4503 413.1471,311.4946 418.6222,298.4334 420.4472,298.4334 422.2722,293.3363 424.0973,285.3722 425.9223,275.4966 431.3974,268.8067 433.2224,269.7624 435.0474,270.3996 436.8725,250.3299 438.6975,236.6316 444.1726,219.7476 445.9976,220.0661 447.8227,221.3404 449.6477,199.3594 451.4727,195.218 456.9478,192.3509 458.7728,214.9691 460.5979,219.429 462.4229,211.7834 464.2479,188.5281 471.548,174.1927 473.3731,176.7412 475.1981,153.4859 477.0231,148.3888 482.4982,142.6546 484.3232,144.2475 486.1483,126.7263 487.9733,113.6651 489.7983,116.2137 495.2734,99.9668 497.0985,95.1883 498.9235,72.8887 500.7485,44.5363 502.5735,32.4308 508.0486,42.3064 509.8737,49.3148 511.6987,66.1988 513.5237,77.6672 515.3488,71.2959 520.8238,109.8423 522.6489,105.701 524.4739,125.7706 526.2989,134.6905 528.124,148.3888 533.599,149.0259 535.4241,175.7855 537.2491,170.6884 540.8992,185.3425 546.3743,171.9627 548.1993,185.661 550.0243,186.2982 551.8493,180.564 553.6744,185.0239 560.9745,213.3763 562.7995,232.8088 564.6246,239.8172 566.4496,234.7202 571.9247,261.4797 573.7497,282.1865 575.5747,289.195 579.2248,301.9376 584.6999,310.5389 586.5249,317.8659 588.3499,328.6971 590.175,332.5199 592,337.2984" style="fill:none;stroke:rgb(31,119,180);stroke-width:2;stroke-linejoin:bevel" />
  <text dominant-baseline="hanging" text-anchor="middle" transform="translate(315.508,8)" font-family="Segoe UI" font-size="18" font-weight="700" fill="black">Aktive Fälle Stadt Aachen 11.06.2021</text>
  <polygon points="39.016,29.0795 592,29.0795 592,370.947 39.016,370.947" style="fill:none;stroke:black;stroke-width:1" />
  <polygon points="47.016,37.0795 233.487,37.0795 233.487,63.1325 47.016,63.1325" style="fill:none;stroke:none;" />
  <text dominant-baseline="hanging" text-anchor="start" transform="translate(75.016,45.0795)" font-family="Segoe UI" font-size="12" font-weight="400" fill="black">Aktive Fälle Stadt Aachen 11.06.2021</text>
  <polyline points="55.016,50.106 71.016,50.106" style="fill:none;stroke:rgb(31,119,180);stroke-width:2" />
</svg>