<?xml version="1.0" encoding="utf-8" standalone="no"?>
<!DOCTYPE svg PUBLIC "-//W3C//DTD SVG 1.1//EN" "http://www.w3.org/Graphics/SVG/1.1/DTD/svg11.dtd">
<svg width="600" height="400" version="1.1" xmlns:xlink="http://www.w3.org/1999/xlink" xmlns="http://www.w3.org/2000/svg">
  <rect x="0" y="0" width="600" height="400" style="fill:rgb(255,255,255);stroke:none;" />
  <polyline points="39.016,357.7173 35.016,357.7173" style="fill:none;stroke:black;stroke-width:1" />
  <polyline points="39.016,337.9189 35.016,337.9189" style="fill:none;stroke:black;stroke-width:1" />
  <polyline points="39.016,318.1206 35.016,318.1206" style="fill:none;stroke:black;stroke-width:1" />
  <polyline points="39.016,298.3222 35.016,298.3222" style="fill:none;stroke:black;stroke-width:1" />
  <polyline points="39.016,258.7255 35.016,258.7255" style="fill:none;stroke:black;stroke-width:1" />
  <polyline points="39.016,238.9272 35.016,238.9272" style="fill:none;stroke:black;stroke-width:1" />
  <polyline points="39.016,219.1288 35.016,219.1288" style="fill:none;stroke:black;stroke-width:1" />
  <polyline points="39.016,199.3305 35.016,199.3305" style="fill:none;stroke:black;stroke-width:1" />
  <polyline points="39.016,159.7338 35.016,159.7338" style="fill:none;stroke:black;stroke-width:1" />
  <polyline points="39.016,139.9354 35.016,139.9354" style="fill:none;stroke:black;stroke-width:1" />
  <polyline points="39.016,120.1371 35.016,120.1371" style="fill:none;stroke:black;stroke-width:1" />
  <polyline points="39.016,100.3387 35.016,100.3387" style="fill:none;stroke:black;stroke-width:1" />
  <polyline points="39.016,60.742 35.016,60.742" style="fill:none;stroke:black;stroke-width:1" />
  <polyline points="39.016,40.9437 35.016,40.9437" style="fill:none;stroke:black;stroke-width:1" />
  <text dominant-baseline="middle" text-anchor="end" transform="translate(28.016,377.5156)" font-family="Segoe UI" font-size="12" font-weight="400" fill="black">0</text>
  <text dominant-baseline="middle" text-anchor="end" transform="translate(28.016,278.5239)" font-family="Segoe UI" font-size="12" font-weight="400" fill="black">1000</text>
  <text dominant-baseline="middle" text-anchor="end" transform="translate(28.016,179.5321)" font-family="Segoe UI" font-size="12" font-weight="400" fill="black">2000</text>
  <text dominant-baseline="middle" text-anchor="end" transform="translate(28.016,80.5404)" font-family="Segoe UI" font-size="12" font-weight="400" fill="black">3000</text>
  <polyline points="39.016,377.5156 32.016,377.5156" style="fill:none;stroke:black;stroke-width:1" />
  <polyline points="39.016,278.5239 32.016,278.5239" style="fill:none;stroke:black;stroke-width:1" />
  <polyline points="39.016,179.5321 32.016,179.5321" style="fill:none;stroke:black;stroke-width:1" />
  <polyline points="39.016,80.5404 32.016,80.5404" style="fill:none;stroke:black;stroke-width:1" />
  <polyline points="39.016,345.7393 591.591,374.5459 591.6165,372.863 591.6172,371.8731 591.6239,371.5761 591.6262,369.2003 591.6284,368.1114 591.6292,366.7255 591.6329,365.2407 591.6337,363.8548 591.6344,363.4588 591.6367,360.4891 591.6374,362.7659 591.6382,361.578 591.6389,358.9052 591.6397,355.0445 591.6419,350.0949 591.6434,349.7979 591.6442,345.2443 591.6449,344.3534 591.6472,330.9895 591.6479,334.6522 591.6494,333.5633 591.6502,327.6238 591.6524,329.5046 591.6532,339.4038 591.6539,337.226 591.6547,334.3552 591.6554,333.1673 591.6577,326.5349 591.6584,330.5935 591.6592,327.7228 591.6607,322.1792 591.6629,320.9913 591.6637,326.5349 591.6644,328.0198 591.6652,321.7833 591.6659,326.6339 591.6681,331.1875 591.6689,334.8502 591.6704,336.632 591.6711,331.9794 591.6734,326.1389 591.6741,329.4056 591.6749,334.4542 591.6764,335.2462 591.6786,322.8722 591.6794,328.1188 591.6801,330.9895 591.6809,326.0399 591.6816,322.8722 591.6839,312.973 591.6846,319.2095 591.6854,321.5853 591.6861,318.2196 591.6869,312.874 591.6891,305.2517 591.6899,311.0922 591.6906,316.0418 591.6944,304.9547 591.6951,310.3002 591.6959,314.2599 591.6966,310.1023 591.6996,310.2012 591.7004,315.5468 591.7011,323.0702 591.7019,324.753 591.7026,319.0115 591.7056,329.9996 591.7064,335.0482 591.7071,332.8704 591.7078,338.4139 591.7101,341.6806 591.7108,347.4221 591.7153,347.5211 591.7168,349.7979 591.7176,345.6403 591.7183,342.9675 591.7206,343.3635 591.7213,347.9171 591.7221,351.8768 591.7258,353.5596 591.7266,356.1334 591.7273,354.6485 591.7281,351.6788 591.7288,348.709 591.7311,350.8869 591.7318,358.2122 591.7326,357.8163 591.7333,355.7375 591.7341,360.1921 591.7363,362.0729 591.7371,363.8548 591.7431,364.0528 591.7438,358.7072 591.7446,358.4102 591.7468,354.3516 591.7483,352.7677 591.7491,350.2929 591.7498,347.2242 591.752,345.1453 591.7535,345.6403 591.7543,339.4038 591.755,335.1472 591.7573,329.9006 591.7588,330.3956 591.7595,323.5651 591.7603,322.2782 591.7625,321.3873 591.7633,328.4157 591.7648,327.4258 591.7655,320.1994 591.7685,315.7448 591.7693,316.5367 591.77,309.3103 591.7708,307.7264 591.773,305.9446 591.7738,306.4396 591.7745,300.995 591.7753,296.9363 591.776,297.7283 591.7783,292.6797 591.779,291.1948 591.7798,284.2654 591.7805,275.4551 591.7813,271.6934 591.7835,274.7622 591.7843,276.94 591.785,282.1866 591.7858,285.7503 591.7865,283.7704 591.7888,295.7484 591.7895,294.4616 591.7903,300.698 591.791,303.4698 591.7917,307.7264 591.794,307.9244 591.7947,316.2397 591.7955,314.6559 591.797,319.2095 591.7992,315.0518 591.8,319.3085 591.8022,319.1105 591.8052,327.9208 591.806,333.9593 591.8067,336.1371 591.8075,334.5532 591.8097,342.8685 591.8105,349.303 591.8112,351.4808 591.8127,355.4405 591.815,358.1133 591.8157,360.3901 591.8165,363.7558 591.8172,364.9437 591.818,366.4286 591.821,366.5276 591.8217,369.9923 591.8307,371.6751 591.8315,372.2691 591.8427,371.9721 591.8442,369.9923 591.8479,366.8245 591.8494,363.1618 591.8532,362.4689 591.8547,360.4891 591.8584,362.8649 591.8599,361.8749 591.8637,357.4203 591.8652,350.2929 591.8689,345.7393 591.8704,341.4826 591.8742,332.3754 591.8861,334.2562 591.8914,339.6018 591.8951,345.1453 591.8966,346.0363 591.9004,349.204 591.9019,350.8869 591.9056,354.8465 591.9124,356.8264 591.9161,356.9254 591.9176,353.4606 591.9213,348.5111 591.9228,337.226 591.9266,333.4643 591.9281,322.6742 591.9318,313.072 591.9333,301.193 591.9371,290.2049 591.9386,283.1765 591.9423,267.3378 591.9438,254.7659 591.9476,247.8364 591.9543,249.7173 591.9581,260.0124 591.9595,255.2608 591.9738,247.5395 591.9753,199.8254 591.979,147.5578 591.9805,99.2498 591.9843,32.5294 591.991,377.5156 591.9963,377.5156 592,377.5156" style="fill:none;stroke:rgb(31,119,180);stroke-width:2;stroke-linejoin:bevel" />
  <text dominant-baseline="hanging" text-anchor="middle" transform="translate(315.508,8)" font-family="Segoe UI" font-size="18" font-weight="700" fill="black">Aktive Fälle Stadt Aachen 09.02.2022</text>
  <polygon points="39.016,29.0795 592,29.0795 592,381 39.016,381" style="fill:none;stroke:black;stroke-width:1" />
  <polygon points="47.016,37.0795 233.487,37.0795 233.487,63.1325 47.016,63.1325" style="fill:none;stroke:none;" />
  <text dominant-baseline="hanging" text-anchor="start" transform="translate(75.016,45.0795)" font-family="Segoe UI" font-size="12" font-weight="400" fill="black">Aktive Fälle Stadt Aachen 09.02.2022</text>
  <polyline points="55.016,50.106 71.016,50.106" style="fill:none;stroke:rgb(31,119,180);stroke-width:2" />
</svg>