<?xml version="1.0" encoding="utf-8" standalone="no"?>
<!DOCTYPE svg PUBLIC "-//W3C//DTD SVG 1.1//EN" "http://www.w3.org/Graphics/SVG/1.1/DTD/svg11.dtd">
<svg width="600" height="400" version="1.1" xmlns:xlink="http://www.w3.org/1999/xlink" xmlns="http://www.w3.org/2000/svg">
  <rect x="0" y="0" width="600" height="400" style="fill:rgb(255,255,255);stroke:none;" />
  <polyline points="34.012,352.1162 30.012,352.1162" style="fill:none;stroke:black;stroke-width:1" />
  <polyline points="34.012,328.7131 30.012,328.7131" style="fill:none;stroke:black;stroke-width:1" />
  <polyline points="34.012,305.3101 30.012,305.3101" style="fill:none;stroke:black;stroke-width:1" />
  <polyline points="34.012,258.5041 30.012,258.5041" style="fill:none;stroke:black;stroke-width:1" />
  <polyline points="34.012,235.101 30.012,235.101" style="fill:none;stroke:black;stroke-width:1" />
  <polyline points="34.012,211.698 30.012,211.698" style="fill:none;stroke:black;stroke-width:1" />
  <polyline points="34.012,164.892 30.012,164.892" style="fill:none;stroke:black;stroke-width:1" />
  <polyline points="34.012,141.4889 30.012,141.4889" style="fill:none;stroke:black;stroke-width:1" />
  <polyline points="34.012,118.0859 30.012,118.0859" style="fill:none;stroke:black;stroke-width:1" />
  <polyline points="34.012,71.2798 30.012,71.2798" style="fill:none;stroke:black;stroke-width:1" />
  <polyline points="34.012,47.8768 30.012,47.8768" style="fill:none;stroke:black;stroke-width:1" />
  <text dominant-baseline="middle" text-anchor="end" transform="translate(23.012,281.9071)" font-family="Segoe UI" font-size="12" font-weight="400" fill="black">200</text>
  <text dominant-baseline="middle" text-anchor="end" transform="translate(23.012,188.295)" font-family="Segoe UI" font-size="12" font-weight="400" fill="black">400</text>
  <text dominant-baseline="middle" text-anchor="end" transform="translate(23.012,94.6829)" font-family="Segoe UI" font-size="12" font-weight="400" fill="black">600</text>
  <polyline points="34.012,281.9071 27.012,281.9071" style="fill:none;stroke:black;stroke-width:1" />
  <polyline points="34.012,188.295 27.012,188.295" style="fill:none;stroke:black;stroke-width:1" />
  <polyline points="34.012,94.6829 27.012,94.6829" style="fill:none;stroke:black;stroke-width:1" />
  <text dominant-baseline="hanging" text-anchor="middle" transform="translate(109.4158,381.947)" font-family="Segoe UI" font-size="12" font-weight="400" fill="black">01. September</text>
  <text dominant-baseline="hanging" text-anchor="middle" transform="translate(222.5215,381.947)" font-family="Segoe UI" font-size="12" font-weight="400" fill="black">01. October</text>
  <text dominant-baseline="hanging" text-anchor="middle" transform="translate(339.3973,381.947)" font-family="Segoe UI" font-size="12" font-weight="400" fill="black">01. November</text>
  <text dominant-baseline="hanging" text-anchor="middle" transform="translate(452.503,381.947)" font-family="Segoe UI" font-size="12" font-weight="400" fill="black">01. December</text>
  <text dominant-baseline="hanging" text-anchor="middle" transform="translate(569.3789,381.947)" font-family="Segoe UI" font-size="12" font-weight="400" fill="black">01. January</text>
  <polyline points="109.4158,370.947 109.4158,377.947" style="fill:none;stroke:black;stroke-width:1" />
  <polyline points="222.5215,370.947 222.5215,377.947" style="fill:none;stroke:black;stroke-width:1" />
  <polyline points="339.3973,370.947 339.3973,377.947" style="fill:none;stroke:black;stroke-width:1" />
  <polyline points="452.503,370.947 452.503,377.947" style="fill:none;stroke:black;stroke-width:1" />
  <polyline points="569.3789,370.947 569.3789,377.947" style="fill:none;stroke:black;stroke-width:1" />
  <polyline points="34.012,361.4774 41.5524,357.2648 52.8629,360.0732 56.6331,357.2648 60.4033,359.1371 64.1735,356.7968 67.9437,357.2648 79.2543,357.7329 83.0245,361.4774 86.7946,361.9454 90.5648,361.0093 94.335,361.0093 105.6456,364.2857 109.4158,365.6899 113.186,365.6899 116.9562,364.7538 120.7264,365.2219 132.0369,365.2219 135.8071,367.5622 139.5773,366.158 143.3475,363.3496 147.1177,361.4774 158.4282,356.7968 162.1984,353.5204 165.9686,348.8398 169.7388,348.3717 173.509,346.9675 184.8196,351.1801 188.5898,352.1162 192.3599,351.6481 196.1301,349.7759 199.9003,347.4356 211.2109,336.2021 214.9811,337.6063 218.7513,338.0744 222.5215,331.0534 226.2916,324.5006 237.6022,317.0116 241.3724,323.5645 245.1426,317.4797 248.9128,310.9268 252.683,309.0546 263.9935,295.0128 267.7637,305.7782 271.5339,300.1615 275.3041,287.5238 279.0743,269.2695 290.3849,245.8664 294.1551,247.2706 297.9252,244.4622 301.6954,222.9315 305.4656,218.7189 316.7762,155.5307 320.5464,172.849 324.3166,172.849 328.0868,167.7003 331.8569,139.6167 343.1675,148.5098 346.9377,195.3159 350.7079,185.0186 354.4781,171.4448 358.2483,165.8281 369.5588,134.468 373.329,153.6585 377.0992,140.0847 384.6396,113.8734 395.9502,108.2566 399.7204,134.468 403.4905,141.4889 407.2607,112.0011 411.0309,134.9361 422.3415,156.4669 426.1117,173.7851 429.8819,167.7003 433.6521,182.2102 437.4222,160.2113 448.7328,132.5958 452.503,148.0418 456.2732,171.9129 460.0434,163.4878 463.8136,175.6573 475.1241,117.1498 478.8943,141.957 482.6645,155.5307 486.4347,132.1277 490.2049,117.1498 501.5155,70.3437 505.2856,99.8315 509.0558,111.065 512.826,95.1509 516.5962,69.8757 527.9068,33.835 531.677,61.4506 535.4472,84.8536 554.2981,32.4308 558.0683,57.7061 561.8385,76.4285 565.6087,56.77 580.6894,57.238 584.4596,82.5133 588.2298,118.0859 592,126.0429" style="fill:none;stroke:rgb(31,119,180);stroke-width:2;stroke-linejoin:bevel" />
  <text dominant-baseline="hanging" text-anchor="middle" transform="translate(313.006,8)" font-family="Segoe UI" font-size="18" font-weight="700" fill="black">Aktive Fälle Stadt Aachen 07.01.2021</text>
  <polygon points="34.012,29.0795 592,29.0795 592,370.947 34.012,370.947" style="fill:none;stroke:black;stroke-width:1" />
  <polygon points="42.012,37.0795 228.483,37.0795 228.483,63.1325 42.012,63.1325" style="fill:none;stroke:none;" />
  <text dominant-baseline="hanging" text-anchor="start" transform="translate(70.012,45.0795)" font-family="Segoe UI" font-size="12" font-weight="400" fill="black">Aktive Fälle Stadt Aachen 07.01.2021</text>
  <polyline points="50.012,50.106 66.012,50.106" style="fill:none;stroke:rgb(31,119,180);stroke-width:2" />
</svg>