<?xml version="1.0" encoding="utf-8" standalone="no"?>
<!DOCTYPE svg PUBLIC "-//W3C//DTD SVG 1.1//EN" "http://www.w3.org/Graphics/SVG/1.1/DTD/svg11.dtd">
<svg width="600" height="400" version="1.1" xmlns:xlink="http://www.w3.org/1999/xlink" xmlns="http://www.w3.org/2000/svg">
  <rect x="0" y="0" width="600" height="400" style="fill:rgb(255,255,255);stroke:none;" />
  <polyline points="34.012,352.9334 30.012,352.9334" style="fill:none;stroke:black;stroke-width:1" />
  <polyline points="34.012,330.7687 30.012,330.7687" style="fill:none;stroke:black;stroke-width:1" />
  <polyline points="34.012,308.6039 30.012,308.6039" style="fill:none;stroke:black;stroke-width:1" />
  <polyline points="34.012,264.2743 30.012,264.2743" style="fill:none;stroke:black;stroke-width:1" />
  <polyline points="34.012,242.1096 30.012,242.1096" style="fill:none;stroke:black;stroke-width:1" />
  <polyline points="34.012,219.9448 30.012,219.9448" style="fill:none;stroke:black;stroke-width:1" />
  <polyline points="34.012,175.6152 30.012,175.6152" style="fill:none;stroke:black;stroke-width:1" />
  <polyline points="34.012,153.4505 30.012,153.4505" style="fill:none;stroke:black;stroke-width:1" />
  <polyline points="34.012,131.2857 30.012,131.2857" style="fill:none;stroke:black;stroke-width:1" />
  <polyline points="34.012,86.9562 30.012,86.9562" style="fill:none;stroke:black;stroke-width:1" />
  <polyline points="34.012,64.7914 30.012,64.7914" style="fill:none;stroke:black;stroke-width:1" />
  <polyline points="34.012,42.6266 30.012,42.6266" style="fill:none;stroke:black;stroke-width:1" />
  <text dominant-baseline="middle" text-anchor="end" transform="translate(23.012,286.4391)" font-family="Segoe UI" font-size="12" font-weight="400" fill="black">200</text>
  <text dominant-baseline="middle" text-anchor="end" transform="translate(23.012,197.78)" font-family="Segoe UI" font-size="12" font-weight="400" fill="black">400</text>
  <text dominant-baseline="middle" text-anchor="end" transform="translate(23.012,109.1209)" font-family="Segoe UI" font-size="12" font-weight="400" fill="black">600</text>
  <polyline points="34.012,286.4391 27.012,286.4391" style="fill:none;stroke:black;stroke-width:1" />
  <polyline points="34.012,197.78 27.012,197.78" style="fill:none;stroke:black;stroke-width:1" />
  <polyline points="34.012,109.1209 27.012,109.1209" style="fill:none;stroke:black;stroke-width:1" />
  <text dominant-baseline="hanging" text-anchor="middle" transform="translate(79.562,381.947)" font-family="Segoe UI" font-size="12" font-weight="400" fill="black">01. September</text>
  <text dominant-baseline="hanging" text-anchor="middle" transform="translate(147.8871,381.947)" font-family="Segoe UI" font-size="12" font-weight="400" fill="black">01. October</text>
  <text dominant-baseline="hanging" text-anchor="middle" transform="translate(218.4897,381.947)" font-family="Segoe UI" font-size="12" font-weight="400" fill="black">01. November</text>
  <text dominant-baseline="hanging" text-anchor="middle" transform="translate(286.8147,381.947)" font-family="Segoe UI" font-size="12" font-weight="400" fill="black">01. December</text>
  <text dominant-baseline="hanging" text-anchor="middle" transform="translate(357.4173,381.947)" font-family="Segoe UI" font-size="12" font-weight="400" fill="black">01. January</text>
  <text dominant-baseline="hanging" text-anchor="middle" transform="translate(428.0199,381.947)" font-family="Segoe UI" font-size="12" font-weight="400" fill="black">01. February</text>
  <text dominant-baseline="hanging" text-anchor="middle" transform="translate(491.7899,381.947)" font-family="Segoe UI" font-size="12" font-weight="400" fill="black">01. March</text>
  <text dominant-baseline="hanging" text-anchor="middle" transform="translate(562.3925,381.947)" font-family="Segoe UI" font-size="12" font-weight="400" fill="black">01. April</text>
  <polyline points="79.562,370.947 79.562,377.947" style="fill:none;stroke:black;stroke-width:1" />
  <polyline points="147.8871,370.947 147.8871,377.947" style="fill:none;stroke:black;stroke-width:1" />
  <polyline points="218.4897,370.947 218.4897,377.947" style="fill:none;stroke:black;stroke-width:1" />
  <polyline points="286.8147,370.947 286.8147,377.947" style="fill:none;stroke:black;stroke-width:1" />
  <polyline points="357.4173,370.947 357.4173,377.947" style="fill:none;stroke:black;stroke-width:1" />
  <polyline points="428.0199,370.947 428.0199,377.947" style="fill:none;stroke:black;stroke-width:1" />
  <polyline points="491.7899,370.947 491.7899,377.947" style="fill:none;stroke:black;stroke-width:1" />
  <polyline points="562.3925,370.947 562.3925,377.947" style="fill:none;stroke:black;stroke-width:1" />
  <polyline points="34.012,361.7993 38.567,357.8097 45.3995,360.4694 47.677,357.8097 49.9545,359.5829 52.232,357.3664 54.5095,357.8097 61.342,358.253 63.6195,361.7993 65.897,362.2426 68.1745,361.356 70.452,361.356 77.2845,364.4591 79.562,365.789 81.8395,365.789 84.117,364.9024 86.3945,365.3457 93.2271,365.3457 95.5046,367.5622 97.7821,366.2323 100.0596,363.5725 102.3371,361.7993 109.1696,357.3664 111.4471,354.2633 113.7246,349.8304 116.0021,349.3871 118.2796,348.0572 125.1121,352.0468 127.3896,352.9334 129.6671,352.4901 131.9446,350.7169 134.2221,348.5005 141.0546,337.8614 143.3321,339.1913 145.6096,339.6346 147.8871,332.9851 150.1646,326.779 156.9971,319.6863 159.2746,325.8924 161.5521,320.1296 163.8296,313.9234 166.1071,312.1502 172.9396,298.8514 175.2171,309.0472 177.4946,303.7276 179.7721,291.7587 182.0496,274.4701 188.8821,252.3054 191.1596,253.6352 193.4371,250.9755 195.7146,230.5839 197.9921,226.5942 204.8247,166.7493 207.1022,183.1513 209.3797,183.1513 211.6572,178.275 213.9347,151.6773 220.7672,160.0999 223.0447,204.4294 225.3222,194.6769 227.5997,181.8214 229.8772,176.5018 236.7097,146.801 238.9872,164.9762 241.2647,152.1206 245.8197,127.296 252.6522,121.9765 254.9297,146.801 257.2072,153.4505 259.4847,125.5229 261.7622,147.2443 268.5947,167.6359 270.8722,184.0379 273.1497,178.275 275.4272,192.0172 277.7047,171.1823 284.5372,145.0279 286.8147,159.6566 289.0922,182.2647 291.3697,174.2854 293.6472,185.811 300.4797,130.3991 302.7572,153.8938 305.0347,166.7493 307.3122,144.5846 309.5897,130.3991 316.4223,86.0696 318.6998,113.9972 320.9773,124.6363 323.2548,109.5642 325.5323,85.6263 332.3648,51.4925 334.6423,77.6469 336.9198,99.8117 348.3073,50.1626 350.5848,74.1006 352.8623,91.8324 355.1398,73.214 364.2498,73.6573 366.5273,97.5952 368.8048,131.2857 371.0823,138.8217 373.3598,113.1106 382.4698,162.3164 384.7473,184.9244 387.0248,175.1719 389.3023,199.9965 396.1348,214.6252 398.4123,240.3364 400.6898,246.9858 402.9673,245.2126 405.2448,241.223 412.0773,240.7797 416.6323,250.9755 418.9098,232.3571 421.1873,220.3881 428.0199,222.1613 430.2974,242.5529 432.5749,260.2847 434.8524,251.8621 437.1299,251.8621 443.9624,267.8207 446.2399,279.3464 448.5174,272.6969 450.7949,259.3981 453.0724,246.0992 459.9049,255.8517 462.1824,288.6556 464.4599,286.8824 466.7374,277.5732 469.0149,297.5215 475.8474,305.9441 478.1249,313.9234 480.4024,308.6039 482.6799,306.8307 484.9574,309.0472 491.7899,311.2637 494.0674,322.346 496.3449,314.81 498.6224,290.8721 500.8999,289.5422 507.7324,271.3671 510.0099,271.3671 512.2874,264.2743 514.5649,253.1919 516.8424,239.4498 523.6749,230.1406 525.9524,231.4705 528.2299,232.3571 530.5074,204.4294 532.7849,185.3677 539.6175,161.8731 541.895,162.3164 544.1725,164.0896 546.45,133.5022 548.7275,127.7393 555.56,123.7497 557.8375,155.2237 560.115,161.4298 562.3925,150.7907 564.67,118.4301 573.78,98.4818 576.0575,102.0282 578.335,69.6676 580.6125,62.5749 587.445,54.5956 589.7225,56.8121 592,32.4308" style="fill:none;stroke:rgb(31,119,180);stroke-width:2;stroke-linejoin:bevel" />
  <text dominant-baseline="hanging" text-anchor="middle" transform="translate(313.006,8)" font-family="Segoe UI" font-size="18" font-weight="700" fill="black">Aktive Fälle Stadt Aachen 14.04.2021</text>
  <polygon points="34.012,29.0795 592,29.0795 592,370.947 34.012,370.947" style="fill:none;stroke:black;stroke-width:1" />
  <polygon points="42.012,37.0795 228.483,37.0795 228.483,63.1325 42.012,63.1325" style="fill:none;stroke:none;" />
  <text dominant-baseline="hanging" text-anchor="start" transform="translate(70.012,45.0795)" font-family="Segoe UI" font-size="12" font-weight="400" fill="black">Aktive Fälle Stadt Aachen 14.04.2021</text>
  <polyline points="50.012,50.106 66.012,50.106" style="fill:none;stroke:rgb(31,119,180);stroke-width:2" />
</svg>