<?xml version="1.0" encoding="utf-8" standalone="no"?>
<!DOCTYPE svg PUBLIC "-//W3C//DTD SVG 1.1//EN" "http://www.w3.org/Graphics/SVG/1.1/DTD/svg11.dtd">
<svg width="600" height="400" version="1.1" xmlns:xlink="http://www.w3.org/1999/xlink" xmlns="http://www.w3.org/2000/svg">
  <rect x="0" y="0" width="600" height="400" style="fill:rgb(255,255,255);stroke:none;" />
  <polyline points="39.016,357.0495 35.016,357.0495" style="fill:none;stroke:black;stroke-width:1" />
  <polyline points="39.016,341.1212 35.016,341.1212" style="fill:none;stroke:black;stroke-width:1" />
  <polyline points="39.016,325.1929 35.016,325.1929" style="fill:none;stroke:black;stroke-width:1" />
  <polyline points="39.016,293.3363 35.016,293.3363" style="fill:none;stroke:black;stroke-width:1" />
  <polyline points="39.016,277.408 35.016,277.408" style="fill:none;stroke:black;stroke-width:1" />
  <polyline points="39.016,261.4797 35.016,261.4797" style="fill:none;stroke:black;stroke-width:1" />
  <polyline points="39.016,229.6231 35.016,229.6231" style="fill:none;stroke:black;stroke-width:1" />
  <polyline points="39.016,213.6948 35.016,213.6948" style="fill:none;stroke:black;stroke-width:1" />
  <polyline points="39.016,197.7665 35.016,197.7665" style="fill:none;stroke:black;stroke-width:1" />
  <polyline points="39.016,165.9099 35.016,165.9099" style="fill:none;stroke:black;stroke-width:1" />
  <polyline points="39.016,149.9816 35.016,149.9816" style="fill:none;stroke:black;stroke-width:1" />
  <polyline points="39.016,134.0533 35.016,134.0533" style="fill:none;stroke:black;stroke-width:1" />
  <polyline points="39.016,102.1968 35.016,102.1968" style="fill:none;stroke:black;stroke-width:1" />
  <polyline points="39.016,86.2685 35.016,86.2685" style="fill:none;stroke:black;stroke-width:1" />
  <polyline points="39.016,70.3402 35.016,70.3402" style="fill:none;stroke:black;stroke-width:1" />
  <polyline points="39.016,38.4836 35.016,38.4836" style="fill:none;stroke:black;stroke-width:1" />
  <polyline points="77.5515,370.947 77.5515,374.947" style="fill:none;stroke:black;stroke-width:1" />
  <polyline points="195.0847,370.947 195.0847,374.947" style="fill:none;stroke:black;stroke-width:1" />
  <polyline points="312.6178,370.947 312.6178,374.947" style="fill:none;stroke:black;stroke-width:1" />
  <polyline points="426.2975,370.947 426.2975,374.947" style="fill:none;stroke:black;stroke-width:1" />
  <polyline points="543.8307,370.947 543.8307,374.947" style="fill:none;stroke:black;stroke-width:1" />
  <text dominant-baseline="middle" text-anchor="end" transform="translate(28.016,309.2646)" font-family="Segoe UI" font-size="12" font-weight="400" fill="black">200</text>
  <text dominant-baseline="middle" text-anchor="end" transform="translate(28.016,245.5514)" font-family="Segoe UI" font-size="12" font-weight="400" fill="black">400</text>
  <text dominant-baseline="middle" text-anchor="end" transform="translate(28.016,181.8382)" font-family="Segoe UI" font-size="12" font-weight="400" fill="black">600</text>
  <text dominant-baseline="middle" text-anchor="end" transform="translate(28.016,118.125)" font-family="Segoe UI" font-size="12" font-weight="400" fill="black">800</text>
  <text dominant-baseline="middle" text-anchor="end" transform="translate(28.016,54.4119)" font-family="Segoe UI" font-size="12" font-weight="400" fill="black">1000</text>
  <polyline points="39.016,309.2646 32.016,309.2646" style="fill:none;stroke:black;stroke-width:1" />
  <polyline points="39.016,245.5514 32.016,245.5514" style="fill:none;stroke:black;stroke-width:1" />
  <polyline points="39.016,181.8382 32.016,181.8382" style="fill:none;stroke:black;stroke-width:1" />
  <polyline points="39.016,118.125 32.016,118.125" style="fill:none;stroke:black;stroke-width:1" />
  <polyline points="39.016,54.4119 32.016,54.4119" style="fill:none;stroke:black;stroke-width:1" />
  <text dominant-baseline="hanging" text-anchor="middle" transform="translate(135.3547,381.947)" font-family="Segoe UI" font-size="12" font-weight="400" fill="black">01. October</text>
  <text dominant-baseline="hanging" text-anchor="middle" transform="translate(252.8879,381.947)" font-family="Segoe UI" font-size="12" font-weight="400" fill="black">01. December</text>
  <text dominant-baseline="hanging" text-anchor="middle" transform="translate(372.3478,381.947)" font-family="Segoe UI" font-size="12" font-weight="400" fill="black">01. February</text>
  <text dominant-baseline="hanging" text-anchor="middle" transform="translate(486.0275,381.947)" font-family="Segoe UI" font-size="12" font-weight="400" fill="black">01. April</text>
  <polyline points="135.3547,370.947 135.3547,377.947" style="fill:none;stroke:black;stroke-width:1" />
  <polyline points="252.8879,370.947 252.8879,377.947" style="fill:none;stroke:black;stroke-width:1" />
  <polyline points="372.3478,370.947 372.3478,377.947" style="fill:none;stroke:black;stroke-width:1" />
  <polyline points="486.0275,370.947 486.0275,377.947" style="fill:none;stroke:black;stroke-width:1" />
  <polyline points="39.016,363.4208 42.8695,360.5537 48.6499,362.4651 50.5766,360.5537 52.5034,361.828 54.4302,360.2352 56.357,360.5537 62.1373,360.8723 64.0641,363.4208 65.9908,363.7394 67.9176,363.1023 69.8444,363.1023 75.6247,365.3322 77.5515,366.2879 79.4782,366.2879 81.405,365.6508 83.3318,365.9693 89.1121,365.9693 91.0389,367.5622 92.9657,366.6065 94.8924,364.6951 96.8192,363.4208 102.5995,360.2352 104.5263,358.0052 106.4531,354.8195 108.3798,354.501 110.3066,353.5453 116.0869,356.4124 118.0137,357.0495 119.9405,356.7309 121.8673,355.4567 123.794,353.8638 129.5744,346.2183 131.5011,347.174 133.4279,347.4925 135.3547,342.714 137.2814,338.2541 143.0618,333.1571 144.9885,337.617 146.9153,333.4756 148.8421,329.0157 150.7689,327.7414 156.5492,318.1845 158.476,325.5115 160.4027,321.6887 162.3295,313.0874 164.2563,300.6633 170.0366,284.735 171.9634,285.6907 173.8901,283.7793 175.8169,269.1253 177.7437,266.2582 183.524,223.2518 185.4508,235.0387 187.3776,235.0387 189.3043,231.5345 191.2311,212.4206 197.0114,218.4733 198.9382,250.3299 200.865,243.3215 202.7917,234.083 204.7185,230.2603 210.4988,208.9163 212.4256,221.9775 214.3524,212.7391 218.2059,194.8994 223.9863,191.0766 225.913,208.9163 227.8398,213.6948 229.7666,193.6252 231.6934,209.2349 237.4737,223.8889 239.4004,235.6759 241.3272,231.5345 243.254,241.4101 245.1808,226.4375 250.9611,207.6421 252.8879,218.1548 254.8146,234.4016 256.7414,228.6674 258.6682,236.9501 264.4485,197.1294 266.3753,214.0134 268.302,223.2518 270.2288,207.3235 272.1556,197.1294 277.9359,165.2728 279.8627,185.3425 281.7895,192.988 283.7162,182.1568 285.643,164.9542 291.4233,140.4247 293.3501,159.2201 295.2769,175.1484 304.9107,139.469 306.8375,156.6715 308.7643,169.4142 310.6911,156.0344 318.3982,156.353 320.3249,173.5555 322.2517,197.7665 324.1785,203.1822 326.1053,184.7053 333.8123,220.0661 335.7391,236.313 337.6659,229.3046 339.5927,247.1443 345.373,257.6569 347.2998,276.1338 349.2265,280.9122 351.1533,279.638 353.0801,276.7709 358.8604,276.4523 362.714,283.7793 364.6407,270.3996 366.5675,261.7983 372.3478,263.0725 374.2746,277.7266 376.2014,290.4692 378.1281,284.4165 380.0549,284.4165 385.8352,295.8848 387.762,304.1676 389.6888,299.3891 391.6156,289.8321 393.5423,280.2751 399.3226,287.2836 401.2494,310.8574 403.1762,309.5832 405.103,302.8933 407.0297,317.2288 412.8101,323.2815 414.7368,329.0157 416.6636,325.1929 418.5904,323.9186 420.5172,325.5115 426.2975,327.1043 428.2243,335.0684 430.151,329.6528 432.0778,312.4503 434.0046,311.4946 439.7849,298.4334 441.7117,298.4334 443.6384,293.3363 445.5652,285.3722 447.492,275.4966 453.2723,268.8067 455.1991,269.7624 457.1259,270.3996 459.0526,250.3299 460.9794,236.6316 466.7597,219.7476 468.6865,220.0661 470.6133,221.3404 472.54,199.3594 474.4668,195.218 480.2471,192.3509 482.1739,214.9691 484.1007,219.429 486.0275,211.7834 487.9542,188.5281 495.6613,174.1927 497.5881,176.7412 499.5149,153.4859 501.4416,148.3888 507.222,142.6546 509.1487,144.2475 511.0755,126.7263 513.0023,113.6651 514.9291,116.2137 520.7094,99.9668 522.6362,95.1883 524.5629,72.8887 526.4897,44.5363 528.4165,32.4308 534.1968,42.3064 536.1236,49.3148 538.0503,66.1988 539.9771,77.6672 541.9039,71.2959 547.6842,109.8423 549.611,105.701 551.5378,125.7706 553.4645,134.6905 555.3913,148.3888 561.1716,149.0259 563.0984,175.7855 565.0252,170.6884 568.8787,185.3425 574.659,171.9627 576.5858,185.661 578.5126,186.2982 580.4394,180.564 582.3661,185.0239 590.0732,213.3763 592,232.8088" style="fill:none;stroke:rgb(31,119,180);stroke-width:2;stroke-linejoin:bevel" />
  <text dominant-baseline="hanging" text-anchor="middle" transform="translate(315.508,8)" font-family="Segoe UI" font-size="18" font-weight="700" fill="black">Aktive Fälle Stadt Aachen 26.05.2021</text>
  <polygon points="39.016,29.0795 592,29.0795 592,370.947 39.016,370.947" style="fill:none;stroke:black;stroke-width:1" />
  <polygon points="47.016,37.0795 233.487,37.0795 233.487,63.1325 47.016,63.1325" style="fill:none;stroke:none;" />
  <text dominant-baseline="hanging" text-anchor="start" transform="translate(75.016,45.0795)" font-family="Segoe UI" font-size="12" font-weight="400" fill="black">Aktive Fälle Stadt Aachen 26.05.2021</text>
  <polyline points="55.016,50.106 71.016,50.106" style="fill:none;stroke:rgb(31,119,180);stroke-width:2" />
</svg>