<?xml version="1.0" encoding="utf-8" standalone="no"?>
<!DOCTYPE svg PUBLIC "-//W3C//DTD SVG 1.1//EN" "http://www.w3.org/Graphics/SVG/1.1/DTD/svg11.dtd">
<svg width="600" height="400" version="1.1" xmlns:xlink="http://www.w3.org/1999/xlink" xmlns="http://www.w3.org/2000/svg">
  <rect x="0" y="0" width="600" height="400" style="fill:rgb(255,255,255);stroke:none;" />
  <polyline points="34.012,352.1162 30.012,352.1162" style="fill:none;stroke:black;stroke-width:1" />
  <polyline points="34.012,328.7131 30.012,328.7131" style="fill:none;stroke:black;stroke-width:1" />
  <polyline points="34.012,305.3101 30.012,305.3101" style="fill:none;stroke:black;stroke-width:1" />
  <polyline points="34.012,258.5041 30.012,258.5041" style="fill:none;stroke:black;stroke-width:1" />
  <polyline points="34.012,235.101 30.012,235.101" style="fill:none;stroke:black;stroke-width:1" />
  <polyline points="34.012,211.698 30.012,211.698" style="fill:none;stroke:black;stroke-width:1" />
  <polyline points="34.012,164.892 30.012,164.892" style="fill:none;stroke:black;stroke-width:1" />
  <polyline points="34.012,141.4889 30.012,141.4889" style="fill:none;stroke:black;stroke-width:1" />
  <polyline points="34.012,118.0859 30.012,118.0859" style="fill:none;stroke:black;stroke-width:1" />
  <polyline points="34.012,71.2798 30.012,71.2798" style="fill:none;stroke:black;stroke-width:1" />
  <polyline points="34.012,47.8768 30.012,47.8768" style="fill:none;stroke:black;stroke-width:1" />
  <text dominant-baseline="middle" text-anchor="end" transform="translate(23.012,281.9071)" font-family="Segoe UI" font-size="12" font-weight="400" fill="black">200</text>
  <text dominant-baseline="middle" text-anchor="end" transform="translate(23.012,188.295)" font-family="Segoe UI" font-size="12" font-weight="400" fill="black">400</text>
  <text dominant-baseline="middle" text-anchor="end" transform="translate(23.012,94.6829)" font-family="Segoe UI" font-size="12" font-weight="400" fill="black">600</text>
  <polyline points="34.012,281.9071 27.012,281.9071" style="fill:none;stroke:black;stroke-width:1" />
  <polyline points="34.012,188.295 27.012,188.295" style="fill:none;stroke:black;stroke-width:1" />
  <polyline points="34.012,94.6829 27.012,94.6829" style="fill:none;stroke:black;stroke-width:1" />
  <text dominant-baseline="hanging" text-anchor="middle" transform="translate(82.7446,381.947)" font-family="Segoe UI" font-size="12" font-weight="400" fill="black">01. September</text>
  <text dominant-baseline="hanging" text-anchor="middle" transform="translate(155.8434,381.947)" font-family="Segoe UI" font-size="12" font-weight="400" fill="black">01. October</text>
  <text dominant-baseline="hanging" text-anchor="middle" transform="translate(231.3789,381.947)" font-family="Segoe UI" font-size="12" font-weight="400" fill="black">01. November</text>
  <text dominant-baseline="hanging" text-anchor="middle" transform="translate(304.4778,381.947)" font-family="Segoe UI" font-size="12" font-weight="400" fill="black">01. December</text>
  <text dominant-baseline="hanging" text-anchor="middle" transform="translate(380.0133,381.947)" font-family="Segoe UI" font-size="12" font-weight="400" fill="black">01. January</text>
  <text dominant-baseline="hanging" text-anchor="middle" transform="translate(455.5488,381.947)" font-family="Segoe UI" font-size="12" font-weight="400" fill="black">01. February</text>
  <text dominant-baseline="hanging" text-anchor="middle" transform="translate(523.7744,381.947)" font-family="Segoe UI" font-size="12" font-weight="400" fill="black">01. March</text>
  <polyline points="82.7446,370.947 82.7446,377.947" style="fill:none;stroke:black;stroke-width:1" />
  <polyline points="155.8434,370.947 155.8434,377.947" style="fill:none;stroke:black;stroke-width:1" />
  <polyline points="231.3789,370.947 231.3789,377.947" style="fill:none;stroke:black;stroke-width:1" />
  <polyline points="304.4778,370.947 304.4778,377.947" style="fill:none;stroke:black;stroke-width:1" />
  <polyline points="380.0133,370.947 380.0133,377.947" style="fill:none;stroke:black;stroke-width:1" />
  <polyline points="455.5488,370.947 455.5488,377.947" style="fill:none;stroke:black;stroke-width:1" />
  <polyline points="523.7744,370.947 523.7744,377.947" style="fill:none;stroke:black;stroke-width:1" />
  <polyline points="34.012,361.4774 38.8853,357.2648 46.1951,360.0732 48.6318,357.2648 51.0684,359.1371 53.505,356.7968 55.9417,357.2648 63.2515,357.7329 65.6882,361.4774 68.1248,361.9454 70.5614,361.0093 72.9981,361.0093 80.3079,364.2857 82.7446,365.6899 85.1812,365.6899 87.6178,364.7538 90.0545,365.2219 97.3643,365.2219 99.801,367.5622 102.2376,366.158 104.6742,363.3496 107.1109,361.4774 114.4208,356.7968 116.8574,353.5204 119.294,348.8398 121.7306,348.3717 124.1673,346.9675 131.4772,351.1801 133.9138,352.1162 136.3504,351.6481 138.787,349.7759 141.2237,347.4356 148.5336,336.2021 150.9702,337.6063 153.4068,338.0744 155.8434,331.0534 158.2801,324.5006 165.59,317.0116 168.0266,323.5645 170.4632,317.4797 172.8998,310.9268 175.3365,309.0546 182.6464,295.0128 185.083,305.7782 187.5196,300.1615 189.9562,287.5238 192.3929,269.2695 199.7028,245.8664 202.1394,247.2706 204.576,244.4622 207.0126,222.9315 209.4493,218.7189 216.7592,155.5307 219.1958,172.849 221.6324,172.849 224.069,167.7003 226.5057,139.6167 233.8156,148.5098 236.2522,195.3159 238.6888,185.0186 241.1254,171.4448 243.5621,165.8281 250.872,134.468 253.3086,153.6585 255.7452,140.0847 260.6185,113.8734 267.9284,108.2566 270.365,134.468 272.8016,141.4889 275.2383,112.0011 277.6749,134.9361 284.9848,156.4669 287.4214,173.7851 289.858,167.7003 292.2947,182.2102 294.7313,160.2113 302.0412,132.5958 304.4778,148.0418 306.9144,171.9129 309.3511,163.4878 311.7877,175.6573 319.0976,117.1498 321.5342,141.957 323.9708,155.5307 326.4075,132.1277 328.8441,117.1498 336.154,70.3437 338.5906,99.8315 341.0272,111.065 343.4639,95.1509 345.9005,69.8757 353.2104,33.835 355.647,61.4506 358.0836,84.8536 370.2668,32.4308 372.7034,57.7061 375.14,76.4285 377.5767,56.77 387.3232,57.238 389.7598,82.5133 392.1964,118.0859 394.6331,126.0429 397.0697,98.8954 406.8162,150.8501 409.2528,174.7212 411.6895,164.4239 414.1261,190.6353 421.436,206.0813 423.8726,233.2288 426.3092,240.2497 428.7459,238.3775 431.1825,234.1649 438.4924,233.6969 443.3656,244.4622 445.8023,224.8037 448.2389,212.1661 455.5488,214.0383 457.9854,235.5691 460.422,254.2915 462.8587,245.3984 465.2953,245.3984 472.6052,262.2485 475.0418,274.4181 477.4784,267.3972 479.9151,253.3554 482.3517,239.3136 489.6616,249.6109 492.0982,284.2474 494.5348,282.3752 496.9715,272.5459 499.4081,293.6086 506.718,302.5018 509.1546,310.9268 511.5912,305.3101 514.0279,303.4379 516.4645,305.7782 523.7744,308.1185 526.211,319.82 528.6477,311.863 531.0843,286.5877 533.5209,285.1835 540.8308,265.993 543.2674,265.993 545.7041,258.5041 548.1407,246.8025 550.5773,232.2927 557.8872,222.4634 560.3238,223.8676 562.7605,224.8037 565.1971,195.3159 567.6337,175.1893 574.9436,150.3821 577.3802,150.8501 579.8169,152.7224 582.2535,120.4262 584.6901,114.3414 592,110.1289" style="fill:none;stroke:rgb(31,119,180);stroke-width:2;stroke-linejoin:bevel" />
  <text dominant-baseline="hanging" text-anchor="middle" transform="translate(313.006,8)" font-family="Segoe UI" font-size="18" font-weight="700" fill="black">Aktive Fälle Stadt Aachen 29.03.2021</text>
  <polygon points="34.012,29.0795 592,29.0795 592,370.947 34.012,370.947" style="fill:none;stroke:black;stroke-width:1" />
  <polygon points="42.012,37.0795 228.483,37.0795 228.483,63.1325 42.012,63.1325" style="fill:none;stroke:none;" />
  <text dominant-baseline="hanging" text-anchor="start" transform="translate(70.012,45.0795)" font-family="Segoe UI" font-size="12" font-weight="400" fill="black">Aktive Fälle Stadt Aachen 29.03.2021</text>
  <polyline points="50.012,50.106 66.012,50.106" style="fill:none;stroke:rgb(31,119,180);stroke-width:2" />
</svg>