<?xml version="1.0" encoding="utf-8" standalone="no"?>
<!DOCTYPE svg PUBLIC "-//W3C//DTD SVG 1.1//EN" "http://www.w3.org/Graphics/SVG/1.1/DTD/svg11.dtd">
<svg width="600" height="400" version="1.1" xmlns:xlink="http://www.w3.org/1999/xlink" xmlns="http://www.w3.org/2000/svg">
  <rect x="0" y="0" width="600" height="400" style="fill:rgb(255,255,255);stroke:none;" />
  <polyline points="39.016,357.0495 35.016,357.0495" style="fill:none;stroke:black;stroke-width:1" />
  <polyline points="39.016,341.1212 35.016,341.1212" style="fill:none;stroke:black;stroke-width:1" />
  <polyline points="39.016,325.1929 35.016,325.1929" style="fill:none;stroke:black;stroke-width:1" />
  <polyline points="39.016,293.3363 35.016,293.3363" style="fill:none;stroke:black;stroke-width:1" />
  <polyline points="39.016,277.408 35.016,277.408" style="fill:none;stroke:black;stroke-width:1" />
  <polyline points="39.016,261.4797 35.016,261.4797" style="fill:none;stroke:black;stroke-width:1" />
  <polyline points="39.016,229.6231 35.016,229.6231" style="fill:none;stroke:black;stroke-width:1" />
  <polyline points="39.016,213.6948 35.016,213.6948" style="fill:none;stroke:black;stroke-width:1" />
  <polyline points="39.016,197.7665 35.016,197.7665" style="fill:none;stroke:black;stroke-width:1" />
  <polyline points="39.016,165.9099 35.016,165.9099" style="fill:none;stroke:black;stroke-width:1" />
  <polyline points="39.016,149.9816 35.016,149.9816" style="fill:none;stroke:black;stroke-width:1" />
  <polyline points="39.016,134.0533 35.016,134.0533" style="fill:none;stroke:black;stroke-width:1" />
  <polyline points="39.016,102.1968 35.016,102.1968" style="fill:none;stroke:black;stroke-width:1" />
  <polyline points="39.016,86.2685 35.016,86.2685" style="fill:none;stroke:black;stroke-width:1" />
  <polyline points="39.016,70.3402 35.016,70.3402" style="fill:none;stroke:black;stroke-width:1" />
  <polyline points="39.016,38.4836 35.016,38.4836" style="fill:none;stroke:black;stroke-width:1" />
  <polyline points="69.9955,370.947 69.9955,374.947" style="fill:none;stroke:black;stroke-width:1" />
  <polyline points="164.483,370.947 164.483,374.947" style="fill:none;stroke:black;stroke-width:1" />
  <polyline points="258.9704,370.947 258.9704,374.947" style="fill:none;stroke:black;stroke-width:1" />
  <polyline points="350.3599,370.947 350.3599,374.947" style="fill:none;stroke:black;stroke-width:1" />
  <polyline points="444.8474,370.947 444.8474,374.947" style="fill:none;stroke:black;stroke-width:1" />
  <polyline points="539.3349,370.947 539.3349,374.947" style="fill:none;stroke:black;stroke-width:1" />
  <text dominant-baseline="middle" text-anchor="end" transform="translate(28.016,309.2646)" font-family="Segoe UI" font-size="12" font-weight="400" fill="black">200</text>
  <text dominant-baseline="middle" text-anchor="end" transform="translate(28.016,245.5514)" font-family="Segoe UI" font-size="12" font-weight="400" fill="black">400</text>
  <text dominant-baseline="middle" text-anchor="end" transform="translate(28.016,181.8382)" font-family="Segoe UI" font-size="12" font-weight="400" fill="black">600</text>
  <text dominant-baseline="middle" text-anchor="end" transform="translate(28.016,118.125)" font-family="Segoe UI" font-size="12" font-weight="400" fill="black">800</text>
  <text dominant-baseline="middle" text-anchor="end" transform="translate(28.016,54.4119)" font-family="Segoe UI" font-size="12" font-weight="400" fill="black">1000</text>
  <polyline points="39.016,309.2646 32.016,309.2646" style="fill:none;stroke:black;stroke-width:1" />
  <polyline points="39.016,245.5514 32.016,245.5514" style="fill:none;stroke:black;stroke-width:1" />
  <polyline points="39.016,181.8382 32.016,181.8382" style="fill:none;stroke:black;stroke-width:1" />
  <polyline points="39.016,118.125 32.016,118.125" style="fill:none;stroke:black;stroke-width:1" />
  <polyline points="39.016,54.4119 32.016,54.4119" style="fill:none;stroke:black;stroke-width:1" />
  <text dominant-baseline="hanging" text-anchor="middle" transform="translate(116.4647,381.947)" font-family="Segoe UI" font-size="12" font-weight="400" fill="black">01. October</text>
  <text dominant-baseline="hanging" text-anchor="middle" transform="translate(210.9522,381.947)" font-family="Segoe UI" font-size="12" font-weight="400" fill="black">01. December</text>
  <text dominant-baseline="hanging" text-anchor="middle" transform="translate(306.9886,381.947)" font-family="Segoe UI" font-size="12" font-weight="400" fill="black">01. February</text>
  <text dominant-baseline="hanging" text-anchor="middle" transform="translate(398.3782,381.947)" font-family="Segoe UI" font-size="12" font-weight="400" fill="black">01. April</text>
  <text dominant-baseline="hanging" text-anchor="middle" transform="translate(492.8656,381.947)" font-family="Segoe UI" font-size="12" font-weight="400" fill="black">01. June</text>
  <text dominant-baseline="hanging" text-anchor="middle" transform="translate(587.3531,381.947)" font-family="Segoe UI" font-size="12" font-weight="400" fill="black">01. August</text>
  <polyline points="116.4647,370.947 116.4647,377.947" style="fill:none;stroke:black;stroke-width:1" />
  <polyline points="210.9522,370.947 210.9522,377.947" style="fill:none;stroke:black;stroke-width:1" />
  <polyline points="306.9886,370.947 306.9886,377.947" style="fill:none;stroke:black;stroke-width:1" />
  <polyline points="398.3782,370.947 398.3782,377.947" style="fill:none;stroke:black;stroke-width:1" />
  <polyline points="492.8656,370.947 492.8656,377.947" style="fill:none;stroke:black;stroke-width:1" />
  <polyline points="587.3531,370.947 587.3531,377.947" style="fill:none;stroke:black;stroke-width:1" />
  <polyline points="39.016,363.4208 42.1139,360.5537 46.7609,362.4651 48.3098,360.5537 49.8588,361.828 51.4078,360.2352 52.9568,360.5537 57.6037,360.8723 59.1527,363.4208 60.7016,363.7394 62.2506,363.1023 63.7996,363.1023 68.4465,365.3322 69.9955,366.2879 71.5445,366.2879 73.0934,365.6508 74.6424,365.9693 79.2893,365.9693 80.8383,367.5622 82.3873,366.6065 83.9363,364.6951 85.4852,363.4208 90.1322,360.2352 91.6811,358.0052 93.2301,354.8195 94.7791,354.501 96.3281,353.5453 100.975,356.4124 102.524,357.0495 104.0729,356.7309 105.6219,355.4567 107.1709,353.8638 111.8178,346.2183 113.3668,347.174 114.9158,347.4925 116.4647,342.714 118.0137,338.2541 122.6606,333.1571 124.2096,337.617 125.7586,333.4756 127.3076,329.0157 128.8565,327.7414 133.5035,318.1845 135.0524,325.5115 136.6014,321.6887 138.1504,313.0874 139.6994,300.6633 144.3463,284.735 145.8953,285.6907 147.4442,283.7793 148.9932,269.1253 150.5422,266.2582 155.1891,223.2518 156.7381,235.0387 158.2871,235.0387 159.836,231.5345 161.385,212.4206 166.0319,218.4733 167.5809,250.3299 169.1299,243.3215 170.6789,234.083 172.2278,230.2603 176.8748,208.9163 178.4237,221.9775 179.9727,212.7391 183.0707,194.8994 187.7176,191.0766 189.2666,208.9163 190.8155,213.6948 192.3645,193.6252 193.9135,209.2349 198.5604,223.8889 200.1094,235.6759 201.6584,231.5345 203.2073,241.4101 204.7563,226.4375 209.4032,207.6421 210.9522,218.1548 212.5012,234.4016 214.0502,228.6674 215.5991,236.9501 220.2461,197.1294 221.795,214.0134 223.344,223.2518 224.893,207.3235 226.4419,197.1294 231.0889,165.2728 232.6378,185.3425 234.1868,192.988 235.7358,182.1568 237.2848,164.9542 241.9317,140.4247 243.4807,159.2201 245.0296,175.1484 252.7745,139.469 254.3235,156.6715 255.8725,169.4142 257.4214,156.0344 263.6173,156.353 265.1663,173.5555 266.7153,197.7665 268.2643,203.1822 269.8132,184.7053 276.0091,220.0661 277.5581,236.313 279.1071,229.3046 280.6561,247.1443 285.303,257.6569 286.852,276.1338 288.4009,280.9122 289.9499,279.638 291.4989,276.7709 296.1458,276.4523 299.2438,283.7793 300.7927,270.3996 302.3417,261.7983 306.9886,263.0725 308.5376,277.7266 310.0866,290.4692 311.6356,284.4165 313.1845,284.4165 317.8315,295.8848 319.3804,304.1676 320.9294,299.3891 322.4784,289.8321 324.0274,280.2751 328.6743,287.2836 330.2233,310.8574 331.7722,309.5832 333.3212,302.8933 334.8702,317.2288 339.5171,323.2815 341.0661,329.0157 342.6151,325.1929 344.164,323.9186 345.713,325.5115 350.3599,327.1043 351.9089,335.0684 353.4579,329.6528 355.0069,312.4503 356.5558,311.4946 361.2028,298.4334 362.7517,298.4334 364.3007,293.3363 365.8497,285.3722 367.3987,275.4966 372.0456,268.8067 373.5946,269.7624 375.1435,270.3996 376.6925,250.3299 378.2415,236.6316 382.8884,219.7476 384.4374,220.0661 385.9864,221.3404 387.5353,199.3594 389.0843,195.218 393.7312,192.3509 395.2802,214.9691 396.8292,219.429 398.3782,211.7834 399.9271,188.5281 406.123,174.1927 407.672,176.7412 409.221,153.4859 410.7699,148.3888 415.4169,142.6546 416.9658,144.2475 418.5148,126.7263 420.0638,113.6651 421.6128,116.2137 426.2597,99.9668 427.8087,95.1883 429.3576,72.8887 430.9066,44.5363 432.4556,32.4308 437.1025,42.3064 438.6515,49.3148 440.2005,66.1988 441.7494,77.6672 443.2984,71.2959 447.9453,109.8423 449.4943,105.701 451.0433,125.7706 452.5923,134.6905 454.1412,148.3888 458.7882,149.0259 460.3371,175.7855 461.8861,170.6884 464.9841,185.3425 469.631,171.9627 471.18,185.661 472.7289,186.2982 474.2779,180.564 475.8269,185.0239 482.0228,213.3763 483.5718,232.8088 485.1207,239.8172 486.6697,234.7202 491.3166,261.4797 492.8656,282.1865 494.4146,289.195 497.5125,301.9376 502.1595,310.5389 503.7084,317.8659 505.2574,328.6971 506.8064,332.5199 508.3554,337.2984 513.0023,338.5727 514.5513,337.617 516.1002,348.7668 517.6492,348.1297 519.1982,349.7225 523.8451,350.6782 525.3941,351.9524 526.9431,352.5896 528.492,352.9081 530.041,352.9081 534.6879,354.1824 536.2369,356.0938 537.7859,355.7752 539.3349,353.5453 540.8838,354.8195 545.5308,356.0938 548.6287,355.7752 551.7267,356.4124 556.3736,356.0938 559.4715,355.1381 562.5695,348.7668 570.3144,338.5727 573.4123,326.7857 581.1572,324.5558 584.2551,318.1845 592,325.83" style="fill:none;stroke:rgb(31,119,180);stroke-width:2;stroke-linejoin:bevel" />
  <text dominant-baseline="hanging" text-anchor="middle" transform="translate(315.508,8)" font-family="Segoe UI" font-size="18" font-weight="700" fill="black">Aktive Fälle Stadt Aachen 04.08.2021</text>
  <polygon points="39.016,29.0795 592,29.0795 592,370.947 39.016,370.947" style="fill:none;stroke:black;stroke-width:1" />
  <polygon points="47.016,37.0795 233.487,37.0795 233.487,63.1325 47.016,63.1325" style="fill:none;stroke:none;" />
  <text dominant-baseline="hanging" text-anchor="start" transform="translate(75.016,45.0795)" font-family="Segoe UI" font-size="12" font-weight="400" fill="black">Aktive Fälle Stadt Aachen 04.08.2021</text>
  <polyline points="55.016,50.106 71.016,50.106" style="fill:none;stroke:rgb(31,119,180);stroke-width:2" />
</svg>