<?xml version="1.0" encoding="utf-8" standalone="no"?>
<!DOCTYPE svg PUBLIC "-//W3C//DTD SVG 1.1//EN" "http://www.w3.org/Graphics/SVG/1.1/DTD/svg11.dtd">
<svg width="600" height="400" version="1.1" xmlns:xlink="http://www.w3.org/1999/xlink" xmlns="http://www.w3.org/2000/svg">
  <rect x="0" y="0" width="600" height="400" style="fill:rgb(255,255,255);stroke:none;" />
  <polyline points="39.016,354.1028 35.016,354.1028" style="fill:none;stroke:black;stroke-width:1" />
  <polyline points="39.016,325.8946 35.016,325.8946" style="fill:none;stroke:black;stroke-width:1" />
  <polyline points="39.016,297.6864 35.016,297.6864" style="fill:none;stroke:black;stroke-width:1" />
  <polyline points="39.016,269.4782 35.016,269.4782" style="fill:none;stroke:black;stroke-width:1" />
  <polyline points="39.016,213.0618 35.016,213.0618" style="fill:none;stroke:black;stroke-width:1" />
  <polyline points="39.016,184.8536 35.016,184.8536" style="fill:none;stroke:black;stroke-width:1" />
  <polyline points="39.016,156.6454 35.016,156.6454" style="fill:none;stroke:black;stroke-width:1" />
  <polyline points="39.016,128.4372 35.016,128.4372" style="fill:none;stroke:black;stroke-width:1" />
  <polyline points="39.016,72.0208 35.016,72.0208" style="fill:none;stroke:black;stroke-width:1" />
  <polyline points="39.016,43.8126 35.016,43.8126" style="fill:none;stroke:black;stroke-width:1" />
  <text dominant-baseline="middle" text-anchor="end" transform="translate(28.016,241.27)" font-family="Segoe UI" font-size="12" font-weight="400" fill="black">500</text>
  <text dominant-baseline="middle" text-anchor="end" transform="translate(28.016,100.229)" font-family="Segoe UI" font-size="12" font-weight="400" fill="black">1000</text>
  <polyline points="39.016,241.27 32.016,241.27" style="fill:none;stroke:black;stroke-width:1" />
  <polyline points="39.016,100.229 32.016,100.229" style="fill:none;stroke:black;stroke-width:1" />
  <polyline points="39.016,291.7627 591.6471,373.8486 591.6486,371.3098 591.6561,371.5919 591.6569,373.8486 591.6614,375.5411 591.6621,376.3873 591.6689,374.9769 591.6696,373.8486 591.6719,371.0278 591.6726,369.0532 591.6734,366.2324 591.6801,365.3861 591.6823,358.6161 591.6838,359.7445 591.6846,355.5132 591.6853,351.5641 591.6876,347.0508 591.6883,350.9999 591.6891,347.3329 591.6898,343.3837 591.6906,342.2554 591.6928,333.7929 591.6936,340.2808 591.6943,336.8958 591.6951,329.2796 591.6958,318.2784 591.6981,304.1743 591.6996,303.3281 591.7003,290.3523 591.7011,287.8136 591.7033,249.7325 591.7041,260.1695 591.7048,260.1695 591.7056,257.0666 591.7063,240.1417 591.7086,245.5013 591.7093,273.7095 591.7101,267.5037 591.7108,259.3233 591.7116,255.9383 591.7138,237.0388 591.7146,248.6042 591.7153,240.4238 591.7168,224.6272 591.7191,221.2422 591.7198,237.0388 591.7206,241.27 591.7213,223.4989 591.7221,237.3209 591.7243,250.2967 591.7251,260.7337 591.7258,257.0666 591.7265,265.8112 591.7273,252.5533 591.7295,235.9105 591.7303,245.2192 591.731,259.6054 591.7318,254.5279 591.7325,261.862 591.7348,226.6018 591.7355,241.5521 591.7363,249.7325 591.737,235.6284 591.7378,226.6018 591.74,198.3936 591.7408,216.1647 591.7415,222.9347 591.7423,213.3439 591.743,198.1115 591.7453,176.3912 591.746,193.034 591.7468,207.1381 591.7505,175.5449 591.7513,190.7774 591.752,202.0606 591.7528,190.2132 591.7558,190.4953 591.7565,205.7277 591.7573,227.1659 591.758,231.9613 591.7588,215.6006 591.7618,246.9117 591.7625,261.2979 591.7633,255.0921 591.764,270.8886 591.7663,280.1974 591.767,296.5581 591.7678,300.7893 591.7685,299.661 591.7693,297.1223 591.7715,296.8402 591.773,303.3281 591.7737,291.4806 591.7745,283.8644 591.7767,284.9927 591.7775,297.9685 591.7782,309.2518 591.779,303.8922 591.7797,303.8922 591.782,314.0472 591.7827,321.3813 591.7835,317.1501 591.7842,308.6876 591.785,300.2252 591.7872,306.431 591.788,327.305 591.7887,326.1767 591.7895,320.253 591.7902,332.9467 591.7925,338.3062 591.7932,343.3837 591.794,339.9987 591.7977,341.6912 591.7985,348.7433 591.7992,343.9479 591.8,328.7155 591.8007,327.8692 591.803,316.3038 591.8037,316.3038 591.8045,311.7905 591.8052,304.7385 591.806,295.9939 591.8082,290.0702 591.8097,291.4806 591.8105,273.7095 591.8112,261.5799 591.8135,246.6296 591.815,248.04 591.8157,228.5763 591.8165,224.9093 591.8187,222.3705 591.8194,242.3984 591.8202,246.3475 591.8209,239.5775 591.8217,218.9856 591.8247,206.2919 591.8254,208.5485 591.8262,187.9565 591.8269,183.4432 591.8292,178.3658 591.8299,179.7762 591.8307,164.2617 591.8314,152.6963 591.8322,154.9529 591.8344,140.5668 591.8352,136.3355 591.8359,116.5898 591.8367,91.4845 591.8374,80.7654 591.8397,89.5099 591.8404,95.7157 591.8412,110.6661 591.8419,120.821 591.8427,115.1794 591.8449,149.3113 591.8457,145.6442 591.8464,163.4154 591.8472,171.3137 591.8479,183.4432 591.8502,184.0074 591.8509,207.7023 591.8517,203.189 591.8532,216.1647 591.8554,204.3173 591.8562,216.4468 591.8569,217.011 591.8577,211.9335 591.8584,215.8827 591.8614,240.988 591.8622,258.195 591.8629,264.4008 591.8636,259.8874 591.8659,283.5823 591.8666,301.9177 591.8674,308.1235 591.8689,319.4067 591.8711,327.023 591.8719,333.5108 591.8726,343.1016 591.8734,346.4866 591.8741,350.7178 591.8771,350.9999 591.8779,360.8728 591.8816,362.5653 591.8824,363.6936 591.8869,365.6682 591.8876,367.3607 591.8884,367.0786 591.8891,365.104 591.8899,366.2324 591.8921,367.3607 591.8989,366.5144 591.9004,360.8728 591.9041,351.8462 591.9056,341.4091 591.9093,339.4346 591.9108,333.7929 591.9146,340.5629 591.9161,337.7421 591.9198,325.0484 591.9213,304.7385 591.9251,291.7627 591.9266,279.6332 591.9303,253.6816 591.9318,251.1429 591.9356,250.8608 591.9371,248.8863 591.9423,259.0412 591.9476,274.2736 591.9513,290.0702 591.9528,292.609 591.9565,301.6356 591.958,306.431 591.9618,317.7143 591.9633,318.8426 591.967,323.3559 591.9723,323.638 591.9738,313.7651 591.9775,299.661 591.979,267.5037 591.9828,256.7845 591.9843,226.0376 591.988,198.6757 591.9895,164.8258 591.9933,133.5147 591.9948,113.4869 591.9985,68.3538 592,32.5294" style="fill:none;stroke:rgb(31,119,180);stroke-width:2;stroke-linejoin:bevel" />
  <text dominant-baseline="hanging" text-anchor="middle" transform="translate(315.508,8)" font-family="Segoe UI" font-size="18" font-weight="700" fill="black">Aktive Fälle Stadt Aachen 26.11.2021</text>
  <polygon points="39.016,29.0795 592,29.0795 592,381 39.016,381" style="fill:none;stroke:black;stroke-width:1" />
  <polygon points="47.016,37.0795 233.487,37.0795 233.487,63.1325 47.016,63.1325" style="fill:none;stroke:none;" />
  <text dominant-baseline="hanging" text-anchor="start" transform="translate(75.016,45.0795)" font-family="Segoe UI" font-size="12" font-weight="400" fill="black">Aktive Fälle Stadt Aachen 26.11.2021</text>
  <polyline points="55.016,50.106 71.016,50.106" style="fill:none;stroke:rgb(31,119,180);stroke-width:2" />
</svg>