<?xml version="1.0" encoding="utf-8" standalone="no"?>
<!DOCTYPE svg PUBLIC "-//W3C//DTD SVG 1.1//EN" "http://www.w3.org/Graphics/SVG/1.1/DTD/svg11.dtd">
<svg width="600" height="400" version="1.1" xmlns:xlink="http://www.w3.org/1999/xlink" xmlns="http://www.w3.org/2000/svg">
  <rect x="0" y="0" width="600" height="400" style="fill:rgb(255,255,255);stroke:none;" />
  <polyline points="39.016,357.0495 35.016,357.0495" style="fill:none;stroke:black;stroke-width:1" />
  <polyline points="39.016,341.1212 35.016,341.1212" style="fill:none;stroke:black;stroke-width:1" />
  <polyline points="39.016,325.1929 35.016,325.1929" style="fill:none;stroke:black;stroke-width:1" />
  <polyline points="39.016,293.3363 35.016,293.3363" style="fill:none;stroke:black;stroke-width:1" />
  <polyline points="39.016,277.408 35.016,277.408" style="fill:none;stroke:black;stroke-width:1" />
  <polyline points="39.016,261.4797 35.016,261.4797" style="fill:none;stroke:black;stroke-width:1" />
  <polyline points="39.016,229.6231 35.016,229.6231" style="fill:none;stroke:black;stroke-width:1" />
  <polyline points="39.016,213.6948 35.016,213.6948" style="fill:none;stroke:black;stroke-width:1" />
  <polyline points="39.016,197.7665 35.016,197.7665" style="fill:none;stroke:black;stroke-width:1" />
  <polyline points="39.016,165.9099 35.016,165.9099" style="fill:none;stroke:black;stroke-width:1" />
  <polyline points="39.016,149.9816 35.016,149.9816" style="fill:none;stroke:black;stroke-width:1" />
  <polyline points="39.016,134.0533 35.016,134.0533" style="fill:none;stroke:black;stroke-width:1" />
  <polyline points="39.016,102.1968 35.016,102.1968" style="fill:none;stroke:black;stroke-width:1" />
  <polyline points="39.016,86.2685 35.016,86.2685" style="fill:none;stroke:black;stroke-width:1" />
  <polyline points="39.016,70.3402 35.016,70.3402" style="fill:none;stroke:black;stroke-width:1" />
  <polyline points="39.016,38.4836 35.016,38.4836" style="fill:none;stroke:black;stroke-width:1" />
  <polyline points="75.041,370.947 75.041,374.947" style="fill:none;stroke:black;stroke-width:1" />
  <polyline points="184.9173,370.947 184.9173,374.947" style="fill:none;stroke:black;stroke-width:1" />
  <polyline points="294.7936,370.947 294.7936,374.947" style="fill:none;stroke:black;stroke-width:1" />
  <polyline points="401.0674,370.947 401.0674,374.947" style="fill:none;stroke:black;stroke-width:1" />
  <polyline points="510.9437,370.947 510.9437,374.947" style="fill:none;stroke:black;stroke-width:1" />
  <text dominant-baseline="middle" text-anchor="end" transform="translate(28.016,309.2646)" font-family="Segoe UI" font-size="12" font-weight="400" fill="black">200</text>
  <text dominant-baseline="middle" text-anchor="end" transform="translate(28.016,245.5514)" font-family="Segoe UI" font-size="12" font-weight="400" fill="black">400</text>
  <text dominant-baseline="middle" text-anchor="end" transform="translate(28.016,181.8382)" font-family="Segoe UI" font-size="12" font-weight="400" fill="black">600</text>
  <text dominant-baseline="middle" text-anchor="end" transform="translate(28.016,118.125)" font-family="Segoe UI" font-size="12" font-weight="400" fill="black">800</text>
  <text dominant-baseline="middle" text-anchor="end" transform="translate(28.016,54.4119)" font-family="Segoe UI" font-size="12" font-weight="400" fill="black">1000</text>
  <polyline points="39.016,309.2646 32.016,309.2646" style="fill:none;stroke:black;stroke-width:1" />
  <polyline points="39.016,245.5514 32.016,245.5514" style="fill:none;stroke:black;stroke-width:1" />
  <polyline points="39.016,181.8382 32.016,181.8382" style="fill:none;stroke:black;stroke-width:1" />
  <polyline points="39.016,118.125 32.016,118.125" style="fill:none;stroke:black;stroke-width:1" />
  <polyline points="39.016,54.4119 32.016,54.4119" style="fill:none;stroke:black;stroke-width:1" />
  <text dominant-baseline="hanging" text-anchor="middle" transform="translate(129.0785,381.947)" font-family="Segoe UI" font-size="12" font-weight="400" fill="black">01. October</text>
  <text dominant-baseline="hanging" text-anchor="middle" transform="translate(238.9548,381.947)" font-family="Segoe UI" font-size="12" font-weight="400" fill="black">01. December</text>
  <text dominant-baseline="hanging" text-anchor="middle" transform="translate(350.6324,381.947)" font-family="Segoe UI" font-size="12" font-weight="400" fill="black">01. February</text>
  <text dominant-baseline="hanging" text-anchor="middle" transform="translate(456.9062,381.947)" font-family="Segoe UI" font-size="12" font-weight="400" fill="black">01. April</text>
  <text dominant-baseline="hanging" text-anchor="middle" transform="translate(566.7825,381.947)" font-family="Segoe UI" font-size="12" font-weight="400" fill="black">01. June</text>
  <polyline points="129.0785,370.947 129.0785,377.947" style="fill:none;stroke:black;stroke-width:1" />
  <polyline points="238.9548,370.947 238.9548,377.947" style="fill:none;stroke:black;stroke-width:1" />
  <polyline points="350.6324,370.947 350.6324,377.947" style="fill:none;stroke:black;stroke-width:1" />
  <polyline points="456.9062,370.947 456.9062,377.947" style="fill:none;stroke:black;stroke-width:1" />
  <polyline points="566.7825,370.947 566.7825,377.947" style="fill:none;stroke:black;stroke-width:1" />
  <polyline points="39.016,363.4208 42.6185,360.5537 48.0223,362.4651 49.8235,360.5537 51.6248,361.828 53.426,360.2352 55.2273,360.5537 60.631,360.8723 62.4323,363.4208 64.2335,363.7394 66.0348,363.1023 67.836,363.1023 73.2398,365.3322 75.041,366.2879 76.8423,366.2879 78.6435,365.6508 80.4448,365.9693 85.8485,365.9693 87.6498,367.5622 89.451,366.6065 91.2523,364.6951 93.0535,363.4208 98.4573,360.2352 100.2585,358.0052 102.0598,354.8195 103.861,354.501 105.6623,353.5453 111.066,356.4124 112.8673,357.0495 114.6685,356.7309 116.4698,355.4567 118.271,353.8638 123.6748,346.2183 125.476,347.174 127.2773,347.4925 129.0785,342.714 130.8798,338.2541 136.2835,333.1571 138.0848,337.617 139.886,333.4756 141.6873,329.0157 143.4885,327.7414 148.8923,318.1845 150.6936,325.5115 152.4948,321.6887 154.2961,313.0874 156.0973,300.6633 161.5011,284.735 163.3023,285.6907 165.1036,283.7793 166.9048,269.1253 168.7061,266.2582 174.1098,223.2518 175.9111,235.0387 177.7123,235.0387 179.5136,231.5345 181.3148,212.4206 186.7186,218.4733 188.5198,250.3299 190.3211,243.3215 192.1223,234.083 193.9236,230.2603 199.3273,208.9163 201.1286,221.9775 202.9298,212.7391 206.5323,194.8994 211.9361,191.0766 213.7373,208.9163 215.5386,213.6948 217.3398,193.6252 219.1411,209.2349 224.5448,223.8889 226.3461,235.6759 228.1473,231.5345 229.9486,241.4101 231.7498,226.4375 237.1536,207.6421 238.9548,218.1548 240.7561,234.4016 242.5573,228.6674 244.3586,236.9501 249.7623,197.1294 251.5636,214.0134 253.3648,223.2518 255.1661,207.3235 256.9673,197.1294 262.3711,165.2728 264.1724,185.3425 265.9736,192.988 267.7749,182.1568 269.5761,164.9542 274.9799,140.4247 276.7811,159.2201 278.5824,175.1484 287.5886,139.469 289.3899,156.6715 291.1911,169.4142 292.9924,156.0344 300.1974,156.353 301.9986,173.5555 303.7999,197.7665 305.6011,203.1822 307.4024,184.7053 314.6074,220.0661 316.4086,236.313 318.2099,229.3046 320.0111,247.1443 325.4149,257.6569 327.2161,276.1338 329.0174,280.9122 330.8186,279.638 332.6199,276.7709 338.0236,276.4523 341.6261,283.7793 343.4274,270.3996 345.2286,261.7983 350.6324,263.0725 352.4336,277.7266 354.2349,290.4692 356.0361,284.4165 357.8374,284.4165 363.2411,295.8848 365.0424,304.1676 366.8436,299.3891 368.6449,289.8321 370.4461,280.2751 375.8499,287.2836 377.6512,310.8574 379.4524,309.5832 381.2537,302.8933 383.0549,317.2288 388.4587,323.2815 390.2599,329.0157 392.0612,325.1929 393.8624,323.9186 395.6637,325.5115 401.0674,327.1043 402.8687,335.0684 404.6699,329.6528 406.4712,312.4503 408.2724,311.4946 413.6762,298.4334 415.4774,298.4334 417.2787,293.3363 419.0799,285.3722 420.8812,275.4966 426.2849,268.8067 428.0862,269.7624 429.8874,270.3996 431.6887,250.3299 433.4899,236.6316 438.8937,219.7476 440.6949,220.0661 442.4962,221.3404 444.2974,199.3594 446.0987,195.218 451.5024,192.3509 453.3037,214.9691 455.1049,219.429 456.9062,211.7834 458.7074,188.5281 465.9124,174.1927 467.7137,176.7412 469.5149,153.4859 471.3162,148.3888 476.7199,142.6546 478.5212,144.2475 480.3224,126.7263 482.1237,113.6651 483.925,116.2137 489.3287,99.9668 491.13,95.1883 492.9312,72.8887 494.7325,44.5363 496.5337,32.4308 501.9375,42.3064 503.7387,49.3148 505.54,66.1988 507.3412,77.6672 509.1425,71.2959 514.5462,109.8423 516.3475,105.701 518.1487,125.7706 519.95,134.6905 521.7512,148.3888 527.155,149.0259 528.9562,175.7855 530.7575,170.6884 534.36,185.3425 539.7637,171.9627 541.565,185.661 543.3662,186.2982 545.1675,180.564 546.9687,185.0239 554.1737,213.3763 555.975,232.8088 557.7762,239.8172 559.5775,234.7202 564.9812,261.4797 566.7825,282.1865 568.5837,289.195 572.1862,301.9376 577.59,310.5389 579.3912,317.8659 581.1925,328.6971 582.9937,332.5199 584.795,337.2984 590.1987,338.5727 592,337.617" style="fill:none;stroke:rgb(31,119,180);stroke-width:2;stroke-linejoin:bevel" />
  <text dominant-baseline="hanging" text-anchor="middle" transform="translate(315.508,8)" font-family="Segoe UI" font-size="18" font-weight="700" fill="black">Aktive Fälle Stadt Aachen 15.06.2021</text>
  <polygon points="39.016,29.0795 592,29.0795 592,370.947 39.016,370.947" style="fill:none;stroke:black;stroke-width:1" />
  <polygon points="47.016,37.0795 233.487,37.0795 233.487,63.1325 47.016,63.1325" style="fill:none;stroke:none;" />
  <text dominant-baseline="hanging" text-anchor="start" transform="translate(75.016,45.0795)" font-family="Segoe UI" font-size="12" font-weight="400" fill="black">Aktive Fälle Stadt Aachen 15.06.2021</text>
  <polyline points="55.016,50.106 71.016,50.106" style="fill:none;stroke:rgb(31,119,180);stroke-width:2" />
</svg>