<?xml version="1.0" encoding="utf-8" standalone="no"?>
<!DOCTYPE svg PUBLIC "-//W3C//DTD SVG 1.1//EN" "http://www.w3.org/Graphics/SVG/1.1/DTD/svg11.dtd">
<svg width="600" height="400" version="1.1" xmlns:xlink="http://www.w3.org/1999/xlink" xmlns="http://www.w3.org/2000/svg">
  <rect x="0" y="0" width="600" height="400" style="fill:rgb(255,255,255);stroke:none;" />
  <polyline points="39.016,357.0495 35.016,357.0495" style="fill:none;stroke:black;stroke-width:1" />
  <polyline points="39.016,341.1212 35.016,341.1212" style="fill:none;stroke:black;stroke-width:1" />
  <polyline points="39.016,325.1929 35.016,325.1929" style="fill:none;stroke:black;stroke-width:1" />
  <polyline points="39.016,293.3363 35.016,293.3363" style="fill:none;stroke:black;stroke-width:1" />
  <polyline points="39.016,277.408 35.016,277.408" style="fill:none;stroke:black;stroke-width:1" />
  <polyline points="39.016,261.4797 35.016,261.4797" style="fill:none;stroke:black;stroke-width:1" />
  <polyline points="39.016,229.6231 35.016,229.6231" style="fill:none;stroke:black;stroke-width:1" />
  <polyline points="39.016,213.6948 35.016,213.6948" style="fill:none;stroke:black;stroke-width:1" />
  <polyline points="39.016,197.7665 35.016,197.7665" style="fill:none;stroke:black;stroke-width:1" />
  <polyline points="39.016,165.9099 35.016,165.9099" style="fill:none;stroke:black;stroke-width:1" />
  <polyline points="39.016,149.9816 35.016,149.9816" style="fill:none;stroke:black;stroke-width:1" />
  <polyline points="39.016,134.0533 35.016,134.0533" style="fill:none;stroke:black;stroke-width:1" />
  <polyline points="39.016,102.1968 35.016,102.1968" style="fill:none;stroke:black;stroke-width:1" />
  <polyline points="39.016,86.2685 35.016,86.2685" style="fill:none;stroke:black;stroke-width:1" />
  <polyline points="39.016,70.3402 35.016,70.3402" style="fill:none;stroke:black;stroke-width:1" />
  <polyline points="39.016,38.4836 35.016,38.4836" style="fill:none;stroke:black;stroke-width:1" />
  <polyline points="70.6151,370.947 70.6151,374.947" style="fill:none;stroke:black;stroke-width:1" />
  <polyline points="166.9923,370.947 166.9923,374.947" style="fill:none;stroke:black;stroke-width:1" />
  <polyline points="263.3695,370.947 263.3695,374.947" style="fill:none;stroke:black;stroke-width:1" />
  <polyline points="356.5868,370.947 356.5868,374.947" style="fill:none;stroke:black;stroke-width:1" />
  <polyline points="452.964,370.947 452.964,374.947" style="fill:none;stroke:black;stroke-width:1" />
  <polyline points="549.3412,370.947 549.3412,374.947" style="fill:none;stroke:black;stroke-width:1" />
  <text dominant-baseline="middle" text-anchor="end" transform="translate(28.016,309.2646)" font-family="Segoe UI" font-size="12" font-weight="400" fill="black">200</text>
  <text dominant-baseline="middle" text-anchor="end" transform="translate(28.016,245.5514)" font-family="Segoe UI" font-size="12" font-weight="400" fill="black">400</text>
  <text dominant-baseline="middle" text-anchor="end" transform="translate(28.016,181.8382)" font-family="Segoe UI" font-size="12" font-weight="400" fill="black">600</text>
  <text dominant-baseline="middle" text-anchor="end" transform="translate(28.016,118.125)" font-family="Segoe UI" font-size="12" font-weight="400" fill="black">800</text>
  <text dominant-baseline="middle" text-anchor="end" transform="translate(28.016,54.4119)" font-family="Segoe UI" font-size="12" font-weight="400" fill="black">1000</text>
  <polyline points="39.016,309.2646 32.016,309.2646" style="fill:none;stroke:black;stroke-width:1" />
  <polyline points="39.016,245.5514 32.016,245.5514" style="fill:none;stroke:black;stroke-width:1" />
  <polyline points="39.016,181.8382 32.016,181.8382" style="fill:none;stroke:black;stroke-width:1" />
  <polyline points="39.016,118.125 32.016,118.125" style="fill:none;stroke:black;stroke-width:1" />
  <polyline points="39.016,54.4119 32.016,54.4119" style="fill:none;stroke:black;stroke-width:1" />
  <text dominant-baseline="hanging" text-anchor="middle" transform="translate(118.0137,381.947)" font-family="Segoe UI" font-size="12" font-weight="400" fill="black">01. October</text>
  <text dominant-baseline="hanging" text-anchor="middle" transform="translate(214.3909,381.947)" font-family="Segoe UI" font-size="12" font-weight="400" fill="black">01. December</text>
  <text dominant-baseline="hanging" text-anchor="middle" transform="translate(312.3481,381.947)" font-family="Segoe UI" font-size="12" font-weight="400" fill="black">01. February</text>
  <text dominant-baseline="hanging" text-anchor="middle" transform="translate(405.5654,381.947)" font-family="Segoe UI" font-size="12" font-weight="400" fill="black">01. April</text>
  <text dominant-baseline="hanging" text-anchor="middle" transform="translate(501.9426,381.947)" font-family="Segoe UI" font-size="12" font-weight="400" fill="black">01. June</text>
  <polyline points="118.0137,370.947 118.0137,377.947" style="fill:none;stroke:black;stroke-width:1" />
  <polyline points="214.3909,370.947 214.3909,377.947" style="fill:none;stroke:black;stroke-width:1" />
  <polyline points="312.3481,370.947 312.3481,377.947" style="fill:none;stroke:black;stroke-width:1" />
  <polyline points="405.5654,370.947 405.5654,377.947" style="fill:none;stroke:black;stroke-width:1" />
  <polyline points="501.9426,370.947 501.9426,377.947" style="fill:none;stroke:black;stroke-width:1" />
  <polyline points="39.016,363.4208 42.1759,360.5537 46.9158,362.4651 48.4957,360.5537 50.0757,361.828 51.6556,360.2352 53.2356,360.5537 57.9755,360.8723 59.5554,363.4208 61.1354,363.7394 62.7153,363.1023 64.2953,363.1023 69.0351,365.3322 70.6151,366.2879 72.195,366.2879 73.775,365.6508 75.3549,365.9693 80.0948,365.9693 81.6748,367.5622 83.2547,366.6065 84.8347,364.6951 86.4146,363.4208 91.1545,360.2352 92.7344,358.0052 94.3144,354.8195 95.8944,354.501 97.4743,353.5453 102.2142,356.4124 103.7941,357.0495 105.3741,356.7309 106.954,355.4567 108.534,353.8638 113.2739,346.2183 114.8538,347.174 116.4338,347.4925 118.0137,342.714 119.5937,338.2541 124.3335,333.1571 125.9135,337.617 127.4934,333.4756 129.0734,329.0157 130.6533,327.7414 135.3932,318.1845 136.9732,325.5115 138.5531,321.6887 140.1331,313.0874 141.713,300.6633 146.4529,284.735 148.0328,285.6907 149.6128,283.7793 151.1928,269.1253 152.7727,266.2582 157.5126,223.2518 159.0925,235.0387 160.6725,235.0387 162.2524,231.5345 163.8324,212.4206 168.5723,218.4733 170.1522,250.3299 171.7322,243.3215 173.3121,234.083 174.8921,230.2603 179.6319,208.9163 181.2119,221.9775 182.7918,212.7391 185.9517,194.8994 190.6916,191.0766 192.2716,208.9163 193.8515,213.6948 195.4315,193.6252 197.0114,209.2349 201.7513,223.8889 203.3312,235.6759 204.9112,231.5345 206.4912,241.4101 208.0711,226.4375 212.811,207.6421 214.3909,218.1548 215.9709,234.4016 217.5508,228.6674 219.1308,236.9501 223.8707,197.1294 225.4506,214.0134 227.0306,223.2518 228.6105,207.3235 230.1905,197.1294 234.9303,165.2728 236.5103,185.3425 238.0902,192.988 239.6702,182.1568 241.2501,164.9542 245.99,140.4247 247.57,159.2201 249.1499,175.1484 257.0497,139.469 258.6296,156.6715 260.2096,169.4142 261.7896,156.0344 268.1094,156.353 269.6893,173.5555 271.2693,197.7665 272.8492,203.1822 274.4292,184.7053 280.749,220.0661 282.329,236.313 283.9089,229.3046 285.4889,247.1443 290.2287,257.6569 291.8087,276.1338 293.3886,280.9122 294.9686,279.638 296.5485,276.7709 301.2884,276.4523 304.4483,283.7793 306.0283,270.3996 307.6082,261.7983 312.3481,263.0725 313.928,277.7266 315.508,290.4692 317.088,284.4165 318.6679,284.4165 323.4078,295.8848 324.9877,304.1676 326.5677,299.3891 328.1476,289.8321 329.7276,280.2751 334.4675,287.2836 336.0474,310.8574 337.6274,309.5832 339.2073,302.8933 340.7873,317.2288 345.5271,323.2815 347.1071,329.0157 348.687,325.1929 350.267,323.9186 351.8469,325.5115 356.5868,327.1043 358.1668,335.0684 359.7467,329.6528 361.3267,312.4503 362.9066,311.4946 367.6465,298.4334 369.2264,298.4334 370.8064,293.3363 372.3864,285.3722 373.9663,275.4966 378.7062,268.8067 380.2861,269.7624 381.8661,270.3996 383.446,250.3299 385.026,236.6316 389.7659,219.7476 391.3458,220.0661 392.9258,221.3404 394.5057,199.3594 396.0857,195.218 400.8255,192.3509 402.4055,214.9691 403.9854,219.429 405.5654,211.7834 407.1453,188.5281 413.4652,174.1927 415.0451,176.7412 416.6251,153.4859 418.205,148.3888 422.9449,142.6546 424.5248,144.2475 426.1048,126.7263 427.6848,113.6651 429.2647,116.2137 434.0046,99.9668 435.5845,95.1883 437.1645,72.8887 438.7444,44.5363 440.3244,32.4308 445.0643,42.3064 446.6442,49.3148 448.2242,66.1988 449.8041,77.6672 451.3841,71.2959 456.1239,109.8423 457.7039,105.701 459.2838,125.7706 460.8638,134.6905 462.4437,148.3888 467.1836,149.0259 468.7636,175.7855 470.3435,170.6884 473.5034,185.3425 478.2433,171.9627 479.8232,185.661 481.4032,186.2982 482.9832,180.564 484.5631,185.0239 490.8829,213.3763 492.4629,232.8088 494.0428,239.8172 495.6228,234.7202 500.3627,261.4797 501.9426,282.1865 503.5226,289.195 506.6825,301.9376 511.4223,310.5389 513.0023,317.8659 514.5822,328.6971 516.1622,332.5199 517.7421,337.2984 522.482,338.5727 524.062,337.617 525.6419,348.7668 527.2219,348.1297 528.8018,349.7225 533.5417,350.6782 535.1216,351.9524 536.7016,352.5896 538.2816,352.9081 539.8615,352.9081 544.6014,354.1824 546.1813,356.0938 547.7613,355.7752 549.3412,353.5453 550.9212,354.8195 555.6611,356.0938 558.821,355.7752 561.9809,356.4124 566.7207,356.0938 569.8806,355.1381 573.0405,348.7668 580.9403,338.5727 584.1002,326.7857 592,324.5558" style="fill:none;stroke:rgb(31,119,180);stroke-width:2;stroke-linejoin:bevel" />
  <text dominant-baseline="hanging" text-anchor="middle" transform="translate(315.508,8)" font-family="Segoe UI" font-size="18" font-weight="700" fill="black">Aktive Fälle Stadt Aachen 28.07.2021</text>
  <polygon points="39.016,29.0795 592,29.0795 592,370.947 39.016,370.947" style="fill:none;stroke:black;stroke-width:1" />
  <polygon points="47.016,37.0795 233.487,37.0795 233.487,63.1325 47.016,63.1325" style="fill:none;stroke:none;" />
  <text dominant-baseline="hanging" text-anchor="start" transform="translate(75.016,45.0795)" font-family="Segoe UI" font-size="12" font-weight="400" fill="black">Aktive Fälle Stadt Aachen 28.07.2021</text>
  <polyline points="55.016,50.106 71.016,50.106" style="fill:none;stroke:rgb(31,119,180);stroke-width:2" />
</svg>