<?xml version="1.0" encoding="utf-8" standalone="no"?>
<!DOCTYPE svg PUBLIC "-//W3C//DTD SVG 1.1//EN" "http://www.w3.org/Graphics/SVG/1.1/DTD/svg11.dtd">
<svg width="600" height="400" version="1.1" xmlns:xlink="http://www.w3.org/1999/xlink" xmlns="http://www.w3.org/2000/svg">
  <rect x="0" y="0" width="600" height="400" style="fill:rgb(255,255,255);stroke:none;" />
  <polyline points="39.016,357.0495 35.016,357.0495" style="fill:none;stroke:black;stroke-width:1" />
  <polyline points="39.016,341.1212 35.016,341.1212" style="fill:none;stroke:black;stroke-width:1" />
  <polyline points="39.016,325.1929 35.016,325.1929" style="fill:none;stroke:black;stroke-width:1" />
  <polyline points="39.016,293.3363 35.016,293.3363" style="fill:none;stroke:black;stroke-width:1" />
  <polyline points="39.016,277.408 35.016,277.408" style="fill:none;stroke:black;stroke-width:1" />
  <polyline points="39.016,261.4797 35.016,261.4797" style="fill:none;stroke:black;stroke-width:1" />
  <polyline points="39.016,229.6231 35.016,229.6231" style="fill:none;stroke:black;stroke-width:1" />
  <polyline points="39.016,213.6948 35.016,213.6948" style="fill:none;stroke:black;stroke-width:1" />
  <polyline points="39.016,197.7665 35.016,197.7665" style="fill:none;stroke:black;stroke-width:1" />
  <polyline points="39.016,165.9099 35.016,165.9099" style="fill:none;stroke:black;stroke-width:1" />
  <polyline points="39.016,149.9816 35.016,149.9816" style="fill:none;stroke:black;stroke-width:1" />
  <polyline points="39.016,134.0533 35.016,134.0533" style="fill:none;stroke:black;stroke-width:1" />
  <polyline points="39.016,102.1968 35.016,102.1968" style="fill:none;stroke:black;stroke-width:1" />
  <polyline points="39.016,86.2685 35.016,86.2685" style="fill:none;stroke:black;stroke-width:1" />
  <polyline points="39.016,70.3402 35.016,70.3402" style="fill:none;stroke:black;stroke-width:1" />
  <polyline points="39.016,38.4836 35.016,38.4836" style="fill:none;stroke:black;stroke-width:1" />
  <polyline points="76.7623,370.947 76.7623,374.947" style="fill:none;stroke:black;stroke-width:1" />
  <polyline points="191.8887,370.947 191.8887,374.947" style="fill:none;stroke:black;stroke-width:1" />
  <polyline points="307.0151,370.947 307.0151,374.947" style="fill:none;stroke:black;stroke-width:1" />
  <polyline points="418.3668,370.947 418.3668,374.947" style="fill:none;stroke:black;stroke-width:1" />
  <polyline points="533.4932,370.947 533.4932,374.947" style="fill:none;stroke:black;stroke-width:1" />
  <text dominant-baseline="middle" text-anchor="end" transform="translate(28.016,309.2646)" font-family="Segoe UI" font-size="12" font-weight="400" fill="black">200</text>
  <text dominant-baseline="middle" text-anchor="end" transform="translate(28.016,245.5514)" font-family="Segoe UI" font-size="12" font-weight="400" fill="black">400</text>
  <text dominant-baseline="middle" text-anchor="end" transform="translate(28.016,181.8382)" font-family="Segoe UI" font-size="12" font-weight="400" fill="black">600</text>
  <text dominant-baseline="middle" text-anchor="end" transform="translate(28.016,118.125)" font-family="Segoe UI" font-size="12" font-weight="400" fill="black">800</text>
  <text dominant-baseline="middle" text-anchor="end" transform="translate(28.016,54.4119)" font-family="Segoe UI" font-size="12" font-weight="400" fill="black">1000</text>
  <polyline points="39.016,309.2646 32.016,309.2646" style="fill:none;stroke:black;stroke-width:1" />
  <polyline points="39.016,245.5514 32.016,245.5514" style="fill:none;stroke:black;stroke-width:1" />
  <polyline points="39.016,181.8382 32.016,181.8382" style="fill:none;stroke:black;stroke-width:1" />
  <polyline points="39.016,118.125 32.016,118.125" style="fill:none;stroke:black;stroke-width:1" />
  <polyline points="39.016,54.4119 32.016,54.4119" style="fill:none;stroke:black;stroke-width:1" />
  <text dominant-baseline="hanging" text-anchor="middle" transform="translate(133.3819,381.947)" font-family="Segoe UI" font-size="12" font-weight="400" fill="black">01. October</text>
  <text dominant-baseline="hanging" text-anchor="middle" transform="translate(248.5082,381.947)" font-family="Segoe UI" font-size="12" font-weight="400" fill="black">01. December</text>
  <text dominant-baseline="hanging" text-anchor="middle" transform="translate(365.5219,381.947)" font-family="Segoe UI" font-size="12" font-weight="400" fill="black">01. February</text>
  <text dominant-baseline="hanging" text-anchor="middle" transform="translate(476.8736,381.947)" font-family="Segoe UI" font-size="12" font-weight="400" fill="black">01. April</text>
  <text dominant-baseline="hanging" text-anchor="middle" transform="translate(592,381.947)" font-family="Segoe UI" font-size="12" font-weight="400" fill="black">01. June</text>
  <polyline points="133.3819,370.947 133.3819,377.947" style="fill:none;stroke:black;stroke-width:1" />
  <polyline points="248.5082,370.947 248.5082,377.947" style="fill:none;stroke:black;stroke-width:1" />
  <polyline points="365.5219,370.947 365.5219,377.947" style="fill:none;stroke:black;stroke-width:1" />
  <polyline points="476.8736,370.947 476.8736,377.947" style="fill:none;stroke:black;stroke-width:1" />
  <polyline points="592,370.947 592,377.947" style="fill:none;stroke:black;stroke-width:1" />
  <polyline points="39.016,363.4208 42.7906,360.5537 48.4526,362.4651 50.3399,360.5537 52.2272,361.828 54.1145,360.2352 56.0019,360.5537 61.6638,360.8723 63.5511,363.4208 65.4384,363.7394 67.3258,363.1023 69.2131,363.1023 74.875,365.3322 76.7623,366.2879 78.6497,366.2879 80.537,365.6508 82.4243,365.9693 88.0863,365.9693 89.9736,367.5622 91.8609,366.6065 93.7482,364.6951 95.6355,363.4208 101.2975,360.2352 103.1848,358.0052 105.0721,354.8195 106.9594,354.501 108.8467,353.5453 114.5087,356.4124 116.396,357.0495 118.2833,356.7309 120.1706,355.4567 122.058,353.8638 127.7199,346.2183 129.6072,347.174 131.4946,347.4925 133.3819,342.714 135.2692,338.2541 140.9311,333.1571 142.8185,337.617 144.7058,333.4756 146.5931,329.0157 148.4804,327.7414 154.1424,318.1845 156.0297,325.5115 157.917,321.6887 159.8043,313.0874 161.6916,300.6633 167.3536,284.735 169.2409,285.6907 171.1282,283.7793 173.0155,269.1253 174.9029,266.2582 180.5648,223.2518 182.4521,235.0387 184.3394,235.0387 186.2268,231.5345 188.1141,212.4206 193.776,218.4733 195.6633,250.3299 197.5507,243.3215 199.438,234.083 201.3253,230.2603 206.9872,208.9163 208.8746,221.9775 210.7619,212.7391 214.5365,194.8994 220.1985,191.0766 222.0858,208.9163 223.9731,213.6948 225.8604,193.6252 227.7477,209.2349 233.4097,223.8889 235.297,235.6759 237.1843,231.5345 239.0716,241.4101 240.959,226.4375 246.6209,207.6421 248.5082,218.1548 250.3955,234.4016 252.2829,228.6674 254.1702,236.9501 259.8321,197.1294 261.7195,214.0134 263.6068,223.2518 265.4941,207.3235 267.3814,197.1294 273.0434,165.2728 274.9307,185.3425 276.818,192.988 278.7053,182.1568 280.5926,164.9542 286.2546,140.4247 288.1419,159.2201 290.0292,175.1484 299.4658,139.469 301.3531,156.6715 303.2404,169.4142 305.1278,156.0344 312.677,156.353 314.5643,173.5555 316.4517,197.7665 318.339,203.1822 320.2263,184.7053 327.7756,220.0661 329.6629,236.313 331.5502,229.3046 333.4375,247.1443 339.0995,257.6569 340.9868,276.1338 342.8741,280.9122 344.7614,279.638 346.6487,276.7709 352.3107,276.4523 356.0853,283.7793 357.9726,270.3996 359.86,261.7983 365.5219,263.0725 367.4092,277.7266 369.2965,290.4692 371.1839,284.4165 373.0712,284.4165 378.7331,295.8848 380.6205,304.1676 382.5078,299.3891 384.3951,289.8321 386.2824,280.2751 391.9444,287.2836 393.8317,310.8574 395.719,309.5832 397.6063,302.8933 399.4936,317.2288 405.1556,323.2815 407.0429,329.0157 408.9302,325.1929 410.8175,323.9186 412.7048,325.5115 418.3668,327.1043 420.2541,335.0684 422.1414,329.6528 424.0288,312.4503 425.9161,311.4946 431.578,298.4334 433.4653,298.4334 435.3527,293.3363 437.24,285.3722 439.1273,275.4966 444.7892,268.8067 446.6766,269.7624 448.5639,270.3996 450.4512,250.3299 452.3385,236.6316 458.0005,219.7476 459.8878,220.0661 461.7751,221.3404 463.6624,199.3594 465.5497,195.218 471.2117,192.3509 473.099,214.9691 474.9863,219.429 476.8736,211.7834 478.761,188.5281 486.3102,174.1927 488.1975,176.7412 490.0849,153.4859 491.9722,148.3888 497.6341,142.6546 499.5214,144.2475 501.4088,126.7263 503.2961,113.6651 505.1834,116.2137 510.8454,99.9668 512.7327,95.1883 514.62,72.8887 516.5073,44.5363 518.3946,32.4308 524.0566,42.3064 525.9439,49.3148 527.8312,66.1988 529.7185,77.6672 531.6058,71.2959 537.2678,109.8423 539.1551,105.701 541.0424,125.7706 542.9297,134.6905 544.8171,148.3888 550.479,149.0259 552.3663,175.7855 554.2537,170.6884 558.0283,185.3425 563.6902,171.9627 565.5776,185.661 567.4649,186.2982 569.3522,180.564 571.2395,185.0239 578.7888,213.3763 580.6761,232.8088 582.5634,239.8172 584.4507,234.7202 590.1127,261.4797 592,282.1865" style="fill:none;stroke:rgb(31,119,180);stroke-width:2;stroke-linejoin:bevel" />
  <text dominant-baseline="hanging" text-anchor="middle" transform="translate(315.508,8)" font-family="Segoe UI" font-size="18" font-weight="700" fill="black">Aktive Fälle Stadt Aachen 01.06.2021</text>
  <polygon points="39.016,29.0795 592,29.0795 592,370.947 39.016,370.947" style="fill:none;stroke:black;stroke-width:1" />
  <polygon points="47.016,37.0795 233.487,37.0795 233.487,63.1325 47.016,63.1325" style="fill:none;stroke:none;" />
  <text dominant-baseline="hanging" text-anchor="start" transform="translate(75.016,45.0795)" font-family="Segoe UI" font-size="12" font-weight="400" fill="black">Aktive Fälle Stadt Aachen 01.06.2021</text>
  <polyline points="55.016,50.106 71.016,50.106" style="fill:none;stroke:rgb(31,119,180);stroke-width:2" />
</svg>