<?xml version="1.0" encoding="utf-8" standalone="no"?>
<!DOCTYPE svg PUBLIC "-//W3C//DTD SVG 1.1//EN" "http://www.w3.org/Graphics/SVG/1.1/DTD/svg11.dtd">
<svg width="600" height="400" version="1.1" xmlns:xlink="http://www.w3.org/1999/xlink" xmlns="http://www.w3.org/2000/svg">
  <rect x="0" y="0" width="600" height="400" style="fill:rgb(255,255,255);stroke:none;" />
  <polyline points="39.016,357.0495 35.016,357.0495" style="fill:none;stroke:black;stroke-width:1" />
  <polyline points="39.016,341.1212 35.016,341.1212" style="fill:none;stroke:black;stroke-width:1" />
  <polyline points="39.016,325.1929 35.016,325.1929" style="fill:none;stroke:black;stroke-width:1" />
  <polyline points="39.016,293.3363 35.016,293.3363" style="fill:none;stroke:black;stroke-width:1" />
  <polyline points="39.016,277.408 35.016,277.408" style="fill:none;stroke:black;stroke-width:1" />
  <polyline points="39.016,261.4797 35.016,261.4797" style="fill:none;stroke:black;stroke-width:1" />
  <polyline points="39.016,229.6231 35.016,229.6231" style="fill:none;stroke:black;stroke-width:1" />
  <polyline points="39.016,213.6948 35.016,213.6948" style="fill:none;stroke:black;stroke-width:1" />
  <polyline points="39.016,197.7665 35.016,197.7665" style="fill:none;stroke:black;stroke-width:1" />
  <polyline points="39.016,165.9099 35.016,165.9099" style="fill:none;stroke:black;stroke-width:1" />
  <polyline points="39.016,149.9816 35.016,149.9816" style="fill:none;stroke:black;stroke-width:1" />
  <polyline points="39.016,134.0533 35.016,134.0533" style="fill:none;stroke:black;stroke-width:1" />
  <polyline points="39.016,102.1968 35.016,102.1968" style="fill:none;stroke:black;stroke-width:1" />
  <polyline points="39.016,86.2685 35.016,86.2685" style="fill:none;stroke:black;stroke-width:1" />
  <polyline points="39.016,70.3402 35.016,70.3402" style="fill:none;stroke:black;stroke-width:1" />
  <polyline points="39.016,38.4836 35.016,38.4836" style="fill:none;stroke:black;stroke-width:1" />
  <text dominant-baseline="middle" text-anchor="end" transform="translate(28.016,309.2646)" font-family="Segoe UI" font-size="12" font-weight="400" fill="black">200</text>
  <text dominant-baseline="middle" text-anchor="end" transform="translate(28.016,245.5514)" font-family="Segoe UI" font-size="12" font-weight="400" fill="black">400</text>
  <text dominant-baseline="middle" text-anchor="end" transform="translate(28.016,181.8382)" font-family="Segoe UI" font-size="12" font-weight="400" fill="black">600</text>
  <text dominant-baseline="middle" text-anchor="end" transform="translate(28.016,118.125)" font-family="Segoe UI" font-size="12" font-weight="400" fill="black">800</text>
  <text dominant-baseline="middle" text-anchor="end" transform="translate(28.016,54.4119)" font-family="Segoe UI" font-size="12" font-weight="400" fill="black">1000</text>
  <polyline points="39.016,309.2646 32.016,309.2646" style="fill:none;stroke:black;stroke-width:1" />
  <polyline points="39.016,245.5514 32.016,245.5514" style="fill:none;stroke:black;stroke-width:1" />
  <polyline points="39.016,181.8382 32.016,181.8382" style="fill:none;stroke:black;stroke-width:1" />
  <polyline points="39.016,118.125 32.016,118.125" style="fill:none;stroke:black;stroke-width:1" />
  <polyline points="39.016,54.4119 32.016,54.4119" style="fill:none;stroke:black;stroke-width:1" />
  <text dominant-baseline="hanging" text-anchor="middle" transform="translate(81.3903,381.947)" font-family="Segoe UI" font-size="12" font-weight="400" fill="black">01. September</text>
  <text dominant-baseline="hanging" text-anchor="middle" transform="translate(144.9516,381.947)" font-family="Segoe UI" font-size="12" font-weight="400" fill="black">01. October</text>
  <text dominant-baseline="hanging" text-anchor="middle" transform="translate(210.6317,381.947)" font-family="Segoe UI" font-size="12" font-weight="400" fill="black">01. November</text>
  <text dominant-baseline="hanging" text-anchor="middle" transform="translate(274.1931,381.947)" font-family="Segoe UI" font-size="12" font-weight="400" fill="black">01. December</text>
  <text dominant-baseline="hanging" text-anchor="middle" transform="translate(339.8732,381.947)" font-family="Segoe UI" font-size="12" font-weight="400" fill="black">01. January</text>
  <text dominant-baseline="hanging" text-anchor="middle" transform="translate(405.5533,381.947)" font-family="Segoe UI" font-size="12" font-weight="400" fill="black">01. February</text>
  <text dominant-baseline="hanging" text-anchor="middle" transform="translate(464.8772,381.947)" font-family="Segoe UI" font-size="12" font-weight="400" fill="black">01. March</text>
  <text dominant-baseline="hanging" text-anchor="middle" transform="translate(530.5573,381.947)" font-family="Segoe UI" font-size="12" font-weight="400" fill="black">01. April</text>
  <polyline points="81.3903,370.947 81.3903,377.947" style="fill:none;stroke:black;stroke-width:1" />
  <polyline points="144.9516,370.947 144.9516,377.947" style="fill:none;stroke:black;stroke-width:1" />
  <polyline points="210.6317,370.947 210.6317,377.947" style="fill:none;stroke:black;stroke-width:1" />
  <polyline points="274.1931,370.947 274.1931,377.947" style="fill:none;stroke:black;stroke-width:1" />
  <polyline points="339.8732,370.947 339.8732,377.947" style="fill:none;stroke:black;stroke-width:1" />
  <polyline points="405.5533,370.947 405.5533,377.947" style="fill:none;stroke:black;stroke-width:1" />
  <polyline points="464.8772,370.947 464.8772,377.947" style="fill:none;stroke:black;stroke-width:1" />
  <polyline points="530.5573,370.947 530.5573,377.947" style="fill:none;stroke:black;stroke-width:1" />
  <polyline points="39.016,363.4208 43.2534,360.5537 49.6096,362.4651 51.7283,360.5537 53.847,361.828 55.9657,360.2352 58.0844,360.5537 64.4406,360.8723 66.5593,363.4208 68.678,363.7394 70.7967,363.1023 72.9154,363.1023 79.2715,365.3322 81.3903,366.2879 83.509,366.2879 85.6277,365.6508 87.7464,365.9693 94.1025,365.9693 96.2212,367.5622 98.34,366.6065 100.4587,364.6951 102.5774,363.4208 108.9335,360.2352 111.0522,358.0052 113.1709,354.8195 115.2897,354.501 117.4084,353.5453 123.7645,356.4124 125.8832,357.0495 128.0019,356.7309 130.1206,355.4567 132.2394,353.8638 138.5955,346.2183 140.7142,347.174 142.8329,347.4925 144.9516,342.714 147.0703,338.2541 153.4265,333.1571 155.5452,337.617 157.6639,333.4756 159.7826,329.0157 161.9013,327.7414 168.2575,318.1845 170.3762,325.5115 172.4949,321.6887 174.6136,313.0874 176.7323,300.6633 183.0885,284.735 185.2072,285.6907 187.3259,283.7793 189.4446,269.1253 191.5633,266.2582 197.9194,223.2518 200.0382,235.0387 202.1569,235.0387 204.2756,231.5345 206.3943,212.4206 212.7504,218.4733 214.8691,250.3299 216.9879,243.3215 219.1066,234.083 221.2253,230.2603 227.5814,208.9163 229.7001,221.9775 231.8189,212.7391 236.0563,194.8994 242.4124,191.0766 244.5311,208.9163 246.6498,213.6948 248.7686,193.6252 250.8873,209.2349 257.2434,223.8889 259.3621,235.6759 261.4808,231.5345 263.5995,241.4101 265.7183,226.4375 272.0744,207.6421 274.1931,218.1548 276.3118,234.4016 278.4305,228.6674 280.5492,236.9501 286.9054,197.1294 289.0241,214.0134 291.1428,223.2518 293.2615,207.3235 295.3802,197.1294 301.7364,165.2728 303.8551,185.3425 305.9738,192.988 308.0925,182.1568 310.2112,164.9542 316.5674,140.4247 318.6861,159.2201 320.8048,175.1484 331.3983,139.469 333.5171,156.6715 335.6358,169.4142 337.7545,156.0344 346.2293,156.353 348.348,173.5555 350.4668,197.7665 352.5855,203.1822 354.7042,184.7053 363.179,220.0661 365.2977,236.313 367.4165,229.3046 369.5352,247.1443 375.8913,257.6569 378.01,276.1338 380.1287,280.9122 382.2474,279.638 384.3662,276.7709 390.7223,276.4523 394.9597,283.7793 397.0784,270.3996 399.1971,261.7983 405.5533,263.0725 407.672,277.7266 409.7907,290.4692 411.9094,284.4165 414.0281,284.4165 420.3843,295.8848 422.503,304.1676 424.6217,299.3891 426.7404,289.8321 428.8591,280.2751 435.2153,287.2836 437.334,310.8574 439.4527,309.5832 441.5714,302.8933 443.6901,317.2288 450.0463,323.2815 452.165,329.0157 454.2837,325.1929 456.4024,323.9186 458.5211,325.5115 464.8772,327.1043 466.996,335.0684 469.1147,329.6528 471.2334,312.4503 473.3521,311.4946 479.7082,298.4334 481.8269,298.4334 483.9457,293.3363 486.0644,285.3722 488.1831,275.4966 494.5392,268.8067 496.6579,269.7624 498.7766,270.3996 500.8954,250.3299 503.0141,236.6316 509.3702,219.7476 511.4889,220.0661 513.6076,221.3404 515.7263,199.3594 517.8451,195.218 524.2012,192.3509 526.3199,214.9691 528.4386,219.429 530.5573,211.7834 532.676,188.5281 541.1509,174.1927 543.2696,176.7412 545.3883,153.4859 547.507,148.3888 553.8632,142.6546 555.9819,144.2475 558.1006,126.7263 560.2193,113.6651 562.338,116.2137 568.6942,99.9668 570.8129,95.1883 572.9316,72.8887 575.0503,44.5363 577.169,32.4308 583.5251,42.3064 585.6439,49.3148 587.7626,66.1988 589.8813,77.6672 592,71.2959" style="fill:none;stroke:rgb(31,119,180);stroke-width:2;stroke-linejoin:bevel" />
  <text dominant-baseline="hanging" text-anchor="middle" transform="translate(315.508,8)" font-family="Segoe UI" font-size="18" font-weight="700" fill="black">Aktive Fälle Stadt Aachen 30.04.2021</text>
  <polygon points="39.016,29.0795 592,29.0795 592,370.947 39.016,370.947" style="fill:none;stroke:black;stroke-width:1" />
  <polygon points="47.016,37.0795 233.487,37.0795 233.487,63.1325 47.016,63.1325" style="fill:none;stroke:none;" />
  <text dominant-baseline="hanging" text-anchor="start" transform="translate(75.016,45.0795)" font-family="Segoe UI" font-size="12" font-weight="400" fill="black">Aktive Fälle Stadt Aachen 30.04.2021</text>
  <polyline points="55.016,50.106 71.016,50.106" style="fill:none;stroke:rgb(31,119,180);stroke-width:2" />
</svg>