<?xml version="1.0" encoding="utf-8" standalone="no"?>
<!DOCTYPE svg PUBLIC "-//W3C//DTD SVG 1.1//EN" "http://www.w3.org/Graphics/SVG/1.1/DTD/svg11.dtd">
<svg width="600" height="400" version="1.1" xmlns:xlink="http://www.w3.org/1999/xlink" xmlns="http://www.w3.org/2000/svg">
  <rect x="0" y="0" width="600" height="400" style="fill:rgb(255,255,255);stroke:none;" />
  <polyline points="34.012,352.1162 30.012,352.1162" style="fill:none;stroke:black;stroke-width:1" />
  <polyline points="34.012,328.7131 30.012,328.7131" style="fill:none;stroke:black;stroke-width:1" />
  <polyline points="34.012,305.3101 30.012,305.3101" style="fill:none;stroke:black;stroke-width:1" />
  <polyline points="34.012,258.5041 30.012,258.5041" style="fill:none;stroke:black;stroke-width:1" />
  <polyline points="34.012,235.101 30.012,235.101" style="fill:none;stroke:black;stroke-width:1" />
  <polyline points="34.012,211.698 30.012,211.698" style="fill:none;stroke:black;stroke-width:1" />
  <polyline points="34.012,164.892 30.012,164.892" style="fill:none;stroke:black;stroke-width:1" />
  <polyline points="34.012,141.4889 30.012,141.4889" style="fill:none;stroke:black;stroke-width:1" />
  <polyline points="34.012,118.0859 30.012,118.0859" style="fill:none;stroke:black;stroke-width:1" />
  <polyline points="34.012,71.2798 30.012,71.2798" style="fill:none;stroke:black;stroke-width:1" />
  <polyline points="34.012,47.8768 30.012,47.8768" style="fill:none;stroke:black;stroke-width:1" />
  <text dominant-baseline="middle" text-anchor="end" transform="translate(23.012,281.9071)" font-family="Segoe UI" font-size="12" font-weight="400" fill="black">200</text>
  <text dominant-baseline="middle" text-anchor="end" transform="translate(23.012,188.295)" font-family="Segoe UI" font-size="12" font-weight="400" fill="black">400</text>
  <text dominant-baseline="middle" text-anchor="end" transform="translate(23.012,94.6829)" font-family="Segoe UI" font-size="12" font-weight="400" fill="black">600</text>
  <polyline points="34.012,281.9071 27.012,281.9071" style="fill:none;stroke:black;stroke-width:1" />
  <polyline points="34.012,188.295 27.012,188.295" style="fill:none;stroke:black;stroke-width:1" />
  <polyline points="34.012,94.6829 27.012,94.6829" style="fill:none;stroke:black;stroke-width:1" />
  <text dominant-baseline="hanging" text-anchor="middle" transform="translate(91.5365,381.947)" font-family="Segoe UI" font-size="12" font-weight="400" fill="black">01. September</text>
  <text dominant-baseline="hanging" text-anchor="middle" transform="translate(177.8233,381.947)" font-family="Segoe UI" font-size="12" font-weight="400" fill="black">01. October</text>
  <text dominant-baseline="hanging" text-anchor="middle" transform="translate(266.9864,381.947)" font-family="Segoe UI" font-size="12" font-weight="400" fill="black">01. November</text>
  <text dominant-baseline="hanging" text-anchor="middle" transform="translate(353.2732,381.947)" font-family="Segoe UI" font-size="12" font-weight="400" fill="black">01. December</text>
  <text dominant-baseline="hanging" text-anchor="middle" transform="translate(442.4362,381.947)" font-family="Segoe UI" font-size="12" font-weight="400" fill="black">01. January</text>
  <text dominant-baseline="hanging" text-anchor="middle" transform="translate(531.5992,381.947)" font-family="Segoe UI" font-size="12" font-weight="400" fill="black">01. February</text>
  <polyline points="91.5365,370.947 91.5365,377.947" style="fill:none;stroke:black;stroke-width:1" />
  <polyline points="177.8233,370.947 177.8233,377.947" style="fill:none;stroke:black;stroke-width:1" />
  <polyline points="266.9864,370.947 266.9864,377.947" style="fill:none;stroke:black;stroke-width:1" />
  <polyline points="353.2732,370.947 353.2732,377.947" style="fill:none;stroke:black;stroke-width:1" />
  <polyline points="442.4362,370.947 442.4362,377.947" style="fill:none;stroke:black;stroke-width:1" />
  <polyline points="531.5992,370.947 531.5992,377.947" style="fill:none;stroke:black;stroke-width:1" />
  <polyline points="34.012,361.4774 39.7645,357.2648 48.3931,360.0732 51.2694,357.2648 54.1456,359.1371 57.0218,356.7968 59.898,357.2648 68.5267,357.7329 71.4029,361.4774 74.2792,361.9454 77.1554,361.0093 80.0316,361.0093 88.6603,364.2857 91.5365,365.6899 94.4128,365.6899 97.289,364.7538 100.1652,365.2219 108.7939,365.2219 111.6701,367.5622 114.5464,366.158 117.4226,363.3496 120.2988,361.4774 128.9275,356.7968 131.8037,353.5204 134.6799,348.8398 137.5562,348.3717 140.4324,346.9675 149.0611,351.1801 151.9373,352.1162 154.8135,351.6481 157.6898,349.7759 160.566,347.4356 169.1947,336.2021 172.0709,337.6063 174.9471,338.0744 177.8233,331.0534 180.6996,324.5006 189.3282,317.0116 192.2045,323.5645 195.0807,317.4797 197.9569,310.9268 200.8332,309.0546 209.4618,295.0128 212.3381,305.7782 215.2143,300.1615 218.0905,287.5238 220.9667,269.2695 229.5954,245.8664 232.4716,247.2706 235.3479,244.4622 238.2241,222.9315 241.1003,218.7189 249.729,155.5307 252.6052,172.849 255.4815,172.849 258.3577,167.7003 261.2339,139.6167 269.8626,148.5098 272.7388,195.3159 275.6151,185.0186 278.4913,171.4448 281.3675,165.8281 289.9962,134.468 292.8724,153.6585 295.7486,140.0847 301.5011,113.8734 310.1298,108.2566 313.006,134.468 315.8822,141.4889 318.7585,112.0011 321.6347,134.9361 330.2634,156.4669 333.1396,173.7851 336.0158,167.7003 338.892,182.2102 341.7683,160.2113 350.3969,132.5958 353.2732,148.0418 356.1494,171.9129 359.0256,163.4878 361.9019,175.6573 370.5305,117.1498 373.4068,141.957 376.283,155.5307 379.1592,132.1277 382.0354,117.1498 390.6641,70.3437 393.5404,99.8315 396.4166,111.065 399.2928,95.1509 402.169,69.8757 410.7977,33.835 413.6739,61.4506 416.5502,84.8536 430.9313,32.4308 433.8075,57.7061 436.6838,76.4285 439.56,56.77 451.0649,57.238 453.9411,82.5133 456.8173,118.0859 459.6936,126.0429 462.5698,98.8954 474.0747,150.8501 476.9509,174.7212 479.8272,164.4239 482.7034,190.6353 491.3321,206.0813 494.2083,233.2288 497.0845,240.2497 499.9607,238.3775 502.837,234.1649 511.4656,233.6969 517.2181,244.4622 520.0943,224.8037 522.9706,212.1661 531.5992,214.0383 534.4755,235.5691 537.3517,254.2915 540.2279,245.3984 543.1041,245.3984 551.7328,262.2485 554.6091,274.4181 557.4853,267.3972 560.3615,253.3554 563.2377,239.3136 571.8664,249.6109 574.7426,284.2474 577.6189,282.3752 580.4951,272.5459 583.3713,293.6086 592,302.5018" style="fill:none;stroke:rgb(31,119,180);stroke-width:2;stroke-linejoin:bevel" />
  <text dominant-baseline="hanging" text-anchor="middle" transform="translate(313.006,8)" font-family="Segoe UI" font-size="18" font-weight="700" fill="black">Aktive Fälle Stadt Aachen 22.02.2021</text>
  <polygon points="34.012,29.0795 592,29.0795 592,370.947 34.012,370.947" style="fill:none;stroke:black;stroke-width:1" />
  <polygon points="42.012,37.0795 228.483,37.0795 228.483,63.1325 42.012,63.1325" style="fill:none;stroke:none;" />
  <text dominant-baseline="hanging" text-anchor="start" transform="translate(70.012,45.0795)" font-family="Segoe UI" font-size="12" font-weight="400" fill="black">Aktive Fälle Stadt Aachen 22.02.2021</text>
  <polyline points="50.012,50.106 66.012,50.106" style="fill:none;stroke:rgb(31,119,180);stroke-width:2" />
</svg>