<?xml version="1.0" encoding="utf-8" standalone="no"?>
<!DOCTYPE svg PUBLIC "-//W3C//DTD SVG 1.1//EN" "http://www.w3.org/Graphics/SVG/1.1/DTD/svg11.dtd">
<svg width="600" height="400" version="1.1" xmlns:xlink="http://www.w3.org/1999/xlink" xmlns="http://www.w3.org/2000/svg">
  <rect x="0" y="0" width="600" height="400" style="fill:rgb(255,255,255);stroke:none;" />
  <polyline points="39.016,357.0495 35.016,357.0495" style="fill:none;stroke:black;stroke-width:1" />
  <polyline points="39.016,341.1212 35.016,341.1212" style="fill:none;stroke:black;stroke-width:1" />
  <polyline points="39.016,325.1929 35.016,325.1929" style="fill:none;stroke:black;stroke-width:1" />
  <polyline points="39.016,293.3363 35.016,293.3363" style="fill:none;stroke:black;stroke-width:1" />
  <polyline points="39.016,277.408 35.016,277.408" style="fill:none;stroke:black;stroke-width:1" />
  <polyline points="39.016,261.4797 35.016,261.4797" style="fill:none;stroke:black;stroke-width:1" />
  <polyline points="39.016,229.6231 35.016,229.6231" style="fill:none;stroke:black;stroke-width:1" />
  <polyline points="39.016,213.6948 35.016,213.6948" style="fill:none;stroke:black;stroke-width:1" />
  <polyline points="39.016,197.7665 35.016,197.7665" style="fill:none;stroke:black;stroke-width:1" />
  <polyline points="39.016,165.9099 35.016,165.9099" style="fill:none;stroke:black;stroke-width:1" />
  <polyline points="39.016,149.9816 35.016,149.9816" style="fill:none;stroke:black;stroke-width:1" />
  <polyline points="39.016,134.0533 35.016,134.0533" style="fill:none;stroke:black;stroke-width:1" />
  <polyline points="39.016,102.1968 35.016,102.1968" style="fill:none;stroke:black;stroke-width:1" />
  <polyline points="39.016,86.2685 35.016,86.2685" style="fill:none;stroke:black;stroke-width:1" />
  <polyline points="39.016,70.3402 35.016,70.3402" style="fill:none;stroke:black;stroke-width:1" />
  <polyline points="39.016,38.4836 35.016,38.4836" style="fill:none;stroke:black;stroke-width:1" />
  <polyline points="71.9317,370.947 71.9317,374.947" style="fill:none;stroke:black;stroke-width:1" />
  <polyline points="172.3246,370.947 172.3246,374.947" style="fill:none;stroke:black;stroke-width:1" />
  <polyline points="272.7176,370.947 272.7176,374.947" style="fill:none;stroke:black;stroke-width:1" />
  <polyline points="369.8189,370.947 369.8189,374.947" style="fill:none;stroke:black;stroke-width:1" />
  <polyline points="470.2119,370.947 470.2119,374.947" style="fill:none;stroke:black;stroke-width:1" />
  <polyline points="570.6048,370.947 570.6048,374.947" style="fill:none;stroke:black;stroke-width:1" />
  <text dominant-baseline="middle" text-anchor="end" transform="translate(28.016,309.2646)" font-family="Segoe UI" font-size="12" font-weight="400" fill="black">200</text>
  <text dominant-baseline="middle" text-anchor="end" transform="translate(28.016,245.5514)" font-family="Segoe UI" font-size="12" font-weight="400" fill="black">400</text>
  <text dominant-baseline="middle" text-anchor="end" transform="translate(28.016,181.8382)" font-family="Segoe UI" font-size="12" font-weight="400" fill="black">600</text>
  <text dominant-baseline="middle" text-anchor="end" transform="translate(28.016,118.125)" font-family="Segoe UI" font-size="12" font-weight="400" fill="black">800</text>
  <text dominant-baseline="middle" text-anchor="end" transform="translate(28.016,54.4119)" font-family="Segoe UI" font-size="12" font-weight="400" fill="black">1000</text>
  <polyline points="39.016,309.2646 32.016,309.2646" style="fill:none;stroke:black;stroke-width:1" />
  <polyline points="39.016,245.5514 32.016,245.5514" style="fill:none;stroke:black;stroke-width:1" />
  <polyline points="39.016,181.8382 32.016,181.8382" style="fill:none;stroke:black;stroke-width:1" />
  <polyline points="39.016,118.125 32.016,118.125" style="fill:none;stroke:black;stroke-width:1" />
  <polyline points="39.016,54.4119 32.016,54.4119" style="fill:none;stroke:black;stroke-width:1" />
  <text dominant-baseline="hanging" text-anchor="middle" transform="translate(121.3053,381.947)" font-family="Segoe UI" font-size="12" font-weight="400" fill="black">01. October</text>
  <text dominant-baseline="hanging" text-anchor="middle" transform="translate(221.6982,381.947)" font-family="Segoe UI" font-size="12" font-weight="400" fill="black">01. December</text>
  <text dominant-baseline="hanging" text-anchor="middle" transform="translate(323.7369,381.947)" font-family="Segoe UI" font-size="12" font-weight="400" fill="black">01. February</text>
  <text dominant-baseline="hanging" text-anchor="middle" transform="translate(420.8383,381.947)" font-family="Segoe UI" font-size="12" font-weight="400" fill="black">01. April</text>
  <text dominant-baseline="hanging" text-anchor="middle" transform="translate(521.2312,381.947)" font-family="Segoe UI" font-size="12" font-weight="400" fill="black">01. June</text>
  <polyline points="121.3053,370.947 121.3053,377.947" style="fill:none;stroke:black;stroke-width:1" />
  <polyline points="221.6982,370.947 221.6982,377.947" style="fill:none;stroke:black;stroke-width:1" />
  <polyline points="323.7369,370.947 323.7369,377.947" style="fill:none;stroke:black;stroke-width:1" />
  <polyline points="420.8383,370.947 420.8383,377.947" style="fill:none;stroke:black;stroke-width:1" />
  <polyline points="521.2312,370.947 521.2312,377.947" style="fill:none;stroke:black;stroke-width:1" />
  <polyline points="39.016,363.4208 42.3076,360.5537 47.2449,362.4651 48.8907,360.5537 50.5365,361.828 52.1823,360.2352 53.8281,360.5537 58.7654,360.8723 60.4112,363.4208 62.057,363.7394 63.7028,363.1023 65.3486,363.1023 70.2859,365.3322 71.9317,366.2879 73.5775,366.2879 75.2233,365.6508 76.8691,365.9693 81.8064,365.9693 83.4522,367.5622 85.098,366.6065 86.7438,364.6951 88.3896,363.4208 93.3269,360.2352 94.9727,358.0052 96.6185,354.8195 98.2643,354.501 99.9101,353.5453 104.8474,356.4124 106.4932,357.0495 108.139,356.7309 109.7848,355.4567 111.4306,353.8638 116.3679,346.2183 118.0137,347.174 119.6595,347.4925 121.3053,342.714 122.9511,338.2541 127.8884,333.1571 129.5342,337.617 131.18,333.4756 132.8258,329.0157 134.4716,327.7414 139.4089,318.1845 141.0547,325.5115 142.7005,321.6887 144.3463,313.0874 145.9921,300.6633 150.9294,284.735 152.5752,285.6907 154.221,283.7793 155.8668,269.1253 157.5126,266.2582 162.4499,223.2518 164.0957,235.0387 165.7415,235.0387 167.3873,231.5345 169.0331,212.4206 173.9704,218.4733 175.6162,250.3299 177.262,243.3215 178.9078,234.083 180.5536,230.2603 185.4909,208.9163 187.1367,221.9775 188.7825,212.7391 192.0741,194.8994 197.0114,191.0766 198.6572,208.9163 200.303,213.6948 201.9488,193.6252 203.5946,209.2349 208.5319,223.8889 210.1777,235.6759 211.8235,231.5345 213.4693,241.4101 215.1151,226.4375 220.0524,207.6421 221.6982,218.1548 223.344,234.4016 224.9898,228.6674 226.6356,236.9501 231.5729,197.1294 233.2187,214.0134 234.8645,223.2518 236.5103,207.3235 238.1561,197.1294 243.0934,165.2728 244.7392,185.3425 246.385,192.988 248.0308,182.1568 249.6766,164.9542 254.6139,140.4247 256.2597,159.2201 257.9055,175.1484 266.1344,139.469 267.7802,156.6715 269.426,169.4142 271.0718,156.0344 277.6549,156.353 279.3007,173.5555 280.9465,197.7665 282.5923,203.1822 284.2381,184.7053 290.8212,220.0661 292.467,236.313 294.1128,229.3046 295.7586,247.1443 300.6959,257.6569 302.3417,276.1338 303.9875,280.9122 305.6333,279.638 307.2791,276.7709 312.2164,276.4523 315.508,283.7793 317.1538,270.3996 318.7996,261.7983 323.7369,263.0725 325.3827,277.7266 327.0285,290.4692 328.6743,284.4165 330.3201,284.4165 335.2574,295.8848 336.9032,304.1676 338.549,299.3891 340.1948,289.8321 341.8406,280.2751 346.7779,287.2836 348.4237,310.8574 350.0695,309.5832 351.7153,302.8933 353.3611,317.2288 358.2984,323.2815 359.9442,329.0157 361.59,325.1929 363.2358,323.9186 364.8816,325.5115 369.8189,327.1043 371.4647,335.0684 373.1105,329.6528 374.7563,312.4503 376.4021,311.4946 381.3394,298.4334 382.9852,298.4334 384.631,293.3363 386.2768,285.3722 387.9226,275.4966 392.8599,268.8067 394.5057,269.7624 396.1515,270.3996 397.7973,250.3299 399.4431,236.6316 404.3804,219.7476 406.0262,220.0661 407.672,221.3404 409.3178,199.3594 410.9636,195.218 415.9009,192.3509 417.5467,214.9691 419.1925,219.429 420.8383,211.7834 422.4841,188.5281 429.0672,174.1927 430.713,176.7412 432.3588,153.4859 434.0046,148.3888 438.9419,142.6546 440.5877,144.2475 442.2335,126.7263 443.8793,113.6651 445.5251,116.2137 450.4624,99.9668 452.1082,95.1883 453.754,72.8887 455.3998,44.5363 457.0456,32.4308 461.9829,42.3064 463.6287,49.3148 465.2745,66.1988 466.9203,77.6672 468.5661,71.2959 473.5034,109.8423 475.1492,105.701 476.795,125.7706 478.4408,134.6905 480.0866,148.3888 485.0239,149.0259 486.6697,175.7855 488.3155,170.6884 491.6071,185.3425 496.5444,171.9627 498.1902,185.661 499.836,186.2982 501.4818,180.564 503.1276,185.0239 509.7107,213.3763 511.3565,232.8088 513.0023,239.8172 514.6481,234.7202 519.5854,261.4797 521.2312,282.1865 522.877,289.195 526.1686,301.9376 531.1059,310.5389 532.7517,317.8659 534.3975,328.6971 536.0433,332.5199 537.6891,337.2984 542.6264,338.5727 544.2722,337.617 545.918,348.7668 547.5638,348.1297 549.2096,349.7225 554.1469,350.6782 555.7927,351.9524 557.4385,352.5896 559.0843,352.9081 560.7301,352.9081 565.6674,354.1824 567.3132,356.0938 568.959,355.7752 570.6048,353.5453 572.2506,354.8195 577.1879,356.0938 580.4795,355.7752 583.7711,356.4124 588.7084,356.0938 592,355.1381" style="fill:none;stroke:rgb(31,119,180);stroke-width:2;stroke-linejoin:bevel" />
  <text dominant-baseline="hanging" text-anchor="middle" transform="translate(315.508,8)" font-family="Segoe UI" font-size="18" font-weight="700" fill="black">Aktive Fälle Stadt Aachen 14.07.2021</text>
  <polygon points="39.016,29.0795 592,29.0795 592,370.947 39.016,370.947" style="fill:none;stroke:black;stroke-width:1" />
  <polygon points="47.016,37.0795 233.487,37.0795 233.487,63.1325 47.016,63.1325" style="fill:none;stroke:none;" />
  <text dominant-baseline="hanging" text-anchor="start" transform="translate(75.016,45.0795)" font-family="Segoe UI" font-size="12" font-weight="400" fill="black">Aktive Fälle Stadt Aachen 14.07.2021</text>
  <polyline points="55.016,50.106 71.016,50.106" style="fill:none;stroke:rgb(31,119,180);stroke-width:2" />
</svg>