<?xml version="1.0" encoding="utf-8" standalone="no"?>
<!DOCTYPE svg PUBLIC "-//W3C//DTD SVG 1.1//EN" "http://www.w3.org/Graphics/SVG/1.1/DTD/svg11.dtd">
<svg width="600" height="400" version="1.1" xmlns:xlink="http://www.w3.org/1999/xlink" xmlns="http://www.w3.org/2000/svg">
  <rect x="0" y="0" width="600" height="400" style="fill:rgb(255,255,255);stroke:none;" />
  <polyline points="34.012,352.1162 30.012,352.1162" style="fill:none;stroke:black;stroke-width:1" />
  <polyline points="34.012,328.7131 30.012,328.7131" style="fill:none;stroke:black;stroke-width:1" />
  <polyline points="34.012,305.3101 30.012,305.3101" style="fill:none;stroke:black;stroke-width:1" />
  <polyline points="34.012,258.5041 30.012,258.5041" style="fill:none;stroke:black;stroke-width:1" />
  <polyline points="34.012,235.101 30.012,235.101" style="fill:none;stroke:black;stroke-width:1" />
  <polyline points="34.012,211.698 30.012,211.698" style="fill:none;stroke:black;stroke-width:1" />
  <polyline points="34.012,164.892 30.012,164.892" style="fill:none;stroke:black;stroke-width:1" />
  <polyline points="34.012,141.4889 30.012,141.4889" style="fill:none;stroke:black;stroke-width:1" />
  <polyline points="34.012,118.0859 30.012,118.0859" style="fill:none;stroke:black;stroke-width:1" />
  <polyline points="34.012,71.2798 30.012,71.2798" style="fill:none;stroke:black;stroke-width:1" />
  <polyline points="34.012,47.8768 30.012,47.8768" style="fill:none;stroke:black;stroke-width:1" />
  <text dominant-baseline="middle" text-anchor="end" transform="translate(23.012,281.9071)" font-family="Segoe UI" font-size="12" font-weight="400" fill="black">200</text>
  <text dominant-baseline="middle" text-anchor="end" transform="translate(23.012,188.295)" font-family="Segoe UI" font-size="12" font-weight="400" fill="black">400</text>
  <text dominant-baseline="middle" text-anchor="end" transform="translate(23.012,94.6829)" font-family="Segoe UI" font-size="12" font-weight="400" fill="black">600</text>
  <polyline points="34.012,281.9071 27.012,281.9071" style="fill:none;stroke:black;stroke-width:1" />
  <polyline points="34.012,188.295 27.012,188.295" style="fill:none;stroke:black;stroke-width:1" />
  <polyline points="34.012,94.6829 27.012,94.6829" style="fill:none;stroke:black;stroke-width:1" />
  <text dominant-baseline="hanging" text-anchor="middle" transform="translate(101.2395,381.947)" font-family="Segoe UI" font-size="12" font-weight="400" fill="black">01. September</text>
  <text dominant-baseline="hanging" text-anchor="middle" transform="translate(202.0807,381.947)" font-family="Segoe UI" font-size="12" font-weight="400" fill="black">01. October</text>
  <text dominant-baseline="hanging" text-anchor="middle" transform="translate(306.2833,381.947)" font-family="Segoe UI" font-size="12" font-weight="400" fill="black">01. November</text>
  <text dominant-baseline="hanging" text-anchor="middle" transform="translate(407.1245,381.947)" font-family="Segoe UI" font-size="12" font-weight="400" fill="black">01. December</text>
  <text dominant-baseline="hanging" text-anchor="middle" transform="translate(511.327,381.947)" font-family="Segoe UI" font-size="12" font-weight="400" fill="black">01. January</text>
  <polyline points="101.2395,370.947 101.2395,377.947" style="fill:none;stroke:black;stroke-width:1" />
  <polyline points="202.0807,370.947 202.0807,377.947" style="fill:none;stroke:black;stroke-width:1" />
  <polyline points="306.2833,370.947 306.2833,377.947" style="fill:none;stroke:black;stroke-width:1" />
  <polyline points="407.1245,370.947 407.1245,377.947" style="fill:none;stroke:black;stroke-width:1" />
  <polyline points="511.327,370.947 511.327,377.947" style="fill:none;stroke:black;stroke-width:1" />
  <polyline points="34.012,361.4774 40.7347,357.2648 50.8189,360.0732 54.1802,357.2648 57.5416,359.1371 60.903,356.7968 64.2644,357.2648 74.3485,357.7329 77.7099,361.4774 81.0712,361.9454 84.4326,361.0093 87.794,361.0093 97.8781,364.2857 101.2395,365.6899 104.6008,365.6899 107.9622,364.7538 111.3236,365.2219 121.4077,365.2219 124.7691,367.5622 128.1305,366.158 131.4918,363.3496 134.8532,361.4774 144.9373,356.7968 148.2987,353.5204 151.6601,348.8398 155.0214,348.3717 158.3828,346.9675 168.4669,351.1801 171.8283,352.1162 175.1897,351.6481 178.5511,349.7759 181.9124,347.4356 191.9966,336.2021 195.3579,337.6063 198.7193,338.0744 202.0807,331.0534 205.442,324.5006 215.5262,317.0116 218.8875,323.5645 222.2489,317.4797 225.6103,310.9268 228.9717,309.0546 239.0558,295.0128 242.4172,305.7782 245.7785,300.1615 249.1399,287.5238 252.5013,269.2695 262.5854,245.8664 265.9468,247.2706 269.3081,244.4622 272.6695,222.9315 276.0309,218.7189 286.115,155.5307 289.4764,172.849 292.8378,172.849 296.1991,167.7003 299.5605,139.6167 309.6446,148.5098 313.006,195.3159 316.3674,185.0186 319.7287,171.4448 323.0901,165.8281 333.1742,134.468 336.5356,153.6585 339.897,140.0847 346.6197,113.8734 356.7039,108.2566 360.0652,134.468 363.4266,141.4889 366.788,112.0011 370.1493,134.9361 380.2335,156.4669 383.5948,173.7851 386.9562,167.7003 390.3176,182.2102 393.679,160.2113 403.7631,132.5958 407.1245,148.0418 410.4858,171.9129 413.8472,163.4878 417.2086,175.6573 427.2927,117.1498 430.6541,141.957 434.0154,155.5307 437.3768,132.1277 440.7382,117.1498 450.8223,70.3437 454.1837,99.8315 457.5451,111.065 460.9064,95.1509 464.2678,69.8757 474.3519,33.835 477.7133,61.4506 481.0747,84.8536 497.8815,32.4308 501.2429,57.7061 504.6043,76.4285 507.9657,56.77 521.4112,57.238 524.7725,82.5133 528.1339,118.0859 531.4953,126.0429 534.8567,98.8954 548.3021,150.8501 551.6635,174.7212 555.0249,164.4239 558.3863,190.6353 568.4704,206.0813 571.8318,233.2288 575.1931,240.2497 578.5545,238.3775 581.9159,234.1649 592,233.6969" style="fill:none;stroke:rgb(31,119,180);stroke-width:2;stroke-linejoin:bevel" />
  <text dominant-baseline="hanging" text-anchor="middle" transform="translate(313.006,8)" font-family="Segoe UI" font-size="18" font-weight="700" fill="black">Aktive Fälle Stadt Aachen 25.01.2021</text>
  <polygon points="34.012,29.0795 592,29.0795 592,370.947 34.012,370.947" style="fill:none;stroke:black;stroke-width:1" />
  <polygon points="42.012,37.0795 228.483,37.0795 228.483,63.1325 42.012,63.1325" style="fill:none;stroke:none;" />
  <text dominant-baseline="hanging" text-anchor="start" transform="translate(70.012,45.0795)" font-family="Segoe UI" font-size="12" font-weight="400" fill="black">Aktive Fälle Stadt Aachen 25.01.2021</text>
  <polyline points="50.012,50.106 66.012,50.106" style="fill:none;stroke:rgb(31,119,180);stroke-width:2" />
</svg>