<?xml version="1.0" encoding="utf-8" standalone="no"?>
<!DOCTYPE svg PUBLIC "-//W3C//DTD SVG 1.1//EN" "http://www.w3.org/Graphics/SVG/1.1/DTD/svg11.dtd">
<svg width="600" height="400" version="1.1" xmlns:xlink="http://www.w3.org/1999/xlink" xmlns="http://www.w3.org/2000/svg">
  <rect x="0" y="0" width="600" height="400" style="fill:rgb(255,255,255);stroke:none;" />
  <polyline points="39.016,357.0495 35.016,357.0495" style="fill:none;stroke:black;stroke-width:1" />
  <polyline points="39.016,341.1212 35.016,341.1212" style="fill:none;stroke:black;stroke-width:1" />
  <polyline points="39.016,325.1929 35.016,325.1929" style="fill:none;stroke:black;stroke-width:1" />
  <polyline points="39.016,293.3363 35.016,293.3363" style="fill:none;stroke:black;stroke-width:1" />
  <polyline points="39.016,277.408 35.016,277.408" style="fill:none;stroke:black;stroke-width:1" />
  <polyline points="39.016,261.4797 35.016,261.4797" style="fill:none;stroke:black;stroke-width:1" />
  <polyline points="39.016,229.6231 35.016,229.6231" style="fill:none;stroke:black;stroke-width:1" />
  <polyline points="39.016,213.6948 35.016,213.6948" style="fill:none;stroke:black;stroke-width:1" />
  <polyline points="39.016,197.7665 35.016,197.7665" style="fill:none;stroke:black;stroke-width:1" />
  <polyline points="39.016,165.9099 35.016,165.9099" style="fill:none;stroke:black;stroke-width:1" />
  <polyline points="39.016,149.9816 35.016,149.9816" style="fill:none;stroke:black;stroke-width:1" />
  <polyline points="39.016,134.0533 35.016,134.0533" style="fill:none;stroke:black;stroke-width:1" />
  <polyline points="39.016,102.1968 35.016,102.1968" style="fill:none;stroke:black;stroke-width:1" />
  <polyline points="39.016,86.2685 35.016,86.2685" style="fill:none;stroke:black;stroke-width:1" />
  <polyline points="39.016,70.3402 35.016,70.3402" style="fill:none;stroke:black;stroke-width:1" />
  <polyline points="39.016,38.4836 35.016,38.4836" style="fill:none;stroke:black;stroke-width:1" />
  <polyline points="71.26,370.947 71.26,374.947" style="fill:none;stroke:black;stroke-width:1" />
  <polyline points="169.6041,370.947 169.6041,374.947" style="fill:none;stroke:black;stroke-width:1" />
  <polyline points="267.9482,370.947 267.9482,374.947" style="fill:none;stroke:black;stroke-width:1" />
  <polyline points="363.0678,370.947 363.0678,374.947" style="fill:none;stroke:black;stroke-width:1" />
  <polyline points="461.4119,370.947 461.4119,374.947" style="fill:none;stroke:black;stroke-width:1" />
  <polyline points="559.756,370.947 559.756,374.947" style="fill:none;stroke:black;stroke-width:1" />
  <text dominant-baseline="middle" text-anchor="end" transform="translate(28.016,309.2646)" font-family="Segoe UI" font-size="12" font-weight="400" fill="black">200</text>
  <text dominant-baseline="middle" text-anchor="end" transform="translate(28.016,245.5514)" font-family="Segoe UI" font-size="12" font-weight="400" fill="black">400</text>
  <text dominant-baseline="middle" text-anchor="end" transform="translate(28.016,181.8382)" font-family="Segoe UI" font-size="12" font-weight="400" fill="black">600</text>
  <text dominant-baseline="middle" text-anchor="end" transform="translate(28.016,118.125)" font-family="Segoe UI" font-size="12" font-weight="400" fill="black">800</text>
  <text dominant-baseline="middle" text-anchor="end" transform="translate(28.016,54.4119)" font-family="Segoe UI" font-size="12" font-weight="400" fill="black">1000</text>
  <polyline points="39.016,309.2646 32.016,309.2646" style="fill:none;stroke:black;stroke-width:1" />
  <polyline points="39.016,245.5514 32.016,245.5514" style="fill:none;stroke:black;stroke-width:1" />
  <polyline points="39.016,181.8382 32.016,181.8382" style="fill:none;stroke:black;stroke-width:1" />
  <polyline points="39.016,118.125 32.016,118.125" style="fill:none;stroke:black;stroke-width:1" />
  <polyline points="39.016,54.4119 32.016,54.4119" style="fill:none;stroke:black;stroke-width:1" />
  <text dominant-baseline="hanging" text-anchor="middle" transform="translate(119.6259,381.947)" font-family="Segoe UI" font-size="12" font-weight="400" fill="black">01. October</text>
  <text dominant-baseline="hanging" text-anchor="middle" transform="translate(217.97,381.947)" font-family="Segoe UI" font-size="12" font-weight="400" fill="black">01. December</text>
  <text dominant-baseline="hanging" text-anchor="middle" transform="translate(317.9263,381.947)" font-family="Segoe UI" font-size="12" font-weight="400" fill="black">01. February</text>
  <text dominant-baseline="hanging" text-anchor="middle" transform="translate(413.046,381.947)" font-family="Segoe UI" font-size="12" font-weight="400" fill="black">01. April</text>
  <text dominant-baseline="hanging" text-anchor="middle" transform="translate(511.3901,381.947)" font-family="Segoe UI" font-size="12" font-weight="400" fill="black">01. June</text>
  <polyline points="119.6259,370.947 119.6259,377.947" style="fill:none;stroke:black;stroke-width:1" />
  <polyline points="217.97,370.947 217.97,377.947" style="fill:none;stroke:black;stroke-width:1" />
  <polyline points="317.9263,370.947 317.9263,377.947" style="fill:none;stroke:black;stroke-width:1" />
  <polyline points="413.046,370.947 413.046,377.947" style="fill:none;stroke:black;stroke-width:1" />
  <polyline points="511.3901,370.947 511.3901,377.947" style="fill:none;stroke:black;stroke-width:1" />
  <polyline points="39.016,363.4208 42.2404,360.5537 47.077,362.4651 48.6892,360.5537 50.3014,361.828 51.9136,360.2352 53.5258,360.5537 58.3624,360.8723 59.9746,363.4208 61.5868,363.7394 63.199,363.1023 64.8112,363.1023 69.6478,365.3322 71.26,366.2879 72.8722,366.2879 74.4844,365.6508 76.0966,365.9693 80.9332,365.9693 82.5454,367.5622 84.1576,366.6065 85.7697,364.6951 87.3819,363.4208 92.2185,360.2352 93.8307,358.0052 95.4429,354.8195 97.0551,354.501 98.6673,353.5453 103.5039,356.4124 105.1161,357.0495 106.7283,356.7309 108.3405,355.4567 109.9527,353.8638 114.7893,346.2183 116.4015,347.174 118.0137,347.4925 119.6259,342.714 121.2381,338.2541 126.0747,333.1571 127.6869,337.617 129.2991,333.4756 130.9113,329.0157 132.5235,327.7414 137.3601,318.1845 138.9723,325.5115 140.5845,321.6887 142.1967,313.0874 143.8089,300.6633 148.6455,284.735 150.2577,285.6907 151.8699,283.7793 153.4821,269.1253 155.0943,266.2582 159.9309,223.2518 161.5431,235.0387 163.1553,235.0387 164.7675,231.5345 166.3797,212.4206 171.2163,218.4733 172.8285,250.3299 174.4407,243.3215 176.0529,234.083 177.665,230.2603 182.5016,208.9163 184.1138,221.9775 185.726,212.7391 188.9504,194.8994 193.787,191.0766 195.3992,208.9163 197.0114,213.6948 198.6236,193.6252 200.2358,209.2349 205.0724,223.8889 206.6846,235.6759 208.2968,231.5345 209.909,241.4101 211.5212,226.4375 216.3578,207.6421 217.97,218.1548 219.5822,234.4016 221.1944,228.6674 222.8066,236.9501 227.6432,197.1294 229.2554,214.0134 230.8676,223.2518 232.4798,207.3235 234.092,197.1294 238.9286,165.2728 240.5408,185.3425 242.153,192.988 243.7652,182.1568 245.3774,164.9542 250.214,140.4247 251.8262,159.2201 253.4384,175.1484 261.4994,139.469 263.1116,156.6715 264.7238,169.4142 266.336,156.0344 272.7847,156.353 274.3969,173.5555 276.0091,197.7665 277.6213,203.1822 279.2335,184.7053 285.6823,220.0661 287.2945,236.313 288.9067,229.3046 290.5189,247.1443 295.3555,257.6569 296.9677,276.1338 298.5799,280.9122 300.1921,279.638 301.8043,276.7709 306.6409,276.4523 309.8653,283.7793 311.4775,270.3996 313.0897,261.7983 317.9263,263.0725 319.5385,277.7266 321.1507,290.4692 322.7629,284.4165 324.3751,284.4165 329.2117,295.8848 330.8239,304.1676 332.4361,299.3891 334.0483,289.8321 335.6605,280.2751 340.4971,287.2836 342.1093,310.8574 343.7215,309.5832 345.3337,302.8933 346.9459,317.2288 351.7825,323.2815 353.3947,329.0157 355.0069,325.1929 356.6191,323.9186 358.2313,325.5115 363.0678,327.1043 364.68,335.0684 366.2922,329.6528 367.9044,312.4503 369.5166,311.4946 374.3532,298.4334 375.9654,298.4334 377.5776,293.3363 379.1898,285.3722 380.802,275.4966 385.6386,268.8067 387.2508,269.7624 388.863,270.3996 390.4752,250.3299 392.0874,236.6316 396.924,219.7476 398.5362,220.0661 400.1484,221.3404 401.7606,199.3594 403.3728,195.218 408.2094,192.3509 409.8216,214.9691 411.4338,219.429 413.046,211.7834 414.6582,188.5281 421.107,174.1927 422.7192,176.7412 424.3314,153.4859 425.9436,148.3888 430.7802,142.6546 432.3924,144.2475 434.0046,126.7263 435.6168,113.6651 437.229,116.2137 442.0656,99.9668 443.6778,95.1883 445.29,72.8887 446.9022,44.5363 448.5144,32.4308 453.351,42.3064 454.9631,49.3148 456.5753,66.1988 458.1875,77.6672 459.7997,71.2959 464.6363,109.8423 466.2485,105.701 467.8607,125.7706 469.4729,134.6905 471.0851,148.3888 475.9217,149.0259 477.5339,175.7855 479.1461,170.6884 482.3705,185.3425 487.2071,171.9627 488.8193,185.661 490.4315,186.2982 492.0437,180.564 493.6559,185.0239 500.1047,213.3763 501.7169,232.8088 503.3291,239.8172 504.9413,234.7202 509.7779,261.4797 511.3901,282.1865 513.0023,289.195 516.2267,301.9376 521.0633,310.5389 522.6755,317.8659 524.2877,328.6971 525.8999,332.5199 527.5121,337.2984 532.3487,338.5727 533.9609,337.617 535.5731,348.7668 537.1853,348.1297 538.7975,349.7225 543.6341,350.6782 545.2463,351.9524 546.8584,352.5896 548.4706,352.9081 550.0828,352.9081 554.9194,354.1824 556.5316,356.0938 558.1438,355.7752 559.756,353.5453 561.3682,354.8195 566.2048,356.0938 569.4292,355.7752 572.6536,356.4124 577.4902,356.0938 580.7146,355.1381 583.939,348.7668 592,338.5727" style="fill:none;stroke:rgb(31,119,180);stroke-width:2;stroke-linejoin:bevel" />
  <text dominant-baseline="hanging" text-anchor="middle" transform="translate(315.508,8)" font-family="Segoe UI" font-size="18" font-weight="700" fill="black">Aktive Fälle Stadt Aachen 21.07.2021</text>
  <polygon points="39.016,29.0795 592,29.0795 592,370.947 39.016,370.947" style="fill:none;stroke:black;stroke-width:1" />
  <polygon points="47.016,37.0795 233.487,37.0795 233.487,63.1325 47.016,63.1325" style="fill:none;stroke:none;" />
  <text dominant-baseline="hanging" text-anchor="start" transform="translate(75.016,45.0795)" font-family="Segoe UI" font-size="12" font-weight="400" fill="black">Aktive Fälle Stadt Aachen 21.07.2021</text>
  <polyline points="55.016,50.106 71.016,50.106" style="fill:none;stroke:rgb(31,119,180);stroke-width:2" />
</svg>