<?xml version="1.0" encoding="utf-8" standalone="no"?>
<!DOCTYPE svg PUBLIC "-//W3C//DTD SVG 1.1//EN" "http://www.w3.org/Graphics/SVG/1.1/DTD/svg11.dtd">
<svg width="600" height="400" version="1.1" xmlns:xlink="http://www.w3.org/1999/xlink" xmlns="http://www.w3.org/2000/svg">
  <rect x="0" y="0" width="600" height="400" style="fill:rgb(255,255,255);stroke:none;" />
  <polyline points="39.016,357.0495 35.016,357.0495" style="fill:none;stroke:black;stroke-width:1" />
  <polyline points="39.016,341.1212 35.016,341.1212" style="fill:none;stroke:black;stroke-width:1" />
  <polyline points="39.016,325.1929 35.016,325.1929" style="fill:none;stroke:black;stroke-width:1" />
  <polyline points="39.016,293.3363 35.016,293.3363" style="fill:none;stroke:black;stroke-width:1" />
  <polyline points="39.016,277.408 35.016,277.408" style="fill:none;stroke:black;stroke-width:1" />
  <polyline points="39.016,261.4797 35.016,261.4797" style="fill:none;stroke:black;stroke-width:1" />
  <polyline points="39.016,229.6231 35.016,229.6231" style="fill:none;stroke:black;stroke-width:1" />
  <polyline points="39.016,213.6948 35.016,213.6948" style="fill:none;stroke:black;stroke-width:1" />
  <polyline points="39.016,197.7665 35.016,197.7665" style="fill:none;stroke:black;stroke-width:1" />
  <polyline points="39.016,165.9099 35.016,165.9099" style="fill:none;stroke:black;stroke-width:1" />
  <polyline points="39.016,149.9816 35.016,149.9816" style="fill:none;stroke:black;stroke-width:1" />
  <polyline points="39.016,134.0533 35.016,134.0533" style="fill:none;stroke:black;stroke-width:1" />
  <polyline points="39.016,102.1968 35.016,102.1968" style="fill:none;stroke:black;stroke-width:1" />
  <polyline points="39.016,86.2685 35.016,86.2685" style="fill:none;stroke:black;stroke-width:1" />
  <polyline points="39.016,70.3402 35.016,70.3402" style="fill:none;stroke:black;stroke-width:1" />
  <polyline points="39.016,38.4836 35.016,38.4836" style="fill:none;stroke:black;stroke-width:1" />
  <polyline points="70.4355,370.947 70.4355,374.947" style="fill:none;stroke:black;stroke-width:1" />
  <polyline points="166.2652,370.947 166.2652,374.947" style="fill:none;stroke:black;stroke-width:1" />
  <polyline points="262.0948,370.947 262.0948,374.947" style="fill:none;stroke:black;stroke-width:1" />
  <polyline points="354.7824,370.947 354.7824,374.947" style="fill:none;stroke:black;stroke-width:1" />
  <polyline points="450.612,370.947 450.612,374.947" style="fill:none;stroke:black;stroke-width:1" />
  <polyline points="546.4417,370.947 546.4417,374.947" style="fill:none;stroke:black;stroke-width:1" />
  <text dominant-baseline="middle" text-anchor="end" transform="translate(28.016,309.2646)" font-family="Segoe UI" font-size="12" font-weight="400" fill="black">200</text>
  <text dominant-baseline="middle" text-anchor="end" transform="translate(28.016,245.5514)" font-family="Segoe UI" font-size="12" font-weight="400" fill="black">400</text>
  <text dominant-baseline="middle" text-anchor="end" transform="translate(28.016,181.8382)" font-family="Segoe UI" font-size="12" font-weight="400" fill="black">600</text>
  <text dominant-baseline="middle" text-anchor="end" transform="translate(28.016,118.125)" font-family="Segoe UI" font-size="12" font-weight="400" fill="black">800</text>
  <text dominant-baseline="middle" text-anchor="end" transform="translate(28.016,54.4119)" font-family="Segoe UI" font-size="12" font-weight="400" fill="black">1000</text>
  <polyline points="39.016,309.2646 32.016,309.2646" style="fill:none;stroke:black;stroke-width:1" />
  <polyline points="39.016,245.5514 32.016,245.5514" style="fill:none;stroke:black;stroke-width:1" />
  <polyline points="39.016,181.8382 32.016,181.8382" style="fill:none;stroke:black;stroke-width:1" />
  <polyline points="39.016,118.125 32.016,118.125" style="fill:none;stroke:black;stroke-width:1" />
  <polyline points="39.016,54.4119 32.016,54.4119" style="fill:none;stroke:black;stroke-width:1" />
  <text dominant-baseline="hanging" text-anchor="middle" transform="translate(117.5649,381.947)" font-family="Segoe UI" font-size="12" font-weight="400" fill="black">01. October</text>
  <text dominant-baseline="hanging" text-anchor="middle" transform="translate(213.3945,381.947)" font-family="Segoe UI" font-size="12" font-weight="400" fill="black">01. December</text>
  <text dominant-baseline="hanging" text-anchor="middle" transform="translate(310.7951,381.947)" font-family="Segoe UI" font-size="12" font-weight="400" fill="black">01. February</text>
  <text dominant-baseline="hanging" text-anchor="middle" transform="translate(403.4827,381.947)" font-family="Segoe UI" font-size="12" font-weight="400" fill="black">01. April</text>
  <text dominant-baseline="hanging" text-anchor="middle" transform="translate(499.3123,381.947)" font-family="Segoe UI" font-size="12" font-weight="400" fill="black">01. June</text>
  <polyline points="117.5649,370.947 117.5649,377.947" style="fill:none;stroke:black;stroke-width:1" />
  <polyline points="213.3945,370.947 213.3945,377.947" style="fill:none;stroke:black;stroke-width:1" />
  <polyline points="310.7951,370.947 310.7951,377.947" style="fill:none;stroke:black;stroke-width:1" />
  <polyline points="403.4827,370.947 403.4827,377.947" style="fill:none;stroke:black;stroke-width:1" />
  <polyline points="499.3123,370.947 499.3123,377.947" style="fill:none;stroke:black;stroke-width:1" />
  <polyline points="39.016,363.4208 42.158,360.5537 46.8709,362.4651 48.4419,360.5537 50.0128,361.828 51.5838,360.2352 53.1548,360.5537 57.8677,360.8723 59.4387,363.4208 61.0097,363.7394 62.5807,363.1023 64.1516,363.1023 68.8646,365.3322 70.4355,366.2879 72.0065,366.2879 73.5775,365.6508 75.1485,365.9693 79.8614,365.9693 81.4324,367.5622 83.0034,366.6065 84.5743,364.6951 86.1453,363.4208 90.8583,360.2352 92.4292,358.0052 94.0002,354.8195 95.5712,354.501 97.1422,353.5453 101.8551,356.4124 103.4261,357.0495 104.997,356.7309 106.568,355.4567 108.139,353.8638 112.8519,346.2183 114.4229,347.174 115.9939,347.4925 117.5649,342.714 119.1358,338.2541 123.8488,333.1571 125.4198,337.617 126.9907,333.4756 128.5617,329.0157 130.1327,327.7414 134.8456,318.1845 136.4166,325.5115 137.9876,321.6887 139.5585,313.0874 141.1295,300.6633 145.8425,284.735 147.4134,285.6907 148.9844,283.7793 150.5554,269.1253 152.1264,266.2582 156.8393,223.2518 158.4103,235.0387 159.9813,235.0387 161.5522,231.5345 163.1232,212.4206 167.8361,218.4733 169.4071,250.3299 170.9781,243.3215 172.5491,234.083 174.12,230.2603 178.833,208.9163 180.404,221.9775 181.9749,212.7391 185.1169,194.8994 189.8298,191.0766 191.4008,208.9163 192.9718,213.6948 194.5428,193.6252 196.1137,209.2349 200.8267,223.8889 202.3976,235.6759 203.9686,231.5345 205.5396,241.4101 207.1106,226.4375 211.8235,207.6421 213.3945,218.1548 214.9655,234.4016 216.5364,228.6674 218.1074,236.9501 222.8203,197.1294 224.3913,214.0134 225.9623,223.2518 227.5333,207.3235 229.1043,197.1294 233.8172,165.2728 235.3882,185.3425 236.9591,192.988 238.5301,182.1568 240.1011,164.9542 244.814,140.4247 246.385,159.2201 247.956,175.1484 255.8109,139.469 257.3818,156.6715 258.9528,169.4142 260.5238,156.0344 266.8077,156.353 268.3787,173.5555 269.9497,197.7665 271.5206,203.1822 273.0916,184.7053 279.3755,220.0661 280.9465,236.313 282.5175,229.3046 284.0885,247.1443 288.8014,257.6569 290.3724,276.1338 291.9433,280.9122 293.5143,279.638 295.0853,276.7709 299.7982,276.4523 302.9402,283.7793 304.5112,270.3996 306.0821,261.7983 310.7951,263.0725 312.366,277.7266 313.937,290.4692 315.508,284.4165 317.079,284.4165 321.7919,295.8848 323.3629,304.1676 324.9339,299.3891 326.5048,289.8321 328.0758,280.2751 332.7888,287.2836 334.3597,310.8574 335.9307,309.5832 337.5017,302.8933 339.0727,317.2288 343.7856,323.2815 345.3566,329.0157 346.9275,325.1929 348.4985,323.9186 350.0695,325.5115 354.7824,327.1043 356.3534,335.0684 357.9244,329.6528 359.4954,312.4503 361.0663,311.4946 365.7793,298.4334 367.3503,298.4334 368.9212,293.3363 370.4922,285.3722 372.0632,275.4966 376.7761,268.8067 378.3471,269.7624 379.9181,270.3996 381.489,250.3299 383.06,236.6316 387.773,219.7476 389.3439,220.0661 390.9149,221.3404 392.4859,199.3594 394.0569,195.218 398.7698,192.3509 400.3408,214.9691 401.9118,219.429 403.4827,211.7834 405.0537,188.5281 411.3376,174.1927 412.9086,176.7412 414.4796,153.4859 416.0505,148.3888 420.7635,142.6546 422.3345,144.2475 423.9054,126.7263 425.4764,113.6651 427.0474,116.2137 431.7603,99.9668 433.3313,95.1883 434.9023,72.8887 436.4733,44.5363 438.0442,32.4308 442.7572,42.3064 444.3281,49.3148 445.8991,66.1988 447.4701,77.6672 449.0411,71.2959 453.754,109.8423 455.325,105.701 456.896,125.7706 458.4669,134.6905 460.0379,148.3888 464.7508,149.0259 466.3218,175.7855 467.8928,170.6884 471.0348,185.3425 475.7477,171.9627 477.3187,185.661 478.8896,186.2982 480.4606,180.564 482.0316,185.0239 488.3155,213.3763 489.8865,232.8088 491.4575,239.8172 493.0284,234.7202 497.7414,261.4797 499.3123,282.1865 500.8833,289.195 504.0253,301.9376 508.7382,310.5389 510.3092,317.8659 511.8802,328.6971 513.4511,332.5199 515.0221,337.2984 519.735,338.5727 521.306,337.617 522.877,348.7668 524.448,348.1297 526.019,349.7225 530.7319,350.6782 532.3029,351.9524 533.8738,352.5896 535.4448,352.9081 537.0158,352.9081 541.7287,354.1824 543.2997,356.0938 544.8707,355.7752 546.4417,353.5453 548.0126,354.8195 552.7256,356.0938 555.8675,355.7752 559.0095,356.4124 563.7224,356.0938 566.8644,355.1381 570.0063,348.7668 577.8612,338.5727 581.0032,326.7857 588.858,324.5558 592,318.1845" style="fill:none;stroke:rgb(31,119,180);stroke-width:2;stroke-linejoin:bevel" />
  <text dominant-baseline="hanging" text-anchor="middle" transform="translate(315.508,8)" font-family="Segoe UI" font-size="18" font-weight="700" fill="black">Aktive Fälle Stadt Aachen 30.07.2021</text>
  <polygon points="39.016,29.0795 592,29.0795 592,370.947 39.016,370.947" style="fill:none;stroke:black;stroke-width:1" />
  <polygon points="47.016,37.0795 233.487,37.0795 233.487,63.1325 47.016,63.1325" style="fill:none;stroke:none;" />
  <text dominant-baseline="hanging" text-anchor="start" transform="translate(75.016,45.0795)" font-family="Segoe UI" font-size="12" font-weight="400" fill="black">Aktive Fälle Stadt Aachen 30.07.2021</text>
  <polyline points="55.016,50.106 71.016,50.106" style="fill:none;stroke:rgb(31,119,180);stroke-width:2" />
</svg>