<?xml version="1.0" encoding="utf-8" standalone="no"?>
<!DOCTYPE svg PUBLIC "-//W3C//DTD SVG 1.1//EN" "http://www.w3.org/Graphics/SVG/1.1/DTD/svg11.dtd">
<svg width="600" height="400" version="1.1" xmlns:xlink="http://www.w3.org/1999/xlink" xmlns="http://www.w3.org/2000/svg">
  <rect x="0" y="0" width="600" height="400" style="fill:rgb(255,255,255);stroke:none;" />
  <polyline points="34.012,365.7474 30.012,365.7474" style="fill:none;stroke:black;stroke-width:1" />
  <polyline points="34.012,353.6488 30.012,353.6488" style="fill:none;stroke:black;stroke-width:1" />
  <polyline points="34.012,341.5502 30.012,341.5502" style="fill:none;stroke:black;stroke-width:1" />
  <polyline points="34.012,329.4516 30.012,329.4516" style="fill:none;stroke:black;stroke-width:1" />
  <polyline points="34.012,305.2544 30.012,305.2544" style="fill:none;stroke:black;stroke-width:1" />
  <polyline points="34.012,293.1558 30.012,293.1558" style="fill:none;stroke:black;stroke-width:1" />
  <polyline points="34.012,281.0571 30.012,281.0571" style="fill:none;stroke:black;stroke-width:1" />
  <polyline points="34.012,268.9585 30.012,268.9585" style="fill:none;stroke:black;stroke-width:1" />
  <polyline points="34.012,244.7613 30.012,244.7613" style="fill:none;stroke:black;stroke-width:1" />
  <polyline points="34.012,232.6627 30.012,232.6627" style="fill:none;stroke:black;stroke-width:1" />
  <polyline points="34.012,220.5641 30.012,220.5641" style="fill:none;stroke:black;stroke-width:1" />
  <polyline points="34.012,208.4655 30.012,208.4655" style="fill:none;stroke:black;stroke-width:1" />
  <polyline points="34.012,184.2683 30.012,184.2683" style="fill:none;stroke:black;stroke-width:1" />
  <polyline points="34.012,172.1697 30.012,172.1697" style="fill:none;stroke:black;stroke-width:1" />
  <polyline points="34.012,160.0711 30.012,160.0711" style="fill:none;stroke:black;stroke-width:1" />
  <polyline points="34.012,147.9725 30.012,147.9725" style="fill:none;stroke:black;stroke-width:1" />
  <polyline points="34.012,123.7753 30.012,123.7753" style="fill:none;stroke:black;stroke-width:1" />
  <polyline points="34.012,111.6767 30.012,111.6767" style="fill:none;stroke:black;stroke-width:1" />
  <polyline points="34.012,99.5781 30.012,99.5781" style="fill:none;stroke:black;stroke-width:1" />
  <polyline points="34.012,87.4795 30.012,87.4795" style="fill:none;stroke:black;stroke-width:1" />
  <polyline points="34.012,63.2823 30.012,63.2823" style="fill:none;stroke:black;stroke-width:1" />
  <polyline points="34.012,51.1837 30.012,51.1837" style="fill:none;stroke:black;stroke-width:1" />
  <polyline points="34.012,39.085 30.012,39.085" style="fill:none;stroke:black;stroke-width:1" />
  <text dominant-baseline="middle" text-anchor="end" transform="translate(23.012,317.353)" font-family="Segoe UI" font-size="12" font-weight="400" fill="black">100</text>
  <text dominant-baseline="middle" text-anchor="end" transform="translate(23.012,256.8599)" font-family="Segoe UI" font-size="12" font-weight="400" fill="black">200</text>
  <text dominant-baseline="middle" text-anchor="end" transform="translate(23.012,196.3669)" font-family="Segoe UI" font-size="12" font-weight="400" fill="black">300</text>
  <text dominant-baseline="middle" text-anchor="end" transform="translate(23.012,135.8739)" font-family="Segoe UI" font-size="12" font-weight="400" fill="black">400</text>
  <text dominant-baseline="middle" text-anchor="end" transform="translate(23.012,75.3809)" font-family="Segoe UI" font-size="12" font-weight="400" fill="black">500</text>
  <polyline points="34.012,317.353 27.012,317.353" style="fill:none;stroke:black;stroke-width:1" />
  <polyline points="34.012,256.8599 27.012,256.8599" style="fill:none;stroke:black;stroke-width:1" />
  <polyline points="34.012,196.3669 27.012,196.3669" style="fill:none;stroke:black;stroke-width:1" />
  <polyline points="34.012,135.8739 27.012,135.8739" style="fill:none;stroke:black;stroke-width:1" />
  <polyline points="34.012,75.3809 27.012,75.3809" style="fill:none;stroke:black;stroke-width:1" />
  <text dominant-baseline="hanging" text-anchor="middle" transform="translate(50.9207,381.947)" font-family="Segoe UI" font-size="12" font-weight="400" fill="black">15. August</text>
  <text dominant-baseline="hanging" text-anchor="middle" transform="translate(129.8281,381.947)" font-family="Segoe UI" font-size="12" font-weight="400" fill="black">29. August</text>
  <text dominant-baseline="hanging" text-anchor="middle" transform="translate(208.7355,381.947)" font-family="Segoe UI" font-size="12" font-weight="400" fill="black">12. September</text>
  <text dominant-baseline="hanging" text-anchor="middle" transform="translate(287.6429,381.947)" font-family="Segoe UI" font-size="12" font-weight="400" fill="black">26. September</text>
  <text dominant-baseline="hanging" text-anchor="middle" transform="translate(366.5503,381.947)" font-family="Segoe UI" font-size="12" font-weight="400" fill="black">10. October</text>
  <text dominant-baseline="hanging" text-anchor="middle" transform="translate(445.4577,381.947)" font-family="Segoe UI" font-size="12" font-weight="400" fill="black">24. October</text>
  <text dominant-baseline="hanging" text-anchor="middle" transform="translate(524.3651,381.947)" font-family="Segoe UI" font-size="12" font-weight="400" fill="black">07. November</text>
  <polyline points="50.9207,370.947 50.9207,377.947" style="fill:none;stroke:black;stroke-width:1" />
  <polyline points="129.8281,370.947 129.8281,377.947" style="fill:none;stroke:black;stroke-width:1" />
  <polyline points="208.7355,370.947 208.7355,377.947" style="fill:none;stroke:black;stroke-width:1" />
  <polyline points="287.6429,370.947 287.6429,377.947" style="fill:none;stroke:black;stroke-width:1" />
  <polyline points="366.5503,370.947 366.5503,377.947" style="fill:none;stroke:black;stroke-width:1" />
  <polyline points="445.4577,370.947 445.4577,377.947" style="fill:none;stroke:black;stroke-width:1" />
  <polyline points="524.3651,370.947 524.3651,377.947" style="fill:none;stroke:black;stroke-width:1" />
  <polyline points="34.012,359.6981 45.2845,354.2537 62.1932,357.8833 67.8295,354.2537 73.4657,356.6734 79.1019,353.6488 84.7382,354.2537 101.6469,354.8586 107.2832,359.6981 112.9194,360.303 118.5556,359.0931 124.1919,359.0931 141.1006,363.3277 146.7368,365.1425 152.3731,365.1425 158.0093,363.9326 163.6456,364.5375 180.5543,364.5375 186.1905,367.5622 191.8268,365.7474 197.463,362.1178 203.0993,359.6981 220.008,353.6488 225.6442,349.4143 231.2805,343.365 236.9167,342.76 242.553,340.9452 259.4617,346.3896 265.0979,347.5995 270.7342,346.9945 276.3704,344.5748 282.0067,341.5502 298.9154,327.0318 304.5516,328.8466 310.1879,329.4516 315.8241,320.3776 321.4604,311.9086 338.3691,302.2297 344.0053,310.6987 349.6416,302.8346 355.2778,294.3656 360.9141,291.9459 377.8228,273.798 383.459,287.7114 389.0953,280.4522 394.7315,264.1191 400.3678,240.5268 417.2765,210.2803 422.9127,212.0951 428.549,208.4655 434.1852,180.6387 439.8215,175.1944 456.7302,93.5288 462.3664,115.9112 468.0027,115.9112 473.6389,109.257 479.2752,72.9611 496.1839,84.4548 501.8201,144.9478 507.4564,131.6394 513.0926,114.0964 518.7288,106.8372 535.6376,66.3069 541.2738,91.109 546.9101,73.5661 558.1825,39.69 575.0913,32.4308 580.7275,66.3069 586.3638,75.3809 592,37.2703" style="fill:none;stroke:rgb(31,119,180);stroke-width:2;stroke-linejoin:bevel" />
  <text dominant-baseline="hanging" text-anchor="middle" transform="translate(313.006,8)" font-family="Segoe UI" font-size="18" font-weight="700" fill="black">Aktive Fälle Stadt Aachen 19.11.2020</text>
  <polygon points="34.012,29.0795 592,29.0795 592,370.947 34.012,370.947" style="fill:none;stroke:black;stroke-width:1" />
  <polygon points="42.012,37.0795 228.483,37.0795 228.483,63.1325 42.012,63.1325" style="fill:none;stroke:none;" />
  <text dominant-baseline="hanging" text-anchor="start" transform="translate(70.012,45.0795)" font-family="Segoe UI" font-size="12" font-weight="400" fill="black">Aktive Fälle Stadt Aachen 19.11.2020</text>
  <polyline points="50.012,50.106 66.012,50.106" style="fill:none;stroke:rgb(31,119,180);stroke-width:2" />
</svg>