<?xml version="1.0" encoding="utf-8" standalone="no"?>
<!DOCTYPE svg PUBLIC "-//W3C//DTD SVG 1.1//EN" "http://www.w3.org/Graphics/SVG/1.1/DTD/svg11.dtd">
<svg width="600" height="400" version="1.1" xmlns:xlink="http://www.w3.org/1999/xlink" xmlns="http://www.w3.org/2000/svg">
  <rect x="0" y="0" width="600" height="400" style="fill:rgb(255,255,255);stroke:none;" />
  <polyline points="39.016,357.0495 35.016,357.0495" style="fill:none;stroke:black;stroke-width:1" />
  <polyline points="39.016,341.1212 35.016,341.1212" style="fill:none;stroke:black;stroke-width:1" />
  <polyline points="39.016,325.1929 35.016,325.1929" style="fill:none;stroke:black;stroke-width:1" />
  <polyline points="39.016,293.3363 35.016,293.3363" style="fill:none;stroke:black;stroke-width:1" />
  <polyline points="39.016,277.408 35.016,277.408" style="fill:none;stroke:black;stroke-width:1" />
  <polyline points="39.016,261.4797 35.016,261.4797" style="fill:none;stroke:black;stroke-width:1" />
  <polyline points="39.016,229.6231 35.016,229.6231" style="fill:none;stroke:black;stroke-width:1" />
  <polyline points="39.016,213.6948 35.016,213.6948" style="fill:none;stroke:black;stroke-width:1" />
  <polyline points="39.016,197.7665 35.016,197.7665" style="fill:none;stroke:black;stroke-width:1" />
  <polyline points="39.016,165.9099 35.016,165.9099" style="fill:none;stroke:black;stroke-width:1" />
  <polyline points="39.016,149.9816 35.016,149.9816" style="fill:none;stroke:black;stroke-width:1" />
  <polyline points="39.016,134.0533 35.016,134.0533" style="fill:none;stroke:black;stroke-width:1" />
  <polyline points="39.016,102.1968 35.016,102.1968" style="fill:none;stroke:black;stroke-width:1" />
  <polyline points="39.016,86.2685 35.016,86.2685" style="fill:none;stroke:black;stroke-width:1" />
  <polyline points="39.016,70.3402 35.016,70.3402" style="fill:none;stroke:black;stroke-width:1" />
  <polyline points="39.016,38.4836 35.016,38.4836" style="fill:none;stroke:black;stroke-width:1" />
  <polyline points="75.6375,370.947 75.6375,374.947" style="fill:none;stroke:black;stroke-width:1" />
  <polyline points="187.3329,370.947 187.3329,374.947" style="fill:none;stroke:black;stroke-width:1" />
  <polyline points="299.0283,370.947 299.0283,374.947" style="fill:none;stroke:black;stroke-width:1" />
  <polyline points="407.0616,370.947 407.0616,374.947" style="fill:none;stroke:black;stroke-width:1" />
  <polyline points="518.7571,370.947 518.7571,374.947" style="fill:none;stroke:black;stroke-width:1" />
  <text dominant-baseline="middle" text-anchor="end" transform="translate(28.016,309.2646)" font-family="Segoe UI" font-size="12" font-weight="400" fill="black">200</text>
  <text dominant-baseline="middle" text-anchor="end" transform="translate(28.016,245.5514)" font-family="Segoe UI" font-size="12" font-weight="400" fill="black">400</text>
  <text dominant-baseline="middle" text-anchor="end" transform="translate(28.016,181.8382)" font-family="Segoe UI" font-size="12" font-weight="400" fill="black">600</text>
  <text dominant-baseline="middle" text-anchor="end" transform="translate(28.016,118.125)" font-family="Segoe UI" font-size="12" font-weight="400" fill="black">800</text>
  <text dominant-baseline="middle" text-anchor="end" transform="translate(28.016,54.4119)" font-family="Segoe UI" font-size="12" font-weight="400" fill="black">1000</text>
  <polyline points="39.016,309.2646 32.016,309.2646" style="fill:none;stroke:black;stroke-width:1" />
  <polyline points="39.016,245.5514 32.016,245.5514" style="fill:none;stroke:black;stroke-width:1" />
  <polyline points="39.016,181.8382 32.016,181.8382" style="fill:none;stroke:black;stroke-width:1" />
  <polyline points="39.016,118.125 32.016,118.125" style="fill:none;stroke:black;stroke-width:1" />
  <polyline points="39.016,54.4119 32.016,54.4119" style="fill:none;stroke:black;stroke-width:1" />
  <text dominant-baseline="hanging" text-anchor="middle" transform="translate(130.5696,381.947)" font-family="Segoe UI" font-size="12" font-weight="400" fill="black">01. October</text>
  <text dominant-baseline="hanging" text-anchor="middle" transform="translate(242.2651,381.947)" font-family="Segoe UI" font-size="12" font-weight="400" fill="black">01. December</text>
  <text dominant-baseline="hanging" text-anchor="middle" transform="translate(355.7916,381.947)" font-family="Segoe UI" font-size="12" font-weight="400" fill="black">01. February</text>
  <text dominant-baseline="hanging" text-anchor="middle" transform="translate(463.8249,381.947)" font-family="Segoe UI" font-size="12" font-weight="400" fill="black">01. April</text>
  <text dominant-baseline="hanging" text-anchor="middle" transform="translate(575.5203,381.947)" font-family="Segoe UI" font-size="12" font-weight="400" fill="black">01. June</text>
  <polyline points="130.5696,370.947 130.5696,377.947" style="fill:none;stroke:black;stroke-width:1" />
  <polyline points="242.2651,370.947 242.2651,377.947" style="fill:none;stroke:black;stroke-width:1" />
  <polyline points="355.7916,370.947 355.7916,377.947" style="fill:none;stroke:black;stroke-width:1" />
  <polyline points="463.8249,370.947 463.8249,377.947" style="fill:none;stroke:black;stroke-width:1" />
  <polyline points="575.5203,370.947 575.5203,377.947" style="fill:none;stroke:black;stroke-width:1" />
  <polyline points="39.016,363.4208 42.6781,360.5537 48.1714,362.4651 50.0024,360.5537 51.8335,361.828 53.6646,360.2352 55.4957,360.5537 60.9889,360.8723 62.8199,363.4208 64.651,363.7394 66.4821,363.1023 68.3132,363.1023 73.8064,365.3322 75.6375,366.2879 77.4685,366.2879 79.2996,365.6508 81.1307,365.9693 86.6239,365.9693 88.455,367.5622 90.286,366.6065 92.1171,364.6951 93.9482,363.4208 99.4414,360.2352 101.2725,358.0052 103.1035,354.8195 104.9346,354.501 106.7657,353.5453 112.2589,356.4124 114.09,357.0495 115.9211,356.7309 117.7521,355.4567 119.5832,353.8638 125.0764,346.2183 126.9075,347.174 128.7386,347.4925 130.5696,342.714 132.4007,338.2541 137.8939,333.1571 139.725,337.617 141.5561,333.4756 143.3872,329.0157 145.2182,327.7414 150.7114,318.1845 152.5425,325.5115 154.3736,321.6887 156.2047,313.0874 158.0357,300.6633 163.529,284.735 165.36,285.6907 167.1911,283.7793 169.0222,269.1253 170.8532,266.2582 176.3465,223.2518 178.1775,235.0387 180.0086,235.0387 181.8397,231.5345 183.6708,212.4206 189.164,218.4733 190.995,250.3299 192.8261,243.3215 194.6572,234.083 196.4883,230.2603 201.9815,208.9163 203.8126,221.9775 205.6436,212.7391 209.3058,194.8994 214.799,191.0766 216.6301,208.9163 218.4611,213.6948 220.2922,193.6252 222.1233,209.2349 227.6165,223.8889 229.4476,235.6759 231.2786,231.5345 233.1097,241.4101 234.9408,226.4375 240.434,207.6421 242.2651,218.1548 244.0962,234.4016 245.9272,228.6674 247.7583,236.9501 253.2515,197.1294 255.0826,214.0134 256.9137,223.2518 258.7447,207.3235 260.5758,197.1294 266.069,165.2728 267.9001,185.3425 269.7312,192.988 271.5623,182.1568 273.3933,164.9542 278.8865,140.4247 280.7176,159.2201 282.5487,175.1484 291.7041,139.469 293.5351,156.6715 295.3662,169.4142 297.1973,156.0344 304.5216,156.353 306.3526,173.5555 308.1837,197.7665 310.0148,203.1822 311.8459,184.7053 319.1701,220.0661 321.0012,236.313 322.8323,229.3046 324.6634,247.1443 330.1566,257.6569 331.9877,276.1338 333.8187,280.9122 335.6498,279.638 337.4809,276.7709 342.9741,276.4523 346.6362,283.7793 348.4673,270.3996 350.2984,261.7983 355.7916,263.0725 357.6227,277.7266 359.4537,290.4692 361.2848,284.4165 363.1159,284.4165 368.6091,295.8848 370.4402,304.1676 372.2713,299.3891 374.1023,289.8321 375.9334,280.2751 381.4266,287.2836 383.2577,310.8574 385.0888,309.5832 386.9198,302.8933 388.7509,317.2288 394.2441,323.2815 396.0752,329.0157 397.9063,325.1929 399.7374,323.9186 401.5684,325.5115 407.0616,327.1043 408.8927,335.0684 410.7238,329.6528 412.5549,312.4503 414.3859,311.4946 419.8792,298.4334 421.7102,298.4334 423.5413,293.3363 425.3724,285.3722 427.2034,275.4966 432.6967,268.8067 434.5277,269.7624 436.3588,270.3996 438.1899,250.3299 440.021,236.6316 445.5142,219.7476 447.3452,220.0661 449.1763,221.3404 451.0074,199.3594 452.8385,195.218 458.3317,192.3509 460.1628,214.9691 461.9938,219.429 463.8249,211.7834 465.656,188.5281 472.9803,174.1927 474.8113,176.7412 476.6424,153.4859 478.4735,148.3888 483.9667,142.6546 485.7978,144.2475 487.6288,126.7263 489.4599,113.6651 491.291,116.2137 496.7842,99.9668 498.6153,95.1883 500.4464,72.8887 502.2774,44.5363 504.1085,32.4308 509.6017,42.3064 511.4328,49.3148 513.2639,66.1988 515.0949,77.6672 516.926,71.2959 522.4192,109.8423 524.2503,105.701 526.0814,125.7706 527.9125,134.6905 529.7435,148.3888 535.2367,149.0259 537.0678,175.7855 538.8989,170.6884 542.561,185.3425 548.0543,171.9627 549.8853,185.661 551.7164,186.2982 553.5475,180.564 555.3785,185.0239 562.7028,213.3763 564.5339,232.8088 566.365,239.8172 568.1961,234.7202 573.6893,261.4797 575.5203,282.1865 577.3514,289.195 581.0136,301.9376 586.5068,310.5389 588.3379,317.8659 590.1689,328.6971 592,332.5199" style="fill:none;stroke:rgb(31,119,180);stroke-width:2;stroke-linejoin:bevel" />
  <text dominant-baseline="hanging" text-anchor="middle" transform="translate(315.508,8)" font-family="Segoe UI" font-size="18" font-weight="700" fill="black">Aktive Fälle Stadt Aachen 10.06.2021</text>
  <polygon points="39.016,29.0795 592,29.0795 592,370.947 39.016,370.947" style="fill:none;stroke:black;stroke-width:1" />
  <polygon points="47.016,37.0795 233.487,37.0795 233.487,63.1325 47.016,63.1325" style="fill:none;stroke:none;" />
  <text dominant-baseline="hanging" text-anchor="start" transform="translate(75.016,45.0795)" font-family="Segoe UI" font-size="12" font-weight="400" fill="black">Aktive Fälle Stadt Aachen 10.06.2021</text>
  <polyline points="55.016,50.106 71.016,50.106" style="fill:none;stroke:rgb(31,119,180);stroke-width:2" />
</svg>