<?xml version="1.0" encoding="utf-8" standalone="no"?>
<!DOCTYPE svg PUBLIC "-//W3C//DTD SVG 1.1//EN" "http://www.w3.org/Graphics/SVG/1.1/DTD/svg11.dtd">
<svg width="600" height="400" version="1.1" xmlns:xlink="http://www.w3.org/1999/xlink" xmlns="http://www.w3.org/2000/svg">
  <rect x="0" y="0" width="600" height="400" style="fill:rgb(255,255,255);stroke:none;" />
  <polyline points="34.012,352.1162 30.012,352.1162" style="fill:none;stroke:black;stroke-width:1" />
  <polyline points="34.012,328.7131 30.012,328.7131" style="fill:none;stroke:black;stroke-width:1" />
  <polyline points="34.012,305.3101 30.012,305.3101" style="fill:none;stroke:black;stroke-width:1" />
  <polyline points="34.012,258.5041 30.012,258.5041" style="fill:none;stroke:black;stroke-width:1" />
  <polyline points="34.012,235.101 30.012,235.101" style="fill:none;stroke:black;stroke-width:1" />
  <polyline points="34.012,211.698 30.012,211.698" style="fill:none;stroke:black;stroke-width:1" />
  <polyline points="34.012,164.892 30.012,164.892" style="fill:none;stroke:black;stroke-width:1" />
  <polyline points="34.012,141.4889 30.012,141.4889" style="fill:none;stroke:black;stroke-width:1" />
  <polyline points="34.012,118.0859 30.012,118.0859" style="fill:none;stroke:black;stroke-width:1" />
  <polyline points="34.012,71.2798 30.012,71.2798" style="fill:none;stroke:black;stroke-width:1" />
  <polyline points="34.012,47.8768 30.012,47.8768" style="fill:none;stroke:black;stroke-width:1" />
  <text dominant-baseline="middle" text-anchor="end" transform="translate(23.012,281.9071)" font-family="Segoe UI" font-size="12" font-weight="400" fill="black">200</text>
  <text dominant-baseline="middle" text-anchor="end" transform="translate(23.012,188.295)" font-family="Segoe UI" font-size="12" font-weight="400" fill="black">400</text>
  <text dominant-baseline="middle" text-anchor="end" transform="translate(23.012,94.6829)" font-family="Segoe UI" font-size="12" font-weight="400" fill="black">600</text>
  <polyline points="34.012,281.9071 27.012,281.9071" style="fill:none;stroke:black;stroke-width:1" />
  <polyline points="34.012,188.295 27.012,188.295" style="fill:none;stroke:black;stroke-width:1" />
  <polyline points="34.012,94.6829 27.012,94.6829" style="fill:none;stroke:black;stroke-width:1" />
  <text dominant-baseline="hanging" text-anchor="middle" transform="translate(81.908,381.947)" font-family="Segoe UI" font-size="12" font-weight="400" fill="black">01. September</text>
  <text dominant-baseline="hanging" text-anchor="middle" transform="translate(153.7519,381.947)" font-family="Segoe UI" font-size="12" font-weight="400" fill="black">01. October</text>
  <text dominant-baseline="hanging" text-anchor="middle" transform="translate(227.9907,381.947)" font-family="Segoe UI" font-size="12" font-weight="400" fill="black">01. November</text>
  <text dominant-baseline="hanging" text-anchor="middle" transform="translate(299.8346,381.947)" font-family="Segoe UI" font-size="12" font-weight="400" fill="black">01. December</text>
  <text dominant-baseline="hanging" text-anchor="middle" transform="translate(374.0734,381.947)" font-family="Segoe UI" font-size="12" font-weight="400" fill="black">01. January</text>
  <text dominant-baseline="hanging" text-anchor="middle" transform="translate(448.3121,381.947)" font-family="Segoe UI" font-size="12" font-weight="400" fill="black">01. February</text>
  <text dominant-baseline="hanging" text-anchor="middle" transform="translate(515.3665,381.947)" font-family="Segoe UI" font-size="12" font-weight="400" fill="black">01. March</text>
  <text dominant-baseline="hanging" text-anchor="middle" transform="translate(589.6052,381.947)" font-family="Segoe UI" font-size="12" font-weight="400" fill="black">01. April</text>
  <polyline points="81.908,370.947 81.908,377.947" style="fill:none;stroke:black;stroke-width:1" />
  <polyline points="153.7519,370.947 153.7519,377.947" style="fill:none;stroke:black;stroke-width:1" />
  <polyline points="227.9907,370.947 227.9907,377.947" style="fill:none;stroke:black;stroke-width:1" />
  <polyline points="299.8346,370.947 299.8346,377.947" style="fill:none;stroke:black;stroke-width:1" />
  <polyline points="374.0734,370.947 374.0734,377.947" style="fill:none;stroke:black;stroke-width:1" />
  <polyline points="448.3121,370.947 448.3121,377.947" style="fill:none;stroke:black;stroke-width:1" />
  <polyline points="515.3665,370.947 515.3665,377.947" style="fill:none;stroke:black;stroke-width:1" />
  <polyline points="589.6052,370.947 589.6052,377.947" style="fill:none;stroke:black;stroke-width:1" />
  <polyline points="34.012,361.4774 38.8016,357.2648 45.986,360.0732 48.3808,357.2648 50.7756,359.1371 53.1704,356.7968 55.5652,357.2648 62.7496,357.7329 65.1444,361.4774 67.5392,361.9454 69.934,361.0093 72.3288,361.0093 79.5132,364.2857 81.908,365.6899 84.3028,365.6899 86.6976,364.7538 89.0924,365.2219 96.2768,365.2219 98.6716,367.5622 101.0664,366.158 103.4612,363.3496 105.8559,361.4774 113.0403,356.7968 115.4351,353.5204 117.8299,348.8398 120.2247,348.3717 122.6195,346.9675 129.8039,351.1801 132.1987,352.1162 134.5935,351.6481 136.9883,349.7759 139.3831,347.4356 146.5675,336.2021 148.9623,337.6063 151.3571,338.0744 153.7519,331.0534 156.1467,324.5006 163.3311,317.0116 165.7259,323.5645 168.1207,317.4797 170.5155,310.9268 172.9103,309.0546 180.0947,295.0128 182.4895,305.7782 184.8843,300.1615 187.2791,287.5238 189.6739,269.2695 196.8583,245.8664 199.2531,247.2706 201.6479,244.4622 204.0427,222.9315 206.4375,218.7189 213.6219,155.5307 216.0167,172.849 218.4115,172.849 220.8063,167.7003 223.2011,139.6167 230.3855,148.5098 232.7803,195.3159 235.1751,185.0186 237.5699,171.4448 239.9647,165.8281 247.149,134.468 249.5438,153.6585 251.9386,140.0847 256.7282,113.8734 263.9126,108.2566 266.3074,134.468 268.7022,141.4889 271.097,112.0011 273.4918,134.9361 280.6762,156.4669 283.071,173.7851 285.4658,167.7003 287.8606,182.2102 290.2554,160.2113 297.4398,132.5958 299.8346,148.0418 302.2294,171.9129 304.6242,163.4878 307.019,175.6573 314.2034,117.1498 316.5982,141.957 318.993,155.5307 321.3878,132.1277 323.7826,117.1498 330.967,70.3437 333.3618,99.8315 335.7566,111.065 338.1514,95.1509 340.5462,69.8757 347.7306,33.835 350.1254,61.4506 352.5202,84.8536 364.4942,32.4308 366.889,57.7061 369.2838,76.4285 371.6786,56.77 381.2578,57.238 383.6525,82.5133 386.0473,118.0859 388.4421,126.0429 390.8369,98.8954 400.4161,150.8501 402.8109,174.7212 405.2057,164.4239 407.6005,190.6353 414.7849,206.0813 417.1797,233.2288 419.5745,240.2497 421.9693,238.3775 424.3641,234.1649 431.5485,233.6969 436.3381,244.4622 438.7329,224.8037 441.1277,212.1661 448.3121,214.0383 450.7069,235.5691 453.1017,254.2915 455.4965,245.3984 457.8913,245.3984 465.0757,262.2485 467.4705,274.4181 469.8653,267.3972 472.2601,253.3554 474.6549,239.3136 481.8393,249.6109 484.2341,284.2474 486.6289,282.3752 489.0237,272.5459 491.4185,293.6086 498.6029,302.5018 500.9977,310.9268 503.3925,305.3101 505.7873,303.4379 508.1821,305.7782 515.3665,308.1185 517.7613,319.82 520.1561,311.863 522.5508,286.5877 524.9456,285.1835 532.13,265.993 534.5248,265.993 536.9196,258.5041 539.3144,246.8025 541.7092,232.2927 548.8936,222.4634 551.2884,223.8676 553.6832,224.8037 556.078,195.3159 558.4728,175.1893 565.6572,150.3821 568.052,150.8501 570.4468,152.7224 572.8416,120.4262 575.2364,114.3414 582.4208,110.1289 584.8156,143.3612 587.2104,149.914 589.6052,138.6806 592,104.5121" style="fill:none;stroke:rgb(31,119,180);stroke-width:2;stroke-linejoin:bevel" />
  <text dominant-baseline="hanging" text-anchor="middle" transform="translate(313.006,8)" font-family="Segoe UI" font-size="18" font-weight="700" fill="black">Aktive Fälle Stadt Aachen 02.04.2021</text>
  <polygon points="34.012,29.0795 592,29.0795 592,370.947 34.012,370.947" style="fill:none;stroke:black;stroke-width:1" />
  <polygon points="42.012,37.0795 228.483,37.0795 228.483,63.1325 42.012,63.1325" style="fill:none;stroke:none;" />
  <text dominant-baseline="hanging" text-anchor="start" transform="translate(70.012,45.0795)" font-family="Segoe UI" font-size="12" font-weight="400" fill="black">Aktive Fälle Stadt Aachen 02.04.2021</text>
  <polyline points="50.012,50.106 66.012,50.106" style="fill:none;stroke:rgb(31,119,180);stroke-width:2" />
</svg>