<?xml version="1.0" encoding="utf-8" standalone="no"?>
<!DOCTYPE svg PUBLIC "-//W3C//DTD SVG 1.1//EN" "http://www.w3.org/Graphics/SVG/1.1/DTD/svg11.dtd">
<svg width="600" height="400" version="1.1" xmlns:xlink="http://www.w3.org/1999/xlink" xmlns="http://www.w3.org/2000/svg">
  <rect x="0" y="0" width="600" height="400" style="fill:rgb(255,255,255);stroke:none;" />
  <polyline points="39.016,357.0495 35.016,357.0495" style="fill:none;stroke:black;stroke-width:1" />
  <polyline points="39.016,341.1212 35.016,341.1212" style="fill:none;stroke:black;stroke-width:1" />
  <polyline points="39.016,325.1929 35.016,325.1929" style="fill:none;stroke:black;stroke-width:1" />
  <polyline points="39.016,293.3363 35.016,293.3363" style="fill:none;stroke:black;stroke-width:1" />
  <polyline points="39.016,277.408 35.016,277.408" style="fill:none;stroke:black;stroke-width:1" />
  <polyline points="39.016,261.4797 35.016,261.4797" style="fill:none;stroke:black;stroke-width:1" />
  <polyline points="39.016,229.6231 35.016,229.6231" style="fill:none;stroke:black;stroke-width:1" />
  <polyline points="39.016,213.6948 35.016,213.6948" style="fill:none;stroke:black;stroke-width:1" />
  <polyline points="39.016,197.7665 35.016,197.7665" style="fill:none;stroke:black;stroke-width:1" />
  <polyline points="39.016,165.9099 35.016,165.9099" style="fill:none;stroke:black;stroke-width:1" />
  <polyline points="39.016,149.9816 35.016,149.9816" style="fill:none;stroke:black;stroke-width:1" />
  <polyline points="39.016,134.0533 35.016,134.0533" style="fill:none;stroke:black;stroke-width:1" />
  <polyline points="39.016,102.1968 35.016,102.1968" style="fill:none;stroke:black;stroke-width:1" />
  <polyline points="39.016,86.2685 35.016,86.2685" style="fill:none;stroke:black;stroke-width:1" />
  <polyline points="39.016,70.3402 35.016,70.3402" style="fill:none;stroke:black;stroke-width:1" />
  <polyline points="39.016,38.4836 35.016,38.4836" style="fill:none;stroke:black;stroke-width:1" />
  <text dominant-baseline="middle" text-anchor="end" transform="translate(28.016,309.2646)" font-family="Segoe UI" font-size="12" font-weight="400" fill="black">200</text>
  <text dominant-baseline="middle" text-anchor="end" transform="translate(28.016,245.5514)" font-family="Segoe UI" font-size="12" font-weight="400" fill="black">400</text>
  <text dominant-baseline="middle" text-anchor="end" transform="translate(28.016,181.8382)" font-family="Segoe UI" font-size="12" font-weight="400" fill="black">600</text>
  <text dominant-baseline="middle" text-anchor="end" transform="translate(28.016,118.125)" font-family="Segoe UI" font-size="12" font-weight="400" fill="black">800</text>
  <text dominant-baseline="middle" text-anchor="end" transform="translate(28.016,54.4119)" font-family="Segoe UI" font-size="12" font-weight="400" fill="black">1000</text>
  <polyline points="39.016,309.2646 32.016,309.2646" style="fill:none;stroke:black;stroke-width:1" />
  <polyline points="39.016,245.5514 32.016,245.5514" style="fill:none;stroke:black;stroke-width:1" />
  <polyline points="39.016,181.8382 32.016,181.8382" style="fill:none;stroke:black;stroke-width:1" />
  <polyline points="39.016,118.125 32.016,118.125" style="fill:none;stroke:black;stroke-width:1" />
  <polyline points="39.016,54.4119 32.016,54.4119" style="fill:none;stroke:black;stroke-width:1" />
  <text dominant-baseline="hanging" text-anchor="middle" transform="translate(81.7175,381.947)" font-family="Segoe UI" font-size="12" font-weight="400" fill="black">01. September</text>
  <text dominant-baseline="hanging" text-anchor="middle" transform="translate(145.7697,381.947)" font-family="Segoe UI" font-size="12" font-weight="400" fill="black">01. October</text>
  <text dominant-baseline="hanging" text-anchor="middle" transform="translate(211.9569,381.947)" font-family="Segoe UI" font-size="12" font-weight="400" fill="black">01. November</text>
  <text dominant-baseline="hanging" text-anchor="middle" transform="translate(276.0091,381.947)" font-family="Segoe UI" font-size="12" font-weight="400" fill="black">01. December</text>
  <text dominant-baseline="hanging" text-anchor="middle" transform="translate(342.1964,381.947)" font-family="Segoe UI" font-size="12" font-weight="400" fill="black">01. January</text>
  <text dominant-baseline="hanging" text-anchor="middle" transform="translate(408.3837,381.947)" font-family="Segoe UI" font-size="12" font-weight="400" fill="black">01. February</text>
  <text dominant-baseline="hanging" text-anchor="middle" transform="translate(468.1657,381.947)" font-family="Segoe UI" font-size="12" font-weight="400" fill="black">01. March</text>
  <text dominant-baseline="hanging" text-anchor="middle" transform="translate(534.353,381.947)" font-family="Segoe UI" font-size="12" font-weight="400" fill="black">01. April</text>
  <polyline points="81.7175,370.947 81.7175,377.947" style="fill:none;stroke:black;stroke-width:1" />
  <polyline points="145.7697,370.947 145.7697,377.947" style="fill:none;stroke:black;stroke-width:1" />
  <polyline points="211.9569,370.947 211.9569,377.947" style="fill:none;stroke:black;stroke-width:1" />
  <polyline points="276.0091,370.947 276.0091,377.947" style="fill:none;stroke:black;stroke-width:1" />
  <polyline points="342.1964,370.947 342.1964,377.947" style="fill:none;stroke:black;stroke-width:1" />
  <polyline points="408.3837,370.947 408.3837,377.947" style="fill:none;stroke:black;stroke-width:1" />
  <polyline points="468.1657,370.947 468.1657,377.947" style="fill:none;stroke:black;stroke-width:1" />
  <polyline points="534.353,370.947 534.353,377.947" style="fill:none;stroke:black;stroke-width:1" />
  <polyline points="39.016,363.4208 43.2861,360.5537 49.6914,362.4651 51.8264,360.5537 53.9615,361.828 56.0966,360.2352 58.2317,360.5537 64.6369,360.8723 66.772,363.4208 68.907,363.7394 71.0421,363.1023 73.1772,363.1023 79.5824,365.3322 81.7175,366.2879 83.8525,366.2879 85.9876,365.6508 88.1227,365.9693 94.5279,365.9693 96.663,367.5622 98.7981,366.6065 100.9331,364.6951 103.0682,363.4208 109.4734,360.2352 111.6085,358.0052 113.7436,354.8195 115.8786,354.501 118.0137,353.5453 124.4189,356.4124 126.554,357.0495 128.6891,356.7309 130.8242,355.4567 132.9592,353.8638 139.3644,346.2183 141.4995,347.174 143.6346,347.4925 145.7697,342.714 147.9047,338.2541 154.31,333.1571 156.445,337.617 158.5801,333.4756 160.7152,329.0157 162.8503,327.7414 169.2555,318.1845 171.3905,325.5115 173.5256,321.6887 175.6607,313.0874 177.7958,300.6633 184.201,284.735 186.3361,285.6907 188.4711,283.7793 190.6062,269.1253 192.7413,266.2582 199.1465,223.2518 201.2816,235.0387 203.4166,235.0387 205.5517,231.5345 207.6868,212.4206 214.092,218.4733 216.2271,250.3299 218.3622,243.3215 220.4972,234.083 222.6323,230.2603 229.0375,208.9163 231.1726,221.9775 233.3077,212.7391 237.5778,194.8994 243.983,191.0766 246.1181,208.9163 248.2532,213.6948 250.3883,193.6252 252.5233,209.2349 258.9286,223.8889 261.0636,235.6759 263.1987,231.5345 265.3338,241.4101 267.4688,226.4375 273.8741,207.6421 276.0091,218.1548 278.1442,234.4016 280.2793,228.6674 282.4144,236.9501 288.8196,197.1294 290.9547,214.0134 293.0897,223.2518 295.2248,207.3235 297.3599,197.1294 303.7651,165.2728 305.9002,185.3425 308.0352,192.988 310.1703,182.1568 312.3054,164.9542 318.7106,140.4247 320.8457,159.2201 322.9808,175.1484 333.6561,139.469 335.7912,156.6715 337.9263,169.4142 340.0613,156.0344 348.6016,156.353 350.7367,173.5555 352.8718,197.7665 355.0069,203.1822 357.1419,184.7053 365.6822,220.0661 367.8173,236.313 369.9524,229.3046 372.0874,247.1443 378.4927,257.6569 380.6277,276.1338 382.7628,280.9122 384.8979,279.638 387.033,276.7709 393.4382,276.4523 397.7083,283.7793 399.8434,270.3996 401.9785,261.7983 408.3837,263.0725 410.5188,277.7266 412.6538,290.4692 414.7889,284.4165 416.924,284.4165 423.3292,295.8848 425.4643,304.1676 427.5994,299.3891 429.7344,289.8321 431.8695,280.2751 438.2747,287.2836 440.4098,310.8574 442.5449,309.5832 444.6799,302.8933 446.815,317.2288 453.2202,323.2815 455.3553,329.0157 457.4904,325.1929 459.6255,323.9186 461.7605,325.5115 468.1657,327.1043 470.3008,335.0684 472.4359,329.6528 474.571,312.4503 476.706,311.4946 483.1113,298.4334 485.2463,298.4334 487.3814,293.3363 489.5165,285.3722 491.6516,275.4966 498.0568,268.8067 500.1918,269.7624 502.3269,270.3996 504.462,250.3299 506.5971,236.6316 513.0023,219.7476 515.1374,220.0661 517.2724,221.3404 519.4075,199.3594 521.5426,195.218 527.9478,192.3509 530.0829,214.9691 532.2179,219.429 534.353,211.7834 536.4881,188.5281 545.0284,174.1927 547.1635,176.7412 549.2985,153.4859 551.4336,148.3888 557.8388,142.6546 559.9739,144.2475 562.109,126.7263 564.244,113.6651 566.3791,116.2137 572.7843,99.9668 574.9194,95.1883 577.0545,72.8887 579.1896,44.5363 581.3246,32.4308 587.7299,42.3064 589.8649,49.3148 592,66.1988" style="fill:none;stroke:rgb(31,119,180);stroke-width:2;stroke-linejoin:bevel" />
  <text dominant-baseline="hanging" text-anchor="middle" transform="translate(315.508,8)" font-family="Segoe UI" font-size="18" font-weight="700" fill="black">Aktive Fälle Stadt Aachen 28.04.2021</text>
  <polygon points="39.016,29.0795 592,29.0795 592,370.947 39.016,370.947" style="fill:none;stroke:black;stroke-width:1" />
  <polygon points="47.016,37.0795 233.487,37.0795 233.487,63.1325 47.016,63.1325" style="fill:none;stroke:none;" />
  <text dominant-baseline="hanging" text-anchor="start" transform="translate(75.016,45.0795)" font-family="Segoe UI" font-size="12" font-weight="400" fill="black">Aktive Fälle Stadt Aachen 28.04.2021</text>
  <polyline points="55.016,50.106 71.016,50.106" style="fill:none;stroke:rgb(31,119,180);stroke-width:2" />
</svg>