<?xml version="1.0" encoding="utf-8" standalone="no"?>
<!DOCTYPE svg PUBLIC "-//W3C//DTD SVG 1.1//EN" "http://www.w3.org/Graphics/SVG/1.1/DTD/svg11.dtd">
<svg width="600" height="400" version="1.1" xmlns:xlink="http://www.w3.org/1999/xlink" xmlns="http://www.w3.org/2000/svg">
  <rect x="0" y="0" width="600" height="400" style="fill:rgb(255,255,255);stroke:none;" />
  <polyline points="34.012,365.4977 30.012,365.4977" style="fill:none;stroke:black;stroke-width:1" />
  <polyline points="34.012,351.7346 30.012,351.7346" style="fill:none;stroke:black;stroke-width:1" />
  <polyline points="34.012,337.9715 30.012,337.9715" style="fill:none;stroke:black;stroke-width:1" />
  <polyline points="34.012,324.2084 30.012,324.2084" style="fill:none;stroke:black;stroke-width:1" />
  <polyline points="34.012,296.6822 30.012,296.6822" style="fill:none;stroke:black;stroke-width:1" />
  <polyline points="34.012,282.9191 30.012,282.9191" style="fill:none;stroke:black;stroke-width:1" />
  <polyline points="34.012,269.156 30.012,269.156" style="fill:none;stroke:black;stroke-width:1" />
  <polyline points="34.012,255.393 30.012,255.393" style="fill:none;stroke:black;stroke-width:1" />
  <polyline points="34.012,227.8668 30.012,227.8668" style="fill:none;stroke:black;stroke-width:1" />
  <polyline points="34.012,214.1037 30.012,214.1037" style="fill:none;stroke:black;stroke-width:1" />
  <polyline points="34.012,200.3406 30.012,200.3406" style="fill:none;stroke:black;stroke-width:1" />
  <polyline points="34.012,186.5775 30.012,186.5775" style="fill:none;stroke:black;stroke-width:1" />
  <polyline points="34.012,159.0513 30.012,159.0513" style="fill:none;stroke:black;stroke-width:1" />
  <polyline points="34.012,145.2882 30.012,145.2882" style="fill:none;stroke:black;stroke-width:1" />
  <polyline points="34.012,131.5251 30.012,131.5251" style="fill:none;stroke:black;stroke-width:1" />
  <polyline points="34.012,117.762 30.012,117.762" style="fill:none;stroke:black;stroke-width:1" />
  <polyline points="34.012,90.2358 30.012,90.2358" style="fill:none;stroke:black;stroke-width:1" />
  <polyline points="34.012,76.4727 30.012,76.4727" style="fill:none;stroke:black;stroke-width:1" />
  <polyline points="34.012,62.7096 30.012,62.7096" style="fill:none;stroke:black;stroke-width:1" />
  <polyline points="34.012,48.9465 30.012,48.9465" style="fill:none;stroke:black;stroke-width:1" />
  <text dominant-baseline="middle" text-anchor="end" transform="translate(23.012,310.4453)" font-family="Segoe UI" font-size="12" font-weight="400" fill="black">100</text>
  <text dominant-baseline="middle" text-anchor="end" transform="translate(23.012,241.6299)" font-family="Segoe UI" font-size="12" font-weight="400" fill="black">200</text>
  <text dominant-baseline="middle" text-anchor="end" transform="translate(23.012,172.8144)" font-family="Segoe UI" font-size="12" font-weight="400" fill="black">300</text>
  <text dominant-baseline="middle" text-anchor="end" transform="translate(23.012,103.9989)" font-family="Segoe UI" font-size="12" font-weight="400" fill="black">400</text>
  <text dominant-baseline="middle" text-anchor="end" transform="translate(23.012,35.1834)" font-family="Segoe UI" font-size="12" font-weight="400" fill="black">500</text>
  <polyline points="34.012,310.4453 27.012,310.4453" style="fill:none;stroke:black;stroke-width:1" />
  <polyline points="34.012,241.6299 27.012,241.6299" style="fill:none;stroke:black;stroke-width:1" />
  <polyline points="34.012,172.8144 27.012,172.8144" style="fill:none;stroke:black;stroke-width:1" />
  <polyline points="34.012,103.9989 27.012,103.9989" style="fill:none;stroke:black;stroke-width:1" />
  <polyline points="34.012,35.1834 27.012,35.1834" style="fill:none;stroke:black;stroke-width:1" />
  <text dominant-baseline="hanging" text-anchor="middle" transform="translate(54.1802,381.947)" font-family="Segoe UI" font-size="12" font-weight="400" fill="black">15. August</text>
  <text dominant-baseline="hanging" text-anchor="middle" transform="translate(148.2987,381.947)" font-family="Segoe UI" font-size="12" font-weight="400" fill="black">29. August</text>
  <text dominant-baseline="hanging" text-anchor="middle" transform="translate(242.4172,381.947)" font-family="Segoe UI" font-size="12" font-weight="400" fill="black">12. September</text>
  <text dominant-baseline="hanging" text-anchor="middle" transform="translate(336.5356,381.947)" font-family="Segoe UI" font-size="12" font-weight="400" fill="black">26. September</text>
  <text dominant-baseline="hanging" text-anchor="middle" transform="translate(430.6541,381.947)" font-family="Segoe UI" font-size="12" font-weight="400" fill="black">10. October</text>
  <text dominant-baseline="hanging" text-anchor="middle" transform="translate(524.7725,381.947)" font-family="Segoe UI" font-size="12" font-weight="400" fill="black">24. October</text>
  <polyline points="54.1802,370.947 54.1802,377.947" style="fill:none;stroke:black;stroke-width:1" />
  <polyline points="148.2987,370.947 148.2987,377.947" style="fill:none;stroke:black;stroke-width:1" />
  <polyline points="242.4172,370.947 242.4172,377.947" style="fill:none;stroke:black;stroke-width:1" />
  <polyline points="336.5356,370.947 336.5356,377.947" style="fill:none;stroke:black;stroke-width:1" />
  <polyline points="430.6541,370.947 430.6541,377.947" style="fill:none;stroke:black;stroke-width:1" />
  <polyline points="524.7725,370.947 524.7725,377.947" style="fill:none;stroke:black;stroke-width:1" />
  <polyline points="34.012,358.6162 47.4575,352.4228 67.6257,356.5517 74.3485,352.4228 81.0712,355.1754 87.794,351.7346 94.5167,352.4228 114.685,353.1109 121.4077,358.6162 128.1305,359.3043 134.8532,357.928 141.576,357.928 161.7442,362.7451 168.4669,364.8096 175.1897,364.8096 181.9124,363.4332 188.6352,364.1214 208.8034,364.1214 215.5262,367.5622 222.2489,365.4977 228.9717,361.3688 235.6944,358.6162 255.8627,351.7346 262.5854,346.9175 269.3081,340.036 276.0309,339.3478 282.7536,337.2834 302.9219,343.4768 309.6446,344.8531 316.3674,344.1649 323.0901,341.4123 329.8129,337.9715 349.9811,321.4558 356.7039,323.5203 363.4266,324.2084 370.1493,313.8861 376.8721,304.2519 397.0403,293.2415 403.7631,302.8756 410.4858,293.9296 417.2086,284.2954 423.9313,281.5428 444.0996,260.8982 450.8223,276.7257 457.5451,268.4679 464.2678,249.8877 470.9906,223.0497 491.1588,188.6419 497.8815,190.7064 504.6043,186.5775 511.327,154.9224 518.0498,148.729 538.218,55.8281 544.9408,81.2898 551.6635,81.2898 558.3863,73.7201 565.109,32.4308 585.2773,45.5058 592,114.3212" style="fill:none;stroke:rgb(31,119,180);stroke-width:2;stroke-linejoin:bevel" />
  <text dominant-baseline="hanging" text-anchor="middle" transform="translate(313.006,8)" font-family="Segoe UI" font-size="18" font-weight="700" fill="black">Aktive Fälle Stadt Aachen 03.11.2020</text>
  <polygon points="34.012,29.0795 592,29.0795 592,370.947 34.012,370.947" style="fill:none;stroke:black;stroke-width:1" />
  <polygon points="42.012,37.0795 228.483,37.0795 228.483,63.1325 42.012,63.1325" style="fill:none;stroke:none;" />
  <text dominant-baseline="hanging" text-anchor="start" transform="translate(70.012,45.0795)" font-family="Segoe UI" font-size="12" font-weight="400" fill="black">Aktive Fälle Stadt Aachen 03.11.2020</text>
  <polyline points="50.012,50.106 66.012,50.106" style="fill:none;stroke:rgb(31,119,180);stroke-width:2" />
</svg>