<?xml version="1.0" encoding="utf-8" standalone="no"?>
<!DOCTYPE svg PUBLIC "-//W3C//DTD SVG 1.1//EN" "http://www.w3.org/Graphics/SVG/1.1/DTD/svg11.dtd">
<svg width="600" height="400" version="1.1" xmlns:xlink="http://www.w3.org/1999/xlink" xmlns="http://www.w3.org/2000/svg">
  <rect x="0" y="0" width="600" height="400" style="fill:rgb(255,255,255);stroke:none;" />
  <polyline points="34.012,352.1162 30.012,352.1162" style="fill:none;stroke:black;stroke-width:1" />
  <polyline points="34.012,328.7131 30.012,328.7131" style="fill:none;stroke:black;stroke-width:1" />
  <polyline points="34.012,305.3101 30.012,305.3101" style="fill:none;stroke:black;stroke-width:1" />
  <polyline points="34.012,258.5041 30.012,258.5041" style="fill:none;stroke:black;stroke-width:1" />
  <polyline points="34.012,235.101 30.012,235.101" style="fill:none;stroke:black;stroke-width:1" />
  <polyline points="34.012,211.698 30.012,211.698" style="fill:none;stroke:black;stroke-width:1" />
  <polyline points="34.012,164.892 30.012,164.892" style="fill:none;stroke:black;stroke-width:1" />
  <polyline points="34.012,141.4889 30.012,141.4889" style="fill:none;stroke:black;stroke-width:1" />
  <polyline points="34.012,118.0859 30.012,118.0859" style="fill:none;stroke:black;stroke-width:1" />
  <polyline points="34.012,71.2798 30.012,71.2798" style="fill:none;stroke:black;stroke-width:1" />
  <polyline points="34.012,47.8768 30.012,47.8768" style="fill:none;stroke:black;stroke-width:1" />
  <text dominant-baseline="middle" text-anchor="end" transform="translate(23.012,281.9071)" font-family="Segoe UI" font-size="12" font-weight="400" fill="black">200</text>
  <text dominant-baseline="middle" text-anchor="end" transform="translate(23.012,188.295)" font-family="Segoe UI" font-size="12" font-weight="400" fill="black">400</text>
  <text dominant-baseline="middle" text-anchor="end" transform="translate(23.012,94.6829)" font-family="Segoe UI" font-size="12" font-weight="400" fill="black">600</text>
  <polyline points="34.012,281.9071 27.012,281.9071" style="fill:none;stroke:black;stroke-width:1" />
  <polyline points="34.012,188.295 27.012,188.295" style="fill:none;stroke:black;stroke-width:1" />
  <polyline points="34.012,94.6829 27.012,94.6829" style="fill:none;stroke:black;stroke-width:1" />
  <text dominant-baseline="hanging" text-anchor="middle" transform="translate(88.9862,381.947)" font-family="Segoe UI" font-size="12" font-weight="400" fill="black">01. September</text>
  <text dominant-baseline="hanging" text-anchor="middle" transform="translate(171.4475,381.947)" font-family="Segoe UI" font-size="12" font-weight="400" fill="black">01. October</text>
  <text dominant-baseline="hanging" text-anchor="middle" transform="translate(256.6575,381.947)" font-family="Segoe UI" font-size="12" font-weight="400" fill="black">01. November</text>
  <text dominant-baseline="hanging" text-anchor="middle" transform="translate(339.1187,381.947)" font-family="Segoe UI" font-size="12" font-weight="400" fill="black">01. December</text>
  <text dominant-baseline="hanging" text-anchor="middle" transform="translate(424.3287,381.947)" font-family="Segoe UI" font-size="12" font-weight="400" fill="black">01. January</text>
  <text dominant-baseline="hanging" text-anchor="middle" transform="translate(509.5387,381.947)" font-family="Segoe UI" font-size="12" font-weight="400" fill="black">01. February</text>
  <text dominant-baseline="hanging" text-anchor="middle" transform="translate(586.5026,381.947)" font-family="Segoe UI" font-size="12" font-weight="400" fill="black">01. March</text>
  <polyline points="88.9862,370.947 88.9862,377.947" style="fill:none;stroke:black;stroke-width:1" />
  <polyline points="171.4475,370.947 171.4475,377.947" style="fill:none;stroke:black;stroke-width:1" />
  <polyline points="256.6575,370.947 256.6575,377.947" style="fill:none;stroke:black;stroke-width:1" />
  <polyline points="339.1187,370.947 339.1187,377.947" style="fill:none;stroke:black;stroke-width:1" />
  <polyline points="424.3287,370.947 424.3287,377.947" style="fill:none;stroke:black;stroke-width:1" />
  <polyline points="509.5387,370.947 509.5387,377.947" style="fill:none;stroke:black;stroke-width:1" />
  <polyline points="586.5026,370.947 586.5026,377.947" style="fill:none;stroke:black;stroke-width:1" />
  <polyline points="34.012,361.4774 39.5094,357.2648 47.7555,360.0732 50.5043,357.2648 53.253,359.1371 56.0017,356.7968 58.7504,357.2648 66.9965,357.7329 69.7452,361.4774 72.4939,361.9454 75.2426,361.0093 77.9913,361.0093 86.2375,364.2857 88.9862,365.6899 91.7349,365.6899 94.4836,364.7538 97.2323,365.2219 105.4784,365.2219 108.2272,367.5622 110.9759,366.158 113.7246,363.3496 116.4733,361.4774 124.7194,356.7968 127.4681,353.5204 130.2168,348.8398 132.9655,348.3717 135.7142,346.9675 143.9604,351.1801 146.7091,352.1162 149.4578,351.6481 152.2065,349.7759 154.9552,347.4356 163.2013,336.2021 165.95,337.6063 168.6988,338.0744 171.4475,331.0534 174.1962,324.5006 182.4423,317.0116 185.191,323.5645 187.9397,317.4797 190.6884,310.9268 193.4371,309.0546 201.6833,295.0128 204.432,305.7782 207.1807,300.1615 209.9294,287.5238 212.6781,269.2695 220.9242,245.8664 223.6729,247.2706 226.4217,244.4622 229.1704,222.9315 231.9191,218.7189 240.1652,155.5307 242.9139,172.849 245.6626,172.849 248.4113,167.7003 251.16,139.6167 259.4062,148.5098 262.1549,195.3159 264.9036,185.0186 267.6523,171.4448 270.401,165.8281 278.6471,134.468 281.3958,153.6585 284.1446,140.0847 289.642,113.8734 297.8881,108.2566 300.6368,134.468 303.3855,141.4889 306.1342,112.0011 308.8829,134.9361 317.1291,156.4669 319.8778,173.7851 322.6265,167.7003 325.3752,182.2102 328.1239,160.2113 336.37,132.5958 339.1187,148.0418 341.8674,171.9129 344.6162,163.4878 347.3649,175.6573 355.611,117.1498 358.3597,141.957 361.1084,155.5307 363.8571,132.1277 366.6058,117.1498 374.852,70.3437 377.6007,99.8315 380.3494,111.065 383.0981,95.1509 385.8468,69.8757 394.0929,33.835 396.8416,61.4506 399.5903,84.8536 413.3339,32.4308 416.0826,57.7061 418.8313,76.4285 421.58,56.77 432.5749,57.238 435.3236,82.5133 438.0723,118.0859 440.821,126.0429 443.5697,98.8954 454.5645,150.8501 457.3132,174.7212 460.062,164.4239 462.8107,190.6353 471.0568,206.0813 473.8055,233.2288 476.5542,240.2497 479.3029,238.3775 482.0516,234.1649 490.2978,233.6969 495.7952,244.4622 498.5439,224.8037 501.2926,212.1661 509.5387,214.0383 512.2874,235.5691 515.0361,254.2915 517.7848,245.3984 520.5336,245.3984 528.7797,262.2485 531.5284,274.4181 534.2771,267.3972 537.0258,253.3554 539.7745,239.3136 548.0207,249.6109 550.7694,284.2474 553.5181,282.3752 556.2668,272.5459 559.0155,293.6086 567.2616,302.5018 570.0103,310.9268 572.759,305.3101 575.5077,303.4379 578.2565,305.7782 586.5026,308.1185 589.2513,319.82 592,311.863" style="fill:none;stroke:rgb(31,119,180);stroke-width:2;stroke-linejoin:bevel" />
  <text dominant-baseline="hanging" text-anchor="middle" transform="translate(313.006,8)" font-family="Segoe UI" font-size="18" font-weight="700" fill="black">Aktive Fälle Stadt Aachen 03.03.2021</text>
  <polygon points="34.012,29.0795 592,29.0795 592,370.947 34.012,370.947" style="fill:none;stroke:black;stroke-width:1" />
  <polygon points="42.012,37.0795 228.483,37.0795 228.483,63.1325 42.012,63.1325" style="fill:none;stroke:none;" />
  <text dominant-baseline="hanging" text-anchor="start" transform="translate(70.012,45.0795)" font-family="Segoe UI" font-size="12" font-weight="400" fill="black">Aktive Fälle Stadt Aachen 03.03.2021</text>
  <polyline points="50.012,50.106 66.012,50.106" style="fill:none;stroke:rgb(31,119,180);stroke-width:2" />
</svg>