<?xml version="1.0" encoding="utf-8" standalone="no"?>
<!DOCTYPE svg PUBLIC "-//W3C//DTD SVG 1.1//EN" "http://www.w3.org/Graphics/SVG/1.1/DTD/svg11.dtd">
<svg width="600" height="400" version="1.1" xmlns:xlink="http://www.w3.org/1999/xlink" xmlns="http://www.w3.org/2000/svg">
  <rect x="0" y="0" width="600" height="400" style="fill:rgb(255,255,255);stroke:none;" />
  <polyline points="39.016,357.0495 35.016,357.0495" style="fill:none;stroke:black;stroke-width:1" />
  <polyline points="39.016,341.1212 35.016,341.1212" style="fill:none;stroke:black;stroke-width:1" />
  <polyline points="39.016,325.1929 35.016,325.1929" style="fill:none;stroke:black;stroke-width:1" />
  <polyline points="39.016,293.3363 35.016,293.3363" style="fill:none;stroke:black;stroke-width:1" />
  <polyline points="39.016,277.408 35.016,277.408" style="fill:none;stroke:black;stroke-width:1" />
  <polyline points="39.016,261.4797 35.016,261.4797" style="fill:none;stroke:black;stroke-width:1" />
  <polyline points="39.016,229.6231 35.016,229.6231" style="fill:none;stroke:black;stroke-width:1" />
  <polyline points="39.016,213.6948 35.016,213.6948" style="fill:none;stroke:black;stroke-width:1" />
  <polyline points="39.016,197.7665 35.016,197.7665" style="fill:none;stroke:black;stroke-width:1" />
  <polyline points="39.016,165.9099 35.016,165.9099" style="fill:none;stroke:black;stroke-width:1" />
  <polyline points="39.016,149.9816 35.016,149.9816" style="fill:none;stroke:black;stroke-width:1" />
  <polyline points="39.016,134.0533 35.016,134.0533" style="fill:none;stroke:black;stroke-width:1" />
  <polyline points="39.016,102.1968 35.016,102.1968" style="fill:none;stroke:black;stroke-width:1" />
  <polyline points="39.016,86.2685 35.016,86.2685" style="fill:none;stroke:black;stroke-width:1" />
  <polyline points="39.016,70.3402 35.016,70.3402" style="fill:none;stroke:black;stroke-width:1" />
  <polyline points="39.016,38.4836 35.016,38.4836" style="fill:none;stroke:black;stroke-width:1" />
  <polyline points="76.8916,370.947 76.8916,374.947" style="fill:none;stroke:black;stroke-width:1" />
  <polyline points="192.4122,370.947 192.4122,374.947" style="fill:none;stroke:black;stroke-width:1" />
  <polyline points="307.9329,370.947 307.9329,374.947" style="fill:none;stroke:black;stroke-width:1" />
  <polyline points="419.6659,370.947 419.6659,374.947" style="fill:none;stroke:black;stroke-width:1" />
  <polyline points="535.1866,370.947 535.1866,374.947" style="fill:none;stroke:black;stroke-width:1" />
  <text dominant-baseline="middle" text-anchor="end" transform="translate(28.016,309.2646)" font-family="Segoe UI" font-size="12" font-weight="400" fill="black">200</text>
  <text dominant-baseline="middle" text-anchor="end" transform="translate(28.016,245.5514)" font-family="Segoe UI" font-size="12" font-weight="400" fill="black">400</text>
  <text dominant-baseline="middle" text-anchor="end" transform="translate(28.016,181.8382)" font-family="Segoe UI" font-size="12" font-weight="400" fill="black">600</text>
  <text dominant-baseline="middle" text-anchor="end" transform="translate(28.016,118.125)" font-family="Segoe UI" font-size="12" font-weight="400" fill="black">800</text>
  <text dominant-baseline="middle" text-anchor="end" transform="translate(28.016,54.4119)" font-family="Segoe UI" font-size="12" font-weight="400" fill="black">1000</text>
  <polyline points="39.016,309.2646 32.016,309.2646" style="fill:none;stroke:black;stroke-width:1" />
  <polyline points="39.016,245.5514 32.016,245.5514" style="fill:none;stroke:black;stroke-width:1" />
  <polyline points="39.016,181.8382 32.016,181.8382" style="fill:none;stroke:black;stroke-width:1" />
  <polyline points="39.016,118.125 32.016,118.125" style="fill:none;stroke:black;stroke-width:1" />
  <polyline points="39.016,54.4119 32.016,54.4119" style="fill:none;stroke:black;stroke-width:1" />
  <text dominant-baseline="hanging" text-anchor="middle" transform="translate(133.705,381.947)" font-family="Segoe UI" font-size="12" font-weight="400" fill="black">01. October</text>
  <text dominant-baseline="hanging" text-anchor="middle" transform="translate(249.2257,381.947)" font-family="Segoe UI" font-size="12" font-weight="400" fill="black">01. December</text>
  <text dominant-baseline="hanging" text-anchor="middle" transform="translate(366.6401,381.947)" font-family="Segoe UI" font-size="12" font-weight="400" fill="black">01. February</text>
  <text dominant-baseline="hanging" text-anchor="middle" transform="translate(478.3732,381.947)" font-family="Segoe UI" font-size="12" font-weight="400" fill="black">01. April</text>
  <polyline points="133.705,370.947 133.705,377.947" style="fill:none;stroke:black;stroke-width:1" />
  <polyline points="249.2257,370.947 249.2257,377.947" style="fill:none;stroke:black;stroke-width:1" />
  <polyline points="366.6401,370.947 366.6401,377.947" style="fill:none;stroke:black;stroke-width:1" />
  <polyline points="478.3732,370.947 478.3732,377.947" style="fill:none;stroke:black;stroke-width:1" />
  <polyline points="39.016,363.4208 42.8036,360.5537 48.4849,362.4651 50.3787,360.5537 52.2725,361.828 54.1662,360.2352 56.06,360.5537 61.7414,360.8723 63.6352,363.4208 65.5289,363.7394 67.4227,363.1023 69.3165,363.1023 74.9978,365.3322 76.8916,366.2879 78.7854,366.2879 80.6792,365.6508 82.573,365.9693 88.2543,365.9693 90.1481,367.5622 92.0419,366.6065 93.9356,364.6951 95.8294,363.4208 101.5108,360.2352 103.4045,358.0052 105.2983,354.8195 107.1921,354.501 109.0859,353.5453 114.7672,356.4124 116.661,357.0495 118.5548,356.7309 120.4486,355.4567 122.3424,353.8638 128.0237,346.2183 129.9175,347.174 131.8113,347.4925 133.705,342.714 135.5988,338.2541 141.2802,333.1571 143.1739,337.617 145.0677,333.4756 146.9615,329.0157 148.8553,327.7414 154.5366,318.1845 156.4304,325.5115 158.3242,321.6887 160.218,313.0874 162.1118,300.6633 167.7931,284.735 169.6869,285.6907 171.5807,283.7793 173.4744,269.1253 175.3682,266.2582 181.0496,223.2518 182.9433,235.0387 184.8371,235.0387 186.7309,231.5345 188.6247,212.4206 194.306,218.4733 196.1998,250.3299 198.0936,243.3215 199.9874,234.083 201.8812,230.2603 207.5625,208.9163 209.4563,221.9775 211.3501,212.7391 215.1376,194.8994 220.819,191.0766 222.7127,208.9163 224.6065,213.6948 226.5003,193.6252 228.3941,209.2349 234.0754,223.8889 235.9692,235.6759 237.863,231.5345 239.7568,241.4101 241.6505,226.4375 247.3319,207.6421 249.2257,218.1548 251.1195,234.4016 253.0132,228.6674 254.907,236.9501 260.5884,197.1294 262.4821,214.0134 264.3759,223.2518 266.2697,207.3235 268.1635,197.1294 273.8448,165.2728 275.7386,185.3425 277.6324,192.988 279.5262,182.1568 281.4199,164.9542 287.1013,140.4247 288.9951,159.2201 290.8888,175.1484 300.3578,139.469 302.2515,156.6715 304.1453,169.4142 306.0391,156.0344 313.6142,156.353 315.508,173.5555 317.4018,197.7665 319.2956,203.1822 321.1893,184.7053 328.7645,220.0661 330.6582,236.313 332.552,229.3046 334.4458,247.1443 340.1272,257.6569 342.0209,276.1338 343.9147,280.9122 345.8085,279.638 347.7023,276.7709 353.3836,276.4523 357.1712,283.7793 359.065,270.3996 360.9587,261.7983 366.6401,263.0725 368.5339,277.7266 370.4276,290.4692 372.3214,284.4165 374.2152,284.4165 379.8965,295.8848 381.7903,304.1676 383.6841,299.3891 385.5779,289.8321 387.4717,280.2751 393.153,287.2836 395.0468,310.8574 396.9406,309.5832 398.8344,302.8933 400.7281,317.2288 406.4095,323.2815 408.3033,329.0157 410.197,325.1929 412.0908,323.9186 413.9846,325.5115 419.6659,327.1043 421.5597,335.0684 423.4535,329.6528 425.3473,312.4503 427.2411,311.4946 432.9224,298.4334 434.8162,298.4334 436.71,293.3363 438.6038,285.3722 440.4975,275.4966 446.1789,268.8067 448.0727,269.7624 449.9664,270.3996 451.8602,250.3299 453.754,236.6316 459.4353,219.7476 461.3291,220.0661 463.2229,221.3404 465.1167,199.3594 467.0105,195.218 472.6918,192.3509 474.5856,214.9691 476.4794,219.429 478.3732,211.7834 480.2669,188.5281 487.8421,174.1927 489.7358,176.7412 491.6296,153.4859 493.5234,148.3888 499.2047,142.6546 501.0985,144.2475 502.9923,126.7263 504.8861,113.6651 506.7799,116.2137 512.4612,99.9668 514.355,95.1883 516.2488,72.8887 518.1425,44.5363 520.0363,32.4308 525.7177,42.3064 527.6115,49.3148 529.5052,66.1988 531.399,77.6672 533.2928,71.2959 538.9741,109.8423 540.8679,105.701 542.7617,125.7706 544.6555,134.6905 546.5493,148.3888 552.2306,149.0259 554.1244,175.7855 556.0182,170.6884 559.8057,185.3425 565.4871,171.9627 567.3808,185.661 569.2746,186.2982 571.1684,180.564 573.0622,185.0239 580.6373,213.3763 582.5311,232.8088 584.4249,239.8172 586.3187,234.7202 592,261.4797" style="fill:none;stroke:rgb(31,119,180);stroke-width:2;stroke-linejoin:bevel" />
  <text dominant-baseline="hanging" text-anchor="middle" transform="translate(315.508,8)" font-family="Segoe UI" font-size="18" font-weight="700" fill="black">Aktive Fälle Stadt Aachen 31.05.2021</text>
  <polygon points="39.016,29.0795 592,29.0795 592,370.947 39.016,370.947" style="fill:none;stroke:black;stroke-width:1" />
  <polygon points="47.016,37.0795 233.487,37.0795 233.487,63.1325 47.016,63.1325" style="fill:none;stroke:none;" />
  <text dominant-baseline="hanging" text-anchor="start" transform="translate(75.016,45.0795)" font-family="Segoe UI" font-size="12" font-weight="400" fill="black">Aktive Fälle Stadt Aachen 31.05.2021</text>
  <polyline points="55.016,50.106 71.016,50.106" style="fill:none;stroke:rgb(31,119,180);stroke-width:2" />
</svg>