<?xml version="1.0" encoding="utf-8" standalone="no"?>
<!DOCTYPE svg PUBLIC "-//W3C//DTD SVG 1.1//EN" "http://www.w3.org/Graphics/SVG/1.1/DTD/svg11.dtd">
<svg width="600" height="400" version="1.1" xmlns:xlink="http://www.w3.org/1999/xlink" xmlns="http://www.w3.org/2000/svg">
  <rect x="0" y="0" width="600" height="400" style="fill:rgb(255,255,255);stroke:none;" />
  <polyline points="34.012,352.1162 30.012,352.1162" style="fill:none;stroke:black;stroke-width:1" />
  <polyline points="34.012,328.7131 30.012,328.7131" style="fill:none;stroke:black;stroke-width:1" />
  <polyline points="34.012,305.3101 30.012,305.3101" style="fill:none;stroke:black;stroke-width:1" />
  <polyline points="34.012,258.5041 30.012,258.5041" style="fill:none;stroke:black;stroke-width:1" />
  <polyline points="34.012,235.101 30.012,235.101" style="fill:none;stroke:black;stroke-width:1" />
  <polyline points="34.012,211.698 30.012,211.698" style="fill:none;stroke:black;stroke-width:1" />
  <polyline points="34.012,164.892 30.012,164.892" style="fill:none;stroke:black;stroke-width:1" />
  <polyline points="34.012,141.4889 30.012,141.4889" style="fill:none;stroke:black;stroke-width:1" />
  <polyline points="34.012,118.0859 30.012,118.0859" style="fill:none;stroke:black;stroke-width:1" />
  <polyline points="34.012,71.2798 30.012,71.2798" style="fill:none;stroke:black;stroke-width:1" />
  <polyline points="34.012,47.8768 30.012,47.8768" style="fill:none;stroke:black;stroke-width:1" />
  <text dominant-baseline="middle" text-anchor="end" transform="translate(23.012,281.9071)" font-family="Segoe UI" font-size="12" font-weight="400" fill="black">200</text>
  <text dominant-baseline="middle" text-anchor="end" transform="translate(23.012,188.295)" font-family="Segoe UI" font-size="12" font-weight="400" fill="black">400</text>
  <text dominant-baseline="middle" text-anchor="end" transform="translate(23.012,94.6829)" font-family="Segoe UI" font-size="12" font-weight="400" fill="black">600</text>
  <polyline points="34.012,281.9071 27.012,281.9071" style="fill:none;stroke:black;stroke-width:1" />
  <polyline points="34.012,188.295 27.012,188.295" style="fill:none;stroke:black;stroke-width:1" />
  <polyline points="34.012,94.6829 27.012,94.6829" style="fill:none;stroke:black;stroke-width:1" />
  <text dominant-baseline="hanging" text-anchor="middle" transform="translate(114.298,381.947)" font-family="Segoe UI" font-size="12" font-weight="400" fill="black">01. September</text>
  <text dominant-baseline="hanging" text-anchor="middle" transform="translate(234.7271,381.947)" font-family="Segoe UI" font-size="12" font-weight="400" fill="black">01. October</text>
  <text dominant-baseline="hanging" text-anchor="middle" transform="translate(359.1705,381.947)" font-family="Segoe UI" font-size="12" font-weight="400" fill="black">01. November</text>
  <text dominant-baseline="hanging" text-anchor="middle" transform="translate(479.5995,381.947)" font-family="Segoe UI" font-size="12" font-weight="400" fill="black">01. December</text>
  <polyline points="114.298,370.947 114.298,377.947" style="fill:none;stroke:black;stroke-width:1" />
  <polyline points="234.7271,370.947 234.7271,377.947" style="fill:none;stroke:black;stroke-width:1" />
  <polyline points="359.1705,370.947 359.1705,377.947" style="fill:none;stroke:black;stroke-width:1" />
  <polyline points="479.5995,370.947 479.5995,377.947" style="fill:none;stroke:black;stroke-width:1" />
  <polyline points="34.012,361.4774 42.0406,357.2648 54.0835,360.0732 58.0978,357.2648 62.1121,359.1371 66.1264,356.7968 70.1407,357.2648 82.1836,357.7329 86.1979,361.4774 90.2122,361.9454 94.2265,361.0093 98.2408,361.0093 110.2837,364.2857 114.298,365.6899 118.3123,365.6899 122.3266,364.7538 126.3409,365.2219 138.3839,365.2219 142.3982,367.5622 146.4125,366.158 150.4268,363.3496 154.4411,361.4774 166.484,356.7968 170.4983,353.5204 174.5126,348.8398 178.5269,348.3717 182.5412,346.9675 194.5841,351.1801 198.5984,352.1162 202.6127,351.6481 206.627,349.7759 210.6413,347.4356 222.6842,336.2021 226.6985,337.6063 230.7128,338.0744 234.7271,331.0534 238.7414,324.5006 250.7843,317.0116 254.7986,323.5645 258.8129,317.4797 262.8272,310.9268 266.8415,309.0546 278.8844,295.0128 282.8987,305.7782 286.913,300.1615 290.9273,287.5238 294.9416,269.2695 306.9845,245.8664 310.9988,247.2706 315.0132,244.4622 319.0275,222.9315 323.0418,218.7189 335.0847,155.5307 339.099,172.849 343.1133,172.849 347.1276,167.7003 351.1419,139.6167 363.1848,148.5098 367.1991,195.3159 371.2134,185.0186 375.2277,171.4448 379.242,165.8281 391.2849,134.468 395.2992,153.6585 399.3135,140.0847 407.3421,113.8734 419.385,108.2566 423.3993,134.468 427.4136,141.4889 431.4279,112.0011 435.4422,134.9361 447.4851,156.4669 451.4994,173.7851 455.5137,167.7003 459.528,182.2102 463.5423,160.2113 475.5852,132.5958 479.5995,148.0418 483.6138,171.9129 487.6281,163.4878 491.6424,175.6573 503.6854,117.1498 507.6997,141.957 511.714,155.5307 515.7283,132.1277 519.7426,117.1498 531.7855,70.3437 535.7998,99.8315 539.8141,111.065 543.8284,95.1509 547.8427,69.8757 559.8856,33.835 563.8999,61.4506 567.9142,84.8536 587.9857,32.4308 592,57.7061" style="fill:none;stroke:rgb(31,119,180);stroke-width:2;stroke-linejoin:bevel" />
  <text dominant-baseline="hanging" text-anchor="middle" transform="translate(313.006,8)" font-family="Segoe UI" font-size="18" font-weight="700" fill="black">Aktive Fälle Stadt Aachen 29.12.2020</text>
  <polygon points="34.012,29.0795 592,29.0795 592,370.947 34.012,370.947" style="fill:none;stroke:black;stroke-width:1" />
  <polygon points="42.012,37.0795 228.483,37.0795 228.483,63.1325 42.012,63.1325" style="fill:none;stroke:none;" />
  <text dominant-baseline="hanging" text-anchor="start" transform="translate(70.012,45.0795)" font-family="Segoe UI" font-size="12" font-weight="400" fill="black">Aktive Fälle Stadt Aachen 29.12.2020</text>
  <polyline points="50.012,50.106 66.012,50.106" style="fill:none;stroke:rgb(31,119,180);stroke-width:2" />
</svg>