<?xml version="1.0" encoding="utf-8" standalone="no"?>
<!DOCTYPE svg PUBLIC "-//W3C//DTD SVG 1.1//EN" "http://www.w3.org/Graphics/SVG/1.1/DTD/svg11.dtd">
<svg width="600" height="400" version="1.1" xmlns:xlink="http://www.w3.org/1999/xlink" xmlns="http://www.w3.org/2000/svg">
  <rect x="0" y="0" width="600" height="400" style="fill:rgb(255,255,255);stroke:none;" />
  <polyline points="39.016,357.0495 35.016,357.0495" style="fill:none;stroke:black;stroke-width:1" />
  <polyline points="39.016,341.1212 35.016,341.1212" style="fill:none;stroke:black;stroke-width:1" />
  <polyline points="39.016,325.1929 35.016,325.1929" style="fill:none;stroke:black;stroke-width:1" />
  <polyline points="39.016,293.3363 35.016,293.3363" style="fill:none;stroke:black;stroke-width:1" />
  <polyline points="39.016,277.408 35.016,277.408" style="fill:none;stroke:black;stroke-width:1" />
  <polyline points="39.016,261.4797 35.016,261.4797" style="fill:none;stroke:black;stroke-width:1" />
  <polyline points="39.016,229.6231 35.016,229.6231" style="fill:none;stroke:black;stroke-width:1" />
  <polyline points="39.016,213.6948 35.016,213.6948" style="fill:none;stroke:black;stroke-width:1" />
  <polyline points="39.016,197.7665 35.016,197.7665" style="fill:none;stroke:black;stroke-width:1" />
  <polyline points="39.016,165.9099 35.016,165.9099" style="fill:none;stroke:black;stroke-width:1" />
  <polyline points="39.016,149.9816 35.016,149.9816" style="fill:none;stroke:black;stroke-width:1" />
  <polyline points="39.016,134.0533 35.016,134.0533" style="fill:none;stroke:black;stroke-width:1" />
  <polyline points="39.016,102.1968 35.016,102.1968" style="fill:none;stroke:black;stroke-width:1" />
  <polyline points="39.016,86.2685 35.016,86.2685" style="fill:none;stroke:black;stroke-width:1" />
  <polyline points="39.016,70.3402 35.016,70.3402" style="fill:none;stroke:black;stroke-width:1" />
  <polyline points="39.016,38.4836 35.016,38.4836" style="fill:none;stroke:black;stroke-width:1" />
  <polyline points="78.2347,370.947 78.2347,374.947" style="fill:none;stroke:black;stroke-width:1" />
  <polyline points="197.8518,370.947 197.8518,374.947" style="fill:none;stroke:black;stroke-width:1" />
  <polyline points="317.4689,370.947 317.4689,374.947" style="fill:none;stroke:black;stroke-width:1" />
  <polyline points="433.1642,370.947 433.1642,374.947" style="fill:none;stroke:black;stroke-width:1" />
  <polyline points="552.7813,370.947 552.7813,374.947" style="fill:none;stroke:black;stroke-width:1" />
  <text dominant-baseline="middle" text-anchor="end" transform="translate(28.016,309.2646)" font-family="Segoe UI" font-size="12" font-weight="400" fill="black">200</text>
  <text dominant-baseline="middle" text-anchor="end" transform="translate(28.016,245.5514)" font-family="Segoe UI" font-size="12" font-weight="400" fill="black">400</text>
  <text dominant-baseline="middle" text-anchor="end" transform="translate(28.016,181.8382)" font-family="Segoe UI" font-size="12" font-weight="400" fill="black">600</text>
  <text dominant-baseline="middle" text-anchor="end" transform="translate(28.016,118.125)" font-family="Segoe UI" font-size="12" font-weight="400" fill="black">800</text>
  <text dominant-baseline="middle" text-anchor="end" transform="translate(28.016,54.4119)" font-family="Segoe UI" font-size="12" font-weight="400" fill="black">1000</text>
  <polyline points="39.016,309.2646 32.016,309.2646" style="fill:none;stroke:black;stroke-width:1" />
  <polyline points="39.016,245.5514 32.016,245.5514" style="fill:none;stroke:black;stroke-width:1" />
  <polyline points="39.016,181.8382 32.016,181.8382" style="fill:none;stroke:black;stroke-width:1" />
  <polyline points="39.016,118.125 32.016,118.125" style="fill:none;stroke:black;stroke-width:1" />
  <polyline points="39.016,54.4119 32.016,54.4119" style="fill:none;stroke:black;stroke-width:1" />
  <text dominant-baseline="hanging" text-anchor="middle" transform="translate(137.0628,381.947)" font-family="Segoe UI" font-size="12" font-weight="400" fill="black">01. October</text>
  <text dominant-baseline="hanging" text-anchor="middle" transform="translate(256.6799,381.947)" font-family="Segoe UI" font-size="12" font-weight="400" fill="black">01. December</text>
  <text dominant-baseline="hanging" text-anchor="middle" transform="translate(378.258,381.947)" font-family="Segoe UI" font-size="12" font-weight="400" fill="black">01. February</text>
  <text dominant-baseline="hanging" text-anchor="middle" transform="translate(493.9532,381.947)" font-family="Segoe UI" font-size="12" font-weight="400" fill="black">01. April</text>
  <polyline points="137.0628,370.947 137.0628,377.947" style="fill:none;stroke:black;stroke-width:1" />
  <polyline points="256.6799,370.947 256.6799,377.947" style="fill:none;stroke:black;stroke-width:1" />
  <polyline points="378.258,370.947 378.258,377.947" style="fill:none;stroke:black;stroke-width:1" />
  <polyline points="493.9532,370.947 493.9532,377.947" style="fill:none;stroke:black;stroke-width:1" />
  <polyline points="39.016,363.4208 42.9379,360.5537 48.8207,362.4651 50.7816,360.5537 52.7426,361.828 54.7035,360.2352 56.6644,360.5537 62.5472,360.8723 64.5082,363.4208 66.4691,363.7394 68.43,363.1023 70.391,363.1023 76.2738,365.3322 78.2347,366.2879 80.1957,366.2879 82.1566,365.6508 84.1175,365.9693 90.0003,365.9693 91.9613,367.5622 93.9222,366.6065 95.8831,364.6951 97.8441,363.4208 103.7269,360.2352 105.6878,358.0052 107.6488,354.8195 109.6097,354.501 111.5706,353.5453 117.4534,356.4124 119.4144,357.0495 121.3753,356.7309 123.3363,355.4567 125.2972,353.8638 131.18,346.2183 133.1409,347.174 135.1019,347.4925 137.0628,342.714 139.0237,338.2541 144.9066,333.1571 146.8675,337.617 148.8284,333.4756 150.7894,329.0157 152.7503,327.7414 158.6331,318.1845 160.594,325.5115 162.555,321.6887 164.5159,313.0874 166.4769,300.6633 172.3597,284.735 174.3206,285.6907 176.2815,283.7793 178.2425,269.1253 180.2034,266.2582 186.0862,223.2518 188.0471,235.0387 190.0081,235.0387 191.969,231.5345 193.93,212.4206 199.8128,218.4733 201.7737,250.3299 203.7346,243.3215 205.6956,234.083 207.6565,230.2603 213.5393,208.9163 215.5003,221.9775 217.4612,212.7391 221.3831,194.8994 227.2659,191.0766 229.2268,208.9163 231.1877,213.6948 233.1487,193.6252 235.1096,209.2349 240.9924,223.8889 242.9534,235.6759 244.9143,231.5345 246.8752,241.4101 248.8362,226.4375 254.719,207.6421 256.6799,218.1548 258.6409,234.4016 260.6018,228.6674 262.5627,236.9501 268.4455,197.1294 270.4065,214.0134 272.3674,223.2518 274.3283,207.3235 276.2893,197.1294 282.1721,165.2728 284.133,185.3425 286.094,192.988 288.0549,182.1568 290.0158,164.9542 295.8986,140.4247 297.8596,159.2201 299.8205,175.1484 309.6252,139.469 311.5861,156.6715 313.5471,169.4142 315.508,156.0344 323.3517,156.353 325.3127,173.5555 327.2736,197.7665 329.2346,203.1822 331.1955,184.7053 339.0392,220.0661 341.0002,236.313 342.9611,229.3046 344.922,247.1443 350.8049,257.6569 352.7658,276.1338 354.7267,280.9122 356.6877,279.638 358.6486,276.7709 364.5314,276.4523 368.4533,283.7793 370.4142,270.3996 372.3751,261.7983 378.258,263.0725 380.2189,277.7266 382.1798,290.4692 384.1408,284.4165 386.1017,284.4165 391.9845,295.8848 393.9454,304.1676 395.9064,299.3891 397.8673,289.8321 399.8283,280.2751 405.7111,287.2836 407.672,310.8574 409.6329,309.5832 411.5939,302.8933 413.5548,317.2288 419.4376,323.2815 421.3986,329.0157 423.3595,325.1929 425.3204,323.9186 427.2814,325.5115 433.1642,327.1043 435.1251,335.0684 437.086,329.6528 439.047,312.4503 441.0079,311.4946 446.8907,298.4334 448.8517,298.4334 450.8126,293.3363 452.7735,285.3722 454.7345,275.4966 460.6173,268.8067 462.5782,269.7624 464.5391,270.3996 466.5001,250.3299 468.461,236.6316 474.3438,219.7476 476.3048,220.0661 478.2657,221.3404 480.2266,199.3594 482.1876,195.218 488.0704,192.3509 490.0313,214.9691 491.9923,219.429 493.9532,211.7834 495.9141,188.5281 503.7579,174.1927 505.7188,176.7412 507.6797,153.4859 509.6407,148.3888 515.5235,142.6546 517.4844,144.2475 519.4454,126.7263 521.4063,113.6651 523.3672,116.2137 529.25,99.9668 531.211,95.1883 533.1719,72.8887 535.1329,44.5363 537.0938,32.4308 542.9766,42.3064 544.9375,49.3148 546.8985,66.1988 548.8594,77.6672 550.8203,71.2959 556.7031,109.8423 558.6641,105.701 560.625,125.7706 562.586,134.6905 564.5469,148.3888 570.4297,149.0259 572.3906,175.7855 574.3516,170.6884 578.2734,185.3425 584.1563,171.9627 586.1172,185.661 588.0781,186.2982 590.0391,180.564 592,185.0239" style="fill:none;stroke:rgb(31,119,180);stroke-width:2;stroke-linejoin:bevel" />
  <text dominant-baseline="hanging" text-anchor="middle" transform="translate(315.508,8)" font-family="Segoe UI" font-size="18" font-weight="700" fill="black">Aktive Fälle Stadt Aachen 21.05.2021</text>
  <polygon points="39.016,29.0795 592,29.0795 592,370.947 39.016,370.947" style="fill:none;stroke:black;stroke-width:1" />
  <polygon points="47.016,37.0795 233.487,37.0795 233.487,63.1325 47.016,63.1325" style="fill:none;stroke:none;" />
  <text dominant-baseline="hanging" text-anchor="start" transform="translate(75.016,45.0795)" font-family="Segoe UI" font-size="12" font-weight="400" fill="black">Aktive Fälle Stadt Aachen 21.05.2021</text>
  <polyline points="55.016,50.106 71.016,50.106" style="fill:none;stroke:rgb(31,119,180);stroke-width:2" />
</svg>