<?xml version="1.0" encoding="utf-8" standalone="no"?>
<!DOCTYPE svg PUBLIC "-//W3C//DTD SVG 1.1//EN" "http://www.w3.org/Graphics/SVG/1.1/DTD/svg11.dtd">
<svg width="600" height="400" version="1.1" xmlns:xlink="http://www.w3.org/1999/xlink" xmlns="http://www.w3.org/2000/svg">
  <rect x="0" y="0" width="600" height="400" style="fill:rgb(255,255,255);stroke:none;" />
  <polyline points="39.016,361.4111 35.016,361.4111" style="fill:none;stroke:black;stroke-width:1" />
  <polyline points="39.016,342.0081 35.016,342.0081" style="fill:none;stroke:black;stroke-width:1" />
  <polyline points="39.016,322.605 35.016,322.605" style="fill:none;stroke:black;stroke-width:1" />
  <polyline points="39.016,303.2019 35.016,303.2019" style="fill:none;stroke:black;stroke-width:1" />
  <polyline points="39.016,264.3958 35.016,264.3958" style="fill:none;stroke:black;stroke-width:1" />
  <polyline points="39.016,244.9928 35.016,244.9928" style="fill:none;stroke:black;stroke-width:1" />
  <polyline points="39.016,225.5897 35.016,225.5897" style="fill:none;stroke:black;stroke-width:1" />
  <polyline points="39.016,206.1867 35.016,206.1867" style="fill:none;stroke:black;stroke-width:1" />
  <polyline points="39.016,167.3806 35.016,167.3806" style="fill:none;stroke:black;stroke-width:1" />
  <polyline points="39.016,147.9775 35.016,147.9775" style="fill:none;stroke:black;stroke-width:1" />
  <polyline points="39.016,128.5745 35.016,128.5745" style="fill:none;stroke:black;stroke-width:1" />
  <polyline points="39.016,109.1714 35.016,109.1714" style="fill:none;stroke:black;stroke-width:1" />
  <polyline points="39.016,70.3653 35.016,70.3653" style="fill:none;stroke:black;stroke-width:1" />
  <polyline points="39.016,50.9623 35.016,50.9623" style="fill:none;stroke:black;stroke-width:1" />
  <polyline points="39.016,31.5592 35.016,31.5592" style="fill:none;stroke:black;stroke-width:1" />
  <text dominant-baseline="middle" text-anchor="end" transform="translate(28.016,381)" font-family="Segoe UI" font-size="12" font-weight="400" fill="black">0</text>
  <text dominant-baseline="middle" text-anchor="end" transform="translate(28.016,283.7989)" font-family="Segoe UI" font-size="12" font-weight="400" fill="black">500</text>
  <text dominant-baseline="middle" text-anchor="end" transform="translate(28.016,186.7836)" font-family="Segoe UI" font-size="12" font-weight="400" fill="black">1000</text>
  <text dominant-baseline="middle" text-anchor="end" transform="translate(28.016,89.7684)" font-family="Segoe UI" font-size="12" font-weight="400" fill="black">1500</text>
  <polyline points="39.016,381 32.016,381" style="fill:none;stroke:black;stroke-width:1" />
  <polyline points="39.016,283.7989 32.016,283.7989" style="fill:none;stroke:black;stroke-width:1" />
  <polyline points="39.016,186.7836 32.016,186.7836" style="fill:none;stroke:black;stroke-width:1" />
  <polyline points="39.016,89.7684 32.016,89.7684" style="fill:none;stroke:black;stroke-width:1" />
  <polyline points="39.016,318.5304 591.6157,374.9932 591.6352,376.5455 591.6359,377.5156 591.6374,375.7694 591.6382,374.9932 591.6404,373.0529 591.6412,371.6947 591.6419,369.7544 591.6427,369.5604 591.6487,369.1723 591.6509,364.5156 591.6524,365.2917 591.6531,362.3813 591.6539,359.6648 591.6561,356.5603 591.6569,359.2768 591.6576,356.7544 591.6584,354.0379 591.6591,353.2618 591.6614,347.4409 591.6621,351.9036 591.6629,349.5752 591.6636,344.3364 591.6644,336.7692 591.6666,327.0677 591.6681,326.4856 591.6689,317.5602 591.6696,315.8139 591.6719,289.6198 591.6726,296.7989 591.6734,296.7989 591.6741,294.6646 591.6749,283.0228 591.6771,286.7094 591.6779,306.1124 591.6786,301.8437 591.6794,296.2168 591.6801,293.8885 591.6824,280.8884 591.6831,288.8437 591.6839,283.2168 591.6854,272.3511 591.6876,270.0227 591.6884,280.8884 591.6891,283.7989 591.6899,271.575 591.6906,281.0825 591.6929,290.0079 591.6936,297.187 591.6944,294.6646 591.6951,300.6796 591.6959,291.5601 591.6981,280.1123 591.6988,286.5153 591.6996,296.4109 591.7003,292.9183 591.7011,297.9631 591.7033,273.7093 591.7041,283.9929 591.7048,289.6198 591.7056,279.9183 591.7063,273.7093 591.7086,254.3063 591.7093,266.5302 591.7101,271.1869 591.7108,264.5899 591.7116,254.1122 591.7138,239.1719 591.7146,250.6197 591.7153,260.3212 591.7191,238.5898 591.7198,249.0674 591.7206,256.8287 591.7213,248.6794 591.7243,248.8734 591.7251,259.351 591.7258,274.0974 591.7266,277.3959 591.7273,266.1421 591.7303,287.6795 591.7311,297.5751 591.7318,293.3064 591.7326,304.1721 591.7348,310.5751 591.7356,321.8289 591.7363,324.7393 591.7371,323.9632 591.7378,322.2169 591.74,322.0229 591.7415,326.4856 591.7423,318.3363 591.743,313.0975 591.7453,313.8736 591.746,322.799 591.7468,330.5603 591.7475,326.8737 591.7483,326.8737 591.7505,333.8588 591.7513,338.9036 591.752,335.9931 591.7528,330.1722 591.7535,324.3513 591.7558,328.6199 591.7565,342.9782 591.7573,342.2021 591.758,338.1274 591.7588,346.8588 591.761,350.5454 591.7618,354.0379 591.7625,351.7096 591.7663,352.8738 591.767,357.7245 591.7678,354.426 591.7685,343.9484 591.7693,343.3663 591.7715,335.411 591.7723,335.411 591.773,332.3065 591.7738,327.4558 591.7745,321.4408 591.7768,317.3662 591.7783,318.3363 591.779,306.1124 591.7798,297.7691 591.782,287.4855 591.7835,288.4556 591.7842,275.0675 591.785,272.5451 591.7872,270.7988 591.788,284.575 591.7887,287.2914 591.7895,282.6347 591.7902,268.4705 591.7932,259.7391 591.794,261.2914 591.7947,247.1271 591.7955,244.0226 591.7977,240.5301 591.7985,241.5002 591.7992,230.8286 591.8,222.8733 591.8007,224.4256 591.803,214.53 591.8037,211.6195 591.8045,198.0374 591.8052,180.7687 591.806,173.3955 591.8082,179.4105 591.809,183.6791 591.8097,193.9628 591.8105,200.9479 591.8112,197.0672 591.8135,220.5449 591.8142,218.0225 591.815,230.2465 591.8157,235.6793 591.8165,244.0226 591.8187,244.4107 591.8195,260.7093 591.8202,257.6048 591.8217,266.5302 591.824,258.3809 591.8247,266.7242 591.8255,267.1123 591.8262,263.6197 591.8269,266.3361 591.8299,283.6049 591.8307,295.4407 591.8314,299.7094 591.8322,296.6049 591.8344,312.9035 591.8352,325.5155 591.8359,329.7841 591.8374,337.5454 591.8397,342.7842 591.8404,347.2469 591.8412,353.8439 591.8419,356.1723 591.8427,359.0827 591.8457,359.2768 591.8464,366.0678 591.8509,368.0081 591.8517,368.3962 591.8554,369.3664 591.8562,370.5305 591.8674,369.9484 591.8689,366.0678 591.8726,359.8589 591.8741,352.6797 591.8779,351.3215 591.8794,347.4409 591.8831,352.0976 591.8846,350.1573 591.8884,341.426 591.8899,327.4558 591.8936,318.5304 591.8951,310.187 591.8989,292.3362 591.9041,290.3959 591.9056,289.0377 591.9109,296.0228 591.9161,306.5005 591.9198,317.3662 591.9213,319.1125 591.9251,325.3214 591.9266,328.6199 591.9303,336.3812 591.9318,337.1573 591.9356,340.2618 591.9408,340.4558 591.9423,333.6647 591.9461,323.9632 591.9476,301.8437 591.9513,294.4706 591.9528,273.3212 591.9566,254.5003 591.958,231.2166 591.9618,209.6792 591.9633,195.9031 591.967,164.8582 591.9685,140.2163 591.9723,126.6342 591.9775,129.9327 591.979,130.3207 591.9828,150.4999 591.9843,141.1865 591.9985,126.0521 592,32.5294" style="fill:none;stroke:rgb(31,119,180);stroke-width:2;stroke-linejoin:bevel" />
  <text dominant-baseline="hanging" text-anchor="middle" transform="translate(315.508,8)" font-family="Segoe UI" font-size="18" font-weight="700" fill="black">Aktive Fälle Stadt Aachen 07.01.2022</text>
  <polygon points="39.016,29.0795 592,29.0795 592,381 39.016,381" style="fill:none;stroke:black;stroke-width:1" />
  <polygon points="47.016,37.0795 233.487,37.0795 233.487,63.1325 47.016,63.1325" style="fill:none;stroke:none;" />
  <text dominant-baseline="hanging" text-anchor="start" transform="translate(75.016,45.0795)" font-family="Segoe UI" font-size="12" font-weight="400" fill="black">Aktive Fälle Stadt Aachen 07.01.2022</text>
  <polyline points="55.016,50.106 71.016,50.106" style="fill:none;stroke:rgb(31,119,180);stroke-width:2" />
</svg>