<?xml version="1.0" encoding="utf-8" standalone="no"?>
<!DOCTYPE svg PUBLIC "-//W3C//DTD SVG 1.1//EN" "http://www.w3.org/Graphics/SVG/1.1/DTD/svg11.dtd">
<svg width="600" height="400" version="1.1" xmlns:xlink="http://www.w3.org/1999/xlink" xmlns="http://www.w3.org/2000/svg">
  <rect x="0" y="0" width="600" height="400" style="fill:rgb(255,255,255);stroke:none;" />
  <polyline points="34.012,352.1162 30.012,352.1162" style="fill:none;stroke:black;stroke-width:1" />
  <polyline points="34.012,328.7131 30.012,328.7131" style="fill:none;stroke:black;stroke-width:1" />
  <polyline points="34.012,305.3101 30.012,305.3101" style="fill:none;stroke:black;stroke-width:1" />
  <polyline points="34.012,258.5041 30.012,258.5041" style="fill:none;stroke:black;stroke-width:1" />
  <polyline points="34.012,235.101 30.012,235.101" style="fill:none;stroke:black;stroke-width:1" />
  <polyline points="34.012,211.698 30.012,211.698" style="fill:none;stroke:black;stroke-width:1" />
  <polyline points="34.012,164.892 30.012,164.892" style="fill:none;stroke:black;stroke-width:1" />
  <polyline points="34.012,141.4889 30.012,141.4889" style="fill:none;stroke:black;stroke-width:1" />
  <polyline points="34.012,118.0859 30.012,118.0859" style="fill:none;stroke:black;stroke-width:1" />
  <polyline points="34.012,71.2798 30.012,71.2798" style="fill:none;stroke:black;stroke-width:1" />
  <polyline points="34.012,47.8768 30.012,47.8768" style="fill:none;stroke:black;stroke-width:1" />
  <text dominant-baseline="middle" text-anchor="end" transform="translate(23.012,281.9071)" font-family="Segoe UI" font-size="12" font-weight="400" fill="black">200</text>
  <text dominant-baseline="middle" text-anchor="end" transform="translate(23.012,188.295)" font-family="Segoe UI" font-size="12" font-weight="400" fill="black">400</text>
  <text dominant-baseline="middle" text-anchor="end" transform="translate(23.012,94.6829)" font-family="Segoe UI" font-size="12" font-weight="400" fill="black">600</text>
  <polyline points="34.012,281.9071 27.012,281.9071" style="fill:none;stroke:black;stroke-width:1" />
  <polyline points="34.012,188.295 27.012,188.295" style="fill:none;stroke:black;stroke-width:1" />
  <polyline points="34.012,94.6829 27.012,94.6829" style="fill:none;stroke:black;stroke-width:1" />
  <text dominant-baseline="hanging" text-anchor="middle" transform="translate(92.7476,381.947)" font-family="Segoe UI" font-size="12" font-weight="400" fill="black">01. September</text>
  <text dominant-baseline="hanging" text-anchor="middle" transform="translate(180.8509,381.947)" font-family="Segoe UI" font-size="12" font-weight="400" fill="black">01. October</text>
  <text dominant-baseline="hanging" text-anchor="middle" transform="translate(271.8911,381.947)" font-family="Segoe UI" font-size="12" font-weight="400" fill="black">01. November</text>
  <text dominant-baseline="hanging" text-anchor="middle" transform="translate(359.9945,381.947)" font-family="Segoe UI" font-size="12" font-weight="400" fill="black">01. December</text>
  <text dominant-baseline="hanging" text-anchor="middle" transform="translate(451.0346,381.947)" font-family="Segoe UI" font-size="12" font-weight="400" fill="black">01. January</text>
  <text dominant-baseline="hanging" text-anchor="middle" transform="translate(542.0748,381.947)" font-family="Segoe UI" font-size="12" font-weight="400" fill="black">01. February</text>
  <polyline points="92.7476,370.947 92.7476,377.947" style="fill:none;stroke:black;stroke-width:1" />
  <polyline points="180.8509,370.947 180.8509,377.947" style="fill:none;stroke:black;stroke-width:1" />
  <polyline points="271.8911,370.947 271.8911,377.947" style="fill:none;stroke:black;stroke-width:1" />
  <polyline points="359.9945,370.947 359.9945,377.947" style="fill:none;stroke:black;stroke-width:1" />
  <polyline points="451.0346,370.947 451.0346,377.947" style="fill:none;stroke:black;stroke-width:1" />
  <polyline points="542.0748,370.947 542.0748,377.947" style="fill:none;stroke:black;stroke-width:1" />
  <polyline points="34.012,361.4774 39.8856,357.2648 48.6959,360.0732 51.6327,357.2648 54.5695,359.1371 57.5062,356.7968 60.443,357.2648 69.2533,357.7329 72.1901,361.4774 75.1269,361.9454 78.0637,361.0093 81.0005,361.0093 89.8108,364.2857 92.7476,365.6899 95.6844,365.6899 98.6211,364.7538 101.5579,365.2219 110.3683,365.2219 113.305,367.5622 116.2418,366.158 119.1786,363.3496 122.1154,361.4774 130.9257,356.7968 133.8625,353.5204 136.7993,348.8398 139.736,348.3717 142.6728,346.9675 151.4832,351.1801 154.4199,352.1162 157.3567,351.6481 160.2935,349.7759 163.2303,347.4356 172.0406,336.2021 174.9774,337.6063 177.9142,338.0744 180.8509,331.0534 183.7877,324.5006 192.5981,317.0116 195.5348,323.5645 198.4716,317.4797 201.4084,310.9268 204.3452,309.0546 213.1555,295.0128 216.0923,305.7782 219.0291,300.1615 221.9659,287.5238 224.9026,269.2695 233.713,245.8664 236.6497,247.2706 239.5865,244.4622 242.5233,222.9315 245.4601,218.7189 254.2704,155.5307 257.2072,172.849 260.144,172.849 263.0808,167.7003 266.0175,139.6167 274.8279,148.5098 277.7647,195.3159 280.7014,185.0186 283.6382,171.4448 286.575,165.8281 295.3853,134.468 298.3221,153.6585 301.2589,140.0847 307.1324,113.8734 315.9428,108.2566 318.8796,134.468 321.8163,141.4889 324.7531,112.0011 327.6899,134.9361 336.5002,156.4669 339.437,173.7851 342.3738,167.7003 345.3106,182.2102 348.2473,160.2113 357.0577,132.5958 359.9945,148.0418 362.9312,171.9129 365.868,163.4878 368.8048,175.6573 377.6151,117.1498 380.5519,141.957 383.4887,155.5307 386.4255,132.1277 389.3623,117.1498 398.1726,70.3437 401.1094,99.8315 404.0461,111.065 406.9829,95.1509 409.9197,69.8757 418.73,33.835 421.6668,61.4506 424.6036,84.8536 439.2875,32.4308 442.2243,57.7061 445.1611,76.4285 448.0978,56.77 459.8449,57.238 462.7817,82.5133 465.7185,118.0859 468.6553,126.0429 471.5921,98.8954 483.3392,150.8501 486.276,174.7212 489.2127,164.4239 492.1495,190.6353 500.9599,206.0813 503.8966,233.2288 506.8334,240.2497 509.7702,238.3775 512.707,234.1649 521.5173,233.6969 527.3909,244.4622 530.3276,224.8037 533.2644,212.1661 542.0748,214.0383 545.0115,235.5691 547.9483,254.2915 550.8851,245.3984 553.8219,245.3984 562.6322,262.2485 565.569,274.4181 568.5058,267.3972 571.4425,253.3554 574.3793,239.3136 583.1897,249.6109 586.1264,284.2474 589.0632,282.3752 592,272.5459" style="fill:none;stroke:rgb(31,119,180);stroke-width:2;stroke-linejoin:bevel" />
  <text dominant-baseline="hanging" text-anchor="middle" transform="translate(313.006,8)" font-family="Segoe UI" font-size="18" font-weight="700" fill="black">Aktive Fälle Stadt Aachen 18.02.2021</text>
  <polygon points="34.012,29.0795 592,29.0795 592,370.947 34.012,370.947" style="fill:none;stroke:black;stroke-width:1" />
  <polygon points="42.012,37.0795 228.483,37.0795 228.483,63.1325 42.012,63.1325" style="fill:none;stroke:none;" />
  <text dominant-baseline="hanging" text-anchor="start" transform="translate(70.012,45.0795)" font-family="Segoe UI" font-size="12" font-weight="400" fill="black">Aktive Fälle Stadt Aachen 18.02.2021</text>
  <polyline points="50.012,50.106 66.012,50.106" style="fill:none;stroke:rgb(31,119,180);stroke-width:2" />
</svg>