<?xml version="1.0" encoding="utf-8" standalone="no"?>
<!DOCTYPE svg PUBLIC "-//W3C//DTD SVG 1.1//EN" "http://www.w3.org/Graphics/SVG/1.1/DTD/svg11.dtd">
<svg width="600" height="400" version="1.1" xmlns:xlink="http://www.w3.org/1999/xlink" xmlns="http://www.w3.org/2000/svg">
  <rect x="0" y="0" width="600" height="400" style="fill:rgb(255,255,255);stroke:none;" />
  <polyline points="34.012,361.0758 30.012,361.0758" style="fill:none;stroke:black;stroke-width:1" />
  <polyline points="34.012,339.4544 30.012,339.4544" style="fill:none;stroke:black;stroke-width:1" />
  <polyline points="34.012,317.833 30.012,317.833" style="fill:none;stroke:black;stroke-width:1" />
  <polyline points="34.012,274.5902 30.012,274.5902" style="fill:none;stroke:black;stroke-width:1" />
  <polyline points="34.012,252.9689 30.012,252.9689" style="fill:none;stroke:black;stroke-width:1" />
  <polyline points="34.012,231.3475 30.012,231.3475" style="fill:none;stroke:black;stroke-width:1" />
  <polyline points="34.012,209.7261 30.012,209.7261" style="fill:none;stroke:black;stroke-width:1" />
  <polyline points="34.012,166.4834 30.012,166.4834" style="fill:none;stroke:black;stroke-width:1" />
  <polyline points="34.012,144.862 30.012,144.862" style="fill:none;stroke:black;stroke-width:1" />
  <polyline points="34.012,123.2406 30.012,123.2406" style="fill:none;stroke:black;stroke-width:1" />
  <polyline points="34.012,101.6192 30.012,101.6192" style="fill:none;stroke:black;stroke-width:1" />
  <polyline points="34.012,58.3765 30.012,58.3765" style="fill:none;stroke:black;stroke-width:1" />
  <polyline points="34.012,36.7551 30.012,36.7551" style="fill:none;stroke:black;stroke-width:1" />
  <text dominant-baseline="middle" text-anchor="end" transform="translate(23.012,296.2116)" font-family="Segoe UI" font-size="12" font-weight="400" fill="black">50</text>
  <text dominant-baseline="middle" text-anchor="end" transform="translate(23.012,188.1047)" font-family="Segoe UI" font-size="12" font-weight="400" fill="black">100</text>
  <text dominant-baseline="middle" text-anchor="end" transform="translate(23.012,79.9978)" font-family="Segoe UI" font-size="12" font-weight="400" fill="black">150</text>
  <polyline points="34.012,296.2116 27.012,296.2116" style="fill:none;stroke:black;stroke-width:1" />
  <polyline points="34.012,188.1047 27.012,188.1047" style="fill:none;stroke:black;stroke-width:1" />
  <polyline points="34.012,79.9978 27.012,79.9978" style="fill:none;stroke:black;stroke-width:1" />
  <text dominant-baseline="hanging" text-anchor="middle" transform="translate(60.5829,381.947)" font-family="Segoe UI" font-size="12" font-weight="400" fill="black">15. August</text>
  <text dominant-baseline="hanging" text-anchor="middle" transform="translate(184.5802,381.947)" font-family="Segoe UI" font-size="12" font-weight="400" fill="black">29. August</text>
  <text dominant-baseline="hanging" text-anchor="middle" transform="translate(308.5775,381.947)" font-family="Segoe UI" font-size="12" font-weight="400" fill="black">12. September</text>
  <text dominant-baseline="hanging" text-anchor="middle" transform="translate(432.5749,381.947)" font-family="Segoe UI" font-size="12" font-weight="400" fill="black">26. September</text>
  <text dominant-baseline="hanging" text-anchor="middle" transform="translate(556.5722,381.947)" font-family="Segoe UI" font-size="12" font-weight="400" fill="black">10. October</text>
  <polyline points="60.5829,370.947 60.5829,377.947" style="fill:none;stroke:black;stroke-width:1" />
  <polyline points="184.5802,370.947 184.5802,377.947" style="fill:none;stroke:black;stroke-width:1" />
  <polyline points="308.5775,370.947 308.5775,377.947" style="fill:none;stroke:black;stroke-width:1" />
  <polyline points="432.5749,370.947 432.5749,377.947" style="fill:none;stroke:black;stroke-width:1" />
  <polyline points="556.5722,370.947 556.5722,377.947" style="fill:none;stroke:black;stroke-width:1" />
  <polyline points="34.012,339.4544 51.7259,319.9951 78.2968,332.968 87.1537,319.9951 96.0107,328.6437 104.8676,317.833 113.7246,319.9951 140.2954,322.1573 149.1524,339.4544 158.0093,341.6165 166.8663,337.2922 175.7232,337.2922 202.2941,352.4272 211.151,358.9136 220.008,358.9136 228.865,354.5893 237.7219,356.7515 264.2928,356.7515 273.1497,367.5622 282.0067,361.0758 290.8636,348.1029 299.7206,339.4544 326.2914,317.833 335.1484,302.698 344.0053,281.0767 352.8623,278.9145 361.7192,272.4281 388.2901,291.8874 397.147,296.2116 406.004,294.0495 414.861,285.4009 423.7179,274.5902 450.2888,222.6989 459.1457,229.1854 468.0027,231.3475 476.8596,198.9154 485.7166,168.6455 512.2874,134.0513 521.1444,164.3212 530.0013,136.2134 538.8583,105.9435 547.7152,97.2949 574.2861,32.4308 583.143,82.16 592,56.2143" style="fill:none;stroke:rgb(31,119,180);stroke-width:2;stroke-linejoin:bevel" />
  <text dominant-baseline="hanging" text-anchor="middle" transform="translate(313.006,8)" font-family="Segoe UI" font-size="18" font-weight="700" fill="black">Aktive Fälle Stadt Aachen 14.10.2020</text>
  <polygon points="34.012,29.0795 592,29.0795 592,370.947 34.012,370.947" style="fill:none;stroke:black;stroke-width:1" />
  <polygon points="42.012,37.0795 228.483,37.0795 228.483,63.1325 42.012,63.1325" style="fill:none;stroke:none;" />
  <text dominant-baseline="hanging" text-anchor="start" transform="translate(70.012,45.0795)" font-family="Segoe UI" font-size="12" font-weight="400" fill="black">Aktive Fälle Stadt Aachen 14.10.2020</text>
  <polyline points="50.012,50.106 66.012,50.106" style="fill:none;stroke:rgb(31,119,180);stroke-width:2" />
</svg>