<?xml version="1.0" encoding="utf-8" standalone="no"?>
<!DOCTYPE svg PUBLIC "-//W3C//DTD SVG 1.1//EN" "http://www.w3.org/Graphics/SVG/1.1/DTD/svg11.dtd">
<svg width="600" height="400" version="1.1" xmlns:xlink="http://www.w3.org/1999/xlink" xmlns="http://www.w3.org/2000/svg">
  <rect x="0" y="0" width="600" height="400" style="fill:rgb(255,255,255);stroke:none;" />
  <polyline points="39.016,367.2673 35.016,367.2673" style="fill:none;stroke:black;stroke-width:1" />
  <polyline points="39.016,354.9199 35.016,354.9199" style="fill:none;stroke:black;stroke-width:1" />
  <polyline points="39.016,342.5725 35.016,342.5725" style="fill:none;stroke:black;stroke-width:1" />
  <polyline points="39.016,330.2251 35.016,330.2251" style="fill:none;stroke:black;stroke-width:1" />
  <polyline points="39.016,305.5303 35.016,305.5303" style="fill:none;stroke:black;stroke-width:1" />
  <polyline points="39.016,293.1829 35.016,293.1829" style="fill:none;stroke:black;stroke-width:1" />
  <polyline points="39.016,280.8355 35.016,280.8355" style="fill:none;stroke:black;stroke-width:1" />
  <polyline points="39.016,268.4881 35.016,268.4881" style="fill:none;stroke:black;stroke-width:1" />
  <polyline points="39.016,243.7933 35.016,243.7933" style="fill:none;stroke:black;stroke-width:1" />
  <polyline points="39.016,231.4459 35.016,231.4459" style="fill:none;stroke:black;stroke-width:1" />
  <polyline points="39.016,219.0985 35.016,219.0985" style="fill:none;stroke:black;stroke-width:1" />
  <polyline points="39.016,206.7511 35.016,206.7511" style="fill:none;stroke:black;stroke-width:1" />
  <polyline points="39.016,182.0563 35.016,182.0563" style="fill:none;stroke:black;stroke-width:1" />
  <polyline points="39.016,169.7089 35.016,169.7089" style="fill:none;stroke:black;stroke-width:1" />
  <polyline points="39.016,157.3615 35.016,157.3615" style="fill:none;stroke:black;stroke-width:1" />
  <polyline points="39.016,145.0142 35.016,145.0142" style="fill:none;stroke:black;stroke-width:1" />
  <polyline points="39.016,120.3194 35.016,120.3194" style="fill:none;stroke:black;stroke-width:1" />
  <polyline points="39.016,107.972 35.016,107.972" style="fill:none;stroke:black;stroke-width:1" />
  <polyline points="39.016,95.6246 35.016,95.6246" style="fill:none;stroke:black;stroke-width:1" />
  <polyline points="39.016,83.2772 35.016,83.2772" style="fill:none;stroke:black;stroke-width:1" />
  <polyline points="39.016,58.5824 35.016,58.5824" style="fill:none;stroke:black;stroke-width:1" />
  <polyline points="39.016,46.235 35.016,46.235" style="fill:none;stroke:black;stroke-width:1" />
  <polyline points="39.016,33.8876 35.016,33.8876" style="fill:none;stroke:black;stroke-width:1" />
  <text dominant-baseline="middle" text-anchor="end" transform="translate(28.016,379.6147)" font-family="Segoe UI" font-size="12" font-weight="400" fill="black">0</text>
  <text dominant-baseline="middle" text-anchor="end" transform="translate(28.016,317.8777)" font-family="Segoe UI" font-size="12" font-weight="400" fill="black">500</text>
  <text dominant-baseline="middle" text-anchor="end" transform="translate(28.016,256.1407)" font-family="Segoe UI" font-size="12" font-weight="400" fill="black">1000</text>
  <text dominant-baseline="middle" text-anchor="end" transform="translate(28.016,194.4037)" font-family="Segoe UI" font-size="12" font-weight="400" fill="black">1500</text>
  <text dominant-baseline="middle" text-anchor="end" transform="translate(28.016,132.6668)" font-family="Segoe UI" font-size="12" font-weight="400" fill="black">2000</text>
  <text dominant-baseline="middle" text-anchor="end" transform="translate(28.016,70.9298)" font-family="Segoe UI" font-size="12" font-weight="400" fill="black">2500</text>
  <polyline points="39.016,379.6147 32.016,379.6147" style="fill:none;stroke:black;stroke-width:1" />
  <polyline points="39.016,317.8777 32.016,317.8777" style="fill:none;stroke:black;stroke-width:1" />
  <polyline points="39.016,256.1407 32.016,256.1407" style="fill:none;stroke:black;stroke-width:1" />
  <polyline points="39.016,194.4037 32.016,194.4037" style="fill:none;stroke:black;stroke-width:1" />
  <polyline points="39.016,132.6668 32.016,132.6668" style="fill:none;stroke:black;stroke-width:1" />
  <polyline points="39.016,70.9298 32.016,70.9298" style="fill:none;stroke:black;stroke-width:1" />
  <polyline points="39.016,339.9796 591.6105,375.9105 591.6352,374.6757 591.6359,373.8114 591.6434,372.2063 591.6457,369.2429 591.6479,367.8847 591.6487,366.156 591.6524,364.3039 591.6532,362.5753 591.6539,362.0814 591.6561,358.3772 591.6569,361.2171 591.6576,359.7354 591.6584,356.4016 591.6591,351.5861 591.6614,345.4124 591.6629,345.042 591.6636,339.3622 591.6644,338.2509 591.6666,321.5819 591.6674,326.1505 591.6689,324.7923 591.6696,317.3838 591.6719,319.7298 591.6726,332.0772 591.6734,329.3608 591.6741,325.78 591.6749,324.2984 591.6771,316.0256 591.6779,321.088 591.6786,317.5073 591.6801,310.5927 591.6824,309.1111 591.6831,316.0256 591.6839,317.8777 591.6846,310.0989 591.6854,316.1491 591.6876,321.8289 591.6884,326.3974 591.6891,324.7923 591.6899,328.6199 591.6906,322.8167 591.6929,315.5317 591.6936,319.6063 591.6944,325.9035 591.6951,323.681 591.6959,326.8913 591.6981,311.4571 591.6988,318.0012 591.6996,321.5819 591.7003,315.4082 591.7011,311.4571 591.7033,299.1097 591.7041,306.8885 591.7048,309.8519 591.7056,305.6538 591.7063,298.9862 591.7086,289.4787 591.7093,296.7637 591.7101,302.9374 591.7138,289.1083 591.7146,295.7759 591.7153,300.7148 591.7161,295.5289 591.7191,295.6524 591.7198,302.32 591.7206,311.704 591.7213,313.8031 591.7221,306.6416 591.7251,320.3472 591.7258,326.6444 591.7266,323.9279 591.7273,330.8425 591.7296,334.9171 591.7303,342.0786 591.7348,342.2021 591.7363,345.042 591.7371,339.8561 591.7378,336.5223 591.7401,337.0162 591.7408,342.696 591.7416,347.6349 591.7423,345.2889 591.743,345.2889 591.7453,349.734 591.746,352.9443 591.7468,351.0922 591.7475,347.388 591.7483,343.6838 591.7505,346.4002 591.7513,355.5373 591.752,355.0434 591.7528,352.4504 591.7535,358.0068 591.7558,360.3528 591.7565,362.5753 591.761,361.8344 591.7618,364.9213 591.7625,362.8222 591.7633,356.1546 591.764,355.7842 591.7663,350.7218 591.7678,348.7462 591.7685,345.6594 591.7693,341.8317 591.7715,339.2387 591.773,339.8561 591.7738,332.0772 591.7745,326.7678 591.7768,320.2237 591.7783,320.8411 591.779,312.3214 591.7798,310.7162 591.782,309.605 591.7828,318.3716 591.7843,317.1369 591.785,308.1233 591.788,302.5669 591.7887,303.5547 591.7895,294.5411 591.7902,292.5655 591.7925,290.343 591.7932,290.9604 591.794,284.1693 591.7947,279.1069 591.7955,280.0947 591.7977,273.7975 591.7985,271.9454 591.7992,263.3022 591.8,252.313 591.8007,247.621 591.803,251.4487 591.8037,254.1651 591.8045,260.7093 591.8052,265.1543 591.806,262.6848 591.8082,277.6252 591.809,276.02 591.8097,283.7989 591.8105,287.2562 591.8112,292.5655 591.8135,292.8125 591.8142,303.1843 591.815,301.2087 591.8165,306.8885 591.8187,301.7026 591.8195,307.012 591.8217,306.7651 591.8247,317.7542 591.8255,325.2861 591.8262,328.0026 591.827,326.027 591.8292,336.3988 591.8299,344.4246 591.8307,347.141 591.8322,352.08 591.8344,355.4138 591.8352,358.2537 591.8359,362.4518 591.8367,363.9335 591.8374,365.7856 591.8404,365.9091 591.8412,370.2307 591.8479,371.8358 591.8502,372.3297 591.8622,372.7002 591.8637,370.2307 591.8674,366.2795 591.8689,361.711 591.8726,360.8467 591.8741,358.3772 591.8779,361.3405 591.8794,360.1058 591.8831,354.5495 591.8846,345.6594 591.8884,339.9796 591.8899,334.6702 591.8936,323.3106 591.8989,322.0758 591.9004,321.2115 591.9056,325.6566 591.9109,332.3242 591.9146,339.2387 591.9161,340.35 591.9198,344.3011 591.9213,346.4002 591.9251,351.3392 591.9266,351.8331 591.9303,353.8086 591.9356,353.9321 591.9371,349.6105 591.9408,343.4368 591.9423,329.3608 591.9461,324.6688 591.9476,311.2101 591.9513,299.2331 591.9528,284.4163 591.9566,270.7107 591.958,261.944 591.9618,242.1882 591.9633,226.507 591.967,217.8638 591.9723,219.9629 591.9738,220.2098 591.9775,233.0511 591.979,227.1243 591.9933,217.4934 591.9948,157.9789 591.9985,92.7847 592,32.5294" style="fill:none;stroke:rgb(31,119,180);stroke-width:2;stroke-linejoin:bevel" />
  <text dominant-baseline="hanging" text-anchor="middle" transform="translate(315.508,8)" font-family="Segoe UI" font-size="18" font-weight="700" fill="black">Aktive Fälle Stadt Aachen 14.01.2022</text>
  <polygon points="39.016,29.0795 592,29.0795 592,381 39.016,381" style="fill:none;stroke:black;stroke-width:1" />
  <polygon points="47.016,37.0795 233.487,37.0795 233.487,63.1325 47.016,63.1325" style="fill:none;stroke:none;" />
  <text dominant-baseline="hanging" text-anchor="start" transform="translate(75.016,45.0795)" font-family="Segoe UI" font-size="12" font-weight="400" fill="black">Aktive Fälle Stadt Aachen 14.01.2022</text>
  <polyline points="55.016,50.106 71.016,50.106" style="fill:none;stroke:rgb(31,119,180);stroke-width:2" />
</svg>