<?xml version="1.0" encoding="utf-8" standalone="no"?>
<!DOCTYPE svg PUBLIC "-//W3C//DTD SVG 1.1//EN" "http://www.w3.org/Graphics/SVG/1.1/DTD/svg11.dtd">
<svg width="600" height="400" version="1.1" xmlns:xlink="http://www.w3.org/1999/xlink" xmlns="http://www.w3.org/2000/svg">
  <rect x="0" y="0" width="600" height="400" style="fill:rgb(255,255,255);stroke:none;" />
  <polyline points="39.016,357.0495 35.016,357.0495" style="fill:none;stroke:black;stroke-width:1" />
  <polyline points="39.016,341.1212 35.016,341.1212" style="fill:none;stroke:black;stroke-width:1" />
  <polyline points="39.016,325.1929 35.016,325.1929" style="fill:none;stroke:black;stroke-width:1" />
  <polyline points="39.016,293.3363 35.016,293.3363" style="fill:none;stroke:black;stroke-width:1" />
  <polyline points="39.016,277.408 35.016,277.408" style="fill:none;stroke:black;stroke-width:1" />
  <polyline points="39.016,261.4797 35.016,261.4797" style="fill:none;stroke:black;stroke-width:1" />
  <polyline points="39.016,229.6231 35.016,229.6231" style="fill:none;stroke:black;stroke-width:1" />
  <polyline points="39.016,213.6948 35.016,213.6948" style="fill:none;stroke:black;stroke-width:1" />
  <polyline points="39.016,197.7665 35.016,197.7665" style="fill:none;stroke:black;stroke-width:1" />
  <polyline points="39.016,165.9099 35.016,165.9099" style="fill:none;stroke:black;stroke-width:1" />
  <polyline points="39.016,149.9816 35.016,149.9816" style="fill:none;stroke:black;stroke-width:1" />
  <polyline points="39.016,134.0533 35.016,134.0533" style="fill:none;stroke:black;stroke-width:1" />
  <polyline points="39.016,102.1968 35.016,102.1968" style="fill:none;stroke:black;stroke-width:1" />
  <polyline points="39.016,86.2685 35.016,86.2685" style="fill:none;stroke:black;stroke-width:1" />
  <polyline points="39.016,70.3402 35.016,70.3402" style="fill:none;stroke:black;stroke-width:1" />
  <polyline points="39.016,38.4836 35.016,38.4836" style="fill:none;stroke:black;stroke-width:1" />
  <text dominant-baseline="middle" text-anchor="end" transform="translate(28.016,309.2646)" font-family="Segoe UI" font-size="12" font-weight="400" fill="black">200</text>
  <text dominant-baseline="middle" text-anchor="end" transform="translate(28.016,245.5514)" font-family="Segoe UI" font-size="12" font-weight="400" fill="black">400</text>
  <text dominant-baseline="middle" text-anchor="end" transform="translate(28.016,181.8382)" font-family="Segoe UI" font-size="12" font-weight="400" fill="black">600</text>
  <text dominant-baseline="middle" text-anchor="end" transform="translate(28.016,118.125)" font-family="Segoe UI" font-size="12" font-weight="400" fill="black">800</text>
  <text dominant-baseline="middle" text-anchor="end" transform="translate(28.016,54.4119)" font-family="Segoe UI" font-size="12" font-weight="400" fill="black">1000</text>
  <polyline points="39.016,309.2646 32.016,309.2646" style="fill:none;stroke:black;stroke-width:1" />
  <polyline points="39.016,245.5514 32.016,245.5514" style="fill:none;stroke:black;stroke-width:1" />
  <polyline points="39.016,181.8382 32.016,181.8382" style="fill:none;stroke:black;stroke-width:1" />
  <polyline points="39.016,118.125 32.016,118.125" style="fill:none;stroke:black;stroke-width:1" />
  <polyline points="39.016,54.4119 32.016,54.4119" style="fill:none;stroke:black;stroke-width:1" />
  <text dominant-baseline="hanging" text-anchor="middle" transform="translate(80.2835,381.947)" font-family="Segoe UI" font-size="12" font-weight="400" fill="black">01. September</text>
  <text dominant-baseline="hanging" text-anchor="middle" transform="translate(142.1847,381.947)" font-family="Segoe UI" font-size="12" font-weight="400" fill="black">01. October</text>
  <text dominant-baseline="hanging" text-anchor="middle" transform="translate(206.1492,381.947)" font-family="Segoe UI" font-size="12" font-weight="400" fill="black">01. November</text>
  <text dominant-baseline="hanging" text-anchor="middle" transform="translate(268.0504,381.947)" font-family="Segoe UI" font-size="12" font-weight="400" fill="black">01. December</text>
  <text dominant-baseline="hanging" text-anchor="middle" transform="translate(332.015,381.947)" font-family="Segoe UI" font-size="12" font-weight="400" fill="black">01. January</text>
  <text dominant-baseline="hanging" text-anchor="middle" transform="translate(395.9796,381.947)" font-family="Segoe UI" font-size="12" font-weight="400" fill="black">01. February</text>
  <text dominant-baseline="hanging" text-anchor="middle" transform="translate(453.754,381.947)" font-family="Segoe UI" font-size="12" font-weight="400" fill="black">01. March</text>
  <text dominant-baseline="hanging" text-anchor="middle" transform="translate(517.7186,381.947)" font-family="Segoe UI" font-size="12" font-weight="400" fill="black">01. April</text>
  <text dominant-baseline="hanging" text-anchor="middle" transform="translate(579.6198,381.947)" font-family="Segoe UI" font-size="12" font-weight="400" fill="black">01. May</text>
  <polyline points="80.2835,370.947 80.2835,377.947" style="fill:none;stroke:black;stroke-width:1" />
  <polyline points="142.1847,370.947 142.1847,377.947" style="fill:none;stroke:black;stroke-width:1" />
  <polyline points="206.1492,370.947 206.1492,377.947" style="fill:none;stroke:black;stroke-width:1" />
  <polyline points="268.0504,370.947 268.0504,377.947" style="fill:none;stroke:black;stroke-width:1" />
  <polyline points="332.015,370.947 332.015,377.947" style="fill:none;stroke:black;stroke-width:1" />
  <polyline points="395.9796,370.947 395.9796,377.947" style="fill:none;stroke:black;stroke-width:1" />
  <polyline points="453.754,370.947 453.754,377.947" style="fill:none;stroke:black;stroke-width:1" />
  <polyline points="517.7186,370.947 517.7186,377.947" style="fill:none;stroke:black;stroke-width:1" />
  <polyline points="579.6198,370.947 579.6198,377.947" style="fill:none;stroke:black;stroke-width:1" />
  <polyline points="39.016,363.4208 43.1427,360.5537 49.3329,362.4651 51.3962,360.5537 53.4596,361.828 55.523,360.2352 57.5864,360.5537 63.7765,360.8723 65.8399,363.4208 67.9032,363.7394 69.9666,363.1023 72.03,363.1023 78.2201,365.3322 80.2835,366.2879 82.3468,366.2879 84.4102,365.6508 86.4736,365.9693 92.6637,365.9693 94.7271,367.5622 96.7904,366.6065 98.8538,364.6951 100.9172,363.4208 107.1073,360.2352 109.1707,358.0052 111.2341,354.8195 113.2974,354.501 115.3608,353.5453 121.5509,356.4124 123.6143,357.0495 125.6777,356.7309 127.741,355.4567 129.8044,353.8638 135.9945,346.2183 138.0579,347.174 140.1213,347.4925 142.1847,342.714 144.248,338.2541 150.4381,333.1571 152.5015,337.617 154.5649,333.4756 156.6283,329.0157 158.6916,327.7414 164.8818,318.1845 166.9451,325.5115 169.0085,321.6887 171.0719,313.0874 173.1353,300.6633 179.3254,284.735 181.3887,285.6907 183.4521,283.7793 185.5155,269.1253 187.5789,266.2582 193.769,223.2518 195.8324,235.0387 197.8957,235.0387 199.9591,231.5345 202.0225,212.4206 208.2126,218.4733 210.276,250.3299 212.3393,243.3215 214.4027,234.083 216.4661,230.2603 222.6562,208.9163 224.7196,221.9775 226.783,212.7391 230.9097,194.8994 237.0998,191.0766 239.1632,208.9163 241.2266,213.6948 243.2899,193.6252 245.3533,209.2349 251.5434,223.8889 253.6068,235.6759 255.6702,231.5345 257.7336,241.4101 259.7969,226.4375 265.987,207.6421 268.0504,218.1548 270.1138,234.4016 272.1772,228.6674 274.2405,236.9501 280.4307,197.1294 282.494,214.0134 284.5574,223.2518 286.6208,207.3235 288.6841,197.1294 294.8743,165.2728 296.9376,185.3425 299.001,192.988 301.0644,182.1568 303.1278,164.9542 309.3179,140.4247 311.3813,159.2201 313.4446,175.1484 323.7615,139.469 325.8249,156.6715 327.8882,169.4142 329.9516,156.0344 338.2051,156.353 340.2685,173.5555 342.3319,197.7665 344.3952,203.1822 346.4586,184.7053 354.7121,220.0661 356.7755,236.313 358.8388,229.3046 360.9022,247.1443 367.0923,257.6569 369.1557,276.1338 371.2191,280.9122 373.2824,279.638 375.3458,276.7709 381.5359,276.4523 385.6627,283.7793 387.7261,270.3996 389.7894,261.7983 395.9796,263.0725 398.0429,277.7266 400.1063,290.4692 402.1697,284.4165 404.233,284.4165 410.4232,295.8848 412.4865,304.1676 414.5499,299.3891 416.6133,289.8321 418.6767,280.2751 424.8668,287.2836 426.9301,310.8574 428.9935,309.5832 431.0569,302.8933 433.1203,317.2288 439.3104,323.2815 441.3738,329.0157 443.4371,325.1929 445.5005,323.9186 447.5639,325.5115 453.754,327.1043 455.8174,335.0684 457.8807,329.6528 459.9441,312.4503 462.0075,311.4946 468.1976,298.4334 470.261,298.4334 472.3244,293.3363 474.3877,285.3722 476.4511,275.4966 482.6412,268.8067 484.7046,269.7624 486.768,270.3996 488.8313,250.3299 490.8947,236.6316 497.0848,219.7476 499.1482,220.0661 501.2116,221.3404 503.275,199.3594 505.3383,195.218 511.5284,192.3509 513.5918,214.9691 515.6552,219.429 517.7186,211.7834 519.7819,188.5281 528.0354,174.1927 530.0988,176.7412 532.1622,153.4859 534.2256,148.3888 540.4157,142.6546 542.479,144.2475 544.5424,126.7263 546.6058,113.6651 548.6692,116.2137 554.8593,99.9668 556.9227,95.1883 558.986,72.8887 561.0494,44.5363 563.1128,32.4308 569.3029,42.3064 571.3663,49.3148 573.4296,66.1988 575.493,77.6672 577.5564,71.2959 583.7465,109.8423 585.8099,105.701 587.8733,125.7706 589.9366,134.6905 592,148.3888" style="fill:none;stroke:rgb(31,119,180);stroke-width:2;stroke-linejoin:bevel" />
  <text dominant-baseline="hanging" text-anchor="middle" transform="translate(315.508,8)" font-family="Segoe UI" font-size="18" font-weight="700" fill="black">Aktive Fälle Stadt Aachen 07.05.2021</text>
  <polygon points="39.016,29.0795 592,29.0795 592,370.947 39.016,370.947" style="fill:none;stroke:black;stroke-width:1" />
  <polygon points="47.016,37.0795 233.487,37.0795 233.487,63.1325 47.016,63.1325" style="fill:none;stroke:none;" />
  <text dominant-baseline="hanging" text-anchor="start" transform="translate(75.016,45.0795)" font-family="Segoe UI" font-size="12" font-weight="400" fill="black">Aktive Fälle Stadt Aachen 07.05.2021</text>
  <polyline points="55.016,50.106 71.016,50.106" style="fill:none;stroke:rgb(31,119,180);stroke-width:2" />
</svg>