<?xml version="1.0" encoding="utf-8" standalone="no"?>
<!DOCTYPE svg PUBLIC "-//W3C//DTD SVG 1.1//EN" "http://www.w3.org/Graphics/SVG/1.1/DTD/svg11.dtd">
<svg width="600" height="400" version="1.1" xmlns:xlink="http://www.w3.org/1999/xlink" xmlns="http://www.w3.org/2000/svg">
  <rect x="0" y="0" width="600" height="400" style="fill:rgb(255,255,255);stroke:none;" />
  <polyline points="39.016,357.0495 35.016,357.0495" style="fill:none;stroke:black;stroke-width:1" />
  <polyline points="39.016,341.1212 35.016,341.1212" style="fill:none;stroke:black;stroke-width:1" />
  <polyline points="39.016,325.1929 35.016,325.1929" style="fill:none;stroke:black;stroke-width:1" />
  <polyline points="39.016,293.3363 35.016,293.3363" style="fill:none;stroke:black;stroke-width:1" />
  <polyline points="39.016,277.408 35.016,277.408" style="fill:none;stroke:black;stroke-width:1" />
  <polyline points="39.016,261.4797 35.016,261.4797" style="fill:none;stroke:black;stroke-width:1" />
  <polyline points="39.016,229.6231 35.016,229.6231" style="fill:none;stroke:black;stroke-width:1" />
  <polyline points="39.016,213.6948 35.016,213.6948" style="fill:none;stroke:black;stroke-width:1" />
  <polyline points="39.016,197.7665 35.016,197.7665" style="fill:none;stroke:black;stroke-width:1" />
  <polyline points="39.016,165.9099 35.016,165.9099" style="fill:none;stroke:black;stroke-width:1" />
  <polyline points="39.016,149.9816 35.016,149.9816" style="fill:none;stroke:black;stroke-width:1" />
  <polyline points="39.016,134.0533 35.016,134.0533" style="fill:none;stroke:black;stroke-width:1" />
  <polyline points="39.016,102.1968 35.016,102.1968" style="fill:none;stroke:black;stroke-width:1" />
  <polyline points="39.016,86.2685 35.016,86.2685" style="fill:none;stroke:black;stroke-width:1" />
  <polyline points="39.016,70.3402 35.016,70.3402" style="fill:none;stroke:black;stroke-width:1" />
  <polyline points="39.016,38.4836 35.016,38.4836" style="fill:none;stroke:black;stroke-width:1" />
  <text dominant-baseline="middle" text-anchor="end" transform="translate(28.016,309.2646)" font-family="Segoe UI" font-size="12" font-weight="400" fill="black">200</text>
  <text dominant-baseline="middle" text-anchor="end" transform="translate(28.016,245.5514)" font-family="Segoe UI" font-size="12" font-weight="400" fill="black">400</text>
  <text dominant-baseline="middle" text-anchor="end" transform="translate(28.016,181.8382)" font-family="Segoe UI" font-size="12" font-weight="400" fill="black">600</text>
  <text dominant-baseline="middle" text-anchor="end" transform="translate(28.016,118.125)" font-family="Segoe UI" font-size="12" font-weight="400" fill="black">800</text>
  <text dominant-baseline="middle" text-anchor="end" transform="translate(28.016,54.4119)" font-family="Segoe UI" font-size="12" font-weight="400" fill="black">1000</text>
  <polyline points="39.016,309.2646 32.016,309.2646" style="fill:none;stroke:black;stroke-width:1" />
  <polyline points="39.016,245.5514 32.016,245.5514" style="fill:none;stroke:black;stroke-width:1" />
  <polyline points="39.016,181.8382 32.016,181.8382" style="fill:none;stroke:black;stroke-width:1" />
  <polyline points="39.016,118.125 32.016,118.125" style="fill:none;stroke:black;stroke-width:1" />
  <polyline points="39.016,54.4119 32.016,54.4119" style="fill:none;stroke:black;stroke-width:1" />
  <text dominant-baseline="hanging" text-anchor="middle" transform="translate(78.799,381.947)" font-family="Segoe UI" font-size="12" font-weight="400" fill="black">01. September</text>
  <text dominant-baseline="hanging" text-anchor="middle" transform="translate(138.4736,381.947)" font-family="Segoe UI" font-size="12" font-weight="400" fill="black">01. October</text>
  <text dominant-baseline="hanging" text-anchor="middle" transform="translate(200.1372,381.947)" font-family="Segoe UI" font-size="12" font-weight="400" fill="black">01. November</text>
  <text dominant-baseline="hanging" text-anchor="middle" transform="translate(259.8118,381.947)" font-family="Segoe UI" font-size="12" font-weight="400" fill="black">01. December</text>
  <text dominant-baseline="hanging" text-anchor="middle" transform="translate(321.4755,381.947)" font-family="Segoe UI" font-size="12" font-weight="400" fill="black">01. January</text>
  <text dominant-baseline="hanging" text-anchor="middle" transform="translate(383.1391,381.947)" font-family="Segoe UI" font-size="12" font-weight="400" fill="black">01. February</text>
  <text dominant-baseline="hanging" text-anchor="middle" transform="translate(438.8354,381.947)" font-family="Segoe UI" font-size="12" font-weight="400" fill="black">01. March</text>
  <text dominant-baseline="hanging" text-anchor="middle" transform="translate(500.4991,381.947)" font-family="Segoe UI" font-size="12" font-weight="400" fill="black">01. April</text>
  <text dominant-baseline="hanging" text-anchor="middle" transform="translate(560.1736,381.947)" font-family="Segoe UI" font-size="12" font-weight="400" fill="black">01. May</text>
  <polyline points="78.799,370.947 78.799,377.947" style="fill:none;stroke:black;stroke-width:1" />
  <polyline points="138.4736,370.947 138.4736,377.947" style="fill:none;stroke:black;stroke-width:1" />
  <polyline points="200.1372,370.947 200.1372,377.947" style="fill:none;stroke:black;stroke-width:1" />
  <polyline points="259.8118,370.947 259.8118,377.947" style="fill:none;stroke:black;stroke-width:1" />
  <polyline points="321.4755,370.947 321.4755,377.947" style="fill:none;stroke:black;stroke-width:1" />
  <polyline points="383.1391,370.947 383.1391,377.947" style="fill:none;stroke:black;stroke-width:1" />
  <polyline points="438.8354,370.947 438.8354,377.947" style="fill:none;stroke:black;stroke-width:1" />
  <polyline points="500.4991,370.947 500.4991,377.947" style="fill:none;stroke:black;stroke-width:1" />
  <polyline points="560.1736,370.947 560.1736,377.947" style="fill:none;stroke:black;stroke-width:1" />
  <polyline points="39.016,363.4208 42.9943,360.5537 48.9618,362.4651 50.9509,360.5537 52.9401,361.828 54.9292,360.2352 56.9184,360.5537 62.8858,360.8723 64.875,363.4208 66.8641,363.7394 68.8533,363.1023 70.8424,363.1023 76.8099,365.3322 78.799,366.2879 80.7882,366.2879 82.7773,365.6508 84.7665,365.9693 90.7339,365.9693 92.7231,367.5622 94.7122,366.6065 96.7014,364.6951 98.6905,363.4208 104.658,360.2352 106.6471,358.0052 108.6363,354.8195 110.6254,354.501 112.6146,353.5453 118.582,356.4124 120.5712,357.0495 122.5603,356.7309 124.5495,355.4567 126.5386,353.8638 132.5061,346.2183 134.4953,347.174 136.4844,347.4925 138.4736,342.714 140.4627,338.2541 146.4302,333.1571 148.4193,337.617 150.4085,333.4756 152.3976,329.0157 154.3868,327.7414 160.3542,318.1845 162.3434,325.5115 164.3325,321.6887 166.3217,313.0874 168.3108,300.6633 174.2783,284.735 176.2674,285.6907 178.2566,283.7793 180.2457,269.1253 182.2349,266.2582 188.2023,223.2518 190.1915,235.0387 192.1806,235.0387 194.1698,231.5345 196.1589,212.4206 202.1264,218.4733 204.1155,250.3299 206.1047,243.3215 208.0938,234.083 210.083,230.2603 216.0504,208.9163 218.0396,221.9775 220.0287,212.7391 224.0071,194.8994 229.9745,191.0766 231.9637,208.9163 233.9528,213.6948 235.942,193.6252 237.9311,209.2349 243.8986,223.8889 245.8877,235.6759 247.8769,231.5345 249.866,241.4101 251.8552,226.4375 257.8226,207.6421 259.8118,218.1548 261.8009,234.4016 263.7901,228.6674 265.7792,236.9501 271.7467,197.1294 273.7358,214.0134 275.725,223.2518 277.7141,207.3235 279.7033,197.1294 285.6707,165.2728 287.6599,185.3425 289.649,192.988 291.6382,182.1568 293.6273,164.9542 299.5948,140.4247 301.5839,159.2201 303.5731,175.1484 313.5188,139.469 315.508,156.6715 317.4972,169.4142 319.4863,156.0344 327.4429,156.353 329.4321,173.5555 331.4212,197.7665 333.4104,203.1822 335.3995,184.7053 343.3561,220.0661 345.3453,236.313 347.3344,229.3046 349.3236,247.1443 355.291,257.6569 357.2802,276.1338 359.2693,280.9122 361.2585,279.638 363.2476,276.7709 369.2151,276.4523 373.1934,283.7793 375.1825,270.3996 377.1717,261.7983 383.1391,263.0725 385.1283,277.7266 387.1174,290.4692 389.1066,284.4165 391.0957,284.4165 397.0632,295.8848 399.0523,304.1676 401.0415,299.3891 403.0306,289.8321 405.0198,280.2751 410.9873,287.2836 412.9764,310.8574 414.9656,309.5832 416.9547,302.8933 418.9439,317.2288 424.9113,323.2815 426.9005,329.0157 428.8896,325.1929 430.8788,323.9186 432.8679,325.5115 438.8354,327.1043 440.8245,335.0684 442.8137,329.6528 444.8028,312.4503 446.792,311.4946 452.7594,298.4334 454.7486,298.4334 456.7377,293.3363 458.7269,285.3722 460.716,275.4966 466.6835,268.8067 468.6726,269.7624 470.6618,270.3996 472.6509,250.3299 474.6401,236.6316 480.6075,219.7476 482.5967,220.0661 484.5858,221.3404 486.575,199.3594 488.5641,195.218 494.5316,192.3509 496.5207,214.9691 498.5099,219.429 500.4991,211.7834 502.4882,188.5281 510.4448,174.1927 512.434,176.7412 514.4231,153.4859 516.4123,148.3888 522.3797,142.6546 524.3689,144.2475 526.358,126.7263 528.3472,113.6651 530.3363,116.2137 536.3038,99.9668 538.2929,95.1883 540.2821,72.8887 542.2712,44.5363 544.2604,32.4308 550.2278,42.3064 552.217,49.3148 554.2061,66.1988 556.1953,77.6672 558.1844,71.2959 564.1519,109.8423 566.141,105.701 568.1302,125.7706 570.1193,134.6905 572.1085,148.3888 578.0759,149.0259 580.0651,175.7855 582.0542,170.6884 586.0325,185.3425 592,171.9627" style="fill:none;stroke:rgb(31,119,180);stroke-width:2;stroke-linejoin:bevel" />
  <text dominant-baseline="hanging" text-anchor="middle" transform="translate(315.508,8)" font-family="Segoe UI" font-size="18" font-weight="700" fill="black">Aktive Fälle Stadt Aachen 17.05.2021</text>
  <polygon points="39.016,29.0795 592,29.0795 592,370.947 39.016,370.947" style="fill:none;stroke:black;stroke-width:1" />
  <polygon points="47.016,37.0795 233.487,37.0795 233.487,63.1325 47.016,63.1325" style="fill:none;stroke:none;" />
  <text dominant-baseline="hanging" text-anchor="start" transform="translate(75.016,45.0795)" font-family="Segoe UI" font-size="12" font-weight="400" fill="black">Aktive Fälle Stadt Aachen 17.05.2021</text>
  <polyline points="55.016,50.106 71.016,50.106" style="fill:none;stroke:rgb(31,119,180);stroke-width:2" />
</svg>