<?xml version="1.0" encoding="utf-8" standalone="no"?>
<!DOCTYPE svg PUBLIC "-//W3C//DTD SVG 1.1//EN" "http://www.w3.org/Graphics/SVG/1.1/DTD/svg11.dtd">
<svg width="600" height="400" version="1.1" xmlns:xlink="http://www.w3.org/1999/xlink" xmlns="http://www.w3.org/2000/svg">
  <rect x="0" y="0" width="600" height="400" style="fill:rgb(255,255,255);stroke:none;" />
  <polyline points="34.012,352.1162 30.012,352.1162" style="fill:none;stroke:black;stroke-width:1" />
  <polyline points="34.012,328.7131 30.012,328.7131" style="fill:none;stroke:black;stroke-width:1" />
  <polyline points="34.012,305.3101 30.012,305.3101" style="fill:none;stroke:black;stroke-width:1" />
  <polyline points="34.012,258.5041 30.012,258.5041" style="fill:none;stroke:black;stroke-width:1" />
  <polyline points="34.012,235.101 30.012,235.101" style="fill:none;stroke:black;stroke-width:1" />
  <polyline points="34.012,211.698 30.012,211.698" style="fill:none;stroke:black;stroke-width:1" />
  <polyline points="34.012,164.892 30.012,164.892" style="fill:none;stroke:black;stroke-width:1" />
  <polyline points="34.012,141.4889 30.012,141.4889" style="fill:none;stroke:black;stroke-width:1" />
  <polyline points="34.012,118.0859 30.012,118.0859" style="fill:none;stroke:black;stroke-width:1" />
  <polyline points="34.012,71.2798 30.012,71.2798" style="fill:none;stroke:black;stroke-width:1" />
  <polyline points="34.012,47.8768 30.012,47.8768" style="fill:none;stroke:black;stroke-width:1" />
  <text dominant-baseline="middle" text-anchor="end" transform="translate(23.012,281.9071)" font-family="Segoe UI" font-size="12" font-weight="400" fill="black">200</text>
  <text dominant-baseline="middle" text-anchor="end" transform="translate(23.012,188.295)" font-family="Segoe UI" font-size="12" font-weight="400" fill="black">400</text>
  <text dominant-baseline="middle" text-anchor="end" transform="translate(23.012,94.6829)" font-family="Segoe UI" font-size="12" font-weight="400" fill="black">600</text>
  <polyline points="34.012,281.9071 27.012,281.9071" style="fill:none;stroke:black;stroke-width:1" />
  <polyline points="34.012,188.295 27.012,188.295" style="fill:none;stroke:black;stroke-width:1" />
  <polyline points="34.012,94.6829 27.012,94.6829" style="fill:none;stroke:black;stroke-width:1" />
  <text dominant-baseline="hanging" text-anchor="middle" transform="translate(85.9179,381.947)" font-family="Segoe UI" font-size="12" font-weight="400" fill="black">01. September</text>
  <text dominant-baseline="hanging" text-anchor="middle" transform="translate(163.7767,381.947)" font-family="Segoe UI" font-size="12" font-weight="400" fill="black">01. October</text>
  <text dominant-baseline="hanging" text-anchor="middle" transform="translate(244.2307,381.947)" font-family="Segoe UI" font-size="12" font-weight="400" fill="black">01. November</text>
  <text dominant-baseline="hanging" text-anchor="middle" transform="translate(322.0895,381.947)" font-family="Segoe UI" font-size="12" font-weight="400" fill="black">01. December</text>
  <text dominant-baseline="hanging" text-anchor="middle" transform="translate(402.5436,381.947)" font-family="Segoe UI" font-size="12" font-weight="400" fill="black">01. January</text>
  <text dominant-baseline="hanging" text-anchor="middle" transform="translate(482.9977,381.947)" font-family="Segoe UI" font-size="12" font-weight="400" fill="black">01. February</text>
  <text dominant-baseline="hanging" text-anchor="middle" transform="translate(555.6659,381.947)" font-family="Segoe UI" font-size="12" font-weight="400" fill="black">01. March</text>
  <polyline points="85.9179,370.947 85.9179,377.947" style="fill:none;stroke:black;stroke-width:1" />
  <polyline points="163.7767,370.947 163.7767,377.947" style="fill:none;stroke:black;stroke-width:1" />
  <polyline points="244.2307,370.947 244.2307,377.947" style="fill:none;stroke:black;stroke-width:1" />
  <polyline points="322.0895,370.947 322.0895,377.947" style="fill:none;stroke:black;stroke-width:1" />
  <polyline points="402.5436,370.947 402.5436,377.947" style="fill:none;stroke:black;stroke-width:1" />
  <polyline points="482.9977,370.947 482.9977,377.947" style="fill:none;stroke:black;stroke-width:1" />
  <polyline points="555.6659,370.947 555.6659,377.947" style="fill:none;stroke:black;stroke-width:1" />
  <polyline points="34.012,361.4774 39.2026,357.2648 46.9885,360.0732 49.5838,357.2648 52.1791,359.1371 54.7743,356.7968 57.3696,357.2648 65.1555,357.7329 67.7508,361.4774 70.3461,361.9454 72.9414,361.0093 75.5367,361.0093 83.3226,364.2857 85.9179,365.6899 88.5132,365.6899 91.1084,364.7538 93.7037,365.2219 101.4896,365.2219 104.0849,367.5622 106.6802,366.158 109.2755,363.3496 111.8708,361.4774 119.6567,356.7968 122.252,353.5204 124.8473,348.8398 127.4425,348.3717 130.0378,346.9675 137.8237,351.1801 140.419,352.1162 143.0143,351.6481 145.6096,349.7759 148.2049,347.4356 155.9908,336.2021 158.5861,337.6063 161.1814,338.0744 163.7767,331.0534 166.3719,324.5006 174.1578,317.0116 176.7531,323.5645 179.3484,317.4797 181.9437,310.9268 184.539,309.0546 192.3249,295.0128 194.9202,305.7782 197.5155,300.1615 200.1108,287.5238 202.706,269.2695 210.4919,245.8664 213.0872,247.2706 215.6825,244.4622 218.2778,222.9315 220.8731,218.7189 228.659,155.5307 231.2543,172.849 233.8496,172.849 236.4449,167.7003 239.0401,139.6167 246.826,148.5098 249.4213,195.3159 252.0166,185.0186 254.6119,171.4448 257.2072,165.8281 264.9931,134.468 267.5884,153.6585 270.1837,140.0847 275.3743,113.8734 283.1601,108.2566 285.7554,134.468 288.3507,141.4889 290.946,112.0011 293.5413,134.9361 301.3272,156.4669 303.9225,173.7851 306.5178,167.7003 309.1131,182.2102 311.7084,160.2113 319.4942,132.5958 322.0895,148.0418 324.6848,171.9129 327.2801,163.4878 329.8754,175.6573 337.6613,117.1498 340.2566,141.957 342.8519,155.5307 345.4472,132.1277 348.0425,117.1498 355.8283,70.3437 358.4236,99.8315 361.0189,111.065 363.6142,95.1509 366.2095,69.8757 373.9954,33.835 376.5907,61.4506 379.186,84.8536 392.1624,32.4308 394.7577,57.7061 397.353,76.4285 399.9483,56.77 410.3295,57.238 412.9248,82.5133 415.5201,118.0859 418.1154,126.0429 420.7107,98.8954 431.0918,150.8501 433.6871,174.7212 436.2824,164.4239 438.8777,190.6353 446.6636,206.0813 449.2589,233.2288 451.8542,240.2497 454.4495,238.3775 457.0448,234.1649 464.8306,233.6969 470.0212,244.4622 472.6165,224.8037 475.2118,212.1661 482.9977,214.0383 485.593,235.5691 488.1883,254.2915 490.7836,245.3984 493.3789,245.3984 501.1647,262.2485 503.76,274.4181 506.3553,267.3972 508.9506,253.3554 511.5459,239.3136 519.3318,249.6109 521.9271,284.2474 524.5224,282.3752 527.1177,272.5459 529.713,293.6086 537.4988,302.5018 540.0941,310.9268 542.6894,305.3101 545.2847,303.4379 547.88,305.7782 555.6659,308.1185 558.2612,319.82 560.8565,311.863 563.4518,286.5877 566.0471,285.1835 573.8329,265.993 576.4282,265.993 579.0235,258.5041 581.6188,246.8025 584.2141,232.2927 592,222.4634" style="fill:none;stroke:rgb(31,119,180);stroke-width:2;stroke-linejoin:bevel" />
  <text dominant-baseline="hanging" text-anchor="middle" transform="translate(313.006,8)" font-family="Segoe UI" font-size="18" font-weight="700" fill="black">Aktive Fälle Stadt Aachen 15.03.2021</text>
  <polygon points="34.012,29.0795 592,29.0795 592,370.947 34.012,370.947" style="fill:none;stroke:black;stroke-width:1" />
  <polygon points="42.012,37.0795 228.483,37.0795 228.483,63.1325 42.012,63.1325" style="fill:none;stroke:none;" />
  <text dominant-baseline="hanging" text-anchor="start" transform="translate(70.012,45.0795)" font-family="Segoe UI" font-size="12" font-weight="400" fill="black">Aktive Fälle Stadt Aachen 15.03.2021</text>
  <polyline points="50.012,50.106 66.012,50.106" style="fill:none;stroke:rgb(31,119,180);stroke-width:2" />
</svg>