<?xml version="1.0" encoding="utf-8" standalone="no"?>
<!DOCTYPE svg PUBLIC "-//W3C//DTD SVG 1.1//EN" "http://www.w3.org/Graphics/SVG/1.1/DTD/svg11.dtd">
<svg width="600" height="400" version="1.1" xmlns:xlink="http://www.w3.org/1999/xlink" xmlns="http://www.w3.org/2000/svg">
  <rect x="0" y="0" width="600" height="400" style="fill:rgb(255,255,255);stroke:none;" />
  <polyline points="39.016,357.0495 35.016,357.0495" style="fill:none;stroke:black;stroke-width:1" />
  <polyline points="39.016,341.1212 35.016,341.1212" style="fill:none;stroke:black;stroke-width:1" />
  <polyline points="39.016,325.1929 35.016,325.1929" style="fill:none;stroke:black;stroke-width:1" />
  <polyline points="39.016,293.3363 35.016,293.3363" style="fill:none;stroke:black;stroke-width:1" />
  <polyline points="39.016,277.408 35.016,277.408" style="fill:none;stroke:black;stroke-width:1" />
  <polyline points="39.016,261.4797 35.016,261.4797" style="fill:none;stroke:black;stroke-width:1" />
  <polyline points="39.016,229.6231 35.016,229.6231" style="fill:none;stroke:black;stroke-width:1" />
  <polyline points="39.016,213.6948 35.016,213.6948" style="fill:none;stroke:black;stroke-width:1" />
  <polyline points="39.016,197.7665 35.016,197.7665" style="fill:none;stroke:black;stroke-width:1" />
  <polyline points="39.016,165.9099 35.016,165.9099" style="fill:none;stroke:black;stroke-width:1" />
  <polyline points="39.016,149.9816 35.016,149.9816" style="fill:none;stroke:black;stroke-width:1" />
  <polyline points="39.016,134.0533 35.016,134.0533" style="fill:none;stroke:black;stroke-width:1" />
  <polyline points="39.016,102.1968 35.016,102.1968" style="fill:none;stroke:black;stroke-width:1" />
  <polyline points="39.016,86.2685 35.016,86.2685" style="fill:none;stroke:black;stroke-width:1" />
  <polyline points="39.016,70.3402 35.016,70.3402" style="fill:none;stroke:black;stroke-width:1" />
  <polyline points="39.016,38.4836 35.016,38.4836" style="fill:none;stroke:black;stroke-width:1" />
  <text dominant-baseline="middle" text-anchor="end" transform="translate(28.016,309.2646)" font-family="Segoe UI" font-size="12" font-weight="400" fill="black">200</text>
  <text dominant-baseline="middle" text-anchor="end" transform="translate(28.016,245.5514)" font-family="Segoe UI" font-size="12" font-weight="400" fill="black">400</text>
  <text dominant-baseline="middle" text-anchor="end" transform="translate(28.016,181.8382)" font-family="Segoe UI" font-size="12" font-weight="400" fill="black">600</text>
  <text dominant-baseline="middle" text-anchor="end" transform="translate(28.016,118.125)" font-family="Segoe UI" font-size="12" font-weight="400" fill="black">800</text>
  <text dominant-baseline="middle" text-anchor="end" transform="translate(28.016,54.4119)" font-family="Segoe UI" font-size="12" font-weight="400" fill="black">1000</text>
  <polyline points="39.016,309.2646 32.016,309.2646" style="fill:none;stroke:black;stroke-width:1" />
  <polyline points="39.016,245.5514 32.016,245.5514" style="fill:none;stroke:black;stroke-width:1" />
  <polyline points="39.016,181.8382 32.016,181.8382" style="fill:none;stroke:black;stroke-width:1" />
  <polyline points="39.016,118.125 32.016,118.125" style="fill:none;stroke:black;stroke-width:1" />
  <polyline points="39.016,54.4119 32.016,54.4119" style="fill:none;stroke:black;stroke-width:1" />
  <text dominant-baseline="hanging" text-anchor="middle" transform="translate(79.8266,381.947)" font-family="Segoe UI" font-size="12" font-weight="400" fill="black">01. September</text>
  <text dominant-baseline="hanging" text-anchor="middle" transform="translate(141.0426,381.947)" font-family="Segoe UI" font-size="12" font-weight="400" fill="black">01. October</text>
  <text dominant-baseline="hanging" text-anchor="middle" transform="translate(204.299,381.947)" font-family="Segoe UI" font-size="12" font-weight="400" fill="black">01. November</text>
  <text dominant-baseline="hanging" text-anchor="middle" transform="translate(265.515,381.947)" font-family="Segoe UI" font-size="12" font-weight="400" fill="black">01. December</text>
  <text dominant-baseline="hanging" text-anchor="middle" transform="translate(328.7715,381.947)" font-family="Segoe UI" font-size="12" font-weight="400" fill="black">01. January</text>
  <text dominant-baseline="hanging" text-anchor="middle" transform="translate(392.0279,381.947)" font-family="Segoe UI" font-size="12" font-weight="400" fill="black">01. February</text>
  <text dominant-baseline="hanging" text-anchor="middle" transform="translate(449.1628,381.947)" font-family="Segoe UI" font-size="12" font-weight="400" fill="black">01. March</text>
  <text dominant-baseline="hanging" text-anchor="middle" transform="translate(512.4193,381.947)" font-family="Segoe UI" font-size="12" font-weight="400" fill="black">01. April</text>
  <text dominant-baseline="hanging" text-anchor="middle" transform="translate(573.6352,381.947)" font-family="Segoe UI" font-size="12" font-weight="400" fill="black">01. May</text>
  <polyline points="79.8266,370.947 79.8266,377.947" style="fill:none;stroke:black;stroke-width:1" />
  <polyline points="141.0426,370.947 141.0426,377.947" style="fill:none;stroke:black;stroke-width:1" />
  <polyline points="204.299,370.947 204.299,377.947" style="fill:none;stroke:black;stroke-width:1" />
  <polyline points="265.515,370.947 265.515,377.947" style="fill:none;stroke:black;stroke-width:1" />
  <polyline points="328.7715,370.947 328.7715,377.947" style="fill:none;stroke:black;stroke-width:1" />
  <polyline points="392.0279,370.947 392.0279,377.947" style="fill:none;stroke:black;stroke-width:1" />
  <polyline points="449.1628,370.947 449.1628,377.947" style="fill:none;stroke:black;stroke-width:1" />
  <polyline points="512.4193,370.947 512.4193,377.947" style="fill:none;stroke:black;stroke-width:1" />
  <polyline points="573.6352,370.947 573.6352,377.947" style="fill:none;stroke:black;stroke-width:1" />
  <polyline points="39.016,363.4208 43.0971,360.5537 49.2187,362.4651 51.2592,360.5537 53.2997,361.828 55.3403,360.2352 57.3808,360.5537 63.5024,360.8723 65.5429,363.4208 67.5834,363.7394 69.624,363.1023 71.6645,363.1023 77.7861,365.3322 79.8266,366.2879 81.8672,366.2879 83.9077,365.6508 85.9482,365.9693 92.0698,365.9693 94.1103,367.5622 96.1509,366.6065 98.1914,364.6951 100.2319,363.4208 106.3535,360.2352 108.3941,358.0052 110.4346,354.8195 112.4751,354.501 114.5157,353.5453 120.6373,356.4124 122.6778,357.0495 124.7183,356.7309 126.7588,355.4567 128.7994,353.8638 134.921,346.2183 136.9615,347.174 139.002,347.4925 141.0426,342.714 143.0831,338.2541 149.2047,333.1571 151.2452,337.617 153.2858,333.4756 155.3263,329.0157 157.3668,327.7414 163.4884,318.1845 165.5289,325.5115 167.5695,321.6887 169.61,313.0874 171.6505,300.6633 177.7721,284.735 179.8127,285.6907 181.8532,283.7793 183.8937,269.1253 185.9343,266.2582 192.0559,223.2518 194.0964,235.0387 196.1369,235.0387 198.1774,231.5345 200.218,212.4206 206.3396,218.4733 208.3801,250.3299 210.4206,243.3215 212.4612,234.083 214.5017,230.2603 220.6233,208.9163 222.6638,221.9775 224.7044,212.7391 228.7854,194.8994 234.907,191.0766 236.9475,208.9163 238.9881,213.6948 241.0286,193.6252 243.0691,209.2349 249.1907,223.8889 251.2313,235.6759 253.2718,231.5345 255.3123,241.4101 257.3529,226.4375 263.4745,207.6421 265.515,218.1548 267.5555,234.4016 269.596,228.6674 271.6366,236.9501 277.7582,197.1294 279.7987,214.0134 281.8392,223.2518 283.8798,207.3235 285.9203,197.1294 292.0419,165.2728 294.0824,185.3425 296.123,192.988 298.1635,182.1568 300.204,164.9542 306.3256,140.4247 308.3661,159.2201 310.4067,175.1484 320.6093,139.469 322.6499,156.6715 324.6904,169.4142 326.7309,156.0344 334.893,156.353 336.9336,173.5555 338.9741,197.7665 341.0146,203.1822 343.0552,184.7053 351.2173,220.0661 353.2578,236.313 355.2984,229.3046 357.3389,247.1443 363.4605,257.6569 365.501,276.1338 367.5415,280.9122 369.5821,279.638 371.6226,276.7709 377.7442,276.4523 381.8253,283.7793 383.8658,270.3996 385.9063,261.7983 392.0279,263.0725 394.0685,277.7266 396.109,290.4692 398.1495,284.4165 400.1901,284.4165 406.3116,295.8848 408.3522,304.1676 410.3927,299.3891 412.4332,289.8321 414.4738,280.2751 420.5954,287.2836 422.6359,310.8574 424.6764,309.5832 426.717,302.8933 428.7575,317.2288 434.8791,323.2815 436.9196,329.0157 438.9601,325.1929 441.0007,323.9186 443.0412,325.5115 449.1628,327.1043 451.2033,335.0684 453.2439,329.6528 455.2844,312.4503 457.3249,311.4946 463.4465,298.4334 465.4871,298.4334 467.5276,293.3363 469.5681,285.3722 471.6086,275.4966 477.7302,268.8067 479.7708,269.7624 481.8113,270.3996 483.8518,250.3299 485.8924,236.6316 492.014,219.7476 494.0545,220.0661 496.095,221.3404 498.1356,199.3594 500.1761,195.218 506.2977,192.3509 508.3382,214.9691 510.3787,219.429 512.4193,211.7834 514.4598,188.5281 522.6219,174.1927 524.6625,176.7412 526.703,153.4859 528.7435,148.3888 534.8651,142.6546 536.9057,144.2475 538.9462,126.7263 540.9867,113.6651 543.0272,116.2137 549.1488,99.9668 551.1894,95.1883 553.2299,72.8887 555.2704,44.5363 557.311,32.4308 563.4326,42.3064 565.4731,49.3148 567.5136,66.1988 569.5542,77.6672 571.5947,71.2959 577.7163,109.8423 579.7568,105.701 581.7973,125.7706 583.8379,134.6905 585.8784,148.3888 592,149.0259" style="fill:none;stroke:rgb(31,119,180);stroke-width:2;stroke-linejoin:bevel" />
  <text dominant-baseline="hanging" text-anchor="middle" transform="translate(315.508,8)" font-family="Segoe UI" font-size="18" font-weight="700" fill="black">Aktive Fälle Stadt Aachen 10.05.2021</text>
  <polygon points="39.016,29.0795 592,29.0795 592,370.947 39.016,370.947" style="fill:none;stroke:black;stroke-width:1" />
  <polygon points="47.016,37.0795 233.487,37.0795 233.487,63.1325 47.016,63.1325" style="fill:none;stroke:none;" />
  <text dominant-baseline="hanging" text-anchor="start" transform="translate(75.016,45.0795)" font-family="Segoe UI" font-size="12" font-weight="400" fill="black">Aktive Fälle Stadt Aachen 10.05.2021</text>
  <polyline points="55.016,50.106 71.016,50.106" style="fill:none;stroke:rgb(31,119,180);stroke-width:2" />
</svg>