<?xml version="1.0" encoding="utf-8" standalone="no"?>
<!DOCTYPE svg PUBLIC "-//W3C//DTD SVG 1.1//EN" "http://www.w3.org/Graphics/SVG/1.1/DTD/svg11.dtd">
<svg width="600" height="400" version="1.1" xmlns:xlink="http://www.w3.org/1999/xlink" xmlns="http://www.w3.org/2000/svg">
  <rect x="0" y="0" width="600" height="400" style="fill:rgb(255,255,255);stroke:none;" />
  <polyline points="34.012,352.1162 30.012,352.1162" style="fill:none;stroke:black;stroke-width:1" />
  <polyline points="34.012,328.7131 30.012,328.7131" style="fill:none;stroke:black;stroke-width:1" />
  <polyline points="34.012,305.3101 30.012,305.3101" style="fill:none;stroke:black;stroke-width:1" />
  <polyline points="34.012,258.5041 30.012,258.5041" style="fill:none;stroke:black;stroke-width:1" />
  <polyline points="34.012,235.101 30.012,235.101" style="fill:none;stroke:black;stroke-width:1" />
  <polyline points="34.012,211.698 30.012,211.698" style="fill:none;stroke:black;stroke-width:1" />
  <polyline points="34.012,164.892 30.012,164.892" style="fill:none;stroke:black;stroke-width:1" />
  <polyline points="34.012,141.4889 30.012,141.4889" style="fill:none;stroke:black;stroke-width:1" />
  <polyline points="34.012,118.0859 30.012,118.0859" style="fill:none;stroke:black;stroke-width:1" />
  <polyline points="34.012,71.2798 30.012,71.2798" style="fill:none;stroke:black;stroke-width:1" />
  <polyline points="34.012,47.8768 30.012,47.8768" style="fill:none;stroke:black;stroke-width:1" />
  <text dominant-baseline="middle" text-anchor="end" transform="translate(23.012,281.9071)" font-family="Segoe UI" font-size="12" font-weight="400" fill="black">200</text>
  <text dominant-baseline="middle" text-anchor="end" transform="translate(23.012,188.295)" font-family="Segoe UI" font-size="12" font-weight="400" fill="black">400</text>
  <text dominant-baseline="middle" text-anchor="end" transform="translate(23.012,94.6829)" font-family="Segoe UI" font-size="12" font-weight="400" fill="black">600</text>
  <polyline points="34.012,281.9071 27.012,281.9071" style="fill:none;stroke:black;stroke-width:1" />
  <polyline points="34.012,188.295 27.012,188.295" style="fill:none;stroke:black;stroke-width:1" />
  <polyline points="34.012,94.6829 27.012,94.6829" style="fill:none;stroke:black;stroke-width:1" />
  <text dominant-baseline="hanging" text-anchor="middle" transform="translate(82.3226,381.947)" font-family="Segoe UI" font-size="12" font-weight="400" fill="black">01. September</text>
  <text dominant-baseline="hanging" text-anchor="middle" transform="translate(154.7886,381.947)" font-family="Segoe UI" font-size="12" font-weight="400" fill="black">01. October</text>
  <text dominant-baseline="hanging" text-anchor="middle" transform="translate(229.6701,381.947)" font-family="Segoe UI" font-size="12" font-weight="400" fill="black">01. November</text>
  <text dominant-baseline="hanging" text-anchor="middle" transform="translate(302.1361,381.947)" font-family="Segoe UI" font-size="12" font-weight="400" fill="black">01. December</text>
  <text dominant-baseline="hanging" text-anchor="middle" transform="translate(377.0176,381.947)" font-family="Segoe UI" font-size="12" font-weight="400" fill="black">01. January</text>
  <text dominant-baseline="hanging" text-anchor="middle" transform="translate(451.8991,381.947)" font-family="Segoe UI" font-size="12" font-weight="400" fill="black">01. February</text>
  <text dominant-baseline="hanging" text-anchor="middle" transform="translate(519.534,381.947)" font-family="Segoe UI" font-size="12" font-weight="400" fill="black">01. March</text>
  <polyline points="82.3226,370.947 82.3226,377.947" style="fill:none;stroke:black;stroke-width:1" />
  <polyline points="154.7886,370.947 154.7886,377.947" style="fill:none;stroke:black;stroke-width:1" />
  <polyline points="229.6701,370.947 229.6701,377.947" style="fill:none;stroke:black;stroke-width:1" />
  <polyline points="302.1361,370.947 302.1361,377.947" style="fill:none;stroke:black;stroke-width:1" />
  <polyline points="377.0176,370.947 377.0176,377.947" style="fill:none;stroke:black;stroke-width:1" />
  <polyline points="451.8991,370.947 451.8991,377.947" style="fill:none;stroke:black;stroke-width:1" />
  <polyline points="519.534,370.947 519.534,377.947" style="fill:none;stroke:black;stroke-width:1" />
  <polyline points="34.012,361.4774 38.8431,357.2648 46.0897,360.0732 48.5052,357.2648 50.9207,359.1371 53.3363,356.7968 55.7518,357.2648 62.9984,357.7329 65.4139,361.4774 67.8295,361.9454 70.245,361.0093 72.6605,361.0093 79.9071,364.2857 82.3226,365.6899 84.7382,365.6899 87.1537,364.7538 89.5692,365.2219 96.8158,365.2219 99.2314,367.5622 101.6469,366.158 104.0624,363.3496 106.478,361.4774 113.7246,356.7968 116.1401,353.5204 118.5556,348.8398 120.9712,348.3717 123.3867,346.9675 130.6333,351.1801 133.0488,352.1162 135.4644,351.6481 137.8799,349.7759 140.2954,347.4356 147.542,336.2021 149.9576,337.6063 152.3731,338.0744 154.7886,331.0534 157.2042,324.5006 164.4508,317.0116 166.8663,323.5645 169.2818,317.4797 171.6974,310.9268 174.1129,309.0546 181.3595,295.0128 183.775,305.7782 186.1905,300.1615 188.6061,287.5238 191.0216,269.2695 198.2682,245.8664 200.6837,247.2706 203.0993,244.4622 205.5148,222.9315 207.9303,218.7189 215.1769,155.5307 217.5925,172.849 220.008,172.849 222.4235,167.7003 224.8391,139.6167 232.0857,148.5098 234.5012,195.3159 236.9167,185.0186 239.3323,171.4448 241.7478,165.8281 248.9944,134.468 251.4099,153.6585 253.8255,140.0847 258.6565,113.8734 265.9031,108.2566 268.3186,134.468 270.7342,141.4889 273.1497,112.0011 275.5652,134.9361 282.8118,156.4669 285.2274,173.7851 287.6429,167.7003 290.0584,182.2102 292.474,160.2113 299.7206,132.5958 302.1361,148.0418 304.5516,171.9129 306.9672,163.4878 309.3827,175.6573 316.6293,117.1498 319.0448,141.957 321.4604,155.5307 323.8759,132.1277 326.2914,117.1498 333.538,70.3437 335.9536,99.8315 338.3691,111.065 340.7846,95.1509 343.2002,69.8757 350.4468,33.835 352.8623,61.4506 355.2778,84.8536 367.3555,32.4308 369.771,57.7061 372.1865,76.4285 374.6021,56.77 384.2642,57.238 386.6797,82.5133 389.0953,118.0859 391.5108,126.0429 393.9263,98.8954 403.5885,150.8501 406.004,174.7212 408.4195,164.4239 410.8351,190.6353 418.0817,206.0813 420.4972,233.2288 422.9127,240.2497 425.3283,238.3775 427.7438,234.1649 434.9904,233.6969 439.8215,244.4622 442.237,224.8037 444.6525,212.1661 451.8991,214.0383 454.3146,235.5691 456.7302,254.2915 459.1457,245.3984 461.5612,245.3984 468.8078,262.2485 471.2234,274.4181 473.6389,267.3972 476.0544,253.3554 478.47,239.3136 485.7166,249.6109 488.1321,284.2474 490.5476,282.3752 492.9632,272.5459 495.3787,293.6086 502.6253,302.5018 505.0408,310.9268 507.4564,305.3101 509.8719,303.4379 512.2874,305.7782 519.534,308.1185 521.9496,319.82 524.3651,311.863 526.7806,286.5877 529.1962,285.1835 536.4428,265.993 538.8583,265.993 541.2738,258.5041 543.6894,246.8025 546.1049,232.2927 553.3515,222.4634 555.767,223.8676 558.1825,224.8037 560.5981,195.3159 563.0136,175.1893 570.2602,150.3821 572.6757,150.8501 575.0913,152.7224 577.5068,120.4262 579.9223,114.3414 587.1689,110.1289 589.5845,143.3612 592,149.914" style="fill:none;stroke:rgb(31,119,180);stroke-width:2;stroke-linejoin:bevel" />
  <text dominant-baseline="hanging" text-anchor="middle" transform="translate(313.006,8)" font-family="Segoe UI" font-size="18" font-weight="700" fill="black">Aktive Fälle Stadt Aachen 31.03.2021</text>
  <polygon points="34.012,29.0795 592,29.0795 592,370.947 34.012,370.947" style="fill:none;stroke:black;stroke-width:1" />
  <polygon points="42.012,37.0795 228.483,37.0795 228.483,63.1325 42.012,63.1325" style="fill:none;stroke:none;" />
  <text dominant-baseline="hanging" text-anchor="start" transform="translate(70.012,45.0795)" font-family="Segoe UI" font-size="12" font-weight="400" fill="black">Aktive Fälle Stadt Aachen 31.03.2021</text>
  <polyline points="50.012,50.106 66.012,50.106" style="fill:none;stroke:rgb(31,119,180);stroke-width:2" />
</svg>