<?xml version="1.0" encoding="utf-8" standalone="no"?>
<!DOCTYPE svg PUBLIC "-//W3C//DTD SVG 1.1//EN" "http://www.w3.org/Graphics/SVG/1.1/DTD/svg11.dtd">
<svg width="600" height="400" version="1.1" xmlns:xlink="http://www.w3.org/1999/xlink" xmlns="http://www.w3.org/2000/svg">
  <rect x="0" y="0" width="600" height="400" style="fill:rgb(255,255,255);stroke:none;" />
  <polyline points="34.012,352.1162 30.012,352.1162" style="fill:none;stroke:black;stroke-width:1" />
  <polyline points="34.012,328.7131 30.012,328.7131" style="fill:none;stroke:black;stroke-width:1" />
  <polyline points="34.012,305.3101 30.012,305.3101" style="fill:none;stroke:black;stroke-width:1" />
  <polyline points="34.012,258.5041 30.012,258.5041" style="fill:none;stroke:black;stroke-width:1" />
  <polyline points="34.012,235.101 30.012,235.101" style="fill:none;stroke:black;stroke-width:1" />
  <polyline points="34.012,211.698 30.012,211.698" style="fill:none;stroke:black;stroke-width:1" />
  <polyline points="34.012,164.892 30.012,164.892" style="fill:none;stroke:black;stroke-width:1" />
  <polyline points="34.012,141.4889 30.012,141.4889" style="fill:none;stroke:black;stroke-width:1" />
  <polyline points="34.012,118.0859 30.012,118.0859" style="fill:none;stroke:black;stroke-width:1" />
  <polyline points="34.012,71.2798 30.012,71.2798" style="fill:none;stroke:black;stroke-width:1" />
  <polyline points="34.012,47.8768 30.012,47.8768" style="fill:none;stroke:black;stroke-width:1" />
  <text dominant-baseline="middle" text-anchor="end" transform="translate(23.012,281.9071)" font-family="Segoe UI" font-size="12" font-weight="400" fill="black">200</text>
  <text dominant-baseline="middle" text-anchor="end" transform="translate(23.012,188.295)" font-family="Segoe UI" font-size="12" font-weight="400" fill="black">400</text>
  <text dominant-baseline="middle" text-anchor="end" transform="translate(23.012,94.6829)" font-family="Segoe UI" font-size="12" font-weight="400" fill="black">600</text>
  <polyline points="34.012,281.9071 27.012,281.9071" style="fill:none;stroke:black;stroke-width:1" />
  <polyline points="34.012,188.295 27.012,188.295" style="fill:none;stroke:black;stroke-width:1" />
  <polyline points="34.012,94.6829 27.012,94.6829" style="fill:none;stroke:black;stroke-width:1" />
  <text dominant-baseline="hanging" text-anchor="middle" transform="translate(92.4401,381.947)" font-family="Segoe UI" font-size="12" font-weight="400" fill="black">01. September</text>
  <text dominant-baseline="hanging" text-anchor="middle" transform="translate(180.0822,381.947)" font-family="Segoe UI" font-size="12" font-weight="400" fill="black">01. October</text>
  <text dominant-baseline="hanging" text-anchor="middle" transform="translate(270.6457,381.947)" font-family="Segoe UI" font-size="12" font-weight="400" fill="black">01. November</text>
  <text dominant-baseline="hanging" text-anchor="middle" transform="translate(358.2877,381.947)" font-family="Segoe UI" font-size="12" font-weight="400" fill="black">01. December</text>
  <text dominant-baseline="hanging" text-anchor="middle" transform="translate(448.8512,381.947)" font-family="Segoe UI" font-size="12" font-weight="400" fill="black">01. January</text>
  <text dominant-baseline="hanging" text-anchor="middle" transform="translate(539.4147,381.947)" font-family="Segoe UI" font-size="12" font-weight="400" fill="black">01. February</text>
  <polyline points="92.4401,370.947 92.4401,377.947" style="fill:none;stroke:black;stroke-width:1" />
  <polyline points="180.0822,370.947 180.0822,377.947" style="fill:none;stroke:black;stroke-width:1" />
  <polyline points="270.6457,370.947 270.6457,377.947" style="fill:none;stroke:black;stroke-width:1" />
  <polyline points="358.2877,370.947 358.2877,377.947" style="fill:none;stroke:black;stroke-width:1" />
  <polyline points="448.8512,370.947 448.8512,377.947" style="fill:none;stroke:black;stroke-width:1" />
  <polyline points="539.4147,370.947 539.4147,377.947" style="fill:none;stroke:black;stroke-width:1" />
  <polyline points="34.012,361.4774 39.8548,357.2648 48.619,360.0732 51.5404,357.2648 54.4618,359.1371 57.3832,356.7968 60.3046,357.2648 69.0688,357.7329 71.9902,361.4774 74.9116,361.9454 77.833,361.0093 80.7545,361.0093 89.5187,364.2857 92.4401,365.6899 95.3615,365.6899 98.2829,364.7538 101.2043,365.2219 109.9685,365.2219 112.8899,367.5622 115.8113,366.158 118.7327,363.3496 121.6541,361.4774 130.4183,356.7968 133.3397,353.5204 136.2611,348.8398 139.1825,348.3717 142.1039,346.9675 150.8681,351.1801 153.7895,352.1162 156.7109,351.6481 159.6323,349.7759 162.5537,347.4356 171.3179,336.2021 174.2394,337.6063 177.1608,338.0744 180.0822,331.0534 183.0036,324.5006 191.7678,317.0116 194.6892,323.5645 197.6106,317.4797 200.532,310.9268 203.4534,309.0546 212.2176,295.0128 215.139,305.7782 218.0604,300.1615 220.9818,287.5238 223.9032,269.2695 232.6674,245.8664 235.5888,247.2706 238.5102,244.4622 241.4316,222.9315 244.353,218.7189 253.1172,155.5307 256.0386,172.849 258.96,172.849 261.8814,167.7003 264.8028,139.6167 273.5671,148.5098 276.4885,195.3159 279.4099,185.0186 282.3313,171.4448 285.2527,165.8281 294.0169,134.468 296.9383,153.6585 299.8597,140.0847 305.7025,113.8734 314.4667,108.2566 317.3881,134.468 320.3095,141.4889 323.2309,112.0011 326.1523,134.9361 334.9165,156.4669 337.8379,173.7851 340.7593,167.7003 343.6807,182.2102 346.6021,160.2113 355.3663,132.5958 358.2877,148.0418 361.2092,171.9129 364.1306,163.4878 367.052,175.6573 375.8162,117.1498 378.7376,141.957 381.659,155.5307 384.5804,132.1277 387.5018,117.1498 396.266,70.3437 399.1874,99.8315 402.1088,111.065 405.0302,95.1509 407.9516,69.8757 416.7158,33.835 419.6372,61.4506 422.5586,84.8536 437.1656,32.4308 440.087,57.7061 443.0084,76.4285 445.9298,56.77 457.6155,57.238 460.5369,82.5133 463.4583,118.0859 466.3797,126.0429 469.3011,98.8954 480.9867,150.8501 483.9081,174.7212 486.8295,164.4239 489.7509,190.6353 498.5151,206.0813 501.4365,233.2288 504.3579,240.2497 507.2793,238.3775 510.2007,234.1649 518.9649,233.6969 524.8077,244.4622 527.7291,224.8037 530.6505,212.1661 539.4147,214.0383 542.3361,235.5691 545.2575,254.2915 548.179,245.3984 551.1004,245.3984 559.8646,262.2485 562.786,274.4181 565.7074,267.3972 568.6288,253.3554 571.5502,239.3136 580.3144,249.6109 583.2358,284.2474 586.1572,282.3752 589.0786,272.5459 592,293.6086" style="fill:none;stroke:rgb(31,119,180);stroke-width:2;stroke-linejoin:bevel" />
  <text dominant-baseline="hanging" text-anchor="middle" transform="translate(313.006,8)" font-family="Segoe UI" font-size="18" font-weight="700" fill="black">Aktive Fälle Stadt Aachen 19.02.2021</text>
  <polygon points="34.012,29.0795 592,29.0795 592,370.947 34.012,370.947" style="fill:none;stroke:black;stroke-width:1" />
  <polygon points="42.012,37.0795 228.483,37.0795 228.483,63.1325 42.012,63.1325" style="fill:none;stroke:none;" />
  <text dominant-baseline="hanging" text-anchor="start" transform="translate(70.012,45.0795)" font-family="Segoe UI" font-size="12" font-weight="400" fill="black">Aktive Fälle Stadt Aachen 19.02.2021</text>
  <polyline points="50.012,50.106 66.012,50.106" style="fill:none;stroke:rgb(31,119,180);stroke-width:2" />
</svg>