<?xml version="1.0" encoding="utf-8" standalone="no"?>
<!DOCTYPE svg PUBLIC "-//W3C//DTD SVG 1.1//EN" "http://www.w3.org/Graphics/SVG/1.1/DTD/svg11.dtd">
<svg width="600" height="400" version="1.1" xmlns:xlink="http://www.w3.org/1999/xlink" xmlns="http://www.w3.org/2000/svg">
  <rect x="0" y="0" width="600" height="400" style="fill:rgb(255,255,255);stroke:none;" />
  <polyline points="34.012,365.4977 30.012,365.4977" style="fill:none;stroke:black;stroke-width:1" />
  <polyline points="34.012,351.7346 30.012,351.7346" style="fill:none;stroke:black;stroke-width:1" />
  <polyline points="34.012,337.9715 30.012,337.9715" style="fill:none;stroke:black;stroke-width:1" />
  <polyline points="34.012,324.2084 30.012,324.2084" style="fill:none;stroke:black;stroke-width:1" />
  <polyline points="34.012,296.6822 30.012,296.6822" style="fill:none;stroke:black;stroke-width:1" />
  <polyline points="34.012,282.9191 30.012,282.9191" style="fill:none;stroke:black;stroke-width:1" />
  <polyline points="34.012,269.156 30.012,269.156" style="fill:none;stroke:black;stroke-width:1" />
  <polyline points="34.012,255.393 30.012,255.393" style="fill:none;stroke:black;stroke-width:1" />
  <polyline points="34.012,227.8668 30.012,227.8668" style="fill:none;stroke:black;stroke-width:1" />
  <polyline points="34.012,214.1037 30.012,214.1037" style="fill:none;stroke:black;stroke-width:1" />
  <polyline points="34.012,200.3406 30.012,200.3406" style="fill:none;stroke:black;stroke-width:1" />
  <polyline points="34.012,186.5775 30.012,186.5775" style="fill:none;stroke:black;stroke-width:1" />
  <polyline points="34.012,159.0513 30.012,159.0513" style="fill:none;stroke:black;stroke-width:1" />
  <polyline points="34.012,145.2882 30.012,145.2882" style="fill:none;stroke:black;stroke-width:1" />
  <polyline points="34.012,131.5251 30.012,131.5251" style="fill:none;stroke:black;stroke-width:1" />
  <polyline points="34.012,117.762 30.012,117.762" style="fill:none;stroke:black;stroke-width:1" />
  <polyline points="34.012,90.2358 30.012,90.2358" style="fill:none;stroke:black;stroke-width:1" />
  <polyline points="34.012,76.4727 30.012,76.4727" style="fill:none;stroke:black;stroke-width:1" />
  <polyline points="34.012,62.7096 30.012,62.7096" style="fill:none;stroke:black;stroke-width:1" />
  <polyline points="34.012,48.9465 30.012,48.9465" style="fill:none;stroke:black;stroke-width:1" />
  <text dominant-baseline="middle" text-anchor="end" transform="translate(23.012,310.4453)" font-family="Segoe UI" font-size="12" font-weight="400" fill="black">100</text>
  <text dominant-baseline="middle" text-anchor="end" transform="translate(23.012,241.6299)" font-family="Segoe UI" font-size="12" font-weight="400" fill="black">200</text>
  <text dominant-baseline="middle" text-anchor="end" transform="translate(23.012,172.8144)" font-family="Segoe UI" font-size="12" font-weight="400" fill="black">300</text>
  <text dominant-baseline="middle" text-anchor="end" transform="translate(23.012,103.9989)" font-family="Segoe UI" font-size="12" font-weight="400" fill="black">400</text>
  <text dominant-baseline="middle" text-anchor="end" transform="translate(23.012,35.1834)" font-family="Segoe UI" font-size="12" font-weight="400" fill="black">500</text>
  <polyline points="34.012,310.4453 27.012,310.4453" style="fill:none;stroke:black;stroke-width:1" />
  <polyline points="34.012,241.6299 27.012,241.6299" style="fill:none;stroke:black;stroke-width:1" />
  <polyline points="34.012,172.8144 27.012,172.8144" style="fill:none;stroke:black;stroke-width:1" />
  <polyline points="34.012,103.9989 27.012,103.9989" style="fill:none;stroke:black;stroke-width:1" />
  <polyline points="34.012,35.1834 27.012,35.1834" style="fill:none;stroke:black;stroke-width:1" />
  <text dominant-baseline="hanging" text-anchor="middle" transform="translate(54.4262,381.947)" font-family="Segoe UI" font-size="12" font-weight="400" fill="black">15. August</text>
  <text dominant-baseline="hanging" text-anchor="middle" transform="translate(149.6924,381.947)" font-family="Segoe UI" font-size="12" font-weight="400" fill="black">29. August</text>
  <text dominant-baseline="hanging" text-anchor="middle" transform="translate(244.9587,381.947)" font-family="Segoe UI" font-size="12" font-weight="400" fill="black">12. September</text>
  <text dominant-baseline="hanging" text-anchor="middle" transform="translate(340.2249,381.947)" font-family="Segoe UI" font-size="12" font-weight="400" fill="black">26. September</text>
  <text dominant-baseline="hanging" text-anchor="middle" transform="translate(435.4912,381.947)" font-family="Segoe UI" font-size="12" font-weight="400" fill="black">10. October</text>
  <text dominant-baseline="hanging" text-anchor="middle" transform="translate(530.7574,381.947)" font-family="Segoe UI" font-size="12" font-weight="400" fill="black">24. October</text>
  <polyline points="54.4262,370.947 54.4262,377.947" style="fill:none;stroke:black;stroke-width:1" />
  <polyline points="149.6924,370.947 149.6924,377.947" style="fill:none;stroke:black;stroke-width:1" />
  <polyline points="244.9587,370.947 244.9587,377.947" style="fill:none;stroke:black;stroke-width:1" />
  <polyline points="340.2249,370.947 340.2249,377.947" style="fill:none;stroke:black;stroke-width:1" />
  <polyline points="435.4912,370.947 435.4912,377.947" style="fill:none;stroke:black;stroke-width:1" />
  <polyline points="530.7574,370.947 530.7574,377.947" style="fill:none;stroke:black;stroke-width:1" />
  <polyline points="34.012,358.6162 47.6215,352.4228 68.0357,356.5517 74.8404,352.4228 81.6451,355.1754 88.4499,351.7346 95.2546,352.4228 115.6688,353.1109 122.4735,358.6162 129.2782,359.3043 136.083,357.928 142.8877,357.928 163.3019,362.7451 170.1066,364.8096 176.9114,364.8096 183.7161,363.4332 190.5208,364.1214 210.935,364.1214 217.7398,367.5622 224.5445,365.4977 231.3492,361.3688 238.154,358.6162 258.5681,351.7346 265.3729,346.9175 272.1776,340.036 278.9823,339.3478 285.7871,337.2834 306.2013,343.4768 313.006,344.8531 319.8107,344.1649 326.6155,341.4123 333.4202,337.9715 353.8344,321.4558 360.6391,323.5203 367.4439,324.2084 374.2486,313.8861 381.0533,304.2519 401.4675,293.2415 408.2722,302.8756 415.077,293.9296 421.8817,284.2954 428.6864,281.5428 449.1006,260.8982 455.9054,276.7257 462.7101,268.4679 469.5148,249.8877 476.3196,223.0497 496.7338,188.6419 503.5385,190.7064 510.3432,186.5775 517.148,154.9224 523.9527,148.729 544.3669,55.8281 551.1716,81.2898 557.9763,81.2898 564.7811,73.7201 571.5858,32.4308 592,45.5058" style="fill:none;stroke:rgb(31,119,180);stroke-width:2;stroke-linejoin:bevel" />
  <text dominant-baseline="hanging" text-anchor="middle" transform="translate(313.006,8)" font-family="Segoe UI" font-size="18" font-weight="700" fill="black">Aktive Fälle Stadt Aachen 02.11.2020</text>
  <polygon points="34.012,29.0795 592,29.0795 592,370.947 34.012,370.947" style="fill:none;stroke:black;stroke-width:1" />
  <polygon points="42.012,37.0795 228.483,37.0795 228.483,63.1325 42.012,63.1325" style="fill:none;stroke:none;" />
  <text dominant-baseline="hanging" text-anchor="start" transform="translate(70.012,45.0795)" font-family="Segoe UI" font-size="12" font-weight="400" fill="black">Aktive Fälle Stadt Aachen 02.11.2020</text>
  <polyline points="50.012,50.106 66.012,50.106" style="fill:none;stroke:rgb(31,119,180);stroke-width:2" />
</svg>