<?xml version="1.0" encoding="utf-8" standalone="no"?>
<!DOCTYPE svg PUBLIC "-//W3C//DTD SVG 1.1//EN" "http://www.w3.org/Graphics/SVG/1.1/DTD/svg11.dtd">
<svg width="600" height="400" version="1.1" xmlns:xlink="http://www.w3.org/1999/xlink" xmlns="http://www.w3.org/2000/svg">
  <rect x="0" y="0" width="600" height="400" style="fill:rgb(255,255,255);stroke:none;" />
  <polyline points="39.016,357.0495 35.016,357.0495" style="fill:none;stroke:black;stroke-width:1" />
  <polyline points="39.016,341.1212 35.016,341.1212" style="fill:none;stroke:black;stroke-width:1" />
  <polyline points="39.016,325.1929 35.016,325.1929" style="fill:none;stroke:black;stroke-width:1" />
  <polyline points="39.016,293.3363 35.016,293.3363" style="fill:none;stroke:black;stroke-width:1" />
  <polyline points="39.016,277.408 35.016,277.408" style="fill:none;stroke:black;stroke-width:1" />
  <polyline points="39.016,261.4797 35.016,261.4797" style="fill:none;stroke:black;stroke-width:1" />
  <polyline points="39.016,229.6231 35.016,229.6231" style="fill:none;stroke:black;stroke-width:1" />
  <polyline points="39.016,213.6948 35.016,213.6948" style="fill:none;stroke:black;stroke-width:1" />
  <polyline points="39.016,197.7665 35.016,197.7665" style="fill:none;stroke:black;stroke-width:1" />
  <polyline points="39.016,165.9099 35.016,165.9099" style="fill:none;stroke:black;stroke-width:1" />
  <polyline points="39.016,149.9816 35.016,149.9816" style="fill:none;stroke:black;stroke-width:1" />
  <polyline points="39.016,134.0533 35.016,134.0533" style="fill:none;stroke:black;stroke-width:1" />
  <polyline points="39.016,102.1968 35.016,102.1968" style="fill:none;stroke:black;stroke-width:1" />
  <polyline points="39.016,86.2685 35.016,86.2685" style="fill:none;stroke:black;stroke-width:1" />
  <polyline points="39.016,70.3402 35.016,70.3402" style="fill:none;stroke:black;stroke-width:1" />
  <polyline points="39.016,38.4836 35.016,38.4836" style="fill:none;stroke:black;stroke-width:1" />
  <polyline points="72.8377,370.947 72.8377,374.947" style="fill:none;stroke:black;stroke-width:1" />
  <polyline points="175.9937,370.947 175.9937,374.947" style="fill:none;stroke:black;stroke-width:1" />
  <polyline points="279.1497,370.947 279.1497,374.947" style="fill:none;stroke:black;stroke-width:1" />
  <polyline points="378.9236,370.947 378.9236,374.947" style="fill:none;stroke:black;stroke-width:1" />
  <polyline points="482.0796,370.947 482.0796,374.947" style="fill:none;stroke:black;stroke-width:1" />
  <polyline points="585.2357,370.947 585.2357,374.947" style="fill:none;stroke:black;stroke-width:1" />
  <text dominant-baseline="middle" text-anchor="end" transform="translate(28.016,309.2646)" font-family="Segoe UI" font-size="12" font-weight="400" fill="black">200</text>
  <text dominant-baseline="middle" text-anchor="end" transform="translate(28.016,245.5514)" font-family="Segoe UI" font-size="12" font-weight="400" fill="black">400</text>
  <text dominant-baseline="middle" text-anchor="end" transform="translate(28.016,181.8382)" font-family="Segoe UI" font-size="12" font-weight="400" fill="black">600</text>
  <text dominant-baseline="middle" text-anchor="end" transform="translate(28.016,118.125)" font-family="Segoe UI" font-size="12" font-weight="400" fill="black">800</text>
  <text dominant-baseline="middle" text-anchor="end" transform="translate(28.016,54.4119)" font-family="Segoe UI" font-size="12" font-weight="400" fill="black">1000</text>
  <polyline points="39.016,309.2646 32.016,309.2646" style="fill:none;stroke:black;stroke-width:1" />
  <polyline points="39.016,245.5514 32.016,245.5514" style="fill:none;stroke:black;stroke-width:1" />
  <polyline points="39.016,181.8382 32.016,181.8382" style="fill:none;stroke:black;stroke-width:1" />
  <polyline points="39.016,118.125 32.016,118.125" style="fill:none;stroke:black;stroke-width:1" />
  <polyline points="39.016,54.4119 32.016,54.4119" style="fill:none;stroke:black;stroke-width:1" />
  <text dominant-baseline="hanging" text-anchor="middle" transform="translate(123.5701,381.947)" font-family="Segoe UI" font-size="12" font-weight="400" fill="black">01. October</text>
  <text dominant-baseline="hanging" text-anchor="middle" transform="translate(226.7262,381.947)" font-family="Segoe UI" font-size="12" font-weight="400" fill="black">01. December</text>
  <text dominant-baseline="hanging" text-anchor="middle" transform="translate(331.5733,381.947)" font-family="Segoe UI" font-size="12" font-weight="400" fill="black">01. February</text>
  <text dominant-baseline="hanging" text-anchor="middle" transform="translate(431.3472,381.947)" font-family="Segoe UI" font-size="12" font-weight="400" fill="black">01. April</text>
  <text dominant-baseline="hanging" text-anchor="middle" transform="translate(534.5032,381.947)" font-family="Segoe UI" font-size="12" font-weight="400" fill="black">01. June</text>
  <polyline points="123.5701,370.947 123.5701,377.947" style="fill:none;stroke:black;stroke-width:1" />
  <polyline points="226.7262,370.947 226.7262,377.947" style="fill:none;stroke:black;stroke-width:1" />
  <polyline points="331.5733,370.947 331.5733,377.947" style="fill:none;stroke:black;stroke-width:1" />
  <polyline points="431.3472,370.947 431.3472,377.947" style="fill:none;stroke:black;stroke-width:1" />
  <polyline points="534.5032,370.947 534.5032,377.947" style="fill:none;stroke:black;stroke-width:1" />
  <polyline points="39.016,363.4208 42.3982,360.5537 47.4714,362.4651 49.1625,360.5537 50.8536,361.828 52.5447,360.2352 54.2357,360.5537 59.309,360.8723 61.0001,363.4208 62.6912,363.7394 64.3822,363.1023 66.0733,363.1023 71.1466,365.3322 72.8377,366.2879 74.5287,366.2879 76.2198,365.6508 77.9109,365.9693 82.9841,365.9693 84.6752,367.5622 86.3663,366.6065 88.0574,364.6951 89.7485,363.4208 94.8217,360.2352 96.5128,358.0052 98.2039,354.8195 99.895,354.501 101.5861,353.5453 106.6593,356.4124 108.3504,357.0495 110.0415,356.7309 111.7326,355.4567 113.4236,353.8638 118.4969,346.2183 120.188,347.174 121.879,347.4925 123.5701,342.714 125.2612,338.2541 130.3345,333.1571 132.0255,337.617 133.7166,333.4756 135.4077,329.0157 137.0988,327.7414 142.172,318.1845 143.8631,325.5115 145.5542,321.6887 147.2453,313.0874 148.9364,300.6633 154.0096,284.735 155.7007,285.6907 157.3918,283.7793 159.0829,269.1253 160.7739,266.2582 165.8472,223.2518 167.5383,235.0387 169.2294,235.0387 170.9204,231.5345 172.6115,212.4206 177.6848,218.4733 179.3759,250.3299 181.0669,243.3215 182.758,234.083 184.4491,230.2603 189.5223,208.9163 191.2134,221.9775 192.9045,212.7391 196.2867,194.8994 201.3599,191.0766 203.051,208.9163 204.7421,213.6948 206.4332,193.6252 208.1243,209.2349 213.1975,223.8889 214.8886,235.6759 216.5797,231.5345 218.2708,241.4101 219.9618,226.4375 225.0351,207.6421 226.7262,218.1548 228.4172,234.4016 230.1083,228.6674 231.7994,236.9501 236.8727,197.1294 238.5637,214.0134 240.2548,223.2518 241.9459,207.3235 243.637,197.1294 248.7102,165.2728 250.4013,185.3425 252.0924,192.988 253.7835,182.1568 255.4746,164.9542 260.5478,140.4247 262.2389,159.2201 263.93,175.1484 272.3854,139.469 274.0765,156.6715 275.7676,169.4142 277.4586,156.0344 284.223,156.353 285.9141,173.5555 287.6051,197.7665 289.2962,203.1822 290.9873,184.7053 297.7516,220.0661 299.4427,236.313 301.1338,229.3046 302.8249,247.1443 307.8981,257.6569 309.5892,276.1338 311.2803,280.9122 312.9714,279.638 314.6625,276.7709 319.7357,276.4523 323.1179,283.7793 324.809,270.3996 326.5,261.7983 331.5733,263.0725 333.2644,277.7266 334.9554,290.4692 336.6465,284.4165 338.3376,284.4165 343.4109,295.8848 345.1019,304.1676 346.793,299.3891 348.4841,289.8321 350.1752,280.2751 355.2484,287.2836 356.9395,310.8574 358.6306,309.5832 360.3217,302.8933 362.0128,317.2288 367.086,323.2815 368.7771,329.0157 370.4682,325.1929 372.1593,323.9186 373.8503,325.5115 378.9236,327.1043 380.6147,335.0684 382.3058,329.6528 383.9968,312.4503 385.6879,311.4946 390.7612,298.4334 392.4523,298.4334 394.1433,293.3363 395.8344,285.3722 397.5255,275.4966 402.5988,268.8067 404.2898,269.7624 405.9809,270.3996 407.672,250.3299 409.3631,236.6316 414.4363,219.7476 416.1274,220.0661 417.8185,221.3404 419.5096,199.3594 421.2007,195.218 426.2739,192.3509 427.965,214.9691 429.6561,219.429 431.3472,211.7834 433.0382,188.5281 439.8026,174.1927 441.4937,176.7412 443.1847,153.4859 444.8758,148.3888 449.9491,142.6546 451.6401,144.2475 453.3312,126.7263 455.0223,113.6651 456.7134,116.2137 461.7866,99.9668 463.4777,95.1883 465.1688,72.8887 466.8599,44.5363 468.551,32.4308 473.6242,42.3064 475.3153,49.3148 477.0064,66.1988 478.6975,77.6672 480.3886,71.2959 485.4618,109.8423 487.1529,105.701 488.844,125.7706 490.535,134.6905 492.2261,148.3888 497.2994,149.0259 498.9905,175.7855 500.6815,170.6884 504.0637,185.3425 509.137,171.9627 510.828,185.661 512.5191,186.2982 514.2102,180.564 515.9013,185.0239 522.6656,213.3763 524.3567,232.8088 526.0478,239.8172 527.7389,234.7202 532.8121,261.4797 534.5032,282.1865 536.1943,289.195 539.5764,301.9376 544.6497,310.5389 546.3408,317.8659 548.0319,328.6971 549.7229,332.5199 551.414,337.2984 556.4873,338.5727 558.1783,337.617 559.8694,348.7668 561.5605,348.1297 563.2516,349.7225 568.3248,350.6782 570.0159,351.9524 571.707,352.5896 573.3981,352.9081 575.0892,352.9081 580.1624,354.1824 581.8535,356.0938 583.5446,355.7752 585.2357,353.5453 586.9268,354.8195 592,356.0938" style="fill:none;stroke:rgb(31,119,180);stroke-width:2;stroke-linejoin:bevel" />
  <text dominant-baseline="hanging" text-anchor="middle" transform="translate(315.508,8)" font-family="Segoe UI" font-size="18" font-weight="700" fill="black">Aktive Fälle Stadt Aachen 05.07.2021</text>
  <polygon points="39.016,29.0795 592,29.0795 592,370.947 39.016,370.947" style="fill:none;stroke:black;stroke-width:1" />
  <polygon points="47.016,37.0795 233.487,37.0795 233.487,63.1325 47.016,63.1325" style="fill:none;stroke:none;" />
  <text dominant-baseline="hanging" text-anchor="start" transform="translate(75.016,45.0795)" font-family="Segoe UI" font-size="12" font-weight="400" fill="black">Aktive Fälle Stadt Aachen 05.07.2021</text>
  <polyline points="55.016,50.106 71.016,50.106" style="fill:none;stroke:rgb(31,119,180);stroke-width:2" />
</svg>