<?xml version="1.0" encoding="utf-8" standalone="no"?>
<!DOCTYPE svg PUBLIC "-//W3C//DTD SVG 1.1//EN" "http://www.w3.org/Graphics/SVG/1.1/DTD/svg11.dtd">
<svg width="600" height="400" version="1.1" xmlns:xlink="http://www.w3.org/1999/xlink" xmlns="http://www.w3.org/2000/svg">
  <rect x="0" y="0" width="600" height="400" style="fill:rgb(255,255,255);stroke:none;" />
  <polyline points="39.016,357.0495 35.016,357.0495" style="fill:none;stroke:black;stroke-width:1" />
  <polyline points="39.016,341.1212 35.016,341.1212" style="fill:none;stroke:black;stroke-width:1" />
  <polyline points="39.016,325.1929 35.016,325.1929" style="fill:none;stroke:black;stroke-width:1" />
  <polyline points="39.016,293.3363 35.016,293.3363" style="fill:none;stroke:black;stroke-width:1" />
  <polyline points="39.016,277.408 35.016,277.408" style="fill:none;stroke:black;stroke-width:1" />
  <polyline points="39.016,261.4797 35.016,261.4797" style="fill:none;stroke:black;stroke-width:1" />
  <polyline points="39.016,229.6231 35.016,229.6231" style="fill:none;stroke:black;stroke-width:1" />
  <polyline points="39.016,213.6948 35.016,213.6948" style="fill:none;stroke:black;stroke-width:1" />
  <polyline points="39.016,197.7665 35.016,197.7665" style="fill:none;stroke:black;stroke-width:1" />
  <polyline points="39.016,165.9099 35.016,165.9099" style="fill:none;stroke:black;stroke-width:1" />
  <polyline points="39.016,149.9816 35.016,149.9816" style="fill:none;stroke:black;stroke-width:1" />
  <polyline points="39.016,134.0533 35.016,134.0533" style="fill:none;stroke:black;stroke-width:1" />
  <polyline points="39.016,102.1968 35.016,102.1968" style="fill:none;stroke:black;stroke-width:1" />
  <polyline points="39.016,86.2685 35.016,86.2685" style="fill:none;stroke:black;stroke-width:1" />
  <polyline points="39.016,70.3402 35.016,70.3402" style="fill:none;stroke:black;stroke-width:1" />
  <polyline points="39.016,38.4836 35.016,38.4836" style="fill:none;stroke:black;stroke-width:1" />
  <polyline points="72.4289,370.947 72.4289,374.947" style="fill:none;stroke:black;stroke-width:1" />
  <polyline points="174.3384,370.947 174.3384,374.947" style="fill:none;stroke:black;stroke-width:1" />
  <polyline points="276.2478,370.947 276.2478,374.947" style="fill:none;stroke:black;stroke-width:1" />
  <polyline points="374.816,370.947 374.816,374.947" style="fill:none;stroke:black;stroke-width:1" />
  <polyline points="476.7254,370.947 476.7254,374.947" style="fill:none;stroke:black;stroke-width:1" />
  <polyline points="578.6348,370.947 578.6348,374.947" style="fill:none;stroke:black;stroke-width:1" />
  <text dominant-baseline="middle" text-anchor="end" transform="translate(28.016,309.2646)" font-family="Segoe UI" font-size="12" font-weight="400" fill="black">200</text>
  <text dominant-baseline="middle" text-anchor="end" transform="translate(28.016,245.5514)" font-family="Segoe UI" font-size="12" font-weight="400" fill="black">400</text>
  <text dominant-baseline="middle" text-anchor="end" transform="translate(28.016,181.8382)" font-family="Segoe UI" font-size="12" font-weight="400" fill="black">600</text>
  <text dominant-baseline="middle" text-anchor="end" transform="translate(28.016,118.125)" font-family="Segoe UI" font-size="12" font-weight="400" fill="black">800</text>
  <text dominant-baseline="middle" text-anchor="end" transform="translate(28.016,54.4119)" font-family="Segoe UI" font-size="12" font-weight="400" fill="black">1000</text>
  <polyline points="39.016,309.2646 32.016,309.2646" style="fill:none;stroke:black;stroke-width:1" />
  <polyline points="39.016,245.5514 32.016,245.5514" style="fill:none;stroke:black;stroke-width:1" />
  <polyline points="39.016,181.8382 32.016,181.8382" style="fill:none;stroke:black;stroke-width:1" />
  <polyline points="39.016,118.125 32.016,118.125" style="fill:none;stroke:black;stroke-width:1" />
  <polyline points="39.016,54.4119 32.016,54.4119" style="fill:none;stroke:black;stroke-width:1" />
  <text dominant-baseline="hanging" text-anchor="middle" transform="translate(122.5483,381.947)" font-family="Segoe UI" font-size="12" font-weight="400" fill="black">01. October</text>
  <text dominant-baseline="hanging" text-anchor="middle" transform="translate(224.4578,381.947)" font-family="Segoe UI" font-size="12" font-weight="400" fill="black">01. December</text>
  <text dominant-baseline="hanging" text-anchor="middle" transform="translate(328.0378,381.947)" font-family="Segoe UI" font-size="12" font-weight="400" fill="black">01. February</text>
  <text dominant-baseline="hanging" text-anchor="middle" transform="translate(426.606,381.947)" font-family="Segoe UI" font-size="12" font-weight="400" fill="black">01. April</text>
  <text dominant-baseline="hanging" text-anchor="middle" transform="translate(528.5154,381.947)" font-family="Segoe UI" font-size="12" font-weight="400" fill="black">01. June</text>
  <polyline points="122.5483,370.947 122.5483,377.947" style="fill:none;stroke:black;stroke-width:1" />
  <polyline points="224.4578,370.947 224.4578,377.947" style="fill:none;stroke:black;stroke-width:1" />
  <polyline points="328.0378,370.947 328.0378,377.947" style="fill:none;stroke:black;stroke-width:1" />
  <polyline points="426.606,370.947 426.606,377.947" style="fill:none;stroke:black;stroke-width:1" />
  <polyline points="528.5154,370.947 528.5154,377.947" style="fill:none;stroke:black;stroke-width:1" />
  <polyline points="39.016,363.4208 42.3573,360.5537 47.3692,362.4651 49.0399,360.5537 50.7105,361.828 52.3812,360.2352 54.0518,360.5537 59.0638,360.8723 60.7344,363.4208 62.4051,363.7394 64.0757,363.1023 65.7463,363.1023 70.7583,365.3322 72.4289,366.2879 74.0996,366.2879 75.7702,365.6508 77.4409,365.9693 82.4528,365.9693 84.1235,367.5622 85.7941,366.6065 87.4647,364.6951 89.1354,363.4208 94.1473,360.2352 95.818,358.0052 97.4886,354.8195 99.1593,354.501 100.8299,353.5453 105.8419,356.4124 107.5125,357.0495 109.1832,356.7309 110.8538,355.4567 112.5244,353.8638 117.5364,346.2183 119.207,347.174 120.8777,347.4925 122.5483,342.714 124.219,338.2541 129.2309,333.1571 130.9016,337.617 132.5722,333.4756 134.2429,329.0157 135.9135,327.7414 140.9254,318.1845 142.5961,325.5115 144.2667,321.6887 145.9374,313.0874 147.608,300.6633 152.62,284.735 154.2906,285.6907 155.9613,283.7793 157.6319,269.1253 159.3025,266.2582 164.3145,223.2518 165.9851,235.0387 167.6558,235.0387 169.3264,231.5345 170.9971,212.4206 176.009,218.4733 177.6797,250.3299 179.3503,243.3215 181.021,234.083 182.6916,230.2603 187.7035,208.9163 189.3742,221.9775 191.0448,212.7391 194.3861,194.8994 199.3981,191.0766 201.0687,208.9163 202.7394,213.6948 204.41,193.6252 206.0807,209.2349 211.0926,223.8889 212.7632,235.6759 214.4339,231.5345 216.1045,241.4101 217.7752,226.4375 222.7871,207.6421 224.4578,218.1548 226.1284,234.4016 227.7991,228.6674 229.4697,236.9501 234.4816,197.1294 236.1523,214.0134 237.8229,223.2518 239.4936,207.3235 241.1642,197.1294 246.1762,165.2728 247.8468,185.3425 249.5175,192.988 251.1881,182.1568 252.8588,164.9542 257.8707,140.4247 259.5413,159.2201 261.212,175.1484 269.5652,139.469 271.2359,156.6715 272.9065,169.4142 274.5772,156.0344 281.2597,156.353 282.9304,173.5555 284.601,197.7665 286.2717,203.1822 287.9423,184.7053 294.6249,220.0661 296.2956,236.313 297.9662,229.3046 299.6369,247.1443 304.6488,257.6569 306.3194,276.1338 307.9901,280.9122 309.6607,279.638 311.3314,276.7709 316.3433,276.4523 319.6846,283.7793 321.3553,270.3996 323.0259,261.7983 328.0378,263.0725 329.7085,277.7266 331.3791,290.4692 333.0498,284.4165 334.7204,284.4165 339.7324,295.8848 341.403,304.1676 343.0737,299.3891 344.7443,289.8321 346.415,280.2751 351.4269,287.2836 353.0975,310.8574 354.7682,309.5832 356.4388,302.8933 358.1095,317.2288 363.1214,323.2815 364.7921,329.0157 366.4627,325.1929 368.1334,323.9186 369.804,325.5115 374.816,327.1043 376.4866,335.0684 378.1572,329.6528 379.8279,312.4503 381.4985,311.4946 386.5105,298.4334 388.1811,298.4334 389.8518,293.3363 391.5224,285.3722 393.1931,275.4966 398.205,268.8067 399.8756,269.7624 401.5463,270.3996 403.2169,250.3299 404.8876,236.6316 409.8995,219.7476 411.5702,220.0661 413.2408,221.3404 414.9115,199.3594 416.5821,195.218 421.5941,192.3509 423.2647,214.9691 424.9353,219.429 426.606,211.7834 428.2766,188.5281 434.9592,174.1927 436.6299,176.7412 438.3005,153.4859 439.9712,148.3888 444.9831,142.6546 446.6538,144.2475 448.3244,126.7263 449.995,113.6651 451.6657,116.2137 456.6776,99.9668 458.3483,95.1883 460.0189,72.8887 461.6896,44.5363 463.3602,32.4308 468.3722,42.3064 470.0428,49.3148 471.7135,66.1988 473.3841,77.6672 475.0547,71.2959 480.0667,109.8423 481.7373,105.701 483.408,125.7706 485.0786,134.6905 486.7493,148.3888 491.7612,149.0259 493.4319,175.7855 495.1025,170.6884 498.4438,185.3425 503.4557,171.9627 505.1264,185.661 506.797,186.2982 508.4677,180.564 510.1383,185.0239 516.8209,213.3763 518.4916,232.8088 520.1622,239.8172 521.8328,234.7202 526.8448,261.4797 528.5154,282.1865 530.1861,289.195 533.5274,301.9376 538.5393,310.5389 540.21,317.8659 541.8806,328.6971 543.5513,332.5199 545.2219,337.2984 550.2338,338.5727 551.9045,337.617 553.5751,348.7668 555.2458,348.1297 556.9164,349.7225 561.9284,350.6782 563.599,351.9524 565.2697,352.5896 566.9403,352.9081 568.6109,352.9081 573.6229,354.1824 575.2935,356.0938 576.9642,355.7752 578.6348,353.5453 580.3055,354.8195 585.3174,356.0938 588.6587,355.7752 592,356.4124" style="fill:none;stroke:rgb(31,119,180);stroke-width:2;stroke-linejoin:bevel" />
  <text dominant-baseline="hanging" text-anchor="middle" transform="translate(315.508,8)" font-family="Segoe UI" font-size="18" font-weight="700" fill="black">Aktive Fälle Stadt Aachen 09.07.2021</text>
  <polygon points="39.016,29.0795 592,29.0795 592,370.947 39.016,370.947" style="fill:none;stroke:black;stroke-width:1" />
  <polygon points="47.016,37.0795 233.487,37.0795 233.487,63.1325 47.016,63.1325" style="fill:none;stroke:none;" />
  <text dominant-baseline="hanging" text-anchor="start" transform="translate(75.016,45.0795)" font-family="Segoe UI" font-size="12" font-weight="400" fill="black">Aktive Fälle Stadt Aachen 09.07.2021</text>
  <polyline points="55.016,50.106 71.016,50.106" style="fill:none;stroke:rgb(31,119,180);stroke-width:2" />
</svg>