<?xml version="1.0" encoding="utf-8" standalone="no"?>
<!DOCTYPE svg PUBLIC "-//W3C//DTD SVG 1.1//EN" "http://www.w3.org/Graphics/SVG/1.1/DTD/svg11.dtd">
<svg width="600" height="400" version="1.1" xmlns:xlink="http://www.w3.org/1999/xlink" xmlns="http://www.w3.org/2000/svg">
  <rect x="0" y="0" width="600" height="400" style="fill:rgb(255,255,255);stroke:none;" />
  <polyline points="39.016,357.0495 35.016,357.0495" style="fill:none;stroke:black;stroke-width:1" />
  <polyline points="39.016,341.1212 35.016,341.1212" style="fill:none;stroke:black;stroke-width:1" />
  <polyline points="39.016,325.1929 35.016,325.1929" style="fill:none;stroke:black;stroke-width:1" />
  <polyline points="39.016,293.3363 35.016,293.3363" style="fill:none;stroke:black;stroke-width:1" />
  <polyline points="39.016,277.408 35.016,277.408" style="fill:none;stroke:black;stroke-width:1" />
  <polyline points="39.016,261.4797 35.016,261.4797" style="fill:none;stroke:black;stroke-width:1" />
  <polyline points="39.016,229.6231 35.016,229.6231" style="fill:none;stroke:black;stroke-width:1" />
  <polyline points="39.016,213.6948 35.016,213.6948" style="fill:none;stroke:black;stroke-width:1" />
  <polyline points="39.016,197.7665 35.016,197.7665" style="fill:none;stroke:black;stroke-width:1" />
  <polyline points="39.016,165.9099 35.016,165.9099" style="fill:none;stroke:black;stroke-width:1" />
  <polyline points="39.016,149.9816 35.016,149.9816" style="fill:none;stroke:black;stroke-width:1" />
  <polyline points="39.016,134.0533 35.016,134.0533" style="fill:none;stroke:black;stroke-width:1" />
  <polyline points="39.016,102.1968 35.016,102.1968" style="fill:none;stroke:black;stroke-width:1" />
  <polyline points="39.016,86.2685 35.016,86.2685" style="fill:none;stroke:black;stroke-width:1" />
  <polyline points="39.016,70.3402 35.016,70.3402" style="fill:none;stroke:black;stroke-width:1" />
  <polyline points="39.016,38.4836 35.016,38.4836" style="fill:none;stroke:black;stroke-width:1" />
  <polyline points="73.3628,370.947 73.3628,374.947" style="fill:none;stroke:black;stroke-width:1" />
  <polyline points="178.1207,370.947 178.1207,374.947" style="fill:none;stroke:black;stroke-width:1" />
  <polyline points="282.8785,370.947 282.8785,374.947" style="fill:none;stroke:black;stroke-width:1" />
  <polyline points="384.2017,370.947 384.2017,374.947" style="fill:none;stroke:black;stroke-width:1" />
  <polyline points="488.9595,370.947 488.9595,374.947" style="fill:none;stroke:black;stroke-width:1" />
  <text dominant-baseline="middle" text-anchor="end" transform="translate(28.016,309.2646)" font-family="Segoe UI" font-size="12" font-weight="400" fill="black">200</text>
  <text dominant-baseline="middle" text-anchor="end" transform="translate(28.016,245.5514)" font-family="Segoe UI" font-size="12" font-weight="400" fill="black">400</text>
  <text dominant-baseline="middle" text-anchor="end" transform="translate(28.016,181.8382)" font-family="Segoe UI" font-size="12" font-weight="400" fill="black">600</text>
  <text dominant-baseline="middle" text-anchor="end" transform="translate(28.016,118.125)" font-family="Segoe UI" font-size="12" font-weight="400" fill="black">800</text>
  <text dominant-baseline="middle" text-anchor="end" transform="translate(28.016,54.4119)" font-family="Segoe UI" font-size="12" font-weight="400" fill="black">1000</text>
  <polyline points="39.016,309.2646 32.016,309.2646" style="fill:none;stroke:black;stroke-width:1" />
  <polyline points="39.016,245.5514 32.016,245.5514" style="fill:none;stroke:black;stroke-width:1" />
  <polyline points="39.016,181.8382 32.016,181.8382" style="fill:none;stroke:black;stroke-width:1" />
  <polyline points="39.016,118.125 32.016,118.125" style="fill:none;stroke:black;stroke-width:1" />
  <polyline points="39.016,54.4119 32.016,54.4119" style="fill:none;stroke:black;stroke-width:1" />
  <text dominant-baseline="hanging" text-anchor="middle" transform="translate(124.8831,381.947)" font-family="Segoe UI" font-size="12" font-weight="400" fill="black">01. October</text>
  <text dominant-baseline="hanging" text-anchor="middle" transform="translate(229.6409,381.947)" font-family="Segoe UI" font-size="12" font-weight="400" fill="black">01. December</text>
  <text dominant-baseline="hanging" text-anchor="middle" transform="translate(336.1161,381.947)" font-family="Segoe UI" font-size="12" font-weight="400" fill="black">01. February</text>
  <text dominant-baseline="hanging" text-anchor="middle" transform="translate(437.4393,381.947)" font-family="Segoe UI" font-size="12" font-weight="400" fill="black">01. April</text>
  <text dominant-baseline="hanging" text-anchor="middle" transform="translate(542.1971,381.947)" font-family="Segoe UI" font-size="12" font-weight="400" fill="black">01. June</text>
  <polyline points="124.8831,370.947 124.8831,377.947" style="fill:none;stroke:black;stroke-width:1" />
  <polyline points="229.6409,370.947 229.6409,377.947" style="fill:none;stroke:black;stroke-width:1" />
  <polyline points="336.1161,370.947 336.1161,377.947" style="fill:none;stroke:black;stroke-width:1" />
  <polyline points="437.4393,370.947 437.4393,377.947" style="fill:none;stroke:black;stroke-width:1" />
  <polyline points="542.1971,370.947 542.1971,377.947" style="fill:none;stroke:black;stroke-width:1" />
  <polyline points="39.016,363.4208 42.4507,360.5537 47.6027,362.4651 49.32,360.5537 51.0374,361.828 52.7547,360.2352 54.4721,360.5537 59.6241,360.8723 61.3414,363.4208 63.0588,363.7394 64.7761,363.1023 66.4935,363.1023 71.6455,365.3322 73.3628,366.2879 75.0802,366.2879 76.7975,365.6508 78.5149,365.9693 83.6669,365.9693 85.3842,367.5622 87.1016,366.6065 88.8189,364.6951 90.5362,363.4208 95.6883,360.2352 97.4056,358.0052 99.123,354.8195 100.8403,354.501 102.5576,353.5453 107.7097,356.4124 109.427,357.0495 111.1443,356.7309 112.8617,355.4567 114.579,353.8638 119.7311,346.2183 121.4484,347.174 123.1657,347.4925 124.8831,342.714 126.6004,338.2541 131.7524,333.1571 133.4698,337.617 135.1871,333.4756 136.9045,329.0157 138.6218,327.7414 143.7738,318.1845 145.4912,325.5115 147.2085,321.6887 148.9259,313.0874 150.6432,300.6633 155.7952,284.735 157.5126,285.6907 159.2299,283.7793 160.9473,269.1253 162.6646,266.2582 167.8166,223.2518 169.534,235.0387 171.2513,235.0387 172.9686,231.5345 174.686,212.4206 179.838,218.4733 181.5554,250.3299 183.2727,243.3215 184.99,234.083 186.7074,230.2603 191.8594,208.9163 193.5767,221.9775 195.2941,212.7391 198.7288,194.8994 203.8808,191.0766 205.5981,208.9163 207.3155,213.6948 209.0328,193.6252 210.7502,209.2349 215.9022,223.8889 217.6195,235.6759 219.3369,231.5345 221.0542,241.4101 222.7716,226.4375 227.9236,207.6421 229.6409,218.1548 231.3583,234.4016 233.0756,228.6674 234.7929,236.9501 239.945,197.1294 241.6623,214.0134 243.3797,223.2518 245.097,207.3235 246.8143,197.1294 251.9664,165.2728 253.6837,185.3425 255.401,192.988 257.1184,182.1568 258.8357,164.9542 263.9878,140.4247 265.7051,159.2201 267.4224,175.1484 276.0091,139.469 277.7265,156.6715 279.4438,169.4142 281.1612,156.0344 288.0305,156.353 289.7479,173.5555 291.4652,197.7665 293.1826,203.1822 294.8999,184.7053 301.7693,220.0661 303.4866,236.313 305.204,229.3046 306.9213,247.1443 312.0733,257.6569 313.7907,276.1338 315.508,280.9122 317.2253,279.638 318.9427,276.7709 324.0947,276.4523 327.5294,283.7793 329.2467,270.3996 330.9641,261.7983 336.1161,263.0725 337.8334,277.7266 339.5508,290.4692 341.2681,284.4165 342.9855,284.4165 348.1375,295.8848 349.8548,304.1676 351.5722,299.3891 353.2895,289.8321 355.0069,280.2751 360.1589,287.2836 361.8762,310.8574 363.5936,309.5832 365.3109,302.8933 367.0282,317.2288 372.1803,323.2815 373.8976,329.0157 375.615,325.1929 377.3323,323.9186 379.0496,325.5115 384.2017,327.1043 385.919,335.0684 387.6363,329.6528 389.3537,312.4503 391.071,311.4946 396.2231,298.4334 397.9404,298.4334 399.6577,293.3363 401.3751,285.3722 403.0924,275.4966 408.2444,268.8067 409.9618,269.7624 411.6791,270.3996 413.3965,250.3299 415.1138,236.6316 420.2658,219.7476 421.9832,220.0661 423.7005,221.3404 425.4179,199.3594 427.1352,195.218 432.2872,192.3509 434.0046,214.9691 435.7219,219.429 437.4393,211.7834 439.1566,188.5281 446.026,174.1927 447.7433,176.7412 449.4606,153.4859 451.178,148.3888 456.33,142.6546 458.0474,144.2475 459.7647,126.7263 461.482,113.6651 463.1994,116.2137 468.3514,99.9668 470.0687,95.1883 471.7861,72.8887 473.5034,44.5363 475.2208,32.4308 480.3728,42.3064 482.0901,49.3148 483.8075,66.1988 485.5248,77.6672 487.2422,71.2959 492.3942,109.8423 494.1115,105.701 495.8289,125.7706 497.5462,134.6905 499.2636,148.3888 504.4156,149.0259 506.1329,175.7855 507.8503,170.6884 511.2849,185.3425 516.437,171.9627 518.1543,185.661 519.8717,186.2982 521.589,180.564 523.3063,185.0239 530.1757,213.3763 531.893,232.8088 533.6104,239.8172 535.3277,234.7202 540.4798,261.4797 542.1971,282.1865 543.9144,289.195 547.3491,301.9376 552.5011,310.5389 554.2185,317.8659 555.9358,328.6971 557.6532,332.5199 559.3705,337.2984 564.5225,338.5727 566.2399,337.617 567.9572,348.7668 569.6746,348.1297 571.3919,349.7225 576.5439,350.6782 578.2613,351.9524 579.9786,352.5896 581.696,352.9081 583.4133,352.9081 588.5653,354.1824 590.2827,356.0938 592,355.7752" style="fill:none;stroke:rgb(31,119,180);stroke-width:2;stroke-linejoin:bevel" />
  <text dominant-baseline="hanging" text-anchor="middle" transform="translate(315.508,8)" font-family="Segoe UI" font-size="18" font-weight="700" fill="black">Aktive Fälle Stadt Aachen 30.06.2021</text>
  <polygon points="39.016,29.0795 592,29.0795 592,370.947 39.016,370.947" style="fill:none;stroke:black;stroke-width:1" />
  <polygon points="47.016,37.0795 233.487,37.0795 233.487,63.1325 47.016,63.1325" style="fill:none;stroke:none;" />
  <text dominant-baseline="hanging" text-anchor="start" transform="translate(75.016,45.0795)" font-family="Segoe UI" font-size="12" font-weight="400" fill="black">Aktive Fälle Stadt Aachen 30.06.2021</text>
  <polyline points="55.016,50.106 71.016,50.106" style="fill:none;stroke:rgb(31,119,180);stroke-width:2" />
</svg>