<?xml version="1.0" encoding="utf-8" standalone="no"?>
<!DOCTYPE svg PUBLIC "-//W3C//DTD SVG 1.1//EN" "http://www.w3.org/Graphics/SVG/1.1/DTD/svg11.dtd">
<svg width="600" height="400" version="1.1" xmlns:xlink="http://www.w3.org/1999/xlink" xmlns="http://www.w3.org/2000/svg">
  <rect x="0" y="0" width="600" height="400" style="fill:rgb(255,255,255);stroke:none;" />
  <polyline points="34.012,352.1162 30.012,352.1162" style="fill:none;stroke:black;stroke-width:1" />
  <polyline points="34.012,328.7131 30.012,328.7131" style="fill:none;stroke:black;stroke-width:1" />
  <polyline points="34.012,305.3101 30.012,305.3101" style="fill:none;stroke:black;stroke-width:1" />
  <polyline points="34.012,258.5041 30.012,258.5041" style="fill:none;stroke:black;stroke-width:1" />
  <polyline points="34.012,235.101 30.012,235.101" style="fill:none;stroke:black;stroke-width:1" />
  <polyline points="34.012,211.698 30.012,211.698" style="fill:none;stroke:black;stroke-width:1" />
  <polyline points="34.012,164.892 30.012,164.892" style="fill:none;stroke:black;stroke-width:1" />
  <polyline points="34.012,141.4889 30.012,141.4889" style="fill:none;stroke:black;stroke-width:1" />
  <polyline points="34.012,118.0859 30.012,118.0859" style="fill:none;stroke:black;stroke-width:1" />
  <polyline points="34.012,71.2798 30.012,71.2798" style="fill:none;stroke:black;stroke-width:1" />
  <polyline points="34.012,47.8768 30.012,47.8768" style="fill:none;stroke:black;stroke-width:1" />
  <text dominant-baseline="middle" text-anchor="end" transform="translate(23.012,281.9071)" font-family="Segoe UI" font-size="12" font-weight="400" fill="black">200</text>
  <text dominant-baseline="middle" text-anchor="end" transform="translate(23.012,188.295)" font-family="Segoe UI" font-size="12" font-weight="400" fill="black">400</text>
  <text dominant-baseline="middle" text-anchor="end" transform="translate(23.012,94.6829)" font-family="Segoe UI" font-size="12" font-weight="400" fill="black">600</text>
  <polyline points="34.012,281.9071 27.012,281.9071" style="fill:none;stroke:black;stroke-width:1" />
  <polyline points="34.012,188.295 27.012,188.295" style="fill:none;stroke:black;stroke-width:1" />
  <polyline points="34.012,94.6829 27.012,94.6829" style="fill:none;stroke:black;stroke-width:1" />
  <text dominant-baseline="hanging" text-anchor="middle" transform="translate(84.9698,381.947)" font-family="Segoe UI" font-size="12" font-weight="400" fill="black">01. September</text>
  <text dominant-baseline="hanging" text-anchor="middle" transform="translate(161.4065,381.947)" font-family="Segoe UI" font-size="12" font-weight="400" fill="black">01. October</text>
  <text dominant-baseline="hanging" text-anchor="middle" transform="translate(240.3911,381.947)" font-family="Segoe UI" font-size="12" font-weight="400" fill="black">01. November</text>
  <text dominant-baseline="hanging" text-anchor="middle" transform="translate(316.8278,381.947)" font-family="Segoe UI" font-size="12" font-weight="400" fill="black">01. December</text>
  <text dominant-baseline="hanging" text-anchor="middle" transform="translate(395.8124,381.947)" font-family="Segoe UI" font-size="12" font-weight="400" fill="black">01. January</text>
  <text dominant-baseline="hanging" text-anchor="middle" transform="translate(474.797,381.947)" font-family="Segoe UI" font-size="12" font-weight="400" fill="black">01. February</text>
  <text dominant-baseline="hanging" text-anchor="middle" transform="translate(546.138,381.947)" font-family="Segoe UI" font-size="12" font-weight="400" fill="black">01. March</text>
  <polyline points="84.9698,370.947 84.9698,377.947" style="fill:none;stroke:black;stroke-width:1" />
  <polyline points="161.4065,370.947 161.4065,377.947" style="fill:none;stroke:black;stroke-width:1" />
  <polyline points="240.3911,370.947 240.3911,377.947" style="fill:none;stroke:black;stroke-width:1" />
  <polyline points="316.8278,370.947 316.8278,377.947" style="fill:none;stroke:black;stroke-width:1" />
  <polyline points="395.8124,370.947 395.8124,377.947" style="fill:none;stroke:black;stroke-width:1" />
  <polyline points="474.797,370.947 474.797,377.947" style="fill:none;stroke:black;stroke-width:1" />
  <polyline points="546.138,370.947 546.138,377.947" style="fill:none;stroke:black;stroke-width:1" />
  <polyline points="34.012,361.4774 39.1078,357.2648 46.7515,360.0732 49.2993,357.2648 51.8472,359.1371 54.3951,356.7968 56.943,357.2648 64.5867,357.7329 67.1346,361.4774 69.6825,361.9454 72.2304,361.0093 74.7782,361.0093 82.4219,364.2857 84.9698,365.6899 87.5177,365.6899 90.0656,364.7538 92.6135,365.2219 100.2572,365.2219 102.805,367.5622 105.3529,366.158 107.9008,363.3496 110.4487,361.4774 118.0924,356.7968 120.6403,353.5204 123.1882,348.8398 125.7361,348.3717 128.2839,346.9675 135.9276,351.1801 138.4755,352.1162 141.0234,351.6481 143.5713,349.7759 146.1192,347.4356 153.7628,336.2021 156.3107,337.6063 158.8586,338.0744 161.4065,331.0534 163.9544,324.5006 171.5981,317.0116 174.146,323.5645 176.6939,317.4797 179.2418,310.9268 181.7896,309.0546 189.4333,295.0128 191.9812,305.7782 194.5291,300.1615 197.077,287.5238 199.6249,269.2695 207.2685,245.8664 209.8164,247.2706 212.3643,244.4622 214.9122,222.9315 217.4601,218.7189 225.1038,155.5307 227.6517,172.849 230.1996,172.849 232.7475,167.7003 235.2953,139.6167 242.939,148.5098 245.4869,195.3159 248.0348,185.0186 250.5827,171.4448 253.1306,165.8281 260.7742,134.468 263.3221,153.6585 265.87,140.0847 270.9658,113.8734 278.6095,108.2566 281.1574,134.468 283.7053,141.4889 286.2532,112.0011 288.801,134.9361 296.4447,156.4669 298.9926,173.7851 301.5405,167.7003 304.0884,182.2102 306.6363,160.2113 314.2799,132.5958 316.8278,148.0418 319.3757,171.9129 321.9236,163.4878 324.4715,175.6573 332.1152,117.1498 334.6631,141.957 337.211,155.5307 339.7588,132.1277 342.3067,117.1498 349.9504,70.3437 352.4983,99.8315 355.0462,111.065 357.5941,95.1509 360.142,69.8757 367.7856,33.835 370.3335,61.4506 372.8814,84.8536 385.6209,32.4308 388.1688,57.7061 390.7167,76.4285 393.2645,56.77 403.4561,57.238 406.004,82.5133 408.5519,118.0859 411.0998,126.0429 413.6477,98.8954 423.8392,150.8501 426.3871,174.7212 428.935,164.4239 431.4829,190.6353 439.1266,206.0813 441.6745,233.2288 444.2224,240.2497 446.7702,238.3775 449.3181,234.1649 456.9618,233.6969 462.0576,244.4622 464.6055,224.8037 467.1534,212.1661 474.797,214.0383 477.3449,235.5691 479.8928,254.2915 482.4407,245.3984 484.9886,245.3984 492.6323,262.2485 495.1802,274.4181 497.7281,267.3972 500.2759,253.3554 502.8238,239.3136 510.4675,249.6109 513.0154,284.2474 515.5633,282.3752 518.1112,272.5459 520.6591,293.6086 528.3027,302.5018 530.8506,310.9268 533.3985,305.3101 535.9464,303.4379 538.4943,305.7782 546.138,308.1185 548.6859,319.82 551.2338,311.863 553.7816,286.5877 556.3295,285.1835 563.9732,265.993 566.5211,265.993 569.069,258.5041 571.6169,246.8025 574.1648,232.2927 581.8084,222.4634 584.3563,223.8676 586.9042,224.8037 589.4521,195.3159 592,175.1893" style="fill:none;stroke:rgb(31,119,180);stroke-width:2;stroke-linejoin:bevel" />
  <text dominant-baseline="hanging" text-anchor="middle" transform="translate(313.006,8)" font-family="Segoe UI" font-size="18" font-weight="700" fill="black">Aktive Fälle Stadt Aachen 19.03.2021</text>
  <polygon points="34.012,29.0795 592,29.0795 592,370.947 34.012,370.947" style="fill:none;stroke:black;stroke-width:1" />
  <polygon points="42.012,37.0795 228.483,37.0795 228.483,63.1325 42.012,63.1325" style="fill:none;stroke:none;" />
  <text dominant-baseline="hanging" text-anchor="start" transform="translate(70.012,45.0795)" font-family="Segoe UI" font-size="12" font-weight="400" fill="black">Aktive Fälle Stadt Aachen 19.03.2021</text>
  <polyline points="50.012,50.106 66.012,50.106" style="fill:none;stroke:rgb(31,119,180);stroke-width:2" />
</svg>