<?xml version="1.0" encoding="utf-8" standalone="no"?>
<!DOCTYPE svg PUBLIC "-//W3C//DTD SVG 1.1//EN" "http://www.w3.org/Graphics/SVG/1.1/DTD/svg11.dtd">
<svg width="600" height="400" version="1.1" xmlns:xlink="http://www.w3.org/1999/xlink" xmlns="http://www.w3.org/2000/svg">
  <rect x="0" y="0" width="600" height="400" style="fill:rgb(255,255,255);stroke:none;" />
  <polyline points="39.016,357.0495 35.016,357.0495" style="fill:none;stroke:black;stroke-width:1" />
  <polyline points="39.016,341.1212 35.016,341.1212" style="fill:none;stroke:black;stroke-width:1" />
  <polyline points="39.016,325.1929 35.016,325.1929" style="fill:none;stroke:black;stroke-width:1" />
  <polyline points="39.016,293.3363 35.016,293.3363" style="fill:none;stroke:black;stroke-width:1" />
  <polyline points="39.016,277.408 35.016,277.408" style="fill:none;stroke:black;stroke-width:1" />
  <polyline points="39.016,261.4797 35.016,261.4797" style="fill:none;stroke:black;stroke-width:1" />
  <polyline points="39.016,229.6231 35.016,229.6231" style="fill:none;stroke:black;stroke-width:1" />
  <polyline points="39.016,213.6948 35.016,213.6948" style="fill:none;stroke:black;stroke-width:1" />
  <polyline points="39.016,197.7665 35.016,197.7665" style="fill:none;stroke:black;stroke-width:1" />
  <polyline points="39.016,165.9099 35.016,165.9099" style="fill:none;stroke:black;stroke-width:1" />
  <polyline points="39.016,149.9816 35.016,149.9816" style="fill:none;stroke:black;stroke-width:1" />
  <polyline points="39.016,134.0533 35.016,134.0533" style="fill:none;stroke:black;stroke-width:1" />
  <polyline points="39.016,102.1968 35.016,102.1968" style="fill:none;stroke:black;stroke-width:1" />
  <polyline points="39.016,86.2685 35.016,86.2685" style="fill:none;stroke:black;stroke-width:1" />
  <polyline points="39.016,70.3402 35.016,70.3402" style="fill:none;stroke:black;stroke-width:1" />
  <polyline points="39.016,38.4836 35.016,38.4836" style="fill:none;stroke:black;stroke-width:1" />
  <polyline points="69.8229,370.947 69.8229,374.947" style="fill:none;stroke:black;stroke-width:1" />
  <polyline points="163.784,370.947 163.784,374.947" style="fill:none;stroke:black;stroke-width:1" />
  <polyline points="257.745,370.947 257.745,374.947" style="fill:none;stroke:black;stroke-width:1" />
  <polyline points="348.6254,370.947 348.6254,374.947" style="fill:none;stroke:black;stroke-width:1" />
  <polyline points="442.5865,370.947 442.5865,374.947" style="fill:none;stroke:black;stroke-width:1" />
  <polyline points="536.5476,370.947 536.5476,374.947" style="fill:none;stroke:black;stroke-width:1" />
  <text dominant-baseline="middle" text-anchor="end" transform="translate(28.016,309.2646)" font-family="Segoe UI" font-size="12" font-weight="400" fill="black">200</text>
  <text dominant-baseline="middle" text-anchor="end" transform="translate(28.016,245.5514)" font-family="Segoe UI" font-size="12" font-weight="400" fill="black">400</text>
  <text dominant-baseline="middle" text-anchor="end" transform="translate(28.016,181.8382)" font-family="Segoe UI" font-size="12" font-weight="400" fill="black">600</text>
  <text dominant-baseline="middle" text-anchor="end" transform="translate(28.016,118.125)" font-family="Segoe UI" font-size="12" font-weight="400" fill="black">800</text>
  <text dominant-baseline="middle" text-anchor="end" transform="translate(28.016,54.4119)" font-family="Segoe UI" font-size="12" font-weight="400" fill="black">1000</text>
  <polyline points="39.016,309.2646 32.016,309.2646" style="fill:none;stroke:black;stroke-width:1" />
  <polyline points="39.016,245.5514 32.016,245.5514" style="fill:none;stroke:black;stroke-width:1" />
  <polyline points="39.016,181.8382 32.016,181.8382" style="fill:none;stroke:black;stroke-width:1" />
  <polyline points="39.016,118.125 32.016,118.125" style="fill:none;stroke:black;stroke-width:1" />
  <polyline points="39.016,54.4119 32.016,54.4119" style="fill:none;stroke:black;stroke-width:1" />
  <text dominant-baseline="hanging" text-anchor="middle" transform="translate(116.0333,381.947)" font-family="Segoe UI" font-size="12" font-weight="400" fill="black">01. October</text>
  <text dominant-baseline="hanging" text-anchor="middle" transform="translate(209.9943,381.947)" font-family="Segoe UI" font-size="12" font-weight="400" fill="black">01. December</text>
  <text dominant-baseline="hanging" text-anchor="middle" transform="translate(305.4958,381.947)" font-family="Segoe UI" font-size="12" font-weight="400" fill="black">01. February</text>
  <text dominant-baseline="hanging" text-anchor="middle" transform="translate(396.3761,381.947)" font-family="Segoe UI" font-size="12" font-weight="400" fill="black">01. April</text>
  <text dominant-baseline="hanging" text-anchor="middle" transform="translate(490.3372,381.947)" font-family="Segoe UI" font-size="12" font-weight="400" fill="black">01. June</text>
  <text dominant-baseline="hanging" text-anchor="middle" transform="translate(584.2983,381.947)" font-family="Segoe UI" font-size="12" font-weight="400" fill="black">01. August</text>
  <polyline points="116.0333,370.947 116.0333,377.947" style="fill:none;stroke:black;stroke-width:1" />
  <polyline points="209.9943,370.947 209.9943,377.947" style="fill:none;stroke:black;stroke-width:1" />
  <polyline points="305.4958,370.947 305.4958,377.947" style="fill:none;stroke:black;stroke-width:1" />
  <polyline points="396.3761,370.947 396.3761,377.947" style="fill:none;stroke:black;stroke-width:1" />
  <polyline points="490.3372,370.947 490.3372,377.947" style="fill:none;stroke:black;stroke-width:1" />
  <polyline points="584.2983,370.947 584.2983,377.947" style="fill:none;stroke:black;stroke-width:1" />
  <polyline points="39.016,363.4208 42.0967,360.5537 46.7177,362.4651 48.2581,360.5537 49.7984,361.828 51.3388,360.2352 52.8791,360.5537 57.5001,360.8723 59.0405,363.4208 60.5808,363.7394 62.1212,363.1023 63.6615,363.1023 68.2826,365.3322 69.8229,366.2879 71.3633,366.2879 72.9036,365.6508 74.4439,365.9693 79.065,365.9693 80.6053,367.5622 82.1457,366.6065 83.686,364.6951 85.2264,363.4208 89.8474,360.2352 91.3877,358.0052 92.9281,354.8195 94.4684,354.501 96.0088,353.5453 100.6298,356.4124 102.1702,357.0495 103.7105,356.7309 105.2509,355.4567 106.7912,353.8638 111.4122,346.2183 112.9526,347.174 114.4929,347.4925 116.0333,342.714 117.5736,338.2541 122.1947,333.1571 123.735,337.617 125.2753,333.4756 126.8157,329.0157 128.356,327.7414 132.9771,318.1845 134.5174,325.5115 136.0578,321.6887 137.5981,313.0874 139.1385,300.6633 143.7595,284.735 145.2998,285.6907 146.8402,283.7793 148.3805,269.1253 149.9209,266.2582 154.5419,223.2518 156.0823,235.0387 157.6226,235.0387 159.1629,231.5345 160.7033,212.4206 165.3243,218.4733 166.8647,250.3299 168.405,243.3215 169.9454,234.083 171.4857,230.2603 176.1067,208.9163 177.6471,221.9775 179.1874,212.7391 182.2681,194.8994 186.8892,191.0766 188.4295,208.9163 189.9698,213.6948 191.5102,193.6252 193.0505,209.2349 197.6716,223.8889 199.2119,235.6759 200.7523,231.5345 202.2926,241.4101 203.833,226.4375 208.454,207.6421 209.9943,218.1548 211.5347,234.4016 213.075,228.6674 214.6154,236.9501 219.2364,197.1294 220.7768,214.0134 222.3171,223.2518 223.8574,207.3235 225.3978,197.1294 230.0188,165.2728 231.5592,185.3425 233.0995,192.988 234.6399,182.1568 236.1802,164.9542 240.8012,140.4247 242.3416,159.2201 243.8819,175.1484 251.5837,139.469 253.124,156.6715 254.6644,169.4142 256.2047,156.0344 262.3661,156.353 263.9064,173.5555 265.4468,197.7665 266.9871,203.1822 268.5275,184.7053 274.6888,220.0661 276.2292,236.313 277.7695,229.3046 279.3099,247.1443 283.9309,257.6569 285.4713,276.1338 287.0116,280.9122 288.552,279.638 290.0923,276.7709 294.7133,276.4523 297.794,283.7793 299.3344,270.3996 300.8747,261.7983 305.4958,263.0725 307.0361,277.7266 308.5764,290.4692 310.1168,284.4165 311.6571,284.4165 316.2782,295.8848 317.8185,304.1676 319.3589,299.3891 320.8992,289.8321 322.4396,280.2751 327.0606,287.2836 328.6009,310.8574 330.1413,309.5832 331.6816,302.8933 333.222,317.2288 337.843,323.2815 339.3834,329.0157 340.9237,325.1929 342.464,323.9186 344.0044,325.5115 348.6254,327.1043 350.1658,335.0684 351.7061,329.6528 353.2465,312.4503 354.7868,311.4946 359.4078,298.4334 360.9482,298.4334 362.4885,293.3363 364.0289,285.3722 365.5692,275.4966 370.1903,268.8067 371.7306,269.7624 373.271,270.3996 374.8113,250.3299 376.3516,236.6316 380.9727,219.7476 382.513,220.0661 384.0534,221.3404 385.5937,199.3594 387.1341,195.218 391.7551,192.3509 393.2954,214.9691 394.8358,219.429 396.3761,211.7834 397.9165,188.5281 404.0779,174.1927 405.6182,176.7412 407.1586,153.4859 408.6989,148.3888 413.3199,142.6546 414.8603,144.2475 416.4006,126.7263 417.941,113.6651 419.4813,116.2137 424.1024,99.9668 425.6427,95.1883 427.183,72.8887 428.7234,44.5363 430.2637,32.4308 434.8848,42.3064 436.4251,49.3148 437.9655,66.1988 439.5058,77.6672 441.0462,71.2959 445.6672,109.8423 447.2075,105.701 448.7479,125.7706 450.2882,134.6905 451.8286,148.3888 456.4496,149.0259 457.9899,175.7855 459.5303,170.6884 462.611,185.3425 467.232,171.9627 468.7724,185.661 470.3127,186.2982 471.8531,180.564 473.3934,185.0239 479.5548,213.3763 481.0951,232.8088 482.6355,239.8172 484.1758,234.7202 488.7969,261.4797 490.3372,282.1865 491.8775,289.195 494.9582,301.9376 499.5793,310.5389 501.1196,317.8659 502.66,328.6971 504.2003,332.5199 505.7407,337.2984 510.3617,338.5727 511.902,337.617 513.4424,348.7668 514.9827,348.1297 516.5231,349.7225 521.1441,350.6782 522.6845,351.9524 524.2248,352.5896 525.7651,352.9081 527.3055,352.9081 531.9265,354.1824 533.4669,356.0938 535.0072,355.7752 536.5476,353.5453 538.0879,354.8195 542.7089,356.0938 545.7896,355.7752 548.8703,356.4124 553.4914,356.0938 556.5721,355.1381 559.6527,348.7668 567.3545,338.5727 570.4352,326.7857 578.1369,324.5558 581.2176,318.1845 588.9193,325.83 592,322.6444" style="fill:none;stroke:rgb(31,119,180);stroke-width:2;stroke-linejoin:bevel" />
  <text dominant-baseline="hanging" text-anchor="middle" transform="translate(315.508,8)" font-family="Segoe UI" font-size="18" font-weight="700" fill="black">Aktive Fälle Stadt Aachen 06.08.2021</text>
  <polygon points="39.016,29.0795 592,29.0795 592,370.947 39.016,370.947" style="fill:none;stroke:black;stroke-width:1" />
  <polygon points="47.016,37.0795 233.487,37.0795 233.487,63.1325 47.016,63.1325" style="fill:none;stroke:none;" />
  <text dominant-baseline="hanging" text-anchor="start" transform="translate(75.016,45.0795)" font-family="Segoe UI" font-size="12" font-weight="400" fill="black">Aktive Fälle Stadt Aachen 06.08.2021</text>
  <polyline points="55.016,50.106 71.016,50.106" style="fill:none;stroke:rgb(31,119,180);stroke-width:2" />
</svg>