<?xml version="1.0" encoding="utf-8" standalone="no"?>
<!DOCTYPE svg PUBLIC "-//W3C//DTD SVG 1.1//EN" "http://www.w3.org/Graphics/SVG/1.1/DTD/svg11.dtd">
<svg width="600" height="400" version="1.1" xmlns:xlink="http://www.w3.org/1999/xlink" xmlns="http://www.w3.org/2000/svg">
  <rect x="0" y="0" width="600" height="400" style="fill:rgb(255,255,255);stroke:none;" />
  <polyline points="34.012,364.3085 30.012,364.3085" style="fill:none;stroke:black;stroke-width:1" />
  <polyline points="34.012,342.6171 30.012,342.6171" style="fill:none;stroke:black;stroke-width:1" />
  <polyline points="34.012,320.9258 30.012,320.9258" style="fill:none;stroke:black;stroke-width:1" />
  <polyline points="34.012,299.2344 30.012,299.2344" style="fill:none;stroke:black;stroke-width:1" />
  <polyline points="34.012,255.8517 30.012,255.8517" style="fill:none;stroke:black;stroke-width:1" />
  <polyline points="34.012,234.1604 30.012,234.1604" style="fill:none;stroke:black;stroke-width:1" />
  <polyline points="34.012,212.469 30.012,212.469" style="fill:none;stroke:black;stroke-width:1" />
  <polyline points="34.012,190.7777 30.012,190.7777" style="fill:none;stroke:black;stroke-width:1" />
  <polyline points="34.012,147.395 30.012,147.395" style="fill:none;stroke:black;stroke-width:1" />
  <polyline points="34.012,125.7036 30.012,125.7036" style="fill:none;stroke:black;stroke-width:1" />
  <polyline points="34.012,104.0123 30.012,104.0123" style="fill:none;stroke:black;stroke-width:1" />
  <polyline points="34.012,82.3209 30.012,82.3209" style="fill:none;stroke:black;stroke-width:1" />
  <polyline points="34.012,38.9382 30.012,38.9382" style="fill:none;stroke:black;stroke-width:1" />
  <text dominant-baseline="middle" text-anchor="end" transform="translate(23.012,277.5431)" font-family="Segoe UI" font-size="12" font-weight="400" fill="black">100</text>
  <text dominant-baseline="middle" text-anchor="end" transform="translate(23.012,169.0863)" font-family="Segoe UI" font-size="12" font-weight="400" fill="black">200</text>
  <text dominant-baseline="middle" text-anchor="end" transform="translate(23.012,60.6296)" font-family="Segoe UI" font-size="12" font-weight="400" fill="black">300</text>
  <polyline points="34.012,277.5431 27.012,277.5431" style="fill:none;stroke:black;stroke-width:1" />
  <polyline points="34.012,169.0863 27.012,169.0863" style="fill:none;stroke:black;stroke-width:1" />
  <polyline points="34.012,60.6296 27.012,60.6296" style="fill:none;stroke:black;stroke-width:1" />
  <text dominant-baseline="hanging" text-anchor="middle" transform="translate(57.589,381.947)" font-family="Segoe UI" font-size="12" font-weight="400" fill="black">15. August</text>
  <text dominant-baseline="hanging" text-anchor="middle" transform="translate(167.6148,381.947)" font-family="Segoe UI" font-size="12" font-weight="400" fill="black">29. August</text>
  <text dominant-baseline="hanging" text-anchor="middle" transform="translate(277.6406,381.947)" font-family="Segoe UI" font-size="12" font-weight="400" fill="black">12. September</text>
  <text dominant-baseline="hanging" text-anchor="middle" transform="translate(387.6664,381.947)" font-family="Segoe UI" font-size="12" font-weight="400" fill="black">26. September</text>
  <text dominant-baseline="hanging" text-anchor="middle" transform="translate(497.6922,381.947)" font-family="Segoe UI" font-size="12" font-weight="400" fill="black">10. October</text>
  <polyline points="57.589,370.947 57.589,377.947" style="fill:none;stroke:black;stroke-width:1" />
  <polyline points="167.6148,370.947 167.6148,377.947" style="fill:none;stroke:black;stroke-width:1" />
  <polyline points="277.6406,370.947 277.6406,377.947" style="fill:none;stroke:black;stroke-width:1" />
  <polyline points="387.6664,370.947 387.6664,377.947" style="fill:none;stroke:black;stroke-width:1" />
  <polyline points="497.6922,370.947 497.6922,377.947" style="fill:none;stroke:black;stroke-width:1" />
  <polyline points="34.012,353.4628 49.73,343.7017 73.3069,350.2091 81.1659,343.7017 89.0249,348.04 96.8839,342.6171 104.7429,343.7017 128.3198,344.7863 136.1788,353.4628 144.0378,354.5474 151.8968,352.3782 159.7558,352.3782 183.3327,359.9702 191.1917,363.2239 199.0507,363.2239 206.9097,361.0548 214.7687,362.1393 238.3456,362.1393 246.2046,367.5622 254.0636,364.3085 261.9226,357.8011 269.7816,353.4628 293.3585,342.6171 301.2175,335.0251 309.0765,324.1795 316.9355,323.0949 324.7945,319.8412 348.3714,329.6023 356.2304,331.7714 364.0894,330.6869 371.9484,326.3486 379.8074,320.9258 403.3843,294.8962 411.2433,298.1499 419.1023,299.2344 426.9613,282.9659 434.8203,267.782 458.3972,250.4289 466.2562,265.6128 474.1152,251.5135 481.9742,236.3295 489.8332,231.9912 513.4101,199.4542 521.2691,224.3993 529.1281,211.3845 536.9871,182.1011 544.8461,139.803 568.423,85.5746 576.282,88.8283 584.141,82.3209 592,32.4308" style="fill:none;stroke:rgb(31,119,180);stroke-width:2;stroke-linejoin:bevel" />
  <text dominant-baseline="hanging" text-anchor="middle" transform="translate(313.006,8)" font-family="Segoe UI" font-size="18" font-weight="700" fill="black">Aktive Fälle Stadt Aachen 22.10.2020</text>
  <polygon points="34.012,29.0795 592,29.0795 592,370.947 34.012,370.947" style="fill:none;stroke:black;stroke-width:1" />
  <polygon points="42.012,37.0795 228.483,37.0795 228.483,63.1325 42.012,63.1325" style="fill:none;stroke:none;" />
  <text dominant-baseline="hanging" text-anchor="start" transform="translate(70.012,45.0795)" font-family="Segoe UI" font-size="12" font-weight="400" fill="black">Aktive Fälle Stadt Aachen 22.10.2020</text>
  <polyline points="50.012,50.106 66.012,50.106" style="fill:none;stroke:rgb(31,119,180);stroke-width:2" />
</svg>