<?xml version="1.0" encoding="utf-8" standalone="no"?>
<!DOCTYPE svg PUBLIC "-//W3C//DTD SVG 1.1//EN" "http://www.w3.org/Graphics/SVG/1.1/DTD/svg11.dtd">
<svg width="600" height="400" version="1.1" xmlns:xlink="http://www.w3.org/1999/xlink" xmlns="http://www.w3.org/2000/svg">
  <rect x="0" y="0" width="600" height="400" style="fill:rgb(255,255,255);stroke:none;" />
  <polyline points="39.016,357.0495 35.016,357.0495" style="fill:none;stroke:black;stroke-width:1" />
  <polyline points="39.016,341.1212 35.016,341.1212" style="fill:none;stroke:black;stroke-width:1" />
  <polyline points="39.016,325.1929 35.016,325.1929" style="fill:none;stroke:black;stroke-width:1" />
  <polyline points="39.016,293.3363 35.016,293.3363" style="fill:none;stroke:black;stroke-width:1" />
  <polyline points="39.016,277.408 35.016,277.408" style="fill:none;stroke:black;stroke-width:1" />
  <polyline points="39.016,261.4797 35.016,261.4797" style="fill:none;stroke:black;stroke-width:1" />
  <polyline points="39.016,229.6231 35.016,229.6231" style="fill:none;stroke:black;stroke-width:1" />
  <polyline points="39.016,213.6948 35.016,213.6948" style="fill:none;stroke:black;stroke-width:1" />
  <polyline points="39.016,197.7665 35.016,197.7665" style="fill:none;stroke:black;stroke-width:1" />
  <polyline points="39.016,165.9099 35.016,165.9099" style="fill:none;stroke:black;stroke-width:1" />
  <polyline points="39.016,149.9816 35.016,149.9816" style="fill:none;stroke:black;stroke-width:1" />
  <polyline points="39.016,134.0533 35.016,134.0533" style="fill:none;stroke:black;stroke-width:1" />
  <polyline points="39.016,102.1968 35.016,102.1968" style="fill:none;stroke:black;stroke-width:1" />
  <polyline points="39.016,86.2685 35.016,86.2685" style="fill:none;stroke:black;stroke-width:1" />
  <polyline points="39.016,70.3402 35.016,70.3402" style="fill:none;stroke:black;stroke-width:1" />
  <polyline points="39.016,38.4836 35.016,38.4836" style="fill:none;stroke:black;stroke-width:1" />
  <text dominant-baseline="middle" text-anchor="end" transform="translate(28.016,309.2646)" font-family="Segoe UI" font-size="12" font-weight="400" fill="black">200</text>
  <text dominant-baseline="middle" text-anchor="end" transform="translate(28.016,245.5514)" font-family="Segoe UI" font-size="12" font-weight="400" fill="black">400</text>
  <text dominant-baseline="middle" text-anchor="end" transform="translate(28.016,181.8382)" font-family="Segoe UI" font-size="12" font-weight="400" fill="black">600</text>
  <text dominant-baseline="middle" text-anchor="end" transform="translate(28.016,118.125)" font-family="Segoe UI" font-size="12" font-weight="400" fill="black">800</text>
  <text dominant-baseline="middle" text-anchor="end" transform="translate(28.016,54.4119)" font-family="Segoe UI" font-size="12" font-weight="400" fill="black">1000</text>
  <polyline points="39.016,309.2646 32.016,309.2646" style="fill:none;stroke:black;stroke-width:1" />
  <polyline points="39.016,245.5514 32.016,245.5514" style="fill:none;stroke:black;stroke-width:1" />
  <polyline points="39.016,181.8382 32.016,181.8382" style="fill:none;stroke:black;stroke-width:1" />
  <polyline points="39.016,118.125 32.016,118.125" style="fill:none;stroke:black;stroke-width:1" />
  <polyline points="39.016,54.4119 32.016,54.4119" style="fill:none;stroke:black;stroke-width:1" />
  <text dominant-baseline="hanging" text-anchor="middle" transform="translate(80.7506,381.947)" font-family="Segoe UI" font-size="12" font-weight="400" fill="black">01. September</text>
  <text dominant-baseline="hanging" text-anchor="middle" transform="translate(143.3526,381.947)" font-family="Segoe UI" font-size="12" font-weight="400" fill="black">01. October</text>
  <text dominant-baseline="hanging" text-anchor="middle" transform="translate(208.0413,381.947)" font-family="Segoe UI" font-size="12" font-weight="400" fill="black">01. November</text>
  <text dominant-baseline="hanging" text-anchor="middle" transform="translate(270.6433,381.947)" font-family="Segoe UI" font-size="12" font-weight="400" fill="black">01. December</text>
  <text dominant-baseline="hanging" text-anchor="middle" transform="translate(335.332,381.947)" font-family="Segoe UI" font-size="12" font-weight="400" fill="black">01. January</text>
  <text dominant-baseline="hanging" text-anchor="middle" transform="translate(400.0206,381.947)" font-family="Segoe UI" font-size="12" font-weight="400" fill="black">01. February</text>
  <text dominant-baseline="hanging" text-anchor="middle" transform="translate(458.4491,381.947)" font-family="Segoe UI" font-size="12" font-weight="400" fill="black">01. March</text>
  <text dominant-baseline="hanging" text-anchor="middle" transform="translate(523.1378,381.947)" font-family="Segoe UI" font-size="12" font-weight="400" fill="black">01. April</text>
  <text dominant-baseline="hanging" text-anchor="middle" transform="translate(585.7398,381.947)" font-family="Segoe UI" font-size="12" font-weight="400" fill="black">01. May</text>
  <polyline points="80.7506,370.947 80.7506,377.947" style="fill:none;stroke:black;stroke-width:1" />
  <polyline points="143.3526,370.947 143.3526,377.947" style="fill:none;stroke:black;stroke-width:1" />
  <polyline points="208.0413,370.947 208.0413,377.947" style="fill:none;stroke:black;stroke-width:1" />
  <polyline points="270.6433,370.947 270.6433,377.947" style="fill:none;stroke:black;stroke-width:1" />
  <polyline points="335.332,370.947 335.332,377.947" style="fill:none;stroke:black;stroke-width:1" />
  <polyline points="400.0206,370.947 400.0206,377.947" style="fill:none;stroke:black;stroke-width:1" />
  <polyline points="458.4491,370.947 458.4491,377.947" style="fill:none;stroke:black;stroke-width:1" />
  <polyline points="523.1378,370.947 523.1378,377.947" style="fill:none;stroke:black;stroke-width:1" />
  <polyline points="585.7398,370.947 585.7398,377.947" style="fill:none;stroke:black;stroke-width:1" />
  <polyline points="39.016,363.4208 43.1895,360.5537 49.4497,362.4651 51.5364,360.5537 53.6231,361.828 55.7099,360.2352 57.7966,360.5537 64.0568,360.8723 66.1435,363.4208 68.2302,363.7394 70.317,363.1023 72.4037,363.1023 78.6639,365.3322 80.7506,366.2879 82.8374,366.2879 84.9241,365.6508 87.0108,365.9693 93.271,365.9693 95.3578,367.5622 97.4445,366.6065 99.5312,364.6951 101.618,363.4208 107.8782,360.2352 109.9649,358.0052 112.0516,354.8195 114.1384,354.501 116.2251,353.5453 122.4853,356.4124 124.572,357.0495 126.6587,356.7309 128.7455,355.4567 130.8322,353.8638 137.0924,346.2183 139.1791,347.174 141.2659,347.4925 143.3526,342.714 145.4393,338.2541 151.6995,333.1571 153.7863,337.617 155.873,333.4756 157.9597,329.0157 160.0465,327.7414 166.3067,318.1845 168.3934,325.5115 170.4801,321.6887 172.5669,313.0874 174.6536,300.6633 180.9138,284.735 183.0005,285.6907 185.0872,283.7793 187.174,269.1253 189.2607,266.2582 195.5209,223.2518 197.6076,235.0387 199.6944,235.0387 201.7811,231.5345 203.8678,212.4206 210.128,218.4733 212.2148,250.3299 214.3015,243.3215 216.3882,234.083 218.475,230.2603 224.7352,208.9163 226.8219,221.9775 228.9086,212.7391 233.0821,194.8994 239.3423,191.0766 241.429,208.9163 243.5157,213.6948 245.6025,193.6252 247.6892,209.2349 253.9494,223.8889 256.0361,235.6759 258.1229,231.5345 260.2096,241.4101 262.2963,226.4375 268.5565,207.6421 270.6433,218.1548 272.73,234.4016 274.8167,228.6674 276.9035,236.9501 283.1637,197.1294 285.2504,214.0134 287.3371,223.2518 289.4238,207.3235 291.5106,197.1294 297.7708,165.2728 299.8575,185.3425 301.9442,192.988 304.031,182.1568 306.1177,164.9542 312.3779,140.4247 314.4646,159.2201 316.5514,175.1484 326.985,139.469 329.0718,156.6715 331.1585,169.4142 333.2452,156.0344 341.5922,156.353 343.6789,173.5555 345.7656,197.7665 347.8523,203.1822 349.9391,184.7053 358.286,220.0661 360.3727,236.313 362.4595,229.3046 364.5462,247.1443 370.8064,257.6569 372.8931,276.1338 374.9799,280.9122 377.0666,279.638 379.1533,276.7709 385.4135,276.4523 389.587,283.7793 391.6737,270.3996 393.7605,261.7983 400.0206,263.0725 402.1074,277.7266 404.1941,290.4692 406.2808,284.4165 408.3676,284.4165 414.6278,295.8848 416.7145,304.1676 418.8012,299.3891 420.888,289.8321 422.9747,280.2751 429.2349,287.2836 431.3216,310.8574 433.4084,309.5832 435.4951,302.8933 437.5818,317.2288 443.842,323.2815 445.9288,329.0157 448.0155,325.1929 450.1022,323.9186 452.189,325.5115 458.4491,327.1043 460.5359,335.0684 462.6226,329.6528 464.7093,312.4503 466.7961,311.4946 473.0563,298.4334 475.143,298.4334 477.2297,293.3363 479.3165,285.3722 481.4032,275.4966 487.6634,268.8067 489.7501,269.7624 491.8369,270.3996 493.9236,250.3299 496.0103,236.6316 502.2705,219.7476 504.3573,220.0661 506.444,221.3404 508.5307,199.3594 510.6174,195.218 516.8776,192.3509 518.9644,214.9691 521.0511,219.429 523.1378,211.7834 525.2246,188.5281 533.5715,174.1927 535.6582,176.7412 537.745,153.4859 539.8317,148.3888 546.0919,142.6546 548.1786,144.2475 550.2654,126.7263 552.3521,113.6651 554.4388,116.2137 560.699,99.9668 562.7858,95.1883 564.8725,72.8887 566.9592,44.5363 569.0459,32.4308 575.3061,42.3064 577.3929,49.3148 579.4796,66.1988 581.5663,77.6672 583.6531,71.2959 589.9133,109.8423 592,105.701" style="fill:none;stroke:rgb(31,119,180);stroke-width:2;stroke-linejoin:bevel" />
  <text dominant-baseline="hanging" text-anchor="middle" transform="translate(315.508,8)" font-family="Segoe UI" font-size="18" font-weight="700" fill="black">Aktive Fälle Stadt Aachen 04.05.2021</text>
  <polygon points="39.016,29.0795 592,29.0795 592,370.947 39.016,370.947" style="fill:none;stroke:black;stroke-width:1" />
  <polygon points="47.016,37.0795 233.487,37.0795 233.487,63.1325 47.016,63.1325" style="fill:none;stroke:none;" />
  <text dominant-baseline="hanging" text-anchor="start" transform="translate(75.016,45.0795)" font-family="Segoe UI" font-size="12" font-weight="400" fill="black">Aktive Fälle Stadt Aachen 04.05.2021</text>
  <polyline points="55.016,50.106 71.016,50.106" style="fill:none;stroke:rgb(31,119,180);stroke-width:2" />
</svg>