<?xml version="1.0" encoding="utf-8" standalone="no"?>
<!DOCTYPE svg PUBLIC "-//W3C//DTD SVG 1.1//EN" "http://www.w3.org/Graphics/SVG/1.1/DTD/svg11.dtd">
<svg width="600" height="400" version="1.1" xmlns:xlink="http://www.w3.org/1999/xlink" xmlns="http://www.w3.org/2000/svg">
  <rect x="0" y="0" width="600" height="400" style="fill:rgb(255,255,255);stroke:none;" />
  <polyline points="34.012,352.1162 30.012,352.1162" style="fill:none;stroke:black;stroke-width:1" />
  <polyline points="34.012,328.7131 30.012,328.7131" style="fill:none;stroke:black;stroke-width:1" />
  <polyline points="34.012,305.3101 30.012,305.3101" style="fill:none;stroke:black;stroke-width:1" />
  <polyline points="34.012,258.5041 30.012,258.5041" style="fill:none;stroke:black;stroke-width:1" />
  <polyline points="34.012,235.101 30.012,235.101" style="fill:none;stroke:black;stroke-width:1" />
  <polyline points="34.012,211.698 30.012,211.698" style="fill:none;stroke:black;stroke-width:1" />
  <polyline points="34.012,164.892 30.012,164.892" style="fill:none;stroke:black;stroke-width:1" />
  <polyline points="34.012,141.4889 30.012,141.4889" style="fill:none;stroke:black;stroke-width:1" />
  <polyline points="34.012,118.0859 30.012,118.0859" style="fill:none;stroke:black;stroke-width:1" />
  <polyline points="34.012,71.2798 30.012,71.2798" style="fill:none;stroke:black;stroke-width:1" />
  <polyline points="34.012,47.8768 30.012,47.8768" style="fill:none;stroke:black;stroke-width:1" />
  <text dominant-baseline="middle" text-anchor="end" transform="translate(23.012,281.9071)" font-family="Segoe UI" font-size="12" font-weight="400" fill="black">200</text>
  <text dominant-baseline="middle" text-anchor="end" transform="translate(23.012,188.295)" font-family="Segoe UI" font-size="12" font-weight="400" fill="black">400</text>
  <text dominant-baseline="middle" text-anchor="end" transform="translate(23.012,94.6829)" font-family="Segoe UI" font-size="12" font-weight="400" fill="black">600</text>
  <polyline points="34.012,281.9071 27.012,281.9071" style="fill:none;stroke:black;stroke-width:1" />
  <polyline points="34.012,188.295 27.012,188.295" style="fill:none;stroke:black;stroke-width:1" />
  <polyline points="34.012,94.6829 27.012,94.6829" style="fill:none;stroke:black;stroke-width:1" />
  <text dominant-baseline="hanging" text-anchor="middle" transform="translate(80.7056,381.947)" font-family="Segoe UI" font-size="12" font-weight="400" fill="black">01. September</text>
  <text dominant-baseline="hanging" text-anchor="middle" transform="translate(150.7459,381.947)" font-family="Segoe UI" font-size="12" font-weight="400" fill="black">01. October</text>
  <text dominant-baseline="hanging" text-anchor="middle" transform="translate(223.1209,381.947)" font-family="Segoe UI" font-size="12" font-weight="400" fill="black">01. November</text>
  <text dominant-baseline="hanging" text-anchor="middle" transform="translate(293.1612,381.947)" font-family="Segoe UI" font-size="12" font-weight="400" fill="black">01. December</text>
  <text dominant-baseline="hanging" text-anchor="middle" transform="translate(365.5363,381.947)" font-family="Segoe UI" font-size="12" font-weight="400" fill="black">01. January</text>
  <text dominant-baseline="hanging" text-anchor="middle" transform="translate(437.9113,381.947)" font-family="Segoe UI" font-size="12" font-weight="400" fill="black">01. February</text>
  <text dominant-baseline="hanging" text-anchor="middle" transform="translate(503.2822,381.947)" font-family="Segoe UI" font-size="12" font-weight="400" fill="black">01. March</text>
  <text dominant-baseline="hanging" text-anchor="middle" transform="translate(575.6573,381.947)" font-family="Segoe UI" font-size="12" font-weight="400" fill="black">01. April</text>
  <polyline points="80.7056,370.947 80.7056,377.947" style="fill:none;stroke:black;stroke-width:1" />
  <polyline points="150.7459,370.947 150.7459,377.947" style="fill:none;stroke:black;stroke-width:1" />
  <polyline points="223.1209,370.947 223.1209,377.947" style="fill:none;stroke:black;stroke-width:1" />
  <polyline points="293.1612,370.947 293.1612,377.947" style="fill:none;stroke:black;stroke-width:1" />
  <polyline points="365.5363,370.947 365.5363,377.947" style="fill:none;stroke:black;stroke-width:1" />
  <polyline points="437.9113,370.947 437.9113,377.947" style="fill:none;stroke:black;stroke-width:1" />
  <polyline points="503.2822,370.947 503.2822,377.947" style="fill:none;stroke:black;stroke-width:1" />
  <polyline points="575.6573,370.947 575.6573,377.947" style="fill:none;stroke:black;stroke-width:1" />
  <polyline points="34.012,361.4774 38.6814,357.2648 45.6854,360.0732 48.0201,357.2648 50.3547,359.1371 52.6894,356.7968 55.0241,357.2648 62.0281,357.7329 64.3628,361.4774 66.6975,361.9454 69.0322,361.0093 71.3668,361.0093 78.3709,364.2857 80.7056,365.6899 83.0402,365.6899 85.3749,364.7538 87.7096,365.2219 94.7136,365.2219 97.0483,367.5622 99.383,366.158 101.7177,363.3496 104.0523,361.4774 111.0564,356.7968 113.391,353.5204 115.7257,348.8398 118.0604,348.3717 120.3951,346.9675 127.3991,351.1801 129.7338,352.1162 132.0685,351.6481 134.4031,349.7759 136.7378,347.4356 143.7419,336.2021 146.0765,337.6063 148.4112,338.0744 150.7459,331.0534 153.0806,324.5006 160.0846,317.0116 162.4193,323.5645 164.754,317.4797 167.0886,310.9268 169.4233,309.0546 176.4273,295.0128 178.762,305.7782 181.0967,300.1615 183.4314,287.5238 185.7661,269.2695 192.7701,245.8664 195.1048,247.2706 197.4394,244.4622 199.7741,222.9315 202.1088,218.7189 209.1128,155.5307 211.4475,172.849 213.7822,172.849 216.1169,167.7003 218.4515,139.6167 225.4556,148.5098 227.7903,195.3159 230.1249,185.0186 232.4596,171.4448 234.7943,165.8281 241.7983,134.468 244.133,153.6585 246.4677,140.0847 251.137,113.8734 258.1411,108.2566 260.4757,134.468 262.8104,141.4889 265.1451,112.0011 267.4798,134.9361 274.4838,156.4669 276.8185,173.7851 279.1532,167.7003 281.4878,182.2102 283.8225,160.2113 290.8266,132.5958 293.1612,148.0418 295.4959,171.9129 297.8306,163.4878 300.1653,175.6573 307.1693,117.1498 309.504,141.957 311.8387,155.5307 314.1733,132.1277 316.508,117.1498 323.5121,70.3437 325.8467,99.8315 328.1814,111.065 330.5161,95.1509 332.8508,69.8757 339.8548,33.835 342.1895,61.4506 344.5242,84.8536 356.1975,32.4308 358.5322,57.7061 360.8669,76.4285 363.2016,56.77 372.5403,57.238 374.875,82.5133 377.2096,118.0859 379.5443,126.0429 381.879,98.8954 391.2177,150.8501 393.5524,174.7212 395.8871,164.4239 398.2217,190.6353 405.2258,206.0813 407.5605,233.2288 409.8951,240.2497 412.2298,238.3775 414.5645,234.1649 421.5685,233.6969 426.2379,244.4622 428.5726,224.8037 430.9072,212.1661 437.9113,214.0383 440.2459,235.5691 442.5806,254.2915 444.9153,245.3984 447.25,245.3984 454.254,262.2485 456.5887,274.4181 458.9234,267.3972 461.258,253.3554 463.5927,239.3136 470.5968,249.6109 472.9314,284.2474 475.2661,282.3752 477.6008,272.5459 479.9355,293.6086 486.9395,302.5018 489.2742,310.9268 491.6089,305.3101 493.9435,303.4379 496.2782,305.7782 503.2822,308.1185 505.6169,319.82 507.9516,311.863 510.2863,286.5877 512.621,285.1835 519.625,265.993 521.9597,265.993 524.2943,258.5041 526.629,246.8025 528.9637,232.2927 535.9677,222.4634 538.3024,223.8676 540.6371,224.8037 542.9718,195.3159 545.3064,175.1893 552.3105,150.3821 554.6452,150.8501 556.9798,152.7224 559.3145,120.4262 561.6492,114.3414 568.6532,110.1289 570.9879,143.3612 573.3226,149.914 575.6573,138.6806 577.9919,104.5121 587.3306,83.4494 589.6653,87.1939 592,53.0255" style="fill:none;stroke:rgb(31,119,180);stroke-width:2;stroke-linejoin:bevel" />
  <text dominant-baseline="hanging" text-anchor="middle" transform="translate(313.006,8)" font-family="Segoe UI" font-size="18" font-weight="700" fill="black">Aktive Fälle Stadt Aachen 08.04.2021</text>
  <polygon points="34.012,29.0795 592,29.0795 592,370.947 34.012,370.947" style="fill:none;stroke:black;stroke-width:1" />
  <polygon points="42.012,37.0795 228.483,37.0795 228.483,63.1325 42.012,63.1325" style="fill:none;stroke:none;" />
  <text dominant-baseline="hanging" text-anchor="start" transform="translate(70.012,45.0795)" font-family="Segoe UI" font-size="12" font-weight="400" fill="black">Aktive Fälle Stadt Aachen 08.04.2021</text>
  <polyline points="50.012,50.106 66.012,50.106" style="fill:none;stroke:rgb(31,119,180);stroke-width:2" />
</svg>