<?xml version="1.0" encoding="utf-8" standalone="no"?>
<!DOCTYPE svg PUBLIC "-//W3C//DTD SVG 1.1//EN" "http://www.w3.org/Graphics/SVG/1.1/DTD/svg11.dtd">
<svg width="600" height="400" version="1.1" xmlns:xlink="http://www.w3.org/1999/xlink" xmlns="http://www.w3.org/2000/svg">
  <rect x="0" y="0" width="600" height="400" style="fill:rgb(255,255,255);stroke:none;" />
  <polyline points="39.016,357.0495 35.016,357.0495" style="fill:none;stroke:black;stroke-width:1" />
  <polyline points="39.016,341.1212 35.016,341.1212" style="fill:none;stroke:black;stroke-width:1" />
  <polyline points="39.016,325.1929 35.016,325.1929" style="fill:none;stroke:black;stroke-width:1" />
  <polyline points="39.016,293.3363 35.016,293.3363" style="fill:none;stroke:black;stroke-width:1" />
  <polyline points="39.016,277.408 35.016,277.408" style="fill:none;stroke:black;stroke-width:1" />
  <polyline points="39.016,261.4797 35.016,261.4797" style="fill:none;stroke:black;stroke-width:1" />
  <polyline points="39.016,229.6231 35.016,229.6231" style="fill:none;stroke:black;stroke-width:1" />
  <polyline points="39.016,213.6948 35.016,213.6948" style="fill:none;stroke:black;stroke-width:1" />
  <polyline points="39.016,197.7665 35.016,197.7665" style="fill:none;stroke:black;stroke-width:1" />
  <polyline points="39.016,165.9099 35.016,165.9099" style="fill:none;stroke:black;stroke-width:1" />
  <polyline points="39.016,149.9816 35.016,149.9816" style="fill:none;stroke:black;stroke-width:1" />
  <polyline points="39.016,134.0533 35.016,134.0533" style="fill:none;stroke:black;stroke-width:1" />
  <polyline points="39.016,102.1968 35.016,102.1968" style="fill:none;stroke:black;stroke-width:1" />
  <polyline points="39.016,86.2685 35.016,86.2685" style="fill:none;stroke:black;stroke-width:1" />
  <polyline points="39.016,70.3402 35.016,70.3402" style="fill:none;stroke:black;stroke-width:1" />
  <polyline points="39.016,38.4836 35.016,38.4836" style="fill:none;stroke:black;stroke-width:1" />
  <text dominant-baseline="middle" text-anchor="end" transform="translate(28.016,309.2646)" font-family="Segoe UI" font-size="12" font-weight="400" fill="black">200</text>
  <text dominant-baseline="middle" text-anchor="end" transform="translate(28.016,245.5514)" font-family="Segoe UI" font-size="12" font-weight="400" fill="black">400</text>
  <text dominant-baseline="middle" text-anchor="end" transform="translate(28.016,181.8382)" font-family="Segoe UI" font-size="12" font-weight="400" fill="black">600</text>
  <text dominant-baseline="middle" text-anchor="end" transform="translate(28.016,118.125)" font-family="Segoe UI" font-size="12" font-weight="400" fill="black">800</text>
  <text dominant-baseline="middle" text-anchor="end" transform="translate(28.016,54.4119)" font-family="Segoe UI" font-size="12" font-weight="400" fill="black">1000</text>
  <polyline points="39.016,309.2646 32.016,309.2646" style="fill:none;stroke:black;stroke-width:1" />
  <polyline points="39.016,245.5514 32.016,245.5514" style="fill:none;stroke:black;stroke-width:1" />
  <polyline points="39.016,181.8382 32.016,181.8382" style="fill:none;stroke:black;stroke-width:1" />
  <polyline points="39.016,118.125 32.016,118.125" style="fill:none;stroke:black;stroke-width:1" />
  <polyline points="39.016,54.4119 32.016,54.4119" style="fill:none;stroke:black;stroke-width:1" />
  <text dominant-baseline="hanging" text-anchor="middle" transform="translate(78.3743,381.947)" font-family="Segoe UI" font-size="12" font-weight="400" fill="black">01. September</text>
  <text dominant-baseline="hanging" text-anchor="middle" transform="translate(137.4117,381.947)" font-family="Segoe UI" font-size="12" font-weight="400" fill="black">01. October</text>
  <text dominant-baseline="hanging" text-anchor="middle" transform="translate(198.4171,381.947)" font-family="Segoe UI" font-size="12" font-weight="400" fill="black">01. November</text>
  <text dominant-baseline="hanging" text-anchor="middle" transform="translate(257.4545,381.947)" font-family="Segoe UI" font-size="12" font-weight="400" fill="black">01. December</text>
  <text dominant-baseline="hanging" text-anchor="middle" transform="translate(318.4599,381.947)" font-family="Segoe UI" font-size="12" font-weight="400" fill="black">01. January</text>
  <text dominant-baseline="hanging" text-anchor="middle" transform="translate(379.4652,381.947)" font-family="Segoe UI" font-size="12" font-weight="400" fill="black">01. February</text>
  <text dominant-baseline="hanging" text-anchor="middle" transform="translate(434.5668,381.947)" font-family="Segoe UI" font-size="12" font-weight="400" fill="black">01. March</text>
  <text dominant-baseline="hanging" text-anchor="middle" transform="translate(495.5722,381.947)" font-family="Segoe UI" font-size="12" font-weight="400" fill="black">01. April</text>
  <text dominant-baseline="hanging" text-anchor="middle" transform="translate(554.6096,381.947)" font-family="Segoe UI" font-size="12" font-weight="400" fill="black">01. May</text>
  <polyline points="78.3743,370.947 78.3743,377.947" style="fill:none;stroke:black;stroke-width:1" />
  <polyline points="137.4117,370.947 137.4117,377.947" style="fill:none;stroke:black;stroke-width:1" />
  <polyline points="198.4171,370.947 198.4171,377.947" style="fill:none;stroke:black;stroke-width:1" />
  <polyline points="257.4545,370.947 257.4545,377.947" style="fill:none;stroke:black;stroke-width:1" />
  <polyline points="318.4599,370.947 318.4599,377.947" style="fill:none;stroke:black;stroke-width:1" />
  <polyline points="379.4652,370.947 379.4652,377.947" style="fill:none;stroke:black;stroke-width:1" />
  <polyline points="434.5668,370.947 434.5668,377.947" style="fill:none;stroke:black;stroke-width:1" />
  <polyline points="495.5722,370.947 495.5722,377.947" style="fill:none;stroke:black;stroke-width:1" />
  <polyline points="554.6096,370.947 554.6096,377.947" style="fill:none;stroke:black;stroke-width:1" />
  <polyline points="39.016,363.4208 42.9518,360.5537 48.8556,362.4651 50.8235,360.5537 52.7914,361.828 54.7593,360.2352 56.7272,360.5537 62.631,360.8723 64.5989,363.4208 66.5668,363.7394 68.5347,363.1023 70.5026,363.1023 76.4064,365.3322 78.3743,366.2879 80.3422,366.2879 82.3101,365.6508 84.278,365.9693 90.1818,365.9693 92.1497,367.5622 94.1176,366.6065 96.0855,364.6951 98.0534,363.4208 103.9572,360.2352 105.9251,358.0052 107.893,354.8195 109.8609,354.501 111.8288,353.5453 117.7326,356.4124 119.7005,357.0495 121.6684,356.7309 123.6363,355.4567 125.6042,353.8638 131.508,346.2183 133.4759,347.174 135.4438,347.4925 137.4117,342.714 139.3796,338.2541 145.2834,333.1571 147.2513,337.617 149.2192,333.4756 151.1871,329.0157 153.155,327.7414 159.0588,318.1845 161.0267,325.5115 162.9946,321.6887 164.9625,313.0874 166.9304,300.6633 172.8342,284.735 174.8021,285.6907 176.77,283.7793 178.7379,269.1253 180.7059,266.2582 186.6096,223.2518 188.5775,235.0387 190.5454,235.0387 192.5133,231.5345 194.4813,212.4206 200.385,218.4733 202.3529,250.3299 204.3208,243.3215 206.2887,234.083 208.2567,230.2603 214.1604,208.9163 216.1283,221.9775 218.0962,212.7391 222.0321,194.8994 227.9358,191.0766 229.9037,208.9163 231.8716,213.6948 233.8395,193.6252 235.8075,209.2349 241.7112,223.8889 243.6791,235.6759 245.647,231.5345 247.6149,241.4101 249.5829,226.4375 255.4866,207.6421 257.4545,218.1548 259.4224,234.4016 261.3903,228.6674 263.3583,236.9501 269.262,197.1294 271.2299,214.0134 273.1978,223.2518 275.1658,207.3235 277.1337,197.1294 283.0374,165.2728 285.0053,185.3425 286.9732,192.988 288.9412,182.1568 290.9091,164.9542 296.8128,140.4247 298.7807,159.2201 300.7486,175.1484 310.5882,139.469 312.5561,156.6715 314.524,169.4142 316.492,156.0344 324.3636,156.353 326.3315,173.5555 328.2994,197.7665 330.2674,203.1822 332.2353,184.7053 340.1069,220.0661 342.0748,236.313 344.0428,229.3046 346.0107,247.1443 351.9144,257.6569 353.8823,276.1338 355.8502,280.9122 357.8182,279.638 359.7861,276.7709 365.6898,276.4523 369.6257,283.7793 371.5936,270.3996 373.5615,261.7983 379.4652,263.0725 381.4331,277.7266 383.4011,290.4692 385.369,284.4165 387.3369,284.4165 393.2406,295.8848 395.2085,304.1676 397.1765,299.3891 399.1444,289.8321 401.1123,280.2751 407.016,287.2836 408.9839,310.8574 410.9519,309.5832 412.9198,302.8933 414.8877,317.2288 420.7914,323.2815 422.7593,329.0157 424.7273,325.1929 426.6952,323.9186 428.6631,325.5115 434.5668,327.1043 436.5347,335.0684 438.5027,329.6528 440.4706,312.4503 442.4385,311.4946 448.3422,298.4334 450.3101,298.4334 452.2781,293.3363 454.246,285.3722 456.2139,275.4966 462.1176,268.8067 464.0856,269.7624 466.0535,270.3996 468.0214,250.3299 469.9893,236.6316 475.893,219.7476 477.861,220.0661 479.8289,221.3404 481.7968,199.3594 483.7647,195.218 489.6684,192.3509 491.6364,214.9691 493.6043,219.429 495.5722,211.7834 497.5401,188.5281 505.4118,174.1927 507.3797,176.7412 509.3476,153.4859 511.3155,148.3888 517.2192,142.6546 519.1872,144.2475 521.1551,126.7263 523.123,113.6651 525.0909,116.2137 530.9946,99.9668 532.9626,95.1883 534.9305,72.8887 536.8984,44.5363 538.8663,32.4308 544.77,42.3064 546.738,49.3148 548.7059,66.1988 550.6738,77.6672 552.6417,71.2959 558.5455,109.8423 560.5134,105.701 562.4813,125.7706 564.4492,134.6905 566.4171,148.3888 572.3209,149.0259 574.2888,175.7855 576.2567,170.6884 580.1925,185.3425 586.0963,171.9627 588.0642,185.661 590.0321,186.2982 592,180.564" style="fill:none;stroke:rgb(31,119,180);stroke-width:2;stroke-linejoin:bevel" />
  <text dominant-baseline="hanging" text-anchor="middle" transform="translate(315.508,8)" font-family="Segoe UI" font-size="18" font-weight="700" fill="black">Aktive Fälle Stadt Aachen 20.05.2021</text>
  <polygon points="39.016,29.0795 592,29.0795 592,370.947 39.016,370.947" style="fill:none;stroke:black;stroke-width:1" />
  <polygon points="47.016,37.0795 233.487,37.0795 233.487,63.1325 47.016,63.1325" style="fill:none;stroke:none;" />
  <text dominant-baseline="hanging" text-anchor="start" transform="translate(75.016,45.0795)" font-family="Segoe UI" font-size="12" font-weight="400" fill="black">Aktive Fälle Stadt Aachen 20.05.2021</text>
  <polyline points="55.016,50.106 71.016,50.106" style="fill:none;stroke:rgb(31,119,180);stroke-width:2" />
</svg>