<?xml version="1.0" encoding="utf-8" standalone="no"?>
<!DOCTYPE svg PUBLIC "-//W3C//DTD SVG 1.1//EN" "http://www.w3.org/Graphics/SVG/1.1/DTD/svg11.dtd">
<svg width="600" height="400" version="1.1" xmlns:xlink="http://www.w3.org/1999/xlink" xmlns="http://www.w3.org/2000/svg">
  <rect x="0" y="0" width="600" height="400" style="fill:rgb(255,255,255);stroke:none;" />
  <polyline points="34.012,365.7474 30.012,365.7474" style="fill:none;stroke:black;stroke-width:1" />
  <polyline points="34.012,353.6488 30.012,353.6488" style="fill:none;stroke:black;stroke-width:1" />
  <polyline points="34.012,341.5502 30.012,341.5502" style="fill:none;stroke:black;stroke-width:1" />
  <polyline points="34.012,329.4516 30.012,329.4516" style="fill:none;stroke:black;stroke-width:1" />
  <polyline points="34.012,305.2544 30.012,305.2544" style="fill:none;stroke:black;stroke-width:1" />
  <polyline points="34.012,293.1558 30.012,293.1558" style="fill:none;stroke:black;stroke-width:1" />
  <polyline points="34.012,281.0571 30.012,281.0571" style="fill:none;stroke:black;stroke-width:1" />
  <polyline points="34.012,268.9585 30.012,268.9585" style="fill:none;stroke:black;stroke-width:1" />
  <polyline points="34.012,244.7613 30.012,244.7613" style="fill:none;stroke:black;stroke-width:1" />
  <polyline points="34.012,232.6627 30.012,232.6627" style="fill:none;stroke:black;stroke-width:1" />
  <polyline points="34.012,220.5641 30.012,220.5641" style="fill:none;stroke:black;stroke-width:1" />
  <polyline points="34.012,208.4655 30.012,208.4655" style="fill:none;stroke:black;stroke-width:1" />
  <polyline points="34.012,184.2683 30.012,184.2683" style="fill:none;stroke:black;stroke-width:1" />
  <polyline points="34.012,172.1697 30.012,172.1697" style="fill:none;stroke:black;stroke-width:1" />
  <polyline points="34.012,160.0711 30.012,160.0711" style="fill:none;stroke:black;stroke-width:1" />
  <polyline points="34.012,147.9725 30.012,147.9725" style="fill:none;stroke:black;stroke-width:1" />
  <polyline points="34.012,123.7753 30.012,123.7753" style="fill:none;stroke:black;stroke-width:1" />
  <polyline points="34.012,111.6767 30.012,111.6767" style="fill:none;stroke:black;stroke-width:1" />
  <polyline points="34.012,99.5781 30.012,99.5781" style="fill:none;stroke:black;stroke-width:1" />
  <polyline points="34.012,87.4795 30.012,87.4795" style="fill:none;stroke:black;stroke-width:1" />
  <polyline points="34.012,63.2823 30.012,63.2823" style="fill:none;stroke:black;stroke-width:1" />
  <polyline points="34.012,51.1837 30.012,51.1837" style="fill:none;stroke:black;stroke-width:1" />
  <polyline points="34.012,39.085 30.012,39.085" style="fill:none;stroke:black;stroke-width:1" />
  <text dominant-baseline="middle" text-anchor="end" transform="translate(23.012,317.353)" font-family="Segoe UI" font-size="12" font-weight="400" fill="black">100</text>
  <text dominant-baseline="middle" text-anchor="end" transform="translate(23.012,256.8599)" font-family="Segoe UI" font-size="12" font-weight="400" fill="black">200</text>
  <text dominant-baseline="middle" text-anchor="end" transform="translate(23.012,196.3669)" font-family="Segoe UI" font-size="12" font-weight="400" fill="black">300</text>
  <text dominant-baseline="middle" text-anchor="end" transform="translate(23.012,135.8739)" font-family="Segoe UI" font-size="12" font-weight="400" fill="black">400</text>
  <text dominant-baseline="middle" text-anchor="end" transform="translate(23.012,75.3809)" font-family="Segoe UI" font-size="12" font-weight="400" fill="black">500</text>
  <polyline points="34.012,317.353 27.012,317.353" style="fill:none;stroke:black;stroke-width:1" />
  <polyline points="34.012,256.8599 27.012,256.8599" style="fill:none;stroke:black;stroke-width:1" />
  <polyline points="34.012,196.3669 27.012,196.3669" style="fill:none;stroke:black;stroke-width:1" />
  <polyline points="34.012,135.8739 27.012,135.8739" style="fill:none;stroke:black;stroke-width:1" />
  <polyline points="34.012,75.3809 27.012,75.3809" style="fill:none;stroke:black;stroke-width:1" />
  <text dominant-baseline="hanging" text-anchor="middle" transform="translate(51.0933,381.947)" font-family="Segoe UI" font-size="12" font-weight="400" fill="black">15. August</text>
  <text dominant-baseline="hanging" text-anchor="middle" transform="translate(130.8058,381.947)" font-family="Segoe UI" font-size="12" font-weight="400" fill="black">29. August</text>
  <text dominant-baseline="hanging" text-anchor="middle" transform="translate(210.5184,381.947)" font-family="Segoe UI" font-size="12" font-weight="400" fill="black">12. September</text>
  <text dominant-baseline="hanging" text-anchor="middle" transform="translate(290.231,381.947)" font-family="Segoe UI" font-size="12" font-weight="400" fill="black">26. September</text>
  <text dominant-baseline="hanging" text-anchor="middle" transform="translate(369.9436,381.947)" font-family="Segoe UI" font-size="12" font-weight="400" fill="black">10. October</text>
  <text dominant-baseline="hanging" text-anchor="middle" transform="translate(449.6561,381.947)" font-family="Segoe UI" font-size="12" font-weight="400" fill="black">24. October</text>
  <text dominant-baseline="hanging" text-anchor="middle" transform="translate(529.3687,381.947)" font-family="Segoe UI" font-size="12" font-weight="400" fill="black">07. November</text>
  <polyline points="51.0933,370.947 51.0933,377.947" style="fill:none;stroke:black;stroke-width:1" />
  <polyline points="130.8058,370.947 130.8058,377.947" style="fill:none;stroke:black;stroke-width:1" />
  <polyline points="210.5184,370.947 210.5184,377.947" style="fill:none;stroke:black;stroke-width:1" />
  <polyline points="290.231,370.947 290.231,377.947" style="fill:none;stroke:black;stroke-width:1" />
  <polyline points="369.9436,370.947 369.9436,377.947" style="fill:none;stroke:black;stroke-width:1" />
  <polyline points="449.6561,370.947 449.6561,377.947" style="fill:none;stroke:black;stroke-width:1" />
  <polyline points="529.3687,370.947 529.3687,377.947" style="fill:none;stroke:black;stroke-width:1" />
  <polyline points="34.012,359.6981 45.3995,354.2537 62.4808,357.8833 68.1745,354.2537 73.8683,356.6734 79.562,353.6488 85.2558,354.2537 102.3371,354.8586 108.0308,359.6981 113.7246,360.303 119.4183,359.0931 125.1121,359.0931 142.1933,363.3277 147.8871,365.1425 153.5809,365.1425 159.2746,363.9326 164.9684,364.5375 182.0496,364.5375 187.7434,367.5622 193.4371,365.7474 199.1309,362.1178 204.8247,359.6981 221.9059,353.6488 227.5997,349.4143 233.2934,343.365 238.9872,342.76 244.6809,340.9452 261.7622,346.3896 267.456,347.5995 273.1497,346.9945 278.8435,344.5748 284.5372,341.5502 301.6185,327.0318 307.3122,328.8466 313.006,329.4516 318.6998,320.3776 324.3935,311.9086 341.4748,302.2297 347.1685,310.6987 352.8623,302.8346 358.556,294.3656 364.2498,291.9459 381.3311,273.798 387.0248,287.7114 392.7186,280.4522 398.4123,264.1191 404.1061,240.5268 421.1873,210.2803 426.8811,212.0951 432.5749,208.4655 438.2686,180.6387 443.9624,175.1944 461.0436,93.5288 466.7374,115.9112 472.4311,115.9112 478.1249,109.257 483.8187,72.9611 500.8999,84.4548 506.5937,144.9478 512.2874,131.6394 517.9812,114.0964 523.6749,106.8372 540.7562,66.3069 546.45,91.109 552.1437,73.5661 563.5312,39.69 580.6125,32.4308 586.3062,66.3069 592,75.3809" style="fill:none;stroke:rgb(31,119,180);stroke-width:2;stroke-linejoin:bevel" />
  <text dominant-baseline="hanging" text-anchor="middle" transform="translate(313.006,8)" font-family="Segoe UI" font-size="18" font-weight="700" fill="black">Aktive Fälle Stadt Aachen 18.11.2020</text>
  <polygon points="34.012,29.0795 592,29.0795 592,370.947 34.012,370.947" style="fill:none;stroke:black;stroke-width:1" />
  <polygon points="42.012,37.0795 228.483,37.0795 228.483,63.1325 42.012,63.1325" style="fill:none;stroke:none;" />
  <text dominant-baseline="hanging" text-anchor="start" transform="translate(70.012,45.0795)" font-family="Segoe UI" font-size="12" font-weight="400" fill="black">Aktive Fälle Stadt Aachen 18.11.2020</text>
  <polyline points="50.012,50.106 66.012,50.106" style="fill:none;stroke:rgb(31,119,180);stroke-width:2" />
</svg>