<?xml version="1.0" encoding="utf-8" standalone="no"?>
<!DOCTYPE svg PUBLIC "-//W3C//DTD SVG 1.1//EN" "http://www.w3.org/Graphics/SVG/1.1/DTD/svg11.dtd">
<svg width="600" height="400" version="1.1" xmlns:xlink="http://www.w3.org/1999/xlink" xmlns="http://www.w3.org/2000/svg">
  <rect x="0" y="0" width="600" height="400" style="fill:rgb(255,255,255);stroke:none;" />
  <polyline points="34.012,361.6154 30.012,361.6154" style="fill:none;stroke:black;stroke-width:1" />
  <polyline points="34.012,337.5242 30.012,337.5242" style="fill:none;stroke:black;stroke-width:1" />
  <polyline points="34.012,313.433 30.012,313.433" style="fill:none;stroke:black;stroke-width:1" />
  <polyline points="34.012,265.2506 30.012,265.2506" style="fill:none;stroke:black;stroke-width:1" />
  <polyline points="34.012,241.1593 30.012,241.1593" style="fill:none;stroke:black;stroke-width:1" />
  <polyline points="34.012,217.0681 30.012,217.0681" style="fill:none;stroke:black;stroke-width:1" />
  <polyline points="34.012,168.8857 30.012,168.8857" style="fill:none;stroke:black;stroke-width:1" />
  <polyline points="34.012,144.7944 30.012,144.7944" style="fill:none;stroke:black;stroke-width:1" />
  <polyline points="34.012,120.7032 30.012,120.7032" style="fill:none;stroke:black;stroke-width:1" />
  <polyline points="34.012,72.5208 30.012,72.5208" style="fill:none;stroke:black;stroke-width:1" />
  <polyline points="34.012,48.4296 30.012,48.4296" style="fill:none;stroke:black;stroke-width:1" />
  <text dominant-baseline="middle" text-anchor="end" transform="translate(23.012,289.3418)" font-family="Segoe UI" font-size="12" font-weight="400" fill="black">200</text>
  <text dominant-baseline="middle" text-anchor="end" transform="translate(23.012,192.9769)" font-family="Segoe UI" font-size="12" font-weight="400" fill="black">400</text>
  <text dominant-baseline="middle" text-anchor="end" transform="translate(23.012,96.612)" font-family="Segoe UI" font-size="12" font-weight="400" fill="black">600</text>
  <polyline points="34.012,289.3418 27.012,289.3418" style="fill:none;stroke:black;stroke-width:1" />
  <polyline points="34.012,192.9769 27.012,192.9769" style="fill:none;stroke:black;stroke-width:1" />
  <polyline points="34.012,96.612 27.012,96.612" style="fill:none;stroke:black;stroke-width:1" />
  <polyline points="34.012,85.0482 591.8193,371.2519 591.8208,366.9155 591.823,369.8064 591.8238,366.9155 591.8283,367.3973 591.8291,371.2519 591.8314,370.7701 591.8336,374.1429 591.8389,375.1065 591.8397,377.5156 591.8404,376.0702 591.8412,373.1792 591.842,371.2519 591.8442,366.4337 591.845,363.0609 591.8457,358.2427 591.8472,356.3154 591.8495,360.6518 591.8518,359.2063 591.8525,356.7972 591.8548,345.2334 591.8563,347.1607 591.8571,339.9333 591.8578,333.1878 591.8601,325.4786 591.8609,332.2241 591.8616,325.9604 591.8624,319.2149 591.8631,317.2876 591.8654,302.8329 591.8662,313.9148 591.8669,308.1329 591.8677,295.1237 591.8684,276.3325 591.8707,252.2413 591.8722,250.7958 591.873,228.6319 591.8737,224.2955 591.876,159.2492 591.8767,177.0767 591.8775,177.0767 591.8783,171.7766 591.879,142.8672 591.8813,152.0218 591.882,200.2043 591.8828,189.6041 591.8835,175.6312 591.8843,169.8493 591.8866,137.5671 591.8873,157.3219 591.8881,143.349 591.8896,116.3668 591.8919,110.5849 591.8926,137.5671 591.8934,144.7944 591.8941,114.4395 591.8949,138.0489 591.8972,160.2128 591.8979,178.0403 591.8987,171.7766 591.8994,186.7132 591.9002,164.0674 591.9025,135.6398 591.9032,151.54 591.904,176.113 591.9047,167.4402 591.9055,179.9676 591.9077,119.7396 591.9085,145.2763 591.9093,159.2492 591.91,135.158 591.9108,119.7396 591.913,71.5571 591.9138,101.9121 591.9145,113.4759 591.9153,97.0938 591.9161,71.0753 591.9183,33.9748 591.9191,62.4025 591.9198,86.4937 591.9236,32.5294 591.9244,58.5479 591.9251,77.8209 591.9259,57.5842 591.9289,58.0661 591.9297,84.0846 591.9304,120.7032 591.9312,128.8942 591.9319,100.9484 591.935,154.4309 591.9357,179.004 591.9365,168.4038 591.9372,195.386 591.9395,211.2862 591.9403,239.232 591.941,246.4594 591.9418,244.5321 591.9425,240.1957 591.9448,239.7139 591.9463,250.7958 591.9471,230.5592 591.9478,217.5499 591.9501,219.4772 591.9508,241.6412 591.9516,260.9141 591.9524,251.7595 591.9531,251.7595 591.9554,269.1051 591.9561,281.6326 591.9569,274.4052 591.9577,259.9505 591.9584,245.4958 591.9607,256.0959 591.9614,291.7509 591.9622,289.8236 591.9629,279.7053 591.9637,301.3874 591.966,310.542 591.9667,319.2149 591.9675,313.433 591.969,313.9148 591.9713,316.3239 591.972,328.3695 591.9728,320.1785 591.9735,294.16 591.9743,292.7145 591.9766,272.9597 591.9773,272.9597 591.9781,265.2506 591.9788,253.2049 591.9796,238.2684 591.9819,228.1501 591.9826,229.5955 591.9834,230.5592 591.9841,200.2043 591.9849,179.4858 591.9871,153.9491 591.9879,154.4309 591.9887,156.3582 591.9894,123.1124 591.9902,116.8486 591.9924,112.5122 591.9932,146.7217 591.994,153.4673 591.9947,141.9035 591.9955,106.7303 591.9985,85.0482 591.9992,88.9028 592,53.7296" style="fill:none;stroke:rgb(31,119,180);stroke-width:2;stroke-linejoin:bevel" />
  <text dominant-baseline="hanging" text-anchor="middle" transform="translate(313.006,8)" font-family="Segoe UI" font-size="18" font-weight="700" fill="black">Aktive Fälle Stadt Aachen 08.04.2021</text>
  <polygon points="34.012,29.0795 592,29.0795 592,381 34.012,381" style="fill:none;stroke:black;stroke-width:1" />
  <polygon points="42.012,37.0795 228.483,37.0795 228.483,63.1325 42.012,63.1325" style="fill:none;stroke:none;" />
  <text dominant-baseline="hanging" text-anchor="start" transform="translate(70.012,45.0795)" font-family="Segoe UI" font-size="12" font-weight="400" fill="black">Aktive Fälle Stadt Aachen 08.04.2021</text>
  <polyline points="50.012,50.106 66.012,50.106" style="fill:none;stroke:rgb(31,119,180);stroke-width:2" />
</svg>