<?xml version="1.0" encoding="utf-8" standalone="no"?>
<!DOCTYPE svg PUBLIC "-//W3C//DTD SVG 1.1//EN" "http://www.w3.org/Graphics/SVG/1.1/DTD/svg11.dtd">
<svg width="600" height="400" version="1.1" xmlns:xlink="http://www.w3.org/1999/xlink" xmlns="http://www.w3.org/2000/svg">
  <rect x="0" y="0" width="600" height="400" style="fill:rgb(255,255,255);stroke:none;" />
  <polyline points="34.012,352.1162 30.012,352.1162" style="fill:none;stroke:black;stroke-width:1" />
  <polyline points="34.012,328.7131 30.012,328.7131" style="fill:none;stroke:black;stroke-width:1" />
  <polyline points="34.012,305.3101 30.012,305.3101" style="fill:none;stroke:black;stroke-width:1" />
  <polyline points="34.012,258.5041 30.012,258.5041" style="fill:none;stroke:black;stroke-width:1" />
  <polyline points="34.012,235.101 30.012,235.101" style="fill:none;stroke:black;stroke-width:1" />
  <polyline points="34.012,211.698 30.012,211.698" style="fill:none;stroke:black;stroke-width:1" />
  <polyline points="34.012,164.892 30.012,164.892" style="fill:none;stroke:black;stroke-width:1" />
  <polyline points="34.012,141.4889 30.012,141.4889" style="fill:none;stroke:black;stroke-width:1" />
  <polyline points="34.012,118.0859 30.012,118.0859" style="fill:none;stroke:black;stroke-width:1" />
  <polyline points="34.012,71.2798 30.012,71.2798" style="fill:none;stroke:black;stroke-width:1" />
  <polyline points="34.012,47.8768 30.012,47.8768" style="fill:none;stroke:black;stroke-width:1" />
  <text dominant-baseline="middle" text-anchor="end" transform="translate(23.012,281.9071)" font-family="Segoe UI" font-size="12" font-weight="400" fill="black">200</text>
  <text dominant-baseline="middle" text-anchor="end" transform="translate(23.012,188.295)" font-family="Segoe UI" font-size="12" font-weight="400" fill="black">400</text>
  <text dominant-baseline="middle" text-anchor="end" transform="translate(23.012,94.6829)" font-family="Segoe UI" font-size="12" font-weight="400" fill="black">600</text>
  <polyline points="34.012,281.9071 27.012,281.9071" style="fill:none;stroke:black;stroke-width:1" />
  <polyline points="34.012,188.295 27.012,188.295" style="fill:none;stroke:black;stroke-width:1" />
  <polyline points="34.012,94.6829 27.012,94.6829" style="fill:none;stroke:black;stroke-width:1" />
  <text dominant-baseline="hanging" text-anchor="middle" transform="translate(94.6629,381.947)" font-family="Segoe UI" font-size="12" font-weight="400" fill="black">01. September</text>
  <text dominant-baseline="hanging" text-anchor="middle" transform="translate(185.6392,381.947)" font-family="Segoe UI" font-size="12" font-weight="400" fill="black">01. October</text>
  <text dominant-baseline="hanging" text-anchor="middle" transform="translate(279.648,381.947)" font-family="Segoe UI" font-size="12" font-weight="400" fill="black">01. November</text>
  <text dominant-baseline="hanging" text-anchor="middle" transform="translate(370.6243,381.947)" font-family="Segoe UI" font-size="12" font-weight="400" fill="black">01. December</text>
  <text dominant-baseline="hanging" text-anchor="middle" transform="translate(464.6332,381.947)" font-family="Segoe UI" font-size="12" font-weight="400" fill="black">01. January</text>
  <text dominant-baseline="hanging" text-anchor="middle" transform="translate(558.642,381.947)" font-family="Segoe UI" font-size="12" font-weight="400" fill="black">01. February</text>
  <polyline points="94.6629,370.947 94.6629,377.947" style="fill:none;stroke:black;stroke-width:1" />
  <polyline points="185.6392,370.947 185.6392,377.947" style="fill:none;stroke:black;stroke-width:1" />
  <polyline points="279.648,370.947 279.648,377.947" style="fill:none;stroke:black;stroke-width:1" />
  <polyline points="370.6243,370.947 370.6243,377.947" style="fill:none;stroke:black;stroke-width:1" />
  <polyline points="464.6332,370.947 464.6332,377.947" style="fill:none;stroke:black;stroke-width:1" />
  <polyline points="558.642,370.947 558.642,377.947" style="fill:none;stroke:black;stroke-width:1" />
  <polyline points="34.012,361.4774 40.0771,357.2648 49.1747,360.0732 52.2073,357.2648 55.2398,359.1371 58.2723,356.7968 61.3049,357.2648 70.4025,357.7329 73.4351,361.4774 76.4676,361.9454 79.5002,361.0093 82.5327,361.0093 91.6303,364.2857 94.6629,365.6899 97.6954,365.6899 100.728,364.7538 103.7605,365.2219 112.8581,365.2219 115.8907,367.5622 118.9232,366.158 121.9558,363.3496 124.9883,361.4774 134.0859,356.7968 137.1185,353.5204 140.151,348.8398 143.1836,348.3717 146.2161,346.9675 155.3137,351.1801 158.3463,352.1162 161.3788,351.6481 164.4114,349.7759 167.4439,347.4356 176.5415,336.2021 179.5741,337.6063 182.6066,338.0744 185.6392,331.0534 188.6717,324.5006 197.7693,317.0116 200.8019,323.5645 203.8344,317.4797 206.867,310.9268 209.8995,309.0546 218.9972,295.0128 222.0297,305.7782 225.0622,300.1615 228.0948,287.5238 231.1273,269.2695 240.225,245.8664 243.2575,247.2706 246.29,244.4622 249.3226,222.9315 252.3551,218.7189 261.4528,155.5307 264.4853,172.849 267.5178,172.849 270.5504,167.7003 273.5829,139.6167 282.6806,148.5098 285.7131,195.3159 288.7457,185.0186 291.7782,171.4448 294.8107,165.8281 303.9084,134.468 306.9409,153.6585 309.9735,140.0847 316.0385,113.8734 325.1362,108.2566 328.1687,134.468 331.2013,141.4889 334.2338,112.0011 337.2663,134.9361 346.364,156.4669 349.3965,173.7851 352.4291,167.7003 355.4616,182.2102 358.4942,160.2113 367.5918,132.5958 370.6243,148.0418 373.6569,171.9129 376.6894,163.4878 379.722,175.6573 388.8196,117.1498 391.8521,141.957 394.8847,155.5307 397.9172,132.1277 400.9498,117.1498 410.0474,70.3437 413.0799,99.8315 416.1125,111.065 419.145,95.1509 422.1776,69.8757 431.2752,33.835 434.3077,61.4506 437.3403,84.8536 452.503,32.4308 455.5355,57.7061 458.5681,76.4285 461.6006,56.77 473.7308,57.238 476.7633,82.5133 479.7959,118.0859 482.8284,126.0429 485.861,98.8954 497.9912,150.8501 501.0237,174.7212 504.0562,164.4239 507.0888,190.6353 516.1864,206.0813 519.219,233.2288 522.2515,240.2497 525.284,238.3775 528.3166,234.1649 537.4142,233.6969 543.4793,244.4622 546.5118,224.8037 549.5444,212.1661 558.642,214.0383 561.6746,235.5691 564.7071,254.2915 567.7397,245.3984 570.7722,245.3984 579.8698,262.2485 582.9024,274.4181 585.9349,267.3972 588.9675,253.3554 592,239.3136" style="fill:none;stroke:rgb(31,119,180);stroke-width:2;stroke-linejoin:bevel" />
  <text dominant-baseline="hanging" text-anchor="middle" transform="translate(313.006,8)" font-family="Segoe UI" font-size="18" font-weight="700" fill="black">Aktive Fälle Stadt Aachen 12.02.2021</text>
  <polygon points="34.012,29.0795 592,29.0795 592,370.947 34.012,370.947" style="fill:none;stroke:black;stroke-width:1" />
  <polygon points="42.012,37.0795 228.483,37.0795 228.483,63.1325 42.012,63.1325" style="fill:none;stroke:none;" />
  <text dominant-baseline="hanging" text-anchor="start" transform="translate(70.012,45.0795)" font-family="Segoe UI" font-size="12" font-weight="400" fill="black">Aktive Fälle Stadt Aachen 12.02.2021</text>
  <polyline points="50.012,50.106 66.012,50.106" style="fill:none;stroke:rgb(31,119,180);stroke-width:2" />
</svg>