<?xml version="1.0" encoding="utf-8" standalone="no"?>
<!DOCTYPE svg PUBLIC "-//W3C//DTD SVG 1.1//EN" "http://www.w3.org/Graphics/SVG/1.1/DTD/svg11.dtd">
<svg width="600" height="400" version="1.1" xmlns:xlink="http://www.w3.org/1999/xlink" xmlns="http://www.w3.org/2000/svg">
  <rect x="0" y="0" width="600" height="400" style="fill:rgb(255,255,255);stroke:none;" />
  <polyline points="39.016,357.0495 35.016,357.0495" style="fill:none;stroke:black;stroke-width:1" />
  <polyline points="39.016,341.1212 35.016,341.1212" style="fill:none;stroke:black;stroke-width:1" />
  <polyline points="39.016,325.1929 35.016,325.1929" style="fill:none;stroke:black;stroke-width:1" />
  <polyline points="39.016,293.3363 35.016,293.3363" style="fill:none;stroke:black;stroke-width:1" />
  <polyline points="39.016,277.408 35.016,277.408" style="fill:none;stroke:black;stroke-width:1" />
  <polyline points="39.016,261.4797 35.016,261.4797" style="fill:none;stroke:black;stroke-width:1" />
  <polyline points="39.016,229.6231 35.016,229.6231" style="fill:none;stroke:black;stroke-width:1" />
  <polyline points="39.016,213.6948 35.016,213.6948" style="fill:none;stroke:black;stroke-width:1" />
  <polyline points="39.016,197.7665 35.016,197.7665" style="fill:none;stroke:black;stroke-width:1" />
  <polyline points="39.016,165.9099 35.016,165.9099" style="fill:none;stroke:black;stroke-width:1" />
  <polyline points="39.016,149.9816 35.016,149.9816" style="fill:none;stroke:black;stroke-width:1" />
  <polyline points="39.016,134.0533 35.016,134.0533" style="fill:none;stroke:black;stroke-width:1" />
  <polyline points="39.016,102.1968 35.016,102.1968" style="fill:none;stroke:black;stroke-width:1" />
  <polyline points="39.016,86.2685 35.016,86.2685" style="fill:none;stroke:black;stroke-width:1" />
  <polyline points="39.016,70.3402 35.016,70.3402" style="fill:none;stroke:black;stroke-width:1" />
  <polyline points="39.016,38.4836 35.016,38.4836" style="fill:none;stroke:black;stroke-width:1" />
  <polyline points="73.9046,370.947 73.9046,374.947" style="fill:none;stroke:black;stroke-width:1" />
  <polyline points="180.3148,370.947 180.3148,374.947" style="fill:none;stroke:black;stroke-width:1" />
  <polyline points="286.7249,370.947 286.7249,374.947" style="fill:none;stroke:black;stroke-width:1" />
  <polyline points="389.6462,370.947 389.6462,374.947" style="fill:none;stroke:black;stroke-width:1" />
  <polyline points="496.0564,370.947 496.0564,374.947" style="fill:none;stroke:black;stroke-width:1" />
  <text dominant-baseline="middle" text-anchor="end" transform="translate(28.016,309.2646)" font-family="Segoe UI" font-size="12" font-weight="400" fill="black">200</text>
  <text dominant-baseline="middle" text-anchor="end" transform="translate(28.016,245.5514)" font-family="Segoe UI" font-size="12" font-weight="400" fill="black">400</text>
  <text dominant-baseline="middle" text-anchor="end" transform="translate(28.016,181.8382)" font-family="Segoe UI" font-size="12" font-weight="400" fill="black">600</text>
  <text dominant-baseline="middle" text-anchor="end" transform="translate(28.016,118.125)" font-family="Segoe UI" font-size="12" font-weight="400" fill="black">800</text>
  <text dominant-baseline="middle" text-anchor="end" transform="translate(28.016,54.4119)" font-family="Segoe UI" font-size="12" font-weight="400" fill="black">1000</text>
  <polyline points="39.016,309.2646 32.016,309.2646" style="fill:none;stroke:black;stroke-width:1" />
  <polyline points="39.016,245.5514 32.016,245.5514" style="fill:none;stroke:black;stroke-width:1" />
  <polyline points="39.016,181.8382 32.016,181.8382" style="fill:none;stroke:black;stroke-width:1" />
  <polyline points="39.016,118.125 32.016,118.125" style="fill:none;stroke:black;stroke-width:1" />
  <polyline points="39.016,54.4119 32.016,54.4119" style="fill:none;stroke:black;stroke-width:1" />
  <text dominant-baseline="hanging" text-anchor="middle" transform="translate(126.2375,381.947)" font-family="Segoe UI" font-size="12" font-weight="400" fill="black">01. October</text>
  <text dominant-baseline="hanging" text-anchor="middle" transform="translate(232.6476,381.947)" font-family="Segoe UI" font-size="12" font-weight="400" fill="black">01. December</text>
  <text dominant-baseline="hanging" text-anchor="middle" transform="translate(340.8022,381.947)" font-family="Segoe UI" font-size="12" font-weight="400" fill="black">01. February</text>
  <text dominant-baseline="hanging" text-anchor="middle" transform="translate(443.7235,381.947)" font-family="Segoe UI" font-size="12" font-weight="400" fill="black">01. April</text>
  <text dominant-baseline="hanging" text-anchor="middle" transform="translate(550.1337,381.947)" font-family="Segoe UI" font-size="12" font-weight="400" fill="black">01. June</text>
  <polyline points="126.2375,370.947 126.2375,377.947" style="fill:none;stroke:black;stroke-width:1" />
  <polyline points="232.6476,370.947 232.6476,377.947" style="fill:none;stroke:black;stroke-width:1" />
  <polyline points="340.8022,370.947 340.8022,377.947" style="fill:none;stroke:black;stroke-width:1" />
  <polyline points="443.7235,370.947 443.7235,377.947" style="fill:none;stroke:black;stroke-width:1" />
  <polyline points="550.1337,370.947 550.1337,377.947" style="fill:none;stroke:black;stroke-width:1" />
  <polyline points="39.016,363.4208 42.5049,360.5537 47.7381,362.4651 49.4826,360.5537 51.227,361.828 52.9714,360.2352 54.7159,360.5537 59.9491,360.8723 61.6936,363.4208 63.438,363.7394 65.1824,363.1023 66.9269,363.1023 72.1602,365.3322 73.9046,366.2879 75.649,366.2879 77.3934,365.6508 79.1379,365.9693 84.3712,365.9693 86.1156,367.5622 87.86,366.6065 89.6044,364.6951 91.3489,363.4208 96.5822,360.2352 98.3266,358.0052 100.071,354.8195 101.8154,354.501 103.5599,353.5453 108.7932,356.4124 110.5376,357.0495 112.282,356.7309 114.0264,355.4567 115.7709,353.8638 121.0042,346.2183 122.7486,347.174 124.493,347.4925 126.2375,342.714 127.9819,338.2541 133.2152,333.1571 134.9596,337.617 136.704,333.4756 138.4485,329.0157 140.1929,327.7414 145.4262,318.1845 147.1706,325.5115 148.915,321.6887 150.6595,313.0874 152.4039,300.6633 157.6372,284.735 159.3816,285.6907 161.126,283.7793 162.8705,269.1253 164.6149,266.2582 169.8482,223.2518 171.5926,235.0387 173.337,235.0387 175.0815,231.5345 176.8259,212.4206 182.0592,218.4733 183.8036,250.3299 185.548,243.3215 187.2925,234.083 189.0369,230.2603 194.2702,208.9163 196.0146,221.9775 197.759,212.7391 201.2479,194.8994 206.4812,191.0766 208.2256,208.9163 209.97,213.6948 211.7145,193.6252 213.4589,209.2349 218.6922,223.8889 220.4366,235.6759 222.181,231.5345 223.9255,241.4101 225.6699,226.4375 230.9032,207.6421 232.6476,218.1548 234.3921,234.4016 236.1365,228.6674 237.8809,236.9501 243.1142,197.1294 244.8586,214.0134 246.6031,223.2518 248.3475,207.3235 250.0919,197.1294 255.3252,165.2728 257.0696,185.3425 258.8141,192.988 260.5585,182.1568 262.3029,164.9542 267.5362,140.4247 269.2806,159.2201 271.0251,175.1484 279.7472,139.469 281.4916,156.6715 283.2361,169.4142 284.9805,156.0344 291.9582,156.353 293.7026,173.5555 295.4471,197.7665 297.1915,203.1822 298.9359,184.7053 305.9136,220.0661 307.6581,236.313 309.4025,229.3046 311.1469,247.1443 316.3802,257.6569 318.1246,276.1338 319.8691,280.9122 321.6135,279.638 323.3579,276.7709 328.5912,276.4523 332.0801,283.7793 333.8245,270.3996 335.5689,261.7983 340.8022,263.0725 342.5466,277.7266 344.2911,290.4692 346.0355,284.4165 347.7799,284.4165 353.0132,295.8848 354.7577,304.1676 356.5021,299.3891 358.2465,289.8321 359.9909,280.2751 365.2242,287.2836 366.9687,310.8574 368.7131,309.5832 370.4575,302.8933 372.2019,317.2288 377.4352,323.2815 379.1797,329.0157 380.9241,325.1929 382.6685,323.9186 384.4129,325.5115 389.6462,327.1043 391.3907,335.0684 393.1351,329.6528 394.8795,312.4503 396.6239,311.4946 401.8572,298.4334 403.6017,298.4334 405.3461,293.3363 407.0905,285.3722 408.835,275.4966 414.0682,268.8067 415.8127,269.7624 417.5571,270.3996 419.3015,250.3299 421.046,236.6316 426.2792,219.7476 428.0237,220.0661 429.7681,221.3404 431.5125,199.3594 433.257,195.218 438.4902,192.3509 440.2347,214.9691 441.9791,219.429 443.7235,211.7834 445.468,188.5281 452.4457,174.1927 454.1901,176.7412 455.9345,153.4859 457.679,148.3888 462.9123,142.6546 464.6567,144.2475 466.4011,126.7263 468.1455,113.6651 469.89,116.2137 475.1233,99.9668 476.8677,95.1883 478.6121,72.8887 480.3565,44.5363 482.101,32.4308 487.3343,42.3064 489.0787,49.3148 490.8231,66.1988 492.5675,77.6672 494.312,71.2959 499.5453,109.8423 501.2897,105.701 503.0341,125.7706 504.7785,134.6905 506.523,148.3888 511.7563,149.0259 513.5007,175.7855 515.2451,170.6884 518.734,185.3425 523.9673,171.9627 525.7117,185.661 527.4561,186.2982 529.2006,180.564 530.945,185.0239 537.9227,213.3763 539.6671,232.8088 541.4116,239.8172 543.156,234.7202 548.3893,261.4797 550.1337,282.1865 551.8781,289.195 555.367,301.9376 560.6003,310.5389 562.3447,317.8659 564.0891,328.6971 565.8336,332.5199 567.578,337.2984 572.8113,338.5727 574.5557,337.617 576.3001,348.7668 578.0446,348.1297 579.789,349.7225 585.0223,350.6782 586.7667,351.9524 588.5111,352.5896 590.2556,352.9081 592,352.9081" style="fill:none;stroke:rgb(31,119,180);stroke-width:2;stroke-linejoin:bevel" />
  <text dominant-baseline="hanging" text-anchor="middle" transform="translate(315.508,8)" font-family="Segoe UI" font-size="18" font-weight="700" fill="black">Aktive Fälle Stadt Aachen 25.06.2021</text>
  <polygon points="39.016,29.0795 592,29.0795 592,370.947 39.016,370.947" style="fill:none;stroke:black;stroke-width:1" />
  <polygon points="47.016,37.0795 233.487,37.0795 233.487,63.1325 47.016,63.1325" style="fill:none;stroke:none;" />
  <text dominant-baseline="hanging" text-anchor="start" transform="translate(75.016,45.0795)" font-family="Segoe UI" font-size="12" font-weight="400" fill="black">Aktive Fälle Stadt Aachen 25.06.2021</text>
  <polyline points="55.016,50.106 71.016,50.106" style="fill:none;stroke:rgb(31,119,180);stroke-width:2" />
</svg>