<?xml version="1.0" encoding="utf-8" standalone="no"?>
<!DOCTYPE svg PUBLIC "-//W3C//DTD SVG 1.1//EN" "http://www.w3.org/Graphics/SVG/1.1/DTD/svg11.dtd">
<svg width="600" height="400" version="1.1" xmlns:xlink="http://www.w3.org/1999/xlink" xmlns="http://www.w3.org/2000/svg">
  <rect x="0" y="0" width="600" height="400" style="fill:rgb(255,255,255);stroke:none;" />
  <polyline points="39.016,357.0495 35.016,357.0495" style="fill:none;stroke:black;stroke-width:1" />
  <polyline points="39.016,341.1212 35.016,341.1212" style="fill:none;stroke:black;stroke-width:1" />
  <polyline points="39.016,325.1929 35.016,325.1929" style="fill:none;stroke:black;stroke-width:1" />
  <polyline points="39.016,293.3363 35.016,293.3363" style="fill:none;stroke:black;stroke-width:1" />
  <polyline points="39.016,277.408 35.016,277.408" style="fill:none;stroke:black;stroke-width:1" />
  <polyline points="39.016,261.4797 35.016,261.4797" style="fill:none;stroke:black;stroke-width:1" />
  <polyline points="39.016,229.6231 35.016,229.6231" style="fill:none;stroke:black;stroke-width:1" />
  <polyline points="39.016,213.6948 35.016,213.6948" style="fill:none;stroke:black;stroke-width:1" />
  <polyline points="39.016,197.7665 35.016,197.7665" style="fill:none;stroke:black;stroke-width:1" />
  <polyline points="39.016,165.9099 35.016,165.9099" style="fill:none;stroke:black;stroke-width:1" />
  <polyline points="39.016,149.9816 35.016,149.9816" style="fill:none;stroke:black;stroke-width:1" />
  <polyline points="39.016,134.0533 35.016,134.0533" style="fill:none;stroke:black;stroke-width:1" />
  <polyline points="39.016,102.1968 35.016,102.1968" style="fill:none;stroke:black;stroke-width:1" />
  <polyline points="39.016,86.2685 35.016,86.2685" style="fill:none;stroke:black;stroke-width:1" />
  <polyline points="39.016,70.3402 35.016,70.3402" style="fill:none;stroke:black;stroke-width:1" />
  <polyline points="39.016,38.4836 35.016,38.4836" style="fill:none;stroke:black;stroke-width:1" />
  <text dominant-baseline="middle" text-anchor="end" transform="translate(28.016,309.2646)" font-family="Segoe UI" font-size="12" font-weight="400" fill="black">200</text>
  <text dominant-baseline="middle" text-anchor="end" transform="translate(28.016,245.5514)" font-family="Segoe UI" font-size="12" font-weight="400" fill="black">400</text>
  <text dominant-baseline="middle" text-anchor="end" transform="translate(28.016,181.8382)" font-family="Segoe UI" font-size="12" font-weight="400" fill="black">600</text>
  <text dominant-baseline="middle" text-anchor="end" transform="translate(28.016,118.125)" font-family="Segoe UI" font-size="12" font-weight="400" fill="black">800</text>
  <text dominant-baseline="middle" text-anchor="end" transform="translate(28.016,54.4119)" font-family="Segoe UI" font-size="12" font-weight="400" fill="black">1000</text>
  <polyline points="39.016,309.2646 32.016,309.2646" style="fill:none;stroke:black;stroke-width:1" />
  <polyline points="39.016,245.5514 32.016,245.5514" style="fill:none;stroke:black;stroke-width:1" />
  <polyline points="39.016,181.8382 32.016,181.8382" style="fill:none;stroke:black;stroke-width:1" />
  <polyline points="39.016,118.125 32.016,118.125" style="fill:none;stroke:black;stroke-width:1" />
  <polyline points="39.016,54.4119 32.016,54.4119" style="fill:none;stroke:black;stroke-width:1" />
  <text dominant-baseline="hanging" text-anchor="middle" transform="translate(82.0498,381.947)" font-family="Segoe UI" font-size="12" font-weight="400" fill="black">01. September</text>
  <text dominant-baseline="hanging" text-anchor="middle" transform="translate(146.6004,381.947)" font-family="Segoe UI" font-size="12" font-weight="400" fill="black">01. October</text>
  <text dominant-baseline="hanging" text-anchor="middle" transform="translate(213.3028,381.947)" font-family="Segoe UI" font-size="12" font-weight="400" fill="black">01. November</text>
  <text dominant-baseline="hanging" text-anchor="middle" transform="translate(277.8534,381.947)" font-family="Segoe UI" font-size="12" font-weight="400" fill="black">01. December</text>
  <text dominant-baseline="hanging" text-anchor="middle" transform="translate(344.5558,381.947)" font-family="Segoe UI" font-size="12" font-weight="400" fill="black">01. January</text>
  <text dominant-baseline="hanging" text-anchor="middle" transform="translate(411.2581,381.947)" font-family="Segoe UI" font-size="12" font-weight="400" fill="black">01. February</text>
  <text dominant-baseline="hanging" text-anchor="middle" transform="translate(471.5054,381.947)" font-family="Segoe UI" font-size="12" font-weight="400" fill="black">01. March</text>
  <text dominant-baseline="hanging" text-anchor="middle" transform="translate(538.2078,381.947)" font-family="Segoe UI" font-size="12" font-weight="400" fill="black">01. April</text>
  <polyline points="82.0498,370.947 82.0498,377.947" style="fill:none;stroke:black;stroke-width:1" />
  <polyline points="146.6004,370.947 146.6004,377.947" style="fill:none;stroke:black;stroke-width:1" />
  <polyline points="213.3028,370.947 213.3028,377.947" style="fill:none;stroke:black;stroke-width:1" />
  <polyline points="277.8534,370.947 277.8534,377.947" style="fill:none;stroke:black;stroke-width:1" />
  <polyline points="344.5558,370.947 344.5558,377.947" style="fill:none;stroke:black;stroke-width:1" />
  <polyline points="411.2581,370.947 411.2581,377.947" style="fill:none;stroke:black;stroke-width:1" />
  <polyline points="471.5054,370.947 471.5054,377.947" style="fill:none;stroke:black;stroke-width:1" />
  <polyline points="538.2078,370.947 538.2078,377.947" style="fill:none;stroke:black;stroke-width:1" />
  <polyline points="39.016,363.4208 43.3194,360.5537 49.7744,362.4651 51.9261,360.5537 54.0778,361.828 56.2295,360.2352 58.3812,360.5537 64.8363,360.8723 66.988,363.4208 69.1396,363.7394 71.2913,363.1023 73.443,363.1023 79.8981,365.3322 82.0498,366.2879 84.2015,366.2879 86.3532,365.6508 88.5048,365.9693 94.9599,365.9693 97.1116,367.5622 99.2633,366.6065 101.415,364.6951 103.5667,363.4208 110.0217,360.2352 112.1734,358.0052 114.3251,354.8195 116.4768,354.501 118.6285,353.5453 125.0835,356.4124 127.2352,357.0495 129.3869,356.7309 131.5386,355.4567 133.6903,353.8638 140.1454,346.2183 142.2971,347.174 144.4487,347.4925 146.6004,342.714 148.7521,338.2541 155.2072,333.1571 157.3589,337.617 159.5106,333.4756 161.6623,329.0157 163.8139,327.7414 170.269,318.1845 172.4207,325.5115 174.5724,321.6887 176.7241,313.0874 178.8758,300.6633 185.3308,284.735 187.4825,285.6907 189.6342,283.7793 191.7859,269.1253 193.9376,266.2582 200.3927,223.2518 202.5443,235.0387 204.696,235.0387 206.8477,231.5345 208.9994,212.4206 215.4545,218.4733 217.6062,250.3299 219.7579,243.3215 221.9095,234.083 224.0612,230.2603 230.5163,208.9163 232.668,221.9775 234.8197,212.7391 239.1231,194.8994 245.5781,191.0766 247.7298,208.9163 249.8815,213.6948 252.0332,193.6252 254.1849,209.2349 260.6399,223.8889 262.7916,235.6759 264.9433,231.5345 267.095,241.4101 269.2467,226.4375 275.7018,207.6421 277.8534,218.1548 280.0051,234.4016 282.1568,228.6674 284.3085,236.9501 290.7636,197.1294 292.9153,214.0134 295.067,223.2518 297.2186,207.3235 299.3703,197.1294 305.8254,165.2728 307.9771,185.3425 310.1288,192.988 312.2805,182.1568 314.4322,164.9542 320.8872,140.4247 323.0389,159.2201 325.1906,175.1484 335.949,139.469 338.1007,156.6715 340.2524,169.4142 342.4041,156.0344 351.0109,156.353 353.1626,173.5555 355.3142,197.7665 357.4659,203.1822 359.6176,184.7053 368.2244,220.0661 370.3761,236.313 372.5278,229.3046 374.6794,247.1443 381.1345,257.6569 383.2862,276.1338 385.4379,280.9122 387.5896,279.638 389.7413,276.7709 396.1963,276.4523 400.4997,283.7793 402.6514,270.3996 404.8031,261.7983 411.2581,263.0725 413.4098,277.7266 415.5615,290.4692 417.7132,284.4165 419.8649,284.4165 426.32,295.8848 428.4717,304.1676 430.6233,299.3891 432.775,289.8321 434.9267,280.2751 441.3818,287.2836 443.5335,310.8574 445.6852,309.5832 447.8369,302.8933 449.9885,317.2288 456.4436,323.2815 458.5953,329.0157 460.747,325.1929 462.8987,323.9186 465.0504,325.5115 471.5054,327.1043 473.6571,335.0684 475.8088,329.6528 477.9605,312.4503 480.1122,311.4946 486.5673,298.4334 488.7189,298.4334 490.8706,293.3363 493.0223,285.3722 495.174,275.4966 501.6291,268.8067 503.7808,269.7624 505.9325,270.3996 508.0841,250.3299 510.2358,236.6316 516.6909,219.7476 518.8426,220.0661 520.9943,221.3404 523.146,199.3594 525.2976,195.218 531.7527,192.3509 533.9044,214.9691 536.0561,219.429 538.2078,211.7834 540.3595,188.5281 548.9662,174.1927 551.1179,176.7412 553.2696,153.4859 555.4213,148.3888 561.8764,142.6546 564.028,144.2475 566.1797,126.7263 568.3314,113.6651 570.4831,116.2137 576.9382,99.9668 579.0899,95.1883 581.2416,72.8887 583.3932,44.5363 585.5449,32.4308 592,42.3064" style="fill:none;stroke:rgb(31,119,180);stroke-width:2;stroke-linejoin:bevel" />
  <text dominant-baseline="hanging" text-anchor="middle" transform="translate(315.508,8)" font-family="Segoe UI" font-size="18" font-weight="700" fill="black">Aktive Fälle Stadt Aachen 26.04.2021</text>
  <polygon points="39.016,29.0795 592,29.0795 592,370.947 39.016,370.947" style="fill:none;stroke:black;stroke-width:1" />
  <polygon points="47.016,37.0795 233.487,37.0795 233.487,63.1325 47.016,63.1325" style="fill:none;stroke:none;" />
  <text dominant-baseline="hanging" text-anchor="start" transform="translate(75.016,45.0795)" font-family="Segoe UI" font-size="12" font-weight="400" fill="black">Aktive Fälle Stadt Aachen 26.04.2021</text>
  <polyline points="55.016,50.106 71.016,50.106" style="fill:none;stroke:rgb(31,119,180);stroke-width:2" />
</svg>