<?xml version="1.0" encoding="utf-8" standalone="no"?>
<!DOCTYPE svg PUBLIC "-//W3C//DTD SVG 1.1//EN" "http://www.w3.org/Graphics/SVG/1.1/DTD/svg11.dtd">
<svg width="600" height="400" version="1.1" xmlns:xlink="http://www.w3.org/1999/xlink" xmlns="http://www.w3.org/2000/svg">
  <rect x="0" y="0" width="600" height="400" style="fill:rgb(255,255,255);stroke:none;" />
  <polyline points="39.016,357.0495 35.016,357.0495" style="fill:none;stroke:black;stroke-width:1" />
  <polyline points="39.016,341.1212 35.016,341.1212" style="fill:none;stroke:black;stroke-width:1" />
  <polyline points="39.016,325.1929 35.016,325.1929" style="fill:none;stroke:black;stroke-width:1" />
  <polyline points="39.016,293.3363 35.016,293.3363" style="fill:none;stroke:black;stroke-width:1" />
  <polyline points="39.016,277.408 35.016,277.408" style="fill:none;stroke:black;stroke-width:1" />
  <polyline points="39.016,261.4797 35.016,261.4797" style="fill:none;stroke:black;stroke-width:1" />
  <polyline points="39.016,229.6231 35.016,229.6231" style="fill:none;stroke:black;stroke-width:1" />
  <polyline points="39.016,213.6948 35.016,213.6948" style="fill:none;stroke:black;stroke-width:1" />
  <polyline points="39.016,197.7665 35.016,197.7665" style="fill:none;stroke:black;stroke-width:1" />
  <polyline points="39.016,165.9099 35.016,165.9099" style="fill:none;stroke:black;stroke-width:1" />
  <polyline points="39.016,149.9816 35.016,149.9816" style="fill:none;stroke:black;stroke-width:1" />
  <polyline points="39.016,134.0533 35.016,134.0533" style="fill:none;stroke:black;stroke-width:1" />
  <polyline points="39.016,102.1968 35.016,102.1968" style="fill:none;stroke:black;stroke-width:1" />
  <polyline points="39.016,86.2685 35.016,86.2685" style="fill:none;stroke:black;stroke-width:1" />
  <polyline points="39.016,70.3402 35.016,70.3402" style="fill:none;stroke:black;stroke-width:1" />
  <polyline points="39.016,38.4836 35.016,38.4836" style="fill:none;stroke:black;stroke-width:1" />
  <polyline points="77.4177,370.947 77.4177,374.947" style="fill:none;stroke:black;stroke-width:1" />
  <polyline points="194.5428,370.947 194.5428,374.947" style="fill:none;stroke:black;stroke-width:1" />
  <polyline points="311.6678,370.947 311.6678,374.947" style="fill:none;stroke:black;stroke-width:1" />
  <polyline points="424.9528,370.947 424.9528,374.947" style="fill:none;stroke:black;stroke-width:1" />
  <polyline points="542.0778,370.947 542.0778,374.947" style="fill:none;stroke:black;stroke-width:1" />
  <text dominant-baseline="middle" text-anchor="end" transform="translate(28.016,309.2646)" font-family="Segoe UI" font-size="12" font-weight="400" fill="black">200</text>
  <text dominant-baseline="middle" text-anchor="end" transform="translate(28.016,245.5514)" font-family="Segoe UI" font-size="12" font-weight="400" fill="black">400</text>
  <text dominant-baseline="middle" text-anchor="end" transform="translate(28.016,181.8382)" font-family="Segoe UI" font-size="12" font-weight="400" fill="black">600</text>
  <text dominant-baseline="middle" text-anchor="end" transform="translate(28.016,118.125)" font-family="Segoe UI" font-size="12" font-weight="400" fill="black">800</text>
  <text dominant-baseline="middle" text-anchor="end" transform="translate(28.016,54.4119)" font-family="Segoe UI" font-size="12" font-weight="400" fill="black">1000</text>
  <polyline points="39.016,309.2646 32.016,309.2646" style="fill:none;stroke:black;stroke-width:1" />
  <polyline points="39.016,245.5514 32.016,245.5514" style="fill:none;stroke:black;stroke-width:1" />
  <polyline points="39.016,181.8382 32.016,181.8382" style="fill:none;stroke:black;stroke-width:1" />
  <polyline points="39.016,118.125 32.016,118.125" style="fill:none;stroke:black;stroke-width:1" />
  <polyline points="39.016,54.4119 32.016,54.4119" style="fill:none;stroke:black;stroke-width:1" />
  <text dominant-baseline="hanging" text-anchor="middle" transform="translate(135.0202,381.947)" font-family="Segoe UI" font-size="12" font-weight="400" fill="black">01. October</text>
  <text dominant-baseline="hanging" text-anchor="middle" transform="translate(252.1453,381.947)" font-family="Segoe UI" font-size="12" font-weight="400" fill="black">01. December</text>
  <text dominant-baseline="hanging" text-anchor="middle" transform="translate(371.1904,381.947)" font-family="Segoe UI" font-size="12" font-weight="400" fill="black">01. February</text>
  <text dominant-baseline="hanging" text-anchor="middle" transform="translate(484.4753,381.947)" font-family="Segoe UI" font-size="12" font-weight="400" fill="black">01. April</text>
  <polyline points="135.0202,370.947 135.0202,377.947" style="fill:none;stroke:black;stroke-width:1" />
  <polyline points="252.1453,370.947 252.1453,377.947" style="fill:none;stroke:black;stroke-width:1" />
  <polyline points="371.1904,370.947 371.1904,377.947" style="fill:none;stroke:black;stroke-width:1" />
  <polyline points="484.4753,370.947 484.4753,377.947" style="fill:none;stroke:black;stroke-width:1" />
  <polyline points="39.016,363.4208 42.8562,360.5537 48.6164,362.4651 50.5365,360.5537 52.4566,361.828 54.3767,360.2352 56.2968,360.5537 62.057,360.8723 63.9771,363.4208 65.8972,363.7394 67.8173,363.1023 69.7373,363.1023 75.4976,365.3322 77.4177,366.2879 79.3378,366.2879 81.2578,365.6508 83.1779,365.9693 88.9382,365.9693 90.8583,367.5622 92.7783,366.6065 94.6984,364.6951 96.6185,363.4208 102.3788,360.2352 104.2988,358.0052 106.2189,354.8195 108.139,354.501 110.0591,353.5453 115.8193,356.4124 117.7394,357.0495 119.6595,356.7309 121.5796,355.4567 123.4997,353.8638 129.2599,346.2183 131.18,347.174 133.1001,347.4925 135.0202,342.714 136.9403,338.2541 142.7005,333.1571 144.6206,337.617 146.5407,333.4756 148.4608,329.0157 150.3808,327.7414 156.1411,318.1845 158.0612,325.5115 159.9813,321.6887 161.9013,313.0874 163.8214,300.6633 169.5817,284.735 171.5018,285.6907 173.4218,283.7793 175.3419,269.1253 177.262,266.2582 183.0223,223.2518 184.9423,235.0387 186.8624,235.0387 188.7825,231.5345 190.7026,212.4206 196.4628,218.4733 198.3829,250.3299 200.303,243.3215 202.2231,234.083 204.1432,230.2603 209.9034,208.9163 211.8235,221.9775 213.7436,212.7391 217.5838,194.8994 223.344,191.0766 225.2641,208.9163 227.1842,213.6948 229.1043,193.6252 231.0243,209.2349 236.7846,223.8889 238.7047,235.6759 240.6248,231.5345 242.5448,241.4101 244.4649,226.4375 250.2252,207.6421 252.1453,218.1548 254.0653,234.4016 255.9854,228.6674 257.9055,236.9501 263.6658,197.1294 265.5858,214.0134 267.5059,223.2518 269.426,207.3235 271.3461,197.1294 277.1063,165.2728 279.0264,185.3425 280.9465,192.988 282.8666,182.1568 284.7867,164.9542 290.5469,140.4247 292.467,159.2201 294.3871,175.1484 303.9875,139.469 305.9076,156.6715 307.8277,169.4142 309.7478,156.0344 317.4281,156.353 319.3482,173.5555 321.2683,197.7665 323.1883,203.1822 325.1084,184.7053 332.7888,220.0661 334.7088,236.313 336.6289,229.3046 338.549,247.1443 344.3093,257.6569 346.2293,276.1338 348.1494,280.9122 350.0695,279.638 351.9896,276.7709 357.7498,276.4523 361.59,283.7793 363.5101,270.3996 365.4302,261.7983 371.1904,263.0725 373.1105,277.7266 375.0306,290.4692 376.9507,284.4165 378.8708,284.4165 384.631,295.8848 386.5511,304.1676 388.4712,299.3891 390.3913,289.8321 392.3113,280.2751 398.0716,287.2836 399.9917,310.8574 401.9118,309.5832 403.8318,302.8933 405.7519,317.2288 411.5122,323.2815 413.4323,329.0157 415.3523,325.1929 417.2724,323.9186 419.1925,325.5115 424.9528,327.1043 426.8728,335.0684 428.7929,329.6528 430.713,312.4503 432.6331,311.4946 438.3933,298.4334 440.3134,298.4334 442.2335,293.3363 444.1536,285.3722 446.0737,275.4966 451.8339,268.8067 453.754,269.7624 455.6741,270.3996 457.5942,250.3299 459.5143,236.6316 465.2745,219.7476 467.1946,220.0661 469.1147,221.3404 471.0348,199.3594 472.9548,195.218 478.7151,192.3509 480.6352,214.9691 482.5553,219.429 484.4753,211.7834 486.3954,188.5281 494.0758,174.1927 495.9958,176.7412 497.9159,153.4859 499.836,148.3888 505.5963,142.6546 507.5163,144.2475 509.4364,126.7263 511.3565,113.6651 513.2766,116.2137 519.0368,99.9668 520.9569,95.1883 522.877,72.8887 524.7971,44.5363 526.7172,32.4308 532.4774,42.3064 534.3975,49.3148 536.3176,66.1988 538.2377,77.6672 540.1578,71.2959 545.918,109.8423 547.8381,105.701 549.7582,125.7706 551.6783,134.6905 553.5983,148.3888 559.3586,149.0259 561.2787,175.7855 563.1988,170.6884 567.0389,185.3425 572.7992,171.9627 574.7193,185.661 576.6393,186.2982 578.5594,180.564 580.4795,185.0239 588.1598,213.3763 590.0799,232.8088 592,239.8172" style="fill:none;stroke:rgb(31,119,180);stroke-width:2;stroke-linejoin:bevel" />
  <text dominant-baseline="hanging" text-anchor="middle" transform="translate(315.508,8)" font-family="Segoe UI" font-size="18" font-weight="700" fill="black">Aktive Fälle Stadt Aachen 27.05.2021</text>
  <polygon points="39.016,29.0795 592,29.0795 592,370.947 39.016,370.947" style="fill:none;stroke:black;stroke-width:1" />
  <polygon points="47.016,37.0795 233.487,37.0795 233.487,63.1325 47.016,63.1325" style="fill:none;stroke:none;" />
  <text dominant-baseline="hanging" text-anchor="start" transform="translate(75.016,45.0795)" font-family="Segoe UI" font-size="12" font-weight="400" fill="black">Aktive Fälle Stadt Aachen 27.05.2021</text>
  <polyline points="55.016,50.106 71.016,50.106" style="fill:none;stroke:rgb(31,119,180);stroke-width:2" />
</svg>