<?xml version="1.0" encoding="utf-8" standalone="no"?>
<!DOCTYPE svg PUBLIC "-//W3C//DTD SVG 1.1//EN" "http://www.w3.org/Graphics/SVG/1.1/DTD/svg11.dtd">
<svg width="600" height="400" version="1.1" xmlns:xlink="http://www.w3.org/1999/xlink" xmlns="http://www.w3.org/2000/svg">
  <rect x="0" y="0" width="600" height="400" style="fill:rgb(255,255,255);stroke:none;" />
  <polyline points="34.012,352.1162 30.012,352.1162" style="fill:none;stroke:black;stroke-width:1" />
  <polyline points="34.012,328.7131 30.012,328.7131" style="fill:none;stroke:black;stroke-width:1" />
  <polyline points="34.012,305.3101 30.012,305.3101" style="fill:none;stroke:black;stroke-width:1" />
  <polyline points="34.012,258.5041 30.012,258.5041" style="fill:none;stroke:black;stroke-width:1" />
  <polyline points="34.012,235.101 30.012,235.101" style="fill:none;stroke:black;stroke-width:1" />
  <polyline points="34.012,211.698 30.012,211.698" style="fill:none;stroke:black;stroke-width:1" />
  <polyline points="34.012,164.892 30.012,164.892" style="fill:none;stroke:black;stroke-width:1" />
  <polyline points="34.012,141.4889 30.012,141.4889" style="fill:none;stroke:black;stroke-width:1" />
  <polyline points="34.012,118.0859 30.012,118.0859" style="fill:none;stroke:black;stroke-width:1" />
  <polyline points="34.012,71.2798 30.012,71.2798" style="fill:none;stroke:black;stroke-width:1" />
  <polyline points="34.012,47.8768 30.012,47.8768" style="fill:none;stroke:black;stroke-width:1" />
  <text dominant-baseline="middle" text-anchor="end" transform="translate(23.012,281.9071)" font-family="Segoe UI" font-size="12" font-weight="400" fill="black">200</text>
  <text dominant-baseline="middle" text-anchor="end" transform="translate(23.012,188.295)" font-family="Segoe UI" font-size="12" font-weight="400" fill="black">400</text>
  <text dominant-baseline="middle" text-anchor="end" transform="translate(23.012,94.6829)" font-family="Segoe UI" font-size="12" font-weight="400" fill="black">600</text>
  <polyline points="34.012,281.9071 27.012,281.9071" style="fill:none;stroke:black;stroke-width:1" />
  <polyline points="34.012,188.295 27.012,188.295" style="fill:none;stroke:black;stroke-width:1" />
  <polyline points="34.012,94.6829 27.012,94.6829" style="fill:none;stroke:black;stroke-width:1" />
  <text dominant-baseline="hanging" text-anchor="middle" transform="translate(79.7487,381.947)" font-family="Segoe UI" font-size="12" font-weight="400" fill="black">01. September</text>
  <text dominant-baseline="hanging" text-anchor="middle" transform="translate(148.3538,381.947)" font-family="Segoe UI" font-size="12" font-weight="400" fill="black">01. October</text>
  <text dominant-baseline="hanging" text-anchor="middle" transform="translate(219.2457,381.947)" font-family="Segoe UI" font-size="12" font-weight="400" fill="black">01. November</text>
  <text dominant-baseline="hanging" text-anchor="middle" transform="translate(287.8508,381.947)" font-family="Segoe UI" font-size="12" font-weight="400" fill="black">01. December</text>
  <text dominant-baseline="hanging" text-anchor="middle" transform="translate(358.7427,381.947)" font-family="Segoe UI" font-size="12" font-weight="400" fill="black">01. January</text>
  <text dominant-baseline="hanging" text-anchor="middle" transform="translate(429.6346,381.947)" font-family="Segoe UI" font-size="12" font-weight="400" fill="black">01. February</text>
  <text dominant-baseline="hanging" text-anchor="middle" transform="translate(493.666,381.947)" font-family="Segoe UI" font-size="12" font-weight="400" fill="black">01. March</text>
  <text dominant-baseline="hanging" text-anchor="middle" transform="translate(564.558,381.947)" font-family="Segoe UI" font-size="12" font-weight="400" fill="black">01. April</text>
  <polyline points="79.7487,370.947 79.7487,377.947" style="fill:none;stroke:black;stroke-width:1" />
  <polyline points="148.3538,370.947 148.3538,377.947" style="fill:none;stroke:black;stroke-width:1" />
  <polyline points="219.2457,370.947 219.2457,377.947" style="fill:none;stroke:black;stroke-width:1" />
  <polyline points="287.8508,370.947 287.8508,377.947" style="fill:none;stroke:black;stroke-width:1" />
  <polyline points="358.7427,370.947 358.7427,377.947" style="fill:none;stroke:black;stroke-width:1" />
  <polyline points="429.6346,370.947 429.6346,377.947" style="fill:none;stroke:black;stroke-width:1" />
  <polyline points="493.666,370.947 493.666,377.947" style="fill:none;stroke:black;stroke-width:1" />
  <polyline points="564.558,370.947 564.558,377.947" style="fill:none;stroke:black;stroke-width:1" />
  <polyline points="34.012,361.4774 38.5857,357.2648 45.4462,360.0732 47.733,357.2648 50.0199,359.1371 52.3067,356.7968 54.5935,357.2648 61.454,357.7329 63.7409,361.4774 66.0277,361.9454 68.3145,361.0093 70.6014,361.0093 77.4619,364.2857 79.7487,365.6899 82.0356,365.6899 84.3224,364.7538 86.6092,365.2219 93.4697,365.2219 95.7566,367.5622 98.0434,366.158 100.3302,363.3496 102.6171,361.4774 109.4776,356.7968 111.7644,353.5204 114.0513,348.8398 116.3381,348.3717 118.6249,346.9675 125.4854,351.1801 127.7723,352.1162 130.0591,351.6481 132.346,349.7759 134.6328,347.4356 141.4933,336.2021 143.7801,337.6063 146.067,338.0744 148.3538,331.0534 150.6406,324.5006 157.5011,317.0116 159.788,323.5645 162.0748,317.4797 164.3617,310.9268 166.6485,309.0546 173.509,295.0128 175.7958,305.7782 178.0827,300.1615 180.3695,287.5238 182.6563,269.2695 189.5169,245.8664 191.8037,247.2706 194.0905,244.4622 196.3774,222.9315 198.6642,218.7189 205.5247,155.5307 207.8115,172.849 210.0984,172.849 212.3852,167.7003 214.672,139.6167 221.5326,148.5098 223.8194,195.3159 226.1062,185.0186 228.3931,171.4448 230.6799,165.8281 237.5404,134.468 239.8272,153.6585 242.1141,140.0847 246.6878,113.8734 253.5483,108.2566 255.8351,134.468 258.1219,141.4889 260.4088,112.0011 262.6956,134.9361 269.5561,156.4669 271.843,173.7851 274.1298,167.7003 276.4166,182.2102 278.7035,160.2113 285.564,132.5958 287.8508,148.0418 290.1376,171.9129 292.4245,163.4878 294.7113,175.6573 301.5718,117.1498 303.8587,141.957 306.1455,155.5307 308.4323,132.1277 310.7192,117.1498 317.5797,70.3437 319.8665,99.8315 322.1533,111.065 324.4402,95.1509 326.727,69.8757 333.5875,33.835 335.8744,61.4506 338.1612,84.8536 349.5954,32.4308 351.8822,57.7061 354.169,76.4285 356.4559,56.77 365.6032,57.238 367.8901,82.5133 370.1769,118.0859 372.4637,126.0429 374.7506,98.8954 383.8979,150.8501 386.1848,174.7212 388.4716,164.4239 390.7584,190.6353 397.6189,206.0813 399.9058,233.2288 402.1926,240.2497 404.4794,238.3775 406.7663,234.1649 413.6268,233.6969 418.2005,244.4622 420.4873,224.8037 422.7741,212.1661 429.6346,214.0383 431.9215,235.5691 434.2083,254.2915 436.4951,245.3984 438.782,245.3984 445.6425,262.2485 447.9293,274.4181 450.2162,267.3972 452.503,253.3554 454.7898,239.3136 461.6503,249.6109 463.9372,284.2474 466.224,282.3752 468.5109,272.5459 470.7977,293.6086 477.6582,302.5018 479.945,310.9268 482.2319,305.3101 484.5187,303.4379 486.8055,305.7782 493.666,308.1185 495.9529,319.82 498.2397,311.863 500.5266,286.5877 502.8134,285.1835 509.6739,265.993 511.9607,265.993 514.2476,258.5041 516.5344,246.8025 518.8212,232.2927 525.6818,222.4634 527.9686,223.8676 530.2554,224.8037 532.5423,195.3159 534.8291,175.1893 541.6896,150.3821 543.9764,150.8501 546.2633,152.7224 548.5501,120.4262 550.837,114.3414 557.6975,110.1289 559.9843,143.3612 562.2711,149.914 564.558,138.6806 566.8448,104.5121 575.9921,83.4494 578.279,87.1939 580.5658,53.0255 582.8527,45.5365 589.7132,37.1114 592,39.4517" style="fill:none;stroke:rgb(31,119,180);stroke-width:2;stroke-linejoin:bevel" />
  <text dominant-baseline="hanging" text-anchor="middle" transform="translate(313.006,8)" font-family="Segoe UI" font-size="18" font-weight="700" fill="black">Aktive Fälle Stadt Aachen 13.04.2021</text>
  <polygon points="34.012,29.0795 592,29.0795 592,370.947 34.012,370.947" style="fill:none;stroke:black;stroke-width:1" />
  <polygon points="42.012,37.0795 228.483,37.0795 228.483,63.1325 42.012,63.1325" style="fill:none;stroke:none;" />
  <text dominant-baseline="hanging" text-anchor="start" transform="translate(70.012,45.0795)" font-family="Segoe UI" font-size="12" font-weight="400" fill="black">Aktive Fälle Stadt Aachen 13.04.2021</text>
  <polyline points="50.012,50.106 66.012,50.106" style="fill:none;stroke:rgb(31,119,180);stroke-width:2" />
</svg>