<?xml version="1.0" encoding="utf-8" standalone="no"?>
<!DOCTYPE svg PUBLIC "-//W3C//DTD SVG 1.1//EN" "http://www.w3.org/Graphics/SVG/1.1/DTD/svg11.dtd">
<svg width="600" height="400" version="1.1" xmlns:xlink="http://www.w3.org/1999/xlink" xmlns="http://www.w3.org/2000/svg">
  <rect x="0" y="0" width="600" height="400" style="fill:rgb(255,255,255);stroke:none;" />
  <polyline points="34.012,352.1162 30.012,352.1162" style="fill:none;stroke:black;stroke-width:1" />
  <polyline points="34.012,328.7131 30.012,328.7131" style="fill:none;stroke:black;stroke-width:1" />
  <polyline points="34.012,305.3101 30.012,305.3101" style="fill:none;stroke:black;stroke-width:1" />
  <polyline points="34.012,258.5041 30.012,258.5041" style="fill:none;stroke:black;stroke-width:1" />
  <polyline points="34.012,235.101 30.012,235.101" style="fill:none;stroke:black;stroke-width:1" />
  <polyline points="34.012,211.698 30.012,211.698" style="fill:none;stroke:black;stroke-width:1" />
  <polyline points="34.012,164.892 30.012,164.892" style="fill:none;stroke:black;stroke-width:1" />
  <polyline points="34.012,141.4889 30.012,141.4889" style="fill:none;stroke:black;stroke-width:1" />
  <polyline points="34.012,118.0859 30.012,118.0859" style="fill:none;stroke:black;stroke-width:1" />
  <polyline points="34.012,71.2798 30.012,71.2798" style="fill:none;stroke:black;stroke-width:1" />
  <polyline points="34.012,47.8768 30.012,47.8768" style="fill:none;stroke:black;stroke-width:1" />
  <text dominant-baseline="middle" text-anchor="end" transform="translate(23.012,281.9071)" font-family="Segoe UI" font-size="12" font-weight="400" fill="black">200</text>
  <text dominant-baseline="middle" text-anchor="end" transform="translate(23.012,188.295)" font-family="Segoe UI" font-size="12" font-weight="400" fill="black">400</text>
  <text dominant-baseline="middle" text-anchor="end" transform="translate(23.012,94.6829)" font-family="Segoe UI" font-size="12" font-weight="400" fill="black">600</text>
  <polyline points="34.012,281.9071 27.012,281.9071" style="fill:none;stroke:black;stroke-width:1" />
  <polyline points="34.012,188.295 27.012,188.295" style="fill:none;stroke:black;stroke-width:1" />
  <polyline points="34.012,94.6829 27.012,94.6829" style="fill:none;stroke:black;stroke-width:1" />
  <text dominant-baseline="hanging" text-anchor="middle" transform="translate(106.0105,381.947)" font-family="Segoe UI" font-size="12" font-weight="400" fill="black">01. September</text>
  <text dominant-baseline="hanging" text-anchor="middle" transform="translate(214.0081,381.947)" font-family="Segoe UI" font-size="12" font-weight="400" fill="black">01. October</text>
  <text dominant-baseline="hanging" text-anchor="middle" transform="translate(325.6057,381.947)" font-family="Segoe UI" font-size="12" font-weight="400" fill="black">01. November</text>
  <text dominant-baseline="hanging" text-anchor="middle" transform="translate(433.6034,381.947)" font-family="Segoe UI" font-size="12" font-weight="400" fill="black">01. December</text>
  <text dominant-baseline="hanging" text-anchor="middle" transform="translate(545.201,381.947)" font-family="Segoe UI" font-size="12" font-weight="400" fill="black">01. January</text>
  <polyline points="106.0105,370.947 106.0105,377.947" style="fill:none;stroke:black;stroke-width:1" />
  <polyline points="214.0081,370.947 214.0081,377.947" style="fill:none;stroke:black;stroke-width:1" />
  <polyline points="325.6057,370.947 325.6057,377.947" style="fill:none;stroke:black;stroke-width:1" />
  <polyline points="433.6034,370.947 433.6034,377.947" style="fill:none;stroke:black;stroke-width:1" />
  <polyline points="545.201,370.947 545.201,377.947" style="fill:none;stroke:black;stroke-width:1" />
  <polyline points="34.012,361.4774 41.2118,357.2648 52.0116,360.0732 55.6115,357.2648 59.2115,359.1371 62.8114,356.7968 66.4113,357.2648 77.2111,357.7329 80.811,361.4774 84.4109,361.9454 88.0108,361.0093 91.6108,361.0093 102.4105,364.2857 106.0105,365.6899 109.6104,365.6899 113.2103,364.7538 116.8102,365.2219 127.61,365.2219 131.2099,367.5622 134.8098,366.158 138.4098,363.3496 142.0097,361.4774 152.8094,356.7968 156.4094,353.5204 160.0093,348.8398 163.6092,348.3717 167.2091,346.9675 178.0089,351.1801 181.6088,352.1162 185.2087,351.6481 188.8087,349.7759 192.4086,347.4356 203.2084,336.2021 206.8083,337.6063 210.4082,338.0744 214.0081,331.0534 217.6081,324.5006 228.4078,317.0116 232.0077,323.5645 235.6077,317.4797 239.2076,310.9268 242.8075,309.0546 253.6073,295.0128 257.2072,305.7782 260.8071,300.1615 264.407,287.5238 268.007,269.2695 278.8067,245.8664 282.4067,247.2706 286.0066,244.4622 289.6065,222.9315 293.2064,218.7189 304.0062,155.5307 307.6061,172.849 311.206,172.849 314.806,167.7003 318.4059,139.6167 329.2057,148.5098 332.8056,195.3159 336.4055,185.0186 340.0054,171.4448 343.6053,165.8281 354.4051,134.468 358.005,153.6585 361.605,140.0847 368.8048,113.8734 379.6046,108.2566 383.2045,134.468 386.8044,141.4889 390.4043,112.0011 394.0043,134.9361 404.804,156.4669 408.4039,173.7851 412.0039,167.7003 415.6038,182.2102 419.2037,160.2113 430.0035,132.5958 433.6034,148.0418 437.2033,171.9129 440.8033,163.4878 444.4032,175.6573 455.2029,117.1498 458.8029,141.957 462.4028,155.5307 466.0027,132.1277 469.6026,117.1498 480.4024,70.3437 484.0023,99.8315 487.6022,111.065 491.2022,95.1509 494.8021,69.8757 505.6019,33.835 509.2018,61.4506 512.8017,84.8536 530.8013,32.4308 534.4012,57.7061 538.0012,76.4285 541.6011,56.77 556.0008,57.238 559.6007,82.5133 563.2006,118.0859 566.8005,126.0429 570.4005,98.8954 581.2002,112.0011 584.8002,150.8501 588.4001,174.7212 592,164.4239" style="fill:none;stroke:rgb(31,119,180);stroke-width:2;stroke-linejoin:bevel" />
  <text dominant-baseline="hanging" text-anchor="middle" transform="translate(313.006,8)" font-family="Segoe UI" font-size="18" font-weight="700" fill="black">Aktive Fälle Stadt Aachen 14.01.2021</text>
  <polygon points="34.012,29.0795 592,29.0795 592,370.947 34.012,370.947" style="fill:none;stroke:black;stroke-width:1" />
  <polygon points="42.012,37.0795 228.483,37.0795 228.483,63.1325 42.012,63.1325" style="fill:none;stroke:none;" />
  <text dominant-baseline="hanging" text-anchor="start" transform="translate(70.012,45.0795)" font-family="Segoe UI" font-size="12" font-weight="400" fill="black">Aktive Fälle Stadt Aachen 14.01.2021</text>
  <polyline points="50.012,50.106 66.012,50.106" style="fill:none;stroke:rgb(31,119,180);stroke-width:2" />
</svg>