<?xml version="1.0" encoding="utf-8" standalone="no"?>
<!DOCTYPE svg PUBLIC "-//W3C//DTD SVG 1.1//EN" "http://www.w3.org/Graphics/SVG/1.1/DTD/svg11.dtd">
<svg width="600" height="400" version="1.1" xmlns:xlink="http://www.w3.org/1999/xlink" xmlns="http://www.w3.org/2000/svg">
  <rect x="0" y="0" width="600" height="400" style="fill:rgb(255,255,255);stroke:none;" />
  <polyline points="34.012,363.6953 30.012,363.6953" style="fill:none;stroke:black;stroke-width:1" />
  <polyline points="34.012,350.8056 30.012,350.8056" style="fill:none;stroke:black;stroke-width:1" />
  <polyline points="34.012,337.9159 30.012,337.9159" style="fill:none;stroke:black;stroke-width:1" />
  <polyline points="34.012,312.1366 30.012,312.1366" style="fill:none;stroke:black;stroke-width:1" />
  <polyline points="34.012,299.2469 30.012,299.2469" style="fill:none;stroke:black;stroke-width:1" />
  <polyline points="34.012,286.3573 30.012,286.3573" style="fill:none;stroke:black;stroke-width:1" />
  <polyline points="34.012,273.4676 30.012,273.4676" style="fill:none;stroke:black;stroke-width:1" />
  <polyline points="34.012,247.6883 30.012,247.6883" style="fill:none;stroke:black;stroke-width:1" />
  <polyline points="34.012,234.7986 30.012,234.7986" style="fill:none;stroke:black;stroke-width:1" />
  <polyline points="34.012,221.9089 30.012,221.9089" style="fill:none;stroke:black;stroke-width:1" />
  <polyline points="34.012,209.0193 30.012,209.0193" style="fill:none;stroke:black;stroke-width:1" />
  <polyline points="34.012,183.2399 30.012,183.2399" style="fill:none;stroke:black;stroke-width:1" />
  <polyline points="34.012,170.3503 30.012,170.3503" style="fill:none;stroke:black;stroke-width:1" />
  <polyline points="34.012,157.4606 30.012,157.4606" style="fill:none;stroke:black;stroke-width:1" />
  <polyline points="34.012,144.5709 30.012,144.5709" style="fill:none;stroke:black;stroke-width:1" />
  <polyline points="34.012,118.7916 30.012,118.7916" style="fill:none;stroke:black;stroke-width:1" />
  <polyline points="34.012,105.9019 30.012,105.9019" style="fill:none;stroke:black;stroke-width:1" />
  <polyline points="34.012,93.0123 30.012,93.0123" style="fill:none;stroke:black;stroke-width:1" />
  <polyline points="34.012,80.1226 30.012,80.1226" style="fill:none;stroke:black;stroke-width:1" />
  <polyline points="34.012,54.3432 30.012,54.3432" style="fill:none;stroke:black;stroke-width:1" />
  <polyline points="34.012,41.4536 30.012,41.4536" style="fill:none;stroke:black;stroke-width:1" />
  <text dominant-baseline="middle" text-anchor="end" transform="translate(23.012,325.0263)" font-family="Segoe UI" font-size="12" font-weight="400" fill="black">50</text>
  <text dominant-baseline="middle" text-anchor="end" transform="translate(23.012,260.5779)" font-family="Segoe UI" font-size="12" font-weight="400" fill="black">100</text>
  <text dominant-baseline="middle" text-anchor="end" transform="translate(23.012,196.1296)" font-family="Segoe UI" font-size="12" font-weight="400" fill="black">150</text>
  <text dominant-baseline="middle" text-anchor="end" transform="translate(23.012,131.6813)" font-family="Segoe UI" font-size="12" font-weight="400" fill="black">200</text>
  <text dominant-baseline="middle" text-anchor="end" transform="translate(23.012,67.2329)" font-family="Segoe UI" font-size="12" font-weight="400" fill="black">250</text>
  <polyline points="34.012,325.0263 27.012,325.0263" style="fill:none;stroke:black;stroke-width:1" />
  <polyline points="34.012,260.5779 27.012,260.5779" style="fill:none;stroke:black;stroke-width:1" />
  <polyline points="34.012,196.1296 27.012,196.1296" style="fill:none;stroke:black;stroke-width:1" />
  <polyline points="34.012,131.6813 27.012,131.6813" style="fill:none;stroke:black;stroke-width:1" />
  <polyline points="34.012,67.2329 27.012,67.2329" style="fill:none;stroke:black;stroke-width:1" />
  <text dominant-baseline="hanging" text-anchor="middle" transform="translate(58.2723,381.947)" font-family="Segoe UI" font-size="12" font-weight="400" fill="black">15. August</text>
  <text dominant-baseline="hanging" text-anchor="middle" transform="translate(171.4873,381.947)" font-family="Segoe UI" font-size="12" font-weight="400" fill="black">29. August</text>
  <text dominant-baseline="hanging" text-anchor="middle" transform="translate(284.7023,381.947)" font-family="Segoe UI" font-size="12" font-weight="400" fill="black">12. September</text>
  <text dominant-baseline="hanging" text-anchor="middle" transform="translate(397.9172,381.947)" font-family="Segoe UI" font-size="12" font-weight="400" fill="black">26. September</text>
  <text dominant-baseline="hanging" text-anchor="middle" transform="translate(511.1322,381.947)" font-family="Segoe UI" font-size="12" font-weight="400" fill="black">10. October</text>
  <polyline points="58.2723,370.947 58.2723,377.947" style="fill:none;stroke:black;stroke-width:1" />
  <polyline points="171.4873,370.947 171.4873,377.947" style="fill:none;stroke:black;stroke-width:1" />
  <polyline points="284.7023,370.947 284.7023,377.947" style="fill:none;stroke:black;stroke-width:1" />
  <polyline points="397.9172,370.947 397.9172,377.947" style="fill:none;stroke:black;stroke-width:1" />
  <polyline points="511.1322,370.947 511.1322,377.947" style="fill:none;stroke:black;stroke-width:1" />
  <polyline points="34.012,350.8056 50.1856,339.2049 74.4459,346.9387 82.5327,339.2049 90.6195,344.3608 98.7063,337.9159 106.793,339.2049 131.0534,340.4939 139.1402,350.8056 147.227,352.0946 155.3137,349.5166 163.4005,349.5166 187.6609,358.5394 195.7477,362.4063 203.8344,362.4063 211.9212,359.8284 220.008,361.1173 244.2683,361.1173 252.3551,367.5622 260.4419,363.6953 268.5287,355.9615 276.6155,350.8056 300.8758,337.9159 308.9626,328.8932 317.0494,316.0035 325.1362,314.7145 333.223,310.8476 357.4833,322.4483 365.5701,325.0263 373.6569,323.7373 381.7437,318.5814 389.8304,312.1366 414.0908,281.2014 422.1776,285.0683 430.2643,286.3573 438.3511,267.0228 446.4379,248.9772 470.6983,228.3538 478.785,246.3993 486.8718,229.6427 494.9586,211.5972 503.0454,206.4413 527.3057,167.7723 535.3925,197.4186 543.4793,181.951 551.5661,147.1489 559.6529,96.8792 583.9132,32.4308 592,36.2977" style="fill:none;stroke:rgb(31,119,180);stroke-width:2;stroke-linejoin:bevel" />
  <text dominant-baseline="hanging" text-anchor="middle" transform="translate(313.006,8)" font-family="Segoe UI" font-size="18" font-weight="700" fill="black">Aktive Fälle Stadt Aachen 20.10.2020</text>
  <polygon points="34.012,29.0795 592,29.0795 592,370.947 34.012,370.947" style="fill:none;stroke:black;stroke-width:1" />
  <polygon points="42.012,37.0795 228.483,37.0795 228.483,63.1325 42.012,63.1325" style="fill:none;stroke:none;" />
  <text dominant-baseline="hanging" text-anchor="start" transform="translate(70.012,45.0795)" font-family="Segoe UI" font-size="12" font-weight="400" fill="black">Aktive Fälle Stadt Aachen 20.10.2020</text>
  <polyline points="50.012,50.106 66.012,50.106" style="fill:none;stroke:rgb(31,119,180);stroke-width:2" />
</svg>