<?xml version="1.0" encoding="utf-8" standalone="no"?>
<!DOCTYPE svg PUBLIC "-//W3C//DTD SVG 1.1//EN" "http://www.w3.org/Graphics/SVG/1.1/DTD/svg11.dtd">
<svg width="600" height="400" version="1.1" xmlns:xlink="http://www.w3.org/1999/xlink" xmlns="http://www.w3.org/2000/svg">
  <rect x="0" y="0" width="600" height="400" style="fill:rgb(255,255,255);stroke:none;" />
  <polyline points="39.016,357.0495 35.016,357.0495" style="fill:none;stroke:black;stroke-width:1" />
  <polyline points="39.016,341.1212 35.016,341.1212" style="fill:none;stroke:black;stroke-width:1" />
  <polyline points="39.016,325.1929 35.016,325.1929" style="fill:none;stroke:black;stroke-width:1" />
  <polyline points="39.016,293.3363 35.016,293.3363" style="fill:none;stroke:black;stroke-width:1" />
  <polyline points="39.016,277.408 35.016,277.408" style="fill:none;stroke:black;stroke-width:1" />
  <polyline points="39.016,261.4797 35.016,261.4797" style="fill:none;stroke:black;stroke-width:1" />
  <polyline points="39.016,229.6231 35.016,229.6231" style="fill:none;stroke:black;stroke-width:1" />
  <polyline points="39.016,213.6948 35.016,213.6948" style="fill:none;stroke:black;stroke-width:1" />
  <polyline points="39.016,197.7665 35.016,197.7665" style="fill:none;stroke:black;stroke-width:1" />
  <polyline points="39.016,165.9099 35.016,165.9099" style="fill:none;stroke:black;stroke-width:1" />
  <polyline points="39.016,149.9816 35.016,149.9816" style="fill:none;stroke:black;stroke-width:1" />
  <polyline points="39.016,134.0533 35.016,134.0533" style="fill:none;stroke:black;stroke-width:1" />
  <polyline points="39.016,102.1968 35.016,102.1968" style="fill:none;stroke:black;stroke-width:1" />
  <polyline points="39.016,86.2685 35.016,86.2685" style="fill:none;stroke:black;stroke-width:1" />
  <polyline points="39.016,70.3402 35.016,70.3402" style="fill:none;stroke:black;stroke-width:1" />
  <polyline points="39.016,38.4836 35.016,38.4836" style="fill:none;stroke:black;stroke-width:1" />
  <polyline points="76.0049,370.947 76.0049,374.947" style="fill:none;stroke:black;stroke-width:1" />
  <polyline points="188.821,370.947 188.821,374.947" style="fill:none;stroke:black;stroke-width:1" />
  <polyline points="301.6372,370.947 301.6372,374.947" style="fill:none;stroke:black;stroke-width:1" />
  <polyline points="410.7544,370.947 410.7544,374.947" style="fill:none;stroke:black;stroke-width:1" />
  <polyline points="523.5705,370.947 523.5705,374.947" style="fill:none;stroke:black;stroke-width:1" />
  <text dominant-baseline="middle" text-anchor="end" transform="translate(28.016,309.2646)" font-family="Segoe UI" font-size="12" font-weight="400" fill="black">200</text>
  <text dominant-baseline="middle" text-anchor="end" transform="translate(28.016,245.5514)" font-family="Segoe UI" font-size="12" font-weight="400" fill="black">400</text>
  <text dominant-baseline="middle" text-anchor="end" transform="translate(28.016,181.8382)" font-family="Segoe UI" font-size="12" font-weight="400" fill="black">600</text>
  <text dominant-baseline="middle" text-anchor="end" transform="translate(28.016,118.125)" font-family="Segoe UI" font-size="12" font-weight="400" fill="black">800</text>
  <text dominant-baseline="middle" text-anchor="end" transform="translate(28.016,54.4119)" font-family="Segoe UI" font-size="12" font-weight="400" fill="black">1000</text>
  <polyline points="39.016,309.2646 32.016,309.2646" style="fill:none;stroke:black;stroke-width:1" />
  <polyline points="39.016,245.5514 32.016,245.5514" style="fill:none;stroke:black;stroke-width:1" />
  <polyline points="39.016,181.8382 32.016,181.8382" style="fill:none;stroke:black;stroke-width:1" />
  <polyline points="39.016,118.125 32.016,118.125" style="fill:none;stroke:black;stroke-width:1" />
  <polyline points="39.016,54.4119 32.016,54.4119" style="fill:none;stroke:black;stroke-width:1" />
  <text dominant-baseline="hanging" text-anchor="middle" transform="translate(131.4882,381.947)" font-family="Segoe UI" font-size="12" font-weight="400" fill="black">01. October</text>
  <text dominant-baseline="hanging" text-anchor="middle" transform="translate(244.3044,381.947)" font-family="Segoe UI" font-size="12" font-weight="400" fill="black">01. December</text>
  <text dominant-baseline="hanging" text-anchor="middle" transform="translate(358.97,381.947)" font-family="Segoe UI" font-size="12" font-weight="400" fill="black">01. February</text>
  <text dominant-baseline="hanging" text-anchor="middle" transform="translate(468.0872,381.947)" font-family="Segoe UI" font-size="12" font-weight="400" fill="black">01. April</text>
  <text dominant-baseline="hanging" text-anchor="middle" transform="translate(580.9033,381.947)" font-family="Segoe UI" font-size="12" font-weight="400" fill="black">01. June</text>
  <polyline points="131.4882,370.947 131.4882,377.947" style="fill:none;stroke:black;stroke-width:1" />
  <polyline points="244.3044,370.947 244.3044,377.947" style="fill:none;stroke:black;stroke-width:1" />
  <polyline points="358.97,370.947 358.97,377.947" style="fill:none;stroke:black;stroke-width:1" />
  <polyline points="468.0872,370.947 468.0872,377.947" style="fill:none;stroke:black;stroke-width:1" />
  <polyline points="580.9033,370.947 580.9033,377.947" style="fill:none;stroke:black;stroke-width:1" />
  <polyline points="39.016,363.4208 42.7149,360.5537 48.2632,362.4651 50.1127,360.5537 51.9621,361.828 53.8116,360.2352 55.661,360.5537 61.2093,360.8723 63.0588,363.4208 64.9082,363.7394 66.7577,363.1023 68.6071,363.1023 74.1555,365.3322 76.0049,366.2879 77.8543,366.2879 79.7038,365.6508 81.5532,365.9693 87.1016,365.9693 88.951,367.5622 90.8005,366.6065 92.6499,364.6951 94.4993,363.4208 100.0477,360.2352 101.8971,358.0052 103.7466,354.8195 105.596,354.501 107.4455,353.5453 112.9938,356.4124 114.8432,357.0495 116.6927,356.7309 118.5421,355.4567 120.3916,353.8638 125.9399,346.2183 127.7894,347.174 129.6388,347.4925 131.4882,342.714 133.3377,338.2541 138.886,333.1571 140.7355,337.617 142.5849,333.4756 144.4344,329.0157 146.2838,327.7414 151.8321,318.1845 153.6816,325.5115 155.531,321.6887 157.3805,313.0874 159.2299,300.6633 164.7782,284.735 166.6277,285.6907 168.4771,283.7793 170.3266,269.1253 172.176,266.2582 177.7244,223.2518 179.5738,235.0387 181.4233,235.0387 183.2727,231.5345 185.1221,212.4206 190.6705,218.4733 192.5199,250.3299 194.3694,243.3215 196.2188,234.083 198.0683,230.2603 203.6166,208.9163 205.466,221.9775 207.3155,212.7391 211.0144,194.8994 216.5627,191.0766 218.4121,208.9163 220.2616,213.6948 222.111,193.6252 223.9605,209.2349 229.5088,223.8889 231.3583,235.6759 233.2077,231.5345 235.0572,241.4101 236.9066,226.4375 242.4549,207.6421 244.3044,218.1548 246.1538,234.4016 248.0033,228.6674 249.8527,236.9501 255.401,197.1294 257.2505,214.0134 259.0999,223.2518 260.9494,207.3235 262.7988,197.1294 268.3472,165.2728 270.1966,185.3425 272.046,192.988 273.8955,182.1568 275.7449,164.9542 281.2933,140.4247 283.1427,159.2201 284.9922,175.1484 294.2394,139.469 296.0888,156.6715 297.9383,169.4142 299.7877,156.0344 307.1855,156.353 309.0349,173.5555 310.8844,197.7665 312.7338,203.1822 314.5833,184.7053 321.9811,220.0661 323.8305,236.313 325.6799,229.3046 327.5294,247.1443 333.0777,257.6569 334.9272,276.1338 336.7766,280.9122 338.6261,279.638 340.4755,276.7709 346.0238,276.4523 349.7227,283.7793 351.5722,270.3996 353.4216,261.7983 358.97,263.0725 360.8194,277.7266 362.6688,290.4692 364.5183,284.4165 366.3677,284.4165 371.9161,295.8848 373.7655,304.1676 375.615,299.3891 377.4644,289.8321 379.3138,280.2751 384.8622,287.2836 386.7116,310.8574 388.5611,309.5832 390.4105,302.8933 392.26,317.2288 397.8083,323.2815 399.6577,329.0157 401.5072,325.1929 403.3566,323.9186 405.2061,325.5115 410.7544,327.1043 412.6039,335.0684 414.4533,329.6528 416.3027,312.4503 418.1522,311.4946 423.7005,298.4334 425.55,298.4334 427.3994,293.3363 429.2489,285.3722 431.0983,275.4966 436.6466,268.8067 438.4961,269.7624 440.3455,270.3996 442.195,250.3299 444.0444,236.6316 449.5927,219.7476 451.4422,220.0661 453.2916,221.3404 455.1411,199.3594 456.9905,195.218 462.5389,192.3509 464.3883,214.9691 466.2378,219.429 468.0872,211.7834 469.9366,188.5281 477.3344,174.1927 479.1839,176.7412 481.0333,153.4859 482.8828,148.3888 488.4311,142.6546 490.2805,144.2475 492.13,126.7263 493.9794,113.6651 495.8289,116.2137 501.3772,99.9668 503.2266,95.1883 505.0761,72.8887 506.9255,44.5363 508.775,32.4308 514.3233,42.3064 516.1728,49.3148 518.0222,66.1988 519.8717,77.6672 521.7211,71.2959 527.2694,109.8423 529.1189,105.701 530.9683,125.7706 532.8178,134.6905 534.6672,148.3888 540.2155,149.0259 542.065,175.7855 543.9144,170.6884 547.6133,185.3425 553.1617,171.9627 555.0111,185.661 556.8605,186.2982 558.71,180.564 560.5594,185.0239 567.9572,213.3763 569.8067,232.8088 571.6561,239.8172 573.5056,234.7202 579.0539,261.4797 580.9033,282.1865 582.7528,289.195 586.4517,301.9376 592,310.5389" style="fill:none;stroke:rgb(31,119,180);stroke-width:2;stroke-linejoin:bevel" />
  <text dominant-baseline="hanging" text-anchor="middle" transform="translate(315.508,8)" font-family="Segoe UI" font-size="18" font-weight="700" fill="black">Aktive Fälle Stadt Aachen 07.06.2021</text>
  <polygon points="39.016,29.0795 592,29.0795 592,370.947 39.016,370.947" style="fill:none;stroke:black;stroke-width:1" />
  <polygon points="47.016,37.0795 233.487,37.0795 233.487,63.1325 47.016,63.1325" style="fill:none;stroke:none;" />
  <text dominant-baseline="hanging" text-anchor="start" transform="translate(75.016,45.0795)" font-family="Segoe UI" font-size="12" font-weight="400" fill="black">Aktive Fälle Stadt Aachen 07.06.2021</text>
  <polyline points="55.016,50.106 71.016,50.106" style="fill:none;stroke:rgb(31,119,180);stroke-width:2" />
</svg>