<?xml version="1.0" encoding="utf-8" standalone="no"?>
<!DOCTYPE svg PUBLIC "-//W3C//DTD SVG 1.1//EN" "http://www.w3.org/Graphics/SVG/1.1/DTD/svg11.dtd">
<svg width="600" height="400" version="1.1" xmlns:xlink="http://www.w3.org/1999/xlink" xmlns="http://www.w3.org/2000/svg">
  <rect x="0" y="0" width="600" height="400" style="fill:rgb(255,255,255);stroke:none;" />
  <polyline points="34.012,352.1162 30.012,352.1162" style="fill:none;stroke:black;stroke-width:1" />
  <polyline points="34.012,328.7131 30.012,328.7131" style="fill:none;stroke:black;stroke-width:1" />
  <polyline points="34.012,305.3101 30.012,305.3101" style="fill:none;stroke:black;stroke-width:1" />
  <polyline points="34.012,258.5041 30.012,258.5041" style="fill:none;stroke:black;stroke-width:1" />
  <polyline points="34.012,235.101 30.012,235.101" style="fill:none;stroke:black;stroke-width:1" />
  <polyline points="34.012,211.698 30.012,211.698" style="fill:none;stroke:black;stroke-width:1" />
  <polyline points="34.012,164.892 30.012,164.892" style="fill:none;stroke:black;stroke-width:1" />
  <polyline points="34.012,141.4889 30.012,141.4889" style="fill:none;stroke:black;stroke-width:1" />
  <polyline points="34.012,118.0859 30.012,118.0859" style="fill:none;stroke:black;stroke-width:1" />
  <polyline points="34.012,71.2798 30.012,71.2798" style="fill:none;stroke:black;stroke-width:1" />
  <polyline points="34.012,47.8768 30.012,47.8768" style="fill:none;stroke:black;stroke-width:1" />
  <text dominant-baseline="middle" text-anchor="end" transform="translate(23.012,281.9071)" font-family="Segoe UI" font-size="12" font-weight="400" fill="black">200</text>
  <text dominant-baseline="middle" text-anchor="end" transform="translate(23.012,188.295)" font-family="Segoe UI" font-size="12" font-weight="400" fill="black">400</text>
  <text dominant-baseline="middle" text-anchor="end" transform="translate(23.012,94.6829)" font-family="Segoe UI" font-size="12" font-weight="400" fill="black">600</text>
  <polyline points="34.012,281.9071 27.012,281.9071" style="fill:none;stroke:black;stroke-width:1" />
  <polyline points="34.012,188.295 27.012,188.295" style="fill:none;stroke:black;stroke-width:1" />
  <polyline points="34.012,94.6829 27.012,94.6829" style="fill:none;stroke:black;stroke-width:1" />
  <text dominant-baseline="hanging" text-anchor="middle" transform="translate(88.4499,381.947)" font-family="Segoe UI" font-size="12" font-weight="400" fill="black">01. September</text>
  <text dominant-baseline="hanging" text-anchor="middle" transform="translate(170.1066,381.947)" font-family="Segoe UI" font-size="12" font-weight="400" fill="black">01. October</text>
  <text dominant-baseline="hanging" text-anchor="middle" transform="translate(254.4853,381.947)" font-family="Segoe UI" font-size="12" font-weight="400" fill="black">01. November</text>
  <text dominant-baseline="hanging" text-anchor="middle" transform="translate(336.1421,381.947)" font-family="Segoe UI" font-size="12" font-weight="400" fill="black">01. December</text>
  <text dominant-baseline="hanging" text-anchor="middle" transform="translate(420.5208,381.947)" font-family="Segoe UI" font-size="12" font-weight="400" fill="black">01. January</text>
  <text dominant-baseline="hanging" text-anchor="middle" transform="translate(504.8994,381.947)" font-family="Segoe UI" font-size="12" font-weight="400" fill="black">01. February</text>
  <text dominant-baseline="hanging" text-anchor="middle" transform="translate(581.1124,381.947)" font-family="Segoe UI" font-size="12" font-weight="400" fill="black">01. March</text>
  <polyline points="88.4499,370.947 88.4499,377.947" style="fill:none;stroke:black;stroke-width:1" />
  <polyline points="170.1066,370.947 170.1066,377.947" style="fill:none;stroke:black;stroke-width:1" />
  <polyline points="254.4853,370.947 254.4853,377.947" style="fill:none;stroke:black;stroke-width:1" />
  <polyline points="336.1421,370.947 336.1421,377.947" style="fill:none;stroke:black;stroke-width:1" />
  <polyline points="420.5208,370.947 420.5208,377.947" style="fill:none;stroke:black;stroke-width:1" />
  <polyline points="504.8994,370.947 504.8994,377.947" style="fill:none;stroke:black;stroke-width:1" />
  <polyline points="581.1124,370.947 581.1124,377.947" style="fill:none;stroke:black;stroke-width:1" />
  <polyline points="34.012,361.4774 39.4558,357.2648 47.6215,360.0732 50.3434,357.2648 53.0652,359.1371 55.7871,356.7968 58.509,357.2648 66.6747,357.7329 69.3966,361.4774 72.1185,361.9454 74.8404,361.0093 77.5623,361.0093 85.728,364.2857 88.4499,365.6899 91.1717,365.6899 93.8936,364.7538 96.6155,365.2219 104.7812,365.2219 107.5031,367.5622 110.225,366.158 112.9469,363.3496 115.6688,361.4774 123.8345,356.7968 126.5564,353.5204 129.2782,348.8398 132.0001,348.3717 134.722,346.9675 142.8877,351.1801 145.6096,352.1162 148.3315,351.6481 151.0534,349.7759 153.7753,347.4356 161.941,336.2021 164.6628,337.6063 167.3847,338.0744 170.1066,331.0534 172.8285,324.5006 180.9942,317.0116 183.7161,323.5645 186.438,317.4797 189.1599,310.9268 191.8818,309.0546 200.0475,295.0128 202.7693,305.7782 205.4912,300.1615 208.2131,287.5238 210.935,269.2695 219.1007,245.8664 221.8226,247.2706 224.5445,244.4622 227.2664,222.9315 229.9883,218.7189 238.154,155.5307 240.8758,172.849 243.5977,172.849 246.3196,167.7003 249.0415,139.6167 257.2072,148.5098 259.9291,195.3159 262.651,185.0186 265.3729,171.4448 268.0948,165.8281 276.2604,134.468 278.9823,153.6585 281.7042,140.0847 287.148,113.8734 295.3137,108.2566 298.0356,134.468 300.7575,141.4889 303.4794,112.0011 306.2013,134.9361 314.3669,156.4669 317.0888,173.7851 319.8107,167.7003 322.5326,182.2102 325.2545,160.2113 333.4202,132.5958 336.1421,148.0418 338.864,171.9129 341.5859,163.4878 344.3078,175.6573 352.4734,117.1498 355.1953,141.957 357.9172,155.5307 360.6391,132.1277 363.361,117.1498 371.5267,70.3437 374.2486,99.8315 376.9705,111.065 379.6924,95.1509 382.4143,69.8757 390.5799,33.835 393.3018,61.4506 396.0237,84.8536 409.6332,32.4308 412.3551,57.7061 415.077,76.4285 417.7989,56.77 428.6864,57.238 431.4083,82.5133 434.1302,118.0859 436.8521,126.0429 439.574,98.8954 450.4616,150.8501 453.1835,174.7212 455.9054,164.4239 458.6273,190.6353 466.7929,206.0813 469.5148,233.2288 472.2367,240.2497 474.9586,238.3775 477.6805,234.1649 485.8462,233.6969 491.29,244.4622 494.0119,224.8037 496.7338,212.1661 504.8994,214.0383 507.6213,235.5691 510.3432,254.2915 513.0651,245.3984 515.787,245.3984 523.9527,262.2485 526.6746,274.4181 529.3965,267.3972 532.1184,253.3554 534.8403,239.3136 543.0059,249.6109 545.7278,284.2474 548.4497,282.3752 551.1716,272.5459 553.8935,293.6086 562.0592,302.5018 564.7811,310.9268 567.503,305.3101 570.2249,303.4379 572.9468,305.7782 581.1124,308.1185 583.8343,319.82 586.5562,311.863 589.2781,286.5877 592,285.1835" style="fill:none;stroke:rgb(31,119,180);stroke-width:2;stroke-linejoin:bevel" />
  <text dominant-baseline="hanging" text-anchor="middle" transform="translate(313.006,8)" font-family="Segoe UI" font-size="18" font-weight="700" fill="black">Aktive Fälle Stadt Aachen 05.03.2021</text>
  <polygon points="34.012,29.0795 592,29.0795 592,370.947 34.012,370.947" style="fill:none;stroke:black;stroke-width:1" />
  <polygon points="42.012,37.0795 228.483,37.0795 228.483,63.1325 42.012,63.1325" style="fill:none;stroke:none;" />
  <text dominant-baseline="hanging" text-anchor="start" transform="translate(70.012,45.0795)" font-family="Segoe UI" font-size="12" font-weight="400" fill="black">Aktive Fälle Stadt Aachen 05.03.2021</text>
  <polyline points="50.012,50.106 66.012,50.106" style="fill:none;stroke:rgb(31,119,180);stroke-width:2" />
</svg>