<?xml version="1.0" encoding="utf-8" standalone="no"?>
<!DOCTYPE svg PUBLIC "-//W3C//DTD SVG 1.1//EN" "http://www.w3.org/Graphics/SVG/1.1/DTD/svg11.dtd">
<svg width="600" height="400" version="1.1" xmlns:xlink="http://www.w3.org/1999/xlink" xmlns="http://www.w3.org/2000/svg">
  <rect x="0" y="0" width="600" height="400" style="fill:rgb(255,255,255);stroke:none;" />
  <polyline points="39.016,357.0495 35.016,357.0495" style="fill:none;stroke:black;stroke-width:1" />
  <polyline points="39.016,341.1212 35.016,341.1212" style="fill:none;stroke:black;stroke-width:1" />
  <polyline points="39.016,325.1929 35.016,325.1929" style="fill:none;stroke:black;stroke-width:1" />
  <polyline points="39.016,293.3363 35.016,293.3363" style="fill:none;stroke:black;stroke-width:1" />
  <polyline points="39.016,277.408 35.016,277.408" style="fill:none;stroke:black;stroke-width:1" />
  <polyline points="39.016,261.4797 35.016,261.4797" style="fill:none;stroke:black;stroke-width:1" />
  <polyline points="39.016,229.6231 35.016,229.6231" style="fill:none;stroke:black;stroke-width:1" />
  <polyline points="39.016,213.6948 35.016,213.6948" style="fill:none;stroke:black;stroke-width:1" />
  <polyline points="39.016,197.7665 35.016,197.7665" style="fill:none;stroke:black;stroke-width:1" />
  <polyline points="39.016,165.9099 35.016,165.9099" style="fill:none;stroke:black;stroke-width:1" />
  <polyline points="39.016,149.9816 35.016,149.9816" style="fill:none;stroke:black;stroke-width:1" />
  <polyline points="39.016,134.0533 35.016,134.0533" style="fill:none;stroke:black;stroke-width:1" />
  <polyline points="39.016,102.1968 35.016,102.1968" style="fill:none;stroke:black;stroke-width:1" />
  <polyline points="39.016,86.2685 35.016,86.2685" style="fill:none;stroke:black;stroke-width:1" />
  <polyline points="39.016,70.3402 35.016,70.3402" style="fill:none;stroke:black;stroke-width:1" />
  <polyline points="39.016,38.4836 35.016,38.4836" style="fill:none;stroke:black;stroke-width:1" />
  <text dominant-baseline="middle" text-anchor="end" transform="translate(28.016,309.2646)" font-family="Segoe UI" font-size="12" font-weight="400" fill="black">200</text>
  <text dominant-baseline="middle" text-anchor="end" transform="translate(28.016,245.5514)" font-family="Segoe UI" font-size="12" font-weight="400" fill="black">400</text>
  <text dominant-baseline="middle" text-anchor="end" transform="translate(28.016,181.8382)" font-family="Segoe UI" font-size="12" font-weight="400" fill="black">600</text>
  <text dominant-baseline="middle" text-anchor="end" transform="translate(28.016,118.125)" font-family="Segoe UI" font-size="12" font-weight="400" fill="black">800</text>
  <text dominant-baseline="middle" text-anchor="end" transform="translate(28.016,54.4119)" font-family="Segoe UI" font-size="12" font-weight="400" fill="black">1000</text>
  <polyline points="39.016,309.2646 32.016,309.2646" style="fill:none;stroke:black;stroke-width:1" />
  <polyline points="39.016,245.5514 32.016,245.5514" style="fill:none;stroke:black;stroke-width:1" />
  <polyline points="39.016,181.8382 32.016,181.8382" style="fill:none;stroke:black;stroke-width:1" />
  <polyline points="39.016,118.125 32.016,118.125" style="fill:none;stroke:black;stroke-width:1" />
  <polyline points="39.016,54.4119 32.016,54.4119" style="fill:none;stroke:black;stroke-width:1" />
  <text dominant-baseline="hanging" text-anchor="middle" transform="translate(78.5149,381.947)" font-family="Segoe UI" font-size="12" font-weight="400" fill="black">01. September</text>
  <text dominant-baseline="hanging" text-anchor="middle" transform="translate(137.7631,381.947)" font-family="Segoe UI" font-size="12" font-weight="400" fill="black">01. October</text>
  <text dominant-baseline="hanging" text-anchor="middle" transform="translate(198.9864,381.947)" font-family="Segoe UI" font-size="12" font-weight="400" fill="black">01. November</text>
  <text dominant-baseline="hanging" text-anchor="middle" transform="translate(258.2347,381.947)" font-family="Segoe UI" font-size="12" font-weight="400" fill="black">01. December</text>
  <text dominant-baseline="hanging" text-anchor="middle" transform="translate(319.4579,381.947)" font-family="Segoe UI" font-size="12" font-weight="400" fill="black">01. January</text>
  <text dominant-baseline="hanging" text-anchor="middle" transform="translate(380.6811,381.947)" font-family="Segoe UI" font-size="12" font-weight="400" fill="black">01. February</text>
  <text dominant-baseline="hanging" text-anchor="middle" transform="translate(435.9795,381.947)" font-family="Segoe UI" font-size="12" font-weight="400" fill="black">01. March</text>
  <text dominant-baseline="hanging" text-anchor="middle" transform="translate(497.2027,381.947)" font-family="Segoe UI" font-size="12" font-weight="400" fill="black">01. April</text>
  <text dominant-baseline="hanging" text-anchor="middle" transform="translate(556.451,381.947)" font-family="Segoe UI" font-size="12" font-weight="400" fill="black">01. May</text>
  <polyline points="78.5149,370.947 78.5149,377.947" style="fill:none;stroke:black;stroke-width:1" />
  <polyline points="137.7631,370.947 137.7631,377.947" style="fill:none;stroke:black;stroke-width:1" />
  <polyline points="198.9864,370.947 198.9864,377.947" style="fill:none;stroke:black;stroke-width:1" />
  <polyline points="258.2347,370.947 258.2347,377.947" style="fill:none;stroke:black;stroke-width:1" />
  <polyline points="319.4579,370.947 319.4579,377.947" style="fill:none;stroke:black;stroke-width:1" />
  <polyline points="380.6811,370.947 380.6811,377.947" style="fill:none;stroke:black;stroke-width:1" />
  <polyline points="435.9795,370.947 435.9795,377.947" style="fill:none;stroke:black;stroke-width:1" />
  <polyline points="497.2027,370.947 497.2027,377.947" style="fill:none;stroke:black;stroke-width:1" />
  <polyline points="556.451,370.947 556.451,377.947" style="fill:none;stroke:black;stroke-width:1" />
  <polyline points="39.016,363.4208 42.9659,360.5537 48.8907,362.4651 50.8657,360.5537 52.8406,361.828 54.8155,360.2352 56.7905,360.5537 62.7153,360.8723 64.6903,363.4208 66.6652,363.7394 68.6401,363.1023 70.6151,363.1023 76.5399,365.3322 78.5149,366.2879 80.4898,366.2879 82.4647,365.6508 84.4397,365.9693 90.3645,365.9693 92.3395,367.5622 94.3144,366.6065 96.2893,364.6951 98.2643,363.4208 104.1891,360.2352 106.1641,358.0052 108.139,354.8195 110.1139,354.501 112.0889,353.5453 118.0137,356.4124 119.9887,357.0495 121.9636,356.7309 123.9385,355.4567 125.9135,353.8638 131.8383,346.2183 133.8133,347.174 135.7882,347.4925 137.7631,342.714 139.7381,338.2541 145.6629,333.1571 147.6379,337.617 149.6128,333.4756 151.5877,329.0157 153.5627,327.7414 159.4875,318.1845 161.4625,325.5115 163.4374,321.6887 165.4123,313.0874 167.3873,300.6633 173.3121,284.735 175.2871,285.6907 177.262,283.7793 179.2369,269.1253 181.2119,266.2582 187.1367,223.2518 189.1117,235.0387 191.0866,235.0387 193.0615,231.5345 195.0365,212.4206 200.9613,218.4733 202.9363,250.3299 204.9112,243.3215 206.8861,234.083 208.8611,230.2603 214.7859,208.9163 216.7609,221.9775 218.7358,212.7391 222.6857,194.8994 228.6105,191.0766 230.5855,208.9163 232.5604,213.6948 234.5353,193.6252 236.5103,209.2349 242.4351,223.8889 244.4101,235.6759 246.385,231.5345 248.3599,241.4101 250.3349,226.4375 256.2597,207.6421 258.2347,218.1548 260.2096,234.4016 262.1845,228.6674 264.1595,236.9501 270.0843,197.1294 272.0593,214.0134 274.0342,223.2518 276.0091,207.3235 277.9841,197.1294 283.9089,165.2728 285.8839,185.3425 287.8588,192.988 289.8337,182.1568 291.8087,164.9542 297.7335,140.4247 299.7085,159.2201 301.6834,175.1484 311.5581,139.469 313.5331,156.6715 315.508,169.4142 317.4829,156.0344 325.3827,156.353 327.3577,173.5555 329.3326,197.7665 331.3075,203.1822 333.2825,184.7053 341.1823,220.0661 343.1572,236.313 345.1321,229.3046 347.1071,247.1443 353.0319,257.6569 355.0069,276.1338 356.9818,280.9122 358.9567,279.638 360.9317,276.7709 366.8565,276.4523 370.8064,283.7793 372.7813,270.3996 374.7563,261.7983 380.6811,263.0725 382.6561,277.7266 384.631,290.4692 386.6059,284.4165 388.5809,284.4165 394.5057,295.8848 396.4807,304.1676 398.4556,299.3891 400.4305,289.8321 402.4055,280.2751 408.3303,287.2836 410.3053,310.8574 412.2802,309.5832 414.2551,302.8933 416.2301,317.2288 422.1549,323.2815 424.1299,329.0157 426.1048,325.1929 428.0797,323.9186 430.0547,325.5115 435.9795,327.1043 437.9545,335.0684 439.9294,329.6528 441.9043,312.4503 443.8793,311.4946 449.8041,298.4334 451.7791,298.4334 453.754,293.3363 455.7289,285.3722 457.7039,275.4966 463.6287,268.8067 465.6037,269.7624 467.5786,270.3996 469.5535,250.3299 471.5285,236.6316 477.4533,219.7476 479.4283,220.0661 481.4032,221.3404 483.3781,199.3594 485.3531,195.218 491.2779,192.3509 493.2529,214.9691 495.2278,219.429 497.2027,211.7834 499.1777,188.5281 507.0775,174.1927 509.0524,176.7412 511.0273,153.4859 513.0023,148.3888 518.9271,142.6546 520.9021,144.2475 522.877,126.7263 524.8519,113.6651 526.8269,116.2137 532.7517,99.9668 534.7267,95.1883 536.7016,72.8887 538.6765,44.5363 540.6515,32.4308 546.5763,42.3064 548.5513,49.3148 550.5262,66.1988 552.5011,77.6672 554.4761,71.2959 560.4009,109.8423 562.3759,105.701 564.3508,125.7706 566.3257,134.6905 568.3007,148.3888 574.2255,149.0259 576.2005,175.7855 578.1754,170.6884 582.1253,185.3425 588.0501,171.9627 590.0251,185.661 592,186.2982" style="fill:none;stroke:rgb(31,119,180);stroke-width:2;stroke-linejoin:bevel" />
  <text dominant-baseline="hanging" text-anchor="middle" transform="translate(315.508,8)" font-family="Segoe UI" font-size="18" font-weight="700" fill="black">Aktive Fälle Stadt Aachen 19.05.2021</text>
  <polygon points="39.016,29.0795 592,29.0795 592,370.947 39.016,370.947" style="fill:none;stroke:black;stroke-width:1" />
  <polygon points="47.016,37.0795 233.487,37.0795 233.487,63.1325 47.016,63.1325" style="fill:none;stroke:none;" />
  <text dominant-baseline="hanging" text-anchor="start" transform="translate(75.016,45.0795)" font-family="Segoe UI" font-size="12" font-weight="400" fill="black">Aktive Fälle Stadt Aachen 19.05.2021</text>
  <polyline points="55.016,50.106 71.016,50.106" style="fill:none;stroke:rgb(31,119,180);stroke-width:2" />
</svg>