<?xml version="1.0" encoding="utf-8" standalone="no"?>
<!DOCTYPE svg PUBLIC "-//W3C//DTD SVG 1.1//EN" "http://www.w3.org/Graphics/SVG/1.1/DTD/svg11.dtd">
<svg width="600" height="400" version="1.1" xmlns:xlink="http://www.w3.org/1999/xlink" xmlns="http://www.w3.org/2000/svg">
  <rect x="0" y="0" width="600" height="400" style="fill:rgb(255,255,255);stroke:none;" />
  <polyline points="39.016,366.6938 35.016,366.6938" style="fill:none;stroke:black;stroke-width:1" />
  <polyline points="39.016,350.2971 35.016,350.2971" style="fill:none;stroke:black;stroke-width:1" />
  <polyline points="39.016,333.9005 35.016,333.9005" style="fill:none;stroke:black;stroke-width:1" />
  <polyline points="39.016,301.1071 35.016,301.1071" style="fill:none;stroke:black;stroke-width:1" />
  <polyline points="39.016,284.7104 35.016,284.7104" style="fill:none;stroke:black;stroke-width:1" />
  <polyline points="39.016,268.3137 35.016,268.3137" style="fill:none;stroke:black;stroke-width:1" />
  <polyline points="39.016,235.5203 35.016,235.5203" style="fill:none;stroke:black;stroke-width:1" />
  <polyline points="39.016,219.1237 35.016,219.1237" style="fill:none;stroke:black;stroke-width:1" />
  <polyline points="39.016,202.727 35.016,202.727" style="fill:none;stroke:black;stroke-width:1" />
  <polyline points="39.016,169.9336 35.016,169.9336" style="fill:none;stroke:black;stroke-width:1" />
  <polyline points="39.016,153.5369 35.016,153.5369" style="fill:none;stroke:black;stroke-width:1" />
  <polyline points="39.016,137.1402 35.016,137.1402" style="fill:none;stroke:black;stroke-width:1" />
  <polyline points="39.016,104.3468 35.016,104.3468" style="fill:none;stroke:black;stroke-width:1" />
  <polyline points="39.016,87.9502 35.016,87.9502" style="fill:none;stroke:black;stroke-width:1" />
  <polyline points="39.016,71.5535 35.016,71.5535" style="fill:none;stroke:black;stroke-width:1" />
  <polyline points="39.016,38.7601 35.016,38.7601" style="fill:none;stroke:black;stroke-width:1" />
  <text dominant-baseline="middle" text-anchor="end" transform="translate(28.016,317.5038)" font-family="Segoe UI" font-size="12" font-weight="400" fill="black">200</text>
  <text dominant-baseline="middle" text-anchor="end" transform="translate(28.016,251.917)" font-family="Segoe UI" font-size="12" font-weight="400" fill="black">400</text>
  <text dominant-baseline="middle" text-anchor="end" transform="translate(28.016,186.3303)" font-family="Segoe UI" font-size="12" font-weight="400" fill="black">600</text>
  <text dominant-baseline="middle" text-anchor="end" transform="translate(28.016,120.7435)" font-family="Segoe UI" font-size="12" font-weight="400" fill="black">800</text>
  <text dominant-baseline="middle" text-anchor="end" transform="translate(28.016,55.1568)" font-family="Segoe UI" font-size="12" font-weight="400" fill="black">1000</text>
  <polyline points="39.016,317.5038 32.016,317.5038" style="fill:none;stroke:black;stroke-width:1" />
  <polyline points="39.016,251.917 32.016,251.917" style="fill:none;stroke:black;stroke-width:1" />
  <polyline points="39.016,186.3303 32.016,186.3303" style="fill:none;stroke:black;stroke-width:1" />
  <polyline points="39.016,120.7435 32.016,120.7435" style="fill:none;stroke:black;stroke-width:1" />
  <polyline points="39.016,55.1568 32.016,55.1568" style="fill:none;stroke:black;stroke-width:1" />
  <polyline points="39.016,277.8238 591.6696,373.2525 591.6711,370.3011 591.6786,370.629 591.6793,373.2525 591.6838,375.2201 591.6846,376.2039 591.6913,374.5642 591.6921,373.2525 591.6943,369.9732 591.6951,367.6776 591.6958,364.3983 591.6996,366.038 591.7003,366.6938 591.7018,365.0542 591.7026,363.4145 591.7048,355.5441 591.7063,356.8558 591.7071,351.9368 591.7078,347.3457 591.7101,342.0988 591.7108,346.6899 591.7116,342.4267 591.7123,337.8357 591.7131,336.5239 591.7153,326.6859 591.716,334.2284 591.7168,330.2932 591.7175,321.439 591.7183,308.6496 591.7205,292.2529 591.722,291.2691 591.7228,276.1841 591.7235,273.2327 591.7258,228.9617 591.7265,241.0952 591.7273,241.0952 591.728,237.4879 591.7288,217.8119 591.731,224.0427 591.7318,256.836 591.7325,249.6215 591.7333,240.1114 591.734,236.1762 591.7363,214.2046 591.737,227.6499 591.7378,218.1398 591.7393,199.7756 591.7415,195.8404 591.7423,214.2046 591.743,219.1237 591.7438,198.4638 591.7445,214.5326 591.7468,229.6175 591.7475,241.7511 591.7483,237.4879 591.749,247.6539 591.7498,232.241 591.752,212.8929 591.7528,223.7147 591.7535,240.4393 591.7543,234.5365 591.755,243.0628 591.7573,202.0711 591.758,219.4516 591.7588,228.9617 591.7595,212.565 591.7603,202.0711 591.7625,169.2777 591.7632,189.9375 591.764,197.808 591.7647,186.6582 591.7655,168.9498 591.7677,143.6989 591.7685,163.047 591.7692,179.4437 591.773,142.7151 591.7737,160.4235 591.7745,173.5409 591.7752,159.7676 591.7782,160.0956 591.779,177.804 591.7797,202.727 591.7805,208.3018 591.7812,189.2817 591.7842,225.6823 591.785,242.4069 591.7857,235.1924 591.7865,253.5567 591.7887,264.3785 591.7895,283.3987 591.7902,288.3177 591.791,287.0059 591.7917,284.0545 591.794,283.7266 591.7955,291.2691 591.7962,277.4959 591.797,268.6416 591.7992,269.9534 591.8,285.0383 591.8007,298.1557 591.8015,291.9249 591.8022,291.9249 591.8045,303.7306 591.8052,312.2568 591.806,307.3378 591.8067,297.4998 591.8075,287.6618 591.8097,294.8763 591.8104,319.1434 591.8112,317.8317 591.8119,310.9451 591.8127,325.7021 591.8149,331.9329 591.8157,337.8357 591.8164,333.9005 591.8202,335.8681 591.8209,344.0664 591.8217,338.4915 591.8224,320.7831 591.8232,319.7993 591.8254,306.354 591.8262,306.354 591.8269,301.1071 591.8277,292.9087 591.8284,282.7428 591.8307,275.8562 591.8322,277.4959 591.8329,256.836 591.8337,242.7349 591.8359,225.3544 591.8374,226.9941 591.8382,204.3666 591.8389,200.1035 591.8412,197.1521 591.8419,220.4354 591.8427,225.0265 591.8434,217.156 591.8442,193.2169 591.8472,178.4599 591.8479,181.0833 591.8487,157.1442 591.8494,151.8972 591.8517,145.9944 591.8524,147.6341 591.8532,129.5977 591.8539,116.1525 591.8547,118.7759 591.8569,102.0513 591.8577,97.1323 591.8584,74.1769 591.8591,44.9908 591.8599,32.5294 591.8621,42.6953 591.8629,49.9099 591.8636,67.2903 591.8644,79.096 591.8651,72.5373 591.8674,112.2173 591.8681,107.9541 591.8689,128.6139 591.8696,137.7961 591.8704,151.8972 591.8726,152.5531 591.8734,180.0995 591.8741,174.8526 591.8756,189.9375 591.8779,176.1643 591.8786,190.2655 591.8794,190.9214 591.8801,185.0185 591.8809,189.6096 591.8839,218.7957 591.8846,238.7997 591.8854,246.0142 591.8861,240.7673 591.8884,268.3137 591.8891,289.6294 591.8899,296.8439 591.8914,309.9613 591.8936,318.8155 591.8944,326.358 591.8951,337.5077 591.8959,341.4429 591.8966,346.3619 591.8996,346.6899 591.9004,358.1675 591.9041,360.1352 591.9049,361.4469 591.9071,362.4307 591.9093,363.7424 591.9161,365.3821 591.9176,366.038 591.9213,364.7262 591.9228,358.1675 591.9266,347.6737 591.9281,335.5401 591.9318,333.2446 591.9333,326.6859 591.9371,334.5563 591.9386,331.277 591.9423,316.52 591.9438,292.9087 591.9476,277.8238 591.9491,263.7226 591.9528,233.5527 591.9543,230.6013 591.958,230.2734 591.9595,227.9779 591.9648,239.7835 591.97,257.4919 591.9738,275.8562 591.9753,278.8076 591.979,289.3015 591.9805,294.8763 591.9843,307.9937 591.9858,309.3054 591.9895,314.5524 591.9948,314.8803 591.9963,303.4026 592,287.0059" style="fill:none;stroke:rgb(31,119,180);stroke-width:2;stroke-linejoin:bevel" />
  <text dominant-baseline="hanging" text-anchor="middle" transform="translate(315.508,8)" font-family="Segoe UI" font-size="18" font-weight="700" fill="black">Aktive Fälle Stadt Aachen 27.10.2021</text>
  <polygon points="39.016,29.0795 592,29.0795 592,381 39.016,381" style="fill:none;stroke:black;stroke-width:1" />
  <polygon points="47.016,37.0795 233.487,37.0795 233.487,63.1325 47.016,63.1325" style="fill:none;stroke:none;" />
  <text dominant-baseline="hanging" text-anchor="start" transform="translate(75.016,45.0795)" font-family="Segoe UI" font-size="12" font-weight="400" fill="black">Aktive Fälle Stadt Aachen 27.10.2021</text>
  <polyline points="55.016,50.106 71.016,50.106" style="fill:none;stroke:rgb(31,119,180);stroke-width:2" />
</svg>