<?xml version="1.0" encoding="utf-8" standalone="no"?>
<!DOCTYPE svg PUBLIC "-//W3C//DTD SVG 1.1//EN" "http://www.w3.org/Graphics/SVG/1.1/DTD/svg11.dtd">
<svg width="600" height="400" version="1.1" xmlns:xlink="http://www.w3.org/1999/xlink" xmlns="http://www.w3.org/2000/svg">
  <rect x="0" y="0" width="600" height="400" style="fill:rgb(255,255,255);stroke:none;" />
  <polyline points="34.012,359.519 30.012,359.519" style="fill:none;stroke:black;stroke-width:1" />
  <polyline points="34.012,332.7085 30.012,332.7085" style="fill:none;stroke:black;stroke-width:1" />
  <polyline points="34.012,305.898 30.012,305.898" style="fill:none;stroke:black;stroke-width:1" />
  <polyline points="34.012,252.277 30.012,252.277" style="fill:none;stroke:black;stroke-width:1" />
  <polyline points="34.012,225.4665 30.012,225.4665" style="fill:none;stroke:black;stroke-width:1" />
  <polyline points="34.012,198.656 30.012,198.656" style="fill:none;stroke:black;stroke-width:1" />
  <polyline points="34.012,171.8455 30.012,171.8455" style="fill:none;stroke:black;stroke-width:1" />
  <polyline points="34.012,118.2244 30.012,118.2244" style="fill:none;stroke:black;stroke-width:1" />
  <polyline points="34.012,91.4139 30.012,91.4139" style="fill:none;stroke:black;stroke-width:1" />
  <polyline points="34.012,64.6034 30.012,64.6034" style="fill:none;stroke:black;stroke-width:1" />
  <polyline points="34.012,37.7929 30.012,37.7929" style="fill:none;stroke:black;stroke-width:1" />
  <text dominant-baseline="middle" text-anchor="end" transform="translate(23.012,279.0875)" font-family="Segoe UI" font-size="12" font-weight="400" fill="black">50</text>
  <text dominant-baseline="middle" text-anchor="end" transform="translate(23.012,145.035)" font-family="Segoe UI" font-size="12" font-weight="400" fill="black">100</text>
  <polyline points="34.012,279.0875 27.012,279.0875" style="fill:none;stroke:black;stroke-width:1" />
  <polyline points="34.012,145.035 27.012,145.035" style="fill:none;stroke:black;stroke-width:1" />
  <text dominant-baseline="hanging" text-anchor="middle" transform="translate(62.8734,381.947)" font-family="Segoe UI" font-size="12" font-weight="400" fill="black">15. August</text>
  <text dominant-baseline="hanging" text-anchor="middle" transform="translate(130.2168,381.947)" font-family="Segoe UI" font-size="12" font-weight="400" fill="black">22. August</text>
  <text dominant-baseline="hanging" text-anchor="middle" transform="translate(197.5602,381.947)" font-family="Segoe UI" font-size="12" font-weight="400" fill="black">29. August</text>
  <text dominant-baseline="hanging" text-anchor="middle" transform="translate(264.9036,381.947)" font-family="Segoe UI" font-size="12" font-weight="400" fill="black">05. September</text>
  <text dominant-baseline="hanging" text-anchor="middle" transform="translate(332.247,381.947)" font-family="Segoe UI" font-size="12" font-weight="400" fill="black">12. September</text>
  <text dominant-baseline="hanging" text-anchor="middle" transform="translate(399.5903,381.947)" font-family="Segoe UI" font-size="12" font-weight="400" fill="black">19. September</text>
  <text dominant-baseline="hanging" text-anchor="middle" transform="translate(466.9337,381.947)" font-family="Segoe UI" font-size="12" font-weight="400" fill="black">26. September</text>
  <text dominant-baseline="hanging" text-anchor="middle" transform="translate(534.2771,381.947)" font-family="Segoe UI" font-size="12" font-weight="400" fill="black">03. October</text>
  <polyline points="62.8734,370.947 62.8734,377.947" style="fill:none;stroke:black;stroke-width:1" />
  <polyline points="130.2168,370.947 130.2168,377.947" style="fill:none;stroke:black;stroke-width:1" />
  <polyline points="197.5602,370.947 197.5602,377.947" style="fill:none;stroke:black;stroke-width:1" />
  <polyline points="264.9036,370.947 264.9036,377.947" style="fill:none;stroke:black;stroke-width:1" />
  <polyline points="332.247,370.947 332.247,377.947" style="fill:none;stroke:black;stroke-width:1" />
  <polyline points="399.5903,370.947 399.5903,377.947" style="fill:none;stroke:black;stroke-width:1" />
  <polyline points="466.9337,370.947 466.9337,377.947" style="fill:none;stroke:black;stroke-width:1" />
  <polyline points="534.2771,370.947 534.2771,377.947" style="fill:none;stroke:black;stroke-width:1" />
  <polyline points="34.012,332.7085 53.253,308.5791 82.1144,324.6654 91.7349,308.5791 101.3554,319.3033 110.9759,305.898 120.5963,308.5791 149.4578,311.2601 159.0783,332.7085 168.6988,335.3896 178.3192,330.0275 187.9397,330.0275 216.8012,348.7948 226.4217,356.838 236.0421,356.838 245.6626,351.4759 255.2831,354.1569 284.1446,354.1569 293.765,367.5622 303.3855,359.519 313.006,343.4327 322.6265,332.7085 351.4879,305.898 361.1084,287.1306 370.7289,260.3201 380.3494,257.6391 389.9699,249.5959 418.8313,273.7254 428.4518,279.0875 438.0723,276.4064 447.6928,265.6822 457.3132,252.277 486.1747,187.9318 495.7952,195.9749 505.4157,198.656 515.0361,158.4402 524.6566,120.9055 553.5181,78.0087 563.1386,115.5434 572.759,80.6897 582.3795,43.155 592,32.4308" style="fill:none;stroke:rgb(31,119,180);stroke-width:2;stroke-linejoin:bevel" />
  <text dominant-baseline="hanging" text-anchor="middle" transform="translate(313.006,8)" font-family="Segoe UI" font-size="18" font-weight="700" fill="black">Aktive Fälle Stadt Aachen 09.10.2020</text>
  <polygon points="34.012,29.0795 592,29.0795 592,370.947 34.012,370.947" style="fill:none;stroke:black;stroke-width:1" />
  <polygon points="42.012,37.0795 228.483,37.0795 228.483,63.1325 42.012,63.1325" style="fill:none;stroke:none;" />
  <text dominant-baseline="hanging" text-anchor="start" transform="translate(70.012,45.0795)" font-family="Segoe UI" font-size="12" font-weight="400" fill="black">Aktive Fälle Stadt Aachen 09.10.2020</text>
  <polyline points="50.012,50.106 66.012,50.106" style="fill:none;stroke:rgb(31,119,180);stroke-width:2" />
</svg>