<?xml version="1.0" encoding="utf-8" standalone="no"?>
<!DOCTYPE svg PUBLIC "-//W3C//DTD SVG 1.1//EN" "http://www.w3.org/Graphics/SVG/1.1/DTD/svg11.dtd">
<svg width="600" height="400" version="1.1" xmlns:xlink="http://www.w3.org/1999/xlink" xmlns="http://www.w3.org/2000/svg">
  <rect x="0" y="0" width="600" height="400" style="fill:rgb(255,255,255);stroke:none;" />
  <polyline points="34.012,352.1162 30.012,352.1162" style="fill:none;stroke:black;stroke-width:1" />
  <polyline points="34.012,328.7131 30.012,328.7131" style="fill:none;stroke:black;stroke-width:1" />
  <polyline points="34.012,305.3101 30.012,305.3101" style="fill:none;stroke:black;stroke-width:1" />
  <polyline points="34.012,258.5041 30.012,258.5041" style="fill:none;stroke:black;stroke-width:1" />
  <polyline points="34.012,235.101 30.012,235.101" style="fill:none;stroke:black;stroke-width:1" />
  <polyline points="34.012,211.698 30.012,211.698" style="fill:none;stroke:black;stroke-width:1" />
  <polyline points="34.012,164.892 30.012,164.892" style="fill:none;stroke:black;stroke-width:1" />
  <polyline points="34.012,141.4889 30.012,141.4889" style="fill:none;stroke:black;stroke-width:1" />
  <polyline points="34.012,118.0859 30.012,118.0859" style="fill:none;stroke:black;stroke-width:1" />
  <polyline points="34.012,71.2798 30.012,71.2798" style="fill:none;stroke:black;stroke-width:1" />
  <polyline points="34.012,47.8768 30.012,47.8768" style="fill:none;stroke:black;stroke-width:1" />
  <text dominant-baseline="middle" text-anchor="end" transform="translate(23.012,281.9071)" font-family="Segoe UI" font-size="12" font-weight="400" fill="black">200</text>
  <text dominant-baseline="middle" text-anchor="end" transform="translate(23.012,188.295)" font-family="Segoe UI" font-size="12" font-weight="400" fill="black">400</text>
  <text dominant-baseline="middle" text-anchor="end" transform="translate(23.012,94.6829)" font-family="Segoe UI" font-size="12" font-weight="400" fill="black">600</text>
  <polyline points="34.012,281.9071 27.012,281.9071" style="fill:none;stroke:black;stroke-width:1" />
  <polyline points="34.012,188.295 27.012,188.295" style="fill:none;stroke:black;stroke-width:1" />
  <polyline points="34.012,94.6829 27.012,94.6829" style="fill:none;stroke:black;stroke-width:1" />
  <text dominant-baseline="hanging" text-anchor="middle" transform="translate(79.9369,381.947)" font-family="Segoe UI" font-size="12" font-weight="400" fill="black">01. September</text>
  <text dominant-baseline="hanging" text-anchor="middle" transform="translate(148.8243,381.947)" font-family="Segoe UI" font-size="12" font-weight="400" fill="black">01. October</text>
  <text dominant-baseline="hanging" text-anchor="middle" transform="translate(220.008,381.947)" font-family="Segoe UI" font-size="12" font-weight="400" fill="black">01. November</text>
  <text dominant-baseline="hanging" text-anchor="middle" transform="translate(288.8954,381.947)" font-family="Segoe UI" font-size="12" font-weight="400" fill="black">01. December</text>
  <text dominant-baseline="hanging" text-anchor="middle" transform="translate(360.0791,381.947)" font-family="Segoe UI" font-size="12" font-weight="400" fill="black">01. January</text>
  <text dominant-baseline="hanging" text-anchor="middle" transform="translate(431.2627,381.947)" font-family="Segoe UI" font-size="12" font-weight="400" fill="black">01. February</text>
  <text dominant-baseline="hanging" text-anchor="middle" transform="translate(495.5576,381.947)" font-family="Segoe UI" font-size="12" font-weight="400" fill="black">01. March</text>
  <text dominant-baseline="hanging" text-anchor="middle" transform="translate(566.7413,381.947)" font-family="Segoe UI" font-size="12" font-weight="400" fill="black">01. April</text>
  <polyline points="79.9369,370.947 79.9369,377.947" style="fill:none;stroke:black;stroke-width:1" />
  <polyline points="148.8243,370.947 148.8243,377.947" style="fill:none;stroke:black;stroke-width:1" />
  <polyline points="220.008,370.947 220.008,377.947" style="fill:none;stroke:black;stroke-width:1" />
  <polyline points="288.8954,370.947 288.8954,377.947" style="fill:none;stroke:black;stroke-width:1" />
  <polyline points="360.0791,370.947 360.0791,377.947" style="fill:none;stroke:black;stroke-width:1" />
  <polyline points="431.2627,370.947 431.2627,377.947" style="fill:none;stroke:black;stroke-width:1" />
  <polyline points="495.5576,370.947 495.5576,377.947" style="fill:none;stroke:black;stroke-width:1" />
  <polyline points="566.7413,370.947 566.7413,377.947" style="fill:none;stroke:black;stroke-width:1" />
  <polyline points="34.012,361.4774 38.6045,357.2648 45.4932,360.0732 47.7895,357.2648 50.0857,359.1371 52.382,356.7968 54.6782,357.2648 61.567,357.7329 63.8632,361.4774 66.1595,361.9454 68.4557,361.0093 70.752,361.0093 77.6407,364.2857 79.9369,365.6899 82.2332,365.6899 84.5294,364.7538 86.8257,365.2219 93.7144,365.2219 96.0107,367.5622 98.3069,366.158 100.6032,363.3496 102.8994,361.4774 109.7881,356.7968 112.0844,353.5204 114.3806,348.8398 116.6769,348.3717 118.9731,346.9675 125.8619,351.1801 128.1581,352.1162 130.4544,351.6481 132.7506,349.7759 135.0469,347.4356 141.9356,336.2021 144.2319,337.6063 146.5281,338.0744 148.8243,331.0534 151.1206,324.5006 158.0093,317.0116 160.3056,323.5645 162.6018,317.4797 164.8981,310.9268 167.1943,309.0546 174.0831,295.0128 176.3793,305.7782 178.6756,300.1615 180.9718,287.5238 183.268,269.2695 190.1568,245.8664 192.453,247.2706 194.7493,244.4622 197.0455,222.9315 199.3418,218.7189 206.2305,155.5307 208.5268,172.849 210.823,172.849 213.1193,167.7003 215.4155,139.6167 222.3042,148.5098 224.6005,195.3159 226.8967,185.0186 229.193,171.4448 231.4892,165.8281 238.378,134.468 240.6742,153.6585 242.9705,140.0847 247.563,113.8734 254.4517,108.2566 256.748,134.468 259.0442,141.4889 261.3404,112.0011 263.6367,134.9361 270.5254,156.4669 272.8217,173.7851 275.1179,167.7003 277.4142,182.2102 279.7104,160.2113 286.5992,132.5958 288.8954,148.0418 291.1917,171.9129 293.4879,163.4878 295.7841,175.6573 302.6729,117.1498 304.9691,141.957 307.2654,155.5307 309.5616,132.1277 311.8579,117.1498 318.7466,70.3437 321.0429,99.8315 323.3391,111.065 325.6354,95.1509 327.9316,69.8757 334.8203,33.835 337.1166,61.4506 339.4128,84.8536 350.8941,32.4308 353.1903,57.7061 355.4866,76.4285 357.7828,56.77 366.9678,57.238 369.264,82.5133 371.5603,118.0859 373.8565,126.0429 376.1528,98.8954 385.3378,150.8501 387.634,174.7212 389.9303,164.4239 392.2265,190.6353 399.1153,206.0813 401.4115,233.2288 403.7078,240.2497 406.004,238.3775 408.3002,234.1649 415.189,233.6969 419.7815,244.4622 422.0777,224.8037 424.374,212.1661 431.2627,214.0383 433.559,235.5691 435.8552,254.2915 438.1515,245.3984 440.4477,245.3984 447.3364,262.2485 449.6327,274.4181 451.9289,267.3972 454.2252,253.3554 456.5214,239.3136 463.4102,249.6109 465.7064,284.2474 468.0027,282.3752 470.2989,272.5459 472.5952,293.6086 479.4839,302.5018 481.7801,310.9268 484.0764,305.3101 486.3726,303.4379 488.6689,305.7782 495.5576,308.1185 497.8539,319.82 500.1501,311.863 502.4464,286.5877 504.7426,285.1835 511.6314,265.993 513.9276,265.993 516.2239,258.5041 518.5201,246.8025 520.8163,232.2927 527.7051,222.4634 530.0013,223.8676 532.2976,224.8037 534.5938,195.3159 536.8901,175.1893 543.7788,150.3821 546.0751,150.8501 548.3713,152.7224 550.6676,120.4262 552.9638,114.3414 559.8525,110.1289 562.1488,143.3612 564.445,149.914 566.7413,138.6806 569.0375,104.5121 578.2225,83.4494 580.5188,87.1939 582.815,53.0255 585.1113,45.5365 592,37.1114" style="fill:none;stroke:rgb(31,119,180);stroke-width:2;stroke-linejoin:bevel" />
  <text dominant-baseline="hanging" text-anchor="middle" transform="translate(313.006,8)" font-family="Segoe UI" font-size="18" font-weight="700" fill="black">Aktive Fälle Stadt Aachen 12.04.2021</text>
  <polygon points="34.012,29.0795 592,29.0795 592,370.947 34.012,370.947" style="fill:none;stroke:black;stroke-width:1" />
  <polygon points="42.012,37.0795 228.483,37.0795 228.483,63.1325 42.012,63.1325" style="fill:none;stroke:none;" />
  <text dominant-baseline="hanging" text-anchor="start" transform="translate(70.012,45.0795)" font-family="Segoe UI" font-size="12" font-weight="400" fill="black">Aktive Fälle Stadt Aachen 12.04.2021</text>
  <polyline points="50.012,50.106 66.012,50.106" style="fill:none;stroke:rgb(31,119,180);stroke-width:2" />
</svg>