<?xml version="1.0" encoding="utf-8" standalone="no"?>
<!DOCTYPE svg PUBLIC "-//W3C//DTD SVG 1.1//EN" "http://www.w3.org/Graphics/SVG/1.1/DTD/svg11.dtd">
<svg width="600" height="400" version="1.1" xmlns:xlink="http://www.w3.org/1999/xlink" xmlns="http://www.w3.org/2000/svg">
  <rect x="0" y="0" width="600" height="400" style="fill:rgb(255,255,255);stroke:none;" />
  <polyline points="34.012,352.1162 30.012,352.1162" style="fill:none;stroke:black;stroke-width:1" />
  <polyline points="34.012,328.7131 30.012,328.7131" style="fill:none;stroke:black;stroke-width:1" />
  <polyline points="34.012,305.3101 30.012,305.3101" style="fill:none;stroke:black;stroke-width:1" />
  <polyline points="34.012,258.5041 30.012,258.5041" style="fill:none;stroke:black;stroke-width:1" />
  <polyline points="34.012,235.101 30.012,235.101" style="fill:none;stroke:black;stroke-width:1" />
  <polyline points="34.012,211.698 30.012,211.698" style="fill:none;stroke:black;stroke-width:1" />
  <polyline points="34.012,164.892 30.012,164.892" style="fill:none;stroke:black;stroke-width:1" />
  <polyline points="34.012,141.4889 30.012,141.4889" style="fill:none;stroke:black;stroke-width:1" />
  <polyline points="34.012,118.0859 30.012,118.0859" style="fill:none;stroke:black;stroke-width:1" />
  <polyline points="34.012,71.2798 30.012,71.2798" style="fill:none;stroke:black;stroke-width:1" />
  <polyline points="34.012,47.8768 30.012,47.8768" style="fill:none;stroke:black;stroke-width:1" />
  <text dominant-baseline="middle" text-anchor="end" transform="translate(23.012,281.9071)" font-family="Segoe UI" font-size="12" font-weight="400" fill="black">200</text>
  <text dominant-baseline="middle" text-anchor="end" transform="translate(23.012,188.295)" font-family="Segoe UI" font-size="12" font-weight="400" fill="black">400</text>
  <text dominant-baseline="middle" text-anchor="end" transform="translate(23.012,94.6829)" font-family="Segoe UI" font-size="12" font-weight="400" fill="black">600</text>
  <polyline points="34.012,281.9071 27.012,281.9071" style="fill:none;stroke:black;stroke-width:1" />
  <polyline points="34.012,188.295 27.012,188.295" style="fill:none;stroke:black;stroke-width:1" />
  <polyline points="34.012,94.6829 27.012,94.6829" style="fill:none;stroke:black;stroke-width:1" />
  <text dominant-baseline="hanging" text-anchor="middle" transform="translate(98.5193,381.947)" font-family="Segoe UI" font-size="12" font-weight="400" fill="black">01. September</text>
  <text dominant-baseline="hanging" text-anchor="middle" transform="translate(195.2802,381.947)" font-family="Segoe UI" font-size="12" font-weight="400" fill="black">01. October</text>
  <text dominant-baseline="hanging" text-anchor="middle" transform="translate(295.2665,381.947)" font-family="Segoe UI" font-size="12" font-weight="400" fill="black">01. November</text>
  <text dominant-baseline="hanging" text-anchor="middle" transform="translate(392.0274,381.947)" font-family="Segoe UI" font-size="12" font-weight="400" fill="black">01. December</text>
  <text dominant-baseline="hanging" text-anchor="middle" transform="translate(492.0137,381.947)" font-family="Segoe UI" font-size="12" font-weight="400" fill="black">01. January</text>
  <text dominant-baseline="hanging" text-anchor="middle" transform="translate(592,381.947)" font-family="Segoe UI" font-size="12" font-weight="400" fill="black">01. February</text>
  <polyline points="98.5193,370.947 98.5193,377.947" style="fill:none;stroke:black;stroke-width:1" />
  <polyline points="195.2802,370.947 195.2802,377.947" style="fill:none;stroke:black;stroke-width:1" />
  <polyline points="295.2665,370.947 295.2665,377.947" style="fill:none;stroke:black;stroke-width:1" />
  <polyline points="392.0274,370.947 392.0274,377.947" style="fill:none;stroke:black;stroke-width:1" />
  <polyline points="492.0137,370.947 492.0137,377.947" style="fill:none;stroke:black;stroke-width:1" />
  <polyline points="592,370.947 592,377.947" style="fill:none;stroke:black;stroke-width:1" />
  <polyline points="34.012,361.4774 40.4627,357.2648 50.1388,360.0732 53.3642,357.2648 56.5895,359.1371 59.8149,356.7968 63.0403,357.2648 72.7164,357.7329 75.9417,361.4774 79.1671,361.9454 82.3925,361.0093 85.6178,361.0093 95.2939,364.2857 98.5193,365.6899 101.7446,365.6899 104.97,364.7538 108.1954,365.2219 117.8715,365.2219 121.0968,367.5622 124.3222,366.158 127.5476,363.3496 130.7729,361.4774 140.449,356.7968 143.6744,353.5204 146.8997,348.8398 150.1251,348.3717 153.3505,346.9675 163.0266,351.1801 166.2519,352.1162 169.4773,351.6481 172.7027,349.7759 175.928,347.4356 185.6041,336.2021 188.8295,337.6063 192.0548,338.0744 195.2802,331.0534 198.5056,324.5006 208.1817,317.0116 211.407,323.5645 214.6324,317.4797 217.8578,310.9268 221.0831,309.0546 230.7592,295.0128 233.9846,305.7782 237.2099,300.1615 240.4353,287.5238 243.6607,269.2695 253.3368,245.8664 256.5621,247.2706 259.7875,244.4622 263.0129,222.9315 266.2382,218.7189 275.9143,155.5307 279.1397,172.849 282.365,172.849 285.5904,167.7003 288.8158,139.6167 298.4919,148.5098 301.7172,195.3159 304.9426,185.0186 308.168,171.4448 311.3933,165.8281 321.0694,134.468 324.2948,153.6585 327.5201,140.0847 333.9709,113.8734 343.647,108.2566 346.8723,134.468 350.0977,141.4889 353.3231,112.0011 356.5484,134.9361 366.2245,156.4669 369.4499,173.7851 372.6752,167.7003 375.9006,182.2102 379.126,160.2113 388.8021,132.5958 392.0274,148.0418 395.2528,171.9129 398.4782,163.4878 401.7035,175.6573 411.3796,117.1498 414.605,141.957 417.8303,155.5307 421.0557,132.1277 424.2811,117.1498 433.9572,70.3437 437.1825,99.8315 440.4079,111.065 443.6332,95.1509 446.8586,69.8757 456.5347,33.835 459.7601,61.4506 462.9854,84.8536 479.1123,32.4308 482.3376,57.7061 485.563,76.4285 488.7883,56.77 501.6898,57.238 504.9152,82.5133 508.1405,118.0859 511.3659,126.0429 514.5913,98.8954 527.4927,150.8501 530.7181,174.7212 533.9434,164.4239 537.1688,190.6353 546.8449,206.0813 550.0703,233.2288 553.2956,240.2497 556.521,238.3775 559.7464,234.1649 569.4225,233.6969 575.8732,244.4622 579.0985,224.8037 582.3239,212.1661 592,214.0383" style="fill:none;stroke:rgb(31,119,180);stroke-width:2;stroke-linejoin:bevel" />
  <text dominant-baseline="hanging" text-anchor="middle" transform="translate(313.006,8)" font-family="Segoe UI" font-size="18" font-weight="700" fill="black">Aktive Fälle Stadt Aachen 01.02.2021</text>
  <polygon points="34.012,29.0795 592,29.0795 592,370.947 34.012,370.947" style="fill:none;stroke:black;stroke-width:1" />
  <polygon points="42.012,37.0795 228.483,37.0795 228.483,63.1325 42.012,63.1325" style="fill:none;stroke:none;" />
  <text dominant-baseline="hanging" text-anchor="start" transform="translate(70.012,45.0795)" font-family="Segoe UI" font-size="12" font-weight="400" fill="black">Aktive Fälle Stadt Aachen 01.02.2021</text>
  <polyline points="50.012,50.106 66.012,50.106" style="fill:none;stroke:rgb(31,119,180);stroke-width:2" />
</svg>