<?xml version="1.0" encoding="utf-8" standalone="no"?>
<!DOCTYPE svg PUBLIC "-//W3C//DTD SVG 1.1//EN" "http://www.w3.org/Graphics/SVG/1.1/DTD/svg11.dtd">
<svg width="600" height="400" version="1.1" xmlns:xlink="http://www.w3.org/1999/xlink" xmlns="http://www.w3.org/2000/svg">
  <rect x="0" y="0" width="600" height="400" style="fill:rgb(255,255,255);stroke:none;" />
  <polyline points="34.012,352.1162 30.012,352.1162" style="fill:none;stroke:black;stroke-width:1" />
  <polyline points="34.012,328.7131 30.012,328.7131" style="fill:none;stroke:black;stroke-width:1" />
  <polyline points="34.012,305.3101 30.012,305.3101" style="fill:none;stroke:black;stroke-width:1" />
  <polyline points="34.012,258.5041 30.012,258.5041" style="fill:none;stroke:black;stroke-width:1" />
  <polyline points="34.012,235.101 30.012,235.101" style="fill:none;stroke:black;stroke-width:1" />
  <polyline points="34.012,211.698 30.012,211.698" style="fill:none;stroke:black;stroke-width:1" />
  <polyline points="34.012,164.892 30.012,164.892" style="fill:none;stroke:black;stroke-width:1" />
  <polyline points="34.012,141.4889 30.012,141.4889" style="fill:none;stroke:black;stroke-width:1" />
  <polyline points="34.012,118.0859 30.012,118.0859" style="fill:none;stroke:black;stroke-width:1" />
  <polyline points="34.012,71.2798 30.012,71.2798" style="fill:none;stroke:black;stroke-width:1" />
  <polyline points="34.012,47.8768 30.012,47.8768" style="fill:none;stroke:black;stroke-width:1" />
  <text dominant-baseline="middle" text-anchor="end" transform="translate(23.012,281.9071)" font-family="Segoe UI" font-size="12" font-weight="400" fill="black">200</text>
  <text dominant-baseline="middle" text-anchor="end" transform="translate(23.012,188.295)" font-family="Segoe UI" font-size="12" font-weight="400" fill="black">400</text>
  <text dominant-baseline="middle" text-anchor="end" transform="translate(23.012,94.6829)" font-family="Segoe UI" font-size="12" font-weight="400" fill="black">600</text>
  <polyline points="34.012,281.9071 27.012,281.9071" style="fill:none;stroke:black;stroke-width:1" />
  <polyline points="34.012,188.295 27.012,188.295" style="fill:none;stroke:black;stroke-width:1" />
  <polyline points="34.012,94.6829 27.012,94.6829" style="fill:none;stroke:black;stroke-width:1" />
  <text dominant-baseline="hanging" text-anchor="middle" transform="translate(103.7605,381.947)" font-family="Segoe UI" font-size="12" font-weight="400" fill="black">01. September</text>
  <text dominant-baseline="hanging" text-anchor="middle" transform="translate(208.3833,381.947)" font-family="Segoe UI" font-size="12" font-weight="400" fill="black">01. October</text>
  <text dominant-baseline="hanging" text-anchor="middle" transform="translate(316.4934,381.947)" font-family="Segoe UI" font-size="12" font-weight="400" fill="black">01. November</text>
  <text dominant-baseline="hanging" text-anchor="middle" transform="translate(421.1162,381.947)" font-family="Segoe UI" font-size="12" font-weight="400" fill="black">01. December</text>
  <text dominant-baseline="hanging" text-anchor="middle" transform="translate(529.2264,381.947)" font-family="Segoe UI" font-size="12" font-weight="400" fill="black">01. January</text>
  <polyline points="103.7605,370.947 103.7605,377.947" style="fill:none;stroke:black;stroke-width:1" />
  <polyline points="208.3833,370.947 208.3833,377.947" style="fill:none;stroke:black;stroke-width:1" />
  <polyline points="316.4934,370.947 316.4934,377.947" style="fill:none;stroke:black;stroke-width:1" />
  <polyline points="421.1162,370.947 421.1162,377.947" style="fill:none;stroke:black;stroke-width:1" />
  <polyline points="529.2264,370.947 529.2264,377.947" style="fill:none;stroke:black;stroke-width:1" />
  <polyline points="34.012,361.4774 40.9869,357.2648 51.4491,360.0732 54.9366,357.2648 58.424,359.1371 61.9114,356.7968 65.3988,357.2648 75.8611,357.7329 79.3485,361.4774 82.836,361.9454 86.3234,361.0093 89.8108,361.0093 100.2731,364.2857 103.7605,365.6899 107.2479,365.6899 110.7354,364.7538 114.2228,365.2219 124.6851,365.2219 128.1725,367.5622 131.6599,366.158 135.1473,363.3496 138.6348,361.4774 149.097,356.7968 152.5845,353.5204 156.0719,348.8398 159.5593,348.3717 163.0467,346.9675 173.509,351.1801 176.9964,352.1162 180.4839,351.6481 183.9713,349.7759 187.4587,347.4356 197.921,336.2021 201.4084,337.6063 204.8958,338.0744 208.3833,331.0534 211.8707,324.5006 222.333,317.0116 225.8204,323.5645 229.3078,317.4797 232.7952,310.9268 236.2827,309.0546 246.7449,295.0128 250.2324,305.7782 253.7198,300.1615 257.2072,287.5238 260.6946,269.2695 271.1569,245.8664 274.6443,247.2706 278.1318,244.4622 281.6192,222.9315 285.1066,218.7189 295.5689,155.5307 299.0563,172.849 302.5437,172.849 306.0312,167.7003 309.5186,139.6167 319.9809,148.5098 323.4683,195.3159 326.9557,185.0186 330.4431,171.4448 333.9306,165.8281 344.3928,134.468 347.8803,153.6585 351.3677,140.0847 358.3425,113.8734 368.8048,108.2566 372.2922,134.468 375.7797,141.4889 379.2671,112.0011 382.7545,134.9361 393.2168,156.4669 396.7042,173.7851 400.1916,167.7003 403.6791,182.2102 407.1665,160.2113 417.6288,132.5958 421.1162,148.0418 424.6036,171.9129 428.091,163.4878 431.5785,175.6573 442.0407,117.1498 445.5282,141.957 449.0156,155.5307 452.503,132.1277 455.9904,117.1498 466.4527,70.3437 469.9401,99.8315 473.4276,111.065 476.915,95.1509 480.4024,69.8757 490.8647,33.835 494.3521,61.4506 497.8395,84.8536 515.2767,32.4308 518.7641,57.7061 522.2515,76.4285 525.7389,56.77 539.6886,57.238 543.1761,82.5133 546.6635,118.0859 550.1509,126.0429 553.6383,98.8954 564.1006,112.0011 567.588,150.8501 571.0755,174.7212 574.5629,164.4239 578.0503,190.6353 588.5126,206.0813 592,233.2288" style="fill:none;stroke:rgb(31,119,180);stroke-width:2;stroke-linejoin:bevel" />
  <text dominant-baseline="hanging" text-anchor="middle" transform="translate(313.006,8)" font-family="Segoe UI" font-size="18" font-weight="700" fill="black">Aktive Fälle Stadt Aachen 19.01.2021</text>
  <polygon points="34.012,29.0795 592,29.0795 592,370.947 34.012,370.947" style="fill:none;stroke:black;stroke-width:1" />
  <polygon points="42.012,37.0795 228.483,37.0795 228.483,63.1325 42.012,63.1325" style="fill:none;stroke:none;" />
  <text dominant-baseline="hanging" text-anchor="start" transform="translate(70.012,45.0795)" font-family="Segoe UI" font-size="12" font-weight="400" fill="black">Aktive Fälle Stadt Aachen 19.01.2021</text>
  <polyline points="50.012,50.106 66.012,50.106" style="fill:none;stroke:rgb(31,119,180);stroke-width:2" />
</svg>