<?xml version="1.0" encoding="utf-8" standalone="no"?>
<!DOCTYPE svg PUBLIC "-//W3C//DTD SVG 1.1//EN" "http://www.w3.org/Graphics/SVG/1.1/DTD/svg11.dtd">
<svg width="600" height="400" version="1.1" xmlns:xlink="http://www.w3.org/1999/xlink" xmlns="http://www.w3.org/2000/svg">
  <rect x="0" y="0" width="600" height="400" style="fill:rgb(255,255,255);stroke:none;" />
  <polyline points="34.012,365.3428 30.012,365.3428" style="fill:none;stroke:black;stroke-width:1" />
  <polyline points="34.012,350.5467 30.012,350.5467" style="fill:none;stroke:black;stroke-width:1" />
  <polyline points="34.012,335.7506 30.012,335.7506" style="fill:none;stroke:black;stroke-width:1" />
  <polyline points="34.012,320.9545 30.012,320.9545" style="fill:none;stroke:black;stroke-width:1" />
  <polyline points="34.012,291.3623 30.012,291.3623" style="fill:none;stroke:black;stroke-width:1" />
  <polyline points="34.012,276.5662 30.012,276.5662" style="fill:none;stroke:black;stroke-width:1" />
  <polyline points="34.012,261.7702 30.012,261.7702" style="fill:none;stroke:black;stroke-width:1" />
  <polyline points="34.012,246.9741 30.012,246.9741" style="fill:none;stroke:black;stroke-width:1" />
  <polyline points="34.012,217.3819 30.012,217.3819" style="fill:none;stroke:black;stroke-width:1" />
  <polyline points="34.012,202.5858 30.012,202.5858" style="fill:none;stroke:black;stroke-width:1" />
  <polyline points="34.012,187.7897 30.012,187.7897" style="fill:none;stroke:black;stroke-width:1" />
  <polyline points="34.012,172.9936 30.012,172.9936" style="fill:none;stroke:black;stroke-width:1" />
  <polyline points="34.012,143.4015 30.012,143.4015" style="fill:none;stroke:black;stroke-width:1" />
  <polyline points="34.012,128.6054 30.012,128.6054" style="fill:none;stroke:black;stroke-width:1" />
  <polyline points="34.012,113.8093 30.012,113.8093" style="fill:none;stroke:black;stroke-width:1" />
  <polyline points="34.012,99.0132 30.012,99.0132" style="fill:none;stroke:black;stroke-width:1" />
  <polyline points="34.012,69.421 30.012,69.421" style="fill:none;stroke:black;stroke-width:1" />
  <polyline points="34.012,54.6249 30.012,54.6249" style="fill:none;stroke:black;stroke-width:1" />
  <polyline points="34.012,39.8289 30.012,39.8289" style="fill:none;stroke:black;stroke-width:1" />
  <text dominant-baseline="middle" text-anchor="end" transform="translate(23.012,306.1584)" font-family="Segoe UI" font-size="12" font-weight="400" fill="black">100</text>
  <text dominant-baseline="middle" text-anchor="end" transform="translate(23.012,232.178)" font-family="Segoe UI" font-size="12" font-weight="400" fill="black">200</text>
  <text dominant-baseline="middle" text-anchor="end" transform="translate(23.012,158.1975)" font-family="Segoe UI" font-size="12" font-weight="400" fill="black">300</text>
  <text dominant-baseline="middle" text-anchor="end" transform="translate(23.012,84.2171)" font-family="Segoe UI" font-size="12" font-weight="400" fill="black">400</text>
  <polyline points="34.012,306.1584 27.012,306.1584" style="fill:none;stroke:black;stroke-width:1" />
  <polyline points="34.012,232.178 27.012,232.178" style="fill:none;stroke:black;stroke-width:1" />
  <polyline points="34.012,158.1975 27.012,158.1975" style="fill:none;stroke:black;stroke-width:1" />
  <polyline points="34.012,84.2171 27.012,84.2171" style="fill:none;stroke:black;stroke-width:1" />
  <text dominant-baseline="hanging" text-anchor="middle" transform="translate(56.0378,381.947)" font-family="Segoe UI" font-size="12" font-weight="400" fill="black">15. August</text>
  <text dominant-baseline="hanging" text-anchor="middle" transform="translate(158.8251,381.947)" font-family="Segoe UI" font-size="12" font-weight="400" fill="black">29. August</text>
  <text dominant-baseline="hanging" text-anchor="middle" transform="translate(261.6124,381.947)" font-family="Segoe UI" font-size="12" font-weight="400" fill="black">12. September</text>
  <text dominant-baseline="hanging" text-anchor="middle" transform="translate(364.3996,381.947)" font-family="Segoe UI" font-size="12" font-weight="400" fill="black">26. September</text>
  <text dominant-baseline="hanging" text-anchor="middle" transform="translate(467.1869,381.947)" font-family="Segoe UI" font-size="12" font-weight="400" fill="black">10. October</text>
  <text dominant-baseline="hanging" text-anchor="middle" transform="translate(569.9742,381.947)" font-family="Segoe UI" font-size="12" font-weight="400" fill="black">24. October</text>
  <polyline points="56.0378,370.947 56.0378,377.947" style="fill:none;stroke:black;stroke-width:1" />
  <polyline points="158.8251,370.947 158.8251,377.947" style="fill:none;stroke:black;stroke-width:1" />
  <polyline points="261.6124,370.947 261.6124,377.947" style="fill:none;stroke:black;stroke-width:1" />
  <polyline points="364.3996,370.947 364.3996,377.947" style="fill:none;stroke:black;stroke-width:1" />
  <polyline points="467.1869,370.947 467.1869,377.947" style="fill:none;stroke:black;stroke-width:1" />
  <polyline points="569.9742,370.947 569.9742,377.947" style="fill:none;stroke:black;stroke-width:1" />
  <polyline points="34.012,357.9447 48.6959,351.2865 70.7217,355.7253 78.0637,351.2865 85.4056,354.2457 92.7476,350.5467 100.0895,351.2865 122.1154,352.0263 129.4573,357.9447 136.7993,358.6845 144.1412,357.2049 151.4832,357.2049 173.509,362.3835 180.8509,364.603 188.1929,364.603 195.5348,363.1233 202.8768,363.8632 224.9026,363.8632 232.2446,367.5622 239.5865,365.3428 246.9285,360.9039 254.2704,357.9447 276.2963,350.5467 283.6382,345.368 290.9802,337.97 298.3221,337.2302 305.6641,335.0108 327.6899,341.669 335.0318,343.1486 342.3738,342.4088 349.7157,339.4496 357.0577,335.7506 379.0835,317.9953 386.4255,320.2147 393.7674,320.9545 401.1094,309.8574 408.4513,299.5002 430.4772,287.6633 437.8191,298.0206 445.1611,288.4031 452.503,278.0458 459.8449,275.0866 481.8708,252.8925 489.2127,269.908 496.5547,261.0304 503.8966,241.0556 511.2386,212.2033 533.2644,175.213 540.6064,177.4325 547.9483,172.9936 555.2903,138.9626 562.6322,132.3044 584.6581,32.4308 592,59.8036" style="fill:none;stroke:rgb(31,119,180);stroke-width:2;stroke-linejoin:bevel" />
  <text dominant-baseline="hanging" text-anchor="middle" transform="translate(313.006,8)" font-family="Segoe UI" font-size="18" font-weight="700" fill="black">Aktive Fälle Stadt Aachen 27.10.2020</text>
  <polygon points="34.012,29.0795 592,29.0795 592,370.947 34.012,370.947" style="fill:none;stroke:black;stroke-width:1" />
  <polygon points="42.012,37.0795 228.483,37.0795 228.483,63.1325 42.012,63.1325" style="fill:none;stroke:none;" />
  <text dominant-baseline="hanging" text-anchor="start" transform="translate(70.012,45.0795)" font-family="Segoe UI" font-size="12" font-weight="400" fill="black">Aktive Fälle Stadt Aachen 27.10.2020</text>
  <polyline points="50.012,50.106 66.012,50.106" style="fill:none;stroke:rgb(31,119,180);stroke-width:2" />
</svg>