<?xml version="1.0" encoding="utf-8" standalone="no"?>
<!DOCTYPE svg PUBLIC "-//W3C//DTD SVG 1.1//EN" "http://www.w3.org/Graphics/SVG/1.1/DTD/svg11.dtd">
<svg width="600" height="400" version="1.1" xmlns:xlink="http://www.w3.org/1999/xlink" xmlns="http://www.w3.org/2000/svg">
  <rect x="0" y="0" width="600" height="400" style="fill:rgb(255,255,255);stroke:none;" />
  <polyline points="39.016,357.0495 35.016,357.0495" style="fill:none;stroke:black;stroke-width:1" />
  <polyline points="39.016,341.1212 35.016,341.1212" style="fill:none;stroke:black;stroke-width:1" />
  <polyline points="39.016,325.1929 35.016,325.1929" style="fill:none;stroke:black;stroke-width:1" />
  <polyline points="39.016,293.3363 35.016,293.3363" style="fill:none;stroke:black;stroke-width:1" />
  <polyline points="39.016,277.408 35.016,277.408" style="fill:none;stroke:black;stroke-width:1" />
  <polyline points="39.016,261.4797 35.016,261.4797" style="fill:none;stroke:black;stroke-width:1" />
  <polyline points="39.016,229.6231 35.016,229.6231" style="fill:none;stroke:black;stroke-width:1" />
  <polyline points="39.016,213.6948 35.016,213.6948" style="fill:none;stroke:black;stroke-width:1" />
  <polyline points="39.016,197.7665 35.016,197.7665" style="fill:none;stroke:black;stroke-width:1" />
  <polyline points="39.016,165.9099 35.016,165.9099" style="fill:none;stroke:black;stroke-width:1" />
  <polyline points="39.016,149.9816 35.016,149.9816" style="fill:none;stroke:black;stroke-width:1" />
  <polyline points="39.016,134.0533 35.016,134.0533" style="fill:none;stroke:black;stroke-width:1" />
  <polyline points="39.016,102.1968 35.016,102.1968" style="fill:none;stroke:black;stroke-width:1" />
  <polyline points="39.016,86.2685 35.016,86.2685" style="fill:none;stroke:black;stroke-width:1" />
  <polyline points="39.016,70.3402 35.016,70.3402" style="fill:none;stroke:black;stroke-width:1" />
  <polyline points="39.016,38.4836 35.016,38.4836" style="fill:none;stroke:black;stroke-width:1" />
  <polyline points="74.3504,370.947 74.3504,374.947" style="fill:none;stroke:black;stroke-width:1" />
  <polyline points="182.1205,370.947 182.1205,374.947" style="fill:none;stroke:black;stroke-width:1" />
  <polyline points="289.8905,370.947 289.8905,374.947" style="fill:none;stroke:black;stroke-width:1" />
  <polyline points="394.1271,370.947 394.1271,374.947" style="fill:none;stroke:black;stroke-width:1" />
  <polyline points="501.8972,370.947 501.8972,374.947" style="fill:none;stroke:black;stroke-width:1" />
  <text dominant-baseline="middle" text-anchor="end" transform="translate(28.016,309.2646)" font-family="Segoe UI" font-size="12" font-weight="400" fill="black">200</text>
  <text dominant-baseline="middle" text-anchor="end" transform="translate(28.016,245.5514)" font-family="Segoe UI" font-size="12" font-weight="400" fill="black">400</text>
  <text dominant-baseline="middle" text-anchor="end" transform="translate(28.016,181.8382)" font-family="Segoe UI" font-size="12" font-weight="400" fill="black">600</text>
  <text dominant-baseline="middle" text-anchor="end" transform="translate(28.016,118.125)" font-family="Segoe UI" font-size="12" font-weight="400" fill="black">800</text>
  <text dominant-baseline="middle" text-anchor="end" transform="translate(28.016,54.4119)" font-family="Segoe UI" font-size="12" font-weight="400" fill="black">1000</text>
  <polyline points="39.016,309.2646 32.016,309.2646" style="fill:none;stroke:black;stroke-width:1" />
  <polyline points="39.016,245.5514 32.016,245.5514" style="fill:none;stroke:black;stroke-width:1" />
  <polyline points="39.016,181.8382 32.016,181.8382" style="fill:none;stroke:black;stroke-width:1" />
  <polyline points="39.016,118.125 32.016,118.125" style="fill:none;stroke:black;stroke-width:1" />
  <polyline points="39.016,54.4119 32.016,54.4119" style="fill:none;stroke:black;stroke-width:1" />
  <text dominant-baseline="hanging" text-anchor="middle" transform="translate(127.3521,381.947)" font-family="Segoe UI" font-size="12" font-weight="400" fill="black">01. October</text>
  <text dominant-baseline="hanging" text-anchor="middle" transform="translate(235.1221,381.947)" font-family="Segoe UI" font-size="12" font-weight="400" fill="black">01. December</text>
  <text dominant-baseline="hanging" text-anchor="middle" transform="translate(344.6589,381.947)" font-family="Segoe UI" font-size="12" font-weight="400" fill="black">01. February</text>
  <text dominant-baseline="hanging" text-anchor="middle" transform="translate(448.8955,381.947)" font-family="Segoe UI" font-size="12" font-weight="400" fill="black">01. April</text>
  <text dominant-baseline="hanging" text-anchor="middle" transform="translate(556.6656,381.947)" font-family="Segoe UI" font-size="12" font-weight="400" fill="black">01. June</text>
  <polyline points="127.3521,370.947 127.3521,377.947" style="fill:none;stroke:black;stroke-width:1" />
  <polyline points="235.1221,370.947 235.1221,377.947" style="fill:none;stroke:black;stroke-width:1" />
  <polyline points="344.6589,370.947 344.6589,377.947" style="fill:none;stroke:black;stroke-width:1" />
  <polyline points="448.8955,370.947 448.8955,377.947" style="fill:none;stroke:black;stroke-width:1" />
  <polyline points="556.6656,370.947 556.6656,377.947" style="fill:none;stroke:black;stroke-width:1" />
  <polyline points="39.016,363.4208 42.5494,360.5537 47.8496,362.4651 49.6163,360.5537 51.3831,361.828 53.1498,360.2352 54.9165,360.5537 60.2167,360.8723 61.9834,363.4208 63.7501,363.7394 65.5168,363.1023 67.2836,363.1023 72.5837,365.3322 74.3504,366.2879 76.1172,366.2879 77.8839,365.6508 79.6506,365.9693 84.9508,365.9693 86.7175,367.5622 88.4842,366.6065 90.2509,364.6951 92.0177,363.4208 97.3178,360.2352 99.0845,358.0052 100.8513,354.8195 102.618,354.501 104.3847,353.5453 109.6849,356.4124 111.4516,357.0495 113.2183,356.7309 114.985,355.4567 116.7518,353.8638 122.0519,346.2183 123.8187,347.174 125.5854,347.4925 127.3521,342.714 129.1188,338.2541 134.419,333.1571 136.1857,337.617 137.9524,333.4756 139.7192,329.0157 141.4859,327.7414 146.786,318.1845 148.5528,325.5115 150.3195,321.6887 152.0862,313.0874 153.8529,300.6633 159.1531,284.735 160.9198,285.6907 162.6865,283.7793 164.4533,269.1253 166.22,266.2582 171.5202,223.2518 173.2869,235.0387 175.0536,235.0387 176.8203,231.5345 178.587,212.4206 183.8872,218.4733 185.6539,250.3299 187.4207,243.3215 189.1874,234.083 190.9541,230.2603 196.2543,208.9163 198.021,221.9775 199.7877,212.7391 203.3212,194.8994 208.6213,191.0766 210.388,208.9163 212.1548,213.6948 213.9215,193.6252 215.6882,209.2349 220.9884,223.8889 222.7551,235.6759 224.5218,231.5345 226.2885,241.4101 228.0553,226.4375 233.3554,207.6421 235.1221,218.1548 236.8889,234.4016 238.6556,228.6674 240.4223,236.9501 245.7225,197.1294 247.4892,214.0134 249.2559,223.2518 251.0226,207.3235 252.7894,197.1294 258.0895,165.2728 259.8563,185.3425 261.623,192.988 263.3897,182.1568 265.1564,164.9542 270.4566,140.4247 272.2233,159.2201 273.99,175.1484 282.8236,139.469 284.5904,156.6715 286.3571,169.4142 288.1238,156.0344 295.1907,156.353 296.9574,173.5555 298.7241,197.7665 300.4909,203.1822 302.2576,184.7053 309.3245,220.0661 311.0912,236.313 312.8579,229.3046 314.6246,247.1443 319.9248,257.6569 321.6915,276.1338 323.4582,280.9122 325.225,279.638 326.9917,276.7709 332.2919,276.4523 335.8253,283.7793 337.592,270.3996 339.3587,261.7983 344.6589,263.0725 346.4256,277.7266 348.1924,290.4692 349.9591,284.4165 351.7258,284.4165 357.026,295.8848 358.7927,304.1676 360.5594,299.3891 362.3261,289.8321 364.0929,280.2751 369.393,287.2836 371.1597,310.8574 372.9265,309.5832 374.6932,302.8933 376.4599,317.2288 381.7601,323.2815 383.5268,329.0157 385.2935,325.1929 387.0602,323.9186 388.827,325.5115 394.1271,327.1043 395.8939,335.0684 397.6606,329.6528 399.4273,312.4503 401.194,311.4946 406.4942,298.4334 408.2609,298.4334 410.0276,293.3363 411.7944,285.3722 413.5611,275.4966 418.8612,268.8067 420.628,269.7624 422.3947,270.3996 424.1614,250.3299 425.9281,236.6316 431.2283,219.7476 432.995,220.0661 434.7617,221.3404 436.5285,199.3594 438.2952,195.218 443.5953,192.3509 445.3621,214.9691 447.1288,219.429 448.8955,211.7834 450.6622,188.5281 457.7291,174.1927 459.4958,176.7412 461.2626,153.4859 463.0293,148.3888 468.3295,142.6546 470.0962,144.2475 471.8629,126.7263 473.6296,113.6651 475.3963,116.2137 480.6965,99.9668 482.4632,95.1883 484.23,72.8887 485.9967,44.5363 487.7634,32.4308 493.0636,42.3064 494.8303,49.3148 496.597,66.1988 498.3637,77.6672 500.1305,71.2959 505.4306,109.8423 507.1973,105.701 508.9641,125.7706 510.7308,134.6905 512.4975,148.3888 517.7977,149.0259 519.5644,175.7855 521.3311,170.6884 524.8646,185.3425 530.1647,171.9627 531.9315,185.661 533.6982,186.2982 535.4649,180.564 537.2316,185.0239 544.2985,213.3763 546.0652,232.8088 547.8319,239.8172 549.5987,234.7202 554.8988,261.4797 556.6656,282.1865 558.4323,289.195 561.9657,301.9376 567.2659,310.5389 569.0326,317.8659 570.7993,328.6971 572.5661,332.5199 574.3328,337.2984 579.6329,338.5727 581.3997,337.617 583.1664,348.7668 584.9331,348.1297 586.6998,349.7225 592,350.6782" style="fill:none;stroke:rgb(31,119,180);stroke-width:2;stroke-linejoin:bevel" />
  <text dominant-baseline="hanging" text-anchor="middle" transform="translate(315.508,8)" font-family="Segoe UI" font-size="18" font-weight="700" fill="black">Aktive Fälle Stadt Aachen 21.06.2021</text>
  <polygon points="39.016,29.0795 592,29.0795 592,370.947 39.016,370.947" style="fill:none;stroke:black;stroke-width:1" />
  <polygon points="47.016,37.0795 233.487,37.0795 233.487,63.1325 47.016,63.1325" style="fill:none;stroke:none;" />
  <text dominant-baseline="hanging" text-anchor="start" transform="translate(75.016,45.0795)" font-family="Segoe UI" font-size="12" font-weight="400" fill="black">Aktive Fälle Stadt Aachen 21.06.2021</text>
  <polyline points="55.016,50.106 71.016,50.106" style="fill:none;stroke:rgb(31,119,180);stroke-width:2" />
</svg>