<?xml version="1.0" encoding="utf-8" standalone="no"?>
<!DOCTYPE svg PUBLIC "-//W3C//DTD SVG 1.1//EN" "http://www.w3.org/Graphics/SVG/1.1/DTD/svg11.dtd">
<svg width="600" height="400" version="1.1" xmlns:xlink="http://www.w3.org/1999/xlink" xmlns="http://www.w3.org/2000/svg">
  <rect x="0" y="0" width="600" height="400" style="fill:rgb(255,255,255);stroke:none;" />
  <polyline points="39.016,357.0495 35.016,357.0495" style="fill:none;stroke:black;stroke-width:1" />
  <polyline points="39.016,341.1212 35.016,341.1212" style="fill:none;stroke:black;stroke-width:1" />
  <polyline points="39.016,325.1929 35.016,325.1929" style="fill:none;stroke:black;stroke-width:1" />
  <polyline points="39.016,293.3363 35.016,293.3363" style="fill:none;stroke:black;stroke-width:1" />
  <polyline points="39.016,277.408 35.016,277.408" style="fill:none;stroke:black;stroke-width:1" />
  <polyline points="39.016,261.4797 35.016,261.4797" style="fill:none;stroke:black;stroke-width:1" />
  <polyline points="39.016,229.6231 35.016,229.6231" style="fill:none;stroke:black;stroke-width:1" />
  <polyline points="39.016,213.6948 35.016,213.6948" style="fill:none;stroke:black;stroke-width:1" />
  <polyline points="39.016,197.7665 35.016,197.7665" style="fill:none;stroke:black;stroke-width:1" />
  <polyline points="39.016,165.9099 35.016,165.9099" style="fill:none;stroke:black;stroke-width:1" />
  <polyline points="39.016,149.9816 35.016,149.9816" style="fill:none;stroke:black;stroke-width:1" />
  <polyline points="39.016,134.0533 35.016,134.0533" style="fill:none;stroke:black;stroke-width:1" />
  <polyline points="39.016,102.1968 35.016,102.1968" style="fill:none;stroke:black;stroke-width:1" />
  <polyline points="39.016,86.2685 35.016,86.2685" style="fill:none;stroke:black;stroke-width:1" />
  <polyline points="39.016,70.3402 35.016,70.3402" style="fill:none;stroke:black;stroke-width:1" />
  <polyline points="39.016,38.4836 35.016,38.4836" style="fill:none;stroke:black;stroke-width:1" />
  <polyline points="73.1508,370.947 73.1508,374.947" style="fill:none;stroke:black;stroke-width:1" />
  <polyline points="177.262,370.947 177.262,374.947" style="fill:none;stroke:black;stroke-width:1" />
  <polyline points="281.3732,370.947 281.3732,374.947" style="fill:none;stroke:black;stroke-width:1" />
  <polyline points="382.0709,370.947 382.0709,374.947" style="fill:none;stroke:black;stroke-width:1" />
  <polyline points="486.1821,370.947 486.1821,374.947" style="fill:none;stroke:black;stroke-width:1" />
  <polyline points="590.2933,370.947 590.2933,374.947" style="fill:none;stroke:black;stroke-width:1" />
  <text dominant-baseline="middle" text-anchor="end" transform="translate(28.016,309.2646)" font-family="Segoe UI" font-size="12" font-weight="400" fill="black">200</text>
  <text dominant-baseline="middle" text-anchor="end" transform="translate(28.016,245.5514)" font-family="Segoe UI" font-size="12" font-weight="400" fill="black">400</text>
  <text dominant-baseline="middle" text-anchor="end" transform="translate(28.016,181.8382)" font-family="Segoe UI" font-size="12" font-weight="400" fill="black">600</text>
  <text dominant-baseline="middle" text-anchor="end" transform="translate(28.016,118.125)" font-family="Segoe UI" font-size="12" font-weight="400" fill="black">800</text>
  <text dominant-baseline="middle" text-anchor="end" transform="translate(28.016,54.4119)" font-family="Segoe UI" font-size="12" font-weight="400" fill="black">1000</text>
  <polyline points="39.016,309.2646 32.016,309.2646" style="fill:none;stroke:black;stroke-width:1" />
  <polyline points="39.016,245.5514 32.016,245.5514" style="fill:none;stroke:black;stroke-width:1" />
  <polyline points="39.016,181.8382 32.016,181.8382" style="fill:none;stroke:black;stroke-width:1" />
  <polyline points="39.016,118.125 32.016,118.125" style="fill:none;stroke:black;stroke-width:1" />
  <polyline points="39.016,54.4119 32.016,54.4119" style="fill:none;stroke:black;stroke-width:1" />
  <text dominant-baseline="hanging" text-anchor="middle" transform="translate(124.353,381.947)" font-family="Segoe UI" font-size="12" font-weight="400" fill="black">01. October</text>
  <text dominant-baseline="hanging" text-anchor="middle" transform="translate(228.4642,381.947)" font-family="Segoe UI" font-size="12" font-weight="400" fill="black">01. December</text>
  <text dominant-baseline="hanging" text-anchor="middle" transform="translate(334.2821,381.947)" font-family="Segoe UI" font-size="12" font-weight="400" fill="black">01. February</text>
  <text dominant-baseline="hanging" text-anchor="middle" transform="translate(434.9799,381.947)" font-family="Segoe UI" font-size="12" font-weight="400" fill="black">01. April</text>
  <text dominant-baseline="hanging" text-anchor="middle" transform="translate(539.091,381.947)" font-family="Segoe UI" font-size="12" font-weight="400" fill="black">01. June</text>
  <polyline points="124.353,370.947 124.353,377.947" style="fill:none;stroke:black;stroke-width:1" />
  <polyline points="228.4642,370.947 228.4642,377.947" style="fill:none;stroke:black;stroke-width:1" />
  <polyline points="334.2821,370.947 334.2821,377.947" style="fill:none;stroke:black;stroke-width:1" />
  <polyline points="434.9799,370.947 434.9799,377.947" style="fill:none;stroke:black;stroke-width:1" />
  <polyline points="539.091,370.947 539.091,377.947" style="fill:none;stroke:black;stroke-width:1" />
  <polyline points="39.016,363.4208 42.4295,360.5537 47.5497,362.4651 49.2564,360.5537 50.9632,361.828 52.6699,360.2352 54.3767,360.5537 59.4969,360.8723 61.2036,363.4208 62.9104,363.7394 64.6171,363.1023 66.3239,363.1023 71.4441,365.3322 73.1508,366.2879 74.8576,366.2879 76.5643,365.6508 78.271,365.9693 83.3913,365.9693 85.098,367.5622 86.8047,366.6065 88.5115,364.6951 90.2182,363.4208 95.3384,360.2352 97.0452,358.0052 98.7519,354.8195 100.4587,354.501 102.1654,353.5453 107.2856,356.4124 108.9924,357.0495 110.6991,356.7309 112.4059,355.4567 114.1126,353.8638 119.2328,346.2183 120.9396,347.174 122.6463,347.4925 124.353,342.714 126.0598,338.2541 131.18,333.1571 132.8867,337.617 134.5935,333.4756 136.3002,329.0157 138.007,327.7414 143.1272,318.1845 144.8339,325.5115 146.5407,321.6887 148.2474,313.0874 149.9541,300.6633 155.0744,284.735 156.7811,285.6907 158.4879,283.7793 160.1946,269.1253 161.9013,266.2582 167.0216,223.2518 168.7283,235.0387 170.435,235.0387 172.1418,231.5345 173.8485,212.4206 178.9687,218.4733 180.6755,250.3299 182.3822,243.3215 184.089,234.083 185.7957,230.2603 190.9159,208.9163 192.6227,221.9775 194.3294,212.7391 197.7429,194.8994 202.8631,191.0766 204.5699,208.9163 206.2766,213.6948 207.9833,193.6252 209.6901,209.2349 214.8103,223.8889 216.517,235.6759 218.2238,231.5345 219.9305,241.4101 221.6373,226.4375 226.7575,207.6421 228.4642,218.1548 230.171,234.4016 231.8777,228.6674 233.5844,236.9501 238.7047,197.1294 240.4114,214.0134 242.1181,223.2518 243.8249,207.3235 245.5316,197.1294 250.6519,165.2728 252.3586,185.3425 254.0653,192.988 255.7721,182.1568 257.4788,164.9542 262.599,140.4247 264.3058,159.2201 266.0125,175.1484 274.5462,139.469 276.253,156.6715 277.9597,169.4142 279.6664,156.0344 286.4934,156.353 288.2001,173.5555 289.9069,197.7665 291.6136,203.1822 293.3204,184.7053 300.1473,220.0661 301.8541,236.313 303.5608,229.3046 305.2676,247.1443 310.3878,257.6569 312.0945,276.1338 313.8013,280.9122 315.508,279.638 317.2147,276.7709 322.335,276.4523 325.7484,283.7793 327.4552,270.3996 329.1619,261.7983 334.2821,263.0725 335.9889,277.7266 337.6956,290.4692 339.4024,284.4165 341.1091,284.4165 346.2293,295.8848 347.9361,304.1676 349.6428,299.3891 351.3496,289.8321 353.0563,280.2751 358.1765,287.2836 359.8833,310.8574 361.59,309.5832 363.2967,302.8933 365.0035,317.2288 370.1237,323.2815 371.8304,329.0157 373.5372,325.1929 375.2439,323.9186 376.9507,325.5115 382.0709,327.1043 383.7776,335.0684 385.4844,329.6528 387.1911,312.4503 388.8979,311.4946 394.0181,298.4334 395.7248,298.4334 397.4316,293.3363 399.1383,285.3722 400.845,275.4966 405.9653,268.8067 407.672,269.7624 409.3787,270.3996 411.0855,250.3299 412.7922,236.6316 417.9124,219.7476 419.6192,220.0661 421.3259,221.3404 423.0327,199.3594 424.7394,195.218 429.8596,192.3509 431.5664,214.9691 433.2731,219.429 434.9799,211.7834 436.6866,188.5281 443.5136,174.1927 445.2203,176.7412 446.927,153.4859 448.6338,148.3888 453.754,142.6546 455.4607,144.2475 457.1675,126.7263 458.8742,113.6651 460.581,116.2137 465.7012,99.9668 467.4079,95.1883 469.1147,72.8887 470.8214,44.5363 472.5281,32.4308 477.6484,42.3064 479.3551,49.3148 481.0619,66.1988 482.7686,77.6672 484.4753,71.2959 489.5956,109.8423 491.3023,105.701 493.009,125.7706 494.7158,134.6905 496.4225,148.3888 501.5427,149.0259 503.2495,175.7855 504.9562,170.6884 508.3697,185.3425 513.4899,171.9627 515.1967,185.661 516.9034,186.2982 518.6101,180.564 520.3169,185.0239 527.1439,213.3763 528.8506,232.8088 530.5573,239.8172 532.2641,234.7202 537.3843,261.4797 539.091,282.1865 540.7978,289.195 544.2113,301.9376 549.3315,310.5389 551.0382,317.8659 552.745,328.6971 554.4517,332.5199 556.1584,337.2984 561.2787,338.5727 562.9854,337.617 564.6921,348.7668 566.3989,348.1297 568.1056,349.7225 573.2259,350.6782 574.9326,351.9524 576.6393,352.5896 578.3461,352.9081 580.0528,352.9081 585.173,354.1824 586.8798,356.0938 588.5865,355.7752 590.2933,353.5453 592,354.8195" style="fill:none;stroke:rgb(31,119,180);stroke-width:2;stroke-linejoin:bevel" />
  <text dominant-baseline="hanging" text-anchor="middle" transform="translate(315.508,8)" font-family="Segoe UI" font-size="18" font-weight="700" fill="black">Aktive Fälle Stadt Aachen 02.07.2021</text>
  <polygon points="39.016,29.0795 592,29.0795 592,370.947 39.016,370.947" style="fill:none;stroke:black;stroke-width:1" />
  <polygon points="47.016,37.0795 233.487,37.0795 233.487,63.1325 47.016,63.1325" style="fill:none;stroke:none;" />
  <text dominant-baseline="hanging" text-anchor="start" transform="translate(75.016,45.0795)" font-family="Segoe UI" font-size="12" font-weight="400" fill="black">Aktive Fälle Stadt Aachen 02.07.2021</text>
  <polyline points="55.016,50.106 71.016,50.106" style="fill:none;stroke:rgb(31,119,180);stroke-width:2" />
</svg>