<?xml version="1.0" encoding="utf-8" standalone="no"?>
<!DOCTYPE svg PUBLIC "-//W3C//DTD SVG 1.1//EN" "http://www.w3.org/Graphics/SVG/1.1/DTD/svg11.dtd">
<svg width="600" height="400" version="1.1" xmlns:xlink="http://www.w3.org/1999/xlink" xmlns="http://www.w3.org/2000/svg">
  <rect x="0" y="0" width="600" height="400" style="fill:rgb(255,255,255);stroke:none;" />
  <polyline points="34.012,352.1162 30.012,352.1162" style="fill:none;stroke:black;stroke-width:1" />
  <polyline points="34.012,328.7131 30.012,328.7131" style="fill:none;stroke:black;stroke-width:1" />
  <polyline points="34.012,305.3101 30.012,305.3101" style="fill:none;stroke:black;stroke-width:1" />
  <polyline points="34.012,258.5041 30.012,258.5041" style="fill:none;stroke:black;stroke-width:1" />
  <polyline points="34.012,235.101 30.012,235.101" style="fill:none;stroke:black;stroke-width:1" />
  <polyline points="34.012,211.698 30.012,211.698" style="fill:none;stroke:black;stroke-width:1" />
  <polyline points="34.012,164.892 30.012,164.892" style="fill:none;stroke:black;stroke-width:1" />
  <polyline points="34.012,141.4889 30.012,141.4889" style="fill:none;stroke:black;stroke-width:1" />
  <polyline points="34.012,118.0859 30.012,118.0859" style="fill:none;stroke:black;stroke-width:1" />
  <polyline points="34.012,71.2798 30.012,71.2798" style="fill:none;stroke:black;stroke-width:1" />
  <polyline points="34.012,47.8768 30.012,47.8768" style="fill:none;stroke:black;stroke-width:1" />
  <text dominant-baseline="middle" text-anchor="end" transform="translate(23.012,281.9071)" font-family="Segoe UI" font-size="12" font-weight="400" fill="black">200</text>
  <text dominant-baseline="middle" text-anchor="end" transform="translate(23.012,188.295)" font-family="Segoe UI" font-size="12" font-weight="400" fill="black">400</text>
  <text dominant-baseline="middle" text-anchor="end" transform="translate(23.012,94.6829)" font-family="Segoe UI" font-size="12" font-weight="400" fill="black">600</text>
  <polyline points="34.012,281.9071 27.012,281.9071" style="fill:none;stroke:black;stroke-width:1" />
  <polyline points="34.012,188.295 27.012,188.295" style="fill:none;stroke:black;stroke-width:1" />
  <polyline points="34.012,94.6829 27.012,94.6829" style="fill:none;stroke:black;stroke-width:1" />
  <text dominant-baseline="hanging" text-anchor="middle" transform="translate(94.9943,381.947)" font-family="Segoe UI" font-size="12" font-weight="400" fill="black">01. September</text>
  <text dominant-baseline="hanging" text-anchor="middle" transform="translate(186.4677,381.947)" font-family="Segoe UI" font-size="12" font-weight="400" fill="black">01. October</text>
  <text dominant-baseline="hanging" text-anchor="middle" transform="translate(280.9903,381.947)" font-family="Segoe UI" font-size="12" font-weight="400" fill="black">01. November</text>
  <text dominant-baseline="hanging" text-anchor="middle" transform="translate(372.4637,381.947)" font-family="Segoe UI" font-size="12" font-weight="400" fill="black">01. December</text>
  <text dominant-baseline="hanging" text-anchor="middle" transform="translate(466.9863,381.947)" font-family="Segoe UI" font-size="12" font-weight="400" fill="black">01. January</text>
  <text dominant-baseline="hanging" text-anchor="middle" transform="translate(561.5089,381.947)" font-family="Segoe UI" font-size="12" font-weight="400" fill="black">01. February</text>
  <polyline points="94.9943,370.947 94.9943,377.947" style="fill:none;stroke:black;stroke-width:1" />
  <polyline points="186.4677,370.947 186.4677,377.947" style="fill:none;stroke:black;stroke-width:1" />
  <polyline points="280.9903,370.947 280.9903,377.947" style="fill:none;stroke:black;stroke-width:1" />
  <polyline points="372.4637,370.947 372.4637,377.947" style="fill:none;stroke:black;stroke-width:1" />
  <polyline points="466.9863,370.947 466.9863,377.947" style="fill:none;stroke:black;stroke-width:1" />
  <polyline points="561.5089,370.947 561.5089,377.947" style="fill:none;stroke:black;stroke-width:1" />
  <polyline points="34.012,361.4774 40.1102,357.2648 49.2576,360.0732 52.3067,357.2648 55.3558,359.1371 58.4049,356.7968 61.454,357.2648 70.6014,357.7329 73.6505,361.4774 76.6996,361.9454 79.7487,361.0093 82.7978,361.0093 91.9452,364.2857 94.9943,365.6899 98.0434,365.6899 101.0925,364.7538 104.1416,365.2219 113.289,365.2219 116.3381,367.5622 119.3872,366.158 122.4363,363.3496 125.4854,361.4774 134.6328,356.7968 137.6819,353.5204 140.731,348.8398 143.7801,348.3717 146.8292,346.9675 155.9766,351.1801 159.0257,352.1162 162.0748,351.6481 165.1239,349.7759 168.173,347.4356 177.3204,336.2021 180.3695,337.6063 183.4186,338.0744 186.4677,331.0534 189.5169,324.5006 198.6642,317.0116 201.7133,323.5645 204.7624,317.4797 207.8115,310.9268 210.8607,309.0546 220.008,295.0128 223.0571,305.7782 226.1062,300.1615 229.1553,287.5238 232.2045,269.2695 241.3518,245.8664 244.4009,247.2706 247.45,244.4622 250.4991,222.9315 253.5483,218.7189 262.6956,155.5307 265.7447,172.849 268.7938,172.849 271.843,167.7003 274.8921,139.6167 284.0394,148.5098 287.0885,195.3159 290.1376,185.0186 293.1868,171.4448 296.2359,165.8281 305.3832,134.468 308.4323,153.6585 311.4814,140.0847 317.5797,113.8734 326.727,108.2566 329.7761,134.468 332.8252,141.4889 335.8744,112.0011 338.9235,134.9361 348.0708,156.4669 351.1199,173.7851 354.169,167.7003 357.2182,182.2102 360.2673,160.2113 369.4146,132.5958 372.4637,148.0418 375.5129,171.9129 378.562,163.4878 381.6111,175.6573 390.7584,117.1498 393.8075,141.957 396.8567,155.5307 399.9058,132.1277 402.9549,117.1498 412.1022,70.3437 415.1513,99.8315 418.2005,111.065 421.2496,95.1509 424.2987,69.8757 433.446,33.835 436.4951,61.4506 439.5443,84.8536 454.7898,32.4308 457.839,57.7061 460.8881,76.4285 463.9372,56.77 476.1336,57.238 479.1828,82.5133 482.2319,118.0859 485.281,126.0429 488.3301,98.8954 500.5266,150.8501 503.5757,174.7212 506.6248,164.4239 509.6739,190.6353 518.8212,206.0813 521.8704,233.2288 524.9195,240.2497 527.9686,238.3775 531.0177,234.1649 540.165,233.6969 546.2633,244.4622 549.3124,224.8037 552.3615,212.1661 561.5089,214.0383 564.558,235.5691 567.6071,254.2915 570.6562,245.3984 573.7053,245.3984 582.8527,262.2485 585.9018,274.4181 588.9509,267.3972 592,253.3554" style="fill:none;stroke:rgb(31,119,180);stroke-width:2;stroke-linejoin:bevel" />
  <text dominant-baseline="hanging" text-anchor="middle" transform="translate(313.006,8)" font-family="Segoe UI" font-size="18" font-weight="700" fill="black">Aktive Fälle Stadt Aachen 11.02.2021</text>
  <polygon points="34.012,29.0795 592,29.0795 592,370.947 34.012,370.947" style="fill:none;stroke:black;stroke-width:1" />
  <polygon points="42.012,37.0795 228.483,37.0795 228.483,63.1325 42.012,63.1325" style="fill:none;stroke:none;" />
  <text dominant-baseline="hanging" text-anchor="start" transform="translate(70.012,45.0795)" font-family="Segoe UI" font-size="12" font-weight="400" fill="black">Aktive Fälle Stadt Aachen 11.02.2021</text>
  <polyline points="50.012,50.106 66.012,50.106" style="fill:none;stroke:rgb(31,119,180);stroke-width:2" />
</svg>