<?xml version="1.0" encoding="utf-8" standalone="no"?>
<!DOCTYPE svg PUBLIC "-//W3C//DTD SVG 1.1//EN" "http://www.w3.org/Graphics/SVG/1.1/DTD/svg11.dtd">
<svg width="600" height="400" version="1.1" xmlns:xlink="http://www.w3.org/1999/xlink" xmlns="http://www.w3.org/2000/svg">
  <rect x="0" y="0" width="600" height="400" style="fill:rgb(255,255,255);stroke:none;" />
  <polyline points="39.016,357.0495 35.016,357.0495" style="fill:none;stroke:black;stroke-width:1" />
  <polyline points="39.016,341.1212 35.016,341.1212" style="fill:none;stroke:black;stroke-width:1" />
  <polyline points="39.016,325.1929 35.016,325.1929" style="fill:none;stroke:black;stroke-width:1" />
  <polyline points="39.016,293.3363 35.016,293.3363" style="fill:none;stroke:black;stroke-width:1" />
  <polyline points="39.016,277.408 35.016,277.408" style="fill:none;stroke:black;stroke-width:1" />
  <polyline points="39.016,261.4797 35.016,261.4797" style="fill:none;stroke:black;stroke-width:1" />
  <polyline points="39.016,229.6231 35.016,229.6231" style="fill:none;stroke:black;stroke-width:1" />
  <polyline points="39.016,213.6948 35.016,213.6948" style="fill:none;stroke:black;stroke-width:1" />
  <polyline points="39.016,197.7665 35.016,197.7665" style="fill:none;stroke:black;stroke-width:1" />
  <polyline points="39.016,165.9099 35.016,165.9099" style="fill:none;stroke:black;stroke-width:1" />
  <polyline points="39.016,149.9816 35.016,149.9816" style="fill:none;stroke:black;stroke-width:1" />
  <polyline points="39.016,134.0533 35.016,134.0533" style="fill:none;stroke:black;stroke-width:1" />
  <polyline points="39.016,102.1968 35.016,102.1968" style="fill:none;stroke:black;stroke-width:1" />
  <polyline points="39.016,86.2685 35.016,86.2685" style="fill:none;stroke:black;stroke-width:1" />
  <polyline points="39.016,70.3402 35.016,70.3402" style="fill:none;stroke:black;stroke-width:1" />
  <polyline points="39.016,38.4836 35.016,38.4836" style="fill:none;stroke:black;stroke-width:1" />
  <polyline points="77.6862,370.947 77.6862,374.947" style="fill:none;stroke:black;stroke-width:1" />
  <polyline points="195.6303,370.947 195.6303,374.947" style="fill:none;stroke:black;stroke-width:1" />
  <polyline points="313.5745,370.947 313.5745,374.947" style="fill:none;stroke:black;stroke-width:1" />
  <polyline points="427.6516,370.947 427.6516,374.947" style="fill:none;stroke:black;stroke-width:1" />
  <polyline points="545.5957,370.947 545.5957,374.947" style="fill:none;stroke:black;stroke-width:1" />
  <text dominant-baseline="middle" text-anchor="end" transform="translate(28.016,309.2646)" font-family="Segoe UI" font-size="12" font-weight="400" fill="black">200</text>
  <text dominant-baseline="middle" text-anchor="end" transform="translate(28.016,245.5514)" font-family="Segoe UI" font-size="12" font-weight="400" fill="black">400</text>
  <text dominant-baseline="middle" text-anchor="end" transform="translate(28.016,181.8382)" font-family="Segoe UI" font-size="12" font-weight="400" fill="black">600</text>
  <text dominant-baseline="middle" text-anchor="end" transform="translate(28.016,118.125)" font-family="Segoe UI" font-size="12" font-weight="400" fill="black">800</text>
  <text dominant-baseline="middle" text-anchor="end" transform="translate(28.016,54.4119)" font-family="Segoe UI" font-size="12" font-weight="400" fill="black">1000</text>
  <polyline points="39.016,309.2646 32.016,309.2646" style="fill:none;stroke:black;stroke-width:1" />
  <polyline points="39.016,245.5514 32.016,245.5514" style="fill:none;stroke:black;stroke-width:1" />
  <polyline points="39.016,181.8382 32.016,181.8382" style="fill:none;stroke:black;stroke-width:1" />
  <polyline points="39.016,118.125 32.016,118.125" style="fill:none;stroke:black;stroke-width:1" />
  <polyline points="39.016,54.4119 32.016,54.4119" style="fill:none;stroke:black;stroke-width:1" />
  <text dominant-baseline="hanging" text-anchor="middle" transform="translate(135.6915,381.947)" font-family="Segoe UI" font-size="12" font-weight="400" fill="black">01. October</text>
  <text dominant-baseline="hanging" text-anchor="middle" transform="translate(253.6357,381.947)" font-family="Segoe UI" font-size="12" font-weight="400" fill="black">01. December</text>
  <text dominant-baseline="hanging" text-anchor="middle" transform="translate(373.5133,381.947)" font-family="Segoe UI" font-size="12" font-weight="400" fill="black">01. February</text>
  <text dominant-baseline="hanging" text-anchor="middle" transform="translate(487.5904,381.947)" font-family="Segoe UI" font-size="12" font-weight="400" fill="black">01. April</text>
  <polyline points="135.6915,370.947 135.6915,377.947" style="fill:none;stroke:black;stroke-width:1" />
  <polyline points="253.6357,370.947 253.6357,377.947" style="fill:none;stroke:black;stroke-width:1" />
  <polyline points="373.5133,370.947 373.5133,377.947" style="fill:none;stroke:black;stroke-width:1" />
  <polyline points="487.5904,370.947 487.5904,377.947" style="fill:none;stroke:black;stroke-width:1" />
  <polyline points="39.016,363.4208 42.883,360.5537 48.6836,362.4651 50.6171,360.5537 52.5506,361.828 54.4841,360.2352 56.4176,360.5537 62.2181,360.8723 64.1516,363.4208 66.0851,363.7394 68.0187,363.1023 69.9522,363.1023 75.7527,365.3322 77.6862,366.2879 79.6197,366.2879 81.5532,365.6508 83.4867,365.9693 89.2873,365.9693 91.2208,367.5622 93.1543,366.6065 95.0878,364.6951 97.0213,363.4208 102.8218,360.2352 104.7554,358.0052 106.6889,354.8195 108.6224,354.501 110.5559,353.5453 116.3564,356.4124 118.2899,357.0495 120.2234,356.7309 122.157,355.4567 124.0905,353.8638 129.891,346.2183 131.8245,347.174 133.758,347.4925 135.6915,342.714 137.625,338.2541 143.4256,333.1571 145.3591,337.617 147.2926,333.4756 149.2261,329.0157 151.1596,327.7414 156.9601,318.1845 158.8937,325.5115 160.8272,321.6887 162.7607,313.0874 164.6942,300.6633 170.4947,284.735 172.4282,285.6907 174.3617,283.7793 176.2952,269.1253 178.2288,266.2582 184.0293,223.2518 185.9628,235.0387 187.8963,235.0387 189.8298,231.5345 191.7633,212.4206 197.5639,218.4733 199.4974,250.3299 201.4309,243.3215 203.3644,234.083 205.2979,230.2603 211.0984,208.9163 213.0319,221.9775 214.9655,212.7391 218.8325,194.8994 224.633,191.0766 226.5665,208.9163 228.5,213.6948 230.4335,193.6252 232.367,209.2349 238.1676,223.8889 240.1011,235.6759 242.0346,231.5345 243.9681,241.4101 245.9016,226.4375 251.7022,207.6421 253.6357,218.1548 255.5692,234.4016 257.5027,228.6674 259.4362,236.9501 265.2367,197.1294 267.1702,214.0134 269.1037,223.2518 271.0373,207.3235 272.9708,197.1294 278.7713,165.2728 280.7048,185.3425 282.6383,192.988 284.5718,182.1568 286.5053,164.9542 292.3059,140.4247 294.2394,159.2201 296.1729,175.1484 305.8404,139.469 307.774,156.6715 309.7075,169.4142 311.641,156.0344 319.375,156.353 321.3085,173.5555 323.242,197.7665 325.1756,203.1822 327.1091,184.7053 334.8431,220.0661 336.7766,236.313 338.7101,229.3046 340.6436,247.1443 346.4442,257.6569 348.3777,276.1338 350.3112,280.9122 352.2447,279.638 354.1782,276.7709 359.9787,276.4523 363.8458,283.7793 365.7793,270.3996 367.7128,261.7983 373.5133,263.0725 375.4468,277.7266 377.3803,290.4692 379.3138,284.4165 381.2474,284.4165 387.0479,295.8848 388.9814,304.1676 390.9149,299.3891 392.8484,289.8321 394.7819,280.2751 400.5825,287.2836 402.516,310.8574 404.4495,309.5832 406.383,302.8933 408.3165,317.2288 414.117,323.2815 416.0505,329.0157 417.9841,325.1929 419.9176,323.9186 421.8511,325.5115 427.6516,327.1043 429.5851,335.0684 431.5186,329.6528 433.4521,312.4503 435.3857,311.4946 441.1862,298.4334 443.1197,298.4334 445.0532,293.3363 446.9867,285.3722 448.9202,275.4966 454.7208,268.8067 456.6543,269.7624 458.5878,270.3996 460.5213,250.3299 462.4548,236.6316 468.2553,219.7476 470.1888,220.0661 472.1223,221.3404 474.0559,199.3594 475.9894,195.218 481.7899,192.3509 483.7234,214.9691 485.6569,219.429 487.5904,211.7834 489.5239,188.5281 497.258,174.1927 499.1915,176.7412 501.125,153.4859 503.0585,148.3888 508.859,142.6546 510.7926,144.2475 512.7261,126.7263 514.6596,113.6651 516.5931,116.2137 522.3936,99.9668 524.3271,95.1883 526.2606,72.8887 528.1942,44.5363 530.1277,32.4308 535.9282,42.3064 537.8617,49.3148 539.7952,66.1988 541.7287,77.6672 543.6622,71.2959 549.4628,109.8423 551.3963,105.701 553.3298,125.7706 555.2633,134.6905 557.1968,148.3888 562.9973,149.0259 564.9309,175.7855 566.8644,170.6884 570.7314,185.3425 576.5319,171.9627 578.4654,185.661 580.3989,186.2982 582.3324,180.564 584.266,185.0239 592,213.3763" style="fill:none;stroke:rgb(31,119,180);stroke-width:2;stroke-linejoin:bevel" />
  <text dominant-baseline="hanging" text-anchor="middle" transform="translate(315.508,8)" font-family="Segoe UI" font-size="18" font-weight="700" fill="black">Aktive Fälle Stadt Aachen 25.05.2021</text>
  <polygon points="39.016,29.0795 592,29.0795 592,370.947 39.016,370.947" style="fill:none;stroke:black;stroke-width:1" />
  <polygon points="47.016,37.0795 233.487,37.0795 233.487,63.1325 47.016,63.1325" style="fill:none;stroke:none;" />
  <text dominant-baseline="hanging" text-anchor="start" transform="translate(75.016,45.0795)" font-family="Segoe UI" font-size="12" font-weight="400" fill="black">Aktive Fälle Stadt Aachen 25.05.2021</text>
  <polyline points="55.016,50.106 71.016,50.106" style="fill:none;stroke:rgb(31,119,180);stroke-width:2" />
</svg>