<?xml version="1.0" encoding="utf-8" standalone="no"?>
<!DOCTYPE svg PUBLIC "-//W3C//DTD SVG 1.1//EN" "http://www.w3.org/Graphics/SVG/1.1/DTD/svg11.dtd">
<svg width="600" height="400" version="1.1" xmlns:xlink="http://www.w3.org/1999/xlink" xmlns="http://www.w3.org/2000/svg">
  <rect x="0" y="0" width="600" height="400" style="fill:rgb(255,255,255);stroke:none;" />
  <polyline points="34.012,352.1162 30.012,352.1162" style="fill:none;stroke:black;stroke-width:1" />
  <polyline points="34.012,328.7131 30.012,328.7131" style="fill:none;stroke:black;stroke-width:1" />
  <polyline points="34.012,305.3101 30.012,305.3101" style="fill:none;stroke:black;stroke-width:1" />
  <polyline points="34.012,258.5041 30.012,258.5041" style="fill:none;stroke:black;stroke-width:1" />
  <polyline points="34.012,235.101 30.012,235.101" style="fill:none;stroke:black;stroke-width:1" />
  <polyline points="34.012,211.698 30.012,211.698" style="fill:none;stroke:black;stroke-width:1" />
  <polyline points="34.012,164.892 30.012,164.892" style="fill:none;stroke:black;stroke-width:1" />
  <polyline points="34.012,141.4889 30.012,141.4889" style="fill:none;stroke:black;stroke-width:1" />
  <polyline points="34.012,118.0859 30.012,118.0859" style="fill:none;stroke:black;stroke-width:1" />
  <polyline points="34.012,71.2798 30.012,71.2798" style="fill:none;stroke:black;stroke-width:1" />
  <polyline points="34.012,47.8768 30.012,47.8768" style="fill:none;stroke:black;stroke-width:1" />
  <text dominant-baseline="middle" text-anchor="end" transform="translate(23.012,281.9071)" font-family="Segoe UI" font-size="12" font-weight="400" fill="black">200</text>
  <text dominant-baseline="middle" text-anchor="end" transform="translate(23.012,188.295)" font-family="Segoe UI" font-size="12" font-weight="400" fill="black">400</text>
  <text dominant-baseline="middle" text-anchor="end" transform="translate(23.012,94.6829)" font-family="Segoe UI" font-size="12" font-weight="400" fill="black">600</text>
  <polyline points="34.012,281.9071 27.012,281.9071" style="fill:none;stroke:black;stroke-width:1" />
  <polyline points="34.012,188.295 27.012,188.295" style="fill:none;stroke:black;stroke-width:1" />
  <polyline points="34.012,94.6829 27.012,94.6829" style="fill:none;stroke:black;stroke-width:1" />
  <text dominant-baseline="hanging" text-anchor="middle" transform="translate(104.1992,381.947)" font-family="Segoe UI" font-size="12" font-weight="400" fill="black">01. September</text>
  <text dominant-baseline="hanging" text-anchor="middle" transform="translate(209.4799,381.947)" font-family="Segoe UI" font-size="12" font-weight="400" fill="black">01. October</text>
  <text dominant-baseline="hanging" text-anchor="middle" transform="translate(318.27,381.947)" font-family="Segoe UI" font-size="12" font-weight="400" fill="black">01. November</text>
  <text dominant-baseline="hanging" text-anchor="middle" transform="translate(423.5508,381.947)" font-family="Segoe UI" font-size="12" font-weight="400" fill="black">01. December</text>
  <text dominant-baseline="hanging" text-anchor="middle" transform="translate(532.3409,381.947)" font-family="Segoe UI" font-size="12" font-weight="400" fill="black">01. January</text>
  <polyline points="104.1992,370.947 104.1992,377.947" style="fill:none;stroke:black;stroke-width:1" />
  <polyline points="209.4799,370.947 209.4799,377.947" style="fill:none;stroke:black;stroke-width:1" />
  <polyline points="318.27,370.947 318.27,377.947" style="fill:none;stroke:black;stroke-width:1" />
  <polyline points="423.5508,370.947 423.5508,377.947" style="fill:none;stroke:black;stroke-width:1" />
  <polyline points="532.3409,370.947 532.3409,377.947" style="fill:none;stroke:black;stroke-width:1" />
  <polyline points="34.012,361.4774 41.0307,357.2648 51.5588,360.0732 55.0682,357.2648 58.5775,359.1371 62.0869,356.7968 65.5962,357.2648 76.1243,357.7329 79.6337,361.4774 83.143,361.9454 86.6524,361.0093 90.1617,361.0093 100.6898,364.2857 104.1992,365.6899 107.7085,365.6899 111.2179,364.7538 114.7272,365.2219 125.2553,365.2219 128.7647,367.5622 132.274,366.158 135.7834,363.3496 139.2928,361.4774 149.8208,356.7968 153.3302,353.5204 156.8395,348.8398 160.3489,348.3717 163.8583,346.9675 174.3863,351.1801 177.8957,352.1162 181.4051,351.6481 184.9144,349.7759 188.4238,347.4356 198.9518,336.2021 202.4612,337.6063 205.9706,338.0744 209.4799,331.0534 212.9893,324.5006 223.5174,317.0116 227.0267,323.5645 230.5361,317.4797 234.0454,310.9268 237.5548,309.0546 248.0829,295.0128 251.5922,305.7782 255.1016,300.1615 258.6109,287.5238 262.1203,269.2695 272.6484,245.8664 276.1577,247.2706 279.6671,244.4622 283.1765,222.9315 286.6858,218.7189 297.2139,155.5307 300.7232,172.849 304.2326,172.849 307.742,167.7003 311.2513,139.6167 321.7794,148.5098 325.2888,195.3159 328.7981,185.0186 332.3075,171.4448 335.8168,165.8281 346.3449,134.468 349.8543,153.6585 353.3636,140.0847 360.3823,113.8734 370.9104,108.2566 374.4198,134.468 377.9291,141.4889 381.4385,112.0011 384.9478,134.9361 395.4759,156.4669 398.9853,173.7851 402.4946,167.7003 406.004,182.2102 409.5134,160.2113 420.0414,132.5958 423.5508,148.0418 427.0602,171.9129 430.5695,163.4878 434.0789,175.6573 444.6069,117.1498 448.1163,141.957 451.6257,155.5307 455.135,132.1277 458.6444,117.1498 469.1725,70.3437 472.6818,99.8315 476.1912,111.065 479.7005,95.1509 483.2099,69.8757 493.738,33.835 497.2473,61.4506 500.7567,84.8536 518.3035,32.4308 521.8128,57.7061 525.3222,76.4285 528.8315,56.77 542.869,57.238 546.3783,82.5133 549.8877,118.0859 553.3971,126.0429 556.9064,98.8954 567.4345,112.0011 570.9438,150.8501 574.4532,174.7212 577.9626,164.4239 581.4719,190.6353 592,206.0813" style="fill:none;stroke:rgb(31,119,180);stroke-width:2;stroke-linejoin:bevel" />
  <text dominant-baseline="hanging" text-anchor="middle" transform="translate(313.006,8)" font-family="Segoe UI" font-size="18" font-weight="700" fill="black">Aktive Fälle Stadt Aachen 18.01.2021</text>
  <polygon points="34.012,29.0795 592,29.0795 592,370.947 34.012,370.947" style="fill:none;stroke:black;stroke-width:1" />
  <polygon points="42.012,37.0795 228.483,37.0795 228.483,63.1325 42.012,63.1325" style="fill:none;stroke:none;" />
  <text dominant-baseline="hanging" text-anchor="start" transform="translate(70.012,45.0795)" font-family="Segoe UI" font-size="12" font-weight="400" fill="black">Aktive Fälle Stadt Aachen 18.01.2021</text>
  <polyline points="50.012,50.106 66.012,50.106" style="fill:none;stroke:rgb(31,119,180);stroke-width:2" />
</svg>