<?xml version="1.0" encoding="utf-8" standalone="no"?>
<!DOCTYPE svg PUBLIC "-//W3C//DTD SVG 1.1//EN" "http://www.w3.org/Graphics/SVG/1.1/DTD/svg11.dtd">
<svg width="600" height="400" version="1.1" xmlns:xlink="http://www.w3.org/1999/xlink" xmlns="http://www.w3.org/2000/svg">
  <rect x="0" y="0" width="600" height="400" style="fill:rgb(255,255,255);stroke:none;" />
  <polyline points="39.016,357.0495 35.016,357.0495" style="fill:none;stroke:black;stroke-width:1" />
  <polyline points="39.016,341.1212 35.016,341.1212" style="fill:none;stroke:black;stroke-width:1" />
  <polyline points="39.016,325.1929 35.016,325.1929" style="fill:none;stroke:black;stroke-width:1" />
  <polyline points="39.016,293.3363 35.016,293.3363" style="fill:none;stroke:black;stroke-width:1" />
  <polyline points="39.016,277.408 35.016,277.408" style="fill:none;stroke:black;stroke-width:1" />
  <polyline points="39.016,261.4797 35.016,261.4797" style="fill:none;stroke:black;stroke-width:1" />
  <polyline points="39.016,229.6231 35.016,229.6231" style="fill:none;stroke:black;stroke-width:1" />
  <polyline points="39.016,213.6948 35.016,213.6948" style="fill:none;stroke:black;stroke-width:1" />
  <polyline points="39.016,197.7665 35.016,197.7665" style="fill:none;stroke:black;stroke-width:1" />
  <polyline points="39.016,165.9099 35.016,165.9099" style="fill:none;stroke:black;stroke-width:1" />
  <polyline points="39.016,149.9816 35.016,149.9816" style="fill:none;stroke:black;stroke-width:1" />
  <polyline points="39.016,134.0533 35.016,134.0533" style="fill:none;stroke:black;stroke-width:1" />
  <polyline points="39.016,102.1968 35.016,102.1968" style="fill:none;stroke:black;stroke-width:1" />
  <polyline points="39.016,86.2685 35.016,86.2685" style="fill:none;stroke:black;stroke-width:1" />
  <polyline points="39.016,70.3402 35.016,70.3402" style="fill:none;stroke:black;stroke-width:1" />
  <polyline points="39.016,38.4836 35.016,38.4836" style="fill:none;stroke:black;stroke-width:1" />
  <polyline points="76.3798,370.947 76.3798,374.947" style="fill:none;stroke:black;stroke-width:1" />
  <polyline points="190.3393,370.947 190.3393,374.947" style="fill:none;stroke:black;stroke-width:1" />
  <polyline points="304.2989,370.947 304.2989,374.947" style="fill:none;stroke:black;stroke-width:1" />
  <polyline points="414.522,370.947 414.522,374.947" style="fill:none;stroke:black;stroke-width:1" />
  <polyline points="528.4816,370.947 528.4816,374.947" style="fill:none;stroke:black;stroke-width:1" />
  <text dominant-baseline="middle" text-anchor="end" transform="translate(28.016,309.2646)" font-family="Segoe UI" font-size="12" font-weight="400" fill="black">200</text>
  <text dominant-baseline="middle" text-anchor="end" transform="translate(28.016,245.5514)" font-family="Segoe UI" font-size="12" font-weight="400" fill="black">400</text>
  <text dominant-baseline="middle" text-anchor="end" transform="translate(28.016,181.8382)" font-family="Segoe UI" font-size="12" font-weight="400" fill="black">600</text>
  <text dominant-baseline="middle" text-anchor="end" transform="translate(28.016,118.125)" font-family="Segoe UI" font-size="12" font-weight="400" fill="black">800</text>
  <text dominant-baseline="middle" text-anchor="end" transform="translate(28.016,54.4119)" font-family="Segoe UI" font-size="12" font-weight="400" fill="black">1000</text>
  <polyline points="39.016,309.2646 32.016,309.2646" style="fill:none;stroke:black;stroke-width:1" />
  <polyline points="39.016,245.5514 32.016,245.5514" style="fill:none;stroke:black;stroke-width:1" />
  <polyline points="39.016,181.8382 32.016,181.8382" style="fill:none;stroke:black;stroke-width:1" />
  <polyline points="39.016,118.125 32.016,118.125" style="fill:none;stroke:black;stroke-width:1" />
  <polyline points="39.016,54.4119 32.016,54.4119" style="fill:none;stroke:black;stroke-width:1" />
  <text dominant-baseline="hanging" text-anchor="middle" transform="translate(132.4255,381.947)" font-family="Segoe UI" font-size="12" font-weight="400" fill="black">01. October</text>
  <text dominant-baseline="hanging" text-anchor="middle" transform="translate(246.385,381.947)" font-family="Segoe UI" font-size="12" font-weight="400" fill="black">01. December</text>
  <text dominant-baseline="hanging" text-anchor="middle" transform="translate(362.2127,381.947)" font-family="Segoe UI" font-size="12" font-weight="400" fill="black">01. February</text>
  <text dominant-baseline="hanging" text-anchor="middle" transform="translate(472.4359,381.947)" font-family="Segoe UI" font-size="12" font-weight="400" fill="black">01. April</text>
  <text dominant-baseline="hanging" text-anchor="middle" transform="translate(586.3954,381.947)" font-family="Segoe UI" font-size="12" font-weight="400" fill="black">01. June</text>
  <polyline points="132.4255,370.947 132.4255,377.947" style="fill:none;stroke:black;stroke-width:1" />
  <polyline points="246.385,370.947 246.385,377.947" style="fill:none;stroke:black;stroke-width:1" />
  <polyline points="362.2127,370.947 362.2127,377.947" style="fill:none;stroke:black;stroke-width:1" />
  <polyline points="472.4359,370.947 472.4359,377.947" style="fill:none;stroke:black;stroke-width:1" />
  <polyline points="586.3954,370.947 586.3954,377.947" style="fill:none;stroke:black;stroke-width:1" />
  <polyline points="39.016,363.4208 42.7524,360.5537 48.3569,362.4651 50.2251,360.5537 52.0933,361.828 53.9615,360.2352 55.8297,360.5537 61.4343,360.8723 63.3025,363.4208 65.1706,363.7394 67.0388,363.1023 68.907,363.1023 74.5116,365.3322 76.3798,366.2879 78.248,366.2879 80.1162,365.6508 81.9844,365.9693 87.5889,365.9693 89.4571,367.5622 91.3253,366.6065 93.1935,364.6951 95.0617,363.4208 100.6662,360.2352 102.5344,358.0052 104.4026,354.8195 106.2708,354.501 108.139,353.5453 113.7436,356.4124 115.6118,357.0495 117.4799,356.7309 119.3481,355.4567 121.2163,353.8638 126.8209,346.2183 128.6891,347.174 130.5573,347.4925 132.4255,342.714 134.2936,338.2541 139.8982,333.1571 141.7664,337.617 143.6346,333.4756 145.5028,329.0157 147.371,327.7414 152.9755,318.1845 154.8437,325.5115 156.7119,321.6887 158.5801,313.0874 160.4483,300.6633 166.0529,284.735 167.9211,285.6907 169.7892,283.7793 171.6574,269.1253 173.5256,266.2582 179.1302,223.2518 180.9984,235.0387 182.8666,235.0387 184.7348,231.5345 186.6029,212.4206 192.2075,218.4733 194.0757,250.3299 195.9439,243.3215 197.8121,234.083 199.6803,230.2603 205.2848,208.9163 207.153,221.9775 209.0212,212.7391 212.7576,194.8994 218.3622,191.0766 220.2304,208.9163 222.0985,213.6948 223.9667,193.6252 225.8349,209.2349 231.4395,223.8889 233.3077,235.6759 235.1759,231.5345 237.0441,241.4101 238.9122,226.4375 244.5168,207.6421 246.385,218.1548 248.2532,234.4016 250.1214,228.6674 251.9896,236.9501 257.5941,197.1294 259.4623,214.0134 261.3305,223.2518 263.1987,207.3235 265.0669,197.1294 270.6715,165.2728 272.5396,185.3425 274.4078,192.988 276.276,182.1568 278.1442,164.9542 283.7488,140.4247 285.617,159.2201 287.4852,175.1484 296.8261,139.469 298.6943,156.6715 300.5625,169.4142 302.4307,156.0344 309.9034,156.353 311.7716,173.5555 313.6398,197.7665 315.508,203.1822 317.3762,184.7053 324.8489,220.0661 326.7171,236.313 328.5853,229.3046 330.4535,247.1443 336.0581,257.6569 337.9263,276.1338 339.7945,280.9122 341.6626,279.638 343.5308,276.7709 349.1354,276.4523 352.8718,283.7793 354.74,270.3996 356.6082,261.7983 362.2127,263.0725 364.0809,277.7266 365.9491,290.4692 367.8173,284.4165 369.6855,284.4165 375.2901,295.8848 377.1582,304.1676 379.0264,299.3891 380.8946,289.8321 382.7628,280.2751 388.3674,287.2836 390.2356,310.8574 392.1038,309.5832 393.9719,302.8933 395.8401,317.2288 401.4447,323.2815 403.3129,329.0157 405.1811,325.1929 407.0493,323.9186 408.9175,325.5115 414.522,327.1043 416.3902,335.0684 418.2584,329.6528 420.1266,312.4503 421.9948,311.4946 427.5994,298.4334 429.4675,298.4334 431.3357,293.3363 433.2039,285.3722 435.0721,275.4966 440.6767,268.8067 442.5449,269.7624 444.4131,270.3996 446.2812,250.3299 448.1494,236.6316 453.754,219.7476 455.6222,220.0661 457.4904,221.3404 459.3586,199.3594 461.2268,195.218 466.8313,192.3509 468.6995,214.9691 470.5677,219.429 472.4359,211.7834 474.3041,188.5281 481.7768,174.1927 483.645,176.7412 485.5132,153.4859 487.3814,148.3888 492.986,142.6546 494.8542,144.2475 496.7224,126.7263 498.5905,113.6651 500.4587,116.2137 506.0633,99.9668 507.9315,95.1883 509.7997,72.8887 511.6679,44.5363 513.5361,32.4308 519.1406,42.3064 521.0088,49.3148 522.877,66.1988 524.7452,77.6672 526.6134,71.2959 532.2179,109.8423 534.0861,105.701 535.9543,125.7706 537.8225,134.6905 539.6907,148.3888 545.2953,149.0259 547.1635,175.7855 549.0316,170.6884 552.768,185.3425 558.3726,171.9627 560.2408,185.661 562.109,186.2982 563.9772,180.564 565.8454,185.0239 573.3181,213.3763 575.1863,232.8088 577.0545,239.8172 578.9227,234.7202 584.5272,261.4797 586.3954,282.1865 588.2636,289.195 592,301.9376" style="fill:none;stroke:rgb(31,119,180);stroke-width:2;stroke-linejoin:bevel" />
  <text dominant-baseline="hanging" text-anchor="middle" transform="translate(315.508,8)" font-family="Segoe UI" font-size="18" font-weight="700" fill="black">Aktive Fälle Stadt Aachen 04.06.2021</text>
  <polygon points="39.016,29.0795 592,29.0795 592,370.947 39.016,370.947" style="fill:none;stroke:black;stroke-width:1" />
  <polygon points="47.016,37.0795 233.487,37.0795 233.487,63.1325 47.016,63.1325" style="fill:none;stroke:none;" />
  <text dominant-baseline="hanging" text-anchor="start" transform="translate(75.016,45.0795)" font-family="Segoe UI" font-size="12" font-weight="400" fill="black">Aktive Fälle Stadt Aachen 04.06.2021</text>
  <polyline points="55.016,50.106 71.016,50.106" style="fill:none;stroke:rgb(31,119,180);stroke-width:2" />
</svg>