<?xml version="1.0" encoding="utf-8" standalone="no"?>
<!DOCTYPE svg PUBLIC "-//W3C//DTD SVG 1.1//EN" "http://www.w3.org/Graphics/SVG/1.1/DTD/svg11.dtd">
<svg width="600" height="400" version="1.1" xmlns:xlink="http://www.w3.org/1999/xlink" xmlns="http://www.w3.org/2000/svg">
  <rect x="0" y="0" width="600" height="400" style="fill:rgb(255,255,255);stroke:none;" />
  <polyline points="34.012,365.3428 30.012,365.3428" style="fill:none;stroke:black;stroke-width:1" />
  <polyline points="34.012,350.5467 30.012,350.5467" style="fill:none;stroke:black;stroke-width:1" />
  <polyline points="34.012,335.7506 30.012,335.7506" style="fill:none;stroke:black;stroke-width:1" />
  <polyline points="34.012,320.9545 30.012,320.9545" style="fill:none;stroke:black;stroke-width:1" />
  <polyline points="34.012,291.3623 30.012,291.3623" style="fill:none;stroke:black;stroke-width:1" />
  <polyline points="34.012,276.5662 30.012,276.5662" style="fill:none;stroke:black;stroke-width:1" />
  <polyline points="34.012,261.7702 30.012,261.7702" style="fill:none;stroke:black;stroke-width:1" />
  <polyline points="34.012,246.9741 30.012,246.9741" style="fill:none;stroke:black;stroke-width:1" />
  <polyline points="34.012,217.3819 30.012,217.3819" style="fill:none;stroke:black;stroke-width:1" />
  <polyline points="34.012,202.5858 30.012,202.5858" style="fill:none;stroke:black;stroke-width:1" />
  <polyline points="34.012,187.7897 30.012,187.7897" style="fill:none;stroke:black;stroke-width:1" />
  <polyline points="34.012,172.9936 30.012,172.9936" style="fill:none;stroke:black;stroke-width:1" />
  <polyline points="34.012,143.4015 30.012,143.4015" style="fill:none;stroke:black;stroke-width:1" />
  <polyline points="34.012,128.6054 30.012,128.6054" style="fill:none;stroke:black;stroke-width:1" />
  <polyline points="34.012,113.8093 30.012,113.8093" style="fill:none;stroke:black;stroke-width:1" />
  <polyline points="34.012,99.0132 30.012,99.0132" style="fill:none;stroke:black;stroke-width:1" />
  <polyline points="34.012,69.421 30.012,69.421" style="fill:none;stroke:black;stroke-width:1" />
  <polyline points="34.012,54.6249 30.012,54.6249" style="fill:none;stroke:black;stroke-width:1" />
  <polyline points="34.012,39.8289 30.012,39.8289" style="fill:none;stroke:black;stroke-width:1" />
  <text dominant-baseline="middle" text-anchor="end" transform="translate(23.012,306.1584)" font-family="Segoe UI" font-size="12" font-weight="400" fill="black">100</text>
  <text dominant-baseline="middle" text-anchor="end" transform="translate(23.012,232.178)" font-family="Segoe UI" font-size="12" font-weight="400" fill="black">200</text>
  <text dominant-baseline="middle" text-anchor="end" transform="translate(23.012,158.1975)" font-family="Segoe UI" font-size="12" font-weight="400" fill="black">300</text>
  <text dominant-baseline="middle" text-anchor="end" transform="translate(23.012,84.2171)" font-family="Segoe UI" font-size="12" font-weight="400" fill="black">400</text>
  <polyline points="34.012,306.1584 27.012,306.1584" style="fill:none;stroke:black;stroke-width:1" />
  <polyline points="34.012,232.178 27.012,232.178" style="fill:none;stroke:black;stroke-width:1" />
  <polyline points="34.012,158.1975 27.012,158.1975" style="fill:none;stroke:black;stroke-width:1" />
  <polyline points="34.012,84.2171 27.012,84.2171" style="fill:none;stroke:black;stroke-width:1" />
  <text dominant-baseline="hanging" text-anchor="middle" transform="translate(56.3315,381.947)" font-family="Segoe UI" font-size="12" font-weight="400" fill="black">15. August</text>
  <text dominant-baseline="hanging" text-anchor="middle" transform="translate(160.4893,381.947)" font-family="Segoe UI" font-size="12" font-weight="400" fill="black">29. August</text>
  <text dominant-baseline="hanging" text-anchor="middle" transform="translate(264.647,381.947)" font-family="Segoe UI" font-size="12" font-weight="400" fill="black">12. September</text>
  <text dominant-baseline="hanging" text-anchor="middle" transform="translate(368.8048,381.947)" font-family="Segoe UI" font-size="12" font-weight="400" fill="black">26. September</text>
  <text dominant-baseline="hanging" text-anchor="middle" transform="translate(472.9626,381.947)" font-family="Segoe UI" font-size="12" font-weight="400" fill="black">10. October</text>
  <text dominant-baseline="hanging" text-anchor="middle" transform="translate(577.1203,381.947)" font-family="Segoe UI" font-size="12" font-weight="400" fill="black">24. October</text>
  <polyline points="56.3315,370.947 56.3315,377.947" style="fill:none;stroke:black;stroke-width:1" />
  <polyline points="160.4893,370.947 160.4893,377.947" style="fill:none;stroke:black;stroke-width:1" />
  <polyline points="264.647,370.947 264.647,377.947" style="fill:none;stroke:black;stroke-width:1" />
  <polyline points="368.8048,370.947 368.8048,377.947" style="fill:none;stroke:black;stroke-width:1" />
  <polyline points="472.9626,370.947 472.9626,377.947" style="fill:none;stroke:black;stroke-width:1" />
  <polyline points="577.1203,370.947 577.1203,377.947" style="fill:none;stroke:black;stroke-width:1" />
  <polyline points="34.012,357.9447 48.8917,351.2865 71.2112,355.7253 78.651,351.2865 86.0909,354.2457 93.5307,350.5467 100.9706,351.2865 123.2901,352.0263 130.7299,357.9447 138.1698,358.6845 145.6096,357.2049 153.0494,357.2049 175.369,362.3835 182.8088,364.603 190.2486,364.603 197.6885,363.1233 205.1283,363.8632 227.4478,363.8632 234.8877,367.5622 242.3275,365.3428 249.7674,360.9039 257.2072,357.9447 279.5267,350.5467 286.9666,345.368 294.4064,337.97 301.8462,337.2302 309.2861,335.0108 331.6056,341.669 339.0454,343.1486 346.4853,342.4088 353.9251,339.4496 361.365,335.7506 383.6845,317.9953 391.1243,320.2147 398.5642,320.9545 406.004,309.8574 413.4438,299.5002 435.7634,287.6633 443.2032,298.0206 450.643,288.4031 458.0829,278.0458 465.5227,275.0866 487.8422,252.8925 495.2821,269.908 502.7219,261.0304 510.1618,241.0556 517.6016,212.2033 539.9211,175.213 547.361,177.4325 554.8008,172.9936 562.2406,138.9626 569.6805,132.3044 592,32.4308" style="fill:none;stroke:rgb(31,119,180);stroke-width:2;stroke-linejoin:bevel" />
  <text dominant-baseline="hanging" text-anchor="middle" transform="translate(313.006,8)" font-family="Segoe UI" font-size="18" font-weight="700" fill="black">Aktive Fälle Stadt Aachen 26.10.2020</text>
  <polygon points="34.012,29.0795 592,29.0795 592,370.947 34.012,370.947" style="fill:none;stroke:black;stroke-width:1" />
  <polygon points="42.012,37.0795 228.483,37.0795 228.483,63.1325 42.012,63.1325" style="fill:none;stroke:none;" />
  <text dominant-baseline="hanging" text-anchor="start" transform="translate(70.012,45.0795)" font-family="Segoe UI" font-size="12" font-weight="400" fill="black">Aktive Fälle Stadt Aachen 26.10.2020</text>
  <polyline points="50.012,50.106 66.012,50.106" style="fill:none;stroke:rgb(31,119,180);stroke-width:2" />
</svg>