<?xml version="1.0" encoding="utf-8" standalone="no"?>
<!DOCTYPE svg PUBLIC "-//W3C//DTD SVG 1.1//EN" "http://www.w3.org/Graphics/SVG/1.1/DTD/svg11.dtd">
<svg width="600" height="400" version="1.1" xmlns:xlink="http://www.w3.org/1999/xlink" xmlns="http://www.w3.org/2000/svg">
  <rect x="0" y="0" width="600" height="400" style="fill:rgb(255,255,255);stroke:none;" />
  <polyline points="39.016,357.0495 35.016,357.0495" style="fill:none;stroke:black;stroke-width:1" />
  <polyline points="39.016,341.1212 35.016,341.1212" style="fill:none;stroke:black;stroke-width:1" />
  <polyline points="39.016,325.1929 35.016,325.1929" style="fill:none;stroke:black;stroke-width:1" />
  <polyline points="39.016,293.3363 35.016,293.3363" style="fill:none;stroke:black;stroke-width:1" />
  <polyline points="39.016,277.408 35.016,277.408" style="fill:none;stroke:black;stroke-width:1" />
  <polyline points="39.016,261.4797 35.016,261.4797" style="fill:none;stroke:black;stroke-width:1" />
  <polyline points="39.016,229.6231 35.016,229.6231" style="fill:none;stroke:black;stroke-width:1" />
  <polyline points="39.016,213.6948 35.016,213.6948" style="fill:none;stroke:black;stroke-width:1" />
  <polyline points="39.016,197.7665 35.016,197.7665" style="fill:none;stroke:black;stroke-width:1" />
  <polyline points="39.016,165.9099 35.016,165.9099" style="fill:none;stroke:black;stroke-width:1" />
  <polyline points="39.016,149.9816 35.016,149.9816" style="fill:none;stroke:black;stroke-width:1" />
  <polyline points="39.016,134.0533 35.016,134.0533" style="fill:none;stroke:black;stroke-width:1" />
  <polyline points="39.016,102.1968 35.016,102.1968" style="fill:none;stroke:black;stroke-width:1" />
  <polyline points="39.016,86.2685 35.016,86.2685" style="fill:none;stroke:black;stroke-width:1" />
  <polyline points="39.016,70.3402 35.016,70.3402" style="fill:none;stroke:black;stroke-width:1" />
  <polyline points="39.016,38.4836 35.016,38.4836" style="fill:none;stroke:black;stroke-width:1" />
  <polyline points="76.634,370.947 76.634,374.947" style="fill:none;stroke:black;stroke-width:1" />
  <polyline points="191.3687,370.947 191.3687,374.947" style="fill:none;stroke:black;stroke-width:1" />
  <polyline points="306.1035,370.947 306.1035,374.947" style="fill:none;stroke:black;stroke-width:1" />
  <polyline points="417.0765,370.947 417.0765,374.947" style="fill:none;stroke:black;stroke-width:1" />
  <polyline points="531.8113,370.947 531.8113,374.947" style="fill:none;stroke:black;stroke-width:1" />
  <text dominant-baseline="middle" text-anchor="end" transform="translate(28.016,309.2646)" font-family="Segoe UI" font-size="12" font-weight="400" fill="black">200</text>
  <text dominant-baseline="middle" text-anchor="end" transform="translate(28.016,245.5514)" font-family="Segoe UI" font-size="12" font-weight="400" fill="black">400</text>
  <text dominant-baseline="middle" text-anchor="end" transform="translate(28.016,181.8382)" font-family="Segoe UI" font-size="12" font-weight="400" fill="black">600</text>
  <text dominant-baseline="middle" text-anchor="end" transform="translate(28.016,118.125)" font-family="Segoe UI" font-size="12" font-weight="400" fill="black">800</text>
  <text dominant-baseline="middle" text-anchor="end" transform="translate(28.016,54.4119)" font-family="Segoe UI" font-size="12" font-weight="400" fill="black">1000</text>
  <polyline points="39.016,309.2646 32.016,309.2646" style="fill:none;stroke:black;stroke-width:1" />
  <polyline points="39.016,245.5514 32.016,245.5514" style="fill:none;stroke:black;stroke-width:1" />
  <polyline points="39.016,181.8382 32.016,181.8382" style="fill:none;stroke:black;stroke-width:1" />
  <polyline points="39.016,118.125 32.016,118.125" style="fill:none;stroke:black;stroke-width:1" />
  <polyline points="39.016,54.4119 32.016,54.4119" style="fill:none;stroke:black;stroke-width:1" />
  <text dominant-baseline="hanging" text-anchor="middle" transform="translate(133.0609,381.947)" font-family="Segoe UI" font-size="12" font-weight="400" fill="black">01. October</text>
  <text dominant-baseline="hanging" text-anchor="middle" transform="translate(247.7957,381.947)" font-family="Segoe UI" font-size="12" font-weight="400" fill="black">01. December</text>
  <text dominant-baseline="hanging" text-anchor="middle" transform="translate(364.4113,381.947)" font-family="Segoe UI" font-size="12" font-weight="400" fill="black">01. February</text>
  <text dominant-baseline="hanging" text-anchor="middle" transform="translate(475.3843,381.947)" font-family="Segoe UI" font-size="12" font-weight="400" fill="black">01. April</text>
  <text dominant-baseline="hanging" text-anchor="middle" transform="translate(590.1191,381.947)" font-family="Segoe UI" font-size="12" font-weight="400" fill="black">01. June</text>
  <polyline points="133.0609,370.947 133.0609,377.947" style="fill:none;stroke:black;stroke-width:1" />
  <polyline points="247.7957,370.947 247.7957,377.947" style="fill:none;stroke:black;stroke-width:1" />
  <polyline points="364.4113,370.947 364.4113,377.947" style="fill:none;stroke:black;stroke-width:1" />
  <polyline points="475.3843,370.947 475.3843,377.947" style="fill:none;stroke:black;stroke-width:1" />
  <polyline points="590.1191,370.947 590.1191,377.947" style="fill:none;stroke:black;stroke-width:1" />
  <polyline points="39.016,363.4208 42.7778,360.5537 48.4205,362.4651 50.3014,360.5537 52.1823,361.828 54.0632,360.2352 55.9441,360.5537 61.5868,360.8723 63.4677,363.4208 65.3486,363.7394 67.2295,363.1023 69.1104,363.1023 74.7531,365.3322 76.634,366.2879 78.5149,366.2879 80.3958,365.6508 82.2767,365.9693 87.9193,365.9693 89.8002,367.5622 91.6811,366.6065 93.562,364.6951 95.4429,363.4208 101.0856,360.2352 102.9665,358.0052 104.8474,354.8195 106.7283,354.501 108.6092,353.5453 114.2519,356.4124 116.1328,357.0495 118.0137,356.7309 119.8946,355.4567 121.7755,353.8638 127.4182,346.2183 129.2991,347.174 131.18,347.4925 133.0609,342.714 134.9418,338.2541 140.5845,333.1571 142.4654,337.617 144.3463,333.4756 146.2272,329.0157 148.1081,327.7414 153.7508,318.1845 155.6317,325.5115 157.5126,321.6887 159.3935,313.0874 161.2744,300.6633 166.9171,284.735 168.798,285.6907 170.6789,283.7793 172.5598,269.1253 174.4407,266.2582 180.0833,223.2518 181.9642,235.0387 183.8451,235.0387 185.726,231.5345 187.6069,212.4206 193.2496,218.4733 195.1305,250.3299 197.0114,243.3215 198.8923,234.083 200.7732,230.2603 206.4159,208.9163 208.2968,221.9775 210.1777,212.7391 213.9395,194.8994 219.5822,191.0766 221.4631,208.9163 223.344,213.6948 225.2249,193.6252 227.1058,209.2349 232.7485,223.8889 234.6294,235.6759 236.5103,231.5345 238.3912,241.4101 240.2721,226.4375 245.9148,207.6421 247.7957,218.1548 249.6766,234.4016 251.5575,228.6674 253.4384,236.9501 259.0811,197.1294 260.962,214.0134 262.8429,223.2518 264.7238,207.3235 266.6047,197.1294 272.2473,165.2728 274.1282,185.3425 276.0091,192.988 277.89,182.1568 279.7709,164.9542 285.4136,140.4247 287.2945,159.2201 289.1754,175.1484 298.5799,139.469 300.4608,156.6715 302.3417,169.4142 304.2226,156.0344 311.7462,156.353 313.6271,173.5555 315.508,197.7665 317.3889,203.1822 319.2698,184.7053 326.7934,220.0661 328.6743,236.313 330.5552,229.3046 332.4361,247.1443 338.0788,257.6569 339.9597,276.1338 341.8406,280.9122 343.7215,279.638 345.6024,276.7709 351.2451,276.4523 355.0069,283.7793 356.8878,270.3996 358.7687,261.7983 364.4113,263.0725 366.2922,277.7266 368.1731,290.4692 370.054,284.4165 371.9349,284.4165 377.5776,295.8848 379.4585,304.1676 381.3394,299.3891 383.2203,289.8321 385.1012,280.2751 390.7439,287.2836 392.6248,310.8574 394.5057,309.5832 396.3866,302.8933 398.2675,317.2288 403.9102,323.2815 405.7911,329.0157 407.672,325.1929 409.5529,323.9186 411.4338,325.5115 417.0765,327.1043 418.9574,335.0684 420.8383,329.6528 422.7192,312.4503 424.6001,311.4946 430.2428,298.4334 432.1237,298.4334 434.0046,293.3363 435.8855,285.3722 437.7664,275.4966 443.4091,268.8067 445.29,269.7624 447.1709,270.3996 449.0518,250.3299 450.9327,236.6316 456.5753,219.7476 458.4562,220.0661 460.3371,221.3404 462.218,199.3594 464.0989,195.218 469.7416,192.3509 471.6225,214.9691 473.5034,219.429 475.3843,211.7834 477.2652,188.5281 484.7888,174.1927 486.6697,176.7412 488.5506,153.4859 490.4315,148.3888 496.0742,142.6546 497.9551,144.2475 499.836,126.7263 501.7169,113.6651 503.5978,116.2137 509.2405,99.9668 511.1214,95.1883 513.0023,72.8887 514.8832,44.5363 516.7641,32.4308 522.4068,42.3064 524.2877,49.3148 526.1686,66.1988 528.0495,77.6672 529.9304,71.2959 535.5731,109.8423 537.454,105.701 539.3349,125.7706 541.2158,134.6905 543.0967,148.3888 548.7393,149.0259 550.6202,175.7855 552.5011,170.6884 556.2629,185.3425 561.9056,171.9627 563.7865,185.661 565.6674,186.2982 567.5483,180.564 569.4292,185.0239 576.9528,213.3763 578.8337,232.8088 580.7146,239.8172 582.5955,234.7202 588.2382,261.4797 590.1191,282.1865 592,289.195" style="fill:none;stroke:rgb(31,119,180);stroke-width:2;stroke-linejoin:bevel" />
  <text dominant-baseline="hanging" text-anchor="middle" transform="translate(315.508,8)" font-family="Segoe UI" font-size="18" font-weight="700" fill="black">Aktive Fälle Stadt Aachen 02.06.2021</text>
  <polygon points="39.016,29.0795 592,29.0795 592,370.947 39.016,370.947" style="fill:none;stroke:black;stroke-width:1" />
  <polygon points="47.016,37.0795 233.487,37.0795 233.487,63.1325 47.016,63.1325" style="fill:none;stroke:none;" />
  <text dominant-baseline="hanging" text-anchor="start" transform="translate(75.016,45.0795)" font-family="Segoe UI" font-size="12" font-weight="400" fill="black">Aktive Fälle Stadt Aachen 02.06.2021</text>
  <polyline points="55.016,50.106 71.016,50.106" style="fill:none;stroke:rgb(31,119,180);stroke-width:2" />
</svg>