<?xml version="1.0" encoding="utf-8" standalone="no"?>
<!DOCTYPE svg PUBLIC "-//W3C//DTD SVG 1.1//EN" "http://www.w3.org/Graphics/SVG/1.1/DTD/svg11.dtd">
<svg width="600" height="400" version="1.1" xmlns:xlink="http://www.w3.org/1999/xlink" xmlns="http://www.w3.org/2000/svg">
  <rect x="0" y="0" width="600" height="400" style="fill:rgb(255,255,255);stroke:none;" />
  <polyline points="39.016,357.0495 35.016,357.0495" style="fill:none;stroke:black;stroke-width:1" />
  <polyline points="39.016,341.1212 35.016,341.1212" style="fill:none;stroke:black;stroke-width:1" />
  <polyline points="39.016,325.1929 35.016,325.1929" style="fill:none;stroke:black;stroke-width:1" />
  <polyline points="39.016,293.3363 35.016,293.3363" style="fill:none;stroke:black;stroke-width:1" />
  <polyline points="39.016,277.408 35.016,277.408" style="fill:none;stroke:black;stroke-width:1" />
  <polyline points="39.016,261.4797 35.016,261.4797" style="fill:none;stroke:black;stroke-width:1" />
  <polyline points="39.016,229.6231 35.016,229.6231" style="fill:none;stroke:black;stroke-width:1" />
  <polyline points="39.016,213.6948 35.016,213.6948" style="fill:none;stroke:black;stroke-width:1" />
  <polyline points="39.016,197.7665 35.016,197.7665" style="fill:none;stroke:black;stroke-width:1" />
  <polyline points="39.016,165.9099 35.016,165.9099" style="fill:none;stroke:black;stroke-width:1" />
  <polyline points="39.016,149.9816 35.016,149.9816" style="fill:none;stroke:black;stroke-width:1" />
  <polyline points="39.016,134.0533 35.016,134.0533" style="fill:none;stroke:black;stroke-width:1" />
  <polyline points="39.016,102.1968 35.016,102.1968" style="fill:none;stroke:black;stroke-width:1" />
  <polyline points="39.016,86.2685 35.016,86.2685" style="fill:none;stroke:black;stroke-width:1" />
  <polyline points="39.016,70.3402 35.016,70.3402" style="fill:none;stroke:black;stroke-width:1" />
  <polyline points="39.016,38.4836 35.016,38.4836" style="fill:none;stroke:black;stroke-width:1" />
  <polyline points="74.9241,370.947 74.9241,374.947" style="fill:none;stroke:black;stroke-width:1" />
  <polyline points="184.4436,370.947 184.4436,374.947" style="fill:none;stroke:black;stroke-width:1" />
  <polyline points="293.9632,370.947 293.9632,374.947" style="fill:none;stroke:black;stroke-width:1" />
  <polyline points="399.8919,370.947 399.8919,374.947" style="fill:none;stroke:black;stroke-width:1" />
  <polyline points="509.4115,370.947 509.4115,374.947" style="fill:none;stroke:black;stroke-width:1" />
  <text dominant-baseline="middle" text-anchor="end" transform="translate(28.016,309.2646)" font-family="Segoe UI" font-size="12" font-weight="400" fill="black">200</text>
  <text dominant-baseline="middle" text-anchor="end" transform="translate(28.016,245.5514)" font-family="Segoe UI" font-size="12" font-weight="400" fill="black">400</text>
  <text dominant-baseline="middle" text-anchor="end" transform="translate(28.016,181.8382)" font-family="Segoe UI" font-size="12" font-weight="400" fill="black">600</text>
  <text dominant-baseline="middle" text-anchor="end" transform="translate(28.016,118.125)" font-family="Segoe UI" font-size="12" font-weight="400" fill="black">800</text>
  <text dominant-baseline="middle" text-anchor="end" transform="translate(28.016,54.4119)" font-family="Segoe UI" font-size="12" font-weight="400" fill="black">1000</text>
  <polyline points="39.016,309.2646 32.016,309.2646" style="fill:none;stroke:black;stroke-width:1" />
  <polyline points="39.016,245.5514 32.016,245.5514" style="fill:none;stroke:black;stroke-width:1" />
  <polyline points="39.016,181.8382 32.016,181.8382" style="fill:none;stroke:black;stroke-width:1" />
  <polyline points="39.016,118.125 32.016,118.125" style="fill:none;stroke:black;stroke-width:1" />
  <polyline points="39.016,54.4119 32.016,54.4119" style="fill:none;stroke:black;stroke-width:1" />
  <text dominant-baseline="hanging" text-anchor="middle" transform="translate(128.7861,381.947)" font-family="Segoe UI" font-size="12" font-weight="400" fill="black">01. October</text>
  <text dominant-baseline="hanging" text-anchor="middle" transform="translate(238.3057,381.947)" font-family="Segoe UI" font-size="12" font-weight="400" fill="black">01. December</text>
  <text dominant-baseline="hanging" text-anchor="middle" transform="translate(349.6206,381.947)" font-family="Segoe UI" font-size="12" font-weight="400" fill="black">01. February</text>
  <text dominant-baseline="hanging" text-anchor="middle" transform="translate(455.5494,381.947)" font-family="Segoe UI" font-size="12" font-weight="400" fill="black">01. April</text>
  <text dominant-baseline="hanging" text-anchor="middle" transform="translate(565.069,381.947)" font-family="Segoe UI" font-size="12" font-weight="400" fill="black">01. June</text>
  <polyline points="128.7861,370.947 128.7861,377.947" style="fill:none;stroke:black;stroke-width:1" />
  <polyline points="238.3057,370.947 238.3057,377.947" style="fill:none;stroke:black;stroke-width:1" />
  <polyline points="349.6206,370.947 349.6206,377.947" style="fill:none;stroke:black;stroke-width:1" />
  <polyline points="455.5494,370.947 455.5494,377.947" style="fill:none;stroke:black;stroke-width:1" />
  <polyline points="565.069,370.947 565.069,377.947" style="fill:none;stroke:black;stroke-width:1" />
  <polyline points="39.016,363.4208 42.6068,360.5537 47.993,362.4651 49.7884,360.5537 51.5838,361.828 53.3792,360.2352 55.1746,360.5537 60.5608,360.8723 62.3562,363.4208 64.1516,363.7394 65.947,363.1023 67.7424,363.1023 73.1286,365.3322 74.9241,366.2879 76.7195,366.2879 78.5149,365.6508 80.3103,365.9693 85.6965,365.9693 87.4919,367.5622 89.2873,366.6065 91.0827,364.6951 92.8781,363.4208 98.2643,360.2352 100.0597,358.0052 101.8551,354.8195 103.6505,354.501 105.4459,353.5453 110.8321,356.4124 112.6275,357.0495 114.4229,356.7309 116.2183,355.4567 118.0137,353.8638 123.3999,346.2183 125.1953,347.174 126.9907,347.4925 128.7861,342.714 130.5815,338.2541 135.9677,333.1571 137.7631,337.617 139.5585,333.4756 141.3539,329.0157 143.1494,327.7414 148.5356,318.1845 150.331,325.5115 152.1264,321.6887 153.9218,313.0874 155.7172,300.6633 161.1034,284.735 162.8988,285.6907 164.6942,283.7793 166.4896,269.1253 168.285,266.2582 173.6712,223.2518 175.4666,235.0387 177.262,235.0387 179.0574,231.5345 180.8528,212.4206 186.239,218.4733 188.0344,250.3299 189.8298,243.3215 191.6252,234.083 193.4206,230.2603 198.8068,208.9163 200.6022,221.9775 202.3976,212.7391 205.9884,194.8994 211.3746,191.0766 213.1701,208.9163 214.9655,213.6948 216.7609,193.6252 218.5563,209.2349 223.9425,223.8889 225.7379,235.6759 227.5333,231.5345 229.3287,241.4101 231.1241,226.4375 236.5103,207.6421 238.3057,218.1548 240.1011,234.4016 241.8965,228.6674 243.6919,236.9501 249.0781,197.1294 250.8735,214.0134 252.6689,223.2518 254.4643,207.3235 256.2597,197.1294 261.6459,165.2728 263.4413,185.3425 265.2367,192.988 267.0321,182.1568 268.8275,164.9542 274.2137,140.4247 276.0091,159.2201 277.8045,175.1484 286.7816,139.469 288.577,156.6715 290.3724,169.4142 292.1678,156.0344 299.3494,156.353 301.1448,173.5555 302.9402,197.7665 304.7356,203.1822 306.531,184.7053 313.7126,220.0661 315.508,236.313 317.3034,229.3046 319.0988,247.1443 324.485,257.6569 326.2804,276.1338 328.0758,280.9122 329.8712,279.638 331.6666,276.7709 337.0528,276.4523 340.6436,283.7793 342.439,270.3996 344.2344,261.7983 349.6206,263.0725 351.4161,277.7266 353.2115,290.4692 355.0069,284.4165 356.8023,284.4165 362.1885,295.8848 363.9839,304.1676 365.7793,299.3891 367.5747,289.8321 369.3701,280.2751 374.7563,287.2836 376.5517,310.8574 378.3471,309.5832 380.1425,302.8933 381.9379,317.2288 387.3241,323.2815 389.1195,329.0157 390.9149,325.1929 392.7103,323.9186 394.5057,325.5115 399.8919,327.1043 401.6873,335.0684 403.4827,329.6528 405.2781,312.4503 407.0735,311.4946 412.4597,298.4334 414.2551,298.4334 416.0505,293.3363 417.8459,285.3722 419.6414,275.4966 425.0276,268.8067 426.823,269.7624 428.6184,270.3996 430.4138,250.3299 432.2092,236.6316 437.5954,219.7476 439.3908,220.0661 441.1862,221.3404 442.9816,199.3594 444.777,195.218 450.1632,192.3509 451.9586,214.9691 453.754,219.429 455.5494,211.7834 457.3448,188.5281 464.5264,174.1927 466.3218,176.7412 468.1172,153.4859 469.9126,148.3888 475.2988,142.6546 477.0942,144.2475 478.8896,126.7263 480.685,113.6651 482.4804,116.2137 487.8666,99.9668 489.6621,95.1883 491.4575,72.8887 493.2529,44.5363 495.0483,32.4308 500.4345,42.3064 502.2299,49.3148 504.0253,66.1988 505.8207,77.6672 507.6161,71.2959 513.0023,109.8423 514.7977,105.701 516.5931,125.7706 518.3885,134.6905 520.1839,148.3888 525.5701,149.0259 527.3655,175.7855 529.1609,170.6884 532.7517,185.3425 538.1379,171.9627 539.9333,185.661 541.7287,186.2982 543.5241,180.564 545.3195,185.0239 552.5011,213.3763 554.2965,232.8088 556.0919,239.8172 557.8874,234.7202 563.2736,261.4797 565.069,282.1865 566.8644,289.195 570.4552,301.9376 575.8414,310.5389 577.6368,317.8659 579.4322,328.6971 581.2276,332.5199 583.023,337.2984 588.4092,338.5727 590.2046,337.617 592,348.7668" style="fill:none;stroke:rgb(31,119,180);stroke-width:2;stroke-linejoin:bevel" />
  <text dominant-baseline="hanging" text-anchor="middle" transform="translate(315.508,8)" font-family="Segoe UI" font-size="18" font-weight="700" fill="black">Aktive Fälle Stadt Aachen 16.06.2021</text>
  <polygon points="39.016,29.0795 592,29.0795 592,370.947 39.016,370.947" style="fill:none;stroke:black;stroke-width:1" />
  <polygon points="47.016,37.0795 233.487,37.0795 233.487,63.1325 47.016,63.1325" style="fill:none;stroke:none;" />
  <text dominant-baseline="hanging" text-anchor="start" transform="translate(75.016,45.0795)" font-family="Segoe UI" font-size="12" font-weight="400" fill="black">Aktive Fälle Stadt Aachen 16.06.2021</text>
  <polyline points="55.016,50.106 71.016,50.106" style="fill:none;stroke:rgb(31,119,180);stroke-width:2" />
</svg>