<?xml version="1.0" encoding="utf-8" standalone="no"?>
<!DOCTYPE svg PUBLIC "-//W3C//DTD SVG 1.1//EN" "http://www.w3.org/Graphics/SVG/1.1/DTD/svg11.dtd">
<svg width="600" height="400" version="1.1" xmlns:xlink="http://www.w3.org/1999/xlink" xmlns="http://www.w3.org/2000/svg">
  <rect x="0" y="0" width="600" height="400" style="fill:rgb(255,255,255);stroke:none;" />
  <polyline points="34.012,352.1162 30.012,352.1162" style="fill:none;stroke:black;stroke-width:1" />
  <polyline points="34.012,328.7131 30.012,328.7131" style="fill:none;stroke:black;stroke-width:1" />
  <polyline points="34.012,305.3101 30.012,305.3101" style="fill:none;stroke:black;stroke-width:1" />
  <polyline points="34.012,258.5041 30.012,258.5041" style="fill:none;stroke:black;stroke-width:1" />
  <polyline points="34.012,235.101 30.012,235.101" style="fill:none;stroke:black;stroke-width:1" />
  <polyline points="34.012,211.698 30.012,211.698" style="fill:none;stroke:black;stroke-width:1" />
  <polyline points="34.012,164.892 30.012,164.892" style="fill:none;stroke:black;stroke-width:1" />
  <polyline points="34.012,141.4889 30.012,141.4889" style="fill:none;stroke:black;stroke-width:1" />
  <polyline points="34.012,118.0859 30.012,118.0859" style="fill:none;stroke:black;stroke-width:1" />
  <polyline points="34.012,71.2798 30.012,71.2798" style="fill:none;stroke:black;stroke-width:1" />
  <polyline points="34.012,47.8768 30.012,47.8768" style="fill:none;stroke:black;stroke-width:1" />
  <text dominant-baseline="middle" text-anchor="end" transform="translate(23.012,281.9071)" font-family="Segoe UI" font-size="12" font-weight="400" fill="black">200</text>
  <text dominant-baseline="middle" text-anchor="end" transform="translate(23.012,188.295)" font-family="Segoe UI" font-size="12" font-weight="400" fill="black">400</text>
  <text dominant-baseline="middle" text-anchor="end" transform="translate(23.012,94.6829)" font-family="Segoe UI" font-size="12" font-weight="400" fill="black">600</text>
  <polyline points="34.012,281.9071 27.012,281.9071" style="fill:none;stroke:black;stroke-width:1" />
  <polyline points="34.012,188.295 27.012,188.295" style="fill:none;stroke:black;stroke-width:1" />
  <polyline points="34.012,94.6829 27.012,94.6829" style="fill:none;stroke:black;stroke-width:1" />
  <text dominant-baseline="hanging" text-anchor="middle" transform="translate(110.4487,381.947)" font-family="Segoe UI" font-size="12" font-weight="400" fill="black">01. September</text>
  <text dominant-baseline="hanging" text-anchor="middle" transform="translate(225.1038,381.947)" font-family="Segoe UI" font-size="12" font-weight="400" fill="black">01. October</text>
  <text dominant-baseline="hanging" text-anchor="middle" transform="translate(343.5807,381.947)" font-family="Segoe UI" font-size="12" font-weight="400" fill="black">01. November</text>
  <text dominant-baseline="hanging" text-anchor="middle" transform="translate(458.2358,381.947)" font-family="Segoe UI" font-size="12" font-weight="400" fill="black">01. December</text>
  <text dominant-baseline="hanging" text-anchor="middle" transform="translate(576.7127,381.947)" font-family="Segoe UI" font-size="12" font-weight="400" fill="black">01. January</text>
  <polyline points="110.4487,370.947 110.4487,377.947" style="fill:none;stroke:black;stroke-width:1" />
  <polyline points="225.1038,370.947 225.1038,377.947" style="fill:none;stroke:black;stroke-width:1" />
  <polyline points="343.5807,370.947 343.5807,377.947" style="fill:none;stroke:black;stroke-width:1" />
  <polyline points="458.2358,370.947 458.2358,377.947" style="fill:none;stroke:black;stroke-width:1" />
  <polyline points="576.7127,370.947 576.7127,377.947" style="fill:none;stroke:black;stroke-width:1" />
  <polyline points="34.012,361.4774 41.6557,357.2648 53.1212,360.0732 56.943,357.2648 60.7648,359.1371 64.5867,356.7968 68.4085,357.2648 79.874,357.7329 83.6959,361.4774 87.5177,361.9454 91.3395,361.0093 95.1614,361.0093 106.6269,364.2857 110.4487,365.6899 114.2705,365.6899 118.0924,364.7538 121.9142,365.2219 133.3797,365.2219 137.2016,367.5622 141.0234,366.158 144.8452,363.3496 148.6671,361.4774 160.1326,356.7968 163.9544,353.5204 167.7762,348.8398 171.5981,348.3717 175.4199,346.9675 186.8854,351.1801 190.7073,352.1162 194.5291,351.6481 198.3509,349.7759 202.1728,347.4356 213.6383,336.2021 217.4601,337.6063 221.2819,338.0744 225.1038,331.0534 228.9256,324.5006 240.3911,317.0116 244.213,323.5645 248.0348,317.4797 251.8566,310.9268 255.6785,309.0546 267.144,295.0128 270.9658,305.7782 274.7876,300.1615 278.6095,287.5238 282.4313,269.2695 293.8968,245.8664 297.7187,247.2706 301.5405,244.4622 305.3623,222.9315 309.1842,218.7189 320.6497,155.5307 324.4715,172.849 328.2933,172.849 332.1152,167.7003 335.937,139.6167 347.4025,148.5098 351.2244,195.3159 355.0462,185.0186 358.868,171.4448 362.6899,165.8281 374.1554,134.468 377.9772,153.6585 381.799,140.0847 389.4427,113.8734 400.9082,108.2566 404.7301,134.468 408.5519,141.4889 412.3737,112.0011 416.1956,134.9361 427.6611,156.4669 431.4829,173.7851 435.3047,167.7003 439.1266,182.2102 442.9484,160.2113 454.4139,132.5958 458.2358,148.0418 462.0576,171.9129 465.8794,163.4878 469.7013,175.6573 481.1668,117.1498 484.9886,141.957 488.8104,155.5307 492.6323,132.1277 496.4541,117.1498 507.9196,70.3437 511.7415,99.8315 515.5633,111.065 519.3851,95.1509 523.207,69.8757 534.6725,33.835 538.4943,61.4506 542.3161,84.8536 561.4253,32.4308 565.2472,57.7061 569.069,76.4285 572.8908,56.77 588.1782,57.238 592,82.5133" style="fill:none;stroke:rgb(31,119,180);stroke-width:2;stroke-linejoin:bevel" />
  <text dominant-baseline="hanging" text-anchor="middle" transform="translate(313.006,8)" font-family="Segoe UI" font-size="18" font-weight="700" fill="black">Aktive Fälle Stadt Aachen 05.01.2021</text>
  <polygon points="34.012,29.0795 592,29.0795 592,370.947 34.012,370.947" style="fill:none;stroke:black;stroke-width:1" />
  <polygon points="42.012,37.0795 228.483,37.0795 228.483,63.1325 42.012,63.1325" style="fill:none;stroke:none;" />
  <text dominant-baseline="hanging" text-anchor="start" transform="translate(70.012,45.0795)" font-family="Segoe UI" font-size="12" font-weight="400" fill="black">Aktive Fälle Stadt Aachen 05.01.2021</text>
  <polyline points="50.012,50.106 66.012,50.106" style="fill:none;stroke:rgb(31,119,180);stroke-width:2" />
</svg>