<?xml version="1.0" encoding="utf-8" standalone="no"?>
<!DOCTYPE svg PUBLIC "-//W3C//DTD SVG 1.1//EN" "http://www.w3.org/Graphics/SVG/1.1/DTD/svg11.dtd">
<svg width="600" height="400" version="1.1" xmlns:xlink="http://www.w3.org/1999/xlink" xmlns="http://www.w3.org/2000/svg">
  <rect x="0" y="0" width="600" height="400" style="fill:rgb(255,255,255);stroke:none;" />
  <polyline points="34.012,365.7072 30.012,365.7072" style="fill:none;stroke:black;stroke-width:1" />
  <polyline points="34.012,353.3407 30.012,353.3407" style="fill:none;stroke:black;stroke-width:1" />
  <polyline points="34.012,340.9743 30.012,340.9743" style="fill:none;stroke:black;stroke-width:1" />
  <polyline points="34.012,328.6078 30.012,328.6078" style="fill:none;stroke:black;stroke-width:1" />
  <polyline points="34.012,303.8748 30.012,303.8748" style="fill:none;stroke:black;stroke-width:1" />
  <polyline points="34.012,291.5084 30.012,291.5084" style="fill:none;stroke:black;stroke-width:1" />
  <polyline points="34.012,279.1419 30.012,279.1419" style="fill:none;stroke:black;stroke-width:1" />
  <polyline points="34.012,266.7754 30.012,266.7754" style="fill:none;stroke:black;stroke-width:1" />
  <polyline points="34.012,242.0425 30.012,242.0425" style="fill:none;stroke:black;stroke-width:1" />
  <polyline points="34.012,229.676 30.012,229.676" style="fill:none;stroke:black;stroke-width:1" />
  <polyline points="34.012,217.3096 30.012,217.3096" style="fill:none;stroke:black;stroke-width:1" />
  <polyline points="34.012,204.9431 30.012,204.9431" style="fill:none;stroke:black;stroke-width:1" />
  <polyline points="34.012,180.2101 30.012,180.2101" style="fill:none;stroke:black;stroke-width:1" />
  <polyline points="34.012,167.8437 30.012,167.8437" style="fill:none;stroke:black;stroke-width:1" />
  <polyline points="34.012,155.4772 30.012,155.4772" style="fill:none;stroke:black;stroke-width:1" />
  <polyline points="34.012,143.1107 30.012,143.1107" style="fill:none;stroke:black;stroke-width:1" />
  <polyline points="34.012,118.3778 30.012,118.3778" style="fill:none;stroke:black;stroke-width:1" />
  <polyline points="34.012,106.0113 30.012,106.0113" style="fill:none;stroke:black;stroke-width:1" />
  <polyline points="34.012,93.6448 30.012,93.6448" style="fill:none;stroke:black;stroke-width:1" />
  <polyline points="34.012,81.2784 30.012,81.2784" style="fill:none;stroke:black;stroke-width:1" />
  <polyline points="34.012,56.5454 30.012,56.5454" style="fill:none;stroke:black;stroke-width:1" />
  <polyline points="34.012,44.179 30.012,44.179" style="fill:none;stroke:black;stroke-width:1" />
  <polyline points="34.012,31.8125 30.012,31.8125" style="fill:none;stroke:black;stroke-width:1" />
  <text dominant-baseline="middle" text-anchor="end" transform="translate(23.012,316.2413)" font-family="Segoe UI" font-size="12" font-weight="400" fill="black">100</text>
  <text dominant-baseline="middle" text-anchor="end" transform="translate(23.012,254.409)" font-family="Segoe UI" font-size="12" font-weight="400" fill="black">200</text>
  <text dominant-baseline="middle" text-anchor="end" transform="translate(23.012,192.5766)" font-family="Segoe UI" font-size="12" font-weight="400" fill="black">300</text>
  <text dominant-baseline="middle" text-anchor="end" transform="translate(23.012,130.7443)" font-family="Segoe UI" font-size="12" font-weight="400" fill="black">400</text>
  <text dominant-baseline="middle" text-anchor="end" transform="translate(23.012,68.9119)" font-family="Segoe UI" font-size="12" font-weight="400" fill="black">500</text>
  <polyline points="34.012,316.2413 27.012,316.2413" style="fill:none;stroke:black;stroke-width:1" />
  <polyline points="34.012,254.409 27.012,254.409" style="fill:none;stroke:black;stroke-width:1" />
  <polyline points="34.012,192.5766 27.012,192.5766" style="fill:none;stroke:black;stroke-width:1" />
  <polyline points="34.012,130.7443 27.012,130.7443" style="fill:none;stroke:black;stroke-width:1" />
  <polyline points="34.012,68.9119 27.012,68.9119" style="fill:none;stroke:black;stroke-width:1" />
  <text dominant-baseline="hanging" text-anchor="middle" transform="translate(52.0116,381.947)" font-family="Segoe UI" font-size="12" font-weight="400" fill="black">15. August</text>
  <text dominant-baseline="hanging" text-anchor="middle" transform="translate(136.0098,381.947)" font-family="Segoe UI" font-size="12" font-weight="400" fill="black">29. August</text>
  <text dominant-baseline="hanging" text-anchor="middle" transform="translate(220.008,381.947)" font-family="Segoe UI" font-size="12" font-weight="400" fill="black">12. September</text>
  <text dominant-baseline="hanging" text-anchor="middle" transform="translate(304.0062,381.947)" font-family="Segoe UI" font-size="12" font-weight="400" fill="black">26. September</text>
  <text dominant-baseline="hanging" text-anchor="middle" transform="translate(388.0044,381.947)" font-family="Segoe UI" font-size="12" font-weight="400" fill="black">10. October</text>
  <text dominant-baseline="hanging" text-anchor="middle" transform="translate(472.0026,381.947)" font-family="Segoe UI" font-size="12" font-weight="400" fill="black">24. October</text>
  <text dominant-baseline="hanging" text-anchor="middle" transform="translate(556.0008,381.947)" font-family="Segoe UI" font-size="12" font-weight="400" fill="black">07. November</text>
  <polyline points="52.0116,370.947 52.0116,377.947" style="fill:none;stroke:black;stroke-width:1" />
  <polyline points="136.0098,370.947 136.0098,377.947" style="fill:none;stroke:black;stroke-width:1" />
  <polyline points="220.008,370.947 220.008,377.947" style="fill:none;stroke:black;stroke-width:1" />
  <polyline points="304.0062,370.947 304.0062,377.947" style="fill:none;stroke:black;stroke-width:1" />
  <polyline points="388.0044,370.947 388.0044,377.947" style="fill:none;stroke:black;stroke-width:1" />
  <polyline points="472.0026,370.947 472.0026,377.947" style="fill:none;stroke:black;stroke-width:1" />
  <polyline points="556.0008,370.947 556.0008,377.947" style="fill:none;stroke:black;stroke-width:1" />
  <polyline points="34.012,359.524 46.0117,353.9591 64.0114,357.669 70.0112,353.9591 76.0111,356.4323 82.011,353.3407 88.0108,353.9591 106.0105,354.5774 112.0103,359.524 118.0102,360.1423 124.0101,358.9056 130.0099,358.9056 148.0095,363.2339 154.0094,365.0889 160.0093,365.0889 166.0092,363.8522 172.009,364.4706 190.0086,364.4706 196.0085,367.5622 202.0084,365.7072 208.0083,361.9973 214.0081,359.524 232.0077,353.3407 238.0076,349.0125 244.0075,342.8292 250.0074,342.2109 256.0072,340.3559 274.0068,345.9208 280.0067,347.1575 286.0066,346.5392 292.0065,344.0659 298.0063,340.9743 316.0059,326.1345 322.0058,327.9895 328.0057,328.6078 334.0055,319.3329 340.0054,310.6764 358.005,300.7832 364.0049,309.4398 370.0048,301.4016 376.0046,292.745 382.0045,290.2717 400.0041,271.722 406.004,285.9435 412.0039,278.5236 418.0037,261.8288 424.0036,237.7142 442.0032,206.7981 448.0031,208.653 454.003,204.9431 460.0028,176.5002 466.0027,170.9353 484.0023,87.4616 490.0022,110.3396 496.0021,110.3396 502.0019,103.538 508.0018,66.4386 526.0014,78.1868 532.0013,140.0191 538.0012,126.416 544.001,108.4846 550.0009,101.0647 568.0005,59.637 574.0004,84.9883 580.0003,67.0569 586.0001,52.2172 592,32.4308" style="fill:none;stroke:rgb(31,119,180);stroke-width:2;stroke-linejoin:bevel" />
  <text dominant-baseline="hanging" text-anchor="middle" transform="translate(313.006,8)" font-family="Segoe UI" font-size="18" font-weight="700" fill="black">Aktive Fälle Stadt Aachen 13.11.2020</text>
  <polygon points="34.012,29.0795 592,29.0795 592,370.947 34.012,370.947" style="fill:none;stroke:black;stroke-width:1" />
  <polygon points="42.012,37.0795 228.483,37.0795 228.483,63.1325 42.012,63.1325" style="fill:none;stroke:none;" />
  <text dominant-baseline="hanging" text-anchor="start" transform="translate(70.012,45.0795)" font-family="Segoe UI" font-size="12" font-weight="400" fill="black">Aktive Fälle Stadt Aachen 13.11.2020</text>
  <polyline points="50.012,50.106 66.012,50.106" style="fill:none;stroke:rgb(31,119,180);stroke-width:2" />
</svg>