<?xml version="1.0" encoding="utf-8" standalone="no"?>
<!DOCTYPE svg PUBLIC "-//W3C//DTD SVG 1.1//EN" "http://www.w3.org/Graphics/SVG/1.1/DTD/svg11.dtd">
<svg width="600" height="400" version="1.1" xmlns:xlink="http://www.w3.org/1999/xlink" xmlns="http://www.w3.org/2000/svg">
  <rect x="0" y="0" width="600" height="400" style="fill:rgb(255,255,255);stroke:none;" />
  <polyline points="39.016,357.0495 35.016,357.0495" style="fill:none;stroke:black;stroke-width:1" />
  <polyline points="39.016,341.1212 35.016,341.1212" style="fill:none;stroke:black;stroke-width:1" />
  <polyline points="39.016,325.1929 35.016,325.1929" style="fill:none;stroke:black;stroke-width:1" />
  <polyline points="39.016,293.3363 35.016,293.3363" style="fill:none;stroke:black;stroke-width:1" />
  <polyline points="39.016,277.408 35.016,277.408" style="fill:none;stroke:black;stroke-width:1" />
  <polyline points="39.016,261.4797 35.016,261.4797" style="fill:none;stroke:black;stroke-width:1" />
  <polyline points="39.016,229.6231 35.016,229.6231" style="fill:none;stroke:black;stroke-width:1" />
  <polyline points="39.016,213.6948 35.016,213.6948" style="fill:none;stroke:black;stroke-width:1" />
  <polyline points="39.016,197.7665 35.016,197.7665" style="fill:none;stroke:black;stroke-width:1" />
  <polyline points="39.016,165.9099 35.016,165.9099" style="fill:none;stroke:black;stroke-width:1" />
  <polyline points="39.016,149.9816 35.016,149.9816" style="fill:none;stroke:black;stroke-width:1" />
  <polyline points="39.016,134.0533 35.016,134.0533" style="fill:none;stroke:black;stroke-width:1" />
  <polyline points="39.016,102.1968 35.016,102.1968" style="fill:none;stroke:black;stroke-width:1" />
  <polyline points="39.016,86.2685 35.016,86.2685" style="fill:none;stroke:black;stroke-width:1" />
  <polyline points="39.016,70.3402 35.016,70.3402" style="fill:none;stroke:black;stroke-width:1" />
  <polyline points="39.016,38.4836 35.016,38.4836" style="fill:none;stroke:black;stroke-width:1" />
  <text dominant-baseline="middle" text-anchor="end" transform="translate(28.016,309.2646)" font-family="Segoe UI" font-size="12" font-weight="400" fill="black">200</text>
  <text dominant-baseline="middle" text-anchor="end" transform="translate(28.016,245.5514)" font-family="Segoe UI" font-size="12" font-weight="400" fill="black">400</text>
  <text dominant-baseline="middle" text-anchor="end" transform="translate(28.016,181.8382)" font-family="Segoe UI" font-size="12" font-weight="400" fill="black">600</text>
  <text dominant-baseline="middle" text-anchor="end" transform="translate(28.016,118.125)" font-family="Segoe UI" font-size="12" font-weight="400" fill="black">800</text>
  <text dominant-baseline="middle" text-anchor="end" transform="translate(28.016,54.4119)" font-family="Segoe UI" font-size="12" font-weight="400" fill="black">1000</text>
  <polyline points="39.016,309.2646 32.016,309.2646" style="fill:none;stroke:black;stroke-width:1" />
  <polyline points="39.016,245.5514 32.016,245.5514" style="fill:none;stroke:black;stroke-width:1" />
  <polyline points="39.016,181.8382 32.016,181.8382" style="fill:none;stroke:black;stroke-width:1" />
  <polyline points="39.016,118.125 32.016,118.125" style="fill:none;stroke:black;stroke-width:1" />
  <polyline points="39.016,54.4119 32.016,54.4119" style="fill:none;stroke:black;stroke-width:1" />
  <text dominant-baseline="hanging" text-anchor="middle" transform="translate(80.5937,381.947)" font-family="Segoe UI" font-size="12" font-weight="400" fill="black">01. September</text>
  <text dominant-baseline="hanging" text-anchor="middle" transform="translate(142.9604,381.947)" font-family="Segoe UI" font-size="12" font-weight="400" fill="black">01. October</text>
  <text dominant-baseline="hanging" text-anchor="middle" transform="translate(207.4059,381.947)" font-family="Segoe UI" font-size="12" font-weight="400" fill="black">01. November</text>
  <text dominant-baseline="hanging" text-anchor="middle" transform="translate(269.7725,381.947)" font-family="Segoe UI" font-size="12" font-weight="400" fill="black">01. December</text>
  <text dominant-baseline="hanging" text-anchor="middle" transform="translate(334.218,381.947)" font-family="Segoe UI" font-size="12" font-weight="400" fill="black">01. January</text>
  <text dominant-baseline="hanging" text-anchor="middle" transform="translate(398.6635,381.947)" font-family="Segoe UI" font-size="12" font-weight="400" fill="black">01. February</text>
  <text dominant-baseline="hanging" text-anchor="middle" transform="translate(456.8723,381.947)" font-family="Segoe UI" font-size="12" font-weight="400" fill="black">01. March</text>
  <text dominant-baseline="hanging" text-anchor="middle" transform="translate(521.3178,381.947)" font-family="Segoe UI" font-size="12" font-weight="400" fill="black">01. April</text>
  <text dominant-baseline="hanging" text-anchor="middle" transform="translate(583.6845,381.947)" font-family="Segoe UI" font-size="12" font-weight="400" fill="black">01. May</text>
  <polyline points="80.5937,370.947 80.5937,377.947" style="fill:none;stroke:black;stroke-width:1" />
  <polyline points="142.9604,370.947 142.9604,377.947" style="fill:none;stroke:black;stroke-width:1" />
  <polyline points="207.4059,370.947 207.4059,377.947" style="fill:none;stroke:black;stroke-width:1" />
  <polyline points="269.7725,370.947 269.7725,377.947" style="fill:none;stroke:black;stroke-width:1" />
  <polyline points="334.218,370.947 334.218,377.947" style="fill:none;stroke:black;stroke-width:1" />
  <polyline points="398.6635,370.947 398.6635,377.947" style="fill:none;stroke:black;stroke-width:1" />
  <polyline points="456.8723,370.947 456.8723,377.947" style="fill:none;stroke:black;stroke-width:1" />
  <polyline points="521.3178,370.947 521.3178,377.947" style="fill:none;stroke:black;stroke-width:1" />
  <polyline points="583.6845,370.947 583.6845,377.947" style="fill:none;stroke:black;stroke-width:1" />
  <polyline points="39.016,363.4208 43.1738,360.5537 49.4104,362.4651 51.4893,360.5537 53.5682,361.828 55.6471,360.2352 57.726,360.5537 63.9626,360.8723 66.0415,363.4208 68.1204,363.7394 70.1993,363.1023 72.2782,363.1023 78.5149,365.3322 80.5937,366.2879 82.6726,366.2879 84.7515,365.6508 86.8304,365.9693 93.0671,365.9693 95.146,367.5622 97.2248,366.6065 99.3037,364.6951 101.3826,363.4208 107.6193,360.2352 109.6982,358.0052 111.7771,354.8195 113.8559,354.501 115.9348,353.5453 122.1715,356.4124 124.2504,357.0495 126.3293,356.7309 128.4082,355.4567 130.487,353.8638 136.7237,346.2183 138.8026,347.174 140.8815,347.4925 142.9604,342.714 145.0392,338.2541 151.2759,333.1571 153.3548,337.617 155.4337,333.4756 157.5126,329.0157 159.5915,327.7414 165.8281,318.1845 167.907,325.5115 169.9859,321.6887 172.0648,313.0874 174.1437,300.6633 180.3803,284.735 182.4592,285.6907 184.5381,283.7793 186.617,269.1253 188.6959,266.2582 194.9325,223.2518 197.0114,235.0387 199.0903,235.0387 201.1692,231.5345 203.2481,212.4206 209.4848,218.4733 211.5636,250.3299 213.6425,243.3215 215.7214,234.083 217.8003,230.2603 224.037,208.9163 226.1158,221.9775 228.1947,212.7391 232.3525,194.8994 238.5892,191.0766 240.6681,208.9163 242.7469,213.6948 244.8258,193.6252 246.9047,209.2349 253.1414,223.8889 255.2203,235.6759 257.2992,231.5345 259.378,241.4101 261.4569,226.4375 267.6936,207.6421 269.7725,218.1548 271.8514,234.4016 273.9303,228.6674 276.0091,236.9501 282.2458,197.1294 284.3247,214.0134 286.4036,223.2518 288.4825,207.3235 290.5614,197.1294 296.798,165.2728 298.8769,185.3425 300.9558,192.988 303.0347,182.1568 305.1136,164.9542 311.3502,140.4247 313.4291,159.2201 315.508,175.1484 325.9024,139.469 327.9813,156.6715 330.0602,169.4142 332.1391,156.0344 340.4546,156.353 342.5335,173.5555 344.6124,197.7665 346.6913,203.1822 348.7702,184.7053 357.0857,220.0661 359.1646,236.313 361.2435,229.3046 363.3224,247.1443 369.5591,257.6569 371.638,276.1338 373.7168,280.9122 375.7957,279.638 377.8746,276.7709 384.1113,276.4523 388.2691,283.7793 390.3479,270.3996 392.4268,261.7983 398.6635,263.0725 400.7424,277.7266 402.8213,290.4692 404.9002,284.4165 406.979,284.4165 413.2157,295.8848 415.2946,304.1676 417.3735,299.3891 419.4524,289.8321 421.5312,280.2751 427.7679,287.2836 429.8468,310.8574 431.9257,309.5832 434.0046,302.8933 436.0835,317.2288 442.3201,323.2815 444.399,329.0157 446.4779,325.1929 448.5568,323.9186 450.6357,325.5115 456.8723,327.1043 458.9512,335.0684 461.0301,329.6528 463.109,312.4503 465.1879,311.4946 471.4245,298.4334 473.5034,298.4334 475.5823,293.3363 477.6612,285.3722 479.7401,275.4966 485.9768,268.8067 488.0556,269.7624 490.1345,270.3996 492.2134,250.3299 494.2923,236.6316 500.529,219.7476 502.6078,220.0661 504.6867,221.3404 506.7656,199.3594 508.8445,195.218 515.0812,192.3509 517.1601,214.9691 519.2389,219.429 521.3178,211.7834 523.3967,188.5281 531.7123,174.1927 533.7912,176.7412 535.87,153.4859 537.9489,148.3888 544.1856,142.6546 546.2645,144.2475 548.3434,126.7263 550.4223,113.6651 552.5011,116.2137 558.7378,99.9668 560.8167,95.1883 562.8956,72.8887 564.9745,44.5363 567.0534,32.4308 573.29,42.3064 575.3689,49.3148 577.4478,66.1988 579.5267,77.6672 581.6056,71.2959 587.8422,109.8423 589.9211,105.701 592,125.7706" style="fill:none;stroke:rgb(31,119,180);stroke-width:2;stroke-linejoin:bevel" />
  <text dominant-baseline="hanging" text-anchor="middle" transform="translate(315.508,8)" font-family="Segoe UI" font-size="18" font-weight="700" fill="black">Aktive Fälle Stadt Aachen 05.05.2021</text>
  <polygon points="39.016,29.0795 592,29.0795 592,370.947 39.016,370.947" style="fill:none;stroke:black;stroke-width:1" />
  <polygon points="47.016,37.0795 233.487,37.0795 233.487,63.1325 47.016,63.1325" style="fill:none;stroke:none;" />
  <text dominant-baseline="hanging" text-anchor="start" transform="translate(75.016,45.0795)" font-family="Segoe UI" font-size="12" font-weight="400" fill="black">Aktive Fälle Stadt Aachen 05.05.2021</text>
  <polyline points="55.016,50.106 71.016,50.106" style="fill:none;stroke:rgb(31,119,180);stroke-width:2" />
</svg>