<?xml version="1.0" encoding="utf-8" standalone="no"?>
<!DOCTYPE svg PUBLIC "-//W3C//DTD SVG 1.1//EN" "http://www.w3.org/Graphics/SVG/1.1/DTD/svg11.dtd">
<svg width="600" height="400" version="1.1" xmlns:xlink="http://www.w3.org/1999/xlink" xmlns="http://www.w3.org/2000/svg">
  <rect x="0" y="0" width="600" height="400" style="fill:rgb(255,255,255);stroke:none;" />
  <polyline points="34.012,365.7474 30.012,365.7474" style="fill:none;stroke:black;stroke-width:1" />
  <polyline points="34.012,353.6488 30.012,353.6488" style="fill:none;stroke:black;stroke-width:1" />
  <polyline points="34.012,341.5502 30.012,341.5502" style="fill:none;stroke:black;stroke-width:1" />
  <polyline points="34.012,329.4516 30.012,329.4516" style="fill:none;stroke:black;stroke-width:1" />
  <polyline points="34.012,305.2544 30.012,305.2544" style="fill:none;stroke:black;stroke-width:1" />
  <polyline points="34.012,293.1558 30.012,293.1558" style="fill:none;stroke:black;stroke-width:1" />
  <polyline points="34.012,281.0571 30.012,281.0571" style="fill:none;stroke:black;stroke-width:1" />
  <polyline points="34.012,268.9585 30.012,268.9585" style="fill:none;stroke:black;stroke-width:1" />
  <polyline points="34.012,244.7613 30.012,244.7613" style="fill:none;stroke:black;stroke-width:1" />
  <polyline points="34.012,232.6627 30.012,232.6627" style="fill:none;stroke:black;stroke-width:1" />
  <polyline points="34.012,220.5641 30.012,220.5641" style="fill:none;stroke:black;stroke-width:1" />
  <polyline points="34.012,208.4655 30.012,208.4655" style="fill:none;stroke:black;stroke-width:1" />
  <polyline points="34.012,184.2683 30.012,184.2683" style="fill:none;stroke:black;stroke-width:1" />
  <polyline points="34.012,172.1697 30.012,172.1697" style="fill:none;stroke:black;stroke-width:1" />
  <polyline points="34.012,160.0711 30.012,160.0711" style="fill:none;stroke:black;stroke-width:1" />
  <polyline points="34.012,147.9725 30.012,147.9725" style="fill:none;stroke:black;stroke-width:1" />
  <polyline points="34.012,123.7753 30.012,123.7753" style="fill:none;stroke:black;stroke-width:1" />
  <polyline points="34.012,111.6767 30.012,111.6767" style="fill:none;stroke:black;stroke-width:1" />
  <polyline points="34.012,99.5781 30.012,99.5781" style="fill:none;stroke:black;stroke-width:1" />
  <polyline points="34.012,87.4795 30.012,87.4795" style="fill:none;stroke:black;stroke-width:1" />
  <polyline points="34.012,63.2823 30.012,63.2823" style="fill:none;stroke:black;stroke-width:1" />
  <polyline points="34.012,51.1837 30.012,51.1837" style="fill:none;stroke:black;stroke-width:1" />
  <polyline points="34.012,39.085 30.012,39.085" style="fill:none;stroke:black;stroke-width:1" />
  <text dominant-baseline="middle" text-anchor="end" transform="translate(23.012,317.353)" font-family="Segoe UI" font-size="12" font-weight="400" fill="black">100</text>
  <text dominant-baseline="middle" text-anchor="end" transform="translate(23.012,256.8599)" font-family="Segoe UI" font-size="12" font-weight="400" fill="black">200</text>
  <text dominant-baseline="middle" text-anchor="end" transform="translate(23.012,196.3669)" font-family="Segoe UI" font-size="12" font-weight="400" fill="black">300</text>
  <text dominant-baseline="middle" text-anchor="end" transform="translate(23.012,135.8739)" font-family="Segoe UI" font-size="12" font-weight="400" fill="black">400</text>
  <text dominant-baseline="middle" text-anchor="end" transform="translate(23.012,75.3809)" font-family="Segoe UI" font-size="12" font-weight="400" fill="black">500</text>
  <polyline points="34.012,317.353 27.012,317.353" style="fill:none;stroke:black;stroke-width:1" />
  <polyline points="34.012,256.8599 27.012,256.8599" style="fill:none;stroke:black;stroke-width:1" />
  <polyline points="34.012,196.3669 27.012,196.3669" style="fill:none;stroke:black;stroke-width:1" />
  <polyline points="34.012,135.8739 27.012,135.8739" style="fill:none;stroke:black;stroke-width:1" />
  <polyline points="34.012,75.3809 27.012,75.3809" style="fill:none;stroke:black;stroke-width:1" />
  <text dominant-baseline="hanging" text-anchor="middle" transform="translate(48.6959,381.947)" font-family="Segoe UI" font-size="12" font-weight="400" fill="black">15. August</text>
  <text dominant-baseline="hanging" text-anchor="middle" transform="translate(117.2207,381.947)" font-family="Segoe UI" font-size="12" font-weight="400" fill="black">29. August</text>
  <text dominant-baseline="hanging" text-anchor="middle" transform="translate(185.7456,381.947)" font-family="Segoe UI" font-size="12" font-weight="400" fill="black">12. September</text>
  <text dominant-baseline="hanging" text-anchor="middle" transform="translate(254.2704,381.947)" font-family="Segoe UI" font-size="12" font-weight="400" fill="black">26. September</text>
  <text dominant-baseline="hanging" text-anchor="middle" transform="translate(322.7953,381.947)" font-family="Segoe UI" font-size="12" font-weight="400" fill="black">10. October</text>
  <text dominant-baseline="hanging" text-anchor="middle" transform="translate(391.3201,381.947)" font-family="Segoe UI" font-size="12" font-weight="400" fill="black">24. October</text>
  <text dominant-baseline="hanging" text-anchor="middle" transform="translate(459.8449,381.947)" font-family="Segoe UI" font-size="12" font-weight="400" fill="black">07. November</text>
  <text dominant-baseline="hanging" text-anchor="middle" transform="translate(528.3698,381.947)" font-family="Segoe UI" font-size="12" font-weight="400" fill="black">21. November</text>
  <polyline points="48.6959,370.947 48.6959,377.947" style="fill:none;stroke:black;stroke-width:1" />
  <polyline points="117.2207,370.947 117.2207,377.947" style="fill:none;stroke:black;stroke-width:1" />
  <polyline points="185.7456,370.947 185.7456,377.947" style="fill:none;stroke:black;stroke-width:1" />
  <polyline points="254.2704,370.947 254.2704,377.947" style="fill:none;stroke:black;stroke-width:1" />
  <polyline points="322.7953,370.947 322.7953,377.947" style="fill:none;stroke:black;stroke-width:1" />
  <polyline points="391.3201,370.947 391.3201,377.947" style="fill:none;stroke:black;stroke-width:1" />
  <polyline points="459.8449,370.947 459.8449,377.947" style="fill:none;stroke:black;stroke-width:1" />
  <polyline points="528.3698,370.947 528.3698,377.947" style="fill:none;stroke:black;stroke-width:1" />
  <polyline points="34.012,359.6981 43.8013,354.2537 58.4852,357.8833 63.3798,354.2537 68.2744,356.6734 73.1691,353.6488 78.0637,354.2537 92.7476,354.8586 97.6422,359.6981 102.5368,360.303 107.4315,359.0931 112.3261,359.0931 127.01,363.3277 131.9046,365.1425 136.7993,365.1425 141.6939,363.9326 146.5885,364.5375 161.2724,364.5375 166.1671,367.5622 171.0617,365.7474 175.9563,362.1178 180.8509,359.6981 195.5348,353.6488 200.4295,349.4143 205.3241,343.365 210.2187,342.76 215.1134,340.9452 229.7973,346.3896 234.6919,347.5995 239.5865,346.9945 244.4812,344.5748 249.3758,341.5502 264.0597,327.0318 268.9543,328.8466 273.8489,329.4516 278.7436,320.3776 283.6382,311.9086 298.3221,302.2297 303.2167,310.6987 308.1114,302.8346 313.006,294.3656 317.9006,291.9459 332.5845,273.798 337.4792,287.7114 342.3738,280.4522 347.2684,264.1191 352.1631,240.5268 366.8469,210.2803 371.7416,212.0951 376.6362,208.4655 381.5308,180.6387 386.4255,175.1944 401.1094,93.5288 406.004,115.9112 410.8986,115.9112 415.7933,109.257 420.6879,72.9611 435.3718,84.4548 440.2664,144.9478 445.1611,131.6394 450.0557,114.0964 454.9503,106.8372 469.6342,66.3069 474.5288,91.109 479.4235,73.5661 489.2127,39.69 503.8966,32.4308 508.7913,66.3069 513.6859,75.3809 518.5805,37.2703 523.4752,66.9118 538.1591,94.7386 543.0537,117.121 547.9483,109.257 552.8429,128.0098 557.7376,99.5781 572.4215,63.8872 577.3161,83.8499 582.2107,114.7013 587.1054,103.8126 592,119.5408" style="fill:none;stroke:rgb(31,119,180);stroke-width:2;stroke-linejoin:bevel" />
  <text dominant-baseline="hanging" text-anchor="middle" transform="translate(313.006,8)" font-family="Segoe UI" font-size="18" font-weight="700" fill="black">Aktive Fälle Stadt Aachen 04.12.2020</text>
  <polygon points="34.012,29.0795 592,29.0795 592,370.947 34.012,370.947" style="fill:none;stroke:black;stroke-width:1" />
  <polygon points="42.012,37.0795 228.483,37.0795 228.483,63.1325 42.012,63.1325" style="fill:none;stroke:none;" />
  <text dominant-baseline="hanging" text-anchor="start" transform="translate(70.012,45.0795)" font-family="Segoe UI" font-size="12" font-weight="400" fill="black">Aktive Fälle Stadt Aachen 04.12.2020</text>
  <polyline points="50.012,50.106 66.012,50.106" style="fill:none;stroke:rgb(31,119,180);stroke-width:2" />
</svg>