<?xml version="1.0" encoding="utf-8" standalone="no"?>
<!DOCTYPE svg PUBLIC "-//W3C//DTD SVG 1.1//EN" "http://www.w3.org/Graphics/SVG/1.1/DTD/svg11.dtd">
<svg width="600" height="400" version="1.1" xmlns:xlink="http://www.w3.org/1999/xlink" xmlns="http://www.w3.org/2000/svg">
  <rect x="0" y="0" width="600" height="400" style="fill:rgb(255,255,255);stroke:none;" />
  <polyline points="34.012,352.1162 30.012,352.1162" style="fill:none;stroke:black;stroke-width:1" />
  <polyline points="34.012,328.7131 30.012,328.7131" style="fill:none;stroke:black;stroke-width:1" />
  <polyline points="34.012,305.3101 30.012,305.3101" style="fill:none;stroke:black;stroke-width:1" />
  <polyline points="34.012,258.5041 30.012,258.5041" style="fill:none;stroke:black;stroke-width:1" />
  <polyline points="34.012,235.101 30.012,235.101" style="fill:none;stroke:black;stroke-width:1" />
  <polyline points="34.012,211.698 30.012,211.698" style="fill:none;stroke:black;stroke-width:1" />
  <polyline points="34.012,164.892 30.012,164.892" style="fill:none;stroke:black;stroke-width:1" />
  <polyline points="34.012,141.4889 30.012,141.4889" style="fill:none;stroke:black;stroke-width:1" />
  <polyline points="34.012,118.0859 30.012,118.0859" style="fill:none;stroke:black;stroke-width:1" />
  <polyline points="34.012,71.2798 30.012,71.2798" style="fill:none;stroke:black;stroke-width:1" />
  <polyline points="34.012,47.8768 30.012,47.8768" style="fill:none;stroke:black;stroke-width:1" />
  <text dominant-baseline="middle" text-anchor="end" transform="translate(23.012,281.9071)" font-family="Segoe UI" font-size="12" font-weight="400" fill="black">200</text>
  <text dominant-baseline="middle" text-anchor="end" transform="translate(23.012,188.295)" font-family="Segoe UI" font-size="12" font-weight="400" fill="black">400</text>
  <text dominant-baseline="middle" text-anchor="end" transform="translate(23.012,94.6829)" font-family="Segoe UI" font-size="12" font-weight="400" fill="black">600</text>
  <polyline points="34.012,281.9071 27.012,281.9071" style="fill:none;stroke:black;stroke-width:1" />
  <polyline points="34.012,188.295 27.012,188.295" style="fill:none;stroke:black;stroke-width:1" />
  <polyline points="34.012,94.6829 27.012,94.6829" style="fill:none;stroke:black;stroke-width:1" />
  <text dominant-baseline="hanging" text-anchor="middle" transform="translate(100.8369,381.947)" font-family="Segoe UI" font-size="12" font-weight="400" fill="black">01. September</text>
  <text dominant-baseline="hanging" text-anchor="middle" transform="translate(201.0743,381.947)" font-family="Segoe UI" font-size="12" font-weight="400" fill="black">01. October</text>
  <text dominant-baseline="hanging" text-anchor="middle" transform="translate(304.6529,381.947)" font-family="Segoe UI" font-size="12" font-weight="400" fill="black">01. November</text>
  <text dominant-baseline="hanging" text-anchor="middle" transform="translate(404.8903,381.947)" font-family="Segoe UI" font-size="12" font-weight="400" fill="black">01. December</text>
  <text dominant-baseline="hanging" text-anchor="middle" transform="translate(508.4689,381.947)" font-family="Segoe UI" font-size="12" font-weight="400" fill="black">01. January</text>
  <polyline points="100.8369,370.947 100.8369,377.947" style="fill:none;stroke:black;stroke-width:1" />
  <polyline points="201.0743,370.947 201.0743,377.947" style="fill:none;stroke:black;stroke-width:1" />
  <polyline points="304.6529,370.947 304.6529,377.947" style="fill:none;stroke:black;stroke-width:1" />
  <polyline points="404.8903,370.947 404.8903,377.947" style="fill:none;stroke:black;stroke-width:1" />
  <polyline points="508.4689,370.947 508.4689,377.947" style="fill:none;stroke:black;stroke-width:1" />
  <polyline points="34.012,361.4774 40.6945,357.2648 50.7182,360.0732 54.0595,357.2648 57.4007,359.1371 60.742,356.7968 64.0832,357.2648 74.1069,357.7329 77.4482,361.4774 80.7894,361.9454 84.1307,361.0093 87.4719,361.0093 97.4957,364.2857 100.8369,365.6899 104.1782,365.6899 107.5194,364.7538 110.8606,365.2219 120.8844,365.2219 124.2256,367.5622 127.5669,366.158 130.9081,363.3496 134.2494,361.4774 144.2731,356.7968 147.6143,353.5204 150.9556,348.8398 154.2968,348.3717 157.6381,346.9675 167.6618,351.1801 171.0031,352.1162 174.3443,351.6481 177.6856,349.7759 181.0268,347.4356 191.0505,336.2021 194.3918,337.6063 197.733,338.0744 201.0743,331.0534 204.4155,324.5006 214.4393,317.0116 217.7805,323.5645 221.1217,317.4797 224.463,310.9268 227.8042,309.0546 237.828,295.0128 241.1692,305.7782 244.5105,300.1615 247.8517,287.5238 251.193,269.2695 261.2167,245.8664 264.5579,247.2706 267.8992,244.4622 271.2404,222.9315 274.5817,218.7189 284.6054,155.5307 287.9467,172.849 291.2879,172.849 294.6291,167.7003 297.9704,139.6167 307.9941,148.5098 311.3354,195.3159 314.6766,185.0186 318.0179,171.4448 321.3591,165.8281 331.3829,134.468 334.7241,153.6585 338.0653,140.0847 344.7478,113.8734 354.7716,108.2566 358.1128,134.468 361.4541,141.4889 364.7953,112.0011 368.1366,134.9361 378.1603,156.4669 381.5015,173.7851 384.8428,167.7003 388.184,182.2102 391.5253,160.2113 401.549,132.5958 404.8903,148.0418 408.2315,171.9129 411.5727,163.4878 414.914,175.6573 424.9377,117.1498 428.279,141.957 431.6202,155.5307 434.9615,132.1277 438.3027,117.1498 448.3264,70.3437 451.6677,99.8315 455.0089,111.065 458.3502,95.1509 461.6914,69.8757 471.7152,33.835 475.0564,61.4506 478.3977,84.8536 495.1039,32.4308 498.4451,57.7061 501.7864,76.4285 505.1276,56.77 518.4926,57.238 521.8338,82.5133 525.1751,118.0859 528.5163,126.0429 531.8576,98.8954 545.2226,150.8501 548.5638,174.7212 551.9051,164.4239 555.2463,190.6353 565.27,206.0813 568.6113,233.2288 571.9525,240.2497 575.2938,238.3775 578.635,234.1649 588.6588,233.6969 592,244.4622" style="fill:none;stroke:rgb(31,119,180);stroke-width:2;stroke-linejoin:bevel" />
  <text dominant-baseline="hanging" text-anchor="middle" transform="translate(313.006,8)" font-family="Segoe UI" font-size="18" font-weight="700" fill="black">Aktive Fälle Stadt Aachen 26.01.2021</text>
  <polygon points="34.012,29.0795 592,29.0795 592,370.947 34.012,370.947" style="fill:none;stroke:black;stroke-width:1" />
  <polygon points="42.012,37.0795 228.483,37.0795 228.483,63.1325 42.012,63.1325" style="fill:none;stroke:none;" />
  <text dominant-baseline="hanging" text-anchor="start" transform="translate(70.012,45.0795)" font-family="Segoe UI" font-size="12" font-weight="400" fill="black">Aktive Fälle Stadt Aachen 26.01.2021</text>
  <polyline points="50.012,50.106 66.012,50.106" style="fill:none;stroke:rgb(31,119,180);stroke-width:2" />
</svg>