<?xml version="1.0" encoding="utf-8" standalone="no"?>
<!DOCTYPE svg PUBLIC "-//W3C//DTD SVG 1.1//EN" "http://www.w3.org/Graphics/SVG/1.1/DTD/svg11.dtd">
<svg width="600" height="400" version="1.1" xmlns:xlink="http://www.w3.org/1999/xlink" xmlns="http://www.w3.org/2000/svg">
  <rect x="0" y="0" width="600" height="400" style="fill:rgb(255,255,255);stroke:none;" />
  <polyline points="34.012,352.1162 30.012,352.1162" style="fill:none;stroke:black;stroke-width:1" />
  <polyline points="34.012,328.7131 30.012,328.7131" style="fill:none;stroke:black;stroke-width:1" />
  <polyline points="34.012,305.3101 30.012,305.3101" style="fill:none;stroke:black;stroke-width:1" />
  <polyline points="34.012,258.5041 30.012,258.5041" style="fill:none;stroke:black;stroke-width:1" />
  <polyline points="34.012,235.101 30.012,235.101" style="fill:none;stroke:black;stroke-width:1" />
  <polyline points="34.012,211.698 30.012,211.698" style="fill:none;stroke:black;stroke-width:1" />
  <polyline points="34.012,164.892 30.012,164.892" style="fill:none;stroke:black;stroke-width:1" />
  <polyline points="34.012,141.4889 30.012,141.4889" style="fill:none;stroke:black;stroke-width:1" />
  <polyline points="34.012,118.0859 30.012,118.0859" style="fill:none;stroke:black;stroke-width:1" />
  <polyline points="34.012,71.2798 30.012,71.2798" style="fill:none;stroke:black;stroke-width:1" />
  <polyline points="34.012,47.8768 30.012,47.8768" style="fill:none;stroke:black;stroke-width:1" />
  <text dominant-baseline="middle" text-anchor="end" transform="translate(23.012,281.9071)" font-family="Segoe UI" font-size="12" font-weight="400" fill="black">200</text>
  <text dominant-baseline="middle" text-anchor="end" transform="translate(23.012,188.295)" font-family="Segoe UI" font-size="12" font-weight="400" fill="black">400</text>
  <text dominant-baseline="middle" text-anchor="end" transform="translate(23.012,94.6829)" font-family="Segoe UI" font-size="12" font-weight="400" fill="black">600</text>
  <polyline points="34.012,281.9071 27.012,281.9071" style="fill:none;stroke:black;stroke-width:1" />
  <polyline points="34.012,188.295 27.012,188.295" style="fill:none;stroke:black;stroke-width:1" />
  <polyline points="34.012,94.6829 27.012,94.6829" style="fill:none;stroke:black;stroke-width:1" />
  <text dominant-baseline="hanging" text-anchor="middle" transform="translate(95.3294,381.947)" font-family="Segoe UI" font-size="12" font-weight="400" fill="black">01. September</text>
  <text dominant-baseline="hanging" text-anchor="middle" transform="translate(187.3054,381.947)" font-family="Segoe UI" font-size="12" font-weight="400" fill="black">01. October</text>
  <text dominant-baseline="hanging" text-anchor="middle" transform="translate(282.3473,381.947)" font-family="Segoe UI" font-size="12" font-weight="400" fill="black">01. November</text>
  <text dominant-baseline="hanging" text-anchor="middle" transform="translate(374.3234,381.947)" font-family="Segoe UI" font-size="12" font-weight="400" fill="black">01. December</text>
  <text dominant-baseline="hanging" text-anchor="middle" transform="translate(469.3653,381.947)" font-family="Segoe UI" font-size="12" font-weight="400" fill="black">01. January</text>
  <text dominant-baseline="hanging" text-anchor="middle" transform="translate(564.4072,381.947)" font-family="Segoe UI" font-size="12" font-weight="400" fill="black">01. February</text>
  <polyline points="95.3294,370.947 95.3294,377.947" style="fill:none;stroke:black;stroke-width:1" />
  <polyline points="187.3054,370.947 187.3054,377.947" style="fill:none;stroke:black;stroke-width:1" />
  <polyline points="282.3473,370.947 282.3473,377.947" style="fill:none;stroke:black;stroke-width:1" />
  <polyline points="374.3234,370.947 374.3234,377.947" style="fill:none;stroke:black;stroke-width:1" />
  <polyline points="469.3653,370.947 469.3653,377.947" style="fill:none;stroke:black;stroke-width:1" />
  <polyline points="564.4072,370.947 564.4072,377.947" style="fill:none;stroke:black;stroke-width:1" />
  <polyline points="34.012,361.4774 40.1437,357.2648 49.3413,360.0732 52.4072,357.2648 55.4731,359.1371 58.5389,356.7968 61.6048,357.2648 70.8024,357.7329 73.8683,361.4774 76.9342,361.9454 80,361.0093 83.0659,361.0093 92.2635,364.2857 95.3294,365.6899 98.3952,365.6899 101.4611,364.7538 104.527,365.2219 113.7246,365.2219 116.7904,367.5622 119.8563,366.158 122.9222,363.3496 125.988,361.4774 135.1856,356.7968 138.2515,353.5204 141.3174,348.8398 144.3833,348.3717 147.4491,346.9675 156.6467,351.1801 159.7126,352.1162 162.7785,351.6481 165.8443,349.7759 168.9102,347.4356 178.1078,336.2021 181.1737,337.6063 184.2395,338.0744 187.3054,331.0534 190.3713,324.5006 199.5689,317.0116 202.6347,323.5645 205.7006,317.4797 208.7665,310.9268 211.8324,309.0546 221.03,295.0128 224.0958,305.7782 227.1617,300.1615 230.2276,287.5238 233.2934,269.2695 242.491,245.8664 245.5569,247.2706 248.6228,244.4622 251.6886,222.9315 254.7545,218.7189 263.9521,155.5307 267.018,172.849 270.0838,172.849 273.1497,167.7003 276.2156,139.6167 285.4132,148.5098 288.4791,195.3159 291.5449,185.0186 294.6108,171.4448 297.6767,165.8281 306.8743,134.468 309.9401,153.6585 313.006,140.0847 319.1377,113.8734 328.3353,108.2566 331.4012,134.468 334.4671,141.4889 337.5329,112.0011 340.5988,134.9361 349.7964,156.4669 352.8623,173.7851 355.9282,167.7003 358.994,182.2102 362.0599,160.2113 371.2575,132.5958 374.3234,148.0418 377.3892,171.9129 380.4551,163.4878 383.521,175.6573 392.7186,117.1498 395.7844,141.957 398.8503,155.5307 401.9162,132.1277 404.982,117.1498 414.1796,70.3437 417.2455,99.8315 420.3114,111.065 423.3773,95.1509 426.4431,69.8757 435.6407,33.835 438.7066,61.4506 441.7725,84.8536 457.1018,32.4308 460.1677,57.7061 463.2335,76.4285 466.2994,56.77 478.5629,57.238 481.6287,82.5133 484.6946,118.0859 487.7605,126.0429 490.8264,98.8954 503.0898,150.8501 506.1557,174.7212 509.2216,164.4239 512.2874,190.6353 521.485,206.0813 524.5509,233.2288 527.6168,240.2497 530.6826,238.3775 533.7485,234.1649 542.9461,233.6969 549.0778,244.4622 552.1437,224.8037 555.2096,212.1661 564.4072,214.0383 567.4731,235.5691 570.5389,254.2915 573.6048,245.3984 576.6707,245.3984 585.8683,262.2485 588.9341,274.4181 592,267.3972" style="fill:none;stroke:rgb(31,119,180);stroke-width:2;stroke-linejoin:bevel" />
  <text dominant-baseline="hanging" text-anchor="middle" transform="translate(313.006,8)" font-family="Segoe UI" font-size="18" font-weight="700" fill="black">Aktive Fälle Stadt Aachen 10.02.2021</text>
  <polygon points="34.012,29.0795 592,29.0795 592,370.947 34.012,370.947" style="fill:none;stroke:black;stroke-width:1" />
  <polygon points="42.012,37.0795 228.483,37.0795 228.483,63.1325 42.012,63.1325" style="fill:none;stroke:none;" />
  <text dominant-baseline="hanging" text-anchor="start" transform="translate(70.012,45.0795)" font-family="Segoe UI" font-size="12" font-weight="400" fill="black">Aktive Fälle Stadt Aachen 10.02.2021</text>
  <polyline points="50.012,50.106 66.012,50.106" style="fill:none;stroke:rgb(31,119,180);stroke-width:2" />
</svg>