<?xml version="1.0" encoding="utf-8" standalone="no"?>
<!DOCTYPE svg PUBLIC "-//W3C//DTD SVG 1.1//EN" "http://www.w3.org/Graphics/SVG/1.1/DTD/svg11.dtd">
<svg width="600" height="400" version="1.1" xmlns:xlink="http://www.w3.org/1999/xlink" xmlns="http://www.w3.org/2000/svg">
  <rect x="0" y="0" width="600" height="400" style="fill:rgb(255,255,255);stroke:none;" />
  <polyline points="34.012,352.1162 30.012,352.1162" style="fill:none;stroke:black;stroke-width:1" />
  <polyline points="34.012,328.7131 30.012,328.7131" style="fill:none;stroke:black;stroke-width:1" />
  <polyline points="34.012,305.3101 30.012,305.3101" style="fill:none;stroke:black;stroke-width:1" />
  <polyline points="34.012,258.5041 30.012,258.5041" style="fill:none;stroke:black;stroke-width:1" />
  <polyline points="34.012,235.101 30.012,235.101" style="fill:none;stroke:black;stroke-width:1" />
  <polyline points="34.012,211.698 30.012,211.698" style="fill:none;stroke:black;stroke-width:1" />
  <polyline points="34.012,164.892 30.012,164.892" style="fill:none;stroke:black;stroke-width:1" />
  <polyline points="34.012,141.4889 30.012,141.4889" style="fill:none;stroke:black;stroke-width:1" />
  <polyline points="34.012,118.0859 30.012,118.0859" style="fill:none;stroke:black;stroke-width:1" />
  <polyline points="34.012,71.2798 30.012,71.2798" style="fill:none;stroke:black;stroke-width:1" />
  <polyline points="34.012,47.8768 30.012,47.8768" style="fill:none;stroke:black;stroke-width:1" />
  <text dominant-baseline="middle" text-anchor="end" transform="translate(23.012,281.9071)" font-family="Segoe UI" font-size="12" font-weight="400" fill="black">200</text>
  <text dominant-baseline="middle" text-anchor="end" transform="translate(23.012,188.295)" font-family="Segoe UI" font-size="12" font-weight="400" fill="black">400</text>
  <text dominant-baseline="middle" text-anchor="end" transform="translate(23.012,94.6829)" font-family="Segoe UI" font-size="12" font-weight="400" fill="black">600</text>
  <polyline points="34.012,281.9071 27.012,281.9071" style="fill:none;stroke:black;stroke-width:1" />
  <polyline points="34.012,188.295 27.012,188.295" style="fill:none;stroke:black;stroke-width:1" />
  <polyline points="34.012,94.6829 27.012,94.6829" style="fill:none;stroke:black;stroke-width:1" />
  <text dominant-baseline="hanging" text-anchor="middle" transform="translate(89.5332,381.947)" font-family="Segoe UI" font-size="12" font-weight="400" fill="black">01. September</text>
  <text dominant-baseline="hanging" text-anchor="middle" transform="translate(172.815,381.947)" font-family="Segoe UI" font-size="12" font-weight="400" fill="black">01. October</text>
  <text dominant-baseline="hanging" text-anchor="middle" transform="translate(258.8728,381.947)" font-family="Segoe UI" font-size="12" font-weight="400" fill="black">01. November</text>
  <text dominant-baseline="hanging" text-anchor="middle" transform="translate(342.1546,381.947)" font-family="Segoe UI" font-size="12" font-weight="400" fill="black">01. December</text>
  <text dominant-baseline="hanging" text-anchor="middle" transform="translate(428.2125,381.947)" font-family="Segoe UI" font-size="12" font-weight="400" fill="black">01. January</text>
  <text dominant-baseline="hanging" text-anchor="middle" transform="translate(514.2703,381.947)" font-family="Segoe UI" font-size="12" font-weight="400" fill="black">01. February</text>
  <text dominant-baseline="hanging" text-anchor="middle" transform="translate(592,381.947)" font-family="Segoe UI" font-size="12" font-weight="400" fill="black">01. March</text>
  <polyline points="89.5332,370.947 89.5332,377.947" style="fill:none;stroke:black;stroke-width:1" />
  <polyline points="172.815,370.947 172.815,377.947" style="fill:none;stroke:black;stroke-width:1" />
  <polyline points="258.8728,370.947 258.8728,377.947" style="fill:none;stroke:black;stroke-width:1" />
  <polyline points="342.1546,370.947 342.1546,377.947" style="fill:none;stroke:black;stroke-width:1" />
  <polyline points="428.2125,370.947 428.2125,377.947" style="fill:none;stroke:black;stroke-width:1" />
  <polyline points="514.2703,370.947 514.2703,377.947" style="fill:none;stroke:black;stroke-width:1" />
  <polyline points="592,370.947 592,377.947" style="fill:none;stroke:black;stroke-width:1" />
  <polyline points="34.012,361.4774 39.5641,357.2648 47.8923,360.0732 50.6684,357.2648 53.4444,359.1371 56.2205,356.7968 58.9965,357.2648 67.3247,357.7329 70.1008,361.4774 72.8768,361.9454 75.6529,361.0093 78.429,361.0093 86.7571,364.2857 89.5332,365.6899 92.3093,365.6899 95.0853,364.7538 97.8614,365.2219 106.1896,365.2219 108.9656,367.5622 111.7417,366.158 114.5177,363.3496 117.2938,361.4774 125.622,356.7968 128.398,353.5204 131.1741,348.8398 133.9501,348.3717 136.7262,346.9675 145.0544,351.1801 147.8304,352.1162 150.6065,351.6481 153.3826,349.7759 156.1586,347.4356 164.4868,336.2021 167.2629,337.6063 170.0389,338.0744 172.815,331.0534 175.591,324.5006 183.9192,317.0116 186.6953,323.5645 189.4713,317.4797 192.2474,310.9268 195.0235,309.0546 203.3516,295.0128 206.1277,305.7782 208.9038,300.1615 211.6798,287.5238 214.4559,269.2695 222.7841,245.8664 225.5601,247.2706 228.3362,244.4622 231.1122,222.9315 233.8883,218.7189 242.2165,155.5307 244.9925,172.849 247.7686,172.849 250.5447,167.7003 253.3207,139.6167 261.6489,148.5098 264.425,195.3159 267.201,185.0186 269.9771,171.4448 272.7531,165.8281 281.0813,134.468 283.8574,153.6585 286.6334,140.0847 292.1856,113.8734 300.5137,108.2566 303.2898,134.468 306.0659,141.4889 308.8419,112.0011 311.618,134.9361 319.9461,156.4669 322.7222,173.7851 325.4983,167.7003 328.2743,182.2102 331.0504,160.2113 339.3786,132.5958 342.1546,148.0418 344.9307,171.9129 347.7067,163.4878 350.4828,175.6573 358.811,117.1498 361.587,141.957 364.3631,155.5307 367.1392,132.1277 369.9152,117.1498 378.2434,70.3437 381.0195,99.8315 383.7955,111.065 386.5716,95.1509 389.3476,69.8757 397.6758,33.835 400.4519,61.4506 403.2279,84.8536 417.1082,32.4308 419.8843,57.7061 422.6604,76.4285 425.4364,56.77 436.5407,57.238 439.3167,82.5133 442.0928,118.0859 444.8688,126.0429 447.6449,98.8954 458.7491,150.8501 461.5252,174.7212 464.3013,164.4239 467.0773,190.6353 475.4055,206.0813 478.1816,233.2288 480.9576,240.2497 483.7337,238.3775 486.5097,234.1649 494.8379,233.6969 500.39,244.4622 503.1661,224.8037 505.9421,212.1661 514.2703,214.0383 517.0464,235.5691 519.8224,254.2915 522.5985,245.3984 525.3746,245.3984 533.7027,262.2485 536.4788,274.4181 539.2549,267.3972 542.0309,253.3554 544.807,239.3136 553.1352,249.6109 555.9112,284.2474 558.6873,282.3752 561.4633,272.5459 564.2394,293.6086 572.5676,302.5018 575.3436,310.9268 578.1197,305.3101 580.8958,303.4379 583.6718,305.7782 592,308.1185" style="fill:none;stroke:rgb(31,119,180);stroke-width:2;stroke-linejoin:bevel" />
  <text dominant-baseline="hanging" text-anchor="middle" transform="translate(313.006,8)" font-family="Segoe UI" font-size="18" font-weight="700" fill="black">Aktive Fälle Stadt Aachen 01.03.2021</text>
  <polygon points="34.012,29.0795 592,29.0795 592,370.947 34.012,370.947" style="fill:none;stroke:black;stroke-width:1" />
  <polygon points="42.012,37.0795 228.483,37.0795 228.483,63.1325 42.012,63.1325" style="fill:none;stroke:none;" />
  <text dominant-baseline="hanging" text-anchor="start" transform="translate(70.012,45.0795)" font-family="Segoe UI" font-size="12" font-weight="400" fill="black">Aktive Fälle Stadt Aachen 01.03.2021</text>
  <polyline points="50.012,50.106 66.012,50.106" style="fill:none;stroke:rgb(31,119,180);stroke-width:2" />
</svg>