<?xml version="1.0" encoding="utf-8" standalone="no"?>
<!DOCTYPE svg PUBLIC "-//W3C//DTD SVG 1.1//EN" "http://www.w3.org/Graphics/SVG/1.1/DTD/svg11.dtd">
<svg width="600" height="400" version="1.1" xmlns:xlink="http://www.w3.org/1999/xlink" xmlns="http://www.w3.org/2000/svg">
  <rect x="0" y="0" width="600" height="400" style="fill:rgb(255,255,255);stroke:none;" />
  <polyline points="34.012,352.1162 30.012,352.1162" style="fill:none;stroke:black;stroke-width:1" />
  <polyline points="34.012,328.7131 30.012,328.7131" style="fill:none;stroke:black;stroke-width:1" />
  <polyline points="34.012,305.3101 30.012,305.3101" style="fill:none;stroke:black;stroke-width:1" />
  <polyline points="34.012,258.5041 30.012,258.5041" style="fill:none;stroke:black;stroke-width:1" />
  <polyline points="34.012,235.101 30.012,235.101" style="fill:none;stroke:black;stroke-width:1" />
  <polyline points="34.012,211.698 30.012,211.698" style="fill:none;stroke:black;stroke-width:1" />
  <polyline points="34.012,164.892 30.012,164.892" style="fill:none;stroke:black;stroke-width:1" />
  <polyline points="34.012,141.4889 30.012,141.4889" style="fill:none;stroke:black;stroke-width:1" />
  <polyline points="34.012,118.0859 30.012,118.0859" style="fill:none;stroke:black;stroke-width:1" />
  <polyline points="34.012,71.2798 30.012,71.2798" style="fill:none;stroke:black;stroke-width:1" />
  <polyline points="34.012,47.8768 30.012,47.8768" style="fill:none;stroke:black;stroke-width:1" />
  <text dominant-baseline="middle" text-anchor="end" transform="translate(23.012,281.9071)" font-family="Segoe UI" font-size="12" font-weight="400" fill="black">200</text>
  <text dominant-baseline="middle" text-anchor="end" transform="translate(23.012,188.295)" font-family="Segoe UI" font-size="12" font-weight="400" fill="black">400</text>
  <text dominant-baseline="middle" text-anchor="end" transform="translate(23.012,94.6829)" font-family="Segoe UI" font-size="12" font-weight="400" fill="black">600</text>
  <polyline points="34.012,281.9071 27.012,281.9071" style="fill:none;stroke:black;stroke-width:1" />
  <polyline points="34.012,188.295 27.012,188.295" style="fill:none;stroke:black;stroke-width:1" />
  <polyline points="34.012,94.6829 27.012,94.6829" style="fill:none;stroke:black;stroke-width:1" />
  <text dominant-baseline="hanging" text-anchor="middle" transform="translate(86.9019,381.947)" font-family="Segoe UI" font-size="12" font-weight="400" fill="black">01. September</text>
  <text dominant-baseline="hanging" text-anchor="middle" transform="translate(166.2366,381.947)" font-family="Segoe UI" font-size="12" font-weight="400" fill="black">01. October</text>
  <text dominant-baseline="hanging" text-anchor="middle" transform="translate(248.2159,381.947)" font-family="Segoe UI" font-size="12" font-weight="400" fill="black">01. November</text>
  <text dominant-baseline="hanging" text-anchor="middle" transform="translate(327.5507,381.947)" font-family="Segoe UI" font-size="12" font-weight="400" fill="black">01. December</text>
  <text dominant-baseline="hanging" text-anchor="middle" transform="translate(409.53,381.947)" font-family="Segoe UI" font-size="12" font-weight="400" fill="black">01. January</text>
  <text dominant-baseline="hanging" text-anchor="middle" transform="translate(491.5093,381.947)" font-family="Segoe UI" font-size="12" font-weight="400" fill="black">01. February</text>
  <text dominant-baseline="hanging" text-anchor="middle" transform="translate(565.5551,381.947)" font-family="Segoe UI" font-size="12" font-weight="400" fill="black">01. March</text>
  <polyline points="86.9019,370.947 86.9019,377.947" style="fill:none;stroke:black;stroke-width:1" />
  <polyline points="166.2366,370.947 166.2366,377.947" style="fill:none;stroke:black;stroke-width:1" />
  <polyline points="248.2159,370.947 248.2159,377.947" style="fill:none;stroke:black;stroke-width:1" />
  <polyline points="327.5507,370.947 327.5507,377.947" style="fill:none;stroke:black;stroke-width:1" />
  <polyline points="409.53,370.947 409.53,377.947" style="fill:none;stroke:black;stroke-width:1" />
  <polyline points="491.5093,370.947 491.5093,377.947" style="fill:none;stroke:black;stroke-width:1" />
  <polyline points="565.5551,370.947 565.5551,377.947" style="fill:none;stroke:black;stroke-width:1" />
  <polyline points="34.012,361.4774 39.301,357.2648 47.2345,360.0732 49.879,357.2648 52.5235,359.1371 55.1679,356.7968 57.8124,357.2648 65.7459,357.7329 68.3904,361.4774 71.0349,361.9454 73.6794,361.0093 76.3239,361.0093 84.2574,364.2857 86.9019,365.6899 89.5464,365.6899 92.1908,364.7538 94.8353,365.2219 102.7688,365.2219 105.4133,367.5622 108.0578,366.158 110.7023,363.3496 113.3468,361.4774 121.2803,356.7968 123.9248,353.5204 126.5693,348.8398 129.2137,348.3717 131.8582,346.9675 139.7917,351.1801 142.4362,352.1162 145.0807,351.6481 147.7252,349.7759 150.3697,347.4356 158.3032,336.2021 160.9477,337.6063 163.5922,338.0744 166.2366,331.0534 168.8811,324.5006 176.8146,317.0116 179.4591,323.5645 182.1036,317.4797 184.7481,310.9268 187.3926,309.0546 195.3261,295.0128 197.9706,305.7782 200.6151,300.1615 203.2595,287.5238 205.904,269.2695 213.8375,245.8664 216.482,247.2706 219.1265,244.4622 221.771,222.9315 224.4155,218.7189 232.349,155.5307 234.9935,172.849 237.638,172.849 240.2824,167.7003 242.9269,139.6167 250.8604,148.5098 253.5049,195.3159 256.1494,185.0186 258.7939,171.4448 261.4384,165.8281 269.3719,134.468 272.0164,153.6585 274.6609,140.0847 279.9498,113.8734 287.8833,108.2566 290.5278,134.468 293.1723,141.4889 295.8168,112.0011 298.4613,134.9361 306.3948,156.4669 309.0393,173.7851 311.6838,167.7003 314.3282,182.2102 316.9727,160.2113 324.9062,132.5958 327.5507,148.0418 330.1952,171.9129 332.8397,163.4878 335.4842,175.6573 343.4177,117.1498 346.0622,141.957 348.7067,155.5307 351.3511,132.1277 353.9956,117.1498 361.9291,70.3437 364.5736,99.8315 367.2181,111.065 369.8626,95.1509 372.5071,69.8757 380.4406,33.835 383.0851,61.4506 385.7296,84.8536 398.952,32.4308 401.5965,57.7061 404.241,76.4285 406.8855,56.77 417.4635,57.238 420.108,82.5133 422.7525,118.0859 425.3969,126.0429 428.0414,98.8954 438.6194,150.8501 441.2639,174.7212 443.9084,164.4239 446.5529,190.6353 454.4864,206.0813 457.1309,233.2288 459.7754,240.2497 462.4198,238.3775 465.0643,234.1649 472.9978,233.6969 478.2868,244.4622 480.9313,224.8037 483.5758,212.1661 491.5093,214.0383 494.1538,235.5691 496.7983,254.2915 499.4427,245.3984 502.0872,245.3984 510.0207,262.2485 512.6652,274.4181 515.3097,267.3972 517.9542,253.3554 520.5987,239.3136 528.5322,249.6109 531.1767,284.2474 533.8212,282.3752 536.4656,272.5459 539.1101,293.6086 547.0436,302.5018 549.6881,310.9268 552.3326,305.3101 554.9771,303.4379 557.6216,305.7782 565.5551,308.1185 568.1996,319.82 570.8441,311.863 573.4885,286.5877 576.133,285.1835 584.0665,265.993 586.711,265.993 589.3555,258.5041 592,246.8025" style="fill:none;stroke:rgb(31,119,180);stroke-width:2;stroke-linejoin:bevel" />
  <text dominant-baseline="hanging" text-anchor="middle" transform="translate(313.006,8)" font-family="Segoe UI" font-size="18" font-weight="700" fill="black">Aktive Fälle Stadt Aachen 11.03.2021</text>
  <polygon points="34.012,29.0795 592,29.0795 592,370.947 34.012,370.947" style="fill:none;stroke:black;stroke-width:1" />
  <polygon points="42.012,37.0795 228.483,37.0795 228.483,63.1325 42.012,63.1325" style="fill:none;stroke:none;" />
  <text dominant-baseline="hanging" text-anchor="start" transform="translate(70.012,45.0795)" font-family="Segoe UI" font-size="12" font-weight="400" fill="black">Aktive Fälle Stadt Aachen 11.03.2021</text>
  <polyline points="50.012,50.106 66.012,50.106" style="fill:none;stroke:rgb(31,119,180);stroke-width:2" />
</svg>