<?xml version="1.0" encoding="utf-8" standalone="no"?>
<!DOCTYPE svg PUBLIC "-//W3C//DTD SVG 1.1//EN" "http://www.w3.org/Graphics/SVG/1.1/DTD/svg11.dtd">
<svg width="600" height="400" version="1.1" xmlns:xlink="http://www.w3.org/1999/xlink" xmlns="http://www.w3.org/2000/svg">
  <rect x="0" y="0" width="600" height="400" style="fill:rgb(255,255,255);stroke:none;" />
  <polyline points="39.016,357.0495 35.016,357.0495" style="fill:none;stroke:black;stroke-width:1" />
  <polyline points="39.016,341.1212 35.016,341.1212" style="fill:none;stroke:black;stroke-width:1" />
  <polyline points="39.016,325.1929 35.016,325.1929" style="fill:none;stroke:black;stroke-width:1" />
  <polyline points="39.016,293.3363 35.016,293.3363" style="fill:none;stroke:black;stroke-width:1" />
  <polyline points="39.016,277.408 35.016,277.408" style="fill:none;stroke:black;stroke-width:1" />
  <polyline points="39.016,261.4797 35.016,261.4797" style="fill:none;stroke:black;stroke-width:1" />
  <polyline points="39.016,229.6231 35.016,229.6231" style="fill:none;stroke:black;stroke-width:1" />
  <polyline points="39.016,213.6948 35.016,213.6948" style="fill:none;stroke:black;stroke-width:1" />
  <polyline points="39.016,197.7665 35.016,197.7665" style="fill:none;stroke:black;stroke-width:1" />
  <polyline points="39.016,165.9099 35.016,165.9099" style="fill:none;stroke:black;stroke-width:1" />
  <polyline points="39.016,149.9816 35.016,149.9816" style="fill:none;stroke:black;stroke-width:1" />
  <polyline points="39.016,134.0533 35.016,134.0533" style="fill:none;stroke:black;stroke-width:1" />
  <polyline points="39.016,102.1968 35.016,102.1968" style="fill:none;stroke:black;stroke-width:1" />
  <polyline points="39.016,86.2685 35.016,86.2685" style="fill:none;stroke:black;stroke-width:1" />
  <polyline points="39.016,70.3402 35.016,70.3402" style="fill:none;stroke:black;stroke-width:1" />
  <polyline points="39.016,38.4836 35.016,38.4836" style="fill:none;stroke:black;stroke-width:1" />
  <polyline points="75.8816,370.947 75.8816,374.947" style="fill:none;stroke:black;stroke-width:1" />
  <polyline points="188.3217,370.947 188.3217,374.947" style="fill:none;stroke:black;stroke-width:1" />
  <polyline points="300.7618,370.947 300.7618,374.947" style="fill:none;stroke:black;stroke-width:1" />
  <polyline points="409.5153,370.947 409.5153,374.947" style="fill:none;stroke:black;stroke-width:1" />
  <polyline points="521.9554,370.947 521.9554,374.947" style="fill:none;stroke:black;stroke-width:1" />
  <text dominant-baseline="middle" text-anchor="end" transform="translate(28.016,309.2646)" font-family="Segoe UI" font-size="12" font-weight="400" fill="black">200</text>
  <text dominant-baseline="middle" text-anchor="end" transform="translate(28.016,245.5514)" font-family="Segoe UI" font-size="12" font-weight="400" fill="black">400</text>
  <text dominant-baseline="middle" text-anchor="end" transform="translate(28.016,181.8382)" font-family="Segoe UI" font-size="12" font-weight="400" fill="black">600</text>
  <text dominant-baseline="middle" text-anchor="end" transform="translate(28.016,118.125)" font-family="Segoe UI" font-size="12" font-weight="400" fill="black">800</text>
  <text dominant-baseline="middle" text-anchor="end" transform="translate(28.016,54.4119)" font-family="Segoe UI" font-size="12" font-weight="400" fill="black">1000</text>
  <polyline points="39.016,309.2646 32.016,309.2646" style="fill:none;stroke:black;stroke-width:1" />
  <polyline points="39.016,245.5514 32.016,245.5514" style="fill:none;stroke:black;stroke-width:1" />
  <polyline points="39.016,181.8382 32.016,181.8382" style="fill:none;stroke:black;stroke-width:1" />
  <polyline points="39.016,118.125 32.016,118.125" style="fill:none;stroke:black;stroke-width:1" />
  <polyline points="39.016,54.4119 32.016,54.4119" style="fill:none;stroke:black;stroke-width:1" />
  <text dominant-baseline="hanging" text-anchor="middle" transform="translate(131.18,381.947)" font-family="Segoe UI" font-size="12" font-weight="400" fill="black">01. October</text>
  <text dominant-baseline="hanging" text-anchor="middle" transform="translate(243.6201,381.947)" font-family="Segoe UI" font-size="12" font-weight="400" fill="black">01. December</text>
  <text dominant-baseline="hanging" text-anchor="middle" transform="translate(357.9034,381.947)" font-family="Segoe UI" font-size="12" font-weight="400" fill="black">01. February</text>
  <text dominant-baseline="hanging" text-anchor="middle" transform="translate(466.657,381.947)" font-family="Segoe UI" font-size="12" font-weight="400" fill="black">01. April</text>
  <text dominant-baseline="hanging" text-anchor="middle" transform="translate(579.097,381.947)" font-family="Segoe UI" font-size="12" font-weight="400" fill="black">01. June</text>
  <polyline points="131.18,370.947 131.18,377.947" style="fill:none;stroke:black;stroke-width:1" />
  <polyline points="243.6201,370.947 243.6201,377.947" style="fill:none;stroke:black;stroke-width:1" />
  <polyline points="357.9034,370.947 357.9034,377.947" style="fill:none;stroke:black;stroke-width:1" />
  <polyline points="466.657,370.947 466.657,377.947" style="fill:none;stroke:black;stroke-width:1" />
  <polyline points="579.097,370.947 579.097,377.947" style="fill:none;stroke:black;stroke-width:1" />
  <polyline points="39.016,363.4208 42.7026,360.5537 48.2324,362.4651 50.0757,360.5537 51.919,361.828 53.7622,360.2352 55.6055,360.5537 61.1354,360.8723 62.9786,363.4208 64.8219,363.7394 66.6652,363.1023 68.5085,363.1023 74.0383,365.3322 75.8816,366.2879 77.7249,366.2879 79.5682,365.6508 81.4114,365.9693 86.9413,365.9693 88.7846,367.5622 90.6278,366.6065 92.4711,364.6951 94.3144,363.4208 99.8442,360.2352 101.6875,358.0052 103.5308,354.8195 105.3741,354.501 107.2174,353.5453 112.7472,356.4124 114.5905,357.0495 116.4338,356.7309 118.277,355.4567 120.1203,353.8638 125.6502,346.2183 127.4934,347.174 129.3367,347.4925 131.18,342.714 133.0233,338.2541 138.5531,333.1571 140.3964,337.617 142.2397,333.4756 144.083,329.0157 145.9262,327.7414 151.4561,318.1845 153.2994,325.5115 155.1426,321.6887 156.9859,313.0874 158.8292,300.6633 164.359,284.735 166.2023,285.6907 168.0456,283.7793 169.8889,269.1253 171.7322,266.2582 177.262,223.2518 179.1053,235.0387 180.9486,235.0387 182.7918,231.5345 184.6351,212.4206 190.165,218.4733 192.0082,250.3299 193.8515,243.3215 195.6948,234.083 197.5381,230.2603 203.0679,208.9163 204.9112,221.9775 206.7545,212.7391 210.441,194.8994 215.9709,191.0766 217.8142,208.9163 219.6574,213.6948 221.5007,193.6252 223.344,209.2349 228.8738,223.8889 230.7171,235.6759 232.5604,231.5345 234.4037,241.4101 236.247,226.4375 241.7768,207.6421 243.6201,218.1548 245.4634,234.4016 247.3066,228.6674 249.1499,236.9501 254.6798,197.1294 256.523,214.0134 258.3663,223.2518 260.2096,207.3235 262.0529,197.1294 267.5827,165.2728 269.426,185.3425 271.2693,192.988 273.1126,182.1568 274.9558,164.9542 280.4857,140.4247 282.329,159.2201 284.1722,175.1484 293.3886,139.469 295.2319,156.6715 297.0752,169.4142 298.9185,156.0344 306.2916,156.353 308.1349,173.5555 309.9782,197.7665 311.8214,203.1822 313.6647,184.7053 321.0378,220.0661 322.8811,236.313 324.7244,229.3046 326.5677,247.1443 332.0975,257.6569 333.9408,276.1338 335.7841,280.9122 337.6274,279.638 339.4706,276.7709 345.0005,276.4523 348.687,283.7793 350.5303,270.3996 352.3736,261.7983 357.9034,263.0725 359.7467,277.7266 361.59,290.4692 363.4333,284.4165 365.2766,284.4165 370.8064,295.8848 372.6497,304.1676 374.493,299.3891 376.3362,289.8321 378.1795,280.2751 383.7094,287.2836 385.5526,310.8574 387.3959,309.5832 389.2392,302.8933 391.0825,317.2288 396.6123,323.2815 398.4556,329.0157 400.2989,325.1929 402.1422,323.9186 403.9854,325.5115 409.5153,327.1043 411.3586,335.0684 413.2018,329.6528 415.0451,312.4503 416.8884,311.4946 422.4182,298.4334 424.2615,298.4334 426.1048,293.3363 427.9481,285.3722 429.7914,275.4966 435.3212,268.8067 437.1645,269.7624 439.0078,270.3996 440.851,250.3299 442.6943,236.6316 448.2242,219.7476 450.0674,220.0661 451.9107,221.3404 453.754,199.3594 455.5973,195.218 461.1271,192.3509 462.9704,214.9691 464.8137,219.429 466.657,211.7834 468.5002,188.5281 475.8734,174.1927 477.7166,176.7412 479.5599,153.4859 481.4032,148.3888 486.933,142.6546 488.7763,144.2475 490.6196,126.7263 492.4629,113.6651 494.3062,116.2137 499.836,99.9668 501.6793,95.1883 503.5226,72.8887 505.3658,44.5363 507.2091,32.4308 512.739,42.3064 514.5822,49.3148 516.4255,66.1988 518.2688,77.6672 520.1121,71.2959 525.6419,109.8423 527.4852,105.701 529.3285,125.7706 531.1718,134.6905 533.015,148.3888 538.5449,149.0259 540.3882,175.7855 542.2314,170.6884 545.918,185.3425 551.4478,171.9627 553.2911,185.661 555.1344,186.2982 556.9777,180.564 558.821,185.0239 566.1941,213.3763 568.0374,232.8088 569.8806,239.8172 571.7239,234.7202 577.2538,261.4797 579.097,282.1865 580.9403,289.195 584.6269,301.9376 590.1567,310.5389 592,317.8659" style="fill:none;stroke:rgb(31,119,180);stroke-width:2;stroke-linejoin:bevel" />
  <text dominant-baseline="hanging" text-anchor="middle" transform="translate(315.508,8)" font-family="Segoe UI" font-size="18" font-weight="700" fill="black">Aktive Fälle Stadt Aachen 08.06.2021</text>
  <polygon points="39.016,29.0795 592,29.0795 592,370.947 39.016,370.947" style="fill:none;stroke:black;stroke-width:1" />
  <polygon points="47.016,37.0795 233.487,37.0795 233.487,63.1325 47.016,63.1325" style="fill:none;stroke:none;" />
  <text dominant-baseline="hanging" text-anchor="start" transform="translate(75.016,45.0795)" font-family="Segoe UI" font-size="12" font-weight="400" fill="black">Aktive Fälle Stadt Aachen 08.06.2021</text>
  <polyline points="55.016,50.106 71.016,50.106" style="fill:none;stroke:rgb(31,119,180);stroke-width:2" />
</svg>