<?xml version="1.0" encoding="utf-8" standalone="no"?>
<!DOCTYPE svg PUBLIC "-//W3C//DTD SVG 1.1//EN" "http://www.w3.org/Graphics/SVG/1.1/DTD/svg11.dtd">
<svg width="600" height="400" version="1.1" xmlns:xlink="http://www.w3.org/1999/xlink" xmlns="http://www.w3.org/2000/svg">
  <rect x="0" y="0" width="600" height="400" style="fill:rgb(255,255,255);stroke:none;" />
  <polyline points="34.012,352.1162 30.012,352.1162" style="fill:none;stroke:black;stroke-width:1" />
  <polyline points="34.012,328.7131 30.012,328.7131" style="fill:none;stroke:black;stroke-width:1" />
  <polyline points="34.012,305.3101 30.012,305.3101" style="fill:none;stroke:black;stroke-width:1" />
  <polyline points="34.012,258.5041 30.012,258.5041" style="fill:none;stroke:black;stroke-width:1" />
  <polyline points="34.012,235.101 30.012,235.101" style="fill:none;stroke:black;stroke-width:1" />
  <polyline points="34.012,211.698 30.012,211.698" style="fill:none;stroke:black;stroke-width:1" />
  <polyline points="34.012,164.892 30.012,164.892" style="fill:none;stroke:black;stroke-width:1" />
  <polyline points="34.012,141.4889 30.012,141.4889" style="fill:none;stroke:black;stroke-width:1" />
  <polyline points="34.012,118.0859 30.012,118.0859" style="fill:none;stroke:black;stroke-width:1" />
  <polyline points="34.012,71.2798 30.012,71.2798" style="fill:none;stroke:black;stroke-width:1" />
  <polyline points="34.012,47.8768 30.012,47.8768" style="fill:none;stroke:black;stroke-width:1" />
  <text dominant-baseline="middle" text-anchor="end" transform="translate(23.012,281.9071)" font-family="Segoe UI" font-size="12" font-weight="400" fill="black">200</text>
  <text dominant-baseline="middle" text-anchor="end" transform="translate(23.012,188.295)" font-family="Segoe UI" font-size="12" font-weight="400" fill="black">400</text>
  <text dominant-baseline="middle" text-anchor="end" transform="translate(23.012,94.6829)" font-family="Segoe UI" font-size="12" font-weight="400" fill="black">600</text>
  <polyline points="34.012,281.9071 27.012,281.9071" style="fill:none;stroke:black;stroke-width:1" />
  <polyline points="34.012,188.295 27.012,188.295" style="fill:none;stroke:black;stroke-width:1" />
  <polyline points="34.012,94.6829 27.012,94.6829" style="fill:none;stroke:black;stroke-width:1" />
  <text dominant-baseline="hanging" text-anchor="middle" transform="translate(97.4197,381.947)" font-family="Segoe UI" font-size="12" font-weight="400" fill="black">01. September</text>
  <text dominant-baseline="hanging" text-anchor="middle" transform="translate(192.5313,381.947)" font-family="Segoe UI" font-size="12" font-weight="400" fill="black">01. October</text>
  <text dominant-baseline="hanging" text-anchor="middle" transform="translate(290.8133,381.947)" font-family="Segoe UI" font-size="12" font-weight="400" fill="black">01. November</text>
  <text dominant-baseline="hanging" text-anchor="middle" transform="translate(385.9249,381.947)" font-family="Segoe UI" font-size="12" font-weight="400" fill="black">01. December</text>
  <text dominant-baseline="hanging" text-anchor="middle" transform="translate(484.2069,381.947)" font-family="Segoe UI" font-size="12" font-weight="400" fill="black">01. January</text>
  <text dominant-baseline="hanging" text-anchor="middle" transform="translate(582.4888,381.947)" font-family="Segoe UI" font-size="12" font-weight="400" fill="black">01. February</text>
  <polyline points="97.4197,370.947 97.4197,377.947" style="fill:none;stroke:black;stroke-width:1" />
  <polyline points="192.5313,370.947 192.5313,377.947" style="fill:none;stroke:black;stroke-width:1" />
  <polyline points="290.8133,370.947 290.8133,377.947" style="fill:none;stroke:black;stroke-width:1" />
  <polyline points="385.9249,370.947 385.9249,377.947" style="fill:none;stroke:black;stroke-width:1" />
  <polyline points="484.2069,370.947 484.2069,377.947" style="fill:none;stroke:black;stroke-width:1" />
  <polyline points="582.4888,370.947 582.4888,377.947" style="fill:none;stroke:black;stroke-width:1" />
  <polyline points="34.012,361.4774 40.3528,357.2648 49.8639,360.0732 53.0343,357.2648 56.2047,359.1371 59.3751,356.7968 62.5455,357.2648 72.0566,357.7329 75.227,361.4774 78.3974,361.9454 81.5678,361.0093 84.7382,361.0093 94.2493,364.2857 97.4197,365.6899 100.5901,365.6899 103.7605,364.7538 106.9309,365.2219 116.442,365.2219 119.6124,367.5622 122.7828,366.158 125.9532,363.3496 129.1236,361.4774 138.6348,356.7968 141.8051,353.5204 144.9755,348.8398 148.1459,348.3717 151.3163,346.9675 160.8275,351.1801 163.9978,352.1162 167.1682,351.6481 170.3386,349.7759 173.509,347.4356 183.0202,336.2021 186.1905,337.6063 189.3609,338.0744 192.5313,331.0534 195.7017,324.5006 205.2129,317.0116 208.3833,323.5645 211.5536,317.4797 214.724,310.9268 217.8944,309.0546 227.4056,295.0128 230.576,305.7782 233.7463,300.1615 236.9167,287.5238 240.0871,269.2695 249.5983,245.8664 252.7687,247.2706 255.939,244.4622 259.1094,222.9315 262.2798,218.7189 271.791,155.5307 274.9614,172.849 278.1318,172.849 281.3021,167.7003 284.4725,139.6167 293.9837,148.5098 297.1541,195.3159 300.3245,185.0186 303.4948,171.4448 306.6652,165.8281 316.1764,134.468 319.3468,153.6585 322.5172,140.0847 328.8579,113.8734 338.3691,108.2566 341.5395,134.468 344.7099,141.4889 347.8803,112.0011 351.0506,134.9361 360.5618,156.4669 363.7322,173.7851 366.9026,167.7003 370.073,182.2102 373.2433,160.2113 382.7545,132.5958 385.9249,148.0418 389.0953,171.9129 392.2657,163.4878 395.436,175.6573 404.9472,117.1498 408.1176,141.957 411.288,155.5307 414.4584,132.1277 417.6288,117.1498 427.1399,70.3437 430.3103,99.8315 433.4807,111.065 436.6511,95.1509 439.8215,69.8757 449.3326,33.835 452.503,61.4506 455.6734,84.8536 471.5253,32.4308 474.6957,57.7061 477.8661,76.4285 481.0365,56.77 493.718,57.238 496.8884,82.5133 500.0588,118.0859 503.2292,126.0429 506.3996,98.8954 519.0811,150.8501 522.2515,174.7212 525.4219,164.4239 528.5923,190.6353 538.1034,206.0813 541.2738,233.2288 544.4442,240.2497 547.6146,238.3775 550.785,234.1649 560.2961,233.6969 566.6369,244.4622 569.8073,224.8037 572.9777,212.1661 582.4888,214.0383 585.6592,235.5691 588.8296,254.2915 592,245.3984" style="fill:none;stroke:rgb(31,119,180);stroke-width:2;stroke-linejoin:bevel" />
  <text dominant-baseline="hanging" text-anchor="middle" transform="translate(313.006,8)" font-family="Segoe UI" font-size="18" font-weight="700" fill="black">Aktive Fälle Stadt Aachen 04.02.2021</text>
  <polygon points="34.012,29.0795 592,29.0795 592,370.947 34.012,370.947" style="fill:none;stroke:black;stroke-width:1" />
  <polygon points="42.012,37.0795 228.483,37.0795 228.483,63.1325 42.012,63.1325" style="fill:none;stroke:none;" />
  <text dominant-baseline="hanging" text-anchor="start" transform="translate(70.012,45.0795)" font-family="Segoe UI" font-size="12" font-weight="400" fill="black">Aktive Fälle Stadt Aachen 04.02.2021</text>
  <polyline points="50.012,50.106 66.012,50.106" style="fill:none;stroke:rgb(31,119,180);stroke-width:2" />
</svg>