<?xml version="1.0" encoding="utf-8" standalone="no"?>
<!DOCTYPE svg PUBLIC "-//W3C//DTD SVG 1.1//EN" "http://www.w3.org/Graphics/SVG/1.1/DTD/svg11.dtd">
<svg width="600" height="400" version="1.1" xmlns:xlink="http://www.w3.org/1999/xlink" xmlns="http://www.w3.org/2000/svg">
  <rect x="0" y="0" width="600" height="400" style="fill:rgb(255,255,255);stroke:none;" />
  <polyline points="34.012,352.1162 30.012,352.1162" style="fill:none;stroke:black;stroke-width:1" />
  <polyline points="34.012,328.7131 30.012,328.7131" style="fill:none;stroke:black;stroke-width:1" />
  <polyline points="34.012,305.3101 30.012,305.3101" style="fill:none;stroke:black;stroke-width:1" />
  <polyline points="34.012,258.5041 30.012,258.5041" style="fill:none;stroke:black;stroke-width:1" />
  <polyline points="34.012,235.101 30.012,235.101" style="fill:none;stroke:black;stroke-width:1" />
  <polyline points="34.012,211.698 30.012,211.698" style="fill:none;stroke:black;stroke-width:1" />
  <polyline points="34.012,164.892 30.012,164.892" style="fill:none;stroke:black;stroke-width:1" />
  <polyline points="34.012,141.4889 30.012,141.4889" style="fill:none;stroke:black;stroke-width:1" />
  <polyline points="34.012,118.0859 30.012,118.0859" style="fill:none;stroke:black;stroke-width:1" />
  <polyline points="34.012,71.2798 30.012,71.2798" style="fill:none;stroke:black;stroke-width:1" />
  <polyline points="34.012,47.8768 30.012,47.8768" style="fill:none;stroke:black;stroke-width:1" />
  <text dominant-baseline="middle" text-anchor="end" transform="translate(23.012,281.9071)" font-family="Segoe UI" font-size="12" font-weight="400" fill="black">200</text>
  <text dominant-baseline="middle" text-anchor="end" transform="translate(23.012,188.295)" font-family="Segoe UI" font-size="12" font-weight="400" fill="black">400</text>
  <text dominant-baseline="middle" text-anchor="end" transform="translate(23.012,94.6829)" font-family="Segoe UI" font-size="12" font-weight="400" fill="black">600</text>
  <polyline points="34.012,281.9071 27.012,281.9071" style="fill:none;stroke:black;stroke-width:1" />
  <polyline points="34.012,188.295 27.012,188.295" style="fill:none;stroke:black;stroke-width:1" />
  <polyline points="34.012,94.6829 27.012,94.6829" style="fill:none;stroke:black;stroke-width:1" />
  <text dominant-baseline="hanging" text-anchor="middle" transform="translate(103.3273,381.947)" font-family="Segoe UI" font-size="12" font-weight="400" fill="black">01. September</text>
  <text dominant-baseline="hanging" text-anchor="middle" transform="translate(207.3002,381.947)" font-family="Segoe UI" font-size="12" font-weight="400" fill="black">01. October</text>
  <text dominant-baseline="hanging" text-anchor="middle" transform="translate(314.7389,381.947)" font-family="Segoe UI" font-size="12" font-weight="400" fill="black">01. November</text>
  <text dominant-baseline="hanging" text-anchor="middle" transform="translate(418.7118,381.947)" font-family="Segoe UI" font-size="12" font-weight="400" fill="black">01. December</text>
  <text dominant-baseline="hanging" text-anchor="middle" transform="translate(526.1505,381.947)" font-family="Segoe UI" font-size="12" font-weight="400" fill="black">01. January</text>
  <polyline points="103.3273,370.947 103.3273,377.947" style="fill:none;stroke:black;stroke-width:1" />
  <polyline points="207.3002,370.947 207.3002,377.947" style="fill:none;stroke:black;stroke-width:1" />
  <polyline points="314.7389,370.947 314.7389,377.947" style="fill:none;stroke:black;stroke-width:1" />
  <polyline points="418.7118,370.947 418.7118,377.947" style="fill:none;stroke:black;stroke-width:1" />
  <polyline points="526.1505,370.947 526.1505,377.947" style="fill:none;stroke:black;stroke-width:1" />
  <polyline points="34.012,361.4774 40.9435,357.2648 51.3408,360.0732 54.8066,357.2648 58.2723,359.1371 61.7381,356.7968 65.2039,357.2648 75.6012,357.7329 79.0669,361.4774 82.5327,361.9454 85.9985,361.0093 89.4642,361.0093 99.8615,364.2857 103.3273,365.6899 106.793,365.6899 110.2588,364.7538 113.7246,365.2219 124.1219,365.2219 127.5876,367.5622 131.0534,366.158 134.5192,363.3496 137.9849,361.4774 148.3822,356.7968 151.848,353.5204 155.3137,348.8398 158.7795,348.3717 162.2453,346.9675 172.6426,351.1801 176.1083,352.1162 179.5741,351.6481 183.0399,349.7759 186.5056,347.4356 196.9029,336.2021 200.3687,337.6063 203.8344,338.0744 207.3002,331.0534 210.766,324.5006 221.1633,317.0116 224.629,323.5645 228.0948,317.4797 231.5605,310.9268 235.0263,309.0546 245.4236,295.0128 248.8894,305.7782 252.3551,300.1615 255.8209,287.5238 259.2867,269.2695 269.684,245.8664 273.1497,247.2706 276.6155,244.4622 280.0812,222.9315 283.547,218.7189 293.9443,155.5307 297.4101,172.849 300.8758,172.849 304.3416,167.7003 307.8074,139.6167 318.2046,148.5098 321.6704,195.3159 325.1362,185.0186 328.6019,171.4448 332.0677,165.8281 342.465,134.468 345.9308,153.6585 349.3965,140.0847 356.328,113.8734 366.7253,108.2566 370.1911,134.468 373.6569,141.4889 377.1226,112.0011 380.5884,134.9361 390.9857,156.4669 394.4515,173.7851 397.9172,167.7003 401.383,182.2102 404.8487,160.2113 415.246,132.5958 418.7118,148.0418 422.1776,171.9129 425.6433,163.4878 429.1091,175.6573 439.5064,117.1498 442.9721,141.957 446.4379,155.5307 449.9037,132.1277 453.3694,117.1498 463.7667,70.3437 467.2325,99.8315 470.6983,111.065 474.164,95.1509 477.6298,69.8757 488.0271,33.835 491.4928,61.4506 494.9586,84.8536 512.2874,32.4308 515.7532,57.7061 519.219,76.4285 522.6847,56.77 536.5478,57.238 540.0135,82.5133 543.4793,118.0859 546.9451,126.0429 550.4108,98.8954 564.2739,150.8501 567.7397,174.7212 571.2054,164.4239 574.6712,190.6353 585.0685,206.0813 588.5342,233.2288 592,240.2497" style="fill:none;stroke:rgb(31,119,180);stroke-width:2;stroke-linejoin:bevel" />
  <text dominant-baseline="hanging" text-anchor="middle" transform="translate(313.006,8)" font-family="Segoe UI" font-size="18" font-weight="700" fill="black">Aktive Fälle Stadt Aachen 20.01.2021</text>
  <polygon points="34.012,29.0795 592,29.0795 592,370.947 34.012,370.947" style="fill:none;stroke:black;stroke-width:1" />
  <polygon points="42.012,37.0795 228.483,37.0795 228.483,63.1325 42.012,63.1325" style="fill:none;stroke:none;" />
  <text dominant-baseline="hanging" text-anchor="start" transform="translate(70.012,45.0795)" font-family="Segoe UI" font-size="12" font-weight="400" fill="black">Aktive Fälle Stadt Aachen 20.01.2021</text>
  <polyline points="50.012,50.106 66.012,50.106" style="fill:none;stroke:rgb(31,119,180);stroke-width:2" />
</svg>