<?xml version="1.0" encoding="utf-8" standalone="no"?>
<!DOCTYPE svg PUBLIC "-//W3C//DTD SVG 1.1//EN" "http://www.w3.org/Graphics/SVG/1.1/DTD/svg11.dtd">
<svg width="600" height="400" version="1.1" xmlns:xlink="http://www.w3.org/1999/xlink" xmlns="http://www.w3.org/2000/svg">
  <rect x="0" y="0" width="600" height="400" style="fill:rgb(255,255,255);stroke:none;" />
  <polyline points="39.016,357.0495 35.016,357.0495" style="fill:none;stroke:black;stroke-width:1" />
  <polyline points="39.016,341.1212 35.016,341.1212" style="fill:none;stroke:black;stroke-width:1" />
  <polyline points="39.016,325.1929 35.016,325.1929" style="fill:none;stroke:black;stroke-width:1" />
  <polyline points="39.016,293.3363 35.016,293.3363" style="fill:none;stroke:black;stroke-width:1" />
  <polyline points="39.016,277.408 35.016,277.408" style="fill:none;stroke:black;stroke-width:1" />
  <polyline points="39.016,261.4797 35.016,261.4797" style="fill:none;stroke:black;stroke-width:1" />
  <polyline points="39.016,229.6231 35.016,229.6231" style="fill:none;stroke:black;stroke-width:1" />
  <polyline points="39.016,213.6948 35.016,213.6948" style="fill:none;stroke:black;stroke-width:1" />
  <polyline points="39.016,197.7665 35.016,197.7665" style="fill:none;stroke:black;stroke-width:1" />
  <polyline points="39.016,165.9099 35.016,165.9099" style="fill:none;stroke:black;stroke-width:1" />
  <polyline points="39.016,149.9816 35.016,149.9816" style="fill:none;stroke:black;stroke-width:1" />
  <polyline points="39.016,134.0533 35.016,134.0533" style="fill:none;stroke:black;stroke-width:1" />
  <polyline points="39.016,102.1968 35.016,102.1968" style="fill:none;stroke:black;stroke-width:1" />
  <polyline points="39.016,86.2685 35.016,86.2685" style="fill:none;stroke:black;stroke-width:1" />
  <polyline points="39.016,70.3402 35.016,70.3402" style="fill:none;stroke:black;stroke-width:1" />
  <polyline points="39.016,38.4836 35.016,38.4836" style="fill:none;stroke:black;stroke-width:1" />
  <polyline points="75.7591,370.947 75.7591,374.947" style="fill:none;stroke:black;stroke-width:1" />
  <polyline points="187.8256,370.947 187.8256,374.947" style="fill:none;stroke:black;stroke-width:1" />
  <polyline points="299.8922,370.947 299.8922,374.947" style="fill:none;stroke:black;stroke-width:1" />
  <polyline points="408.2844,370.947 408.2844,374.947" style="fill:none;stroke:black;stroke-width:1" />
  <polyline points="520.3509,370.947 520.3509,374.947" style="fill:none;stroke:black;stroke-width:1" />
  <text dominant-baseline="middle" text-anchor="end" transform="translate(28.016,309.2646)" font-family="Segoe UI" font-size="12" font-weight="400" fill="black">200</text>
  <text dominant-baseline="middle" text-anchor="end" transform="translate(28.016,245.5514)" font-family="Segoe UI" font-size="12" font-weight="400" fill="black">400</text>
  <text dominant-baseline="middle" text-anchor="end" transform="translate(28.016,181.8382)" font-family="Segoe UI" font-size="12" font-weight="400" fill="black">600</text>
  <text dominant-baseline="middle" text-anchor="end" transform="translate(28.016,118.125)" font-family="Segoe UI" font-size="12" font-weight="400" fill="black">800</text>
  <text dominant-baseline="middle" text-anchor="end" transform="translate(28.016,54.4119)" font-family="Segoe UI" font-size="12" font-weight="400" fill="black">1000</text>
  <polyline points="39.016,309.2646 32.016,309.2646" style="fill:none;stroke:black;stroke-width:1" />
  <polyline points="39.016,245.5514 32.016,245.5514" style="fill:none;stroke:black;stroke-width:1" />
  <polyline points="39.016,181.8382 32.016,181.8382" style="fill:none;stroke:black;stroke-width:1" />
  <polyline points="39.016,118.125 32.016,118.125" style="fill:none;stroke:black;stroke-width:1" />
  <polyline points="39.016,54.4119 32.016,54.4119" style="fill:none;stroke:black;stroke-width:1" />
  <text dominant-baseline="hanging" text-anchor="middle" transform="translate(130.8738,381.947)" font-family="Segoe UI" font-size="12" font-weight="400" fill="black">01. October</text>
  <text dominant-baseline="hanging" text-anchor="middle" transform="translate(242.9403,381.947)" font-family="Segoe UI" font-size="12" font-weight="400" fill="black">01. December</text>
  <text dominant-baseline="hanging" text-anchor="middle" transform="translate(356.844,381.947)" font-family="Segoe UI" font-size="12" font-weight="400" fill="black">01. February</text>
  <text dominant-baseline="hanging" text-anchor="middle" transform="translate(465.2362,381.947)" font-family="Segoe UI" font-size="12" font-weight="400" fill="black">01. April</text>
  <text dominant-baseline="hanging" text-anchor="middle" transform="translate(577.3028,381.947)" font-family="Segoe UI" font-size="12" font-weight="400" fill="black">01. June</text>
  <polyline points="130.8738,370.947 130.8738,377.947" style="fill:none;stroke:black;stroke-width:1" />
  <polyline points="242.9403,370.947 242.9403,377.947" style="fill:none;stroke:black;stroke-width:1" />
  <polyline points="356.844,370.947 356.844,377.947" style="fill:none;stroke:black;stroke-width:1" />
  <polyline points="465.2362,370.947 465.2362,377.947" style="fill:none;stroke:black;stroke-width:1" />
  <polyline points="577.3028,370.947 577.3028,377.947" style="fill:none;stroke:black;stroke-width:1" />
  <polyline points="39.016,363.4208 42.6903,360.5537 48.2018,362.4651 50.0389,360.5537 51.8761,361.828 53.7132,360.2352 55.5504,360.5537 61.0619,360.8723 62.899,363.4208 64.7362,363.7394 66.5733,363.1023 68.4105,363.1023 73.922,365.3322 75.7591,366.2879 77.5963,366.2879 79.4334,365.6508 81.2706,365.9693 86.7821,365.9693 88.6192,367.5622 90.4564,366.6065 92.2935,364.6951 94.1307,363.4208 99.6422,360.2352 101.4793,358.0052 103.3165,354.8195 105.1536,354.501 106.9908,353.5453 112.5022,356.4124 114.3394,357.0495 116.1766,356.7309 118.0137,355.4567 119.8509,353.8638 125.3623,346.2183 127.1995,347.174 129.0367,347.4925 130.8738,342.714 132.711,338.2541 138.2224,333.1571 140.0596,337.617 141.8967,333.4756 143.7339,329.0157 145.5711,327.7414 151.0825,318.1845 152.9197,325.5115 154.7568,321.6887 156.594,313.0874 158.4311,300.6633 163.9426,284.735 165.7798,285.6907 167.6169,283.7793 169.4541,269.1253 171.2912,266.2582 176.8027,223.2518 178.6399,235.0387 180.477,235.0387 182.3142,231.5345 184.1513,212.4206 189.6628,218.4733 191.5,250.3299 193.3371,243.3215 195.1743,234.083 197.0114,230.2603 202.5229,208.9163 204.3601,221.9775 206.1972,212.7391 209.8715,194.8994 215.383,191.0766 217.2201,208.9163 219.0573,213.6948 220.8945,193.6252 222.7316,209.2349 228.2431,223.8889 230.0802,235.6759 231.9174,231.5345 233.7546,241.4101 235.5917,226.4375 241.1032,207.6421 242.9403,218.1548 244.7775,234.4016 246.6146,228.6674 248.4518,236.9501 253.9633,197.1294 255.8004,214.0134 257.6376,223.2518 259.4747,207.3235 261.3119,197.1294 266.8234,165.2728 268.6605,185.3425 270.4977,192.988 272.3348,182.1568 274.172,164.9542 279.6835,140.4247 281.5206,159.2201 283.3578,175.1484 292.5435,139.469 294.3807,156.6715 296.2179,169.4142 298.055,156.0344 305.4036,156.353 307.2408,173.5555 309.078,197.7665 310.9151,203.1822 312.7523,184.7053 320.1009,220.0661 321.938,236.313 323.7752,229.3046 325.6124,247.1443 331.1238,257.6569 332.961,276.1338 334.7981,280.9122 336.6353,279.638 338.4725,276.7709 343.9839,276.4523 347.6582,283.7793 349.4954,270.3996 351.3325,261.7983 356.844,263.0725 358.6812,277.7266 360.5183,290.4692 362.3555,284.4165 364.1926,284.4165 369.7041,295.8848 371.5413,304.1676 373.3784,299.3891 375.2156,289.8321 377.0527,280.2751 382.5642,287.2836 384.4014,310.8574 386.2385,309.5832 388.0757,302.8933 389.9128,317.2288 395.4243,323.2815 397.2614,329.0157 399.0986,325.1929 400.9358,323.9186 402.7729,325.5115 408.2844,327.1043 410.1215,335.0684 411.9587,329.6528 413.7959,312.4503 415.633,311.4946 421.1445,298.4334 422.9816,298.4334 424.8188,293.3363 426.6559,285.3722 428.4931,275.4966 434.0046,268.8067 435.8417,269.7624 437.6789,270.3996 439.516,250.3299 441.3532,236.6316 446.8647,219.7476 448.7018,220.0661 450.539,221.3404 452.3761,199.3594 454.2133,195.218 459.7248,192.3509 461.5619,214.9691 463.3991,219.429 465.2362,211.7834 467.0734,188.5281 474.422,174.1927 476.2592,176.7412 478.0963,153.4859 479.9335,148.3888 485.4449,142.6546 487.2821,144.2475 489.1193,126.7263 490.9564,113.6651 492.7936,116.2137 498.305,99.9668 500.1422,95.1883 501.9793,72.8887 503.8165,44.5363 505.6537,32.4308 511.1651,42.3064 513.0023,49.3148 514.8394,66.1988 516.6766,77.6672 518.5138,71.2959 524.0252,109.8423 525.8624,105.701 527.6995,125.7706 529.5367,134.6905 531.3738,148.3888 536.8853,149.0259 538.7225,175.7855 540.5596,170.6884 544.2339,185.3425 549.7454,171.9627 551.5826,185.661 553.4197,186.2982 555.2569,180.564 557.094,185.0239 564.4427,213.3763 566.2798,232.8088 568.117,239.8172 569.9541,234.7202 575.4656,261.4797 577.3028,282.1865 579.1399,289.195 582.8142,301.9376 588.3257,310.5389 590.1628,317.8659 592,328.6971" style="fill:none;stroke:rgb(31,119,180);stroke-width:2;stroke-linejoin:bevel" />
  <text dominant-baseline="hanging" text-anchor="middle" transform="translate(315.508,8)" font-family="Segoe UI" font-size="18" font-weight="700" fill="black">Aktive Fälle Stadt Aachen 09.06.2021</text>
  <polygon points="39.016,29.0795 592,29.0795 592,370.947 39.016,370.947" style="fill:none;stroke:black;stroke-width:1" />
  <polygon points="47.016,37.0795 233.487,37.0795 233.487,63.1325 47.016,63.1325" style="fill:none;stroke:none;" />
  <text dominant-baseline="hanging" text-anchor="start" transform="translate(75.016,45.0795)" font-family="Segoe UI" font-size="12" font-weight="400" fill="black">Aktive Fälle Stadt Aachen 09.06.2021</text>
  <polyline points="55.016,50.106 71.016,50.106" style="fill:none;stroke:rgb(31,119,180);stroke-width:2" />
</svg>