<?xml version="1.0" encoding="utf-8" standalone="no"?>
<!DOCTYPE svg PUBLIC "-//W3C//DTD SVG 1.1//EN" "http://www.w3.org/Graphics/SVG/1.1/DTD/svg11.dtd">
<svg width="600" height="400" version="1.1" xmlns:xlink="http://www.w3.org/1999/xlink" xmlns="http://www.w3.org/2000/svg">
  <rect x="0" y="0" width="600" height="400" style="fill:rgb(255,255,255);stroke:none;" />
  <polyline points="39.016,365.0985 35.016,365.0985" style="fill:none;stroke:black;stroke-width:1" />
  <polyline points="39.016,350.1382 35.016,350.1382" style="fill:none;stroke:black;stroke-width:1" />
  <polyline points="39.016,335.1778 35.016,335.1778" style="fill:none;stroke:black;stroke-width:1" />
  <polyline points="39.016,320.2174 35.016,320.2174" style="fill:none;stroke:black;stroke-width:1" />
  <polyline points="39.016,290.2966 35.016,290.2966" style="fill:none;stroke:black;stroke-width:1" />
  <polyline points="39.016,275.3363 35.016,275.3363" style="fill:none;stroke:black;stroke-width:1" />
  <polyline points="39.016,260.3759 35.016,260.3759" style="fill:none;stroke:black;stroke-width:1" />
  <polyline points="39.016,245.4155 35.016,245.4155" style="fill:none;stroke:black;stroke-width:1" />
  <polyline points="39.016,215.4948 35.016,215.4948" style="fill:none;stroke:black;stroke-width:1" />
  <polyline points="39.016,200.5344 35.016,200.5344" style="fill:none;stroke:black;stroke-width:1" />
  <polyline points="39.016,185.574 35.016,185.574" style="fill:none;stroke:black;stroke-width:1" />
  <polyline points="39.016,170.6136 35.016,170.6136" style="fill:none;stroke:black;stroke-width:1" />
  <polyline points="39.016,140.6929 35.016,140.6929" style="fill:none;stroke:black;stroke-width:1" />
  <polyline points="39.016,125.7325 35.016,125.7325" style="fill:none;stroke:black;stroke-width:1" />
  <polyline points="39.016,110.7721 35.016,110.7721" style="fill:none;stroke:black;stroke-width:1" />
  <polyline points="39.016,95.8118 35.016,95.8118" style="fill:none;stroke:black;stroke-width:1" />
  <polyline points="39.016,65.891 35.016,65.891" style="fill:none;stroke:black;stroke-width:1" />
  <polyline points="39.016,50.9306 35.016,50.9306" style="fill:none;stroke:black;stroke-width:1" />
  <polyline points="39.016,35.9702 35.016,35.9702" style="fill:none;stroke:black;stroke-width:1" />
  <text dominant-baseline="middle" text-anchor="end" transform="translate(28.016,380.0589)" font-family="Segoe UI" font-size="12" font-weight="400" fill="black">0</text>
  <text dominant-baseline="middle" text-anchor="end" transform="translate(28.016,305.257)" font-family="Segoe UI" font-size="12" font-weight="400" fill="black">500</text>
  <text dominant-baseline="middle" text-anchor="end" transform="translate(28.016,230.4551)" font-family="Segoe UI" font-size="12" font-weight="400" fill="black">1000</text>
  <text dominant-baseline="middle" text-anchor="end" transform="translate(28.016,155.6533)" font-family="Segoe UI" font-size="12" font-weight="400" fill="black">1500</text>
  <text dominant-baseline="middle" text-anchor="end" transform="translate(28.016,80.8514)" font-family="Segoe UI" font-size="12" font-weight="400" fill="black">2000</text>
  <polyline points="39.016,380.0589 32.016,380.0589" style="fill:none;stroke:black;stroke-width:1" />
  <polyline points="39.016,305.257 32.016,305.257" style="fill:none;stroke:black;stroke-width:1" />
  <polyline points="39.016,230.4551 32.016,230.4551" style="fill:none;stroke:black;stroke-width:1" />
  <polyline points="39.016,155.6533 32.016,155.6533" style="fill:none;stroke:black;stroke-width:1" />
  <polyline points="39.016,80.8514 32.016,80.8514" style="fill:none;stroke:black;stroke-width:1" />
  <polyline points="39.016,332.0361 591.6119,375.5708 591.6367,374.0748 591.6374,373.0275 591.6389,371.3819 591.6397,370.9331 591.6449,371.0827 591.6472,367.4922 591.6494,365.8465 591.6502,363.7521 591.6524,361.3584 591.6532,363.4529 591.6539,361.508 591.6547,359.4136 591.6554,358.8152 591.6576,354.3271 591.6584,357.7679 591.6591,355.9727 591.6599,351.9334 591.6606,346.0988 591.6629,338.6187 591.6644,338.1698 591.6651,331.2881 591.6659,329.9416 591.6681,309.7451 591.6689,315.2805 591.6704,313.6348 591.6711,304.6586 591.6734,307.5011 591.6741,322.4615 591.6749,319.1702 591.6756,314.8317 591.6764,313.0364 591.6786,303.013 591.6794,309.1467 591.6801,304.8082 591.6816,296.4304 591.6839,294.6352 591.6846,303.013 591.6854,305.257 591.6861,295.832 591.6869,303.1626 591.6891,310.0443 591.6899,315.5797 591.6906,313.6348 591.6914,318.2725 591.6921,311.2412 591.6944,302.4145 591.6951,307.3515 591.6959,314.9813 591.6966,312.2884 591.6974,316.1781 591.6996,297.4776 591.7003,305.4066 591.7011,309.7451 591.7018,302.2649 591.7026,297.4776 591.7048,282.5172 591.7056,291.9423 591.7063,295.5328 591.7071,290.4462 591.7078,282.3676 591.7101,270.8482 591.7108,279.6748 591.7116,287.155 591.7153,270.3993 591.7161,278.4779 591.7168,284.4621 591.7176,278.1787 591.7206,278.3283 591.7213,286.4069 591.7221,297.7768 591.7228,300.3201 591.7236,291.6431 591.7266,308.2491 591.7273,315.8789 591.7281,312.5876 591.7288,320.9654 591.7311,325.9023 591.7318,334.5794 591.7326,336.8234 591.7341,334.8786 591.7363,334.729 591.7378,338.1698 591.7386,331.8865 591.7393,327.8472 591.7415,328.4456 591.7423,335.3274 591.743,341.3115 591.7438,338.4691 591.7445,338.4691 591.7468,343.8548 591.7475,347.7445 591.7483,345.5004 591.749,341.0123 591.7498,336.5242 591.752,339.8155 591.7528,350.8862 591.7535,350.2878 591.7543,347.1461 591.755,353.8782 591.7573,356.7207 591.758,359.4136 591.7588,357.6183 591.7595,357.0199 591.7625,358.516 591.7633,362.2561 591.764,359.7128 591.7648,351.6342 591.7655,351.1854 591.7678,345.0516 591.7685,345.0516 591.7693,342.658 591.77,338.9179 591.7708,334.2802 591.773,331.1385 591.7745,331.8865 591.7753,322.4615 591.776,316.0285 591.7783,308.0995 591.7798,308.8475 591.7805,298.5249 591.7813,296.58 591.7835,295.2336 591.7842,305.8554 591.785,307.9499 591.7857,304.3594 591.7865,293.4383 591.7895,286.7062 591.7902,287.903 591.791,276.9819 591.7917,274.5883 591.794,271.8954 591.7947,272.6434 591.7955,264.4152 591.7962,258.2814 591.797,259.4783 591.7992,251.8485 591.8,249.6044 591.8007,239.1322 591.8015,225.8174 591.8022,220.1325 591.8045,224.7702 591.8052,228.0615 591.806,235.9905 591.8067,241.3762 591.8075,238.3841 591.8097,256.4862 591.8105,254.5413 591.8112,263.9664 591.812,268.1553 591.8127,274.5883 591.815,274.8875 591.8157,287.4542 591.8165,285.0605 591.818,291.9423 591.8202,285.6589 591.821,292.0919 591.8217,292.3911 591.8225,289.6982 591.8232,291.7927 591.8262,305.1074 591.827,314.2332 591.8277,317.5245 591.8284,315.1309 591.8307,327.6976 591.8314,337.4218 591.8322,340.7131 591.8337,346.6973 591.8359,350.7366 591.8367,354.1775 591.8374,359.264 591.8382,361.0592 591.8389,363.3033 591.8419,363.4529 591.8427,368.689 591.8494,370.6339 591.8517,371.2323 591.8637,371.6811 591.8652,368.689 591.8689,363.9017 591.8704,358.3664 591.8741,357.3191 591.8756,354.3271 591.8794,357.9175 591.8809,356.4215 591.8846,349.6893 591.8861,338.9179 591.8899,332.0361 591.8914,325.6031 591.8951,311.8396 591.9004,310.3435 591.9019,309.2963 591.9071,314.6821 591.9124,322.7607 591.9161,331.1385 591.9176,332.4849 591.9213,337.2722 591.9228,339.8155 591.9266,345.7996 591.9281,346.3981 591.9318,348.7917 591.9371,348.9413 591.9386,343.7052 591.9423,336.225 591.9438,319.1702 591.9476,313.4852 591.9491,297.1784 591.9528,282.6669 591.9543,264.7144 591.958,248.1084 591.9595,237.4865 591.9633,213.5499 591.9648,194.5502 591.9685,184.078 591.9738,186.6212 591.9753,186.9204 591.979,202.4792 591.9805,195.2983 591.9948,183.6292 591.9963,111.5201 592,32.5294" style="fill:none;stroke:rgb(31,119,180);stroke-width:2;stroke-linejoin:bevel" />
  <text dominant-baseline="hanging" text-anchor="middle" transform="translate(315.508,8)" font-family="Segoe UI" font-size="18" font-weight="700" fill="black">Aktive Fälle Stadt Aachen 12.01.2022</text>
  <polygon points="39.016,29.0795 592,29.0795 592,381 39.016,381" style="fill:none;stroke:black;stroke-width:1" />
  <polygon points="47.016,37.0795 233.487,37.0795 233.487,63.1325 47.016,63.1325" style="fill:none;stroke:none;" />
  <text dominant-baseline="hanging" text-anchor="start" transform="translate(75.016,45.0795)" font-family="Segoe UI" font-size="12" font-weight="400" fill="black">Aktive Fälle Stadt Aachen 12.01.2022</text>
  <polyline points="55.016,50.106 71.016,50.106" style="fill:none;stroke:rgb(31,119,180);stroke-width:2" />
</svg>