<?xml version="1.0" encoding="utf-8" standalone="no"?>
<!DOCTYPE svg PUBLIC "-//W3C//DTD SVG 1.1//EN" "http://www.w3.org/Graphics/SVG/1.1/DTD/svg11.dtd">
<svg width="600" height="400" version="1.1" xmlns:xlink="http://www.w3.org/1999/xlink" xmlns="http://www.w3.org/2000/svg">
  <rect x="0" y="0" width="600" height="400" style="fill:rgb(255,255,255);stroke:none;" />
  <polyline points="39.016,357.0495 35.016,357.0495" style="fill:none;stroke:black;stroke-width:1" />
  <polyline points="39.016,341.1212 35.016,341.1212" style="fill:none;stroke:black;stroke-width:1" />
  <polyline points="39.016,325.1929 35.016,325.1929" style="fill:none;stroke:black;stroke-width:1" />
  <polyline points="39.016,293.3363 35.016,293.3363" style="fill:none;stroke:black;stroke-width:1" />
  <polyline points="39.016,277.408 35.016,277.408" style="fill:none;stroke:black;stroke-width:1" />
  <polyline points="39.016,261.4797 35.016,261.4797" style="fill:none;stroke:black;stroke-width:1" />
  <polyline points="39.016,229.6231 35.016,229.6231" style="fill:none;stroke:black;stroke-width:1" />
  <polyline points="39.016,213.6948 35.016,213.6948" style="fill:none;stroke:black;stroke-width:1" />
  <polyline points="39.016,197.7665 35.016,197.7665" style="fill:none;stroke:black;stroke-width:1" />
  <polyline points="39.016,165.9099 35.016,165.9099" style="fill:none;stroke:black;stroke-width:1" />
  <polyline points="39.016,149.9816 35.016,149.9816" style="fill:none;stroke:black;stroke-width:1" />
  <polyline points="39.016,134.0533 35.016,134.0533" style="fill:none;stroke:black;stroke-width:1" />
  <polyline points="39.016,102.1968 35.016,102.1968" style="fill:none;stroke:black;stroke-width:1" />
  <polyline points="39.016,86.2685 35.016,86.2685" style="fill:none;stroke:black;stroke-width:1" />
  <polyline points="39.016,70.3402 35.016,70.3402" style="fill:none;stroke:black;stroke-width:1" />
  <polyline points="39.016,38.4836 35.016,38.4836" style="fill:none;stroke:black;stroke-width:1" />
  <text dominant-baseline="middle" text-anchor="end" transform="translate(28.016,309.2646)" font-family="Segoe UI" font-size="12" font-weight="400" fill="black">200</text>
  <text dominant-baseline="middle" text-anchor="end" transform="translate(28.016,245.5514)" font-family="Segoe UI" font-size="12" font-weight="400" fill="black">400</text>
  <text dominant-baseline="middle" text-anchor="end" transform="translate(28.016,181.8382)" font-family="Segoe UI" font-size="12" font-weight="400" fill="black">600</text>
  <text dominant-baseline="middle" text-anchor="end" transform="translate(28.016,118.125)" font-family="Segoe UI" font-size="12" font-weight="400" fill="black">800</text>
  <text dominant-baseline="middle" text-anchor="end" transform="translate(28.016,54.4119)" font-family="Segoe UI" font-size="12" font-weight="400" fill="black">1000</text>
  <polyline points="39.016,309.2646 32.016,309.2646" style="fill:none;stroke:black;stroke-width:1" />
  <polyline points="39.016,245.5514 32.016,245.5514" style="fill:none;stroke:black;stroke-width:1" />
  <polyline points="39.016,181.8382 32.016,181.8382" style="fill:none;stroke:black;stroke-width:1" />
  <polyline points="39.016,118.125 32.016,118.125" style="fill:none;stroke:black;stroke-width:1" />
  <polyline points="39.016,54.4119 32.016,54.4119" style="fill:none;stroke:black;stroke-width:1" />
  <text dominant-baseline="hanging" text-anchor="middle" transform="translate(79.233,381.947)" font-family="Segoe UI" font-size="12" font-weight="400" fill="black">01. September</text>
  <text dominant-baseline="hanging" text-anchor="middle" transform="translate(139.5585,381.947)" font-family="Segoe UI" font-size="12" font-weight="400" fill="black">01. October</text>
  <text dominant-baseline="hanging" text-anchor="middle" transform="translate(201.8949,381.947)" font-family="Segoe UI" font-size="12" font-weight="400" fill="black">01. November</text>
  <text dominant-baseline="hanging" text-anchor="middle" transform="translate(262.2205,381.947)" font-family="Segoe UI" font-size="12" font-weight="400" fill="black">01. December</text>
  <text dominant-baseline="hanging" text-anchor="middle" transform="translate(324.5568,381.947)" font-family="Segoe UI" font-size="12" font-weight="400" fill="black">01. January</text>
  <text dominant-baseline="hanging" text-anchor="middle" transform="translate(386.8932,381.947)" font-family="Segoe UI" font-size="12" font-weight="400" fill="black">01. February</text>
  <text dominant-baseline="hanging" text-anchor="middle" transform="translate(443.197,381.947)" font-family="Segoe UI" font-size="12" font-weight="400" fill="black">01. March</text>
  <text dominant-baseline="hanging" text-anchor="middle" transform="translate(505.5334,381.947)" font-family="Segoe UI" font-size="12" font-weight="400" fill="black">01. April</text>
  <text dominant-baseline="hanging" text-anchor="middle" transform="translate(565.8589,381.947)" font-family="Segoe UI" font-size="12" font-weight="400" fill="black">01. May</text>
  <polyline points="79.233,370.947 79.233,377.947" style="fill:none;stroke:black;stroke-width:1" />
  <polyline points="139.5585,370.947 139.5585,377.947" style="fill:none;stroke:black;stroke-width:1" />
  <polyline points="201.8949,370.947 201.8949,377.947" style="fill:none;stroke:black;stroke-width:1" />
  <polyline points="262.2205,370.947 262.2205,377.947" style="fill:none;stroke:black;stroke-width:1" />
  <polyline points="324.5568,370.947 324.5568,377.947" style="fill:none;stroke:black;stroke-width:1" />
  <polyline points="386.8932,370.947 386.8932,377.947" style="fill:none;stroke:black;stroke-width:1" />
  <polyline points="443.197,370.947 443.197,377.947" style="fill:none;stroke:black;stroke-width:1" />
  <polyline points="505.5334,370.947 505.5334,377.947" style="fill:none;stroke:black;stroke-width:1" />
  <polyline points="565.8589,370.947 565.8589,377.947" style="fill:none;stroke:black;stroke-width:1" />
  <polyline points="39.016,363.4208 43.0377,360.5537 49.0703,362.4651 51.0811,360.5537 53.092,361.828 55.1028,360.2352 57.1137,360.5537 63.1462,360.8723 65.1571,363.4208 67.1679,363.7394 69.1788,363.1023 71.1896,363.1023 77.2222,365.3322 79.233,366.2879 81.2439,366.2879 83.2547,365.6508 85.2656,365.9693 91.2981,365.9693 93.309,367.5622 95.3198,366.6065 97.3307,364.6951 99.3415,363.4208 105.3741,360.2352 107.3849,358.0052 109.3958,354.8195 111.4066,354.501 113.4175,353.5453 119.45,356.4124 121.4609,357.0495 123.4717,356.7309 125.4826,355.4567 127.4934,353.8638 133.526,346.2183 135.5368,347.174 137.5477,347.4925 139.5585,342.714 141.5694,338.2541 147.6019,333.1571 149.6128,337.617 151.6237,333.4756 153.6345,329.0157 155.6454,327.7414 161.6779,318.1845 163.6888,325.5115 165.6996,321.6887 167.7105,313.0874 169.7213,300.6633 175.7539,284.735 177.7647,285.6907 179.7756,283.7793 181.7864,269.1253 183.7973,266.2582 189.8298,223.2518 191.8407,235.0387 193.8515,235.0387 195.8624,231.5345 197.8732,212.4206 203.9058,218.4733 205.9166,250.3299 207.9275,243.3215 209.9383,234.083 211.9492,230.2603 217.9817,208.9163 219.9926,221.9775 222.0034,212.7391 226.0251,194.8994 232.0577,191.0766 234.0685,208.9163 236.0794,213.6948 238.0902,193.6252 240.1011,209.2349 246.1336,223.8889 248.1445,235.6759 250.1553,231.5345 252.1662,241.4101 254.177,226.4375 260.2096,207.6421 262.2205,218.1548 264.2313,234.4016 266.2422,228.6674 268.253,236.9501 274.2856,197.1294 276.2964,214.0134 278.3073,223.2518 280.3181,207.3235 282.329,197.1294 288.3615,165.2728 290.3724,185.3425 292.3832,192.988 294.3941,182.1568 296.4049,164.9542 302.4375,140.4247 304.4483,159.2201 306.4592,175.1484 316.5134,139.469 318.5243,156.6715 320.5351,169.4142 322.546,156.0344 330.5894,156.353 332.6002,173.5555 334.6111,197.7665 336.6219,203.1822 338.6328,184.7053 346.6762,220.0661 348.687,236.313 350.6979,229.3046 352.7087,247.1443 358.7413,257.6569 360.7521,276.1338 362.763,280.9122 364.7738,279.638 366.7847,276.7709 372.8173,276.4523 376.839,283.7793 378.8498,270.3996 380.8607,261.7983 386.8932,263.0725 388.9041,277.7266 390.9149,290.4692 392.9258,284.4165 394.9366,284.4165 400.9692,295.8848 402.98,304.1676 404.9909,299.3891 407.0017,289.8321 409.0126,280.2751 415.0451,287.2836 417.056,310.8574 419.0668,309.5832 421.0777,302.8933 423.0885,317.2288 429.1211,323.2815 431.1319,329.0157 433.1428,325.1929 435.1536,323.9186 437.1645,325.5115 443.197,327.1043 445.2079,335.0684 447.2187,329.6528 449.2296,312.4503 451.2404,311.4946 457.273,298.4334 459.2838,298.4334 461.2947,293.3363 463.3055,285.3722 465.3164,275.4966 471.3489,268.8067 473.3598,269.7624 475.3706,270.3996 477.3815,250.3299 479.3923,236.6316 485.4249,219.7476 487.4358,220.0661 489.4466,221.3404 491.4575,199.3594 493.4683,195.218 499.5009,192.3509 501.5117,214.9691 503.5226,219.429 505.5334,211.7834 507.5443,188.5281 515.5877,174.1927 517.5985,176.7412 519.6094,153.4859 521.6202,148.3888 527.6528,142.6546 529.6636,144.2475 531.6745,126.7263 533.6853,113.6651 535.6962,116.2137 541.7287,99.9668 543.7396,95.1883 545.7504,72.8887 547.7613,44.5363 549.7721,32.4308 555.8047,42.3064 557.8155,49.3148 559.8264,66.1988 561.8372,77.6672 563.8481,71.2959 569.8806,109.8423 571.8915,105.701 573.9023,125.7706 575.9132,134.6905 577.924,148.3888 583.9566,149.0259 585.9674,175.7855 587.9783,170.6884 592,185.3425" style="fill:none;stroke:rgb(31,119,180);stroke-width:2;stroke-linejoin:bevel" />
  <text dominant-baseline="hanging" text-anchor="middle" transform="translate(315.508,8)" font-family="Segoe UI" font-size="18" font-weight="700" fill="black">Aktive Fälle Stadt Aachen 14.05.2021</text>
  <polygon points="39.016,29.0795 592,29.0795 592,370.947 39.016,370.947" style="fill:none;stroke:black;stroke-width:1" />
  <polygon points="47.016,37.0795 233.487,37.0795 233.487,63.1325 47.016,63.1325" style="fill:none;stroke:none;" />
  <text dominant-baseline="hanging" text-anchor="start" transform="translate(75.016,45.0795)" font-family="Segoe UI" font-size="12" font-weight="400" fill="black">Aktive Fälle Stadt Aachen 14.05.2021</text>
  <polyline points="55.016,50.106 71.016,50.106" style="fill:none;stroke:rgb(31,119,180);stroke-width:2" />
</svg>