<?xml version="1.0" encoding="utf-8" standalone="no"?>
<!DOCTYPE svg PUBLIC "-//W3C//DTD SVG 1.1//EN" "http://www.w3.org/Graphics/SVG/1.1/DTD/svg11.dtd">
<svg width="600" height="400" version="1.1" xmlns:xlink="http://www.w3.org/1999/xlink" xmlns="http://www.w3.org/2000/svg">
  <rect x="0" y="0" width="600" height="400" style="fill:rgb(255,255,255);stroke:none;" />
  <polyline points="39.016,357.0495 35.016,357.0495" style="fill:none;stroke:black;stroke-width:1" />
  <polyline points="39.016,341.1212 35.016,341.1212" style="fill:none;stroke:black;stroke-width:1" />
  <polyline points="39.016,325.1929 35.016,325.1929" style="fill:none;stroke:black;stroke-width:1" />
  <polyline points="39.016,293.3363 35.016,293.3363" style="fill:none;stroke:black;stroke-width:1" />
  <polyline points="39.016,277.408 35.016,277.408" style="fill:none;stroke:black;stroke-width:1" />
  <polyline points="39.016,261.4797 35.016,261.4797" style="fill:none;stroke:black;stroke-width:1" />
  <polyline points="39.016,229.6231 35.016,229.6231" style="fill:none;stroke:black;stroke-width:1" />
  <polyline points="39.016,213.6948 35.016,213.6948" style="fill:none;stroke:black;stroke-width:1" />
  <polyline points="39.016,197.7665 35.016,197.7665" style="fill:none;stroke:black;stroke-width:1" />
  <polyline points="39.016,165.9099 35.016,165.9099" style="fill:none;stroke:black;stroke-width:1" />
  <polyline points="39.016,149.9816 35.016,149.9816" style="fill:none;stroke:black;stroke-width:1" />
  <polyline points="39.016,134.0533 35.016,134.0533" style="fill:none;stroke:black;stroke-width:1" />
  <polyline points="39.016,102.1968 35.016,102.1968" style="fill:none;stroke:black;stroke-width:1" />
  <polyline points="39.016,86.2685 35.016,86.2685" style="fill:none;stroke:black;stroke-width:1" />
  <polyline points="39.016,70.3402 35.016,70.3402" style="fill:none;stroke:black;stroke-width:1" />
  <polyline points="39.016,38.4836 35.016,38.4836" style="fill:none;stroke:black;stroke-width:1" />
  <polyline points="71.073,370.947 71.073,374.947" style="fill:none;stroke:black;stroke-width:1" />
  <polyline points="168.847,370.947 168.847,374.947" style="fill:none;stroke:black;stroke-width:1" />
  <polyline points="266.621,370.947 266.621,374.947" style="fill:none;stroke:black;stroke-width:1" />
  <polyline points="361.1893,370.947 361.1893,374.947" style="fill:none;stroke:black;stroke-width:1" />
  <polyline points="458.9633,370.947 458.9633,374.947" style="fill:none;stroke:black;stroke-width:1" />
  <polyline points="556.7373,370.947 556.7373,374.947" style="fill:none;stroke:black;stroke-width:1" />
  <text dominant-baseline="middle" text-anchor="end" transform="translate(28.016,309.2646)" font-family="Segoe UI" font-size="12" font-weight="400" fill="black">200</text>
  <text dominant-baseline="middle" text-anchor="end" transform="translate(28.016,245.5514)" font-family="Segoe UI" font-size="12" font-weight="400" fill="black">400</text>
  <text dominant-baseline="middle" text-anchor="end" transform="translate(28.016,181.8382)" font-family="Segoe UI" font-size="12" font-weight="400" fill="black">600</text>
  <text dominant-baseline="middle" text-anchor="end" transform="translate(28.016,118.125)" font-family="Segoe UI" font-size="12" font-weight="400" fill="black">800</text>
  <text dominant-baseline="middle" text-anchor="end" transform="translate(28.016,54.4119)" font-family="Segoe UI" font-size="12" font-weight="400" fill="black">1000</text>
  <polyline points="39.016,309.2646 32.016,309.2646" style="fill:none;stroke:black;stroke-width:1" />
  <polyline points="39.016,245.5514 32.016,245.5514" style="fill:none;stroke:black;stroke-width:1" />
  <polyline points="39.016,181.8382 32.016,181.8382" style="fill:none;stroke:black;stroke-width:1" />
  <polyline points="39.016,118.125 32.016,118.125" style="fill:none;stroke:black;stroke-width:1" />
  <polyline points="39.016,54.4119 32.016,54.4119" style="fill:none;stroke:black;stroke-width:1" />
  <text dominant-baseline="hanging" text-anchor="middle" transform="translate(119.1586,381.947)" font-family="Segoe UI" font-size="12" font-weight="400" fill="black">01. October</text>
  <text dominant-baseline="hanging" text-anchor="middle" transform="translate(216.9326,381.947)" font-family="Segoe UI" font-size="12" font-weight="400" fill="black">01. December</text>
  <text dominant-baseline="hanging" text-anchor="middle" transform="translate(316.3094,381.947)" font-family="Segoe UI" font-size="12" font-weight="400" fill="black">01. February</text>
  <text dominant-baseline="hanging" text-anchor="middle" transform="translate(410.8777,381.947)" font-family="Segoe UI" font-size="12" font-weight="400" fill="black">01. April</text>
  <text dominant-baseline="hanging" text-anchor="middle" transform="translate(508.6517,381.947)" font-family="Segoe UI" font-size="12" font-weight="400" fill="black">01. June</text>
  <polyline points="119.1586,370.947 119.1586,377.947" style="fill:none;stroke:black;stroke-width:1" />
  <polyline points="216.9326,370.947 216.9326,377.947" style="fill:none;stroke:black;stroke-width:1" />
  <polyline points="316.3094,370.947 316.3094,377.947" style="fill:none;stroke:black;stroke-width:1" />
  <polyline points="410.8777,370.947 410.8777,377.947" style="fill:none;stroke:black;stroke-width:1" />
  <polyline points="508.6517,370.947 508.6517,377.947" style="fill:none;stroke:black;stroke-width:1" />
  <polyline points="39.016,363.4208 42.2217,360.5537 47.0303,362.4651 48.6331,360.5537 50.236,361.828 51.8388,360.2352 53.4417,360.5537 58.2502,360.8723 59.8531,363.4208 61.4559,363.7394 63.0588,363.1023 64.6616,363.1023 69.4702,365.3322 71.073,366.2879 72.6759,366.2879 74.2787,365.6508 75.8816,365.9693 80.6902,365.9693 82.293,367.5622 83.8959,366.6065 85.4987,364.6951 87.1016,363.4208 91.9101,360.2352 93.513,358.0052 95.1158,354.8195 96.7187,354.501 98.3215,353.5453 103.1301,356.4124 104.7329,357.0495 106.3358,356.7309 107.9386,355.4567 109.5415,353.8638 114.3501,346.2183 115.9529,347.174 117.5558,347.4925 119.1586,342.714 120.7615,338.2541 125.57,333.1571 127.1729,337.617 128.7757,333.4756 130.3786,329.0157 131.9814,327.7414 136.79,318.1845 138.3928,325.5115 139.9957,321.6887 141.5985,313.0874 143.2014,300.6633 148.0099,284.735 149.6128,285.6907 151.2157,283.7793 152.8185,269.1253 154.4214,266.2582 159.2299,223.2518 160.8328,235.0387 162.4356,235.0387 164.0385,231.5345 165.6413,212.4206 170.4499,218.4733 172.0527,250.3299 173.6556,243.3215 175.2584,234.083 176.8613,230.2603 181.6698,208.9163 183.2727,221.9775 184.8755,212.7391 188.0813,194.8994 192.8898,191.0766 194.4927,208.9163 196.0955,213.6948 197.6984,193.6252 199.3012,209.2349 204.1098,223.8889 205.7126,235.6759 207.3155,231.5345 208.9183,241.4101 210.5212,226.4375 215.3297,207.6421 216.9326,218.1548 218.5354,234.4016 220.1383,228.6674 221.7411,236.9501 226.5497,197.1294 228.1526,214.0134 229.7554,223.2518 231.3583,207.3235 232.9611,197.1294 237.7697,165.2728 239.3725,185.3425 240.9754,192.988 242.5782,182.1568 244.1811,164.9542 248.9896,140.4247 250.5925,159.2201 252.1953,175.1484 260.2096,139.469 261.8125,156.6715 263.4153,169.4142 265.0182,156.0344 271.4296,156.353 273.0324,173.5555 274.6353,197.7665 276.2381,203.1822 277.841,184.7053 284.2524,220.0661 285.8552,236.313 287.4581,229.3046 289.0609,247.1443 293.8695,257.6569 295.4723,276.1338 297.0752,280.9122 298.6781,279.638 300.2809,276.7709 305.0895,276.4523 308.2952,283.7793 309.898,270.3996 311.5009,261.7983 316.3094,263.0725 317.9123,277.7266 319.5151,290.4692 321.118,284.4165 322.7208,284.4165 327.5294,295.8848 329.1322,304.1676 330.7351,299.3891 332.3379,289.8321 333.9408,280.2751 338.7494,287.2836 340.3522,310.8574 341.9551,309.5832 343.5579,302.8933 345.1608,317.2288 349.9693,323.2815 351.5722,329.0157 353.175,325.1929 354.7779,323.9186 356.3807,325.5115 361.1893,327.1043 362.7921,335.0684 364.395,329.6528 365.9978,312.4503 367.6007,311.4946 372.4093,298.4334 374.0121,298.4334 375.615,293.3363 377.2178,285.3722 378.8207,275.4966 383.6292,268.8067 385.2321,269.7624 386.8349,270.3996 388.4378,250.3299 390.0406,236.6316 394.8492,219.7476 396.452,220.0661 398.0549,221.3404 399.6577,199.3594 401.2606,195.218 406.0691,192.3509 407.672,214.9691 409.2749,219.429 410.8777,211.7834 412.4806,188.5281 418.892,174.1927 420.4948,176.7412 422.0977,153.4859 423.7005,148.3888 428.5091,142.6546 430.1119,144.2475 431.7148,126.7263 433.3176,113.6651 434.9205,116.2137 439.729,99.9668 441.3319,95.1883 442.9347,72.8887 444.5376,44.5363 446.1405,32.4308 450.949,42.3064 452.5519,49.3148 454.1547,66.1988 455.7576,77.6672 457.3604,71.2959 462.169,109.8423 463.7718,105.701 465.3747,125.7706 466.9775,134.6905 468.5804,148.3888 473.3889,149.0259 474.9918,175.7855 476.5946,170.6884 479.8003,185.3425 484.6089,171.9627 486.2118,185.661 487.8146,186.2982 489.4175,180.564 491.0203,185.0239 497.4317,213.3763 499.0346,232.8088 500.6374,239.8172 502.2403,234.7202 507.0488,261.4797 508.6517,282.1865 510.2545,289.195 513.4602,301.9376 518.2688,310.5389 519.8717,317.8659 521.4745,328.6971 523.0774,332.5199 524.6802,337.2984 529.4888,338.5727 531.0916,337.617 532.6945,348.7668 534.2973,348.1297 535.9002,349.7225 540.7087,350.6782 542.3116,351.9524 543.9144,352.5896 545.5173,352.9081 547.1201,352.9081 551.9287,354.1824 553.5315,356.0938 555.1344,355.7752 556.7373,353.5453 558.3401,354.8195 563.1487,356.0938 566.3544,355.7752 569.5601,356.4124 574.3686,356.0938 577.5743,355.1381 580.78,348.7668 588.7943,338.5727 592,326.7857" style="fill:none;stroke:rgb(31,119,180);stroke-width:2;stroke-linejoin:bevel" />
  <text dominant-baseline="hanging" text-anchor="middle" transform="translate(315.508,8)" font-family="Segoe UI" font-size="18" font-weight="700" fill="black">Aktive Fälle Stadt Aachen 23.07.2021</text>
  <polygon points="39.016,29.0795 592,29.0795 592,370.947 39.016,370.947" style="fill:none;stroke:black;stroke-width:1" />
  <polygon points="47.016,37.0795 233.487,37.0795 233.487,63.1325 47.016,63.1325" style="fill:none;stroke:none;" />
  <text dominant-baseline="hanging" text-anchor="start" transform="translate(75.016,45.0795)" font-family="Segoe UI" font-size="12" font-weight="400" fill="black">Aktive Fälle Stadt Aachen 23.07.2021</text>
  <polyline points="55.016,50.106 71.016,50.106" style="fill:none;stroke:rgb(31,119,180);stroke-width:2" />
</svg>