<?xml version="1.0" encoding="utf-8" standalone="no"?>
<!DOCTYPE svg PUBLIC "-//W3C//DTD SVG 1.1//EN" "http://www.w3.org/Graphics/SVG/1.1/DTD/svg11.dtd">
<svg width="600" height="400" version="1.1" xmlns:xlink="http://www.w3.org/1999/xlink" xmlns="http://www.w3.org/2000/svg">
  <rect x="0" y="0" width="600" height="400" style="fill:rgb(255,255,255);stroke:none;" />
  <polyline points="39.016,357.0495 35.016,357.0495" style="fill:none;stroke:black;stroke-width:1" />
  <polyline points="39.016,341.1212 35.016,341.1212" style="fill:none;stroke:black;stroke-width:1" />
  <polyline points="39.016,325.1929 35.016,325.1929" style="fill:none;stroke:black;stroke-width:1" />
  <polyline points="39.016,293.3363 35.016,293.3363" style="fill:none;stroke:black;stroke-width:1" />
  <polyline points="39.016,277.408 35.016,277.408" style="fill:none;stroke:black;stroke-width:1" />
  <polyline points="39.016,261.4797 35.016,261.4797" style="fill:none;stroke:black;stroke-width:1" />
  <polyline points="39.016,229.6231 35.016,229.6231" style="fill:none;stroke:black;stroke-width:1" />
  <polyline points="39.016,213.6948 35.016,213.6948" style="fill:none;stroke:black;stroke-width:1" />
  <polyline points="39.016,197.7665 35.016,197.7665" style="fill:none;stroke:black;stroke-width:1" />
  <polyline points="39.016,165.9099 35.016,165.9099" style="fill:none;stroke:black;stroke-width:1" />
  <polyline points="39.016,149.9816 35.016,149.9816" style="fill:none;stroke:black;stroke-width:1" />
  <polyline points="39.016,134.0533 35.016,134.0533" style="fill:none;stroke:black;stroke-width:1" />
  <polyline points="39.016,102.1968 35.016,102.1968" style="fill:none;stroke:black;stroke-width:1" />
  <polyline points="39.016,86.2685 35.016,86.2685" style="fill:none;stroke:black;stroke-width:1" />
  <polyline points="39.016,70.3402 35.016,70.3402" style="fill:none;stroke:black;stroke-width:1" />
  <polyline points="39.016,38.4836 35.016,38.4836" style="fill:none;stroke:black;stroke-width:1" />
  <text dominant-baseline="middle" text-anchor="end" transform="translate(28.016,309.2646)" font-family="Segoe UI" font-size="12" font-weight="400" fill="black">200</text>
  <text dominant-baseline="middle" text-anchor="end" transform="translate(28.016,245.5514)" font-family="Segoe UI" font-size="12" font-weight="400" fill="black">400</text>
  <text dominant-baseline="middle" text-anchor="end" transform="translate(28.016,181.8382)" font-family="Segoe UI" font-size="12" font-weight="400" fill="black">600</text>
  <text dominant-baseline="middle" text-anchor="end" transform="translate(28.016,118.125)" font-family="Segoe UI" font-size="12" font-weight="400" fill="black">800</text>
  <text dominant-baseline="middle" text-anchor="end" transform="translate(28.016,54.4119)" font-family="Segoe UI" font-size="12" font-weight="400" fill="black">1000</text>
  <polyline points="39.016,309.2646 32.016,309.2646" style="fill:none;stroke:black;stroke-width:1" />
  <polyline points="39.016,245.5514 32.016,245.5514" style="fill:none;stroke:black;stroke-width:1" />
  <polyline points="39.016,181.8382 32.016,181.8382" style="fill:none;stroke:black;stroke-width:1" />
  <polyline points="39.016,118.125 32.016,118.125" style="fill:none;stroke:black;stroke-width:1" />
  <polyline points="39.016,54.4119 32.016,54.4119" style="fill:none;stroke:black;stroke-width:1" />
  <text dominant-baseline="hanging" text-anchor="middle" transform="translate(80.438,381.947)" font-family="Segoe UI" font-size="12" font-weight="400" fill="black">01. September</text>
  <text dominant-baseline="hanging" text-anchor="middle" transform="translate(142.5711,381.947)" font-family="Segoe UI" font-size="12" font-weight="400" fill="black">01. October</text>
  <text dominant-baseline="hanging" text-anchor="middle" transform="translate(206.7752,381.947)" font-family="Segoe UI" font-size="12" font-weight="400" fill="black">01. November</text>
  <text dominant-baseline="hanging" text-anchor="middle" transform="translate(268.9082,381.947)" font-family="Segoe UI" font-size="12" font-weight="400" fill="black">01. December</text>
  <text dominant-baseline="hanging" text-anchor="middle" transform="translate(333.1124,381.947)" font-family="Segoe UI" font-size="12" font-weight="400" fill="black">01. January</text>
  <text dominant-baseline="hanging" text-anchor="middle" transform="translate(397.3165,381.947)" font-family="Segoe UI" font-size="12" font-weight="400" fill="black">01. February</text>
  <text dominant-baseline="hanging" text-anchor="middle" transform="translate(455.3073,381.947)" font-family="Segoe UI" font-size="12" font-weight="400" fill="black">01. March</text>
  <text dominant-baseline="hanging" text-anchor="middle" transform="translate(519.5115,381.947)" font-family="Segoe UI" font-size="12" font-weight="400" fill="black">01. April</text>
  <text dominant-baseline="hanging" text-anchor="middle" transform="translate(581.6445,381.947)" font-family="Segoe UI" font-size="12" font-weight="400" fill="black">01. May</text>
  <polyline points="80.438,370.947 80.438,377.947" style="fill:none;stroke:black;stroke-width:1" />
  <polyline points="142.5711,370.947 142.5711,377.947" style="fill:none;stroke:black;stroke-width:1" />
  <polyline points="206.7752,370.947 206.7752,377.947" style="fill:none;stroke:black;stroke-width:1" />
  <polyline points="268.9082,370.947 268.9082,377.947" style="fill:none;stroke:black;stroke-width:1" />
  <polyline points="333.1124,370.947 333.1124,377.947" style="fill:none;stroke:black;stroke-width:1" />
  <polyline points="397.3165,370.947 397.3165,377.947" style="fill:none;stroke:black;stroke-width:1" />
  <polyline points="455.3073,370.947 455.3073,377.947" style="fill:none;stroke:black;stroke-width:1" />
  <polyline points="519.5115,370.947 519.5115,377.947" style="fill:none;stroke:black;stroke-width:1" />
  <polyline points="581.6445,370.947 581.6445,377.947" style="fill:none;stroke:black;stroke-width:1" />
  <polyline points="39.016,363.4208 43.1582,360.5537 49.3715,362.4651 51.4426,360.5537 53.5137,361.828 55.5848,360.2352 57.6559,360.5537 63.8692,360.8723 65.9403,363.4208 68.0114,363.7394 70.0825,363.1023 72.1536,363.1023 78.3669,365.3322 80.438,366.2879 82.5091,366.2879 84.5802,365.6508 86.6513,365.9693 92.8646,365.9693 94.9357,367.5622 97.0068,366.6065 99.0779,364.6951 101.149,363.4208 107.3623,360.2352 109.4334,358.0052 111.5045,354.8195 113.5756,354.501 115.6467,353.5453 121.86,356.4124 123.9311,357.0495 126.0022,356.7309 128.0733,355.4567 130.1444,353.8638 136.3578,346.2183 138.4289,347.174 140.5,347.4925 142.5711,342.714 144.6422,338.2541 150.8555,333.1571 152.9266,337.617 154.9977,333.4756 157.0688,329.0157 159.1399,327.7414 165.3532,318.1845 167.4243,325.5115 169.4954,321.6887 171.5665,313.0874 173.6376,300.6633 179.8509,284.735 181.922,285.6907 183.9931,283.7793 186.0642,269.1253 188.1353,266.2582 194.3486,223.2518 196.4197,235.0387 198.4908,235.0387 200.5619,231.5345 202.633,212.4206 208.8463,218.4733 210.9174,250.3299 212.9885,243.3215 215.0596,234.083 217.1307,230.2603 223.344,208.9163 225.4151,221.9775 227.4862,212.7391 231.6284,194.8994 237.8417,191.0766 239.9128,208.9163 241.9839,213.6948 244.055,193.6252 246.1261,209.2349 252.3394,223.8889 254.4105,235.6759 256.4816,231.5345 258.5527,241.4101 260.6238,226.4375 266.8371,207.6421 268.9082,218.1548 270.9793,234.4016 273.0504,228.6674 275.1215,236.9501 281.3348,197.1294 283.4059,214.0134 285.477,223.2518 287.5481,207.3235 289.6192,197.1294 295.8325,165.2728 297.9036,185.3425 299.9747,192.988 302.0458,182.1568 304.1169,164.9542 310.3302,140.4247 312.4013,159.2201 314.4724,175.1484 324.828,139.469 326.8991,156.6715 328.9702,169.4142 331.0413,156.0344 339.3257,156.353 341.3968,173.5555 343.4679,197.7665 345.539,203.1822 347.6101,184.7053 355.8945,220.0661 357.9656,236.313 360.0367,229.3046 362.1078,247.1443 368.3211,257.6569 370.3922,276.1338 372.4633,280.9122 374.5344,279.638 376.6055,276.7709 382.8188,276.4523 386.961,283.7793 389.0321,270.3996 391.1032,261.7983 397.3165,263.0725 399.3876,277.7266 401.4587,290.4692 403.5298,284.4165 405.6009,284.4165 411.8142,295.8848 413.8853,304.1676 415.9564,299.3891 418.0275,289.8321 420.0986,280.2751 426.3119,287.2836 428.383,310.8574 430.4541,309.5832 432.5252,302.8933 434.5963,317.2288 440.8096,323.2815 442.8807,329.0157 444.9518,325.1929 447.0229,323.9186 449.094,325.5115 455.3073,327.1043 457.3784,335.0684 459.4495,329.6528 461.5206,312.4503 463.5917,311.4946 469.805,298.4334 471.8761,298.4334 473.9472,293.3363 476.0183,285.3722 478.0894,275.4966 484.3027,268.8067 486.3738,269.7624 488.4449,270.3996 490.516,250.3299 492.5871,236.6316 498.8004,219.7476 500.8716,220.0661 502.9427,221.3404 505.0138,199.3594 507.0849,195.218 513.2982,192.3509 515.3693,214.9691 517.4404,219.429 519.5115,211.7834 521.5826,188.5281 529.867,174.1927 531.9381,176.7412 534.0092,153.4859 536.0803,148.3888 542.2936,142.6546 544.3647,144.2475 546.4358,126.7263 548.5069,113.6651 550.578,116.2137 556.7913,99.9668 558.8624,95.1883 560.9335,72.8887 563.0046,44.5363 565.0757,32.4308 571.289,42.3064 573.3601,49.3148 575.4312,66.1988 577.5023,77.6672 579.5734,71.2959 585.7867,109.8423 587.8578,105.701 589.9289,125.7706 592,134.6905" style="fill:none;stroke:rgb(31,119,180);stroke-width:2;stroke-linejoin:bevel" />
  <text dominant-baseline="hanging" text-anchor="middle" transform="translate(315.508,8)" font-family="Segoe UI" font-size="18" font-weight="700" fill="black">Aktive Fälle Stadt Aachen 06.05.2021</text>
  <polygon points="39.016,29.0795 592,29.0795 592,370.947 39.016,370.947" style="fill:none;stroke:black;stroke-width:1" />
  <polygon points="47.016,37.0795 233.487,37.0795 233.487,63.1325 47.016,63.1325" style="fill:none;stroke:none;" />
  <text dominant-baseline="hanging" text-anchor="start" transform="translate(75.016,45.0795)" font-family="Segoe UI" font-size="12" font-weight="400" fill="black">Aktive Fälle Stadt Aachen 06.05.2021</text>
  <polyline points="55.016,50.106 71.016,50.106" style="fill:none;stroke:rgb(31,119,180);stroke-width:2" />
</svg>