<?xml version="1.0" encoding="utf-8" standalone="no"?>
<!DOCTYPE svg PUBLIC "-//W3C//DTD SVG 1.1//EN" "http://www.w3.org/Graphics/SVG/1.1/DTD/svg11.dtd">
<svg width="600" height="400" version="1.1" xmlns:xlink="http://www.w3.org/1999/xlink" xmlns="http://www.w3.org/2000/svg">
  <rect x="0" y="0" width="600" height="400" style="fill:rgb(255,255,255);stroke:none;" />
  <polyline points="39.016,357.0495 35.016,357.0495" style="fill:none;stroke:black;stroke-width:1" />
  <polyline points="39.016,341.1212 35.016,341.1212" style="fill:none;stroke:black;stroke-width:1" />
  <polyline points="39.016,325.1929 35.016,325.1929" style="fill:none;stroke:black;stroke-width:1" />
  <polyline points="39.016,293.3363 35.016,293.3363" style="fill:none;stroke:black;stroke-width:1" />
  <polyline points="39.016,277.408 35.016,277.408" style="fill:none;stroke:black;stroke-width:1" />
  <polyline points="39.016,261.4797 35.016,261.4797" style="fill:none;stroke:black;stroke-width:1" />
  <polyline points="39.016,229.6231 35.016,229.6231" style="fill:none;stroke:black;stroke-width:1" />
  <polyline points="39.016,213.6948 35.016,213.6948" style="fill:none;stroke:black;stroke-width:1" />
  <polyline points="39.016,197.7665 35.016,197.7665" style="fill:none;stroke:black;stroke-width:1" />
  <polyline points="39.016,165.9099 35.016,165.9099" style="fill:none;stroke:black;stroke-width:1" />
  <polyline points="39.016,149.9816 35.016,149.9816" style="fill:none;stroke:black;stroke-width:1" />
  <polyline points="39.016,134.0533 35.016,134.0533" style="fill:none;stroke:black;stroke-width:1" />
  <polyline points="39.016,102.1968 35.016,102.1968" style="fill:none;stroke:black;stroke-width:1" />
  <polyline points="39.016,86.2685 35.016,86.2685" style="fill:none;stroke:black;stroke-width:1" />
  <polyline points="39.016,70.3402 35.016,70.3402" style="fill:none;stroke:black;stroke-width:1" />
  <polyline points="39.016,38.4836 35.016,38.4836" style="fill:none;stroke:black;stroke-width:1" />
  <polyline points="71.7369,370.947 71.7369,374.947" style="fill:none;stroke:black;stroke-width:1" />
  <polyline points="171.5358,370.947 171.5358,374.947" style="fill:none;stroke:black;stroke-width:1" />
  <polyline points="271.3347,370.947 271.3347,374.947" style="fill:none;stroke:black;stroke-width:1" />
  <polyline points="367.8615,370.947 367.8615,374.947" style="fill:none;stroke:black;stroke-width:1" />
  <polyline points="467.6604,370.947 467.6604,374.947" style="fill:none;stroke:black;stroke-width:1" />
  <polyline points="567.4593,370.947 567.4593,374.947" style="fill:none;stroke:black;stroke-width:1" />
  <text dominant-baseline="middle" text-anchor="end" transform="translate(28.016,309.2646)" font-family="Segoe UI" font-size="12" font-weight="400" fill="black">200</text>
  <text dominant-baseline="middle" text-anchor="end" transform="translate(28.016,245.5514)" font-family="Segoe UI" font-size="12" font-weight="400" fill="black">400</text>
  <text dominant-baseline="middle" text-anchor="end" transform="translate(28.016,181.8382)" font-family="Segoe UI" font-size="12" font-weight="400" fill="black">600</text>
  <text dominant-baseline="middle" text-anchor="end" transform="translate(28.016,118.125)" font-family="Segoe UI" font-size="12" font-weight="400" fill="black">800</text>
  <text dominant-baseline="middle" text-anchor="end" transform="translate(28.016,54.4119)" font-family="Segoe UI" font-size="12" font-weight="400" fill="black">1000</text>
  <polyline points="39.016,309.2646 32.016,309.2646" style="fill:none;stroke:black;stroke-width:1" />
  <polyline points="39.016,245.5514 32.016,245.5514" style="fill:none;stroke:black;stroke-width:1" />
  <polyline points="39.016,181.8382 32.016,181.8382" style="fill:none;stroke:black;stroke-width:1" />
  <polyline points="39.016,118.125 32.016,118.125" style="fill:none;stroke:black;stroke-width:1" />
  <polyline points="39.016,54.4119 32.016,54.4119" style="fill:none;stroke:black;stroke-width:1" />
  <text dominant-baseline="hanging" text-anchor="middle" transform="translate(120.8184,381.947)" font-family="Segoe UI" font-size="12" font-weight="400" fill="black">01. October</text>
  <text dominant-baseline="hanging" text-anchor="middle" transform="translate(220.6173,381.947)" font-family="Segoe UI" font-size="12" font-weight="400" fill="black">01. December</text>
  <text dominant-baseline="hanging" text-anchor="middle" transform="translate(322.0522,381.947)" font-family="Segoe UI" font-size="12" font-weight="400" fill="black">01. February</text>
  <text dominant-baseline="hanging" text-anchor="middle" transform="translate(418.579,381.947)" font-family="Segoe UI" font-size="12" font-weight="400" fill="black">01. April</text>
  <text dominant-baseline="hanging" text-anchor="middle" transform="translate(518.3779,381.947)" font-family="Segoe UI" font-size="12" font-weight="400" fill="black">01. June</text>
  <polyline points="120.8184,370.947 120.8184,377.947" style="fill:none;stroke:black;stroke-width:1" />
  <polyline points="220.6173,370.947 220.6173,377.947" style="fill:none;stroke:black;stroke-width:1" />
  <polyline points="322.0522,370.947 322.0522,377.947" style="fill:none;stroke:black;stroke-width:1" />
  <polyline points="418.579,370.947 418.579,377.947" style="fill:none;stroke:black;stroke-width:1" />
  <polyline points="518.3779,370.947 518.3779,377.947" style="fill:none;stroke:black;stroke-width:1" />
  <polyline points="39.016,363.4208 42.2881,360.5537 47.1962,362.4651 48.8323,360.5537 50.4683,361.828 52.1044,360.2352 53.7404,360.5537 58.6486,360.8723 60.2846,363.4208 61.9207,363.7394 63.5567,363.1023 65.1928,363.1023 70.1009,365.3322 71.7369,366.2879 73.373,366.2879 75.009,365.6508 76.6451,365.9693 81.5532,365.9693 83.1893,367.5622 84.8253,366.6065 86.4614,364.6951 88.0974,363.4208 93.0056,360.2352 94.6416,358.0052 96.2777,354.8195 97.9137,354.501 99.5498,353.5453 104.4579,356.4124 106.0939,357.0495 107.73,356.7309 109.366,355.4567 111.0021,353.8638 115.9102,346.2183 117.5463,347.174 119.1823,347.4925 120.8184,342.714 122.4544,338.2541 127.3626,333.1571 128.9986,337.617 130.6347,333.4756 132.2707,329.0157 133.9067,327.7414 138.8149,318.1845 140.4509,325.5115 142.087,321.6887 143.723,313.0874 145.3591,300.6633 150.2672,284.735 151.9033,285.6907 153.5393,283.7793 155.1754,269.1253 156.8114,266.2582 161.7196,223.2518 163.3556,235.0387 164.9916,235.0387 166.6277,231.5345 168.2637,212.4206 173.1719,218.4733 174.8079,250.3299 176.444,243.3215 178.08,234.083 179.7161,230.2603 184.6242,208.9163 186.2603,221.9775 187.8963,212.7391 191.1684,194.8994 196.0765,191.0766 197.7126,208.9163 199.3486,213.6948 200.9847,193.6252 202.6207,209.2349 207.5289,223.8889 209.1649,235.6759 210.801,231.5345 212.437,241.4101 214.0731,226.4375 218.9812,207.6421 220.6173,218.1548 222.2533,234.4016 223.8893,228.6674 225.5254,236.9501 230.4335,197.1294 232.0696,214.0134 233.7056,223.2518 235.3417,207.3235 236.9777,197.1294 241.8859,165.2728 243.5219,185.3425 245.158,192.988 246.794,182.1568 248.4301,164.9542 253.3382,140.4247 254.9742,159.2201 256.6103,175.1484 264.7905,139.469 266.4266,156.6715 268.0626,169.4142 269.6987,156.0344 276.2429,156.353 277.8789,173.5555 279.515,197.7665 281.151,203.1822 282.7871,184.7053 289.3312,220.0661 290.9673,236.313 292.6033,229.3046 294.2394,247.1443 299.1475,257.6569 300.7836,276.1338 302.4196,280.9122 304.0557,279.638 305.6917,276.7709 310.5999,276.4523 313.872,283.7793 315.508,270.3996 317.144,261.7983 322.0522,263.0725 323.6882,277.7266 325.3243,290.4692 326.9603,284.4165 328.5964,284.4165 333.5045,295.8848 335.1406,304.1676 336.7766,299.3891 338.4127,289.8321 340.0487,280.2751 344.9569,287.2836 346.5929,310.8574 348.2289,309.5832 349.865,302.8933 351.501,317.2288 356.4092,323.2815 358.0452,329.0157 359.6813,325.1929 361.3173,323.9186 362.9534,325.5115 367.8615,327.1043 369.4976,335.0684 371.1336,329.6528 372.7697,312.4503 374.4057,311.4946 379.3138,298.4334 380.9499,298.4334 382.5859,293.3363 384.222,285.3722 385.858,275.4966 390.7662,268.8067 392.4022,269.7624 394.0383,270.3996 395.6743,250.3299 397.3104,236.6316 402.2185,219.7476 403.8546,220.0661 405.4906,221.3404 407.1267,199.3594 408.7627,195.218 413.6708,192.3509 415.3069,214.9691 416.9429,219.429 418.579,211.7834 420.215,188.5281 426.7592,174.1927 428.3953,176.7412 430.0313,153.4859 431.6674,148.3888 436.5755,142.6546 438.2116,144.2475 439.8476,126.7263 441.4836,113.6651 443.1197,116.2137 448.0278,99.9668 449.6639,95.1883 451.2999,72.8887 452.936,44.5363 454.572,32.4308 459.4802,42.3064 461.1162,49.3148 462.7523,66.1988 464.3883,77.6672 466.0244,71.2959 470.9325,109.8423 472.5685,105.701 474.2046,125.7706 475.8406,134.6905 477.4767,148.3888 482.3848,149.0259 484.0209,175.7855 485.6569,170.6884 488.929,185.3425 493.8372,171.9627 495.4732,185.661 497.1093,186.2982 498.7453,180.564 500.3813,185.0239 506.9255,213.3763 508.5616,232.8088 510.1976,239.8172 511.8337,234.7202 516.7418,261.4797 518.3779,282.1865 520.0139,289.195 523.286,301.9376 528.1942,310.5389 529.8302,317.8659 531.4662,328.6971 533.1023,332.5199 534.7383,337.2984 539.6465,338.5727 541.2825,337.617 542.9186,348.7668 544.5546,348.1297 546.1907,349.7225 551.0988,350.6782 552.7349,351.9524 554.3709,352.5896 556.007,352.9081 557.643,352.9081 562.5511,354.1824 564.1872,356.0938 565.8232,355.7752 567.4593,353.5453 569.0953,354.8195 574.0035,356.0938 577.2756,355.7752 580.5477,356.4124 585.4558,356.0938 588.7279,355.1381 592,348.7668" style="fill:none;stroke:rgb(31,119,180);stroke-width:2;stroke-linejoin:bevel" />
  <text dominant-baseline="hanging" text-anchor="middle" transform="translate(315.508,8)" font-family="Segoe UI" font-size="18" font-weight="700" fill="black">Aktive Fälle Stadt Aachen 16.07.2021</text>
  <polygon points="39.016,29.0795 592,29.0795 592,370.947 39.016,370.947" style="fill:none;stroke:black;stroke-width:1" />
  <polygon points="47.016,37.0795 233.487,37.0795 233.487,63.1325 47.016,63.1325" style="fill:none;stroke:none;" />
  <text dominant-baseline="hanging" text-anchor="start" transform="translate(75.016,45.0795)" font-family="Segoe UI" font-size="12" font-weight="400" fill="black">Aktive Fälle Stadt Aachen 16.07.2021</text>
  <polyline points="55.016,50.106 71.016,50.106" style="fill:none;stroke:rgb(31,119,180);stroke-width:2" />
</svg>