<?xml version="1.0" encoding="utf-8" standalone="no"?>
<!DOCTYPE svg PUBLIC "-//W3C//DTD SVG 1.1//EN" "http://www.w3.org/Graphics/SVG/1.1/DTD/svg11.dtd">
<svg width="600" height="400" version="1.1" xmlns:xlink="http://www.w3.org/1999/xlink" xmlns="http://www.w3.org/2000/svg">
  <rect x="0" y="0" width="600" height="400" style="fill:rgb(255,255,255);stroke:none;" />
  <polyline points="34.012,352.1162 30.012,352.1162" style="fill:none;stroke:black;stroke-width:1" />
  <polyline points="34.012,328.7131 30.012,328.7131" style="fill:none;stroke:black;stroke-width:1" />
  <polyline points="34.012,305.3101 30.012,305.3101" style="fill:none;stroke:black;stroke-width:1" />
  <polyline points="34.012,258.5041 30.012,258.5041" style="fill:none;stroke:black;stroke-width:1" />
  <polyline points="34.012,235.101 30.012,235.101" style="fill:none;stroke:black;stroke-width:1" />
  <polyline points="34.012,211.698 30.012,211.698" style="fill:none;stroke:black;stroke-width:1" />
  <polyline points="34.012,164.892 30.012,164.892" style="fill:none;stroke:black;stroke-width:1" />
  <polyline points="34.012,141.4889 30.012,141.4889" style="fill:none;stroke:black;stroke-width:1" />
  <polyline points="34.012,118.0859 30.012,118.0859" style="fill:none;stroke:black;stroke-width:1" />
  <polyline points="34.012,71.2798 30.012,71.2798" style="fill:none;stroke:black;stroke-width:1" />
  <polyline points="34.012,47.8768 30.012,47.8768" style="fill:none;stroke:black;stroke-width:1" />
  <text dominant-baseline="middle" text-anchor="end" transform="translate(23.012,281.9071)" font-family="Segoe UI" font-size="12" font-weight="400" fill="black">200</text>
  <text dominant-baseline="middle" text-anchor="end" transform="translate(23.012,188.295)" font-family="Segoe UI" font-size="12" font-weight="400" fill="black">400</text>
  <text dominant-baseline="middle" text-anchor="end" transform="translate(23.012,94.6829)" font-family="Segoe UI" font-size="12" font-weight="400" fill="black">600</text>
  <polyline points="34.012,281.9071 27.012,281.9071" style="fill:none;stroke:black;stroke-width:1" />
  <polyline points="34.012,188.295 27.012,188.295" style="fill:none;stroke:black;stroke-width:1" />
  <polyline points="34.012,94.6829 27.012,94.6829" style="fill:none;stroke:black;stroke-width:1" />
  <text dominant-baseline="hanging" text-anchor="middle" transform="translate(85.6776,381.947)" font-family="Segoe UI" font-size="12" font-weight="400" fill="black">01. September</text>
  <text dominant-baseline="hanging" text-anchor="middle" transform="translate(163.1759,381.947)" font-family="Segoe UI" font-size="12" font-weight="400" fill="black">01. October</text>
  <text dominant-baseline="hanging" text-anchor="middle" transform="translate(243.2575,381.947)" font-family="Segoe UI" font-size="12" font-weight="400" fill="black">01. November</text>
  <text dominant-baseline="hanging" text-anchor="middle" transform="translate(320.7558,381.947)" font-family="Segoe UI" font-size="12" font-weight="400" fill="black">01. December</text>
  <text dominant-baseline="hanging" text-anchor="middle" transform="translate(400.8374,381.947)" font-family="Segoe UI" font-size="12" font-weight="400" fill="black">01. January</text>
  <text dominant-baseline="hanging" text-anchor="middle" transform="translate(480.9191,381.947)" font-family="Segoe UI" font-size="12" font-weight="400" fill="black">01. February</text>
  <text dominant-baseline="hanging" text-anchor="middle" transform="translate(553.2508,381.947)" font-family="Segoe UI" font-size="12" font-weight="400" fill="black">01. March</text>
  <polyline points="85.6776,370.947 85.6776,377.947" style="fill:none;stroke:black;stroke-width:1" />
  <polyline points="163.1759,370.947 163.1759,377.947" style="fill:none;stroke:black;stroke-width:1" />
  <polyline points="243.2575,370.947 243.2575,377.947" style="fill:none;stroke:black;stroke-width:1" />
  <polyline points="320.7558,370.947 320.7558,377.947" style="fill:none;stroke:black;stroke-width:1" />
  <polyline points="400.8374,370.947 400.8374,377.947" style="fill:none;stroke:black;stroke-width:1" />
  <polyline points="480.9191,370.947 480.9191,377.947" style="fill:none;stroke:black;stroke-width:1" />
  <polyline points="553.2508,370.947 553.2508,377.947" style="fill:none;stroke:black;stroke-width:1" />
  <polyline points="34.012,361.4774 39.1786,357.2648 46.9284,360.0732 49.5117,357.2648 52.0949,359.1371 54.6782,356.7968 57.2615,357.2648 65.0113,357.7329 67.5946,361.4774 70.1779,361.9454 72.7612,361.0093 75.3444,361.0093 83.0943,364.2857 85.6776,365.6899 88.2608,365.6899 90.8441,364.7538 93.4274,365.2219 101.1772,365.2219 103.7605,367.5622 106.3438,366.158 108.9271,363.3496 111.5103,361.4774 119.2602,356.7968 121.8434,353.5204 124.4267,348.8398 127.01,348.3717 129.5933,346.9675 137.3431,351.1801 139.9264,352.1162 142.5097,351.6481 145.0929,349.7759 147.6762,347.4356 155.4261,336.2021 158.0093,337.6063 160.5926,338.0744 163.1759,331.0534 165.7592,324.5006 173.509,317.0116 176.0923,323.5645 178.6756,317.4797 181.2588,310.9268 183.8421,309.0546 191.5919,295.0128 194.1752,305.7782 196.7585,300.1615 199.3418,287.5238 201.9251,269.2695 209.6749,245.8664 212.2582,247.2706 214.8414,244.4622 217.4247,222.9315 220.008,218.7189 227.7578,155.5307 230.3411,172.849 232.9244,172.849 235.5077,167.7003 238.0909,139.6167 245.8408,148.5098 248.4241,195.3159 251.0073,185.0186 253.5906,171.4448 256.1739,165.8281 263.9237,134.468 266.507,153.6585 269.0903,140.0847 274.2568,113.8734 282.0067,108.2566 284.5899,134.468 287.1732,141.4889 289.7565,112.0011 292.3398,134.9361 300.0896,156.4669 302.6729,173.7851 305.2562,167.7003 307.8394,182.2102 310.4227,160.2113 318.1726,132.5958 320.7558,148.0418 323.3391,171.9129 325.9224,163.4878 328.5057,175.6573 336.2555,117.1498 338.8388,141.957 341.4221,155.5307 344.0053,132.1277 346.5886,117.1498 354.3384,70.3437 356.9217,99.8315 359.505,111.065 362.0883,95.1509 364.6716,69.8757 372.4214,33.835 375.0047,61.4506 377.5879,84.8536 390.5043,32.4308 393.0876,57.7061 395.6709,76.4285 398.2542,56.77 408.5873,57.238 411.1706,82.5133 413.7538,118.0859 416.3371,126.0429 418.9204,98.8954 429.2535,150.8501 431.8368,174.7212 434.4201,164.4239 437.0033,190.6353 444.7532,206.0813 447.3364,233.2288 449.9197,240.2497 452.503,238.3775 455.0863,234.1649 462.8361,233.6969 468.0027,244.4622 470.5859,224.8037 473.1692,212.1661 480.9191,214.0383 483.5023,235.5691 486.0856,254.2915 488.6689,245.3984 491.2522,245.3984 499.002,262.2485 501.5853,274.4181 504.1686,267.3972 506.7518,253.3554 509.3351,239.3136 517.0849,249.6109 519.6682,284.2474 522.2515,282.3752 524.8348,272.5459 527.4181,293.6086 535.1679,302.5018 537.7512,310.9268 540.3344,305.3101 542.9177,303.4379 545.501,305.7782 553.2508,308.1185 555.8341,319.82 558.4174,311.863 561.0007,286.5877 563.5839,285.1835 571.3338,265.993 573.9171,265.993 576.5003,258.5041 579.0836,246.8025 581.6669,232.2927 589.4167,222.4634 592,223.8676" style="fill:none;stroke:rgb(31,119,180);stroke-width:2;stroke-linejoin:bevel" />
  <text dominant-baseline="hanging" text-anchor="middle" transform="translate(313.006,8)" font-family="Segoe UI" font-size="18" font-weight="700" fill="black">Aktive Fälle Stadt Aachen 16.03.2021</text>
  <polygon points="34.012,29.0795 592,29.0795 592,370.947 34.012,370.947" style="fill:none;stroke:black;stroke-width:1" />
  <polygon points="42.012,37.0795 228.483,37.0795 228.483,63.1325 42.012,63.1325" style="fill:none;stroke:none;" />
  <text dominant-baseline="hanging" text-anchor="start" transform="translate(70.012,45.0795)" font-family="Segoe UI" font-size="12" font-weight="400" fill="black">Aktive Fälle Stadt Aachen 16.03.2021</text>
  <polyline points="50.012,50.106 66.012,50.106" style="fill:none;stroke:rgb(31,119,180);stroke-width:2" />
</svg>