<?xml version="1.0" encoding="utf-8" standalone="no"?>
<!DOCTYPE svg PUBLIC "-//W3C//DTD SVG 1.1//EN" "http://www.w3.org/Graphics/SVG/1.1/DTD/svg11.dtd">
<svg width="600" height="400" version="1.1" xmlns:xlink="http://www.w3.org/1999/xlink" xmlns="http://www.w3.org/2000/svg">
  <rect x="0" y="0" width="600" height="400" style="fill:rgb(255,255,255);stroke:none;" />
  <polyline points="34.012,352.0512 30.012,352.0512" style="fill:none;stroke:black;stroke-width:1" />
  <polyline points="34.012,328.5497 30.012,328.5497" style="fill:none;stroke:black;stroke-width:1" />
  <polyline points="34.012,305.0482 30.012,305.0482" style="fill:none;stroke:black;stroke-width:1" />
  <polyline points="34.012,258.0452 30.012,258.0452" style="fill:none;stroke:black;stroke-width:1" />
  <polyline points="34.012,234.5437 30.012,234.5437" style="fill:none;stroke:black;stroke-width:1" />
  <polyline points="34.012,211.0422 30.012,211.0422" style="fill:none;stroke:black;stroke-width:1" />
  <polyline points="34.012,164.0392 30.012,164.0392" style="fill:none;stroke:black;stroke-width:1" />
  <polyline points="34.012,140.5377 30.012,140.5377" style="fill:none;stroke:black;stroke-width:1" />
  <polyline points="34.012,117.0362 30.012,117.0362" style="fill:none;stroke:black;stroke-width:1" />
  <polyline points="34.012,70.0332 30.012,70.0332" style="fill:none;stroke:black;stroke-width:1" />
  <polyline points="34.012,46.5317 30.012,46.5317" style="fill:none;stroke:black;stroke-width:1" />
  <text dominant-baseline="middle" text-anchor="end" transform="translate(23.012,281.5467)" font-family="Segoe UI" font-size="12" font-weight="400" fill="black">200</text>
  <text dominant-baseline="middle" text-anchor="end" transform="translate(23.012,187.5407)" font-family="Segoe UI" font-size="12" font-weight="400" fill="black">400</text>
  <text dominant-baseline="middle" text-anchor="end" transform="translate(23.012,93.5347)" font-family="Segoe UI" font-size="12" font-weight="400" fill="black">600</text>
  <polyline points="34.012,281.5467 27.012,281.5467" style="fill:none;stroke:black;stroke-width:1" />
  <polyline points="34.012,187.5407 27.012,187.5407" style="fill:none;stroke:black;stroke-width:1" />
  <polyline points="34.012,93.5347 27.012,93.5347" style="fill:none;stroke:black;stroke-width:1" />
  <text dominant-baseline="hanging" text-anchor="middle" transform="translate(118.5556,381.947)" font-family="Segoe UI" font-size="12" font-weight="400" fill="black">01. September</text>
  <text dominant-baseline="hanging" text-anchor="middle" transform="translate(245.3711,381.947)" font-family="Segoe UI" font-size="12" font-weight="400" fill="black">01. October</text>
  <text dominant-baseline="hanging" text-anchor="middle" transform="translate(376.4137,381.947)" font-family="Segoe UI" font-size="12" font-weight="400" fill="black">01. November</text>
  <text dominant-baseline="hanging" text-anchor="middle" transform="translate(503.2292,381.947)" font-family="Segoe UI" font-size="12" font-weight="400" fill="black">01. December</text>
  <polyline points="118.5556,370.947 118.5556,377.947" style="fill:none;stroke:black;stroke-width:1" />
  <polyline points="245.3711,370.947 245.3711,377.947" style="fill:none;stroke:black;stroke-width:1" />
  <polyline points="376.4137,370.947 376.4137,377.947" style="fill:none;stroke:black;stroke-width:1" />
  <polyline points="503.2292,370.947 503.2292,377.947" style="fill:none;stroke:black;stroke-width:1" />
  <polyline points="34.012,361.4518 42.4664,357.2215 55.1479,360.0417 59.3751,357.2215 63.6023,359.1016 67.8295,356.7515 72.0566,357.2215 84.7382,357.6915 88.9654,361.4518 93.1925,361.9218 97.4197,360.9818 101.6469,360.9818 114.3285,364.272 118.5556,365.6821 122.7828,365.6821 127.01,364.742 131.2372,365.212 143.9187,365.212 148.1459,367.5622 152.3731,366.1521 156.6003,363.3319 160.8275,361.4518 173.509,356.7515 177.7362,353.4613 181.9634,348.761 186.1905,348.2909 190.4177,346.8809 203.0993,351.1111 207.3265,352.0512 211.5536,351.5812 215.7808,349.701 220.008,347.3509 232.6895,336.0702 236.9167,337.4803 241.1439,337.9503 245.3711,330.8998 249.5983,324.3194 262.2798,316.7989 266.507,323.3794 270.7342,317.269 274.9614,310.6885 279.1885,308.8084 291.8701,294.7075 296.0973,305.5182 300.3245,299.8779 304.5516,287.1871 308.7788,268.8559 321.4604,245.3544 325.6875,246.7645 329.9147,243.9443 334.1419,222.3229 338.3691,218.0926 351.0506,154.6386 355.2778,172.0297 359.505,172.0297 363.7322,166.8594 367.9594,138.6576 380.6409,147.5882 384.8681,194.5911 389.0953,184.2505 393.3225,170.6196 397.5496,164.9793 410.2312,133.4873 414.4584,152.7585 418.6855,139.1276 427.1399,112.8059 439.8215,107.1656 444.0486,133.4873 448.2758,140.5377 452.503,110.9258 456.7302,133.9573 469.4117,155.5787 473.6389,172.9698 477.8661,166.8594 482.0933,181.4303 486.3205,159.3389 499.002,131.6071 503.2292,147.1181 507.4564,171.0897 511.6835,162.6291 515.9107,174.8499 528.5923,116.0961 532.8195,141.0077 537.0466,154.6386 541.2738,131.1371 545.501,116.0961 558.1825,69.0932 562.4097,98.705 566.6369,109.9858 570.8641,94.0047 575.0913,68.6231 587.7728,32.4308 592,60.1626" style="fill:none;stroke:rgb(31,119,180);stroke-width:2;stroke-linejoin:bevel" />
  <text dominant-baseline="hanging" text-anchor="middle" transform="translate(313.006,8)" font-family="Segoe UI" font-size="18" font-weight="700" fill="black">Aktive Fälle Stadt Aachen 22.12.2020</text>
  <polygon points="34.012,29.0795 592,29.0795 592,370.947 34.012,370.947" style="fill:none;stroke:black;stroke-width:1" />
  <polygon points="42.012,37.0795 228.483,37.0795 228.483,63.1325 42.012,63.1325" style="fill:none;stroke:none;" />
  <text dominant-baseline="hanging" text-anchor="start" transform="translate(70.012,45.0795)" font-family="Segoe UI" font-size="12" font-weight="400" fill="black">Aktive Fälle Stadt Aachen 22.12.2020</text>
  <polyline points="50.012,50.106 66.012,50.106" style="fill:none;stroke:rgb(31,119,180);stroke-width:2" />
</svg>