<?xml version="1.0" encoding="utf-8" standalone="no"?>
<!DOCTYPE svg PUBLIC "-//W3C//DTD SVG 1.1//EN" "http://www.w3.org/Graphics/SVG/1.1/DTD/svg11.dtd">
<svg width="600" height="400" version="1.1" xmlns:xlink="http://www.w3.org/1999/xlink" xmlns="http://www.w3.org/2000/svg">
  <rect x="0" y="0" width="600" height="400" style="fill:rgb(255,255,255);stroke:none;" />
  <polyline points="34.012,352.1162 30.012,352.1162" style="fill:none;stroke:black;stroke-width:1" />
  <polyline points="34.012,328.7131 30.012,328.7131" style="fill:none;stroke:black;stroke-width:1" />
  <polyline points="34.012,305.3101 30.012,305.3101" style="fill:none;stroke:black;stroke-width:1" />
  <polyline points="34.012,258.5041 30.012,258.5041" style="fill:none;stroke:black;stroke-width:1" />
  <polyline points="34.012,235.101 30.012,235.101" style="fill:none;stroke:black;stroke-width:1" />
  <polyline points="34.012,211.698 30.012,211.698" style="fill:none;stroke:black;stroke-width:1" />
  <polyline points="34.012,164.892 30.012,164.892" style="fill:none;stroke:black;stroke-width:1" />
  <polyline points="34.012,141.4889 30.012,141.4889" style="fill:none;stroke:black;stroke-width:1" />
  <polyline points="34.012,118.0859 30.012,118.0859" style="fill:none;stroke:black;stroke-width:1" />
  <polyline points="34.012,71.2798 30.012,71.2798" style="fill:none;stroke:black;stroke-width:1" />
  <polyline points="34.012,47.8768 30.012,47.8768" style="fill:none;stroke:black;stroke-width:1" />
  <text dominant-baseline="middle" text-anchor="end" transform="translate(23.012,281.9071)" font-family="Segoe UI" font-size="12" font-weight="400" fill="black">200</text>
  <text dominant-baseline="middle" text-anchor="end" transform="translate(23.012,188.295)" font-family="Segoe UI" font-size="12" font-weight="400" fill="black">400</text>
  <text dominant-baseline="middle" text-anchor="end" transform="translate(23.012,94.6829)" font-family="Segoe UI" font-size="12" font-weight="400" fill="black">600</text>
  <polyline points="34.012,281.9071 27.012,281.9071" style="fill:none;stroke:black;stroke-width:1" />
  <polyline points="34.012,188.295 27.012,188.295" style="fill:none;stroke:black;stroke-width:1" />
  <polyline points="34.012,94.6829 27.012,94.6829" style="fill:none;stroke:black;stroke-width:1" />
  <text dominant-baseline="hanging" text-anchor="middle" transform="translate(98.1486,381.947)" font-family="Segoe UI" font-size="12" font-weight="400" fill="black">01. September</text>
  <text dominant-baseline="hanging" text-anchor="middle" transform="translate(194.3534,381.947)" font-family="Segoe UI" font-size="12" font-weight="400" fill="black">01. October</text>
  <text dominant-baseline="hanging" text-anchor="middle" transform="translate(293.765,381.947)" font-family="Segoe UI" font-size="12" font-weight="400" fill="black">01. November</text>
  <text dominant-baseline="hanging" text-anchor="middle" transform="translate(389.9699,381.947)" font-family="Segoe UI" font-size="12" font-weight="400" fill="black">01. December</text>
  <text dominant-baseline="hanging" text-anchor="middle" transform="translate(489.3815,381.947)" font-family="Segoe UI" font-size="12" font-weight="400" fill="black">01. January</text>
  <text dominant-baseline="hanging" text-anchor="middle" transform="translate(588.7932,381.947)" font-family="Segoe UI" font-size="12" font-weight="400" fill="black">01. February</text>
  <polyline points="98.1486,370.947 98.1486,377.947" style="fill:none;stroke:black;stroke-width:1" />
  <polyline points="194.3534,370.947 194.3534,377.947" style="fill:none;stroke:black;stroke-width:1" />
  <polyline points="293.765,370.947 293.765,377.947" style="fill:none;stroke:black;stroke-width:1" />
  <polyline points="389.9699,370.947 389.9699,377.947" style="fill:none;stroke:black;stroke-width:1" />
  <polyline points="489.3815,370.947 489.3815,377.947" style="fill:none;stroke:black;stroke-width:1" />
  <polyline points="588.7932,370.947 588.7932,377.947" style="fill:none;stroke:black;stroke-width:1" />
  <polyline points="34.012,361.4774 40.4257,357.2648 50.0461,360.0732 53.253,357.2648 56.4598,359.1371 59.6666,356.7968 62.8734,357.2648 72.4939,357.7329 75.7008,361.4774 78.9076,361.9454 82.1144,361.0093 85.3212,361.0093 94.9417,364.2857 98.1486,365.6899 101.3554,365.6899 104.5622,364.7538 107.769,365.2219 117.3895,365.2219 120.5963,367.5622 123.8032,366.158 127.01,363.3496 130.2168,361.4774 139.8373,356.7968 143.0441,353.5204 146.251,348.8398 149.4578,348.3717 152.6646,346.9675 162.2851,351.1801 165.4919,352.1162 168.6988,351.6481 171.9056,349.7759 175.1124,347.4356 184.7329,336.2021 187.9397,337.6063 191.1466,338.0744 194.3534,331.0534 197.5602,324.5006 207.1807,317.0116 210.3875,323.5645 213.5943,317.4797 216.8012,310.9268 220.008,309.0546 229.6285,295.0128 232.8353,305.7782 236.0421,300.1615 239.249,287.5238 242.4558,269.2695 252.0763,245.8664 255.2831,247.2706 258.4899,244.4622 261.6968,222.9315 264.9036,218.7189 274.5241,155.5307 277.7309,172.849 280.9377,172.849 284.1446,167.7003 287.3514,139.6167 296.9719,148.5098 300.1787,195.3159 303.3855,185.0186 306.5923,171.4448 309.7992,165.8281 319.4197,134.468 322.6265,153.6585 325.8333,140.0847 332.247,113.8734 341.8674,108.2566 345.0743,134.468 348.2811,141.4889 351.4879,112.0011 354.6948,134.9361 364.3152,156.4669 367.5221,173.7851 370.7289,167.7003 373.9357,182.2102 377.1426,160.2113 386.763,132.5958 389.9699,148.0418 393.1767,171.9129 396.3835,163.4878 399.5903,175.6573 409.2108,117.1498 412.4177,141.957 415.6245,155.5307 418.8313,132.1277 422.0381,117.1498 431.6586,70.3437 434.8654,99.8315 438.0723,111.065 441.2791,95.1509 444.4859,69.8757 454.1064,33.835 457.3132,61.4506 460.5201,84.8536 476.5542,32.4308 479.761,57.7061 482.9679,76.4285 486.1747,56.77 499.002,57.238 502.2088,82.5133 505.4157,118.0859 508.6225,126.0429 511.8293,98.8954 524.6566,150.8501 527.8634,174.7212 531.0703,164.4239 534.2771,190.6353 543.8976,206.0813 547.1044,233.2288 550.3112,240.2497 553.5181,238.3775 556.7249,234.1649 566.3454,233.6969 572.759,244.4622 575.9659,224.8037 579.1727,212.1661 588.7932,214.0383 592,235.5691" style="fill:none;stroke:rgb(31,119,180);stroke-width:2;stroke-linejoin:bevel" />
  <text dominant-baseline="hanging" text-anchor="middle" transform="translate(313.006,8)" font-family="Segoe UI" font-size="18" font-weight="700" fill="black">Aktive Fälle Stadt Aachen 02.02.2021</text>
  <polygon points="34.012,29.0795 592,29.0795 592,370.947 34.012,370.947" style="fill:none;stroke:black;stroke-width:1" />
  <polygon points="42.012,37.0795 228.483,37.0795 228.483,63.1325 42.012,63.1325" style="fill:none;stroke:none;" />
  <text dominant-baseline="hanging" text-anchor="start" transform="translate(70.012,45.0795)" font-family="Segoe UI" font-size="12" font-weight="400" fill="black">Aktive Fälle Stadt Aachen 02.02.2021</text>
  <polyline points="50.012,50.106 66.012,50.106" style="fill:none;stroke:rgb(31,119,180);stroke-width:2" />
</svg>