<?xml version="1.0" encoding="utf-8" standalone="no"?>
<!DOCTYPE svg PUBLIC "-//W3C//DTD SVG 1.1//EN" "http://www.w3.org/Graphics/SVG/1.1/DTD/svg11.dtd">
<svg width="600" height="400" version="1.1" xmlns:xlink="http://www.w3.org/1999/xlink" xmlns="http://www.w3.org/2000/svg">
  <rect x="0" y="0" width="600" height="400" style="fill:rgb(255,255,255);stroke:none;" />
  <polyline points="39.016,367.1283 35.016,367.1283" style="fill:none;stroke:black;stroke-width:1" />
  <polyline points="39.016,351.3899 35.016,351.3899" style="fill:none;stroke:black;stroke-width:1" />
  <polyline points="39.016,335.6514 35.016,335.6514" style="fill:none;stroke:black;stroke-width:1" />
  <polyline points="39.016,304.1746 35.016,304.1746" style="fill:none;stroke:black;stroke-width:1" />
  <polyline points="39.016,288.4362 35.016,288.4362" style="fill:none;stroke:black;stroke-width:1" />
  <polyline points="39.016,272.6977 35.016,272.6977" style="fill:none;stroke:black;stroke-width:1" />
  <polyline points="39.016,241.2209 35.016,241.2209" style="fill:none;stroke:black;stroke-width:1" />
  <polyline points="39.016,225.4825 35.016,225.4825" style="fill:none;stroke:black;stroke-width:1" />
  <polyline points="39.016,209.744 35.016,209.744" style="fill:none;stroke:black;stroke-width:1" />
  <polyline points="39.016,178.2672 35.016,178.2672" style="fill:none;stroke:black;stroke-width:1" />
  <polyline points="39.016,162.5288 35.016,162.5288" style="fill:none;stroke:black;stroke-width:1" />
  <polyline points="39.016,146.7903 35.016,146.7903" style="fill:none;stroke:black;stroke-width:1" />
  <polyline points="39.016,115.3135 35.016,115.3135" style="fill:none;stroke:black;stroke-width:1" />
  <polyline points="39.016,99.5751 35.016,99.5751" style="fill:none;stroke:black;stroke-width:1" />
  <polyline points="39.016,83.8366 35.016,83.8366" style="fill:none;stroke:black;stroke-width:1" />
  <polyline points="39.016,52.3598 35.016,52.3598" style="fill:none;stroke:black;stroke-width:1" />
  <polyline points="39.016,36.6214 35.016,36.6214" style="fill:none;stroke:black;stroke-width:1" />
  <text dominant-baseline="middle" text-anchor="end" transform="translate(28.016,319.913)" font-family="Segoe UI" font-size="12" font-weight="400" fill="black">200</text>
  <text dominant-baseline="middle" text-anchor="end" transform="translate(28.016,256.9593)" font-family="Segoe UI" font-size="12" font-weight="400" fill="black">400</text>
  <text dominant-baseline="middle" text-anchor="end" transform="translate(28.016,194.0056)" font-family="Segoe UI" font-size="12" font-weight="400" fill="black">600</text>
  <text dominant-baseline="middle" text-anchor="end" transform="translate(28.016,131.0519)" font-family="Segoe UI" font-size="12" font-weight="400" fill="black">800</text>
  <text dominant-baseline="middle" text-anchor="end" transform="translate(28.016,68.0982)" font-family="Segoe UI" font-size="12" font-weight="400" fill="black">1000</text>
  <polyline points="39.016,319.913 32.016,319.913" style="fill:none;stroke:black;stroke-width:1" />
  <polyline points="39.016,256.9593 32.016,256.9593" style="fill:none;stroke:black;stroke-width:1" />
  <polyline points="39.016,194.0056 32.016,194.0056" style="fill:none;stroke:black;stroke-width:1" />
  <polyline points="39.016,131.0519 32.016,131.0519" style="fill:none;stroke:black;stroke-width:1" />
  <polyline points="39.016,68.0982 32.016,68.0982" style="fill:none;stroke:black;stroke-width:1" />
  <polyline points="39.016,281.826 591.6486,373.4236 591.6501,370.5907 591.6576,370.9055 591.6584,373.4236 591.6629,375.3123 591.6636,376.2566 591.6704,374.6827 591.6711,373.4236 591.6734,370.276 591.6741,368.0726 591.6749,364.9249 591.6786,366.4987 591.6794,367.1283 591.6808,365.5544 591.6816,363.9806 591.6838,356.4261 591.6853,357.6852 591.6861,352.9637 591.6868,348.5569 591.6891,343.5206 591.6898,347.9274 591.6906,343.8354 591.6913,339.4287 591.6921,338.1696 591.6943,328.7265 591.6951,335.9662 591.6958,332.189 591.6966,323.6902 591.6973,311.4143 591.6996,295.6758 591.7011,294.7315 591.7018,280.2522 591.7026,277.4193 591.7048,234.9255 591.7056,246.5719 591.7063,246.5719 591.7071,243.1095 591.7078,224.2234 591.7101,230.204 591.7108,261.6808 591.7116,254.7559 591.7123,245.6276 591.7131,241.8504 591.7153,220.7609 591.7161,233.6664 591.7168,224.5381 591.7183,206.9111 591.7206,203.1339 591.7213,220.7609 591.7221,225.4825 591.7228,205.652 591.7236,221.0757 591.7258,235.555 591.7265,247.2015 591.7273,243.1095 591.728,252.8673 591.7288,238.0732 591.731,219.5019 591.7318,229.8892 591.7325,245.9424 591.7333,240.2766 591.734,248.4606 591.7363,209.1145 591.737,225.7972 591.7378,234.9255 591.7385,219.1871 591.7393,209.1145 591.7415,177.6376 591.7423,197.4681 591.743,205.0225 591.7438,194.3204 591.7445,177.3229 591.7468,153.0857 591.7475,171.657 591.7483,187.3955 591.752,152.1414 591.7528,169.1389 591.7535,181.7296 591.7543,168.5094 591.7573,168.8241 591.758,185.8216 591.7588,209.744 591.7595,215.0951 591.7603,196.8385 591.7633,231.7778 591.764,247.831 591.7648,240.9061 591.7655,258.5331 591.7678,268.9205 591.7685,287.1771 591.7693,291.8986 591.77,290.6395 591.7708,287.8066 591.773,287.4918 591.7745,294.7315 591.7752,281.5112 591.776,273.0125 591.7782,274.2716 591.779,288.7509 591.7797,301.3417 591.7805,295.3611 591.7812,295.3611 591.7835,306.6927 591.7842,314.8767 591.785,310.1552 591.7857,300.7121 591.7865,291.2691 591.7887,298.194 591.7895,321.4868 591.7902,320.2278 591.791,313.6176 591.7917,327.7822 591.794,333.7628 591.7947,339.4287 591.7955,335.6514 591.7992,337.54 591.8,345.4093 591.8007,340.0582 591.8015,323.0607 591.8022,322.1164 591.8045,309.2109 591.8052,309.2109 591.806,304.1746 591.8067,296.3054 591.8075,286.5475 591.8097,279.9374 591.8112,281.5112 591.812,261.6808 591.8127,248.1458 591.815,231.4631 591.8165,233.0369 591.8172,211.3179 591.8179,207.2259 591.8202,204.393 591.8209,226.7415 591.8217,231.1483 591.8224,223.5938 591.8232,200.6157 591.8262,186.4512 591.8269,188.9693 591.8277,165.9912 591.8284,160.9549 591.8307,155.2891 591.8314,156.8629 591.8322,139.5507 591.8329,126.6451 591.8337,129.1633 591.8359,113.1101 591.8367,108.3886 591.8374,86.3548 591.8382,58.3404 591.8389,46.3792 591.8412,56.137 591.8419,63.0619 591.8427,79.7446 591.8434,91.0763 591.8442,84.7809 591.8464,122.8679 591.8472,118.7759 591.8479,138.6063 591.8487,147.4199 591.8494,160.9549 591.8517,161.5844 591.8524,188.025 591.8532,182.9887 591.8547,197.4681 591.8569,184.2478 591.8577,197.7828 591.8584,198.4124 591.8592,192.7465 591.8599,197.1533 591.8629,225.1677 591.8636,244.3686 591.8644,251.2935 591.8651,246.2572 591.8674,272.6977 591.8681,293.1577 591.8689,300.0826 591.8704,312.6733 591.8726,321.1721 591.8734,328.4118 591.8741,339.1139 591.8749,342.8911 591.8756,347.6126 591.8786,347.9274 591.8794,358.9443 591.8831,360.8329 591.8839,362.092 591.8861,363.0363 591.8884,364.2954 591.8951,365.8692 591.8966,366.4987 591.9004,365.2397 591.9019,358.9443 591.9056,348.8717 591.9071,337.2253 591.9108,335.0219 591.9123,328.7265 591.9161,336.281 591.9176,333.1333 591.9213,318.9687 591.9228,296.3054 591.9266,281.826 591.9281,268.291 591.9318,239.3323 591.9333,236.4994 591.9371,236.1846 591.9386,233.9812 591.9438,245.3129 591.9491,262.3104 591.9528,279.9374 591.9543,282.7703 591.958,292.8429 591.9595,298.194 591.9633,310.7847 591.9648,312.0438 591.9685,317.0801 591.9738,317.3949 591.9753,306.378 591.979,290.6395 591.9805,254.7559 591.9843,242.7947 591.9858,208.485 591.9895,177.9524 591.991,140.1802 591.9948,105.2409 591.9963,82.8923 592,32.5294" style="fill:none;stroke:rgb(31,119,180);stroke-width:2;stroke-linejoin:bevel" />
  <text dominant-baseline="hanging" text-anchor="middle" transform="translate(315.508,8)" font-family="Segoe UI" font-size="18" font-weight="700" fill="black">Aktive Fälle Stadt Aachen 24.11.2021</text>
  <polygon points="39.016,29.0795 592,29.0795 592,381 39.016,381" style="fill:none;stroke:black;stroke-width:1" />
  <polygon points="47.016,37.0795 233.487,37.0795 233.487,63.1325 47.016,63.1325" style="fill:none;stroke:none;" />
  <text dominant-baseline="hanging" text-anchor="start" transform="translate(75.016,45.0795)" font-family="Segoe UI" font-size="12" font-weight="400" fill="black">Aktive Fälle Stadt Aachen 24.11.2021</text>
  <polyline points="55.016,50.106 71.016,50.106" style="fill:none;stroke:rgb(31,119,180);stroke-width:2" />
</svg>