<?xml version="1.0" encoding="utf-8" standalone="no"?>
<!DOCTYPE svg PUBLIC "-//W3C//DTD SVG 1.1//EN" "http://www.w3.org/Graphics/SVG/1.1/DTD/svg11.dtd">
<svg width="600" height="400" version="1.1" xmlns:xlink="http://www.w3.org/1999/xlink" xmlns="http://www.w3.org/2000/svg">
  <rect x="0" y="0" width="600" height="400" style="fill:rgb(255,255,255);stroke:none;" />
  <polyline points="34.012,352.1162 30.012,352.1162" style="fill:none;stroke:black;stroke-width:1" />
  <polyline points="34.012,328.7131 30.012,328.7131" style="fill:none;stroke:black;stroke-width:1" />
  <polyline points="34.012,305.3101 30.012,305.3101" style="fill:none;stroke:black;stroke-width:1" />
  <polyline points="34.012,258.5041 30.012,258.5041" style="fill:none;stroke:black;stroke-width:1" />
  <polyline points="34.012,235.101 30.012,235.101" style="fill:none;stroke:black;stroke-width:1" />
  <polyline points="34.012,211.698 30.012,211.698" style="fill:none;stroke:black;stroke-width:1" />
  <polyline points="34.012,164.892 30.012,164.892" style="fill:none;stroke:black;stroke-width:1" />
  <polyline points="34.012,141.4889 30.012,141.4889" style="fill:none;stroke:black;stroke-width:1" />
  <polyline points="34.012,118.0859 30.012,118.0859" style="fill:none;stroke:black;stroke-width:1" />
  <polyline points="34.012,71.2798 30.012,71.2798" style="fill:none;stroke:black;stroke-width:1" />
  <polyline points="34.012,47.8768 30.012,47.8768" style="fill:none;stroke:black;stroke-width:1" />
  <text dominant-baseline="middle" text-anchor="end" transform="translate(23.012,281.9071)" font-family="Segoe UI" font-size="12" font-weight="400" fill="black">200</text>
  <text dominant-baseline="middle" text-anchor="end" transform="translate(23.012,188.295)" font-family="Segoe UI" font-size="12" font-weight="400" fill="black">400</text>
  <text dominant-baseline="middle" text-anchor="end" transform="translate(23.012,94.6829)" font-family="Segoe UI" font-size="12" font-weight="400" fill="black">600</text>
  <polyline points="34.012,281.9071 27.012,281.9071" style="fill:none;stroke:black;stroke-width:1" />
  <polyline points="34.012,188.295 27.012,188.295" style="fill:none;stroke:black;stroke-width:1" />
  <polyline points="34.012,94.6829 27.012,94.6829" style="fill:none;stroke:black;stroke-width:1" />
  <text dominant-baseline="hanging" text-anchor="middle" transform="translate(82.5327,381.947)" font-family="Segoe UI" font-size="12" font-weight="400" fill="black">01. September</text>
  <text dominant-baseline="hanging" text-anchor="middle" transform="translate(155.3137,381.947)" font-family="Segoe UI" font-size="12" font-weight="400" fill="black">01. October</text>
  <text dominant-baseline="hanging" text-anchor="middle" transform="translate(230.5208,381.947)" font-family="Segoe UI" font-size="12" font-weight="400" fill="black">01. November</text>
  <text dominant-baseline="hanging" text-anchor="middle" transform="translate(303.3019,381.947)" font-family="Segoe UI" font-size="12" font-weight="400" fill="black">01. December</text>
  <text dominant-baseline="hanging" text-anchor="middle" transform="translate(378.5089,381.947)" font-family="Segoe UI" font-size="12" font-weight="400" fill="black">01. January</text>
  <text dominant-baseline="hanging" text-anchor="middle" transform="translate(453.716,381.947)" font-family="Segoe UI" font-size="12" font-weight="400" fill="black">01. February</text>
  <text dominant-baseline="hanging" text-anchor="middle" transform="translate(521.645,381.947)" font-family="Segoe UI" font-size="12" font-weight="400" fill="black">01. March</text>
  <polyline points="82.5327,370.947 82.5327,377.947" style="fill:none;stroke:black;stroke-width:1" />
  <polyline points="155.3137,370.947 155.3137,377.947" style="fill:none;stroke:black;stroke-width:1" />
  <polyline points="230.5208,370.947 230.5208,377.947" style="fill:none;stroke:black;stroke-width:1" />
  <polyline points="303.3019,370.947 303.3019,377.947" style="fill:none;stroke:black;stroke-width:1" />
  <polyline points="378.5089,370.947 378.5089,377.947" style="fill:none;stroke:black;stroke-width:1" />
  <polyline points="453.716,370.947 453.716,377.947" style="fill:none;stroke:black;stroke-width:1" />
  <polyline points="521.645,370.947 521.645,377.947" style="fill:none;stroke:black;stroke-width:1" />
  <polyline points="34.012,361.4774 38.8641,357.2648 46.1422,360.0732 48.5682,357.2648 50.9942,359.1371 53.4203,356.7968 55.8463,357.2648 63.1244,357.7329 65.5505,361.4774 67.9765,361.9454 70.4025,361.0093 72.8286,361.0093 80.1067,364.2857 82.5327,365.6899 84.9587,365.6899 87.3848,364.7538 89.8108,365.2219 97.0889,365.2219 99.5149,367.5622 101.941,366.158 104.367,363.3496 106.793,361.4774 114.0711,356.7968 116.4972,353.5204 118.9232,348.8398 121.3493,348.3717 123.7753,346.9675 131.0534,351.1801 133.4794,352.1162 135.9055,351.6481 138.3315,349.7759 140.7575,347.4356 148.0356,336.2021 150.4617,337.6063 152.8877,338.0744 155.3137,331.0534 157.7398,324.5006 165.0179,317.0116 167.4439,323.5645 169.8699,317.4797 172.296,310.9268 174.722,309.0546 182.0001,295.0128 184.4262,305.7782 186.8522,300.1615 189.2782,287.5238 191.7043,269.2695 198.9824,245.8664 201.4084,247.2706 203.8344,244.4622 206.2605,222.9315 208.6865,218.7189 215.9646,155.5307 218.3906,172.849 220.8167,172.849 223.2427,167.7003 225.6687,139.6167 232.9469,148.5098 235.3729,195.3159 237.7989,185.0186 240.225,171.4448 242.651,165.8281 249.9291,134.468 252.3551,153.6585 254.7812,140.0847 259.6332,113.8734 266.9113,108.2566 269.3374,134.468 271.7634,141.4889 274.1894,112.0011 276.6155,134.9361 283.8936,156.4669 286.3196,173.7851 288.7457,167.7003 291.1717,182.2102 293.5977,160.2113 300.8758,132.5958 303.3019,148.0418 305.7279,171.9129 308.1539,163.4878 310.58,175.6573 317.8581,117.1498 320.2841,141.957 322.7101,155.5307 325.1362,132.1277 327.5622,117.1498 334.8403,70.3437 337.2663,99.8315 339.6924,111.065 342.1184,95.1509 344.5445,69.8757 351.8226,33.835 354.2486,61.4506 356.6746,84.8536 368.8048,32.4308 371.2308,57.7061 373.6569,76.4285 376.0829,56.77 385.787,57.238 388.2131,82.5133 390.6391,118.0859 393.0651,126.0429 395.4912,98.8954 405.1953,150.8501 407.6214,174.7212 410.0474,164.4239 412.4734,190.6353 419.7515,206.0813 422.1776,233.2288 424.6036,240.2497 427.0296,238.3775 429.4557,234.1649 436.7338,233.6969 441.5858,244.4622 444.0119,224.8037 446.4379,212.1661 453.716,214.0383 456.1421,235.5691 458.5681,254.2915 460.9941,245.3984 463.4202,245.3984 470.6983,262.2485 473.1243,274.4181 475.5503,267.3972 477.9764,253.3554 480.4024,239.3136 487.6805,249.6109 490.1065,284.2474 492.5326,282.3752 494.9586,272.5459 497.3846,293.6086 504.6627,302.5018 507.0888,310.9268 509.5148,305.3101 511.9409,303.4379 514.3669,305.7782 521.645,308.1185 524.071,319.82 526.4971,311.863 528.9231,286.5877 531.3491,285.1835 538.6272,265.993 541.0533,265.993 543.4793,258.5041 545.9053,246.8025 548.3314,232.2927 555.6095,222.4634 558.0355,223.8676 560.4615,224.8037 562.8876,195.3159 565.3136,175.1893 572.5917,150.3821 575.0178,150.8501 577.4438,152.7224 579.8698,120.4262 582.2959,114.3414 589.574,110.1289 592,143.3612" style="fill:none;stroke:rgb(31,119,180);stroke-width:2;stroke-linejoin:bevel" />
  <text dominant-baseline="hanging" text-anchor="middle" transform="translate(313.006,8)" font-family="Segoe UI" font-size="18" font-weight="700" fill="black">Aktive Fälle Stadt Aachen 30.03.2021</text>
  <polygon points="34.012,29.0795 592,29.0795 592,370.947 34.012,370.947" style="fill:none;stroke:black;stroke-width:1" />
  <polygon points="42.012,37.0795 228.483,37.0795 228.483,63.1325 42.012,63.1325" style="fill:none;stroke:none;" />
  <text dominant-baseline="hanging" text-anchor="start" transform="translate(70.012,45.0795)" font-family="Segoe UI" font-size="12" font-weight="400" fill="black">Aktive Fälle Stadt Aachen 30.03.2021</text>
  <polyline points="50.012,50.106 66.012,50.106" style="fill:none;stroke:rgb(31,119,180);stroke-width:2" />
</svg>