<?xml version="1.0" encoding="utf-8" standalone="no"?>
<!DOCTYPE svg PUBLIC "-//W3C//DTD SVG 1.1//EN" "http://www.w3.org/Graphics/SVG/1.1/DTD/svg11.dtd">
<svg width="600" height="400" version="1.1" xmlns:xlink="http://www.w3.org/1999/xlink" xmlns="http://www.w3.org/2000/svg">
  <rect x="0" y="0" width="600" height="400" style="fill:rgb(255,255,255);stroke:none;" />
  <polyline points="34.012,352.1162 30.012,352.1162" style="fill:none;stroke:black;stroke-width:1" />
  <polyline points="34.012,328.7131 30.012,328.7131" style="fill:none;stroke:black;stroke-width:1" />
  <polyline points="34.012,305.3101 30.012,305.3101" style="fill:none;stroke:black;stroke-width:1" />
  <polyline points="34.012,258.5041 30.012,258.5041" style="fill:none;stroke:black;stroke-width:1" />
  <polyline points="34.012,235.101 30.012,235.101" style="fill:none;stroke:black;stroke-width:1" />
  <polyline points="34.012,211.698 30.012,211.698" style="fill:none;stroke:black;stroke-width:1" />
  <polyline points="34.012,164.892 30.012,164.892" style="fill:none;stroke:black;stroke-width:1" />
  <polyline points="34.012,141.4889 30.012,141.4889" style="fill:none;stroke:black;stroke-width:1" />
  <polyline points="34.012,118.0859 30.012,118.0859" style="fill:none;stroke:black;stroke-width:1" />
  <polyline points="34.012,71.2798 30.012,71.2798" style="fill:none;stroke:black;stroke-width:1" />
  <polyline points="34.012,47.8768 30.012,47.8768" style="fill:none;stroke:black;stroke-width:1" />
  <text dominant-baseline="middle" text-anchor="end" transform="translate(23.012,281.9071)" font-family="Segoe UI" font-size="12" font-weight="400" fill="black">200</text>
  <text dominant-baseline="middle" text-anchor="end" transform="translate(23.012,188.295)" font-family="Segoe UI" font-size="12" font-weight="400" fill="black">400</text>
  <text dominant-baseline="middle" text-anchor="end" transform="translate(23.012,94.6829)" font-family="Segoe UI" font-size="12" font-weight="400" fill="black">600</text>
  <polyline points="34.012,281.9071 27.012,281.9071" style="fill:none;stroke:black;stroke-width:1" />
  <polyline points="34.012,188.295 27.012,188.295" style="fill:none;stroke:black;stroke-width:1" />
  <polyline points="34.012,94.6829 27.012,94.6829" style="fill:none;stroke:black;stroke-width:1" />
  <text dominant-baseline="hanging" text-anchor="middle" transform="translate(93.0583,381.947)" font-family="Segoe UI" font-size="12" font-weight="400" fill="black">01. September</text>
  <text dominant-baseline="hanging" text-anchor="middle" transform="translate(181.6279,381.947)" font-family="Segoe UI" font-size="12" font-weight="400" fill="black">01. October</text>
  <text dominant-baseline="hanging" text-anchor="middle" transform="translate(273.1497,381.947)" font-family="Segoe UI" font-size="12" font-weight="400" fill="black">01. November</text>
  <text dominant-baseline="hanging" text-anchor="middle" transform="translate(361.7192,381.947)" font-family="Segoe UI" font-size="12" font-weight="400" fill="black">01. December</text>
  <text dominant-baseline="hanging" text-anchor="middle" transform="translate(453.2411,381.947)" font-family="Segoe UI" font-size="12" font-weight="400" fill="black">01. January</text>
  <text dominant-baseline="hanging" text-anchor="middle" transform="translate(544.7629,381.947)" font-family="Segoe UI" font-size="12" font-weight="400" fill="black">01. February</text>
  <polyline points="93.0583,370.947 93.0583,377.947" style="fill:none;stroke:black;stroke-width:1" />
  <polyline points="181.6279,370.947 181.6279,377.947" style="fill:none;stroke:black;stroke-width:1" />
  <polyline points="273.1497,370.947 273.1497,377.947" style="fill:none;stroke:black;stroke-width:1" />
  <polyline points="361.7192,370.947 361.7192,377.947" style="fill:none;stroke:black;stroke-width:1" />
  <polyline points="453.2411,370.947 453.2411,377.947" style="fill:none;stroke:black;stroke-width:1" />
  <polyline points="544.7629,370.947 544.7629,377.947" style="fill:none;stroke:black;stroke-width:1" />
  <polyline points="34.012,361.4774 39.9166,357.2648 48.7736,360.0732 51.7259,357.2648 54.6782,359.1371 57.6305,356.7968 60.5829,357.2648 69.4398,357.7329 72.3921,361.4774 75.3444,361.9454 78.2968,361.0093 81.2491,361.0093 90.106,364.2857 93.0583,365.6899 96.0107,365.6899 98.963,364.7538 101.9153,365.2219 110.7723,365.2219 113.7246,367.5622 116.6769,366.158 119.6292,363.3496 122.5815,361.4774 131.4385,356.7968 134.3908,353.5204 137.3431,348.8398 140.2954,348.3717 143.2477,346.9675 152.1047,351.1801 155.057,352.1162 158.0093,351.6481 160.9617,349.7759 163.914,347.4356 172.7709,336.2021 175.7232,337.6063 178.6756,338.0744 181.6279,331.0534 184.5802,324.5006 193.4371,317.0116 196.3895,323.5645 199.3418,317.4797 202.2941,310.9268 205.2464,309.0546 214.1034,295.0128 217.0557,305.7782 220.008,300.1615 222.9603,287.5238 225.9126,269.2695 234.7696,245.8664 237.7219,247.2706 240.6742,244.4622 243.6265,222.9315 246.5789,218.7189 255.4358,155.5307 258.3881,172.849 261.3404,172.849 264.2928,167.7003 267.2451,139.6167 276.102,148.5098 279.0543,195.3159 282.0067,185.0186 284.959,171.4448 287.9113,165.8281 296.7683,134.468 299.7206,153.6585 302.6729,140.0847 308.5775,113.8734 317.4345,108.2566 320.3868,134.468 323.3391,141.4889 326.2914,112.0011 329.2437,134.9361 338.1007,156.4669 341.053,173.7851 344.0053,167.7003 346.9577,182.2102 349.91,160.2113 358.7669,132.5958 361.7192,148.0418 364.6716,171.9129 367.6239,163.4878 370.5762,175.6573 379.4331,117.1498 382.3855,141.957 385.3378,155.5307 388.2901,132.1277 391.2424,117.1498 400.0994,70.3437 403.0517,99.8315 406.004,111.065 408.9563,95.1509 411.9086,69.8757 420.7656,33.835 423.7179,61.4506 426.6702,84.8536 441.4318,32.4308 444.3841,57.7061 447.3364,76.4285 450.2888,56.77 462.098,57.238 465.0503,82.5133 468.0027,118.0859 470.955,126.0429 473.9073,98.8954 485.7166,150.8501 488.6689,174.7212 491.6212,164.4239 494.5735,190.6353 503.4305,206.0813 506.3828,233.2288 509.3351,240.2497 512.2874,238.3775 515.2397,234.1649 524.0967,233.6969 530.0013,244.4622 532.9537,224.8037 535.906,212.1661 544.7629,214.0383 547.7152,235.5691 550.6676,254.2915 553.6199,245.3984 556.5722,245.3984 565.4291,262.2485 568.3815,274.4181 571.3338,267.3972 574.2861,253.3554 577.2384,239.3136 586.0954,249.6109 589.0477,284.2474 592,282.3752" style="fill:none;stroke:rgb(31,119,180);stroke-width:2;stroke-linejoin:bevel" />
  <text dominant-baseline="hanging" text-anchor="middle" transform="translate(313.006,8)" font-family="Segoe UI" font-size="18" font-weight="700" fill="black">Aktive Fälle Stadt Aachen 17.02.2021</text>
  <polygon points="34.012,29.0795 592,29.0795 592,370.947 34.012,370.947" style="fill:none;stroke:black;stroke-width:1" />
  <polygon points="42.012,37.0795 228.483,37.0795 228.483,63.1325 42.012,63.1325" style="fill:none;stroke:none;" />
  <text dominant-baseline="hanging" text-anchor="start" transform="translate(70.012,45.0795)" font-family="Segoe UI" font-size="12" font-weight="400" fill="black">Aktive Fälle Stadt Aachen 17.02.2021</text>
  <polyline points="50.012,50.106 66.012,50.106" style="fill:none;stroke:rgb(31,119,180);stroke-width:2" />
</svg>