<?xml version="1.0" encoding="utf-8" standalone="no"?>
<!DOCTYPE svg PUBLIC "-//W3C//DTD SVG 1.1//EN" "http://www.w3.org/Graphics/SVG/1.1/DTD/svg11.dtd">
<svg width="600" height="400" version="1.1" xmlns:xlink="http://www.w3.org/1999/xlink" xmlns="http://www.w3.org/2000/svg">
  <rect x="0" y="0" width="600" height="400" style="fill:rgb(255,255,255);stroke:none;" />
  <polyline points="39.016,357.0495 35.016,357.0495" style="fill:none;stroke:black;stroke-width:1" />
  <polyline points="39.016,341.1212 35.016,341.1212" style="fill:none;stroke:black;stroke-width:1" />
  <polyline points="39.016,325.1929 35.016,325.1929" style="fill:none;stroke:black;stroke-width:1" />
  <polyline points="39.016,293.3363 35.016,293.3363" style="fill:none;stroke:black;stroke-width:1" />
  <polyline points="39.016,277.408 35.016,277.408" style="fill:none;stroke:black;stroke-width:1" />
  <polyline points="39.016,261.4797 35.016,261.4797" style="fill:none;stroke:black;stroke-width:1" />
  <polyline points="39.016,229.6231 35.016,229.6231" style="fill:none;stroke:black;stroke-width:1" />
  <polyline points="39.016,213.6948 35.016,213.6948" style="fill:none;stroke:black;stroke-width:1" />
  <polyline points="39.016,197.7665 35.016,197.7665" style="fill:none;stroke:black;stroke-width:1" />
  <polyline points="39.016,165.9099 35.016,165.9099" style="fill:none;stroke:black;stroke-width:1" />
  <polyline points="39.016,149.9816 35.016,149.9816" style="fill:none;stroke:black;stroke-width:1" />
  <polyline points="39.016,134.0533 35.016,134.0533" style="fill:none;stroke:black;stroke-width:1" />
  <polyline points="39.016,102.1968 35.016,102.1968" style="fill:none;stroke:black;stroke-width:1" />
  <polyline points="39.016,86.2685 35.016,86.2685" style="fill:none;stroke:black;stroke-width:1" />
  <polyline points="39.016,70.3402 35.016,70.3402" style="fill:none;stroke:black;stroke-width:1" />
  <polyline points="39.016,38.4836 35.016,38.4836" style="fill:none;stroke:black;stroke-width:1" />
  <text dominant-baseline="middle" text-anchor="end" transform="translate(28.016,309.2646)" font-family="Segoe UI" font-size="12" font-weight="400" fill="black">200</text>
  <text dominant-baseline="middle" text-anchor="end" transform="translate(28.016,245.5514)" font-family="Segoe UI" font-size="12" font-weight="400" fill="black">400</text>
  <text dominant-baseline="middle" text-anchor="end" transform="translate(28.016,181.8382)" font-family="Segoe UI" font-size="12" font-weight="400" fill="black">600</text>
  <text dominant-baseline="middle" text-anchor="end" transform="translate(28.016,118.125)" font-family="Segoe UI" font-size="12" font-weight="400" fill="black">800</text>
  <text dominant-baseline="middle" text-anchor="end" transform="translate(28.016,54.4119)" font-family="Segoe UI" font-size="12" font-weight="400" fill="black">1000</text>
  <polyline points="39.016,309.2646 32.016,309.2646" style="fill:none;stroke:black;stroke-width:1" />
  <polyline points="39.016,245.5514 32.016,245.5514" style="fill:none;stroke:black;stroke-width:1" />
  <polyline points="39.016,181.8382 32.016,181.8382" style="fill:none;stroke:black;stroke-width:1" />
  <polyline points="39.016,118.125 32.016,118.125" style="fill:none;stroke:black;stroke-width:1" />
  <polyline points="39.016,54.4119 32.016,54.4119" style="fill:none;stroke:black;stroke-width:1" />
  <text dominant-baseline="hanging" text-anchor="middle" transform="translate(80.9087,381.947)" font-family="Segoe UI" font-size="12" font-weight="400" fill="black">01. September</text>
  <text dominant-baseline="hanging" text-anchor="middle" transform="translate(143.7478,381.947)" font-family="Segoe UI" font-size="12" font-weight="400" fill="black">01. October</text>
  <text dominant-baseline="hanging" text-anchor="middle" transform="translate(208.6815,381.947)" font-family="Segoe UI" font-size="12" font-weight="400" fill="black">01. November</text>
  <text dominant-baseline="hanging" text-anchor="middle" transform="translate(271.5206,381.947)" font-family="Segoe UI" font-size="12" font-weight="400" fill="black">01. December</text>
  <text dominant-baseline="hanging" text-anchor="middle" transform="translate(336.4544,381.947)" font-family="Segoe UI" font-size="12" font-weight="400" fill="black">01. January</text>
  <text dominant-baseline="hanging" text-anchor="middle" transform="translate(401.3881,381.947)" font-family="Segoe UI" font-size="12" font-weight="400" fill="black">01. February</text>
  <text dominant-baseline="hanging" text-anchor="middle" transform="translate(460.0379,381.947)" font-family="Segoe UI" font-size="12" font-weight="400" fill="black">01. March</text>
  <text dominant-baseline="hanging" text-anchor="middle" transform="translate(524.9716,381.947)" font-family="Segoe UI" font-size="12" font-weight="400" fill="black">01. April</text>
  <text dominant-baseline="hanging" text-anchor="middle" transform="translate(587.8107,381.947)" font-family="Segoe UI" font-size="12" font-weight="400" fill="black">01. May</text>
  <polyline points="80.9087,370.947 80.9087,377.947" style="fill:none;stroke:black;stroke-width:1" />
  <polyline points="143.7478,370.947 143.7478,377.947" style="fill:none;stroke:black;stroke-width:1" />
  <polyline points="208.6815,370.947 208.6815,377.947" style="fill:none;stroke:black;stroke-width:1" />
  <polyline points="271.5206,370.947 271.5206,377.947" style="fill:none;stroke:black;stroke-width:1" />
  <polyline points="336.4544,370.947 336.4544,377.947" style="fill:none;stroke:black;stroke-width:1" />
  <polyline points="401.3881,370.947 401.3881,377.947" style="fill:none;stroke:black;stroke-width:1" />
  <polyline points="460.0379,370.947 460.0379,377.947" style="fill:none;stroke:black;stroke-width:1" />
  <polyline points="524.9716,370.947 524.9716,377.947" style="fill:none;stroke:black;stroke-width:1" />
  <polyline points="587.8107,370.947 587.8107,377.947" style="fill:none;stroke:black;stroke-width:1" />
  <polyline points="39.016,363.4208 43.2053,360.5537 49.4892,362.4651 51.5838,360.5537 53.6785,361.828 55.7731,360.2352 57.8677,360.5537 64.1516,360.8723 66.2463,363.4208 68.3409,363.7394 70.4355,363.1023 72.5302,363.1023 78.8141,365.3322 80.9087,366.2879 83.0034,366.2879 85.098,365.6508 87.1926,365.9693 93.4765,365.9693 95.5712,367.5622 97.6658,366.6065 99.7605,364.6951 101.8551,363.4208 108.139,360.2352 110.2336,358.0052 112.3283,354.8195 114.4229,354.501 116.5175,353.5453 122.8015,356.4124 124.8961,357.0495 126.9907,356.7309 129.0854,355.4567 131.18,353.8638 137.4639,346.2183 139.5585,347.174 141.6532,347.4925 143.7478,342.714 145.8425,338.2541 152.1264,333.1571 154.221,337.617 156.3156,333.4756 158.4103,329.0157 160.5049,327.7414 166.7888,318.1845 168.8835,325.5115 170.9781,321.6887 173.0727,313.0874 175.1674,300.6633 181.4513,284.735 183.5459,285.6907 185.6405,283.7793 187.7352,269.1253 189.8298,266.2582 196.1137,223.2518 198.2084,235.0387 200.303,235.0387 202.3976,231.5345 204.4923,212.4206 210.7762,218.4733 212.8708,250.3299 214.9655,243.3215 217.0601,234.083 219.1547,230.2603 225.4386,208.9163 227.5333,221.9775 229.6279,212.7391 233.8172,194.8994 240.1011,191.0766 242.1957,208.9163 244.2904,213.6948 246.385,193.6252 248.4796,209.2349 254.7635,223.8889 256.8582,235.6759 258.9528,231.5345 261.0475,241.4101 263.1421,226.4375 269.426,207.6421 271.5206,218.1548 273.6153,234.4016 275.7099,228.6674 277.8045,236.9501 284.0885,197.1294 286.1831,214.0134 288.2777,223.2518 290.3724,207.3235 292.467,197.1294 298.7509,165.2728 300.8455,185.3425 302.9402,192.988 305.0348,182.1568 307.1295,164.9542 313.4134,140.4247 315.508,159.2201 317.6026,175.1484 328.0758,139.469 330.1705,156.6715 332.2651,169.4142 334.3597,156.0344 342.7383,156.353 344.8329,173.5555 346.9275,197.7665 349.0222,203.1822 351.1168,184.7053 359.4954,220.0661 361.59,236.313 363.6846,229.3046 365.7793,247.1443 372.0632,257.6569 374.1578,276.1338 376.2525,280.9122 378.3471,279.638 380.4417,276.7709 386.7256,276.4523 390.9149,283.7793 393.0095,270.3996 395.1042,261.7983 401.3881,263.0725 403.4827,277.7266 405.5774,290.4692 407.672,284.4165 409.7666,284.4165 416.0505,295.8848 418.1452,304.1676 420.2398,299.3891 422.3345,289.8321 424.4291,280.2751 430.713,287.2836 432.8076,310.8574 434.9023,309.5832 436.9969,302.8933 439.0915,317.2288 445.3755,323.2815 447.4701,329.0157 449.5647,325.1929 451.6594,323.9186 453.754,325.5115 460.0379,327.1043 462.1325,335.0684 464.2272,329.6528 466.3218,312.4503 468.4165,311.4946 474.7004,298.4334 476.795,298.4334 478.8896,293.3363 480.9843,285.3722 483.0789,275.4966 489.3628,268.8067 491.4575,269.7624 493.5521,270.3996 495.6467,250.3299 497.7414,236.6316 504.0253,219.7476 506.1199,220.0661 508.2145,221.3404 510.3092,199.3594 512.4038,195.218 518.6877,192.3509 520.7824,214.9691 522.877,219.429 524.9716,211.7834 527.0663,188.5281 535.4448,174.1927 537.5395,176.7412 539.6341,153.4859 541.7287,148.3888 548.0126,142.6546 550.1073,144.2475 552.2019,126.7263 554.2965,113.6651 556.3912,116.2137 562.6751,99.9668 564.7697,95.1883 566.8644,72.8887 568.959,44.5363 571.0536,32.4308 577.3375,42.3064 579.4322,49.3148 581.5268,66.1988 583.6215,77.6672 585.7161,71.2959 592,109.8423" style="fill:none;stroke:rgb(31,119,180);stroke-width:2;stroke-linejoin:bevel" />
  <text dominant-baseline="hanging" text-anchor="middle" transform="translate(315.508,8)" font-family="Segoe UI" font-size="18" font-weight="700" fill="black">Aktive Fälle Stadt Aachen 03.05.2021</text>
  <polygon points="39.016,29.0795 592,29.0795 592,370.947 39.016,370.947" style="fill:none;stroke:black;stroke-width:1" />
  <polygon points="47.016,37.0795 233.487,37.0795 233.487,63.1325 47.016,63.1325" style="fill:none;stroke:none;" />
  <text dominant-baseline="hanging" text-anchor="start" transform="translate(75.016,45.0795)" font-family="Segoe UI" font-size="12" font-weight="400" fill="black">Aktive Fälle Stadt Aachen 03.05.2021</text>
  <polyline points="55.016,50.106 71.016,50.106" style="fill:none;stroke:rgb(31,119,180);stroke-width:2" />
</svg>