<?xml version="1.0" encoding="utf-8" standalone="no"?>
<!DOCTYPE svg PUBLIC "-//W3C//DTD SVG 1.1//EN" "http://www.w3.org/Graphics/SVG/1.1/DTD/svg11.dtd">
<svg width="600" height="400" version="1.1" xmlns:xlink="http://www.w3.org/1999/xlink" xmlns="http://www.w3.org/2000/svg">
  <rect x="0" y="0" width="600" height="400" style="fill:rgb(255,255,255);stroke:none;" />
  <polyline points="34.012,352.1162 30.012,352.1162" style="fill:none;stroke:black;stroke-width:1" />
  <polyline points="34.012,328.7131 30.012,328.7131" style="fill:none;stroke:black;stroke-width:1" />
  <polyline points="34.012,305.3101 30.012,305.3101" style="fill:none;stroke:black;stroke-width:1" />
  <polyline points="34.012,258.5041 30.012,258.5041" style="fill:none;stroke:black;stroke-width:1" />
  <polyline points="34.012,235.101 30.012,235.101" style="fill:none;stroke:black;stroke-width:1" />
  <polyline points="34.012,211.698 30.012,211.698" style="fill:none;stroke:black;stroke-width:1" />
  <polyline points="34.012,164.892 30.012,164.892" style="fill:none;stroke:black;stroke-width:1" />
  <polyline points="34.012,141.4889 30.012,141.4889" style="fill:none;stroke:black;stroke-width:1" />
  <polyline points="34.012,118.0859 30.012,118.0859" style="fill:none;stroke:black;stroke-width:1" />
  <polyline points="34.012,71.2798 30.012,71.2798" style="fill:none;stroke:black;stroke-width:1" />
  <polyline points="34.012,47.8768 30.012,47.8768" style="fill:none;stroke:black;stroke-width:1" />
  <text dominant-baseline="middle" text-anchor="end" transform="translate(23.012,281.9071)" font-family="Segoe UI" font-size="12" font-weight="400" fill="black">200</text>
  <text dominant-baseline="middle" text-anchor="end" transform="translate(23.012,188.295)" font-family="Segoe UI" font-size="12" font-weight="400" fill="black">400</text>
  <text dominant-baseline="middle" text-anchor="end" transform="translate(23.012,94.6829)" font-family="Segoe UI" font-size="12" font-weight="400" fill="black">600</text>
  <polyline points="34.012,281.9071 27.012,281.9071" style="fill:none;stroke:black;stroke-width:1" />
  <polyline points="34.012,188.295 27.012,188.295" style="fill:none;stroke:black;stroke-width:1" />
  <polyline points="34.012,94.6829 27.012,94.6829" style="fill:none;stroke:black;stroke-width:1" />
  <text dominant-baseline="hanging" text-anchor="middle" transform="translate(90.6605,381.947)" font-family="Segoe UI" font-size="12" font-weight="400" fill="black">01. September</text>
  <text dominant-baseline="hanging" text-anchor="middle" transform="translate(175.6333,381.947)" font-family="Segoe UI" font-size="12" font-weight="400" fill="black">01. October</text>
  <text dominant-baseline="hanging" text-anchor="middle" transform="translate(263.4385,381.947)" font-family="Segoe UI" font-size="12" font-weight="400" fill="black">01. November</text>
  <text dominant-baseline="hanging" text-anchor="middle" transform="translate(348.4113,381.947)" font-family="Segoe UI" font-size="12" font-weight="400" fill="black">01. December</text>
  <text dominant-baseline="hanging" text-anchor="middle" transform="translate(436.2165,381.947)" font-family="Segoe UI" font-size="12" font-weight="400" fill="black">01. January</text>
  <text dominant-baseline="hanging" text-anchor="middle" transform="translate(524.0218,381.947)" font-family="Segoe UI" font-size="12" font-weight="400" fill="black">01. February</text>
  <polyline points="90.6605,370.947 90.6605,377.947" style="fill:none;stroke:black;stroke-width:1" />
  <polyline points="175.6333,370.947 175.6333,377.947" style="fill:none;stroke:black;stroke-width:1" />
  <polyline points="263.4385,370.947 263.4385,377.947" style="fill:none;stroke:black;stroke-width:1" />
  <polyline points="348.4113,370.947 348.4113,377.947" style="fill:none;stroke:black;stroke-width:1" />
  <polyline points="436.2165,370.947 436.2165,377.947" style="fill:none;stroke:black;stroke-width:1" />
  <polyline points="524.0218,370.947 524.0218,377.947" style="fill:none;stroke:black;stroke-width:1" />
  <polyline points="34.012,361.4774 39.6769,357.2648 48.1741,360.0732 51.0066,357.2648 53.839,359.1371 56.6714,356.7968 59.5038,357.2648 68.0011,357.7329 70.8335,361.4774 73.666,361.9454 76.4984,361.0093 79.3308,361.0093 87.8281,364.2857 90.6605,365.6899 93.493,365.6899 96.3254,364.7538 99.1578,365.2219 107.6551,365.2219 110.4875,367.5622 113.3199,366.158 116.1524,363.3496 118.9848,361.4774 127.4821,356.7968 130.3145,353.5204 133.1469,348.8398 135.9794,348.3717 138.8118,346.9675 147.3091,351.1801 150.1415,352.1162 152.9739,351.6481 155.8063,349.7759 158.6388,347.4356 167.136,336.2021 169.9685,337.6063 172.8009,338.0744 175.6333,331.0534 178.4657,324.5006 186.963,317.0116 189.7955,323.5645 192.6279,317.4797 195.4603,310.9268 198.2927,309.0546 206.79,295.0128 209.6224,305.7782 212.4549,300.1615 215.2873,287.5238 218.1197,269.2695 226.617,245.8664 229.4494,247.2706 232.2818,244.4622 235.1143,222.9315 237.9467,218.7189 246.444,155.5307 249.2764,172.849 252.1088,172.849 254.9413,167.7003 257.7737,139.6167 266.271,148.5098 269.1034,195.3159 271.9358,185.0186 274.7682,171.4448 277.6007,165.8281 286.0979,134.468 288.9304,153.6585 291.7628,140.0847 297.4277,113.8734 305.9249,108.2566 308.7574,134.468 311.5898,141.4889 314.4222,112.0011 317.2546,134.9361 325.7519,156.4669 328.5843,173.7851 331.4168,167.7003 334.2492,182.2102 337.0816,160.2113 345.5789,132.5958 348.4113,148.0418 351.2438,171.9129 354.0762,163.4878 356.9086,175.6573 365.4059,117.1498 368.2383,141.957 371.0707,155.5307 373.9032,132.1277 376.7356,117.1498 385.2329,70.3437 388.0653,99.8315 390.8977,111.065 393.7302,95.1509 396.5626,69.8757 405.0599,33.835 407.8923,61.4506 410.7247,84.8536 424.8868,32.4308 427.7193,57.7061 430.5517,76.4285 433.3841,56.77 444.7138,57.238 447.5463,82.5133 450.3787,118.0859 453.2111,126.0429 456.0435,98.8954 467.3732,150.8501 470.2057,174.7212 473.0381,164.4239 475.8705,190.6353 484.3678,206.0813 487.2002,233.2288 490.0326,240.2497 492.8651,238.3775 495.6975,234.1649 504.1948,233.6969 509.8596,244.4622 512.6921,224.8037 515.5245,212.1661 524.0218,214.0383 526.8542,235.5691 529.6866,254.2915 532.519,245.3984 535.3515,245.3984 543.8488,262.2485 546.6812,274.4181 549.5136,267.3972 552.346,253.3554 555.1785,239.3136 563.6757,249.6109 566.5082,284.2474 569.3406,282.3752 572.173,272.5459 575.0054,293.6086 583.5027,302.5018 586.3351,310.9268 589.1676,305.3101 592,303.4379" style="fill:none;stroke:rgb(31,119,180);stroke-width:2;stroke-linejoin:bevel" />
  <text dominant-baseline="hanging" text-anchor="middle" transform="translate(313.006,8)" font-family="Segoe UI" font-size="18" font-weight="700" fill="black">Aktive Fälle Stadt Aachen 25.02.2021</text>
  <polygon points="34.012,29.0795 592,29.0795 592,370.947 34.012,370.947" style="fill:none;stroke:black;stroke-width:1" />
  <polygon points="42.012,37.0795 228.483,37.0795 228.483,63.1325 42.012,63.1325" style="fill:none;stroke:none;" />
  <text dominant-baseline="hanging" text-anchor="start" transform="translate(70.012,45.0795)" font-family="Segoe UI" font-size="12" font-weight="400" fill="black">Aktive Fälle Stadt Aachen 25.02.2021</text>
  <polyline points="50.012,50.106 66.012,50.106" style="fill:none;stroke:rgb(31,119,180);stroke-width:2" />
</svg>