<?xml version="1.0" encoding="utf-8" standalone="no"?>
<!DOCTYPE svg PUBLIC "-//W3C//DTD SVG 1.1//EN" "http://www.w3.org/Graphics/SVG/1.1/DTD/svg11.dtd">
<svg width="600" height="400" version="1.1" xmlns:xlink="http://www.w3.org/1999/xlink" xmlns="http://www.w3.org/2000/svg">
  <rect x="0" y="0" width="600" height="400" style="fill:rgb(255,255,255);stroke:none;" />
  <polyline points="34.012,365.7474 30.012,365.7474" style="fill:none;stroke:black;stroke-width:1" />
  <polyline points="34.012,353.6488 30.012,353.6488" style="fill:none;stroke:black;stroke-width:1" />
  <polyline points="34.012,341.5502 30.012,341.5502" style="fill:none;stroke:black;stroke-width:1" />
  <polyline points="34.012,329.4516 30.012,329.4516" style="fill:none;stroke:black;stroke-width:1" />
  <polyline points="34.012,305.2544 30.012,305.2544" style="fill:none;stroke:black;stroke-width:1" />
  <polyline points="34.012,293.1558 30.012,293.1558" style="fill:none;stroke:black;stroke-width:1" />
  <polyline points="34.012,281.0571 30.012,281.0571" style="fill:none;stroke:black;stroke-width:1" />
  <polyline points="34.012,268.9585 30.012,268.9585" style="fill:none;stroke:black;stroke-width:1" />
  <polyline points="34.012,244.7613 30.012,244.7613" style="fill:none;stroke:black;stroke-width:1" />
  <polyline points="34.012,232.6627 30.012,232.6627" style="fill:none;stroke:black;stroke-width:1" />
  <polyline points="34.012,220.5641 30.012,220.5641" style="fill:none;stroke:black;stroke-width:1" />
  <polyline points="34.012,208.4655 30.012,208.4655" style="fill:none;stroke:black;stroke-width:1" />
  <polyline points="34.012,184.2683 30.012,184.2683" style="fill:none;stroke:black;stroke-width:1" />
  <polyline points="34.012,172.1697 30.012,172.1697" style="fill:none;stroke:black;stroke-width:1" />
  <polyline points="34.012,160.0711 30.012,160.0711" style="fill:none;stroke:black;stroke-width:1" />
  <polyline points="34.012,147.9725 30.012,147.9725" style="fill:none;stroke:black;stroke-width:1" />
  <polyline points="34.012,123.7753 30.012,123.7753" style="fill:none;stroke:black;stroke-width:1" />
  <polyline points="34.012,111.6767 30.012,111.6767" style="fill:none;stroke:black;stroke-width:1" />
  <polyline points="34.012,99.5781 30.012,99.5781" style="fill:none;stroke:black;stroke-width:1" />
  <polyline points="34.012,87.4795 30.012,87.4795" style="fill:none;stroke:black;stroke-width:1" />
  <polyline points="34.012,63.2823 30.012,63.2823" style="fill:none;stroke:black;stroke-width:1" />
  <polyline points="34.012,51.1837 30.012,51.1837" style="fill:none;stroke:black;stroke-width:1" />
  <polyline points="34.012,39.085 30.012,39.085" style="fill:none;stroke:black;stroke-width:1" />
  <text dominant-baseline="middle" text-anchor="end" transform="translate(23.012,317.353)" font-family="Segoe UI" font-size="12" font-weight="400" fill="black">100</text>
  <text dominant-baseline="middle" text-anchor="end" transform="translate(23.012,256.8599)" font-family="Segoe UI" font-size="12" font-weight="400" fill="black">200</text>
  <text dominant-baseline="middle" text-anchor="end" transform="translate(23.012,196.3669)" font-family="Segoe UI" font-size="12" font-weight="400" fill="black">300</text>
  <text dominant-baseline="middle" text-anchor="end" transform="translate(23.012,135.8739)" font-family="Segoe UI" font-size="12" font-weight="400" fill="black">400</text>
  <text dominant-baseline="middle" text-anchor="end" transform="translate(23.012,75.3809)" font-family="Segoe UI" font-size="12" font-weight="400" fill="black">500</text>
  <polyline points="34.012,317.353 27.012,317.353" style="fill:none;stroke:black;stroke-width:1" />
  <polyline points="34.012,256.8599 27.012,256.8599" style="fill:none;stroke:black;stroke-width:1" />
  <polyline points="34.012,196.3669 27.012,196.3669" style="fill:none;stroke:black;stroke-width:1" />
  <polyline points="34.012,135.8739 27.012,135.8739" style="fill:none;stroke:black;stroke-width:1" />
  <polyline points="34.012,75.3809 27.012,75.3809" style="fill:none;stroke:black;stroke-width:1" />
  <text dominant-baseline="hanging" text-anchor="middle" transform="translate(51.4491,381.947)" font-family="Segoe UI" font-size="12" font-weight="400" fill="black">15. August</text>
  <text dominant-baseline="hanging" text-anchor="middle" transform="translate(132.8224,381.947)" font-family="Segoe UI" font-size="12" font-weight="400" fill="black">29. August</text>
  <text dominant-baseline="hanging" text-anchor="middle" transform="translate(214.1956,381.947)" font-family="Segoe UI" font-size="12" font-weight="400" fill="black">12. September</text>
  <text dominant-baseline="hanging" text-anchor="middle" transform="translate(295.5689,381.947)" font-family="Segoe UI" font-size="12" font-weight="400" fill="black">26. September</text>
  <text dominant-baseline="hanging" text-anchor="middle" transform="translate(376.9421,381.947)" font-family="Segoe UI" font-size="12" font-weight="400" fill="black">10. October</text>
  <text dominant-baseline="hanging" text-anchor="middle" transform="translate(458.3154,381.947)" font-family="Segoe UI" font-size="12" font-weight="400" fill="black">24. October</text>
  <text dominant-baseline="hanging" text-anchor="middle" transform="translate(539.6886,381.947)" font-family="Segoe UI" font-size="12" font-weight="400" fill="black">07. November</text>
  <polyline points="51.4491,370.947 51.4491,377.947" style="fill:none;stroke:black;stroke-width:1" />
  <polyline points="132.8224,370.947 132.8224,377.947" style="fill:none;stroke:black;stroke-width:1" />
  <polyline points="214.1956,370.947 214.1956,377.947" style="fill:none;stroke:black;stroke-width:1" />
  <polyline points="295.5689,370.947 295.5689,377.947" style="fill:none;stroke:black;stroke-width:1" />
  <polyline points="376.9421,370.947 376.9421,377.947" style="fill:none;stroke:black;stroke-width:1" />
  <polyline points="458.3154,370.947 458.3154,377.947" style="fill:none;stroke:black;stroke-width:1" />
  <polyline points="539.6886,370.947 539.6886,377.947" style="fill:none;stroke:black;stroke-width:1" />
  <polyline points="34.012,359.6981 45.6368,354.2537 63.0739,357.8833 68.8863,354.2537 74.6986,356.6734 80.511,353.6488 86.3234,354.2537 103.7605,354.8586 109.5729,359.6981 115.3853,360.303 121.1976,359.0931 127.01,359.0931 144.4471,363.3277 150.2595,365.1425 156.0719,365.1425 161.8843,363.9326 167.6966,364.5375 185.1338,364.5375 190.9461,367.5622 196.7585,365.7474 202.5709,362.1178 208.3833,359.6981 225.8204,353.6488 231.6328,349.4143 237.4451,343.365 243.2575,342.76 249.0699,340.9452 266.507,346.3896 272.3194,347.5995 278.1318,346.9945 283.9441,344.5748 289.7565,341.5502 307.1936,327.0318 313.006,328.8466 318.8184,329.4516 324.6308,320.3776 330.4431,311.9086 347.8803,302.2297 353.6926,310.6987 359.505,302.8346 365.3174,294.3656 371.1298,291.9459 388.5669,273.798 394.3793,287.7114 400.1916,280.4522 406.004,264.1191 411.8164,240.5268 429.2535,210.2803 435.0659,212.0951 440.8783,208.4655 446.6906,180.6387 452.503,175.1944 469.9401,93.5288 475.7525,115.9112 481.5649,115.9112 487.3773,109.257 493.1896,72.9611 510.6268,84.4548 516.4391,144.9478 522.2515,131.6394 528.0639,114.0964 533.8763,106.8372 551.3134,66.3069 557.1258,91.109 562.9381,73.5661 574.5629,39.69 592,32.4308" style="fill:none;stroke:rgb(31,119,180);stroke-width:2;stroke-linejoin:bevel" />
  <text dominant-baseline="hanging" text-anchor="middle" transform="translate(313.006,8)" font-family="Segoe UI" font-size="18" font-weight="700" fill="black">Aktive Fälle Stadt Aachen 16.11.2020</text>
  <polygon points="34.012,29.0795 592,29.0795 592,370.947 34.012,370.947" style="fill:none;stroke:black;stroke-width:1" />
  <polygon points="42.012,37.0795 228.483,37.0795 228.483,63.1325 42.012,63.1325" style="fill:none;stroke:none;" />
  <text dominant-baseline="hanging" text-anchor="start" transform="translate(70.012,45.0795)" font-family="Segoe UI" font-size="12" font-weight="400" fill="black">Aktive Fälle Stadt Aachen 16.11.2020</text>
  <polyline points="50.012,50.106 66.012,50.106" style="fill:none;stroke:rgb(31,119,180);stroke-width:2" />
</svg>