<?xml version="1.0" encoding="utf-8" standalone="no"?>
<!DOCTYPE svg PUBLIC "-//W3C//DTD SVG 1.1//EN" "http://www.w3.org/Graphics/SVG/1.1/DTD/svg11.dtd">
<svg width="600" height="400" version="1.1" xmlns:xlink="http://www.w3.org/1999/xlink" xmlns="http://www.w3.org/2000/svg">
  <rect x="0" y="0" width="600" height="400" style="fill:rgb(255,255,255);stroke:none;" />
  <polyline points="34.012,342.7376 30.012,342.7376" style="fill:none;stroke:black;stroke-width:1" />
  <polyline points="34.012,327.2223 30.012,327.2223" style="fill:none;stroke:black;stroke-width:1" />
  <polyline points="34.012,311.7069 30.012,311.7069" style="fill:none;stroke:black;stroke-width:1" />
  <polyline points="34.012,280.6763 30.012,280.6763" style="fill:none;stroke:black;stroke-width:1" />
  <polyline points="34.012,265.1609 30.012,265.1609" style="fill:none;stroke:black;stroke-width:1" />
  <polyline points="34.012,249.6456 30.012,249.6456" style="fill:none;stroke:black;stroke-width:1" />
  <polyline points="34.012,218.6149 30.012,218.6149" style="fill:none;stroke:black;stroke-width:1" />
  <polyline points="34.012,203.0996 30.012,203.0996" style="fill:none;stroke:black;stroke-width:1" />
  <polyline points="34.012,187.5842 30.012,187.5842" style="fill:none;stroke:black;stroke-width:1" />
  <polyline points="34.012,156.5535 30.012,156.5535" style="fill:none;stroke:black;stroke-width:1" />
  <polyline points="34.012,141.0382 30.012,141.0382" style="fill:none;stroke:black;stroke-width:1" />
  <polyline points="34.012,125.5229 30.012,125.5229" style="fill:none;stroke:black;stroke-width:1" />
  <polyline points="34.012,94.4922 30.012,94.4922" style="fill:none;stroke:black;stroke-width:1" />
  <polyline points="34.012,78.9768 30.012,78.9768" style="fill:none;stroke:black;stroke-width:1" />
  <polyline points="34.012,63.4615 30.012,63.4615" style="fill:none;stroke:black;stroke-width:1" />
  <polyline points="34.012,32.4308 30.012,32.4308" style="fill:none;stroke:black;stroke-width:1" />
  <text dominant-baseline="middle" text-anchor="end" transform="translate(23.012,358.253)" font-family="Segoe UI" font-size="12" font-weight="400" fill="black">20</text>
  <text dominant-baseline="middle" text-anchor="end" transform="translate(23.012,296.1916)" font-family="Segoe UI" font-size="12" font-weight="400" fill="black">40</text>
  <text dominant-baseline="middle" text-anchor="end" transform="translate(23.012,234.1302)" font-family="Segoe UI" font-size="12" font-weight="400" fill="black">60</text>
  <text dominant-baseline="middle" text-anchor="end" transform="translate(23.012,172.0689)" font-family="Segoe UI" font-size="12" font-weight="400" fill="black">80</text>
  <text dominant-baseline="middle" text-anchor="end" transform="translate(23.012,110.0075)" font-family="Segoe UI" font-size="12" font-weight="400" fill="black">100</text>
  <text dominant-baseline="middle" text-anchor="end" transform="translate(23.012,47.9462)" font-family="Segoe UI" font-size="12" font-weight="400" fill="black">120</text>
  <polyline points="34.012,358.253 27.012,358.253" style="fill:none;stroke:black;stroke-width:1" />
  <polyline points="34.012,296.1916 27.012,296.1916" style="fill:none;stroke:black;stroke-width:1" />
  <polyline points="34.012,234.1302 27.012,234.1302" style="fill:none;stroke:black;stroke-width:1" />
  <polyline points="34.012,172.0689 27.012,172.0689" style="fill:none;stroke:black;stroke-width:1" />
  <polyline points="34.012,110.0075 27.012,110.0075" style="fill:none;stroke:black;stroke-width:1" />
  <polyline points="34.012,47.9462 27.012,47.9462" style="fill:none;stroke:black;stroke-width:1" />
  <text dominant-baseline="hanging" text-anchor="middle" transform="translate(44.5401,381.947)" font-family="Segoe UI" font-size="12" font-weight="400" fill="black">15. August</text>
  <text dominant-baseline="hanging" text-anchor="middle" transform="translate(118.2366,381.947)" font-family="Segoe UI" font-size="12" font-weight="400" fill="black">22. August</text>
  <text dominant-baseline="hanging" text-anchor="middle" transform="translate(191.9331,381.947)" font-family="Segoe UI" font-size="12" font-weight="400" fill="black">29. August</text>
  <text dominant-baseline="hanging" text-anchor="middle" transform="translate(265.6297,381.947)" font-family="Segoe UI" font-size="12" font-weight="400" fill="black">05. September</text>
  <text dominant-baseline="hanging" text-anchor="middle" transform="translate(339.3262,381.947)" font-family="Segoe UI" font-size="12" font-weight="400" fill="black">12. September</text>
  <text dominant-baseline="hanging" text-anchor="middle" transform="translate(413.0227,381.947)" font-family="Segoe UI" font-size="12" font-weight="400" fill="black">19. September</text>
  <text dominant-baseline="hanging" text-anchor="middle" transform="translate(486.7192,381.947)" font-family="Segoe UI" font-size="12" font-weight="400" fill="black">26. September</text>
  <text dominant-baseline="hanging" text-anchor="middle" transform="translate(560.4158,381.947)" font-family="Segoe UI" font-size="12" font-weight="400" fill="black">03. October</text>
  <polyline points="44.5401,370.947 44.5401,377.947" style="fill:none;stroke:black;stroke-width:1" />
  <polyline points="118.2366,370.947 118.2366,377.947" style="fill:none;stroke:black;stroke-width:1" />
  <polyline points="191.9331,370.947 191.9331,377.947" style="fill:none;stroke:black;stroke-width:1" />
  <polyline points="265.6297,370.947 265.6297,377.947" style="fill:none;stroke:black;stroke-width:1" />
  <polyline points="339.3262,370.947 339.3262,377.947" style="fill:none;stroke:black;stroke-width:1" />
  <polyline points="413.0227,370.947 413.0227,377.947" style="fill:none;stroke:black;stroke-width:1" />
  <polyline points="486.7192,370.947 486.7192,377.947" style="fill:none;stroke:black;stroke-width:1" />
  <polyline points="560.4158,370.947 560.4158,377.947" style="fill:none;stroke:black;stroke-width:1" />
  <polyline points="34.012,299.2947 65.5962,317.9131 76.1243,299.2947 86.6524,311.7069 97.1805,296.1916 107.7085,299.2947 139.2928,302.3977 149.8208,327.2223 160.3489,330.3254 170.877,324.1192 181.4051,324.1192 212.9893,345.8407 223.5174,355.1499 234.0454,355.1499 244.5735,348.9438 255.1016,352.0468 286.6858,352.0468 297.2139,367.5622 307.742,358.253 318.27,339.6346 328.7981,327.2223 360.3823,296.1916 370.9104,274.4701 381.4385,243.4394 434.0789,258.9548 444.6069,265.1609 455.135,262.0579 465.6631,249.6456 476.1912,234.1302 507.7754,159.6566 539.3596,125.5229 549.8877,82.0799 581.4719,32.4308 592,75.8738" style="fill:none;stroke:rgb(31,119,180);stroke-width:2;stroke-linejoin:bevel" />
  <text dominant-baseline="hanging" text-anchor="middle" transform="translate(313.006,8)" font-family="Segoe UI" font-size="18" font-weight="700" fill="black">Aktive Fälle Stadt Aachen 06.10.2020</text>
  <polygon points="34.012,29.0795 592,29.0795 592,370.947 34.012,370.947" style="fill:none;stroke:black;stroke-width:1" />
  <polygon points="42.012,37.0795 228.483,37.0795 228.483,63.1325 42.012,63.1325" style="fill:none;stroke:none;" />
  <text dominant-baseline="hanging" text-anchor="start" transform="translate(70.012,45.0795)" font-family="Segoe UI" font-size="12" font-weight="400" fill="black">Aktive Fälle Stadt Aachen 06.10.2020</text>
  <polyline points="50.012,50.106 66.012,50.106" style="fill:none;stroke:rgb(31,119,180);stroke-width:2" />
</svg>