<?xml version="1.0" encoding="utf-8" standalone="no"?>
<!DOCTYPE svg PUBLIC "-//W3C//DTD SVG 1.1//EN" "http://www.w3.org/Graphics/SVG/1.1/DTD/svg11.dtd">
<svg width="600" height="400" version="1.1" xmlns:xlink="http://www.w3.org/1999/xlink" xmlns="http://www.w3.org/2000/svg">
  <rect x="0" y="0" width="600" height="400" style="fill:rgb(255,255,255);stroke:none;" />
  <polyline points="34.012,350.1459 30.012,350.1459" style="fill:none;stroke:black;stroke-width:1" />
  <polyline points="34.012,323.7576 30.012,323.7576" style="fill:none;stroke:black;stroke-width:1" />
  <polyline points="34.012,297.3693 30.012,297.3693" style="fill:none;stroke:black;stroke-width:1" />
  <polyline points="34.012,244.5927 30.012,244.5927" style="fill:none;stroke:black;stroke-width:1" />
  <polyline points="34.012,218.2044 30.012,218.2044" style="fill:none;stroke:black;stroke-width:1" />
  <polyline points="34.012,191.8161 30.012,191.8161" style="fill:none;stroke:black;stroke-width:1" />
  <polyline points="34.012,139.0395 30.012,139.0395" style="fill:none;stroke:black;stroke-width:1" />
  <polyline points="34.012,112.6512 30.012,112.6512" style="fill:none;stroke:black;stroke-width:1" />
  <polyline points="34.012,86.2629 30.012,86.2629" style="fill:none;stroke:black;stroke-width:1" />
  <polyline points="34.012,33.4863 30.012,33.4863" style="fill:none;stroke:black;stroke-width:1" />
  <text dominant-baseline="middle" text-anchor="end" transform="translate(23.012,270.981)" font-family="Segoe UI" font-size="12" font-weight="400" fill="black">200</text>
  <text dominant-baseline="middle" text-anchor="end" transform="translate(23.012,165.4278)" font-family="Segoe UI" font-size="12" font-weight="400" fill="black">400</text>
  <text dominant-baseline="middle" text-anchor="end" transform="translate(23.012,59.8746)" font-family="Segoe UI" font-size="12" font-weight="400" fill="black">600</text>
  <polyline points="34.012,270.981 27.012,270.981" style="fill:none;stroke:black;stroke-width:1" />
  <polyline points="34.012,165.4278 27.012,165.4278" style="fill:none;stroke:black;stroke-width:1" />
  <polyline points="34.012,59.8746 27.012,59.8746" style="fill:none;stroke:black;stroke-width:1" />
  <text dominant-baseline="hanging" text-anchor="middle" transform="translate(47.4037,381.947)" font-family="Segoe UI" font-size="12" font-weight="400" fill="black">15. August</text>
  <text dominant-baseline="hanging" text-anchor="middle" transform="translate(109.8984,381.947)" font-family="Segoe UI" font-size="12" font-weight="400" fill="black">29. August</text>
  <text dominant-baseline="hanging" text-anchor="middle" transform="translate(172.393,381.947)" font-family="Segoe UI" font-size="12" font-weight="400" fill="black">12. September</text>
  <text dominant-baseline="hanging" text-anchor="middle" transform="translate(234.8877,381.947)" font-family="Segoe UI" font-size="12" font-weight="400" fill="black">26. September</text>
  <text dominant-baseline="hanging" text-anchor="middle" transform="translate(297.3823,381.947)" font-family="Segoe UI" font-size="12" font-weight="400" fill="black">10. October</text>
  <text dominant-baseline="hanging" text-anchor="middle" transform="translate(359.877,381.947)" font-family="Segoe UI" font-size="12" font-weight="400" fill="black">24. October</text>
  <text dominant-baseline="hanging" text-anchor="middle" transform="translate(422.3716,381.947)" font-family="Segoe UI" font-size="12" font-weight="400" fill="black">07. November</text>
  <text dominant-baseline="hanging" text-anchor="middle" transform="translate(484.8663,381.947)" font-family="Segoe UI" font-size="12" font-weight="400" fill="black">21. November</text>
  <text dominant-baseline="hanging" text-anchor="middle" transform="translate(547.361,381.947)" font-family="Segoe UI" font-size="12" font-weight="400" fill="black">05. December</text>
  <polyline points="47.4037,370.947 47.4037,377.947" style="fill:none;stroke:black;stroke-width:1" />
  <polyline points="109.8984,370.947 109.8984,377.947" style="fill:none;stroke:black;stroke-width:1" />
  <polyline points="172.393,370.947 172.393,377.947" style="fill:none;stroke:black;stroke-width:1" />
  <polyline points="234.8877,370.947 234.8877,377.947" style="fill:none;stroke:black;stroke-width:1" />
  <polyline points="297.3823,370.947 297.3823,377.947" style="fill:none;stroke:black;stroke-width:1" />
  <polyline points="359.877,370.947 359.877,377.947" style="fill:none;stroke:black;stroke-width:1" />
  <polyline points="422.3716,370.947 422.3716,377.947" style="fill:none;stroke:black;stroke-width:1" />
  <polyline points="484.8663,370.947 484.8663,377.947" style="fill:none;stroke:black;stroke-width:1" />
  <polyline points="547.361,370.947 547.361,377.947" style="fill:none;stroke:black;stroke-width:1" />
  <polyline points="34.012,360.7012 42.9398,355.9513 56.3315,359.1179 60.7954,355.9513 65.2593,358.0624 69.7232,355.4236 74.1871,355.9513 87.5788,356.4791 92.0428,360.7012 96.5067,361.229 100.9706,360.1735 105.4345,360.1735 118.8262,363.8678 123.2901,365.4511 127.754,365.4511 132.2179,364.3956 136.6818,364.9233 150.0735,364.9233 154.5374,367.5622 159.0013,365.9789 163.4652,362.8123 167.9291,360.7012 181.3208,355.4236 185.7847,351.7292 190.2486,346.4515 194.7125,345.9238 199.1764,344.3405 212.5682,349.0904 217.0321,350.1459 221.496,349.6181 225.9599,347.5071 230.4238,344.8682 243.8155,332.2019 248.2794,333.7852 252.7433,334.3129 257.2072,326.3964 261.6711,319.0077 275.0628,310.5635 279.5267,317.9522 283.9906,311.0912 288.4545,303.7025 292.9184,301.5914 306.3101,285.7585 310.774,297.8971 315.238,291.5639 319.7019,277.3142 324.1658,256.7313 337.5575,230.343 342.0214,231.9263 346.4853,228.7597 350.9492,204.4825 355.4131,199.7326 368.8048,128.4842 373.2687,148.0116 377.7326,148.0116 382.1965,142.2061 386.6604,110.5402 400.0521,120.5677 404.516,173.3443 408.9799,161.7335 413.4438,146.4283 417.9077,140.0951 431.2995,104.7347 435.7634,126.3731 440.2273,111.0679 449.1551,81.513 462.5468,75.1799 467.0107,104.7347 471.4746,112.6512 475.9385,79.402 480.4024,105.2625 493.7941,129.5397 498.258,149.0671 502.7219,142.2061 507.1858,158.5669 511.6497,133.7619 525.0414,102.6237 529.5053,120.04 533.9692,146.956 538.4332,137.4562 542.8971,151.1781 556.2888,85.2074 560.7527,113.179 565.2166,128.4842 569.6805,102.0959 574.1444,85.2074 587.5361,32.4308 592,65.6801" style="fill:none;stroke:rgb(31,119,180);stroke-width:2;stroke-linejoin:bevel" />
  <text dominant-baseline="hanging" text-anchor="middle" transform="translate(313.006,8)" font-family="Segoe UI" font-size="18" font-weight="700" fill="black">Aktive Fälle Stadt Aachen 15.12.2020</text>
  <polygon points="34.012,29.0795 592,29.0795 592,370.947 34.012,370.947" style="fill:none;stroke:black;stroke-width:1" />
  <polygon points="42.012,37.0795 228.483,37.0795 228.483,63.1325 42.012,63.1325" style="fill:none;stroke:none;" />
  <text dominant-baseline="hanging" text-anchor="start" transform="translate(70.012,45.0795)" font-family="Segoe UI" font-size="12" font-weight="400" fill="black">Aktive Fälle Stadt Aachen 15.12.2020</text>
  <polyline points="50.012,50.106 66.012,50.106" style="fill:none;stroke:rgb(31,119,180);stroke-width:2" />
</svg>