<?xml version="1.0" encoding="utf-8" standalone="no"?>
<!DOCTYPE svg PUBLIC "-//W3C//DTD SVG 1.1//EN" "http://www.w3.org/Graphics/SVG/1.1/DTD/svg11.dtd">
<svg width="600" height="400" version="1.1" xmlns:xlink="http://www.w3.org/1999/xlink" xmlns="http://www.w3.org/2000/svg">
  <rect x="0" y="0" width="600" height="400" style="fill:rgb(255,255,255);stroke:none;" />
  <polyline points="34.012,352.1162 30.012,352.1162" style="fill:none;stroke:black;stroke-width:1" />
  <polyline points="34.012,328.7131 30.012,328.7131" style="fill:none;stroke:black;stroke-width:1" />
  <polyline points="34.012,305.3101 30.012,305.3101" style="fill:none;stroke:black;stroke-width:1" />
  <polyline points="34.012,258.5041 30.012,258.5041" style="fill:none;stroke:black;stroke-width:1" />
  <polyline points="34.012,235.101 30.012,235.101" style="fill:none;stroke:black;stroke-width:1" />
  <polyline points="34.012,211.698 30.012,211.698" style="fill:none;stroke:black;stroke-width:1" />
  <polyline points="34.012,164.892 30.012,164.892" style="fill:none;stroke:black;stroke-width:1" />
  <polyline points="34.012,141.4889 30.012,141.4889" style="fill:none;stroke:black;stroke-width:1" />
  <polyline points="34.012,118.0859 30.012,118.0859" style="fill:none;stroke:black;stroke-width:1" />
  <polyline points="34.012,71.2798 30.012,71.2798" style="fill:none;stroke:black;stroke-width:1" />
  <polyline points="34.012,47.8768 30.012,47.8768" style="fill:none;stroke:black;stroke-width:1" />
  <text dominant-baseline="middle" text-anchor="end" transform="translate(23.012,281.9071)" font-family="Segoe UI" font-size="12" font-weight="400" fill="black">200</text>
  <text dominant-baseline="middle" text-anchor="end" transform="translate(23.012,188.295)" font-family="Segoe UI" font-size="12" font-weight="400" fill="black">400</text>
  <text dominant-baseline="middle" text-anchor="end" transform="translate(23.012,94.6829)" font-family="Segoe UI" font-size="12" font-weight="400" fill="black">600</text>
  <polyline points="34.012,281.9071 27.012,281.9071" style="fill:none;stroke:black;stroke-width:1" />
  <polyline points="34.012,188.295 27.012,188.295" style="fill:none;stroke:black;stroke-width:1" />
  <polyline points="34.012,94.6829 27.012,94.6829" style="fill:none;stroke:black;stroke-width:1" />
  <text dominant-baseline="hanging" text-anchor="middle" transform="translate(106.9516,381.947)" font-family="Segoe UI" font-size="12" font-weight="400" fill="black">01. September</text>
  <text dominant-baseline="hanging" text-anchor="middle" transform="translate(216.361,381.947)" font-family="Segoe UI" font-size="12" font-weight="400" fill="black">01. October</text>
  <text dominant-baseline="hanging" text-anchor="middle" transform="translate(329.4174,381.947)" font-family="Segoe UI" font-size="12" font-weight="400" fill="black">01. November</text>
  <text dominant-baseline="hanging" text-anchor="middle" transform="translate(438.8268,381.947)" font-family="Segoe UI" font-size="12" font-weight="400" fill="black">01. December</text>
  <text dominant-baseline="hanging" text-anchor="middle" transform="translate(551.8832,381.947)" font-family="Segoe UI" font-size="12" font-weight="400" fill="black">01. January</text>
  <polyline points="106.9516,370.947 106.9516,377.947" style="fill:none;stroke:black;stroke-width:1" />
  <polyline points="216.361,370.947 216.361,377.947" style="fill:none;stroke:black;stroke-width:1" />
  <polyline points="329.4174,370.947 329.4174,377.947" style="fill:none;stroke:black;stroke-width:1" />
  <polyline points="438.8268,370.947 438.8268,377.947" style="fill:none;stroke:black;stroke-width:1" />
  <polyline points="551.8832,370.947 551.8832,377.947" style="fill:none;stroke:black;stroke-width:1" />
  <polyline points="34.012,361.4774 41.306,357.2648 52.2469,360.0732 55.8939,357.2648 59.5409,359.1371 63.1878,356.7968 66.8348,357.2648 77.7758,357.7329 81.4227,361.4774 85.0697,361.9454 88.7167,361.0093 92.3637,361.0093 103.3046,364.2857 106.9516,365.6899 110.5986,365.6899 114.2456,364.7538 117.8925,365.2219 128.8335,365.2219 132.4805,367.5622 136.1275,366.158 139.7744,363.3496 143.4214,361.4774 154.3624,356.7968 158.0093,353.5204 161.6563,348.8398 165.3033,348.3717 168.9503,346.9675 179.8912,351.1801 183.5382,352.1162 187.1852,351.6481 190.8322,349.7759 194.4791,347.4356 205.4201,336.2021 209.0671,337.6063 212.714,338.0744 216.361,331.0534 220.008,324.5006 230.9489,317.0116 234.5959,323.5645 238.2429,317.4797 241.8899,310.9268 245.5369,309.0546 256.4778,295.0128 260.1248,305.7782 263.7718,300.1615 267.4187,287.5238 271.0657,269.2695 282.0067,245.8664 285.6536,247.2706 289.3006,244.4622 292.9476,222.9315 296.5946,218.7189 307.5355,155.5307 311.1825,172.849 314.8295,172.849 318.4765,167.7003 322.1235,139.6167 333.0644,148.5098 336.7114,195.3159 340.3584,185.0186 344.0053,171.4448 347.6523,165.8281 358.5933,134.468 362.2402,153.6585 365.8872,140.0847 373.1812,113.8734 384.1221,108.2566 387.7691,134.468 391.4161,141.4889 395.0631,112.0011 398.71,134.9361 409.651,156.4669 413.298,173.7851 416.9449,167.7003 420.5919,182.2102 424.2389,160.2113 435.1798,132.5958 438.8268,148.0418 442.4738,171.9129 446.1208,163.4878 449.7678,175.6573 460.7087,117.1498 464.3557,141.957 468.0027,155.5307 471.6496,132.1277 475.2966,117.1498 486.2376,70.3437 489.8845,99.8315 493.5315,111.065 497.1785,95.1509 500.8255,69.8757 511.7664,33.835 515.4134,61.4506 519.0604,84.8536 537.2953,32.4308 540.9423,57.7061 544.5893,76.4285 548.2362,56.77 562.8242,57.238 566.4711,82.5133 570.1181,118.0859 573.7651,126.0429 577.4121,98.8954 588.353,112.0011 592,150.8501" style="fill:none;stroke:rgb(31,119,180);stroke-width:2;stroke-linejoin:bevel" />
  <text dominant-baseline="hanging" text-anchor="middle" transform="translate(313.006,8)" font-family="Segoe UI" font-size="18" font-weight="700" fill="black">Aktive Fälle Stadt Aachen 12.01.2021</text>
  <polygon points="34.012,29.0795 592,29.0795 592,370.947 34.012,370.947" style="fill:none;stroke:black;stroke-width:1" />
  <polygon points="42.012,37.0795 228.483,37.0795 228.483,63.1325 42.012,63.1325" style="fill:none;stroke:none;" />
  <text dominant-baseline="hanging" text-anchor="start" transform="translate(70.012,45.0795)" font-family="Segoe UI" font-size="12" font-weight="400" fill="black">Aktive Fälle Stadt Aachen 12.01.2021</text>
  <polyline points="50.012,50.106 66.012,50.106" style="fill:none;stroke:rgb(31,119,180);stroke-width:2" />
</svg>