<?xml version="1.0" encoding="utf-8" standalone="no"?>
<!DOCTYPE svg PUBLIC "-//W3C//DTD SVG 1.1//EN" "http://www.w3.org/Graphics/SVG/1.1/DTD/svg11.dtd">
<svg width="600" height="400" version="1.1" xmlns:xlink="http://www.w3.org/1999/xlink" xmlns="http://www.w3.org/2000/svg">
  <rect x="0" y="0" width="600" height="400" style="fill:rgb(255,255,255);stroke:none;" />
  <polyline points="39.016,355.3703 35.016,355.3703" style="fill:none;stroke:black;stroke-width:1" />
  <polyline points="39.016,328.6893 35.016,328.6893" style="fill:none;stroke:black;stroke-width:1" />
  <polyline points="39.016,302.0082 35.016,302.0082" style="fill:none;stroke:black;stroke-width:1" />
  <polyline points="39.016,275.3271 35.016,275.3271" style="fill:none;stroke:black;stroke-width:1" />
  <polyline points="39.016,221.965 35.016,221.965" style="fill:none;stroke:black;stroke-width:1" />
  <polyline points="39.016,195.2839 35.016,195.2839" style="fill:none;stroke:black;stroke-width:1" />
  <polyline points="39.016,168.6028 35.016,168.6028" style="fill:none;stroke:black;stroke-width:1" />
  <polyline points="39.016,141.9218 35.016,141.9218" style="fill:none;stroke:black;stroke-width:1" />
  <polyline points="39.016,88.5596 35.016,88.5596" style="fill:none;stroke:black;stroke-width:1" />
  <polyline points="39.016,61.8785 35.016,61.8785" style="fill:none;stroke:black;stroke-width:1" />
  <polyline points="39.016,35.1975 35.016,35.1975" style="fill:none;stroke:black;stroke-width:1" />
  <text dominant-baseline="middle" text-anchor="end" transform="translate(28.016,248.6461)" font-family="Segoe UI" font-size="12" font-weight="400" fill="black">500</text>
  <text dominant-baseline="middle" text-anchor="end" transform="translate(28.016,115.2407)" font-family="Segoe UI" font-size="12" font-weight="400" fill="black">1000</text>
  <polyline points="39.016,248.6461 32.016,248.6461" style="fill:none;stroke:black;stroke-width:1" />
  <polyline points="39.016,115.2407 32.016,115.2407" style="fill:none;stroke:black;stroke-width:1" />
  <polyline points="39.016,296.4052 591.6434,374.0471 591.6449,371.6458 591.6524,371.9126 591.6531,374.0471 591.6576,375.648 591.6584,376.4484 591.6651,375.1143 591.6659,374.0471 591.6681,371.379 591.6689,369.5113 591.6696,366.8432 591.6764,366.0428 591.6786,359.6393 591.6801,360.7066 591.6809,356.7044 591.6816,352.9691 591.6838,348.7001 591.6846,352.4354 591.6853,348.9669 591.6861,345.2315 591.6868,344.1643 591.6891,336.16 591.6898,342.2966 591.6906,339.0949 591.6913,331.891 591.6921,321.4854 591.6943,308.1448 591.6958,307.3444 591.6966,295.0711 591.6973,292.6698 591.6996,256.6504 591.7003,266.5224 591.7011,266.5224 591.7018,263.5875 591.7026,247.5788 591.7048,252.6482 591.7056,279.3293 591.7063,273.4595 591.7071,265.7219 591.7078,262.5202 591.7101,244.6439 591.7108,255.5831 591.7116,247.8456 591.7131,232.9042 591.7153,229.7025 591.7161,244.6439 591.7168,248.6461 591.7176,231.837 591.7183,244.9107 591.7206,257.184 591.7213,267.056 591.7221,263.5875 591.7228,271.8586 591.7236,259.3185 591.7258,243.5767 591.7266,252.3814 591.7273,265.9888 591.728,261.1862 591.7288,268.1232 591.731,234.7719 591.7318,248.9129 591.7325,256.6504 591.7333,243.3098 591.734,234.7719 591.7363,208.0908 591.737,224.8999 591.7378,231.3034 591.7385,222.2318 591.7393,207.824 591.7415,187.2796 591.7423,203.0214 591.743,216.362 591.7468,186.4792 591.7475,200.8869 591.7483,211.5594 591.749,200.3533 591.752,200.6201 591.7528,215.0279 591.7535,235.3055 591.7543,239.8413 591.755,224.3663 591.758,253.9823 591.7588,267.5896 591.7595,261.7198 591.7603,276.6612 591.7625,285.4659 591.7633,300.941 591.764,304.9431 591.7648,303.8759 591.7655,301.4746 591.7678,301.2078 591.7693,307.3444 591.77,296.1384 591.7708,288.9345 591.773,290.0017 591.7737,302.275 591.7745,312.9474 591.7752,307.878 591.776,307.878 591.7782,317.4832 591.779,324.4203 591.7797,320.4181 591.7805,312.4138 591.7812,304.4095 591.7835,310.2793 591.7842,330.0233 591.785,328.9561 591.7857,323.3531 591.7865,335.3595 591.7887,340.4289 591.7895,345.2315 591.7902,342.0298 591.794,343.6307 591.7947,350.3009 591.7955,345.7652 591.7962,331.3574 591.797,330.5569 591.7992,319.6177 591.8,319.6177 591.8007,315.3487 591.8015,308.6785 591.8022,300.4073 591.8045,294.8043 591.806,296.1384 591.8067,279.3293 591.8075,267.8564 591.8097,253.7155 591.8112,255.0495 591.812,236.6396 591.8127,233.171 591.815,230.7697 591.8157,249.7133 591.8165,253.4486 591.8172,247.0452 591.818,227.568 591.8209,215.5615 591.8217,217.696 591.8224,198.2188 591.8232,193.9499 591.8254,189.1473 591.8262,190.4813 591.8269,175.8067 591.8277,164.8675 591.8284,167.002 591.8307,153.3946 591.8314,149.3925 591.8322,130.7157 591.8329,106.9696 591.8337,96.8307 591.8359,105.1019 591.8367,110.9717 591.8374,125.1127 591.8382,134.7179 591.8389,129.3817 591.8412,161.6658 591.8419,158.1972 591.8427,175.0063 591.8434,182.477 591.8442,193.9499 591.8464,194.4835 591.8472,216.8956 591.8479,212.6266 591.8494,224.8999 591.8517,213.6938 591.8524,225.1667 591.8532,225.7003 591.8539,220.8977 591.8547,224.6331 591.8577,248.3792 591.8584,264.6547 591.8592,270.5245 591.8599,266.2556 591.8622,288.6677 591.8629,306.0104 591.8637,311.8802 591.8651,322.5526 591.8674,329.7565 591.8681,335.8932 591.8689,344.9647 591.8696,348.1665 591.8704,352.1686 591.8734,352.4354 591.8741,361.7738 591.8779,363.3747 591.8786,364.4419 591.8831,366.3096 591.8839,367.9105 591.8846,367.6436 591.8854,365.776 591.8861,366.8432 591.8884,367.9105 591.8951,367.11 591.8966,361.7738 591.9004,353.2359 591.9019,343.3639 591.9056,341.4962 591.9071,336.16 591.9108,342.5634 591.9123,339.8953 591.9161,327.8888 591.9176,308.6785 591.9213,296.4052 591.9228,284.9323 591.9266,260.3857 591.9281,257.9844 591.9318,257.7176 591.9333,255.8499 591.9386,265.4551 591.9438,279.8629 591.9476,294.8043 591.9491,297.2056 591.9528,305.7436 591.9543,310.2793 591.958,320.9518 591.9595,322.019 591.9633,326.288 591.9685,326.5548 591.97,317.2164 591.9738,303.8759 591.9753,273.4595 591.979,263.3206 591.9805,234.2383 591.9843,208.3576 591.9858,176.3403 591.9895,146.7244 591.991,127.7808 591.9948,85.0911 591.9963,51.2061 592,32.5294" style="fill:none;stroke:rgb(31,119,180);stroke-width:2;stroke-linejoin:bevel" />
  <text dominant-baseline="hanging" text-anchor="middle" transform="translate(315.508,8)" font-family="Segoe UI" font-size="18" font-weight="700" fill="black">Aktive Fälle Stadt Aachen 01.12.2021</text>
  <polygon points="39.016,29.0795 592,29.0795 592,381 39.016,381" style="fill:none;stroke:black;stroke-width:1" />
  <polygon points="47.016,37.0795 233.487,37.0795 233.487,63.1325 47.016,63.1325" style="fill:none;stroke:none;" />
  <text dominant-baseline="hanging" text-anchor="start" transform="translate(75.016,45.0795)" font-family="Segoe UI" font-size="12" font-weight="400" fill="black">Aktive Fälle Stadt Aachen 01.12.2021</text>
  <polyline points="55.016,50.106 71.016,50.106" style="fill:none;stroke:rgb(31,119,180);stroke-width:2" />
</svg>