<?xml version="1.0" encoding="utf-8" standalone="no"?>
<!DOCTYPE svg PUBLIC "-//W3C//DTD SVG 1.1//EN" "http://www.w3.org/Graphics/SVG/1.1/DTD/svg11.dtd">
<svg width="600" height="400" version="1.1" xmlns:xlink="http://www.w3.org/1999/xlink" xmlns="http://www.w3.org/2000/svg">
  <rect x="0" y="0" width="600" height="400" style="fill:rgb(255,255,255);stroke:none;" />
  <polyline points="34.012,352.1162 30.012,352.1162" style="fill:none;stroke:black;stroke-width:1" />
  <polyline points="34.012,328.7131 30.012,328.7131" style="fill:none;stroke:black;stroke-width:1" />
  <polyline points="34.012,305.3101 30.012,305.3101" style="fill:none;stroke:black;stroke-width:1" />
  <polyline points="34.012,258.5041 30.012,258.5041" style="fill:none;stroke:black;stroke-width:1" />
  <polyline points="34.012,235.101 30.012,235.101" style="fill:none;stroke:black;stroke-width:1" />
  <polyline points="34.012,211.698 30.012,211.698" style="fill:none;stroke:black;stroke-width:1" />
  <polyline points="34.012,164.892 30.012,164.892" style="fill:none;stroke:black;stroke-width:1" />
  <polyline points="34.012,141.4889 30.012,141.4889" style="fill:none;stroke:black;stroke-width:1" />
  <polyline points="34.012,118.0859 30.012,118.0859" style="fill:none;stroke:black;stroke-width:1" />
  <polyline points="34.012,71.2798 30.012,71.2798" style="fill:none;stroke:black;stroke-width:1" />
  <polyline points="34.012,47.8768 30.012,47.8768" style="fill:none;stroke:black;stroke-width:1" />
  <text dominant-baseline="middle" text-anchor="end" transform="translate(23.012,281.9071)" font-family="Segoe UI" font-size="12" font-weight="400" fill="black">200</text>
  <text dominant-baseline="middle" text-anchor="end" transform="translate(23.012,188.295)" font-family="Segoe UI" font-size="12" font-weight="400" fill="black">400</text>
  <text dominant-baseline="middle" text-anchor="end" transform="translate(23.012,94.6829)" font-family="Segoe UI" font-size="12" font-weight="400" fill="black">600</text>
  <polyline points="34.012,281.9071 27.012,281.9071" style="fill:none;stroke:black;stroke-width:1" />
  <polyline points="34.012,188.295 27.012,188.295" style="fill:none;stroke:black;stroke-width:1" />
  <polyline points="34.012,94.6829 27.012,94.6829" style="fill:none;stroke:black;stroke-width:1" />
  <text dominant-baseline="hanging" text-anchor="middle" transform="translate(88.7167,381.947)" font-family="Segoe UI" font-size="12" font-weight="400" fill="black">01. September</text>
  <text dominant-baseline="hanging" text-anchor="middle" transform="translate(170.7738,381.947)" font-family="Segoe UI" font-size="12" font-weight="400" fill="black">01. October</text>
  <text dominant-baseline="hanging" text-anchor="middle" transform="translate(255.5661,381.947)" font-family="Segoe UI" font-size="12" font-weight="400" fill="black">01. November</text>
  <text dominant-baseline="hanging" text-anchor="middle" transform="translate(337.6231,381.947)" font-family="Segoe UI" font-size="12" font-weight="400" fill="black">01. December</text>
  <text dominant-baseline="hanging" text-anchor="middle" transform="translate(422.4154,381.947)" font-family="Segoe UI" font-size="12" font-weight="400" fill="black">01. January</text>
  <text dominant-baseline="hanging" text-anchor="middle" transform="translate(507.2077,381.947)" font-family="Segoe UI" font-size="12" font-weight="400" fill="black">01. February</text>
  <text dominant-baseline="hanging" text-anchor="middle" transform="translate(583.7943,381.947)" font-family="Segoe UI" font-size="12" font-weight="400" fill="black">01. March</text>
  <polyline points="88.7167,370.947 88.7167,377.947" style="fill:none;stroke:black;stroke-width:1" />
  <polyline points="170.7738,370.947 170.7738,377.947" style="fill:none;stroke:black;stroke-width:1" />
  <polyline points="255.5661,370.947 255.5661,377.947" style="fill:none;stroke:black;stroke-width:1" />
  <polyline points="337.6231,370.947 337.6231,377.947" style="fill:none;stroke:black;stroke-width:1" />
  <polyline points="422.4154,370.947 422.4154,377.947" style="fill:none;stroke:black;stroke-width:1" />
  <polyline points="507.2077,370.947 507.2077,377.947" style="fill:none;stroke:black;stroke-width:1" />
  <polyline points="583.7943,370.947 583.7943,377.947" style="fill:none;stroke:black;stroke-width:1" />
  <polyline points="34.012,361.4774 39.4825,357.2648 47.6882,360.0732 50.4234,357.2648 53.1586,359.1371 55.8939,356.7968 58.6291,357.2648 66.8348,357.7329 69.5701,361.4774 72.3053,361.9454 75.0405,361.0093 77.7758,361.0093 85.9815,364.2857 88.7167,365.6899 91.4519,365.6899 94.1872,364.7538 96.9224,365.2219 105.1281,365.2219 107.8634,367.5622 110.5986,366.158 113.3338,363.3496 116.0691,361.4774 124.2748,356.7968 127.01,353.5204 129.7452,348.8398 132.4805,348.3717 135.2157,346.9675 143.4214,351.1801 146.1566,352.1162 148.8919,351.6481 151.6271,349.7759 154.3624,347.4356 162.5681,336.2021 165.3033,337.6063 168.0385,338.0744 170.7738,331.0534 173.509,324.5006 181.7147,317.0116 184.4499,323.5645 187.1852,317.4797 189.9204,310.9268 192.6556,309.0546 200.8614,295.0128 203.5966,305.7782 206.3318,300.1615 209.0671,287.5238 211.8023,269.2695 220.008,245.8664 222.7432,247.2706 225.4785,244.4622 228.2137,222.9315 230.9489,218.7189 239.1546,155.5307 241.8899,172.849 244.6251,172.849 247.3604,167.7003 250.0956,139.6167 258.3013,148.5098 261.0365,195.3159 263.7718,185.0186 266.507,171.4448 269.2422,165.8281 277.4479,134.468 280.1832,153.6585 282.9184,140.0847 288.3889,113.8734 296.5946,108.2566 299.3298,134.468 302.0651,141.4889 304.8003,112.0011 307.5355,134.9361 315.7412,156.4669 318.4765,173.7851 321.2117,167.7003 323.9469,182.2102 326.6822,160.2113 334.8879,132.5958 337.6231,148.0418 340.3584,171.9129 343.0936,163.4878 345.8288,175.6573 354.0345,117.1498 356.7698,141.957 359.505,155.5307 362.2402,132.1277 364.9755,117.1498 373.1812,70.3437 375.9164,99.8315 378.6516,111.065 381.3869,95.1509 384.1221,69.8757 392.3278,33.835 395.0631,61.4506 397.7983,84.8536 411.4745,32.4308 414.2097,57.7061 416.9449,76.4285 419.6802,56.77 430.6211,57.238 433.3564,82.5133 436.0916,118.0859 438.8268,126.0429 441.5621,98.8954 452.503,150.8501 455.2382,174.7212 457.9735,164.4239 460.7087,190.6353 468.9144,206.0813 471.6496,233.2288 474.3849,240.2497 477.1201,238.3775 479.8554,234.1649 488.0611,233.6969 493.5315,244.4622 496.2668,224.8037 499.002,212.1661 507.2077,214.0383 509.9429,235.5691 512.6782,254.2915 515.4134,245.3984 518.1486,245.3984 526.3544,262.2485 529.0896,274.4181 531.8248,267.3972 534.5601,253.3554 537.2953,239.3136 545.501,249.6109 548.2362,284.2474 550.9715,282.3752 553.7067,272.5459 556.4419,293.6086 564.6476,302.5018 567.3829,310.9268 570.1181,305.3101 572.8534,303.4379 575.5886,305.7782 583.7943,308.1185 586.5295,319.82 589.2648,311.863 592,286.5877" style="fill:none;stroke:rgb(31,119,180);stroke-width:2;stroke-linejoin:bevel" />
  <text dominant-baseline="hanging" text-anchor="middle" transform="translate(313.006,8)" font-family="Segoe UI" font-size="18" font-weight="700" fill="black">Aktive Fälle Stadt Aachen 04.03.2021</text>
  <polygon points="34.012,29.0795 592,29.0795 592,370.947 34.012,370.947" style="fill:none;stroke:black;stroke-width:1" />
  <polygon points="42.012,37.0795 228.483,37.0795 228.483,63.1325 42.012,63.1325" style="fill:none;stroke:none;" />
  <text dominant-baseline="hanging" text-anchor="start" transform="translate(70.012,45.0795)" font-family="Segoe UI" font-size="12" font-weight="400" fill="black">Aktive Fälle Stadt Aachen 04.03.2021</text>
  <polyline points="50.012,50.106 66.012,50.106" style="fill:none;stroke:rgb(31,119,180);stroke-width:2" />
</svg>