<?xml version="1.0" encoding="utf-8" standalone="no"?>
<!DOCTYPE svg PUBLIC "-//W3C//DTD SVG 1.1//EN" "http://www.w3.org/Graphics/SVG/1.1/DTD/svg11.dtd">
<svg width="600" height="400" version="1.1" xmlns:xlink="http://www.w3.org/1999/xlink" xmlns="http://www.w3.org/2000/svg">
  <rect x="0" y="0" width="600" height="400" style="fill:rgb(255,255,255);stroke:none;" />
  <polyline points="34.012,352.1162 30.012,352.1162" style="fill:none;stroke:black;stroke-width:1" />
  <polyline points="34.012,328.7131 30.012,328.7131" style="fill:none;stroke:black;stroke-width:1" />
  <polyline points="34.012,305.3101 30.012,305.3101" style="fill:none;stroke:black;stroke-width:1" />
  <polyline points="34.012,258.5041 30.012,258.5041" style="fill:none;stroke:black;stroke-width:1" />
  <polyline points="34.012,235.101 30.012,235.101" style="fill:none;stroke:black;stroke-width:1" />
  <polyline points="34.012,211.698 30.012,211.698" style="fill:none;stroke:black;stroke-width:1" />
  <polyline points="34.012,164.892 30.012,164.892" style="fill:none;stroke:black;stroke-width:1" />
  <polyline points="34.012,141.4889 30.012,141.4889" style="fill:none;stroke:black;stroke-width:1" />
  <polyline points="34.012,118.0859 30.012,118.0859" style="fill:none;stroke:black;stroke-width:1" />
  <polyline points="34.012,71.2798 30.012,71.2798" style="fill:none;stroke:black;stroke-width:1" />
  <polyline points="34.012,47.8768 30.012,47.8768" style="fill:none;stroke:black;stroke-width:1" />
  <text dominant-baseline="middle" text-anchor="end" transform="translate(23.012,281.9071)" font-family="Segoe UI" font-size="12" font-weight="400" fill="black">200</text>
  <text dominant-baseline="middle" text-anchor="end" transform="translate(23.012,188.295)" font-family="Segoe UI" font-size="12" font-weight="400" fill="black">400</text>
  <text dominant-baseline="middle" text-anchor="end" transform="translate(23.012,94.6829)" font-family="Segoe UI" font-size="12" font-weight="400" fill="black">600</text>
  <polyline points="34.012,281.9071 27.012,281.9071" style="fill:none;stroke:black;stroke-width:1" />
  <polyline points="34.012,188.295 27.012,188.295" style="fill:none;stroke:black;stroke-width:1" />
  <polyline points="34.012,94.6829 27.012,94.6829" style="fill:none;stroke:black;stroke-width:1" />
  <text dominant-baseline="hanging" text-anchor="middle" transform="translate(86.6524,381.947)" font-family="Segoe UI" font-size="12" font-weight="400" fill="black">01. September</text>
  <text dominant-baseline="hanging" text-anchor="middle" transform="translate(165.6129,381.947)" font-family="Segoe UI" font-size="12" font-weight="400" fill="black">01. October</text>
  <text dominant-baseline="hanging" text-anchor="middle" transform="translate(247.2055,381.947)" font-family="Segoe UI" font-size="12" font-weight="400" fill="black">01. November</text>
  <text dominant-baseline="hanging" text-anchor="middle" transform="translate(326.1661,381.947)" font-family="Segoe UI" font-size="12" font-weight="400" fill="black">01. December</text>
  <text dominant-baseline="hanging" text-anchor="middle" transform="translate(407.7587,381.947)" font-family="Segoe UI" font-size="12" font-weight="400" fill="black">01. January</text>
  <text dominant-baseline="hanging" text-anchor="middle" transform="translate(489.3513,381.947)" font-family="Segoe UI" font-size="12" font-weight="400" fill="black">01. February</text>
  <text dominant-baseline="hanging" text-anchor="middle" transform="translate(563.0478,381.947)" font-family="Segoe UI" font-size="12" font-weight="400" fill="black">01. March</text>
  <polyline points="86.6524,370.947 86.6524,377.947" style="fill:none;stroke:black;stroke-width:1" />
  <polyline points="165.6129,370.947 165.6129,377.947" style="fill:none;stroke:black;stroke-width:1" />
  <polyline points="247.2055,370.947 247.2055,377.947" style="fill:none;stroke:black;stroke-width:1" />
  <polyline points="326.1661,370.947 326.1661,377.947" style="fill:none;stroke:black;stroke-width:1" />
  <polyline points="407.7587,370.947 407.7587,377.947" style="fill:none;stroke:black;stroke-width:1" />
  <polyline points="489.3513,370.947 489.3513,377.947" style="fill:none;stroke:black;stroke-width:1" />
  <polyline points="563.0478,370.947 563.0478,377.947" style="fill:none;stroke:black;stroke-width:1" />
  <polyline points="34.012,361.4774 39.276,357.2648 47.1721,360.0732 49.8041,357.2648 52.4361,359.1371 55.0682,356.7968 57.7002,357.2648 65.5962,357.7329 68.2282,361.4774 70.8603,361.9454 73.4923,361.0093 76.1243,361.0093 84.0204,364.2857 86.6524,365.6899 89.2844,365.6899 91.9164,364.7538 94.5484,365.2219 102.4445,365.2219 105.0765,367.5622 107.7085,366.158 110.3405,363.3496 112.9726,361.4774 120.8686,356.7968 123.5006,353.5204 126.1327,348.8398 128.7647,348.3717 131.3967,346.9675 139.2928,351.1801 141.9248,352.1162 144.5568,351.6481 147.1888,349.7759 149.8208,347.4356 157.7169,336.2021 160.3489,337.6063 162.9809,338.0744 165.6129,331.0534 168.245,324.5006 176.141,317.0116 178.773,323.5645 181.4051,317.4797 184.0371,310.9268 186.6691,309.0546 194.5652,295.0128 197.1972,305.7782 199.8292,300.1615 202.4612,287.5238 205.0932,269.2695 212.9893,245.8664 215.6213,247.2706 218.2533,244.4622 220.8853,222.9315 223.5174,218.7189 231.4134,155.5307 234.0454,172.849 236.6775,172.849 239.3095,167.7003 241.9415,139.6167 249.8375,148.5098 252.4696,195.3159 255.1016,185.0186 257.7336,171.4448 260.3656,165.8281 268.2617,134.468 270.8937,153.6585 273.5257,140.0847 278.7898,113.8734 286.6858,108.2566 289.3178,134.468 291.9498,141.4889 294.5819,112.0011 297.2139,134.9361 305.1099,156.4669 307.742,173.7851 310.374,167.7003 313.006,182.2102 315.638,160.2113 323.5341,132.5958 326.1661,148.0418 328.7981,171.9129 331.4301,163.4878 334.0622,175.6573 341.9582,117.1498 344.5902,141.957 347.2222,155.5307 349.8543,132.1277 352.4863,117.1498 360.3823,70.3437 363.0144,99.8315 365.6464,111.065 368.2784,95.1509 370.9104,69.8757 378.8065,33.835 381.4385,61.4506 384.0705,84.8536 397.2306,32.4308 399.8626,57.7061 402.4946,76.4285 405.1267,56.77 415.6547,57.238 418.2868,82.5133 420.9188,118.0859 423.5508,126.0429 426.1828,98.8954 436.7109,150.8501 439.3429,174.7212 441.9749,164.4239 444.6069,190.6353 452.503,206.0813 455.135,233.2288 457.767,240.2497 460.3991,238.3775 463.0311,234.1649 470.9271,233.6969 476.1912,244.4622 478.8232,224.8037 481.4552,212.1661 489.3513,214.0383 491.9833,235.5691 494.6153,254.2915 497.2473,245.3984 499.8793,245.3984 507.7754,262.2485 510.4074,274.4181 513.0394,267.3972 515.6715,253.3554 518.3035,239.3136 526.1995,249.6109 528.8315,284.2474 531.4636,282.3752 534.0956,272.5459 536.7276,293.6086 544.6237,302.5018 547.2557,310.9268 549.8877,305.3101 552.5197,303.4379 555.1517,305.7782 563.0478,308.1185 565.6798,319.82 568.3118,311.863 570.9438,286.5877 573.5759,285.1835 581.4719,265.993 584.1039,265.993 586.736,258.5041 589.368,246.8025 592,232.2927" style="fill:none;stroke:rgb(31,119,180);stroke-width:2;stroke-linejoin:bevel" />
  <text dominant-baseline="hanging" text-anchor="middle" transform="translate(313.006,8)" font-family="Segoe UI" font-size="18" font-weight="700" fill="black">Aktive Fälle Stadt Aachen 12.03.2021</text>
  <polygon points="34.012,29.0795 592,29.0795 592,370.947 34.012,370.947" style="fill:none;stroke:black;stroke-width:1" />
  <polygon points="42.012,37.0795 228.483,37.0795 228.483,63.1325 42.012,63.1325" style="fill:none;stroke:none;" />
  <text dominant-baseline="hanging" text-anchor="start" transform="translate(70.012,45.0795)" font-family="Segoe UI" font-size="12" font-weight="400" fill="black">Aktive Fälle Stadt Aachen 12.03.2021</text>
  <polyline points="50.012,50.106 66.012,50.106" style="fill:none;stroke:rgb(31,119,180);stroke-width:2" />
</svg>