<?xml version="1.0" encoding="utf-8" standalone="no"?>
<!DOCTYPE svg PUBLIC "-//W3C//DTD SVG 1.1//EN" "http://www.w3.org/Graphics/SVG/1.1/DTD/svg11.dtd">
<svg width="600" height="400" version="1.1" xmlns:xlink="http://www.w3.org/1999/xlink" xmlns="http://www.w3.org/2000/svg">
  <rect x="0" y="0" width="600" height="400" style="fill:rgb(255,255,255);stroke:none;" />
  <polyline points="34.012,352.1162 30.012,352.1162" style="fill:none;stroke:black;stroke-width:1" />
  <polyline points="34.012,328.7131 30.012,328.7131" style="fill:none;stroke:black;stroke-width:1" />
  <polyline points="34.012,305.3101 30.012,305.3101" style="fill:none;stroke:black;stroke-width:1" />
  <polyline points="34.012,258.5041 30.012,258.5041" style="fill:none;stroke:black;stroke-width:1" />
  <polyline points="34.012,235.101 30.012,235.101" style="fill:none;stroke:black;stroke-width:1" />
  <polyline points="34.012,211.698 30.012,211.698" style="fill:none;stroke:black;stroke-width:1" />
  <polyline points="34.012,164.892 30.012,164.892" style="fill:none;stroke:black;stroke-width:1" />
  <polyline points="34.012,141.4889 30.012,141.4889" style="fill:none;stroke:black;stroke-width:1" />
  <polyline points="34.012,118.0859 30.012,118.0859" style="fill:none;stroke:black;stroke-width:1" />
  <polyline points="34.012,71.2798 30.012,71.2798" style="fill:none;stroke:black;stroke-width:1" />
  <polyline points="34.012,47.8768 30.012,47.8768" style="fill:none;stroke:black;stroke-width:1" />
  <text dominant-baseline="middle" text-anchor="end" transform="translate(23.012,281.9071)" font-family="Segoe UI" font-size="12" font-weight="400" fill="black">200</text>
  <text dominant-baseline="middle" text-anchor="end" transform="translate(23.012,188.295)" font-family="Segoe UI" font-size="12" font-weight="400" fill="black">400</text>
  <text dominant-baseline="middle" text-anchor="end" transform="translate(23.012,94.6829)" font-family="Segoe UI" font-size="12" font-weight="400" fill="black">600</text>
  <polyline points="34.012,281.9071 27.012,281.9071" style="fill:none;stroke:black;stroke-width:1" />
  <polyline points="34.012,188.295 27.012,188.295" style="fill:none;stroke:black;stroke-width:1" />
  <polyline points="34.012,94.6829 27.012,94.6829" style="fill:none;stroke:black;stroke-width:1" />
  <text dominant-baseline="hanging" text-anchor="middle" transform="translate(87.408,381.947)" font-family="Segoe UI" font-size="12" font-weight="400" fill="black">01. September</text>
  <text dominant-baseline="hanging" text-anchor="middle" transform="translate(167.502,381.947)" font-family="Segoe UI" font-size="12" font-weight="400" fill="black">01. October</text>
  <text dominant-baseline="hanging" text-anchor="middle" transform="translate(250.2657,381.947)" font-family="Segoe UI" font-size="12" font-weight="400" fill="black">01. November</text>
  <text dominant-baseline="hanging" text-anchor="middle" transform="translate(330.3597,381.947)" font-family="Segoe UI" font-size="12" font-weight="400" fill="black">01. December</text>
  <text dominant-baseline="hanging" text-anchor="middle" transform="translate(413.1235,381.947)" font-family="Segoe UI" font-size="12" font-weight="400" fill="black">01. January</text>
  <text dominant-baseline="hanging" text-anchor="middle" transform="translate(495.8872,381.947)" font-family="Segoe UI" font-size="12" font-weight="400" fill="black">01. February</text>
  <text dominant-baseline="hanging" text-anchor="middle" transform="translate(570.6416,381.947)" font-family="Segoe UI" font-size="12" font-weight="400" fill="black">01. March</text>
  <polyline points="87.408,370.947 87.408,377.947" style="fill:none;stroke:black;stroke-width:1" />
  <polyline points="167.502,370.947 167.502,377.947" style="fill:none;stroke:black;stroke-width:1" />
  <polyline points="250.2657,370.947 250.2657,377.947" style="fill:none;stroke:black;stroke-width:1" />
  <polyline points="330.3597,370.947 330.3597,377.947" style="fill:none;stroke:black;stroke-width:1" />
  <polyline points="413.1235,370.947 413.1235,377.947" style="fill:none;stroke:black;stroke-width:1" />
  <polyline points="495.8872,370.947 495.8872,377.947" style="fill:none;stroke:black;stroke-width:1" />
  <polyline points="570.6416,370.947 570.6416,377.947" style="fill:none;stroke:black;stroke-width:1" />
  <polyline points="34.012,361.4774 39.3516,357.2648 47.361,360.0732 50.0308,357.2648 52.7006,359.1371 55.3704,356.7968 58.0402,357.2648 66.0496,357.7329 68.7194,361.4774 71.3892,361.9454 74.059,361.0093 76.7288,361.0093 84.7382,364.2857 87.408,365.6899 90.0778,365.6899 92.7476,364.7538 95.4174,365.2219 103.4268,365.2219 106.0966,367.5622 108.7664,366.158 111.4362,363.3496 114.106,361.4774 122.1154,356.7968 124.7852,353.5204 127.455,348.8398 130.1248,348.3717 132.7946,346.9675 140.804,351.1801 143.4738,352.1162 146.1436,351.6481 148.8134,349.7759 151.4832,347.4356 159.4926,336.2021 162.1624,337.6063 164.8322,338.0744 167.502,331.0534 170.1718,324.5006 178.1811,317.0116 180.8509,323.5645 183.5207,317.4797 186.1905,310.9268 188.8603,309.0546 196.8697,295.0128 199.5395,305.7782 202.2093,300.1615 204.8791,287.5238 207.5489,269.2695 215.5583,245.8664 218.2281,247.2706 220.8979,244.4622 223.5677,222.9315 226.2375,218.7189 234.2469,155.5307 236.9167,172.849 239.5865,172.849 242.2563,167.7003 244.9261,139.6167 252.9355,148.5098 255.6053,195.3159 258.2751,185.0186 260.9449,171.4448 263.6147,165.8281 271.6241,134.468 274.2939,153.6585 276.9637,140.0847 282.3033,113.8734 290.3127,108.2566 292.9825,134.468 295.6523,141.4889 298.3221,112.0011 300.9919,134.9361 309.0013,156.4669 311.6711,173.7851 314.3409,167.7003 317.0107,182.2102 319.6805,160.2113 327.6899,132.5958 330.3597,148.0418 333.0295,171.9129 335.6993,163.4878 338.3691,175.6573 346.3785,117.1498 349.0483,141.957 351.7181,155.5307 354.3879,132.1277 357.0577,117.1498 365.0671,70.3437 367.7369,99.8315 370.4067,111.065 373.0765,95.1509 375.7463,69.8757 383.7557,33.835 386.4255,61.4506 389.0953,84.8536 402.4443,32.4308 405.1141,57.7061 407.7839,76.4285 410.4537,56.77 421.1329,57.238 423.8027,82.5133 426.4725,118.0859 429.1423,126.0429 431.8121,98.8954 442.4913,150.8501 445.1611,174.7212 447.8309,164.4239 450.5007,190.6353 458.51,206.0813 461.1798,233.2288 463.8496,240.2497 466.5194,238.3775 469.1892,234.1649 477.1986,233.6969 482.5382,244.4622 485.208,224.8037 487.8778,212.1661 495.8872,214.0383 498.557,235.5691 501.2268,254.2915 503.8966,245.3984 506.5664,245.3984 514.5758,262.2485 517.2456,274.4181 519.9154,267.3972 522.5852,253.3554 525.255,239.3136 533.2644,249.6109 535.9342,284.2474 538.604,282.3752 541.2738,272.5459 543.9436,293.6086 551.953,302.5018 554.6228,310.9268 557.2926,305.3101 559.9624,303.4379 562.6322,305.7782 570.6416,308.1185 573.3114,319.82 575.9812,311.863 578.651,286.5877 581.3208,285.1835 589.3302,265.993 592,265.993" style="fill:none;stroke:rgb(31,119,180);stroke-width:2;stroke-linejoin:bevel" />
  <text dominant-baseline="hanging" text-anchor="middle" transform="translate(313.006,8)" font-family="Segoe UI" font-size="18" font-weight="700" fill="black">Aktive Fälle Stadt Aachen 09.03.2021</text>
  <polygon points="34.012,29.0795 592,29.0795 592,370.947 34.012,370.947" style="fill:none;stroke:black;stroke-width:1" />
  <polygon points="42.012,37.0795 228.483,37.0795 228.483,63.1325 42.012,63.1325" style="fill:none;stroke:none;" />
  <text dominant-baseline="hanging" text-anchor="start" transform="translate(70.012,45.0795)" font-family="Segoe UI" font-size="12" font-weight="400" fill="black">Aktive Fälle Stadt Aachen 09.03.2021</text>
  <polyline points="50.012,50.106 66.012,50.106" style="fill:none;stroke:rgb(31,119,180);stroke-width:2" />
</svg>