<?xml version="1.0" encoding="utf-8" standalone="no"?>
<!DOCTYPE svg PUBLIC "-//W3C//DTD SVG 1.1//EN" "http://www.w3.org/Graphics/SVG/1.1/DTD/svg11.dtd">
<svg width="600" height="400" version="1.1" xmlns:xlink="http://www.w3.org/1999/xlink" xmlns="http://www.w3.org/2000/svg">
  <rect x="0" y="0" width="600" height="400" style="fill:rgb(255,255,255);stroke:none;" />
  <polyline points="39.016,357.0495 35.016,357.0495" style="fill:none;stroke:black;stroke-width:1" />
  <polyline points="39.016,341.1212 35.016,341.1212" style="fill:none;stroke:black;stroke-width:1" />
  <polyline points="39.016,325.1929 35.016,325.1929" style="fill:none;stroke:black;stroke-width:1" />
  <polyline points="39.016,293.3363 35.016,293.3363" style="fill:none;stroke:black;stroke-width:1" />
  <polyline points="39.016,277.408 35.016,277.408" style="fill:none;stroke:black;stroke-width:1" />
  <polyline points="39.016,261.4797 35.016,261.4797" style="fill:none;stroke:black;stroke-width:1" />
  <polyline points="39.016,229.6231 35.016,229.6231" style="fill:none;stroke:black;stroke-width:1" />
  <polyline points="39.016,213.6948 35.016,213.6948" style="fill:none;stroke:black;stroke-width:1" />
  <polyline points="39.016,197.7665 35.016,197.7665" style="fill:none;stroke:black;stroke-width:1" />
  <polyline points="39.016,165.9099 35.016,165.9099" style="fill:none;stroke:black;stroke-width:1" />
  <polyline points="39.016,149.9816 35.016,149.9816" style="fill:none;stroke:black;stroke-width:1" />
  <polyline points="39.016,134.0533 35.016,134.0533" style="fill:none;stroke:black;stroke-width:1" />
  <polyline points="39.016,102.1968 35.016,102.1968" style="fill:none;stroke:black;stroke-width:1" />
  <polyline points="39.016,86.2685 35.016,86.2685" style="fill:none;stroke:black;stroke-width:1" />
  <polyline points="39.016,70.3402 35.016,70.3402" style="fill:none;stroke:black;stroke-width:1" />
  <polyline points="39.016,38.4836 35.016,38.4836" style="fill:none;stroke:black;stroke-width:1" />
  <text dominant-baseline="middle" text-anchor="end" transform="translate(28.016,309.2646)" font-family="Segoe UI" font-size="12" font-weight="400" fill="black">200</text>
  <text dominant-baseline="middle" text-anchor="end" transform="translate(28.016,245.5514)" font-family="Segoe UI" font-size="12" font-weight="400" fill="black">400</text>
  <text dominant-baseline="middle" text-anchor="end" transform="translate(28.016,181.8382)" font-family="Segoe UI" font-size="12" font-weight="400" fill="black">600</text>
  <text dominant-baseline="middle" text-anchor="end" transform="translate(28.016,118.125)" font-family="Segoe UI" font-size="12" font-weight="400" fill="black">800</text>
  <text dominant-baseline="middle" text-anchor="end" transform="translate(28.016,54.4119)" font-family="Segoe UI" font-size="12" font-weight="400" fill="black">1000</text>
  <polyline points="39.016,309.2646 32.016,309.2646" style="fill:none;stroke:black;stroke-width:1" />
  <polyline points="39.016,245.5514 32.016,245.5514" style="fill:none;stroke:black;stroke-width:1" />
  <polyline points="39.016,181.8382 32.016,181.8382" style="fill:none;stroke:black;stroke-width:1" />
  <polyline points="39.016,118.125 32.016,118.125" style="fill:none;stroke:black;stroke-width:1" />
  <polyline points="39.016,54.4119 32.016,54.4119" style="fill:none;stroke:black;stroke-width:1" />
  <text dominant-baseline="hanging" text-anchor="middle" transform="translate(79.5276,381.947)" font-family="Segoe UI" font-size="12" font-weight="400" fill="black">01. September</text>
  <text dominant-baseline="hanging" text-anchor="middle" transform="translate(140.2951,381.947)" font-family="Segoe UI" font-size="12" font-weight="400" fill="black">01. October</text>
  <text dominant-baseline="hanging" text-anchor="middle" transform="translate(203.0882,381.947)" font-family="Segoe UI" font-size="12" font-weight="400" fill="black">01. November</text>
  <text dominant-baseline="hanging" text-anchor="middle" transform="translate(263.8556,381.947)" font-family="Segoe UI" font-size="12" font-weight="400" fill="black">01. December</text>
  <text dominant-baseline="hanging" text-anchor="middle" transform="translate(326.6487,381.947)" font-family="Segoe UI" font-size="12" font-weight="400" fill="black">01. January</text>
  <text dominant-baseline="hanging" text-anchor="middle" transform="translate(389.4418,381.947)" font-family="Segoe UI" font-size="12" font-weight="400" fill="black">01. February</text>
  <text dominant-baseline="hanging" text-anchor="middle" transform="translate(446.1581,381.947)" font-family="Segoe UI" font-size="12" font-weight="400" fill="black">01. March</text>
  <text dominant-baseline="hanging" text-anchor="middle" transform="translate(508.9511,381.947)" font-family="Segoe UI" font-size="12" font-weight="400" fill="black">01. April</text>
  <text dominant-baseline="hanging" text-anchor="middle" transform="translate(569.7186,381.947)" font-family="Segoe UI" font-size="12" font-weight="400" fill="black">01. May</text>
  <polyline points="79.5276,370.947 79.5276,377.947" style="fill:none;stroke:black;stroke-width:1" />
  <polyline points="140.2951,370.947 140.2951,377.947" style="fill:none;stroke:black;stroke-width:1" />
  <polyline points="203.0882,370.947 203.0882,377.947" style="fill:none;stroke:black;stroke-width:1" />
  <polyline points="263.8556,370.947 263.8556,377.947" style="fill:none;stroke:black;stroke-width:1" />
  <polyline points="326.6487,370.947 326.6487,377.947" style="fill:none;stroke:black;stroke-width:1" />
  <polyline points="389.4418,370.947 389.4418,377.947" style="fill:none;stroke:black;stroke-width:1" />
  <polyline points="446.1581,370.947 446.1581,377.947" style="fill:none;stroke:black;stroke-width:1" />
  <polyline points="508.9511,370.947 508.9511,377.947" style="fill:none;stroke:black;stroke-width:1" />
  <polyline points="569.7186,370.947 569.7186,377.947" style="fill:none;stroke:black;stroke-width:1" />
  <polyline points="39.016,363.4208 43.0672,360.5537 49.1439,362.4651 51.1695,360.5537 53.1951,361.828 55.2207,360.2352 57.2462,360.5537 63.323,360.8723 65.3486,363.4208 67.3742,363.7394 69.3997,363.1023 71.4253,363.1023 77.5021,365.3322 79.5276,366.2879 81.5532,366.2879 83.5788,365.6508 85.6044,365.9693 91.6811,365.9693 93.7067,367.5622 95.7323,366.6065 97.7579,364.6951 99.7835,363.4208 105.8602,360.2352 107.8858,358.0052 109.9114,354.8195 111.937,354.501 113.9625,353.5453 120.0393,356.4124 122.0649,357.0495 124.0905,356.7309 126.116,355.4567 128.1416,353.8638 134.2184,346.2183 136.244,347.174 138.2695,347.4925 140.2951,342.714 142.3207,338.2541 148.3975,333.1571 150.423,337.617 152.4486,333.4756 154.4742,329.0157 156.4998,327.7414 162.5765,318.1845 164.6021,325.5115 166.6277,321.6887 168.6533,313.0874 170.6789,300.6633 176.7556,284.735 178.7812,285.6907 180.8068,283.7793 182.8324,269.1253 184.8579,266.2582 190.9347,223.2518 192.9603,235.0387 194.9858,235.0387 197.0114,231.5345 199.037,212.4206 205.1138,218.4733 207.1393,250.3299 209.1649,243.3215 211.1905,234.083 213.2161,230.2603 219.2928,208.9163 221.3184,221.9775 223.344,212.7391 227.3952,194.8994 233.4719,191.0766 235.4975,208.9163 237.5231,213.6948 239.5487,193.6252 241.5742,209.2349 247.651,223.8889 249.6766,235.6759 251.7022,231.5345 253.7277,241.4101 255.7533,226.4375 261.8301,207.6421 263.8556,218.1548 265.8812,234.4016 267.9068,228.6674 269.9324,236.9501 276.0091,197.1294 278.0347,214.0134 280.0603,223.2518 282.0859,207.3235 284.1115,197.1294 290.1882,165.2728 292.2138,185.3425 294.2394,192.988 296.265,182.1568 298.2905,164.9542 304.3673,140.4247 306.3929,159.2201 308.4185,175.1484 318.5464,139.469 320.572,156.6715 322.5975,169.4142 324.6231,156.0344 332.7255,156.353 334.751,173.5555 336.7766,197.7665 338.8022,203.1822 340.8278,184.7053 348.9301,220.0661 350.9557,236.313 352.9813,229.3046 355.0069,247.1443 361.0836,257.6569 363.1092,276.1338 365.1348,280.9122 367.1604,279.638 369.1859,276.7709 375.2627,276.4523 379.3138,283.7793 381.3394,270.3996 383.365,261.7983 389.4418,263.0725 391.4673,277.7266 393.4929,290.4692 395.5185,284.4165 397.5441,284.4165 403.6208,295.8848 405.6464,304.1676 407.672,299.3891 409.6976,289.8321 411.7232,280.2751 417.7999,287.2836 419.8255,310.8574 421.8511,309.5832 423.8767,302.8933 425.9022,317.2288 431.979,323.2815 434.0046,329.0157 436.0302,325.1929 438.0557,323.9186 440.0813,325.5115 446.1581,327.1043 448.1836,335.0684 450.2092,329.6528 452.2348,312.4503 454.2604,311.4946 460.3371,298.4334 462.3627,298.4334 464.3883,293.3363 466.4139,285.3722 468.4395,275.4966 474.5162,268.8067 476.5418,269.7624 478.5674,270.3996 480.593,250.3299 482.6185,236.6316 488.6953,219.7476 490.7209,220.0661 492.7465,221.3404 494.772,199.3594 496.7976,195.218 502.8744,192.3509 504.9,214.9691 506.9255,219.429 508.9511,211.7834 510.9767,188.5281 519.079,174.1927 521.1046,176.7412 523.1302,153.4859 525.1558,148.3888 531.2325,142.6546 533.2581,144.2475 535.2837,126.7263 537.3093,113.6651 539.3349,116.2137 545.4116,99.9668 547.4372,95.1883 549.4628,72.8887 551.4884,44.5363 553.5139,32.4308 559.5907,42.3064 561.6163,49.3148 563.6418,66.1988 565.6674,77.6672 567.693,71.2959 573.7698,109.8423 575.7953,105.701 577.8209,125.7706 579.8465,134.6905 581.8721,148.3888 587.9488,149.0259 589.9744,175.7855 592,170.6884" style="fill:none;stroke:rgb(31,119,180);stroke-width:2;stroke-linejoin:bevel" />
  <text dominant-baseline="hanging" text-anchor="middle" transform="translate(315.508,8)" font-family="Segoe UI" font-size="18" font-weight="700" fill="black">Aktive Fälle Stadt Aachen 12.05.2021</text>
  <polygon points="39.016,29.0795 592,29.0795 592,370.947 39.016,370.947" style="fill:none;stroke:black;stroke-width:1" />
  <polygon points="47.016,37.0795 233.487,37.0795 233.487,63.1325 47.016,63.1325" style="fill:none;stroke:none;" />
  <text dominant-baseline="hanging" text-anchor="start" transform="translate(75.016,45.0795)" font-family="Segoe UI" font-size="12" font-weight="400" fill="black">Aktive Fälle Stadt Aachen 12.05.2021</text>
  <polyline points="55.016,50.106 71.016,50.106" style="fill:none;stroke:rgb(31,119,180);stroke-width:2" />
</svg>