<?xml version="1.0" encoding="utf-8" standalone="no"?>
<!DOCTYPE svg PUBLIC "-//W3C//DTD SVG 1.1//EN" "http://www.w3.org/Graphics/SVG/1.1/DTD/svg11.dtd">
<svg width="600" height="400" version="1.1" xmlns:xlink="http://www.w3.org/1999/xlink" xmlns="http://www.w3.org/2000/svg">
  <rect x="0" y="0" width="600" height="400" style="fill:rgb(255,255,255);stroke:none;" />
  <polyline points="39.016,357.0495 35.016,357.0495" style="fill:none;stroke:black;stroke-width:1" />
  <polyline points="39.016,341.1212 35.016,341.1212" style="fill:none;stroke:black;stroke-width:1" />
  <polyline points="39.016,325.1929 35.016,325.1929" style="fill:none;stroke:black;stroke-width:1" />
  <polyline points="39.016,293.3363 35.016,293.3363" style="fill:none;stroke:black;stroke-width:1" />
  <polyline points="39.016,277.408 35.016,277.408" style="fill:none;stroke:black;stroke-width:1" />
  <polyline points="39.016,261.4797 35.016,261.4797" style="fill:none;stroke:black;stroke-width:1" />
  <polyline points="39.016,229.6231 35.016,229.6231" style="fill:none;stroke:black;stroke-width:1" />
  <polyline points="39.016,213.6948 35.016,213.6948" style="fill:none;stroke:black;stroke-width:1" />
  <polyline points="39.016,197.7665 35.016,197.7665" style="fill:none;stroke:black;stroke-width:1" />
  <polyline points="39.016,165.9099 35.016,165.9099" style="fill:none;stroke:black;stroke-width:1" />
  <polyline points="39.016,149.9816 35.016,149.9816" style="fill:none;stroke:black;stroke-width:1" />
  <polyline points="39.016,134.0533 35.016,134.0533" style="fill:none;stroke:black;stroke-width:1" />
  <polyline points="39.016,102.1968 35.016,102.1968" style="fill:none;stroke:black;stroke-width:1" />
  <polyline points="39.016,86.2685 35.016,86.2685" style="fill:none;stroke:black;stroke-width:1" />
  <polyline points="39.016,70.3402 35.016,70.3402" style="fill:none;stroke:black;stroke-width:1" />
  <polyline points="39.016,38.4836 35.016,38.4836" style="fill:none;stroke:black;stroke-width:1" />
  <polyline points="73.2565,370.947 73.2565,374.947" style="fill:none;stroke:black;stroke-width:1" />
  <polyline points="177.69,370.947 177.69,374.947" style="fill:none;stroke:black;stroke-width:1" />
  <polyline points="282.1235,370.947 282.1235,374.947" style="fill:none;stroke:black;stroke-width:1" />
  <polyline points="383.133,370.947 383.133,374.947" style="fill:none;stroke:black;stroke-width:1" />
  <polyline points="487.5665,370.947 487.5665,374.947" style="fill:none;stroke:black;stroke-width:1" />
  <polyline points="592,370.947 592,374.947" style="fill:none;stroke:black;stroke-width:1" />
  <text dominant-baseline="middle" text-anchor="end" transform="translate(28.016,309.2646)" font-family="Segoe UI" font-size="12" font-weight="400" fill="black">200</text>
  <text dominant-baseline="middle" text-anchor="end" transform="translate(28.016,245.5514)" font-family="Segoe UI" font-size="12" font-weight="400" fill="black">400</text>
  <text dominant-baseline="middle" text-anchor="end" transform="translate(28.016,181.8382)" font-family="Segoe UI" font-size="12" font-weight="400" fill="black">600</text>
  <text dominant-baseline="middle" text-anchor="end" transform="translate(28.016,118.125)" font-family="Segoe UI" font-size="12" font-weight="400" fill="black">800</text>
  <text dominant-baseline="middle" text-anchor="end" transform="translate(28.016,54.4119)" font-family="Segoe UI" font-size="12" font-weight="400" fill="black">1000</text>
  <polyline points="39.016,309.2646 32.016,309.2646" style="fill:none;stroke:black;stroke-width:1" />
  <polyline points="39.016,245.5514 32.016,245.5514" style="fill:none;stroke:black;stroke-width:1" />
  <polyline points="39.016,181.8382 32.016,181.8382" style="fill:none;stroke:black;stroke-width:1" />
  <polyline points="39.016,118.125 32.016,118.125" style="fill:none;stroke:black;stroke-width:1" />
  <polyline points="39.016,54.4119 32.016,54.4119" style="fill:none;stroke:black;stroke-width:1" />
  <text dominant-baseline="hanging" text-anchor="middle" transform="translate(124.6172,381.947)" font-family="Segoe UI" font-size="12" font-weight="400" fill="black">01. October</text>
  <text dominant-baseline="hanging" text-anchor="middle" transform="translate(229.0507,381.947)" font-family="Segoe UI" font-size="12" font-weight="400" fill="black">01. December</text>
  <text dominant-baseline="hanging" text-anchor="middle" transform="translate(335.1963,381.947)" font-family="Segoe UI" font-size="12" font-weight="400" fill="black">01. February</text>
  <text dominant-baseline="hanging" text-anchor="middle" transform="translate(436.2057,381.947)" font-family="Segoe UI" font-size="12" font-weight="400" fill="black">01. April</text>
  <text dominant-baseline="hanging" text-anchor="middle" transform="translate(540.6393,381.947)" font-family="Segoe UI" font-size="12" font-weight="400" fill="black">01. June</text>
  <polyline points="124.6172,370.947 124.6172,377.947" style="fill:none;stroke:black;stroke-width:1" />
  <polyline points="229.0507,370.947 229.0507,377.947" style="fill:none;stroke:black;stroke-width:1" />
  <polyline points="335.1963,370.947 335.1963,377.947" style="fill:none;stroke:black;stroke-width:1" />
  <polyline points="436.2057,370.947 436.2057,377.947" style="fill:none;stroke:black;stroke-width:1" />
  <polyline points="540.6393,370.947 540.6393,377.947" style="fill:none;stroke:black;stroke-width:1" />
  <polyline points="39.016,363.4208 42.44,360.5537 47.5761,362.4651 49.2881,360.5537 51.0002,361.828 52.7122,360.2352 54.4242,360.5537 59.5603,360.8723 61.2723,363.4208 62.9843,363.7394 64.6964,363.1023 66.4084,363.1023 71.5445,365.3322 73.2565,366.2879 74.9685,366.2879 76.6805,365.6508 78.3926,365.9693 83.5286,365.9693 85.2407,367.5622 86.9527,366.6065 88.6647,364.6951 90.3767,363.4208 95.5128,360.2352 97.2248,358.0052 98.9369,354.8195 100.6489,354.501 102.3609,353.5453 107.497,356.4124 109.209,357.0495 110.921,356.7309 112.6331,355.4567 114.3451,353.8638 119.4812,346.2183 121.1932,347.174 122.9052,347.4925 124.6172,342.714 126.3293,338.2541 131.4653,333.1571 133.1774,337.617 134.8894,333.4756 136.6014,329.0157 138.3134,327.7414 143.4495,318.1845 145.1615,325.5115 146.8736,321.6887 148.5856,313.0874 150.2976,300.6633 155.4337,284.735 157.1457,285.6907 158.8577,283.7793 160.5698,269.1253 162.2818,266.2582 167.4179,223.2518 169.1299,235.0387 170.8419,235.0387 172.5539,231.5345 174.266,212.4206 179.402,218.4733 181.1141,250.3299 182.8261,243.3215 184.5381,234.083 186.2501,230.2603 191.3862,208.9163 193.0982,221.9775 194.8103,212.7391 198.2343,194.8994 203.3704,191.0766 205.0824,208.9163 206.7944,213.6948 208.5065,193.6252 210.2185,209.2349 215.3546,223.8889 217.0666,235.6759 218.7786,231.5345 220.4906,241.4101 222.2027,226.4375 227.3387,207.6421 229.0507,218.1548 230.7628,234.4016 232.4748,228.6674 234.1868,236.9501 239.3229,197.1294 241.0349,214.0134 242.7469,223.2518 244.459,207.3235 246.171,197.1294 251.3071,165.2728 253.0191,185.3425 254.7311,192.988 256.4431,182.1568 258.1552,164.9542 263.2912,140.4247 265.0033,159.2201 266.7153,175.1484 275.2754,139.469 276.9874,156.6715 278.6995,169.4142 280.4115,156.0344 287.2596,156.353 288.9716,173.5555 290.6836,197.7665 292.3957,203.1822 294.1077,184.7053 300.9558,220.0661 302.6678,236.313 304.3798,229.3046 306.0919,247.1443 311.2279,257.6569 312.94,276.1338 314.652,280.9122 316.364,279.638 318.076,276.7709 323.2121,276.4523 326.6362,283.7793 328.3482,270.3996 330.0602,261.7983 335.1963,263.0725 336.9083,277.7266 338.6203,290.4692 340.3324,284.4165 342.0444,284.4165 347.1805,295.8848 348.8925,304.1676 350.6045,299.3891 352.3165,289.8321 354.0286,280.2751 359.1646,287.2836 360.8767,310.8574 362.5887,309.5832 364.3007,302.8933 366.0127,317.2288 371.1488,323.2815 372.8608,329.0157 374.5729,325.1929 376.2849,323.9186 377.9969,325.5115 383.133,327.1043 384.845,335.0684 386.557,329.6528 388.2691,312.4503 389.9811,311.4946 395.1172,298.4334 396.8292,298.4334 398.5412,293.3363 400.2532,285.3722 401.9653,275.4966 407.1013,268.8067 408.8133,269.7624 410.5254,270.3996 412.2374,250.3299 413.9494,236.6316 419.0855,219.7476 420.7975,220.0661 422.5095,221.3404 424.2216,199.3594 425.9336,195.218 431.0697,192.3509 432.7817,214.9691 434.4937,219.429 436.2057,211.7834 437.9178,188.5281 444.7659,174.1927 446.4779,176.7412 448.1899,153.4859 449.9019,148.3888 455.038,142.6546 456.75,144.2475 458.4621,126.7263 460.1741,113.6651 461.8861,116.2137 467.0222,99.9668 468.7342,95.1883 470.4462,72.8887 472.1583,44.5363 473.8703,32.4308 479.0064,42.3064 480.7184,49.3148 482.4304,66.1988 484.1424,77.6672 485.8545,71.2959 490.9905,109.8423 492.7026,105.701 494.4146,125.7706 496.1266,134.6905 497.8386,148.3888 502.9747,149.0259 504.6867,175.7855 506.3988,170.6884 509.8228,185.3425 514.9589,171.9627 516.6709,185.661 518.3829,186.2982 520.095,180.564 521.807,185.0239 528.6551,213.3763 530.3671,232.8088 532.0791,239.8172 533.7912,234.7202 538.9272,261.4797 540.6393,282.1865 542.3513,289.195 545.7753,301.9376 550.9114,310.5389 552.6234,317.8659 554.3355,328.6971 556.0475,332.5199 557.7595,337.2984 562.8956,338.5727 564.6076,337.617 566.3196,348.7668 568.0317,348.1297 569.7437,349.7225 574.8798,350.6782 576.5918,351.9524 578.3038,352.5896 580.0158,352.9081 581.7279,352.9081 586.8639,354.1824 588.576,356.0938 590.288,355.7752 592,353.5453" style="fill:none;stroke:rgb(31,119,180);stroke-width:2;stroke-linejoin:bevel" />
  <text dominant-baseline="hanging" text-anchor="middle" transform="translate(315.508,8)" font-family="Segoe UI" font-size="18" font-weight="700" fill="black">Aktive Fälle Stadt Aachen 01.07.2021</text>
  <polygon points="39.016,29.0795 592,29.0795 592,370.947 39.016,370.947" style="fill:none;stroke:black;stroke-width:1" />
  <polygon points="47.016,37.0795 233.487,37.0795 233.487,63.1325 47.016,63.1325" style="fill:none;stroke:none;" />
  <text dominant-baseline="hanging" text-anchor="start" transform="translate(75.016,45.0795)" font-family="Segoe UI" font-size="12" font-weight="400" fill="black">Aktive Fälle Stadt Aachen 01.07.2021</text>
  <polyline points="55.016,50.106 71.016,50.106" style="fill:none;stroke:rgb(31,119,180);stroke-width:2" />
</svg>