<?xml version="1.0" encoding="utf-8" standalone="no"?>
<!DOCTYPE svg PUBLIC "-//W3C//DTD SVG 1.1//EN" "http://www.w3.org/Graphics/SVG/1.1/DTD/svg11.dtd">
<svg width="600" height="400" version="1.1" xmlns:xlink="http://www.w3.org/1999/xlink" xmlns="http://www.w3.org/2000/svg">
  <rect x="0" y="0" width="600" height="400" style="fill:rgb(255,255,255);stroke:none;" />
  <polyline points="39.016,357.0495 35.016,357.0495" style="fill:none;stroke:black;stroke-width:1" />
  <polyline points="39.016,341.1212 35.016,341.1212" style="fill:none;stroke:black;stroke-width:1" />
  <polyline points="39.016,325.1929 35.016,325.1929" style="fill:none;stroke:black;stroke-width:1" />
  <polyline points="39.016,293.3363 35.016,293.3363" style="fill:none;stroke:black;stroke-width:1" />
  <polyline points="39.016,277.408 35.016,277.408" style="fill:none;stroke:black;stroke-width:1" />
  <polyline points="39.016,261.4797 35.016,261.4797" style="fill:none;stroke:black;stroke-width:1" />
  <polyline points="39.016,229.6231 35.016,229.6231" style="fill:none;stroke:black;stroke-width:1" />
  <polyline points="39.016,213.6948 35.016,213.6948" style="fill:none;stroke:black;stroke-width:1" />
  <polyline points="39.016,197.7665 35.016,197.7665" style="fill:none;stroke:black;stroke-width:1" />
  <polyline points="39.016,165.9099 35.016,165.9099" style="fill:none;stroke:black;stroke-width:1" />
  <polyline points="39.016,149.9816 35.016,149.9816" style="fill:none;stroke:black;stroke-width:1" />
  <polyline points="39.016,134.0533 35.016,134.0533" style="fill:none;stroke:black;stroke-width:1" />
  <polyline points="39.016,102.1968 35.016,102.1968" style="fill:none;stroke:black;stroke-width:1" />
  <polyline points="39.016,86.2685 35.016,86.2685" style="fill:none;stroke:black;stroke-width:1" />
  <polyline points="39.016,70.3402 35.016,70.3402" style="fill:none;stroke:black;stroke-width:1" />
  <polyline points="39.016,38.4836 35.016,38.4836" style="fill:none;stroke:black;stroke-width:1" />
  <polyline points="74.6924,370.947 74.6924,374.947" style="fill:none;stroke:black;stroke-width:1" />
  <polyline points="183.5054,370.947 183.5054,374.947" style="fill:none;stroke:black;stroke-width:1" />
  <polyline points="292.3183,370.947 292.3183,374.947" style="fill:none;stroke:black;stroke-width:1" />
  <polyline points="397.5637,370.947 397.5637,374.947" style="fill:none;stroke:black;stroke-width:1" />
  <polyline points="506.3767,370.947 506.3767,374.947" style="fill:none;stroke:black;stroke-width:1" />
  <text dominant-baseline="middle" text-anchor="end" transform="translate(28.016,309.2646)" font-family="Segoe UI" font-size="12" font-weight="400" fill="black">200</text>
  <text dominant-baseline="middle" text-anchor="end" transform="translate(28.016,245.5514)" font-family="Segoe UI" font-size="12" font-weight="400" fill="black">400</text>
  <text dominant-baseline="middle" text-anchor="end" transform="translate(28.016,181.8382)" font-family="Segoe UI" font-size="12" font-weight="400" fill="black">600</text>
  <text dominant-baseline="middle" text-anchor="end" transform="translate(28.016,118.125)" font-family="Segoe UI" font-size="12" font-weight="400" fill="black">800</text>
  <text dominant-baseline="middle" text-anchor="end" transform="translate(28.016,54.4119)" font-family="Segoe UI" font-size="12" font-weight="400" fill="black">1000</text>
  <polyline points="39.016,309.2646 32.016,309.2646" style="fill:none;stroke:black;stroke-width:1" />
  <polyline points="39.016,245.5514 32.016,245.5514" style="fill:none;stroke:black;stroke-width:1" />
  <polyline points="39.016,181.8382 32.016,181.8382" style="fill:none;stroke:black;stroke-width:1" />
  <polyline points="39.016,118.125 32.016,118.125" style="fill:none;stroke:black;stroke-width:1" />
  <polyline points="39.016,54.4119 32.016,54.4119" style="fill:none;stroke:black;stroke-width:1" />
  <text dominant-baseline="hanging" text-anchor="middle" transform="translate(128.207,381.947)" font-family="Segoe UI" font-size="12" font-weight="400" fill="black">01. October</text>
  <text dominant-baseline="hanging" text-anchor="middle" transform="translate(237.0199,381.947)" font-family="Segoe UI" font-size="12" font-weight="400" fill="black">01. December</text>
  <text dominant-baseline="hanging" text-anchor="middle" transform="translate(347.6167,381.947)" font-family="Segoe UI" font-size="12" font-weight="400" fill="black">01. February</text>
  <text dominant-baseline="hanging" text-anchor="middle" transform="translate(452.8621,381.947)" font-family="Segoe UI" font-size="12" font-weight="400" fill="black">01. April</text>
  <text dominant-baseline="hanging" text-anchor="middle" transform="translate(561.6751,381.947)" font-family="Segoe UI" font-size="12" font-weight="400" fill="black">01. June</text>
  <polyline points="128.207,370.947 128.207,377.947" style="fill:none;stroke:black;stroke-width:1" />
  <polyline points="237.0199,370.947 237.0199,377.947" style="fill:none;stroke:black;stroke-width:1" />
  <polyline points="347.6167,370.947 347.6167,377.947" style="fill:none;stroke:black;stroke-width:1" />
  <polyline points="452.8621,370.947 452.8621,377.947" style="fill:none;stroke:black;stroke-width:1" />
  <polyline points="561.6751,370.947 561.6751,377.947" style="fill:none;stroke:black;stroke-width:1" />
  <polyline points="39.016,363.4208 42.5836,360.5537 47.9351,362.4651 49.7189,360.5537 51.5027,361.828 53.2866,360.2352 55.0704,360.5537 60.4218,360.8723 62.2057,363.4208 63.9895,363.7394 65.7733,363.1023 67.5571,363.1023 72.9086,365.3322 74.6924,366.2879 76.4762,366.2879 78.26,365.6508 80.0438,365.9693 85.3953,365.9693 87.1791,367.5622 88.9629,366.6065 90.7468,364.6951 92.5306,363.4208 97.882,360.2352 99.6659,358.0052 101.4497,354.8195 103.2335,354.501 105.0173,353.5453 110.3688,356.4124 112.1526,357.0495 113.9364,356.7309 115.7202,355.4567 117.5041,353.8638 122.8555,346.2183 124.6393,347.174 126.4231,347.4925 128.207,342.714 129.9908,338.2541 135.3422,333.1571 137.1261,337.617 138.9099,333.4756 140.6937,329.0157 142.4775,327.7414 147.829,318.1845 149.6128,325.5115 151.3966,321.6887 153.1804,313.0874 154.9643,300.6633 160.3157,284.735 162.0995,285.6907 163.8834,283.7793 165.6672,269.1253 167.451,266.2582 172.8025,223.2518 174.5863,235.0387 176.3701,235.0387 178.1539,231.5345 179.9377,212.4206 185.2892,218.4733 187.073,250.3299 188.8568,243.3215 190.6406,234.083 192.4245,230.2603 197.7759,208.9163 199.5597,221.9775 201.3436,212.7391 204.9112,194.8994 210.2627,191.0766 212.0465,208.9163 213.8303,213.6948 215.6141,193.6252 217.3979,209.2349 222.7494,223.8889 224.5332,235.6759 226.317,231.5345 228.1009,241.4101 229.8847,226.4375 235.2361,207.6421 237.0199,218.1548 238.8038,234.4016 240.5876,228.6674 242.3714,236.9501 247.7229,197.1294 249.5067,214.0134 251.2905,223.2518 253.0743,207.3235 254.8581,197.1294 260.2096,165.2728 261.9934,185.3425 263.7772,192.988 265.5611,182.1568 267.3449,164.9542 272.6963,140.4247 274.4802,159.2201 276.264,175.1484 285.1831,139.469 286.9669,156.6715 288.7507,169.4142 290.5345,156.0344 297.6698,156.353 299.4536,173.5555 301.2374,197.7665 303.0213,203.1822 304.8051,184.7053 311.9404,220.0661 313.7242,236.313 315.508,229.3046 317.2918,247.1443 322.6433,257.6569 324.4271,276.1338 326.2109,280.9122 327.9947,279.638 329.7786,276.7709 335.13,276.4523 338.6977,283.7793 340.4815,270.3996 342.2653,261.7983 347.6167,263.0725 349.4006,277.7266 351.1844,290.4692 352.9682,284.4165 354.752,284.4165 360.1035,295.8848 361.8873,304.1676 363.6711,299.3891 365.4549,289.8321 367.2388,280.2751 372.5902,287.2836 374.374,310.8574 376.1579,309.5832 377.9417,302.8933 379.7255,317.2288 385.077,323.2815 386.8608,329.0157 388.6446,325.1929 390.4284,323.9186 392.2122,325.5115 397.5637,327.1043 399.3475,335.0684 401.1313,329.6528 402.9151,312.4503 404.699,311.4946 410.0504,298.4334 411.8342,298.4334 413.6181,293.3363 415.4019,285.3722 417.1857,275.4966 422.5372,268.8067 424.321,269.7624 426.1048,270.3996 427.8886,250.3299 429.6724,236.6316 435.0239,219.7476 436.8077,220.0661 438.5915,221.3404 440.3754,199.3594 442.1592,195.218 447.5106,192.3509 449.2945,214.9691 451.0783,219.429 452.8621,211.7834 454.6459,188.5281 461.7812,174.1927 463.565,176.7412 465.3488,153.4859 467.1326,148.3888 472.4841,142.6546 474.2679,144.2475 476.0517,126.7263 477.8356,113.6651 479.6194,116.2137 484.9708,99.9668 486.7547,95.1883 488.5385,72.8887 490.3223,44.5363 492.1061,32.4308 497.4576,42.3064 499.2414,49.3148 501.0252,66.1988 502.809,77.6672 504.5929,71.2959 509.9443,109.8423 511.7281,105.701 513.5119,125.7706 515.2958,134.6905 517.0796,148.3888 522.431,149.0259 524.2149,175.7855 525.9987,170.6884 529.5663,185.3425 534.9178,171.9627 536.7016,185.661 538.4854,186.2982 540.2692,180.564 542.0531,185.0239 549.1883,213.3763 550.9722,232.8088 552.756,239.8172 554.5398,234.7202 559.8913,261.4797 561.6751,282.1865 563.4589,289.195 567.0265,301.9376 572.378,310.5389 574.1618,317.8659 575.9456,328.6971 577.7294,332.5199 579.5133,337.2984 584.8647,338.5727 586.6485,337.617 588.4324,348.7668 590.2162,348.1297 592,349.7225" style="fill:none;stroke:rgb(31,119,180);stroke-width:2;stroke-linejoin:bevel" />
  <text dominant-baseline="hanging" text-anchor="middle" transform="translate(315.508,8)" font-family="Segoe UI" font-size="18" font-weight="700" fill="black">Aktive Fälle Stadt Aachen 18.06.2021</text>
  <polygon points="39.016,29.0795 592,29.0795 592,370.947 39.016,370.947" style="fill:none;stroke:black;stroke-width:1" />
  <polygon points="47.016,37.0795 233.487,37.0795 233.487,63.1325 47.016,63.1325" style="fill:none;stroke:none;" />
  <text dominant-baseline="hanging" text-anchor="start" transform="translate(75.016,45.0795)" font-family="Segoe UI" font-size="12" font-weight="400" fill="black">Aktive Fälle Stadt Aachen 18.06.2021</text>
  <polyline points="55.016,50.106 71.016,50.106" style="fill:none;stroke:rgb(31,119,180);stroke-width:2" />
</svg>