<?xml version="1.0" encoding="utf-8" standalone="no"?>
<!DOCTYPE svg PUBLIC "-//W3C//DTD SVG 1.1//EN" "http://www.w3.org/Graphics/SVG/1.1/DTD/svg11.dtd">
<svg width="600" height="400" version="1.1" xmlns:xlink="http://www.w3.org/1999/xlink" xmlns="http://www.w3.org/2000/svg">
  <rect x="0" y="0" width="600" height="400" style="fill:rgb(255,255,255);stroke:none;" />
  <polyline points="34.012,352.1162 30.012,352.1162" style="fill:none;stroke:black;stroke-width:1" />
  <polyline points="34.012,328.7131 30.012,328.7131" style="fill:none;stroke:black;stroke-width:1" />
  <polyline points="34.012,305.3101 30.012,305.3101" style="fill:none;stroke:black;stroke-width:1" />
  <polyline points="34.012,258.5041 30.012,258.5041" style="fill:none;stroke:black;stroke-width:1" />
  <polyline points="34.012,235.101 30.012,235.101" style="fill:none;stroke:black;stroke-width:1" />
  <polyline points="34.012,211.698 30.012,211.698" style="fill:none;stroke:black;stroke-width:1" />
  <polyline points="34.012,164.892 30.012,164.892" style="fill:none;stroke:black;stroke-width:1" />
  <polyline points="34.012,141.4889 30.012,141.4889" style="fill:none;stroke:black;stroke-width:1" />
  <polyline points="34.012,118.0859 30.012,118.0859" style="fill:none;stroke:black;stroke-width:1" />
  <polyline points="34.012,71.2798 30.012,71.2798" style="fill:none;stroke:black;stroke-width:1" />
  <polyline points="34.012,47.8768 30.012,47.8768" style="fill:none;stroke:black;stroke-width:1" />
  <text dominant-baseline="middle" text-anchor="end" transform="translate(23.012,281.9071)" font-family="Segoe UI" font-size="12" font-weight="400" fill="black">200</text>
  <text dominant-baseline="middle" text-anchor="end" transform="translate(23.012,188.295)" font-family="Segoe UI" font-size="12" font-weight="400" fill="black">400</text>
  <text dominant-baseline="middle" text-anchor="end" transform="translate(23.012,94.6829)" font-family="Segoe UI" font-size="12" font-weight="400" fill="black">600</text>
  <polyline points="34.012,281.9071 27.012,281.9071" style="fill:none;stroke:black;stroke-width:1" />
  <polyline points="34.012,188.295 27.012,188.295" style="fill:none;stroke:black;stroke-width:1" />
  <polyline points="34.012,94.6829 27.012,94.6829" style="fill:none;stroke:black;stroke-width:1" />
  <text dominant-baseline="hanging" text-anchor="middle" transform="translate(84.0558,381.947)" font-family="Segoe UI" font-size="12" font-weight="400" fill="black">01. September</text>
  <text dominant-baseline="hanging" text-anchor="middle" transform="translate(159.1214,381.947)" font-family="Segoe UI" font-size="12" font-weight="400" fill="black">01. October</text>
  <text dominant-baseline="hanging" text-anchor="middle" transform="translate(236.6893,381.947)" font-family="Segoe UI" font-size="12" font-weight="400" fill="black">01. November</text>
  <text dominant-baseline="hanging" text-anchor="middle" transform="translate(311.7549,381.947)" font-family="Segoe UI" font-size="12" font-weight="400" fill="black">01. December</text>
  <text dominant-baseline="hanging" text-anchor="middle" transform="translate(389.3227,381.947)" font-family="Segoe UI" font-size="12" font-weight="400" fill="black">01. January</text>
  <text dominant-baseline="hanging" text-anchor="middle" transform="translate(466.8906,381.947)" font-family="Segoe UI" font-size="12" font-weight="400" fill="black">01. February</text>
  <text dominant-baseline="hanging" text-anchor="middle" transform="translate(536.9519,381.947)" font-family="Segoe UI" font-size="12" font-weight="400" fill="black">01. March</text>
  <polyline points="84.0558,370.947 84.0558,377.947" style="fill:none;stroke:black;stroke-width:1" />
  <polyline points="159.1214,370.947 159.1214,377.947" style="fill:none;stroke:black;stroke-width:1" />
  <polyline points="236.6893,370.947 236.6893,377.947" style="fill:none;stroke:black;stroke-width:1" />
  <polyline points="311.7549,370.947 311.7549,377.947" style="fill:none;stroke:black;stroke-width:1" />
  <polyline points="389.3227,370.947 389.3227,377.947" style="fill:none;stroke:black;stroke-width:1" />
  <polyline points="466.8906,370.947 466.8906,377.947" style="fill:none;stroke:black;stroke-width:1" />
  <polyline points="536.9519,370.947 536.9519,377.947" style="fill:none;stroke:black;stroke-width:1" />
  <polyline points="34.012,361.4774 39.0164,357.2648 46.5229,360.0732 49.0251,357.2648 51.5273,359.1371 54.0295,356.7968 56.5317,357.2648 64.0383,357.7329 66.5404,361.4774 69.0426,361.9454 71.5448,361.0093 74.047,361.0093 81.5536,364.2857 84.0558,365.6899 86.558,365.6899 89.0601,364.7538 91.5623,365.2219 99.0689,365.2219 101.5711,367.5622 104.0733,366.158 106.5755,363.3496 109.0777,361.4774 116.5842,356.7968 119.0864,353.5204 121.5886,348.8398 124.0908,348.3717 126.593,346.9675 134.0995,351.1801 136.6017,352.1162 139.1039,351.6481 141.6061,349.7759 144.1083,347.4356 151.6149,336.2021 154.117,337.6063 156.6192,338.0744 159.1214,331.0534 161.6236,324.5006 169.1302,317.0116 171.6324,323.5645 174.1345,317.4797 176.6367,310.9268 179.1389,309.0546 186.6455,295.0128 189.1477,305.7782 191.6499,300.1615 194.1521,287.5238 196.6542,269.2695 204.1608,245.8664 206.663,247.2706 209.1652,244.4622 211.6674,222.9315 214.1696,218.7189 221.6761,155.5307 224.1783,172.849 226.6805,172.849 229.1827,167.7003 231.6849,139.6167 239.1914,148.5098 241.6936,195.3159 244.1958,185.0186 246.698,171.4448 249.2002,165.8281 256.7068,134.468 259.209,153.6585 261.7111,140.0847 266.7155,113.8734 274.2221,108.2566 276.7243,134.468 279.2265,141.4889 281.7286,112.0011 284.2308,134.9361 291.7374,156.4669 294.2396,173.7851 296.7418,167.7003 299.244,182.2102 301.7462,160.2113 309.2527,132.5958 311.7549,148.0418 314.2571,171.9129 316.7593,163.4878 319.2615,175.6573 326.768,117.1498 329.2702,141.957 331.7724,155.5307 334.2746,132.1277 336.7768,117.1498 344.2834,70.3437 346.7855,99.8315 349.2877,111.065 351.7899,95.1509 354.2921,69.8757 361.7987,33.835 364.3009,61.4506 366.803,84.8536 379.314,32.4308 381.8162,57.7061 384.3184,76.4285 386.8206,56.77 396.8293,57.238 399.3315,82.5133 401.8337,118.0859 404.3359,126.0429 406.8381,98.8954 416.8468,150.8501 419.349,174.7212 421.8512,164.4239 424.3534,190.6353 431.8599,206.0813 434.3621,233.2288 436.8643,240.2497 439.3665,238.3775 441.8687,234.1649 449.3753,233.6969 454.3796,244.4622 456.8818,224.8037 459.384,212.1661 466.8906,214.0383 469.3928,235.5691 471.895,254.2915 474.3971,245.3984 476.8993,245.3984 484.4059,262.2485 486.9081,274.4181 489.4103,267.3972 491.9125,253.3554 494.4147,239.3136 501.9212,249.6109 504.4234,284.2474 506.9256,282.3752 509.4278,272.5459 511.93,293.6086 519.4365,302.5018 521.9387,310.9268 524.4409,305.3101 526.9431,303.4379 529.4453,305.7782 536.9519,308.1185 539.454,319.82 541.9562,311.863 544.4584,286.5877 546.9606,285.1835 554.4672,265.993 556.9694,265.993 559.4716,258.5041 561.9737,246.8025 564.4759,232.2927 571.9825,222.4634 574.4847,223.8676 576.9869,224.8037 579.4891,195.3159 581.9912,175.1893 589.4978,150.3821 592,150.8501" style="fill:none;stroke:rgb(31,119,180);stroke-width:2;stroke-linejoin:bevel" />
  <text dominant-baseline="hanging" text-anchor="middle" transform="translate(313.006,8)" font-family="Segoe UI" font-size="18" font-weight="700" fill="black">Aktive Fälle Stadt Aachen 23.03.2021</text>
  <polygon points="34.012,29.0795 592,29.0795 592,370.947 34.012,370.947" style="fill:none;stroke:black;stroke-width:1" />
  <polygon points="42.012,37.0795 228.483,37.0795 228.483,63.1325 42.012,63.1325" style="fill:none;stroke:none;" />
  <text dominant-baseline="hanging" text-anchor="start" transform="translate(70.012,45.0795)" font-family="Segoe UI" font-size="12" font-weight="400" fill="black">Aktive Fälle Stadt Aachen 23.03.2021</text>
  <polyline points="50.012,50.106 66.012,50.106" style="fill:none;stroke:rgb(31,119,180);stroke-width:2" />
</svg>