<?xml version="1.0" encoding="utf-8" standalone="no"?>
<!DOCTYPE svg PUBLIC "-//W3C//DTD SVG 1.1//EN" "http://www.w3.org/Graphics/SVG/1.1/DTD/svg11.dtd">
<svg width="600" height="400" version="1.1" xmlns:xlink="http://www.w3.org/1999/xlink" xmlns="http://www.w3.org/2000/svg">
  <rect x="0" y="0" width="600" height="400" style="fill:rgb(255,255,255);stroke:none;" />
  <polyline points="39.016,357.0495 35.016,357.0495" style="fill:none;stroke:black;stroke-width:1" />
  <polyline points="39.016,341.1212 35.016,341.1212" style="fill:none;stroke:black;stroke-width:1" />
  <polyline points="39.016,325.1929 35.016,325.1929" style="fill:none;stroke:black;stroke-width:1" />
  <polyline points="39.016,293.3363 35.016,293.3363" style="fill:none;stroke:black;stroke-width:1" />
  <polyline points="39.016,277.408 35.016,277.408" style="fill:none;stroke:black;stroke-width:1" />
  <polyline points="39.016,261.4797 35.016,261.4797" style="fill:none;stroke:black;stroke-width:1" />
  <polyline points="39.016,229.6231 35.016,229.6231" style="fill:none;stroke:black;stroke-width:1" />
  <polyline points="39.016,213.6948 35.016,213.6948" style="fill:none;stroke:black;stroke-width:1" />
  <polyline points="39.016,197.7665 35.016,197.7665" style="fill:none;stroke:black;stroke-width:1" />
  <polyline points="39.016,165.9099 35.016,165.9099" style="fill:none;stroke:black;stroke-width:1" />
  <polyline points="39.016,149.9816 35.016,149.9816" style="fill:none;stroke:black;stroke-width:1" />
  <polyline points="39.016,134.0533 35.016,134.0533" style="fill:none;stroke:black;stroke-width:1" />
  <polyline points="39.016,102.1968 35.016,102.1968" style="fill:none;stroke:black;stroke-width:1" />
  <polyline points="39.016,86.2685 35.016,86.2685" style="fill:none;stroke:black;stroke-width:1" />
  <polyline points="39.016,70.3402 35.016,70.3402" style="fill:none;stroke:black;stroke-width:1" />
  <polyline points="39.016,38.4836 35.016,38.4836" style="fill:none;stroke:black;stroke-width:1" />
  <polyline points="74.015,370.947 74.015,374.947" style="fill:none;stroke:black;stroke-width:1" />
  <polyline points="180.7619,370.947 180.7619,374.947" style="fill:none;stroke:black;stroke-width:1" />
  <polyline points="287.5088,370.947 287.5088,374.947" style="fill:none;stroke:black;stroke-width:1" />
  <polyline points="390.7558,370.947 390.7558,374.947" style="fill:none;stroke:black;stroke-width:1" />
  <polyline points="497.5027,370.947 497.5027,374.947" style="fill:none;stroke:black;stroke-width:1" />
  <text dominant-baseline="middle" text-anchor="end" transform="translate(28.016,309.2646)" font-family="Segoe UI" font-size="12" font-weight="400" fill="black">200</text>
  <text dominant-baseline="middle" text-anchor="end" transform="translate(28.016,245.5514)" font-family="Segoe UI" font-size="12" font-weight="400" fill="black">400</text>
  <text dominant-baseline="middle" text-anchor="end" transform="translate(28.016,181.8382)" font-family="Segoe UI" font-size="12" font-weight="400" fill="black">600</text>
  <text dominant-baseline="middle" text-anchor="end" transform="translate(28.016,118.125)" font-family="Segoe UI" font-size="12" font-weight="400" fill="black">800</text>
  <text dominant-baseline="middle" text-anchor="end" transform="translate(28.016,54.4119)" font-family="Segoe UI" font-size="12" font-weight="400" fill="black">1000</text>
  <polyline points="39.016,309.2646 32.016,309.2646" style="fill:none;stroke:black;stroke-width:1" />
  <polyline points="39.016,245.5514 32.016,245.5514" style="fill:none;stroke:black;stroke-width:1" />
  <polyline points="39.016,181.8382 32.016,181.8382" style="fill:none;stroke:black;stroke-width:1" />
  <polyline points="39.016,118.125 32.016,118.125" style="fill:none;stroke:black;stroke-width:1" />
  <polyline points="39.016,54.4119 32.016,54.4119" style="fill:none;stroke:black;stroke-width:1" />
  <text dominant-baseline="hanging" text-anchor="middle" transform="translate(126.5135,381.947)" font-family="Segoe UI" font-size="12" font-weight="400" fill="black">01. October</text>
  <text dominant-baseline="hanging" text-anchor="middle" transform="translate(233.2604,381.947)" font-family="Segoe UI" font-size="12" font-weight="400" fill="black">01. December</text>
  <text dominant-baseline="hanging" text-anchor="middle" transform="translate(341.7572,381.947)" font-family="Segoe UI" font-size="12" font-weight="400" fill="black">01. February</text>
  <text dominant-baseline="hanging" text-anchor="middle" transform="translate(445.0043,381.947)" font-family="Segoe UI" font-size="12" font-weight="400" fill="black">01. April</text>
  <text dominant-baseline="hanging" text-anchor="middle" transform="translate(551.7512,381.947)" font-family="Segoe UI" font-size="12" font-weight="400" fill="black">01. June</text>
  <polyline points="126.5135,370.947 126.5135,377.947" style="fill:none;stroke:black;stroke-width:1" />
  <polyline points="233.2604,370.947 233.2604,377.947" style="fill:none;stroke:black;stroke-width:1" />
  <polyline points="341.7572,370.947 341.7572,377.947" style="fill:none;stroke:black;stroke-width:1" />
  <polyline points="445.0043,370.947 445.0043,377.947" style="fill:none;stroke:black;stroke-width:1" />
  <polyline points="551.7512,370.947 551.7512,377.947" style="fill:none;stroke:black;stroke-width:1" />
  <polyline points="39.016,363.4208 42.5159,360.5537 47.7657,362.4651 49.5157,360.5537 51.2656,361.828 53.0156,360.2352 54.7655,360.5537 60.0154,360.8723 61.7653,363.4208 63.5153,363.7394 65.2652,363.1023 67.0152,363.1023 72.265,365.3322 74.015,366.2879 75.7649,366.2879 77.5149,365.6508 79.2648,365.9693 84.5147,365.9693 86.2646,367.5622 88.0146,366.6065 89.7645,364.6951 91.5145,363.4208 96.7643,360.2352 98.5143,358.0052 100.2642,354.8195 102.0142,354.501 103.7641,353.5453 109.014,356.4124 110.7639,357.0495 112.5139,356.7309 114.2638,355.4567 116.0138,353.8638 121.2636,346.2183 123.0136,347.174 124.7635,347.4925 126.5135,342.714 128.2634,338.2541 133.5133,333.1571 135.2632,337.617 137.0132,333.4756 138.7631,329.0157 140.5131,327.7414 145.7629,318.1845 147.5129,325.5115 149.2628,321.6887 151.0128,313.0874 152.7627,300.6633 158.0126,284.735 159.7625,285.6907 161.5125,283.7793 163.2624,269.1253 165.0124,266.2582 170.2622,223.2518 172.0122,235.0387 173.7621,235.0387 175.5121,231.5345 177.262,212.4206 182.5118,218.4733 184.2618,250.3299 186.0117,243.3215 187.7617,234.083 189.5116,230.2603 194.7615,208.9163 196.5114,221.9775 198.2614,212.7391 201.7613,194.8994 207.0111,191.0766 208.7611,208.9163 210.511,213.6948 212.261,193.6252 214.0109,209.2349 219.2608,223.8889 221.0107,235.6759 222.7607,231.5345 224.5106,241.4101 226.2606,226.4375 231.5104,207.6421 233.2604,218.1548 235.0103,234.4016 236.7603,228.6674 238.5102,236.9501 243.7601,197.1294 245.51,214.0134 247.26,223.2518 249.0099,207.3235 250.7599,197.1294 256.0097,165.2728 257.7597,185.3425 259.5096,192.988 261.2596,182.1568 263.0095,164.9542 268.2594,140.4247 270.0093,159.2201 271.7593,175.1484 280.509,139.469 282.259,156.6715 284.0089,169.4142 285.7589,156.0344 292.7587,156.353 294.5086,173.5555 296.2586,197.7665 298.0085,203.1822 299.7585,184.7053 306.7583,220.0661 308.5082,236.313 310.2582,229.3046 312.0081,247.1443 317.2579,257.6569 319.0079,276.1338 320.7578,280.9122 322.5078,279.638 324.2577,276.7709 329.5076,276.4523 333.0075,283.7793 334.7574,270.3996 336.5074,261.7983 341.7572,263.0725 343.5072,277.7266 345.2571,290.4692 347.0071,284.4165 348.757,284.4165 354.0069,295.8848 355.7568,304.1676 357.5068,299.3891 359.2567,289.8321 361.0067,280.2751 366.2565,287.2836 368.0065,310.8574 369.7564,309.5832 371.5064,302.8933 373.2563,317.2288 378.5062,323.2815 380.2561,329.0157 382.0061,325.1929 383.756,323.9186 385.506,325.5115 390.7558,327.1043 392.5058,335.0684 394.2557,329.6528 396.0057,312.4503 397.7556,311.4946 403.0055,298.4334 404.7554,298.4334 406.5054,293.3363 408.2553,285.3722 410.0053,275.4966 415.2551,268.8067 417.0051,269.7624 418.755,270.3996 420.505,250.3299 422.2549,236.6316 427.5048,219.7476 429.2547,220.0661 431.0047,221.3404 432.7546,199.3594 434.5046,195.218 439.7544,192.3509 441.5044,214.9691 443.2543,219.429 445.0043,211.7834 446.7542,188.5281 453.754,174.1927 455.5039,176.7412 457.2539,153.4859 459.0038,148.3888 464.2537,142.6546 466.0036,144.2475 467.7536,126.7263 469.5035,113.6651 471.2535,116.2137 476.5033,99.9668 478.2533,95.1883 480.0032,72.8887 481.7532,44.5363 483.5031,32.4308 488.753,42.3064 490.5029,49.3148 492.2529,66.1988 494.0028,77.6672 495.7528,71.2959 501.0026,109.8423 502.7526,105.701 504.5025,125.7706 506.2525,134.6905 508.0024,148.3888 513.2523,149.0259 515.0022,175.7855 516.7522,170.6884 520.2521,185.3425 525.5019,171.9627 527.2519,185.661 529.0018,186.2982 530.7518,180.564 532.5017,185.0239 539.5015,213.3763 541.2515,232.8088 543.0014,239.8172 544.7514,234.7202 550.0012,261.4797 551.7512,282.1865 553.5011,289.195 557.001,301.9376 562.2509,310.5389 564.0008,317.8659 565.7508,328.6971 567.5007,332.5199 569.2507,337.2984 574.5005,338.5727 576.2505,337.617 578.0004,348.7668 579.7504,348.1297 581.5003,349.7225 586.7502,350.6782 588.5001,351.9524 590.2501,352.5896 592,352.9081" style="fill:none;stroke:rgb(31,119,180);stroke-width:2;stroke-linejoin:bevel" />
  <text dominant-baseline="hanging" text-anchor="middle" transform="translate(315.508,8)" font-family="Segoe UI" font-size="18" font-weight="700" fill="black">Aktive Fälle Stadt Aachen 24.06.2021</text>
  <polygon points="39.016,29.0795 592,29.0795 592,370.947 39.016,370.947" style="fill:none;stroke:black;stroke-width:1" />
  <polygon points="47.016,37.0795 233.487,37.0795 233.487,63.1325 47.016,63.1325" style="fill:none;stroke:none;" />
  <text dominant-baseline="hanging" text-anchor="start" transform="translate(75.016,45.0795)" font-family="Segoe UI" font-size="12" font-weight="400" fill="black">Aktive Fälle Stadt Aachen 24.06.2021</text>
  <polyline points="55.016,50.106 71.016,50.106" style="fill:none;stroke:rgb(31,119,180);stroke-width:2" />
</svg>