<?xml version="1.0" encoding="utf-8" standalone="no"?>
<!DOCTYPE svg PUBLIC "-//W3C//DTD SVG 1.1//EN" "http://www.w3.org/Graphics/SVG/1.1/DTD/svg11.dtd">
<svg width="600" height="400" version="1.1" xmlns:xlink="http://www.w3.org/1999/xlink" xmlns="http://www.w3.org/2000/svg">
  <rect x="0" y="0" width="600" height="400" style="fill:rgb(255,255,255);stroke:none;" />
  <polyline points="39.016,357.0495 35.016,357.0495" style="fill:none;stroke:black;stroke-width:1" />
  <polyline points="39.016,341.1212 35.016,341.1212" style="fill:none;stroke:black;stroke-width:1" />
  <polyline points="39.016,325.1929 35.016,325.1929" style="fill:none;stroke:black;stroke-width:1" />
  <polyline points="39.016,293.3363 35.016,293.3363" style="fill:none;stroke:black;stroke-width:1" />
  <polyline points="39.016,277.408 35.016,277.408" style="fill:none;stroke:black;stroke-width:1" />
  <polyline points="39.016,261.4797 35.016,261.4797" style="fill:none;stroke:black;stroke-width:1" />
  <polyline points="39.016,229.6231 35.016,229.6231" style="fill:none;stroke:black;stroke-width:1" />
  <polyline points="39.016,213.6948 35.016,213.6948" style="fill:none;stroke:black;stroke-width:1" />
  <polyline points="39.016,197.7665 35.016,197.7665" style="fill:none;stroke:black;stroke-width:1" />
  <polyline points="39.016,165.9099 35.016,165.9099" style="fill:none;stroke:black;stroke-width:1" />
  <polyline points="39.016,149.9816 35.016,149.9816" style="fill:none;stroke:black;stroke-width:1" />
  <polyline points="39.016,134.0533 35.016,134.0533" style="fill:none;stroke:black;stroke-width:1" />
  <polyline points="39.016,102.1968 35.016,102.1968" style="fill:none;stroke:black;stroke-width:1" />
  <polyline points="39.016,86.2685 35.016,86.2685" style="fill:none;stroke:black;stroke-width:1" />
  <polyline points="39.016,70.3402 35.016,70.3402" style="fill:none;stroke:black;stroke-width:1" />
  <polyline points="39.016,38.4836 35.016,38.4836" style="fill:none;stroke:black;stroke-width:1" />
  <text dominant-baseline="middle" text-anchor="end" transform="translate(28.016,309.2646)" font-family="Segoe UI" font-size="12" font-weight="400" fill="black">200</text>
  <text dominant-baseline="middle" text-anchor="end" transform="translate(28.016,245.5514)" font-family="Segoe UI" font-size="12" font-weight="400" fill="black">400</text>
  <text dominant-baseline="middle" text-anchor="end" transform="translate(28.016,181.8382)" font-family="Segoe UI" font-size="12" font-weight="400" fill="black">600</text>
  <text dominant-baseline="middle" text-anchor="end" transform="translate(28.016,118.125)" font-family="Segoe UI" font-size="12" font-weight="400" fill="black">800</text>
  <text dominant-baseline="middle" text-anchor="end" transform="translate(28.016,54.4119)" font-family="Segoe UI" font-size="12" font-weight="400" fill="black">1000</text>
  <polyline points="39.016,309.2646 32.016,309.2646" style="fill:none;stroke:black;stroke-width:1" />
  <polyline points="39.016,245.5514 32.016,245.5514" style="fill:none;stroke:black;stroke-width:1" />
  <polyline points="39.016,181.8382 32.016,181.8382" style="fill:none;stroke:black;stroke-width:1" />
  <polyline points="39.016,118.125 32.016,118.125" style="fill:none;stroke:black;stroke-width:1" />
  <polyline points="39.016,54.4119 32.016,54.4119" style="fill:none;stroke:black;stroke-width:1" />
  <text dominant-baseline="hanging" text-anchor="middle" transform="translate(81.883,381.947)" font-family="Segoe UI" font-size="12" font-weight="400" fill="black">01. September</text>
  <text dominant-baseline="hanging" text-anchor="middle" transform="translate(146.1834,381.947)" font-family="Segoe UI" font-size="12" font-weight="400" fill="black">01. October</text>
  <text dominant-baseline="hanging" text-anchor="middle" transform="translate(212.6273,381.947)" font-family="Segoe UI" font-size="12" font-weight="400" fill="black">01. November</text>
  <text dominant-baseline="hanging" text-anchor="middle" transform="translate(276.9277,381.947)" font-family="Segoe UI" font-size="12" font-weight="400" fill="black">01. December</text>
  <text dominant-baseline="hanging" text-anchor="middle" transform="translate(343.3715,381.947)" font-family="Segoe UI" font-size="12" font-weight="400" fill="black">01. January</text>
  <text dominant-baseline="hanging" text-anchor="middle" transform="translate(409.8153,381.947)" font-family="Segoe UI" font-size="12" font-weight="400" fill="black">01. February</text>
  <text dominant-baseline="hanging" text-anchor="middle" transform="translate(469.8291,381.947)" font-family="Segoe UI" font-size="12" font-weight="400" fill="black">01. March</text>
  <text dominant-baseline="hanging" text-anchor="middle" transform="translate(536.2729,381.947)" font-family="Segoe UI" font-size="12" font-weight="400" fill="black">01. April</text>
  <polyline points="81.883,370.947 81.883,377.947" style="fill:none;stroke:black;stroke-width:1" />
  <polyline points="146.1834,370.947 146.1834,377.947" style="fill:none;stroke:black;stroke-width:1" />
  <polyline points="212.6273,370.947 212.6273,377.947" style="fill:none;stroke:black;stroke-width:1" />
  <polyline points="276.9277,370.947 276.9277,377.947" style="fill:none;stroke:black;stroke-width:1" />
  <polyline points="343.3715,370.947 343.3715,377.947" style="fill:none;stroke:black;stroke-width:1" />
  <polyline points="409.8153,370.947 409.8153,377.947" style="fill:none;stroke:black;stroke-width:1" />
  <polyline points="469.8291,370.947 469.8291,377.947" style="fill:none;stroke:black;stroke-width:1" />
  <polyline points="536.2729,370.947 536.2729,377.947" style="fill:none;stroke:black;stroke-width:1" />
  <polyline points="39.016,363.4208 43.3027,360.5537 49.7327,362.4651 51.8761,360.5537 54.0194,361.828 56.1628,360.2352 58.3061,360.5537 64.7362,360.8723 66.8795,363.4208 69.0229,363.7394 71.1662,363.1023 73.3096,363.1023 79.7396,365.3322 81.883,366.2879 84.0263,366.2879 86.1697,365.6508 88.313,365.9693 94.7431,365.9693 96.8864,367.5622 99.0298,366.6065 101.1731,364.6951 103.3165,363.4208 109.7465,360.2352 111.8899,358.0052 114.0332,354.8195 116.1766,354.501 118.3199,353.5453 124.75,356.4124 126.8933,357.0495 129.0367,356.7309 131.18,355.4567 133.3233,353.8638 139.7534,346.2183 141.8967,347.174 144.0401,347.4925 146.1834,342.714 148.3268,338.2541 154.7568,333.1571 156.9002,337.617 159.0435,333.4756 161.1869,329.0157 163.3302,327.7414 169.7603,318.1845 171.9036,325.5115 174.047,321.6887 176.1903,313.0874 178.3337,300.6633 184.7637,284.735 186.9071,285.6907 189.0504,283.7793 191.1938,269.1253 193.3371,266.2582 199.7672,223.2518 201.9105,235.0387 204.0539,235.0387 206.1972,231.5345 208.3406,212.4206 214.7706,218.4733 216.914,250.3299 219.0573,243.3215 221.2007,234.083 223.344,230.2603 229.774,208.9163 231.9174,221.9775 234.0607,212.7391 238.3474,194.8994 244.7775,191.0766 246.9208,208.9163 249.0642,213.6948 251.2075,193.6252 253.3509,209.2349 259.7809,223.8889 261.9243,235.6759 264.0676,231.5345 266.211,241.4101 268.3543,226.4375 274.7844,207.6421 276.9277,218.1548 279.0711,234.4016 281.2144,228.6674 283.3578,236.9501 289.7878,197.1294 291.9312,214.0134 294.0745,223.2518 296.2179,207.3235 298.3612,197.1294 304.7913,165.2728 306.9346,185.3425 309.078,192.988 311.2213,182.1568 313.3647,164.9542 319.7947,140.4247 321.938,159.2201 324.0814,175.1484 334.7981,139.469 336.9415,156.6715 339.0848,169.4142 341.2282,156.0344 349.8016,156.353 351.9449,173.5555 354.0883,197.7665 356.2316,203.1822 358.375,184.7053 366.9484,220.0661 369.0917,236.313 371.2351,229.3046 373.3784,247.1443 379.8085,257.6569 381.9518,276.1338 384.0952,280.9122 386.2385,279.638 388.3819,276.7709 394.8119,276.4523 399.0986,283.7793 401.242,270.3996 403.3853,261.7983 409.8153,263.0725 411.9587,277.7266 414.102,290.4692 416.2454,284.4165 418.3887,284.4165 424.8188,295.8848 426.9621,304.1676 429.1055,299.3891 431.2488,289.8321 433.3922,280.2751 439.8222,287.2836 441.9656,310.8574 444.1089,309.5832 446.2523,302.8933 448.3956,317.2288 454.8257,323.2815 456.969,329.0157 459.1124,325.1929 461.2557,323.9186 463.3991,325.5115 469.8291,327.1043 471.9725,335.0684 474.1158,329.6528 476.2592,312.4503 478.4025,311.4946 484.8326,298.4334 486.9759,298.4334 489.1193,293.3363 491.2626,285.3722 493.406,275.4966 499.836,268.8067 501.9793,269.7624 504.1227,270.3996 506.266,250.3299 508.4094,236.6316 514.8394,219.7476 516.9828,220.0661 519.1261,221.3404 521.2695,199.3594 523.4128,195.218 529.8429,192.3509 531.9862,214.9691 534.1296,219.429 536.2729,211.7834 538.4163,188.5281 546.9897,174.1927 549.133,176.7412 551.2764,153.4859 553.4197,148.3888 559.8498,142.6546 561.9931,144.2475 564.1365,126.7263 566.2798,113.6651 568.4232,116.2137 574.8532,99.9668 576.9966,95.1883 579.1399,72.8887 581.2833,44.5363 583.4266,32.4308 589.8567,42.3064 592,49.3148" style="fill:none;stroke:rgb(31,119,180);stroke-width:2;stroke-linejoin:bevel" />
  <text dominant-baseline="hanging" text-anchor="middle" transform="translate(315.508,8)" font-family="Segoe UI" font-size="18" font-weight="700" fill="black">Aktive Fälle Stadt Aachen 27.04.2021</text>
  <polygon points="39.016,29.0795 592,29.0795 592,370.947 39.016,370.947" style="fill:none;stroke:black;stroke-width:1" />
  <polygon points="47.016,37.0795 233.487,37.0795 233.487,63.1325 47.016,63.1325" style="fill:none;stroke:none;" />
  <text dominant-baseline="hanging" text-anchor="start" transform="translate(75.016,45.0795)" font-family="Segoe UI" font-size="12" font-weight="400" fill="black">Aktive Fälle Stadt Aachen 27.04.2021</text>
  <polyline points="55.016,50.106 71.016,50.106" style="fill:none;stroke:rgb(31,119,180);stroke-width:2" />
</svg>