<?xml version="1.0" encoding="utf-8" standalone="no"?>
<!DOCTYPE svg PUBLIC "-//W3C//DTD SVG 1.1//EN" "http://www.w3.org/Graphics/SVG/1.1/DTD/svg11.dtd">
<svg width="600" height="400" version="1.1" xmlns:xlink="http://www.w3.org/1999/xlink" xmlns="http://www.w3.org/2000/svg">
  <rect x="0" y="0" width="600" height="400" style="fill:rgb(255,255,255);stroke:none;" />
  <polyline points="34.012,365.7474 30.012,365.7474" style="fill:none;stroke:black;stroke-width:1" />
  <polyline points="34.012,353.6488 30.012,353.6488" style="fill:none;stroke:black;stroke-width:1" />
  <polyline points="34.012,341.5502 30.012,341.5502" style="fill:none;stroke:black;stroke-width:1" />
  <polyline points="34.012,329.4516 30.012,329.4516" style="fill:none;stroke:black;stroke-width:1" />
  <polyline points="34.012,305.2544 30.012,305.2544" style="fill:none;stroke:black;stroke-width:1" />
  <polyline points="34.012,293.1558 30.012,293.1558" style="fill:none;stroke:black;stroke-width:1" />
  <polyline points="34.012,281.0571 30.012,281.0571" style="fill:none;stroke:black;stroke-width:1" />
  <polyline points="34.012,268.9585 30.012,268.9585" style="fill:none;stroke:black;stroke-width:1" />
  <polyline points="34.012,244.7613 30.012,244.7613" style="fill:none;stroke:black;stroke-width:1" />
  <polyline points="34.012,232.6627 30.012,232.6627" style="fill:none;stroke:black;stroke-width:1" />
  <polyline points="34.012,220.5641 30.012,220.5641" style="fill:none;stroke:black;stroke-width:1" />
  <polyline points="34.012,208.4655 30.012,208.4655" style="fill:none;stroke:black;stroke-width:1" />
  <polyline points="34.012,184.2683 30.012,184.2683" style="fill:none;stroke:black;stroke-width:1" />
  <polyline points="34.012,172.1697 30.012,172.1697" style="fill:none;stroke:black;stroke-width:1" />
  <polyline points="34.012,160.0711 30.012,160.0711" style="fill:none;stroke:black;stroke-width:1" />
  <polyline points="34.012,147.9725 30.012,147.9725" style="fill:none;stroke:black;stroke-width:1" />
  <polyline points="34.012,123.7753 30.012,123.7753" style="fill:none;stroke:black;stroke-width:1" />
  <polyline points="34.012,111.6767 30.012,111.6767" style="fill:none;stroke:black;stroke-width:1" />
  <polyline points="34.012,99.5781 30.012,99.5781" style="fill:none;stroke:black;stroke-width:1" />
  <polyline points="34.012,87.4795 30.012,87.4795" style="fill:none;stroke:black;stroke-width:1" />
  <polyline points="34.012,63.2823 30.012,63.2823" style="fill:none;stroke:black;stroke-width:1" />
  <polyline points="34.012,51.1837 30.012,51.1837" style="fill:none;stroke:black;stroke-width:1" />
  <polyline points="34.012,39.085 30.012,39.085" style="fill:none;stroke:black;stroke-width:1" />
  <text dominant-baseline="middle" text-anchor="end" transform="translate(23.012,317.353)" font-family="Segoe UI" font-size="12" font-weight="400" fill="black">100</text>
  <text dominant-baseline="middle" text-anchor="end" transform="translate(23.012,256.8599)" font-family="Segoe UI" font-size="12" font-weight="400" fill="black">200</text>
  <text dominant-baseline="middle" text-anchor="end" transform="translate(23.012,196.3669)" font-family="Segoe UI" font-size="12" font-weight="400" fill="black">300</text>
  <text dominant-baseline="middle" text-anchor="end" transform="translate(23.012,135.8739)" font-family="Segoe UI" font-size="12" font-weight="400" fill="black">400</text>
  <text dominant-baseline="middle" text-anchor="end" transform="translate(23.012,75.3809)" font-family="Segoe UI" font-size="12" font-weight="400" fill="black">500</text>
  <polyline points="34.012,317.353 27.012,317.353" style="fill:none;stroke:black;stroke-width:1" />
  <polyline points="34.012,256.8599 27.012,256.8599" style="fill:none;stroke:black;stroke-width:1" />
  <polyline points="34.012,196.3669 27.012,196.3669" style="fill:none;stroke:black;stroke-width:1" />
  <polyline points="34.012,135.8739 27.012,135.8739" style="fill:none;stroke:black;stroke-width:1" />
  <polyline points="34.012,75.3809 27.012,75.3809" style="fill:none;stroke:black;stroke-width:1" />
  <text dominant-baseline="hanging" text-anchor="middle" transform="translate(48.3194,381.947)" font-family="Segoe UI" font-size="12" font-weight="400" fill="black">15. August</text>
  <text dominant-baseline="hanging" text-anchor="middle" transform="translate(115.0872,381.947)" font-family="Segoe UI" font-size="12" font-weight="400" fill="black">29. August</text>
  <text dominant-baseline="hanging" text-anchor="middle" transform="translate(181.855,381.947)" font-family="Segoe UI" font-size="12" font-weight="400" fill="black">12. September</text>
  <text dominant-baseline="hanging" text-anchor="middle" transform="translate(248.6228,381.947)" font-family="Segoe UI" font-size="12" font-weight="400" fill="black">26. September</text>
  <text dominant-baseline="hanging" text-anchor="middle" transform="translate(315.3906,381.947)" font-family="Segoe UI" font-size="12" font-weight="400" fill="black">10. October</text>
  <text dominant-baseline="hanging" text-anchor="middle" transform="translate(382.1584,381.947)" font-family="Segoe UI" font-size="12" font-weight="400" fill="black">24. October</text>
  <text dominant-baseline="hanging" text-anchor="middle" transform="translate(448.9262,381.947)" font-family="Segoe UI" font-size="12" font-weight="400" fill="black">07. November</text>
  <text dominant-baseline="hanging" text-anchor="middle" transform="translate(515.6939,381.947)" font-family="Segoe UI" font-size="12" font-weight="400" fill="black">21. November</text>
  <text dominant-baseline="hanging" text-anchor="middle" transform="translate(582.4617,381.947)" font-family="Segoe UI" font-size="12" font-weight="400" fill="black">05. December</text>
  <polyline points="48.3194,370.947 48.3194,377.947" style="fill:none;stroke:black;stroke-width:1" />
  <polyline points="115.0872,370.947 115.0872,377.947" style="fill:none;stroke:black;stroke-width:1" />
  <polyline points="181.855,370.947 181.855,377.947" style="fill:none;stroke:black;stroke-width:1" />
  <polyline points="248.6228,370.947 248.6228,377.947" style="fill:none;stroke:black;stroke-width:1" />
  <polyline points="315.3906,370.947 315.3906,377.947" style="fill:none;stroke:black;stroke-width:1" />
  <polyline points="382.1584,370.947 382.1584,377.947" style="fill:none;stroke:black;stroke-width:1" />
  <polyline points="448.9262,370.947 448.9262,377.947" style="fill:none;stroke:black;stroke-width:1" />
  <polyline points="515.6939,370.947 515.6939,377.947" style="fill:none;stroke:black;stroke-width:1" />
  <polyline points="582.4617,370.947 582.4617,377.947" style="fill:none;stroke:black;stroke-width:1" />
  <polyline points="34.012,359.6981 43.5503,354.2537 57.8576,357.8833 62.6268,354.2537 67.3959,356.6734 72.165,353.6488 76.9342,354.2537 91.2415,354.8586 96.0107,359.6981 100.7798,360.303 105.5489,359.0931 110.3181,359.0931 124.6254,363.3277 129.3946,365.1425 134.1637,365.1425 138.9328,363.9326 143.7019,364.5375 158.0093,364.5375 162.7785,367.5622 167.5476,365.7474 172.3167,362.1178 177.0858,359.6981 191.3932,353.6488 196.1624,349.4143 200.9315,343.365 205.7006,342.76 210.4697,340.9452 224.7771,346.3896 229.5463,347.5995 234.3154,346.9945 239.0845,344.5748 243.8536,341.5502 258.161,327.0318 262.9302,328.8466 267.6993,329.4516 272.4684,320.3776 277.2375,311.9086 291.5449,302.2297 296.3141,310.6987 301.0832,302.8346 305.8523,294.3656 310.6214,291.9459 324.9288,273.798 329.6979,287.7114 334.4671,280.4522 339.2362,264.1191 344.0053,240.5268 358.3127,210.2803 363.0818,212.0951 367.851,208.4655 372.6201,180.6387 377.3892,175.1944 391.6966,93.5288 396.4657,115.9112 401.2349,115.9112 406.004,109.257 410.7731,72.9611 425.0805,84.4548 429.8496,144.9478 434.6188,131.6394 439.3879,114.0964 444.157,106.8372 458.4644,66.3069 463.2335,91.109 468.0027,73.5661 477.5409,39.69 491.8483,32.4308 496.6174,66.3069 501.3866,75.3809 506.1557,37.2703 510.9248,66.9118 525.2322,94.7386 530.0013,117.121 534.7705,109.257 539.5396,128.0098 544.3087,99.5781 558.6161,63.8872 563.3852,83.8499 568.1544,114.7013 572.9235,103.8126 577.6926,119.5408 592,43.9245" style="fill:none;stroke:rgb(31,119,180);stroke-width:2;stroke-linejoin:bevel" />
  <text dominant-baseline="hanging" text-anchor="middle" transform="translate(313.006,8)" font-family="Segoe UI" font-size="18" font-weight="700" fill="black">Aktive Fälle Stadt Aachen 07.12.2020</text>
  <polygon points="34.012,29.0795 592,29.0795 592,370.947 34.012,370.947" style="fill:none;stroke:black;stroke-width:1" />
  <polygon points="42.012,37.0795 228.483,37.0795 228.483,63.1325 42.012,63.1325" style="fill:none;stroke:none;" />
  <text dominant-baseline="hanging" text-anchor="start" transform="translate(70.012,45.0795)" font-family="Segoe UI" font-size="12" font-weight="400" fill="black">Aktive Fälle Stadt Aachen 07.12.2020</text>
  <polyline points="50.012,50.106 66.012,50.106" style="fill:none;stroke:rgb(31,119,180);stroke-width:2" />
</svg>