<?xml version="1.0" encoding="utf-8" standalone="no"?>
<!DOCTYPE svg PUBLIC "-//W3C//DTD SVG 1.1//EN" "http://www.w3.org/Graphics/SVG/1.1/DTD/svg11.dtd">
<svg width="600" height="400" version="1.1" xmlns:xlink="http://www.w3.org/1999/xlink" xmlns="http://www.w3.org/2000/svg">
  <rect x="0" y="0" width="600" height="400" style="fill:rgb(255,255,255);stroke:none;" />
  <polyline points="39.016,357.0495 35.016,357.0495" style="fill:none;stroke:black;stroke-width:1" />
  <polyline points="39.016,341.1212 35.016,341.1212" style="fill:none;stroke:black;stroke-width:1" />
  <polyline points="39.016,325.1929 35.016,325.1929" style="fill:none;stroke:black;stroke-width:1" />
  <polyline points="39.016,293.3363 35.016,293.3363" style="fill:none;stroke:black;stroke-width:1" />
  <polyline points="39.016,277.408 35.016,277.408" style="fill:none;stroke:black;stroke-width:1" />
  <polyline points="39.016,261.4797 35.016,261.4797" style="fill:none;stroke:black;stroke-width:1" />
  <polyline points="39.016,229.6231 35.016,229.6231" style="fill:none;stroke:black;stroke-width:1" />
  <polyline points="39.016,213.6948 35.016,213.6948" style="fill:none;stroke:black;stroke-width:1" />
  <polyline points="39.016,197.7665 35.016,197.7665" style="fill:none;stroke:black;stroke-width:1" />
  <polyline points="39.016,165.9099 35.016,165.9099" style="fill:none;stroke:black;stroke-width:1" />
  <polyline points="39.016,149.9816 35.016,149.9816" style="fill:none;stroke:black;stroke-width:1" />
  <polyline points="39.016,134.0533 35.016,134.0533" style="fill:none;stroke:black;stroke-width:1" />
  <polyline points="39.016,102.1968 35.016,102.1968" style="fill:none;stroke:black;stroke-width:1" />
  <polyline points="39.016,86.2685 35.016,86.2685" style="fill:none;stroke:black;stroke-width:1" />
  <polyline points="39.016,70.3402 35.016,70.3402" style="fill:none;stroke:black;stroke-width:1" />
  <polyline points="39.016,38.4836 35.016,38.4836" style="fill:none;stroke:black;stroke-width:1" />
  <polyline points="73.5775,370.947 73.5775,374.947" style="fill:none;stroke:black;stroke-width:1" />
  <polyline points="178.9901,370.947 178.9901,374.947" style="fill:none;stroke:black;stroke-width:1" />
  <polyline points="284.4027,370.947 284.4027,374.947" style="fill:none;stroke:black;stroke-width:1" />
  <polyline points="386.3591,370.947 386.3591,374.947" style="fill:none;stroke:black;stroke-width:1" />
  <polyline points="491.7717,370.947 491.7717,374.947" style="fill:none;stroke:black;stroke-width:1" />
  <text dominant-baseline="middle" text-anchor="end" transform="translate(28.016,309.2646)" font-family="Segoe UI" font-size="12" font-weight="400" fill="black">200</text>
  <text dominant-baseline="middle" text-anchor="end" transform="translate(28.016,245.5514)" font-family="Segoe UI" font-size="12" font-weight="400" fill="black">400</text>
  <text dominant-baseline="middle" text-anchor="end" transform="translate(28.016,181.8382)" font-family="Segoe UI" font-size="12" font-weight="400" fill="black">600</text>
  <text dominant-baseline="middle" text-anchor="end" transform="translate(28.016,118.125)" font-family="Segoe UI" font-size="12" font-weight="400" fill="black">800</text>
  <text dominant-baseline="middle" text-anchor="end" transform="translate(28.016,54.4119)" font-family="Segoe UI" font-size="12" font-weight="400" fill="black">1000</text>
  <polyline points="39.016,309.2646 32.016,309.2646" style="fill:none;stroke:black;stroke-width:1" />
  <polyline points="39.016,245.5514 32.016,245.5514" style="fill:none;stroke:black;stroke-width:1" />
  <polyline points="39.016,181.8382 32.016,181.8382" style="fill:none;stroke:black;stroke-width:1" />
  <polyline points="39.016,118.125 32.016,118.125" style="fill:none;stroke:black;stroke-width:1" />
  <polyline points="39.016,54.4119 32.016,54.4119" style="fill:none;stroke:black;stroke-width:1" />
  <text dominant-baseline="hanging" text-anchor="middle" transform="translate(125.4198,381.947)" font-family="Segoe UI" font-size="12" font-weight="400" fill="black">01. October</text>
  <text dominant-baseline="hanging" text-anchor="middle" transform="translate(230.8323,381.947)" font-family="Segoe UI" font-size="12" font-weight="400" fill="black">01. December</text>
  <text dominant-baseline="hanging" text-anchor="middle" transform="translate(337.973,381.947)" font-family="Segoe UI" font-size="12" font-weight="400" fill="black">01. February</text>
  <text dominant-baseline="hanging" text-anchor="middle" transform="translate(439.9294,381.947)" font-family="Segoe UI" font-size="12" font-weight="400" fill="black">01. April</text>
  <text dominant-baseline="hanging" text-anchor="middle" transform="translate(545.342,381.947)" font-family="Segoe UI" font-size="12" font-weight="400" fill="black">01. June</text>
  <polyline points="125.4198,370.947 125.4198,377.947" style="fill:none;stroke:black;stroke-width:1" />
  <polyline points="230.8323,370.947 230.8323,377.947" style="fill:none;stroke:black;stroke-width:1" />
  <polyline points="337.973,370.947 337.973,377.947" style="fill:none;stroke:black;stroke-width:1" />
  <polyline points="439.9294,370.947 439.9294,377.947" style="fill:none;stroke:black;stroke-width:1" />
  <polyline points="545.342,370.947 545.342,377.947" style="fill:none;stroke:black;stroke-width:1" />
  <polyline points="39.016,363.4208 42.4722,360.5537 47.6564,362.4651 49.3845,360.5537 51.1125,361.828 52.8406,360.2352 54.5687,360.5537 59.7529,360.8723 61.481,363.4208 63.2091,363.7394 64.9371,363.1023 66.6652,363.1023 71.8494,365.3322 73.5775,366.2879 75.3056,366.2879 77.0337,365.6508 78.7617,365.9693 83.946,365.9693 85.674,367.5622 87.4021,366.6065 89.1302,364.6951 90.8583,363.4208 96.0425,360.2352 97.7706,358.0052 99.4986,354.8195 101.2267,354.501 102.9548,353.5453 108.139,356.4124 109.8671,357.0495 111.5952,356.7309 113.3232,355.4567 115.0513,353.8638 120.2355,346.2183 121.9636,347.174 123.6917,347.4925 125.4198,342.714 127.1478,338.2541 132.3321,333.1571 134.0601,337.617 135.7882,333.4756 137.5163,329.0157 139.2444,327.7414 144.4286,318.1845 146.1567,325.5115 147.8847,321.6887 149.6128,313.0874 151.3409,300.6633 156.5251,284.735 158.2532,285.6907 159.9813,283.7793 161.7093,269.1253 163.4374,266.2582 168.6216,223.2518 170.3497,235.0387 172.0778,235.0387 173.8059,231.5345 175.5339,212.4206 180.7182,218.4733 182.4462,250.3299 184.1743,243.3215 185.9024,234.083 187.6305,230.2603 192.8147,208.9163 194.5428,221.9775 196.2708,212.7391 199.727,194.8994 204.9112,191.0766 206.6393,208.9163 208.3674,213.6948 210.0954,193.6252 211.8235,209.2349 217.0077,223.8889 218.7358,235.6759 220.4639,231.5345 222.192,241.4101 223.92,226.4375 229.1043,207.6421 230.8323,218.1548 232.5604,234.4016 234.2885,228.6674 236.0166,236.9501 241.2008,197.1294 242.9289,214.0134 244.6569,223.2518 246.385,207.3235 248.1131,197.1294 253.2973,165.2728 255.0254,185.3425 256.7535,192.988 258.4815,182.1568 260.2096,164.9542 265.3938,140.4247 267.1219,159.2201 268.85,175.1484 277.4904,139.469 279.2184,156.6715 280.9465,169.4142 282.6746,156.0344 289.5869,156.353 291.315,173.5555 293.043,197.7665 294.7711,203.1822 296.4992,184.7053 303.4115,220.0661 305.1396,236.313 306.8676,229.3046 308.5957,247.1443 313.7799,257.6569 315.508,276.1338 317.2361,280.9122 318.9642,279.638 320.6922,276.7709 325.8765,276.4523 329.3326,283.7793 331.0607,270.3996 332.7888,261.7983 337.973,263.0725 339.7011,277.7266 341.4291,290.4692 343.1572,284.4165 344.8853,284.4165 350.0695,295.8848 351.7976,304.1676 353.5257,299.3891 355.2537,289.8321 356.9818,280.2751 362.166,287.2836 363.8941,310.8574 365.6222,309.5832 367.3503,302.8933 369.0783,317.2288 374.2626,323.2815 375.9906,329.0157 377.7187,325.1929 379.4468,323.9186 381.1749,325.5115 386.3591,327.1043 388.0872,335.0684 389.8152,329.6528 391.5433,312.4503 393.2714,311.4946 398.4556,298.4334 400.1837,298.4334 401.9118,293.3363 403.6398,285.3722 405.3679,275.4966 410.5521,268.8067 412.2802,269.7624 414.0083,270.3996 415.7364,250.3299 417.4644,236.6316 422.6487,219.7476 424.3767,220.0661 426.1048,221.3404 427.8329,199.3594 429.561,195.218 434.7452,192.3509 436.4733,214.9691 438.2013,219.429 439.9294,211.7834 441.6575,188.5281 448.5698,174.1927 450.2979,176.7412 452.0259,153.4859 453.754,148.3888 458.9382,142.6546 460.6663,144.2475 462.3944,126.7263 464.1225,113.6651 465.8505,116.2137 471.0348,99.9668 472.7628,95.1883 474.4909,72.8887 476.219,44.5363 477.9471,32.4308 483.1313,42.3064 484.8594,49.3148 486.5874,66.1988 488.3155,77.6672 490.0436,71.2959 495.2278,109.8423 496.9559,105.701 498.684,125.7706 500.412,134.6905 502.1401,148.3888 507.3243,149.0259 509.0524,175.7855 510.7805,170.6884 514.2366,185.3425 519.4209,171.9627 521.1489,185.661 522.877,186.2982 524.6051,180.564 526.3332,185.0239 533.2455,213.3763 534.9735,232.8088 536.7016,239.8172 538.4297,234.7202 543.6139,261.4797 545.342,282.1865 547.0701,289.195 550.5262,301.9376 555.7104,310.5389 557.4385,317.8659 559.1666,328.6971 560.8947,332.5199 562.6227,337.2984 567.807,338.5727 569.535,337.617 571.2631,348.7668 572.9912,348.1297 574.7193,349.7225 579.9035,350.6782 581.6316,351.9524 583.3596,352.5896 585.0877,352.9081 586.8158,352.9081 592,354.1824" style="fill:none;stroke:rgb(31,119,180);stroke-width:2;stroke-linejoin:bevel" />
  <text dominant-baseline="hanging" text-anchor="middle" transform="translate(315.508,8)" font-family="Segoe UI" font-size="18" font-weight="700" fill="black">Aktive Fälle Stadt Aachen 28.06.2021</text>
  <polygon points="39.016,29.0795 592,29.0795 592,370.947 39.016,370.947" style="fill:none;stroke:black;stroke-width:1" />
  <polygon points="47.016,37.0795 233.487,37.0795 233.487,63.1325 47.016,63.1325" style="fill:none;stroke:none;" />
  <text dominant-baseline="hanging" text-anchor="start" transform="translate(75.016,45.0795)" font-family="Segoe UI" font-size="12" font-weight="400" fill="black">Aktive Fälle Stadt Aachen 28.06.2021</text>
  <polyline points="55.016,50.106 71.016,50.106" style="fill:none;stroke:rgb(31,119,180);stroke-width:2" />
</svg>