<?xml version="1.0" encoding="utf-8" standalone="no"?>
<!DOCTYPE svg PUBLIC "-//W3C//DTD SVG 1.1//EN" "http://www.w3.org/Graphics/SVG/1.1/DTD/svg11.dtd">
<svg width="600" height="400" version="1.1" xmlns:xlink="http://www.w3.org/1999/xlink" xmlns="http://www.w3.org/2000/svg">
  <rect x="0" y="0" width="600" height="400" style="fill:rgb(255,255,255);stroke:none;" />
  <polyline points="34.012,352.1162 30.012,352.1162" style="fill:none;stroke:black;stroke-width:1" />
  <polyline points="34.012,328.7131 30.012,328.7131" style="fill:none;stroke:black;stroke-width:1" />
  <polyline points="34.012,305.3101 30.012,305.3101" style="fill:none;stroke:black;stroke-width:1" />
  <polyline points="34.012,258.5041 30.012,258.5041" style="fill:none;stroke:black;stroke-width:1" />
  <polyline points="34.012,235.101 30.012,235.101" style="fill:none;stroke:black;stroke-width:1" />
  <polyline points="34.012,211.698 30.012,211.698" style="fill:none;stroke:black;stroke-width:1" />
  <polyline points="34.012,164.892 30.012,164.892" style="fill:none;stroke:black;stroke-width:1" />
  <polyline points="34.012,141.4889 30.012,141.4889" style="fill:none;stroke:black;stroke-width:1" />
  <polyline points="34.012,118.0859 30.012,118.0859" style="fill:none;stroke:black;stroke-width:1" />
  <polyline points="34.012,71.2798 30.012,71.2798" style="fill:none;stroke:black;stroke-width:1" />
  <polyline points="34.012,47.8768 30.012,47.8768" style="fill:none;stroke:black;stroke-width:1" />
  <text dominant-baseline="middle" text-anchor="end" transform="translate(23.012,281.9071)" font-family="Segoe UI" font-size="12" font-weight="400" fill="black">200</text>
  <text dominant-baseline="middle" text-anchor="end" transform="translate(23.012,188.295)" font-family="Segoe UI" font-size="12" font-weight="400" fill="black">400</text>
  <text dominant-baseline="middle" text-anchor="end" transform="translate(23.012,94.6829)" font-family="Segoe UI" font-size="12" font-weight="400" fill="black">600</text>
  <polyline points="34.012,281.9071 27.012,281.9071" style="fill:none;stroke:black;stroke-width:1" />
  <polyline points="34.012,188.295 27.012,188.295" style="fill:none;stroke:black;stroke-width:1" />
  <polyline points="34.012,94.6829 27.012,94.6829" style="fill:none;stroke:black;stroke-width:1" />
  <text dominant-baseline="hanging" text-anchor="middle" transform="translate(97.0615,381.947)" font-family="Segoe UI" font-size="12" font-weight="400" fill="black">01. September</text>
  <text dominant-baseline="hanging" text-anchor="middle" transform="translate(191.6357,381.947)" font-family="Segoe UI" font-size="12" font-weight="400" fill="black">01. October</text>
  <text dominant-baseline="hanging" text-anchor="middle" transform="translate(289.3624,381.947)" font-family="Segoe UI" font-size="12" font-weight="400" fill="black">01. November</text>
  <text dominant-baseline="hanging" text-anchor="middle" transform="translate(383.9367,381.947)" font-family="Segoe UI" font-size="12" font-weight="400" fill="black">01. December</text>
  <text dominant-baseline="hanging" text-anchor="middle" transform="translate(481.6634,381.947)" font-family="Segoe UI" font-size="12" font-weight="400" fill="black">01. January</text>
  <text dominant-baseline="hanging" text-anchor="middle" transform="translate(579.3901,381.947)" font-family="Segoe UI" font-size="12" font-weight="400" fill="black">01. February</text>
  <polyline points="97.0615,370.947 97.0615,377.947" style="fill:none;stroke:black;stroke-width:1" />
  <polyline points="191.6357,370.947 191.6357,377.947" style="fill:none;stroke:black;stroke-width:1" />
  <polyline points="289.3624,370.947 289.3624,377.947" style="fill:none;stroke:black;stroke-width:1" />
  <polyline points="383.9367,370.947 383.9367,377.947" style="fill:none;stroke:black;stroke-width:1" />
  <polyline points="481.6634,370.947 481.6634,377.947" style="fill:none;stroke:black;stroke-width:1" />
  <polyline points="579.3901,370.947 579.3901,377.947" style="fill:none;stroke:black;stroke-width:1" />
  <polyline points="34.012,361.4774 40.3169,357.2648 49.7744,360.0732 52.9268,357.2648 56.0793,359.1371 59.2318,356.7968 62.3843,357.2648 71.8417,357.7329 74.9942,361.4774 78.1466,361.9454 81.2991,361.0093 84.4516,361.0093 93.909,364.2857 97.0615,365.6899 100.214,365.6899 103.3664,364.7538 106.5189,365.2219 115.9763,365.2219 119.1288,367.5622 122.2813,366.158 125.4338,363.3496 128.5862,361.4774 138.0437,356.7968 141.1961,353.5204 144.3486,348.8398 147.5011,348.3717 150.6536,346.9675 160.111,351.1801 163.2635,352.1162 166.4159,351.6481 169.5684,349.7759 172.7209,347.4356 182.1783,336.2021 185.3308,337.6063 188.4833,338.0744 191.6357,331.0534 194.7882,324.5006 204.2456,317.0116 207.3981,323.5645 210.5506,317.4797 213.7031,310.9268 216.8555,309.0546 226.3129,295.0128 229.4654,305.7782 232.6179,300.1615 235.7704,287.5238 238.9228,269.2695 248.3803,245.8664 251.5327,247.2706 254.6852,244.4622 257.8377,222.9315 260.9902,218.7189 270.4476,155.5307 273.6001,172.849 276.7525,172.849 279.905,167.7003 283.0575,139.6167 292.5149,148.5098 295.6674,195.3159 298.8199,185.0186 301.9723,171.4448 305.1248,165.8281 314.5822,134.468 317.7347,153.6585 320.8872,140.0847 327.1921,113.8734 336.6496,108.2566 339.802,134.468 342.9545,141.4889 346.107,112.0011 349.2595,134.9361 358.7169,156.4669 361.8694,173.7851 365.0218,167.7003 368.1743,182.2102 371.3268,160.2113 380.7842,132.5958 383.9367,148.0418 387.0892,171.9129 390.2416,163.4878 393.3941,175.6573 402.8515,117.1498 406.004,141.957 409.1565,155.5307 412.3089,132.1277 415.4614,117.1498 424.9188,70.3437 428.0713,99.8315 431.2238,111.065 434.3763,95.1509 437.5287,69.8757 446.9862,33.835 450.1386,61.4506 453.2911,84.8536 469.0535,32.4308 472.206,57.7061 475.3584,76.4285 478.5109,56.77 491.1208,57.238 494.2733,82.5133 497.4258,118.0859 500.5782,126.0429 503.7307,98.8954 516.3406,150.8501 519.4931,174.7212 522.6456,164.4239 525.798,190.6353 535.2555,206.0813 538.4079,233.2288 541.5604,240.2497 544.7129,238.3775 547.8654,234.1649 557.3228,233.6969 563.6277,244.4622 566.7802,224.8037 569.9327,212.1661 579.3901,214.0383 582.5426,235.5691 585.6951,254.2915 588.8475,245.3984 592,245.3984" style="fill:none;stroke:rgb(31,119,180);stroke-width:2;stroke-linejoin:bevel" />
  <text dominant-baseline="hanging" text-anchor="middle" transform="translate(313.006,8)" font-family="Segoe UI" font-size="18" font-weight="700" fill="black">Aktive Fälle Stadt Aachen 05.02.2021</text>
  <polygon points="34.012,29.0795 592,29.0795 592,370.947 34.012,370.947" style="fill:none;stroke:black;stroke-width:1" />
  <polygon points="42.012,37.0795 228.483,37.0795 228.483,63.1325 42.012,63.1325" style="fill:none;stroke:none;" />
  <text dominant-baseline="hanging" text-anchor="start" transform="translate(70.012,45.0795)" font-family="Segoe UI" font-size="12" font-weight="400" fill="black">Aktive Fälle Stadt Aachen 05.02.2021</text>
  <polyline points="50.012,50.106 66.012,50.106" style="fill:none;stroke:rgb(31,119,180);stroke-width:2" />
</svg>