<?xml version="1.0" encoding="utf-8" standalone="no"?>
<!DOCTYPE svg PUBLIC "-//W3C//DTD SVG 1.1//EN" "http://www.w3.org/Graphics/SVG/1.1/DTD/svg11.dtd">
<svg width="600" height="400" version="1.1" xmlns:xlink="http://www.w3.org/1999/xlink" xmlns="http://www.w3.org/2000/svg">
  <rect x="0" y="0" width="600" height="400" style="fill:rgb(255,255,255);stroke:none;" />
  <polyline points="34.012,352.1162 30.012,352.1162" style="fill:none;stroke:black;stroke-width:1" />
  <polyline points="34.012,328.7131 30.012,328.7131" style="fill:none;stroke:black;stroke-width:1" />
  <polyline points="34.012,305.3101 30.012,305.3101" style="fill:none;stroke:black;stroke-width:1" />
  <polyline points="34.012,258.5041 30.012,258.5041" style="fill:none;stroke:black;stroke-width:1" />
  <polyline points="34.012,235.101 30.012,235.101" style="fill:none;stroke:black;stroke-width:1" />
  <polyline points="34.012,211.698 30.012,211.698" style="fill:none;stroke:black;stroke-width:1" />
  <polyline points="34.012,164.892 30.012,164.892" style="fill:none;stroke:black;stroke-width:1" />
  <polyline points="34.012,141.4889 30.012,141.4889" style="fill:none;stroke:black;stroke-width:1" />
  <polyline points="34.012,118.0859 30.012,118.0859" style="fill:none;stroke:black;stroke-width:1" />
  <polyline points="34.012,71.2798 30.012,71.2798" style="fill:none;stroke:black;stroke-width:1" />
  <polyline points="34.012,47.8768 30.012,47.8768" style="fill:none;stroke:black;stroke-width:1" />
  <text dominant-baseline="middle" text-anchor="end" transform="translate(23.012,281.9071)" font-family="Segoe UI" font-size="12" font-weight="400" fill="black">200</text>
  <text dominant-baseline="middle" text-anchor="end" transform="translate(23.012,188.295)" font-family="Segoe UI" font-size="12" font-weight="400" fill="black">400</text>
  <text dominant-baseline="middle" text-anchor="end" transform="translate(23.012,94.6829)" font-family="Segoe UI" font-size="12" font-weight="400" fill="black">600</text>
  <polyline points="34.012,281.9071 27.012,281.9071" style="fill:none;stroke:black;stroke-width:1" />
  <polyline points="34.012,188.295 27.012,188.295" style="fill:none;stroke:black;stroke-width:1" />
  <polyline points="34.012,94.6829 27.012,94.6829" style="fill:none;stroke:black;stroke-width:1" />
  <text dominant-baseline="hanging" text-anchor="middle" transform="translate(85.4395,381.947)" font-family="Segoe UI" font-size="12" font-weight="400" fill="black">01. September</text>
  <text dominant-baseline="hanging" text-anchor="middle" transform="translate(162.5807,381.947)" font-family="Segoe UI" font-size="12" font-weight="400" fill="black">01. October</text>
  <text dominant-baseline="hanging" text-anchor="middle" transform="translate(242.2932,381.947)" font-family="Segoe UI" font-size="12" font-weight="400" fill="black">01. November</text>
  <text dominant-baseline="hanging" text-anchor="middle" transform="translate(319.4344,381.947)" font-family="Segoe UI" font-size="12" font-weight="400" fill="black">01. December</text>
  <text dominant-baseline="hanging" text-anchor="middle" transform="translate(399.147,381.947)" font-family="Segoe UI" font-size="12" font-weight="400" fill="black">01. January</text>
  <text dominant-baseline="hanging" text-anchor="middle" transform="translate(478.8596,381.947)" font-family="Segoe UI" font-size="12" font-weight="400" fill="black">01. February</text>
  <text dominant-baseline="hanging" text-anchor="middle" transform="translate(550.858,381.947)" font-family="Segoe UI" font-size="12" font-weight="400" fill="black">01. March</text>
  <polyline points="85.4395,370.947 85.4395,377.947" style="fill:none;stroke:black;stroke-width:1" />
  <polyline points="162.5807,370.947 162.5807,377.947" style="fill:none;stroke:black;stroke-width:1" />
  <polyline points="242.2932,370.947 242.2932,377.947" style="fill:none;stroke:black;stroke-width:1" />
  <polyline points="319.4344,370.947 319.4344,377.947" style="fill:none;stroke:black;stroke-width:1" />
  <polyline points="399.147,370.947 399.147,377.947" style="fill:none;stroke:black;stroke-width:1" />
  <polyline points="478.8596,370.947 478.8596,377.947" style="fill:none;stroke:black;stroke-width:1" />
  <polyline points="550.858,370.947 550.858,377.947" style="fill:none;stroke:black;stroke-width:1" />
  <polyline points="34.012,361.4774 39.1547,357.2648 46.8689,360.0732 49.4402,357.2648 52.0116,359.1371 54.583,356.7968 57.1544,357.2648 64.8685,357.7329 67.4399,361.4774 70.0112,361.9454 72.5826,361.0093 75.154,361.0093 82.8681,364.2857 85.4395,365.6899 88.0108,365.6899 90.5822,364.7538 93.1536,365.2219 100.8677,365.2219 103.4391,367.5622 106.0105,366.158 108.5818,363.3496 111.1532,361.4774 118.8673,356.7968 121.4387,353.5204 124.0101,348.8398 126.5814,348.3717 129.1528,346.9675 136.8669,351.1801 139.4383,352.1162 142.0097,351.6481 144.5811,349.7759 147.1524,347.4356 154.8665,336.2021 157.4379,337.6063 160.0093,338.0744 162.5807,331.0534 165.152,324.5006 172.8662,317.0116 175.4375,323.5645 178.0089,317.4797 180.5803,310.9268 183.1516,309.0546 190.8658,295.0128 193.4371,305.7782 196.0085,300.1615 198.5799,287.5238 201.1513,269.2695 208.8654,245.8664 211.4368,247.2706 214.0081,244.4622 216.5795,222.9315 219.1509,218.7189 226.865,155.5307 229.4364,172.849 232.0077,172.849 234.5791,167.7003 237.1505,139.6167 244.8646,148.5098 247.436,195.3159 250.0074,185.0186 252.5787,171.4448 255.1501,165.8281 262.8642,134.468 265.4356,153.6585 268.007,140.0847 273.1497,113.8734 280.8638,108.2566 283.4352,134.468 286.0066,141.4889 288.578,112.0011 291.1493,134.9361 298.8634,156.4669 301.4348,173.7851 304.0062,167.7003 306.5776,182.2102 309.1489,160.2113 316.8631,132.5958 319.4344,148.0418 322.0058,171.9129 324.5772,163.4878 327.1486,175.6573 334.8627,117.1498 337.434,141.957 340.0054,155.5307 342.5768,132.1277 345.1482,117.1498 352.8623,70.3437 355.4337,99.8315 358.005,111.065 360.5764,95.1509 363.1478,69.8757 370.8619,33.835 373.4333,61.4506 376.0046,84.8536 388.8615,32.4308 391.4329,57.7061 394.0043,76.4285 396.5756,56.77 406.8611,57.238 409.4325,82.5133 412.0039,118.0859 414.5752,126.0429 417.1466,98.8954 427.4321,150.8501 430.0035,174.7212 432.5749,164.4239 435.1462,190.6353 442.8604,206.0813 445.4317,233.2288 448.0031,240.2497 450.5745,238.3775 453.1458,234.1649 460.86,233.6969 466.0027,244.4622 468.5741,224.8037 471.1455,212.1661 478.8596,214.0383 481.4309,235.5691 484.0023,254.2915 486.5737,245.3984 489.1451,245.3984 496.8592,262.2485 499.4306,274.4181 502.0019,267.3972 504.5733,253.3554 507.1447,239.3136 514.8588,249.6109 517.4302,284.2474 520.0015,282.3752 522.5729,272.5459 525.1443,293.6086 532.8584,302.5018 535.4298,310.9268 538.0012,305.3101 540.5725,303.4379 543.1439,305.7782 550.858,308.1185 553.4294,319.82 556.0008,311.863 558.5721,286.5877 561.1435,285.1835 568.8576,265.993 571.429,265.993 574.0004,258.5041 576.5718,246.8025 579.1431,232.2927 586.8573,222.4634 589.4286,223.8676 592,224.8037" style="fill:none;stroke:rgb(31,119,180);stroke-width:2;stroke-linejoin:bevel" />
  <text dominant-baseline="hanging" text-anchor="middle" transform="translate(313.006,8)" font-family="Segoe UI" font-size="18" font-weight="700" fill="black">Aktive Fälle Stadt Aachen 17.03.2021</text>
  <polygon points="34.012,29.0795 592,29.0795 592,370.947 34.012,370.947" style="fill:none;stroke:black;stroke-width:1" />
  <polygon points="42.012,37.0795 228.483,37.0795 228.483,63.1325 42.012,63.1325" style="fill:none;stroke:none;" />
  <text dominant-baseline="hanging" text-anchor="start" transform="translate(70.012,45.0795)" font-family="Segoe UI" font-size="12" font-weight="400" fill="black">Aktive Fälle Stadt Aachen 17.03.2021</text>
  <polyline points="50.012,50.106 66.012,50.106" style="fill:none;stroke:rgb(31,119,180);stroke-width:2" />
</svg>