<?xml version="1.0" encoding="utf-8" standalone="no"?>
<!DOCTYPE svg PUBLIC "-//W3C//DTD SVG 1.1//EN" "http://www.w3.org/Graphics/SVG/1.1/DTD/svg11.dtd">
<svg width="600" height="400" version="1.1" xmlns:xlink="http://www.w3.org/1999/xlink" xmlns="http://www.w3.org/2000/svg">
  <rect x="0" y="0" width="600" height="400" style="fill:rgb(255,255,255);stroke:none;" />
  <polyline points="34.012,365.3428 30.012,365.3428" style="fill:none;stroke:black;stroke-width:1" />
  <polyline points="34.012,350.5467 30.012,350.5467" style="fill:none;stroke:black;stroke-width:1" />
  <polyline points="34.012,335.7506 30.012,335.7506" style="fill:none;stroke:black;stroke-width:1" />
  <polyline points="34.012,320.9545 30.012,320.9545" style="fill:none;stroke:black;stroke-width:1" />
  <polyline points="34.012,291.3623 30.012,291.3623" style="fill:none;stroke:black;stroke-width:1" />
  <polyline points="34.012,276.5662 30.012,276.5662" style="fill:none;stroke:black;stroke-width:1" />
  <polyline points="34.012,261.7702 30.012,261.7702" style="fill:none;stroke:black;stroke-width:1" />
  <polyline points="34.012,246.9741 30.012,246.9741" style="fill:none;stroke:black;stroke-width:1" />
  <polyline points="34.012,217.3819 30.012,217.3819" style="fill:none;stroke:black;stroke-width:1" />
  <polyline points="34.012,202.5858 30.012,202.5858" style="fill:none;stroke:black;stroke-width:1" />
  <polyline points="34.012,187.7897 30.012,187.7897" style="fill:none;stroke:black;stroke-width:1" />
  <polyline points="34.012,172.9936 30.012,172.9936" style="fill:none;stroke:black;stroke-width:1" />
  <polyline points="34.012,143.4015 30.012,143.4015" style="fill:none;stroke:black;stroke-width:1" />
  <polyline points="34.012,128.6054 30.012,128.6054" style="fill:none;stroke:black;stroke-width:1" />
  <polyline points="34.012,113.8093 30.012,113.8093" style="fill:none;stroke:black;stroke-width:1" />
  <polyline points="34.012,99.0132 30.012,99.0132" style="fill:none;stroke:black;stroke-width:1" />
  <polyline points="34.012,69.421 30.012,69.421" style="fill:none;stroke:black;stroke-width:1" />
  <polyline points="34.012,54.6249 30.012,54.6249" style="fill:none;stroke:black;stroke-width:1" />
  <polyline points="34.012,39.8289 30.012,39.8289" style="fill:none;stroke:black;stroke-width:1" />
  <text dominant-baseline="middle" text-anchor="end" transform="translate(23.012,306.1584)" font-family="Segoe UI" font-size="12" font-weight="400" fill="black">100</text>
  <text dominant-baseline="middle" text-anchor="end" transform="translate(23.012,232.178)" font-family="Segoe UI" font-size="12" font-weight="400" fill="black">200</text>
  <text dominant-baseline="middle" text-anchor="end" transform="translate(23.012,158.1975)" font-family="Segoe UI" font-size="12" font-weight="400" fill="black">300</text>
  <text dominant-baseline="middle" text-anchor="end" transform="translate(23.012,84.2171)" font-family="Segoe UI" font-size="12" font-weight="400" fill="black">400</text>
  <polyline points="34.012,306.1584 27.012,306.1584" style="fill:none;stroke:black;stroke-width:1" />
  <polyline points="34.012,232.178 27.012,232.178" style="fill:none;stroke:black;stroke-width:1" />
  <polyline points="34.012,158.1975 27.012,158.1975" style="fill:none;stroke:black;stroke-width:1" />
  <polyline points="34.012,84.2171 27.012,84.2171" style="fill:none;stroke:black;stroke-width:1" />
  <text dominant-baseline="hanging" text-anchor="middle" transform="translate(55.7518,381.947)" font-family="Segoe UI" font-size="12" font-weight="400" fill="black">15. August</text>
  <text dominant-baseline="hanging" text-anchor="middle" transform="translate(157.2042,381.947)" font-family="Segoe UI" font-size="12" font-weight="400" fill="black">29. August</text>
  <text dominant-baseline="hanging" text-anchor="middle" transform="translate(258.6565,381.947)" font-family="Segoe UI" font-size="12" font-weight="400" fill="black">12. September</text>
  <text dominant-baseline="hanging" text-anchor="middle" transform="translate(360.1089,381.947)" font-family="Segoe UI" font-size="12" font-weight="400" fill="black">26. September</text>
  <text dominant-baseline="hanging" text-anchor="middle" transform="translate(461.5612,381.947)" font-family="Segoe UI" font-size="12" font-weight="400" fill="black">10. October</text>
  <text dominant-baseline="hanging" text-anchor="middle" transform="translate(563.0136,381.947)" font-family="Segoe UI" font-size="12" font-weight="400" fill="black">24. October</text>
  <polyline points="55.7518,370.947 55.7518,377.947" style="fill:none;stroke:black;stroke-width:1" />
  <polyline points="157.2042,370.947 157.2042,377.947" style="fill:none;stroke:black;stroke-width:1" />
  <polyline points="258.6565,370.947 258.6565,377.947" style="fill:none;stroke:black;stroke-width:1" />
  <polyline points="360.1089,370.947 360.1089,377.947" style="fill:none;stroke:black;stroke-width:1" />
  <polyline points="461.5612,370.947 461.5612,377.947" style="fill:none;stroke:black;stroke-width:1" />
  <polyline points="563.0136,370.947 563.0136,377.947" style="fill:none;stroke:black;stroke-width:1" />
  <polyline points="34.012,357.9447 48.5052,351.2865 70.245,355.7253 77.4916,351.2865 84.7382,354.2457 91.9848,350.5467 99.2314,351.2865 120.9712,352.0263 128.2178,357.9447 135.4644,358.6845 142.711,357.2049 149.9576,357.2049 171.6974,362.3835 178.9439,364.603 186.1905,364.603 193.4371,363.1233 200.6837,363.8632 222.4235,363.8632 229.6701,367.5622 236.9167,365.3428 244.1633,360.9039 251.4099,357.9447 273.1497,350.5467 280.3963,345.368 287.6429,337.97 294.8895,337.2302 302.1361,335.0108 323.8759,341.669 331.1225,343.1486 338.3691,342.4088 345.6157,339.4496 352.8623,335.7506 374.6021,317.9953 381.8487,320.2147 389.0953,320.9545 396.3419,309.8574 403.5885,299.5002 425.3283,287.6633 432.5749,298.0206 439.8215,288.4031 447.0681,278.0458 454.3146,275.0866 476.0544,252.8925 483.301,269.908 490.5476,261.0304 497.7942,241.0556 505.0408,212.2033 526.7806,175.213 534.0272,177.4325 541.2738,172.9936 548.5204,138.9626 555.767,132.3044 577.5068,32.4308 584.7534,59.8036 592,59.8036" style="fill:none;stroke:rgb(31,119,180);stroke-width:2;stroke-linejoin:bevel" />
  <text dominant-baseline="hanging" text-anchor="middle" transform="translate(313.006,8)" font-family="Segoe UI" font-size="18" font-weight="700" fill="black">Aktive Fälle Stadt Aachen 28.10.2020</text>
  <polygon points="34.012,29.0795 592,29.0795 592,370.947 34.012,370.947" style="fill:none;stroke:black;stroke-width:1" />
  <polygon points="42.012,37.0795 228.483,37.0795 228.483,63.1325 42.012,63.1325" style="fill:none;stroke:none;" />
  <text dominant-baseline="hanging" text-anchor="start" transform="translate(70.012,45.0795)" font-family="Segoe UI" font-size="12" font-weight="400" fill="black">Aktive Fälle Stadt Aachen 28.10.2020</text>
  <polyline points="50.012,50.106 66.012,50.106" style="fill:none;stroke:rgb(31,119,180);stroke-width:2" />
</svg>