<?xml version="1.0" encoding="utf-8" standalone="no"?>
<!DOCTYPE svg PUBLIC "-//W3C//DTD SVG 1.1//EN" "http://www.w3.org/Graphics/SVG/1.1/DTD/svg11.dtd">
<svg width="600" height="400" version="1.1" xmlns:xlink="http://www.w3.org/1999/xlink" xmlns="http://www.w3.org/2000/svg">
  <rect x="0" y="0" width="600" height="400" style="fill:rgb(255,255,255);stroke:none;" />
  <polyline points="39.016,357.0495 35.016,357.0495" style="fill:none;stroke:black;stroke-width:1" />
  <polyline points="39.016,341.1212 35.016,341.1212" style="fill:none;stroke:black;stroke-width:1" />
  <polyline points="39.016,325.1929 35.016,325.1929" style="fill:none;stroke:black;stroke-width:1" />
  <polyline points="39.016,293.3363 35.016,293.3363" style="fill:none;stroke:black;stroke-width:1" />
  <polyline points="39.016,277.408 35.016,277.408" style="fill:none;stroke:black;stroke-width:1" />
  <polyline points="39.016,261.4797 35.016,261.4797" style="fill:none;stroke:black;stroke-width:1" />
  <polyline points="39.016,229.6231 35.016,229.6231" style="fill:none;stroke:black;stroke-width:1" />
  <polyline points="39.016,213.6948 35.016,213.6948" style="fill:none;stroke:black;stroke-width:1" />
  <polyline points="39.016,197.7665 35.016,197.7665" style="fill:none;stroke:black;stroke-width:1" />
  <polyline points="39.016,165.9099 35.016,165.9099" style="fill:none;stroke:black;stroke-width:1" />
  <polyline points="39.016,149.9816 35.016,149.9816" style="fill:none;stroke:black;stroke-width:1" />
  <polyline points="39.016,134.0533 35.016,134.0533" style="fill:none;stroke:black;stroke-width:1" />
  <polyline points="39.016,102.1968 35.016,102.1968" style="fill:none;stroke:black;stroke-width:1" />
  <polyline points="39.016,86.2685 35.016,86.2685" style="fill:none;stroke:black;stroke-width:1" />
  <polyline points="39.016,70.3402 35.016,70.3402" style="fill:none;stroke:black;stroke-width:1" />
  <polyline points="39.016,38.4836 35.016,38.4836" style="fill:none;stroke:black;stroke-width:1" />
  <text dominant-baseline="middle" text-anchor="end" transform="translate(28.016,309.2646)" font-family="Segoe UI" font-size="12" font-weight="400" fill="black">200</text>
  <text dominant-baseline="middle" text-anchor="end" transform="translate(28.016,245.5514)" font-family="Segoe UI" font-size="12" font-weight="400" fill="black">400</text>
  <text dominant-baseline="middle" text-anchor="end" transform="translate(28.016,181.8382)" font-family="Segoe UI" font-size="12" font-weight="400" fill="black">600</text>
  <text dominant-baseline="middle" text-anchor="end" transform="translate(28.016,118.125)" font-family="Segoe UI" font-size="12" font-weight="400" fill="black">800</text>
  <text dominant-baseline="middle" text-anchor="end" transform="translate(28.016,54.4119)" font-family="Segoe UI" font-size="12" font-weight="400" fill="black">1000</text>
  <polyline points="39.016,309.2646 32.016,309.2646" style="fill:none;stroke:black;stroke-width:1" />
  <polyline points="39.016,245.5514 32.016,245.5514" style="fill:none;stroke:black;stroke-width:1" />
  <polyline points="39.016,181.8382 32.016,181.8382" style="fill:none;stroke:black;stroke-width:1" />
  <polyline points="39.016,118.125 32.016,118.125" style="fill:none;stroke:black;stroke-width:1" />
  <polyline points="39.016,54.4119 32.016,54.4119" style="fill:none;stroke:black;stroke-width:1" />
  <text dominant-baseline="hanging" text-anchor="middle" transform="translate(81.5532,381.947)" font-family="Segoe UI" font-size="12" font-weight="400" fill="black">01. September</text>
  <text dominant-baseline="hanging" text-anchor="middle" transform="translate(145.3591,381.947)" font-family="Segoe UI" font-size="12" font-weight="400" fill="black">01. October</text>
  <text dominant-baseline="hanging" text-anchor="middle" transform="translate(211.2918,381.947)" font-family="Segoe UI" font-size="12" font-weight="400" fill="black">01. November</text>
  <text dominant-baseline="hanging" text-anchor="middle" transform="translate(275.0976,381.947)" font-family="Segoe UI" font-size="12" font-weight="400" fill="black">01. December</text>
  <text dominant-baseline="hanging" text-anchor="middle" transform="translate(341.0303,381.947)" font-family="Segoe UI" font-size="12" font-weight="400" fill="black">01. January</text>
  <text dominant-baseline="hanging" text-anchor="middle" transform="translate(406.963,381.947)" font-family="Segoe UI" font-size="12" font-weight="400" fill="black">01. February</text>
  <text dominant-baseline="hanging" text-anchor="middle" transform="translate(466.5152,381.947)" font-family="Segoe UI" font-size="12" font-weight="400" fill="black">01. March</text>
  <text dominant-baseline="hanging" text-anchor="middle" transform="translate(532.4479,381.947)" font-family="Segoe UI" font-size="12" font-weight="400" fill="black">01. April</text>
  <polyline points="81.5532,370.947 81.5532,377.947" style="fill:none;stroke:black;stroke-width:1" />
  <polyline points="145.3591,370.947 145.3591,377.947" style="fill:none;stroke:black;stroke-width:1" />
  <polyline points="211.2918,370.947 211.2918,377.947" style="fill:none;stroke:black;stroke-width:1" />
  <polyline points="275.0976,370.947 275.0976,377.947" style="fill:none;stroke:black;stroke-width:1" />
  <polyline points="341.0303,370.947 341.0303,377.947" style="fill:none;stroke:black;stroke-width:1" />
  <polyline points="406.963,370.947 406.963,377.947" style="fill:none;stroke:black;stroke-width:1" />
  <polyline points="466.5152,370.947 466.5152,377.947" style="fill:none;stroke:black;stroke-width:1" />
  <polyline points="532.4479,370.947 532.4479,377.947" style="fill:none;stroke:black;stroke-width:1" />
  <polyline points="39.016,363.4208 43.2697,360.5537 49.6503,362.4651 51.7772,360.5537 53.904,361.828 56.0309,360.2352 58.1578,360.5537 64.5383,360.8723 66.6652,363.4208 68.7921,363.7394 70.9189,363.1023 73.0458,363.1023 79.4264,365.3322 81.5532,366.2879 83.6801,366.2879 85.807,365.6508 87.9338,365.9693 94.3144,365.9693 96.4413,367.5622 98.5681,366.6065 100.695,364.6951 102.8218,363.4208 109.2024,360.2352 111.3293,358.0052 113.4562,354.8195 115.583,354.501 117.7099,353.5453 124.0905,356.4124 126.2173,357.0495 128.3442,356.7309 130.471,355.4567 132.5979,353.8638 138.9785,346.2183 141.1054,347.174 143.2322,347.4925 145.3591,342.714 147.4859,338.2541 153.8665,333.1571 155.9934,337.617 158.1202,333.4756 160.2471,329.0157 162.374,327.7414 168.7546,318.1845 170.8814,325.5115 173.0083,321.6887 175.1351,313.0874 177.262,300.6633 183.6426,284.735 185.7694,285.6907 187.8963,283.7793 190.0232,269.1253 192.15,266.2582 198.5306,223.2518 200.6575,235.0387 202.7843,235.0387 204.9112,231.5345 207.0381,212.4206 213.4186,218.4733 215.5455,250.3299 217.6724,243.3215 219.7992,234.083 221.9261,230.2603 228.3067,208.9163 230.4335,221.9775 232.5604,212.7391 236.8141,194.8994 243.1947,191.0766 245.3216,208.9163 247.4484,213.6948 249.5753,193.6252 251.7022,209.2349 258.0827,223.8889 260.2096,235.6759 262.3365,231.5345 264.4633,241.4101 266.5902,226.4375 272.9708,207.6421 275.0976,218.1548 277.2245,234.4016 279.3514,228.6674 281.4782,236.9501 287.8588,197.1294 289.9857,214.0134 292.1125,223.2518 294.2394,207.3235 296.3662,197.1294 302.7468,165.2728 304.8737,185.3425 307.0006,192.988 309.1274,182.1568 311.2543,164.9542 317.6349,140.4247 319.7617,159.2201 321.8886,175.1484 332.5229,139.469 334.6498,156.6715 336.7766,169.4142 338.9035,156.0344 347.4109,156.353 349.5378,173.5555 351.6646,197.7665 353.7915,203.1822 355.9184,184.7053 364.4258,220.0661 366.5527,236.313 368.6795,229.3046 370.8064,247.1443 377.187,257.6569 379.3138,276.1338 381.4407,280.9122 383.5676,279.638 385.6944,276.7709 392.075,276.4523 396.3287,283.7793 398.4556,270.3996 400.5825,261.7983 406.963,263.0725 409.0899,277.7266 411.2168,290.4692 413.3436,284.4165 415.4705,284.4165 421.8511,295.8848 423.9779,304.1676 426.1048,299.3891 428.2317,289.8321 430.3585,280.2751 436.7391,287.2836 438.866,310.8574 440.9928,309.5832 443.1197,302.8933 445.2466,317.2288 451.6271,323.2815 453.754,329.0157 455.8809,325.1929 458.0077,323.9186 460.1346,325.5115 466.5152,327.1043 468.642,335.0684 470.7689,329.6528 472.8958,312.4503 475.0226,311.4946 481.4032,298.4334 483.5301,298.4334 485.6569,293.3363 487.7838,285.3722 489.9106,275.4966 496.2912,268.8067 498.4181,269.7624 500.545,270.3996 502.6718,250.3299 504.7987,236.6316 511.1793,219.7476 513.3061,220.0661 515.433,221.3404 517.5598,199.3594 519.6867,195.218 526.0673,192.3509 528.1942,214.9691 530.321,219.429 532.4479,211.7834 534.5747,188.5281 543.0822,174.1927 545.209,176.7412 547.3359,153.4859 549.4628,148.3888 555.8434,142.6546 557.9702,144.2475 560.0971,126.7263 562.2239,113.6651 564.3508,116.2137 570.7314,99.9668 572.8582,95.1883 574.9851,72.8887 577.112,44.5363 579.2388,32.4308 585.6194,42.3064 587.7463,49.3148 589.8731,66.1988 592,77.6672" style="fill:none;stroke:rgb(31,119,180);stroke-width:2;stroke-linejoin:bevel" />
  <text dominant-baseline="hanging" text-anchor="middle" transform="translate(315.508,8)" font-family="Segoe UI" font-size="18" font-weight="700" fill="black">Aktive Fälle Stadt Aachen 29.04.2021</text>
  <polygon points="39.016,29.0795 592,29.0795 592,370.947 39.016,370.947" style="fill:none;stroke:black;stroke-width:1" />
  <polygon points="47.016,37.0795 233.487,37.0795 233.487,63.1325 47.016,63.1325" style="fill:none;stroke:none;" />
  <text dominant-baseline="hanging" text-anchor="start" transform="translate(75.016,45.0795)" font-family="Segoe UI" font-size="12" font-weight="400" fill="black">Aktive Fälle Stadt Aachen 29.04.2021</text>
  <polyline points="55.016,50.106 71.016,50.106" style="fill:none;stroke:rgb(31,119,180);stroke-width:2" />
</svg>