<?xml version="1.0" encoding="utf-8" standalone="no"?>
<!DOCTYPE svg PUBLIC "-//W3C//DTD SVG 1.1//EN" "http://www.w3.org/Graphics/SVG/1.1/DTD/svg11.dtd">
<svg width="600" height="400" version="1.1" xmlns:xlink="http://www.w3.org/1999/xlink" xmlns="http://www.w3.org/2000/svg">
  <rect x="0" y="0" width="600" height="400" style="fill:rgb(255,255,255);stroke:none;" />
  <polyline points="34.012,350.1459 30.012,350.1459" style="fill:none;stroke:black;stroke-width:1" />
  <polyline points="34.012,323.7576 30.012,323.7576" style="fill:none;stroke:black;stroke-width:1" />
  <polyline points="34.012,297.3693 30.012,297.3693" style="fill:none;stroke:black;stroke-width:1" />
  <polyline points="34.012,244.5927 30.012,244.5927" style="fill:none;stroke:black;stroke-width:1" />
  <polyline points="34.012,218.2044 30.012,218.2044" style="fill:none;stroke:black;stroke-width:1" />
  <polyline points="34.012,191.8161 30.012,191.8161" style="fill:none;stroke:black;stroke-width:1" />
  <polyline points="34.012,139.0395 30.012,139.0395" style="fill:none;stroke:black;stroke-width:1" />
  <polyline points="34.012,112.6512 30.012,112.6512" style="fill:none;stroke:black;stroke-width:1" />
  <polyline points="34.012,86.2629 30.012,86.2629" style="fill:none;stroke:black;stroke-width:1" />
  <polyline points="34.012,33.4863 30.012,33.4863" style="fill:none;stroke:black;stroke-width:1" />
  <text dominant-baseline="middle" text-anchor="end" transform="translate(23.012,270.981)" font-family="Segoe UI" font-size="12" font-weight="400" fill="black">200</text>
  <text dominant-baseline="middle" text-anchor="end" transform="translate(23.012,165.4278)" font-family="Segoe UI" font-size="12" font-weight="400" fill="black">400</text>
  <text dominant-baseline="middle" text-anchor="end" transform="translate(23.012,59.8746)" font-family="Segoe UI" font-size="12" font-weight="400" fill="black">600</text>
  <polyline points="34.012,270.981 27.012,270.981" style="fill:none;stroke:black;stroke-width:1" />
  <polyline points="34.012,165.4278 27.012,165.4278" style="fill:none;stroke:black;stroke-width:1" />
  <polyline points="34.012,59.8746 27.012,59.8746" style="fill:none;stroke:black;stroke-width:1" />
  <text dominant-baseline="hanging" text-anchor="middle" transform="translate(122.5815,381.947)" font-family="Segoe UI" font-size="12" font-weight="400" fill="black">01. September</text>
  <text dominant-baseline="hanging" text-anchor="middle" transform="translate(255.4358,381.947)" font-family="Segoe UI" font-size="12" font-weight="400" fill="black">01. October</text>
  <text dominant-baseline="hanging" text-anchor="middle" transform="translate(392.7186,381.947)" font-family="Segoe UI" font-size="12" font-weight="400" fill="black">01. November</text>
  <text dominant-baseline="hanging" text-anchor="middle" transform="translate(525.5729,381.947)" font-family="Segoe UI" font-size="12" font-weight="400" fill="black">01. December</text>
  <polyline points="122.5815,370.947 122.5815,377.947" style="fill:none;stroke:black;stroke-width:1" />
  <polyline points="255.4358,370.947 255.4358,377.947" style="fill:none;stroke:black;stroke-width:1" />
  <polyline points="392.7186,370.947 392.7186,377.947" style="fill:none;stroke:black;stroke-width:1" />
  <polyline points="525.5729,370.947 525.5729,377.947" style="fill:none;stroke:black;stroke-width:1" />
  <polyline points="34.012,360.7012 42.869,355.9513 56.1544,359.1179 60.5829,355.9513 65.0113,358.0624 69.4398,355.4236 73.8683,355.9513 87.1537,356.4791 91.5822,360.7012 96.0107,361.229 100.4391,360.1735 104.8676,360.1735 118.153,363.8678 122.5815,365.4511 127.01,365.4511 131.4385,364.3956 135.867,364.9233 149.1524,364.9233 153.5809,367.5622 158.0093,365.9789 162.4378,362.8123 166.8663,360.7012 180.1517,355.4236 184.5802,351.7292 189.0087,346.4515 193.4371,345.9238 197.8656,344.3405 211.151,349.0904 215.5795,350.1459 220.008,349.6181 224.4365,347.5071 228.865,344.8682 242.1504,332.2019 246.5789,333.7852 251.0073,334.3129 255.4358,326.3964 259.8643,319.0077 273.1497,310.5635 277.5782,317.9522 282.0067,311.0912 286.4351,303.7025 290.8636,301.5914 304.149,285.7585 308.5775,297.8971 313.006,291.5639 317.4345,277.3142 321.863,256.7313 335.1484,230.343 339.5769,231.9263 344.0053,228.7597 348.4338,204.4825 352.8623,199.7326 366.1477,128.4842 370.5762,148.0116 375.0047,148.0116 379.4331,142.2061 383.8616,110.5402 397.147,120.5677 401.5755,173.3443 406.004,161.7335 410.4325,146.4283 414.861,140.0951 428.1464,104.7347 432.5749,126.3731 437.0033,111.0679 445.8603,81.513 459.1457,75.1799 463.5742,104.7347 468.0027,112.6512 472.4311,79.402 476.8596,105.2625 490.145,129.5397 494.5735,149.0671 499.002,142.2061 503.4305,158.5669 507.859,133.7619 521.1444,102.6237 525.5729,120.04 530.0013,146.956 534.4298,137.4562 538.8583,151.1781 552.1437,85.2074 556.5722,113.179 561.0007,128.4842 565.4291,102.0959 569.8576,85.2074 583.143,32.4308 587.5715,65.6801 592,78.3464" style="fill:none;stroke:rgb(31,119,180);stroke-width:2;stroke-linejoin:bevel" />
  <text dominant-baseline="hanging" text-anchor="middle" transform="translate(313.006,8)" font-family="Segoe UI" font-size="18" font-weight="700" fill="black">Aktive Fälle Stadt Aachen 16.12.2020</text>
  <polygon points="34.012,29.0795 592,29.0795 592,370.947 34.012,370.947" style="fill:none;stroke:black;stroke-width:1" />
  <polygon points="42.012,37.0795 228.483,37.0795 228.483,63.1325 42.012,63.1325" style="fill:none;stroke:none;" />
  <text dominant-baseline="hanging" text-anchor="start" transform="translate(70.012,45.0795)" font-family="Segoe UI" font-size="12" font-weight="400" fill="black">Aktive Fälle Stadt Aachen 16.12.2020</text>
  <polyline points="50.012,50.106 66.012,50.106" style="fill:none;stroke:rgb(31,119,180);stroke-width:2" />
</svg>