<?xml version="1.0" encoding="utf-8" standalone="no"?>
<!DOCTYPE svg PUBLIC "-//W3C//DTD SVG 1.1//EN" "http://www.w3.org/Graphics/SVG/1.1/DTD/svg11.dtd">
<svg width="600" height="400" version="1.1" xmlns:xlink="http://www.w3.org/1999/xlink" xmlns="http://www.w3.org/2000/svg">
  <rect x="0" y="0" width="600" height="400" style="fill:rgb(255,255,255);stroke:none;" />
  <polyline points="39.016,357.0495 35.016,357.0495" style="fill:none;stroke:black;stroke-width:1" />
  <polyline points="39.016,341.1212 35.016,341.1212" style="fill:none;stroke:black;stroke-width:1" />
  <polyline points="39.016,325.1929 35.016,325.1929" style="fill:none;stroke:black;stroke-width:1" />
  <polyline points="39.016,293.3363 35.016,293.3363" style="fill:none;stroke:black;stroke-width:1" />
  <polyline points="39.016,277.408 35.016,277.408" style="fill:none;stroke:black;stroke-width:1" />
  <polyline points="39.016,261.4797 35.016,261.4797" style="fill:none;stroke:black;stroke-width:1" />
  <polyline points="39.016,229.6231 35.016,229.6231" style="fill:none;stroke:black;stroke-width:1" />
  <polyline points="39.016,213.6948 35.016,213.6948" style="fill:none;stroke:black;stroke-width:1" />
  <polyline points="39.016,197.7665 35.016,197.7665" style="fill:none;stroke:black;stroke-width:1" />
  <polyline points="39.016,165.9099 35.016,165.9099" style="fill:none;stroke:black;stroke-width:1" />
  <polyline points="39.016,149.9816 35.016,149.9816" style="fill:none;stroke:black;stroke-width:1" />
  <polyline points="39.016,134.0533 35.016,134.0533" style="fill:none;stroke:black;stroke-width:1" />
  <polyline points="39.016,102.1968 35.016,102.1968" style="fill:none;stroke:black;stroke-width:1" />
  <polyline points="39.016,86.2685 35.016,86.2685" style="fill:none;stroke:black;stroke-width:1" />
  <polyline points="39.016,70.3402 35.016,70.3402" style="fill:none;stroke:black;stroke-width:1" />
  <polyline points="39.016,38.4836 35.016,38.4836" style="fill:none;stroke:black;stroke-width:1" />
  <polyline points="72.1288,370.947 72.1288,374.947" style="fill:none;stroke:black;stroke-width:1" />
  <polyline points="173.1229,370.947 173.1229,374.947" style="fill:none;stroke:black;stroke-width:1" />
  <polyline points="274.117,370.947 274.117,374.947" style="fill:none;stroke:black;stroke-width:1" />
  <polyline points="371.7998,370.947 371.7998,374.947" style="fill:none;stroke:black;stroke-width:1" />
  <polyline points="472.7939,370.947 472.7939,374.947" style="fill:none;stroke:black;stroke-width:1" />
  <polyline points="573.788,370.947 573.788,374.947" style="fill:none;stroke:black;stroke-width:1" />
  <text dominant-baseline="middle" text-anchor="end" transform="translate(28.016,309.2646)" font-family="Segoe UI" font-size="12" font-weight="400" fill="black">200</text>
  <text dominant-baseline="middle" text-anchor="end" transform="translate(28.016,245.5514)" font-family="Segoe UI" font-size="12" font-weight="400" fill="black">400</text>
  <text dominant-baseline="middle" text-anchor="end" transform="translate(28.016,181.8382)" font-family="Segoe UI" font-size="12" font-weight="400" fill="black">600</text>
  <text dominant-baseline="middle" text-anchor="end" transform="translate(28.016,118.125)" font-family="Segoe UI" font-size="12" font-weight="400" fill="black">800</text>
  <text dominant-baseline="middle" text-anchor="end" transform="translate(28.016,54.4119)" font-family="Segoe UI" font-size="12" font-weight="400" fill="black">1000</text>
  <polyline points="39.016,309.2646 32.016,309.2646" style="fill:none;stroke:black;stroke-width:1" />
  <polyline points="39.016,245.5514 32.016,245.5514" style="fill:none;stroke:black;stroke-width:1" />
  <polyline points="39.016,181.8382 32.016,181.8382" style="fill:none;stroke:black;stroke-width:1" />
  <polyline points="39.016,118.125 32.016,118.125" style="fill:none;stroke:black;stroke-width:1" />
  <polyline points="39.016,54.4119 32.016,54.4119" style="fill:none;stroke:black;stroke-width:1" />
  <text dominant-baseline="hanging" text-anchor="middle" transform="translate(121.798,381.947)" font-family="Segoe UI" font-size="12" font-weight="400" fill="black">01. October</text>
  <text dominant-baseline="hanging" text-anchor="middle" transform="translate(222.7921,381.947)" font-family="Segoe UI" font-size="12" font-weight="400" fill="black">01. December</text>
  <text dominant-baseline="hanging" text-anchor="middle" transform="translate(325.4418,381.947)" font-family="Segoe UI" font-size="12" font-weight="400" fill="black">01. February</text>
  <text dominant-baseline="hanging" text-anchor="middle" transform="translate(423.1246,381.947)" font-family="Segoe UI" font-size="12" font-weight="400" fill="black">01. April</text>
  <text dominant-baseline="hanging" text-anchor="middle" transform="translate(524.1187,381.947)" font-family="Segoe UI" font-size="12" font-weight="400" fill="black">01. June</text>
  <polyline points="121.798,370.947 121.798,377.947" style="fill:none;stroke:black;stroke-width:1" />
  <polyline points="222.7921,370.947 222.7921,377.947" style="fill:none;stroke:black;stroke-width:1" />
  <polyline points="325.4418,370.947 325.4418,377.947" style="fill:none;stroke:black;stroke-width:1" />
  <polyline points="423.1246,370.947 423.1246,377.947" style="fill:none;stroke:black;stroke-width:1" />
  <polyline points="524.1187,370.947 524.1187,377.947" style="fill:none;stroke:black;stroke-width:1" />
  <polyline points="39.016,363.4208 42.3273,360.5537 47.2942,362.4651 48.9498,360.5537 50.6055,361.828 52.2611,360.2352 53.9168,360.5537 58.8837,360.8723 60.5393,363.4208 62.195,363.7394 63.8506,363.1023 65.5063,363.1023 70.4732,365.3322 72.1288,366.2879 73.7845,366.2879 75.4401,365.6508 77.0957,365.9693 82.0627,365.9693 83.7183,367.5622 85.3739,366.6065 87.0296,364.6951 88.6852,363.4208 93.6521,360.2352 95.3078,358.0052 96.9634,354.8195 98.6191,354.501 100.2747,353.5453 105.2416,356.4124 106.8973,357.0495 108.5529,356.7309 110.2086,355.4567 111.8642,353.8638 116.8311,346.2183 118.4868,347.174 120.1424,347.4925 121.798,342.714 123.4537,338.2541 128.4206,333.1571 130.0762,337.617 131.7319,333.4756 133.3875,329.0157 135.0432,327.7414 140.0101,318.1845 141.6657,325.5115 143.3214,321.6887 144.977,313.0874 146.6326,300.6633 151.5996,284.735 153.2552,285.6907 154.9109,283.7793 156.5665,269.1253 158.2221,266.2582 163.1891,223.2518 164.8447,235.0387 166.5003,235.0387 168.156,231.5345 169.8116,212.4206 174.7785,218.4733 176.4342,250.3299 178.0898,243.3215 179.7455,234.083 181.4011,230.2603 186.368,208.9163 188.0237,221.9775 189.6793,212.7391 192.9906,194.8994 197.9575,191.0766 199.6131,208.9163 201.2688,213.6948 202.9244,193.6252 204.5801,209.2349 209.547,223.8889 211.2026,235.6759 212.8583,231.5345 214.5139,241.4101 216.1696,226.4375 221.1365,207.6421 222.7921,218.1548 224.4478,234.4016 226.1034,228.6674 227.759,236.9501 232.726,197.1294 234.3816,214.0134 236.0372,223.2518 237.6929,207.3235 239.3485,197.1294 244.3154,165.2728 245.9711,185.3425 247.6267,192.988 249.2824,182.1568 250.938,164.9542 255.9049,140.4247 257.5606,159.2201 259.2162,175.1484 267.4944,139.469 269.1501,156.6715 270.8057,169.4142 272.4613,156.0344 279.0839,156.353 280.7395,173.5555 282.3952,197.7665 284.0508,203.1822 285.7065,184.7053 292.329,220.0661 293.9847,236.313 295.6403,229.3046 297.296,247.1443 302.2629,257.6569 303.9185,276.1338 305.5742,280.9122 307.2298,279.638 308.8854,276.7709 313.8524,276.4523 317.1636,283.7793 318.8193,270.3996 320.4749,261.7983 325.4418,263.0725 327.0975,277.7266 328.7531,290.4692 330.4088,284.4165 332.0644,284.4165 337.0313,295.8848 338.687,304.1676 340.3426,299.3891 341.9983,289.8321 343.6539,280.2751 348.6208,287.2836 350.2765,310.8574 351.9321,309.5832 353.5877,302.8933 355.2434,317.2288 360.2103,323.2815 361.8659,329.0157 363.5216,325.1929 365.1772,323.9186 366.8329,325.5115 371.7998,327.1043 373.4554,335.0684 375.1111,329.6528 376.7667,312.4503 378.4223,311.4946 383.3893,298.4334 385.0449,298.4334 386.7006,293.3363 388.3562,285.3722 390.0118,275.4966 394.9788,268.8067 396.6344,269.7624 398.29,270.3996 399.9457,250.3299 401.6013,236.6316 406.5682,219.7476 408.2239,220.0661 409.8795,221.3404 411.5352,199.3594 413.1908,195.218 418.1577,192.3509 419.8134,214.9691 421.469,219.429 423.1246,211.7834 424.7803,188.5281 431.4029,174.1927 433.0585,176.7412 434.7141,153.4859 436.3698,148.3888 441.3367,142.6546 442.9923,144.2475 444.648,126.7263 446.3036,113.6651 447.9593,116.2137 452.9262,99.9668 454.5818,95.1883 456.2375,72.8887 457.8931,44.5363 459.5487,32.4308 464.5157,42.3064 466.1713,49.3148 467.8269,66.1988 469.4826,77.6672 471.1382,71.2959 476.1051,109.8423 477.7608,105.701 479.4164,125.7706 481.0721,134.6905 482.7277,148.3888 487.6946,149.0259 489.3503,175.7855 491.0059,170.6884 494.3172,185.3425 499.2841,171.9627 500.9398,185.661 502.5954,186.2982 504.251,180.564 505.9067,185.0239 512.5292,213.3763 514.1849,232.8088 515.8405,239.8172 517.4962,234.7202 522.4631,261.4797 524.1187,282.1865 525.7744,289.195 529.0857,301.9376 534.0526,310.5389 535.7082,317.8659 537.3639,328.6971 539.0195,332.5199 540.6751,337.2984 545.6421,338.5727 547.2977,337.617 548.9533,348.7668 550.609,348.1297 552.2646,349.7225 557.2315,350.6782 558.8872,351.9524 560.5428,352.5896 562.1985,352.9081 563.8541,352.9081 568.821,354.1824 570.4767,356.0938 572.1323,355.7752 573.788,353.5453 575.4436,354.8195 580.4105,356.0938 583.7218,355.7752 587.0331,356.4124 592,356.0938" style="fill:none;stroke:rgb(31,119,180);stroke-width:2;stroke-linejoin:bevel" />
  <text dominant-baseline="hanging" text-anchor="middle" transform="translate(315.508,8)" font-family="Segoe UI" font-size="18" font-weight="700" fill="black">Aktive Fälle Stadt Aachen 12.07.2021</text>
  <polygon points="39.016,29.0795 592,29.0795 592,370.947 39.016,370.947" style="fill:none;stroke:black;stroke-width:1" />
  <polygon points="47.016,37.0795 233.487,37.0795 233.487,63.1325 47.016,63.1325" style="fill:none;stroke:none;" />
  <text dominant-baseline="hanging" text-anchor="start" transform="translate(75.016,45.0795)" font-family="Segoe UI" font-size="12" font-weight="400" fill="black">Aktive Fälle Stadt Aachen 12.07.2021</text>
  <polyline points="55.016,50.106 71.016,50.106" style="fill:none;stroke:rgb(31,119,180);stroke-width:2" />
</svg>