<?xml version="1.0" encoding="utf-8" standalone="no"?>
<!DOCTYPE svg PUBLIC "-//W3C//DTD SVG 1.1//EN" "http://www.w3.org/Graphics/SVG/1.1/DTD/svg11.dtd">
<svg width="600" height="400" version="1.1" xmlns:xlink="http://www.w3.org/1999/xlink" xmlns="http://www.w3.org/2000/svg">
  <rect x="0" y="0" width="600" height="400" style="fill:rgb(255,255,255);stroke:none;" />
  <polyline points="34.012,352.1162 30.012,352.1162" style="fill:none;stroke:black;stroke-width:1" />
  <polyline points="34.012,328.7131 30.012,328.7131" style="fill:none;stroke:black;stroke-width:1" />
  <polyline points="34.012,305.3101 30.012,305.3101" style="fill:none;stroke:black;stroke-width:1" />
  <polyline points="34.012,258.5041 30.012,258.5041" style="fill:none;stroke:black;stroke-width:1" />
  <polyline points="34.012,235.101 30.012,235.101" style="fill:none;stroke:black;stroke-width:1" />
  <polyline points="34.012,211.698 30.012,211.698" style="fill:none;stroke:black;stroke-width:1" />
  <polyline points="34.012,164.892 30.012,164.892" style="fill:none;stroke:black;stroke-width:1" />
  <polyline points="34.012,141.4889 30.012,141.4889" style="fill:none;stroke:black;stroke-width:1" />
  <polyline points="34.012,118.0859 30.012,118.0859" style="fill:none;stroke:black;stroke-width:1" />
  <polyline points="34.012,71.2798 30.012,71.2798" style="fill:none;stroke:black;stroke-width:1" />
  <polyline points="34.012,47.8768 30.012,47.8768" style="fill:none;stroke:black;stroke-width:1" />
  <text dominant-baseline="middle" text-anchor="end" transform="translate(23.012,281.9071)" font-family="Segoe UI" font-size="12" font-weight="400" fill="black">200</text>
  <text dominant-baseline="middle" text-anchor="end" transform="translate(23.012,188.295)" font-family="Segoe UI" font-size="12" font-weight="400" fill="black">400</text>
  <text dominant-baseline="middle" text-anchor="end" transform="translate(23.012,94.6829)" font-family="Segoe UI" font-size="12" font-weight="400" fill="black">600</text>
  <polyline points="34.012,281.9071 27.012,281.9071" style="fill:none;stroke:black;stroke-width:1" />
  <polyline points="34.012,188.295 27.012,188.295" style="fill:none;stroke:black;stroke-width:1" />
  <polyline points="34.012,94.6829 27.012,94.6829" style="fill:none;stroke:black;stroke-width:1" />
  <text dominant-baseline="hanging" text-anchor="middle" transform="translate(102.8994,381.947)" font-family="Segoe UI" font-size="12" font-weight="400" fill="black">01. September</text>
  <text dominant-baseline="hanging" text-anchor="middle" transform="translate(206.2305,381.947)" font-family="Segoe UI" font-size="12" font-weight="400" fill="black">01. October</text>
  <text dominant-baseline="hanging" text-anchor="middle" transform="translate(313.006,381.947)" font-family="Segoe UI" font-size="12" font-weight="400" fill="black">01. November</text>
  <text dominant-baseline="hanging" text-anchor="middle" transform="translate(416.3371,381.947)" font-family="Segoe UI" font-size="12" font-weight="400" fill="black">01. December</text>
  <text dominant-baseline="hanging" text-anchor="middle" transform="translate(523.1126,381.947)" font-family="Segoe UI" font-size="12" font-weight="400" fill="black">01. January</text>
  <polyline points="102.8994,370.947 102.8994,377.947" style="fill:none;stroke:black;stroke-width:1" />
  <polyline points="206.2305,370.947 206.2305,377.947" style="fill:none;stroke:black;stroke-width:1" />
  <polyline points="313.006,370.947 313.006,377.947" style="fill:none;stroke:black;stroke-width:1" />
  <polyline points="416.3371,370.947 416.3371,377.947" style="fill:none;stroke:black;stroke-width:1" />
  <polyline points="523.1126,370.947 523.1126,377.947" style="fill:none;stroke:black;stroke-width:1" />
  <polyline points="34.012,361.4774 40.9007,357.2648 51.2339,360.0732 54.6782,357.2648 58.1226,359.1371 61.567,356.7968 65.0113,357.2648 75.3444,357.7329 78.7888,361.4774 82.2332,361.9454 85.6776,361.0093 89.1219,361.0093 99.455,364.2857 102.8994,365.6899 106.3438,365.6899 109.7881,364.7538 113.2325,365.2219 123.5656,365.2219 127.01,367.5622 130.4544,366.158 133.8987,363.3496 137.3431,361.4774 147.6762,356.7968 151.1206,353.5204 154.565,348.8398 158.0093,348.3717 161.4537,346.9675 171.7868,351.1801 175.2312,352.1162 178.6756,351.6481 182.1199,349.7759 185.5643,347.4356 195.8974,336.2021 199.3418,337.6063 202.7861,338.0744 206.2305,331.0534 209.6749,324.5006 220.008,317.0116 223.4524,323.5645 226.8967,317.4797 230.3411,310.9268 233.7855,309.0546 244.1186,295.0128 247.563,305.7782 251.0073,300.1615 254.4517,287.5238 257.8961,269.2695 268.2292,245.8664 271.6736,247.2706 275.1179,244.4622 278.5623,222.9315 282.0067,218.7189 292.3398,155.5307 295.7841,172.849 299.2285,172.849 302.6729,167.7003 306.1173,139.6167 316.4504,148.5098 319.8947,195.3159 323.3391,185.0186 326.7835,171.4448 330.2279,165.8281 340.561,134.468 344.0053,153.6585 347.4497,140.0847 354.3384,113.8734 364.6716,108.2566 368.1159,134.468 371.5603,141.4889 375.0047,112.0011 378.449,134.9361 388.7821,156.4669 392.2265,173.7851 395.6709,167.7003 399.1153,182.2102 402.5596,160.2113 412.8927,132.5958 416.3371,148.0418 419.7815,171.9129 423.2259,163.4878 426.6702,175.6573 437.0033,117.1498 440.4477,141.957 443.8921,155.5307 447.3364,132.1277 450.7808,117.1498 461.1139,70.3437 464.5583,99.8315 468.0027,111.065 471.447,95.1509 474.8914,69.8757 485.2245,33.835 488.6689,61.4506 492.1133,84.8536 509.3351,32.4308 512.7795,57.7061 516.2239,76.4285 519.6682,56.77 533.4457,57.238 536.8901,82.5133 540.3344,118.0859 543.7788,126.0429 547.2232,98.8954 561.0007,150.8501 564.445,174.7212 567.8894,164.4239 571.3338,190.6353 581.6669,206.0813 585.1113,233.2288 588.5556,240.2497 592,238.3775" style="fill:none;stroke:rgb(31,119,180);stroke-width:2;stroke-linejoin:bevel" />
  <text dominant-baseline="hanging" text-anchor="middle" transform="translate(313.006,8)" font-family="Segoe UI" font-size="18" font-weight="700" fill="black">Aktive Fälle Stadt Aachen 21.01.2021</text>
  <polygon points="34.012,29.0795 592,29.0795 592,370.947 34.012,370.947" style="fill:none;stroke:black;stroke-width:1" />
  <polygon points="42.012,37.0795 228.483,37.0795 228.483,63.1325 42.012,63.1325" style="fill:none;stroke:none;" />
  <text dominant-baseline="hanging" text-anchor="start" transform="translate(70.012,45.0795)" font-family="Segoe UI" font-size="12" font-weight="400" fill="black">Aktive Fälle Stadt Aachen 21.01.2021</text>
  <polyline points="50.012,50.106 66.012,50.106" style="fill:none;stroke:rgb(31,119,180);stroke-width:2" />
</svg>