<?xml version="1.0" encoding="utf-8" standalone="no"?>
<!DOCTYPE svg PUBLIC "-//W3C//DTD SVG 1.1//EN" "http://www.w3.org/Graphics/SVG/1.1/DTD/svg11.dtd">
<svg width="600" height="400" version="1.1" xmlns:xlink="http://www.w3.org/1999/xlink" xmlns="http://www.w3.org/2000/svg">
  <rect x="0" y="0" width="600" height="400" style="fill:rgb(255,255,255);stroke:none;" />
  <polyline points="39.016,357.0495 35.016,357.0495" style="fill:none;stroke:black;stroke-width:1" />
  <polyline points="39.016,341.1212 35.016,341.1212" style="fill:none;stroke:black;stroke-width:1" />
  <polyline points="39.016,325.1929 35.016,325.1929" style="fill:none;stroke:black;stroke-width:1" />
  <polyline points="39.016,293.3363 35.016,293.3363" style="fill:none;stroke:black;stroke-width:1" />
  <polyline points="39.016,277.408 35.016,277.408" style="fill:none;stroke:black;stroke-width:1" />
  <polyline points="39.016,261.4797 35.016,261.4797" style="fill:none;stroke:black;stroke-width:1" />
  <polyline points="39.016,229.6231 35.016,229.6231" style="fill:none;stroke:black;stroke-width:1" />
  <polyline points="39.016,213.6948 35.016,213.6948" style="fill:none;stroke:black;stroke-width:1" />
  <polyline points="39.016,197.7665 35.016,197.7665" style="fill:none;stroke:black;stroke-width:1" />
  <polyline points="39.016,165.9099 35.016,165.9099" style="fill:none;stroke:black;stroke-width:1" />
  <polyline points="39.016,149.9816 35.016,149.9816" style="fill:none;stroke:black;stroke-width:1" />
  <polyline points="39.016,134.0533 35.016,134.0533" style="fill:none;stroke:black;stroke-width:1" />
  <polyline points="39.016,102.1968 35.016,102.1968" style="fill:none;stroke:black;stroke-width:1" />
  <polyline points="39.016,86.2685 35.016,86.2685" style="fill:none;stroke:black;stroke-width:1" />
  <polyline points="39.016,70.3402 35.016,70.3402" style="fill:none;stroke:black;stroke-width:1" />
  <polyline points="39.016,38.4836 35.016,38.4836" style="fill:none;stroke:black;stroke-width:1" />
  <polyline points="69.3997,370.947 69.3997,374.947" style="fill:none;stroke:black;stroke-width:1" />
  <polyline points="162.0701,370.947 162.0701,374.947" style="fill:none;stroke:black;stroke-width:1" />
  <polyline points="254.7405,370.947 254.7405,374.947" style="fill:none;stroke:black;stroke-width:1" />
  <polyline points="344.3725,370.947 344.3725,374.947" style="fill:none;stroke:black;stroke-width:1" />
  <polyline points="437.0429,370.947 437.0429,374.947" style="fill:none;stroke:black;stroke-width:1" />
  <polyline points="529.7133,370.947 529.7133,374.947" style="fill:none;stroke:black;stroke-width:1" />
  <text dominant-baseline="middle" text-anchor="end" transform="translate(28.016,309.2646)" font-family="Segoe UI" font-size="12" font-weight="400" fill="black">200</text>
  <text dominant-baseline="middle" text-anchor="end" transform="translate(28.016,245.5514)" font-family="Segoe UI" font-size="12" font-weight="400" fill="black">400</text>
  <text dominant-baseline="middle" text-anchor="end" transform="translate(28.016,181.8382)" font-family="Segoe UI" font-size="12" font-weight="400" fill="black">600</text>
  <text dominant-baseline="middle" text-anchor="end" transform="translate(28.016,118.125)" font-family="Segoe UI" font-size="12" font-weight="400" fill="black">800</text>
  <text dominant-baseline="middle" text-anchor="end" transform="translate(28.016,54.4119)" font-family="Segoe UI" font-size="12" font-weight="400" fill="black">1000</text>
  <polyline points="39.016,309.2646 32.016,309.2646" style="fill:none;stroke:black;stroke-width:1" />
  <polyline points="39.016,245.5514 32.016,245.5514" style="fill:none;stroke:black;stroke-width:1" />
  <polyline points="39.016,181.8382 32.016,181.8382" style="fill:none;stroke:black;stroke-width:1" />
  <polyline points="39.016,118.125 32.016,118.125" style="fill:none;stroke:black;stroke-width:1" />
  <polyline points="39.016,54.4119 32.016,54.4119" style="fill:none;stroke:black;stroke-width:1" />
  <text dominant-baseline="hanging" text-anchor="middle" transform="translate(114.9753,381.947)" font-family="Segoe UI" font-size="12" font-weight="400" fill="black">01. October</text>
  <text dominant-baseline="hanging" text-anchor="middle" transform="translate(207.6457,381.947)" font-family="Segoe UI" font-size="12" font-weight="400" fill="black">01. December</text>
  <text dominant-baseline="hanging" text-anchor="middle" transform="translate(301.8353,381.947)" font-family="Segoe UI" font-size="12" font-weight="400" fill="black">01. February</text>
  <text dominant-baseline="hanging" text-anchor="middle" transform="translate(391.4673,381.947)" font-family="Segoe UI" font-size="12" font-weight="400" fill="black">01. April</text>
  <text dominant-baseline="hanging" text-anchor="middle" transform="translate(484.1377,381.947)" font-family="Segoe UI" font-size="12" font-weight="400" fill="black">01. June</text>
  <text dominant-baseline="hanging" text-anchor="middle" transform="translate(576.8081,381.947)" font-family="Segoe UI" font-size="12" font-weight="400" fill="black">01. August</text>
  <polyline points="114.9753,370.947 114.9753,377.947" style="fill:none;stroke:black;stroke-width:1" />
  <polyline points="207.6457,370.947 207.6457,377.947" style="fill:none;stroke:black;stroke-width:1" />
  <polyline points="301.8353,370.947 301.8353,377.947" style="fill:none;stroke:black;stroke-width:1" />
  <polyline points="391.4673,370.947 391.4673,377.947" style="fill:none;stroke:black;stroke-width:1" />
  <polyline points="484.1377,370.947 484.1377,377.947" style="fill:none;stroke:black;stroke-width:1" />
  <polyline points="576.8081,370.947 576.8081,377.947" style="fill:none;stroke:black;stroke-width:1" />
  <polyline points="39.016,363.4208 42.0544,360.5537 46.6119,362.4651 48.1311,360.5537 49.6503,361.828 51.1695,360.2352 52.6887,360.5537 57.2462,360.8723 58.7654,363.4208 60.2846,363.7394 61.8038,363.1023 63.323,363.1023 67.8805,365.3322 69.3997,366.2879 70.9189,366.2879 72.4381,365.6508 73.9573,365.9693 78.5149,365.9693 80.034,367.5622 81.5532,366.6065 83.0724,364.6951 84.5916,363.4208 89.1492,360.2352 90.6684,358.0052 92.1875,354.8195 93.7067,354.501 95.2259,353.5453 99.7835,356.4124 101.3027,357.0495 102.8218,356.7309 104.341,355.4567 105.8602,353.8638 110.4178,346.2183 111.937,347.174 113.4562,347.4925 114.9753,342.714 116.4945,338.2541 121.0521,333.1571 122.5713,337.617 124.0905,333.4756 125.6096,329.0157 127.1288,327.7414 131.6864,318.1845 133.2056,325.5115 134.7248,321.6887 136.244,313.0874 137.7631,300.6633 142.3207,284.735 143.8399,285.6907 145.3591,283.7793 146.8783,269.1253 148.3975,266.2582 152.955,223.2518 154.4742,235.0387 155.9934,235.0387 157.5126,231.5345 159.0318,212.4206 163.5893,218.4733 165.1085,250.3299 166.6277,243.3215 168.1469,234.083 169.6661,230.2603 174.2236,208.9163 175.7428,221.9775 177.262,212.7391 180.3004,194.8994 184.8579,191.0766 186.3771,208.9163 187.8963,213.6948 189.4155,193.6252 190.9347,209.2349 195.4922,223.8889 197.0114,235.6759 198.5306,231.5345 200.0498,241.4101 201.569,226.4375 206.1265,207.6421 207.6457,218.1548 209.1649,234.4016 210.6841,228.6674 212.2033,236.9501 216.7609,197.1294 218.28,214.0134 219.7992,223.2518 221.3184,207.3235 222.8376,197.1294 227.3952,165.2728 228.9144,185.3425 230.4335,192.988 231.9527,182.1568 233.4719,164.9542 238.0295,140.4247 239.5487,159.2201 241.0678,175.1484 248.6638,139.469 250.183,156.6715 251.7022,169.4142 253.2213,156.0344 259.2981,156.353 260.8173,173.5555 262.3365,197.7665 263.8556,203.1822 265.3748,184.7053 271.4516,220.0661 272.9708,236.313 274.49,229.3046 276.0091,247.1443 280.5667,257.6569 282.0859,276.1338 283.6051,280.9122 285.1243,279.638 286.6435,276.7709 291.201,276.4523 294.2394,283.7793 295.7586,270.3996 297.2778,261.7983 301.8353,263.0725 303.3545,277.7266 304.8737,290.4692 306.3929,284.4165 307.9121,284.4165 312.4696,295.8848 313.9888,304.1676 315.508,299.3891 317.0272,289.8321 318.5464,280.2751 323.1039,287.2836 324.6231,310.8574 326.1423,309.5832 327.6615,302.8933 329.1807,317.2288 333.7382,323.2815 335.2574,329.0157 336.7766,325.1929 338.2958,323.9186 339.815,325.5115 344.3725,327.1043 345.8917,335.0684 347.4109,329.6528 348.9301,312.4503 350.4493,311.4946 355.0069,298.4334 356.526,298.4334 358.0452,293.3363 359.5644,285.3722 361.0836,275.4966 365.6412,268.8067 367.1604,269.7624 368.6795,270.3996 370.1987,250.3299 371.7179,236.6316 376.2755,219.7476 377.7947,220.0661 379.3138,221.3404 380.833,199.3594 382.3522,195.218 386.9098,192.3509 388.429,214.9691 389.9482,219.429 391.4673,211.7834 392.9865,188.5281 399.0633,174.1927 400.5825,176.7412 402.1016,153.4859 403.6208,148.3888 408.1784,142.6546 409.6976,144.2475 411.2168,126.7263 412.736,113.6651 414.2551,116.2137 418.8127,99.9668 420.3319,95.1883 421.8511,72.8887 423.3703,44.5363 424.8895,32.4308 429.447,42.3064 430.9662,49.3148 432.4854,66.1988 434.0046,77.6672 435.5238,71.2959 440.0813,109.8423 441.6005,105.701 443.1197,125.7706 444.6389,134.6905 446.1581,148.3888 450.7156,149.0259 452.2348,175.7855 453.754,170.6884 456.7924,185.3425 461.3499,171.9627 462.8691,185.661 464.3883,186.2982 465.9075,180.564 467.4267,185.0239 473.5034,213.3763 475.0226,232.8088 476.5418,239.8172 478.061,234.7202 482.6185,261.4797 484.1377,282.1865 485.6569,289.195 488.6953,301.9376 493.2529,310.5389 494.772,317.8659 496.2912,328.6971 497.8104,332.5199 499.3296,337.2984 503.8872,338.5727 505.4064,337.617 506.9255,348.7668 508.4447,348.1297 509.9639,349.7225 514.5215,350.6782 516.0407,351.9524 517.5598,352.5896 519.079,352.9081 520.5982,352.9081 525.1558,354.1824 526.675,356.0938 528.1942,355.7752 529.7133,353.5453 531.2325,354.8195 535.7901,356.0938 538.8285,355.7752 541.8668,356.4124 546.4244,356.0938 549.4628,355.1381 552.5011,348.7668 560.0971,338.5727 563.1355,326.7857 570.7314,324.5558 573.7698,318.1845 581.3657,325.83 584.4041,322.6444 592,308.3089" style="fill:none;stroke:rgb(31,119,180);stroke-width:2;stroke-linejoin:bevel" />
  <text dominant-baseline="hanging" text-anchor="middle" transform="translate(315.508,8)" font-family="Segoe UI" font-size="18" font-weight="700" fill="black">Aktive Fälle Stadt Aachen 11.08.2021</text>
  <polygon points="39.016,29.0795 592,29.0795 592,370.947 39.016,370.947" style="fill:none;stroke:black;stroke-width:1" />
  <polygon points="47.016,37.0795 233.487,37.0795 233.487,63.1325 47.016,63.1325" style="fill:none;stroke:none;" />
  <text dominant-baseline="hanging" text-anchor="start" transform="translate(75.016,45.0795)" font-family="Segoe UI" font-size="12" font-weight="400" fill="black">Aktive Fälle Stadt Aachen 11.08.2021</text>
  <polyline points="55.016,50.106 71.016,50.106" style="fill:none;stroke:rgb(31,119,180);stroke-width:2" />
</svg>