<?xml version="1.0" encoding="utf-8" standalone="no"?>
<!DOCTYPE svg PUBLIC "-//W3C//DTD SVG 1.1//EN" "http://www.w3.org/Graphics/SVG/1.1/DTD/svg11.dtd">
<svg width="600" height="400" version="1.1" xmlns:xlink="http://www.w3.org/1999/xlink" xmlns="http://www.w3.org/2000/svg">
  <rect x="0" y="0" width="600" height="400" style="fill:rgb(255,255,255);stroke:none;" />
  <polyline points="34.012,352.1162 30.012,352.1162" style="fill:none;stroke:black;stroke-width:1" />
  <polyline points="34.012,328.7131 30.012,328.7131" style="fill:none;stroke:black;stroke-width:1" />
  <polyline points="34.012,305.3101 30.012,305.3101" style="fill:none;stroke:black;stroke-width:1" />
  <polyline points="34.012,258.5041 30.012,258.5041" style="fill:none;stroke:black;stroke-width:1" />
  <polyline points="34.012,235.101 30.012,235.101" style="fill:none;stroke:black;stroke-width:1" />
  <polyline points="34.012,211.698 30.012,211.698" style="fill:none;stroke:black;stroke-width:1" />
  <polyline points="34.012,164.892 30.012,164.892" style="fill:none;stroke:black;stroke-width:1" />
  <polyline points="34.012,141.4889 30.012,141.4889" style="fill:none;stroke:black;stroke-width:1" />
  <polyline points="34.012,118.0859 30.012,118.0859" style="fill:none;stroke:black;stroke-width:1" />
  <polyline points="34.012,71.2798 30.012,71.2798" style="fill:none;stroke:black;stroke-width:1" />
  <polyline points="34.012,47.8768 30.012,47.8768" style="fill:none;stroke:black;stroke-width:1" />
  <text dominant-baseline="middle" text-anchor="end" transform="translate(23.012,281.9071)" font-family="Segoe UI" font-size="12" font-weight="400" fill="black">200</text>
  <text dominant-baseline="middle" text-anchor="end" transform="translate(23.012,188.295)" font-family="Segoe UI" font-size="12" font-weight="400" fill="black">400</text>
  <text dominant-baseline="middle" text-anchor="end" transform="translate(23.012,94.6829)" font-family="Segoe UI" font-size="12" font-weight="400" fill="black">600</text>
  <polyline points="34.012,281.9071 27.012,281.9071" style="fill:none;stroke:black;stroke-width:1" />
  <polyline points="34.012,188.295 27.012,188.295" style="fill:none;stroke:black;stroke-width:1" />
  <polyline points="34.012,94.6829 27.012,94.6829" style="fill:none;stroke:black;stroke-width:1" />
  <text dominant-baseline="hanging" text-anchor="middle" transform="translate(106.478,381.947)" font-family="Segoe UI" font-size="12" font-weight="400" fill="black">01. September</text>
  <text dominant-baseline="hanging" text-anchor="middle" transform="translate(215.1769,381.947)" font-family="Segoe UI" font-size="12" font-weight="400" fill="black">01. October</text>
  <text dominant-baseline="hanging" text-anchor="middle" transform="translate(327.4992,381.947)" font-family="Segoe UI" font-size="12" font-weight="400" fill="black">01. November</text>
  <text dominant-baseline="hanging" text-anchor="middle" transform="translate(436.1982,381.947)" font-family="Segoe UI" font-size="12" font-weight="400" fill="black">01. December</text>
  <text dominant-baseline="hanging" text-anchor="middle" transform="translate(548.5204,381.947)" font-family="Segoe UI" font-size="12" font-weight="400" fill="black">01. January</text>
  <polyline points="106.478,370.947 106.478,377.947" style="fill:none;stroke:black;stroke-width:1" />
  <polyline points="215.1769,370.947 215.1769,377.947" style="fill:none;stroke:black;stroke-width:1" />
  <polyline points="327.4992,370.947 327.4992,377.947" style="fill:none;stroke:black;stroke-width:1" />
  <polyline points="436.1982,370.947 436.1982,377.947" style="fill:none;stroke:black;stroke-width:1" />
  <polyline points="548.5204,370.947 548.5204,377.947" style="fill:none;stroke:black;stroke-width:1" />
  <polyline points="34.012,361.4774 41.2586,357.2648 52.1285,360.0732 55.7518,357.2648 59.3751,359.1371 62.9984,356.7968 66.6217,357.2648 77.4916,357.7329 81.1149,361.4774 84.7382,361.9454 88.3615,361.0093 91.9848,361.0093 102.8547,364.2857 106.478,365.6899 110.1013,365.6899 113.7246,364.7538 117.3479,365.2219 128.2178,365.2219 131.8411,367.5622 135.4644,366.158 139.0877,363.3496 142.711,361.4774 153.5809,356.7968 157.2042,353.5204 160.8275,348.8398 164.4508,348.3717 168.0741,346.9675 178.9439,351.1801 182.5672,352.1162 186.1905,351.6481 189.8138,349.7759 193.4371,347.4356 204.307,336.2021 207.9303,337.6063 211.5536,338.0744 215.1769,331.0534 218.8002,324.5006 229.6701,317.0116 233.2934,323.5645 236.9167,317.4797 240.54,310.9268 244.1633,309.0546 255.0332,295.0128 258.6565,305.7782 262.2798,300.1615 265.9031,287.5238 269.5264,269.2695 280.3963,245.8664 284.0196,247.2706 287.6429,244.4622 291.2662,222.9315 294.8895,218.7189 305.7594,155.5307 309.3827,172.849 313.006,172.849 316.6293,167.7003 320.2526,139.6167 331.1225,148.5098 334.7458,195.3159 338.3691,185.0186 341.9924,171.4448 345.6157,165.8281 356.4856,134.468 360.1089,153.6585 363.7322,140.0847 370.9788,113.8734 381.8487,108.2566 385.472,134.468 389.0953,141.4889 392.7186,112.0011 396.3419,134.9361 407.2118,156.4669 410.8351,173.7851 414.4584,167.7003 418.0817,182.2102 421.705,160.2113 432.5749,132.5958 436.1982,148.0418 439.8215,171.9129 443.4448,163.4878 447.0681,175.6573 457.9379,117.1498 461.5612,141.957 465.1845,155.5307 468.8078,132.1277 472.4311,117.1498 483.301,70.3437 486.9243,99.8315 490.5476,111.065 494.1709,95.1509 497.7942,69.8757 508.6641,33.835 512.2874,61.4506 515.9107,84.8536 534.0272,32.4308 537.6505,57.7061 541.2738,76.4285 544.8971,56.77 559.3903,57.238 563.0136,82.5133 566.6369,118.0859 570.2602,126.0429 573.8835,98.8954 584.7534,112.0011 588.3767,150.8501 592,174.7212" style="fill:none;stroke:rgb(31,119,180);stroke-width:2;stroke-linejoin:bevel" />
  <text dominant-baseline="hanging" text-anchor="middle" transform="translate(313.006,8)" font-family="Segoe UI" font-size="18" font-weight="700" fill="black">Aktive Fälle Stadt Aachen 13.01.2021</text>
  <polygon points="34.012,29.0795 592,29.0795 592,370.947 34.012,370.947" style="fill:none;stroke:black;stroke-width:1" />
  <polygon points="42.012,37.0795 228.483,37.0795 228.483,63.1325 42.012,63.1325" style="fill:none;stroke:none;" />
  <text dominant-baseline="hanging" text-anchor="start" transform="translate(70.012,45.0795)" font-family="Segoe UI" font-size="12" font-weight="400" fill="black">Aktive Fälle Stadt Aachen 13.01.2021</text>
  <polyline points="50.012,50.106 66.012,50.106" style="fill:none;stroke:rgb(31,119,180);stroke-width:2" />
</svg>