<?xml version="1.0" encoding="utf-8" standalone="no"?>
<!DOCTYPE svg PUBLIC "-//W3C//DTD SVG 1.1//EN" "http://www.w3.org/Graphics/SVG/1.1/DTD/svg11.dtd">
<svg width="600" height="400" version="1.1" xmlns:xlink="http://www.w3.org/1999/xlink" xmlns="http://www.w3.org/2000/svg">
  <rect x="0" y="0" width="600" height="400" style="fill:rgb(255,255,255);stroke:none;" />
  <polyline points="39.016,357.0495 35.016,357.0495" style="fill:none;stroke:black;stroke-width:1" />
  <polyline points="39.016,341.1212 35.016,341.1212" style="fill:none;stroke:black;stroke-width:1" />
  <polyline points="39.016,325.1929 35.016,325.1929" style="fill:none;stroke:black;stroke-width:1" />
  <polyline points="39.016,293.3363 35.016,293.3363" style="fill:none;stroke:black;stroke-width:1" />
  <polyline points="39.016,277.408 35.016,277.408" style="fill:none;stroke:black;stroke-width:1" />
  <polyline points="39.016,261.4797 35.016,261.4797" style="fill:none;stroke:black;stroke-width:1" />
  <polyline points="39.016,229.6231 35.016,229.6231" style="fill:none;stroke:black;stroke-width:1" />
  <polyline points="39.016,213.6948 35.016,213.6948" style="fill:none;stroke:black;stroke-width:1" />
  <polyline points="39.016,197.7665 35.016,197.7665" style="fill:none;stroke:black;stroke-width:1" />
  <polyline points="39.016,165.9099 35.016,165.9099" style="fill:none;stroke:black;stroke-width:1" />
  <polyline points="39.016,149.9816 35.016,149.9816" style="fill:none;stroke:black;stroke-width:1" />
  <polyline points="39.016,134.0533 35.016,134.0533" style="fill:none;stroke:black;stroke-width:1" />
  <polyline points="39.016,102.1968 35.016,102.1968" style="fill:none;stroke:black;stroke-width:1" />
  <polyline points="39.016,86.2685 35.016,86.2685" style="fill:none;stroke:black;stroke-width:1" />
  <polyline points="39.016,70.3402 35.016,70.3402" style="fill:none;stroke:black;stroke-width:1" />
  <polyline points="39.016,38.4836 35.016,38.4836" style="fill:none;stroke:black;stroke-width:1" />
  <text dominant-baseline="middle" text-anchor="end" transform="translate(28.016,309.2646)" font-family="Segoe UI" font-size="12" font-weight="400" fill="black">200</text>
  <text dominant-baseline="middle" text-anchor="end" transform="translate(28.016,245.5514)" font-family="Segoe UI" font-size="12" font-weight="400" fill="black">400</text>
  <text dominant-baseline="middle" text-anchor="end" transform="translate(28.016,181.8382)" font-family="Segoe UI" font-size="12" font-weight="400" fill="black">600</text>
  <text dominant-baseline="middle" text-anchor="end" transform="translate(28.016,118.125)" font-family="Segoe UI" font-size="12" font-weight="400" fill="black">800</text>
  <text dominant-baseline="middle" text-anchor="end" transform="translate(28.016,54.4119)" font-family="Segoe UI" font-size="12" font-weight="400" fill="black">1000</text>
  <polyline points="39.016,309.2646 32.016,309.2646" style="fill:none;stroke:black;stroke-width:1" />
  <polyline points="39.016,245.5514 32.016,245.5514" style="fill:none;stroke:black;stroke-width:1" />
  <polyline points="39.016,181.8382 32.016,181.8382" style="fill:none;stroke:black;stroke-width:1" />
  <polyline points="39.016,118.125 32.016,118.125" style="fill:none;stroke:black;stroke-width:1" />
  <polyline points="39.016,54.4119 32.016,54.4119" style="fill:none;stroke:black;stroke-width:1" />
  <text dominant-baseline="hanging" text-anchor="middle" transform="translate(253.5617,381.947)" font-family="Segoe UI" font-size="12" font-weight="400" fill="black">01. January</text>
  <polyline points="253.5617,370.947 253.5617,377.947" style="fill:none;stroke:black;stroke-width:1" />
  <polyline points="39.016,363.4208 42.0378,360.5537 46.5704,362.4651 48.0813,360.5537 49.5922,361.828 51.1031,360.2352 52.614,360.5537 57.1466,360.8723 58.6575,363.4208 60.1684,363.7394 61.6793,363.1023 63.1902,363.1023 67.7228,365.3322 69.2337,366.2879 70.7446,366.2879 72.2555,365.6508 73.7664,365.9693 78.299,365.9693 79.8099,367.5622 81.3208,366.6065 82.8317,364.6951 84.3426,363.4208 88.8752,360.2352 90.3861,358.0052 91.897,354.8195 93.4079,354.501 94.9188,353.5453 99.4514,356.4124 100.9623,357.0495 102.4732,356.7309 103.9841,355.4567 105.495,353.8638 110.0276,346.2183 111.5385,347.174 113.0494,347.4925 114.5603,342.714 116.0711,338.2541 120.6038,333.1571 122.1147,337.617 123.6256,333.4756 125.1365,329.0157 126.6473,327.7414 131.18,318.1845 132.6909,325.5115 134.2018,321.6887 135.7127,313.0874 137.2235,300.6633 141.7562,284.735 143.2671,285.6907 144.778,283.7793 146.2889,269.1253 147.7997,266.2582 152.3324,223.2518 153.8433,235.0387 155.3542,235.0387 156.865,231.5345 158.3759,212.4206 162.9086,218.4733 164.4195,250.3299 165.9304,243.3215 167.4412,234.083 168.9521,230.2603 173.4848,208.9163 174.9957,221.9775 176.5066,212.7391 179.5283,194.8994 184.061,191.0766 185.5719,208.9163 187.0828,213.6948 188.5936,193.6252 190.1045,209.2349 194.6372,223.8889 196.1481,235.6759 197.659,231.5345 199.1698,241.4101 200.6807,226.4375 205.2134,207.6421 206.7243,218.1548 208.2351,234.4016 209.746,228.6674 211.2569,236.9501 215.7896,197.1294 217.3005,214.0134 218.8113,223.2518 220.3222,207.3235 221.8331,197.1294 226.3658,165.2728 227.8767,185.3425 229.3875,192.988 230.8984,182.1568 232.4093,164.9542 236.942,140.4247 238.4529,159.2201 239.9637,175.1484 247.5182,139.469 249.029,156.6715 250.5399,169.4142 252.0508,156.0344 258.0944,156.353 259.6052,173.5555 261.1161,197.7665 262.627,203.1822 264.1379,184.7053 270.1814,220.0661 271.6923,236.313 273.2032,229.3046 274.7141,247.1443 279.2468,257.6569 280.7576,276.1338 282.2685,280.9122 283.7794,279.638 285.2903,276.7709 289.823,276.4523 292.8447,283.7793 294.3556,270.3996 295.8665,261.7983 300.3991,263.0725 301.91,277.7266 303.4209,290.4692 304.9318,284.4165 306.4427,284.4165 310.9753,295.8848 312.4862,304.1676 313.9971,299.3891 315.508,289.8321 317.0189,280.2751 321.5515,287.2836 323.0624,310.8574 324.5733,309.5832 326.0842,302.8933 327.5951,317.2288 332.1277,323.2815 333.6386,329.0157 335.1495,325.1929 336.6604,323.9186 338.1713,325.5115 342.7039,327.1043 344.2148,335.0684 345.7257,329.6528 347.2366,312.4503 348.7475,311.4946 353.2801,298.4334 354.791,298.4334 356.3019,293.3363 357.8128,285.3722 359.3237,275.4966 363.8563,268.8067 365.3672,269.7624 366.8781,270.3996 368.389,250.3299 369.8999,236.6316 374.4325,219.7476 375.9434,220.0661 377.4543,221.3404 378.9652,199.3594 380.4761,195.218 385.0087,192.3509 386.5196,214.9691 388.0305,219.429 389.5414,211.7834 391.0523,188.5281 397.0958,174.1927 398.6067,176.7412 400.1176,153.4859 401.6285,148.3888 406.1611,142.6546 407.672,144.2475 409.1829,126.7263 410.6938,113.6651 412.2047,116.2137 416.7373,99.9668 418.2482,95.1883 419.7591,72.8887 421.27,44.5363 422.7809,32.4308 427.3135,42.3064 428.8244,49.3148 430.3353,66.1988 431.8462,77.6672 433.357,71.2959 437.8897,109.8423 439.4006,105.701 440.9115,125.7706 442.4224,134.6905 443.9332,148.3888 448.4659,149.0259 449.9768,175.7855 451.4877,170.6884 454.5094,185.3425 459.0421,171.9627 460.553,185.661 462.0639,186.2982 463.5748,180.564 465.0856,185.0239 471.1292,213.3763 472.6401,232.8088 474.151,239.8172 475.6618,234.7202 480.1945,261.4797 481.7054,282.1865 483.2163,289.195 486.238,301.9376 490.7707,310.5389 492.2816,317.8659 493.7925,328.6971 495.3033,332.5199 496.8142,337.2984 501.3469,338.5727 502.8578,337.617 504.3687,348.7668 505.8795,348.1297 507.3904,349.7225 511.9231,350.6782 513.434,351.9524 514.9449,352.5896 516.4557,352.9081 517.9666,352.9081 522.4993,354.1824 524.0102,356.0938 525.521,355.7752 527.0319,353.5453 528.5428,354.8195 533.0755,356.0938 536.0972,355.7752 539.119,356.4124 543.6517,356.0938 546.6734,355.1381 549.6952,348.7668 557.2496,338.5727 560.2714,326.7857 567.8258,324.5558 570.8476,318.1845 578.402,325.83 581.4238,322.6444 588.9782,308.3089 592,285.3722" style="fill:none;stroke:rgb(31,119,180);stroke-width:2;stroke-linejoin:bevel" />
  <text dominant-baseline="hanging" text-anchor="middle" transform="translate(315.508,8)" font-family="Segoe UI" font-size="18" font-weight="700" fill="black">Aktive Fälle Stadt Aachen 13.08.2021</text>
  <polygon points="39.016,29.0795 592,29.0795 592,370.947 39.016,370.947" style="fill:none;stroke:black;stroke-width:1" />
  <polygon points="47.016,37.0795 233.487,37.0795 233.487,63.1325 47.016,63.1325" style="fill:none;stroke:none;" />
  <text dominant-baseline="hanging" text-anchor="start" transform="translate(75.016,45.0795)" font-family="Segoe UI" font-size="12" font-weight="400" fill="black">Aktive Fälle Stadt Aachen 13.08.2021</text>
  <polyline points="55.016,50.106 71.016,50.106" style="fill:none;stroke:rgb(31,119,180);stroke-width:2" />
</svg>