<?xml version="1.0" encoding="utf-8" standalone="no"?>
<!DOCTYPE svg PUBLIC "-//W3C//DTD SVG 1.1//EN" "http://www.w3.org/Graphics/SVG/1.1/DTD/svg11.dtd">
<svg width="600" height="400" version="1.1" xmlns:xlink="http://www.w3.org/1999/xlink" xmlns="http://www.w3.org/2000/svg">
  <rect x="0" y="0" width="600" height="400" style="fill:rgb(255,255,255);stroke:none;" />
  <polyline points="39.016,357.0495 35.016,357.0495" style="fill:none;stroke:black;stroke-width:1" />
  <polyline points="39.016,341.1212 35.016,341.1212" style="fill:none;stroke:black;stroke-width:1" />
  <polyline points="39.016,325.1929 35.016,325.1929" style="fill:none;stroke:black;stroke-width:1" />
  <polyline points="39.016,293.3363 35.016,293.3363" style="fill:none;stroke:black;stroke-width:1" />
  <polyline points="39.016,277.408 35.016,277.408" style="fill:none;stroke:black;stroke-width:1" />
  <polyline points="39.016,261.4797 35.016,261.4797" style="fill:none;stroke:black;stroke-width:1" />
  <polyline points="39.016,229.6231 35.016,229.6231" style="fill:none;stroke:black;stroke-width:1" />
  <polyline points="39.016,213.6948 35.016,213.6948" style="fill:none;stroke:black;stroke-width:1" />
  <polyline points="39.016,197.7665 35.016,197.7665" style="fill:none;stroke:black;stroke-width:1" />
  <polyline points="39.016,165.9099 35.016,165.9099" style="fill:none;stroke:black;stroke-width:1" />
  <polyline points="39.016,149.9816 35.016,149.9816" style="fill:none;stroke:black;stroke-width:1" />
  <polyline points="39.016,134.0533 35.016,134.0533" style="fill:none;stroke:black;stroke-width:1" />
  <polyline points="39.016,102.1968 35.016,102.1968" style="fill:none;stroke:black;stroke-width:1" />
  <polyline points="39.016,86.2685 35.016,86.2685" style="fill:none;stroke:black;stroke-width:1" />
  <polyline points="39.016,70.3402 35.016,70.3402" style="fill:none;stroke:black;stroke-width:1" />
  <polyline points="39.016,38.4836 35.016,38.4836" style="fill:none;stroke:black;stroke-width:1" />
  <polyline points="74.2379,370.947 74.2379,374.947" style="fill:none;stroke:black;stroke-width:1" />
  <polyline points="181.6647,370.947 181.6647,374.947" style="fill:none;stroke:black;stroke-width:1" />
  <polyline points="289.0916,370.947 289.0916,374.947" style="fill:none;stroke:black;stroke-width:1" />
  <polyline points="392.9962,370.947 392.9962,374.947" style="fill:none;stroke:black;stroke-width:1" />
  <polyline points="500.423,370.947 500.423,374.947" style="fill:none;stroke:black;stroke-width:1" />
  <text dominant-baseline="middle" text-anchor="end" transform="translate(28.016,309.2646)" font-family="Segoe UI" font-size="12" font-weight="400" fill="black">200</text>
  <text dominant-baseline="middle" text-anchor="end" transform="translate(28.016,245.5514)" font-family="Segoe UI" font-size="12" font-weight="400" fill="black">400</text>
  <text dominant-baseline="middle" text-anchor="end" transform="translate(28.016,181.8382)" font-family="Segoe UI" font-size="12" font-weight="400" fill="black">600</text>
  <text dominant-baseline="middle" text-anchor="end" transform="translate(28.016,118.125)" font-family="Segoe UI" font-size="12" font-weight="400" fill="black">800</text>
  <text dominant-baseline="middle" text-anchor="end" transform="translate(28.016,54.4119)" font-family="Segoe UI" font-size="12" font-weight="400" fill="black">1000</text>
  <polyline points="39.016,309.2646 32.016,309.2646" style="fill:none;stroke:black;stroke-width:1" />
  <polyline points="39.016,245.5514 32.016,245.5514" style="fill:none;stroke:black;stroke-width:1" />
  <polyline points="39.016,181.8382 32.016,181.8382" style="fill:none;stroke:black;stroke-width:1" />
  <polyline points="39.016,118.125 32.016,118.125" style="fill:none;stroke:black;stroke-width:1" />
  <polyline points="39.016,54.4119 32.016,54.4119" style="fill:none;stroke:black;stroke-width:1" />
  <text dominant-baseline="hanging" text-anchor="middle" transform="translate(127.0708,381.947)" font-family="Segoe UI" font-size="12" font-weight="400" fill="black">01. October</text>
  <text dominant-baseline="hanging" text-anchor="middle" transform="translate(234.4976,381.947)" font-family="Segoe UI" font-size="12" font-weight="400" fill="black">01. December</text>
  <text dominant-baseline="hanging" text-anchor="middle" transform="translate(343.6855,381.947)" font-family="Segoe UI" font-size="12" font-weight="400" fill="black">01. February</text>
  <text dominant-baseline="hanging" text-anchor="middle" transform="translate(447.5902,381.947)" font-family="Segoe UI" font-size="12" font-weight="400" fill="black">01. April</text>
  <text dominant-baseline="hanging" text-anchor="middle" transform="translate(555.017,381.947)" font-family="Segoe UI" font-size="12" font-weight="400" fill="black">01. June</text>
  <polyline points="127.0708,370.947 127.0708,377.947" style="fill:none;stroke:black;stroke-width:1" />
  <polyline points="234.4976,370.947 234.4976,377.947" style="fill:none;stroke:black;stroke-width:1" />
  <polyline points="343.6855,370.947 343.6855,377.947" style="fill:none;stroke:black;stroke-width:1" />
  <polyline points="447.5902,370.947 447.5902,377.947" style="fill:none;stroke:black;stroke-width:1" />
  <polyline points="555.017,370.947 555.017,377.947" style="fill:none;stroke:black;stroke-width:1" />
  <polyline points="39.016,363.4208 42.5382,360.5537 47.8215,362.4651 49.5826,360.5537 51.3437,361.828 53.1048,360.2352 54.8659,360.5537 60.1491,360.8723 61.9102,363.4208 63.6713,363.7394 65.4324,363.1023 67.1935,363.1023 72.4768,365.3322 74.2379,366.2879 75.999,366.2879 77.7601,365.6508 79.5212,365.9693 84.8045,365.9693 86.5656,367.5622 88.3267,366.6065 90.0878,364.6951 91.8489,363.4208 97.1322,360.2352 98.8932,358.0052 100.6543,354.8195 102.4154,354.501 104.1765,353.5453 109.4598,356.4124 111.2209,357.0495 112.982,356.7309 114.7431,355.4567 116.5042,353.8638 121.7875,346.2183 123.5486,347.174 125.3097,347.4925 127.0708,342.714 128.8319,338.2541 134.1152,333.1571 135.8763,337.617 137.6374,333.4756 139.3984,329.0157 141.1595,327.7414 146.4428,318.1845 148.2039,325.5115 149.965,321.6887 151.7261,313.0874 153.4872,300.6633 158.7705,284.735 160.5316,285.6907 162.2927,283.7793 164.0538,269.1253 165.8149,266.2582 171.0982,223.2518 172.8593,235.0387 174.6204,235.0387 176.3815,231.5345 178.1425,212.4206 183.4258,218.4733 185.1869,250.3299 186.948,243.3215 188.7091,234.083 190.4702,230.2603 195.7535,208.9163 197.5146,221.9775 199.2757,212.7391 202.7979,194.8994 208.0812,191.0766 209.8423,208.9163 211.6034,213.6948 213.3645,193.6252 215.1256,209.2349 220.4088,223.8889 222.1699,235.6759 223.931,231.5345 225.6921,241.4101 227.4532,226.4375 232.7365,207.6421 234.4976,218.1548 236.2587,234.4016 238.0198,228.6674 239.7809,236.9501 245.0642,197.1294 246.8253,214.0134 248.5864,223.2518 250.3475,207.3235 252.1086,197.1294 257.3918,165.2728 259.1529,185.3425 260.914,192.988 262.6751,182.1568 264.4362,164.9542 269.7195,140.4247 271.4806,159.2201 273.2417,175.1484 282.0472,139.469 283.8083,156.6715 285.5694,169.4142 287.3305,156.0344 294.3749,156.353 296.1359,173.5555 297.897,197.7665 299.6581,203.1822 301.4192,184.7053 308.4636,220.0661 310.2247,236.313 311.9858,229.3046 313.7469,247.1443 319.0302,257.6569 320.7913,276.1338 322.5524,280.9122 324.3135,279.638 326.0746,276.7709 331.3579,276.4523 334.8801,283.7793 336.6411,270.3996 338.4022,261.7983 343.6855,263.0725 345.4466,277.7266 347.2077,290.4692 348.9688,284.4165 350.7299,284.4165 356.0132,295.8848 357.7743,304.1676 359.5354,299.3891 361.2965,289.8321 363.0576,280.2751 368.3409,287.2836 370.102,310.8574 371.8631,309.5832 373.6242,302.8933 375.3852,317.2288 380.6685,323.2815 382.4296,329.0157 384.1907,325.1929 385.9518,323.9186 387.7129,325.5115 392.9962,327.1043 394.7573,335.0684 396.5184,329.6528 398.2795,312.4503 400.0406,311.4946 405.3239,298.4334 407.085,298.4334 408.8461,293.3363 410.6072,285.3722 412.3683,275.4966 417.6515,268.8067 419.4126,269.7624 421.1737,270.3996 422.9348,250.3299 424.6959,236.6316 429.9792,219.7476 431.7403,220.0661 433.5014,221.3404 435.2625,199.3594 437.0236,195.218 442.3069,192.3509 444.068,214.9691 445.8291,219.429 447.5902,211.7834 449.3513,188.5281 456.3956,174.1927 458.1567,176.7412 459.9178,153.4859 461.6789,148.3888 466.9622,142.6546 468.7233,144.2475 470.4844,126.7263 472.2455,113.6651 474.0066,116.2137 479.2899,99.9668 481.051,95.1883 482.8121,72.8887 484.5732,44.5363 486.3343,32.4308 491.6176,42.3064 493.3786,49.3148 495.1397,66.1988 496.9008,77.6672 498.6619,71.2959 503.9452,109.8423 505.7063,105.701 507.4674,125.7706 509.2285,134.6905 510.9896,148.3888 516.2729,149.0259 518.034,175.7855 519.7951,170.6884 523.3173,185.3425 528.6006,171.9627 530.3617,185.661 532.1228,186.2982 533.8838,180.564 535.6449,185.0239 542.6893,213.3763 544.4504,232.8088 546.2115,239.8172 547.9726,234.7202 553.2559,261.4797 555.017,282.1865 556.7781,289.195 560.3003,301.9376 565.5836,310.5389 567.3447,317.8659 569.1058,328.6971 570.8669,332.5199 572.6279,337.2984 577.9112,338.5727 579.6723,337.617 581.4334,348.7668 583.1945,348.1297 584.9556,349.7225 590.2389,350.6782 592,351.9524" style="fill:none;stroke:rgb(31,119,180);stroke-width:2;stroke-linejoin:bevel" />
  <text dominant-baseline="hanging" text-anchor="middle" transform="translate(315.508,8)" font-family="Segoe UI" font-size="18" font-weight="700" fill="black">Aktive Fälle Stadt Aachen 22.06.2021</text>
  <polygon points="39.016,29.0795 592,29.0795 592,370.947 39.016,370.947" style="fill:none;stroke:black;stroke-width:1" />
  <polygon points="47.016,37.0795 233.487,37.0795 233.487,63.1325 47.016,63.1325" style="fill:none;stroke:none;" />
  <text dominant-baseline="hanging" text-anchor="start" transform="translate(75.016,45.0795)" font-family="Segoe UI" font-size="12" font-weight="400" fill="black">Aktive Fälle Stadt Aachen 22.06.2021</text>
  <polyline points="55.016,50.106 71.016,50.106" style="fill:none;stroke:rgb(31,119,180);stroke-width:2" />
</svg>