<?xml version="1.0" encoding="utf-8" standalone="no"?>
<!DOCTYPE svg PUBLIC "-//W3C//DTD SVG 1.1//EN" "http://www.w3.org/Graphics/SVG/1.1/DTD/svg11.dtd">
<svg width="600" height="400" version="1.1" xmlns:xlink="http://www.w3.org/1999/xlink" xmlns="http://www.w3.org/2000/svg">
  <rect x="0" y="0" width="600" height="400" style="fill:rgb(255,255,255);stroke:none;" />
  <polyline points="34.012,352.1162 30.012,352.1162" style="fill:none;stroke:black;stroke-width:1" />
  <polyline points="34.012,328.7131 30.012,328.7131" style="fill:none;stroke:black;stroke-width:1" />
  <polyline points="34.012,305.3101 30.012,305.3101" style="fill:none;stroke:black;stroke-width:1" />
  <polyline points="34.012,258.5041 30.012,258.5041" style="fill:none;stroke:black;stroke-width:1" />
  <polyline points="34.012,235.101 30.012,235.101" style="fill:none;stroke:black;stroke-width:1" />
  <polyline points="34.012,211.698 30.012,211.698" style="fill:none;stroke:black;stroke-width:1" />
  <polyline points="34.012,164.892 30.012,164.892" style="fill:none;stroke:black;stroke-width:1" />
  <polyline points="34.012,141.4889 30.012,141.4889" style="fill:none;stroke:black;stroke-width:1" />
  <polyline points="34.012,118.0859 30.012,118.0859" style="fill:none;stroke:black;stroke-width:1" />
  <polyline points="34.012,71.2798 30.012,71.2798" style="fill:none;stroke:black;stroke-width:1" />
  <polyline points="34.012,47.8768 30.012,47.8768" style="fill:none;stroke:black;stroke-width:1" />
  <text dominant-baseline="middle" text-anchor="end" transform="translate(23.012,281.9071)" font-family="Segoe UI" font-size="12" font-weight="400" fill="black">200</text>
  <text dominant-baseline="middle" text-anchor="end" transform="translate(23.012,188.295)" font-family="Segoe UI" font-size="12" font-weight="400" fill="black">400</text>
  <text dominant-baseline="middle" text-anchor="end" transform="translate(23.012,94.6829)" font-family="Segoe UI" font-size="12" font-weight="400" fill="black">600</text>
  <polyline points="34.012,281.9071 27.012,281.9071" style="fill:none;stroke:black;stroke-width:1" />
  <polyline points="34.012,188.295 27.012,188.295" style="fill:none;stroke:black;stroke-width:1" />
  <polyline points="34.012,94.6829 27.012,94.6829" style="fill:none;stroke:black;stroke-width:1" />
  <text dominant-baseline="hanging" text-anchor="middle" transform="translate(93.6899,381.947)" font-family="Segoe UI" font-size="12" font-weight="400" fill="black">01. September</text>
  <text dominant-baseline="hanging" text-anchor="middle" transform="translate(183.2067,381.947)" font-family="Segoe UI" font-size="12" font-weight="400" fill="black">01. October</text>
  <text dominant-baseline="hanging" text-anchor="middle" transform="translate(275.7073,381.947)" font-family="Segoe UI" font-size="12" font-weight="400" fill="black">01. November</text>
  <text dominant-baseline="hanging" text-anchor="middle" transform="translate(365.2241,381.947)" font-family="Segoe UI" font-size="12" font-weight="400" fill="black">01. December</text>
  <text dominant-baseline="hanging" text-anchor="middle" transform="translate(457.7248,381.947)" font-family="Segoe UI" font-size="12" font-weight="400" fill="black">01. January</text>
  <text dominant-baseline="hanging" text-anchor="middle" transform="translate(550.2255,381.947)" font-family="Segoe UI" font-size="12" font-weight="400" fill="black">01. February</text>
  <polyline points="93.6899,370.947 93.6899,377.947" style="fill:none;stroke:black;stroke-width:1" />
  <polyline points="183.2067,370.947 183.2067,377.947" style="fill:none;stroke:black;stroke-width:1" />
  <polyline points="275.7073,370.947 275.7073,377.947" style="fill:none;stroke:black;stroke-width:1" />
  <polyline points="365.2241,370.947 365.2241,377.947" style="fill:none;stroke:black;stroke-width:1" />
  <polyline points="457.7248,370.947 457.7248,377.947" style="fill:none;stroke:black;stroke-width:1" />
  <polyline points="550.2255,370.947 550.2255,377.947" style="fill:none;stroke:black;stroke-width:1" />
  <polyline points="34.012,361.4774 39.9798,357.2648 48.9315,360.0732 51.9154,357.2648 54.8993,359.1371 57.8831,356.7968 60.867,357.2648 69.8187,357.7329 72.8026,361.4774 75.7865,361.9454 78.7704,361.0093 81.7543,361.0093 90.706,364.2857 93.6899,365.6899 96.6738,365.6899 99.6576,364.7538 102.6415,365.2219 111.5932,365.2219 114.5771,367.5622 117.561,366.158 120.5449,363.3496 123.5288,361.4774 132.4805,356.7968 135.4644,353.5204 138.4483,348.8398 141.4321,348.3717 144.416,346.9675 153.3677,351.1801 156.3516,352.1162 159.3355,351.6481 162.3194,349.7759 165.3033,347.4356 174.255,336.2021 177.2389,337.6063 180.2228,338.0744 183.2067,331.0534 186.1905,324.5006 195.1422,317.0116 198.1261,323.5645 201.11,317.4797 204.0939,310.9268 207.0778,309.0546 216.0295,295.0128 219.0134,305.7782 221.9973,300.1615 224.9812,287.5238 227.965,269.2695 236.9167,245.8664 239.9006,247.2706 242.8845,244.4622 245.8684,222.9315 248.8523,218.7189 257.804,155.5307 260.7879,172.849 263.7718,172.849 266.7557,167.7003 269.7396,139.6167 278.6912,148.5098 281.6751,195.3159 284.659,185.0186 287.6429,171.4448 290.6268,165.8281 299.5785,134.468 302.5624,153.6585 305.5463,140.0847 311.5141,113.8734 320.4657,108.2566 323.4496,134.468 326.4335,141.4889 329.4174,112.0011 332.4013,134.9361 341.353,156.4669 344.3369,173.7851 347.3208,167.7003 350.3047,182.2102 353.2886,160.2113 362.2402,132.5958 365.2241,148.0418 368.208,171.9129 371.1919,163.4878 374.1758,175.6573 383.1275,117.1498 386.1114,141.957 389.0953,155.5307 392.0792,132.1277 395.0631,117.1498 404.0147,70.3437 406.9986,99.8315 409.9825,111.065 412.9664,95.1509 415.9503,69.8757 424.902,33.835 427.8859,61.4506 430.8698,84.8536 445.7892,32.4308 448.7731,57.7061 451.757,76.4285 454.7409,56.77 466.6765,57.238 469.6604,82.5133 472.6443,118.0859 475.6282,126.0429 478.6121,98.8954 490.5476,150.8501 493.5315,174.7212 496.5154,164.4239 499.4993,190.6353 508.451,206.0813 511.4349,233.2288 514.4188,240.2497 517.4027,238.3775 520.3866,234.1649 529.3382,233.6969 535.306,244.4622 538.2899,224.8037 541.2738,212.1661 550.2255,214.0383 553.2094,235.5691 556.1933,254.2915 559.1772,245.3984 562.1611,245.3984 571.1127,262.2485 574.0966,274.4181 577.0805,267.3972 580.0644,253.3554 583.0483,239.3136 592,249.6109" style="fill:none;stroke:rgb(31,119,180);stroke-width:2;stroke-linejoin:bevel" />
  <text dominant-baseline="hanging" text-anchor="middle" transform="translate(313.006,8)" font-family="Segoe UI" font-size="18" font-weight="700" fill="black">Aktive Fälle Stadt Aachen 15.02.2021</text>
  <polygon points="34.012,29.0795 592,29.0795 592,370.947 34.012,370.947" style="fill:none;stroke:black;stroke-width:1" />
  <polygon points="42.012,37.0795 228.483,37.0795 228.483,63.1325 42.012,63.1325" style="fill:none;stroke:none;" />
  <text dominant-baseline="hanging" text-anchor="start" transform="translate(70.012,45.0795)" font-family="Segoe UI" font-size="12" font-weight="400" fill="black">Aktive Fälle Stadt Aachen 15.02.2021</text>
  <polyline points="50.012,50.106 66.012,50.106" style="fill:none;stroke:rgb(31,119,180);stroke-width:2" />
</svg>