<?xml version="1.0" encoding="utf-8" standalone="no"?>
<!DOCTYPE svg PUBLIC "-//W3C//DTD SVG 1.1//EN" "http://www.w3.org/Graphics/SVG/1.1/DTD/svg11.dtd">
<svg width="600" height="400" version="1.1" xmlns:xlink="http://www.w3.org/1999/xlink" xmlns="http://www.w3.org/2000/svg">
  <rect x="0" y="0" width="600" height="400" style="fill:rgb(255,255,255);stroke:none;" />
  <polyline points="34.012,352.1162 30.012,352.1162" style="fill:none;stroke:black;stroke-width:1" />
  <polyline points="34.012,328.7131 30.012,328.7131" style="fill:none;stroke:black;stroke-width:1" />
  <polyline points="34.012,305.3101 30.012,305.3101" style="fill:none;stroke:black;stroke-width:1" />
  <polyline points="34.012,258.5041 30.012,258.5041" style="fill:none;stroke:black;stroke-width:1" />
  <polyline points="34.012,235.101 30.012,235.101" style="fill:none;stroke:black;stroke-width:1" />
  <polyline points="34.012,211.698 30.012,211.698" style="fill:none;stroke:black;stroke-width:1" />
  <polyline points="34.012,164.892 30.012,164.892" style="fill:none;stroke:black;stroke-width:1" />
  <polyline points="34.012,141.4889 30.012,141.4889" style="fill:none;stroke:black;stroke-width:1" />
  <polyline points="34.012,118.0859 30.012,118.0859" style="fill:none;stroke:black;stroke-width:1" />
  <polyline points="34.012,71.2798 30.012,71.2798" style="fill:none;stroke:black;stroke-width:1" />
  <polyline points="34.012,47.8768 30.012,47.8768" style="fill:none;stroke:black;stroke-width:1" />
  <text dominant-baseline="middle" text-anchor="end" transform="translate(23.012,281.9071)" font-family="Segoe UI" font-size="12" font-weight="400" fill="black">200</text>
  <text dominant-baseline="middle" text-anchor="end" transform="translate(23.012,188.295)" font-family="Segoe UI" font-size="12" font-weight="400" fill="black">400</text>
  <text dominant-baseline="middle" text-anchor="end" transform="translate(23.012,94.6829)" font-family="Segoe UI" font-size="12" font-weight="400" fill="black">600</text>
  <polyline points="34.012,281.9071 27.012,281.9071" style="fill:none;stroke:black;stroke-width:1" />
  <polyline points="34.012,188.295 27.012,188.295" style="fill:none;stroke:black;stroke-width:1" />
  <polyline points="34.012,94.6829 27.012,94.6829" style="fill:none;stroke:black;stroke-width:1" />
  <text dominant-baseline="hanging" text-anchor="middle" transform="translate(85.2036,381.947)" font-family="Segoe UI" font-size="12" font-weight="400" fill="black">01. September</text>
  <text dominant-baseline="hanging" text-anchor="middle" transform="translate(161.9909,381.947)" font-family="Segoe UI" font-size="12" font-weight="400" fill="black">01. October</text>
  <text dominant-baseline="hanging" text-anchor="middle" transform="translate(241.3378,381.947)" font-family="Segoe UI" font-size="12" font-weight="400" fill="black">01. November</text>
  <text dominant-baseline="hanging" text-anchor="middle" transform="translate(318.1252,381.947)" font-family="Segoe UI" font-size="12" font-weight="400" fill="black">01. December</text>
  <text dominant-baseline="hanging" text-anchor="middle" transform="translate(397.4721,381.947)" font-family="Segoe UI" font-size="12" font-weight="400" fill="black">01. January</text>
  <text dominant-baseline="hanging" text-anchor="middle" transform="translate(476.819,381.947)" font-family="Segoe UI" font-size="12" font-weight="400" fill="black">01. February</text>
  <text dominant-baseline="hanging" text-anchor="middle" transform="translate(548.4872,381.947)" font-family="Segoe UI" font-size="12" font-weight="400" fill="black">01. March</text>
  <polyline points="85.2036,370.947 85.2036,377.947" style="fill:none;stroke:black;stroke-width:1" />
  <polyline points="161.9909,370.947 161.9909,377.947" style="fill:none;stroke:black;stroke-width:1" />
  <polyline points="241.3378,370.947 241.3378,377.947" style="fill:none;stroke:black;stroke-width:1" />
  <polyline points="318.1252,370.947 318.1252,377.947" style="fill:none;stroke:black;stroke-width:1" />
  <polyline points="397.4721,370.947 397.4721,377.947" style="fill:none;stroke:black;stroke-width:1" />
  <polyline points="476.819,370.947 476.819,377.947" style="fill:none;stroke:black;stroke-width:1" />
  <polyline points="548.4872,370.947 548.4872,377.947" style="fill:none;stroke:black;stroke-width:1" />
  <polyline points="34.012,361.4774 39.1312,357.2648 46.8099,360.0732 49.3695,357.2648 51.929,359.1371 54.4886,356.7968 57.0482,357.2648 64.7269,357.7329 67.2865,361.4774 69.8461,361.9454 72.4057,361.0093 74.9652,361.0093 82.644,364.2857 85.2036,365.6899 87.7631,365.6899 90.3227,364.7538 92.8823,365.2219 100.561,365.2219 103.1206,367.5622 105.6802,366.158 108.2398,363.3496 110.7993,361.4774 118.4781,356.7968 121.0377,353.5204 123.5972,348.8398 126.1568,348.3717 128.7164,346.9675 136.3951,351.1801 138.9547,352.1162 141.5143,351.6481 144.0739,349.7759 146.6334,347.4356 154.3122,336.2021 156.8717,337.6063 159.4313,338.0744 161.9909,331.0534 164.5505,324.5006 172.2292,317.0116 174.7888,323.5645 177.3484,317.4797 179.9079,310.9268 182.4675,309.0546 190.1463,295.0128 192.7058,305.7782 195.2654,300.1615 197.825,287.5238 200.3846,269.2695 208.0633,245.8664 210.6229,247.2706 213.1825,244.4622 215.742,222.9315 218.3016,218.7189 225.9803,155.5307 228.5399,172.849 231.0995,172.849 233.6591,167.7003 236.2187,139.6167 243.8974,148.5098 246.457,195.3159 249.0166,185.0186 251.5761,171.4448 254.1357,165.8281 261.8144,134.468 264.374,153.6585 266.9336,140.0847 272.0528,113.8734 279.7315,108.2566 282.2911,134.468 284.8506,141.4889 287.4102,112.0011 289.9698,134.9361 297.6485,156.4669 300.2081,173.7851 302.7677,167.7003 305.3273,182.2102 307.8868,160.2113 315.5656,132.5958 318.1252,148.0418 320.6847,171.9129 323.2443,163.4878 325.8039,175.6573 333.4826,117.1498 336.0422,141.957 338.6018,155.5307 341.1614,132.1277 343.7209,117.1498 351.3997,70.3437 353.9592,99.8315 356.5188,111.065 359.0784,95.1509 361.638,69.8757 369.3167,33.835 371.8763,61.4506 374.4359,84.8536 387.2338,32.4308 389.7933,57.7061 392.3529,76.4285 394.9125,56.77 405.1508,57.238 407.7104,82.5133 410.27,118.0859 412.8295,126.0429 415.3891,98.8954 425.6274,150.8501 428.187,174.7212 430.7466,164.4239 433.3062,190.6353 440.9849,206.0813 443.5445,233.2288 446.1041,240.2497 448.6636,238.3775 451.2232,234.1649 458.9019,233.6969 464.0211,244.4622 466.5807,224.8037 469.1403,212.1661 476.819,214.0383 479.3786,235.5691 481.9381,254.2915 484.4977,245.3984 487.0573,245.3984 494.736,262.2485 497.2956,274.4181 499.8552,267.3972 502.4148,253.3554 504.9743,239.3136 512.6531,249.6109 515.2127,284.2474 517.7722,282.3752 520.3318,272.5459 522.8914,293.6086 530.5701,302.5018 533.1297,310.9268 535.6893,305.3101 538.2489,303.4379 540.8084,305.7782 548.4872,308.1185 551.0468,319.82 553.6063,311.863 556.1659,286.5877 558.7255,285.1835 566.4042,265.993 568.9638,265.993 571.5234,258.5041 574.083,246.8025 576.6425,232.2927 584.3213,222.4634 586.8808,223.8676 589.4404,224.8037 592,195.3159" style="fill:none;stroke:rgb(31,119,180);stroke-width:2;stroke-linejoin:bevel" />
  <text dominant-baseline="hanging" text-anchor="middle" transform="translate(313.006,8)" font-family="Segoe UI" font-size="18" font-weight="700" fill="black">Aktive Fälle Stadt Aachen 18.03.2021</text>
  <polygon points="34.012,29.0795 592,29.0795 592,370.947 34.012,370.947" style="fill:none;stroke:black;stroke-width:1" />
  <polygon points="42.012,37.0795 228.483,37.0795 228.483,63.1325 42.012,63.1325" style="fill:none;stroke:none;" />
  <text dominant-baseline="hanging" text-anchor="start" transform="translate(70.012,45.0795)" font-family="Segoe UI" font-size="12" font-weight="400" fill="black">Aktive Fälle Stadt Aachen 18.03.2021</text>
  <polyline points="50.012,50.106 66.012,50.106" style="fill:none;stroke:rgb(31,119,180);stroke-width:2" />
</svg>