<?xml version="1.0" encoding="utf-8" standalone="no"?>
<!DOCTYPE svg PUBLIC "-//W3C//DTD SVG 1.1//EN" "http://www.w3.org/Graphics/SVG/1.1/DTD/svg11.dtd">
<svg width="600" height="400" version="1.1" xmlns:xlink="http://www.w3.org/1999/xlink" xmlns="http://www.w3.org/2000/svg">
  <rect x="0" y="0" width="600" height="400" style="fill:rgb(255,255,255);stroke:none;" />
  <polyline points="34.012,352.1162 30.012,352.1162" style="fill:none;stroke:black;stroke-width:1" />
  <polyline points="34.012,328.7131 30.012,328.7131" style="fill:none;stroke:black;stroke-width:1" />
  <polyline points="34.012,305.3101 30.012,305.3101" style="fill:none;stroke:black;stroke-width:1" />
  <polyline points="34.012,258.5041 30.012,258.5041" style="fill:none;stroke:black;stroke-width:1" />
  <polyline points="34.012,235.101 30.012,235.101" style="fill:none;stroke:black;stroke-width:1" />
  <polyline points="34.012,211.698 30.012,211.698" style="fill:none;stroke:black;stroke-width:1" />
  <polyline points="34.012,164.892 30.012,164.892" style="fill:none;stroke:black;stroke-width:1" />
  <polyline points="34.012,141.4889 30.012,141.4889" style="fill:none;stroke:black;stroke-width:1" />
  <polyline points="34.012,118.0859 30.012,118.0859" style="fill:none;stroke:black;stroke-width:1" />
  <polyline points="34.012,71.2798 30.012,71.2798" style="fill:none;stroke:black;stroke-width:1" />
  <polyline points="34.012,47.8768 30.012,47.8768" style="fill:none;stroke:black;stroke-width:1" />
  <text dominant-baseline="middle" text-anchor="end" transform="translate(23.012,281.9071)" font-family="Segoe UI" font-size="12" font-weight="400" fill="black">200</text>
  <text dominant-baseline="middle" text-anchor="end" transform="translate(23.012,188.295)" font-family="Segoe UI" font-size="12" font-weight="400" fill="black">400</text>
  <text dominant-baseline="middle" text-anchor="end" transform="translate(23.012,94.6829)" font-family="Segoe UI" font-size="12" font-weight="400" fill="black">600</text>
  <polyline points="34.012,281.9071 27.012,281.9071" style="fill:none;stroke:black;stroke-width:1" />
  <polyline points="34.012,188.295 27.012,188.295" style="fill:none;stroke:black;stroke-width:1" />
  <polyline points="34.012,94.6829 27.012,94.6829" style="fill:none;stroke:black;stroke-width:1" />
  <text dominant-baseline="hanging" text-anchor="middle" transform="translate(99.6576,381.947)" font-family="Segoe UI" font-size="12" font-weight="400" fill="black">01. September</text>
  <text dominant-baseline="hanging" text-anchor="middle" transform="translate(198.1261,381.947)" font-family="Segoe UI" font-size="12" font-weight="400" fill="black">01. October</text>
  <text dominant-baseline="hanging" text-anchor="middle" transform="translate(299.8769,381.947)" font-family="Segoe UI" font-size="12" font-weight="400" fill="black">01. November</text>
  <text dominant-baseline="hanging" text-anchor="middle" transform="translate(398.3453,381.947)" font-family="Segoe UI" font-size="12" font-weight="400" fill="black">01. December</text>
  <text dominant-baseline="hanging" text-anchor="middle" transform="translate(500.0961,381.947)" font-family="Segoe UI" font-size="12" font-weight="400" fill="black">01. January</text>
  <polyline points="99.6576,370.947 99.6576,377.947" style="fill:none;stroke:black;stroke-width:1" />
  <polyline points="198.1261,370.947 198.1261,377.947" style="fill:none;stroke:black;stroke-width:1" />
  <polyline points="299.8769,370.947 299.8769,377.947" style="fill:none;stroke:black;stroke-width:1" />
  <polyline points="398.3453,370.947 398.3453,377.947" style="fill:none;stroke:black;stroke-width:1" />
  <polyline points="500.0961,370.947 500.0961,377.947" style="fill:none;stroke:black;stroke-width:1" />
  <polyline points="34.012,361.4774 40.5766,357.2648 50.4234,360.0732 53.7057,357.2648 56.988,359.1371 60.2703,356.7968 63.5525,357.2648 73.3994,357.7329 76.6817,361.4774 79.964,361.9454 83.2462,361.0093 86.5285,361.0093 96.3754,364.2857 99.6576,365.6899 102.9399,365.6899 106.2222,364.7538 109.5045,365.2219 119.3513,365.2219 122.6336,367.5622 125.9159,366.158 129.1982,363.3496 132.4805,361.4774 142.3273,356.7968 145.6096,353.5204 148.8919,348.8398 152.1742,348.3717 155.4564,346.9675 165.3033,351.1801 168.5856,352.1162 171.8679,351.6481 175.1501,349.7759 178.4324,347.4356 188.2793,336.2021 191.5616,337.6063 194.8438,338.0744 198.1261,331.0534 201.4084,324.5006 211.2552,317.0116 214.5375,323.5645 217.8198,317.4797 221.1021,310.9268 224.3844,309.0546 234.2312,295.0128 237.5135,305.7782 240.7958,300.1615 244.0781,287.5238 247.3604,269.2695 257.2072,245.8664 260.4895,247.2706 263.7718,244.4622 267.054,222.9315 270.3363,218.7189 280.1832,155.5307 283.4655,172.849 286.7477,172.849 290.03,167.7003 293.3123,139.6167 303.1592,148.5098 306.4414,195.3159 309.7237,185.0186 313.006,171.4448 316.2883,165.8281 326.1351,134.468 329.4174,153.6585 332.6997,140.0847 339.2643,113.8734 349.1111,108.2566 352.3934,134.468 355.6757,141.4889 358.958,112.0011 362.2402,134.9361 372.0871,156.4669 375.3694,173.7851 378.6516,167.7003 381.9339,182.2102 385.2162,160.2113 395.0631,132.5958 398.3453,148.0418 401.6276,171.9129 404.9099,163.4878 408.1922,175.6573 418.039,117.1498 421.3213,141.957 424.6036,155.5307 427.8859,132.1277 431.1682,117.1498 441.015,70.3437 444.2973,99.8315 447.5796,111.065 450.8619,95.1509 454.1441,69.8757 463.991,33.835 467.2733,61.4506 470.5556,84.8536 486.967,32.4308 490.2492,57.7061 493.5315,76.4285 496.8138,56.77 509.9429,57.238 513.2252,82.5133 516.5075,118.0859 519.7898,126.0429 523.0721,98.8954 536.2012,150.8501 539.4835,174.7212 542.7658,164.4239 546.048,190.6353 555.8949,206.0813 559.1772,233.2288 562.4595,240.2497 565.7417,238.3775 569.024,234.1649 578.8709,233.6969 585.4354,244.4622 588.7177,224.8037 592,212.1661" style="fill:none;stroke:rgb(31,119,180);stroke-width:2;stroke-linejoin:bevel" />
  <text dominant-baseline="hanging" text-anchor="middle" transform="translate(313.006,8)" font-family="Segoe UI" font-size="18" font-weight="700" fill="black">Aktive Fälle Stadt Aachen 29.01.2021</text>
  <polygon points="34.012,29.0795 592,29.0795 592,370.947 34.012,370.947" style="fill:none;stroke:black;stroke-width:1" />
  <polygon points="42.012,37.0795 228.483,37.0795 228.483,63.1325 42.012,63.1325" style="fill:none;stroke:none;" />
  <text dominant-baseline="hanging" text-anchor="start" transform="translate(70.012,45.0795)" font-family="Segoe UI" font-size="12" font-weight="400" fill="black">Aktive Fälle Stadt Aachen 29.01.2021</text>
  <polyline points="50.012,50.106 66.012,50.106" style="fill:none;stroke:rgb(31,119,180);stroke-width:2" />
</svg>