<?xml version="1.0" encoding="utf-8" standalone="no"?>
<!DOCTYPE svg PUBLIC "-//W3C//DTD SVG 1.1//EN" "http://www.w3.org/Graphics/SVG/1.1/DTD/svg11.dtd">
<svg width="600" height="400" version="1.1" xmlns:xlink="http://www.w3.org/1999/xlink" xmlns="http://www.w3.org/2000/svg">
  <rect x="0" y="0" width="600" height="400" style="fill:rgb(255,255,255);stroke:none;" />
  <polyline points="34.012,352.1162 30.012,352.1162" style="fill:none;stroke:black;stroke-width:1" />
  <polyline points="34.012,328.7131 30.012,328.7131" style="fill:none;stroke:black;stroke-width:1" />
  <polyline points="34.012,305.3101 30.012,305.3101" style="fill:none;stroke:black;stroke-width:1" />
  <polyline points="34.012,258.5041 30.012,258.5041" style="fill:none;stroke:black;stroke-width:1" />
  <polyline points="34.012,235.101 30.012,235.101" style="fill:none;stroke:black;stroke-width:1" />
  <polyline points="34.012,211.698 30.012,211.698" style="fill:none;stroke:black;stroke-width:1" />
  <polyline points="34.012,164.892 30.012,164.892" style="fill:none;stroke:black;stroke-width:1" />
  <polyline points="34.012,141.4889 30.012,141.4889" style="fill:none;stroke:black;stroke-width:1" />
  <polyline points="34.012,118.0859 30.012,118.0859" style="fill:none;stroke:black;stroke-width:1" />
  <polyline points="34.012,71.2798 30.012,71.2798" style="fill:none;stroke:black;stroke-width:1" />
  <polyline points="34.012,47.8768 30.012,47.8768" style="fill:none;stroke:black;stroke-width:1" />
  <text dominant-baseline="middle" text-anchor="end" transform="translate(23.012,281.9071)" font-family="Segoe UI" font-size="12" font-weight="400" fill="black">200</text>
  <text dominant-baseline="middle" text-anchor="end" transform="translate(23.012,188.295)" font-family="Segoe UI" font-size="12" font-weight="400" fill="black">400</text>
  <text dominant-baseline="middle" text-anchor="end" transform="translate(23.012,94.6829)" font-family="Segoe UI" font-size="12" font-weight="400" fill="black">600</text>
  <polyline points="34.012,281.9071 27.012,281.9071" style="fill:none;stroke:black;stroke-width:1" />
  <polyline points="34.012,188.295 27.012,188.295" style="fill:none;stroke:black;stroke-width:1" />
  <polyline points="34.012,94.6829 27.012,94.6829" style="fill:none;stroke:black;stroke-width:1" />
  <text dominant-baseline="hanging" text-anchor="middle" transform="translate(90.3744,381.947)" font-family="Segoe UI" font-size="12" font-weight="400" fill="black">01. September</text>
  <text dominant-baseline="hanging" text-anchor="middle" transform="translate(174.9181,381.947)" font-family="Segoe UI" font-size="12" font-weight="400" fill="black">01. October</text>
  <text dominant-baseline="hanging" text-anchor="middle" transform="translate(262.2798,381.947)" font-family="Segoe UI" font-size="12" font-weight="400" fill="black">01. November</text>
  <text dominant-baseline="hanging" text-anchor="middle" transform="translate(346.8235,381.947)" font-family="Segoe UI" font-size="12" font-weight="400" fill="black">01. December</text>
  <text dominant-baseline="hanging" text-anchor="middle" transform="translate(434.1852,381.947)" font-family="Segoe UI" font-size="12" font-weight="400" fill="black">01. January</text>
  <text dominant-baseline="hanging" text-anchor="middle" transform="translate(521.547,381.947)" font-family="Segoe UI" font-size="12" font-weight="400" fill="black">01. February</text>
  <polyline points="90.3744,370.947 90.3744,377.947" style="fill:none;stroke:black;stroke-width:1" />
  <polyline points="174.9181,370.947 174.9181,377.947" style="fill:none;stroke:black;stroke-width:1" />
  <polyline points="262.2798,370.947 262.2798,377.947" style="fill:none;stroke:black;stroke-width:1" />
  <polyline points="346.8235,370.947 346.8235,377.947" style="fill:none;stroke:black;stroke-width:1" />
  <polyline points="434.1852,370.947 434.1852,377.947" style="fill:none;stroke:black;stroke-width:1" />
  <polyline points="521.547,370.947 521.547,377.947" style="fill:none;stroke:black;stroke-width:1" />
  <polyline points="34.012,361.4774 39.6482,357.2648 48.1026,360.0732 50.9207,357.2648 53.7388,359.1371 56.557,356.7968 59.3751,357.2648 67.8295,357.7329 70.6476,361.4774 73.4657,361.9454 76.2838,361.0093 79.1019,361.0093 87.5563,364.2857 90.3744,365.6899 93.1925,365.6899 96.0107,364.7538 98.8288,365.2219 107.2832,365.2219 110.1013,367.5622 112.9194,366.158 115.7375,363.3496 118.5556,361.4774 127.01,356.7968 129.8281,353.5204 132.6462,348.8398 135.4644,348.3717 138.2825,346.9675 146.7368,351.1801 149.555,352.1162 152.3731,351.6481 155.1912,349.7759 158.0093,347.4356 166.4637,336.2021 169.2818,337.6063 172.0999,338.0744 174.9181,331.0534 177.7362,324.5006 186.1905,317.0116 189.0087,323.5645 191.8268,317.4797 194.6449,310.9268 197.463,309.0546 205.9174,295.0128 208.7355,305.7782 211.5536,300.1615 214.3718,287.5238 217.1899,269.2695 225.6442,245.8664 228.4624,247.2706 231.2805,244.4622 234.0986,222.9315 236.9167,218.7189 245.3711,155.5307 248.1892,172.849 251.0073,172.849 253.8255,167.7003 256.6436,139.6167 265.0979,148.5098 267.9161,195.3159 270.7342,185.0186 273.5523,171.4448 276.3704,165.8281 284.8248,134.468 287.6429,153.6585 290.461,140.0847 296.0973,113.8734 304.5516,108.2566 307.3698,134.468 310.1879,141.4889 313.006,112.0011 315.8241,134.9361 324.2785,156.4669 327.0966,173.7851 329.9147,167.7003 332.7328,182.2102 335.551,160.2113 344.0053,132.5958 346.8235,148.0418 349.6416,171.9129 352.4597,163.4878 355.2778,175.6573 363.7322,117.1498 366.5503,141.957 369.3684,155.5307 372.1865,132.1277 375.0047,117.1498 383.459,70.3437 386.2772,99.8315 389.0953,111.065 391.9134,95.1509 394.7315,69.8757 403.1859,33.835 406.004,61.4506 408.8221,84.8536 422.9127,32.4308 425.7308,57.7061 428.549,76.4285 431.3671,56.77 442.6396,57.238 445.4577,82.5133 448.2758,118.0859 451.0939,126.0429 453.9121,98.8954 465.1845,150.8501 468.0027,174.7212 470.8208,164.4239 473.6389,190.6353 482.0933,206.0813 484.9114,233.2288 487.7295,240.2497 490.5476,238.3775 493.3658,234.1649 501.8201,233.6969 507.4564,244.4622 510.2745,224.8037 513.0926,212.1661 521.547,214.0383 524.3651,235.5691 527.1832,254.2915 530.0013,245.3984 532.8195,245.3984 541.2738,262.2485 544.0919,274.4181 546.9101,267.3972 549.7282,253.3554 552.5463,239.3136 561.0007,249.6109 563.8188,284.2474 566.6369,282.3752 569.455,272.5459 572.2732,293.6086 580.7275,302.5018 583.5456,310.9268 586.3638,305.3101 589.1819,303.4379 592,305.7782" style="fill:none;stroke:rgb(31,119,180);stroke-width:2;stroke-linejoin:bevel" />
  <text dominant-baseline="hanging" text-anchor="middle" transform="translate(313.006,8)" font-family="Segoe UI" font-size="18" font-weight="700" fill="black">Aktive Fälle Stadt Aachen 26.02.2021</text>
  <polygon points="34.012,29.0795 592,29.0795 592,370.947 34.012,370.947" style="fill:none;stroke:black;stroke-width:1" />
  <polygon points="42.012,37.0795 228.483,37.0795 228.483,63.1325 42.012,63.1325" style="fill:none;stroke:none;" />
  <text dominant-baseline="hanging" text-anchor="start" transform="translate(70.012,45.0795)" font-family="Segoe UI" font-size="12" font-weight="400" fill="black">Aktive Fälle Stadt Aachen 26.02.2021</text>
  <polyline points="50.012,50.106 66.012,50.106" style="fill:none;stroke:rgb(31,119,180);stroke-width:2" />
</svg>