<?xml version="1.0" encoding="utf-8" standalone="no"?>
<!DOCTYPE svg PUBLIC "-//W3C//DTD SVG 1.1//EN" "http://www.w3.org/Graphics/SVG/1.1/DTD/svg11.dtd">
<svg width="600" height="400" version="1.1" xmlns:xlink="http://www.w3.org/1999/xlink" xmlns="http://www.w3.org/2000/svg">
  <rect x="0" y="0" width="600" height="400" style="fill:rgb(255,255,255);stroke:none;" />
  <polyline points="34.012,352.1162 30.012,352.1162" style="fill:none;stroke:black;stroke-width:1" />
  <polyline points="34.012,328.7131 30.012,328.7131" style="fill:none;stroke:black;stroke-width:1" />
  <polyline points="34.012,305.3101 30.012,305.3101" style="fill:none;stroke:black;stroke-width:1" />
  <polyline points="34.012,258.5041 30.012,258.5041" style="fill:none;stroke:black;stroke-width:1" />
  <polyline points="34.012,235.101 30.012,235.101" style="fill:none;stroke:black;stroke-width:1" />
  <polyline points="34.012,211.698 30.012,211.698" style="fill:none;stroke:black;stroke-width:1" />
  <polyline points="34.012,164.892 30.012,164.892" style="fill:none;stroke:black;stroke-width:1" />
  <polyline points="34.012,141.4889 30.012,141.4889" style="fill:none;stroke:black;stroke-width:1" />
  <polyline points="34.012,118.0859 30.012,118.0859" style="fill:none;stroke:black;stroke-width:1" />
  <polyline points="34.012,71.2798 30.012,71.2798" style="fill:none;stroke:black;stroke-width:1" />
  <polyline points="34.012,47.8768 30.012,47.8768" style="fill:none;stroke:black;stroke-width:1" />
  <text dominant-baseline="middle" text-anchor="end" transform="translate(23.012,281.9071)" font-family="Segoe UI" font-size="12" font-weight="400" fill="black">200</text>
  <text dominant-baseline="middle" text-anchor="end" transform="translate(23.012,188.295)" font-family="Segoe UI" font-size="12" font-weight="400" fill="black">400</text>
  <text dominant-baseline="middle" text-anchor="end" transform="translate(23.012,94.6829)" font-family="Segoe UI" font-size="12" font-weight="400" fill="black">600</text>
  <polyline points="34.012,281.9071 27.012,281.9071" style="fill:none;stroke:black;stroke-width:1" />
  <polyline points="34.012,188.295 27.012,188.295" style="fill:none;stroke:black;stroke-width:1" />
  <polyline points="34.012,94.6829 27.012,94.6829" style="fill:none;stroke:black;stroke-width:1" />
  <text dominant-baseline="hanging" text-anchor="middle" transform="translate(102.4768,381.947)" font-family="Segoe UI" font-size="12" font-weight="400" fill="black">01. September</text>
  <text dominant-baseline="hanging" text-anchor="middle" transform="translate(205.174,381.947)" font-family="Segoe UI" font-size="12" font-weight="400" fill="black">01. October</text>
  <text dominant-baseline="hanging" text-anchor="middle" transform="translate(311.2944,381.947)" font-family="Segoe UI" font-size="12" font-weight="400" fill="black">01. November</text>
  <text dominant-baseline="hanging" text-anchor="middle" transform="translate(413.9916,381.947)" font-family="Segoe UI" font-size="12" font-weight="400" fill="black">01. December</text>
  <text dominant-baseline="hanging" text-anchor="middle" transform="translate(520.112,381.947)" font-family="Segoe UI" font-size="12" font-weight="400" fill="black">01. January</text>
  <polyline points="102.4768,370.947 102.4768,377.947" style="fill:none;stroke:black;stroke-width:1" />
  <polyline points="205.174,370.947 205.174,377.947" style="fill:none;stroke:black;stroke-width:1" />
  <polyline points="311.2944,370.947 311.2944,377.947" style="fill:none;stroke:black;stroke-width:1" />
  <polyline points="413.9916,370.947 413.9916,377.947" style="fill:none;stroke:black;stroke-width:1" />
  <polyline points="520.112,370.947 520.112,377.947" style="fill:none;stroke:black;stroke-width:1" />
  <polyline points="34.012,361.4774 40.8585,357.2648 51.1282,360.0732 54.5514,357.2648 57.9747,359.1371 61.3979,356.7968 64.8212,357.2648 75.0909,357.7329 78.5141,361.4774 81.9373,361.9454 85.3606,361.0093 88.7838,361.0093 99.0535,364.2857 102.4768,365.6899 105.9,365.6899 109.3233,364.7538 112.7465,365.2219 123.0162,365.2219 126.4395,367.5622 129.8627,366.158 133.2859,363.3496 136.7092,361.4774 146.9789,356.7968 150.4021,353.5204 153.8254,348.8398 157.2486,348.3717 160.6719,346.9675 170.9416,351.1801 174.3648,352.1162 177.788,351.6481 181.2113,349.7759 184.6345,347.4356 194.9042,336.2021 198.3275,337.6063 201.7507,338.0744 205.174,331.0534 208.5972,324.5006 218.8669,317.0116 222.2902,323.5645 225.7134,317.4797 229.1366,310.9268 232.5599,309.0546 242.8296,295.0128 246.2528,305.7782 249.6761,300.1615 253.0993,287.5238 256.5226,269.2695 266.7923,245.8664 270.2155,247.2706 273.6387,244.4622 277.062,222.9315 280.4852,218.7189 290.7549,155.5307 294.1782,172.849 297.6014,172.849 301.0247,167.7003 304.4479,139.6167 314.7176,148.5098 318.1409,195.3159 321.5641,185.0186 324.9873,171.4448 328.4106,165.8281 338.6803,134.468 342.1035,153.6585 345.5268,140.0847 352.3733,113.8734 362.643,108.2566 366.0662,134.468 369.4894,141.4889 372.9127,112.0011 376.3359,134.9361 386.6056,156.4669 390.0289,173.7851 393.4521,167.7003 396.8754,182.2102 400.2986,160.2113 410.5683,132.5958 413.9916,148.0418 417.4148,171.9129 420.838,163.4878 424.2613,175.6573 434.531,117.1498 437.9542,141.957 441.3775,155.5307 444.8007,132.1277 448.224,117.1498 458.4937,70.3437 461.9169,99.8315 465.3401,111.065 468.7634,95.1509 472.1866,69.8757 482.4563,33.835 485.8796,61.4506 489.3028,84.8536 506.419,32.4308 509.8423,57.7061 513.2655,76.4285 516.6887,56.77 530.3817,57.238 533.8049,82.5133 537.2282,118.0859 540.6514,126.0429 544.0747,98.8954 557.7676,150.8501 561.1908,174.7212 564.6141,164.4239 568.0373,190.6353 578.307,206.0813 581.7303,233.2288 585.1535,240.2497 588.5768,238.3775 592,234.1649" style="fill:none;stroke:rgb(31,119,180);stroke-width:2;stroke-linejoin:bevel" />
  <text dominant-baseline="hanging" text-anchor="middle" transform="translate(313.006,8)" font-family="Segoe UI" font-size="18" font-weight="700" fill="black">Aktive Fälle Stadt Aachen 22.01.2021</text>
  <polygon points="34.012,29.0795 592,29.0795 592,370.947 34.012,370.947" style="fill:none;stroke:black;stroke-width:1" />
  <polygon points="42.012,37.0795 228.483,37.0795 228.483,63.1325 42.012,63.1325" style="fill:none;stroke:none;" />
  <text dominant-baseline="hanging" text-anchor="start" transform="translate(70.012,45.0795)" font-family="Segoe UI" font-size="12" font-weight="400" fill="black">Aktive Fälle Stadt Aachen 22.01.2021</text>
  <polyline points="50.012,50.106 66.012,50.106" style="fill:none;stroke:rgb(31,119,180);stroke-width:2" />
</svg>