<?xml version="1.0" encoding="utf-8" standalone="no"?>
<!DOCTYPE svg PUBLIC "-//W3C//DTD SVG 1.1//EN" "http://www.w3.org/Graphics/SVG/1.1/DTD/svg11.dtd">
<svg width="600" height="400" version="1.1" xmlns:xlink="http://www.w3.org/1999/xlink" xmlns="http://www.w3.org/2000/svg">
  <rect x="0" y="0" width="600" height="400" style="fill:rgb(255,255,255);stroke:none;" />
  <polyline points="39.016,355.4216 35.016,355.4216" style="fill:none;stroke:black;stroke-width:1" />
  <polyline points="39.016,328.8023 35.016,328.8023" style="fill:none;stroke:black;stroke-width:1" />
  <polyline points="39.016,302.183 35.016,302.183" style="fill:none;stroke:black;stroke-width:1" />
  <polyline points="39.016,275.5637 35.016,275.5637" style="fill:none;stroke:black;stroke-width:1" />
  <polyline points="39.016,222.3251 35.016,222.3251" style="fill:none;stroke:black;stroke-width:1" />
  <polyline points="39.016,195.7057 35.016,195.7057" style="fill:none;stroke:black;stroke-width:1" />
  <polyline points="39.016,169.0864 35.016,169.0864" style="fill:none;stroke:black;stroke-width:1" />
  <polyline points="39.016,142.4671 35.016,142.4671" style="fill:none;stroke:black;stroke-width:1" />
  <polyline points="39.016,89.2285 35.016,89.2285" style="fill:none;stroke:black;stroke-width:1" />
  <polyline points="39.016,62.6092 35.016,62.6092" style="fill:none;stroke:black;stroke-width:1" />
  <polyline points="39.016,35.9899 35.016,35.9899" style="fill:none;stroke:black;stroke-width:1" />
  <text dominant-baseline="middle" text-anchor="end" transform="translate(28.016,248.9444)" font-family="Segoe UI" font-size="12" font-weight="400" fill="black">500</text>
  <text dominant-baseline="middle" text-anchor="end" transform="translate(28.016,115.8478)" font-family="Segoe UI" font-size="12" font-weight="400" fill="black">1000</text>
  <polyline points="39.016,248.9444 32.016,248.9444" style="fill:none;stroke:black;stroke-width:1" />
  <polyline points="39.016,115.8478 32.016,115.8478" style="fill:none;stroke:black;stroke-width:1" />
  <polyline points="39.016,296.5929 591.6172,374.0551 591.6187,371.6594 591.6262,371.9256 591.6269,374.0551 591.6314,375.6523 591.6322,376.4509 591.6389,375.1199 591.6397,374.0551 591.6419,371.3932 591.6427,369.5298 591.6434,366.8679 591.6502,366.0693 591.6524,359.6807 591.6539,360.7455 591.6546,356.7526 591.6554,353.0259 591.6576,348.7668 591.6584,352.4935 591.6591,349.033 591.6599,345.3063 591.6606,344.2415 591.6629,336.2557 591.6636,342.3781 591.6644,339.1838 591.6651,331.9966 591.6659,321.6151 591.6681,308.3054 591.6696,307.5068 591.6704,295.262 591.6711,292.8662 591.6734,256.9302 591.6741,266.7793 591.6749,266.7793 591.6756,263.8512 591.6764,247.8796 591.6786,252.9373 591.6794,279.5566 591.6801,273.7003 591.6809,265.9807 591.6816,262.7864 591.6839,244.9515 591.6846,255.8654 591.6854,248.1458 591.6869,233.239 591.6891,230.0447 591.6899,244.9515 591.6906,248.9444 591.6914,232.1742 591.6921,245.2177 591.6944,257.4625 591.6951,267.3117 591.6958,263.8512 591.6966,272.1032 591.6973,259.5921 591.6996,243.8867 591.7003,252.6711 591.7011,266.2469 591.7018,261.4554 591.7026,268.3765 591.7048,235.1023 591.7056,249.2106 591.7063,256.9302 591.7071,243.6205 591.7078,235.1023 591.7101,208.483 591.7108,225.2532 591.7116,231.6418 591.7123,222.5912 591.7131,208.2168 591.7153,187.7199 591.7161,203.4253 591.7168,216.735 591.7206,186.9214 591.7213,201.2958 591.7221,211.9435 591.7228,200.7634 591.7258,201.0296 591.7266,215.404 591.7273,235.6347 591.7281,240.16 591.7288,224.7208 591.7318,254.2682 591.7326,267.8441 591.7333,261.9878 591.7341,276.8946 591.7363,285.679 591.7371,301.1182 591.7378,305.1111 591.7386,304.0463 591.7393,301.6506 591.7415,301.3844 591.743,307.5068 591.7438,296.3267 591.7445,289.1395 591.7468,290.2043 591.7475,302.4492 591.7483,313.0969 591.749,308.0392 591.7498,308.0392 591.752,317.6222 591.7528,324.5432 591.7535,320.5503 591.7543,312.5645 591.755,304.5787 591.7573,310.435 591.758,330.1333 591.7588,329.0685 591.7595,323.4784 591.7603,335.4571 591.7625,340.5148 591.7633,345.3063 591.764,342.112 591.7678,343.7091 591.7685,350.3639 591.7693,345.8387 591.77,331.4642 591.7708,330.6657 591.773,319.7517 591.7738,319.7517 591.7745,315.4926 591.7753,308.8378 591.776,300.5858 591.7783,294.9958 591.7798,296.3267 591.7805,279.5566 591.7813,268.1103 591.7835,254.002 591.785,255.333 591.7857,236.9657 591.7865,233.5052 591.7887,231.1094 591.7895,250.0091 591.7902,253.7358 591.791,247.3472 591.7917,227.9151 591.7947,215.9364 591.7955,218.066 591.7962,198.6339 591.797,194.3748 591.7992,189.5833 591.8,190.9143 591.8007,176.2736 591.8015,165.3597 591.8022,167.4893 591.8045,153.9134 591.8052,149.9205 591.806,131.287 591.8067,107.5958 591.8075,97.4805 591.8097,105.7325 591.8105,111.5887 591.8112,125.697 591.812,135.2799 591.8127,129.956 591.815,162.1654 591.8157,158.7049 591.8165,175.4751 591.8172,182.9285 591.818,194.3748 591.8202,194.9072 591.821,217.2674 591.8217,213.0083 591.8232,225.2532 591.8255,214.0731 591.8262,225.5194 591.8269,226.0518 591.8277,221.2603 591.8284,224.987 591.8314,248.6782 591.8322,264.916 591.8329,270.7722 591.8337,266.5131 591.8359,288.8733 591.8367,306.1759 591.8374,312.0321 591.8389,322.6799 591.8412,329.8671 591.8419,335.9895 591.8427,345.0401 591.8434,348.2344 591.8442,352.2273 591.8472,352.4935 591.8479,361.8102 591.8517,363.4074 591.8524,364.4722 591.8569,366.3355 591.8577,367.9327 591.8584,367.6665 591.8592,365.8031 591.8599,366.8679 591.8622,367.9327 591.8689,367.1341 591.8704,361.8102 591.8741,353.2921 591.8756,343.4429 591.8794,341.5796 591.8809,336.2557 591.8846,342.6443 591.8861,339.9824 591.8899,328.0037 591.8914,308.8378 591.8951,296.5929 591.8966,285.1466 591.9004,260.6569 591.9019,258.2611 591.9056,257.9949 591.9071,256.1316 591.9124,265.7145 591.9176,280.089 591.9213,294.9958 591.9228,297.3915 591.9266,305.9097 591.9281,310.435 591.9318,321.0827 591.9333,322.1475 591.9371,326.4066 591.9423,326.6728 591.9438,317.356 591.9476,304.0463 591.9491,273.7003 591.9528,263.585 591.9543,234.5699 591.958,208.7492 591.9595,176.806 591.9633,147.2586 591.9648,128.3589 591.9685,85.768 591.97,51.9615 591.9738,33.3279 591.979,37.8532 591.9805,38.3856 591.9843,66.0697 591.9858,53.2924 592,32.5294" style="fill:none;stroke:rgb(31,119,180);stroke-width:2;stroke-linejoin:bevel" />
  <text dominant-baseline="hanging" text-anchor="middle" transform="translate(315.508,8)" font-family="Segoe UI" font-size="18" font-weight="700" fill="black">Aktive Fälle Stadt Aachen 05.01.2022</text>
  <polygon points="39.016,29.0795 592,29.0795 592,381 39.016,381" style="fill:none;stroke:black;stroke-width:1" />
  <polygon points="47.016,37.0795 233.487,37.0795 233.487,63.1325 47.016,63.1325" style="fill:none;stroke:none;" />
  <text dominant-baseline="hanging" text-anchor="start" transform="translate(75.016,45.0795)" font-family="Segoe UI" font-size="12" font-weight="400" fill="black">Aktive Fälle Stadt Aachen 05.01.2022</text>
  <polyline points="55.016,50.106 71.016,50.106" style="fill:none;stroke:rgb(31,119,180);stroke-width:2" />
</svg>