<?xml version="1.0" encoding="utf-8" standalone="no"?>
<!DOCTYPE svg PUBLIC "-//W3C//DTD SVG 1.1//EN" "http://www.w3.org/Graphics/SVG/1.1/DTD/svg11.dtd">
<svg width="600" height="400" version="1.1" xmlns:xlink="http://www.w3.org/1999/xlink" xmlns="http://www.w3.org/2000/svg">
  <rect x="0" y="0" width="600" height="400" style="fill:rgb(255,255,255);stroke:none;" />
  <polyline points="39.016,357.0495 35.016,357.0495" style="fill:none;stroke:black;stroke-width:1" />
  <polyline points="39.016,341.1212 35.016,341.1212" style="fill:none;stroke:black;stroke-width:1" />
  <polyline points="39.016,325.1929 35.016,325.1929" style="fill:none;stroke:black;stroke-width:1" />
  <polyline points="39.016,293.3363 35.016,293.3363" style="fill:none;stroke:black;stroke-width:1" />
  <polyline points="39.016,277.408 35.016,277.408" style="fill:none;stroke:black;stroke-width:1" />
  <polyline points="39.016,261.4797 35.016,261.4797" style="fill:none;stroke:black;stroke-width:1" />
  <polyline points="39.016,229.6231 35.016,229.6231" style="fill:none;stroke:black;stroke-width:1" />
  <polyline points="39.016,213.6948 35.016,213.6948" style="fill:none;stroke:black;stroke-width:1" />
  <polyline points="39.016,197.7665 35.016,197.7665" style="fill:none;stroke:black;stroke-width:1" />
  <polyline points="39.016,165.9099 35.016,165.9099" style="fill:none;stroke:black;stroke-width:1" />
  <polyline points="39.016,149.9816 35.016,149.9816" style="fill:none;stroke:black;stroke-width:1" />
  <polyline points="39.016,134.0533 35.016,134.0533" style="fill:none;stroke:black;stroke-width:1" />
  <polyline points="39.016,102.1968 35.016,102.1968" style="fill:none;stroke:black;stroke-width:1" />
  <polyline points="39.016,86.2685 35.016,86.2685" style="fill:none;stroke:black;stroke-width:1" />
  <polyline points="39.016,70.3402 35.016,70.3402" style="fill:none;stroke:black;stroke-width:1" />
  <polyline points="39.016,38.4836 35.016,38.4836" style="fill:none;stroke:black;stroke-width:1" />
  <polyline points="74.8078,370.947 74.8078,374.947" style="fill:none;stroke:black;stroke-width:1" />
  <polyline points="183.973,370.947 183.973,374.947" style="fill:none;stroke:black;stroke-width:1" />
  <polyline points="293.1381,370.947 293.1381,374.947" style="fill:none;stroke:black;stroke-width:1" />
  <polyline points="398.724,370.947 398.724,374.947" style="fill:none;stroke:black;stroke-width:1" />
  <polyline points="507.8892,370.947 507.8892,374.947" style="fill:none;stroke:black;stroke-width:1" />
  <text dominant-baseline="middle" text-anchor="end" transform="translate(28.016,309.2646)" font-family="Segoe UI" font-size="12" font-weight="400" fill="black">200</text>
  <text dominant-baseline="middle" text-anchor="end" transform="translate(28.016,245.5514)" font-family="Segoe UI" font-size="12" font-weight="400" fill="black">400</text>
  <text dominant-baseline="middle" text-anchor="end" transform="translate(28.016,181.8382)" font-family="Segoe UI" font-size="12" font-weight="400" fill="black">600</text>
  <text dominant-baseline="middle" text-anchor="end" transform="translate(28.016,118.125)" font-family="Segoe UI" font-size="12" font-weight="400" fill="black">800</text>
  <text dominant-baseline="middle" text-anchor="end" transform="translate(28.016,54.4119)" font-family="Segoe UI" font-size="12" font-weight="400" fill="black">1000</text>
  <polyline points="39.016,309.2646 32.016,309.2646" style="fill:none;stroke:black;stroke-width:1" />
  <polyline points="39.016,245.5514 32.016,245.5514" style="fill:none;stroke:black;stroke-width:1" />
  <polyline points="39.016,181.8382 32.016,181.8382" style="fill:none;stroke:black;stroke-width:1" />
  <polyline points="39.016,118.125 32.016,118.125" style="fill:none;stroke:black;stroke-width:1" />
  <polyline points="39.016,54.4119 32.016,54.4119" style="fill:none;stroke:black;stroke-width:1" />
  <text dominant-baseline="hanging" text-anchor="middle" transform="translate(128.4956,381.947)" font-family="Segoe UI" font-size="12" font-weight="400" fill="black">01. October</text>
  <text dominant-baseline="hanging" text-anchor="middle" transform="translate(237.6607,381.947)" font-family="Segoe UI" font-size="12" font-weight="400" fill="black">01. December</text>
  <text dominant-baseline="hanging" text-anchor="middle" transform="translate(348.6155,381.947)" font-family="Segoe UI" font-size="12" font-weight="400" fill="black">01. February</text>
  <text dominant-baseline="hanging" text-anchor="middle" transform="translate(454.2014,381.947)" font-family="Segoe UI" font-size="12" font-weight="400" fill="black">01. April</text>
  <text dominant-baseline="hanging" text-anchor="middle" transform="translate(563.3665,381.947)" font-family="Segoe UI" font-size="12" font-weight="400" fill="black">01. June</text>
  <polyline points="128.4956,370.947 128.4956,377.947" style="fill:none;stroke:black;stroke-width:1" />
  <polyline points="237.6607,370.947 237.6607,377.947" style="fill:none;stroke:black;stroke-width:1" />
  <polyline points="348.6155,370.947 348.6155,377.947" style="fill:none;stroke:black;stroke-width:1" />
  <polyline points="454.2014,370.947 454.2014,377.947" style="fill:none;stroke:black;stroke-width:1" />
  <polyline points="563.3665,370.947 563.3665,377.947" style="fill:none;stroke:black;stroke-width:1" />
  <polyline points="39.016,363.4208 42.5952,360.5537 47.964,362.4651 49.7536,360.5537 51.5431,361.828 53.3327,360.2352 55.1223,360.5537 60.4911,360.8723 62.2807,363.4208 64.0703,363.7394 65.8599,363.1023 67.6495,363.1023 73.0183,365.3322 74.8078,366.2879 76.5974,366.2879 78.387,365.6508 80.1766,365.9693 85.5454,365.9693 87.335,367.5622 89.1246,366.6065 90.9142,364.6951 92.7038,363.4208 98.0725,360.2352 99.8621,358.0052 101.6517,354.8195 103.4413,354.501 105.2309,353.5453 110.5997,356.4124 112.3893,357.0495 114.1789,356.7309 115.9685,355.4567 117.7581,353.8638 123.1268,346.2183 124.9164,347.174 126.706,347.4925 128.4956,342.714 130.2852,338.2541 135.654,333.1571 137.4436,337.617 139.2332,333.4756 141.0228,329.0157 142.8123,327.7414 148.1811,318.1845 149.9707,325.5115 151.7603,321.6887 153.5499,313.0874 155.3395,300.6633 160.7083,284.735 162.4979,285.6907 164.2875,283.7793 166.077,269.1253 167.8666,266.2582 173.2354,223.2518 175.025,235.0387 176.8146,235.0387 178.6042,231.5345 180.3938,212.4206 185.7626,218.4733 187.5522,250.3299 189.3417,243.3215 191.1313,234.083 192.9209,230.2603 198.2897,208.9163 200.0793,221.9775 201.8689,212.7391 205.4481,194.8994 210.8169,191.0766 212.6064,208.9163 214.396,213.6948 216.1856,193.6252 217.9752,209.2349 223.344,223.8889 225.1336,235.6759 226.9232,231.5345 228.7128,241.4101 230.5024,226.4375 235.8711,207.6421 237.6607,218.1548 239.4503,234.4016 241.2399,228.6674 243.0295,236.9501 248.3983,197.1294 250.1879,214.0134 251.9775,223.2518 253.7671,207.3235 255.5567,197.1294 260.9254,165.2728 262.715,185.3425 264.5046,192.988 266.2942,182.1568 268.0838,164.9542 273.4526,140.4247 275.2422,159.2201 277.0318,175.1484 285.9797,139.469 287.7693,156.6715 289.5589,169.4142 291.3485,156.0344 298.5069,156.353 300.2965,173.5555 302.0861,197.7665 303.8757,203.1822 305.6652,184.7053 312.8236,220.0661 314.6132,236.313 316.4028,229.3046 318.1924,247.1443 323.5612,257.6569 325.3508,276.1338 327.1403,280.9122 328.9299,279.638 330.7195,276.7709 336.0883,276.4523 339.6675,283.7793 341.4571,270.3996 343.2467,261.7983 348.6155,263.0725 350.405,277.7266 352.1946,290.4692 353.9842,284.4165 355.7738,284.4165 361.1426,295.8848 362.9322,304.1676 364.7218,299.3891 366.5114,289.8321 368.301,280.2751 373.6697,287.2836 375.4593,310.8574 377.2489,309.5832 379.0385,302.8933 380.8281,317.2288 386.1969,323.2815 387.9865,329.0157 389.7761,325.1929 391.5657,323.9186 393.3553,325.5115 398.724,327.1043 400.5136,335.0684 402.3032,329.6528 404.0928,312.4503 405.8824,311.4946 411.2512,298.4334 413.0408,298.4334 414.8304,293.3363 416.62,285.3722 418.4096,275.4966 423.7783,268.8067 425.5679,269.7624 427.3575,270.3996 429.1471,250.3299 430.9367,236.6316 436.3055,219.7476 438.0951,220.0661 439.8847,221.3404 441.6743,199.3594 443.4638,195.218 448.8326,192.3509 450.6222,214.9691 452.4118,219.429 454.2014,211.7834 455.991,188.5281 463.1494,174.1927 464.939,176.7412 466.7285,153.4859 468.5181,148.3888 473.8869,142.6546 475.6765,144.2475 477.4661,126.7263 479.2557,113.6651 481.0453,116.2137 486.4141,99.9668 488.2037,95.1883 489.9932,72.8887 491.7828,44.5363 493.5724,32.4308 498.9412,42.3064 500.7308,49.3148 502.5204,66.1988 504.31,77.6672 506.0996,71.2959 511.4683,109.8423 513.2579,105.701 515.0475,125.7706 516.8371,134.6905 518.6267,148.3888 523.9955,149.0259 525.7851,175.7855 527.5747,170.6884 531.1539,185.3425 536.5226,171.9627 538.3122,185.661 540.1018,186.2982 541.8914,180.564 543.681,185.0239 550.8394,213.3763 552.629,232.8088 554.4186,239.8172 556.2082,234.7202 561.5769,261.4797 563.3665,282.1865 565.1561,289.195 568.7353,301.9376 574.1041,310.5389 575.8937,317.8659 577.6833,328.6971 579.4729,332.5199 581.2624,337.2984 586.6312,338.5727 588.4208,337.617 590.2104,348.7668 592,348.1297" style="fill:none;stroke:rgb(31,119,180);stroke-width:2;stroke-linejoin:bevel" />
  <text dominant-baseline="hanging" text-anchor="middle" transform="translate(315.508,8)" font-family="Segoe UI" font-size="18" font-weight="700" fill="black">Aktive Fälle Stadt Aachen 17.06.2021</text>
  <polygon points="39.016,29.0795 592,29.0795 592,370.947 39.016,370.947" style="fill:none;stroke:black;stroke-width:1" />
  <polygon points="47.016,37.0795 233.487,37.0795 233.487,63.1325 47.016,63.1325" style="fill:none;stroke:none;" />
  <text dominant-baseline="hanging" text-anchor="start" transform="translate(75.016,45.0795)" font-family="Segoe UI" font-size="12" font-weight="400" fill="black">Aktive Fälle Stadt Aachen 17.06.2021</text>
  <polyline points="55.016,50.106 71.016,50.106" style="fill:none;stroke:rgb(31,119,180);stroke-width:2" />
</svg>