<?xml version="1.0" encoding="utf-8" standalone="no"?>
<!DOCTYPE svg PUBLIC "-//W3C//DTD SVG 1.1//EN" "http://www.w3.org/Graphics/SVG/1.1/DTD/svg11.dtd">
<svg width="600" height="400" version="1.1" xmlns:xlink="http://www.w3.org/1999/xlink" xmlns="http://www.w3.org/2000/svg">
  <rect x="0" y="0" width="600" height="400" style="fill:rgb(255,255,255);stroke:none;" />
  <polyline points="34.012,362.4131 30.012,362.4131" style="fill:none;stroke:black;stroke-width:1" />
  <polyline points="34.012,348.003 30.012,348.003" style="fill:none;stroke:black;stroke-width:1" />
  <polyline points="34.012,333.5929 30.012,333.5929" style="fill:none;stroke:black;stroke-width:1" />
  <polyline points="34.012,319.1829 30.012,319.1829" style="fill:none;stroke:black;stroke-width:1" />
  <polyline points="34.012,290.3627 30.012,290.3627" style="fill:none;stroke:black;stroke-width:1" />
  <polyline points="34.012,275.9527 30.012,275.9527" style="fill:none;stroke:black;stroke-width:1" />
  <polyline points="34.012,261.5426 30.012,261.5426" style="fill:none;stroke:black;stroke-width:1" />
  <polyline points="34.012,247.1325 30.012,247.1325" style="fill:none;stroke:black;stroke-width:1" />
  <polyline points="34.012,218.3124 30.012,218.3124" style="fill:none;stroke:black;stroke-width:1" />
  <polyline points="34.012,203.9023 30.012,203.9023" style="fill:none;stroke:black;stroke-width:1" />
  <polyline points="34.012,189.4922 30.012,189.4922" style="fill:none;stroke:black;stroke-width:1" />
  <polyline points="34.012,175.0822 30.012,175.0822" style="fill:none;stroke:black;stroke-width:1" />
  <polyline points="34.012,146.262 30.012,146.262" style="fill:none;stroke:black;stroke-width:1" />
  <polyline points="34.012,131.852 30.012,131.852" style="fill:none;stroke:black;stroke-width:1" />
  <polyline points="34.012,117.4419 30.012,117.4419" style="fill:none;stroke:black;stroke-width:1" />
  <polyline points="34.012,103.0318 30.012,103.0318" style="fill:none;stroke:black;stroke-width:1" />
  <polyline points="34.012,74.2117 30.012,74.2117" style="fill:none;stroke:black;stroke-width:1" />
  <polyline points="34.012,59.8016 30.012,59.8016" style="fill:none;stroke:black;stroke-width:1" />
  <polyline points="34.012,45.3915 30.012,45.3915" style="fill:none;stroke:black;stroke-width:1" />
  <polyline points="34.012,30.9815 30.012,30.9815" style="fill:none;stroke:black;stroke-width:1" />
  <polyline points="58.1111,370.947 58.1111,374.947" style="fill:none;stroke:black;stroke-width:1" />
  <polyline points="171.1918,370.947 171.1918,374.947" style="fill:none;stroke:black;stroke-width:1" />
  <polyline points="284.2724,370.947 284.2724,374.947" style="fill:none;stroke:black;stroke-width:1" />
  <polyline points="393.6455,370.947 393.6455,374.947" style="fill:none;stroke:black;stroke-width:1" />
  <polyline points="506.7261,370.947 506.7261,374.947" style="fill:none;stroke:black;stroke-width:1" />
  <text dominant-baseline="middle" text-anchor="end" transform="translate(23.012,304.7728)" font-family="Segoe UI" font-size="12" font-weight="400" fill="black">50</text>
  <text dominant-baseline="middle" text-anchor="end" transform="translate(23.012,232.7224)" font-family="Segoe UI" font-size="12" font-weight="400" fill="black">100</text>
  <text dominant-baseline="middle" text-anchor="end" transform="translate(23.012,160.6721)" font-family="Segoe UI" font-size="12" font-weight="400" fill="black">150</text>
  <text dominant-baseline="middle" text-anchor="end" transform="translate(23.012,88.6218)" font-family="Segoe UI" font-size="12" font-weight="400" fill="black">200</text>
  <polyline points="34.012,304.7728 27.012,304.7728" style="fill:none;stroke:black;stroke-width:1" />
  <polyline points="34.012,232.7224 27.012,232.7224" style="fill:none;stroke:black;stroke-width:1" />
  <polyline points="34.012,160.6721 27.012,160.6721" style="fill:none;stroke:black;stroke-width:1" />
  <polyline points="34.012,88.6218 27.012,88.6218" style="fill:none;stroke:black;stroke-width:1" />
  <text dominant-baseline="hanging" text-anchor="middle" transform="translate(113.7246,381.947)" font-family="Segoe UI" font-size="12" font-weight="400" fill="black">01. October</text>
  <text dominant-baseline="hanging" text-anchor="middle" transform="translate(226.8052,381.947)" font-family="Segoe UI" font-size="12" font-weight="400" fill="black">01. December</text>
  <text dominant-baseline="hanging" text-anchor="middle" transform="translate(341.7396,381.947)" font-family="Segoe UI" font-size="12" font-weight="400" fill="black">01. February</text>
  <text dominant-baseline="hanging" text-anchor="middle" transform="translate(451.1127,381.947)" font-family="Segoe UI" font-size="12" font-weight="400" fill="black">01. April</text>
  <text dominant-baseline="hanging" text-anchor="middle" transform="translate(564.1933,381.947)" font-family="Segoe UI" font-size="12" font-weight="400" fill="black">01. June</text>
  <polyline points="113.7246,370.947 113.7246,377.947" style="fill:none;stroke:black;stroke-width:1" />
  <polyline points="226.8052,370.947 226.8052,377.947" style="fill:none;stroke:black;stroke-width:1" />
  <polyline points="341.7396,370.947 341.7396,377.947" style="fill:none;stroke:black;stroke-width:1" />
  <polyline points="451.1127,370.947 451.1127,377.947" style="fill:none;stroke:black;stroke-width:1" />
  <polyline points="564.1933,370.947 564.1933,377.947" style="fill:none;stroke:black;stroke-width:1" />
  <polyline points="34.012,356.4795 35.8658,356.0557 37.7196,362.1305 43.2809,358.1748 45.1347,362.1305 46.9885,362.6956 48.8422,363.2607 50.696,362.1305 56.2574,366.6513 58.1111,364.956 59.9649,365.5211 61.8187,364.956 63.6725,364.956 69.2338,365.5211 71.0876,367.2164 72.9414,365.5211 74.7952,364.956 76.649,362.6956 82.2103,356.4795 84.0641,351.9587 85.9179,346.8728 87.7716,346.3077 89.6254,341.7869 95.1868,347.4379 97.0405,348.003 98.8943,351.9587 100.7481,350.2634 102.6019,351.3936 108.1632,335.5708 110.017,336.1359 111.8708,335.0057 113.7246,324.8339 115.5784,319.1829 121.1397,312.4017 122.9935,313.5319 124.8473,305.6204 126.701,304.4718 128.5548,307.3659 134.1162,292.3168 135.9699,290.5804 137.8237,285.3711 139.6775,274.9525 141.5313,252.9577 147.0926,230.3841 148.9464,225.7536 150.8002,221.7019 152.654,202.6011 154.5077,202.0223 160.0691,137.1955 161.9229,131.9862 163.7767,129.0922 165.6304,131.4074 167.4842,98.4152 173.0456,118.0948 174.8993,107.6762 176.7531,108.8338 178.6069,101.3093 180.4607,119.2524 186.022,90.8907 187.8758,84.5238 189.7296,58.4773 193.4371,32.4308 198.9985,61.3713 200.8523,75.8416 202.706,84.5238 204.5598,65.3507 206.4136,120.41 211.975,167.2937 213.8287,150.5082 215.6825,153.4022 217.5363,208.3892 219.3901,185.8156 224.9514,188.7097 226.8052,213.5985 228.659,225.7536 230.5128,197.9707 232.3665,202.0223 237.9279,178.8699 239.7817,181.1851 241.6354,179.4487 243.4892,151.087 245.343,173.0818 250.9043,153.981 252.7581,144.1413 254.6119,132.5651 256.4657,145.2989 258.3195,134.3015 263.8808,116.3584 265.7346,116.9372 267.5884,140.6684 276.8573,156.8751 278.7111,154.5599 280.5648,134.3015 282.4186,136.255 289.8337,211.2833 291.6875,235.0145 293.5413,250.6424 295.3951,236.751 297.2489,215.7691 304.664,192.7614 306.5178,195.0766 308.3715,217.0714 310.2253,247.1696 315.7867,255.6781 317.6405,275.5313 319.4942,266.8491 321.348,284.7923 323.2018,285.3711 328.7631,272.0584 332.4707,279.583 334.3245,259.3246 336.1783,247.7484 341.7396,263.9551 343.5934,278.0636 345.4472,272.0584 347.3009,279.583 349.1547,290.5804 354.7161,293.4744 356.5698,290.5804 358.4236,274.9525 360.2774,276.1101 362.1312,269.1644 367.6925,283.6346 369.5463,285.3711 371.4001,306.2082 373.2539,313.154 375.1077,329.3607 380.669,329.3607 382.5228,330.5183 384.3766,321.2573 386.2303,321.8361 388.0841,317.2056 393.6455,328.7819 395.4992,327.6242 397.353,323.5726 399.2068,300.4201 401.0606,294.632 406.6219,265.1127 408.4757,265.1127 410.3295,263.3763 412.1833,278.4253 414.037,272.0584 419.5984,261.6398 421.4522,262.2186 423.306,254.6941 425.1597,226.3324 427.0135,208.3892 432.5749,200.2859 434.4286,199.7071 436.2824,204.3376 438.1362,192.7614 439.99,205.4952 445.5513,224.0171 447.4051,220.5443 449.2589,227.49 451.1127,243.6967 452.9664,218.229 460.3816,204.9164 462.2353,219.9655 464.0891,201.4435 465.9429,235.0145 471.5043,225.6957 473.358,215.9138 475.2118,167.8725 477.0656,188.7097 478.9194,184.658 484.4807,175.9759 486.3345,156.8751 488.1883,162.0844 490.0421,148.1929 491.8958,123.8829 497.4572,104.7821 499.311,120.9888 501.1647,135.4591 503.0185,129.671 504.8723,132.5651 510.4336,158.6115 512.2874,146.4565 514.1412,140.0896 515.995,173.6606 517.8488,193.919 523.4101,203.7588 525.2639,213.0197 527.1177,225.7536 530.8252,193.3402 536.3866,196.2342 538.2404,181.764 540.0941,175.9759 541.9479,180.3169 543.8017,215.9138 551.2168,263.9551 553.0706,288.8439 554.9244,298.6837 556.7782,302.1566 562.3395,309.9705 564.1933,314.8904 566.0471,313.7328 569.7546,334.57 575.316,350.1979 577.1698,355.4071 579.0235,360.0376 580.8773,359.0971 582.7311,364.6681 588.2924,367.5622 590.1462,366.4046 592,366.4046" style="fill:none;stroke:rgb(31,119,180);stroke-width:2;stroke-linejoin:bevel" />
  <text dominant-baseline="hanging" text-anchor="middle" transform="translate(313.006,8)" font-family="Segoe UI" font-size="18" font-weight="700" fill="black">7-Tage-Inzidenz Stadt Aachen 16.06.2021</text>
  <polygon points="34.012,29.0795 592,29.0795 592,370.947 34.012,370.947" style="fill:none;stroke:black;stroke-width:1" />
  <polygon points="42.012,37.0795 247.014,37.0795 247.014,63.1325 42.012,63.1325" style="fill:none;stroke:none;" />
  <text dominant-baseline="hanging" text-anchor="start" transform="translate(70.012,45.0795)" font-family="Segoe UI" font-size="12" font-weight="400" fill="black">7-Tage-Inzidenz Stadt Aachen 16.06.2021</text>
  <polyline points="50.012,50.106 66.012,50.106" style="fill:none;stroke:rgb(31,119,180);stroke-width:2" />
</svg>