<?xml version="1.0" encoding="utf-8" standalone="no"?>
<!DOCTYPE svg PUBLIC "-//W3C//DTD SVG 1.1//EN" "http://www.w3.org/Graphics/SVG/1.1/DTD/svg11.dtd">
<svg width="600" height="400" version="1.1" xmlns:xlink="http://www.w3.org/1999/xlink" xmlns="http://www.w3.org/2000/svg">
  <rect x="0" y="0" width="600" height="400" style="fill:rgb(255,255,255);stroke:none;" />
  <polyline points="34.012,362.7539 30.012,362.7539" style="fill:none;stroke:black;stroke-width:1" />
  <polyline points="34.012,348.3289 30.012,348.3289" style="fill:none;stroke:black;stroke-width:1" />
  <polyline points="34.012,333.904 30.012,333.904" style="fill:none;stroke:black;stroke-width:1" />
  <polyline points="34.012,319.479 30.012,319.479" style="fill:none;stroke:black;stroke-width:1" />
  <polyline points="34.012,290.6291 30.012,290.6291" style="fill:none;stroke:black;stroke-width:1" />
  <polyline points="34.012,276.2041 30.012,276.2041" style="fill:none;stroke:black;stroke-width:1" />
  <polyline points="34.012,261.7792 30.012,261.7792" style="fill:none;stroke:black;stroke-width:1" />
  <polyline points="34.012,247.3542 30.012,247.3542" style="fill:none;stroke:black;stroke-width:1" />
  <polyline points="34.012,218.5043 30.012,218.5043" style="fill:none;stroke:black;stroke-width:1" />
  <polyline points="34.012,204.0794 30.012,204.0794" style="fill:none;stroke:black;stroke-width:1" />
  <polyline points="34.012,189.6544 30.012,189.6544" style="fill:none;stroke:black;stroke-width:1" />
  <polyline points="34.012,175.2295 30.012,175.2295" style="fill:none;stroke:black;stroke-width:1" />
  <polyline points="34.012,146.3796 30.012,146.3796" style="fill:none;stroke:black;stroke-width:1" />
  <polyline points="34.012,131.9546 30.012,131.9546" style="fill:none;stroke:black;stroke-width:1" />
  <polyline points="34.012,117.5297 30.012,117.5297" style="fill:none;stroke:black;stroke-width:1" />
  <polyline points="34.012,103.1047 30.012,103.1047" style="fill:none;stroke:black;stroke-width:1" />
  <polyline points="34.012,74.2548 30.012,74.2548" style="fill:none;stroke:black;stroke-width:1" />
  <polyline points="34.012,59.8299 30.012,59.8299" style="fill:none;stroke:black;stroke-width:1" />
  <polyline points="34.012,45.4049 30.012,45.4049" style="fill:none;stroke:black;stroke-width:1" />
  <polyline points="34.012,30.98 30.012,30.98" style="fill:none;stroke:black;stroke-width:1" />
  <text dominant-baseline="middle" text-anchor="end" transform="translate(23.012,305.0541)" font-family="Segoe UI" font-size="12" font-weight="400" fill="black">50</text>
  <text dominant-baseline="middle" text-anchor="end" transform="translate(23.012,232.9293)" font-family="Segoe UI" font-size="12" font-weight="400" fill="black">100</text>
  <text dominant-baseline="middle" text-anchor="end" transform="translate(23.012,160.8045)" font-family="Segoe UI" font-size="12" font-weight="400" fill="black">150</text>
  <text dominant-baseline="middle" text-anchor="end" transform="translate(23.012,88.6798)" font-family="Segoe UI" font-size="12" font-weight="400" fill="black">200</text>
  <polyline points="34.012,305.0541 27.012,305.0541" style="fill:none;stroke:black;stroke-width:1" />
  <polyline points="34.012,232.9293 27.012,232.9293" style="fill:none;stroke:black;stroke-width:1" />
  <polyline points="34.012,160.8045 27.012,160.8045" style="fill:none;stroke:black;stroke-width:1" />
  <polyline points="34.012,88.6798 27.012,88.6798" style="fill:none;stroke:black;stroke-width:1" />
  <text dominant-baseline="hanging" text-anchor="middle" transform="translate(75.7008,381.947)" font-family="Segoe UI" font-size="12" font-weight="400" fill="black">01. September</text>
  <text dominant-baseline="hanging" text-anchor="middle" transform="translate(171.9056,381.947)" font-family="Segoe UI" font-size="12" font-weight="400" fill="black">01. October</text>
  <text dominant-baseline="hanging" text-anchor="middle" transform="translate(271.3172,381.947)" font-family="Segoe UI" font-size="12" font-weight="400" fill="black">01. November</text>
  <text dominant-baseline="hanging" text-anchor="middle" transform="translate(367.5221,381.947)" font-family="Segoe UI" font-size="12" font-weight="400" fill="black">01. December</text>
  <text dominant-baseline="hanging" text-anchor="middle" transform="translate(466.9337,381.947)" font-family="Segoe UI" font-size="12" font-weight="400" fill="black">01. January</text>
  <text dominant-baseline="hanging" text-anchor="middle" transform="translate(566.3454,381.947)" font-family="Segoe UI" font-size="12" font-weight="400" fill="black">01. February</text>
  <polyline points="75.7008,370.947 75.7008,377.947" style="fill:none;stroke:black;stroke-width:1" />
  <polyline points="171.9056,370.947 171.9056,377.947" style="fill:none;stroke:black;stroke-width:1" />
  <polyline points="271.3172,370.947 271.3172,377.947" style="fill:none;stroke:black;stroke-width:1" />
  <polyline points="367.5221,370.947 367.5221,377.947" style="fill:none;stroke:black;stroke-width:1" />
  <polyline points="466.9337,370.947 466.9337,377.947" style="fill:none;stroke:black;stroke-width:1" />
  <polyline points="566.3454,370.947 566.3454,377.947" style="fill:none;stroke:black;stroke-width:1" />
  <polyline points="34.012,356.8142 37.2188,356.3899 40.4257,362.471 50.0461,358.5112 53.253,362.471 56.4598,363.0367 59.6666,363.6024 62.8734,362.471 72.4939,366.9965 75.7008,365.2994 78.9076,365.8651 82.1144,365.2994 85.3212,365.2994 94.9417,365.8651 98.1486,367.5622 101.3554,365.8651 104.5622,365.2994 107.769,363.0367 117.3895,356.8142 120.5963,352.2887 123.8032,347.1975 127.01,346.6319 130.2168,342.1064 139.8373,347.7632 143.0441,348.3289 146.251,352.2887 149.4578,350.5916 152.6646,351.723 162.2851,335.8838 165.4919,336.4495 168.6988,335.3182 171.9056,325.1358 175.1124,319.479 184.7329,312.6908 187.9397,313.8222 191.1466,305.9026 194.3534,304.7528 197.5602,307.6498 207.1807,292.5852 210.3875,290.847 213.5943,285.6323 216.8012,275.2029 220.008,253.1854 229.6285,230.5885 232.8353,225.9532 236.0421,221.8974 239.249,202.7769 242.4558,202.1975 252.0763,137.3037 255.2831,132.0891 258.4899,129.192 261.6968,131.5096 264.9036,98.4834 274.5241,118.1833 277.7309,107.7539 280.9377,108.9127 284.1446,101.3804 287.3514,119.3421 296.9719,90.9511 300.1787,84.5776 303.3855,58.5042 309.7992,32.4308 319.4197,61.4012 322.6265,75.8864 325.8333,84.5776 329.0401,65.3847 332.247,120.5009 341.8674,167.433 345.0743,150.6301 348.2811,153.5272 351.4879,208.571 354.6948,185.974 364.3152,188.8711 367.5221,213.7856 370.7289,225.9532 373.9357,198.1416 377.1426,202.1975 386.763,179.0211 389.9699,181.3388 393.1767,179.6005 396.3835,151.2095 399.5903,173.2271 409.2108,154.1066 412.4177,144.2566 415.6245,132.6685 418.8313,145.4155 422.0381,134.4067 431.6586,116.445 434.8654,117.0244 438.0723,140.7802 454.1064,157.0036 457.3132,154.686 460.5201,134.4067 463.7269,136.3622 476.5542,211.468 479.761,235.2238 482.9679,250.8678 486.1747,236.962 489.3815,215.9584 502.2088,192.9269 505.4157,195.2446 508.6225,217.2621 511.8293,247.3913 521.4498,255.9086 524.6566,275.7823 527.8634,267.0912 531.0703,285.0529 534.2771,285.6323 543.8976,272.3059 550.3112,279.8382 553.5181,259.5589 556.7249,247.9707 566.3454,264.1942 569.5522,278.3173 572.759,272.3059 575.9659,279.8382 579.1727,290.847 588.7932,293.744 592,290.847" style="fill:none;stroke:rgb(31,119,180);stroke-width:2;stroke-linejoin:bevel" />
  <text dominant-baseline="hanging" text-anchor="middle" transform="translate(313.006,8)" font-family="Segoe UI" font-size="18" font-weight="700" fill="black">7-Tage-Inzidenz Stadt Aachen 09.02.2021</text>
  <polygon points="34.012,29.0795 592,29.0795 592,370.947 34.012,370.947" style="fill:none;stroke:black;stroke-width:1" />
  <polygon points="42.012,37.0795 247.014,37.0795 247.014,63.1325 42.012,63.1325" style="fill:none;stroke:none;" />
  <text dominant-baseline="hanging" text-anchor="start" transform="translate(70.012,45.0795)" font-family="Segoe UI" font-size="12" font-weight="400" fill="black">7-Tage-Inzidenz Stadt Aachen 09.02.2021</text>
  <polyline points="50.012,50.106 66.012,50.106" style="fill:none;stroke:rgb(31,119,180);stroke-width:2" />
</svg>