<?xml version="1.0" encoding="utf-8" standalone="no"?>
<!DOCTYPE svg PUBLIC "-//W3C//DTD SVG 1.1//EN" "http://www.w3.org/Graphics/SVG/1.1/DTD/svg11.dtd">
<svg width="600" height="400" version="1.1" xmlns:xlink="http://www.w3.org/1999/xlink" xmlns="http://www.w3.org/2000/svg">
  <rect x="0" y="0" width="600" height="400" style="fill:rgb(255,255,255);stroke:none;" />
  <polyline points="34.012,362.7539 30.012,362.7539" style="fill:none;stroke:black;stroke-width:1" />
  <polyline points="34.012,348.3289 30.012,348.3289" style="fill:none;stroke:black;stroke-width:1" />
  <polyline points="34.012,333.904 30.012,333.904" style="fill:none;stroke:black;stroke-width:1" />
  <polyline points="34.012,319.479 30.012,319.479" style="fill:none;stroke:black;stroke-width:1" />
  <polyline points="34.012,290.6291 30.012,290.6291" style="fill:none;stroke:black;stroke-width:1" />
  <polyline points="34.012,276.2041 30.012,276.2041" style="fill:none;stroke:black;stroke-width:1" />
  <polyline points="34.012,261.7792 30.012,261.7792" style="fill:none;stroke:black;stroke-width:1" />
  <polyline points="34.012,247.3542 30.012,247.3542" style="fill:none;stroke:black;stroke-width:1" />
  <polyline points="34.012,218.5043 30.012,218.5043" style="fill:none;stroke:black;stroke-width:1" />
  <polyline points="34.012,204.0794 30.012,204.0794" style="fill:none;stroke:black;stroke-width:1" />
  <polyline points="34.012,189.6544 30.012,189.6544" style="fill:none;stroke:black;stroke-width:1" />
  <polyline points="34.012,175.2295 30.012,175.2295" style="fill:none;stroke:black;stroke-width:1" />
  <polyline points="34.012,146.3796 30.012,146.3796" style="fill:none;stroke:black;stroke-width:1" />
  <polyline points="34.012,131.9546 30.012,131.9546" style="fill:none;stroke:black;stroke-width:1" />
  <polyline points="34.012,117.5297 30.012,117.5297" style="fill:none;stroke:black;stroke-width:1" />
  <polyline points="34.012,103.1047 30.012,103.1047" style="fill:none;stroke:black;stroke-width:1" />
  <polyline points="34.012,74.2548 30.012,74.2548" style="fill:none;stroke:black;stroke-width:1" />
  <polyline points="34.012,59.8299 30.012,59.8299" style="fill:none;stroke:black;stroke-width:1" />
  <polyline points="34.012,45.4049 30.012,45.4049" style="fill:none;stroke:black;stroke-width:1" />
  <polyline points="34.012,30.98 30.012,30.98" style="fill:none;stroke:black;stroke-width:1" />
  <text dominant-baseline="middle" text-anchor="end" transform="translate(23.012,305.0541)" font-family="Segoe UI" font-size="12" font-weight="400" fill="black">50</text>
  <text dominant-baseline="middle" text-anchor="end" transform="translate(23.012,232.9293)" font-family="Segoe UI" font-size="12" font-weight="400" fill="black">100</text>
  <text dominant-baseline="middle" text-anchor="end" transform="translate(23.012,160.8045)" font-family="Segoe UI" font-size="12" font-weight="400" fill="black">150</text>
  <text dominant-baseline="middle" text-anchor="end" transform="translate(23.012,88.6798)" font-family="Segoe UI" font-size="12" font-weight="400" fill="black">200</text>
  <polyline points="34.012,305.0541 27.012,305.0541" style="fill:none;stroke:black;stroke-width:1" />
  <polyline points="34.012,232.9293 27.012,232.9293" style="fill:none;stroke:black;stroke-width:1" />
  <polyline points="34.012,160.8045 27.012,160.8045" style="fill:none;stroke:black;stroke-width:1" />
  <polyline points="34.012,88.6798 27.012,88.6798" style="fill:none;stroke:black;stroke-width:1" />
  <text dominant-baseline="hanging" text-anchor="middle" transform="translate(67.2865,381.947)" font-family="Segoe UI" font-size="12" font-weight="400" fill="black">01. September</text>
  <text dominant-baseline="hanging" text-anchor="middle" transform="translate(144.0739,381.947)" font-family="Segoe UI" font-size="12" font-weight="400" fill="black">01. October</text>
  <text dominant-baseline="hanging" text-anchor="middle" transform="translate(223.4208,381.947)" font-family="Segoe UI" font-size="12" font-weight="400" fill="black">01. November</text>
  <text dominant-baseline="hanging" text-anchor="middle" transform="translate(300.2081,381.947)" font-family="Segoe UI" font-size="12" font-weight="400" fill="black">01. December</text>
  <text dominant-baseline="hanging" text-anchor="middle" transform="translate(379.555,381.947)" font-family="Segoe UI" font-size="12" font-weight="400" fill="black">01. January</text>
  <text dominant-baseline="hanging" text-anchor="middle" transform="translate(458.9019,381.947)" font-family="Segoe UI" font-size="12" font-weight="400" fill="black">01. February</text>
  <text dominant-baseline="hanging" text-anchor="middle" transform="translate(530.5701,381.947)" font-family="Segoe UI" font-size="12" font-weight="400" fill="black">01. March</text>
  <polyline points="67.2865,370.947 67.2865,377.947" style="fill:none;stroke:black;stroke-width:1" />
  <polyline points="144.0739,370.947 144.0739,377.947" style="fill:none;stroke:black;stroke-width:1" />
  <polyline points="223.4208,370.947 223.4208,377.947" style="fill:none;stroke:black;stroke-width:1" />
  <polyline points="300.2081,370.947 300.2081,377.947" style="fill:none;stroke:black;stroke-width:1" />
  <polyline points="379.555,370.947 379.555,377.947" style="fill:none;stroke:black;stroke-width:1" />
  <polyline points="458.9019,370.947 458.9019,377.947" style="fill:none;stroke:black;stroke-width:1" />
  <polyline points="530.5701,370.947 530.5701,377.947" style="fill:none;stroke:black;stroke-width:1" />
  <polyline points="34.012,356.8142 36.5716,356.3899 39.1312,362.471 46.8099,358.5112 49.3695,362.471 51.929,363.0367 54.4886,363.6024 57.0482,362.471 64.7269,366.9965 67.2865,365.2994 69.8461,365.8651 72.4057,365.2994 74.9652,365.2994 82.644,365.8651 85.2036,367.5622 87.7631,365.8651 90.3227,365.2994 92.8823,363.0367 100.561,356.8142 103.1206,352.2887 105.6802,347.1975 108.2398,346.6319 110.7993,342.1064 118.4781,347.7632 121.0377,348.3289 123.5972,352.2887 126.1568,350.5916 128.7164,351.723 136.3951,335.8838 138.9547,336.4495 141.5143,335.3182 144.0739,325.1358 146.6334,319.479 154.3122,312.6908 156.8717,313.8222 159.4313,305.9026 161.9909,304.7528 164.5505,307.6498 172.2292,292.5852 174.7888,290.847 177.3484,285.6323 179.9079,275.2029 182.4675,253.1854 190.1463,230.5885 192.7058,225.9532 195.2654,221.8974 197.825,202.7769 200.3846,202.1975 208.0633,137.3037 210.6229,132.0891 213.1825,129.192 215.742,131.5096 218.3016,98.4834 225.9803,118.1833 228.5399,107.7539 231.0995,108.9127 233.6591,101.3804 236.2187,119.3421 243.8974,90.9511 246.457,84.5776 249.0166,58.5042 254.1357,32.4308 261.8144,61.4012 264.374,75.8864 266.9336,84.5776 269.4932,65.3847 272.0528,120.5009 279.7315,167.433 282.2911,150.6301 284.8506,153.5272 287.4102,208.571 289.9698,185.974 297.6485,188.8711 300.2081,213.7856 302.7677,225.9532 305.3273,198.1416 307.8868,202.1975 315.5656,179.0211 318.1252,181.3388 320.6847,179.6005 323.2443,151.2095 325.8039,173.2271 333.4826,154.1066 336.0422,144.2566 338.6018,132.6685 341.1614,145.4155 343.7209,134.4067 351.3997,116.445 353.9592,117.0244 356.5188,140.7802 369.3167,157.0036 371.8763,154.686 374.4359,134.4067 376.9954,136.3622 387.2338,211.468 389.7933,235.2238 392.3529,250.8678 394.9125,236.962 397.4721,215.9584 407.7104,192.9269 410.27,195.2446 412.8295,217.2621 415.3891,247.3913 423.0679,255.9086 425.6274,275.7823 428.187,267.0912 430.7466,285.0529 433.3062,285.6323 440.9849,272.3059 446.1041,279.8382 448.6636,259.5589 451.2232,247.9707 458.9019,264.1942 461.4615,278.3173 464.0211,272.3059 466.5807,279.8382 469.1403,290.847 476.819,293.744 479.3786,290.847 481.9381,275.2029 484.4977,276.3617 487.0573,269.4088 494.736,283.8941 497.2956,285.6323 499.8552,306.491 502.4148,313.4439 504.9743,329.6673 512.6531,329.6673 515.2127,330.8261 517.7722,321.5556 520.3318,322.135 522.8914,317.4997 530.5701,329.0879 533.1297,327.9291 535.6893,323.8732 538.2489,300.6969 540.8084,294.9028 548.4872,265.353 551.0468,265.353 553.6063,263.6148 556.1659,278.6794 558.7255,272.3059 566.4042,261.8765 568.9638,262.4559 571.5234,254.9236 574.083,226.5326 576.6425,208.571 584.3213,200.4592 586.8808,199.8798 589.4404,204.5151 592,192.9269" style="fill:none;stroke:rgb(31,119,180);stroke-width:2;stroke-linejoin:bevel" />
  <text dominant-baseline="hanging" text-anchor="middle" transform="translate(313.006,8)" font-family="Segoe UI" font-size="18" font-weight="700" fill="black">7-Tage-Inzidenz Stadt Aachen 25.03.2021</text>
  <polygon points="34.012,29.0795 592,29.0795 592,370.947 34.012,370.947" style="fill:none;stroke:black;stroke-width:1" />
  <polygon points="42.012,37.0795 247.014,37.0795 247.014,63.1325 42.012,63.1325" style="fill:none;stroke:none;" />
  <text dominant-baseline="hanging" text-anchor="start" transform="translate(70.012,45.0795)" font-family="Segoe UI" font-size="12" font-weight="400" fill="black">7-Tage-Inzidenz Stadt Aachen 25.03.2021</text>
  <polyline points="50.012,50.106 66.012,50.106" style="fill:none;stroke:rgb(31,119,180);stroke-width:2" />
</svg>