<?xml version="1.0" encoding="utf-8" standalone="no"?>
<!DOCTYPE svg PUBLIC "-//W3C//DTD SVG 1.1//EN" "http://www.w3.org/Graphics/SVG/1.1/DTD/svg11.dtd">
<svg width="600" height="400" version="1.1" xmlns:xlink="http://www.w3.org/1999/xlink" xmlns="http://www.w3.org/2000/svg">
  <rect x="0" y="0" width="600" height="400" style="fill:rgb(255,255,255);stroke:none;" />
  <polyline points="34.012,358.4713 30.012,358.4713" style="fill:none;stroke:black;stroke-width:1" />
  <polyline points="34.012,344.2334 30.012,344.2334" style="fill:none;stroke:black;stroke-width:1" />
  <polyline points="34.012,329.9954 30.012,329.9954" style="fill:none;stroke:black;stroke-width:1" />
  <polyline points="34.012,315.7575 30.012,315.7575" style="fill:none;stroke:black;stroke-width:1" />
  <polyline points="34.012,287.2816 30.012,287.2816" style="fill:none;stroke:black;stroke-width:1" />
  <polyline points="34.012,273.0437 30.012,273.0437" style="fill:none;stroke:black;stroke-width:1" />
  <polyline points="34.012,258.8058 30.012,258.8058" style="fill:none;stroke:black;stroke-width:1" />
  <polyline points="34.012,244.5678 30.012,244.5678" style="fill:none;stroke:black;stroke-width:1" />
  <polyline points="34.012,216.0919 30.012,216.0919" style="fill:none;stroke:black;stroke-width:1" />
  <polyline points="34.012,201.854 30.012,201.854" style="fill:none;stroke:black;stroke-width:1" />
  <polyline points="34.012,187.6161 30.012,187.6161" style="fill:none;stroke:black;stroke-width:1" />
  <polyline points="34.012,173.3781 30.012,173.3781" style="fill:none;stroke:black;stroke-width:1" />
  <polyline points="34.012,144.9023 30.012,144.9023" style="fill:none;stroke:black;stroke-width:1" />
  <polyline points="34.012,130.6643 30.012,130.6643" style="fill:none;stroke:black;stroke-width:1" />
  <polyline points="34.012,116.4264 30.012,116.4264" style="fill:none;stroke:black;stroke-width:1" />
  <polyline points="34.012,102.1885 30.012,102.1885" style="fill:none;stroke:black;stroke-width:1" />
  <polyline points="34.012,73.7126 30.012,73.7126" style="fill:none;stroke:black;stroke-width:1" />
  <polyline points="34.012,59.4747 30.012,59.4747" style="fill:none;stroke:black;stroke-width:1" />
  <polyline points="34.012,45.2367 30.012,45.2367" style="fill:none;stroke:black;stroke-width:1" />
  <polyline points="34.012,30.9988 30.012,30.9988" style="fill:none;stroke:black;stroke-width:1" />
  <polyline points="56.6803,370.947 56.6803,374.947" style="fill:none;stroke:black;stroke-width:1" />
  <polyline points="163.0467,370.947 163.0467,374.947" style="fill:none;stroke:black;stroke-width:1" />
  <polyline points="269.4132,370.947 269.4132,374.947" style="fill:none;stroke:black;stroke-width:1" />
  <polyline points="372.2922,370.947 372.2922,374.947" style="fill:none;stroke:black;stroke-width:1" />
  <polyline points="478.6587,370.947 478.6587,374.947" style="fill:none;stroke:black;stroke-width:1" />
  <polyline points="585.0252,370.947 585.0252,374.947" style="fill:none;stroke:black;stroke-width:1" />
  <text dominant-baseline="middle" text-anchor="end" transform="translate(23.012,301.5196)" font-family="Segoe UI" font-size="12" font-weight="400" fill="black">50</text>
  <text dominant-baseline="middle" text-anchor="end" transform="translate(23.012,230.3299)" font-family="Segoe UI" font-size="12" font-weight="400" fill="black">100</text>
  <text dominant-baseline="middle" text-anchor="end" transform="translate(23.012,159.1402)" font-family="Segoe UI" font-size="12" font-weight="400" fill="black">150</text>
  <text dominant-baseline="middle" text-anchor="end" transform="translate(23.012,87.9505)" font-family="Segoe UI" font-size="12" font-weight="400" fill="black">200</text>
  <polyline points="34.012,301.5196 27.012,301.5196" style="fill:none;stroke:black;stroke-width:1" />
  <polyline points="34.012,230.3299 27.012,230.3299" style="fill:none;stroke:black;stroke-width:1" />
  <polyline points="34.012,159.1402 27.012,159.1402" style="fill:none;stroke:black;stroke-width:1" />
  <polyline points="34.012,87.9505 27.012,87.9505" style="fill:none;stroke:black;stroke-width:1" />
  <text dominant-baseline="hanging" text-anchor="middle" transform="translate(108.9916,381.947)" font-family="Segoe UI" font-size="12" font-weight="400" fill="black">01. October</text>
  <text dominant-baseline="hanging" text-anchor="middle" transform="translate(215.3581,381.947)" font-family="Segoe UI" font-size="12" font-weight="400" fill="black">01. December</text>
  <text dominant-baseline="hanging" text-anchor="middle" transform="translate(323.4683,381.947)" font-family="Segoe UI" font-size="12" font-weight="400" fill="black">01. February</text>
  <text dominant-baseline="hanging" text-anchor="middle" transform="translate(426.3473,381.947)" font-family="Segoe UI" font-size="12" font-weight="400" fill="black">01. April</text>
  <text dominant-baseline="hanging" text-anchor="middle" transform="translate(532.7138,381.947)" font-family="Segoe UI" font-size="12" font-weight="400" fill="black">01. June</text>
  <polyline points="108.9916,370.947 108.9916,377.947" style="fill:none;stroke:black;stroke-width:1" />
  <polyline points="215.3581,370.947 215.3581,377.947" style="fill:none;stroke:black;stroke-width:1" />
  <polyline points="323.4683,370.947 323.4683,377.947" style="fill:none;stroke:black;stroke-width:1" />
  <polyline points="426.3473,370.947 426.3473,377.947" style="fill:none;stroke:black;stroke-width:1" />
  <polyline points="532.7138,370.947 532.7138,377.947" style="fill:none;stroke:black;stroke-width:1" />
  <polyline points="34.012,352.6086 35.7557,352.1899 37.4994,358.1921 42.7306,354.2837 44.4743,358.1921 46.218,358.7505 47.9617,359.3088 49.7054,358.1921 54.9366,362.6589 56.6803,360.9839 58.424,361.5422 60.1677,360.9839 61.9114,360.9839 67.1425,361.5422 68.8863,363.2173 70.63,361.5422 72.3737,360.9839 74.1174,358.7505 79.3485,352.6086 81.0922,348.1418 82.836,343.1167 84.5797,342.5583 86.3234,338.0915 91.5545,343.675 93.2982,344.2334 95.0419,348.1418 96.7857,346.4668 98.5294,347.5835 103.7605,331.9497 105.5042,332.508 107.2479,331.3913 108.9916,321.341 110.7354,315.7575 115.9665,309.0573 117.7102,310.174 119.4539,302.3571 121.1976,301.2222 122.9413,304.0817 128.1725,289.2124 129.9162,287.4967 131.6599,282.3496 133.4036,272.0555 135.1473,250.3234 140.3785,228.0194 142.1222,223.4443 143.8659,219.441 145.6096,200.5684 147.3533,199.9965 152.5845,135.9441 154.3282,130.797 156.0719,127.9375 157.8156,130.2251 159.5593,97.627 164.7904,117.0715 166.5342,106.7774 168.2779,107.9212 170.0216,100.4865 171.7653,118.2153 176.9964,90.1924 178.7401,83.9015 180.4839,58.1662 183.9713,32.4308 189.2024,61.0256 190.9461,75.3231 192.6898,83.9015 194.4336,64.9574 196.1773,119.3591 201.4084,165.6827 203.1521,149.0977 204.8958,151.9572 206.6395,206.2874 208.3833,183.9834 213.6144,186.8429 215.3581,211.4344 217.1018,223.4443 218.8455,195.9932 220.5892,199.9965 225.8204,177.1206 227.5641,179.4082 229.3078,177.6925 231.0515,149.6696 232.7952,171.4017 238.0264,152.5291 239.7701,142.8068 241.5138,131.3689 243.2575,143.9506 245.0012,133.0846 250.2324,115.3558 251.9761,115.9277 253.7198,139.3755 262.4383,155.3886 264.1821,153.101 265.9258,133.0846 267.6695,135.0148 274.6443,209.1468 276.388,232.5946 278.1318,248.0358 279.8755,234.3103 281.6192,213.579 288.594,190.8461 290.3377,193.1337 292.0815,214.8658 293.8252,244.6044 299.0563,253.0113 300.8,272.6274 302.5437,264.0489 304.2874,281.7777 306.0312,282.3496 311.2623,269.196 314.7497,276.6306 316.4934,256.6142 318.2371,245.1763 323.4683,261.1894 325.212,275.1294 326.9557,269.196 328.6994,276.6306 330.4431,287.4967 335.6743,290.3561 337.418,287.4967 339.1617,272.0555 340.9054,273.1992 342.6491,266.3365 347.8803,280.6339 349.624,282.3496 351.3677,302.9379 353.1114,309.8006 354.8551,325.8137 360.0862,325.8137 361.83,326.9575 363.5737,317.8072 365.3174,318.3791 367.0611,313.8039 372.2922,325.2418 374.0359,324.098 375.7797,320.0948 377.5234,297.2189 379.2671,291.4999 384.4982,262.3332 386.2419,262.3332 387.9856,260.6175 389.7294,275.4868 391.4731,269.196 396.7042,258.9018 398.4479,259.4737 400.1916,252.0391 401.9353,224.0161 403.6791,206.2874 408.9102,198.2808 410.6539,197.7089 412.3976,202.2841 414.1413,190.8461 415.885,203.4279 421.1162,221.7286 422.8599,218.2972 424.6036,225.1599 426.3473,241.173 428.091,216.0096 435.0659,202.856 436.8096,217.7253 438.5533,199.4246 440.297,232.5946 445.5282,223.3871 447.2719,213.722 449.0156,166.2546 450.7593,186.8429 452.503,182.8396 457.7341,174.2612 459.4779,155.3886 461.2216,160.5356 462.9653,146.8101 464.709,122.7905 469.9401,103.9179 471.6838,119.931 473.4276,134.2284 475.1713,128.5094 476.915,131.3689 482.1461,157.1043 483.8898,145.0944 485.6335,138.8036 487.3773,171.9736 489.121,191.9899 494.3521,201.7122 496.0958,210.8625 497.8395,223.4443 501.327,191.418 506.5581,194.2775 508.3018,179.9801 510.0455,174.2612 511.7892,178.5504 513.5329,213.722 520.5078,261.1894 522.2515,285.781 523.9952,295.5032 525.7389,298.9346 530.9701,306.6552 532.7138,311.5163 534.4575,310.3725 537.9449,330.9608 543.1761,346.402 544.9198,351.5491 546.6635,356.1242 548.4072,355.1949 550.1509,360.6994 555.382,363.5589 557.1258,362.4151 558.8695,362.4151 560.6132,361.2713 562.3569,358.4118 567.588,358.4118 569.3317,357.8399 571.0755,361.2713 572.8192,364.7027 574.5629,366.4184 579.794,365.8465 581.5377,367.5622 583.2814,364.1308 585.0252,360.6994 586.7689,361.8432 592,361.8432" style="fill:none;stroke:rgb(31,119,180);stroke-width:2;stroke-linejoin:bevel" />
  <text dominant-baseline="hanging" text-anchor="middle" transform="translate(313.006,8)" font-family="Segoe UI" font-size="18" font-weight="700" fill="black">7-Tage-Inzidenz Stadt Aachen 05.07.2021</text>
  <polygon points="34.012,29.0795 592,29.0795 592,370.947 34.012,370.947" style="fill:none;stroke:black;stroke-width:1" />
  <polygon points="42.012,37.0795 247.014,37.0795 247.014,63.1325 42.012,63.1325" style="fill:none;stroke:none;" />
  <text dominant-baseline="hanging" text-anchor="start" transform="translate(70.012,45.0795)" font-family="Segoe UI" font-size="12" font-weight="400" fill="black">7-Tage-Inzidenz Stadt Aachen 05.07.2021</text>
  <polyline points="50.012,50.106 66.012,50.106" style="fill:none;stroke:rgb(31,119,180);stroke-width:2" />
</svg>