<?xml version="1.0" encoding="utf-8" standalone="no"?>
<!DOCTYPE svg PUBLIC "-//W3C//DTD SVG 1.1//EN" "http://www.w3.org/Graphics/SVG/1.1/DTD/svg11.dtd">
<svg width="600" height="400" version="1.1" xmlns:xlink="http://www.w3.org/1999/xlink" xmlns="http://www.w3.org/2000/svg">
  <rect x="0" y="0" width="600" height="400" style="fill:rgb(255,255,255);stroke:none;" />
  <polyline points="34.012,362.7539 30.012,362.7539" style="fill:none;stroke:black;stroke-width:1" />
  <polyline points="34.012,348.3289 30.012,348.3289" style="fill:none;stroke:black;stroke-width:1" />
  <polyline points="34.012,333.904 30.012,333.904" style="fill:none;stroke:black;stroke-width:1" />
  <polyline points="34.012,319.479 30.012,319.479" style="fill:none;stroke:black;stroke-width:1" />
  <polyline points="34.012,290.6291 30.012,290.6291" style="fill:none;stroke:black;stroke-width:1" />
  <polyline points="34.012,276.2041 30.012,276.2041" style="fill:none;stroke:black;stroke-width:1" />
  <polyline points="34.012,261.7792 30.012,261.7792" style="fill:none;stroke:black;stroke-width:1" />
  <polyline points="34.012,247.3542 30.012,247.3542" style="fill:none;stroke:black;stroke-width:1" />
  <polyline points="34.012,218.5043 30.012,218.5043" style="fill:none;stroke:black;stroke-width:1" />
  <polyline points="34.012,204.0794 30.012,204.0794" style="fill:none;stroke:black;stroke-width:1" />
  <polyline points="34.012,189.6544 30.012,189.6544" style="fill:none;stroke:black;stroke-width:1" />
  <polyline points="34.012,175.2295 30.012,175.2295" style="fill:none;stroke:black;stroke-width:1" />
  <polyline points="34.012,146.3796 30.012,146.3796" style="fill:none;stroke:black;stroke-width:1" />
  <polyline points="34.012,131.9546 30.012,131.9546" style="fill:none;stroke:black;stroke-width:1" />
  <polyline points="34.012,117.5297 30.012,117.5297" style="fill:none;stroke:black;stroke-width:1" />
  <polyline points="34.012,103.1047 30.012,103.1047" style="fill:none;stroke:black;stroke-width:1" />
  <polyline points="34.012,74.2548 30.012,74.2548" style="fill:none;stroke:black;stroke-width:1" />
  <polyline points="34.012,59.8299 30.012,59.8299" style="fill:none;stroke:black;stroke-width:1" />
  <polyline points="34.012,45.4049 30.012,45.4049" style="fill:none;stroke:black;stroke-width:1" />
  <polyline points="34.012,30.98 30.012,30.98" style="fill:none;stroke:black;stroke-width:1" />
  <text dominant-baseline="middle" text-anchor="end" transform="translate(23.012,305.0541)" font-family="Segoe UI" font-size="12" font-weight="400" fill="black">50</text>
  <text dominant-baseline="middle" text-anchor="end" transform="translate(23.012,232.9293)" font-family="Segoe UI" font-size="12" font-weight="400" fill="black">100</text>
  <text dominant-baseline="middle" text-anchor="end" transform="translate(23.012,160.8045)" font-family="Segoe UI" font-size="12" font-weight="400" fill="black">150</text>
  <text dominant-baseline="middle" text-anchor="end" transform="translate(23.012,88.6798)" font-family="Segoe UI" font-size="12" font-weight="400" fill="black">200</text>
  <polyline points="34.012,305.0541 27.012,305.0541" style="fill:none;stroke:black;stroke-width:1" />
  <polyline points="34.012,232.9293 27.012,232.9293" style="fill:none;stroke:black;stroke-width:1" />
  <polyline points="34.012,160.8045 27.012,160.8045" style="fill:none;stroke:black;stroke-width:1" />
  <polyline points="34.012,88.6798 27.012,88.6798" style="fill:none;stroke:black;stroke-width:1" />
  <text dominant-baseline="hanging" text-anchor="middle" transform="translate(60.3896,381.947)" font-family="Segoe UI" font-size="12" font-weight="400" fill="black">01. September</text>
  <text dominant-baseline="hanging" text-anchor="middle" transform="translate(121.261,381.947)" font-family="Segoe UI" font-size="12" font-weight="400" fill="black">01. October</text>
  <text dominant-baseline="hanging" text-anchor="middle" transform="translate(184.1615,381.947)" font-family="Segoe UI" font-size="12" font-weight="400" fill="black">01. November</text>
  <text dominant-baseline="hanging" text-anchor="middle" transform="translate(245.0329,381.947)" font-family="Segoe UI" font-size="12" font-weight="400" fill="black">01. December</text>
  <text dominant-baseline="hanging" text-anchor="middle" transform="translate(307.9334,381.947)" font-family="Segoe UI" font-size="12" font-weight="400" fill="black">01. January</text>
  <text dominant-baseline="hanging" text-anchor="middle" transform="translate(370.8338,381.947)" font-family="Segoe UI" font-size="12" font-weight="400" fill="black">01. February</text>
  <text dominant-baseline="hanging" text-anchor="middle" transform="translate(427.6472,381.947)" font-family="Segoe UI" font-size="12" font-weight="400" fill="black">01. March</text>
  <text dominant-baseline="hanging" text-anchor="middle" transform="translate(490.5476,381.947)" font-family="Segoe UI" font-size="12" font-weight="400" fill="black">01. April</text>
  <text dominant-baseline="hanging" text-anchor="middle" transform="translate(551.4191,381.947)" font-family="Segoe UI" font-size="12" font-weight="400" fill="black">01. May</text>
  <polyline points="60.3896,370.947 60.3896,377.947" style="fill:none;stroke:black;stroke-width:1" />
  <polyline points="121.261,370.947 121.261,377.947" style="fill:none;stroke:black;stroke-width:1" />
  <polyline points="184.1615,370.947 184.1615,377.947" style="fill:none;stroke:black;stroke-width:1" />
  <polyline points="245.0329,370.947 245.0329,377.947" style="fill:none;stroke:black;stroke-width:1" />
  <polyline points="307.9334,370.947 307.9334,377.947" style="fill:none;stroke:black;stroke-width:1" />
  <polyline points="370.8338,370.947 370.8338,377.947" style="fill:none;stroke:black;stroke-width:1" />
  <polyline points="427.6472,370.947 427.6472,377.947" style="fill:none;stroke:black;stroke-width:1" />
  <polyline points="490.5476,370.947 490.5476,377.947" style="fill:none;stroke:black;stroke-width:1" />
  <polyline points="551.4191,370.947 551.4191,377.947" style="fill:none;stroke:black;stroke-width:1" />
  <polyline points="34.012,356.8142 36.041,356.3899 38.0701,362.471 44.1572,358.5112 46.1863,362.471 48.2153,363.0367 50.2444,363.6024 52.2734,362.471 58.3606,366.9965 60.3896,365.2994 62.4187,365.8651 64.4477,365.2994 66.4768,365.2994 72.5639,365.8651 74.5929,367.5622 76.622,365.8651 78.651,365.2994 80.6801,363.0367 86.7672,356.8142 88.7963,352.2887 90.8253,347.1975 92.8544,346.6319 94.8834,342.1064 100.9706,347.7632 102.9996,348.3289 105.0287,352.2887 107.0577,350.5916 109.0867,351.723 115.1739,335.8838 117.2029,336.4495 119.232,335.3182 121.261,325.1358 123.2901,319.479 129.3772,312.6908 131.4063,313.8222 133.4353,305.9026 135.4644,304.7528 137.4934,307.6498 143.5806,292.5852 145.6096,290.847 147.6386,285.6323 149.6677,275.2029 151.6967,253.1854 157.7839,230.5885 159.8129,225.9532 161.842,221.8974 163.871,202.7769 165.9001,202.1975 171.9872,137.3037 174.0163,132.0891 176.0453,129.192 178.0744,131.5096 180.1034,98.4834 186.1905,118.1833 188.2196,107.7539 190.2486,108.9127 192.2777,101.3804 194.3067,119.3421 200.3939,90.9511 202.4229,84.5776 204.452,58.5042 208.5101,32.4308 214.5972,61.4012 216.6263,75.8864 218.6553,84.5776 220.6843,65.3847 222.7134,120.5009 228.8005,167.433 230.8296,150.6301 232.8586,153.5272 234.8877,208.571 236.9167,185.974 243.0039,188.8711 245.0329,213.7856 247.062,225.9532 249.091,198.1416 251.1201,202.1975 257.2072,179.0211 259.2362,181.3388 261.2653,179.6005 263.2943,151.2095 265.3234,173.2271 271.4105,154.1066 273.4396,144.2566 275.4686,132.6685 277.4977,145.4155 279.5267,134.4067 285.6139,116.445 287.6429,117.0244 289.672,140.7802 299.8172,157.0036 301.8462,154.686 303.8753,134.4067 305.9043,136.3622 314.0205,211.468 316.0496,235.2238 318.0786,250.8678 320.1077,236.962 322.1367,215.9584 330.2529,192.9269 332.2819,195.2446 334.311,217.2621 336.34,247.3913 342.4272,255.9086 344.4562,275.7823 346.4853,267.0912 348.5143,285.0529 350.5434,285.6323 356.6305,272.3059 360.6886,279.8382 362.7177,259.5589 364.7467,247.9707 370.8338,264.1942 372.8629,278.3173 374.8919,272.3059 376.921,279.8382 378.95,290.847 385.0372,293.744 387.0662,290.847 389.0953,275.2029 391.1243,276.3617 393.1534,269.4088 399.2405,283.8941 401.2696,285.6323 403.2986,306.491 405.3277,313.4439 407.3567,329.6673 413.4438,329.6673 415.4729,330.8261 417.5019,321.5556 419.531,322.135 421.56,317.4997 427.6472,329.0879 429.6762,327.9291 431.7053,323.8732 433.7343,300.6969 435.7634,294.9028 441.8505,265.353 443.8795,265.353 445.9086,263.6148 447.9376,278.6794 449.9667,272.3059 456.0538,261.8765 458.0829,262.4559 460.1119,254.9236 462.141,226.5326 464.17,208.571 470.2572,200.4592 472.2862,199.8798 474.3153,204.5151 476.3443,192.9269 478.3734,205.6739 484.4605,224.215 486.4895,220.7385 488.5186,227.6914 490.5476,243.9149 492.5767,218.4209 500.6929,205.0945 502.7219,220.1591 504.751,201.6181 506.78,235.2238 512.8672,225.8953 514.8962,216.1033 516.9253,168.0124 518.9543,188.8711 520.9833,184.8152 527.0705,176.1241 529.0995,157.0036 531.1286,162.2183 533.1576,148.3125 535.1867,123.9773 541.2738,104.8569 543.3029,121.0803 545.3319,135.5655 547.361,129.7714 549.39,132.6685 555.4771,158.7418 557.5062,146.5743 559.5352,140.2008 561.5643,173.8065 563.5933,194.0858 569.6805,203.9357 571.7095,213.2062 573.7386,225.9532 577.7967,193.5063 583.8838,196.4034 585.9129,181.9182 587.9419,176.1241 589.971,180.4697 592,216.1033" style="fill:none;stroke:rgb(31,119,180);stroke-width:2;stroke-linejoin:bevel" />
  <text dominant-baseline="hanging" text-anchor="middle" transform="translate(313.006,8)" font-family="Segoe UI" font-size="18" font-weight="700" fill="black">7-Tage-Inzidenz Stadt Aachen 21.05.2021</text>
  <polygon points="34.012,29.0795 592,29.0795 592,370.947 34.012,370.947" style="fill:none;stroke:black;stroke-width:1" />
  <polygon points="42.012,37.0795 247.014,37.0795 247.014,63.1325 42.012,63.1325" style="fill:none;stroke:none;" />
  <text dominant-baseline="hanging" text-anchor="start" transform="translate(70.012,45.0795)" font-family="Segoe UI" font-size="12" font-weight="400" fill="black">7-Tage-Inzidenz Stadt Aachen 21.05.2021</text>
  <polyline points="50.012,50.106 66.012,50.106" style="fill:none;stroke:rgb(31,119,180);stroke-width:2" />
</svg>