<?xml version="1.0" encoding="utf-8" standalone="no"?>
<!DOCTYPE svg PUBLIC "-//W3C//DTD SVG 1.1//EN" "http://www.w3.org/Graphics/SVG/1.1/DTD/svg11.dtd">
<svg width="600" height="400" version="1.1" xmlns:xlink="http://www.w3.org/1999/xlink" xmlns="http://www.w3.org/2000/svg">
  <rect x="0" y="0" width="600" height="400" style="fill:rgb(255,255,255);stroke:none;" />
  <polyline points="34.012,362.7539 30.012,362.7539" style="fill:none;stroke:black;stroke-width:1" />
  <polyline points="34.012,348.3289 30.012,348.3289" style="fill:none;stroke:black;stroke-width:1" />
  <polyline points="34.012,333.904 30.012,333.904" style="fill:none;stroke:black;stroke-width:1" />
  <polyline points="34.012,319.479 30.012,319.479" style="fill:none;stroke:black;stroke-width:1" />
  <polyline points="34.012,290.6291 30.012,290.6291" style="fill:none;stroke:black;stroke-width:1" />
  <polyline points="34.012,276.2041 30.012,276.2041" style="fill:none;stroke:black;stroke-width:1" />
  <polyline points="34.012,261.7792 30.012,261.7792" style="fill:none;stroke:black;stroke-width:1" />
  <polyline points="34.012,247.3542 30.012,247.3542" style="fill:none;stroke:black;stroke-width:1" />
  <polyline points="34.012,218.5043 30.012,218.5043" style="fill:none;stroke:black;stroke-width:1" />
  <polyline points="34.012,204.0794 30.012,204.0794" style="fill:none;stroke:black;stroke-width:1" />
  <polyline points="34.012,189.6544 30.012,189.6544" style="fill:none;stroke:black;stroke-width:1" />
  <polyline points="34.012,175.2295 30.012,175.2295" style="fill:none;stroke:black;stroke-width:1" />
  <polyline points="34.012,146.3796 30.012,146.3796" style="fill:none;stroke:black;stroke-width:1" />
  <polyline points="34.012,131.9546 30.012,131.9546" style="fill:none;stroke:black;stroke-width:1" />
  <polyline points="34.012,117.5297 30.012,117.5297" style="fill:none;stroke:black;stroke-width:1" />
  <polyline points="34.012,103.1047 30.012,103.1047" style="fill:none;stroke:black;stroke-width:1" />
  <polyline points="34.012,74.2548 30.012,74.2548" style="fill:none;stroke:black;stroke-width:1" />
  <polyline points="34.012,59.8299 30.012,59.8299" style="fill:none;stroke:black;stroke-width:1" />
  <polyline points="34.012,45.4049 30.012,45.4049" style="fill:none;stroke:black;stroke-width:1" />
  <polyline points="34.012,30.98 30.012,30.98" style="fill:none;stroke:black;stroke-width:1" />
  <text dominant-baseline="middle" text-anchor="end" transform="translate(23.012,305.0541)" font-family="Segoe UI" font-size="12" font-weight="400" fill="black">50</text>
  <text dominant-baseline="middle" text-anchor="end" transform="translate(23.012,232.9293)" font-family="Segoe UI" font-size="12" font-weight="400" fill="black">100</text>
  <text dominant-baseline="middle" text-anchor="end" transform="translate(23.012,160.8045)" font-family="Segoe UI" font-size="12" font-weight="400" fill="black">150</text>
  <text dominant-baseline="middle" text-anchor="end" transform="translate(23.012,88.6798)" font-family="Segoe UI" font-size="12" font-weight="400" fill="black">200</text>
  <polyline points="34.012,305.0541 27.012,305.0541" style="fill:none;stroke:black;stroke-width:1" />
  <polyline points="34.012,232.9293 27.012,232.9293" style="fill:none;stroke:black;stroke-width:1" />
  <polyline points="34.012,160.8045 27.012,160.8045" style="fill:none;stroke:black;stroke-width:1" />
  <polyline points="34.012,88.6798 27.012,88.6798" style="fill:none;stroke:black;stroke-width:1" />
  <text dominant-baseline="hanging" text-anchor="middle" transform="translate(82.6955,381.947)" font-family="Segoe UI" font-size="12" font-weight="400" fill="black">01. September</text>
  <text dominant-baseline="hanging" text-anchor="middle" transform="translate(195.0421,381.947)" font-family="Segoe UI" font-size="12" font-weight="400" fill="black">01. October</text>
  <text dominant-baseline="hanging" text-anchor="middle" transform="translate(311.1336,381.947)" font-family="Segoe UI" font-size="12" font-weight="400" fill="black">01. November</text>
  <text dominant-baseline="hanging" text-anchor="middle" transform="translate(423.4801,381.947)" font-family="Segoe UI" font-size="12" font-weight="400" fill="black">01. December</text>
  <text dominant-baseline="hanging" text-anchor="middle" transform="translate(539.5716,381.947)" font-family="Segoe UI" font-size="12" font-weight="400" fill="black">01. January</text>
  <polyline points="82.6955,370.947 82.6955,377.947" style="fill:none;stroke:black;stroke-width:1" />
  <polyline points="195.0421,370.947 195.0421,377.947" style="fill:none;stroke:black;stroke-width:1" />
  <polyline points="311.1336,370.947 311.1336,377.947" style="fill:none;stroke:black;stroke-width:1" />
  <polyline points="423.4801,370.947 423.4801,377.947" style="fill:none;stroke:black;stroke-width:1" />
  <polyline points="539.5716,370.947 539.5716,377.947" style="fill:none;stroke:black;stroke-width:1" />
  <polyline points="34.012,356.8142 37.7569,356.3899 41.5018,362.471 52.7364,358.5112 56.4813,362.471 60.2262,363.0367 63.9711,363.6024 67.716,362.471 78.9506,366.9965 82.6955,365.2994 86.4404,365.8651 90.1853,365.2994 93.9302,365.2994 105.1648,365.8651 108.9097,367.5622 112.6546,365.8651 116.3995,365.2994 120.1444,363.0367 131.379,356.8142 135.1239,352.2887 138.8688,347.1975 142.6137,346.6319 146.3586,342.1064 157.5932,347.7632 161.3381,348.3289 165.083,352.2887 168.8279,350.5916 172.5728,351.723 183.8074,335.8838 187.5523,336.4495 191.2972,335.3182 195.0421,325.1358 198.787,319.479 210.0216,312.6908 213.7665,313.8222 217.5114,305.9026 221.2563,304.7528 225.0012,307.6498 236.2358,292.5852 239.9807,290.847 243.7256,285.6323 247.4705,275.2029 251.2154,253.1854 262.45,230.5885 266.1949,225.9532 269.9398,221.8974 273.6847,202.7769 277.4296,202.1975 288.6642,137.3037 292.4091,132.0891 296.154,129.192 299.8989,131.5096 303.6438,98.4834 314.8784,118.1833 318.6233,107.7539 322.3682,108.9127 326.1131,101.3804 329.858,119.3421 341.0926,90.9511 344.8375,84.5776 348.5824,58.5042 356.0722,32.4308 367.3068,61.4012 371.0517,75.8864 374.7966,84.5776 378.5415,65.3847 382.2864,120.5009 393.521,167.433 397.2659,150.6301 401.0108,153.5272 404.7557,208.571 408.5006,185.974 419.7352,188.8711 423.4801,213.7856 427.225,225.9532 430.9699,198.1416 434.7148,202.1975 445.9494,179.0211 449.6943,181.3388 453.4392,179.6005 457.1841,151.2095 460.929,173.2271 472.1637,154.1066 475.9085,144.2566 479.6534,132.6685 483.3983,145.4155 487.1432,134.4067 498.3779,116.445 502.1227,117.0244 505.8676,140.7802 524.5921,157.0036 528.3369,154.686 532.0818,134.4067 535.8267,136.3622 550.8063,211.468 554.5511,235.2238 558.296,250.8678 562.0409,236.962 565.7858,215.9584 577.0205,202.7769 580.7653,192.9269 584.5102,195.2446 588.2551,217.2621 592,247.3913" style="fill:none;stroke:rgb(31,119,180);stroke-width:2;stroke-linejoin:bevel" />
  <text dominant-baseline="hanging" text-anchor="middle" transform="translate(313.006,8)" font-family="Segoe UI" font-size="18" font-weight="700" fill="black">7-Tage-Inzidenz Stadt Aachen 15.01.2021</text>
  <polygon points="34.012,29.0795 592,29.0795 592,370.947 34.012,370.947" style="fill:none;stroke:black;stroke-width:1" />
  <polygon points="42.012,37.0795 247.014,37.0795 247.014,63.1325 42.012,63.1325" style="fill:none;stroke:none;" />
  <text dominant-baseline="hanging" text-anchor="start" transform="translate(70.012,45.0795)" font-family="Segoe UI" font-size="12" font-weight="400" fill="black">7-Tage-Inzidenz Stadt Aachen 15.01.2021</text>
  <polyline points="50.012,50.106 66.012,50.106" style="fill:none;stroke:rgb(31,119,180);stroke-width:2" />
</svg>