<?xml version="1.0" encoding="utf-8" standalone="no"?>
<!DOCTYPE svg PUBLIC "-//W3C//DTD SVG 1.1//EN" "http://www.w3.org/Graphics/SVG/1.1/DTD/svg11.dtd">
<svg width="600" height="400" version="1.1" xmlns:xlink="http://www.w3.org/1999/xlink" xmlns="http://www.w3.org/2000/svg">
  <rect x="0" y="0" width="600" height="400" style="fill:rgb(255,255,255);stroke:none;" />
  <polyline points="34.012,362.7539 30.012,362.7539" style="fill:none;stroke:black;stroke-width:1" />
  <polyline points="34.012,348.3289 30.012,348.3289" style="fill:none;stroke:black;stroke-width:1" />
  <polyline points="34.012,333.904 30.012,333.904" style="fill:none;stroke:black;stroke-width:1" />
  <polyline points="34.012,319.479 30.012,319.479" style="fill:none;stroke:black;stroke-width:1" />
  <polyline points="34.012,290.6291 30.012,290.6291" style="fill:none;stroke:black;stroke-width:1" />
  <polyline points="34.012,276.2041 30.012,276.2041" style="fill:none;stroke:black;stroke-width:1" />
  <polyline points="34.012,261.7792 30.012,261.7792" style="fill:none;stroke:black;stroke-width:1" />
  <polyline points="34.012,247.3542 30.012,247.3542" style="fill:none;stroke:black;stroke-width:1" />
  <polyline points="34.012,218.5043 30.012,218.5043" style="fill:none;stroke:black;stroke-width:1" />
  <polyline points="34.012,204.0794 30.012,204.0794" style="fill:none;stroke:black;stroke-width:1" />
  <polyline points="34.012,189.6544 30.012,189.6544" style="fill:none;stroke:black;stroke-width:1" />
  <polyline points="34.012,175.2295 30.012,175.2295" style="fill:none;stroke:black;stroke-width:1" />
  <polyline points="34.012,146.3796 30.012,146.3796" style="fill:none;stroke:black;stroke-width:1" />
  <polyline points="34.012,131.9546 30.012,131.9546" style="fill:none;stroke:black;stroke-width:1" />
  <polyline points="34.012,117.5297 30.012,117.5297" style="fill:none;stroke:black;stroke-width:1" />
  <polyline points="34.012,103.1047 30.012,103.1047" style="fill:none;stroke:black;stroke-width:1" />
  <polyline points="34.012,74.2548 30.012,74.2548" style="fill:none;stroke:black;stroke-width:1" />
  <polyline points="34.012,59.8299 30.012,59.8299" style="fill:none;stroke:black;stroke-width:1" />
  <polyline points="34.012,45.4049 30.012,45.4049" style="fill:none;stroke:black;stroke-width:1" />
  <polyline points="34.012,30.98 30.012,30.98" style="fill:none;stroke:black;stroke-width:1" />
  <text dominant-baseline="middle" text-anchor="end" transform="translate(23.012,305.0541)" font-family="Segoe UI" font-size="12" font-weight="400" fill="black">50</text>
  <text dominant-baseline="middle" text-anchor="end" transform="translate(23.012,232.9293)" font-family="Segoe UI" font-size="12" font-weight="400" fill="black">100</text>
  <text dominant-baseline="middle" text-anchor="end" transform="translate(23.012,160.8045)" font-family="Segoe UI" font-size="12" font-weight="400" fill="black">150</text>
  <text dominant-baseline="middle" text-anchor="end" transform="translate(23.012,88.6798)" font-family="Segoe UI" font-size="12" font-weight="400" fill="black">200</text>
  <polyline points="34.012,305.0541 27.012,305.0541" style="fill:none;stroke:black;stroke-width:1" />
  <polyline points="34.012,232.9293 27.012,232.9293" style="fill:none;stroke:black;stroke-width:1" />
  <polyline points="34.012,160.8045 27.012,160.8045" style="fill:none;stroke:black;stroke-width:1" />
  <polyline points="34.012,88.6798 27.012,88.6798" style="fill:none;stroke:black;stroke-width:1" />
  <text dominant-baseline="hanging" text-anchor="middle" transform="translate(83.0245,381.947)" font-family="Segoe UI" font-size="12" font-weight="400" fill="black">01. September</text>
  <text dominant-baseline="hanging" text-anchor="middle" transform="translate(196.1301,381.947)" font-family="Segoe UI" font-size="12" font-weight="400" fill="black">01. October</text>
  <text dominant-baseline="hanging" text-anchor="middle" transform="translate(313.006,381.947)" font-family="Segoe UI" font-size="12" font-weight="400" fill="black">01. November</text>
  <text dominant-baseline="hanging" text-anchor="middle" transform="translate(426.1117,381.947)" font-family="Segoe UI" font-size="12" font-weight="400" fill="black">01. December</text>
  <text dominant-baseline="hanging" text-anchor="middle" transform="translate(542.9875,381.947)" font-family="Segoe UI" font-size="12" font-weight="400" fill="black">01. January</text>
  <polyline points="83.0245,370.947 83.0245,377.947" style="fill:none;stroke:black;stroke-width:1" />
  <polyline points="196.1301,370.947 196.1301,377.947" style="fill:none;stroke:black;stroke-width:1" />
  <polyline points="313.006,370.947 313.006,377.947" style="fill:none;stroke:black;stroke-width:1" />
  <polyline points="426.1117,370.947 426.1117,377.947" style="fill:none;stroke:black;stroke-width:1" />
  <polyline points="542.9875,370.947 542.9875,377.947" style="fill:none;stroke:black;stroke-width:1" />
  <polyline points="34.012,356.8142 37.7822,356.3899 41.5524,362.471 52.8629,358.5112 56.6331,362.471 60.4033,363.0367 64.1735,363.6024 67.9437,362.471 79.2543,366.9965 83.0245,365.2994 86.7946,365.8651 90.5648,365.2994 94.335,365.2994 105.6456,365.8651 109.4158,367.5622 113.186,365.8651 116.9562,365.2994 120.7264,363.0367 132.0369,356.8142 135.8071,352.2887 139.5773,347.1975 143.3475,346.6319 147.1177,342.1064 158.4282,347.7632 162.1984,348.3289 165.9686,352.2887 169.7388,350.5916 173.509,351.723 184.8196,335.8838 188.5898,336.4495 192.3599,335.3182 196.1301,325.1358 199.9003,319.479 211.2109,312.6908 214.9811,313.8222 218.7513,305.9026 222.5215,304.7528 226.2916,307.6498 237.6022,292.5852 241.3724,290.847 245.1426,285.6323 248.9128,275.2029 252.683,253.1854 263.9935,230.5885 267.7637,225.9532 271.5339,221.8974 275.3041,202.7769 279.0743,202.1975 290.3849,137.3037 294.1551,132.0891 297.9252,129.192 301.6954,131.5096 305.4656,98.4834 316.7762,118.1833 320.5464,107.7539 324.3166,108.9127 328.0868,101.3804 331.8569,119.3421 343.1675,90.9511 346.9377,84.5776 350.7079,58.5042 358.2483,32.4308 369.5588,61.4012 373.329,75.8864 377.0992,84.5776 380.8694,65.3847 384.6396,120.5009 395.9502,167.433 399.7204,150.6301 403.4905,153.5272 407.2607,208.571 411.0309,185.974 422.3415,188.8711 426.1117,213.7856 429.8819,225.9532 433.6521,198.1416 437.4222,202.1975 448.7328,179.0211 452.503,181.3388 456.2732,179.6005 460.0434,151.2095 463.8136,173.2271 475.1241,154.1066 478.8943,144.2566 482.6645,132.6685 486.4347,145.4155 490.2049,134.4067 501.5155,116.445 505.2856,117.0244 509.0558,140.7802 527.9068,157.0036 531.677,154.686 535.4472,134.4067 539.2174,136.3622 554.2981,211.468 558.0683,235.2238 561.8385,250.8678 565.6087,236.962 569.3789,215.9584 580.6894,202.7769 584.4596,192.9269 588.2298,195.2446 592,217.2621" style="fill:none;stroke:rgb(31,119,180);stroke-width:2;stroke-linejoin:bevel" />
  <text dominant-baseline="hanging" text-anchor="middle" transform="translate(313.006,8)" font-family="Segoe UI" font-size="18" font-weight="700" fill="black">7-Tage-Inzidenz Stadt Aachen 14.01.2021</text>
  <polygon points="34.012,29.0795 592,29.0795 592,370.947 34.012,370.947" style="fill:none;stroke:black;stroke-width:1" />
  <polygon points="42.012,37.0795 247.014,37.0795 247.014,63.1325 42.012,63.1325" style="fill:none;stroke:none;" />
  <text dominant-baseline="hanging" text-anchor="start" transform="translate(70.012,45.0795)" font-family="Segoe UI" font-size="12" font-weight="400" fill="black">7-Tage-Inzidenz Stadt Aachen 14.01.2021</text>
  <polyline points="50.012,50.106 66.012,50.106" style="fill:none;stroke:rgb(31,119,180);stroke-width:2" />
</svg>