<?xml version="1.0" encoding="utf-8" standalone="no"?>
<!DOCTYPE svg PUBLIC "-//W3C//DTD SVG 1.1//EN" "http://www.w3.org/Graphics/SVG/1.1/DTD/svg11.dtd">
<svg width="600" height="400" version="1.1" xmlns:xlink="http://www.w3.org/1999/xlink" xmlns="http://www.w3.org/2000/svg">
  <rect x="0" y="0" width="600" height="400" style="fill:rgb(255,255,255);stroke:none;" />
  <polyline points="34.012,362.7539 30.012,362.7539" style="fill:none;stroke:black;stroke-width:1" />
  <polyline points="34.012,348.3289 30.012,348.3289" style="fill:none;stroke:black;stroke-width:1" />
  <polyline points="34.012,333.904 30.012,333.904" style="fill:none;stroke:black;stroke-width:1" />
  <polyline points="34.012,319.479 30.012,319.479" style="fill:none;stroke:black;stroke-width:1" />
  <polyline points="34.012,290.6291 30.012,290.6291" style="fill:none;stroke:black;stroke-width:1" />
  <polyline points="34.012,276.2041 30.012,276.2041" style="fill:none;stroke:black;stroke-width:1" />
  <polyline points="34.012,261.7792 30.012,261.7792" style="fill:none;stroke:black;stroke-width:1" />
  <polyline points="34.012,247.3542 30.012,247.3542" style="fill:none;stroke:black;stroke-width:1" />
  <polyline points="34.012,218.5043 30.012,218.5043" style="fill:none;stroke:black;stroke-width:1" />
  <polyline points="34.012,204.0794 30.012,204.0794" style="fill:none;stroke:black;stroke-width:1" />
  <polyline points="34.012,189.6544 30.012,189.6544" style="fill:none;stroke:black;stroke-width:1" />
  <polyline points="34.012,175.2295 30.012,175.2295" style="fill:none;stroke:black;stroke-width:1" />
  <polyline points="34.012,146.3796 30.012,146.3796" style="fill:none;stroke:black;stroke-width:1" />
  <polyline points="34.012,131.9546 30.012,131.9546" style="fill:none;stroke:black;stroke-width:1" />
  <polyline points="34.012,117.5297 30.012,117.5297" style="fill:none;stroke:black;stroke-width:1" />
  <polyline points="34.012,103.1047 30.012,103.1047" style="fill:none;stroke:black;stroke-width:1" />
  <polyline points="34.012,74.2548 30.012,74.2548" style="fill:none;stroke:black;stroke-width:1" />
  <polyline points="34.012,59.8299 30.012,59.8299" style="fill:none;stroke:black;stroke-width:1" />
  <polyline points="34.012,45.4049 30.012,45.4049" style="fill:none;stroke:black;stroke-width:1" />
  <polyline points="34.012,30.98 30.012,30.98" style="fill:none;stroke:black;stroke-width:1" />
  <text dominant-baseline="middle" text-anchor="end" transform="translate(23.012,305.0541)" font-family="Segoe UI" font-size="12" font-weight="400" fill="black">50</text>
  <text dominant-baseline="middle" text-anchor="end" transform="translate(23.012,232.9293)" font-family="Segoe UI" font-size="12" font-weight="400" fill="black">100</text>
  <text dominant-baseline="middle" text-anchor="end" transform="translate(23.012,160.8045)" font-family="Segoe UI" font-size="12" font-weight="400" fill="black">150</text>
  <text dominant-baseline="middle" text-anchor="end" transform="translate(23.012,88.6798)" font-family="Segoe UI" font-size="12" font-weight="400" fill="black">200</text>
  <polyline points="34.012,305.0541 27.012,305.0541" style="fill:none;stroke:black;stroke-width:1" />
  <polyline points="34.012,232.9293 27.012,232.9293" style="fill:none;stroke:black;stroke-width:1" />
  <polyline points="34.012,160.8045 27.012,160.8045" style="fill:none;stroke:black;stroke-width:1" />
  <polyline points="34.012,88.6798 27.012,88.6798" style="fill:none;stroke:black;stroke-width:1" />
  <text dominant-baseline="hanging" text-anchor="middle" transform="translate(60.5829,381.947)" font-family="Segoe UI" font-size="12" font-weight="400" fill="black">01. September</text>
  <text dominant-baseline="hanging" text-anchor="middle" transform="translate(121.9002,381.947)" font-family="Segoe UI" font-size="12" font-weight="400" fill="black">01. October</text>
  <text dominant-baseline="hanging" text-anchor="middle" transform="translate(185.2615,381.947)" font-family="Segoe UI" font-size="12" font-weight="400" fill="black">01. November</text>
  <text dominant-baseline="hanging" text-anchor="middle" transform="translate(246.5789,381.947)" font-family="Segoe UI" font-size="12" font-weight="400" fill="black">01. December</text>
  <text dominant-baseline="hanging" text-anchor="middle" transform="translate(309.9401,381.947)" font-family="Segoe UI" font-size="12" font-weight="400" fill="black">01. January</text>
  <text dominant-baseline="hanging" text-anchor="middle" transform="translate(373.3014,381.947)" font-family="Segoe UI" font-size="12" font-weight="400" fill="black">01. February</text>
  <text dominant-baseline="hanging" text-anchor="middle" transform="translate(430.5309,381.947)" font-family="Segoe UI" font-size="12" font-weight="400" fill="black">01. March</text>
  <text dominant-baseline="hanging" text-anchor="middle" transform="translate(493.8922,381.947)" font-family="Segoe UI" font-size="12" font-weight="400" fill="black">01. April</text>
  <text dominant-baseline="hanging" text-anchor="middle" transform="translate(555.2096,381.947)" font-family="Segoe UI" font-size="12" font-weight="400" fill="black">01. May</text>
  <polyline points="60.5829,370.947 60.5829,377.947" style="fill:none;stroke:black;stroke-width:1" />
  <polyline points="121.9002,370.947 121.9002,377.947" style="fill:none;stroke:black;stroke-width:1" />
  <polyline points="185.2615,370.947 185.2615,377.947" style="fill:none;stroke:black;stroke-width:1" />
  <polyline points="246.5789,370.947 246.5789,377.947" style="fill:none;stroke:black;stroke-width:1" />
  <polyline points="309.9401,370.947 309.9401,377.947" style="fill:none;stroke:black;stroke-width:1" />
  <polyline points="373.3014,370.947 373.3014,377.947" style="fill:none;stroke:black;stroke-width:1" />
  <polyline points="430.5309,370.947 430.5309,377.947" style="fill:none;stroke:black;stroke-width:1" />
  <polyline points="493.8922,370.947 493.8922,377.947" style="fill:none;stroke:black;stroke-width:1" />
  <polyline points="555.2096,370.947 555.2096,377.947" style="fill:none;stroke:black;stroke-width:1" />
  <polyline points="34.012,356.8142 36.0559,356.3899 38.0998,362.471 44.2316,358.5112 46.2755,362.471 48.3194,363.0367 50.3633,363.6024 52.4072,362.471 58.5389,366.9965 60.5829,365.2994 62.6268,365.8651 64.6707,365.2994 66.7146,365.2994 72.8463,365.8651 74.8902,367.5622 76.9342,365.8651 78.9781,365.2994 81.022,363.0367 87.1537,356.8142 89.1976,352.2887 91.2415,347.1975 93.2855,346.6319 95.3294,342.1064 101.4611,347.7632 103.505,348.3289 105.5489,352.2887 107.5928,350.5916 109.6367,351.723 115.7685,335.8838 117.8124,336.4495 119.8563,335.3182 121.9002,325.1358 123.9441,319.479 130.0759,312.6908 132.1198,313.8222 134.1637,305.9026 136.2076,304.7528 138.2515,307.6498 144.3833,292.5852 146.4272,290.847 148.4711,285.6323 150.515,275.2029 152.5589,253.1854 158.6906,230.5885 160.7345,225.9532 162.7785,221.8974 164.8224,202.7769 166.8663,202.1975 172.998,137.3037 175.0419,132.0891 177.0858,129.192 179.1298,131.5096 181.1737,98.4834 187.3054,118.1833 189.3493,107.7539 191.3932,108.9127 193.4371,101.3804 195.4811,119.3421 201.6128,90.9511 203.6567,84.5776 205.7006,58.5042 209.7884,32.4308 215.9202,61.4012 217.9641,75.8864 220.008,84.5776 222.0519,65.3847 224.0958,120.5009 230.2276,167.433 232.2715,150.6301 234.3154,153.5272 236.3593,208.571 238.4032,185.974 244.5349,188.8711 246.5789,213.7856 248.6228,225.9532 250.6667,198.1416 252.7106,202.1975 258.8423,179.0211 260.8862,181.3388 262.9302,179.6005 264.9741,151.2095 267.018,173.2271 273.1497,154.1066 275.1936,144.2566 277.2375,132.6685 279.2815,145.4155 281.3254,134.4067 287.4571,116.445 289.501,117.0244 291.5449,140.7802 301.7645,157.0036 303.8084,154.686 305.8523,134.4067 307.8962,136.3622 316.0719,211.468 318.1158,235.2238 320.1597,250.8678 322.2036,236.962 324.2475,215.9584 332.4232,192.9269 334.4671,195.2446 336.511,217.2621 338.5549,247.3913 344.6866,255.9086 346.7305,275.7823 348.7745,267.0912 350.8184,285.0529 352.8623,285.6323 358.994,272.3059 363.0818,279.8382 365.1258,259.5589 367.1697,247.9707 373.3014,264.1942 375.3453,278.3173 377.3892,272.3059 379.4331,279.8382 381.4771,290.847 387.6088,293.744 389.6527,290.847 391.6966,275.2029 393.7405,276.3617 395.7844,269.4088 401.9162,283.8941 403.9601,285.6323 406.004,306.491 408.0479,313.4439 410.0918,329.6673 416.2236,329.6673 418.2675,330.8261 420.3114,321.5556 422.3553,322.135 424.3992,317.4997 430.5309,329.0879 432.5749,327.9291 434.6188,323.8732 436.6627,300.6969 438.7066,294.9028 444.8383,265.353 446.8822,265.353 448.9262,263.6148 450.9701,278.6794 453.014,272.3059 459.1457,261.8765 461.1896,262.4559 463.2335,254.9236 465.2775,226.5326 467.3214,208.571 473.4531,200.4592 475.497,199.8798 477.5409,204.5151 479.5848,192.9269 481.6287,205.6739 487.7605,224.215 489.8044,220.7385 491.8483,227.6914 493.8922,243.9149 495.9361,218.4209 504.1118,205.0945 506.1557,220.1591 508.1996,201.6181 510.2435,235.2238 516.3753,225.8953 518.4192,216.1033 520.4631,168.0124 522.507,188.8711 524.5509,184.8152 530.6826,176.1241 532.7265,157.0036 534.7705,162.2183 536.8144,148.3125 538.8583,123.9773 544.99,104.8569 547.0339,121.0803 549.0778,135.5655 551.1218,129.7714 553.1657,132.6685 559.2974,158.7418 561.3413,146.5743 563.3852,140.2008 565.4291,173.8065 567.4731,194.0858 573.6048,203.9357 575.6487,213.2062 577.6926,225.9532 581.7804,193.5063 587.9122,196.4034 589.9561,181.9182 592,176.1241" style="fill:none;stroke:rgb(31,119,180);stroke-width:2;stroke-linejoin:bevel" />
  <text dominant-baseline="hanging" text-anchor="middle" transform="translate(313.006,8)" font-family="Segoe UI" font-size="18" font-weight="700" fill="black">7-Tage-Inzidenz Stadt Aachen 19.05.2021</text>
  <polygon points="34.012,29.0795 592,29.0795 592,370.947 34.012,370.947" style="fill:none;stroke:black;stroke-width:1" />
  <polygon points="42.012,37.0795 247.014,37.0795 247.014,63.1325 42.012,63.1325" style="fill:none;stroke:none;" />
  <text dominant-baseline="hanging" text-anchor="start" transform="translate(70.012,45.0795)" font-family="Segoe UI" font-size="12" font-weight="400" fill="black">7-Tage-Inzidenz Stadt Aachen 19.05.2021</text>
  <polyline points="50.012,50.106 66.012,50.106" style="fill:none;stroke:rgb(31,119,180);stroke-width:2" />
</svg>