<?xml version="1.0" encoding="utf-8" standalone="no"?>
<!DOCTYPE svg PUBLIC "-//W3C//DTD SVG 1.1//EN" "http://www.w3.org/Graphics/SVG/1.1/DTD/svg11.dtd">
<svg width="600" height="400" version="1.1" xmlns:xlink="http://www.w3.org/1999/xlink" xmlns="http://www.w3.org/2000/svg">
  <rect x="0" y="0" width="600" height="400" style="fill:rgb(255,255,255);stroke:none;" />
  <polyline points="34.012,362.7539 30.012,362.7539" style="fill:none;stroke:black;stroke-width:1" />
  <polyline points="34.012,348.3289 30.012,348.3289" style="fill:none;stroke:black;stroke-width:1" />
  <polyline points="34.012,333.904 30.012,333.904" style="fill:none;stroke:black;stroke-width:1" />
  <polyline points="34.012,319.479 30.012,319.479" style="fill:none;stroke:black;stroke-width:1" />
  <polyline points="34.012,290.6291 30.012,290.6291" style="fill:none;stroke:black;stroke-width:1" />
  <polyline points="34.012,276.2041 30.012,276.2041" style="fill:none;stroke:black;stroke-width:1" />
  <polyline points="34.012,261.7792 30.012,261.7792" style="fill:none;stroke:black;stroke-width:1" />
  <polyline points="34.012,247.3542 30.012,247.3542" style="fill:none;stroke:black;stroke-width:1" />
  <polyline points="34.012,218.5043 30.012,218.5043" style="fill:none;stroke:black;stroke-width:1" />
  <polyline points="34.012,204.0794 30.012,204.0794" style="fill:none;stroke:black;stroke-width:1" />
  <polyline points="34.012,189.6544 30.012,189.6544" style="fill:none;stroke:black;stroke-width:1" />
  <polyline points="34.012,175.2295 30.012,175.2295" style="fill:none;stroke:black;stroke-width:1" />
  <polyline points="34.012,146.3796 30.012,146.3796" style="fill:none;stroke:black;stroke-width:1" />
  <polyline points="34.012,131.9546 30.012,131.9546" style="fill:none;stroke:black;stroke-width:1" />
  <polyline points="34.012,117.5297 30.012,117.5297" style="fill:none;stroke:black;stroke-width:1" />
  <polyline points="34.012,103.1047 30.012,103.1047" style="fill:none;stroke:black;stroke-width:1" />
  <polyline points="34.012,74.2548 30.012,74.2548" style="fill:none;stroke:black;stroke-width:1" />
  <polyline points="34.012,59.8299 30.012,59.8299" style="fill:none;stroke:black;stroke-width:1" />
  <polyline points="34.012,45.4049 30.012,45.4049" style="fill:none;stroke:black;stroke-width:1" />
  <polyline points="34.012,30.98 30.012,30.98" style="fill:none;stroke:black;stroke-width:1" />
  <text dominant-baseline="middle" text-anchor="end" transform="translate(23.012,305.0541)" font-family="Segoe UI" font-size="12" font-weight="400" fill="black">50</text>
  <text dominant-baseline="middle" text-anchor="end" transform="translate(23.012,232.9293)" font-family="Segoe UI" font-size="12" font-weight="400" fill="black">100</text>
  <text dominant-baseline="middle" text-anchor="end" transform="translate(23.012,160.8045)" font-family="Segoe UI" font-size="12" font-weight="400" fill="black">150</text>
  <text dominant-baseline="middle" text-anchor="end" transform="translate(23.012,88.6798)" font-family="Segoe UI" font-size="12" font-weight="400" fill="black">200</text>
  <polyline points="34.012,305.0541 27.012,305.0541" style="fill:none;stroke:black;stroke-width:1" />
  <polyline points="34.012,232.9293 27.012,232.9293" style="fill:none;stroke:black;stroke-width:1" />
  <polyline points="34.012,160.8045 27.012,160.8045" style="fill:none;stroke:black;stroke-width:1" />
  <polyline points="34.012,88.6798 27.012,88.6798" style="fill:none;stroke:black;stroke-width:1" />
  <text dominant-baseline="hanging" text-anchor="middle" transform="translate(88.5522,381.947)" font-family="Segoe UI" font-size="12" font-weight="400" fill="black">01. September</text>
  <text dominant-baseline="hanging" text-anchor="middle" transform="translate(214.4141,381.947)" font-family="Segoe UI" font-size="12" font-weight="400" fill="black">01. October</text>
  <text dominant-baseline="hanging" text-anchor="middle" transform="translate(344.4715,381.947)" font-family="Segoe UI" font-size="12" font-weight="400" fill="black">01. November</text>
  <text dominant-baseline="hanging" text-anchor="middle" transform="translate(470.3334,381.947)" font-family="Segoe UI" font-size="12" font-weight="400" fill="black">01. December</text>
  <polyline points="88.5522,370.947 88.5522,377.947" style="fill:none;stroke:black;stroke-width:1" />
  <polyline points="214.4141,370.947 214.4141,377.947" style="fill:none;stroke:black;stroke-width:1" />
  <polyline points="344.4715,370.947 344.4715,377.947" style="fill:none;stroke:black;stroke-width:1" />
  <polyline points="470.3334,370.947 470.3334,377.947" style="fill:none;stroke:black;stroke-width:1" />
  <polyline points="34.012,356.8142 38.2074,356.3899 42.4028,362.471 54.989,358.5112 59.1844,362.471 63.3798,363.0367 67.5752,363.6024 71.7706,362.471 84.3568,366.9965 88.5522,365.2994 92.7476,365.8651 96.943,365.2994 101.1384,365.2994 113.7246,365.8651 117.92,367.5622 122.1154,365.8651 126.3108,365.2994 130.5062,363.0367 143.0924,356.8142 147.2878,352.2887 151.4832,347.1975 155.6786,346.6319 159.874,342.1064 172.4602,347.7632 176.6555,348.3289 180.8509,352.2887 185.0463,350.5916 189.2417,351.723 201.8279,335.8838 206.0233,336.4495 210.2187,335.3182 214.4141,325.1358 218.6095,319.479 231.1957,312.6908 235.3911,313.8222 239.5865,305.9026 243.7819,304.7528 247.9773,307.6498 260.5635,292.5852 264.7589,290.847 268.9543,285.6323 273.1497,275.2029 277.3451,253.1854 289.9313,230.5885 294.1267,225.9532 298.3221,221.8974 302.5175,202.7769 306.7129,202.1975 319.2991,137.3037 323.4945,132.0891 327.6899,129.192 331.8853,131.5096 336.0807,98.4834 348.6669,118.1833 352.8623,107.7539 357.0577,108.9127 361.2531,101.3804 365.4485,119.3421 378.0347,90.9511 382.2301,84.5776 386.4255,58.5042 394.8163,32.4308 407.4025,61.4012 411.5979,75.8864 415.7933,84.5776 419.9887,65.3847 424.1841,120.5009 436.7703,167.433 440.9657,150.6301 445.1611,153.5272 449.3565,208.571 453.5518,185.974 466.138,188.8711 470.3334,213.7856 474.5288,225.9532 478.7242,198.1416 482.9196,202.1975 495.5058,179.0211 499.7012,181.3388 503.8966,179.6005 508.092,151.2095 512.2874,173.2271 524.8736,154.1066 529.069,144.2566 533.2644,132.6685 537.4598,145.4155 541.6552,134.4067 554.2414,116.445 558.4368,117.0244 562.6322,140.7802 583.6092,157.0036 587.8046,154.686 592,134.4067" style="fill:none;stroke:rgb(31,119,180);stroke-width:2;stroke-linejoin:bevel" />
  <text dominant-baseline="hanging" text-anchor="middle" transform="translate(313.006,8)" font-family="Segoe UI" font-size="18" font-weight="700" fill="black">7-Tage-Inzidenz Stadt Aachen 30.12.2020</text>
  <polygon points="34.012,29.0795 592,29.0795 592,370.947 34.012,370.947" style="fill:none;stroke:black;stroke-width:1" />
  <polygon points="42.012,37.0795 247.014,37.0795 247.014,63.1325 42.012,63.1325" style="fill:none;stroke:none;" />
  <text dominant-baseline="hanging" text-anchor="start" transform="translate(70.012,45.0795)" font-family="Segoe UI" font-size="12" font-weight="400" fill="black">7-Tage-Inzidenz Stadt Aachen 30.12.2020</text>
  <polyline points="50.012,50.106 66.012,50.106" style="fill:none;stroke:rgb(31,119,180);stroke-width:2" />
</svg>