<?xml version="1.0" encoding="utf-8" standalone="no"?>
<!DOCTYPE svg PUBLIC "-//W3C//DTD SVG 1.1//EN" "http://www.w3.org/Graphics/SVG/1.1/DTD/svg11.dtd">
<svg width="600" height="400" version="1.1" xmlns:xlink="http://www.w3.org/1999/xlink" xmlns="http://www.w3.org/2000/svg">
  <rect x="0" y="0" width="600" height="400" style="fill:rgb(255,255,255);stroke:none;" />
  <polyline points="34.012,362.7539 30.012,362.7539" style="fill:none;stroke:black;stroke-width:1" />
  <polyline points="34.012,348.3289 30.012,348.3289" style="fill:none;stroke:black;stroke-width:1" />
  <polyline points="34.012,333.904 30.012,333.904" style="fill:none;stroke:black;stroke-width:1" />
  <polyline points="34.012,319.479 30.012,319.479" style="fill:none;stroke:black;stroke-width:1" />
  <polyline points="34.012,290.6291 30.012,290.6291" style="fill:none;stroke:black;stroke-width:1" />
  <polyline points="34.012,276.2041 30.012,276.2041" style="fill:none;stroke:black;stroke-width:1" />
  <polyline points="34.012,261.7792 30.012,261.7792" style="fill:none;stroke:black;stroke-width:1" />
  <polyline points="34.012,247.3542 30.012,247.3542" style="fill:none;stroke:black;stroke-width:1" />
  <polyline points="34.012,218.5043 30.012,218.5043" style="fill:none;stroke:black;stroke-width:1" />
  <polyline points="34.012,204.0794 30.012,204.0794" style="fill:none;stroke:black;stroke-width:1" />
  <polyline points="34.012,189.6544 30.012,189.6544" style="fill:none;stroke:black;stroke-width:1" />
  <polyline points="34.012,175.2295 30.012,175.2295" style="fill:none;stroke:black;stroke-width:1" />
  <polyline points="34.012,146.3796 30.012,146.3796" style="fill:none;stroke:black;stroke-width:1" />
  <polyline points="34.012,131.9546 30.012,131.9546" style="fill:none;stroke:black;stroke-width:1" />
  <polyline points="34.012,117.5297 30.012,117.5297" style="fill:none;stroke:black;stroke-width:1" />
  <polyline points="34.012,103.1047 30.012,103.1047" style="fill:none;stroke:black;stroke-width:1" />
  <polyline points="34.012,74.2548 30.012,74.2548" style="fill:none;stroke:black;stroke-width:1" />
  <polyline points="34.012,59.8299 30.012,59.8299" style="fill:none;stroke:black;stroke-width:1" />
  <polyline points="34.012,45.4049 30.012,45.4049" style="fill:none;stroke:black;stroke-width:1" />
  <polyline points="34.012,30.98 30.012,30.98" style="fill:none;stroke:black;stroke-width:1" />
  <text dominant-baseline="middle" text-anchor="end" transform="translate(23.012,305.0541)" font-family="Segoe UI" font-size="12" font-weight="400" fill="black">50</text>
  <text dominant-baseline="middle" text-anchor="end" transform="translate(23.012,232.9293)" font-family="Segoe UI" font-size="12" font-weight="400" fill="black">100</text>
  <text dominant-baseline="middle" text-anchor="end" transform="translate(23.012,160.8045)" font-family="Segoe UI" font-size="12" font-weight="400" fill="black">150</text>
  <text dominant-baseline="middle" text-anchor="end" transform="translate(23.012,88.6798)" font-family="Segoe UI" font-size="12" font-weight="400" fill="black">200</text>
  <polyline points="34.012,305.0541 27.012,305.0541" style="fill:none;stroke:black;stroke-width:1" />
  <polyline points="34.012,232.9293 27.012,232.9293" style="fill:none;stroke:black;stroke-width:1" />
  <polyline points="34.012,160.8045 27.012,160.8045" style="fill:none;stroke:black;stroke-width:1" />
  <polyline points="34.012,88.6798 27.012,88.6798" style="fill:none;stroke:black;stroke-width:1" />
  <text dominant-baseline="hanging" text-anchor="middle" transform="translate(62.6833,381.947)" font-family="Segoe UI" font-size="12" font-weight="400" fill="black">01. September</text>
  <text dominant-baseline="hanging" text-anchor="middle" transform="translate(128.8479,381.947)" font-family="Segoe UI" font-size="12" font-weight="400" fill="black">01. October</text>
  <text dominant-baseline="hanging" text-anchor="middle" transform="translate(197.218,381.947)" font-family="Segoe UI" font-size="12" font-weight="400" fill="black">01. November</text>
  <text dominant-baseline="hanging" text-anchor="middle" transform="translate(263.3826,381.947)" font-family="Segoe UI" font-size="12" font-weight="400" fill="black">01. December</text>
  <text dominant-baseline="hanging" text-anchor="middle" transform="translate(331.7526,381.947)" font-family="Segoe UI" font-size="12" font-weight="400" fill="black">01. January</text>
  <text dominant-baseline="hanging" text-anchor="middle" transform="translate(400.1227,381.947)" font-family="Segoe UI" font-size="12" font-weight="400" fill="black">01. February</text>
  <text dominant-baseline="hanging" text-anchor="middle" transform="translate(461.8763,381.947)" font-family="Segoe UI" font-size="12" font-weight="400" fill="black">01. March</text>
  <text dominant-baseline="hanging" text-anchor="middle" transform="translate(530.2464,381.947)" font-family="Segoe UI" font-size="12" font-weight="400" fill="black">01. April</text>
  <polyline points="62.6833,370.947 62.6833,377.947" style="fill:none;stroke:black;stroke-width:1" />
  <polyline points="128.8479,370.947 128.8479,377.947" style="fill:none;stroke:black;stroke-width:1" />
  <polyline points="197.218,370.947 197.218,377.947" style="fill:none;stroke:black;stroke-width:1" />
  <polyline points="263.3826,370.947 263.3826,377.947" style="fill:none;stroke:black;stroke-width:1" />
  <polyline points="331.7526,370.947 331.7526,377.947" style="fill:none;stroke:black;stroke-width:1" />
  <polyline points="400.1227,370.947 400.1227,377.947" style="fill:none;stroke:black;stroke-width:1" />
  <polyline points="461.8763,370.947 461.8763,377.947" style="fill:none;stroke:black;stroke-width:1" />
  <polyline points="530.2464,370.947 530.2464,377.947" style="fill:none;stroke:black;stroke-width:1" />
  <polyline points="34.012,356.8142 36.2175,356.3899 38.423,362.471 45.0394,358.5112 47.2449,362.471 49.4504,363.0367 51.6559,363.6024 53.8614,362.471 60.4778,366.9965 62.6833,365.2994 64.8888,365.8651 67.0943,365.2994 69.2998,365.2994 75.9162,365.8651 78.1217,367.5622 80.3272,365.8651 82.5327,365.2994 84.7382,363.0367 91.3546,356.8142 93.5601,352.2887 95.7656,347.1975 97.9711,346.6319 100.1766,342.1064 106.793,347.7632 108.9985,348.3289 111.204,352.2887 113.4095,350.5916 115.615,351.723 122.2314,335.8838 124.4369,336.4495 126.6424,335.3182 128.8479,325.1358 131.0534,319.479 137.6698,312.6908 139.8753,313.8222 142.0808,305.9026 144.2863,304.7528 146.4918,307.6498 153.1083,292.5852 155.3137,290.847 157.5192,285.6323 159.7247,275.2029 161.9302,253.1854 168.5467,230.5885 170.7521,225.9532 172.9576,221.8974 175.1631,202.7769 177.3686,202.1975 183.9851,137.3037 186.1905,132.0891 188.396,129.192 190.6015,131.5096 192.807,98.4834 199.4235,118.1833 201.6289,107.7539 203.8344,108.9127 206.0399,101.3804 208.2454,119.3421 214.8619,90.9511 217.0674,84.5776 219.2728,58.5042 223.6838,32.4308 230.3003,61.4012 232.5058,75.8864 234.7112,84.5776 236.9167,65.3847 239.1222,120.5009 245.7387,167.433 247.9442,150.6301 250.1496,153.5272 252.3551,208.571 254.5606,185.974 261.1771,188.8711 263.3826,213.7856 265.588,225.9532 267.7935,198.1416 269.999,202.1975 276.6155,179.0211 278.821,181.3388 281.0265,179.6005 283.2319,151.2095 285.4374,173.2271 292.0539,154.1066 294.2594,144.2566 296.4649,132.6685 298.6703,145.4155 300.8758,134.4067 307.4923,116.445 309.6978,117.0244 311.9033,140.7802 322.9307,157.0036 325.1362,154.686 327.3417,134.4067 329.5471,136.3622 338.3691,211.468 340.5746,235.2238 342.7801,250.8678 344.9855,236.962 347.191,215.9584 356.013,192.9269 358.2185,195.2446 360.424,217.2621 362.6294,247.3913 369.2459,255.9086 371.4514,275.7823 373.6569,267.0912 375.8624,285.0529 378.0678,285.6323 384.6843,272.3059 389.0953,279.8382 391.3008,259.5589 393.5062,247.9707 400.1227,264.1942 402.3282,278.3173 404.5337,272.3059 406.7392,279.8382 408.9446,290.847 415.5611,293.744 417.7666,290.847 419.9721,275.2029 422.1776,276.3617 424.3831,269.4088 430.9995,283.8941 433.205,285.6323 435.4105,306.491 437.616,313.4439 439.8215,329.6673 446.4379,329.6673 448.6434,330.8261 450.8489,321.5556 453.0544,322.135 455.2599,317.4997 461.8763,329.0879 464.0818,327.9291 466.2873,323.8732 468.4928,300.6969 470.6983,294.9028 477.3147,265.353 479.5202,265.353 481.7257,263.6148 483.9312,278.6794 486.1367,272.3059 492.7531,261.8765 494.9586,262.4559 497.1641,254.9236 499.3696,226.5326 501.5751,208.571 508.1915,200.4592 510.397,199.8798 512.6025,204.5151 514.808,192.9269 517.0135,205.6739 523.6299,224.215 525.8354,220.7385 528.0409,227.6914 530.2464,243.9149 532.4519,218.4209 541.2738,205.0945 543.4793,220.1591 545.6848,201.6181 547.8903,235.2238 554.5067,225.8953 556.7122,216.1033 558.9177,168.0124 561.1232,188.8711 563.3287,184.8152 569.9451,176.1241 572.1506,157.0036 574.3561,162.2183 576.5616,148.3125 578.7671,123.9773 585.3835,104.8569 587.589,121.0803 589.7945,135.5655 592,129.7714" style="fill:none;stroke:rgb(31,119,180);stroke-width:2;stroke-linejoin:bevel" />
  <text dominant-baseline="hanging" text-anchor="middle" transform="translate(313.006,8)" font-family="Segoe UI" font-size="18" font-weight="700" fill="black">7-Tage-Inzidenz Stadt Aachen 29.04.2021</text>
  <polygon points="34.012,29.0795 592,29.0795 592,370.947 34.012,370.947" style="fill:none;stroke:black;stroke-width:1" />
  <polygon points="42.012,37.0795 247.014,37.0795 247.014,63.1325 42.012,63.1325" style="fill:none;stroke:none;" />
  <text dominant-baseline="hanging" text-anchor="start" transform="translate(70.012,45.0795)" font-family="Segoe UI" font-size="12" font-weight="400" fill="black">7-Tage-Inzidenz Stadt Aachen 29.04.2021</text>
  <polyline points="50.012,50.106 66.012,50.106" style="fill:none;stroke:rgb(31,119,180);stroke-width:2" />
</svg>