<?xml version="1.0" encoding="utf-8" standalone="no"?>
<!DOCTYPE svg PUBLIC "-//W3C//DTD SVG 1.1//EN" "http://www.w3.org/Graphics/SVG/1.1/DTD/svg11.dtd">
<svg width="600" height="400" version="1.1" xmlns:xlink="http://www.w3.org/1999/xlink" xmlns="http://www.w3.org/2000/svg">
  <rect x="0" y="0" width="600" height="400" style="fill:rgb(255,255,255);stroke:none;" />
  <polyline points="39.016,347.7553 35.016,347.7553" style="fill:none;stroke:black;stroke-width:1" />
  <polyline points="39.016,327.9565 35.016,327.9565" style="fill:none;stroke:black;stroke-width:1" />
  <polyline points="39.016,308.1576 35.016,308.1576" style="fill:none;stroke:black;stroke-width:1" />
  <polyline points="39.016,288.3588 35.016,288.3588" style="fill:none;stroke:black;stroke-width:1" />
  <polyline points="39.016,248.7611 35.016,248.7611" style="fill:none;stroke:black;stroke-width:1" />
  <polyline points="39.016,228.9623 35.016,228.9623" style="fill:none;stroke:black;stroke-width:1" />
  <polyline points="39.016,209.1634 35.016,209.1634" style="fill:none;stroke:black;stroke-width:1" />
  <polyline points="39.016,189.3646 35.016,189.3646" style="fill:none;stroke:black;stroke-width:1" />
  <polyline points="39.016,149.7669 35.016,149.7669" style="fill:none;stroke:black;stroke-width:1" />
  <polyline points="39.016,129.9681 35.016,129.9681" style="fill:none;stroke:black;stroke-width:1" />
  <polyline points="39.016,110.1692 35.016,110.1692" style="fill:none;stroke:black;stroke-width:1" />
  <polyline points="39.016,90.3704 35.016,90.3704" style="fill:none;stroke:black;stroke-width:1" />
  <polyline points="39.016,50.7727 35.016,50.7727" style="fill:none;stroke:black;stroke-width:1" />
  <polyline points="39.016,30.9739 35.016,30.9739" style="fill:none;stroke:black;stroke-width:1" />
  <text dominant-baseline="middle" text-anchor="end" transform="translate(28.016,367.5541)" font-family="Segoe UI" font-size="12" font-weight="400" fill="black">0</text>
  <text dominant-baseline="middle" text-anchor="end" transform="translate(28.016,268.56)" font-family="Segoe UI" font-size="12" font-weight="400" fill="black">500</text>
  <text dominant-baseline="middle" text-anchor="end" transform="translate(28.016,169.5658)" font-family="Segoe UI" font-size="12" font-weight="400" fill="black">1000</text>
  <text dominant-baseline="middle" text-anchor="end" transform="translate(28.016,70.5716)" font-family="Segoe UI" font-size="12" font-weight="400" fill="black">1500</text>
  <polyline points="39.016,367.5541 32.016,367.5541" style="fill:none;stroke:black;stroke-width:1" />
  <polyline points="39.016,268.56 32.016,268.56" style="fill:none;stroke:black;stroke-width:1" />
  <polyline points="39.016,169.5658 32.016,169.5658" style="fill:none;stroke:black;stroke-width:1" />
  <polyline points="39.016,70.5716 32.016,70.5716" style="fill:none;stroke:black;stroke-width:1" />
  <text dominant-baseline="hanging" text-anchor="middle" transform="translate(186.0642,381.947)" font-family="Segoe UI" font-size="12" font-weight="400" fill="black">01. January</text>
  <text dominant-baseline="hanging" text-anchor="middle" transform="translate(564.0401,381.947)" font-family="Segoe UI" font-size="12" font-weight="400" fill="black">01. January</text>
  <polyline points="186.0642,370.947 186.0642,377.947" style="fill:none;stroke:black;stroke-width:1" />
  <polyline points="564.0401,370.947 564.0401,377.947" style="fill:none;stroke:black;stroke-width:1" />
  <polyline points="39.016,367.5622 41.0871,367.5622 44.1938,367.5622 45.2293,367.5621 46.2649,364.759 47.3004,364.7008 48.336,365.5354 51.4426,364.9919 52.4782,365.5354 53.5137,365.6131 54.5493,365.6907 55.5848,365.5354 58.6915,366.1566 59.727,365.9236 60.7626,366.0013 61.7981,365.9236 62.8337,365.9236 65.9403,366.0013 66.9759,366.2342 68.0114,366.0013 69.047,365.9236 70.0825,365.6131 73.1892,364.759 74.2247,364.1379 75.2603,363.4391 76.2958,363.3614 77.3314,362.7403 80.438,363.5167 81.4736,363.5944 82.5091,364.1379 83.5447,363.9049 84.5802,364.0602 87.6869,361.8862 88.7224,361.9639 89.758,361.8086 90.7935,360.411 91.8291,359.6346 94.9357,358.7029 95.9713,358.8582 97.0068,357.7712 98.0424,357.6134 99.0779,358.011 102.1846,355.9433 103.2201,355.7047 104.2557,354.989 105.2912,353.5575 106.3268,350.5355 109.4334,347.434 110.469,346.7978 111.5045,346.2411 112.5401,343.6168 113.5756,343.5372 116.6823,334.6303 117.7178,333.9146 118.7534,333.5169 119.7889,333.835 120.8245,329.302 123.9311,332.0059 124.9667,330.5745 126.0022,330.7335 127.0378,329.6997 128.0733,332.165 131.18,328.2682 132.2156,327.3934 133.2511,323.8147 135.3222,320.2361 138.4289,324.2124 139.4644,326.2005 140.5,327.3934 141.5355,324.7591 142.5711,332.324 145.6777,338.7657 146.7133,336.4594 147.7488,336.857 148.7844,344.412 149.8199,341.3105 152.9266,341.7081 153.9621,345.1278 154.9977,346.7978 156.0332,342.9806 157.0688,343.5372 160.1754,340.3562 161.211,340.6743 162.2465,340.4357 163.2821,336.5389 164.3176,339.5609 167.4243,336.9366 168.4598,335.5846 169.4954,333.9941 170.5309,335.7437 171.5665,334.2327 174.6731,331.7674 175.7087,331.8469 176.7442,335.1075 181.922,337.3342 182.9575,337.0161 183.9931,334.2327 185.0286,334.5011 189.1708,344.8097 190.2064,348.0702 191.2419,350.2174 192.2775,348.3088 193.313,345.426 197.4552,342.2648 198.4908,342.5829 199.5263,345.6049 200.5619,349.7403 203.6685,350.9093 204.7041,353.6371 205.7396,352.4442 206.7752,354.9095 207.8107,354.989 210.9174,353.1599 212.9885,354.1937 214.024,351.4103 215.0596,349.8198 218.1662,352.0465 219.2018,353.985 220.2373,353.1599 221.2729,354.1937 222.3084,355.7047 225.4151,356.1024 226.4507,355.7047 227.4862,353.5575 228.5218,353.7166 229.5573,352.7623 232.664,354.7504 233.6995,354.989 234.7351,357.8519 235.7706,358.8063 236.8062,361.033 239.9128,361.033 240.9484,361.192 241.9839,359.9196 243.0195,359.9992 244.055,359.3629 247.1617,360.9535 248.1972,360.7944 249.2328,360.2377 250.2683,357.0567 251.3039,356.2614 254.4105,352.2056 255.4461,352.2056 256.4816,351.967 257.5172,354.0347 258.5527,353.1599 261.6594,351.7284 262.6949,351.808 263.7305,350.7741 264.766,346.8773 265.8016,344.412 268.9082,343.2987 269.9438,343.2191 270.9793,343.8553 272.0149,342.2648 273.0504,344.0144 276.1571,346.5592 277.1926,346.0821 278.2282,347.0364 279.2637,349.2631 280.2993,345.764 284.4415,343.9349 285.477,346.0025 286.5126,343.4577 287.5481,348.0702 290.6548,346.7899 291.6903,345.4459 292.7259,338.8452 293.7614,341.7081 294.797,341.1514 297.9036,339.9586 298.9392,337.3342 299.9747,338.0499 301.0103,336.1413 302.0458,332.8012 305.1525,330.1768 306.188,332.4036 307.2236,334.3917 308.2591,333.5965 309.2947,333.9941 312.4013,337.5728 313.4369,335.9027 314.4724,335.0279 315.508,339.6405 316.5436,342.4239 319.6502,343.7758 320.6858,345.0482 321.7213,346.7978 323.7924,342.3443 326.8991,342.742 327.9346,340.7538 328.9702,339.9586 330.0057,340.555 331.0413,345.4459 335.1835,352.0465 336.219,355.4662 337.2546,356.8181 338.2901,357.2953 341.3968,358.3689 342.4323,359.0448 343.4679,358.8858 345.539,361.7487 348.6456,363.8959 349.6812,364.6117 350.7167,365.2479 351.7523,365.1187 352.7878,365.8841 355.8945,366.2817 356.93,366.1227 357.9656,366.1227 359.0011,365.9636 360.0367,365.566 363.1433,365.566 364.1789,365.4865 365.2144,365.9636 366.25,366.4408 367.2855,366.6794 370.3922,366.5998 371.4277,366.8384 372.4633,366.3612 373.4988,365.8841 374.5344,366.0431 377.641,366.0431 379.7121,366.1227 381.7832,366.4408 384.8899,366.5998 386.961,365.6455 389.0321,364.1345 394.2098,362.544 396.2809,360.5558 401.4587,360.3173 403.5298,362.2259 408.7076,362.1464 410.7787,361.2716 415.9564,357.2953 418.0275,352.7623 423.2053,351.4899 425.2764,353.5575 430.4541,344.0939 432.5252,342.742 437.703,348.6269 439.7741,347.0364 447.0229,349.5812 454.2718,354.1937 459.4495,355.8638 461.5206,356.7386 466.6984,357.3748 468.7695,358.9653 473.9472,361.1125 476.0183,361.1125 481.1961,361.033 483.2672,360.9535 488.4449,360.9535 490.516,358.4086 495.6938,353.2394 497.7649,348.0702 502.9427,346.7978 505.0138,344.0939 510.1915,333.3579 512.2626,329.3816 517.4404,325.4053 519.5115,325.1667 524.6892,310.6929 526.7603,304.8875 531.9381,308.9433 539.1869,311.5677 541.258,309.8446 546.4358,320.3951 548.5069,320.7132 568.1823,315.5775 570.2534,305.0996 575.4312,239.4375 577.5023,226.8723 582.68,186.7116 592,32.4308" style="fill:none;stroke:rgb(31,119,180);stroke-width:2;stroke-linejoin:bevel" />
  <text dominant-baseline="hanging" text-anchor="middle" transform="translate(315.508,8)" font-family="Segoe UI" font-size="18" font-weight="700" fill="black">7-Tage-Inzidenz Stadt Aachen 28.01.2022</text>
  <polygon points="39.016,29.0795 592,29.0795 592,370.947 39.016,370.947" style="fill:none;stroke:black;stroke-width:1" />
  <polygon points="47.016,37.0795 252.018,37.0795 252.018,63.1325 47.016,63.1325" style="fill:none;stroke:none;" />
  <text dominant-baseline="hanging" text-anchor="start" transform="translate(75.016,45.0795)" font-family="Segoe UI" font-size="12" font-weight="400" fill="black">7-Tage-Inzidenz Stadt Aachen 28.01.2022</text>
  <polyline points="55.016,50.106 71.016,50.106" style="fill:none;stroke:rgb(31,119,180);stroke-width:2" />
</svg>