<?xml version="1.0" encoding="utf-8" standalone="no"?>
<!DOCTYPE svg PUBLIC "-//W3C//DTD SVG 1.1//EN" "http://www.w3.org/Graphics/SVG/1.1/DTD/svg11.dtd">
<svg width="600" height="400" version="1.1" xmlns:xlink="http://www.w3.org/1999/xlink" xmlns="http://www.w3.org/2000/svg">
  <rect x="0" y="0" width="600" height="400" style="fill:rgb(255,255,255);stroke:none;" />
  <polyline points="34.012,362.7539 30.012,362.7539" style="fill:none;stroke:black;stroke-width:1" />
  <polyline points="34.012,348.3289 30.012,348.3289" style="fill:none;stroke:black;stroke-width:1" />
  <polyline points="34.012,333.904 30.012,333.904" style="fill:none;stroke:black;stroke-width:1" />
  <polyline points="34.012,319.479 30.012,319.479" style="fill:none;stroke:black;stroke-width:1" />
  <polyline points="34.012,290.6291 30.012,290.6291" style="fill:none;stroke:black;stroke-width:1" />
  <polyline points="34.012,276.2041 30.012,276.2041" style="fill:none;stroke:black;stroke-width:1" />
  <polyline points="34.012,261.7792 30.012,261.7792" style="fill:none;stroke:black;stroke-width:1" />
  <polyline points="34.012,247.3542 30.012,247.3542" style="fill:none;stroke:black;stroke-width:1" />
  <polyline points="34.012,218.5043 30.012,218.5043" style="fill:none;stroke:black;stroke-width:1" />
  <polyline points="34.012,204.0794 30.012,204.0794" style="fill:none;stroke:black;stroke-width:1" />
  <polyline points="34.012,189.6544 30.012,189.6544" style="fill:none;stroke:black;stroke-width:1" />
  <polyline points="34.012,175.2295 30.012,175.2295" style="fill:none;stroke:black;stroke-width:1" />
  <polyline points="34.012,146.3796 30.012,146.3796" style="fill:none;stroke:black;stroke-width:1" />
  <polyline points="34.012,131.9546 30.012,131.9546" style="fill:none;stroke:black;stroke-width:1" />
  <polyline points="34.012,117.5297 30.012,117.5297" style="fill:none;stroke:black;stroke-width:1" />
  <polyline points="34.012,103.1047 30.012,103.1047" style="fill:none;stroke:black;stroke-width:1" />
  <polyline points="34.012,74.2548 30.012,74.2548" style="fill:none;stroke:black;stroke-width:1" />
  <polyline points="34.012,59.8299 30.012,59.8299" style="fill:none;stroke:black;stroke-width:1" />
  <polyline points="34.012,45.4049 30.012,45.4049" style="fill:none;stroke:black;stroke-width:1" />
  <polyline points="34.012,30.98 30.012,30.98" style="fill:none;stroke:black;stroke-width:1" />
  <text dominant-baseline="middle" text-anchor="end" transform="translate(23.012,305.0541)" font-family="Segoe UI" font-size="12" font-weight="400" fill="black">50</text>
  <text dominant-baseline="middle" text-anchor="end" transform="translate(23.012,232.9293)" font-family="Segoe UI" font-size="12" font-weight="400" fill="black">100</text>
  <text dominant-baseline="middle" text-anchor="end" transform="translate(23.012,160.8045)" font-family="Segoe UI" font-size="12" font-weight="400" fill="black">150</text>
  <text dominant-baseline="middle" text-anchor="end" transform="translate(23.012,88.6798)" font-family="Segoe UI" font-size="12" font-weight="400" fill="black">200</text>
  <polyline points="34.012,305.0541 27.012,305.0541" style="fill:none;stroke:black;stroke-width:1" />
  <polyline points="34.012,232.9293 27.012,232.9293" style="fill:none;stroke:black;stroke-width:1" />
  <polyline points="34.012,160.8045 27.012,160.8045" style="fill:none;stroke:black;stroke-width:1" />
  <polyline points="34.012,88.6798 27.012,88.6798" style="fill:none;stroke:black;stroke-width:1" />
  <text dominant-baseline="hanging" text-anchor="middle" transform="translate(61.9114,381.947)" font-family="Segoe UI" font-size="12" font-weight="400" fill="black">01. September</text>
  <text dominant-baseline="hanging" text-anchor="middle" transform="translate(126.2946,381.947)" font-family="Segoe UI" font-size="12" font-weight="400" fill="black">01. October</text>
  <text dominant-baseline="hanging" text-anchor="middle" transform="translate(192.824,381.947)" font-family="Segoe UI" font-size="12" font-weight="400" fill="black">01. November</text>
  <text dominant-baseline="hanging" text-anchor="middle" transform="translate(257.2072,381.947)" font-family="Segoe UI" font-size="12" font-weight="400" fill="black">01. December</text>
  <text dominant-baseline="hanging" text-anchor="middle" transform="translate(323.7365,381.947)" font-family="Segoe UI" font-size="12" font-weight="400" fill="black">01. January</text>
  <text dominant-baseline="hanging" text-anchor="middle" transform="translate(390.2659,381.947)" font-family="Segoe UI" font-size="12" font-weight="400" fill="black">01. February</text>
  <text dominant-baseline="hanging" text-anchor="middle" transform="translate(450.3569,381.947)" font-family="Segoe UI" font-size="12" font-weight="400" fill="black">01. March</text>
  <text dominant-baseline="hanging" text-anchor="middle" transform="translate(516.8862,381.947)" font-family="Segoe UI" font-size="12" font-weight="400" fill="black">01. April</text>
  <text dominant-baseline="hanging" text-anchor="middle" transform="translate(581.2695,381.947)" font-family="Segoe UI" font-size="12" font-weight="400" fill="black">01. May</text>
  <polyline points="61.9114,370.947 61.9114,377.947" style="fill:none;stroke:black;stroke-width:1" />
  <polyline points="126.2946,370.947 126.2946,377.947" style="fill:none;stroke:black;stroke-width:1" />
  <polyline points="192.824,370.947 192.824,377.947" style="fill:none;stroke:black;stroke-width:1" />
  <polyline points="257.2072,370.947 257.2072,377.947" style="fill:none;stroke:black;stroke-width:1" />
  <polyline points="323.7365,370.947 323.7365,377.947" style="fill:none;stroke:black;stroke-width:1" />
  <polyline points="390.2659,370.947 390.2659,377.947" style="fill:none;stroke:black;stroke-width:1" />
  <polyline points="450.3569,370.947 450.3569,377.947" style="fill:none;stroke:black;stroke-width:1" />
  <polyline points="516.8862,370.947 516.8862,377.947" style="fill:none;stroke:black;stroke-width:1" />
  <polyline points="581.2695,370.947 581.2695,377.947" style="fill:none;stroke:black;stroke-width:1" />
  <polyline points="34.012,356.8142 36.1581,356.3899 38.3042,362.471 44.7425,358.5112 46.8886,362.471 49.0348,363.0367 51.1809,363.6024 53.327,362.471 59.7653,366.9965 61.9114,365.2994 64.0575,365.8651 66.2036,365.2994 68.3497,365.2994 74.788,365.8651 76.9342,367.5622 79.0803,365.8651 81.2264,365.2994 83.3725,363.0367 89.8108,356.8142 91.9569,352.2887 94.103,347.1975 96.2491,346.6319 98.3952,342.1064 104.8336,347.7632 106.9797,348.3289 109.1258,352.2887 111.2719,350.5916 113.418,351.723 119.8563,335.8838 122.0024,336.4495 124.1485,335.3182 126.2946,325.1358 128.4407,319.479 134.8791,312.6908 137.0252,313.8222 139.1713,305.9026 141.3174,304.7528 143.4635,307.6498 149.9018,292.5852 152.0479,290.847 154.194,285.6323 156.3401,275.2029 158.4862,253.1854 164.9246,230.5885 167.0707,225.9532 169.2168,221.8974 171.3629,202.7769 173.509,202.1975 179.9473,137.3037 182.0934,132.0891 184.2395,129.192 186.3856,131.5096 188.5318,98.4834 194.9701,118.1833 197.1162,107.7539 199.2623,108.9127 201.4084,101.3804 203.5545,119.3421 209.9928,90.9511 212.1389,84.5776 214.285,58.5042 218.5773,32.4308 225.0156,61.4012 227.1617,75.8864 229.3078,84.5776 231.4539,65.3847 233.6,120.5009 240.0383,167.433 242.1844,150.6301 244.3306,153.5272 246.4767,208.571 248.6228,185.974 255.0611,188.8711 257.2072,213.7856 259.3533,225.9532 261.4994,198.1416 263.6455,202.1975 270.0838,179.0211 272.23,181.3388 274.3761,179.6005 276.5222,151.2095 278.6683,173.2271 285.1066,154.1066 287.2527,144.2566 289.3988,132.6685 291.5449,145.4155 293.691,134.4067 300.1294,116.445 302.2755,117.0244 304.4216,140.7802 315.1521,157.0036 317.2982,154.686 319.4443,134.4067 321.5904,136.3622 330.1749,211.468 332.321,235.2238 334.4671,250.8678 336.6132,236.962 338.7593,215.9584 347.3437,192.9269 349.4898,195.2446 351.6359,217.2621 353.782,247.3913 360.2204,255.9086 362.3665,275.7823 364.5126,267.0912 366.6587,285.0529 368.8048,285.6323 375.2431,272.3059 379.5353,279.8382 381.6814,259.5589 383.8276,247.9707 390.2659,264.1942 392.412,278.3173 394.5581,272.3059 396.7042,279.8382 398.8503,290.847 405.2886,293.744 407.4347,290.847 409.5808,275.2029 411.727,276.3617 413.8731,269.4088 420.3114,283.8941 422.4575,285.6323 424.6036,306.491 426.7497,313.4439 428.8958,329.6673 435.3341,329.6673 437.4802,330.8261 439.6264,321.5556 441.7725,322.135 443.9186,317.4997 450.3569,329.0879 452.503,327.9291 454.6491,323.8732 456.7952,300.6969 458.9413,294.9028 465.3796,265.353 467.5258,265.353 469.6719,263.6148 471.818,278.6794 473.9641,272.3059 480.4024,261.8765 482.5485,262.4559 484.6946,254.9236 486.8407,226.5326 488.9868,208.571 495.4252,200.4592 497.5713,199.8798 499.7174,204.5151 501.8635,192.9269 504.0096,205.6739 510.4479,224.215 512.594,220.7385 514.7401,227.6914 516.8862,243.9149 519.0323,218.4209 527.6168,205.0945 529.7629,220.1591 531.909,201.6181 534.0551,235.2238 540.4934,225.8953 542.6395,216.1033 544.7856,168.0124 546.9317,188.8711 549.0778,184.8152 555.5162,176.1241 557.6623,157.0036 559.8084,162.2183 561.9545,148.3125 564.1006,123.9773 570.5389,104.8569 572.685,121.0803 574.8311,135.5655 576.9772,129.7714 579.1234,132.6685 585.5617,158.7418 587.7078,146.5743 589.8539,140.2008 592,173.8065" style="fill:none;stroke:rgb(31,119,180);stroke-width:2;stroke-linejoin:bevel" />
  <text dominant-baseline="hanging" text-anchor="middle" transform="translate(313.006,8)" font-family="Segoe UI" font-size="18" font-weight="700" fill="black">7-Tage-Inzidenz Stadt Aachen 06.05.2021</text>
  <polygon points="34.012,29.0795 592,29.0795 592,370.947 34.012,370.947" style="fill:none;stroke:black;stroke-width:1" />
  <polygon points="42.012,37.0795 247.014,37.0795 247.014,63.1325 42.012,63.1325" style="fill:none;stroke:none;" />
  <text dominant-baseline="hanging" text-anchor="start" transform="translate(70.012,45.0795)" font-family="Segoe UI" font-size="12" font-weight="400" fill="black">7-Tage-Inzidenz Stadt Aachen 06.05.2021</text>
  <polyline points="50.012,50.106 66.012,50.106" style="fill:none;stroke:rgb(31,119,180);stroke-width:2" />
</svg>