<?xml version="1.0" encoding="utf-8" standalone="no"?>
<!DOCTYPE svg PUBLIC "-//W3C//DTD SVG 1.1//EN" "http://www.w3.org/Graphics/SVG/1.1/DTD/svg11.dtd">
<svg width="600" height="400" version="1.1" xmlns:xlink="http://www.w3.org/1999/xlink" xmlns="http://www.w3.org/2000/svg">
  <rect x="0" y="0" width="600" height="400" style="fill:rgb(255,255,255);stroke:none;" />
  <polyline points="34.012,353.4851 30.012,353.4851" style="fill:none;stroke:black;stroke-width:1" />
  <polyline points="34.012,339.4649 30.012,339.4649" style="fill:none;stroke:black;stroke-width:1" />
  <polyline points="34.012,325.4447 30.012,325.4447" style="fill:none;stroke:black;stroke-width:1" />
  <polyline points="34.012,311.4245 30.012,311.4245" style="fill:none;stroke:black;stroke-width:1" />
  <polyline points="34.012,283.3841 30.012,283.3841" style="fill:none;stroke:black;stroke-width:1" />
  <polyline points="34.012,269.3639 30.012,269.3639" style="fill:none;stroke:black;stroke-width:1" />
  <polyline points="34.012,255.3438 30.012,255.3438" style="fill:none;stroke:black;stroke-width:1" />
  <polyline points="34.012,241.3236 30.012,241.3236" style="fill:none;stroke:black;stroke-width:1" />
  <polyline points="34.012,213.2832 30.012,213.2832" style="fill:none;stroke:black;stroke-width:1" />
  <polyline points="34.012,199.263 30.012,199.263" style="fill:none;stroke:black;stroke-width:1" />
  <polyline points="34.012,185.2428 30.012,185.2428" style="fill:none;stroke:black;stroke-width:1" />
  <polyline points="34.012,171.2226 30.012,171.2226" style="fill:none;stroke:black;stroke-width:1" />
  <polyline points="34.012,143.1822 30.012,143.1822" style="fill:none;stroke:black;stroke-width:1" />
  <polyline points="34.012,129.162 30.012,129.162" style="fill:none;stroke:black;stroke-width:1" />
  <polyline points="34.012,115.1418 30.012,115.1418" style="fill:none;stroke:black;stroke-width:1" />
  <polyline points="34.012,101.1216 30.012,101.1216" style="fill:none;stroke:black;stroke-width:1" />
  <polyline points="34.012,73.0813 30.012,73.0813" style="fill:none;stroke:black;stroke-width:1" />
  <polyline points="34.012,59.0611 30.012,59.0611" style="fill:none;stroke:black;stroke-width:1" />
  <polyline points="34.012,45.0409 30.012,45.0409" style="fill:none;stroke:black;stroke-width:1" />
  <polyline points="34.012,31.0207 30.012,31.0207" style="fill:none;stroke:black;stroke-width:1" />
  <text dominant-baseline="middle" text-anchor="end" transform="translate(23.012,367.5053)" font-family="Segoe UI" font-size="12" font-weight="400" fill="black">0</text>
  <text dominant-baseline="middle" text-anchor="end" transform="translate(23.012,297.4043)" font-family="Segoe UI" font-size="12" font-weight="400" fill="black">50</text>
  <text dominant-baseline="middle" text-anchor="end" transform="translate(23.012,227.3034)" font-family="Segoe UI" font-size="12" font-weight="400" fill="black">100</text>
  <text dominant-baseline="middle" text-anchor="end" transform="translate(23.012,157.2024)" font-family="Segoe UI" font-size="12" font-weight="400" fill="black">150</text>
  <text dominant-baseline="middle" text-anchor="end" transform="translate(23.012,87.1015)" font-family="Segoe UI" font-size="12" font-weight="400" fill="black">200</text>
  <polyline points="34.012,367.5053 27.012,367.5053" style="fill:none;stroke:black;stroke-width:1" />
  <polyline points="34.012,297.4043 27.012,297.4043" style="fill:none;stroke:black;stroke-width:1" />
  <polyline points="34.012,227.3034 27.012,227.3034" style="fill:none;stroke:black;stroke-width:1" />
  <polyline points="34.012,157.2024 27.012,157.2024" style="fill:none;stroke:black;stroke-width:1" />
  <polyline points="34.012,87.1015 27.012,87.1015" style="fill:none;stroke:black;stroke-width:1" />
  <text dominant-baseline="hanging" text-anchor="middle" transform="translate(238.7518,381.947)" font-family="Segoe UI" font-size="12" font-weight="400" fill="black">01. January</text>
  <polyline points="238.7518,370.947 238.7518,377.947" style="fill:none;stroke:black;stroke-width:1" />
  <polyline points="34.012,367.5622 36.8957,367.5621 41.2211,367.5621 42.663,367.562 44.1048,347.7121 45.5466,347.2997 46.9885,353.2102 51.314,349.3615 52.7558,353.2102 54.1976,353.76 55.6394,354.3098 57.0813,353.2102 61.4068,357.6087 62.8486,355.9593 64.2904,356.5091 65.7322,355.9593 67.1741,355.9593 71.4996,356.5091 72.9414,358.1585 74.3832,356.5091 75.8251,355.9593 77.2669,353.76 81.5924,347.7121 83.0342,343.3136 84.476,338.3653 85.9179,337.8155 87.3597,333.417 91.6852,338.9151 93.127,339.4649 94.5688,343.3136 96.0107,341.6642 97.4525,342.7638 101.778,327.3691 103.2198,327.9189 104.6616,326.8192 106.1035,316.9226 107.5453,311.4245 111.8708,304.8268 113.3126,305.9264 114.7544,298.229 116.1963,297.1115 117.6381,299.9272 121.9636,285.2853 123.4054,283.5959 124.8473,278.5275 126.2891,268.3908 127.7309,246.9911 132.0564,225.0282 133.4982,220.523 134.9401,216.581 136.3819,197.997 137.8237,197.4339 142.1492,134.361 143.591,129.2927 145.0329,126.4769 146.4747,128.7295 147.9165,96.63 152.242,115.7771 153.6838,105.6404 155.1257,106.7667 156.5675,99.4457 158.0093,116.9034 162.3348,89.309 163.7767,83.1143 165.2185,57.7726 168.1021,32.4308 172.4276,60.5883 173.8695,74.6671 175.3113,83.1143 176.7531,64.46 178.1949,118.0297 182.5204,163.6449 183.9623,147.3135 185.4041,150.1292 186.8459,203.6285 188.2878,181.6657 192.6132,184.4814 194.0551,208.6969 195.4969,220.523 196.9387,193.4918 198.3806,197.4339 202.706,174.9079 204.1479,177.1605 205.5897,175.471 207.0315,147.8766 208.4734,169.2764 212.7989,150.6924 214.2407,141.1188 215.6825,129.8558 217.1243,142.2451 218.5662,131.5453 222.8917,114.0876 224.3335,114.6508 225.7753,137.7399 232.9845,153.5081 234.4263,151.2555 235.8681,131.5453 237.31,133.4459 243.0773,206.4443 244.5191,229.5334 245.9609,244.7385 247.4028,231.2229 248.8446,210.8087 254.6119,188.4235 256.0537,190.6761 257.4956,212.0758 258.9374,241.3596 263.2629,249.6379 264.7047,268.954 266.1465,260.5067 267.5884,277.9644 269.0302,278.5275 273.3557,265.5751 276.2393,272.896 277.6812,253.1858 279.123,241.9228 283.4485,257.691 284.8903,271.4178 286.3322,265.5751 287.774,272.896 289.2158,283.5959 293.5413,286.4116 294.9831,283.5959 296.425,268.3908 297.8668,269.5171 299.3086,262.7593 303.6341,276.8381 305.0759,278.5275 306.5178,298.8009 307.9596,305.5587 309.4014,321.327 313.7269,321.327 315.1687,322.4533 316.6106,313.4429 318.0524,314.006 319.4942,309.5008 323.8197,320.7638 325.2616,319.6375 326.7034,315.6955 328.1452,293.1694 329.587,287.5379 333.9125,258.8173 335.3544,258.8173 336.7962,257.1278 338.238,271.7697 339.6798,265.5751 344.0053,255.4384 345.4472,256.0015 346.889,248.6806 348.3308,221.0862 349.7727,203.6285 354.0981,195.7444 355.54,195.1813 356.9818,199.6865 358.4236,188.4235 359.8655,200.8128 364.1909,218.8336 365.6328,215.4547 367.0746,222.2125 368.5164,237.9807 369.9583,213.2021 375.7256,200.2496 377.1674,214.8915 378.6092,196.8707 380.0511,229.5334 384.3766,220.4667 385.8184,210.9495 387.2602,164.208 388.702,184.4814 390.1439,180.5394 394.4694,172.0921 395.9112,153.5081 397.353,158.5765 398.7949,145.0609 400.2367,121.4086 404.5622,102.8246 406.004,118.5928 407.4458,132.6716 408.8877,127.0401 410.3295,129.8558 414.655,155.1976 416.0968,143.3714 417.5386,137.1768 418.9805,169.8395 420.4223,189.5498 424.7478,199.1233 426.1896,208.1337 427.6314,220.523 430.5151,188.9866 434.8406,191.8024 436.2824,177.7236 437.7242,172.0921 439.1661,176.3157 440.6079,210.9495 446.3752,257.691 447.8171,281.9064 449.2589,291.48 450.7007,294.8589 455.0262,302.4614 456.468,307.2482 457.9099,306.1219 460.7935,326.3953 465.119,341.6004 466.5608,346.6687 468.0027,351.1739 469.4445,350.2588 470.8863,355.6791 475.2118,358.4949 476.6536,357.3686 478.0955,357.3686 479.5373,356.2423 480.9791,353.4265 485.3046,353.4265 486.7464,352.8634 488.1883,356.2423 489.6301,359.6212 491.0719,361.3106 495.3974,360.7475 496.8393,362.4369 498.2811,359.058 499.7229,355.6791 501.1647,356.8054 505.4902,356.8054 508.3739,357.3686 511.2576,359.6212 515.583,360.7475 518.4667,353.9897 521.3504,343.2898 528.5595,332.0268 531.4432,317.9481 538.6523,316.2586 541.536,329.7742 548.7451,329.2111 551.6288,323.0164 558.8379,294.8589 561.7216,262.7593 568.9307,253.7489 571.8144,268.3908 579.0235,201.3759 581.9072,191.8024 589.1163,233.4755 592,222.2125" style="fill:none;stroke:rgb(31,119,180);stroke-width:2;stroke-linejoin:bevel" />
  <text dominant-baseline="hanging" text-anchor="middle" transform="translate(313.006,8)" font-family="Segoe UI" font-size="18" font-weight="700" fill="black">7-Tage-Inzidenz Stadt Aachen 03.09.2021</text>
  <polygon points="34.012,29.0795 592,29.0795 592,370.947 34.012,370.947" style="fill:none;stroke:black;stroke-width:1" />
  <polygon points="42.012,37.0795 247.014,37.0795 247.014,63.1325 42.012,63.1325" style="fill:none;stroke:none;" />
  <text dominant-baseline="hanging" text-anchor="start" transform="translate(70.012,45.0795)" font-family="Segoe UI" font-size="12" font-weight="400" fill="black">7-Tage-Inzidenz Stadt Aachen 03.09.2021</text>
  <polyline points="50.012,50.106 66.012,50.106" style="fill:none;stroke:rgb(31,119,180);stroke-width:2" />
</svg>