<?xml version="1.0" encoding="utf-8" standalone="no"?>
<!DOCTYPE svg PUBLIC "-//W3C//DTD SVG 1.1//EN" "http://www.w3.org/Graphics/SVG/1.1/DTD/svg11.dtd">
<svg width="600" height="400" version="1.1" xmlns:xlink="http://www.w3.org/1999/xlink" xmlns="http://www.w3.org/2000/svg">
  <rect x="0" y="0" width="600" height="400" style="fill:rgb(255,255,255);stroke:none;" />
  <polyline points="34.012,362.7539 30.012,362.7539" style="fill:none;stroke:black;stroke-width:1" />
  <polyline points="34.012,348.3289 30.012,348.3289" style="fill:none;stroke:black;stroke-width:1" />
  <polyline points="34.012,333.904 30.012,333.904" style="fill:none;stroke:black;stroke-width:1" />
  <polyline points="34.012,319.479 30.012,319.479" style="fill:none;stroke:black;stroke-width:1" />
  <polyline points="34.012,290.6291 30.012,290.6291" style="fill:none;stroke:black;stroke-width:1" />
  <polyline points="34.012,276.2041 30.012,276.2041" style="fill:none;stroke:black;stroke-width:1" />
  <polyline points="34.012,261.7792 30.012,261.7792" style="fill:none;stroke:black;stroke-width:1" />
  <polyline points="34.012,247.3542 30.012,247.3542" style="fill:none;stroke:black;stroke-width:1" />
  <polyline points="34.012,218.5043 30.012,218.5043" style="fill:none;stroke:black;stroke-width:1" />
  <polyline points="34.012,204.0794 30.012,204.0794" style="fill:none;stroke:black;stroke-width:1" />
  <polyline points="34.012,189.6544 30.012,189.6544" style="fill:none;stroke:black;stroke-width:1" />
  <polyline points="34.012,175.2295 30.012,175.2295" style="fill:none;stroke:black;stroke-width:1" />
  <polyline points="34.012,146.3796 30.012,146.3796" style="fill:none;stroke:black;stroke-width:1" />
  <polyline points="34.012,131.9546 30.012,131.9546" style="fill:none;stroke:black;stroke-width:1" />
  <polyline points="34.012,117.5297 30.012,117.5297" style="fill:none;stroke:black;stroke-width:1" />
  <polyline points="34.012,103.1047 30.012,103.1047" style="fill:none;stroke:black;stroke-width:1" />
  <polyline points="34.012,74.2548 30.012,74.2548" style="fill:none;stroke:black;stroke-width:1" />
  <polyline points="34.012,59.8299 30.012,59.8299" style="fill:none;stroke:black;stroke-width:1" />
  <polyline points="34.012,45.4049 30.012,45.4049" style="fill:none;stroke:black;stroke-width:1" />
  <polyline points="34.012,30.98 30.012,30.98" style="fill:none;stroke:black;stroke-width:1" />
  <text dominant-baseline="middle" text-anchor="end" transform="translate(23.012,305.0541)" font-family="Segoe UI" font-size="12" font-weight="400" fill="black">50</text>
  <text dominant-baseline="middle" text-anchor="end" transform="translate(23.012,232.9293)" font-family="Segoe UI" font-size="12" font-weight="400" fill="black">100</text>
  <text dominant-baseline="middle" text-anchor="end" transform="translate(23.012,160.8045)" font-family="Segoe UI" font-size="12" font-weight="400" fill="black">150</text>
  <text dominant-baseline="middle" text-anchor="end" transform="translate(23.012,88.6798)" font-family="Segoe UI" font-size="12" font-weight="400" fill="black">200</text>
  <polyline points="34.012,305.0541 27.012,305.0541" style="fill:none;stroke:black;stroke-width:1" />
  <polyline points="34.012,232.9293 27.012,232.9293" style="fill:none;stroke:black;stroke-width:1" />
  <polyline points="34.012,160.8045 27.012,160.8045" style="fill:none;stroke:black;stroke-width:1" />
  <polyline points="34.012,88.6798 27.012,88.6798" style="fill:none;stroke:black;stroke-width:1" />
  <text dominant-baseline="hanging" text-anchor="middle" transform="translate(79.011,381.947)" font-family="Segoe UI" font-size="12" font-weight="400" fill="black">29. August</text>
  <text dominant-baseline="hanging" text-anchor="middle" transform="translate(142.0097,381.947)" font-family="Segoe UI" font-size="12" font-weight="400" fill="black">12. September</text>
  <text dominant-baseline="hanging" text-anchor="middle" transform="translate(205.0083,381.947)" font-family="Segoe UI" font-size="12" font-weight="400" fill="black">26. September</text>
  <text dominant-baseline="hanging" text-anchor="middle" transform="translate(268.007,381.947)" font-family="Segoe UI" font-size="12" font-weight="400" fill="black">10. October</text>
  <text dominant-baseline="hanging" text-anchor="middle" transform="translate(331.0056,381.947)" font-family="Segoe UI" font-size="12" font-weight="400" fill="black">24. October</text>
  <text dominant-baseline="hanging" text-anchor="middle" transform="translate(394.0043,381.947)" font-family="Segoe UI" font-size="12" font-weight="400" fill="black">07. November</text>
  <text dominant-baseline="hanging" text-anchor="middle" transform="translate(457.0029,381.947)" font-family="Segoe UI" font-size="12" font-weight="400" fill="black">21. November</text>
  <text dominant-baseline="hanging" text-anchor="middle" transform="translate(520.0015,381.947)" font-family="Segoe UI" font-size="12" font-weight="400" fill="black">05. December</text>
  <text dominant-baseline="hanging" text-anchor="middle" transform="translate(583.0002,381.947)" font-family="Segoe UI" font-size="12" font-weight="400" fill="black">19. December</text>
  <polyline points="79.011,370.947 79.011,377.947" style="fill:none;stroke:black;stroke-width:1" />
  <polyline points="142.0097,370.947 142.0097,377.947" style="fill:none;stroke:black;stroke-width:1" />
  <polyline points="205.0083,370.947 205.0083,377.947" style="fill:none;stroke:black;stroke-width:1" />
  <polyline points="268.007,370.947 268.007,377.947" style="fill:none;stroke:black;stroke-width:1" />
  <polyline points="331.0056,370.947 331.0056,377.947" style="fill:none;stroke:black;stroke-width:1" />
  <polyline points="394.0043,370.947 394.0043,377.947" style="fill:none;stroke:black;stroke-width:1" />
  <polyline points="457.0029,370.947 457.0029,377.947" style="fill:none;stroke:black;stroke-width:1" />
  <polyline points="520.0015,370.947 520.0015,377.947" style="fill:none;stroke:black;stroke-width:1" />
  <polyline points="583.0002,370.947 583.0002,377.947" style="fill:none;stroke:black;stroke-width:1" />
  <polyline points="34.012,356.8142 38.5119,356.3899 43.0118,362.471 56.5115,358.5112 61.0114,362.471 65.5113,363.0367 70.0112,363.6024 74.5111,362.471 88.0108,366.9965 92.5107,365.2994 97.0106,365.8651 101.5105,365.2994 106.0105,365.2994 119.5102,365.8651 124.0101,367.5622 128.51,365.8651 133.0099,365.2994 137.5098,363.0367 151.0095,356.8142 155.5094,352.2887 160.0093,347.1975 164.5092,346.6319 169.0091,342.1064 182.5088,347.7632 187.0087,348.3289 191.5086,352.2887 196.0085,350.5916 200.5084,351.723 214.0081,335.8838 218.508,336.4495 223.0079,335.3182 227.5078,325.1358 232.0077,319.479 245.5075,312.6908 250.0074,313.8222 254.5073,305.9026 259.0072,304.7528 263.5071,307.6498 277.0068,292.5852 281.5067,290.847 286.0066,285.6323 290.5065,275.2029 295.0064,253.1854 308.5061,230.5885 313.006,225.9532 317.5059,221.8974 322.0058,202.7769 326.5057,202.1975 340.0054,137.3037 344.5053,132.0891 349.0052,129.192 353.5051,131.5096 358.005,98.4834 371.5047,118.1833 376.0046,107.7539 380.5045,108.9127 385.0045,101.3804 389.5044,119.3421 403.0041,90.9511 407.504,84.5776 412.0039,58.5042 421.0037,32.4308 434.5034,61.4012 439.0033,75.8864 443.5032,84.5776 448.0031,65.3847 452.503,120.5009 466.0027,167.433 470.5026,150.6301 475.0025,153.5272 479.5024,208.571 484.0023,185.974 497.502,188.8711 502.0019,213.7856 506.5018,225.9532 511.0017,198.1416 515.5016,202.1975 529.0014,179.0211 533.5013,181.3388 538.0012,179.6005 542.5011,151.2095 547.001,173.2271 560.5007,154.1066 565.0006,144.2566 569.5005,132.6685 574.0004,145.4155 578.5003,134.4067 592,116.445" style="fill:none;stroke:rgb(31,119,180);stroke-width:2;stroke-linejoin:bevel" />
  <text dominant-baseline="hanging" text-anchor="middle" transform="translate(313.006,8)" font-family="Segoe UI" font-size="18" font-weight="700" fill="black">7-Tage-Inzidenz Stadt Aachen 21.12.2020</text>
  <polygon points="34.012,29.0795 592,29.0795 592,370.947 34.012,370.947" style="fill:none;stroke:black;stroke-width:1" />
  <polygon points="42.012,37.0795 247.014,37.0795 247.014,63.1325 42.012,63.1325" style="fill:none;stroke:none;" />
  <text dominant-baseline="hanging" text-anchor="start" transform="translate(70.012,45.0795)" font-family="Segoe UI" font-size="12" font-weight="400" fill="black">7-Tage-Inzidenz Stadt Aachen 21.12.2020</text>
  <polyline points="50.012,50.106 66.012,50.106" style="fill:none;stroke:rgb(31,119,180);stroke-width:2" />
</svg>