<?xml version="1.0" encoding="utf-8" standalone="no"?>
<!DOCTYPE svg PUBLIC "-//W3C//DTD SVG 1.1//EN" "http://www.w3.org/Graphics/SVG/1.1/DTD/svg11.dtd">
<svg width="600" height="400" version="1.1" xmlns:xlink="http://www.w3.org/1999/xlink" xmlns="http://www.w3.org/2000/svg">
  <rect x="0" y="0" width="600" height="400" style="fill:rgb(255,255,255);stroke:none;" />
  <polyline points="34.012,358.4713 30.012,358.4713" style="fill:none;stroke:black;stroke-width:1" />
  <polyline points="34.012,344.2334 30.012,344.2334" style="fill:none;stroke:black;stroke-width:1" />
  <polyline points="34.012,329.9954 30.012,329.9954" style="fill:none;stroke:black;stroke-width:1" />
  <polyline points="34.012,315.7575 30.012,315.7575" style="fill:none;stroke:black;stroke-width:1" />
  <polyline points="34.012,287.2816 30.012,287.2816" style="fill:none;stroke:black;stroke-width:1" />
  <polyline points="34.012,273.0437 30.012,273.0437" style="fill:none;stroke:black;stroke-width:1" />
  <polyline points="34.012,258.8058 30.012,258.8058" style="fill:none;stroke:black;stroke-width:1" />
  <polyline points="34.012,244.5678 30.012,244.5678" style="fill:none;stroke:black;stroke-width:1" />
  <polyline points="34.012,216.0919 30.012,216.0919" style="fill:none;stroke:black;stroke-width:1" />
  <polyline points="34.012,201.854 30.012,201.854" style="fill:none;stroke:black;stroke-width:1" />
  <polyline points="34.012,187.6161 30.012,187.6161" style="fill:none;stroke:black;stroke-width:1" />
  <polyline points="34.012,173.3781 30.012,173.3781" style="fill:none;stroke:black;stroke-width:1" />
  <polyline points="34.012,144.9023 30.012,144.9023" style="fill:none;stroke:black;stroke-width:1" />
  <polyline points="34.012,130.6643 30.012,130.6643" style="fill:none;stroke:black;stroke-width:1" />
  <polyline points="34.012,116.4264 30.012,116.4264" style="fill:none;stroke:black;stroke-width:1" />
  <polyline points="34.012,102.1885 30.012,102.1885" style="fill:none;stroke:black;stroke-width:1" />
  <polyline points="34.012,73.7126 30.012,73.7126" style="fill:none;stroke:black;stroke-width:1" />
  <polyline points="34.012,59.4747 30.012,59.4747" style="fill:none;stroke:black;stroke-width:1" />
  <polyline points="34.012,45.2367 30.012,45.2367" style="fill:none;stroke:black;stroke-width:1" />
  <polyline points="34.012,30.9988 30.012,30.9988" style="fill:none;stroke:black;stroke-width:1" />
  <polyline points="54.6195,370.947 54.6195,374.947" style="fill:none;stroke:black;stroke-width:1" />
  <polyline points="151.3163,370.947 151.3163,374.947" style="fill:none;stroke:black;stroke-width:1" />
  <polyline points="248.0131,370.947 248.0131,374.947" style="fill:none;stroke:black;stroke-width:1" />
  <polyline points="341.5395,370.947 341.5395,374.947" style="fill:none;stroke:black;stroke-width:1" />
  <polyline points="438.2363,370.947 438.2363,374.947" style="fill:none;stroke:black;stroke-width:1" />
  <polyline points="534.933,370.947 534.933,374.947" style="fill:none;stroke:black;stroke-width:1" />
  <text dominant-baseline="middle" text-anchor="end" transform="translate(23.012,301.5196)" font-family="Segoe UI" font-size="12" font-weight="400" fill="black">50</text>
  <text dominant-baseline="middle" text-anchor="end" transform="translate(23.012,230.3299)" font-family="Segoe UI" font-size="12" font-weight="400" fill="black">100</text>
  <text dominant-baseline="middle" text-anchor="end" transform="translate(23.012,159.1402)" font-family="Segoe UI" font-size="12" font-weight="400" fill="black">150</text>
  <text dominant-baseline="middle" text-anchor="end" transform="translate(23.012,87.9505)" font-family="Segoe UI" font-size="12" font-weight="400" fill="black">200</text>
  <polyline points="34.012,301.5196 27.012,301.5196" style="fill:none;stroke:black;stroke-width:1" />
  <polyline points="34.012,230.3299 27.012,230.3299" style="fill:none;stroke:black;stroke-width:1" />
  <polyline points="34.012,159.1402 27.012,159.1402" style="fill:none;stroke:black;stroke-width:1" />
  <polyline points="34.012,87.9505 27.012,87.9505" style="fill:none;stroke:black;stroke-width:1" />
  <text dominant-baseline="hanging" text-anchor="middle" transform="translate(102.1753,381.947)" font-family="Segoe UI" font-size="12" font-weight="400" fill="black">01. October</text>
  <text dominant-baseline="hanging" text-anchor="middle" transform="translate(198.8721,381.947)" font-family="Segoe UI" font-size="12" font-weight="400" fill="black">01. December</text>
  <text dominant-baseline="hanging" text-anchor="middle" transform="translate(297.1541,381.947)" font-family="Segoe UI" font-size="12" font-weight="400" fill="black">01. February</text>
  <text dominant-baseline="hanging" text-anchor="middle" transform="translate(390.6805,381.947)" font-family="Segoe UI" font-size="12" font-weight="400" fill="black">01. April</text>
  <text dominant-baseline="hanging" text-anchor="middle" transform="translate(487.3773,381.947)" font-family="Segoe UI" font-size="12" font-weight="400" fill="black">01. June</text>
  <text dominant-baseline="hanging" text-anchor="middle" transform="translate(584.074,381.947)" font-family="Segoe UI" font-size="12" font-weight="400" fill="black">01. August</text>
  <polyline points="102.1753,370.947 102.1753,377.947" style="fill:none;stroke:black;stroke-width:1" />
  <polyline points="198.8721,370.947 198.8721,377.947" style="fill:none;stroke:black;stroke-width:1" />
  <polyline points="297.1541,370.947 297.1541,377.947" style="fill:none;stroke:black;stroke-width:1" />
  <polyline points="390.6805,370.947 390.6805,377.947" style="fill:none;stroke:black;stroke-width:1" />
  <polyline points="487.3773,370.947 487.3773,377.947" style="fill:none;stroke:black;stroke-width:1" />
  <polyline points="584.074,370.947 584.074,377.947" style="fill:none;stroke:black;stroke-width:1" />
  <polyline points="34.012,352.6086 35.5972,352.1899 37.1824,358.1921 41.938,354.2837 43.5232,358.1921 45.1084,358.7505 46.6935,359.3088 48.2787,358.1921 53.0343,362.6589 54.6195,360.9839 56.2047,361.5422 57.7899,360.9839 59.3751,360.9839 64.1307,361.5422 65.7159,363.2173 67.3011,361.5422 68.8863,360.9839 70.4714,358.7505 75.227,352.6086 76.8122,348.1418 78.3974,343.1167 79.9826,342.5583 81.5678,338.0915 86.3234,343.675 87.9086,344.2334 89.4938,348.1418 91.079,346.4668 92.6641,347.5835 97.4197,331.9497 99.0049,332.508 100.5901,331.3913 102.1753,321.341 103.7605,315.7575 108.5161,309.0573 110.1013,310.174 111.6865,302.3571 113.2717,301.2222 114.8569,304.0817 119.6124,289.2124 121.1976,287.4967 122.7828,282.3496 124.368,272.0555 125.9532,250.3234 130.7088,228.0194 132.294,223.4443 133.8792,219.441 135.4644,200.5684 137.0496,199.9965 141.8051,135.9441 143.3903,130.797 144.9755,127.9375 146.5607,130.2251 148.1459,97.627 152.9015,117.0715 154.4867,106.7774 156.0719,107.9212 157.6571,100.4865 159.2423,118.2153 163.9978,90.1924 165.583,83.9015 167.1682,58.1662 170.3386,32.4308 175.0942,61.0256 176.6794,75.3231 178.2646,83.9015 179.8498,64.9574 181.435,119.3591 186.1905,165.6827 187.7757,149.0977 189.3609,151.9572 190.9461,206.2874 192.5313,183.9834 197.2869,186.8429 198.8721,211.4344 200.4573,223.4443 202.0425,195.9932 203.6277,199.9965 208.3833,177.1206 209.9684,179.4082 211.5536,177.6925 213.1388,149.6696 214.724,171.4017 219.4796,152.5291 221.0648,142.8068 222.65,131.3689 224.2352,143.9506 225.8204,133.0846 230.576,115.3558 232.1611,115.9277 233.7463,139.3755 241.6723,155.3886 243.2575,153.101 244.8427,133.0846 246.4279,135.0148 252.7687,209.1468 254.3539,232.5946 255.939,248.0358 257.5242,234.3103 259.1094,213.579 265.4502,190.8461 267.0354,193.1337 268.6206,214.8658 270.2058,244.6044 274.9614,253.0113 276.5466,272.6274 278.1318,264.0489 279.7169,281.7777 281.3021,282.3496 286.0577,269.196 289.2281,276.6306 290.8133,256.6142 292.3985,245.1763 297.1541,261.1894 298.7393,275.1294 300.3245,269.196 301.9096,276.6306 303.4948,287.4967 308.2504,290.3561 309.8356,287.4967 311.4208,272.0555 313.006,273.1992 314.5912,266.3365 319.3468,280.6339 320.932,282.3496 322.5172,302.9379 324.1024,309.8006 325.6875,325.8137 330.4431,325.8137 332.0283,326.9575 333.6135,317.8072 335.1987,318.3791 336.7839,313.8039 341.5395,325.2418 343.1247,324.098 344.7099,320.0948 346.2951,297.2189 347.8803,291.4999 352.6358,262.3332 354.221,262.3332 355.8062,260.6175 357.3914,275.4868 358.9766,269.196 363.7322,258.9018 365.3174,259.4737 366.9026,252.0391 368.4878,224.0161 370.073,206.2874 374.8285,198.2808 376.4137,197.7089 377.9989,202.2841 379.5841,190.8461 381.1693,203.4279 385.9249,221.7286 387.5101,218.2972 389.0953,225.1599 390.6805,241.173 392.2657,216.0096 398.6064,202.856 400.1916,217.7253 401.7768,199.4246 403.362,232.5946 408.1176,223.3871 409.7028,213.722 411.288,166.2546 412.8732,186.8429 414.4584,182.8396 419.2139,174.2612 420.7991,155.3886 422.3843,160.5356 423.9695,146.8101 425.5547,122.7905 430.3103,103.9179 431.8955,119.931 433.4807,134.2284 435.0659,128.5094 436.6511,131.3689 441.4066,157.1043 442.9918,145.0944 444.577,138.8036 446.1622,171.9736 447.7474,191.9899 452.503,201.7122 454.0882,210.8625 455.6734,223.4443 458.8438,191.418 463.5994,194.2775 465.1845,179.9801 466.7697,174.2612 468.3549,178.5504 469.9401,213.722 476.2809,261.1894 477.8661,285.781 479.4513,295.5032 481.0365,298.9346 485.7921,306.6552 487.3773,311.5163 488.9624,310.3725 492.1328,330.9608 496.8884,346.402 498.4736,351.5491 500.0588,356.1242 501.644,355.1949 503.2292,360.6994 507.9848,363.5589 509.57,362.4151 511.1551,362.4151 512.7403,361.2713 514.3255,358.4118 519.0811,358.4118 520.6663,357.8399 522.2515,361.2713 523.8367,364.7027 525.4219,366.4184 530.1775,365.8465 531.7627,367.5622 533.3479,364.1308 534.933,360.6994 536.5182,361.8432 541.2738,361.8432 544.4442,362.4151 547.6146,364.7027 552.3702,365.8465 555.5406,358.9837 558.7109,348.1177 566.6369,336.6798 569.8073,322.3823 577.7333,320.6667 580.9036,334.3922 588.8296,333.8203 592,327.5294" style="fill:none;stroke:rgb(31,119,180);stroke-width:2;stroke-linejoin:bevel" />
  <text dominant-baseline="hanging" text-anchor="middle" transform="translate(313.006,8)" font-family="Segoe UI" font-size="18" font-weight="700" fill="black">7-Tage-Inzidenz Stadt Aachen 06.08.2021</text>
  <polygon points="34.012,29.0795 592,29.0795 592,370.947 34.012,370.947" style="fill:none;stroke:black;stroke-width:1" />
  <polygon points="42.012,37.0795 247.014,37.0795 247.014,63.1325 42.012,63.1325" style="fill:none;stroke:none;" />
  <text dominant-baseline="hanging" text-anchor="start" transform="translate(70.012,45.0795)" font-family="Segoe UI" font-size="12" font-weight="400" fill="black">7-Tage-Inzidenz Stadt Aachen 06.08.2021</text>
  <polyline points="50.012,50.106 66.012,50.106" style="fill:none;stroke:rgb(31,119,180);stroke-width:2" />
</svg>