<?xml version="1.0" encoding="utf-8" standalone="no"?>
<!DOCTYPE svg PUBLIC "-//W3C//DTD SVG 1.1//EN" "http://www.w3.org/Graphics/SVG/1.1/DTD/svg11.dtd">
<svg width="600" height="400" version="1.1" xmlns:xlink="http://www.w3.org/1999/xlink" xmlns="http://www.w3.org/2000/svg">
  <rect x="0" y="0" width="600" height="400" style="fill:rgb(255,255,255);stroke:none;" />
  <polyline points="34.012,362.7539 30.012,362.7539" style="fill:none;stroke:black;stroke-width:1" />
  <polyline points="34.012,348.3289 30.012,348.3289" style="fill:none;stroke:black;stroke-width:1" />
  <polyline points="34.012,333.904 30.012,333.904" style="fill:none;stroke:black;stroke-width:1" />
  <polyline points="34.012,319.479 30.012,319.479" style="fill:none;stroke:black;stroke-width:1" />
  <polyline points="34.012,290.6291 30.012,290.6291" style="fill:none;stroke:black;stroke-width:1" />
  <polyline points="34.012,276.2041 30.012,276.2041" style="fill:none;stroke:black;stroke-width:1" />
  <polyline points="34.012,261.7792 30.012,261.7792" style="fill:none;stroke:black;stroke-width:1" />
  <polyline points="34.012,247.3542 30.012,247.3542" style="fill:none;stroke:black;stroke-width:1" />
  <polyline points="34.012,218.5043 30.012,218.5043" style="fill:none;stroke:black;stroke-width:1" />
  <polyline points="34.012,204.0794 30.012,204.0794" style="fill:none;stroke:black;stroke-width:1" />
  <polyline points="34.012,189.6544 30.012,189.6544" style="fill:none;stroke:black;stroke-width:1" />
  <polyline points="34.012,175.2295 30.012,175.2295" style="fill:none;stroke:black;stroke-width:1" />
  <polyline points="34.012,146.3796 30.012,146.3796" style="fill:none;stroke:black;stroke-width:1" />
  <polyline points="34.012,131.9546 30.012,131.9546" style="fill:none;stroke:black;stroke-width:1" />
  <polyline points="34.012,117.5297 30.012,117.5297" style="fill:none;stroke:black;stroke-width:1" />
  <polyline points="34.012,103.1047 30.012,103.1047" style="fill:none;stroke:black;stroke-width:1" />
  <polyline points="34.012,74.2548 30.012,74.2548" style="fill:none;stroke:black;stroke-width:1" />
  <polyline points="34.012,59.8299 30.012,59.8299" style="fill:none;stroke:black;stroke-width:1" />
  <polyline points="34.012,45.4049 30.012,45.4049" style="fill:none;stroke:black;stroke-width:1" />
  <polyline points="34.012,30.98 30.012,30.98" style="fill:none;stroke:black;stroke-width:1" />
  <text dominant-baseline="middle" text-anchor="end" transform="translate(23.012,305.0541)" font-family="Segoe UI" font-size="12" font-weight="400" fill="black">50</text>
  <text dominant-baseline="middle" text-anchor="end" transform="translate(23.012,232.9293)" font-family="Segoe UI" font-size="12" font-weight="400" fill="black">100</text>
  <text dominant-baseline="middle" text-anchor="end" transform="translate(23.012,160.8045)" font-family="Segoe UI" font-size="12" font-weight="400" fill="black">150</text>
  <text dominant-baseline="middle" text-anchor="end" transform="translate(23.012,88.6798)" font-family="Segoe UI" font-size="12" font-weight="400" fill="black">200</text>
  <polyline points="34.012,305.0541 27.012,305.0541" style="fill:none;stroke:black;stroke-width:1" />
  <polyline points="34.012,232.9293 27.012,232.9293" style="fill:none;stroke:black;stroke-width:1" />
  <polyline points="34.012,160.8045 27.012,160.8045" style="fill:none;stroke:black;stroke-width:1" />
  <polyline points="34.012,88.6798 27.012,88.6798" style="fill:none;stroke:black;stroke-width:1" />
  <text dominant-baseline="hanging" text-anchor="middle" transform="translate(66.3952,381.947)" font-family="Segoe UI" font-size="12" font-weight="400" fill="black">01. September</text>
  <text dominant-baseline="hanging" text-anchor="middle" transform="translate(141.1258,381.947)" font-family="Segoe UI" font-size="12" font-weight="400" fill="black">01. October</text>
  <text dominant-baseline="hanging" text-anchor="middle" transform="translate(218.3473,381.947)" font-family="Segoe UI" font-size="12" font-weight="400" fill="black">01. November</text>
  <text dominant-baseline="hanging" text-anchor="middle" transform="translate(293.0779,381.947)" font-family="Segoe UI" font-size="12" font-weight="400" fill="black">01. December</text>
  <text dominant-baseline="hanging" text-anchor="middle" transform="translate(370.2994,381.947)" font-family="Segoe UI" font-size="12" font-weight="400" fill="black">01. January</text>
  <text dominant-baseline="hanging" text-anchor="middle" transform="translate(447.521,381.947)" font-family="Segoe UI" font-size="12" font-weight="400" fill="black">01. February</text>
  <text dominant-baseline="hanging" text-anchor="middle" transform="translate(517.2695,381.947)" font-family="Segoe UI" font-size="12" font-weight="400" fill="black">01. March</text>
  <polyline points="66.3952,370.947 66.3952,377.947" style="fill:none;stroke:black;stroke-width:1" />
  <polyline points="141.1258,370.947 141.1258,377.947" style="fill:none;stroke:black;stroke-width:1" />
  <polyline points="218.3473,370.947 218.3473,377.947" style="fill:none;stroke:black;stroke-width:1" />
  <polyline points="293.0779,370.947 293.0779,377.947" style="fill:none;stroke:black;stroke-width:1" />
  <polyline points="370.2994,370.947 370.2994,377.947" style="fill:none;stroke:black;stroke-width:1" />
  <polyline points="447.521,370.947 447.521,377.947" style="fill:none;stroke:black;stroke-width:1" />
  <polyline points="517.2695,370.947 517.2695,377.947" style="fill:none;stroke:black;stroke-width:1" />
  <polyline points="34.012,356.8142 36.503,356.3899 38.994,362.471 46.4671,358.5112 48.9581,362.471 51.4491,363.0367 53.9401,363.6024 56.4312,362.471 63.9042,366.9965 66.3952,365.2994 68.8863,365.8651 71.3773,365.2994 73.8683,365.2994 81.3413,365.8651 83.8324,367.5622 86.3234,365.8651 88.8144,365.2994 91.3054,363.0367 98.7785,356.8142 101.2695,352.2887 103.7605,347.1975 106.2515,346.6319 108.7425,342.1064 116.2156,347.7632 118.7066,348.3289 121.1976,352.2887 123.6886,350.5916 126.1797,351.723 133.6527,335.8838 136.1437,336.4495 138.6348,335.3182 141.1258,325.1358 143.6168,319.479 151.0898,312.6908 153.5809,313.8222 156.0719,305.9026 158.5629,304.7528 161.0539,307.6498 168.527,292.5852 171.018,290.847 173.509,285.6323 176,275.2029 178.491,253.1854 185.9641,230.5885 188.4551,225.9532 190.9461,221.8974 193.4371,202.7769 195.9282,202.1975 203.4012,137.3037 205.8922,132.0891 208.3833,129.192 210.8743,131.5096 213.3653,98.4834 220.8383,118.1833 223.3294,107.7539 225.8204,108.9127 228.3114,101.3804 230.8024,119.3421 238.2755,90.9511 240.7665,84.5776 243.2575,58.5042 248.2395,32.4308 255.7126,61.4012 258.2036,75.8864 260.6946,84.5776 263.1856,65.3847 265.6767,120.5009 273.1497,167.433 275.6407,150.6301 278.1318,153.5272 280.6228,208.571 283.1138,185.974 290.5868,188.8711 293.0779,213.7856 295.5689,225.9532 298.0599,198.1416 300.5509,202.1975 308.024,179.0211 310.515,181.3388 313.006,179.6005 315.497,151.2095 317.988,173.2271 325.4611,154.1066 327.9521,144.2566 330.4431,132.6685 332.9341,145.4155 335.4252,134.4067 342.8982,116.445 345.3892,117.0244 347.8803,140.7802 360.3353,157.0036 362.8264,154.686 365.3174,134.4067 367.8084,136.3622 377.7725,211.468 380.2635,235.2238 382.7545,250.8678 385.2455,236.962 387.7365,215.9584 397.7006,192.9269 400.1916,195.2446 402.6826,217.2621 405.1737,247.3913 412.6467,255.9086 415.1377,275.7823 417.6288,267.0912 420.1198,285.0529 422.6108,285.6323 430.0838,272.3059 435.0659,279.8382 437.5569,259.5589 440.0479,247.9707 447.521,264.1942 450.012,278.3173 452.503,272.3059 454.994,279.8382 457.485,290.847 464.9581,293.744 467.4491,290.847 469.9401,275.2029 472.4311,276.3617 474.9222,269.4088 482.3952,283.8941 484.8862,285.6323 487.3773,306.491 489.8683,313.4439 492.3593,329.6673 499.8323,329.6673 502.3234,330.8261 504.8144,321.5556 507.3054,322.135 509.7964,317.4997 517.2695,329.0879 519.7605,327.9291 522.2515,323.8732 524.7425,300.6969 527.2335,294.9028 534.7066,265.353 537.1976,265.353 539.6886,263.6148 542.1796,278.6794 544.6707,272.3059 552.1437,261.8765 554.6347,262.4559 557.1258,254.9236 559.6168,226.5326 562.1078,208.571 569.5808,200.4592 572.0719,199.8798 574.5629,204.5151 577.0539,192.9269 579.5449,205.6739 587.018,224.215 589.509,220.7385 592,227.6914" style="fill:none;stroke:rgb(31,119,180);stroke-width:2;stroke-linejoin:bevel" />
  <text dominant-baseline="hanging" text-anchor="middle" transform="translate(313.006,8)" font-family="Segoe UI" font-size="18" font-weight="700" fill="black">7-Tage-Inzidenz Stadt Aachen 31.03.2021</text>
  <polygon points="34.012,29.0795 592,29.0795 592,370.947 34.012,370.947" style="fill:none;stroke:black;stroke-width:1" />
  <polygon points="42.012,37.0795 247.014,37.0795 247.014,63.1325 42.012,63.1325" style="fill:none;stroke:none;" />
  <text dominant-baseline="hanging" text-anchor="start" transform="translate(70.012,45.0795)" font-family="Segoe UI" font-size="12" font-weight="400" fill="black">7-Tage-Inzidenz Stadt Aachen 31.03.2021</text>
  <polyline points="50.012,50.106 66.012,50.106" style="fill:none;stroke:rgb(31,119,180);stroke-width:2" />
</svg>