<?xml version="1.0" encoding="utf-8" standalone="no"?>
<!DOCTYPE svg PUBLIC "-//W3C//DTD SVG 1.1//EN" "http://www.w3.org/Graphics/SVG/1.1/DTD/svg11.dtd">
<svg width="600" height="400" version="1.1" xmlns:xlink="http://www.w3.org/1999/xlink" xmlns="http://www.w3.org/2000/svg">
  <rect x="0" y="0" width="600" height="400" style="fill:rgb(255,255,255);stroke:none;" />
  <polyline points="34.012,346.3457 30.012,346.3457" style="fill:none;stroke:black;stroke-width:1" />
  <polyline points="34.012,325.1722 30.012,325.1722" style="fill:none;stroke:black;stroke-width:1" />
  <polyline points="34.012,303.9987 30.012,303.9987" style="fill:none;stroke:black;stroke-width:1" />
  <polyline points="34.012,282.8252 30.012,282.8252" style="fill:none;stroke:black;stroke-width:1" />
  <polyline points="34.012,240.4782 30.012,240.4782" style="fill:none;stroke:black;stroke-width:1" />
  <polyline points="34.012,219.3047 30.012,219.3047" style="fill:none;stroke:black;stroke-width:1" />
  <polyline points="34.012,198.1312 30.012,198.1312" style="fill:none;stroke:black;stroke-width:1" />
  <polyline points="34.012,176.9577 30.012,176.9577" style="fill:none;stroke:black;stroke-width:1" />
  <polyline points="34.012,134.6107 30.012,134.6107" style="fill:none;stroke:black;stroke-width:1" />
  <polyline points="34.012,113.4372 30.012,113.4372" style="fill:none;stroke:black;stroke-width:1" />
  <polyline points="34.012,92.2637 30.012,92.2637" style="fill:none;stroke:black;stroke-width:1" />
  <polyline points="34.012,71.0902 30.012,71.0902" style="fill:none;stroke:black;stroke-width:1" />
  <text dominant-baseline="middle" text-anchor="end" transform="translate(23.012,367.5192)" font-family="Segoe UI" font-size="12" font-weight="400" fill="black">0</text>
  <text dominant-baseline="middle" text-anchor="end" transform="translate(23.012,261.6517)" font-family="Segoe UI" font-size="12" font-weight="400" fill="black">100</text>
  <text dominant-baseline="middle" text-anchor="end" transform="translate(23.012,155.7842)" font-family="Segoe UI" font-size="12" font-weight="400" fill="black">200</text>
  <text dominant-baseline="middle" text-anchor="end" transform="translate(23.012,49.9166)" font-family="Segoe UI" font-size="12" font-weight="400" fill="black">300</text>
  <polyline points="34.012,367.5192 27.012,367.5192" style="fill:none;stroke:black;stroke-width:1" />
  <polyline points="34.012,261.6517 27.012,261.6517" style="fill:none;stroke:black;stroke-width:1" />
  <polyline points="34.012,155.7842 27.012,155.7842" style="fill:none;stroke:black;stroke-width:1" />
  <polyline points="34.012,49.9166 27.012,49.9166" style="fill:none;stroke:black;stroke-width:1" />
  <text dominant-baseline="hanging" text-anchor="middle" transform="translate(198.0582,381.947)" font-family="Segoe UI" font-size="12" font-weight="400" fill="black">01. January</text>
  <polyline points="198.0582,370.947 198.0582,377.947" style="fill:none;stroke:black;stroke-width:1" />
  <polyline points="34.012,367.5622 36.3225,367.5621 39.7883,367.5621 40.9435,367.562 42.0988,352.5732 43.254,352.2618 44.4093,356.7249 47.8751,353.8187 49.0303,356.7249 50.1856,357.1401 51.3408,357.5552 52.4961,356.7249 55.9618,360.0462 57.1171,358.8007 58.2723,359.2159 59.4276,358.8007 60.5829,358.8007 64.0486,359.2159 65.2039,360.4614 66.3591,359.2159 67.5144,358.8007 68.6696,357.1401 72.1354,352.5732 73.2907,349.2519 74.4459,345.5154 75.6012,345.1002 76.7564,341.7789 80.2222,345.9305 81.3774,346.3457 82.5327,349.2519 83.688,348.0064 84.8432,348.8367 88.309,337.212 89.4642,337.6272 90.6195,336.7969 91.7747,329.3239 92.93,325.1722 96.3958,320.1902 97.551,321.0205 98.7063,315.2082 99.8615,314.3643 101.0168,316.4905 104.4825,305.4343 105.6378,304.1586 106.793,300.3314 107.9483,292.6771 109.1036,276.5181 112.5693,259.9337 113.7246,256.5318 114.8798,253.5551 116.0351,239.5223 117.1903,239.097 120.6561,191.4702 121.8114,187.6431 122.9666,185.5169 124.1219,187.2178 125.2771,162.9792 128.7429,177.4373 129.8981,169.783 131.0534,170.6335 132.2086,165.1054 133.3639,178.2878 136.8297,157.4511 137.9849,152.7735 139.1402,133.6377 141.4507,114.502 144.9164,135.7639 146.0717,146.3949 147.227,152.7735 148.3822,138.6874 149.5375,179.1383 153.0032,213.5827 154.1585,201.2507 155.3137,203.3769 156.469,243.7746 157.6242,227.1903 161.09,229.3165 162.2453,247.6018 163.4005,256.5318 164.5558,236.1203 165.711,239.097 169.1768,222.0875 170.332,223.7884 171.4873,222.5127 172.6426,201.676 173.7978,217.8351 177.2636,203.8022 178.4188,196.5731 179.5741,188.0683 180.7293,197.4236 181.8846,189.344 185.3504,176.1616 186.5056,176.5869 187.6609,194.0217 193.4371,205.9284 194.5924,204.2274 195.7477,189.344 196.9029,190.7792 201.5239,245.9008 202.6792,263.3356 203.8344,274.8171 204.9897,264.6114 206.1449,249.1964 210.766,232.2932 211.9212,233.9941 213.0765,250.1532 214.2317,272.2657 217.6975,278.5167 218.8527,293.1024 220.008,286.7238 221.1633,299.9062 222.3185,300.3314 225.7843,290.5509 228.0948,296.0791 229.25,281.1957 230.4053,272.6909 233.8711,284.5976 235.0263,294.9628 236.1816,290.5509 237.3368,296.0791 238.4921,304.1586 241.9578,306.2848 243.1131,304.1586 244.2683,292.6771 245.4236,293.5276 246.5789,288.4247 250.0446,299.0557 251.1999,300.3314 252.3551,315.6401 253.5104,320.7429 254.6656,332.6496 258.1314,332.6496 259.2867,333.5001 260.4419,326.6963 261.5972,327.1215 262.7524,323.7196 266.2182,332.2244 267.3734,331.3739 268.5287,328.3972 269.684,311.3877 270.8392,307.1353 274.305,285.4481 275.4602,285.4481 276.6155,284.1724 277.7707,295.2286 278.926,290.5509 282.3918,282.8966 283.547,283.3219 284.7023,277.7938 285.8575,256.9571 287.0128,243.7746 290.4785,237.8213 291.6338,237.3961 292.789,240.798 293.9443,232.2932 295.0996,241.6484 298.5653,255.2561 299.7206,252.7047 300.8758,257.8075 302.0311,269.7142 303.1863,251.0037 307.8074,241.2232 308.9626,252.2794 310.1179,238.6718 311.2731,263.3356 314.7389,256.4893 315.8941,249.3028 317.0494,214.0079 318.2046,229.3165 319.3599,226.3398 322.8257,219.9613 323.9809,205.9284 325.1362,209.7555 326.2914,199.5498 327.4467,181.6897 330.9124,167.6568 332.0677,179.5635 333.223,190.1945 334.3782,185.9421 335.5335,188.0683 338.9992,207.2041 340.1545,198.2741 341.3097,193.5964 342.465,218.2603 343.6202,233.1437 347.086,240.3727 348.2413,247.1766 349.3965,256.5318 351.707,232.7184 355.1728,234.8446 356.328,224.2136 357.4833,219.9613 358.6386,223.1505 359.7938,249.3028 364.4148,284.5976 365.5701,302.8829 366.7253,310.1119 367.8806,312.6634 371.3464,318.4041 372.5016,322.0186 373.6569,321.1682 375.9674,336.4768 379.4331,347.9582 380.5884,351.7854 381.7437,355.1873 382.8989,354.4963 384.0542,358.5892 387.5199,360.7154 388.6752,359.8649 389.8304,359.8649 390.9857,359.0144 392.1409,356.8882 395.6067,356.8882 396.762,356.463 397.9172,359.0144 399.0725,361.5659 400.2277,362.8416 403.6935,362.4164 404.8487,363.6921 406.004,361.1406 407.1593,358.5892 408.3145,359.4397 411.7803,359.4397 414.0908,359.8649 416.4013,361.5659 419.8671,362.4164 422.1776,357.3135 424.4881,349.2339 430.2643,340.7292 432.5749,330.0982 438.3511,328.8225 440.6616,339.0282 446.4379,338.603 448.7484,333.9253 454.5247,312.6634 456.8352,288.4247 462.6115,281.6209 464.922,292.6771 470.6983,242.0737 473.0088,234.8446 478.785,266.3123 481.0956,257.8075 489.1823,271.4152 497.2691,296.0791 503.0454,305.0091 505.3559,309.6867 511.1322,313.0886 513.4427,321.5934 519.219,333.0749 521.5295,333.0749 527.3057,332.6496 529.6162,332.2244 535.3925,332.2244 537.703,318.6167 543.4793,290.9762 545.7898,263.3356 551.5661,256.5318 553.8766,242.0737 559.6529,184.6664 561.9634,163.4045 567.7397,142.1425 570.0502,140.8668 575.8264,63.4733 578.1369,32.4308 583.9132,54.118 592,68.1509" style="fill:none;stroke:rgb(31,119,180);stroke-width:2;stroke-linejoin:bevel" />
  <text dominant-baseline="hanging" text-anchor="middle" transform="translate(313.006,8)" font-family="Segoe UI" font-size="18" font-weight="700" fill="black">7-Tage-Inzidenz Stadt Aachen 08.12.2021</text>
  <polygon points="34.012,29.0795 592,29.0795 592,370.947 34.012,370.947" style="fill:none;stroke:black;stroke-width:1" />
  <polygon points="42.012,37.0795 247.014,37.0795 247.014,63.1325 42.012,63.1325" style="fill:none;stroke:none;" />
  <text dominant-baseline="hanging" text-anchor="start" transform="translate(70.012,45.0795)" font-family="Segoe UI" font-size="12" font-weight="400" fill="black">7-Tage-Inzidenz Stadt Aachen 08.12.2021</text>
  <polyline points="50.012,50.106 66.012,50.106" style="fill:none;stroke:rgb(31,119,180);stroke-width:2" />
</svg>