<?xml version="1.0" encoding="utf-8" standalone="no"?>
<!DOCTYPE svg PUBLIC "-//W3C//DTD SVG 1.1//EN" "http://www.w3.org/Graphics/SVG/1.1/DTD/svg11.dtd">
<svg width="600" height="400" version="1.1" xmlns:xlink="http://www.w3.org/1999/xlink" xmlns="http://www.w3.org/2000/svg">
  <rect x="0" y="0" width="600" height="400" style="fill:rgb(255,255,255);stroke:none;" />
  <polyline points="34.012,362.7539 30.012,362.7539" style="fill:none;stroke:black;stroke-width:1" />
  <polyline points="34.012,348.3289 30.012,348.3289" style="fill:none;stroke:black;stroke-width:1" />
  <polyline points="34.012,333.904 30.012,333.904" style="fill:none;stroke:black;stroke-width:1" />
  <polyline points="34.012,319.479 30.012,319.479" style="fill:none;stroke:black;stroke-width:1" />
  <polyline points="34.012,290.6291 30.012,290.6291" style="fill:none;stroke:black;stroke-width:1" />
  <polyline points="34.012,276.2041 30.012,276.2041" style="fill:none;stroke:black;stroke-width:1" />
  <polyline points="34.012,261.7792 30.012,261.7792" style="fill:none;stroke:black;stroke-width:1" />
  <polyline points="34.012,247.3542 30.012,247.3542" style="fill:none;stroke:black;stroke-width:1" />
  <polyline points="34.012,218.5043 30.012,218.5043" style="fill:none;stroke:black;stroke-width:1" />
  <polyline points="34.012,204.0794 30.012,204.0794" style="fill:none;stroke:black;stroke-width:1" />
  <polyline points="34.012,189.6544 30.012,189.6544" style="fill:none;stroke:black;stroke-width:1" />
  <polyline points="34.012,175.2295 30.012,175.2295" style="fill:none;stroke:black;stroke-width:1" />
  <polyline points="34.012,146.3796 30.012,146.3796" style="fill:none;stroke:black;stroke-width:1" />
  <polyline points="34.012,131.9546 30.012,131.9546" style="fill:none;stroke:black;stroke-width:1" />
  <polyline points="34.012,117.5297 30.012,117.5297" style="fill:none;stroke:black;stroke-width:1" />
  <polyline points="34.012,103.1047 30.012,103.1047" style="fill:none;stroke:black;stroke-width:1" />
  <polyline points="34.012,74.2548 30.012,74.2548" style="fill:none;stroke:black;stroke-width:1" />
  <polyline points="34.012,59.8299 30.012,59.8299" style="fill:none;stroke:black;stroke-width:1" />
  <polyline points="34.012,45.4049 30.012,45.4049" style="fill:none;stroke:black;stroke-width:1" />
  <polyline points="34.012,30.98 30.012,30.98" style="fill:none;stroke:black;stroke-width:1" />
  <text dominant-baseline="middle" text-anchor="end" transform="translate(23.012,305.0541)" font-family="Segoe UI" font-size="12" font-weight="400" fill="black">50</text>
  <text dominant-baseline="middle" text-anchor="end" transform="translate(23.012,232.9293)" font-family="Segoe UI" font-size="12" font-weight="400" fill="black">100</text>
  <text dominant-baseline="middle" text-anchor="end" transform="translate(23.012,160.8045)" font-family="Segoe UI" font-size="12" font-weight="400" fill="black">150</text>
  <text dominant-baseline="middle" text-anchor="end" transform="translate(23.012,88.6798)" font-family="Segoe UI" font-size="12" font-weight="400" fill="black">200</text>
  <polyline points="34.012,305.0541 27.012,305.0541" style="fill:none;stroke:black;stroke-width:1" />
  <polyline points="34.012,232.9293 27.012,232.9293" style="fill:none;stroke:black;stroke-width:1" />
  <polyline points="34.012,160.8045 27.012,160.8045" style="fill:none;stroke:black;stroke-width:1" />
  <polyline points="34.012,88.6798 27.012,88.6798" style="fill:none;stroke:black;stroke-width:1" />
  <text dominant-baseline="hanging" text-anchor="middle" transform="translate(72.5963,381.947)" font-family="Segoe UI" font-size="12" font-weight="400" fill="black">01. September</text>
  <text dominant-baseline="hanging" text-anchor="middle" transform="translate(161.6369,381.947)" font-family="Segoe UI" font-size="12" font-weight="400" fill="black">01. October</text>
  <text dominant-baseline="hanging" text-anchor="middle" transform="translate(253.6456,381.947)" font-family="Segoe UI" font-size="12" font-weight="400" fill="black">01. November</text>
  <text dominant-baseline="hanging" text-anchor="middle" transform="translate(342.6862,381.947)" font-family="Segoe UI" font-size="12" font-weight="400" fill="black">01. December</text>
  <text dominant-baseline="hanging" text-anchor="middle" transform="translate(434.6949,381.947)" font-family="Segoe UI" font-size="12" font-weight="400" fill="black">01. January</text>
  <text dominant-baseline="hanging" text-anchor="middle" transform="translate(526.7035,381.947)" font-family="Segoe UI" font-size="12" font-weight="400" fill="black">01. February</text>
  <polyline points="72.5963,370.947 72.5963,377.947" style="fill:none;stroke:black;stroke-width:1" />
  <polyline points="161.6369,370.947 161.6369,377.947" style="fill:none;stroke:black;stroke-width:1" />
  <polyline points="253.6456,370.947 253.6456,377.947" style="fill:none;stroke:black;stroke-width:1" />
  <polyline points="342.6862,370.947 342.6862,377.947" style="fill:none;stroke:black;stroke-width:1" />
  <polyline points="434.6949,370.947 434.6949,377.947" style="fill:none;stroke:black;stroke-width:1" />
  <polyline points="526.7035,370.947 526.7035,377.947" style="fill:none;stroke:black;stroke-width:1" />
  <polyline points="34.012,356.8142 36.98,356.3899 39.948,362.471 48.8521,358.5112 51.8201,362.471 54.7881,363.0367 57.7562,363.6024 60.7242,362.471 69.6283,366.9965 72.5963,365.2994 75.5643,365.8651 78.5323,365.2994 81.5003,365.2994 90.4044,365.8651 93.3724,367.5622 96.3404,365.8651 99.3085,365.2994 102.2765,363.0367 111.1806,356.8142 114.1486,352.2887 117.1166,347.1975 120.0846,346.6319 123.0526,342.1064 131.9567,347.7632 134.9247,348.3289 137.8927,352.2887 140.8608,350.5916 143.8288,351.723 152.7329,335.8838 155.7009,336.4495 158.6689,335.3182 161.6369,325.1358 164.6049,319.479 173.509,312.6908 176.477,313.8222 179.445,305.9026 182.4131,304.7528 185.3811,307.6498 194.2851,292.5852 197.2532,290.847 200.2212,285.6323 203.1892,275.2029 206.1572,253.1854 215.0613,230.5885 218.0293,225.9532 220.9973,221.8974 223.9654,202.7769 226.9334,202.1975 235.8374,137.3037 238.8055,132.0891 241.7735,129.192 244.7415,131.5096 247.7095,98.4834 256.6136,118.1833 259.5816,107.7539 262.5496,108.9127 265.5177,101.3804 268.4857,119.3421 277.3897,90.9511 280.3578,84.5776 283.3258,58.5042 289.2618,32.4308 298.1659,61.4012 301.1339,75.8864 304.1019,84.5776 307.07,65.3847 310.038,120.5009 318.942,167.433 321.9101,150.6301 324.8781,153.5272 327.8461,208.571 330.8141,185.974 339.7182,188.8711 342.6862,213.7856 345.6542,225.9532 348.6223,198.1416 351.5903,202.1975 360.4943,179.0211 363.4624,181.3388 366.4304,179.6005 369.3984,151.2095 372.3664,173.2271 381.2705,154.1066 384.2385,144.2566 387.2065,132.6685 390.1746,145.4155 393.1426,134.4067 402.0466,116.445 405.0147,117.0244 407.9827,140.7802 422.8228,157.0036 425.7908,154.686 428.7588,134.4067 431.7269,136.3622 443.5989,211.468 446.567,235.2238 449.535,250.8678 452.503,236.962 455.471,215.9584 467.3431,192.9269 470.3111,195.2446 473.2791,217.2621 476.2472,247.3913 485.1512,255.9086 488.1193,275.7823 491.0873,267.0912 494.0553,285.0529 497.0233,285.6323 505.9274,272.3059 511.8634,279.8382 514.8314,259.5589 517.7995,247.9707 526.7035,264.1942 529.6716,278.3173 532.6396,272.3059 535.6076,279.8382 538.5756,290.847 547.4797,293.744 550.4477,290.847 553.4157,275.2029 556.3837,276.3617 559.3518,269.4088 568.2558,283.8941 571.2239,285.6323 574.1919,306.491 577.1599,313.4439 580.1279,329.6673 589.032,329.6673 592,330.8261" style="fill:none;stroke:rgb(31,119,180);stroke-width:2;stroke-linejoin:bevel" />
  <text dominant-baseline="hanging" text-anchor="middle" transform="translate(313.006,8)" font-family="Segoe UI" font-size="18" font-weight="700" fill="black">7-Tage-Inzidenz Stadt Aachen 23.02.2021</text>
  <polygon points="34.012,29.0795 592,29.0795 592,370.947 34.012,370.947" style="fill:none;stroke:black;stroke-width:1" />
  <polygon points="42.012,37.0795 247.014,37.0795 247.014,63.1325 42.012,63.1325" style="fill:none;stroke:none;" />
  <text dominant-baseline="hanging" text-anchor="start" transform="translate(70.012,45.0795)" font-family="Segoe UI" font-size="12" font-weight="400" fill="black">7-Tage-Inzidenz Stadt Aachen 23.02.2021</text>
  <polyline points="50.012,50.106 66.012,50.106" style="fill:none;stroke:rgb(31,119,180);stroke-width:2" />
</svg>