<?xml version="1.0" encoding="utf-8" standalone="no"?>
<!DOCTYPE svg PUBLIC "-//W3C//DTD SVG 1.1//EN" "http://www.w3.org/Graphics/SVG/1.1/DTD/svg11.dtd">
<svg width="600" height="400" version="1.1" xmlns:xlink="http://www.w3.org/1999/xlink" xmlns="http://www.w3.org/2000/svg">
  <rect x="0" y="0" width="600" height="400" style="fill:rgb(255,255,255);stroke:none;" />
  <polyline points="34.012,362.7539 30.012,362.7539" style="fill:none;stroke:black;stroke-width:1" />
  <polyline points="34.012,348.3289 30.012,348.3289" style="fill:none;stroke:black;stroke-width:1" />
  <polyline points="34.012,333.904 30.012,333.904" style="fill:none;stroke:black;stroke-width:1" />
  <polyline points="34.012,319.479 30.012,319.479" style="fill:none;stroke:black;stroke-width:1" />
  <polyline points="34.012,290.6291 30.012,290.6291" style="fill:none;stroke:black;stroke-width:1" />
  <polyline points="34.012,276.2041 30.012,276.2041" style="fill:none;stroke:black;stroke-width:1" />
  <polyline points="34.012,261.7792 30.012,261.7792" style="fill:none;stroke:black;stroke-width:1" />
  <polyline points="34.012,247.3542 30.012,247.3542" style="fill:none;stroke:black;stroke-width:1" />
  <polyline points="34.012,218.5043 30.012,218.5043" style="fill:none;stroke:black;stroke-width:1" />
  <polyline points="34.012,204.0794 30.012,204.0794" style="fill:none;stroke:black;stroke-width:1" />
  <polyline points="34.012,189.6544 30.012,189.6544" style="fill:none;stroke:black;stroke-width:1" />
  <polyline points="34.012,175.2295 30.012,175.2295" style="fill:none;stroke:black;stroke-width:1" />
  <polyline points="34.012,146.3796 30.012,146.3796" style="fill:none;stroke:black;stroke-width:1" />
  <polyline points="34.012,131.9546 30.012,131.9546" style="fill:none;stroke:black;stroke-width:1" />
  <polyline points="34.012,117.5297 30.012,117.5297" style="fill:none;stroke:black;stroke-width:1" />
  <polyline points="34.012,103.1047 30.012,103.1047" style="fill:none;stroke:black;stroke-width:1" />
  <polyline points="34.012,74.2548 30.012,74.2548" style="fill:none;stroke:black;stroke-width:1" />
  <polyline points="34.012,59.8299 30.012,59.8299" style="fill:none;stroke:black;stroke-width:1" />
  <polyline points="34.012,45.4049 30.012,45.4049" style="fill:none;stroke:black;stroke-width:1" />
  <polyline points="34.012,30.98 30.012,30.98" style="fill:none;stroke:black;stroke-width:1" />
  <text dominant-baseline="middle" text-anchor="end" transform="translate(23.012,305.0541)" font-family="Segoe UI" font-size="12" font-weight="400" fill="black">50</text>
  <text dominant-baseline="middle" text-anchor="end" transform="translate(23.012,232.9293)" font-family="Segoe UI" font-size="12" font-weight="400" fill="black">100</text>
  <text dominant-baseline="middle" text-anchor="end" transform="translate(23.012,160.8045)" font-family="Segoe UI" font-size="12" font-weight="400" fill="black">150</text>
  <text dominant-baseline="middle" text-anchor="end" transform="translate(23.012,88.6798)" font-family="Segoe UI" font-size="12" font-weight="400" fill="black">200</text>
  <polyline points="34.012,305.0541 27.012,305.0541" style="fill:none;stroke:black;stroke-width:1" />
  <polyline points="34.012,232.9293 27.012,232.9293" style="fill:none;stroke:black;stroke-width:1" />
  <polyline points="34.012,160.8045 27.012,160.8045" style="fill:none;stroke:black;stroke-width:1" />
  <polyline points="34.012,88.6798 27.012,88.6798" style="fill:none;stroke:black;stroke-width:1" />
  <text dominant-baseline="hanging" text-anchor="middle" transform="translate(61.2821,381.947)" font-family="Segoe UI" font-size="12" font-weight="400" fill="black">01. September</text>
  <text dominant-baseline="hanging" text-anchor="middle" transform="translate(124.2131,381.947)" font-family="Segoe UI" font-size="12" font-weight="400" fill="black">01. October</text>
  <text dominant-baseline="hanging" text-anchor="middle" transform="translate(189.2417,381.947)" font-family="Segoe UI" font-size="12" font-weight="400" fill="black">01. November</text>
  <text dominant-baseline="hanging" text-anchor="middle" transform="translate(252.1727,381.947)" font-family="Segoe UI" font-size="12" font-weight="400" fill="black">01. December</text>
  <text dominant-baseline="hanging" text-anchor="middle" transform="translate(317.2014,381.947)" font-family="Segoe UI" font-size="12" font-weight="400" fill="black">01. January</text>
  <text dominant-baseline="hanging" text-anchor="middle" transform="translate(382.2301,381.947)" font-family="Segoe UI" font-size="12" font-weight="400" fill="black">01. February</text>
  <text dominant-baseline="hanging" text-anchor="middle" transform="translate(440.9657,381.947)" font-family="Segoe UI" font-size="12" font-weight="400" fill="black">01. March</text>
  <text dominant-baseline="hanging" text-anchor="middle" transform="translate(505.9943,381.947)" font-family="Segoe UI" font-size="12" font-weight="400" fill="black">01. April</text>
  <text dominant-baseline="hanging" text-anchor="middle" transform="translate(568.9253,381.947)" font-family="Segoe UI" font-size="12" font-weight="400" fill="black">01. May</text>
  <polyline points="61.2821,370.947 61.2821,377.947" style="fill:none;stroke:black;stroke-width:1" />
  <polyline points="124.2131,370.947 124.2131,377.947" style="fill:none;stroke:black;stroke-width:1" />
  <polyline points="189.2417,370.947 189.2417,377.947" style="fill:none;stroke:black;stroke-width:1" />
  <polyline points="252.1727,370.947 252.1727,377.947" style="fill:none;stroke:black;stroke-width:1" />
  <polyline points="317.2014,370.947 317.2014,377.947" style="fill:none;stroke:black;stroke-width:1" />
  <polyline points="382.2301,370.947 382.2301,377.947" style="fill:none;stroke:black;stroke-width:1" />
  <polyline points="440.9657,370.947 440.9657,377.947" style="fill:none;stroke:black;stroke-width:1" />
  <polyline points="505.9943,370.947 505.9943,377.947" style="fill:none;stroke:black;stroke-width:1" />
  <polyline points="568.9253,370.947 568.9253,377.947" style="fill:none;stroke:black;stroke-width:1" />
  <polyline points="34.012,356.8142 36.1097,356.3899 38.2074,362.471 44.5005,358.5112 46.5982,362.471 48.6959,363.0367 50.7936,363.6024 52.8913,362.471 59.1844,366.9965 61.2821,365.2994 63.3798,365.8651 65.4775,365.2994 67.5752,365.2994 73.8683,365.8651 75.966,367.5622 78.0637,365.8651 80.1614,365.2994 82.2591,363.0367 88.5522,356.8142 90.6499,352.2887 92.7476,347.1975 94.8453,346.6319 96.943,342.1064 103.2361,347.7632 105.3338,348.3289 107.4315,352.2887 109.5292,350.5916 111.6269,351.723 117.92,335.8838 120.0177,336.4495 122.1154,335.3182 124.2131,325.1358 126.3108,319.479 132.6039,312.6908 134.7016,313.8222 136.7993,305.9026 138.897,304.7528 140.9947,307.6498 147.2878,292.5852 149.3855,290.847 151.4832,285.6323 153.5809,275.2029 155.6786,253.1854 161.9717,230.5885 164.0694,225.9532 166.1671,221.8974 168.2648,202.7769 170.3625,202.1975 176.6555,137.3037 178.7532,132.0891 180.8509,129.192 182.9486,131.5096 185.0463,98.4834 191.3394,118.1833 193.4371,107.7539 195.5348,108.9127 197.6325,101.3804 199.7302,119.3421 206.0233,90.9511 208.121,84.5776 210.2187,58.5042 214.4141,32.4308 220.7072,61.4012 222.8049,75.8864 224.9026,84.5776 227.0003,65.3847 229.098,120.5009 235.3911,167.433 237.4888,150.6301 239.5865,153.5272 241.6842,208.571 243.7819,185.974 250.075,188.8711 252.1727,213.7856 254.2704,225.9532 256.3681,198.1416 258.4658,202.1975 264.7589,179.0211 266.8566,181.3388 268.9543,179.6005 271.052,151.2095 273.1497,173.2271 279.4428,154.1066 281.5405,144.2566 283.6382,132.6685 285.7359,145.4155 287.8336,134.4067 294.1267,116.445 296.2244,117.0244 298.3221,140.7802 308.8106,157.0036 310.9083,154.686 313.006,134.4067 315.1037,136.3622 323.4945,211.468 325.5922,235.2238 327.6899,250.8678 329.7876,236.962 331.8853,215.9584 340.2761,192.9269 342.3738,195.2446 344.4715,217.2621 346.5692,247.3913 352.8623,255.9086 354.96,275.7823 357.0577,267.0912 359.1554,285.0529 361.2531,285.6323 367.5462,272.3059 371.7416,279.8382 373.8393,259.5589 375.937,247.9707 382.2301,264.1942 384.3278,278.3173 386.4255,272.3059 388.5232,279.8382 390.6209,290.847 396.914,293.744 399.0117,290.847 401.1094,275.2029 403.2071,276.3617 405.3048,269.4088 411.5979,283.8941 413.6956,285.6323 415.7933,306.491 417.891,313.4439 419.9887,329.6673 426.2818,329.6673 428.3795,330.8261 430.4772,321.5556 432.5749,322.135 434.6726,317.4997 440.9657,329.0879 443.0634,327.9291 445.1611,323.8732 447.2588,300.6969 449.3565,294.9028 455.6495,265.353 457.7472,265.353 459.8449,263.6148 461.9426,278.6794 464.0403,272.3059 470.3334,261.8765 472.4311,262.4559 474.5288,254.9236 476.6265,226.5326 478.7242,208.571 485.0173,200.4592 487.115,199.8798 489.2127,204.5151 491.3104,192.9269 493.4081,205.6739 499.7012,224.215 501.7989,220.7385 503.8966,227.6914 505.9943,243.9149 508.092,218.4209 516.4828,205.0945 518.5805,220.1591 520.6782,201.6181 522.7759,235.2238 529.069,225.8953 531.1667,216.1033 533.2644,168.0124 535.3621,188.8711 537.4598,184.8152 543.7529,176.1241 545.8506,157.0036 547.9483,162.2183 550.046,148.3125 552.1437,123.9773 558.4368,104.8569 560.5345,121.0803 562.6322,135.5655 564.7299,129.7714 566.8276,132.6685 573.1207,158.7418 575.2184,146.5743 577.3161,140.2008 579.4138,173.8065 581.5115,194.0858 587.8046,203.9357 589.9023,213.2062 592,225.9532" style="fill:none;stroke:rgb(31,119,180);stroke-width:2;stroke-linejoin:bevel" />
  <text dominant-baseline="hanging" text-anchor="middle" transform="translate(313.006,8)" font-family="Segoe UI" font-size="18" font-weight="700" fill="black">7-Tage-Inzidenz Stadt Aachen 12.05.2021</text>
  <polygon points="34.012,29.0795 592,29.0795 592,370.947 34.012,370.947" style="fill:none;stroke:black;stroke-width:1" />
  <polygon points="42.012,37.0795 247.014,37.0795 247.014,63.1325 42.012,63.1325" style="fill:none;stroke:none;" />
  <text dominant-baseline="hanging" text-anchor="start" transform="translate(70.012,45.0795)" font-family="Segoe UI" font-size="12" font-weight="400" fill="black">7-Tage-Inzidenz Stadt Aachen 12.05.2021</text>
  <polyline points="50.012,50.106 66.012,50.106" style="fill:none;stroke:rgb(31,119,180);stroke-width:2" />
</svg>