<?xml version="1.0" encoding="utf-8" standalone="no"?>
<!DOCTYPE svg PUBLIC "-//W3C//DTD SVG 1.1//EN" "http://www.w3.org/Graphics/SVG/1.1/DTD/svg11.dtd">
<svg width="600" height="400" version="1.1" xmlns:xlink="http://www.w3.org/1999/xlink" xmlns="http://www.w3.org/2000/svg">
  <rect x="0" y="0" width="600" height="400" style="fill:rgb(255,255,255);stroke:none;" />
  <polyline points="34.012,362.7539 30.012,362.7539" style="fill:none;stroke:black;stroke-width:1" />
  <polyline points="34.012,348.3289 30.012,348.3289" style="fill:none;stroke:black;stroke-width:1" />
  <polyline points="34.012,333.904 30.012,333.904" style="fill:none;stroke:black;stroke-width:1" />
  <polyline points="34.012,319.479 30.012,319.479" style="fill:none;stroke:black;stroke-width:1" />
  <polyline points="34.012,290.6291 30.012,290.6291" style="fill:none;stroke:black;stroke-width:1" />
  <polyline points="34.012,276.2041 30.012,276.2041" style="fill:none;stroke:black;stroke-width:1" />
  <polyline points="34.012,261.7792 30.012,261.7792" style="fill:none;stroke:black;stroke-width:1" />
  <polyline points="34.012,247.3542 30.012,247.3542" style="fill:none;stroke:black;stroke-width:1" />
  <polyline points="34.012,218.5043 30.012,218.5043" style="fill:none;stroke:black;stroke-width:1" />
  <polyline points="34.012,204.0794 30.012,204.0794" style="fill:none;stroke:black;stroke-width:1" />
  <polyline points="34.012,189.6544 30.012,189.6544" style="fill:none;stroke:black;stroke-width:1" />
  <polyline points="34.012,175.2295 30.012,175.2295" style="fill:none;stroke:black;stroke-width:1" />
  <polyline points="34.012,146.3796 30.012,146.3796" style="fill:none;stroke:black;stroke-width:1" />
  <polyline points="34.012,131.9546 30.012,131.9546" style="fill:none;stroke:black;stroke-width:1" />
  <polyline points="34.012,117.5297 30.012,117.5297" style="fill:none;stroke:black;stroke-width:1" />
  <polyline points="34.012,103.1047 30.012,103.1047" style="fill:none;stroke:black;stroke-width:1" />
  <polyline points="34.012,74.2548 30.012,74.2548" style="fill:none;stroke:black;stroke-width:1" />
  <polyline points="34.012,59.8299 30.012,59.8299" style="fill:none;stroke:black;stroke-width:1" />
  <polyline points="34.012,45.4049 30.012,45.4049" style="fill:none;stroke:black;stroke-width:1" />
  <polyline points="34.012,30.98 30.012,30.98" style="fill:none;stroke:black;stroke-width:1" />
  <text dominant-baseline="middle" text-anchor="end" transform="translate(23.012,305.0541)" font-family="Segoe UI" font-size="12" font-weight="400" fill="black">50</text>
  <text dominant-baseline="middle" text-anchor="end" transform="translate(23.012,232.9293)" font-family="Segoe UI" font-size="12" font-weight="400" fill="black">100</text>
  <text dominant-baseline="middle" text-anchor="end" transform="translate(23.012,160.8045)" font-family="Segoe UI" font-size="12" font-weight="400" fill="black">150</text>
  <text dominant-baseline="middle" text-anchor="end" transform="translate(23.012,88.6798)" font-family="Segoe UI" font-size="12" font-weight="400" fill="black">200</text>
  <polyline points="34.012,305.0541 27.012,305.0541" style="fill:none;stroke:black;stroke-width:1" />
  <polyline points="34.012,232.9293 27.012,232.9293" style="fill:none;stroke:black;stroke-width:1" />
  <polyline points="34.012,160.8045 27.012,160.8045" style="fill:none;stroke:black;stroke-width:1" />
  <polyline points="34.012,88.6798 27.012,88.6798" style="fill:none;stroke:black;stroke-width:1" />
  <text dominant-baseline="hanging" text-anchor="middle" transform="translate(61.8045,381.947)" font-family="Segoe UI" font-size="12" font-weight="400" fill="black">01. September</text>
  <text dominant-baseline="hanging" text-anchor="middle" transform="translate(125.9411,381.947)" font-family="Segoe UI" font-size="12" font-weight="400" fill="black">01. October</text>
  <text dominant-baseline="hanging" text-anchor="middle" transform="translate(192.2155,381.947)" font-family="Segoe UI" font-size="12" font-weight="400" fill="black">01. November</text>
  <text dominant-baseline="hanging" text-anchor="middle" transform="translate(256.352,381.947)" font-family="Segoe UI" font-size="12" font-weight="400" fill="black">01. December</text>
  <text dominant-baseline="hanging" text-anchor="middle" transform="translate(322.6265,381.947)" font-family="Segoe UI" font-size="12" font-weight="400" fill="black">01. January</text>
  <text dominant-baseline="hanging" text-anchor="middle" transform="translate(388.9009,381.947)" font-family="Segoe UI" font-size="12" font-weight="400" fill="black">01. February</text>
  <text dominant-baseline="hanging" text-anchor="middle" transform="translate(448.7617,381.947)" font-family="Segoe UI" font-size="12" font-weight="400" fill="black">01. March</text>
  <text dominant-baseline="hanging" text-anchor="middle" transform="translate(515.0361,381.947)" font-family="Segoe UI" font-size="12" font-weight="400" fill="black">01. April</text>
  <text dominant-baseline="hanging" text-anchor="middle" transform="translate(579.1727,381.947)" font-family="Segoe UI" font-size="12" font-weight="400" fill="black">01. May</text>
  <polyline points="61.8045,370.947 61.8045,377.947" style="fill:none;stroke:black;stroke-width:1" />
  <polyline points="125.9411,370.947 125.9411,377.947" style="fill:none;stroke:black;stroke-width:1" />
  <polyline points="192.2155,370.947 192.2155,377.947" style="fill:none;stroke:black;stroke-width:1" />
  <polyline points="256.352,370.947 256.352,377.947" style="fill:none;stroke:black;stroke-width:1" />
  <polyline points="322.6265,370.947 322.6265,377.947" style="fill:none;stroke:black;stroke-width:1" />
  <polyline points="388.9009,370.947 388.9009,377.947" style="fill:none;stroke:black;stroke-width:1" />
  <polyline points="448.7617,370.947 448.7617,377.947" style="fill:none;stroke:black;stroke-width:1" />
  <polyline points="515.0361,370.947 515.0361,377.947" style="fill:none;stroke:black;stroke-width:1" />
  <polyline points="579.1727,370.947 579.1727,377.947" style="fill:none;stroke:black;stroke-width:1" />
  <polyline points="34.012,356.8142 36.1499,356.3899 38.2878,362.471 44.7014,358.5112 46.8393,362.471 48.9772,363.0367 51.1151,363.6024 53.253,362.471 59.6666,366.9965 61.8045,365.2994 63.9424,365.8651 66.0803,365.2994 68.2182,365.2994 74.6318,365.8651 76.7697,367.5622 78.9076,365.8651 81.0455,365.2994 83.1834,363.0367 89.597,356.8142 91.7349,352.2887 93.8728,347.1975 96.0107,346.6319 98.1486,342.1064 104.5622,347.7632 106.7001,348.3289 108.838,352.2887 110.9759,350.5916 113.1137,351.723 119.5274,335.8838 121.6653,336.4495 123.8032,335.3182 125.9411,325.1358 128.0789,319.479 134.4926,312.6908 136.6305,313.8222 138.7684,305.9026 140.9063,304.7528 143.0441,307.6498 149.4578,292.5852 151.5957,290.847 153.7336,285.6323 155.8714,275.2029 158.0093,253.1854 164.423,230.5885 166.5609,225.9532 168.6988,221.8974 170.8366,202.7769 172.9745,202.1975 179.3882,137.3037 181.5261,132.0891 183.664,129.192 185.8018,131.5096 187.9397,98.4834 194.3534,118.1833 196.4913,107.7539 198.6291,108.9127 200.767,101.3804 202.9049,119.3421 209.3186,90.9511 211.4565,84.5776 213.5943,58.5042 217.8701,32.4308 224.2838,61.4012 226.4217,75.8864 228.5595,84.5776 230.6974,65.3847 232.8353,120.5009 239.249,167.433 241.3869,150.6301 243.5247,153.5272 245.6626,208.571 247.8005,185.974 254.2142,188.8711 256.352,213.7856 258.4899,225.9532 260.6278,198.1416 262.7657,202.1975 269.1794,179.0211 271.3172,181.3388 273.4551,179.6005 275.593,151.2095 277.7309,173.2271 284.1446,154.1066 286.2824,144.2566 288.4203,132.6685 290.5582,145.4155 292.6961,134.4067 299.1097,116.445 301.2476,117.0244 303.3855,140.7802 314.0749,157.0036 316.2128,154.686 318.3507,134.4067 320.4886,136.3622 329.0401,211.468 331.178,235.2238 333.3159,250.8678 335.4538,236.962 337.5917,215.9584 346.1432,192.9269 348.2811,195.2446 350.419,217.2621 352.5569,247.3913 358.9705,255.9086 361.1084,275.7823 363.2463,267.0912 365.3842,285.0529 367.5221,285.6323 373.9357,272.3059 378.2115,279.8382 380.3494,259.5589 382.4873,247.9707 388.9009,264.1942 391.0388,278.3173 393.1767,272.3059 395.3146,279.8382 397.4525,290.847 403.8661,293.744 406.004,290.847 408.1419,275.2029 410.2798,276.3617 412.4177,269.4088 418.8313,283.8941 420.9692,285.6323 423.1071,306.491 425.245,313.4439 427.3829,329.6673 433.7965,329.6673 435.9344,330.8261 438.0723,321.5556 440.2102,322.135 442.348,317.4997 448.7617,329.0879 450.8996,327.9291 453.0375,323.8732 455.1754,300.6969 457.3132,294.9028 463.7269,265.353 465.8648,265.353 468.0027,263.6148 470.1406,278.6794 472.2784,272.3059 478.6921,261.8765 480.83,262.4559 482.9679,254.9236 485.1057,226.5326 487.2436,208.571 493.6573,200.4592 495.7952,199.8798 497.9331,204.5151 500.0709,192.9269 502.2088,205.6739 508.6225,224.215 510.7604,220.7385 512.8983,227.6914 515.0361,243.9149 517.174,218.4209 525.7256,205.0945 527.8634,220.1591 530.0013,201.6181 532.1392,235.2238 538.5529,225.8953 540.6908,216.1033 542.8286,168.0124 544.9665,188.8711 547.1044,184.8152 553.5181,176.1241 555.656,157.0036 557.7938,162.2183 559.9317,148.3125 562.0696,123.9773 568.4833,104.8569 570.6211,121.0803 572.759,135.5655 574.8969,129.7714 577.0348,132.6685 583.4485,158.7418 585.5863,146.5743 587.7242,140.2008 589.8621,173.8065 592,194.0858" style="fill:none;stroke:rgb(31,119,180);stroke-width:2;stroke-linejoin:bevel" />
  <text dominant-baseline="hanging" text-anchor="middle" transform="translate(313.006,8)" font-family="Segoe UI" font-size="18" font-weight="700" fill="black">7-Tage-Inzidenz Stadt Aachen 07.05.2021</text>
  <polygon points="34.012,29.0795 592,29.0795 592,370.947 34.012,370.947" style="fill:none;stroke:black;stroke-width:1" />
  <polygon points="42.012,37.0795 247.014,37.0795 247.014,63.1325 42.012,63.1325" style="fill:none;stroke:none;" />
  <text dominant-baseline="hanging" text-anchor="start" transform="translate(70.012,45.0795)" font-family="Segoe UI" font-size="12" font-weight="400" fill="black">7-Tage-Inzidenz Stadt Aachen 07.05.2021</text>
  <polyline points="50.012,50.106 66.012,50.106" style="fill:none;stroke:rgb(31,119,180);stroke-width:2" />
</svg>