<?xml version="1.0" encoding="utf-8" standalone="no"?>
<!DOCTYPE svg PUBLIC "-//W3C//DTD SVG 1.1//EN" "http://www.w3.org/Graphics/SVG/1.1/DTD/svg11.dtd">
<svg width="600" height="400" version="1.1" xmlns:xlink="http://www.w3.org/1999/xlink" xmlns="http://www.w3.org/2000/svg">
  <rect x="0" y="0" width="600" height="400" style="fill:rgb(255,255,255);stroke:none;" />
  <polyline points="34.012,362.7539 30.012,362.7539" style="fill:none;stroke:black;stroke-width:1" />
  <polyline points="34.012,348.3289 30.012,348.3289" style="fill:none;stroke:black;stroke-width:1" />
  <polyline points="34.012,333.904 30.012,333.904" style="fill:none;stroke:black;stroke-width:1" />
  <polyline points="34.012,319.479 30.012,319.479" style="fill:none;stroke:black;stroke-width:1" />
  <polyline points="34.012,290.6291 30.012,290.6291" style="fill:none;stroke:black;stroke-width:1" />
  <polyline points="34.012,276.2041 30.012,276.2041" style="fill:none;stroke:black;stroke-width:1" />
  <polyline points="34.012,261.7792 30.012,261.7792" style="fill:none;stroke:black;stroke-width:1" />
  <polyline points="34.012,247.3542 30.012,247.3542" style="fill:none;stroke:black;stroke-width:1" />
  <polyline points="34.012,218.5043 30.012,218.5043" style="fill:none;stroke:black;stroke-width:1" />
  <polyline points="34.012,204.0794 30.012,204.0794" style="fill:none;stroke:black;stroke-width:1" />
  <polyline points="34.012,189.6544 30.012,189.6544" style="fill:none;stroke:black;stroke-width:1" />
  <polyline points="34.012,175.2295 30.012,175.2295" style="fill:none;stroke:black;stroke-width:1" />
  <polyline points="34.012,146.3796 30.012,146.3796" style="fill:none;stroke:black;stroke-width:1" />
  <polyline points="34.012,131.9546 30.012,131.9546" style="fill:none;stroke:black;stroke-width:1" />
  <polyline points="34.012,117.5297 30.012,117.5297" style="fill:none;stroke:black;stroke-width:1" />
  <polyline points="34.012,103.1047 30.012,103.1047" style="fill:none;stroke:black;stroke-width:1" />
  <polyline points="34.012,74.2548 30.012,74.2548" style="fill:none;stroke:black;stroke-width:1" />
  <polyline points="34.012,59.8299 30.012,59.8299" style="fill:none;stroke:black;stroke-width:1" />
  <polyline points="34.012,45.4049 30.012,45.4049" style="fill:none;stroke:black;stroke-width:1" />
  <polyline points="34.012,30.98 30.012,30.98" style="fill:none;stroke:black;stroke-width:1" />
  <text dominant-baseline="middle" text-anchor="end" transform="translate(23.012,305.0541)" font-family="Segoe UI" font-size="12" font-weight="400" fill="black">50</text>
  <text dominant-baseline="middle" text-anchor="end" transform="translate(23.012,232.9293)" font-family="Segoe UI" font-size="12" font-weight="400" fill="black">100</text>
  <text dominant-baseline="middle" text-anchor="end" transform="translate(23.012,160.8045)" font-family="Segoe UI" font-size="12" font-weight="400" fill="black">150</text>
  <text dominant-baseline="middle" text-anchor="end" transform="translate(23.012,88.6798)" font-family="Segoe UI" font-size="12" font-weight="400" fill="black">200</text>
  <polyline points="34.012,305.0541 27.012,305.0541" style="fill:none;stroke:black;stroke-width:1" />
  <polyline points="34.012,232.9293 27.012,232.9293" style="fill:none;stroke:black;stroke-width:1" />
  <polyline points="34.012,160.8045 27.012,160.8045" style="fill:none;stroke:black;stroke-width:1" />
  <polyline points="34.012,88.6798 27.012,88.6798" style="fill:none;stroke:black;stroke-width:1" />
  <text dominant-baseline="hanging" text-anchor="middle" transform="translate(80.811,381.947)" font-family="Segoe UI" font-size="12" font-weight="400" fill="black">01. September</text>
  <text dominant-baseline="hanging" text-anchor="middle" transform="translate(188.8087,381.947)" font-family="Segoe UI" font-size="12" font-weight="400" fill="black">01. October</text>
  <text dominant-baseline="hanging" text-anchor="middle" transform="translate(300.4063,381.947)" font-family="Segoe UI" font-size="12" font-weight="400" fill="black">01. November</text>
  <text dominant-baseline="hanging" text-anchor="middle" transform="translate(408.4039,381.947)" font-family="Segoe UI" font-size="12" font-weight="400" fill="black">01. December</text>
  <text dominant-baseline="hanging" text-anchor="middle" transform="translate(520.0015,381.947)" font-family="Segoe UI" font-size="12" font-weight="400" fill="black">01. January</text>
  <polyline points="80.811,370.947 80.811,377.947" style="fill:none;stroke:black;stroke-width:1" />
  <polyline points="188.8087,370.947 188.8087,377.947" style="fill:none;stroke:black;stroke-width:1" />
  <polyline points="300.4063,370.947 300.4063,377.947" style="fill:none;stroke:black;stroke-width:1" />
  <polyline points="408.4039,370.947 408.4039,377.947" style="fill:none;stroke:black;stroke-width:1" />
  <polyline points="520.0015,370.947 520.0015,377.947" style="fill:none;stroke:black;stroke-width:1" />
  <polyline points="34.012,356.8142 37.6119,356.3899 41.2118,362.471 52.0116,358.5112 55.6115,362.471 59.2115,363.0367 62.8114,363.6024 66.4113,362.471 77.2111,366.9965 80.811,365.2994 84.4109,365.8651 88.0108,365.2994 91.6108,365.2994 102.4105,365.8651 106.0105,367.5622 109.6104,365.8651 113.2103,365.2994 116.8102,363.0367 127.61,356.8142 131.2099,352.2887 134.8098,347.1975 138.4098,346.6319 142.0097,342.1064 152.8094,347.7632 156.4094,348.3289 160.0093,352.2887 163.6092,350.5916 167.2091,351.723 178.0089,335.8838 181.6088,336.4495 185.2087,335.3182 188.8087,325.1358 192.4086,319.479 203.2084,312.6908 206.8083,313.8222 210.4082,305.9026 214.0081,304.7528 217.6081,307.6498 228.4078,292.5852 232.0077,290.847 235.6077,285.6323 239.2076,275.2029 242.8075,253.1854 253.6073,230.5885 257.2072,225.9532 260.8071,221.8974 264.407,202.7769 268.007,202.1975 278.8067,137.3037 282.4067,132.0891 286.0066,129.192 289.6065,131.5096 293.2064,98.4834 304.0062,118.1833 307.6061,107.7539 311.206,108.9127 314.806,101.3804 318.4059,119.3421 329.2057,90.9511 332.8056,84.5776 336.4055,58.5042 343.6053,32.4308 354.4051,61.4012 358.005,75.8864 361.605,84.5776 365.2049,65.3847 368.8048,120.5009 379.6046,167.433 383.2045,150.6301 386.8044,153.5272 390.4043,208.571 394.0043,185.974 404.804,188.8711 408.4039,213.7856 412.0039,225.9532 415.6038,198.1416 419.2037,202.1975 430.0035,179.0211 433.6034,181.3388 437.2033,179.6005 440.8033,151.2095 444.4032,173.2271 455.2029,154.1066 458.8029,144.2566 462.4028,132.6685 466.0027,145.4155 469.6026,134.4067 480.4024,116.445 484.0023,117.0244 487.6022,140.7802 505.6019,157.0036 509.2018,154.686 512.8017,134.4067 516.4016,136.3622 530.8013,211.468 534.4012,235.2238 538.0012,250.8678 541.6011,236.962 545.201,215.9584 559.6007,192.9269 563.2006,195.2446 566.8005,217.2621 570.4005,247.3913 581.2002,255.9086 584.8002,275.7823 588.4001,267.0912 592,285.0529" style="fill:none;stroke:rgb(31,119,180);stroke-width:2;stroke-linejoin:bevel" />
  <text dominant-baseline="hanging" text-anchor="middle" transform="translate(313.006,8)" font-family="Segoe UI" font-size="18" font-weight="700" fill="black">7-Tage-Inzidenz Stadt Aachen 21.01.2021</text>
  <polygon points="34.012,29.0795 592,29.0795 592,370.947 34.012,370.947" style="fill:none;stroke:black;stroke-width:1" />
  <polygon points="42.012,37.0795 247.014,37.0795 247.014,63.1325 42.012,63.1325" style="fill:none;stroke:none;" />
  <text dominant-baseline="hanging" text-anchor="start" transform="translate(70.012,45.0795)" font-family="Segoe UI" font-size="12" font-weight="400" fill="black">7-Tage-Inzidenz Stadt Aachen 21.01.2021</text>
  <polyline points="50.012,50.106 66.012,50.106" style="fill:none;stroke:rgb(31,119,180);stroke-width:2" />
</svg>