<?xml version="1.0" encoding="utf-8" standalone="no"?>
<!DOCTYPE svg PUBLIC "-//W3C//DTD SVG 1.1//EN" "http://www.w3.org/Graphics/SVG/1.1/DTD/svg11.dtd">
<svg width="600" height="400" version="1.1" xmlns:xlink="http://www.w3.org/1999/xlink" xmlns="http://www.w3.org/2000/svg">
  <rect x="0" y="0" width="600" height="400" style="fill:rgb(255,255,255);stroke:none;" />
  <polyline points="34.012,362.7539 30.012,362.7539" style="fill:none;stroke:black;stroke-width:1" />
  <polyline points="34.012,348.3289 30.012,348.3289" style="fill:none;stroke:black;stroke-width:1" />
  <polyline points="34.012,333.904 30.012,333.904" style="fill:none;stroke:black;stroke-width:1" />
  <polyline points="34.012,319.479 30.012,319.479" style="fill:none;stroke:black;stroke-width:1" />
  <polyline points="34.012,290.6291 30.012,290.6291" style="fill:none;stroke:black;stroke-width:1" />
  <polyline points="34.012,276.2041 30.012,276.2041" style="fill:none;stroke:black;stroke-width:1" />
  <polyline points="34.012,261.7792 30.012,261.7792" style="fill:none;stroke:black;stroke-width:1" />
  <polyline points="34.012,247.3542 30.012,247.3542" style="fill:none;stroke:black;stroke-width:1" />
  <polyline points="34.012,218.5043 30.012,218.5043" style="fill:none;stroke:black;stroke-width:1" />
  <polyline points="34.012,204.0794 30.012,204.0794" style="fill:none;stroke:black;stroke-width:1" />
  <polyline points="34.012,189.6544 30.012,189.6544" style="fill:none;stroke:black;stroke-width:1" />
  <polyline points="34.012,175.2295 30.012,175.2295" style="fill:none;stroke:black;stroke-width:1" />
  <polyline points="34.012,146.3796 30.012,146.3796" style="fill:none;stroke:black;stroke-width:1" />
  <polyline points="34.012,131.9546 30.012,131.9546" style="fill:none;stroke:black;stroke-width:1" />
  <polyline points="34.012,117.5297 30.012,117.5297" style="fill:none;stroke:black;stroke-width:1" />
  <polyline points="34.012,103.1047 30.012,103.1047" style="fill:none;stroke:black;stroke-width:1" />
  <polyline points="34.012,74.2548 30.012,74.2548" style="fill:none;stroke:black;stroke-width:1" />
  <polyline points="34.012,59.8299 30.012,59.8299" style="fill:none;stroke:black;stroke-width:1" />
  <polyline points="34.012,45.4049 30.012,45.4049" style="fill:none;stroke:black;stroke-width:1" />
  <polyline points="34.012,30.98 30.012,30.98" style="fill:none;stroke:black;stroke-width:1" />
  <text dominant-baseline="middle" text-anchor="end" transform="translate(23.012,305.0541)" font-family="Segoe UI" font-size="12" font-weight="400" fill="black">50</text>
  <text dominant-baseline="middle" text-anchor="end" transform="translate(23.012,232.9293)" font-family="Segoe UI" font-size="12" font-weight="400" fill="black">100</text>
  <text dominant-baseline="middle" text-anchor="end" transform="translate(23.012,160.8045)" font-family="Segoe UI" font-size="12" font-weight="400" fill="black">150</text>
  <text dominant-baseline="middle" text-anchor="end" transform="translate(23.012,88.6798)" font-family="Segoe UI" font-size="12" font-weight="400" fill="black">200</text>
  <polyline points="34.012,305.0541 27.012,305.0541" style="fill:none;stroke:black;stroke-width:1" />
  <polyline points="34.012,232.9293 27.012,232.9293" style="fill:none;stroke:black;stroke-width:1" />
  <polyline points="34.012,160.8045 27.012,160.8045" style="fill:none;stroke:black;stroke-width:1" />
  <polyline points="34.012,88.6798 27.012,88.6798" style="fill:none;stroke:black;stroke-width:1" />
  <text dominant-baseline="hanging" text-anchor="middle" transform="translate(91.5822,381.947)" font-family="Segoe UI" font-size="12" font-weight="400" fill="black">01. September</text>
  <text dominant-baseline="hanging" text-anchor="middle" transform="translate(224.4365,381.947)" font-family="Segoe UI" font-size="12" font-weight="400" fill="black">01. October</text>
  <text dominant-baseline="hanging" text-anchor="middle" transform="translate(361.7192,381.947)" font-family="Segoe UI" font-size="12" font-weight="400" fill="black">01. November</text>
  <text dominant-baseline="hanging" text-anchor="middle" transform="translate(494.5735,381.947)" font-family="Segoe UI" font-size="12" font-weight="400" fill="black">01. December</text>
  <polyline points="91.5822,370.947 91.5822,377.947" style="fill:none;stroke:black;stroke-width:1" />
  <polyline points="224.4365,370.947 224.4365,377.947" style="fill:none;stroke:black;stroke-width:1" />
  <polyline points="361.7192,370.947 361.7192,377.947" style="fill:none;stroke:black;stroke-width:1" />
  <polyline points="494.5735,370.947 494.5735,377.947" style="fill:none;stroke:black;stroke-width:1" />
  <polyline points="34.012,356.8142 38.4405,356.3899 42.869,362.471 56.1544,358.5112 60.5829,362.471 65.0113,363.0367 69.4398,363.6024 73.8683,362.471 87.1537,366.9965 91.5822,365.2994 96.0107,365.8651 100.4391,365.2994 104.8676,365.2994 118.153,365.8651 122.5815,367.5622 127.01,365.8651 131.4385,365.2994 135.867,363.0367 149.1524,356.8142 153.5809,352.2887 158.0093,347.1975 162.4378,346.6319 166.8663,342.1064 180.1517,347.7632 184.5802,348.3289 189.0087,352.2887 193.4371,350.5916 197.8656,351.723 211.151,335.8838 215.5795,336.4495 220.008,335.3182 224.4365,325.1358 228.865,319.479 242.1504,312.6908 246.5789,313.8222 251.0073,305.9026 255.4358,304.7528 259.8643,307.6498 273.1497,292.5852 277.5782,290.847 282.0067,285.6323 286.4351,275.2029 290.8636,253.1854 304.149,230.5885 308.5775,225.9532 313.006,221.8974 317.4345,202.7769 321.863,202.1975 335.1484,137.3037 339.5769,132.0891 344.0053,129.192 348.4338,131.5096 352.8623,98.4834 366.1477,118.1833 370.5762,107.7539 375.0047,108.9127 379.4331,101.3804 383.8616,119.3421 397.147,90.9511 401.5755,84.5776 406.004,58.5042 414.861,32.4308 428.1464,61.4012 432.5749,75.8864 437.0033,84.5776 441.4318,65.3847 445.8603,120.5009 459.1457,167.433 463.5742,150.6301 468.0027,153.5272 472.4311,208.571 476.8596,185.974 490.145,188.8711 494.5735,213.7856 499.002,225.9532 503.4305,198.1416 507.859,202.1975 521.1444,179.0211 525.5729,181.3388 530.0013,179.6005 534.4298,151.2095 538.8583,173.2271 552.1437,154.1066 556.5722,144.2566 561.0007,132.6685 565.4291,145.4155 569.8576,134.4067 583.143,116.445 587.5715,117.0244 592,140.7802" style="fill:none;stroke:rgb(31,119,180);stroke-width:2;stroke-linejoin:bevel" />
  <text dominant-baseline="hanging" text-anchor="middle" transform="translate(313.006,8)" font-family="Segoe UI" font-size="18" font-weight="700" fill="black">7-Tage-Inzidenz Stadt Aachen 23.12.2020</text>
  <polygon points="34.012,29.0795 592,29.0795 592,370.947 34.012,370.947" style="fill:none;stroke:black;stroke-width:1" />
  <polygon points="42.012,37.0795 247.014,37.0795 247.014,63.1325 42.012,63.1325" style="fill:none;stroke:none;" />
  <text dominant-baseline="hanging" text-anchor="start" transform="translate(70.012,45.0795)" font-family="Segoe UI" font-size="12" font-weight="400" fill="black">7-Tage-Inzidenz Stadt Aachen 23.12.2020</text>
  <polyline points="50.012,50.106 66.012,50.106" style="fill:none;stroke:rgb(31,119,180);stroke-width:2" />
</svg>