<?xml version="1.0" encoding="utf-8" standalone="no"?>
<!DOCTYPE svg PUBLIC "-//W3C//DTD SVG 1.1//EN" "http://www.w3.org/Graphics/SVG/1.1/DTD/svg11.dtd">
<svg width="600" height="400" version="1.1" xmlns:xlink="http://www.w3.org/1999/xlink" xmlns="http://www.w3.org/2000/svg">
  <rect x="0" y="0" width="600" height="400" style="fill:rgb(255,255,255);stroke:none;" />
  <polyline points="34.012,360.7189 30.012,360.7189" style="fill:none;stroke:black;stroke-width:1" />
  <polyline points="34.012,340.1889 30.012,340.1889" style="fill:none;stroke:black;stroke-width:1" />
  <polyline points="34.012,319.6589 30.012,319.6589" style="fill:none;stroke:black;stroke-width:1" />
  <polyline points="34.012,299.129 30.012,299.129" style="fill:none;stroke:black;stroke-width:1" />
  <polyline points="34.012,258.0691 30.012,258.0691" style="fill:none;stroke:black;stroke-width:1" />
  <polyline points="34.012,237.5391 30.012,237.5391" style="fill:none;stroke:black;stroke-width:1" />
  <polyline points="34.012,217.0091 30.012,217.0091" style="fill:none;stroke:black;stroke-width:1" />
  <polyline points="34.012,196.4792 30.012,196.4792" style="fill:none;stroke:black;stroke-width:1" />
  <polyline points="34.012,155.4193 30.012,155.4193" style="fill:none;stroke:black;stroke-width:1" />
  <polyline points="34.012,134.8893 30.012,134.8893" style="fill:none;stroke:black;stroke-width:1" />
  <polyline points="34.012,114.3593 30.012,114.3593" style="fill:none;stroke:black;stroke-width:1" />
  <polyline points="34.012,93.8294 30.012,93.8294" style="fill:none;stroke:black;stroke-width:1" />
  <polyline points="34.012,52.7695 30.012,52.7695" style="fill:none;stroke:black;stroke-width:1" />
  <polyline points="34.012,32.2395 30.012,32.2395" style="fill:none;stroke:black;stroke-width:1" />
  <text dominant-baseline="middle" text-anchor="end" transform="translate(23.012,278.599)" font-family="Segoe UI" font-size="12" font-weight="400" fill="black">50</text>
  <text dominant-baseline="middle" text-anchor="end" transform="translate(23.012,175.9492)" font-family="Segoe UI" font-size="12" font-weight="400" fill="black">100</text>
  <text dominant-baseline="middle" text-anchor="end" transform="translate(23.012,73.2994)" font-family="Segoe UI" font-size="12" font-weight="400" fill="black">150</text>
  <polyline points="34.012,278.599 27.012,278.599" style="fill:none;stroke:black;stroke-width:1" />
  <polyline points="34.012,175.9492 27.012,175.9492" style="fill:none;stroke:black;stroke-width:1" />
  <polyline points="34.012,73.2994 27.012,73.2994" style="fill:none;stroke:black;stroke-width:1" />
  <text dominant-baseline="hanging" text-anchor="middle" transform="translate(114.8798,381.947)" font-family="Segoe UI" font-size="12" font-weight="400" fill="black">29. August</text>
  <text dominant-baseline="hanging" text-anchor="middle" transform="translate(228.0948,381.947)" font-family="Segoe UI" font-size="12" font-weight="400" fill="black">12. September</text>
  <text dominant-baseline="hanging" text-anchor="middle" transform="translate(341.3097,381.947)" font-family="Segoe UI" font-size="12" font-weight="400" fill="black">26. September</text>
  <text dominant-baseline="hanging" text-anchor="middle" transform="translate(454.5247,381.947)" font-family="Segoe UI" font-size="12" font-weight="400" fill="black">10. October</text>
  <text dominant-baseline="hanging" text-anchor="middle" transform="translate(567.7397,381.947)" font-family="Segoe UI" font-size="12" font-weight="400" fill="black">24. October</text>
  <polyline points="114.8798,370.947 114.8798,377.947" style="fill:none;stroke:black;stroke-width:1" />
  <polyline points="228.0948,370.947 228.0948,377.947" style="fill:none;stroke:black;stroke-width:1" />
  <polyline points="341.3097,370.947 341.3097,377.947" style="fill:none;stroke:black;stroke-width:1" />
  <polyline points="454.5247,370.947 454.5247,377.947" style="fill:none;stroke:black;stroke-width:1" />
  <polyline points="567.7397,370.947 567.7397,377.947" style="fill:none;stroke:black;stroke-width:1" />
  <polyline points="34.012,352.2653 42.0988,351.6615 50.1856,360.3163 74.4459,354.6806 82.5327,360.3163 90.6195,361.1214 98.7063,361.9265 106.793,360.3163 131.0534,366.7571 139.1402,364.3418 147.227,365.1469 155.3137,364.3418 163.4005,364.3418 187.6609,365.1469 195.7477,367.5622 203.8344,365.1469 211.9212,364.3418 220.008,361.1214 244.2683,352.2653 252.3551,345.8246 260.4419,338.5787 268.5287,337.7736 276.6155,331.3328 300.8758,339.3838 308.9626,340.1889 317.0494,345.8246 325.1362,343.4093 333.223,345.0195 357.4833,322.4768 365.5701,323.2819 373.6569,321.6717 381.7437,307.1799 389.8304,299.129 414.0908,289.4678 422.1776,291.078 430.2643,279.8067 438.3511,278.1702 446.4379,282.2934 470.6983,260.853 478.785,258.3791 486.8718,250.9575 494.9586,236.1141 503.0454,204.7782 527.3057,172.6177 535.3925,166.0207 543.4793,160.2483 551.5661,133.0355 559.6529,132.2109 583.9132,39.8525 592,32.4308" style="fill:none;stroke:rgb(31,119,180);stroke-width:2;stroke-linejoin:bevel" />
  <text dominant-baseline="hanging" text-anchor="middle" transform="translate(313.006,8)" font-family="Segoe UI" font-size="18" font-weight="700" fill="black">7-Tage-Inzidenz Stadt Aachen 27.10.2020</text>
  <polygon points="34.012,29.0795 592,29.0795 592,370.947 34.012,370.947" style="fill:none;stroke:black;stroke-width:1" />
  <polygon points="42.012,37.0795 247.014,37.0795 247.014,63.1325 42.012,63.1325" style="fill:none;stroke:none;" />
  <text dominant-baseline="hanging" text-anchor="start" transform="translate(70.012,45.0795)" font-family="Segoe UI" font-size="12" font-weight="400" fill="black">7-Tage-Inzidenz Stadt Aachen 27.10.2020</text>
  <polyline points="50.012,50.106 66.012,50.106" style="fill:none;stroke:rgb(31,119,180);stroke-width:2" />
</svg>