<?xml version="1.0" encoding="utf-8" standalone="no"?>
<!DOCTYPE svg PUBLIC "-//W3C//DTD SVG 1.1//EN" "http://www.w3.org/Graphics/SVG/1.1/DTD/svg11.dtd">
<svg width="600" height="400" version="1.1" xmlns:xlink="http://www.w3.org/1999/xlink" xmlns="http://www.w3.org/2000/svg">
  <rect x="0" y="0" width="600" height="400" style="fill:rgb(255,255,255);stroke:none;" />
  <polyline points="34.012,362.7539 30.012,362.7539" style="fill:none;stroke:black;stroke-width:1" />
  <polyline points="34.012,348.3289 30.012,348.3289" style="fill:none;stroke:black;stroke-width:1" />
  <polyline points="34.012,333.904 30.012,333.904" style="fill:none;stroke:black;stroke-width:1" />
  <polyline points="34.012,319.479 30.012,319.479" style="fill:none;stroke:black;stroke-width:1" />
  <polyline points="34.012,290.6291 30.012,290.6291" style="fill:none;stroke:black;stroke-width:1" />
  <polyline points="34.012,276.2041 30.012,276.2041" style="fill:none;stroke:black;stroke-width:1" />
  <polyline points="34.012,261.7792 30.012,261.7792" style="fill:none;stroke:black;stroke-width:1" />
  <polyline points="34.012,247.3542 30.012,247.3542" style="fill:none;stroke:black;stroke-width:1" />
  <polyline points="34.012,218.5043 30.012,218.5043" style="fill:none;stroke:black;stroke-width:1" />
  <polyline points="34.012,204.0794 30.012,204.0794" style="fill:none;stroke:black;stroke-width:1" />
  <polyline points="34.012,189.6544 30.012,189.6544" style="fill:none;stroke:black;stroke-width:1" />
  <polyline points="34.012,175.2295 30.012,175.2295" style="fill:none;stroke:black;stroke-width:1" />
  <polyline points="34.012,146.3796 30.012,146.3796" style="fill:none;stroke:black;stroke-width:1" />
  <polyline points="34.012,131.9546 30.012,131.9546" style="fill:none;stroke:black;stroke-width:1" />
  <polyline points="34.012,117.5297 30.012,117.5297" style="fill:none;stroke:black;stroke-width:1" />
  <polyline points="34.012,103.1047 30.012,103.1047" style="fill:none;stroke:black;stroke-width:1" />
  <polyline points="34.012,74.2548 30.012,74.2548" style="fill:none;stroke:black;stroke-width:1" />
  <polyline points="34.012,59.8299 30.012,59.8299" style="fill:none;stroke:black;stroke-width:1" />
  <polyline points="34.012,45.4049 30.012,45.4049" style="fill:none;stroke:black;stroke-width:1" />
  <polyline points="34.012,30.98 30.012,30.98" style="fill:none;stroke:black;stroke-width:1" />
  <text dominant-baseline="middle" text-anchor="end" transform="translate(23.012,305.0541)" font-family="Segoe UI" font-size="12" font-weight="400" fill="black">50</text>
  <text dominant-baseline="middle" text-anchor="end" transform="translate(23.012,232.9293)" font-family="Segoe UI" font-size="12" font-weight="400" fill="black">100</text>
  <text dominant-baseline="middle" text-anchor="end" transform="translate(23.012,160.8045)" font-family="Segoe UI" font-size="12" font-weight="400" fill="black">150</text>
  <text dominant-baseline="middle" text-anchor="end" transform="translate(23.012,88.6798)" font-family="Segoe UI" font-size="12" font-weight="400" fill="black">200</text>
  <polyline points="34.012,305.0541 27.012,305.0541" style="fill:none;stroke:black;stroke-width:1" />
  <polyline points="34.012,232.9293 27.012,232.9293" style="fill:none;stroke:black;stroke-width:1" />
  <polyline points="34.012,160.8045 27.012,160.8045" style="fill:none;stroke:black;stroke-width:1" />
  <polyline points="34.012,88.6798 27.012,88.6798" style="fill:none;stroke:black;stroke-width:1" />
  <text dominant-baseline="hanging" text-anchor="middle" transform="translate(83.3915,381.947)" font-family="Segoe UI" font-size="12" font-weight="400" fill="black">29. August</text>
  <text dominant-baseline="hanging" text-anchor="middle" transform="translate(152.5227,381.947)" font-family="Segoe UI" font-size="12" font-weight="400" fill="black">12. September</text>
  <text dominant-baseline="hanging" text-anchor="middle" transform="translate(221.654,381.947)" font-family="Segoe UI" font-size="12" font-weight="400" fill="black">26. September</text>
  <text dominant-baseline="hanging" text-anchor="middle" transform="translate(290.7852,381.947)" font-family="Segoe UI" font-size="12" font-weight="400" fill="black">10. October</text>
  <text dominant-baseline="hanging" text-anchor="middle" transform="translate(359.9165,381.947)" font-family="Segoe UI" font-size="12" font-weight="400" fill="black">24. October</text>
  <text dominant-baseline="hanging" text-anchor="middle" transform="translate(429.0478,381.947)" font-family="Segoe UI" font-size="12" font-weight="400" fill="black">07. November</text>
  <text dominant-baseline="hanging" text-anchor="middle" transform="translate(498.179,381.947)" font-family="Segoe UI" font-size="12" font-weight="400" fill="black">21. November</text>
  <text dominant-baseline="hanging" text-anchor="middle" transform="translate(567.3103,381.947)" font-family="Segoe UI" font-size="12" font-weight="400" fill="black">05. December</text>
  <polyline points="83.3915,370.947 83.3915,377.947" style="fill:none;stroke:black;stroke-width:1" />
  <polyline points="152.5227,370.947 152.5227,377.947" style="fill:none;stroke:black;stroke-width:1" />
  <polyline points="221.654,370.947 221.654,377.947" style="fill:none;stroke:black;stroke-width:1" />
  <polyline points="290.7852,370.947 290.7852,377.947" style="fill:none;stroke:black;stroke-width:1" />
  <polyline points="359.9165,370.947 359.9165,377.947" style="fill:none;stroke:black;stroke-width:1" />
  <polyline points="429.0478,370.947 429.0478,377.947" style="fill:none;stroke:black;stroke-width:1" />
  <polyline points="498.179,370.947 498.179,377.947" style="fill:none;stroke:black;stroke-width:1" />
  <polyline points="567.3103,370.947 567.3103,377.947" style="fill:none;stroke:black;stroke-width:1" />
  <polyline points="34.012,356.8142 38.9499,356.3899 43.8879,362.471 58.7017,358.5112 63.6397,362.471 68.5776,363.0367 73.5156,363.6024 78.4535,362.471 93.2674,366.9965 98.2053,365.2994 103.1433,365.8651 108.0812,365.2994 113.0192,365.2994 127.833,365.8651 132.7709,367.5622 137.7089,365.8651 142.6468,365.2994 147.5848,363.0367 162.3986,356.8142 167.3366,352.2887 172.2745,347.1975 177.2125,346.6319 182.1504,342.1064 196.9642,347.7632 201.9022,348.3289 206.8401,352.2887 211.7781,350.5916 216.716,351.723 231.5299,335.8838 236.4678,336.4495 241.4058,335.3182 246.3437,325.1358 251.2817,319.479 266.0955,312.6908 271.0335,313.8222 275.9714,305.9026 280.9093,304.7528 285.8473,307.6498 300.6611,292.5852 305.5991,290.847 310.537,285.6323 315.475,275.2029 320.4129,253.1854 335.2268,230.5885 340.1647,225.9532 345.1027,221.8974 350.0406,202.7769 354.9785,202.1975 369.7924,137.3037 374.7303,132.0891 379.6683,129.192 384.6062,131.5096 389.5442,98.4834 404.358,118.1833 409.296,107.7539 414.2339,108.9127 419.1719,101.3804 424.1098,119.3421 438.9236,90.9511 443.8616,84.5776 448.7995,58.5042 458.6754,32.4308 473.4893,61.4012 478.4272,75.8864 483.3652,84.5776 488.3031,65.3847 493.2411,120.5009 508.0549,167.433 512.9928,150.6301 517.9308,153.5272 522.8687,208.571 527.8067,185.974 542.6205,188.8711 547.5585,213.7856 552.4964,225.9532 557.4344,198.1416 562.3723,202.1975 577.1862,179.0211 582.1241,181.3388 587.0621,179.6005 592,151.2095" style="fill:none;stroke:rgb(31,119,180);stroke-width:2;stroke-linejoin:bevel" />
  <text dominant-baseline="hanging" text-anchor="middle" transform="translate(313.006,8)" font-family="Segoe UI" font-size="18" font-weight="700" fill="black">7-Tage-Inzidenz Stadt Aachen 10.12.2020</text>
  <polygon points="34.012,29.0795 592,29.0795 592,370.947 34.012,370.947" style="fill:none;stroke:black;stroke-width:1" />
  <polygon points="42.012,37.0795 247.014,37.0795 247.014,63.1325 42.012,63.1325" style="fill:none;stroke:none;" />
  <text dominant-baseline="hanging" text-anchor="start" transform="translate(70.012,45.0795)" font-family="Segoe UI" font-size="12" font-weight="400" fill="black">7-Tage-Inzidenz Stadt Aachen 10.12.2020</text>
  <polyline points="50.012,50.106 66.012,50.106" style="fill:none;stroke:rgb(31,119,180);stroke-width:2" />
</svg>