<?xml version="1.0" encoding="utf-8" standalone="no"?>
<!DOCTYPE svg PUBLIC "-//W3C//DTD SVG 1.1//EN" "http://www.w3.org/Graphics/SVG/1.1/DTD/svg11.dtd">
<svg width="600" height="400" version="1.1" xmlns:xlink="http://www.w3.org/1999/xlink" xmlns="http://www.w3.org/2000/svg">
  <rect x="0" y="0" width="600" height="400" style="fill:rgb(255,255,255);stroke:none;" />
  <polyline points="34.012,362.7539 30.012,362.7539" style="fill:none;stroke:black;stroke-width:1" />
  <polyline points="34.012,348.3289 30.012,348.3289" style="fill:none;stroke:black;stroke-width:1" />
  <polyline points="34.012,333.904 30.012,333.904" style="fill:none;stroke:black;stroke-width:1" />
  <polyline points="34.012,319.479 30.012,319.479" style="fill:none;stroke:black;stroke-width:1" />
  <polyline points="34.012,290.6291 30.012,290.6291" style="fill:none;stroke:black;stroke-width:1" />
  <polyline points="34.012,276.2041 30.012,276.2041" style="fill:none;stroke:black;stroke-width:1" />
  <polyline points="34.012,261.7792 30.012,261.7792" style="fill:none;stroke:black;stroke-width:1" />
  <polyline points="34.012,247.3542 30.012,247.3542" style="fill:none;stroke:black;stroke-width:1" />
  <polyline points="34.012,218.5043 30.012,218.5043" style="fill:none;stroke:black;stroke-width:1" />
  <polyline points="34.012,204.0794 30.012,204.0794" style="fill:none;stroke:black;stroke-width:1" />
  <polyline points="34.012,189.6544 30.012,189.6544" style="fill:none;stroke:black;stroke-width:1" />
  <polyline points="34.012,175.2295 30.012,175.2295" style="fill:none;stroke:black;stroke-width:1" />
  <polyline points="34.012,146.3796 30.012,146.3796" style="fill:none;stroke:black;stroke-width:1" />
  <polyline points="34.012,131.9546 30.012,131.9546" style="fill:none;stroke:black;stroke-width:1" />
  <polyline points="34.012,117.5297 30.012,117.5297" style="fill:none;stroke:black;stroke-width:1" />
  <polyline points="34.012,103.1047 30.012,103.1047" style="fill:none;stroke:black;stroke-width:1" />
  <polyline points="34.012,74.2548 30.012,74.2548" style="fill:none;stroke:black;stroke-width:1" />
  <polyline points="34.012,59.8299 30.012,59.8299" style="fill:none;stroke:black;stroke-width:1" />
  <polyline points="34.012,45.4049 30.012,45.4049" style="fill:none;stroke:black;stroke-width:1" />
  <polyline points="34.012,30.98 30.012,30.98" style="fill:none;stroke:black;stroke-width:1" />
  <text dominant-baseline="middle" text-anchor="end" transform="translate(23.012,305.0541)" font-family="Segoe UI" font-size="12" font-weight="400" fill="black">50</text>
  <text dominant-baseline="middle" text-anchor="end" transform="translate(23.012,232.9293)" font-family="Segoe UI" font-size="12" font-weight="400" fill="black">100</text>
  <text dominant-baseline="middle" text-anchor="end" transform="translate(23.012,160.8045)" font-family="Segoe UI" font-size="12" font-weight="400" fill="black">150</text>
  <text dominant-baseline="middle" text-anchor="end" transform="translate(23.012,88.6798)" font-family="Segoe UI" font-size="12" font-weight="400" fill="black">200</text>
  <polyline points="34.012,305.0541 27.012,305.0541" style="fill:none;stroke:black;stroke-width:1" />
  <polyline points="34.012,232.9293 27.012,232.9293" style="fill:none;stroke:black;stroke-width:1" />
  <polyline points="34.012,160.8045 27.012,160.8045" style="fill:none;stroke:black;stroke-width:1" />
  <polyline points="34.012,88.6798 27.012,88.6798" style="fill:none;stroke:black;stroke-width:1" />
  <text dominant-baseline="hanging" text-anchor="middle" transform="translate(69.7452,381.947)" font-family="Segoe UI" font-size="12" font-weight="400" fill="black">01. September</text>
  <text dominant-baseline="hanging" text-anchor="middle" transform="translate(152.2065,381.947)" font-family="Segoe UI" font-size="12" font-weight="400" fill="black">01. October</text>
  <text dominant-baseline="hanging" text-anchor="middle" transform="translate(237.4165,381.947)" font-family="Segoe UI" font-size="12" font-weight="400" fill="black">01. November</text>
  <text dominant-baseline="hanging" text-anchor="middle" transform="translate(319.8778,381.947)" font-family="Segoe UI" font-size="12" font-weight="400" fill="black">01. December</text>
  <text dominant-baseline="hanging" text-anchor="middle" transform="translate(405.0878,381.947)" font-family="Segoe UI" font-size="12" font-weight="400" fill="black">01. January</text>
  <text dominant-baseline="hanging" text-anchor="middle" transform="translate(490.2978,381.947)" font-family="Segoe UI" font-size="12" font-weight="400" fill="black">01. February</text>
  <text dominant-baseline="hanging" text-anchor="middle" transform="translate(567.2616,381.947)" font-family="Segoe UI" font-size="12" font-weight="400" fill="black">01. March</text>
  <polyline points="69.7452,370.947 69.7452,377.947" style="fill:none;stroke:black;stroke-width:1" />
  <polyline points="152.2065,370.947 152.2065,377.947" style="fill:none;stroke:black;stroke-width:1" />
  <polyline points="237.4165,370.947 237.4165,377.947" style="fill:none;stroke:black;stroke-width:1" />
  <polyline points="319.8778,370.947 319.8778,377.947" style="fill:none;stroke:black;stroke-width:1" />
  <polyline points="405.0878,370.947 405.0878,377.947" style="fill:none;stroke:black;stroke-width:1" />
  <polyline points="490.2978,370.947 490.2978,377.947" style="fill:none;stroke:black;stroke-width:1" />
  <polyline points="567.2616,370.947 567.2616,377.947" style="fill:none;stroke:black;stroke-width:1" />
  <polyline points="34.012,356.8142 36.7607,356.3899 39.5094,362.471 47.7555,358.5112 50.5043,362.471 53.253,363.0367 56.0017,363.6024 58.7504,362.471 66.9965,366.9965 69.7452,365.2994 72.4939,365.8651 75.2426,365.2994 77.9913,365.2994 86.2375,365.8651 88.9862,367.5622 91.7349,365.8651 94.4836,365.2994 97.2323,363.0367 105.4784,356.8142 108.2272,352.2887 110.9759,347.1975 113.7246,346.6319 116.4733,342.1064 124.7194,347.7632 127.4681,348.3289 130.2168,352.2887 132.9655,350.5916 135.7142,351.723 143.9604,335.8838 146.7091,336.4495 149.4578,335.3182 152.2065,325.1358 154.9552,319.479 163.2013,312.6908 165.95,313.8222 168.6988,305.9026 171.4475,304.7528 174.1962,307.6498 182.4423,292.5852 185.191,290.847 187.9397,285.6323 190.6884,275.2029 193.4371,253.1854 201.6833,230.5885 204.432,225.9532 207.1807,221.8974 209.9294,202.7769 212.6781,202.1975 220.9242,137.3037 223.6729,132.0891 226.4217,129.192 229.1704,131.5096 231.9191,98.4834 240.1652,118.1833 242.9139,107.7539 245.6626,108.9127 248.4113,101.3804 251.16,119.3421 259.4062,90.9511 262.1549,84.5776 264.9036,58.5042 270.401,32.4308 278.6471,61.4012 281.3958,75.8864 284.1446,84.5776 286.8933,65.3847 289.642,120.5009 297.8881,167.433 300.6368,150.6301 303.3855,153.5272 306.1342,208.571 308.8829,185.974 317.1291,188.8711 319.8778,213.7856 322.6265,225.9532 325.3752,198.1416 328.1239,202.1975 336.37,179.0211 339.1187,181.3388 341.8674,179.6005 344.6162,151.2095 347.3649,173.2271 355.611,154.1066 358.3597,144.2566 361.1084,132.6685 363.8571,145.4155 366.6058,134.4067 374.852,116.445 377.6007,117.0244 380.3494,140.7802 394.0929,157.0036 396.8416,154.686 399.5903,134.4067 402.3391,136.3622 413.3339,211.468 416.0826,235.2238 418.8313,250.8678 421.58,236.962 424.3287,215.9584 435.3236,192.9269 438.0723,195.2446 440.821,217.2621 443.5697,247.3913 451.8158,255.9086 454.5645,275.7823 457.3132,267.0912 460.062,285.0529 462.8107,285.6323 471.0568,272.3059 476.5542,279.8382 479.3029,259.5589 482.0516,247.9707 490.2978,264.1942 493.0465,278.3173 495.7952,272.3059 498.5439,279.8382 501.2926,290.847 509.5387,293.744 512.2874,290.847 515.0361,275.2029 517.7848,276.3617 520.5336,269.4088 528.7797,283.8941 531.5284,285.6323 534.2771,306.491 537.0258,313.4439 539.7745,329.6673 548.0207,329.6673 550.7694,330.8261 553.5181,321.5556 556.2668,322.135 559.0155,317.4997 567.2616,329.0879 570.0103,327.9291 572.759,323.8732 575.5077,300.6969 578.2565,294.9028 586.5026,265.353 589.2513,265.353 592,263.6148" style="fill:none;stroke:rgb(31,119,180);stroke-width:2;stroke-linejoin:bevel" />
  <text dominant-baseline="hanging" text-anchor="middle" transform="translate(313.006,8)" font-family="Segoe UI" font-size="18" font-weight="700" fill="black">7-Tage-Inzidenz Stadt Aachen 10.03.2021</text>
  <polygon points="34.012,29.0795 592,29.0795 592,370.947 34.012,370.947" style="fill:none;stroke:black;stroke-width:1" />
  <polygon points="42.012,37.0795 247.014,37.0795 247.014,63.1325 42.012,63.1325" style="fill:none;stroke:none;" />
  <text dominant-baseline="hanging" text-anchor="start" transform="translate(70.012,45.0795)" font-family="Segoe UI" font-size="12" font-weight="400" fill="black">7-Tage-Inzidenz Stadt Aachen 10.03.2021</text>
  <polyline points="50.012,50.106 66.012,50.106" style="fill:none;stroke:rgb(31,119,180);stroke-width:2" />
</svg>