<?xml version="1.0" encoding="utf-8" standalone="no"?>
<!DOCTYPE svg PUBLIC "-//W3C//DTD SVG 1.1//EN" "http://www.w3.org/Graphics/SVG/1.1/DTD/svg11.dtd">
<svg width="600" height="400" version="1.1" xmlns:xlink="http://www.w3.org/1999/xlink" xmlns="http://www.w3.org/2000/svg">
  <rect x="0" y="0" width="600" height="400" style="fill:rgb(255,255,255);stroke:none;" />
  <polyline points="34.012,346.3457 30.012,346.3457" style="fill:none;stroke:black;stroke-width:1" />
  <polyline points="34.012,325.1722 30.012,325.1722" style="fill:none;stroke:black;stroke-width:1" />
  <polyline points="34.012,303.9987 30.012,303.9987" style="fill:none;stroke:black;stroke-width:1" />
  <polyline points="34.012,282.8252 30.012,282.8252" style="fill:none;stroke:black;stroke-width:1" />
  <polyline points="34.012,240.4782 30.012,240.4782" style="fill:none;stroke:black;stroke-width:1" />
  <polyline points="34.012,219.3047 30.012,219.3047" style="fill:none;stroke:black;stroke-width:1" />
  <polyline points="34.012,198.1312 30.012,198.1312" style="fill:none;stroke:black;stroke-width:1" />
  <polyline points="34.012,176.9577 30.012,176.9577" style="fill:none;stroke:black;stroke-width:1" />
  <polyline points="34.012,134.6107 30.012,134.6107" style="fill:none;stroke:black;stroke-width:1" />
  <polyline points="34.012,113.4372 30.012,113.4372" style="fill:none;stroke:black;stroke-width:1" />
  <polyline points="34.012,92.2637 30.012,92.2637" style="fill:none;stroke:black;stroke-width:1" />
  <polyline points="34.012,71.0902 30.012,71.0902" style="fill:none;stroke:black;stroke-width:1" />
  <text dominant-baseline="middle" text-anchor="end" transform="translate(23.012,367.5192)" font-family="Segoe UI" font-size="12" font-weight="400" fill="black">0</text>
  <text dominant-baseline="middle" text-anchor="end" transform="translate(23.012,261.6517)" font-family="Segoe UI" font-size="12" font-weight="400" fill="black">100</text>
  <text dominant-baseline="middle" text-anchor="end" transform="translate(23.012,155.7842)" font-family="Segoe UI" font-size="12" font-weight="400" fill="black">200</text>
  <text dominant-baseline="middle" text-anchor="end" transform="translate(23.012,49.9166)" font-family="Segoe UI" font-size="12" font-weight="400" fill="black">300</text>
  <polyline points="34.012,367.5192 27.012,367.5192" style="fill:none;stroke:black;stroke-width:1" />
  <polyline points="34.012,261.6517 27.012,261.6517" style="fill:none;stroke:black;stroke-width:1" />
  <polyline points="34.012,155.7842 27.012,155.7842" style="fill:none;stroke:black;stroke-width:1" />
  <polyline points="34.012,49.9166 27.012,49.9166" style="fill:none;stroke:black;stroke-width:1" />
  <text dominant-baseline="hanging" text-anchor="middle" transform="translate(200.4706,381.947)" font-family="Segoe UI" font-size="12" font-weight="400" fill="black">01. January</text>
  <polyline points="200.4706,370.947 200.4706,377.947" style="fill:none;stroke:black;stroke-width:1" />
  <polyline points="34.012,367.5622 36.3565,367.5621 39.8732,367.5621 41.0455,367.562 42.2177,352.5732 43.3899,352.2618 44.5622,356.7249 48.0789,353.8187 49.2512,356.7249 50.4234,357.1401 51.5957,357.5552 52.7679,356.7249 56.2846,360.0462 57.4569,358.8007 58.6291,359.2159 59.8014,358.8007 60.9736,358.8007 64.4903,359.2159 65.6626,360.4614 66.8348,359.2159 68.0071,358.8007 69.1793,357.1401 72.696,352.5732 73.8683,349.2519 75.0405,345.5154 76.2128,345.1002 77.385,341.7789 80.9017,345.9305 82.074,346.3457 83.2462,349.2519 84.4185,348.0064 85.5907,348.8367 89.1075,337.212 90.2797,337.6272 91.4519,336.7969 92.6242,329.3239 93.7964,325.1722 97.3132,320.1902 98.4854,321.0205 99.6576,315.2082 100.8299,314.3643 102.0021,316.4905 105.5189,305.4343 106.6911,304.1586 107.8634,300.3314 109.0356,292.6771 110.2078,276.5181 113.7246,259.9337 114.8968,256.5318 116.0691,253.5551 117.2413,239.5223 118.4135,239.097 121.9303,191.4702 123.1025,187.6431 124.2748,185.5169 125.447,187.2178 126.6193,162.9792 130.136,177.4373 131.3082,169.783 132.4805,170.6335 133.6527,165.1054 134.825,178.2878 138.3417,157.4511 139.5139,152.7735 140.6862,133.6377 143.0307,114.502 146.5474,135.7639 147.7196,146.3949 148.8919,152.7735 150.0641,138.6874 151.2364,179.1383 154.7531,213.5827 155.9253,201.2507 157.0976,203.3769 158.2698,243.7746 159.4421,227.1903 162.9588,229.3165 164.1311,247.6018 165.3033,256.5318 166.4755,236.1203 167.6478,239.097 171.1645,222.0875 172.3368,223.7884 173.509,222.5127 174.6812,201.676 175.8535,217.8351 179.3702,203.8022 180.5425,196.5731 181.7147,188.0683 182.8869,197.4236 184.0592,189.344 187.5759,176.1616 188.7482,176.5869 189.9204,194.0217 195.7816,205.9284 196.9539,204.2274 198.1261,189.344 199.2984,190.7792 203.9873,245.9008 205.1596,263.3356 206.3318,274.8171 207.5041,264.6114 208.6763,249.1964 213.3653,232.2932 214.5375,233.9941 215.7098,250.1532 216.882,272.2657 220.3987,278.5167 221.571,293.1024 222.7432,286.7238 223.9155,299.9062 225.0877,300.3314 228.6045,290.5509 230.9489,296.0791 232.1212,281.1957 233.2934,272.6909 236.8102,284.5976 237.9824,294.9628 239.1546,290.5509 240.3269,296.0791 241.4991,304.1586 245.0159,306.2848 246.1881,304.1586 247.3604,292.6771 248.5326,293.5276 249.7048,288.4247 253.2216,299.0557 254.3938,300.3314 255.5661,315.6401 256.7383,320.7429 257.9105,332.6496 261.4273,332.6496 262.5995,333.5001 263.7718,326.6963 264.944,327.1215 266.1163,323.7196 269.633,332.2244 270.8052,331.3739 271.9775,328.3972 273.1497,311.3877 274.322,307.1353 277.8387,285.4481 279.0109,285.4481 280.1832,284.1724 281.3554,295.2286 282.5277,290.5509 286.0444,282.8966 287.2166,283.3219 288.3889,277.7938 289.5611,256.9571 290.7334,243.7746 294.2501,237.8213 295.4223,237.3961 296.5946,240.798 297.7668,232.2932 298.9391,241.6484 302.4558,255.2561 303.6281,252.7047 304.8003,257.8075 305.9725,269.7142 307.1448,251.0037 311.8338,241.2232 313.006,252.2794 314.1782,238.6718 315.3505,263.3356 318.8672,256.4893 320.0395,249.3028 321.2117,214.0079 322.3839,229.3165 323.5562,226.3398 327.0729,219.9613 328.2452,205.9284 329.4174,209.7555 330.5897,199.5498 331.7619,181.6897 335.2786,167.6568 336.4509,179.5635 337.6231,190.1945 338.7954,185.9421 339.9676,188.0683 343.4843,207.2041 344.6566,198.2741 345.8288,193.5964 347.0011,218.2603 348.1733,233.1437 351.69,240.3727 352.8623,247.1766 354.0345,256.5318 356.379,232.7184 359.8957,234.8446 361.068,224.2136 362.2402,219.9613 363.4125,223.1505 364.5847,249.3028 369.2737,284.5976 370.4459,302.8829 371.6182,310.1119 372.7904,312.6634 376.3072,318.4041 377.4794,322.0186 378.6516,321.1682 380.9961,336.4768 384.5129,347.9582 385.6851,351.7854 386.8574,355.1873 388.0296,354.4963 389.2018,358.5892 392.7186,360.7154 393.8908,359.8649 395.0631,359.8649 396.2353,359.0144 397.4075,356.8882 400.9243,356.8882 402.0965,356.463 403.2688,359.0144 404.441,361.5659 405.6133,362.8416 409.13,362.4164 410.3022,363.6921 411.4745,361.1406 412.6467,358.5892 413.819,359.4397 417.3357,359.4397 419.6802,359.8649 422.0247,361.5659 425.5414,362.4164 427.8859,357.3135 430.2304,349.2339 436.0916,340.7292 438.4361,330.0982 444.2973,328.8225 446.6418,339.0282 452.503,338.603 454.8475,333.9253 460.7087,312.6634 463.0532,288.4247 468.9144,281.6209 471.2589,292.6771 477.1201,242.0737 479.4646,234.8446 485.3258,266.3123 487.6703,257.8075 495.876,271.4152 504.0817,296.0791 509.9429,305.0091 512.2874,309.6867 518.1486,313.0886 520.4931,321.5934 526.3544,333.0749 528.6988,333.0749 534.5601,332.6496 536.9045,332.2244 542.7658,332.2244 545.1103,318.6167 550.9715,290.9762 553.316,263.3356 559.1772,256.5318 561.5217,242.0737 567.3829,184.6664 569.7274,163.4045 575.5886,142.1425 577.9331,140.8668 583.7943,63.4733 586.1388,32.4308 592,54.118" style="fill:none;stroke:rgb(31,119,180);stroke-width:2;stroke-linejoin:bevel" />
  <text dominant-baseline="hanging" text-anchor="middle" transform="translate(313.006,8)" font-family="Segoe UI" font-size="18" font-weight="700" fill="black">7-Tage-Inzidenz Stadt Aachen 01.12.2021</text>
  <polygon points="34.012,29.0795 592,29.0795 592,370.947 34.012,370.947" style="fill:none;stroke:black;stroke-width:1" />
  <polygon points="42.012,37.0795 247.014,37.0795 247.014,63.1325 42.012,63.1325" style="fill:none;stroke:none;" />
  <text dominant-baseline="hanging" text-anchor="start" transform="translate(70.012,45.0795)" font-family="Segoe UI" font-size="12" font-weight="400" fill="black">7-Tage-Inzidenz Stadt Aachen 01.12.2021</text>
  <polyline points="50.012,50.106 66.012,50.106" style="fill:none;stroke:rgb(31,119,180);stroke-width:2" />
</svg>