<?xml version="1.0" encoding="utf-8" standalone="no"?>
<!DOCTYPE svg PUBLIC "-//W3C//DTD SVG 1.1//EN" "http://www.w3.org/Graphics/SVG/1.1/DTD/svg11.dtd">
<svg width="600" height="400" version="1.1" xmlns:xlink="http://www.w3.org/1999/xlink" xmlns="http://www.w3.org/2000/svg">
  <rect x="0" y="0" width="600" height="400" style="fill:rgb(255,255,255);stroke:none;" />
  <polyline points="34.012,362.7539 30.012,362.7539" style="fill:none;stroke:black;stroke-width:1" />
  <polyline points="34.012,348.3289 30.012,348.3289" style="fill:none;stroke:black;stroke-width:1" />
  <polyline points="34.012,333.904 30.012,333.904" style="fill:none;stroke:black;stroke-width:1" />
  <polyline points="34.012,319.479 30.012,319.479" style="fill:none;stroke:black;stroke-width:1" />
  <polyline points="34.012,290.6291 30.012,290.6291" style="fill:none;stroke:black;stroke-width:1" />
  <polyline points="34.012,276.2041 30.012,276.2041" style="fill:none;stroke:black;stroke-width:1" />
  <polyline points="34.012,261.7792 30.012,261.7792" style="fill:none;stroke:black;stroke-width:1" />
  <polyline points="34.012,247.3542 30.012,247.3542" style="fill:none;stroke:black;stroke-width:1" />
  <polyline points="34.012,218.5043 30.012,218.5043" style="fill:none;stroke:black;stroke-width:1" />
  <polyline points="34.012,204.0794 30.012,204.0794" style="fill:none;stroke:black;stroke-width:1" />
  <polyline points="34.012,189.6544 30.012,189.6544" style="fill:none;stroke:black;stroke-width:1" />
  <polyline points="34.012,175.2295 30.012,175.2295" style="fill:none;stroke:black;stroke-width:1" />
  <polyline points="34.012,146.3796 30.012,146.3796" style="fill:none;stroke:black;stroke-width:1" />
  <polyline points="34.012,131.9546 30.012,131.9546" style="fill:none;stroke:black;stroke-width:1" />
  <polyline points="34.012,117.5297 30.012,117.5297" style="fill:none;stroke:black;stroke-width:1" />
  <polyline points="34.012,103.1047 30.012,103.1047" style="fill:none;stroke:black;stroke-width:1" />
  <polyline points="34.012,74.2548 30.012,74.2548" style="fill:none;stroke:black;stroke-width:1" />
  <polyline points="34.012,59.8299 30.012,59.8299" style="fill:none;stroke:black;stroke-width:1" />
  <polyline points="34.012,45.4049 30.012,45.4049" style="fill:none;stroke:black;stroke-width:1" />
  <polyline points="34.012,30.98 30.012,30.98" style="fill:none;stroke:black;stroke-width:1" />
  <text dominant-baseline="middle" text-anchor="end" transform="translate(23.012,305.0541)" font-family="Segoe UI" font-size="12" font-weight="400" fill="black">50</text>
  <text dominant-baseline="middle" text-anchor="end" transform="translate(23.012,232.9293)" font-family="Segoe UI" font-size="12" font-weight="400" fill="black">100</text>
  <text dominant-baseline="middle" text-anchor="end" transform="translate(23.012,160.8045)" font-family="Segoe UI" font-size="12" font-weight="400" fill="black">150</text>
  <text dominant-baseline="middle" text-anchor="end" transform="translate(23.012,88.6798)" font-family="Segoe UI" font-size="12" font-weight="400" fill="black">200</text>
  <polyline points="34.012,305.0541 27.012,305.0541" style="fill:none;stroke:black;stroke-width:1" />
  <polyline points="34.012,232.9293 27.012,232.9293" style="fill:none;stroke:black;stroke-width:1" />
  <polyline points="34.012,160.8045 27.012,160.8045" style="fill:none;stroke:black;stroke-width:1" />
  <polyline points="34.012,88.6798 27.012,88.6798" style="fill:none;stroke:black;stroke-width:1" />
  <text dominant-baseline="hanging" text-anchor="middle" transform="translate(78.7888,381.947)" font-family="Segoe UI" font-size="12" font-weight="400" fill="black">01. September</text>
  <text dominant-baseline="hanging" text-anchor="middle" transform="translate(182.1199,381.947)" font-family="Segoe UI" font-size="12" font-weight="400" fill="black">01. October</text>
  <text dominant-baseline="hanging" text-anchor="middle" transform="translate(288.8954,381.947)" font-family="Segoe UI" font-size="12" font-weight="400" fill="black">01. November</text>
  <text dominant-baseline="hanging" text-anchor="middle" transform="translate(392.2265,381.947)" font-family="Segoe UI" font-size="12" font-weight="400" fill="black">01. December</text>
  <text dominant-baseline="hanging" text-anchor="middle" transform="translate(499.002,381.947)" font-family="Segoe UI" font-size="12" font-weight="400" fill="black">01. January</text>
  <polyline points="78.7888,370.947 78.7888,377.947" style="fill:none;stroke:black;stroke-width:1" />
  <polyline points="182.1199,370.947 182.1199,377.947" style="fill:none;stroke:black;stroke-width:1" />
  <polyline points="288.8954,370.947 288.8954,377.947" style="fill:none;stroke:black;stroke-width:1" />
  <polyline points="392.2265,370.947 392.2265,377.947" style="fill:none;stroke:black;stroke-width:1" />
  <polyline points="499.002,370.947 499.002,377.947" style="fill:none;stroke:black;stroke-width:1" />
  <polyline points="34.012,356.8142 37.4564,356.3899 40.9007,362.471 51.2339,358.5112 54.6782,362.471 58.1226,363.0367 61.567,363.6024 65.0113,362.471 75.3444,366.9965 78.7888,365.2994 82.2332,365.8651 85.6776,365.2994 89.1219,365.2994 99.455,365.8651 102.8994,367.5622 106.3438,365.8651 109.7881,365.2994 113.2325,363.0367 123.5656,356.8142 127.01,352.2887 130.4544,347.1975 133.8987,346.6319 137.3431,342.1064 147.6762,347.7632 151.1206,348.3289 154.565,352.2887 158.0093,350.5916 161.4537,351.723 171.7868,335.8838 175.2312,336.4495 178.6756,335.3182 182.1199,325.1358 185.5643,319.479 195.8974,312.6908 199.3418,313.8222 202.7861,305.9026 206.2305,304.7528 209.6749,307.6498 220.008,292.5852 223.4524,290.847 226.8967,285.6323 230.3411,275.2029 233.7855,253.1854 244.1186,230.5885 247.563,225.9532 251.0073,221.8974 254.4517,202.7769 257.8961,202.1975 268.2292,137.3037 271.6736,132.0891 275.1179,129.192 278.5623,131.5096 282.0067,98.4834 292.3398,118.1833 295.7841,107.7539 299.2285,108.9127 302.6729,101.3804 306.1173,119.3421 316.4504,90.9511 319.8947,84.5776 323.3391,58.5042 330.2279,32.4308 340.561,61.4012 344.0053,75.8864 347.4497,84.5776 350.8941,65.3847 354.3384,120.5009 364.6716,167.433 368.1159,150.6301 371.5603,153.5272 375.0047,208.571 378.449,185.974 388.7821,188.8711 392.2265,213.7856 395.6709,225.9532 399.1153,198.1416 402.5596,202.1975 412.8927,179.0211 416.3371,181.3388 419.7815,179.6005 423.2259,151.2095 426.6702,173.2271 437.0033,154.1066 440.4477,144.2566 443.8921,132.6685 447.3364,145.4155 450.7808,134.4067 461.1139,116.445 464.5583,117.0244 468.0027,140.7802 485.2245,157.0036 488.6689,154.686 492.1133,134.4067 495.5576,136.3622 509.3351,211.468 512.7795,235.2238 516.2239,250.8678 519.6682,236.962 523.1126,215.9584 536.8901,192.9269 540.3344,195.2446 543.7788,217.2621 547.2232,247.3913 557.5563,255.9086 561.0007,275.7823 564.445,267.0912 567.8894,285.0529 571.3338,285.6323 581.6669,272.3059 588.5556,279.8382 592,259.5589" style="fill:none;stroke:rgb(31,119,180);stroke-width:2;stroke-linejoin:bevel" />
  <text dominant-baseline="hanging" text-anchor="middle" transform="translate(313.006,8)" font-family="Segoe UI" font-size="18" font-weight="700" fill="black">7-Tage-Inzidenz Stadt Aachen 28.01.2021</text>
  <polygon points="34.012,29.0795 592,29.0795 592,370.947 34.012,370.947" style="fill:none;stroke:black;stroke-width:1" />
  <polygon points="42.012,37.0795 247.014,37.0795 247.014,63.1325 42.012,63.1325" style="fill:none;stroke:none;" />
  <text dominant-baseline="hanging" text-anchor="start" transform="translate(70.012,45.0795)" font-family="Segoe UI" font-size="12" font-weight="400" fill="black">7-Tage-Inzidenz Stadt Aachen 28.01.2021</text>
  <polyline points="50.012,50.106 66.012,50.106" style="fill:none;stroke:rgb(31,119,180);stroke-width:2" />
</svg>