<?xml version="1.0" encoding="utf-8" standalone="no"?>
<!DOCTYPE svg PUBLIC "-//W3C//DTD SVG 1.1//EN" "http://www.w3.org/Graphics/SVG/1.1/DTD/svg11.dtd">
<svg width="600" height="400" version="1.1" xmlns:xlink="http://www.w3.org/1999/xlink" xmlns="http://www.w3.org/2000/svg">
  <rect x="0" y="0" width="600" height="400" style="fill:rgb(255,255,255);stroke:none;" />
  <polyline points="34.012,362.7539 30.012,362.7539" style="fill:none;stroke:black;stroke-width:1" />
  <polyline points="34.012,348.3289 30.012,348.3289" style="fill:none;stroke:black;stroke-width:1" />
  <polyline points="34.012,333.904 30.012,333.904" style="fill:none;stroke:black;stroke-width:1" />
  <polyline points="34.012,319.479 30.012,319.479" style="fill:none;stroke:black;stroke-width:1" />
  <polyline points="34.012,290.6291 30.012,290.6291" style="fill:none;stroke:black;stroke-width:1" />
  <polyline points="34.012,276.2041 30.012,276.2041" style="fill:none;stroke:black;stroke-width:1" />
  <polyline points="34.012,261.7792 30.012,261.7792" style="fill:none;stroke:black;stroke-width:1" />
  <polyline points="34.012,247.3542 30.012,247.3542" style="fill:none;stroke:black;stroke-width:1" />
  <polyline points="34.012,218.5043 30.012,218.5043" style="fill:none;stroke:black;stroke-width:1" />
  <polyline points="34.012,204.0794 30.012,204.0794" style="fill:none;stroke:black;stroke-width:1" />
  <polyline points="34.012,189.6544 30.012,189.6544" style="fill:none;stroke:black;stroke-width:1" />
  <polyline points="34.012,175.2295 30.012,175.2295" style="fill:none;stroke:black;stroke-width:1" />
  <polyline points="34.012,146.3796 30.012,146.3796" style="fill:none;stroke:black;stroke-width:1" />
  <polyline points="34.012,131.9546 30.012,131.9546" style="fill:none;stroke:black;stroke-width:1" />
  <polyline points="34.012,117.5297 30.012,117.5297" style="fill:none;stroke:black;stroke-width:1" />
  <polyline points="34.012,103.1047 30.012,103.1047" style="fill:none;stroke:black;stroke-width:1" />
  <polyline points="34.012,74.2548 30.012,74.2548" style="fill:none;stroke:black;stroke-width:1" />
  <polyline points="34.012,59.8299 30.012,59.8299" style="fill:none;stroke:black;stroke-width:1" />
  <polyline points="34.012,45.4049 30.012,45.4049" style="fill:none;stroke:black;stroke-width:1" />
  <polyline points="34.012,30.98 30.012,30.98" style="fill:none;stroke:black;stroke-width:1" />
  <text dominant-baseline="middle" text-anchor="end" transform="translate(23.012,305.0541)" font-family="Segoe UI" font-size="12" font-weight="400" fill="black">50</text>
  <text dominant-baseline="middle" text-anchor="end" transform="translate(23.012,232.9293)" font-family="Segoe UI" font-size="12" font-weight="400" fill="black">100</text>
  <text dominant-baseline="middle" text-anchor="end" transform="translate(23.012,160.8045)" font-family="Segoe UI" font-size="12" font-weight="400" fill="black">150</text>
  <text dominant-baseline="middle" text-anchor="end" transform="translate(23.012,88.6798)" font-family="Segoe UI" font-size="12" font-weight="400" fill="black">200</text>
  <polyline points="34.012,305.0541 27.012,305.0541" style="fill:none;stroke:black;stroke-width:1" />
  <polyline points="34.012,232.9293 27.012,232.9293" style="fill:none;stroke:black;stroke-width:1" />
  <polyline points="34.012,160.8045 27.012,160.8045" style="fill:none;stroke:black;stroke-width:1" />
  <polyline points="34.012,88.6798 27.012,88.6798" style="fill:none;stroke:black;stroke-width:1" />
  <text dominant-baseline="hanging" text-anchor="middle" transform="translate(67.7508,381.947)" font-family="Segoe UI" font-size="12" font-weight="400" fill="black">01. September</text>
  <text dominant-baseline="hanging" text-anchor="middle" transform="translate(145.6096,381.947)" font-family="Segoe UI" font-size="12" font-weight="400" fill="black">01. October</text>
  <text dominant-baseline="hanging" text-anchor="middle" transform="translate(226.0637,381.947)" font-family="Segoe UI" font-size="12" font-weight="400" fill="black">01. November</text>
  <text dominant-baseline="hanging" text-anchor="middle" transform="translate(303.9225,381.947)" font-family="Segoe UI" font-size="12" font-weight="400" fill="black">01. December</text>
  <text dominant-baseline="hanging" text-anchor="middle" transform="translate(384.3766,381.947)" font-family="Segoe UI" font-size="12" font-weight="400" fill="black">01. January</text>
  <text dominant-baseline="hanging" text-anchor="middle" transform="translate(464.8306,381.947)" font-family="Segoe UI" font-size="12" font-weight="400" fill="black">01. February</text>
  <text dominant-baseline="hanging" text-anchor="middle" transform="translate(537.4988,381.947)" font-family="Segoe UI" font-size="12" font-weight="400" fill="black">01. March</text>
  <polyline points="67.7508,370.947 67.7508,377.947" style="fill:none;stroke:black;stroke-width:1" />
  <polyline points="145.6096,370.947 145.6096,377.947" style="fill:none;stroke:black;stroke-width:1" />
  <polyline points="226.0637,370.947 226.0637,377.947" style="fill:none;stroke:black;stroke-width:1" />
  <polyline points="303.9225,370.947 303.9225,377.947" style="fill:none;stroke:black;stroke-width:1" />
  <polyline points="384.3766,370.947 384.3766,377.947" style="fill:none;stroke:black;stroke-width:1" />
  <polyline points="464.8306,370.947 464.8306,377.947" style="fill:none;stroke:black;stroke-width:1" />
  <polyline points="537.4988,370.947 537.4988,377.947" style="fill:none;stroke:black;stroke-width:1" />
  <polyline points="34.012,356.8142 36.6073,356.3899 39.2026,362.471 46.9885,358.5112 49.5838,362.471 52.1791,363.0367 54.7743,363.6024 57.3696,362.471 65.1555,366.9965 67.7508,365.2994 70.3461,365.8651 72.9414,365.2994 75.5367,365.2994 83.3226,365.8651 85.9179,367.5622 88.5132,365.8651 91.1084,365.2994 93.7037,363.0367 101.4896,356.8142 104.0849,352.2887 106.6802,347.1975 109.2755,346.6319 111.8708,342.1064 119.6567,347.7632 122.252,348.3289 124.8473,352.2887 127.4425,350.5916 130.0378,351.723 137.8237,335.8838 140.419,336.4495 143.0143,335.3182 145.6096,325.1358 148.2049,319.479 155.9908,312.6908 158.5861,313.8222 161.1814,305.9026 163.7767,304.7528 166.3719,307.6498 174.1578,292.5852 176.7531,290.847 179.3484,285.6323 181.9437,275.2029 184.539,253.1854 192.3249,230.5885 194.9202,225.9532 197.5155,221.8974 200.1108,202.7769 202.706,202.1975 210.4919,137.3037 213.0872,132.0891 215.6825,129.192 218.2778,131.5096 220.8731,98.4834 228.659,118.1833 231.2543,107.7539 233.8496,108.9127 236.4449,101.3804 239.0401,119.3421 246.826,90.9511 249.4213,84.5776 252.0166,58.5042 257.2072,32.4308 264.9931,61.4012 267.5884,75.8864 270.1837,84.5776 272.779,65.3847 275.3743,120.5009 283.1601,167.433 285.7554,150.6301 288.3507,153.5272 290.946,208.571 293.5413,185.974 301.3272,188.8711 303.9225,213.7856 306.5178,225.9532 309.1131,198.1416 311.7084,202.1975 319.4942,179.0211 322.0895,181.3388 324.6848,179.6005 327.2801,151.2095 329.8754,173.2271 337.6613,154.1066 340.2566,144.2566 342.8519,132.6685 345.4472,145.4155 348.0425,134.4067 355.8283,116.445 358.4236,117.0244 361.0189,140.7802 373.9954,157.0036 376.5907,154.686 379.186,134.4067 381.7813,136.3622 392.1624,211.468 394.7577,235.2238 397.353,250.8678 399.9483,236.962 402.5436,215.9584 412.9248,192.9269 415.5201,195.2446 418.1154,217.2621 420.7107,247.3913 428.4965,255.9086 431.0918,275.7823 433.6871,267.0912 436.2824,285.0529 438.8777,285.6323 446.6636,272.3059 451.8542,279.8382 454.4495,259.5589 457.0448,247.9707 464.8306,264.1942 467.4259,278.3173 470.0212,272.3059 472.6165,279.8382 475.2118,290.847 482.9977,293.744 485.593,290.847 488.1883,275.2029 490.7836,276.3617 493.3789,269.4088 501.1647,283.8941 503.76,285.6323 506.3553,306.491 508.9506,313.4439 511.5459,329.6673 519.3318,329.6673 521.9271,330.8261 524.5224,321.5556 527.1177,322.135 529.713,317.4997 537.4988,329.0879 540.0941,327.9291 542.6894,323.8732 545.2847,300.6969 547.88,294.9028 555.6659,265.353 558.2612,265.353 560.8565,263.6148 563.4518,278.6794 566.0471,272.3059 573.8329,261.8765 576.4282,262.4559 579.0235,254.9236 581.6188,226.5326 584.2141,208.571 592,200.4592" style="fill:none;stroke:rgb(31,119,180);stroke-width:2;stroke-linejoin:bevel" />
  <text dominant-baseline="hanging" text-anchor="middle" transform="translate(313.006,8)" font-family="Segoe UI" font-size="18" font-weight="700" fill="black">7-Tage-Inzidenz Stadt Aachen 22.03.2021</text>
  <polygon points="34.012,29.0795 592,29.0795 592,370.947 34.012,370.947" style="fill:none;stroke:black;stroke-width:1" />
  <polygon points="42.012,37.0795 247.014,37.0795 247.014,63.1325 42.012,63.1325" style="fill:none;stroke:none;" />
  <text dominant-baseline="hanging" text-anchor="start" transform="translate(70.012,45.0795)" font-family="Segoe UI" font-size="12" font-weight="400" fill="black">7-Tage-Inzidenz Stadt Aachen 22.03.2021</text>
  <polyline points="50.012,50.106 66.012,50.106" style="fill:none;stroke:rgb(31,119,180);stroke-width:2" />
</svg>