<?xml version="1.0" encoding="utf-8" standalone="no"?>
<!DOCTYPE svg PUBLIC "-//W3C//DTD SVG 1.1//EN" "http://www.w3.org/Graphics/SVG/1.1/DTD/svg11.dtd">
<svg width="600" height="400" version="1.1" xmlns:xlink="http://www.w3.org/1999/xlink" xmlns="http://www.w3.org/2000/svg">
  <rect x="0" y="0" width="600" height="400" style="fill:rgb(255,255,255);stroke:none;" />
  <polyline points="34.012,362.7539 30.012,362.7539" style="fill:none;stroke:black;stroke-width:1" />
  <polyline points="34.012,348.3289 30.012,348.3289" style="fill:none;stroke:black;stroke-width:1" />
  <polyline points="34.012,333.904 30.012,333.904" style="fill:none;stroke:black;stroke-width:1" />
  <polyline points="34.012,319.479 30.012,319.479" style="fill:none;stroke:black;stroke-width:1" />
  <polyline points="34.012,290.6291 30.012,290.6291" style="fill:none;stroke:black;stroke-width:1" />
  <polyline points="34.012,276.2041 30.012,276.2041" style="fill:none;stroke:black;stroke-width:1" />
  <polyline points="34.012,261.7792 30.012,261.7792" style="fill:none;stroke:black;stroke-width:1" />
  <polyline points="34.012,247.3542 30.012,247.3542" style="fill:none;stroke:black;stroke-width:1" />
  <polyline points="34.012,218.5043 30.012,218.5043" style="fill:none;stroke:black;stroke-width:1" />
  <polyline points="34.012,204.0794 30.012,204.0794" style="fill:none;stroke:black;stroke-width:1" />
  <polyline points="34.012,189.6544 30.012,189.6544" style="fill:none;stroke:black;stroke-width:1" />
  <polyline points="34.012,175.2295 30.012,175.2295" style="fill:none;stroke:black;stroke-width:1" />
  <polyline points="34.012,146.3796 30.012,146.3796" style="fill:none;stroke:black;stroke-width:1" />
  <polyline points="34.012,131.9546 30.012,131.9546" style="fill:none;stroke:black;stroke-width:1" />
  <polyline points="34.012,117.5297 30.012,117.5297" style="fill:none;stroke:black;stroke-width:1" />
  <polyline points="34.012,103.1047 30.012,103.1047" style="fill:none;stroke:black;stroke-width:1" />
  <polyline points="34.012,74.2548 30.012,74.2548" style="fill:none;stroke:black;stroke-width:1" />
  <polyline points="34.012,59.8299 30.012,59.8299" style="fill:none;stroke:black;stroke-width:1" />
  <polyline points="34.012,45.4049 30.012,45.4049" style="fill:none;stroke:black;stroke-width:1" />
  <polyline points="34.012,30.98 30.012,30.98" style="fill:none;stroke:black;stroke-width:1" />
  <text dominant-baseline="middle" text-anchor="end" transform="translate(23.012,305.0541)" font-family="Segoe UI" font-size="12" font-weight="400" fill="black">50</text>
  <text dominant-baseline="middle" text-anchor="end" transform="translate(23.012,232.9293)" font-family="Segoe UI" font-size="12" font-weight="400" fill="black">100</text>
  <text dominant-baseline="middle" text-anchor="end" transform="translate(23.012,160.8045)" font-family="Segoe UI" font-size="12" font-weight="400" fill="black">150</text>
  <text dominant-baseline="middle" text-anchor="end" transform="translate(23.012,88.6798)" font-family="Segoe UI" font-size="12" font-weight="400" fill="black">200</text>
  <polyline points="34.012,305.0541 27.012,305.0541" style="fill:none;stroke:black;stroke-width:1" />
  <polyline points="34.012,232.9293 27.012,232.9293" style="fill:none;stroke:black;stroke-width:1" />
  <polyline points="34.012,160.8045 27.012,160.8045" style="fill:none;stroke:black;stroke-width:1" />
  <polyline points="34.012,88.6798 27.012,88.6798" style="fill:none;stroke:black;stroke-width:1" />
  <text dominant-baseline="hanging" text-anchor="middle" transform="translate(85.0954,381.947)" font-family="Segoe UI" font-size="12" font-weight="400" fill="black">01. September</text>
  <text dominant-baseline="hanging" text-anchor="middle" transform="translate(202.9802,381.947)" font-family="Segoe UI" font-size="12" font-weight="400" fill="black">01. October</text>
  <text dominant-baseline="hanging" text-anchor="middle" transform="translate(324.7945,381.947)" font-family="Segoe UI" font-size="12" font-weight="400" fill="black">01. November</text>
  <text dominant-baseline="hanging" text-anchor="middle" transform="translate(442.6793,381.947)" font-family="Segoe UI" font-size="12" font-weight="400" fill="black">01. December</text>
  <text dominant-baseline="hanging" text-anchor="middle" transform="translate(564.4935,381.947)" font-family="Segoe UI" font-size="12" font-weight="400" fill="black">01. January</text>
  <polyline points="85.0954,370.947 85.0954,377.947" style="fill:none;stroke:black;stroke-width:1" />
  <polyline points="202.9802,370.947 202.9802,377.947" style="fill:none;stroke:black;stroke-width:1" />
  <polyline points="324.7945,370.947 324.7945,377.947" style="fill:none;stroke:black;stroke-width:1" />
  <polyline points="442.6793,370.947 442.6793,377.947" style="fill:none;stroke:black;stroke-width:1" />
  <polyline points="564.4935,370.947 564.4935,377.947" style="fill:none;stroke:black;stroke-width:1" />
  <polyline points="34.012,356.8142 37.9415,356.3899 41.871,362.471 53.6595,358.5112 57.589,362.471 61.5185,363.0367 65.4479,363.6024 69.3774,362.471 81.1659,366.9965 85.0954,365.2994 89.0249,365.8651 92.9544,365.2994 96.8839,365.2994 108.6724,365.8651 112.6019,367.5622 116.5314,365.8651 120.4608,365.2994 124.3903,363.0367 136.1788,356.8142 140.1083,352.2887 144.0378,347.1975 147.9673,346.6319 151.8968,342.1064 163.6853,347.7632 167.6148,348.3289 171.5443,352.2887 175.4737,350.5916 179.4032,351.723 191.1917,335.8838 195.1212,336.4495 199.0507,335.3182 202.9802,325.1358 206.9097,319.479 218.6982,312.6908 222.6277,313.8222 226.5572,305.9026 230.4866,304.7528 234.4161,307.6498 246.2046,292.5852 250.1341,290.847 254.0636,285.6323 257.9931,275.2029 261.9226,253.1854 273.7111,230.5885 277.6406,225.9532 281.5701,221.8974 285.4995,202.7769 289.429,202.1975 301.2175,137.3037 305.147,132.0891 309.0765,129.192 313.006,131.5096 316.9355,98.4834 328.724,118.1833 332.6535,107.7539 336.583,108.9127 340.5125,101.3804 344.4419,119.3421 356.2304,90.9511 360.1599,84.5776 364.0894,58.5042 371.9484,32.4308 383.7369,61.4012 387.6664,75.8864 391.5959,84.5776 395.5254,65.3847 399.4548,120.5009 411.2433,167.433 415.1728,150.6301 419.1023,153.5272 423.0318,208.571 426.9613,185.974 438.7498,188.8711 442.6793,213.7856 446.6088,225.9532 450.5383,198.1416 454.4677,202.1975 466.2562,179.0211 470.1857,181.3388 474.1152,179.6005 478.0447,151.2095 481.9742,173.2271 493.7627,154.1066 497.6922,144.2566 501.6217,132.6685 505.5512,145.4155 509.4806,134.4067 521.2691,116.445 525.1986,117.0244 529.1281,140.7802 548.7756,157.0036 552.7051,154.686 556.6346,134.4067 560.5641,136.3622 576.282,211.468 580.2115,235.2238 584.141,250.8678 588.0705,236.962 592,215.9584" style="fill:none;stroke:rgb(31,119,180);stroke-width:2;stroke-linejoin:bevel" />
  <text dominant-baseline="hanging" text-anchor="middle" transform="translate(313.006,8)" font-family="Segoe UI" font-size="18" font-weight="700" fill="black">7-Tage-Inzidenz Stadt Aachen 08.01.2021</text>
  <polygon points="34.012,29.0795 592,29.0795 592,370.947 34.012,370.947" style="fill:none;stroke:black;stroke-width:1" />
  <polygon points="42.012,37.0795 247.014,37.0795 247.014,63.1325 42.012,63.1325" style="fill:none;stroke:none;" />
  <text dominant-baseline="hanging" text-anchor="start" transform="translate(70.012,45.0795)" font-family="Segoe UI" font-size="12" font-weight="400" fill="black">7-Tage-Inzidenz Stadt Aachen 08.01.2021</text>
  <polyline points="50.012,50.106 66.012,50.106" style="fill:none;stroke:rgb(31,119,180);stroke-width:2" />
</svg>