<?xml version="1.0" encoding="utf-8" standalone="no"?>
<!DOCTYPE svg PUBLIC "-//W3C//DTD SVG 1.1//EN" "http://www.w3.org/Graphics/SVG/1.1/DTD/svg11.dtd">
<svg width="600" height="400" version="1.1" xmlns:xlink="http://www.w3.org/1999/xlink" xmlns="http://www.w3.org/2000/svg">
  <rect x="0" y="0" width="600" height="400" style="fill:rgb(255,255,255);stroke:none;" />
  <polyline points="34.012,353.4851 30.012,353.4851" style="fill:none;stroke:black;stroke-width:1" />
  <polyline points="34.012,339.4649 30.012,339.4649" style="fill:none;stroke:black;stroke-width:1" />
  <polyline points="34.012,325.4447 30.012,325.4447" style="fill:none;stroke:black;stroke-width:1" />
  <polyline points="34.012,311.4245 30.012,311.4245" style="fill:none;stroke:black;stroke-width:1" />
  <polyline points="34.012,283.3841 30.012,283.3841" style="fill:none;stroke:black;stroke-width:1" />
  <polyline points="34.012,269.3639 30.012,269.3639" style="fill:none;stroke:black;stroke-width:1" />
  <polyline points="34.012,255.3438 30.012,255.3438" style="fill:none;stroke:black;stroke-width:1" />
  <polyline points="34.012,241.3236 30.012,241.3236" style="fill:none;stroke:black;stroke-width:1" />
  <polyline points="34.012,213.2832 30.012,213.2832" style="fill:none;stroke:black;stroke-width:1" />
  <polyline points="34.012,199.263 30.012,199.263" style="fill:none;stroke:black;stroke-width:1" />
  <polyline points="34.012,185.2428 30.012,185.2428" style="fill:none;stroke:black;stroke-width:1" />
  <polyline points="34.012,171.2226 30.012,171.2226" style="fill:none;stroke:black;stroke-width:1" />
  <polyline points="34.012,143.1822 30.012,143.1822" style="fill:none;stroke:black;stroke-width:1" />
  <polyline points="34.012,129.162 30.012,129.162" style="fill:none;stroke:black;stroke-width:1" />
  <polyline points="34.012,115.1418 30.012,115.1418" style="fill:none;stroke:black;stroke-width:1" />
  <polyline points="34.012,101.1216 30.012,101.1216" style="fill:none;stroke:black;stroke-width:1" />
  <polyline points="34.012,73.0813 30.012,73.0813" style="fill:none;stroke:black;stroke-width:1" />
  <polyline points="34.012,59.0611 30.012,59.0611" style="fill:none;stroke:black;stroke-width:1" />
  <polyline points="34.012,45.0409 30.012,45.0409" style="fill:none;stroke:black;stroke-width:1" />
  <polyline points="34.012,31.0207 30.012,31.0207" style="fill:none;stroke:black;stroke-width:1" />
  <text dominant-baseline="middle" text-anchor="end" transform="translate(23.012,367.5053)" font-family="Segoe UI" font-size="12" font-weight="400" fill="black">0</text>
  <text dominant-baseline="middle" text-anchor="end" transform="translate(23.012,297.4043)" font-family="Segoe UI" font-size="12" font-weight="400" fill="black">50</text>
  <text dominant-baseline="middle" text-anchor="end" transform="translate(23.012,227.3034)" font-family="Segoe UI" font-size="12" font-weight="400" fill="black">100</text>
  <text dominant-baseline="middle" text-anchor="end" transform="translate(23.012,157.2024)" font-family="Segoe UI" font-size="12" font-weight="400" fill="black">150</text>
  <text dominant-baseline="middle" text-anchor="end" transform="translate(23.012,87.1015)" font-family="Segoe UI" font-size="12" font-weight="400" fill="black">200</text>
  <polyline points="34.012,367.5053 27.012,367.5053" style="fill:none;stroke:black;stroke-width:1" />
  <polyline points="34.012,297.4043 27.012,297.4043" style="fill:none;stroke:black;stroke-width:1" />
  <polyline points="34.012,227.3034 27.012,227.3034" style="fill:none;stroke:black;stroke-width:1" />
  <polyline points="34.012,157.2024 27.012,157.2024" style="fill:none;stroke:black;stroke-width:1" />
  <polyline points="34.012,87.1015 27.012,87.1015" style="fill:none;stroke:black;stroke-width:1" />
  <text dominant-baseline="hanging" text-anchor="middle" transform="translate(231.6038,381.947)" font-family="Segoe UI" font-size="12" font-weight="400" fill="black">01. January</text>
  <polyline points="231.6038,370.947 231.6038,377.947" style="fill:none;stroke:black;stroke-width:1" />
  <polyline points="34.012,367.5622 36.795,367.5621 40.9695,367.5621 42.3609,367.562 43.7524,347.7121 45.1439,347.2997 46.5354,353.2102 50.7099,349.3615 52.1014,353.2102 53.4929,353.76 54.8844,354.3098 56.2759,353.2102 60.4503,357.6087 61.8418,355.9593 63.2333,356.5091 64.6248,355.9593 66.0163,355.9593 70.1908,356.5091 71.5823,358.1585 72.9738,356.5091 74.3652,355.9593 75.7567,353.76 79.9312,347.7121 81.3227,343.3136 82.7142,338.3653 84.1057,337.8155 85.4972,333.417 89.6717,338.9151 91.0631,339.4649 92.4546,343.3136 93.8461,341.6642 95.2376,342.7638 99.4121,327.3691 100.8036,327.9189 102.1951,326.8192 103.5866,316.9226 104.9781,311.4245 109.1525,304.8268 110.544,305.9264 111.9355,298.229 113.327,297.1115 114.7185,299.9272 118.893,285.2853 120.2845,283.5959 121.676,278.5275 123.0674,268.3908 124.4589,246.9911 128.6334,225.0282 130.0249,220.523 131.4164,216.581 132.8079,197.997 134.1994,197.4339 138.3738,134.361 139.7653,129.2927 141.1568,126.4769 142.5483,128.7295 143.9398,96.63 148.1143,115.7771 149.5058,105.6404 150.8973,106.7667 152.2888,99.4457 153.6802,116.9034 157.8547,89.309 159.2462,83.1143 160.6377,57.7726 163.4207,32.4308 167.5952,60.5883 168.9867,74.6671 170.3781,83.1143 171.7696,64.46 173.1611,118.0297 177.3356,163.6449 178.7271,147.3135 180.1186,150.1292 181.5101,203.6285 182.9016,181.6657 187.076,184.4814 188.4675,208.6969 189.859,220.523 191.2505,193.4918 192.642,197.4339 196.8165,174.9079 198.208,177.1605 199.5995,175.471 200.991,147.8766 202.3824,169.2764 206.5569,150.6924 207.9484,141.1188 209.3399,129.8558 210.7314,142.2451 212.1229,131.5453 216.2974,114.0876 217.6888,114.6508 219.0803,137.7399 226.0378,153.5081 227.4293,151.2555 228.8208,131.5453 230.2123,133.4459 235.7782,206.4443 237.1697,229.5334 238.5612,244.7385 239.9527,231.2229 241.3442,210.8087 246.9102,188.4235 248.3017,190.6761 249.6931,212.0758 251.0846,241.3596 255.2591,249.6379 256.6506,268.954 258.0421,260.5067 259.4336,277.9644 260.8251,278.5275 264.9996,265.5751 267.7825,272.896 269.174,253.1858 270.5655,241.9228 274.74,257.691 276.1315,271.4178 277.523,265.5751 278.9145,272.896 280.306,283.5959 284.4804,286.4116 285.8719,283.5959 287.2634,268.3908 288.6549,269.5171 290.0464,262.7593 294.2209,276.8381 295.6124,278.5275 297.0039,298.8009 298.3953,305.5587 299.7868,321.327 303.9613,321.327 305.3528,322.4533 306.7443,313.4429 308.1358,314.006 309.5273,309.5008 313.7017,320.7638 315.0932,319.6375 316.4847,315.6955 317.8762,293.1694 319.2677,287.5379 323.4422,258.8173 324.8337,258.8173 326.2252,257.1278 327.6167,271.7697 329.0081,265.5751 333.1826,255.4384 334.5741,256.0015 335.9656,248.6806 337.3571,221.0862 338.7486,203.6285 342.9231,195.7444 344.3146,195.1813 345.706,199.6865 347.0975,188.4235 348.489,200.8128 352.6635,218.8336 354.055,215.4547 355.4465,222.2125 356.838,237.9807 358.2295,213.2021 363.7954,200.2496 365.1869,214.8915 366.5784,196.8707 367.9699,229.5334 372.1444,220.4667 373.5359,210.9495 374.9274,164.208 376.3189,184.4814 377.7103,180.5394 381.8848,172.0921 383.2763,153.5081 384.6678,158.5765 386.0593,145.0609 387.4508,121.4086 391.6253,102.8246 393.0167,118.5928 394.4082,132.6716 395.7997,127.0401 397.1912,129.8558 401.3657,155.1976 402.7572,143.3714 404.1487,137.1768 405.5402,169.8395 406.9317,189.5498 411.1061,199.1233 412.4976,208.1337 413.8891,220.523 416.6721,188.9866 420.8466,191.8024 422.2381,177.7236 423.6296,172.0921 425.021,176.3157 426.4125,210.9495 431.9785,257.691 433.37,281.9064 434.7615,291.48 436.153,294.8589 440.3275,302.4614 441.7189,307.2482 443.1104,306.1219 445.8934,326.3953 450.0679,341.6004 451.4594,346.6687 452.8509,351.1739 454.2424,350.2588 455.6339,355.6791 459.8083,358.4949 461.1998,357.3686 462.5913,357.3686 463.9828,356.2423 465.3743,353.4265 469.5488,353.4265 470.9403,352.8634 472.3318,356.2423 473.7232,359.6212 475.1147,361.3106 479.2892,360.7475 480.6807,362.4369 482.0722,359.058 483.4637,355.6791 484.8552,356.8054 489.0296,356.8054 491.8126,357.3686 494.5956,359.6212 498.7701,360.7475 501.5531,353.9897 504.336,343.2898 511.2935,332.0268 514.0765,317.9481 521.0339,316.2586 523.8169,329.7742 530.7744,329.2111 533.5574,323.0164 540.5148,294.8589 543.2978,262.7593 550.2553,253.7489 553.0382,268.3908 559.9957,201.3759 562.7787,191.8024 569.7361,233.4755 572.5191,222.2125 582.2596,240.2333 592,272.896" style="fill:none;stroke:rgb(31,119,180);stroke-width:2;stroke-linejoin:bevel" />
  <text dominant-baseline="hanging" text-anchor="middle" transform="translate(313.006,8)" font-family="Segoe UI" font-size="18" font-weight="700" fill="black">7-Tage-Inzidenz Stadt Aachen 17.09.2021</text>
  <polygon points="34.012,29.0795 592,29.0795 592,370.947 34.012,370.947" style="fill:none;stroke:black;stroke-width:1" />
  <polygon points="42.012,37.0795 247.014,37.0795 247.014,63.1325 42.012,63.1325" style="fill:none;stroke:none;" />
  <text dominant-baseline="hanging" text-anchor="start" transform="translate(70.012,45.0795)" font-family="Segoe UI" font-size="12" font-weight="400" fill="black">7-Tage-Inzidenz Stadt Aachen 17.09.2021</text>
  <polyline points="50.012,50.106 66.012,50.106" style="fill:none;stroke:rgb(31,119,180);stroke-width:2" />
</svg>