<?xml version="1.0" encoding="utf-8" standalone="no"?>
<!DOCTYPE svg PUBLIC "-//W3C//DTD SVG 1.1//EN" "http://www.w3.org/Graphics/SVG/1.1/DTD/svg11.dtd">
<svg width="600" height="400" version="1.1" xmlns:xlink="http://www.w3.org/1999/xlink" xmlns="http://www.w3.org/2000/svg">
  <rect x="0" y="0" width="600" height="400" style="fill:rgb(255,255,255);stroke:none;" />
  <polyline points="34.012,362.7539 30.012,362.7539" style="fill:none;stroke:black;stroke-width:1" />
  <polyline points="34.012,348.3289 30.012,348.3289" style="fill:none;stroke:black;stroke-width:1" />
  <polyline points="34.012,333.904 30.012,333.904" style="fill:none;stroke:black;stroke-width:1" />
  <polyline points="34.012,319.479 30.012,319.479" style="fill:none;stroke:black;stroke-width:1" />
  <polyline points="34.012,290.6291 30.012,290.6291" style="fill:none;stroke:black;stroke-width:1" />
  <polyline points="34.012,276.2041 30.012,276.2041" style="fill:none;stroke:black;stroke-width:1" />
  <polyline points="34.012,261.7792 30.012,261.7792" style="fill:none;stroke:black;stroke-width:1" />
  <polyline points="34.012,247.3542 30.012,247.3542" style="fill:none;stroke:black;stroke-width:1" />
  <polyline points="34.012,218.5043 30.012,218.5043" style="fill:none;stroke:black;stroke-width:1" />
  <polyline points="34.012,204.0794 30.012,204.0794" style="fill:none;stroke:black;stroke-width:1" />
  <polyline points="34.012,189.6544 30.012,189.6544" style="fill:none;stroke:black;stroke-width:1" />
  <polyline points="34.012,175.2295 30.012,175.2295" style="fill:none;stroke:black;stroke-width:1" />
  <polyline points="34.012,146.3796 30.012,146.3796" style="fill:none;stroke:black;stroke-width:1" />
  <polyline points="34.012,131.9546 30.012,131.9546" style="fill:none;stroke:black;stroke-width:1" />
  <polyline points="34.012,117.5297 30.012,117.5297" style="fill:none;stroke:black;stroke-width:1" />
  <polyline points="34.012,103.1047 30.012,103.1047" style="fill:none;stroke:black;stroke-width:1" />
  <polyline points="34.012,74.2548 30.012,74.2548" style="fill:none;stroke:black;stroke-width:1" />
  <polyline points="34.012,59.8299 30.012,59.8299" style="fill:none;stroke:black;stroke-width:1" />
  <polyline points="34.012,45.4049 30.012,45.4049" style="fill:none;stroke:black;stroke-width:1" />
  <polyline points="34.012,30.98 30.012,30.98" style="fill:none;stroke:black;stroke-width:1" />
  <text dominant-baseline="middle" text-anchor="end" transform="translate(23.012,305.0541)" font-family="Segoe UI" font-size="12" font-weight="400" fill="black">50</text>
  <text dominant-baseline="middle" text-anchor="end" transform="translate(23.012,232.9293)" font-family="Segoe UI" font-size="12" font-weight="400" fill="black">100</text>
  <text dominant-baseline="middle" text-anchor="end" transform="translate(23.012,160.8045)" font-family="Segoe UI" font-size="12" font-weight="400" fill="black">150</text>
  <text dominant-baseline="middle" text-anchor="end" transform="translate(23.012,88.6798)" font-family="Segoe UI" font-size="12" font-weight="400" fill="black">200</text>
  <polyline points="34.012,305.0541 27.012,305.0541" style="fill:none;stroke:black;stroke-width:1" />
  <polyline points="34.012,232.9293 27.012,232.9293" style="fill:none;stroke:black;stroke-width:1" />
  <polyline points="34.012,160.8045 27.012,160.8045" style="fill:none;stroke:black;stroke-width:1" />
  <polyline points="34.012,88.6798 27.012,88.6798" style="fill:none;stroke:black;stroke-width:1" />
  <text dominant-baseline="hanging" text-anchor="middle" transform="translate(83.6959,381.947)" font-family="Segoe UI" font-size="12" font-weight="400" fill="black">01. September</text>
  <text dominant-baseline="hanging" text-anchor="middle" transform="translate(198.3509,381.947)" font-family="Segoe UI" font-size="12" font-weight="400" fill="black">01. October</text>
  <text dominant-baseline="hanging" text-anchor="middle" transform="translate(316.8278,381.947)" font-family="Segoe UI" font-size="12" font-weight="400" fill="black">01. November</text>
  <text dominant-baseline="hanging" text-anchor="middle" transform="translate(431.4829,381.947)" font-family="Segoe UI" font-size="12" font-weight="400" fill="black">01. December</text>
  <text dominant-baseline="hanging" text-anchor="middle" transform="translate(549.9598,381.947)" font-family="Segoe UI" font-size="12" font-weight="400" fill="black">01. January</text>
  <polyline points="83.6959,370.947 83.6959,377.947" style="fill:none;stroke:black;stroke-width:1" />
  <polyline points="198.3509,370.947 198.3509,377.947" style="fill:none;stroke:black;stroke-width:1" />
  <polyline points="316.8278,370.947 316.8278,377.947" style="fill:none;stroke:black;stroke-width:1" />
  <polyline points="431.4829,370.947 431.4829,377.947" style="fill:none;stroke:black;stroke-width:1" />
  <polyline points="549.9598,370.947 549.9598,377.947" style="fill:none;stroke:black;stroke-width:1" />
  <polyline points="34.012,356.8142 37.8338,356.3899 41.6557,362.471 53.1212,358.5112 56.943,362.471 60.7648,363.0367 64.5867,363.6024 68.4085,362.471 79.874,366.9965 83.6959,365.2994 87.5177,365.8651 91.3395,365.2994 95.1614,365.2994 106.6269,365.8651 110.4487,367.5622 114.2705,365.8651 118.0924,365.2994 121.9142,363.0367 133.3797,356.8142 137.2016,352.2887 141.0234,347.1975 144.8452,346.6319 148.6671,342.1064 160.1326,347.7632 163.9544,348.3289 167.7762,352.2887 171.5981,350.5916 175.4199,351.723 186.8854,335.8838 190.7073,336.4495 194.5291,335.3182 198.3509,325.1358 202.1728,319.479 213.6383,312.6908 217.4601,313.8222 221.2819,305.9026 225.1038,304.7528 228.9256,307.6498 240.3911,292.5852 244.213,290.847 248.0348,285.6323 251.8566,275.2029 255.6785,253.1854 267.144,230.5885 270.9658,225.9532 274.7876,221.8974 278.6095,202.7769 282.4313,202.1975 293.8968,137.3037 297.7187,132.0891 301.5405,129.192 305.3623,131.5096 309.1842,98.4834 320.6497,118.1833 324.4715,107.7539 328.2933,108.9127 332.1152,101.3804 335.937,119.3421 347.4025,90.9511 351.2244,84.5776 355.0462,58.5042 362.6899,32.4308 374.1554,61.4012 377.9772,75.8864 381.799,84.5776 385.6209,65.3847 389.4427,120.5009 400.9082,167.433 404.7301,150.6301 408.5519,153.5272 412.3737,208.571 416.1956,185.974 427.6611,188.8711 431.4829,213.7856 435.3047,225.9532 439.1266,198.1416 442.9484,202.1975 454.4139,179.0211 458.2358,181.3388 462.0576,179.6005 465.8794,151.2095 469.7013,173.2271 481.1668,154.1066 484.9886,144.2566 488.8104,132.6685 492.6323,145.4155 496.4541,134.4067 507.9196,116.445 511.7415,117.0244 515.5633,140.7802 534.6725,157.0036 538.4943,154.686 542.3161,134.4067 546.138,136.3622 561.4253,211.468 565.2472,235.2238 569.069,250.8678 572.8908,236.962 576.7127,215.9584 588.1782,202.7769 592,192.9269" style="fill:none;stroke:rgb(31,119,180);stroke-width:2;stroke-linejoin:bevel" />
  <text dominant-baseline="hanging" text-anchor="middle" transform="translate(313.006,8)" font-family="Segoe UI" font-size="18" font-weight="700" fill="black">7-Tage-Inzidenz Stadt Aachen 12.01.2021</text>
  <polygon points="34.012,29.0795 592,29.0795 592,370.947 34.012,370.947" style="fill:none;stroke:black;stroke-width:1" />
  <polygon points="42.012,37.0795 247.014,37.0795 247.014,63.1325 42.012,63.1325" style="fill:none;stroke:none;" />
  <text dominant-baseline="hanging" text-anchor="start" transform="translate(70.012,45.0795)" font-family="Segoe UI" font-size="12" font-weight="400" fill="black">7-Tage-Inzidenz Stadt Aachen 12.01.2021</text>
  <polyline points="50.012,50.106 66.012,50.106" style="fill:none;stroke:rgb(31,119,180);stroke-width:2" />
</svg>