<?xml version="1.0" encoding="utf-8" standalone="no"?>
<!DOCTYPE svg PUBLIC "-//W3C//DTD SVG 1.1//EN" "http://www.w3.org/Graphics/SVG/1.1/DTD/svg11.dtd">
<svg width="600" height="400" version="1.1" xmlns:xlink="http://www.w3.org/1999/xlink" xmlns="http://www.w3.org/2000/svg">
  <rect x="0" y="0" width="600" height="400" style="fill:rgb(255,255,255);stroke:none;" />
  <polyline points="34.012,362.7539 30.012,362.7539" style="fill:none;stroke:black;stroke-width:1" />
  <polyline points="34.012,348.3289 30.012,348.3289" style="fill:none;stroke:black;stroke-width:1" />
  <polyline points="34.012,333.904 30.012,333.904" style="fill:none;stroke:black;stroke-width:1" />
  <polyline points="34.012,319.479 30.012,319.479" style="fill:none;stroke:black;stroke-width:1" />
  <polyline points="34.012,290.6291 30.012,290.6291" style="fill:none;stroke:black;stroke-width:1" />
  <polyline points="34.012,276.2041 30.012,276.2041" style="fill:none;stroke:black;stroke-width:1" />
  <polyline points="34.012,261.7792 30.012,261.7792" style="fill:none;stroke:black;stroke-width:1" />
  <polyline points="34.012,247.3542 30.012,247.3542" style="fill:none;stroke:black;stroke-width:1" />
  <polyline points="34.012,218.5043 30.012,218.5043" style="fill:none;stroke:black;stroke-width:1" />
  <polyline points="34.012,204.0794 30.012,204.0794" style="fill:none;stroke:black;stroke-width:1" />
  <polyline points="34.012,189.6544 30.012,189.6544" style="fill:none;stroke:black;stroke-width:1" />
  <polyline points="34.012,175.2295 30.012,175.2295" style="fill:none;stroke:black;stroke-width:1" />
  <polyline points="34.012,146.3796 30.012,146.3796" style="fill:none;stroke:black;stroke-width:1" />
  <polyline points="34.012,131.9546 30.012,131.9546" style="fill:none;stroke:black;stroke-width:1" />
  <polyline points="34.012,117.5297 30.012,117.5297" style="fill:none;stroke:black;stroke-width:1" />
  <polyline points="34.012,103.1047 30.012,103.1047" style="fill:none;stroke:black;stroke-width:1" />
  <polyline points="34.012,74.2548 30.012,74.2548" style="fill:none;stroke:black;stroke-width:1" />
  <polyline points="34.012,59.8299 30.012,59.8299" style="fill:none;stroke:black;stroke-width:1" />
  <polyline points="34.012,45.4049 30.012,45.4049" style="fill:none;stroke:black;stroke-width:1" />
  <polyline points="34.012,30.98 30.012,30.98" style="fill:none;stroke:black;stroke-width:1" />
  <text dominant-baseline="middle" text-anchor="end" transform="translate(23.012,305.0541)" font-family="Segoe UI" font-size="12" font-weight="400" fill="black">50</text>
  <text dominant-baseline="middle" text-anchor="end" transform="translate(23.012,232.9293)" font-family="Segoe UI" font-size="12" font-weight="400" fill="black">100</text>
  <text dominant-baseline="middle" text-anchor="end" transform="translate(23.012,160.8045)" font-family="Segoe UI" font-size="12" font-weight="400" fill="black">150</text>
  <text dominant-baseline="middle" text-anchor="end" transform="translate(23.012,88.6798)" font-family="Segoe UI" font-size="12" font-weight="400" fill="black">200</text>
  <polyline points="34.012,305.0541 27.012,305.0541" style="fill:none;stroke:black;stroke-width:1" />
  <polyline points="34.012,232.9293 27.012,232.9293" style="fill:none;stroke:black;stroke-width:1" />
  <polyline points="34.012,160.8045 27.012,160.8045" style="fill:none;stroke:black;stroke-width:1" />
  <polyline points="34.012,88.6798 27.012,88.6798" style="fill:none;stroke:black;stroke-width:1" />
  <text dominant-baseline="hanging" text-anchor="middle" transform="translate(81.7347,381.947)" font-family="Segoe UI" font-size="12" font-weight="400" fill="black">01. September</text>
  <text dominant-baseline="hanging" text-anchor="middle" transform="translate(191.8639,381.947)" font-family="Segoe UI" font-size="12" font-weight="400" fill="black">01. October</text>
  <text dominant-baseline="hanging" text-anchor="middle" transform="translate(305.6641,381.947)" font-family="Segoe UI" font-size="12" font-weight="400" fill="black">01. November</text>
  <text dominant-baseline="hanging" text-anchor="middle" transform="translate(415.7933,381.947)" font-family="Segoe UI" font-size="12" font-weight="400" fill="black">01. December</text>
  <text dominant-baseline="hanging" text-anchor="middle" transform="translate(529.5934,381.947)" font-family="Segoe UI" font-size="12" font-weight="400" fill="black">01. January</text>
  <polyline points="81.7347,370.947 81.7347,377.947" style="fill:none;stroke:black;stroke-width:1" />
  <polyline points="191.8639,370.947 191.8639,377.947" style="fill:none;stroke:black;stroke-width:1" />
  <polyline points="305.6641,370.947 305.6641,377.947" style="fill:none;stroke:black;stroke-width:1" />
  <polyline points="415.7933,370.947 415.7933,377.947" style="fill:none;stroke:black;stroke-width:1" />
  <polyline points="529.5934,370.947 529.5934,377.947" style="fill:none;stroke:black;stroke-width:1" />
  <polyline points="34.012,356.8142 37.683,356.3899 41.3539,362.471 52.3669,358.5112 56.0378,362.471 59.7088,363.0367 63.3798,363.6024 67.0508,362.471 78.0637,366.9965 81.7347,365.2994 85.4056,365.8651 89.0766,365.2994 92.7476,365.2994 103.7605,365.8651 107.4315,367.5622 111.1024,365.8651 114.7734,365.2994 118.4444,363.0367 129.4573,356.8142 133.1283,352.2887 136.7993,347.1975 140.4702,346.6319 144.1412,342.1064 155.1541,347.7632 158.8251,348.3289 162.4961,352.2887 166.1671,350.5916 169.838,351.723 180.8509,335.8838 184.5219,336.4495 188.1929,335.3182 191.8639,325.1358 195.5348,319.479 206.5478,312.6908 210.2187,313.8222 213.8897,305.9026 217.5607,304.7528 221.2317,307.6498 232.2446,292.5852 235.9156,290.847 239.5865,285.6323 243.2575,275.2029 246.9285,253.1854 257.9414,230.5885 261.6124,225.9532 265.2833,221.8974 268.9543,202.7769 272.6253,202.1975 283.6382,137.3037 287.3092,132.0891 290.9802,129.192 294.6511,131.5096 298.3221,98.4834 309.335,118.1833 313.006,107.7539 316.677,108.9127 320.3479,101.3804 324.0189,119.3421 335.0318,90.9511 338.7028,84.5776 342.3738,58.5042 349.7157,32.4308 360.7287,61.4012 364.3996,75.8864 368.0706,84.5776 371.7416,65.3847 375.4126,120.5009 386.4255,167.433 390.0964,150.6301 393.7674,153.5272 397.4384,208.571 401.1094,185.974 412.1223,188.8711 415.7933,213.7856 419.4642,225.9532 423.1352,198.1416 426.8062,202.1975 437.8191,179.0211 441.4901,181.3388 445.1611,179.6005 448.832,151.2095 452.503,173.2271 463.5159,154.1066 467.1869,144.2566 470.8579,132.6685 474.5288,145.4155 478.1998,134.4067 489.2127,116.445 492.8837,117.0244 496.5547,140.7802 514.9096,157.0036 518.5805,154.686 522.2515,134.4067 525.9225,136.3622 540.6064,211.468 544.2773,235.2238 547.9483,250.8678 551.6193,236.962 555.2903,215.9584 566.3032,202.7769 569.9742,192.9269 573.6451,195.2446 577.3161,217.2621 580.9871,247.3913 592,272.3059" style="fill:none;stroke:rgb(31,119,180);stroke-width:2;stroke-linejoin:bevel" />
  <text dominant-baseline="hanging" text-anchor="middle" transform="translate(313.006,8)" font-family="Segoe UI" font-size="18" font-weight="700" fill="black">7-Tage-Inzidenz Stadt Aachen 18.01.2021</text>
  <polygon points="34.012,29.0795 592,29.0795 592,370.947 34.012,370.947" style="fill:none;stroke:black;stroke-width:1" />
  <polygon points="42.012,37.0795 247.014,37.0795 247.014,63.1325 42.012,63.1325" style="fill:none;stroke:none;" />
  <text dominant-baseline="hanging" text-anchor="start" transform="translate(70.012,45.0795)" font-family="Segoe UI" font-size="12" font-weight="400" fill="black">7-Tage-Inzidenz Stadt Aachen 18.01.2021</text>
  <polyline points="50.012,50.106 66.012,50.106" style="fill:none;stroke:rgb(31,119,180);stroke-width:2" />
</svg>