<?xml version="1.0" encoding="utf-8" standalone="no"?>
<!DOCTYPE svg PUBLIC "-//W3C//DTD SVG 1.1//EN" "http://www.w3.org/Graphics/SVG/1.1/DTD/svg11.dtd">
<svg width="600" height="400" version="1.1" xmlns:xlink="http://www.w3.org/1999/xlink" xmlns="http://www.w3.org/2000/svg">
  <rect x="0" y="0" width="600" height="400" style="fill:rgb(255,255,255);stroke:none;" />
  <polyline points="34.012,362.7539 30.012,362.7539" style="fill:none;stroke:black;stroke-width:1" />
  <polyline points="34.012,348.3289 30.012,348.3289" style="fill:none;stroke:black;stroke-width:1" />
  <polyline points="34.012,333.904 30.012,333.904" style="fill:none;stroke:black;stroke-width:1" />
  <polyline points="34.012,319.479 30.012,319.479" style="fill:none;stroke:black;stroke-width:1" />
  <polyline points="34.012,290.6291 30.012,290.6291" style="fill:none;stroke:black;stroke-width:1" />
  <polyline points="34.012,276.2041 30.012,276.2041" style="fill:none;stroke:black;stroke-width:1" />
  <polyline points="34.012,261.7792 30.012,261.7792" style="fill:none;stroke:black;stroke-width:1" />
  <polyline points="34.012,247.3542 30.012,247.3542" style="fill:none;stroke:black;stroke-width:1" />
  <polyline points="34.012,218.5043 30.012,218.5043" style="fill:none;stroke:black;stroke-width:1" />
  <polyline points="34.012,204.0794 30.012,204.0794" style="fill:none;stroke:black;stroke-width:1" />
  <polyline points="34.012,189.6544 30.012,189.6544" style="fill:none;stroke:black;stroke-width:1" />
  <polyline points="34.012,175.2295 30.012,175.2295" style="fill:none;stroke:black;stroke-width:1" />
  <polyline points="34.012,146.3796 30.012,146.3796" style="fill:none;stroke:black;stroke-width:1" />
  <polyline points="34.012,131.9546 30.012,131.9546" style="fill:none;stroke:black;stroke-width:1" />
  <polyline points="34.012,117.5297 30.012,117.5297" style="fill:none;stroke:black;stroke-width:1" />
  <polyline points="34.012,103.1047 30.012,103.1047" style="fill:none;stroke:black;stroke-width:1" />
  <polyline points="34.012,74.2548 30.012,74.2548" style="fill:none;stroke:black;stroke-width:1" />
  <polyline points="34.012,59.8299 30.012,59.8299" style="fill:none;stroke:black;stroke-width:1" />
  <polyline points="34.012,45.4049 30.012,45.4049" style="fill:none;stroke:black;stroke-width:1" />
  <polyline points="34.012,30.98 30.012,30.98" style="fill:none;stroke:black;stroke-width:1" />
  <polyline points="58.6849,370.947 58.6849,374.947" style="fill:none;stroke:black;stroke-width:1" />
  <polyline points="174.458,370.947 174.458,374.947" style="fill:none;stroke:black;stroke-width:1" />
  <polyline points="290.231,370.947 290.231,374.947" style="fill:none;stroke:black;stroke-width:1" />
  <polyline points="402.2082,370.947 402.2082,374.947" style="fill:none;stroke:black;stroke-width:1" />
  <polyline points="517.9812,370.947 517.9812,374.947" style="fill:none;stroke:black;stroke-width:1" />
  <text dominant-baseline="middle" text-anchor="end" transform="translate(23.012,305.0541)" font-family="Segoe UI" font-size="12" font-weight="400" fill="black">50</text>
  <text dominant-baseline="middle" text-anchor="end" transform="translate(23.012,232.9293)" font-family="Segoe UI" font-size="12" font-weight="400" fill="black">100</text>
  <text dominant-baseline="middle" text-anchor="end" transform="translate(23.012,160.8045)" font-family="Segoe UI" font-size="12" font-weight="400" fill="black">150</text>
  <text dominant-baseline="middle" text-anchor="end" transform="translate(23.012,88.6798)" font-family="Segoe UI" font-size="12" font-weight="400" fill="black">200</text>
  <polyline points="34.012,305.0541 27.012,305.0541" style="fill:none;stroke:black;stroke-width:1" />
  <polyline points="34.012,232.9293 27.012,232.9293" style="fill:none;stroke:black;stroke-width:1" />
  <polyline points="34.012,160.8045 27.012,160.8045" style="fill:none;stroke:black;stroke-width:1" />
  <polyline points="34.012,88.6798 27.012,88.6798" style="fill:none;stroke:black;stroke-width:1" />
  <text dominant-baseline="hanging" text-anchor="middle" transform="translate(115.6225,381.947)" font-family="Segoe UI" font-size="12" font-weight="400" fill="black">01. October</text>
  <text dominant-baseline="hanging" text-anchor="middle" transform="translate(231.3955,381.947)" font-family="Segoe UI" font-size="12" font-weight="400" fill="black">01. December</text>
  <text dominant-baseline="hanging" text-anchor="middle" transform="translate(349.0664,381.947)" font-family="Segoe UI" font-size="12" font-weight="400" fill="black">01. February</text>
  <text dominant-baseline="hanging" text-anchor="middle" transform="translate(461.0436,381.947)" font-family="Segoe UI" font-size="12" font-weight="400" fill="black">01. April</text>
  <text dominant-baseline="hanging" text-anchor="middle" transform="translate(576.8167,381.947)" font-family="Segoe UI" font-size="12" font-weight="400" fill="black">01. June</text>
  <polyline points="115.6225,370.947 115.6225,377.947" style="fill:none;stroke:black;stroke-width:1" />
  <polyline points="231.3955,370.947 231.3955,377.947" style="fill:none;stroke:black;stroke-width:1" />
  <polyline points="349.0664,370.947 349.0664,377.947" style="fill:none;stroke:black;stroke-width:1" />
  <polyline points="461.0436,370.947 461.0436,377.947" style="fill:none;stroke:black;stroke-width:1" />
  <polyline points="576.8167,370.947 576.8167,377.947" style="fill:none;stroke:black;stroke-width:1" />
  <polyline points="34.012,356.8142 35.9099,356.3899 37.8078,362.471 43.5016,358.5112 45.3995,362.471 47.2974,363.0367 49.1953,363.6024 51.0933,362.471 56.787,366.9965 58.6849,365.2994 60.5829,365.8651 62.4808,365.2994 64.3787,365.2994 70.0724,365.8651 71.9704,367.5622 73.8683,365.8651 75.7662,365.2994 77.6641,363.0367 83.3579,356.8142 85.2558,352.2887 87.1537,347.1975 89.0516,346.6319 90.9496,342.1064 96.6433,347.7632 98.5412,348.3289 100.4391,352.2887 102.3371,350.5916 104.235,351.723 109.9287,335.8838 111.8267,336.4495 113.7246,335.3182 115.6225,325.1358 117.5204,319.479 123.2142,312.6908 125.1121,313.8222 127.01,305.9026 128.9079,304.7528 130.8058,307.6498 136.4996,292.5852 138.3975,290.847 140.2954,285.6323 142.1933,275.2029 144.0913,253.1854 149.785,230.5885 151.6829,225.9532 153.5809,221.8974 155.4788,202.7769 157.3767,202.1975 163.0704,137.3037 164.9684,132.0891 166.8663,129.192 168.7642,131.5096 170.6621,98.4834 176.3559,118.1833 178.2538,107.7539 180.1517,108.9127 182.0496,101.3804 183.9476,119.3421 189.6413,90.9511 191.5392,84.5776 193.4371,58.5042 197.233,32.4308 202.9267,61.4012 204.8247,75.8864 206.7226,84.5776 208.6205,65.3847 210.5184,120.5009 216.2122,167.433 218.1101,150.6301 220.008,153.5272 221.9059,208.571 223.8038,185.974 229.4976,188.8711 231.3955,213.7856 233.2934,225.9532 235.1913,198.1416 237.0893,202.1975 242.783,179.0211 244.6809,181.3388 246.5789,179.6005 248.4768,151.2095 250.3747,173.2271 256.0684,154.1066 257.9664,144.2566 259.8643,132.6685 261.7622,145.4155 263.6601,134.4067 269.3539,116.445 271.2518,117.0244 273.1497,140.7802 282.6393,157.0036 284.5372,154.686 286.4351,134.4067 288.3331,136.3622 295.9247,211.468 297.8227,235.2238 299.7206,250.8678 301.6185,236.962 303.5164,215.9584 311.1081,192.9269 313.006,195.2446 314.9039,217.2621 316.8018,247.3913 322.4956,255.9086 324.3935,275.7823 326.2914,267.0912 328.1893,285.0529 330.0873,285.6323 335.781,272.3059 339.5769,279.8382 341.4748,259.5589 343.3727,247.9707 349.0664,264.1942 350.9644,278.3173 352.8623,272.3059 354.7602,279.8382 356.6581,290.847 362.3519,293.744 364.2498,290.847 366.1477,275.2029 368.0456,276.3617 369.9436,269.4088 375.6373,283.8941 377.5352,285.6323 379.4331,306.491 381.3311,313.4439 383.229,329.6673 388.9227,329.6673 390.8207,330.8261 392.7186,321.5556 394.6165,322.135 396.5144,317.4997 402.2082,329.0879 404.1061,327.9291 406.004,323.8732 407.9019,300.6969 409.7998,294.9028 415.4936,265.353 417.3915,265.353 419.2894,263.6148 421.1873,278.6794 423.0853,272.3059 428.779,261.8765 430.6769,262.4559 432.5749,254.9236 434.4728,226.5326 436.3707,208.571 442.0644,200.4592 443.9624,199.8798 445.8603,204.5151 447.7582,192.9269 449.6561,205.6739 455.3499,224.215 457.2478,220.7385 459.1457,227.6914 461.0436,243.9149 462.9416,218.4209 470.5332,205.0945 472.4311,220.1591 474.3291,201.6181 476.227,235.2238 481.9207,225.8953 483.8187,216.1033 485.7166,168.0124 487.6145,188.8711 489.5124,184.8152 495.2062,176.1241 497.1041,157.0036 499.002,162.2183 500.8999,148.3125 502.7978,123.9773 508.4916,104.8569 510.3895,121.0803 512.2874,135.5655 514.1853,129.7714 516.0833,132.6685 521.777,158.7418 523.6749,146.5743 525.5729,140.2008 527.4708,173.8065 529.3687,194.0858 535.0624,203.9357 536.9604,213.2062 538.8583,225.9532 542.6541,193.5063 548.3479,196.4034 550.2458,181.9182 552.1437,176.1241 554.0416,180.4697 555.9396,216.1033 563.5312,264.1942 565.4291,289.1087 567.3271,298.9587 569.225,302.4351 574.9187,310.2571 576.8167,315.1821 578.7146,314.0233 582.5104,334.882 588.2042,350.526 590.1021,355.7407 592,360.376" style="fill:none;stroke:rgb(31,119,180);stroke-width:2;stroke-linejoin:bevel" />
  <text dominant-baseline="hanging" text-anchor="middle" transform="translate(313.006,8)" font-family="Segoe UI" font-size="18" font-weight="700" fill="black">7-Tage-Inzidenz Stadt Aachen 09.06.2021</text>
  <polygon points="34.012,29.0795 592,29.0795 592,370.947 34.012,370.947" style="fill:none;stroke:black;stroke-width:1" />
  <polygon points="42.012,37.0795 247.014,37.0795 247.014,63.1325 42.012,63.1325" style="fill:none;stroke:none;" />
  <text dominant-baseline="hanging" text-anchor="start" transform="translate(70.012,45.0795)" font-family="Segoe UI" font-size="12" font-weight="400" fill="black">7-Tage-Inzidenz Stadt Aachen 09.06.2021</text>
  <polyline points="50.012,50.106 66.012,50.106" style="fill:none;stroke:rgb(31,119,180);stroke-width:2" />
</svg>