<?xml version="1.0" encoding="utf-8" standalone="no"?>
<!DOCTYPE svg PUBLIC "-//W3C//DTD SVG 1.1//EN" "http://www.w3.org/Graphics/SVG/1.1/DTD/svg11.dtd">
<svg width="600" height="400" version="1.1" xmlns:xlink="http://www.w3.org/1999/xlink" xmlns="http://www.w3.org/2000/svg">
  <rect x="0" y="0" width="600" height="400" style="fill:rgb(255,255,255);stroke:none;" />
  <polyline points="34.012,362.7539 30.012,362.7539" style="fill:none;stroke:black;stroke-width:1" />
  <polyline points="34.012,348.3289 30.012,348.3289" style="fill:none;stroke:black;stroke-width:1" />
  <polyline points="34.012,333.904 30.012,333.904" style="fill:none;stroke:black;stroke-width:1" />
  <polyline points="34.012,319.479 30.012,319.479" style="fill:none;stroke:black;stroke-width:1" />
  <polyline points="34.012,290.6291 30.012,290.6291" style="fill:none;stroke:black;stroke-width:1" />
  <polyline points="34.012,276.2041 30.012,276.2041" style="fill:none;stroke:black;stroke-width:1" />
  <polyline points="34.012,261.7792 30.012,261.7792" style="fill:none;stroke:black;stroke-width:1" />
  <polyline points="34.012,247.3542 30.012,247.3542" style="fill:none;stroke:black;stroke-width:1" />
  <polyline points="34.012,218.5043 30.012,218.5043" style="fill:none;stroke:black;stroke-width:1" />
  <polyline points="34.012,204.0794 30.012,204.0794" style="fill:none;stroke:black;stroke-width:1" />
  <polyline points="34.012,189.6544 30.012,189.6544" style="fill:none;stroke:black;stroke-width:1" />
  <polyline points="34.012,175.2295 30.012,175.2295" style="fill:none;stroke:black;stroke-width:1" />
  <polyline points="34.012,146.3796 30.012,146.3796" style="fill:none;stroke:black;stroke-width:1" />
  <polyline points="34.012,131.9546 30.012,131.9546" style="fill:none;stroke:black;stroke-width:1" />
  <polyline points="34.012,117.5297 30.012,117.5297" style="fill:none;stroke:black;stroke-width:1" />
  <polyline points="34.012,103.1047 30.012,103.1047" style="fill:none;stroke:black;stroke-width:1" />
  <polyline points="34.012,74.2548 30.012,74.2548" style="fill:none;stroke:black;stroke-width:1" />
  <polyline points="34.012,59.8299 30.012,59.8299" style="fill:none;stroke:black;stroke-width:1" />
  <polyline points="34.012,45.4049 30.012,45.4049" style="fill:none;stroke:black;stroke-width:1" />
  <polyline points="34.012,30.98 30.012,30.98" style="fill:none;stroke:black;stroke-width:1" />
  <text dominant-baseline="middle" text-anchor="end" transform="translate(23.012,305.0541)" font-family="Segoe UI" font-size="12" font-weight="400" fill="black">50</text>
  <text dominant-baseline="middle" text-anchor="end" transform="translate(23.012,232.9293)" font-family="Segoe UI" font-size="12" font-weight="400" fill="black">100</text>
  <text dominant-baseline="middle" text-anchor="end" transform="translate(23.012,160.8045)" font-family="Segoe UI" font-size="12" font-weight="400" fill="black">150</text>
  <text dominant-baseline="middle" text-anchor="end" transform="translate(23.012,88.6798)" font-family="Segoe UI" font-size="12" font-weight="400" fill="black">200</text>
  <polyline points="34.012,305.0541 27.012,305.0541" style="fill:none;stroke:black;stroke-width:1" />
  <polyline points="34.012,232.9293 27.012,232.9293" style="fill:none;stroke:black;stroke-width:1" />
  <polyline points="34.012,160.8045 27.012,160.8045" style="fill:none;stroke:black;stroke-width:1" />
  <polyline points="34.012,88.6798 27.012,88.6798" style="fill:none;stroke:black;stroke-width:1" />
  <text dominant-baseline="hanging" text-anchor="middle" transform="translate(75.4625,381.947)" font-family="Segoe UI" font-size="12" font-weight="400" fill="black">01. September</text>
  <text dominant-baseline="hanging" text-anchor="middle" transform="translate(171.1176,381.947)" font-family="Segoe UI" font-size="12" font-weight="400" fill="black">01. October</text>
  <text dominant-baseline="hanging" text-anchor="middle" transform="translate(269.9612,381.947)" font-family="Segoe UI" font-size="12" font-weight="400" fill="black">01. November</text>
  <text dominant-baseline="hanging" text-anchor="middle" transform="translate(365.6163,381.947)" font-family="Segoe UI" font-size="12" font-weight="400" fill="black">01. December</text>
  <text dominant-baseline="hanging" text-anchor="middle" transform="translate(464.4599,381.947)" font-family="Segoe UI" font-size="12" font-weight="400" fill="black">01. January</text>
  <text dominant-baseline="hanging" text-anchor="middle" transform="translate(563.3035,381.947)" font-family="Segoe UI" font-size="12" font-weight="400" fill="black">01. February</text>
  <polyline points="75.4625,370.947 75.4625,377.947" style="fill:none;stroke:black;stroke-width:1" />
  <polyline points="171.1176,370.947 171.1176,377.947" style="fill:none;stroke:black;stroke-width:1" />
  <polyline points="269.9612,370.947 269.9612,377.947" style="fill:none;stroke:black;stroke-width:1" />
  <polyline points="365.6163,370.947 365.6163,377.947" style="fill:none;stroke:black;stroke-width:1" />
  <polyline points="464.4599,370.947 464.4599,377.947" style="fill:none;stroke:black;stroke-width:1" />
  <polyline points="563.3035,370.947 563.3035,377.947" style="fill:none;stroke:black;stroke-width:1" />
  <polyline points="34.012,356.8142 37.2005,356.3899 40.389,362.471 49.9545,358.5112 53.143,362.471 56.3315,363.0367 59.52,363.6024 62.7085,362.471 72.274,366.9965 75.4625,365.2994 78.651,365.8651 81.8395,365.2994 85.028,365.2994 94.5936,365.8651 97.7821,367.5622 100.9706,365.8651 104.1591,365.2994 107.3476,363.0367 116.9131,356.8142 120.1016,352.2887 123.2901,347.1975 126.4786,346.6319 129.6671,342.1064 139.2326,347.7632 142.4211,348.3289 145.6096,352.2887 148.7981,350.5916 151.9866,351.723 161.5521,335.8838 164.7406,336.4495 167.9291,335.3182 171.1176,325.1358 174.3061,319.479 183.8716,312.6908 187.0601,313.8222 190.2486,305.9026 193.4371,304.7528 196.6256,307.6498 206.1912,292.5852 209.3797,290.847 212.5682,285.6323 215.7567,275.2029 218.9452,253.1854 228.5107,230.5885 231.6992,225.9532 234.8877,221.8974 238.0762,202.7769 241.2647,202.1975 250.8302,137.3037 254.0187,132.0891 257.2072,129.192 260.3957,131.5096 263.5842,98.4834 273.1497,118.1833 276.3382,107.7539 279.5267,108.9127 282.7152,101.3804 285.9037,119.3421 295.4692,90.9511 298.6577,84.5776 301.8462,58.5042 308.2232,32.4308 317.7888,61.4012 320.9773,75.8864 324.1658,84.5776 327.3543,65.3847 330.5428,120.5009 340.1083,167.433 343.2968,150.6301 346.4853,153.5272 349.6738,208.571 352.8623,185.974 362.4278,188.8711 365.6163,213.7856 368.8048,225.9532 371.9933,198.1416 375.1818,202.1975 384.7473,179.0211 387.9358,181.3388 391.1243,179.6005 394.3128,151.2095 397.5013,173.2271 407.0668,154.1066 410.2553,144.2566 413.4438,132.6685 416.6323,145.4155 419.8208,134.4067 429.3864,116.445 432.5749,117.0244 435.7634,140.7802 451.7059,157.0036 454.8944,154.686 458.0829,134.4067 461.2714,136.3622 474.0254,211.468 477.2139,235.2238 480.4024,250.8678 483.5909,236.962 486.7794,215.9584 499.5334,192.9269 502.7219,195.2446 505.9104,217.2621 509.0989,247.3913 518.6644,255.9086 521.8529,275.7823 525.0414,267.0912 528.2299,285.0529 531.4184,285.6323 540.984,272.3059 547.361,279.8382 550.5495,259.5589 553.738,247.9707 563.3035,264.1942 566.492,278.3173 569.6805,272.3059 572.869,279.8382 576.0575,290.847 585.623,293.744 588.8115,290.847 592,275.2029" style="fill:none;stroke:rgb(31,119,180);stroke-width:2;stroke-linejoin:bevel" />
  <text dominant-baseline="hanging" text-anchor="middle" transform="translate(313.006,8)" font-family="Segoe UI" font-size="18" font-weight="700" fill="black">7-Tage-Inzidenz Stadt Aachen 10.02.2021</text>
  <polygon points="34.012,29.0795 592,29.0795 592,370.947 34.012,370.947" style="fill:none;stroke:black;stroke-width:1" />
  <polygon points="42.012,37.0795 247.014,37.0795 247.014,63.1325 42.012,63.1325" style="fill:none;stroke:none;" />
  <text dominant-baseline="hanging" text-anchor="start" transform="translate(70.012,45.0795)" font-family="Segoe UI" font-size="12" font-weight="400" fill="black">7-Tage-Inzidenz Stadt Aachen 10.02.2021</text>
  <polyline points="50.012,50.106 66.012,50.106" style="fill:none;stroke:rgb(31,119,180);stroke-width:2" />
</svg>