<?xml version="1.0" encoding="utf-8" standalone="no"?>
<!DOCTYPE svg PUBLIC "-//W3C//DTD SVG 1.1//EN" "http://www.w3.org/Graphics/SVG/1.1/DTD/svg11.dtd">
<svg width="600" height="400" version="1.1" xmlns:xlink="http://www.w3.org/1999/xlink" xmlns="http://www.w3.org/2000/svg">
  <rect x="0" y="0" width="600" height="400" style="fill:rgb(255,255,255);stroke:none;" />
  <polyline points="34.012,346.3457 30.012,346.3457" style="fill:none;stroke:black;stroke-width:1" />
  <polyline points="34.012,325.1722 30.012,325.1722" style="fill:none;stroke:black;stroke-width:1" />
  <polyline points="34.012,303.9987 30.012,303.9987" style="fill:none;stroke:black;stroke-width:1" />
  <polyline points="34.012,282.8252 30.012,282.8252" style="fill:none;stroke:black;stroke-width:1" />
  <polyline points="34.012,240.4782 30.012,240.4782" style="fill:none;stroke:black;stroke-width:1" />
  <polyline points="34.012,219.3047 30.012,219.3047" style="fill:none;stroke:black;stroke-width:1" />
  <polyline points="34.012,198.1312 30.012,198.1312" style="fill:none;stroke:black;stroke-width:1" />
  <polyline points="34.012,176.9577 30.012,176.9577" style="fill:none;stroke:black;stroke-width:1" />
  <polyline points="34.012,134.6107 30.012,134.6107" style="fill:none;stroke:black;stroke-width:1" />
  <polyline points="34.012,113.4372 30.012,113.4372" style="fill:none;stroke:black;stroke-width:1" />
  <polyline points="34.012,92.2637 30.012,92.2637" style="fill:none;stroke:black;stroke-width:1" />
  <polyline points="34.012,71.0902 30.012,71.0902" style="fill:none;stroke:black;stroke-width:1" />
  <text dominant-baseline="middle" text-anchor="end" transform="translate(23.012,367.5192)" font-family="Segoe UI" font-size="12" font-weight="400" fill="black">0</text>
  <text dominant-baseline="middle" text-anchor="end" transform="translate(23.012,261.6517)" font-family="Segoe UI" font-size="12" font-weight="400" fill="black">100</text>
  <text dominant-baseline="middle" text-anchor="end" transform="translate(23.012,155.7842)" font-family="Segoe UI" font-size="12" font-weight="400" fill="black">200</text>
  <text dominant-baseline="middle" text-anchor="end" transform="translate(23.012,49.9166)" font-family="Segoe UI" font-size="12" font-weight="400" fill="black">300</text>
  <polyline points="34.012,367.5192 27.012,367.5192" style="fill:none;stroke:black;stroke-width:1" />
  <polyline points="34.012,261.6517 27.012,261.6517" style="fill:none;stroke:black;stroke-width:1" />
  <polyline points="34.012,155.7842 27.012,155.7842" style="fill:none;stroke:black;stroke-width:1" />
  <polyline points="34.012,49.9166 27.012,49.9166" style="fill:none;stroke:black;stroke-width:1" />
  <text dominant-baseline="hanging" text-anchor="middle" transform="translate(195.0573,381.947)" font-family="Segoe UI" font-size="12" font-weight="400" fill="black">01. January</text>
  <polyline points="195.0573,370.947 195.0573,377.947" style="fill:none;stroke:black;stroke-width:1" />
  <polyline points="34.012,367.5622 36.2802,367.5621 39.6826,367.5621 40.8167,367.562 41.9509,352.5732 43.085,352.2618 44.2191,356.7249 47.6215,353.8187 48.7556,356.7249 49.8897,357.1401 51.0238,357.5552 52.158,356.7249 55.5603,360.0462 56.6944,358.8007 57.8286,359.2159 58.9627,358.8007 60.0968,358.8007 63.4992,359.2159 64.6333,360.4614 65.7674,359.2159 66.9015,358.8007 68.0357,357.1401 71.438,352.5732 72.5721,349.2519 73.7063,345.5154 74.8404,345.1002 75.9745,341.7789 79.3769,345.9305 80.511,346.3457 81.6451,349.2519 82.7792,348.0064 83.9134,348.8367 87.3157,337.212 88.4499,337.6272 89.584,336.7969 90.7181,329.3239 91.8522,325.1722 95.2546,320.1902 96.3887,321.0205 97.5228,315.2082 98.657,314.3643 99.7911,316.4905 103.1934,305.4343 104.3276,304.1586 105.4617,300.3314 106.5958,292.6771 107.7299,276.5181 111.1323,259.9337 112.2664,256.5318 113.4005,253.5551 114.5347,239.5223 115.6688,239.097 119.0711,191.4702 120.2053,187.6431 121.3394,185.5169 122.4735,187.2178 123.6076,162.9792 127.01,177.4373 128.1441,169.783 129.2782,170.6335 130.4124,165.1054 131.5465,178.2878 134.9489,157.4511 136.083,152.7735 137.2171,133.6377 139.4853,114.502 142.8877,135.7639 144.0218,146.3949 145.156,152.7735 146.2901,138.6874 147.4242,179.1383 150.8266,213.5827 151.9607,201.2507 153.0948,203.3769 154.2289,243.7746 155.363,227.1903 158.7654,229.3165 159.8995,247.6018 161.0337,256.5318 162.1678,236.1203 163.3019,239.097 166.7043,222.0875 167.8384,223.7884 168.9725,222.5127 170.1066,201.676 171.2408,217.8351 174.6431,203.8022 175.7772,196.5731 176.9114,188.0683 178.0455,197.4236 179.1796,189.344 182.582,176.1616 183.7161,176.5869 184.8502,194.0217 190.5208,205.9284 191.655,204.2274 192.7891,189.344 193.9232,190.7792 198.4597,245.9008 199.5938,263.3356 200.7279,274.8171 201.862,264.6114 202.9962,249.1964 207.5327,232.2932 208.6668,233.9941 209.8009,250.1532 210.935,272.2657 214.3374,278.5167 215.4715,293.1024 216.6056,286.7238 217.7398,299.9062 218.8739,300.3314 222.2762,290.5509 224.5445,296.0791 225.6786,281.1957 226.8127,272.6909 230.2151,284.5976 231.3492,294.9628 232.4833,290.5509 233.6175,296.0791 234.7516,304.1586 238.154,306.2848 239.2881,304.1586 240.4222,292.6771 241.5563,293.5276 242.6904,288.4247 246.0928,299.0557 247.2269,300.3314 248.361,315.6401 249.4952,320.7429 250.6293,332.6496 254.0317,332.6496 255.1658,333.5001 256.2999,326.6963 257.434,327.1215 258.5681,323.7196 261.9705,332.2244 263.1046,331.3739 264.2388,328.3972 265.3729,311.3877 266.507,307.1353 269.9094,285.4481 271.0435,285.4481 272.1776,284.1724 273.3117,295.2286 274.4459,290.5509 277.8482,282.8966 278.9823,283.3219 280.1165,277.7938 281.2506,256.9571 282.3847,243.7746 285.7871,237.8213 286.9212,237.3961 288.0553,240.798 289.1894,232.2932 290.3236,241.6484 293.7259,255.2561 294.86,252.7047 295.9942,257.8075 297.1283,269.7142 298.2624,251.0037 302.7989,241.2232 303.933,252.2794 305.0671,238.6718 306.2013,263.3356 309.6036,256.4893 310.7378,249.3028 311.8719,214.0079 313.006,229.3165 314.1401,226.3398 317.5425,219.9613 318.6766,205.9284 319.8107,209.7555 320.9449,199.5498 322.079,181.6897 325.4813,167.6568 326.6155,179.5635 327.7496,190.1945 328.8837,185.9421 330.0178,188.0683 333.4202,207.2041 334.5543,198.2741 335.6884,193.5964 336.8226,218.2603 337.9567,233.1437 341.359,240.3727 342.4932,247.1766 343.6273,256.5318 345.8955,232.7184 349.2979,234.8446 350.432,224.2136 351.5661,219.9613 352.7003,223.1505 353.8344,249.3028 358.3709,284.5976 359.505,302.8829 360.6391,310.1119 361.7732,312.6634 365.1756,318.4041 366.3097,322.0186 367.4439,321.1682 369.7121,336.4768 373.1145,347.9582 374.2486,351.7854 375.3827,355.1873 376.5168,354.4963 377.651,358.5892 381.0533,360.7154 382.1874,359.8649 383.3216,359.8649 384.4557,359.0144 385.5898,356.8882 388.9922,356.8882 390.1263,356.463 391.2604,359.0144 392.3945,361.5659 393.5287,362.8416 396.931,362.4164 398.0651,363.6921 399.1993,361.1406 400.3334,358.5892 401.4675,359.4397 404.8699,359.4397 407.1381,359.8649 409.4064,361.5659 412.8087,362.4164 415.077,357.3135 417.3452,349.2339 423.0158,340.7292 425.2841,330.0982 430.9547,328.8225 433.2229,339.0282 438.8935,338.603 441.1618,333.9253 446.8324,312.6634 449.1006,288.4247 454.7712,281.6209 457.0395,292.6771 462.7101,242.0737 464.9783,234.8446 470.649,266.3123 472.9172,257.8075 480.856,271.4152 488.7949,296.0791 494.4655,305.0091 496.7338,309.6867 502.4044,313.0886 504.6726,321.5934 510.3432,333.0749 512.6115,333.0749 518.2821,332.6496 520.5503,332.2244 526.2209,332.2244 528.4892,318.6167 534.1598,290.9762 536.428,263.3356 542.0986,256.5318 544.3669,242.0737 550.0375,184.6664 552.3057,163.4045 557.9763,142.1425 560.2446,140.8668 565.9152,63.4733 568.1834,32.4308 573.854,54.118 581.7929,68.1509 584.0611,58.9374 589.7318,115.3524 592,117.0534" style="fill:none;stroke:rgb(31,119,180);stroke-width:2;stroke-linejoin:bevel" />
  <text dominant-baseline="hanging" text-anchor="middle" transform="translate(313.006,8)" font-family="Segoe UI" font-size="18" font-weight="700" fill="black">7-Tage-Inzidenz Stadt Aachen 17.12.2021</text>
  <polygon points="34.012,29.0795 592,29.0795 592,370.947 34.012,370.947" style="fill:none;stroke:black;stroke-width:1" />
  <polygon points="42.012,37.0795 247.014,37.0795 247.014,63.1325 42.012,63.1325" style="fill:none;stroke:none;" />
  <text dominant-baseline="hanging" text-anchor="start" transform="translate(70.012,45.0795)" font-family="Segoe UI" font-size="12" font-weight="400" fill="black">7-Tage-Inzidenz Stadt Aachen 17.12.2021</text>
  <polyline points="50.012,50.106 66.012,50.106" style="fill:none;stroke:rgb(31,119,180);stroke-width:2" />
</svg>