<?xml version="1.0" encoding="utf-8" standalone="no"?>
<!DOCTYPE svg PUBLIC "-//W3C//DTD SVG 1.1//EN" "http://www.w3.org/Graphics/SVG/1.1/DTD/svg11.dtd">
<svg width="600" height="400" version="1.1" xmlns:xlink="http://www.w3.org/1999/xlink" xmlns="http://www.w3.org/2000/svg">
  <rect x="0" y="0" width="600" height="400" style="fill:rgb(255,255,255);stroke:none;" />
  <polyline points="34.012,362.7539 30.012,362.7539" style="fill:none;stroke:black;stroke-width:1" />
  <polyline points="34.012,348.3289 30.012,348.3289" style="fill:none;stroke:black;stroke-width:1" />
  <polyline points="34.012,333.904 30.012,333.904" style="fill:none;stroke:black;stroke-width:1" />
  <polyline points="34.012,319.479 30.012,319.479" style="fill:none;stroke:black;stroke-width:1" />
  <polyline points="34.012,290.6291 30.012,290.6291" style="fill:none;stroke:black;stroke-width:1" />
  <polyline points="34.012,276.2041 30.012,276.2041" style="fill:none;stroke:black;stroke-width:1" />
  <polyline points="34.012,261.7792 30.012,261.7792" style="fill:none;stroke:black;stroke-width:1" />
  <polyline points="34.012,247.3542 30.012,247.3542" style="fill:none;stroke:black;stroke-width:1" />
  <polyline points="34.012,218.5043 30.012,218.5043" style="fill:none;stroke:black;stroke-width:1" />
  <polyline points="34.012,204.0794 30.012,204.0794" style="fill:none;stroke:black;stroke-width:1" />
  <polyline points="34.012,189.6544 30.012,189.6544" style="fill:none;stroke:black;stroke-width:1" />
  <polyline points="34.012,175.2295 30.012,175.2295" style="fill:none;stroke:black;stroke-width:1" />
  <polyline points="34.012,146.3796 30.012,146.3796" style="fill:none;stroke:black;stroke-width:1" />
  <polyline points="34.012,131.9546 30.012,131.9546" style="fill:none;stroke:black;stroke-width:1" />
  <polyline points="34.012,117.5297 30.012,117.5297" style="fill:none;stroke:black;stroke-width:1" />
  <polyline points="34.012,103.1047 30.012,103.1047" style="fill:none;stroke:black;stroke-width:1" />
  <polyline points="34.012,74.2548 30.012,74.2548" style="fill:none;stroke:black;stroke-width:1" />
  <polyline points="34.012,59.8299 30.012,59.8299" style="fill:none;stroke:black;stroke-width:1" />
  <polyline points="34.012,45.4049 30.012,45.4049" style="fill:none;stroke:black;stroke-width:1" />
  <polyline points="34.012,30.98 30.012,30.98" style="fill:none;stroke:black;stroke-width:1" />
  <text dominant-baseline="middle" text-anchor="end" transform="translate(23.012,305.0541)" font-family="Segoe UI" font-size="12" font-weight="400" fill="black">50</text>
  <text dominant-baseline="middle" text-anchor="end" transform="translate(23.012,232.9293)" font-family="Segoe UI" font-size="12" font-weight="400" fill="black">100</text>
  <text dominant-baseline="middle" text-anchor="end" transform="translate(23.012,160.8045)" font-family="Segoe UI" font-size="12" font-weight="400" fill="black">150</text>
  <text dominant-baseline="middle" text-anchor="end" transform="translate(23.012,88.6798)" font-family="Segoe UI" font-size="12" font-weight="400" fill="black">200</text>
  <polyline points="34.012,305.0541 27.012,305.0541" style="fill:none;stroke:black;stroke-width:1" />
  <polyline points="34.012,232.9293 27.012,232.9293" style="fill:none;stroke:black;stroke-width:1" />
  <polyline points="34.012,160.8045 27.012,160.8045" style="fill:none;stroke:black;stroke-width:1" />
  <polyline points="34.012,88.6798 27.012,88.6798" style="fill:none;stroke:black;stroke-width:1" />
  <text dominant-baseline="hanging" text-anchor="middle" transform="translate(68.2282,381.947)" font-family="Segoe UI" font-size="12" font-weight="400" fill="black">01. September</text>
  <text dominant-baseline="hanging" text-anchor="middle" transform="translate(147.1888,381.947)" font-family="Segoe UI" font-size="12" font-weight="400" fill="black">01. October</text>
  <text dominant-baseline="hanging" text-anchor="middle" transform="translate(228.7814,381.947)" font-family="Segoe UI" font-size="12" font-weight="400" fill="black">01. November</text>
  <text dominant-baseline="hanging" text-anchor="middle" transform="translate(307.742,381.947)" font-family="Segoe UI" font-size="12" font-weight="400" fill="black">01. December</text>
  <text dominant-baseline="hanging" text-anchor="middle" transform="translate(389.3345,381.947)" font-family="Segoe UI" font-size="12" font-weight="400" fill="black">01. January</text>
  <text dominant-baseline="hanging" text-anchor="middle" transform="translate(470.9271,381.947)" font-family="Segoe UI" font-size="12" font-weight="400" fill="black">01. February</text>
  <text dominant-baseline="hanging" text-anchor="middle" transform="translate(544.6237,381.947)" font-family="Segoe UI" font-size="12" font-weight="400" fill="black">01. March</text>
  <polyline points="68.2282,370.947 68.2282,377.947" style="fill:none;stroke:black;stroke-width:1" />
  <polyline points="147.1888,370.947 147.1888,377.947" style="fill:none;stroke:black;stroke-width:1" />
  <polyline points="228.7814,370.947 228.7814,377.947" style="fill:none;stroke:black;stroke-width:1" />
  <polyline points="307.742,370.947 307.742,377.947" style="fill:none;stroke:black;stroke-width:1" />
  <polyline points="389.3345,370.947 389.3345,377.947" style="fill:none;stroke:black;stroke-width:1" />
  <polyline points="470.9271,370.947 470.9271,377.947" style="fill:none;stroke:black;stroke-width:1" />
  <polyline points="544.6237,370.947 544.6237,377.947" style="fill:none;stroke:black;stroke-width:1" />
  <polyline points="34.012,356.8142 36.644,356.3899 39.276,362.471 47.1721,358.5112 49.8041,362.471 52.4361,363.0367 55.0682,363.6024 57.7002,362.471 65.5962,366.9965 68.2282,365.2994 70.8603,365.8651 73.4923,365.2994 76.1243,365.2994 84.0204,365.8651 86.6524,367.5622 89.2844,365.8651 91.9164,365.2994 94.5484,363.0367 102.4445,356.8142 105.0765,352.2887 107.7085,347.1975 110.3405,346.6319 112.9726,342.1064 120.8686,347.7632 123.5006,348.3289 126.1327,352.2887 128.7647,350.5916 131.3967,351.723 139.2928,335.8838 141.9248,336.4495 144.5568,335.3182 147.1888,325.1358 149.8208,319.479 157.7169,312.6908 160.3489,313.8222 162.9809,305.9026 165.6129,304.7528 168.245,307.6498 176.141,292.5852 178.773,290.847 181.4051,285.6323 184.0371,275.2029 186.6691,253.1854 194.5652,230.5885 197.1972,225.9532 199.8292,221.8974 202.4612,202.7769 205.0932,202.1975 212.9893,137.3037 215.6213,132.0891 218.2533,129.192 220.8853,131.5096 223.5174,98.4834 231.4134,118.1833 234.0454,107.7539 236.6775,108.9127 239.3095,101.3804 241.9415,119.3421 249.8375,90.9511 252.4696,84.5776 255.1016,58.5042 260.3656,32.4308 268.2617,61.4012 270.8937,75.8864 273.5257,84.5776 276.1577,65.3847 278.7898,120.5009 286.6858,167.433 289.3178,150.6301 291.9498,153.5272 294.5819,208.571 297.2139,185.974 305.1099,188.8711 307.742,213.7856 310.374,225.9532 313.006,198.1416 315.638,202.1975 323.5341,179.0211 326.1661,181.3388 328.7981,179.6005 331.4301,151.2095 334.0622,173.2271 341.9582,154.1066 344.5902,144.2566 347.2222,132.6685 349.8543,145.4155 352.4863,134.4067 360.3823,116.445 363.0144,117.0244 365.6464,140.7802 378.8065,157.0036 381.4385,154.686 384.0705,134.4067 386.7025,136.3622 397.2306,211.468 399.8626,235.2238 402.4946,250.8678 405.1267,236.962 407.7587,215.9584 418.2868,192.9269 420.9188,195.2446 423.5508,217.2621 426.1828,247.3913 434.0789,255.9086 436.7109,275.7823 439.3429,267.0912 441.9749,285.0529 444.6069,285.6323 452.503,272.3059 457.767,279.8382 460.3991,259.5589 463.0311,247.9707 470.9271,264.1942 473.5592,278.3173 476.1912,272.3059 478.8232,279.8382 481.4552,290.847 489.3513,293.744 491.9833,290.847 494.6153,275.2029 497.2473,276.3617 499.8793,269.4088 507.7754,283.8941 510.4074,285.6323 513.0394,306.491 515.6715,313.4439 518.3035,329.6673 526.1995,329.6673 528.8315,330.8261 531.4636,321.5556 534.0956,322.135 536.7276,317.4997 544.6237,329.0879 547.2557,327.9291 549.8877,323.8732 552.5197,300.6969 555.1517,294.9028 563.0478,265.353 565.6798,265.353 568.3118,263.6148 570.9438,278.6794 573.5759,272.3059 581.4719,261.8765 584.1039,262.4559 586.736,254.9236 589.368,226.5326 592,208.571" style="fill:none;stroke:rgb(31,119,180);stroke-width:2;stroke-linejoin:bevel" />
  <text dominant-baseline="hanging" text-anchor="middle" transform="translate(313.006,8)" font-family="Segoe UI" font-size="18" font-weight="700" fill="black">7-Tage-Inzidenz Stadt Aachen 19.03.2021</text>
  <polygon points="34.012,29.0795 592,29.0795 592,370.947 34.012,370.947" style="fill:none;stroke:black;stroke-width:1" />
  <polygon points="42.012,37.0795 247.014,37.0795 247.014,63.1325 42.012,63.1325" style="fill:none;stroke:none;" />
  <text dominant-baseline="hanging" text-anchor="start" transform="translate(70.012,45.0795)" font-family="Segoe UI" font-size="12" font-weight="400" fill="black">7-Tage-Inzidenz Stadt Aachen 19.03.2021</text>
  <polyline points="50.012,50.106 66.012,50.106" style="fill:none;stroke:rgb(31,119,180);stroke-width:2" />
</svg>