<?xml version="1.0" encoding="utf-8" standalone="no"?>
<!DOCTYPE svg PUBLIC "-//W3C//DTD SVG 1.1//EN" "http://www.w3.org/Graphics/SVG/1.1/DTD/svg11.dtd">
<svg width="600" height="400" version="1.1" xmlns:xlink="http://www.w3.org/1999/xlink" xmlns="http://www.w3.org/2000/svg">
  <rect x="0" y="0" width="600" height="400" style="fill:rgb(255,255,255);stroke:none;" />
  <polyline points="34.012,353.4851 30.012,353.4851" style="fill:none;stroke:black;stroke-width:1" />
  <polyline points="34.012,339.4649 30.012,339.4649" style="fill:none;stroke:black;stroke-width:1" />
  <polyline points="34.012,325.4447 30.012,325.4447" style="fill:none;stroke:black;stroke-width:1" />
  <polyline points="34.012,311.4245 30.012,311.4245" style="fill:none;stroke:black;stroke-width:1" />
  <polyline points="34.012,283.3841 30.012,283.3841" style="fill:none;stroke:black;stroke-width:1" />
  <polyline points="34.012,269.3639 30.012,269.3639" style="fill:none;stroke:black;stroke-width:1" />
  <polyline points="34.012,255.3438 30.012,255.3438" style="fill:none;stroke:black;stroke-width:1" />
  <polyline points="34.012,241.3236 30.012,241.3236" style="fill:none;stroke:black;stroke-width:1" />
  <polyline points="34.012,213.2832 30.012,213.2832" style="fill:none;stroke:black;stroke-width:1" />
  <polyline points="34.012,199.263 30.012,199.263" style="fill:none;stroke:black;stroke-width:1" />
  <polyline points="34.012,185.2428 30.012,185.2428" style="fill:none;stroke:black;stroke-width:1" />
  <polyline points="34.012,171.2226 30.012,171.2226" style="fill:none;stroke:black;stroke-width:1" />
  <polyline points="34.012,143.1822 30.012,143.1822" style="fill:none;stroke:black;stroke-width:1" />
  <polyline points="34.012,129.162 30.012,129.162" style="fill:none;stroke:black;stroke-width:1" />
  <polyline points="34.012,115.1418 30.012,115.1418" style="fill:none;stroke:black;stroke-width:1" />
  <polyline points="34.012,101.1216 30.012,101.1216" style="fill:none;stroke:black;stroke-width:1" />
  <polyline points="34.012,73.0813 30.012,73.0813" style="fill:none;stroke:black;stroke-width:1" />
  <polyline points="34.012,59.0611 30.012,59.0611" style="fill:none;stroke:black;stroke-width:1" />
  <polyline points="34.012,45.0409 30.012,45.0409" style="fill:none;stroke:black;stroke-width:1" />
  <polyline points="34.012,31.0207 30.012,31.0207" style="fill:none;stroke:black;stroke-width:1" />
  <text dominant-baseline="middle" text-anchor="end" transform="translate(23.012,367.5053)" font-family="Segoe UI" font-size="12" font-weight="400" fill="black">0</text>
  <text dominant-baseline="middle" text-anchor="end" transform="translate(23.012,297.4043)" font-family="Segoe UI" font-size="12" font-weight="400" fill="black">50</text>
  <text dominant-baseline="middle" text-anchor="end" transform="translate(23.012,227.3034)" font-family="Segoe UI" font-size="12" font-weight="400" fill="black">100</text>
  <text dominant-baseline="middle" text-anchor="end" transform="translate(23.012,157.2024)" font-family="Segoe UI" font-size="12" font-weight="400" fill="black">150</text>
  <text dominant-baseline="middle" text-anchor="end" transform="translate(23.012,87.1015)" font-family="Segoe UI" font-size="12" font-weight="400" fill="black">200</text>
  <polyline points="34.012,367.5053 27.012,367.5053" style="fill:none;stroke:black;stroke-width:1" />
  <polyline points="34.012,297.4043 27.012,297.4043" style="fill:none;stroke:black;stroke-width:1" />
  <polyline points="34.012,227.3034 27.012,227.3034" style="fill:none;stroke:black;stroke-width:1" />
  <polyline points="34.012,157.2024 27.012,157.2024" style="fill:none;stroke:black;stroke-width:1" />
  <polyline points="34.012,87.1015 27.012,87.1015" style="fill:none;stroke:black;stroke-width:1" />
  <text dominant-baseline="hanging" text-anchor="middle" transform="translate(207.3912,381.947)" font-family="Segoe UI" font-size="12" font-weight="400" fill="black">01. January</text>
  <polyline points="207.3912,370.947 207.3912,377.947" style="fill:none;stroke:black;stroke-width:1" />
  <polyline points="34.012,367.5622 36.454,367.5621 40.1169,367.5621 41.3379,367.562 42.5589,347.7121 43.7798,347.2997 45.0008,353.2102 48.6638,349.3615 49.8847,353.2102 51.1057,353.76 52.3267,354.3098 53.5477,353.2102 57.2106,357.6087 58.4316,355.9593 59.6526,356.5091 60.8736,355.9593 62.0945,355.9593 65.7575,356.5091 66.9785,358.1585 68.1994,356.5091 69.4204,355.9593 70.6414,353.76 74.3044,347.7121 75.5253,343.3136 76.7463,338.3653 77.9673,337.8155 79.1883,333.417 82.8512,338.9151 84.0722,339.4649 85.2932,343.3136 86.5142,341.6642 87.7351,342.7638 91.3981,327.3691 92.6191,327.9189 93.84,326.8192 95.061,316.9226 96.282,311.4245 99.9449,304.8268 101.1659,305.9264 102.3869,298.229 103.6079,297.1115 104.8289,299.9272 108.4918,285.2853 109.7128,283.5959 110.9338,278.5275 112.1547,268.3908 113.3757,246.9911 117.0387,225.0282 118.2596,220.523 119.4806,216.581 120.7016,197.997 121.9226,197.4339 125.5855,134.361 126.8065,129.2927 128.0275,126.4769 129.2485,128.7295 130.4694,96.63 134.1324,115.7771 135.3534,105.6404 136.5743,106.7667 137.7953,99.4457 139.0163,116.9034 142.6792,89.309 143.9002,83.1143 145.1212,57.7726 147.5632,32.4308 151.2261,60.5883 152.4471,74.6671 153.6681,83.1143 154.8891,64.46 156.11,118.0297 159.773,163.6449 160.994,147.3135 162.2149,150.1292 163.4359,203.6285 164.6569,181.6657 168.3198,184.4814 169.5408,208.6969 170.7618,220.523 171.9828,193.4918 173.2038,197.4339 176.8667,174.9079 178.0877,177.1605 179.3087,175.471 180.5296,147.8766 181.7506,169.2764 185.4136,150.6924 186.6345,141.1188 187.8555,129.8558 189.0765,142.2451 190.2975,131.5453 193.9604,114.0876 195.1814,114.6508 196.4024,137.7399 202.5073,153.5081 203.7283,151.2555 204.9492,131.5453 206.1702,133.4459 211.0541,206.4443 212.2751,229.5334 213.4961,244.7385 214.7171,231.2229 215.9381,210.8087 220.822,188.4235 222.043,190.6761 223.2639,212.0758 224.4849,241.3596 228.1479,249.6379 229.3688,268.954 230.5898,260.5067 231.8108,277.9644 233.0318,278.5275 236.6947,265.5751 239.1367,272.896 240.3577,253.1858 241.5787,241.9228 245.2416,257.691 246.4626,271.4178 247.6836,265.5751 248.9045,272.896 250.1255,283.5959 253.7885,286.4116 255.0094,283.5959 256.2304,268.3908 257.4514,269.5171 258.6724,262.7593 262.3353,276.8381 263.5563,278.5275 264.7773,298.8009 265.9983,305.5587 267.2192,321.327 270.8822,321.327 272.1032,322.4533 273.3241,313.4429 274.5451,314.006 275.7661,309.5008 279.429,320.7638 280.65,319.6375 281.871,315.6955 283.092,293.1694 284.313,287.5379 287.9759,258.8173 289.1969,258.8173 290.4179,257.1278 291.6388,271.7697 292.8598,265.5751 296.5228,255.4384 297.7437,256.0015 298.9647,248.6806 300.1857,221.0862 301.4067,203.6285 305.0696,195.7444 306.2906,195.1813 307.5116,199.6865 308.7326,188.4235 309.9535,200.8128 313.6165,218.8336 314.8375,215.4547 316.0585,222.2125 317.2794,237.9807 318.5004,213.2021 323.3843,200.2496 324.6053,214.8915 325.8263,196.8707 327.0473,229.5334 330.7102,220.4667 331.9312,210.9495 333.1522,164.208 334.3732,184.4814 335.5941,180.5394 339.2571,172.0921 340.4781,153.5081 341.699,158.5765 342.92,145.0609 344.141,121.4086 347.8039,102.8246 349.0249,118.5928 350.2459,132.6716 351.4669,127.0401 352.6879,129.8558 356.3508,155.1976 357.5718,143.3714 358.7928,137.1768 360.0137,169.8395 361.2347,189.5498 364.8977,199.1233 366.1186,208.1337 367.3396,220.523 369.7816,188.9866 373.4445,191.8024 374.6655,177.7236 375.8865,172.0921 377.1075,176.3157 378.3284,210.9495 383.2124,257.691 384.4333,281.9064 385.6543,291.48 386.8753,294.8589 390.5382,302.4614 391.7592,307.2482 392.9802,306.1219 395.4222,326.3953 399.0851,341.6004 400.3061,346.6687 401.5271,351.1739 402.7481,350.2588 403.969,355.6791 407.632,358.4949 408.853,357.3686 410.0739,357.3686 411.2949,356.2423 412.5159,353.4265 416.1788,353.4265 417.3998,352.8634 418.6208,356.2423 419.8418,359.6212 421.0628,361.3106 424.7257,360.7475 425.9467,362.4369 427.1677,359.058 428.3886,355.6791 429.6096,356.8054 433.2726,356.8054 435.7145,357.3686 438.1565,359.6212 441.8194,360.7475 444.2614,353.9897 446.7033,343.2898 452.8082,332.0268 455.2502,317.9481 461.3551,316.2586 463.7971,329.7742 469.902,329.2111 472.3439,323.0164 478.4488,294.8589 480.8908,262.7593 486.9957,253.7489 489.4377,268.3908 495.5426,201.3759 497.9845,191.8024 504.0894,233.4755 506.5314,222.2125 515.0782,240.2333 523.6251,272.896 529.73,284.7222 532.172,290.9168 538.2769,295.422 540.7188,306.6851 546.8237,321.8901 549.2657,321.8901 555.3706,321.327 557.8126,320.7638 563.9175,320.7638 566.3594,302.743 572.4643,266.1382 574.9063,229.5334 581.0112,220.523 583.4531,201.3759 589.558,125.3506 592,97.1931" style="fill:none;stroke:rgb(31,119,180);stroke-width:2;stroke-linejoin:bevel" />
  <text dominant-baseline="hanging" text-anchor="middle" transform="translate(313.006,8)" font-family="Segoe UI" font-size="18" font-weight="700" fill="black">7-Tage-Inzidenz Stadt Aachen 12.11.2021</text>
  <polygon points="34.012,29.0795 592,29.0795 592,370.947 34.012,370.947" style="fill:none;stroke:black;stroke-width:1" />
  <polygon points="42.012,37.0795 247.014,37.0795 247.014,63.1325 42.012,63.1325" style="fill:none;stroke:none;" />
  <text dominant-baseline="hanging" text-anchor="start" transform="translate(70.012,45.0795)" font-family="Segoe UI" font-size="12" font-weight="400" fill="black">7-Tage-Inzidenz Stadt Aachen 12.11.2021</text>
  <polyline points="50.012,50.106 66.012,50.106" style="fill:none;stroke:rgb(31,119,180);stroke-width:2" />
</svg>