<?xml version="1.0" encoding="utf-8" standalone="no"?>
<!DOCTYPE svg PUBLIC "-//W3C//DTD SVG 1.1//EN" "http://www.w3.org/Graphics/SVG/1.1/DTD/svg11.dtd">
<svg width="600" height="400" version="1.1" xmlns:xlink="http://www.w3.org/1999/xlink" xmlns="http://www.w3.org/2000/svg">
  <rect x="0" y="0" width="600" height="400" style="fill:rgb(255,255,255);stroke:none;" />
  <polyline points="34.012,362.7539 30.012,362.7539" style="fill:none;stroke:black;stroke-width:1" />
  <polyline points="34.012,348.3289 30.012,348.3289" style="fill:none;stroke:black;stroke-width:1" />
  <polyline points="34.012,333.904 30.012,333.904" style="fill:none;stroke:black;stroke-width:1" />
  <polyline points="34.012,319.479 30.012,319.479" style="fill:none;stroke:black;stroke-width:1" />
  <polyline points="34.012,290.6291 30.012,290.6291" style="fill:none;stroke:black;stroke-width:1" />
  <polyline points="34.012,276.2041 30.012,276.2041" style="fill:none;stroke:black;stroke-width:1" />
  <polyline points="34.012,261.7792 30.012,261.7792" style="fill:none;stroke:black;stroke-width:1" />
  <polyline points="34.012,247.3542 30.012,247.3542" style="fill:none;stroke:black;stroke-width:1" />
  <polyline points="34.012,218.5043 30.012,218.5043" style="fill:none;stroke:black;stroke-width:1" />
  <polyline points="34.012,204.0794 30.012,204.0794" style="fill:none;stroke:black;stroke-width:1" />
  <polyline points="34.012,189.6544 30.012,189.6544" style="fill:none;stroke:black;stroke-width:1" />
  <polyline points="34.012,175.2295 30.012,175.2295" style="fill:none;stroke:black;stroke-width:1" />
  <polyline points="34.012,146.3796 30.012,146.3796" style="fill:none;stroke:black;stroke-width:1" />
  <polyline points="34.012,131.9546 30.012,131.9546" style="fill:none;stroke:black;stroke-width:1" />
  <polyline points="34.012,117.5297 30.012,117.5297" style="fill:none;stroke:black;stroke-width:1" />
  <polyline points="34.012,103.1047 30.012,103.1047" style="fill:none;stroke:black;stroke-width:1" />
  <polyline points="34.012,74.2548 30.012,74.2548" style="fill:none;stroke:black;stroke-width:1" />
  <polyline points="34.012,59.8299 30.012,59.8299" style="fill:none;stroke:black;stroke-width:1" />
  <polyline points="34.012,45.4049 30.012,45.4049" style="fill:none;stroke:black;stroke-width:1" />
  <polyline points="34.012,30.98 30.012,30.98" style="fill:none;stroke:black;stroke-width:1" />
  <text dominant-baseline="middle" text-anchor="end" transform="translate(23.012,305.0541)" font-family="Segoe UI" font-size="12" font-weight="400" fill="black">50</text>
  <text dominant-baseline="middle" text-anchor="end" transform="translate(23.012,232.9293)" font-family="Segoe UI" font-size="12" font-weight="400" fill="black">100</text>
  <text dominant-baseline="middle" text-anchor="end" transform="translate(23.012,160.8045)" font-family="Segoe UI" font-size="12" font-weight="400" fill="black">150</text>
  <text dominant-baseline="middle" text-anchor="end" transform="translate(23.012,88.6798)" font-family="Segoe UI" font-size="12" font-weight="400" fill="black">200</text>
  <polyline points="34.012,305.0541 27.012,305.0541" style="fill:none;stroke:black;stroke-width:1" />
  <polyline points="34.012,232.9293 27.012,232.9293" style="fill:none;stroke:black;stroke-width:1" />
  <polyline points="34.012,160.8045 27.012,160.8045" style="fill:none;stroke:black;stroke-width:1" />
  <polyline points="34.012,88.6798 27.012,88.6798" style="fill:none;stroke:black;stroke-width:1" />
  <text dominant-baseline="hanging" text-anchor="middle" transform="translate(74.9942,381.947)" font-family="Segoe UI" font-size="12" font-weight="400" fill="black">01. September</text>
  <text dominant-baseline="hanging" text-anchor="middle" transform="translate(169.5684,381.947)" font-family="Segoe UI" font-size="12" font-weight="400" fill="black">01. October</text>
  <text dominant-baseline="hanging" text-anchor="middle" transform="translate(267.2951,381.947)" font-family="Segoe UI" font-size="12" font-weight="400" fill="black">01. November</text>
  <text dominant-baseline="hanging" text-anchor="middle" transform="translate(361.8694,381.947)" font-family="Segoe UI" font-size="12" font-weight="400" fill="black">01. December</text>
  <text dominant-baseline="hanging" text-anchor="middle" transform="translate(459.5961,381.947)" font-family="Segoe UI" font-size="12" font-weight="400" fill="black">01. January</text>
  <text dominant-baseline="hanging" text-anchor="middle" transform="translate(557.3228,381.947)" font-family="Segoe UI" font-size="12" font-weight="400" fill="black">01. February</text>
  <polyline points="74.9942,370.947 74.9942,377.947" style="fill:none;stroke:black;stroke-width:1" />
  <polyline points="169.5684,370.947 169.5684,377.947" style="fill:none;stroke:black;stroke-width:1" />
  <polyline points="267.2951,370.947 267.2951,377.947" style="fill:none;stroke:black;stroke-width:1" />
  <polyline points="361.8694,370.947 361.8694,377.947" style="fill:none;stroke:black;stroke-width:1" />
  <polyline points="459.5961,370.947 459.5961,377.947" style="fill:none;stroke:black;stroke-width:1" />
  <polyline points="557.3228,370.947 557.3228,377.947" style="fill:none;stroke:black;stroke-width:1" />
  <polyline points="34.012,356.8142 37.1645,356.3899 40.3169,362.471 49.7744,358.5112 52.9268,362.471 56.0793,363.0367 59.2318,363.6024 62.3843,362.471 71.8417,366.9965 74.9942,365.2994 78.1466,365.8651 81.2991,365.2994 84.4516,365.2994 93.909,365.8651 97.0615,367.5622 100.214,365.8651 103.3664,365.2994 106.5189,363.0367 115.9763,356.8142 119.1288,352.2887 122.2813,347.1975 125.4338,346.6319 128.5862,342.1064 138.0437,347.7632 141.1961,348.3289 144.3486,352.2887 147.5011,350.5916 150.6536,351.723 160.111,335.8838 163.2635,336.4495 166.4159,335.3182 169.5684,325.1358 172.7209,319.479 182.1783,312.6908 185.3308,313.8222 188.4833,305.9026 191.6357,304.7528 194.7882,307.6498 204.2456,292.5852 207.3981,290.847 210.5506,285.6323 213.7031,275.2029 216.8555,253.1854 226.3129,230.5885 229.4654,225.9532 232.6179,221.8974 235.7704,202.7769 238.9228,202.1975 248.3803,137.3037 251.5327,132.0891 254.6852,129.192 257.8377,131.5096 260.9902,98.4834 270.4476,118.1833 273.6001,107.7539 276.7525,108.9127 279.905,101.3804 283.0575,119.3421 292.5149,90.9511 295.6674,84.5776 298.8199,58.5042 305.1248,32.4308 314.5822,61.4012 317.7347,75.8864 320.8872,84.5776 324.0397,65.3847 327.1921,120.5009 336.6496,167.433 339.802,150.6301 342.9545,153.5272 346.107,208.571 349.2595,185.974 358.7169,188.8711 361.8694,213.7856 365.0218,225.9532 368.1743,198.1416 371.3268,202.1975 380.7842,179.0211 383.9367,181.3388 387.0892,179.6005 390.2416,151.2095 393.3941,173.2271 402.8515,154.1066 406.004,144.2566 409.1565,132.6685 412.3089,145.4155 415.4614,134.4067 424.9188,116.445 428.0713,117.0244 431.2238,140.7802 446.9862,157.0036 450.1386,154.686 453.2911,134.4067 456.4436,136.3622 469.0535,211.468 472.206,235.2238 475.3584,250.8678 478.5109,236.962 481.6634,215.9584 494.2733,192.9269 497.4258,195.2446 500.5782,217.2621 503.7307,247.3913 513.1881,255.9086 516.3406,275.7823 519.4931,267.0912 522.6456,285.0529 525.798,285.6323 535.2555,272.3059 541.5604,279.8382 544.7129,259.5589 547.8654,247.9707 557.3228,264.1942 560.4753,278.3173 563.6277,272.3059 566.7802,279.8382 569.9327,290.847 579.3901,293.744 582.5426,290.847 585.6951,275.2029 588.8475,276.3617 592,269.4088" style="fill:none;stroke:rgb(31,119,180);stroke-width:2;stroke-linejoin:bevel" />
  <text dominant-baseline="hanging" text-anchor="middle" transform="translate(313.006,8)" font-family="Segoe UI" font-size="18" font-weight="700" fill="black">7-Tage-Inzidenz Stadt Aachen 12.02.2021</text>
  <polygon points="34.012,29.0795 592,29.0795 592,370.947 34.012,370.947" style="fill:none;stroke:black;stroke-width:1" />
  <polygon points="42.012,37.0795 247.014,37.0795 247.014,63.1325 42.012,63.1325" style="fill:none;stroke:none;" />
  <text dominant-baseline="hanging" text-anchor="start" transform="translate(70.012,45.0795)" font-family="Segoe UI" font-size="12" font-weight="400" fill="black">7-Tage-Inzidenz Stadt Aachen 12.02.2021</text>
  <polyline points="50.012,50.106 66.012,50.106" style="fill:none;stroke:rgb(31,119,180);stroke-width:2" />
</svg>