<?xml version="1.0" encoding="utf-8" standalone="no"?>
<!DOCTYPE svg PUBLIC "-//W3C//DTD SVG 1.1//EN" "http://www.w3.org/Graphics/SVG/1.1/DTD/svg11.dtd">
<svg width="600" height="400" version="1.1" xmlns:xlink="http://www.w3.org/1999/xlink" xmlns="http://www.w3.org/2000/svg">
  <rect x="0" y="0" width="600" height="400" style="fill:rgb(255,255,255);stroke:none;" />
  <polyline points="34.012,362.7539 30.012,362.7539" style="fill:none;stroke:black;stroke-width:1" />
  <polyline points="34.012,348.3289 30.012,348.3289" style="fill:none;stroke:black;stroke-width:1" />
  <polyline points="34.012,333.904 30.012,333.904" style="fill:none;stroke:black;stroke-width:1" />
  <polyline points="34.012,319.479 30.012,319.479" style="fill:none;stroke:black;stroke-width:1" />
  <polyline points="34.012,290.6291 30.012,290.6291" style="fill:none;stroke:black;stroke-width:1" />
  <polyline points="34.012,276.2041 30.012,276.2041" style="fill:none;stroke:black;stroke-width:1" />
  <polyline points="34.012,261.7792 30.012,261.7792" style="fill:none;stroke:black;stroke-width:1" />
  <polyline points="34.012,247.3542 30.012,247.3542" style="fill:none;stroke:black;stroke-width:1" />
  <polyline points="34.012,218.5043 30.012,218.5043" style="fill:none;stroke:black;stroke-width:1" />
  <polyline points="34.012,204.0794 30.012,204.0794" style="fill:none;stroke:black;stroke-width:1" />
  <polyline points="34.012,189.6544 30.012,189.6544" style="fill:none;stroke:black;stroke-width:1" />
  <polyline points="34.012,175.2295 30.012,175.2295" style="fill:none;stroke:black;stroke-width:1" />
  <polyline points="34.012,146.3796 30.012,146.3796" style="fill:none;stroke:black;stroke-width:1" />
  <polyline points="34.012,131.9546 30.012,131.9546" style="fill:none;stroke:black;stroke-width:1" />
  <polyline points="34.012,117.5297 30.012,117.5297" style="fill:none;stroke:black;stroke-width:1" />
  <polyline points="34.012,103.1047 30.012,103.1047" style="fill:none;stroke:black;stroke-width:1" />
  <polyline points="34.012,74.2548 30.012,74.2548" style="fill:none;stroke:black;stroke-width:1" />
  <polyline points="34.012,59.8299 30.012,59.8299" style="fill:none;stroke:black;stroke-width:1" />
  <polyline points="34.012,45.4049 30.012,45.4049" style="fill:none;stroke:black;stroke-width:1" />
  <polyline points="34.012,30.98 30.012,30.98" style="fill:none;stroke:black;stroke-width:1" />
  <text dominant-baseline="middle" text-anchor="end" transform="translate(23.012,305.0541)" font-family="Segoe UI" font-size="12" font-weight="400" fill="black">50</text>
  <text dominant-baseline="middle" text-anchor="end" transform="translate(23.012,232.9293)" font-family="Segoe UI" font-size="12" font-weight="400" fill="black">100</text>
  <text dominant-baseline="middle" text-anchor="end" transform="translate(23.012,160.8045)" font-family="Segoe UI" font-size="12" font-weight="400" fill="black">150</text>
  <text dominant-baseline="middle" text-anchor="end" transform="translate(23.012,88.6798)" font-family="Segoe UI" font-size="12" font-weight="400" fill="black">200</text>
  <polyline points="34.012,305.0541 27.012,305.0541" style="fill:none;stroke:black;stroke-width:1" />
  <polyline points="34.012,232.9293 27.012,232.9293" style="fill:none;stroke:black;stroke-width:1" />
  <polyline points="34.012,160.8045 27.012,160.8045" style="fill:none;stroke:black;stroke-width:1" />
  <polyline points="34.012,88.6798 27.012,88.6798" style="fill:none;stroke:black;stroke-width:1" />
  <text dominant-baseline="hanging" text-anchor="middle" transform="translate(64.2364,381.947)" font-family="Segoe UI" font-size="12" font-weight="400" fill="black">01. September</text>
  <text dominant-baseline="hanging" text-anchor="middle" transform="translate(133.9849,381.947)" font-family="Segoe UI" font-size="12" font-weight="400" fill="black">01. October</text>
  <text dominant-baseline="hanging" text-anchor="middle" transform="translate(206.0583,381.947)" font-family="Segoe UI" font-size="12" font-weight="400" fill="black">01. November</text>
  <text dominant-baseline="hanging" text-anchor="middle" transform="translate(275.8068,381.947)" font-family="Segoe UI" font-size="12" font-weight="400" fill="black">01. December</text>
  <text dominant-baseline="hanging" text-anchor="middle" transform="translate(347.8803,381.947)" font-family="Segoe UI" font-size="12" font-weight="400" fill="black">01. January</text>
  <text dominant-baseline="hanging" text-anchor="middle" transform="translate(419.9537,381.947)" font-family="Segoe UI" font-size="12" font-weight="400" fill="black">01. February</text>
  <text dominant-baseline="hanging" text-anchor="middle" transform="translate(485.0523,381.947)" font-family="Segoe UI" font-size="12" font-weight="400" fill="black">01. March</text>
  <text dominant-baseline="hanging" text-anchor="middle" transform="translate(557.1258,381.947)" font-family="Segoe UI" font-size="12" font-weight="400" fill="black">01. April</text>
  <polyline points="64.2364,370.947 64.2364,377.947" style="fill:none;stroke:black;stroke-width:1" />
  <polyline points="133.9849,370.947 133.9849,377.947" style="fill:none;stroke:black;stroke-width:1" />
  <polyline points="206.0583,370.947 206.0583,377.947" style="fill:none;stroke:black;stroke-width:1" />
  <polyline points="275.8068,370.947 275.8068,377.947" style="fill:none;stroke:black;stroke-width:1" />
  <polyline points="347.8803,370.947 347.8803,377.947" style="fill:none;stroke:black;stroke-width:1" />
  <polyline points="419.9537,370.947 419.9537,377.947" style="fill:none;stroke:black;stroke-width:1" />
  <polyline points="485.0523,370.947 485.0523,377.947" style="fill:none;stroke:black;stroke-width:1" />
  <polyline points="557.1258,370.947 557.1258,377.947" style="fill:none;stroke:black;stroke-width:1" />
  <polyline points="34.012,356.8142 36.337,356.3899 38.6619,362.471 45.6368,358.5112 47.9617,362.471 50.2867,363.0367 52.6116,363.6024 54.9366,362.471 61.9114,366.9965 64.2364,365.2994 66.5613,365.8651 68.8863,365.2994 71.2112,365.2994 78.1861,365.8651 80.511,367.5622 82.836,365.8651 85.1609,365.2994 87.4859,363.0367 94.4607,356.8142 96.7857,352.2887 99.1106,347.1975 101.4356,346.6319 103.7605,342.1064 110.7354,347.7632 113.0603,348.3289 115.3853,352.2887 117.7102,350.5916 120.0352,351.723 127.01,335.8838 129.335,336.4495 131.6599,335.3182 133.9849,325.1358 136.3098,319.479 143.2847,312.6908 145.6096,313.8222 147.9346,305.9026 150.2595,304.7528 152.5845,307.6498 159.5593,292.5852 161.8843,290.847 164.2092,285.6323 166.5342,275.2029 168.8591,253.1854 175.834,230.5885 178.1589,225.9532 180.4839,221.8974 182.8088,202.7769 185.1338,202.1975 192.1086,137.3037 194.4336,132.0891 196.7585,129.192 199.0835,131.5096 201.4084,98.4834 208.3833,118.1833 210.7082,107.7539 213.0332,108.9127 215.3581,101.3804 217.6831,119.3421 224.6579,90.9511 226.9829,84.5776 229.3078,58.5042 233.9577,32.4308 240.9326,61.4012 243.2575,75.8864 245.5825,84.5776 247.9074,65.3847 250.2324,120.5009 257.2072,167.433 259.5322,150.6301 261.8571,153.5272 264.1821,208.571 266.507,185.974 273.4819,188.8711 275.8068,213.7856 278.1318,225.9532 280.4567,198.1416 282.7817,202.1975 289.7565,179.0211 292.0815,181.3388 294.4064,179.6005 296.7314,151.2095 299.0563,173.2271 306.0312,154.1066 308.3561,144.2566 310.6811,132.6685 313.006,145.4155 315.331,134.4067 322.3058,116.445 324.6308,117.0244 326.9557,140.7802 338.5805,157.0036 340.9054,154.686 343.2304,134.4067 345.5553,136.3622 354.8551,211.468 357.1801,235.2238 359.505,250.8678 361.83,236.962 364.1549,215.9584 373.4547,192.9269 375.7797,195.2446 378.1046,217.2621 380.4296,247.3913 387.4044,255.9086 389.7294,275.7823 392.0543,267.0912 394.3793,285.0529 396.7042,285.6323 403.6791,272.3059 408.329,279.8382 410.6539,259.5589 412.9789,247.9707 419.9537,264.1942 422.2787,278.3173 424.6036,272.3059 426.9286,279.8382 429.2535,290.847 436.2284,293.744 438.5533,290.847 440.8783,275.2029 443.2032,276.3617 445.5282,269.4088 452.503,283.8941 454.828,285.6323 457.1529,306.491 459.4779,313.4439 461.8028,329.6673 468.7777,329.6673 471.1026,330.8261 473.4276,321.5556 475.7525,322.135 478.0775,317.4997 485.0523,329.0879 487.3773,327.9291 489.7022,323.8732 492.0272,300.6969 494.3521,294.9028 501.327,265.353 503.6519,265.353 505.9769,263.6148 508.3018,278.6794 510.6268,272.3059 517.6016,261.8765 519.9266,262.4559 522.2515,254.9236 524.5765,226.5326 526.9014,208.571 533.8763,200.4592 536.2012,199.8798 538.5262,204.5151 540.8511,192.9269 543.1761,205.6739 550.1509,224.215 552.4759,220.7385 554.8008,227.6914 557.1258,243.9149 559.4507,218.4209 568.7505,205.0945 571.0755,220.1591 573.4004,201.6181 575.7254,235.2238 582.7002,225.8953 585.0252,216.1033 587.3501,168.0124 589.6751,188.8711 592,184.8152" style="fill:none;stroke:rgb(31,119,180);stroke-width:2;stroke-linejoin:bevel" />
  <text dominant-baseline="hanging" text-anchor="middle" transform="translate(313.006,8)" font-family="Segoe UI" font-size="18" font-weight="700" fill="black">7-Tage-Inzidenz Stadt Aachen 16.04.2021</text>
  <polygon points="34.012,29.0795 592,29.0795 592,370.947 34.012,370.947" style="fill:none;stroke:black;stroke-width:1" />
  <polygon points="42.012,37.0795 247.014,37.0795 247.014,63.1325 42.012,63.1325" style="fill:none;stroke:none;" />
  <text dominant-baseline="hanging" text-anchor="start" transform="translate(70.012,45.0795)" font-family="Segoe UI" font-size="12" font-weight="400" fill="black">7-Tage-Inzidenz Stadt Aachen 16.04.2021</text>
  <polyline points="50.012,50.106 66.012,50.106" style="fill:none;stroke:rgb(31,119,180);stroke-width:2" />
</svg>