<?xml version="1.0" encoding="utf-8" standalone="no"?>
<!DOCTYPE svg PUBLIC "-//W3C//DTD SVG 1.1//EN" "http://www.w3.org/Graphics/SVG/1.1/DTD/svg11.dtd">
<svg width="600" height="400" version="1.1" xmlns:xlink="http://www.w3.org/1999/xlink" xmlns="http://www.w3.org/2000/svg">
  <rect x="0" y="0" width="600" height="400" style="fill:rgb(255,255,255);stroke:none;" />
  <polyline points="34.012,362.7539 30.012,362.7539" style="fill:none;stroke:black;stroke-width:1" />
  <polyline points="34.012,348.3289 30.012,348.3289" style="fill:none;stroke:black;stroke-width:1" />
  <polyline points="34.012,333.904 30.012,333.904" style="fill:none;stroke:black;stroke-width:1" />
  <polyline points="34.012,319.479 30.012,319.479" style="fill:none;stroke:black;stroke-width:1" />
  <polyline points="34.012,290.6291 30.012,290.6291" style="fill:none;stroke:black;stroke-width:1" />
  <polyline points="34.012,276.2041 30.012,276.2041" style="fill:none;stroke:black;stroke-width:1" />
  <polyline points="34.012,261.7792 30.012,261.7792" style="fill:none;stroke:black;stroke-width:1" />
  <polyline points="34.012,247.3542 30.012,247.3542" style="fill:none;stroke:black;stroke-width:1" />
  <polyline points="34.012,218.5043 30.012,218.5043" style="fill:none;stroke:black;stroke-width:1" />
  <polyline points="34.012,204.0794 30.012,204.0794" style="fill:none;stroke:black;stroke-width:1" />
  <polyline points="34.012,189.6544 30.012,189.6544" style="fill:none;stroke:black;stroke-width:1" />
  <polyline points="34.012,175.2295 30.012,175.2295" style="fill:none;stroke:black;stroke-width:1" />
  <polyline points="34.012,146.3796 30.012,146.3796" style="fill:none;stroke:black;stroke-width:1" />
  <polyline points="34.012,131.9546 30.012,131.9546" style="fill:none;stroke:black;stroke-width:1" />
  <polyline points="34.012,117.5297 30.012,117.5297" style="fill:none;stroke:black;stroke-width:1" />
  <polyline points="34.012,103.1047 30.012,103.1047" style="fill:none;stroke:black;stroke-width:1" />
  <polyline points="34.012,74.2548 30.012,74.2548" style="fill:none;stroke:black;stroke-width:1" />
  <polyline points="34.012,59.8299 30.012,59.8299" style="fill:none;stroke:black;stroke-width:1" />
  <polyline points="34.012,45.4049 30.012,45.4049" style="fill:none;stroke:black;stroke-width:1" />
  <polyline points="34.012,30.98 30.012,30.98" style="fill:none;stroke:black;stroke-width:1" />
  <text dominant-baseline="middle" text-anchor="end" transform="translate(23.012,305.0541)" font-family="Segoe UI" font-size="12" font-weight="400" fill="black">50</text>
  <text dominant-baseline="middle" text-anchor="end" transform="translate(23.012,232.9293)" font-family="Segoe UI" font-size="12" font-weight="400" fill="black">100</text>
  <text dominant-baseline="middle" text-anchor="end" transform="translate(23.012,160.8045)" font-family="Segoe UI" font-size="12" font-weight="400" fill="black">150</text>
  <text dominant-baseline="middle" text-anchor="end" transform="translate(23.012,88.6798)" font-family="Segoe UI" font-size="12" font-weight="400" fill="black">200</text>
  <polyline points="34.012,305.0541 27.012,305.0541" style="fill:none;stroke:black;stroke-width:1" />
  <polyline points="34.012,232.9293 27.012,232.9293" style="fill:none;stroke:black;stroke-width:1" />
  <polyline points="34.012,160.8045 27.012,160.8045" style="fill:none;stroke:black;stroke-width:1" />
  <polyline points="34.012,88.6798 27.012,88.6798" style="fill:none;stroke:black;stroke-width:1" />
  <text dominant-baseline="hanging" text-anchor="middle" transform="translate(75.227,381.947)" font-family="Segoe UI" font-size="12" font-weight="400" fill="black">01. September</text>
  <text dominant-baseline="hanging" text-anchor="middle" transform="translate(170.3386,381.947)" font-family="Segoe UI" font-size="12" font-weight="400" fill="black">01. October</text>
  <text dominant-baseline="hanging" text-anchor="middle" transform="translate(268.6206,381.947)" font-family="Segoe UI" font-size="12" font-weight="400" fill="black">01. November</text>
  <text dominant-baseline="hanging" text-anchor="middle" transform="translate(363.7322,381.947)" font-family="Segoe UI" font-size="12" font-weight="400" fill="black">01. December</text>
  <text dominant-baseline="hanging" text-anchor="middle" transform="translate(462.0142,381.947)" font-family="Segoe UI" font-size="12" font-weight="400" fill="black">01. January</text>
  <text dominant-baseline="hanging" text-anchor="middle" transform="translate(560.2961,381.947)" font-family="Segoe UI" font-size="12" font-weight="400" fill="black">01. February</text>
  <polyline points="75.227,370.947 75.227,377.947" style="fill:none;stroke:black;stroke-width:1" />
  <polyline points="170.3386,370.947 170.3386,377.947" style="fill:none;stroke:black;stroke-width:1" />
  <polyline points="268.6206,370.947 268.6206,377.947" style="fill:none;stroke:black;stroke-width:1" />
  <polyline points="363.7322,370.947 363.7322,377.947" style="fill:none;stroke:black;stroke-width:1" />
  <polyline points="462.0142,370.947 462.0142,377.947" style="fill:none;stroke:black;stroke-width:1" />
  <polyline points="560.2961,370.947 560.2961,377.947" style="fill:none;stroke:black;stroke-width:1" />
  <polyline points="34.012,356.8142 37.1824,356.3899 40.3528,362.471 49.8639,358.5112 53.0343,362.471 56.2047,363.0367 59.3751,363.6024 62.5455,362.471 72.0566,366.9965 75.227,365.2994 78.3974,365.8651 81.5678,365.2994 84.7382,365.2994 94.2493,365.8651 97.4197,367.5622 100.5901,365.8651 103.7605,365.2994 106.9309,363.0367 116.442,356.8142 119.6124,352.2887 122.7828,347.1975 125.9532,346.6319 129.1236,342.1064 138.6348,347.7632 141.8051,348.3289 144.9755,352.2887 148.1459,350.5916 151.3163,351.723 160.8275,335.8838 163.9978,336.4495 167.1682,335.3182 170.3386,325.1358 173.509,319.479 183.0202,312.6908 186.1905,313.8222 189.3609,305.9026 192.5313,304.7528 195.7017,307.6498 205.2129,292.5852 208.3833,290.847 211.5536,285.6323 214.724,275.2029 217.8944,253.1854 227.4056,230.5885 230.576,225.9532 233.7463,221.8974 236.9167,202.7769 240.0871,202.1975 249.5983,137.3037 252.7687,132.0891 255.939,129.192 259.1094,131.5096 262.2798,98.4834 271.791,118.1833 274.9614,107.7539 278.1318,108.9127 281.3021,101.3804 284.4725,119.3421 293.9837,90.9511 297.1541,84.5776 300.3245,58.5042 306.6652,32.4308 316.1764,61.4012 319.3468,75.8864 322.5172,84.5776 325.6875,65.3847 328.8579,120.5009 338.3691,167.433 341.5395,150.6301 344.7099,153.5272 347.8803,208.571 351.0506,185.974 360.5618,188.8711 363.7322,213.7856 366.9026,225.9532 370.073,198.1416 373.2433,202.1975 382.7545,179.0211 385.9249,181.3388 389.0953,179.6005 392.2657,151.2095 395.436,173.2271 404.9472,154.1066 408.1176,144.2566 411.288,132.6685 414.4584,145.4155 417.6288,134.4067 427.1399,116.445 430.3103,117.0244 433.4807,140.7802 449.3326,157.0036 452.503,154.686 455.6734,134.4067 458.8438,136.3622 471.5253,211.468 474.6957,235.2238 477.8661,250.8678 481.0365,236.962 484.2069,215.9584 496.8884,192.9269 500.0588,195.2446 503.2292,217.2621 506.3996,247.3913 515.9107,255.9086 519.0811,275.7823 522.2515,267.0912 525.4219,285.0529 528.5923,285.6323 538.1034,272.3059 544.4442,279.8382 547.6146,259.5589 550.785,247.9707 560.2961,264.1942 563.4665,278.3173 566.6369,272.3059 569.8073,279.8382 572.9777,290.847 582.4888,293.744 585.6592,290.847 588.8296,275.2029 592,276.3617" style="fill:none;stroke:rgb(31,119,180);stroke-width:2;stroke-linejoin:bevel" />
  <text dominant-baseline="hanging" text-anchor="middle" transform="translate(313.006,8)" font-family="Segoe UI" font-size="18" font-weight="700" fill="black">7-Tage-Inzidenz Stadt Aachen 11.02.2021</text>
  <polygon points="34.012,29.0795 592,29.0795 592,370.947 34.012,370.947" style="fill:none;stroke:black;stroke-width:1" />
  <polygon points="42.012,37.0795 247.014,37.0795 247.014,63.1325 42.012,63.1325" style="fill:none;stroke:none;" />
  <text dominant-baseline="hanging" text-anchor="start" transform="translate(70.012,45.0795)" font-family="Segoe UI" font-size="12" font-weight="400" fill="black">7-Tage-Inzidenz Stadt Aachen 11.02.2021</text>
  <polyline points="50.012,50.106 66.012,50.106" style="fill:none;stroke:rgb(31,119,180);stroke-width:2" />
</svg>