<?xml version="1.0" encoding="utf-8" standalone="no"?>
<!DOCTYPE svg PUBLIC "-//W3C//DTD SVG 1.1//EN" "http://www.w3.org/Graphics/SVG/1.1/DTD/svg11.dtd">
<svg width="600" height="400" version="1.1" xmlns:xlink="http://www.w3.org/1999/xlink" xmlns="http://www.w3.org/2000/svg">
  <rect x="0" y="0" width="600" height="400" style="fill:rgb(255,255,255);stroke:none;" />
  <polyline points="34.012,362.7539 30.012,362.7539" style="fill:none;stroke:black;stroke-width:1" />
  <polyline points="34.012,348.3289 30.012,348.3289" style="fill:none;stroke:black;stroke-width:1" />
  <polyline points="34.012,333.904 30.012,333.904" style="fill:none;stroke:black;stroke-width:1" />
  <polyline points="34.012,319.479 30.012,319.479" style="fill:none;stroke:black;stroke-width:1" />
  <polyline points="34.012,290.6291 30.012,290.6291" style="fill:none;stroke:black;stroke-width:1" />
  <polyline points="34.012,276.2041 30.012,276.2041" style="fill:none;stroke:black;stroke-width:1" />
  <polyline points="34.012,261.7792 30.012,261.7792" style="fill:none;stroke:black;stroke-width:1" />
  <polyline points="34.012,247.3542 30.012,247.3542" style="fill:none;stroke:black;stroke-width:1" />
  <polyline points="34.012,218.5043 30.012,218.5043" style="fill:none;stroke:black;stroke-width:1" />
  <polyline points="34.012,204.0794 30.012,204.0794" style="fill:none;stroke:black;stroke-width:1" />
  <polyline points="34.012,189.6544 30.012,189.6544" style="fill:none;stroke:black;stroke-width:1" />
  <polyline points="34.012,175.2295 30.012,175.2295" style="fill:none;stroke:black;stroke-width:1" />
  <polyline points="34.012,146.3796 30.012,146.3796" style="fill:none;stroke:black;stroke-width:1" />
  <polyline points="34.012,131.9546 30.012,131.9546" style="fill:none;stroke:black;stroke-width:1" />
  <polyline points="34.012,117.5297 30.012,117.5297" style="fill:none;stroke:black;stroke-width:1" />
  <polyline points="34.012,103.1047 30.012,103.1047" style="fill:none;stroke:black;stroke-width:1" />
  <polyline points="34.012,74.2548 30.012,74.2548" style="fill:none;stroke:black;stroke-width:1" />
  <polyline points="34.012,59.8299 30.012,59.8299" style="fill:none;stroke:black;stroke-width:1" />
  <polyline points="34.012,45.4049 30.012,45.4049" style="fill:none;stroke:black;stroke-width:1" />
  <polyline points="34.012,30.98 30.012,30.98" style="fill:none;stroke:black;stroke-width:1" />
  <text dominant-baseline="middle" text-anchor="end" transform="translate(23.012,305.0541)" font-family="Segoe UI" font-size="12" font-weight="400" fill="black">50</text>
  <text dominant-baseline="middle" text-anchor="end" transform="translate(23.012,232.9293)" font-family="Segoe UI" font-size="12" font-weight="400" fill="black">100</text>
  <text dominant-baseline="middle" text-anchor="end" transform="translate(23.012,160.8045)" font-family="Segoe UI" font-size="12" font-weight="400" fill="black">150</text>
  <text dominant-baseline="middle" text-anchor="end" transform="translate(23.012,88.6798)" font-family="Segoe UI" font-size="12" font-weight="400" fill="black">200</text>
  <polyline points="34.012,305.0541 27.012,305.0541" style="fill:none;stroke:black;stroke-width:1" />
  <polyline points="34.012,232.9293 27.012,232.9293" style="fill:none;stroke:black;stroke-width:1" />
  <polyline points="34.012,160.8045 27.012,160.8045" style="fill:none;stroke:black;stroke-width:1" />
  <polyline points="34.012,88.6798 27.012,88.6798" style="fill:none;stroke:black;stroke-width:1" />
  <text dominant-baseline="hanging" text-anchor="middle" transform="translate(89.3849,381.947)" font-family="Segoe UI" font-size="12" font-weight="400" fill="black">01. September</text>
  <text dominant-baseline="hanging" text-anchor="middle" transform="translate(217.1684,381.947)" font-family="Segoe UI" font-size="12" font-weight="400" fill="black">01. October</text>
  <text dominant-baseline="hanging" text-anchor="middle" transform="translate(349.2113,381.947)" font-family="Segoe UI" font-size="12" font-weight="400" fill="black">01. November</text>
  <text dominant-baseline="hanging" text-anchor="middle" transform="translate(476.9948,381.947)" font-family="Segoe UI" font-size="12" font-weight="400" fill="black">01. December</text>
  <polyline points="89.3849,370.947 89.3849,377.947" style="fill:none;stroke:black;stroke-width:1" />
  <polyline points="217.1684,370.947 217.1684,377.947" style="fill:none;stroke:black;stroke-width:1" />
  <polyline points="349.2113,370.947 349.2113,377.947" style="fill:none;stroke:black;stroke-width:1" />
  <polyline points="476.9948,370.947 476.9948,377.947" style="fill:none;stroke:black;stroke-width:1" />
  <polyline points="34.012,356.8142 38.2715,356.3899 42.5309,362.471 55.3093,358.5112 59.5687,362.471 63.8282,363.0367 68.0876,363.6024 72.3471,362.471 85.1254,366.9965 89.3849,365.2994 93.6443,365.8651 97.9038,365.2994 102.1632,365.2994 114.9416,365.8651 119.201,367.5622 123.4605,365.8651 127.7199,365.2994 131.9794,363.0367 144.7577,356.8142 149.0172,352.2887 153.2766,347.1975 157.5361,346.6319 161.7955,342.1064 174.5739,347.7632 178.8333,348.3289 183.0928,352.2887 187.3522,350.5916 191.6117,351.723 204.39,335.8838 208.6495,336.4495 212.9089,335.3182 217.1684,325.1358 221.4278,319.479 234.2062,312.6908 238.4656,313.8222 242.7251,305.9026 246.9845,304.7528 251.244,307.6498 264.0223,292.5852 268.2818,290.847 272.5412,285.6323 276.8007,275.2029 281.0601,253.1854 293.8385,230.5885 298.0979,225.9532 302.3574,221.8974 306.6168,202.7769 310.8763,202.1975 323.6546,137.3037 327.9141,132.0891 332.1735,129.192 336.433,131.5096 340.6924,98.4834 353.4708,118.1833 357.7302,107.7539 361.9897,108.9127 366.2491,101.3804 370.5086,119.3421 383.2869,90.9511 387.5464,84.5776 391.8058,58.5042 400.3247,32.4308 413.1031,61.4012 417.3625,75.8864 421.622,84.5776 425.8814,65.3847 430.1409,120.5009 442.9192,167.433 447.1787,150.6301 451.4381,153.5272 455.6976,208.571 459.957,185.974 472.7354,188.8711 476.9948,213.7856 481.2543,225.9532 485.5137,198.1416 489.7732,202.1975 502.5515,179.0211 506.811,181.3388 511.0704,179.6005 515.3299,151.2095 519.5893,173.2271 532.3677,154.1066 536.6271,144.2566 540.8866,132.6685 545.146,145.4155 549.4055,134.4067 562.1838,116.445 566.4433,117.0244 570.7027,140.7802 592,157.0036" style="fill:none;stroke:rgb(31,119,180);stroke-width:2;stroke-linejoin:bevel" />
  <text dominant-baseline="hanging" text-anchor="middle" transform="translate(313.006,8)" font-family="Segoe UI" font-size="18" font-weight="700" fill="black">7-Tage-Inzidenz Stadt Aachen 28.12.2020</text>
  <polygon points="34.012,29.0795 592,29.0795 592,370.947 34.012,370.947" style="fill:none;stroke:black;stroke-width:1" />
  <polygon points="42.012,37.0795 247.014,37.0795 247.014,63.1325 42.012,63.1325" style="fill:none;stroke:none;" />
  <text dominant-baseline="hanging" text-anchor="start" transform="translate(70.012,45.0795)" font-family="Segoe UI" font-size="12" font-weight="400" fill="black">7-Tage-Inzidenz Stadt Aachen 28.12.2020</text>
  <polyline points="50.012,50.106 66.012,50.106" style="fill:none;stroke:rgb(31,119,180);stroke-width:2" />
</svg>