<?xml version="1.0" encoding="utf-8" standalone="no"?>
<!DOCTYPE svg PUBLIC "-//W3C//DTD SVG 1.1//EN" "http://www.w3.org/Graphics/SVG/1.1/DTD/svg11.dtd">
<svg width="600" height="400" version="1.1" xmlns:xlink="http://www.w3.org/1999/xlink" xmlns="http://www.w3.org/2000/svg">
  <rect x="0" y="0" width="600" height="400" style="fill:rgb(255,255,255);stroke:none;" />
  <polyline points="34.012,353.5006 30.012,353.5006" style="fill:none;stroke:black;stroke-width:1" />
  <polyline points="34.012,339.4798 30.012,339.4798" style="fill:none;stroke:black;stroke-width:1" />
  <polyline points="34.012,325.4589 30.012,325.4589" style="fill:none;stroke:black;stroke-width:1" />
  <polyline points="34.012,311.438 30.012,311.438" style="fill:none;stroke:black;stroke-width:1" />
  <polyline points="34.012,283.3963 30.012,283.3963" style="fill:none;stroke:black;stroke-width:1" />
  <polyline points="34.012,269.3754 30.012,269.3754" style="fill:none;stroke:black;stroke-width:1" />
  <polyline points="34.012,255.3545 30.012,255.3545" style="fill:none;stroke:black;stroke-width:1" />
  <polyline points="34.012,241.3337 30.012,241.3337" style="fill:none;stroke:black;stroke-width:1" />
  <polyline points="34.012,213.2919 30.012,213.2919" style="fill:none;stroke:black;stroke-width:1" />
  <polyline points="34.012,199.2711 30.012,199.2711" style="fill:none;stroke:black;stroke-width:1" />
  <polyline points="34.012,185.2502 30.012,185.2502" style="fill:none;stroke:black;stroke-width:1" />
  <polyline points="34.012,171.2293 30.012,171.2293" style="fill:none;stroke:black;stroke-width:1" />
  <polyline points="34.012,143.1876 30.012,143.1876" style="fill:none;stroke:black;stroke-width:1" />
  <polyline points="34.012,129.1667 30.012,129.1667" style="fill:none;stroke:black;stroke-width:1" />
  <polyline points="34.012,115.1458 30.012,115.1458" style="fill:none;stroke:black;stroke-width:1" />
  <polyline points="34.012,101.125 30.012,101.125" style="fill:none;stroke:black;stroke-width:1" />
  <polyline points="34.012,73.0832 30.012,73.0832" style="fill:none;stroke:black;stroke-width:1" />
  <polyline points="34.012,59.0624 30.012,59.0624" style="fill:none;stroke:black;stroke-width:1" />
  <polyline points="34.012,45.0415 30.012,45.0415" style="fill:none;stroke:black;stroke-width:1" />
  <polyline points="34.012,31.0206 30.012,31.0206" style="fill:none;stroke:black;stroke-width:1" />
  <text dominant-baseline="middle" text-anchor="end" transform="translate(23.012,367.5215)" font-family="Segoe UI" font-size="12" font-weight="400" fill="black">0</text>
  <text dominant-baseline="middle" text-anchor="end" transform="translate(23.012,297.4172)" font-family="Segoe UI" font-size="12" font-weight="400" fill="black">50</text>
  <text dominant-baseline="middle" text-anchor="end" transform="translate(23.012,227.3128)" font-family="Segoe UI" font-size="12" font-weight="400" fill="black">100</text>
  <text dominant-baseline="middle" text-anchor="end" transform="translate(23.012,157.2085)" font-family="Segoe UI" font-size="12" font-weight="400" fill="black">150</text>
  <text dominant-baseline="middle" text-anchor="end" transform="translate(23.012,87.1041)" font-family="Segoe UI" font-size="12" font-weight="400" fill="black">200</text>
  <polyline points="34.012,367.5215 27.012,367.5215" style="fill:none;stroke:black;stroke-width:1" />
  <polyline points="34.012,297.4172 27.012,297.4172" style="fill:none;stroke:black;stroke-width:1" />
  <polyline points="34.012,227.3128 27.012,227.3128" style="fill:none;stroke:black;stroke-width:1" />
  <polyline points="34.012,157.2085 27.012,157.2085" style="fill:none;stroke:black;stroke-width:1" />
  <polyline points="34.012,87.1041 27.012,87.1041" style="fill:none;stroke:black;stroke-width:1" />
  <text dominant-baseline="hanging" text-anchor="middle" transform="translate(80.9017,381.947)" font-family="Segoe UI" font-size="12" font-weight="400" fill="black">01. September</text>
  <text dominant-baseline="hanging" text-anchor="middle" transform="translate(151.2364,381.947)" font-family="Segoe UI" font-size="12" font-weight="400" fill="black">01. October</text>
  <text dominant-baseline="hanging" text-anchor="middle" transform="translate(223.9155,381.947)" font-family="Segoe UI" font-size="12" font-weight="400" fill="black">01. November</text>
  <text dominant-baseline="hanging" text-anchor="middle" transform="translate(294.2501,381.947)" font-family="Segoe UI" font-size="12" font-weight="400" fill="black">01. December</text>
  <text dominant-baseline="hanging" text-anchor="middle" transform="translate(366.9292,381.947)" font-family="Segoe UI" font-size="12" font-weight="400" fill="black">01. January</text>
  <text dominant-baseline="hanging" text-anchor="middle" transform="translate(439.6083,381.947)" font-family="Segoe UI" font-size="12" font-weight="400" fill="black">01. February</text>
  <text dominant-baseline="hanging" text-anchor="middle" transform="translate(505.254,381.947)" font-family="Segoe UI" font-size="12" font-weight="400" fill="black">01. March</text>
  <text dominant-baseline="hanging" text-anchor="middle" transform="translate(577.9331,381.947)" font-family="Segoe UI" font-size="12" font-weight="400" fill="black">01. April</text>
  <polyline points="80.9017,370.947 80.9017,377.947" style="fill:none;stroke:black;stroke-width:1" />
  <polyline points="151.2364,370.947 151.2364,377.947" style="fill:none;stroke:black;stroke-width:1" />
  <polyline points="223.9155,370.947 223.9155,377.947" style="fill:none;stroke:black;stroke-width:1" />
  <polyline points="294.2501,370.947 294.2501,377.947" style="fill:none;stroke:black;stroke-width:1" />
  <polyline points="366.9292,370.947 366.9292,377.947" style="fill:none;stroke:black;stroke-width:1" />
  <polyline points="439.6083,370.947 439.6083,377.947" style="fill:none;stroke:black;stroke-width:1" />
  <polyline points="505.254,370.947 505.254,377.947" style="fill:none;stroke:black;stroke-width:1" />
  <polyline points="577.9331,370.947 577.9331,377.947" style="fill:none;stroke:black;stroke-width:1" />
  <polyline points="34.012,367.5622 38.701,367.5621 45.7344,367.5621 48.0789,367.562 50.4234,347.7273 52.7679,347.315 55.1124,353.2257 62.1458,349.3769 64.4903,353.2257 66.8348,353.7756 69.1793,354.3254 71.5238,353.2257 78.5573,357.6244 80.9017,355.9749 83.2462,356.5248 85.5907,355.9749 87.9352,355.9749 94.9687,356.5248 97.3132,358.1743 99.6576,356.5248 102.0021,355.9749 104.3466,353.7756 111.3801,347.7273 113.7246,343.3286 116.0691,338.3801 118.4135,337.8303 120.758,333.4316 127.7915,338.9299 130.136,339.4798 132.4805,343.3286 134.825,341.6791 137.1694,342.7788 144.2029,327.3833 146.5474,327.9332 148.8919,326.8335 151.2364,316.9364 153.5809,311.438 160.6143,304.84 162.9588,305.9397 165.3033,298.2419 167.6478,297.1243 169.9923,299.9402 177.0257,285.2976 179.3702,283.608 181.7147,278.5394 184.0592,268.4022 186.4037,247.0015 193.4371,225.0376 195.7816,220.5321 198.1261,216.5899 200.4706,198.005 202.8151,197.4419 209.8486,134.366 212.193,129.2974 214.5375,126.4815 216.882,128.7342 219.2265,96.6331 226.26,115.7811 228.6045,105.6439 230.9489,106.7703 233.2934,99.449 235.6379,116.9075 242.6714,89.3118 245.0159,83.1168 247.3604,57.7738 252.0493,32.4308 259.0828,60.5897 261.4273,74.6691 263.7718,83.1168 266.1163,64.4615 268.4607,118.0338 275.4942,163.6512 277.8387,147.3191 280.1832,150.1349 282.5277,203.6368 284.8722,181.6729 291.9056,184.4888 294.2501,208.7054 296.5946,220.5321 298.9391,193.4996 301.2836,197.4419 308.317,174.9148 310.6615,177.1675 313.006,175.4779 315.3505,147.8822 317.695,169.283 324.7284,150.6981 327.0729,141.1241 329.4174,129.8605 331.7619,142.2505 334.1064,131.5501 341.1398,114.0916 343.4843,114.6548 345.8288,137.745 357.5513,153.514 359.8957,151.2613 362.2402,131.5501 364.5847,133.4508 373.9627,206.4527 376.3072,229.543 378.6516,244.7488 380.9961,231.2325 383.3406,210.8173 392.7186,188.431 395.0631,190.6837 397.4075,212.0845 399.752,241.3697 406.7855,249.6484 409.13,268.9654 411.4745,260.5178 413.819,277.9763 416.1634,278.5394 423.1969,265.5864 427.8859,272.9077 430.2304,253.1965 432.5749,241.9329 439.6083,257.7019 441.9528,271.4293 444.2973,265.5864 446.6418,272.9077 448.9863,283.608 456.0197,286.4239 458.3642,283.608 460.7087,268.4022 463.0532,269.5286 465.3977,262.7705 472.4311,276.8499 474.7756,278.5394 477.1201,298.8138 479.4646,305.572 481.8091,321.3409 488.8426,321.3409 491.187,322.4673 493.5315,313.4565 495.876,314.0196 498.2205,309.5142 505.254,320.7778 507.5985,319.6514 509.9429,315.7092 512.2874,293.1821 514.6319,287.5503 521.6654,258.8282 524.0099,258.8282 526.3544,257.1387 528.6988,271.7813 531.0433,265.5864 538.0768,255.4492 540.4213,256.0123 542.7658,248.691 545.1103,221.0953 547.4547,203.6368 554.4882,195.7523 556.8327,195.1892 559.1772,199.6946 561.5217,188.431 563.8662,200.8209 570.8996,218.8426 573.2441,215.4636 575.5886,222.2217 577.9331,237.9907 580.2776,213.2108 589.6555,200.2578 592,214.9004" style="fill:none;stroke:rgb(31,119,180);stroke-width:2;stroke-linejoin:bevel" />
  <text dominant-baseline="hanging" text-anchor="middle" transform="translate(313.006,8)" font-family="Segoe UI" font-size="18" font-weight="700" fill="black">7-Tage-Inzidenz Stadt Aachen 07.04.2021</text>
  <polygon points="34.012,29.0795 592,29.0795 592,370.947 34.012,370.947" style="fill:none;stroke:black;stroke-width:1" />
  <polygon points="42.012,37.0795 247.014,37.0795 247.014,63.1325 42.012,63.1325" style="fill:none;stroke:none;" />
  <text dominant-baseline="hanging" text-anchor="start" transform="translate(70.012,45.0795)" font-family="Segoe UI" font-size="12" font-weight="400" fill="black">7-Tage-Inzidenz Stadt Aachen 07.04.2021</text>
  <polyline points="50.012,50.106 66.012,50.106" style="fill:none;stroke:rgb(31,119,180);stroke-width:2" />
</svg>