<?xml version="1.0" encoding="utf-8" standalone="no"?>
<!DOCTYPE svg PUBLIC "-//W3C//DTD SVG 1.1//EN" "http://www.w3.org/Graphics/SVG/1.1/DTD/svg11.dtd">
<svg width="600" height="400" version="1.1" xmlns:xlink="http://www.w3.org/1999/xlink" xmlns="http://www.w3.org/2000/svg">
  <rect x="0" y="0" width="600" height="400" style="fill:rgb(255,255,255);stroke:none;" />
  <polyline points="34.012,362.7539 30.012,362.7539" style="fill:none;stroke:black;stroke-width:1" />
  <polyline points="34.012,348.3289 30.012,348.3289" style="fill:none;stroke:black;stroke-width:1" />
  <polyline points="34.012,333.904 30.012,333.904" style="fill:none;stroke:black;stroke-width:1" />
  <polyline points="34.012,319.479 30.012,319.479" style="fill:none;stroke:black;stroke-width:1" />
  <polyline points="34.012,290.6291 30.012,290.6291" style="fill:none;stroke:black;stroke-width:1" />
  <polyline points="34.012,276.2041 30.012,276.2041" style="fill:none;stroke:black;stroke-width:1" />
  <polyline points="34.012,261.7792 30.012,261.7792" style="fill:none;stroke:black;stroke-width:1" />
  <polyline points="34.012,247.3542 30.012,247.3542" style="fill:none;stroke:black;stroke-width:1" />
  <polyline points="34.012,218.5043 30.012,218.5043" style="fill:none;stroke:black;stroke-width:1" />
  <polyline points="34.012,204.0794 30.012,204.0794" style="fill:none;stroke:black;stroke-width:1" />
  <polyline points="34.012,189.6544 30.012,189.6544" style="fill:none;stroke:black;stroke-width:1" />
  <polyline points="34.012,175.2295 30.012,175.2295" style="fill:none;stroke:black;stroke-width:1" />
  <polyline points="34.012,146.3796 30.012,146.3796" style="fill:none;stroke:black;stroke-width:1" />
  <polyline points="34.012,131.9546 30.012,131.9546" style="fill:none;stroke:black;stroke-width:1" />
  <polyline points="34.012,117.5297 30.012,117.5297" style="fill:none;stroke:black;stroke-width:1" />
  <polyline points="34.012,103.1047 30.012,103.1047" style="fill:none;stroke:black;stroke-width:1" />
  <polyline points="34.012,74.2548 30.012,74.2548" style="fill:none;stroke:black;stroke-width:1" />
  <polyline points="34.012,59.8299 30.012,59.8299" style="fill:none;stroke:black;stroke-width:1" />
  <polyline points="34.012,45.4049 30.012,45.4049" style="fill:none;stroke:black;stroke-width:1" />
  <polyline points="34.012,30.98 30.012,30.98" style="fill:none;stroke:black;stroke-width:1" />
  <text dominant-baseline="middle" text-anchor="end" transform="translate(23.012,305.0541)" font-family="Segoe UI" font-size="12" font-weight="400" fill="black">50</text>
  <text dominant-baseline="middle" text-anchor="end" transform="translate(23.012,232.9293)" font-family="Segoe UI" font-size="12" font-weight="400" fill="black">100</text>
  <text dominant-baseline="middle" text-anchor="end" transform="translate(23.012,160.8045)" font-family="Segoe UI" font-size="12" font-weight="400" fill="black">150</text>
  <text dominant-baseline="middle" text-anchor="end" transform="translate(23.012,88.6798)" font-family="Segoe UI" font-size="12" font-weight="400" fill="black">200</text>
  <polyline points="34.012,305.0541 27.012,305.0541" style="fill:none;stroke:black;stroke-width:1" />
  <polyline points="34.012,232.9293 27.012,232.9293" style="fill:none;stroke:black;stroke-width:1" />
  <polyline points="34.012,160.8045 27.012,160.8045" style="fill:none;stroke:black;stroke-width:1" />
  <polyline points="34.012,88.6798 27.012,88.6798" style="fill:none;stroke:black;stroke-width:1" />
  <text dominant-baseline="hanging" text-anchor="middle" transform="translate(63.6195,381.947)" font-family="Segoe UI" font-size="12" font-weight="400" fill="black">01. September</text>
  <text dominant-baseline="hanging" text-anchor="middle" transform="translate(131.9446,381.947)" font-family="Segoe UI" font-size="12" font-weight="400" fill="black">01. October</text>
  <text dominant-baseline="hanging" text-anchor="middle" transform="translate(202.5472,381.947)" font-family="Segoe UI" font-size="12" font-weight="400" fill="black">01. November</text>
  <text dominant-baseline="hanging" text-anchor="middle" transform="translate(270.8722,381.947)" font-family="Segoe UI" font-size="12" font-weight="400" fill="black">01. December</text>
  <text dominant-baseline="hanging" text-anchor="middle" transform="translate(341.4748,381.947)" font-family="Segoe UI" font-size="12" font-weight="400" fill="black">01. January</text>
  <text dominant-baseline="hanging" text-anchor="middle" transform="translate(412.0773,381.947)" font-family="Segoe UI" font-size="12" font-weight="400" fill="black">01. February</text>
  <text dominant-baseline="hanging" text-anchor="middle" transform="translate(475.8474,381.947)" font-family="Segoe UI" font-size="12" font-weight="400" fill="black">01. March</text>
  <text dominant-baseline="hanging" text-anchor="middle" transform="translate(546.45,381.947)" font-family="Segoe UI" font-size="12" font-weight="400" fill="black">01. April</text>
  <polyline points="63.6195,370.947 63.6195,377.947" style="fill:none;stroke:black;stroke-width:1" />
  <polyline points="131.9446,370.947 131.9446,377.947" style="fill:none;stroke:black;stroke-width:1" />
  <polyline points="202.5472,370.947 202.5472,377.947" style="fill:none;stroke:black;stroke-width:1" />
  <polyline points="270.8722,370.947 270.8722,377.947" style="fill:none;stroke:black;stroke-width:1" />
  <polyline points="341.4748,370.947 341.4748,377.947" style="fill:none;stroke:black;stroke-width:1" />
  <polyline points="412.0773,370.947 412.0773,377.947" style="fill:none;stroke:black;stroke-width:1" />
  <polyline points="475.8474,370.947 475.8474,377.947" style="fill:none;stroke:black;stroke-width:1" />
  <polyline points="546.45,370.947 546.45,377.947" style="fill:none;stroke:black;stroke-width:1" />
  <polyline points="34.012,356.8142 36.2895,356.3899 38.567,362.471 45.3995,358.5112 47.677,362.471 49.9545,363.0367 52.232,363.6024 54.5095,362.471 61.342,366.9965 63.6195,365.2994 65.897,365.8651 68.1745,365.2994 70.452,365.2994 77.2845,365.8651 79.562,367.5622 81.8395,365.8651 84.117,365.2994 86.3945,363.0367 93.2271,356.8142 95.5046,352.2887 97.7821,347.1975 100.0596,346.6319 102.3371,342.1064 109.1696,347.7632 111.4471,348.3289 113.7246,352.2887 116.0021,350.5916 118.2796,351.723 125.1121,335.8838 127.3896,336.4495 129.6671,335.3182 131.9446,325.1358 134.2221,319.479 141.0546,312.6908 143.3321,313.8222 145.6096,305.9026 147.8871,304.7528 150.1646,307.6498 156.9971,292.5852 159.2746,290.847 161.5521,285.6323 163.8296,275.2029 166.1071,253.1854 172.9396,230.5885 175.2171,225.9532 177.4946,221.8974 179.7721,202.7769 182.0496,202.1975 188.8821,137.3037 191.1596,132.0891 193.4371,129.192 195.7146,131.5096 197.9921,98.4834 204.8247,118.1833 207.1022,107.7539 209.3797,108.9127 211.6572,101.3804 213.9347,119.3421 220.7672,90.9511 223.0447,84.5776 225.3222,58.5042 229.8772,32.4308 236.7097,61.4012 238.9872,75.8864 241.2647,84.5776 243.5422,65.3847 245.8197,120.5009 252.6522,167.433 254.9297,150.6301 257.2072,153.5272 259.4847,208.571 261.7622,185.974 268.5947,188.8711 270.8722,213.7856 273.1497,225.9532 275.4272,198.1416 277.7047,202.1975 284.5372,179.0211 286.8147,181.3388 289.0922,179.6005 291.3697,151.2095 293.6472,173.2271 300.4797,154.1066 302.7572,144.2566 305.0347,132.6685 307.3122,145.4155 309.5897,134.4067 316.4223,116.445 318.6998,117.0244 320.9773,140.7802 332.3648,157.0036 334.6423,154.686 336.9198,134.4067 339.1973,136.3622 348.3073,211.468 350.5848,235.2238 352.8623,250.8678 355.1398,236.962 357.4173,215.9584 366.5273,192.9269 368.8048,195.2446 371.0823,217.2621 373.3598,247.3913 380.1923,255.9086 382.4698,275.7823 384.7473,267.0912 387.0248,285.0529 389.3023,285.6323 396.1348,272.3059 400.6898,279.8382 402.9673,259.5589 405.2448,247.9707 412.0773,264.1942 414.3548,278.3173 416.6323,272.3059 418.9098,279.8382 421.1873,290.847 428.0199,293.744 430.2974,290.847 432.5749,275.2029 434.8524,276.3617 437.1299,269.4088 443.9624,283.8941 446.2399,285.6323 448.5174,306.491 450.7949,313.4439 453.0724,329.6673 459.9049,329.6673 462.1824,330.8261 464.4599,321.5556 466.7374,322.135 469.0149,317.4997 475.8474,329.0879 478.1249,327.9291 480.4024,323.8732 482.6799,300.6969 484.9574,294.9028 491.7899,265.353 494.0674,265.353 496.3449,263.6148 498.6224,278.6794 500.8999,272.3059 507.7324,261.8765 510.0099,262.4559 512.2874,254.9236 514.5649,226.5326 516.8424,208.571 523.6749,200.4592 525.9524,199.8798 528.2299,204.5151 530.5074,192.9269 532.7849,205.6739 539.6175,224.215 541.895,220.7385 544.1725,227.6914 546.45,243.9149 548.7275,218.4209 557.8375,205.0945 560.115,220.1591 562.3925,201.6181 564.67,235.2238 571.5025,225.8953 573.78,216.1033 576.0575,168.0124 578.335,188.8711 580.6125,184.8152 587.445,176.1241 589.7225,157.0036 592,162.2183" style="fill:none;stroke:rgb(31,119,180);stroke-width:2;stroke-linejoin:bevel" />
  <text dominant-baseline="hanging" text-anchor="middle" transform="translate(313.006,8)" font-family="Segoe UI" font-size="18" font-weight="700" fill="black">7-Tage-Inzidenz Stadt Aachen 21.04.2021</text>
  <polygon points="34.012,29.0795 592,29.0795 592,370.947 34.012,370.947" style="fill:none;stroke:black;stroke-width:1" />
  <polygon points="42.012,37.0795 247.014,37.0795 247.014,63.1325 42.012,63.1325" style="fill:none;stroke:none;" />
  <text dominant-baseline="hanging" text-anchor="start" transform="translate(70.012,45.0795)" font-family="Segoe UI" font-size="12" font-weight="400" fill="black">7-Tage-Inzidenz Stadt Aachen 21.04.2021</text>
  <polyline points="50.012,50.106 66.012,50.106" style="fill:none;stroke:rgb(31,119,180);stroke-width:2" />
</svg>