<?xml version="1.0" encoding="utf-8" standalone="no"?>
<!DOCTYPE svg PUBLIC "-//W3C//DTD SVG 1.1//EN" "http://www.w3.org/Graphics/SVG/1.1/DTD/svg11.dtd">
<svg width="600" height="400" version="1.1" xmlns:xlink="http://www.w3.org/1999/xlink" xmlns="http://www.w3.org/2000/svg">
  <rect x="0" y="0" width="600" height="400" style="fill:rgb(255,255,255);stroke:none;" />
  <polyline points="47.017,352.6541 43.017,352.6541" style="fill:none;stroke:black;stroke-width:1" />
  <polyline points="47.017,302.9154 43.017,302.9154" style="fill:none;stroke:black;stroke-width:1" />
  <polyline points="47.017,278.046 43.017,278.046" style="fill:none;stroke:black;stroke-width:1" />
  <polyline points="47.017,253.1766 43.017,253.1766" style="fill:none;stroke:black;stroke-width:1" />
  <polyline points="47.017,228.3072 43.017,228.3072" style="fill:none;stroke:black;stroke-width:1" />
  <polyline points="47.017,178.5684 43.017,178.5684" style="fill:none;stroke:black;stroke-width:1" />
  <polyline points="47.017,153.699 43.017,153.699" style="fill:none;stroke:black;stroke-width:1" />
  <polyline points="47.017,128.8297 43.017,128.8297" style="fill:none;stroke:black;stroke-width:1" />
  <polyline points="47.017,103.9603 43.017,103.9603" style="fill:none;stroke:black;stroke-width:1" />
  <polyline points="47.017,54.2215 43.017,54.2215" style="fill:none;stroke:black;stroke-width:1" />
  <polyline points="47.017,29.0795 43.017,29.0795" style="fill:none;stroke:black;stroke-width:1" />
  <text dominant-baseline="middle" text-anchor="end" transform="translate(36.017,327.7847)" font-family="Segoe UI" font-size="12" font-weight="400" fill="black">-10000</text>
  <text dominant-baseline="middle" text-anchor="end" transform="translate(36.017,203.4378)" font-family="Segoe UI" font-size="12" font-weight="400" fill="black">-5000</text>
  <text dominant-baseline="middle" text-anchor="end" transform="translate(36.017,79.0909)" font-family="Segoe UI" font-size="12" font-weight="400" fill="black">0</text>
  <polyline points="47.017,327.7847 40.017,327.7847" style="fill:none;stroke:black;stroke-width:1" />
  <polyline points="47.017,203.4378 40.017,203.4378" style="fill:none;stroke:black;stroke-width:1" />
  <polyline points="47.017,79.0909 40.017,79.0909" style="fill:none;stroke:black;stroke-width:1" />
  <text dominant-baseline="hanging" text-anchor="middle" transform="translate(190.0624,381.947)" font-family="Segoe UI" font-size="12" font-weight="400" fill="black">01. January</text>
  <text dominant-baseline="hanging" text-anchor="middle" transform="translate(557.7497,381.947)" font-family="Segoe UI" font-size="12" font-weight="400" fill="black">01. January</text>
  <polyline points="190.0624,370.947 190.0624,377.947" style="fill:none;stroke:black;stroke-width:1" />
  <polyline points="557.7497,370.947 557.7497,377.947" style="fill:none;stroke:black;stroke-width:1" />
  <polyline points="47.017,79.0919 49.0317,79.0919 52.0538,79.0919 53.0612,79.0919 54.0685,78.7398 55.0759,78.7325 56.0833,78.8373 59.1053,78.769 60.1127,78.8373 61.1201,78.8471 62.1274,78.8568 63.1348,78.8373 66.1569,78.9153 67.1642,78.8861 68.1716,78.8958 69.179,78.8861 70.1863,78.8861 73.2084,78.8958 74.2158,78.9251 75.2231,78.8958 76.2305,78.8861 77.2379,78.8471 80.26,78.7398 81.2673,78.6618 82.2747,78.574 83.282,78.5642 84.2894,78.4862 87.3115,78.5837 88.3189,78.5935 89.3262,78.6618 90.3336,78.6325 91.3409,78.652 94.363,78.3789 95.3704,78.3887 96.3778,78.3692 97.3851,78.1936 98.3925,78.0961 101.4146,77.9791 102.4219,77.9986 103.4293,77.862 104.4367,77.8422 105.444,77.8922 108.4661,77.6324 109.4735,77.6025 110.4808,77.5126 111.4882,77.3328 112.4955,76.9532 115.5176,76.5636 116.525,76.4837 117.5324,76.4137 118.5397,76.0841 119.5471,76.0741 122.5692,74.9553 123.5765,74.8654 124.5839,74.8155 125.5913,74.8554 126.5986,74.286 129.6207,74.6257 130.6281,74.4459 131.6354,74.4658 132.6428,74.336 133.6502,74.6456 136.6722,74.1562 137.6796,74.0463 138.687,73.5968 140.7017,73.1472 143.7238,73.6467 144.7311,73.8964 145.7385,74.0463 146.7459,73.7154 147.7532,74.6656 150.7753,75.4748 151.7827,75.1851 152.79,75.235 153.7974,76.184 154.8048,75.7944 157.8269,75.8444 158.8342,76.2739 159.8416,76.4837 160.8489,76.0042 161.8563,76.0741 164.8784,75.6745 165.8858,75.7145 166.8931,75.6845 167.9005,75.195 168.9078,75.5746 171.9299,75.245 172.9373,75.0752 173.9446,74.8754 174.952,75.0952 175.9594,74.9054 178.9815,74.5957 179.9888,74.6057 180.9962,75.0152 186.033,75.2949 187.0404,75.255 188.0477,74.9054 189.0551,74.9391 193.0845,76.2339 194.0919,76.6435 195.0993,76.9132 196.1066,76.6735 197.114,76.3114 201.1434,75.9143 202.1508,75.9542 203.1582,76.3338 204.1655,76.8533 207.1876,77.0001 208.195,77.3428 209.2023,77.1929 210.2097,77.5026 211.2171,77.5126 214.2391,77.2828 216.2539,77.4127 217.2612,77.0631 218.2686,76.8633 221.2907,77.143 222.298,77.3865 223.3054,77.2828 224.3128,77.4127 225.3201,77.6025 228.3422,77.6524 229.3496,77.6025 230.3569,77.3328 231.3643,77.3527 232.3717,77.2329 235.3937,77.4826 236.4011,77.5126 237.4085,77.8722 238.4158,77.9921 239.4232,78.2718 242.4453,78.2718 243.4526,78.2917 244.46,78.1319 245.4674,78.1419 246.4747,78.062 249.4968,78.2618 250.5042,78.2418 251.5115,78.1719 252.5189,77.7723 253.5263,77.6724 256.5484,77.1629 257.5557,77.1629 258.5631,77.133 259.5704,77.3927 260.5778,77.2828 263.5999,77.103 264.6073,77.113 265.6146,76.9831 266.622,76.4937 267.6293,76.184 270.6514,76.0441 271.6588,76.0342 272.6662,76.1141 273.6735,75.9143 274.6809,76.134 277.703,76.4537 278.7103,76.3938 279.7177,76.5136 280.7251,76.7933 281.7324,76.3538 285.7619,76.1241 286.7692,76.3838 287.7766,76.0641 288.784,76.6435 291.806,76.4827 292.8134,76.3139 293.8208,75.4847 294.8281,75.8444 295.8355,75.7744 298.8576,75.6246 299.8649,75.2949 300.8723,75.3848 301.8797,75.1451 302.887,74.7256 305.9091,74.3959 306.9165,74.6756 307.9238,74.9253 308.9312,74.8254 309.9386,74.8754 312.9606,75.3249 313.968,75.1151 314.9754,75.0053 315.9827,75.5846 316.9901,75.9343 320.0122,76.1041 321.0195,76.2639 322.0269,76.4837 324.0416,75.9243 327.0637,75.9742 328.0711,75.7245 329.0784,75.6246 330.0858,75.6995 331.0932,76.3139 335.1226,77.143 336.13,77.5725 337.1373,77.7423 338.1447,77.8023 341.1668,77.9371 342.1742,78.022 343.1815,78.002 345.1962,78.3617 348.2183,78.6314 349.2257,78.7213 350.233,78.8012 351.2404,78.785 352.2478,78.8811 355.2699,78.9311 356.2772,78.9111 357.2846,78.9111 358.2919,78.8911 359.2993,78.8411 362.3214,78.8411 363.3288,78.8312 364.3361,78.8911 365.3435,78.951 366.3508,78.981 369.3729,78.971 370.3803,79.001 371.3877,78.941 372.395,78.8811 373.4024,78.9011 376.4245,78.9011 378.4392,78.9111 380.4539,78.951 383.476,78.971 385.4907,78.8511 387.5055,78.6613 392.5423,78.4616 394.557,78.2118 399.5938,78.1819 401.6085,78.4216 406.6453,78.4116 408.6601,78.3017 413.6969,77.8023 415.7116,77.2329 420.7484,77.073 422.7631,77.3328 427.7999,76.144 429.8147,75.9742 434.8515,76.7134 436.8662,76.5136 443.9177,76.8333 450.9693,77.4127 456.0061,77.6225 458.0208,77.7323 463.0576,77.8122 465.0724,78.012 470.1092,78.2817 472.1239,78.2817 477.1607,78.2718 479.1754,78.2618 484.2122,78.2618 486.227,77.9421 491.2638,77.2928 493.2785,76.6435 498.3153,76.4837 500.33,76.144 505.3668,74.7955 507.3816,74.296 512.4184,73.7965 514.4331,73.7666 519.4699,71.9485 521.4846,71.2193 526.5215,71.7288 533.573,72.0584 535.5877,71.842 540.6245,73.1672 542.6392,73.2072 561.7791,72.5621 563.7939,71.2459 568.8307,62.9981 570.8454,61.4198 575.8822,56.3752 584.9485,36.9959 589.9853,32.4308 592,367.5622" style="fill:none;stroke:rgb(31,119,180);stroke-width:2;stroke-linejoin:bevel" />
  <text dominant-baseline="hanging" text-anchor="middle" transform="translate(319.5085,8)" font-family="Segoe UI" font-size="18" font-weight="700" fill="black">7-Tage-Inzidenz Stadt Aachen 04.02.2022</text>
  <polygon points="47.017,29.0795 592,29.0795 592,370.947 47.017,370.947" style="fill:none;stroke:black;stroke-width:1" />
  <polygon points="55.017,37.0795 260.019,37.0795 260.019,63.1325 55.017,63.1325" style="fill:none;stroke:none;" />
  <text dominant-baseline="hanging" text-anchor="start" transform="translate(83.017,45.0795)" font-family="Segoe UI" font-size="12" font-weight="400" fill="black">7-Tage-Inzidenz Stadt Aachen 04.02.2022</text>
  <polyline points="63.017,50.106 79.017,50.106" style="fill:none;stroke:rgb(31,119,180);stroke-width:2" />
</svg>