<?xml version="1.0" encoding="utf-8" standalone="no"?>
<!DOCTYPE svg PUBLIC "-//W3C//DTD SVG 1.1//EN" "http://www.w3.org/Graphics/SVG/1.1/DTD/svg11.dtd">
<svg width="600" height="400" version="1.1" xmlns:xlink="http://www.w3.org/1999/xlink" xmlns="http://www.w3.org/2000/svg">
  <rect x="0" y="0" width="600" height="400" style="fill:rgb(255,255,255);stroke:none;" />
  <polyline points="34.012,362.7539 30.012,362.7539" style="fill:none;stroke:black;stroke-width:1" />
  <polyline points="34.012,348.3289 30.012,348.3289" style="fill:none;stroke:black;stroke-width:1" />
  <polyline points="34.012,333.904 30.012,333.904" style="fill:none;stroke:black;stroke-width:1" />
  <polyline points="34.012,319.479 30.012,319.479" style="fill:none;stroke:black;stroke-width:1" />
  <polyline points="34.012,290.6291 30.012,290.6291" style="fill:none;stroke:black;stroke-width:1" />
  <polyline points="34.012,276.2041 30.012,276.2041" style="fill:none;stroke:black;stroke-width:1" />
  <polyline points="34.012,261.7792 30.012,261.7792" style="fill:none;stroke:black;stroke-width:1" />
  <polyline points="34.012,247.3542 30.012,247.3542" style="fill:none;stroke:black;stroke-width:1" />
  <polyline points="34.012,218.5043 30.012,218.5043" style="fill:none;stroke:black;stroke-width:1" />
  <polyline points="34.012,204.0794 30.012,204.0794" style="fill:none;stroke:black;stroke-width:1" />
  <polyline points="34.012,189.6544 30.012,189.6544" style="fill:none;stroke:black;stroke-width:1" />
  <polyline points="34.012,175.2295 30.012,175.2295" style="fill:none;stroke:black;stroke-width:1" />
  <polyline points="34.012,146.3796 30.012,146.3796" style="fill:none;stroke:black;stroke-width:1" />
  <polyline points="34.012,131.9546 30.012,131.9546" style="fill:none;stroke:black;stroke-width:1" />
  <polyline points="34.012,117.5297 30.012,117.5297" style="fill:none;stroke:black;stroke-width:1" />
  <polyline points="34.012,103.1047 30.012,103.1047" style="fill:none;stroke:black;stroke-width:1" />
  <polyline points="34.012,74.2548 30.012,74.2548" style="fill:none;stroke:black;stroke-width:1" />
  <polyline points="34.012,59.8299 30.012,59.8299" style="fill:none;stroke:black;stroke-width:1" />
  <polyline points="34.012,45.4049 30.012,45.4049" style="fill:none;stroke:black;stroke-width:1" />
  <polyline points="34.012,30.98 30.012,30.98" style="fill:none;stroke:black;stroke-width:1" />
  <text dominant-baseline="middle" text-anchor="end" transform="translate(23.012,305.0541)" font-family="Segoe UI" font-size="12" font-weight="400" fill="black">50</text>
  <text dominant-baseline="middle" text-anchor="end" transform="translate(23.012,232.9293)" font-family="Segoe UI" font-size="12" font-weight="400" fill="black">100</text>
  <text dominant-baseline="middle" text-anchor="end" transform="translate(23.012,160.8045)" font-family="Segoe UI" font-size="12" font-weight="400" fill="black">150</text>
  <text dominant-baseline="middle" text-anchor="end" transform="translate(23.012,88.6798)" font-family="Segoe UI" font-size="12" font-weight="400" fill="black">200</text>
  <polyline points="34.012,305.0541 27.012,305.0541" style="fill:none;stroke:black;stroke-width:1" />
  <polyline points="34.012,232.9293 27.012,232.9293" style="fill:none;stroke:black;stroke-width:1" />
  <polyline points="34.012,160.8045 27.012,160.8045" style="fill:none;stroke:black;stroke-width:1" />
  <polyline points="34.012,88.6798 27.012,88.6798" style="fill:none;stroke:black;stroke-width:1" />
  <text dominant-baseline="hanging" text-anchor="middle" transform="translate(60.779,381.947)" font-family="Segoe UI" font-size="12" font-weight="400" fill="black">01. September</text>
  <text dominant-baseline="hanging" text-anchor="middle" transform="translate(122.5488,381.947)" font-family="Segoe UI" font-size="12" font-weight="400" fill="black">01. October</text>
  <text dominant-baseline="hanging" text-anchor="middle" transform="translate(186.3777,381.947)" font-family="Segoe UI" font-size="12" font-weight="400" fill="black">01. November</text>
  <text dominant-baseline="hanging" text-anchor="middle" transform="translate(248.1476,381.947)" font-family="Segoe UI" font-size="12" font-weight="400" fill="black">01. December</text>
  <text dominant-baseline="hanging" text-anchor="middle" transform="translate(311.9765,381.947)" font-family="Segoe UI" font-size="12" font-weight="400" fill="black">01. January</text>
  <text dominant-baseline="hanging" text-anchor="middle" transform="translate(375.8054,381.947)" font-family="Segoe UI" font-size="12" font-weight="400" fill="black">01. February</text>
  <text dominant-baseline="hanging" text-anchor="middle" transform="translate(433.4573,381.947)" font-family="Segoe UI" font-size="12" font-weight="400" fill="black">01. March</text>
  <text dominant-baseline="hanging" text-anchor="middle" transform="translate(497.2862,381.947)" font-family="Segoe UI" font-size="12" font-weight="400" fill="black">01. April</text>
  <text dominant-baseline="hanging" text-anchor="middle" transform="translate(559.0561,381.947)" font-family="Segoe UI" font-size="12" font-weight="400" fill="black">01. May</text>
  <polyline points="60.779,370.947 60.779,377.947" style="fill:none;stroke:black;stroke-width:1" />
  <polyline points="122.5488,370.947 122.5488,377.947" style="fill:none;stroke:black;stroke-width:1" />
  <polyline points="186.3777,370.947 186.3777,377.947" style="fill:none;stroke:black;stroke-width:1" />
  <polyline points="248.1476,370.947 248.1476,377.947" style="fill:none;stroke:black;stroke-width:1" />
  <polyline points="311.9765,370.947 311.9765,377.947" style="fill:none;stroke:black;stroke-width:1" />
  <polyline points="375.8054,370.947 375.8054,377.947" style="fill:none;stroke:black;stroke-width:1" />
  <polyline points="433.4573,370.947 433.4573,377.947" style="fill:none;stroke:black;stroke-width:1" />
  <polyline points="497.2862,370.947 497.2862,377.947" style="fill:none;stroke:black;stroke-width:1" />
  <polyline points="559.0561,370.947 559.0561,377.947" style="fill:none;stroke:black;stroke-width:1" />
  <polyline points="34.012,356.8142 36.071,356.3899 38.13,362.471 44.307,358.5112 46.366,362.471 48.425,363.0367 50.484,363.6024 52.543,362.471 58.72,366.9965 60.779,365.2994 62.8379,365.8651 64.8969,365.2994 66.9559,365.2994 73.1329,365.8651 75.1919,367.5622 77.2509,365.8651 79.3099,365.2994 81.3689,363.0367 87.5459,356.8142 89.6049,352.2887 91.6639,347.1975 93.7229,346.6319 95.7819,342.1064 101.9589,347.7632 104.0179,348.3289 106.0769,352.2887 108.1359,350.5916 110.1949,351.723 116.3719,335.8838 118.4308,336.4495 120.4898,335.3182 122.5488,325.1358 124.6078,319.479 130.7848,312.6908 132.8438,313.8222 134.9028,305.9026 136.9618,304.7528 139.0208,307.6498 145.1978,292.5852 147.2568,290.847 149.3158,285.6323 151.3748,275.2029 153.4338,253.1854 159.6108,230.5885 161.6698,225.9532 163.7288,221.8974 165.7878,202.7769 167.8468,202.1975 174.0237,137.3037 176.0827,132.0891 178.1417,129.192 180.2007,131.5096 182.2597,98.4834 188.4367,118.1833 190.4957,107.7539 192.5547,108.9127 194.6137,101.3804 196.6727,119.3421 202.8497,90.9511 204.9087,84.5776 206.9677,58.5042 211.0857,32.4308 217.2627,61.4012 219.3217,75.8864 221.3807,84.5776 223.4397,65.3847 225.4987,120.5009 231.6756,167.433 233.7346,150.6301 235.7936,153.5272 237.8526,208.571 239.9116,185.974 246.0886,188.8711 248.1476,213.7856 250.2066,225.9532 252.2656,198.1416 254.3246,202.1975 260.5016,179.0211 262.5606,181.3388 264.6196,179.6005 266.6786,151.2095 268.7376,173.2271 274.9146,154.1066 276.9736,144.2566 279.0326,132.6685 281.0916,145.4155 283.1506,134.4067 289.3275,116.445 291.3865,117.0244 293.4455,140.7802 303.7405,157.0036 305.7995,154.686 307.8585,134.4067 309.9175,136.3622 318.1535,211.468 320.2125,235.2238 322.2715,250.8678 324.3305,236.962 326.3895,215.9584 334.6255,192.9269 336.6845,195.2446 338.7435,217.2621 340.8025,247.3913 346.9794,255.9086 349.0384,275.7823 351.0974,267.0912 353.1564,285.0529 355.2154,285.6323 361.3924,272.3059 365.5104,279.8382 367.5694,259.5589 369.6284,247.9707 375.8054,264.1942 377.8644,278.3173 379.9234,272.3059 381.9824,279.8382 384.0414,290.847 390.2184,293.744 392.2774,290.847 394.3364,275.2029 396.3954,276.3617 398.4543,269.4088 404.6313,283.8941 406.6903,285.6323 408.7493,306.491 410.8083,313.4439 412.8673,329.6673 419.0443,329.6673 421.1033,330.8261 423.1623,321.5556 425.2213,322.135 427.2803,317.4997 433.4573,329.0879 435.5163,327.9291 437.5753,323.8732 439.6343,300.6969 441.6933,294.9028 447.8703,265.353 449.9293,265.353 451.9883,263.6148 454.0472,278.6794 456.1062,272.3059 462.2832,261.8765 464.3422,262.4559 466.4012,254.9236 468.4602,226.5326 470.5192,208.571 476.6962,200.4592 478.7552,199.8798 480.8142,204.5151 482.8732,192.9269 484.9322,205.6739 491.1092,224.215 493.1682,220.7385 495.2272,227.6914 497.2862,243.9149 499.3452,218.4209 507.5812,205.0945 509.6401,220.1591 511.6991,201.6181 513.7581,235.2238 519.9351,225.8953 521.9941,216.1033 524.0531,168.0124 526.1121,188.8711 528.1711,184.8152 534.3481,176.1241 536.4071,157.0036 538.4661,162.2183 540.5251,148.3125 542.5841,123.9773 548.7611,104.8569 550.8201,121.0803 552.8791,135.5655 554.9381,129.7714 556.9971,132.6685 563.1741,158.7418 565.233,146.5743 567.292,140.2008 569.351,173.8065 571.41,194.0858 577.587,203.9357 579.646,213.2062 581.705,225.9532 585.823,193.5063 592,196.4034" style="fill:none;stroke:rgb(31,119,180);stroke-width:2;stroke-linejoin:bevel" />
  <text dominant-baseline="hanging" text-anchor="middle" transform="translate(313.006,8)" font-family="Segoe UI" font-size="18" font-weight="700" fill="black">7-Tage-Inzidenz Stadt Aachen 17.05.2021</text>
  <polygon points="34.012,29.0795 592,29.0795 592,370.947 34.012,370.947" style="fill:none;stroke:black;stroke-width:1" />
  <polygon points="42.012,37.0795 247.014,37.0795 247.014,63.1325 42.012,63.1325" style="fill:none;stroke:none;" />
  <text dominant-baseline="hanging" text-anchor="start" transform="translate(70.012,45.0795)" font-family="Segoe UI" font-size="12" font-weight="400" fill="black">7-Tage-Inzidenz Stadt Aachen 17.05.2021</text>
  <polyline points="50.012,50.106 66.012,50.106" style="fill:none;stroke:rgb(31,119,180);stroke-width:2" />
</svg>