<?xml version="1.0" encoding="utf-8" standalone="no"?>
<!DOCTYPE svg PUBLIC "-//W3C//DTD SVG 1.1//EN" "http://www.w3.org/Graphics/SVG/1.1/DTD/svg11.dtd">
<svg width="600" height="400" version="1.1" xmlns:xlink="http://www.w3.org/1999/xlink" xmlns="http://www.w3.org/2000/svg">
  <rect x="0" y="0" width="600" height="400" style="fill:rgb(255,255,255);stroke:none;" />
  <polyline points="34.012,362.7539 30.012,362.7539" style="fill:none;stroke:black;stroke-width:1" />
  <polyline points="34.012,348.3289 30.012,348.3289" style="fill:none;stroke:black;stroke-width:1" />
  <polyline points="34.012,333.904 30.012,333.904" style="fill:none;stroke:black;stroke-width:1" />
  <polyline points="34.012,319.479 30.012,319.479" style="fill:none;stroke:black;stroke-width:1" />
  <polyline points="34.012,290.6291 30.012,290.6291" style="fill:none;stroke:black;stroke-width:1" />
  <polyline points="34.012,276.2041 30.012,276.2041" style="fill:none;stroke:black;stroke-width:1" />
  <polyline points="34.012,261.7792 30.012,261.7792" style="fill:none;stroke:black;stroke-width:1" />
  <polyline points="34.012,247.3542 30.012,247.3542" style="fill:none;stroke:black;stroke-width:1" />
  <polyline points="34.012,218.5043 30.012,218.5043" style="fill:none;stroke:black;stroke-width:1" />
  <polyline points="34.012,204.0794 30.012,204.0794" style="fill:none;stroke:black;stroke-width:1" />
  <polyline points="34.012,189.6544 30.012,189.6544" style="fill:none;stroke:black;stroke-width:1" />
  <polyline points="34.012,175.2295 30.012,175.2295" style="fill:none;stroke:black;stroke-width:1" />
  <polyline points="34.012,146.3796 30.012,146.3796" style="fill:none;stroke:black;stroke-width:1" />
  <polyline points="34.012,131.9546 30.012,131.9546" style="fill:none;stroke:black;stroke-width:1" />
  <polyline points="34.012,117.5297 30.012,117.5297" style="fill:none;stroke:black;stroke-width:1" />
  <polyline points="34.012,103.1047 30.012,103.1047" style="fill:none;stroke:black;stroke-width:1" />
  <polyline points="34.012,74.2548 30.012,74.2548" style="fill:none;stroke:black;stroke-width:1" />
  <polyline points="34.012,59.8299 30.012,59.8299" style="fill:none;stroke:black;stroke-width:1" />
  <polyline points="34.012,45.4049 30.012,45.4049" style="fill:none;stroke:black;stroke-width:1" />
  <polyline points="34.012,30.98 30.012,30.98" style="fill:none;stroke:black;stroke-width:1" />
  <text dominant-baseline="middle" text-anchor="end" transform="translate(23.012,305.0541)" font-family="Segoe UI" font-size="12" font-weight="400" fill="black">50</text>
  <text dominant-baseline="middle" text-anchor="end" transform="translate(23.012,232.9293)" font-family="Segoe UI" font-size="12" font-weight="400" fill="black">100</text>
  <text dominant-baseline="middle" text-anchor="end" transform="translate(23.012,160.8045)" font-family="Segoe UI" font-size="12" font-weight="400" fill="black">150</text>
  <text dominant-baseline="middle" text-anchor="end" transform="translate(23.012,88.6798)" font-family="Segoe UI" font-size="12" font-weight="400" fill="black">200</text>
  <polyline points="34.012,305.0541 27.012,305.0541" style="fill:none;stroke:black;stroke-width:1" />
  <polyline points="34.012,232.9293 27.012,232.9293" style="fill:none;stroke:black;stroke-width:1" />
  <polyline points="34.012,160.8045 27.012,160.8045" style="fill:none;stroke:black;stroke-width:1" />
  <polyline points="34.012,88.6798 27.012,88.6798" style="fill:none;stroke:black;stroke-width:1" />
  <text dominant-baseline="hanging" text-anchor="middle" transform="translate(91.5365,381.947)" font-family="Segoe UI" font-size="12" font-weight="400" fill="black">29. August</text>
  <text dominant-baseline="hanging" text-anchor="middle" transform="translate(172.0709,381.947)" font-family="Segoe UI" font-size="12" font-weight="400" fill="black">12. September</text>
  <text dominant-baseline="hanging" text-anchor="middle" transform="translate(252.6052,381.947)" font-family="Segoe UI" font-size="12" font-weight="400" fill="black">26. September</text>
  <text dominant-baseline="hanging" text-anchor="middle" transform="translate(333.1396,381.947)" font-family="Segoe UI" font-size="12" font-weight="400" fill="black">10. October</text>
  <text dominant-baseline="hanging" text-anchor="middle" transform="translate(413.6739,381.947)" font-family="Segoe UI" font-size="12" font-weight="400" fill="black">24. October</text>
  <text dominant-baseline="hanging" text-anchor="middle" transform="translate(494.2083,381.947)" font-family="Segoe UI" font-size="12" font-weight="400" fill="black">07. November</text>
  <text dominant-baseline="hanging" text-anchor="middle" transform="translate(574.7426,381.947)" font-family="Segoe UI" font-size="12" font-weight="400" fill="black">21. November</text>
  <polyline points="91.5365,370.947 91.5365,377.947" style="fill:none;stroke:black;stroke-width:1" />
  <polyline points="172.0709,370.947 172.0709,377.947" style="fill:none;stroke:black;stroke-width:1" />
  <polyline points="252.6052,370.947 252.6052,377.947" style="fill:none;stroke:black;stroke-width:1" />
  <polyline points="333.1396,370.947 333.1396,377.947" style="fill:none;stroke:black;stroke-width:1" />
  <polyline points="413.6739,370.947 413.6739,377.947" style="fill:none;stroke:black;stroke-width:1" />
  <polyline points="494.2083,370.947 494.2083,377.947" style="fill:none;stroke:black;stroke-width:1" />
  <polyline points="574.7426,370.947 574.7426,377.947" style="fill:none;stroke:black;stroke-width:1" />
  <polyline points="34.012,356.8142 39.7645,356.3899 45.5169,362.471 62.7743,358.5112 68.5267,362.471 74.2792,363.0367 80.0316,363.6024 85.7841,362.471 103.0414,366.9965 108.7939,365.2994 114.5464,365.8651 120.2988,365.2994 126.0513,365.2994 143.3086,365.8651 149.0611,367.5622 154.8135,365.8651 160.566,365.2994 166.3184,363.0367 183.5758,356.8142 189.3282,352.2887 195.0807,347.1975 200.8332,346.6319 206.5856,342.1064 223.843,347.7632 229.5954,348.3289 235.3479,352.2887 241.1003,350.5916 246.8528,351.723 264.1101,335.8838 269.8626,336.4495 275.6151,335.3182 281.3675,325.1358 287.12,319.479 304.3773,312.6908 310.1298,313.8222 315.8822,305.9026 321.6347,304.7528 327.3871,307.6498 344.6445,292.5852 350.3969,290.847 356.1494,285.6323 361.9019,275.2029 367.6543,253.1854 384.9117,230.5885 390.6641,225.9532 396.4166,221.8974 402.169,202.7769 407.9215,202.1975 425.1788,137.3037 430.9313,132.0891 436.6838,129.192 442.4362,131.5096 448.1887,98.4834 465.446,118.1833 471.1985,107.7539 476.9509,108.9127 482.7034,101.3804 488.4558,119.3421 505.7132,90.9511 511.4656,84.5776 517.2181,58.5042 528.723,32.4308 545.9804,61.4012 551.7328,75.8864 557.4853,84.5776 563.2377,65.3847 568.9902,120.5009 586.2475,167.433 592,150.6301" style="fill:none;stroke:rgb(31,119,180);stroke-width:2;stroke-linejoin:bevel" />
  <text dominant-baseline="hanging" text-anchor="middle" transform="translate(313.006,8)" font-family="Segoe UI" font-size="18" font-weight="700" fill="black">7-Tage-Inzidenz Stadt Aachen 24.11.2020</text>
  <polygon points="34.012,29.0795 592,29.0795 592,370.947 34.012,370.947" style="fill:none;stroke:black;stroke-width:1" />
  <polygon points="42.012,37.0795 247.014,37.0795 247.014,63.1325 42.012,63.1325" style="fill:none;stroke:none;" />
  <text dominant-baseline="hanging" text-anchor="start" transform="translate(70.012,45.0795)" font-family="Segoe UI" font-size="12" font-weight="400" fill="black">7-Tage-Inzidenz Stadt Aachen 24.11.2020</text>
  <polyline points="50.012,50.106 66.012,50.106" style="fill:none;stroke:rgb(31,119,180);stroke-width:2" />
</svg>