<?xml version="1.0" encoding="utf-8" standalone="no"?>
<!DOCTYPE svg PUBLIC "-//W3C//DTD SVG 1.1//EN" "http://www.w3.org/Graphics/SVG/1.1/DTD/svg11.dtd">
<svg width="600" height="400" version="1.1" xmlns:xlink="http://www.w3.org/1999/xlink" xmlns="http://www.w3.org/2000/svg">
  <rect x="0" y="0" width="600" height="400" style="fill:rgb(255,255,255);stroke:none;" />
  <polyline points="34.012,353.4851 30.012,353.4851" style="fill:none;stroke:black;stroke-width:1" />
  <polyline points="34.012,339.4649 30.012,339.4649" style="fill:none;stroke:black;stroke-width:1" />
  <polyline points="34.012,325.4447 30.012,325.4447" style="fill:none;stroke:black;stroke-width:1" />
  <polyline points="34.012,311.4245 30.012,311.4245" style="fill:none;stroke:black;stroke-width:1" />
  <polyline points="34.012,283.3841 30.012,283.3841" style="fill:none;stroke:black;stroke-width:1" />
  <polyline points="34.012,269.3639 30.012,269.3639" style="fill:none;stroke:black;stroke-width:1" />
  <polyline points="34.012,255.3438 30.012,255.3438" style="fill:none;stroke:black;stroke-width:1" />
  <polyline points="34.012,241.3236 30.012,241.3236" style="fill:none;stroke:black;stroke-width:1" />
  <polyline points="34.012,213.2832 30.012,213.2832" style="fill:none;stroke:black;stroke-width:1" />
  <polyline points="34.012,199.263 30.012,199.263" style="fill:none;stroke:black;stroke-width:1" />
  <polyline points="34.012,185.2428 30.012,185.2428" style="fill:none;stroke:black;stroke-width:1" />
  <polyline points="34.012,171.2226 30.012,171.2226" style="fill:none;stroke:black;stroke-width:1" />
  <polyline points="34.012,143.1822 30.012,143.1822" style="fill:none;stroke:black;stroke-width:1" />
  <polyline points="34.012,129.162 30.012,129.162" style="fill:none;stroke:black;stroke-width:1" />
  <polyline points="34.012,115.1418 30.012,115.1418" style="fill:none;stroke:black;stroke-width:1" />
  <polyline points="34.012,101.1216 30.012,101.1216" style="fill:none;stroke:black;stroke-width:1" />
  <polyline points="34.012,73.0813 30.012,73.0813" style="fill:none;stroke:black;stroke-width:1" />
  <polyline points="34.012,59.0611 30.012,59.0611" style="fill:none;stroke:black;stroke-width:1" />
  <polyline points="34.012,45.0409 30.012,45.0409" style="fill:none;stroke:black;stroke-width:1" />
  <polyline points="34.012,31.0207 30.012,31.0207" style="fill:none;stroke:black;stroke-width:1" />
  <text dominant-baseline="middle" text-anchor="end" transform="translate(23.012,367.5053)" font-family="Segoe UI" font-size="12" font-weight="400" fill="black">0</text>
  <text dominant-baseline="middle" text-anchor="end" transform="translate(23.012,297.4043)" font-family="Segoe UI" font-size="12" font-weight="400" fill="black">50</text>
  <text dominant-baseline="middle" text-anchor="end" transform="translate(23.012,227.3034)" font-family="Segoe UI" font-size="12" font-weight="400" fill="black">100</text>
  <text dominant-baseline="middle" text-anchor="end" transform="translate(23.012,157.2024)" font-family="Segoe UI" font-size="12" font-weight="400" fill="black">150</text>
  <text dominant-baseline="middle" text-anchor="end" transform="translate(23.012,87.1015)" font-family="Segoe UI" font-size="12" font-weight="400" fill="black">200</text>
  <polyline points="34.012,367.5053 27.012,367.5053" style="fill:none;stroke:black;stroke-width:1" />
  <polyline points="34.012,297.4043 27.012,297.4043" style="fill:none;stroke:black;stroke-width:1" />
  <polyline points="34.012,227.3034 27.012,227.3034" style="fill:none;stroke:black;stroke-width:1" />
  <polyline points="34.012,157.2024 27.012,157.2024" style="fill:none;stroke:black;stroke-width:1" />
  <polyline points="34.012,87.1015 27.012,87.1015" style="fill:none;stroke:black;stroke-width:1" />
  <text dominant-baseline="hanging" text-anchor="middle" transform="translate(213.6816,381.947)" font-family="Segoe UI" font-size="12" font-weight="400" fill="black">01. January</text>
  <polyline points="213.6816,370.947 213.6816,377.947" style="fill:none;stroke:black;stroke-width:1" />
  <polyline points="34.012,367.5622 36.5426,367.5621 40.3384,367.5621 41.6037,367.562 42.869,347.7121 44.1342,347.2997 45.3995,353.2102 49.1953,349.3615 50.4606,353.2102 51.7259,353.76 52.9912,354.3098 54.2565,353.2102 58.0523,357.6087 59.3176,355.9593 60.5829,356.5091 61.8481,355.9593 63.1134,355.9593 66.9093,356.5091 68.1745,358.1585 69.4398,356.5091 70.7051,355.9593 71.9704,353.76 75.7662,347.7121 77.0315,343.3136 78.2968,338.3653 79.562,337.8155 80.8273,333.417 84.6232,338.9151 85.8884,339.4649 87.1537,343.3136 88.419,341.6642 89.6843,342.7638 93.4801,327.3691 94.7454,327.9189 96.0107,326.8192 97.2759,316.9226 98.5412,311.4245 102.3371,304.8268 103.6023,305.9264 104.8676,298.229 106.1329,297.1115 107.3982,299.9272 111.194,285.2853 112.4593,283.5959 113.7246,278.5275 114.9899,268.3908 116.2551,246.9911 120.051,225.0282 121.3162,220.523 122.5815,216.581 123.8468,197.997 125.1121,197.4339 128.9079,134.361 130.1732,129.2927 131.4385,126.4769 132.7038,128.7295 133.969,96.63 137.7649,115.7771 139.0301,105.6404 140.2954,106.7667 141.5607,99.4457 142.826,116.9034 146.6218,89.309 147.8871,83.1143 149.1524,57.7726 151.6829,32.4308 155.4788,60.5883 156.7441,74.6671 158.0093,83.1143 159.2746,64.46 160.5399,118.0297 164.3357,163.6449 165.601,147.3135 166.8663,150.1292 168.1316,203.6285 169.3968,181.6657 173.1927,184.4814 174.458,208.6969 175.7232,220.523 176.9885,193.4918 178.2538,197.4339 182.0496,174.9079 183.3149,177.1605 184.5802,175.471 185.8455,147.8766 187.1107,169.2764 190.9066,150.6924 192.1719,141.1188 193.4371,129.8558 194.7024,142.2451 195.9677,131.5453 199.7635,114.0876 201.0288,114.6508 202.2941,137.7399 208.6205,153.5081 209.8858,151.2555 211.151,131.5453 212.4163,133.4459 217.4774,206.4443 218.7427,229.5334 220.008,244.7385 221.2733,231.2229 222.5386,210.8087 227.5997,188.4235 228.865,190.6761 230.1302,212.0758 231.3955,241.3596 235.1913,249.6379 236.4566,268.954 237.7219,260.5067 238.9872,277.9644 240.2525,278.5275 244.0483,265.5751 246.5789,272.896 247.8441,253.1858 249.1094,241.9228 252.9053,257.691 254.1705,271.4178 255.4358,265.5751 256.7011,272.896 257.9664,283.5959 261.7622,286.4116 263.0275,283.5959 264.2928,268.3908 265.558,269.5171 266.8233,262.7593 270.6192,276.8381 271.8844,278.5275 273.1497,298.8009 274.415,305.5587 275.6803,321.327 279.4761,321.327 280.7414,322.4533 282.0067,313.4429 283.2719,314.006 284.5372,309.5008 288.3331,320.7638 289.5983,319.6375 290.8636,315.6955 292.1289,293.1694 293.3942,287.5379 297.19,258.8173 298.4553,258.8173 299.7206,257.1278 300.9859,271.7697 302.2511,265.5751 306.047,255.4384 307.3122,256.0015 308.5775,248.6806 309.8428,221.0862 311.1081,203.6285 314.9039,195.7444 316.1692,195.1813 317.4345,199.6865 318.6998,188.4235 319.965,200.8128 323.7609,218.8336 325.0261,215.4547 326.2914,222.2125 327.5567,237.9807 328.822,213.2021 333.8831,200.2496 335.1484,214.8915 336.4137,196.8707 337.6789,229.5334 341.4748,220.4667 342.7401,210.9495 344.0053,164.208 345.2706,184.4814 346.5359,180.5394 350.3317,172.0921 351.597,153.5081 352.8623,158.5765 354.1276,145.0609 355.3928,121.4086 359.1887,102.8246 360.454,118.5928 361.7192,132.6716 362.9845,127.0401 364.2498,129.8558 368.0456,155.1976 369.3109,143.3714 370.5762,137.1768 371.8415,169.8395 373.1067,189.5498 376.9026,199.1233 378.1679,208.1337 379.4331,220.523 381.9637,188.9866 385.7595,191.8024 387.0248,177.7236 388.2901,172.0921 389.5554,176.3157 390.8207,210.9495 395.8818,257.691 397.147,281.9064 398.4123,291.48 399.6776,294.8589 403.4734,302.4614 404.7387,307.2482 406.004,306.1219 408.5346,326.3953 412.3304,341.6004 413.5957,346.6687 414.861,351.1739 416.1262,350.2588 417.3915,355.6791 421.1873,358.4949 422.4526,357.3686 423.7179,357.3686 424.9832,356.2423 426.2485,353.4265 430.0443,353.4265 431.3096,352.8634 432.5749,356.2423 433.8401,359.6212 435.1054,361.3106 438.9013,360.7475 440.1665,362.4369 441.4318,359.058 442.6971,355.6791 443.9624,356.8054 447.7582,356.8054 450.2888,357.3686 452.8193,359.6212 456.6152,360.7475 459.1457,353.9897 461.6763,343.2898 468.0027,332.0268 470.5332,317.9481 476.8596,316.2586 479.3902,329.7742 485.7166,329.2111 488.2471,323.0164 494.5735,294.8589 497.1041,262.7593 503.4305,253.7489 505.961,268.3908 512.2874,201.3759 514.818,191.8024 521.1444,233.4755 523.6749,222.2125 532.5319,240.2333 541.3888,272.896 547.7152,284.7222 550.2458,290.9168 556.5722,295.422 559.1027,306.6851 565.4291,321.8901 567.9597,321.8901 574.2861,321.327 576.8167,320.7638 583.143,320.7638 585.6736,302.743 592,266.1382" style="fill:none;stroke:rgb(31,119,180);stroke-width:2;stroke-linejoin:bevel" />
  <text dominant-baseline="hanging" text-anchor="middle" transform="translate(313.006,8)" font-family="Segoe UI" font-size="18" font-weight="700" fill="black">7-Tage-Inzidenz Stadt Aachen 27.10.2021</text>
  <polygon points="34.012,29.0795 592,29.0795 592,370.947 34.012,370.947" style="fill:none;stroke:black;stroke-width:1" />
  <polygon points="42.012,37.0795 247.014,37.0795 247.014,63.1325 42.012,63.1325" style="fill:none;stroke:none;" />
  <text dominant-baseline="hanging" text-anchor="start" transform="translate(70.012,45.0795)" font-family="Segoe UI" font-size="12" font-weight="400" fill="black">7-Tage-Inzidenz Stadt Aachen 27.10.2021</text>
  <polyline points="50.012,50.106 66.012,50.106" style="fill:none;stroke:rgb(31,119,180);stroke-width:2" />
</svg>