<?xml version="1.0" encoding="utf-8" standalone="no"?>
<!DOCTYPE svg PUBLIC "-//W3C//DTD SVG 1.1//EN" "http://www.w3.org/Graphics/SVG/1.1/DTD/svg11.dtd">
<svg width="600" height="400" version="1.1" xmlns:xlink="http://www.w3.org/1999/xlink" xmlns="http://www.w3.org/2000/svg">
  <rect x="0" y="0" width="600" height="400" style="fill:rgb(255,255,255);stroke:none;" />
  <polyline points="34.012,362.7539 30.012,362.7539" style="fill:none;stroke:black;stroke-width:1" />
  <polyline points="34.012,348.3289 30.012,348.3289" style="fill:none;stroke:black;stroke-width:1" />
  <polyline points="34.012,333.904 30.012,333.904" style="fill:none;stroke:black;stroke-width:1" />
  <polyline points="34.012,319.479 30.012,319.479" style="fill:none;stroke:black;stroke-width:1" />
  <polyline points="34.012,290.6291 30.012,290.6291" style="fill:none;stroke:black;stroke-width:1" />
  <polyline points="34.012,276.2041 30.012,276.2041" style="fill:none;stroke:black;stroke-width:1" />
  <polyline points="34.012,261.7792 30.012,261.7792" style="fill:none;stroke:black;stroke-width:1" />
  <polyline points="34.012,247.3542 30.012,247.3542" style="fill:none;stroke:black;stroke-width:1" />
  <polyline points="34.012,218.5043 30.012,218.5043" style="fill:none;stroke:black;stroke-width:1" />
  <polyline points="34.012,204.0794 30.012,204.0794" style="fill:none;stroke:black;stroke-width:1" />
  <polyline points="34.012,189.6544 30.012,189.6544" style="fill:none;stroke:black;stroke-width:1" />
  <polyline points="34.012,175.2295 30.012,175.2295" style="fill:none;stroke:black;stroke-width:1" />
  <polyline points="34.012,146.3796 30.012,146.3796" style="fill:none;stroke:black;stroke-width:1" />
  <polyline points="34.012,131.9546 30.012,131.9546" style="fill:none;stroke:black;stroke-width:1" />
  <polyline points="34.012,117.5297 30.012,117.5297" style="fill:none;stroke:black;stroke-width:1" />
  <polyline points="34.012,103.1047 30.012,103.1047" style="fill:none;stroke:black;stroke-width:1" />
  <polyline points="34.012,74.2548 30.012,74.2548" style="fill:none;stroke:black;stroke-width:1" />
  <polyline points="34.012,59.8299 30.012,59.8299" style="fill:none;stroke:black;stroke-width:1" />
  <polyline points="34.012,45.4049 30.012,45.4049" style="fill:none;stroke:black;stroke-width:1" />
  <polyline points="34.012,30.98 30.012,30.98" style="fill:none;stroke:black;stroke-width:1" />
  <text dominant-baseline="middle" text-anchor="end" transform="translate(23.012,305.0541)" font-family="Segoe UI" font-size="12" font-weight="400" fill="black">50</text>
  <text dominant-baseline="middle" text-anchor="end" transform="translate(23.012,232.9293)" font-family="Segoe UI" font-size="12" font-weight="400" fill="black">100</text>
  <text dominant-baseline="middle" text-anchor="end" transform="translate(23.012,160.8045)" font-family="Segoe UI" font-size="12" font-weight="400" fill="black">150</text>
  <text dominant-baseline="middle" text-anchor="end" transform="translate(23.012,88.6798)" font-family="Segoe UI" font-size="12" font-weight="400" fill="black">200</text>
  <polyline points="34.012,305.0541 27.012,305.0541" style="fill:none;stroke:black;stroke-width:1" />
  <polyline points="34.012,232.9293 27.012,232.9293" style="fill:none;stroke:black;stroke-width:1" />
  <polyline points="34.012,160.8045 27.012,160.8045" style="fill:none;stroke:black;stroke-width:1" />
  <polyline points="34.012,88.6798 27.012,88.6798" style="fill:none;stroke:black;stroke-width:1" />
  <text dominant-baseline="hanging" text-anchor="middle" transform="translate(74.0885,381.947)" font-family="Segoe UI" font-size="12" font-weight="400" fill="black">01. September</text>
  <text dominant-baseline="hanging" text-anchor="middle" transform="translate(166.5727,381.947)" font-family="Segoe UI" font-size="12" font-weight="400" fill="black">01. October</text>
  <text dominant-baseline="hanging" text-anchor="middle" transform="translate(262.1397,381.947)" font-family="Segoe UI" font-size="12" font-weight="400" fill="black">01. November</text>
  <text dominant-baseline="hanging" text-anchor="middle" transform="translate(354.6239,381.947)" font-family="Segoe UI" font-size="12" font-weight="400" fill="black">01. December</text>
  <text dominant-baseline="hanging" text-anchor="middle" transform="translate(450.1909,381.947)" font-family="Segoe UI" font-size="12" font-weight="400" fill="black">01. January</text>
  <text dominant-baseline="hanging" text-anchor="middle" transform="translate(545.7579,381.947)" font-family="Segoe UI" font-size="12" font-weight="400" fill="black">01. February</text>
  <polyline points="74.0885,370.947 74.0885,377.947" style="fill:none;stroke:black;stroke-width:1" />
  <polyline points="166.5727,370.947 166.5727,377.947" style="fill:none;stroke:black;stroke-width:1" />
  <polyline points="262.1397,370.947 262.1397,377.947" style="fill:none;stroke:black;stroke-width:1" />
  <polyline points="354.6239,370.947 354.6239,377.947" style="fill:none;stroke:black;stroke-width:1" />
  <polyline points="450.1909,370.947 450.1909,377.947" style="fill:none;stroke:black;stroke-width:1" />
  <polyline points="545.7579,370.947 545.7579,377.947" style="fill:none;stroke:black;stroke-width:1" />
  <polyline points="34.012,356.8142 37.0948,356.3899 40.1776,362.471 49.426,358.5112 52.5088,362.471 55.5916,363.0367 58.6745,363.6024 61.7573,362.471 71.0057,366.9965 74.0885,365.2994 77.1713,365.8651 80.2541,365.2994 83.3369,365.2994 92.5853,365.8651 95.6681,367.5622 98.7509,365.8651 101.8337,365.2994 104.9166,363.0367 114.165,356.8142 117.2478,352.2887 120.3306,347.1975 123.4134,346.6319 126.4962,342.1064 135.7446,347.7632 138.8274,348.3289 141.9102,352.2887 144.993,350.5916 148.0758,351.723 157.3243,335.8838 160.4071,336.4495 163.4899,335.3182 166.5727,325.1358 169.6555,319.479 178.9039,312.6908 181.9867,313.8222 185.0695,305.9026 188.1523,304.7528 191.2351,307.6498 200.4836,292.5852 203.5664,290.847 206.6492,285.6323 209.732,275.2029 212.8148,253.1854 222.0632,230.5885 225.146,225.9532 228.2288,221.8974 231.3116,202.7769 234.3944,202.1975 243.6429,137.3037 246.7257,132.0891 249.8085,129.192 252.8913,131.5096 255.9741,98.4834 265.2225,118.1833 268.3053,107.7539 271.3881,108.9127 274.4709,101.3804 277.5537,119.3421 286.8021,90.9511 289.885,84.5776 292.9678,58.5042 299.1334,32.4308 308.3818,61.4012 311.4646,75.8864 314.5474,84.5776 317.6302,65.3847 320.713,120.5009 329.9614,167.433 333.0442,150.6301 336.127,153.5272 339.2099,208.571 342.2927,185.974 351.5411,188.8711 354.6239,213.7856 357.7067,225.9532 360.7895,198.1416 363.8723,202.1975 373.1207,179.0211 376.2035,181.3388 379.2863,179.6005 382.3691,151.2095 385.452,173.2271 394.7004,154.1066 397.7832,144.2566 400.866,132.6685 403.9488,145.4155 407.0316,134.4067 416.28,116.445 419.3628,117.0244 422.4456,140.7802 437.8597,157.0036 440.9425,154.686 444.0253,134.4067 447.1081,136.3622 459.4393,211.468 462.5221,235.2238 465.6049,250.8678 468.6877,236.962 471.7705,215.9584 484.1018,192.9269 487.1846,195.2446 490.2674,217.2621 493.3502,247.3913 502.5986,255.9086 505.6814,275.7823 508.7642,267.0912 511.847,285.0529 514.9298,285.6323 524.1783,272.3059 530.3439,279.8382 533.4267,259.5589 536.5095,247.9707 545.7579,264.1942 548.8407,278.3173 551.9235,272.3059 555.0063,279.8382 558.0891,290.847 567.3375,293.744 570.4204,290.847 573.5032,275.2029 576.586,276.3617 579.6688,269.4088 588.9172,283.8941 592,285.6323" style="fill:none;stroke:rgb(31,119,180);stroke-width:2;stroke-linejoin:bevel" />
  <text dominant-baseline="hanging" text-anchor="middle" transform="translate(313.006,8)" font-family="Segoe UI" font-size="18" font-weight="700" fill="black">7-Tage-Inzidenz Stadt Aachen 16.02.2021</text>
  <polygon points="34.012,29.0795 592,29.0795 592,370.947 34.012,370.947" style="fill:none;stroke:black;stroke-width:1" />
  <polygon points="42.012,37.0795 247.014,37.0795 247.014,63.1325 42.012,63.1325" style="fill:none;stroke:none;" />
  <text dominant-baseline="hanging" text-anchor="start" transform="translate(70.012,45.0795)" font-family="Segoe UI" font-size="12" font-weight="400" fill="black">7-Tage-Inzidenz Stadt Aachen 16.02.2021</text>
  <polyline points="50.012,50.106 66.012,50.106" style="fill:none;stroke:rgb(31,119,180);stroke-width:2" />
</svg>