<?xml version="1.0" encoding="utf-8" standalone="no"?>
<!DOCTYPE svg PUBLIC "-//W3C//DTD SVG 1.1//EN" "http://www.w3.org/Graphics/SVG/1.1/DTD/svg11.dtd">
<svg width="600" height="400" version="1.1" xmlns:xlink="http://www.w3.org/1999/xlink" xmlns="http://www.w3.org/2000/svg">
  <rect x="0" y="0" width="600" height="400" style="fill:rgb(255,255,255);stroke:none;" />
  <polyline points="47.017,352.6541 43.017,352.6541" style="fill:none;stroke:black;stroke-width:1" />
  <polyline points="47.017,302.9154 43.017,302.9154" style="fill:none;stroke:black;stroke-width:1" />
  <polyline points="47.017,278.046 43.017,278.046" style="fill:none;stroke:black;stroke-width:1" />
  <polyline points="47.017,253.1766 43.017,253.1766" style="fill:none;stroke:black;stroke-width:1" />
  <polyline points="47.017,228.3072 43.017,228.3072" style="fill:none;stroke:black;stroke-width:1" />
  <polyline points="47.017,178.5684 43.017,178.5684" style="fill:none;stroke:black;stroke-width:1" />
  <polyline points="47.017,153.699 43.017,153.699" style="fill:none;stroke:black;stroke-width:1" />
  <polyline points="47.017,128.8297 43.017,128.8297" style="fill:none;stroke:black;stroke-width:1" />
  <polyline points="47.017,103.9603 43.017,103.9603" style="fill:none;stroke:black;stroke-width:1" />
  <polyline points="47.017,54.2215 43.017,54.2215" style="fill:none;stroke:black;stroke-width:1" />
  <polyline points="47.017,29.0795 43.017,29.0795" style="fill:none;stroke:black;stroke-width:1" />
  <text dominant-baseline="middle" text-anchor="end" transform="translate(36.017,327.7847)" font-family="Segoe UI" font-size="12" font-weight="400" fill="black">-10000</text>
  <text dominant-baseline="middle" text-anchor="end" transform="translate(36.017,203.4378)" font-family="Segoe UI" font-size="12" font-weight="400" fill="black">-5000</text>
  <text dominant-baseline="middle" text-anchor="end" transform="translate(36.017,79.0909)" font-family="Segoe UI" font-size="12" font-weight="400" fill="black">0</text>
  <polyline points="47.017,327.7847 40.017,327.7847" style="fill:none;stroke:black;stroke-width:1" />
  <polyline points="47.017,203.4378 40.017,203.4378" style="fill:none;stroke:black;stroke-width:1" />
  <polyline points="47.017,79.0909 40.017,79.0909" style="fill:none;stroke:black;stroke-width:1" />
  <text dominant-baseline="hanging" text-anchor="middle" transform="translate(188.7525,381.947)" font-family="Segoe UI" font-size="12" font-weight="400" fill="black">01. January</text>
  <text dominant-baseline="hanging" text-anchor="middle" transform="translate(553.0726,381.947)" font-family="Segoe UI" font-size="12" font-weight="400" fill="black">01. January</text>
  <polyline points="188.7525,370.947 188.7525,377.947" style="fill:none;stroke:black;stroke-width:1" />
  <polyline points="553.0726,370.947 553.0726,377.947" style="fill:none;stroke:black;stroke-width:1" />
  <polyline points="47.017,79.0919 49.0133,79.0919 52.0077,79.0919 53.0058,79.0919 54.004,78.7398 56.0002,78.8373 58.9946,78.769 60.9909,78.8471 61.9891,78.8568 62.9872,78.8373 65.9816,78.9153 67.9779,78.8958 68.976,78.8861 69.9742,78.8861 72.9686,78.8958 74.9648,78.8958 75.963,78.8861 76.9611,78.8471 79.9555,78.7398 80.9537,78.6618 81.9518,78.574 83.9481,78.4862 86.9425,78.5837 88.9388,78.6618 89.9369,78.6325 90.935,78.652 93.9295,78.3789 95.9257,78.3692 96.9239,78.1936 97.922,78.0961 100.9164,77.9791 102.9127,77.862 103.9108,77.8422 104.909,77.8922 107.9034,77.6324 109.8997,77.5126 110.8978,77.3328 111.8959,76.9532 114.8903,76.5636 115.8885,76.4837 116.8866,76.4137 117.8848,76.0841 118.8829,76.0741 121.8773,74.9553 122.8754,74.8654 123.8736,74.8155 124.8717,74.8554 125.8699,74.286 128.8643,74.6257 129.8624,74.4459 130.8605,74.4658 131.8587,74.336 132.8568,74.6456 135.8512,74.1562 136.8494,74.0463 137.8475,73.5968 139.8438,73.1472 142.8382,73.6467 143.8363,73.8964 144.8345,74.0463 145.8326,73.7154 146.8307,74.6656 149.8251,75.4748 150.8233,75.1851 151.8214,75.235 152.8196,76.184 153.8177,75.7944 156.8121,75.8444 157.8102,76.2739 158.8084,76.4837 159.8065,76.0042 160.8047,76.0741 163.7991,75.6745 165.7953,75.6845 166.7935,75.195 167.7916,75.5746 170.786,75.245 171.7842,75.0752 172.7823,74.8754 174.7786,74.9054 177.773,74.5957 178.7711,74.6057 179.7693,75.0152 184.76,75.2949 185.7581,75.255 186.7562,74.9054 187.7544,74.9391 191.7469,76.2339 192.7451,76.6435 193.7432,76.9132 194.7413,76.6735 195.7395,76.3114 199.732,75.9143 200.7302,75.9542 201.7283,76.3338 202.7264,76.8533 205.7208,77.0001 206.719,77.3428 207.7171,77.1929 208.7153,77.5026 209.7134,77.5126 212.7078,77.2828 214.7041,77.4127 215.7022,77.0631 216.7004,76.8633 219.6948,77.143 220.6929,77.3865 221.691,77.2828 222.6892,77.4127 223.6873,77.6025 226.6817,77.6524 227.6799,77.6025 228.678,77.3328 230.6743,77.2329 233.6687,77.4826 234.6668,77.5126 235.665,77.8722 236.6631,77.9921 237.6612,78.2718 240.6556,78.2718 241.6538,78.2917 242.6519,78.1319 244.6482,78.062 247.6426,78.2618 249.6389,78.1719 250.637,77.7723 251.6352,77.6724 254.6296,77.1629 256.6258,77.133 257.624,77.3927 258.6221,77.2828 261.6165,77.103 263.6128,76.9831 264.6109,76.4937 265.6091,76.184 268.6035,76.0441 270.5998,76.1141 271.5979,75.9143 272.596,76.134 275.5905,76.4537 277.5867,76.5136 278.5849,76.7933 279.583,76.3538 283.5756,76.1241 285.5718,76.0641 286.57,76.6435 289.5644,76.4827 290.5625,76.3139 291.5607,75.4847 292.5588,75.8444 293.5569,75.7744 296.5513,75.6246 297.5495,75.2949 298.5476,75.3848 299.5458,75.1451 300.5439,74.7256 303.5383,74.3959 304.5364,74.6756 305.5346,74.9253 307.5309,74.8754 310.5253,75.3249 311.5234,75.1151 312.5215,75.0053 313.5197,75.5846 314.5178,75.9343 317.5122,76.1041 318.5104,76.2639 319.5085,76.4837 321.5048,75.9243 324.4992,75.9742 325.4973,75.7245 326.4955,75.6246 327.4936,75.6995 328.4917,76.3139 332.4843,77.143 333.4824,77.5725 334.4806,77.7423 335.4787,77.8023 338.4731,77.9371 340.4694,78.002 342.4657,78.3617 345.4601,78.6314 346.4582,78.7213 347.4563,78.8012 349.4526,78.8811 352.447,78.9311 354.4433,78.9111 355.4414,78.8911 356.4396,78.8411 359.434,78.8411 361.4303,78.8911 362.4284,78.951 363.4265,78.981 366.421,78.971 368.4172,78.941 369.4154,78.8811 370.4135,78.9011 373.4079,78.9011 375.4042,78.9111 377.4005,78.951 380.3949,78.971 382.3912,78.8511 384.3874,78.6613 389.3781,78.4616 391.3744,78.2118 396.3651,78.1819 398.3614,78.4216 403.352,78.4116 405.3483,78.3017 410.339,77.8023 412.3353,77.2329 417.326,77.073 419.3222,77.3328 424.3129,76.144 426.3092,75.9742 431.2999,76.7134 433.2962,76.5136 440.2831,76.8333 447.2701,77.4127 452.2608,77.6225 454.257,77.7323 459.2477,77.8122 461.244,78.012 466.2347,78.2817 468.231,78.2817 473.2217,78.2718 475.2179,78.2618 480.2086,78.2618 482.2049,77.9421 487.1956,77.2928 489.1919,76.6435 494.1825,76.4837 496.1788,76.144 501.1695,74.7955 503.1658,74.296 508.1565,73.7965 510.1527,73.7666 515.1434,71.9485 517.1397,71.2193 522.1304,71.7288 529.1173,72.0584 531.1136,71.842 536.1043,73.1672 538.1006,73.2072 557.0652,72.5621 559.0615,71.2459 564.0522,62.9981 566.0484,61.4198 571.0391,56.3752 580.0224,36.9959 585.013,32.4308 587.0093,367.5622 592,40.8418" style="fill:none;stroke:rgb(31,119,180);stroke-width:2;stroke-linejoin:bevel" />
  <text dominant-baseline="hanging" text-anchor="middle" transform="translate(319.5085,8)" font-family="Segoe UI" font-size="18" font-weight="700" fill="black">7-Tage-Inzidenz Stadt Aachen 09.02.2022</text>
  <polygon points="47.017,29.0795 592,29.0795 592,370.947 47.017,370.947" style="fill:none;stroke:black;stroke-width:1" />
  <polygon points="55.017,37.0795 260.019,37.0795 260.019,63.1325 55.017,63.1325" style="fill:none;stroke:none;" />
  <text dominant-baseline="hanging" text-anchor="start" transform="translate(83.017,45.0795)" font-family="Segoe UI" font-size="12" font-weight="400" fill="black">7-Tage-Inzidenz Stadt Aachen 09.02.2022</text>
  <polyline points="63.017,50.106 79.017,50.106" style="fill:none;stroke:rgb(31,119,180);stroke-width:2" />
</svg>