<?xml version="1.0" encoding="utf-8" standalone="no"?>
<!DOCTYPE svg PUBLIC "-//W3C//DTD SVG 1.1//EN" "http://www.w3.org/Graphics/SVG/1.1/DTD/svg11.dtd">
<svg width="600" height="400" version="1.1" xmlns:xlink="http://www.w3.org/1999/xlink" xmlns="http://www.w3.org/2000/svg">
  <rect x="0" y="0" width="600" height="400" style="fill:rgb(255,255,255);stroke:none;" />
  <polyline points="34.012,358.4713 30.012,358.4713" style="fill:none;stroke:black;stroke-width:1" />
  <polyline points="34.012,344.2334 30.012,344.2334" style="fill:none;stroke:black;stroke-width:1" />
  <polyline points="34.012,329.9954 30.012,329.9954" style="fill:none;stroke:black;stroke-width:1" />
  <polyline points="34.012,315.7575 30.012,315.7575" style="fill:none;stroke:black;stroke-width:1" />
  <polyline points="34.012,287.2816 30.012,287.2816" style="fill:none;stroke:black;stroke-width:1" />
  <polyline points="34.012,273.0437 30.012,273.0437" style="fill:none;stroke:black;stroke-width:1" />
  <polyline points="34.012,258.8058 30.012,258.8058" style="fill:none;stroke:black;stroke-width:1" />
  <polyline points="34.012,244.5678 30.012,244.5678" style="fill:none;stroke:black;stroke-width:1" />
  <polyline points="34.012,216.0919 30.012,216.0919" style="fill:none;stroke:black;stroke-width:1" />
  <polyline points="34.012,201.854 30.012,201.854" style="fill:none;stroke:black;stroke-width:1" />
  <polyline points="34.012,187.6161 30.012,187.6161" style="fill:none;stroke:black;stroke-width:1" />
  <polyline points="34.012,173.3781 30.012,173.3781" style="fill:none;stroke:black;stroke-width:1" />
  <polyline points="34.012,144.9023 30.012,144.9023" style="fill:none;stroke:black;stroke-width:1" />
  <polyline points="34.012,130.6643 30.012,130.6643" style="fill:none;stroke:black;stroke-width:1" />
  <polyline points="34.012,116.4264 30.012,116.4264" style="fill:none;stroke:black;stroke-width:1" />
  <polyline points="34.012,102.1885 30.012,102.1885" style="fill:none;stroke:black;stroke-width:1" />
  <polyline points="34.012,73.7126 30.012,73.7126" style="fill:none;stroke:black;stroke-width:1" />
  <polyline points="34.012,59.4747 30.012,59.4747" style="fill:none;stroke:black;stroke-width:1" />
  <polyline points="34.012,45.2367 30.012,45.2367" style="fill:none;stroke:black;stroke-width:1" />
  <polyline points="34.012,30.9988 30.012,30.9988" style="fill:none;stroke:black;stroke-width:1" />
  <polyline points="57.0401,370.947 57.0401,374.947" style="fill:none;stroke:black;stroke-width:1" />
  <polyline points="165.0949,370.947 165.0949,374.947" style="fill:none;stroke:black;stroke-width:1" />
  <polyline points="273.1497,370.947 273.1497,374.947" style="fill:none;stroke:black;stroke-width:1" />
  <polyline points="377.6618,370.947 377.6618,374.947" style="fill:none;stroke:black;stroke-width:1" />
  <polyline points="485.7166,370.947 485.7166,374.947" style="fill:none;stroke:black;stroke-width:1" />
  <text dominant-baseline="middle" text-anchor="end" transform="translate(23.012,301.5196)" font-family="Segoe UI" font-size="12" font-weight="400" fill="black">50</text>
  <text dominant-baseline="middle" text-anchor="end" transform="translate(23.012,230.3299)" font-family="Segoe UI" font-size="12" font-weight="400" fill="black">100</text>
  <text dominant-baseline="middle" text-anchor="end" transform="translate(23.012,159.1402)" font-family="Segoe UI" font-size="12" font-weight="400" fill="black">150</text>
  <text dominant-baseline="middle" text-anchor="end" transform="translate(23.012,87.9505)" font-family="Segoe UI" font-size="12" font-weight="400" fill="black">200</text>
  <polyline points="34.012,301.5196 27.012,301.5196" style="fill:none;stroke:black;stroke-width:1" />
  <polyline points="34.012,230.3299 27.012,230.3299" style="fill:none;stroke:black;stroke-width:1" />
  <polyline points="34.012,159.1402 27.012,159.1402" style="fill:none;stroke:black;stroke-width:1" />
  <polyline points="34.012,87.9505 27.012,87.9505" style="fill:none;stroke:black;stroke-width:1" />
  <text dominant-baseline="hanging" text-anchor="middle" transform="translate(110.1818,381.947)" font-family="Segoe UI" font-size="12" font-weight="400" fill="black">01. October</text>
  <text dominant-baseline="hanging" text-anchor="middle" transform="translate(218.2366,381.947)" font-family="Segoe UI" font-size="12" font-weight="400" fill="black">01. December</text>
  <text dominant-baseline="hanging" text-anchor="middle" transform="translate(328.0628,381.947)" font-family="Segoe UI" font-size="12" font-weight="400" fill="black">01. February</text>
  <text dominant-baseline="hanging" text-anchor="middle" transform="translate(432.5749,381.947)" font-family="Segoe UI" font-size="12" font-weight="400" fill="black">01. April</text>
  <text dominant-baseline="hanging" text-anchor="middle" transform="translate(540.6297,381.947)" font-family="Segoe UI" font-size="12" font-weight="400" fill="black">01. June</text>
  <polyline points="110.1818,370.947 110.1818,377.947" style="fill:none;stroke:black;stroke-width:1" />
  <polyline points="218.2366,370.947 218.2366,377.947" style="fill:none;stroke:black;stroke-width:1" />
  <polyline points="328.0628,370.947 328.0628,377.947" style="fill:none;stroke:black;stroke-width:1" />
  <polyline points="432.5749,370.947 432.5749,377.947" style="fill:none;stroke:black;stroke-width:1" />
  <polyline points="540.6297,370.947 540.6297,377.947" style="fill:none;stroke:black;stroke-width:1" />
  <polyline points="34.012,352.6086 35.7834,352.1899 37.5548,358.1921 42.869,354.2837 44.6403,358.1921 46.4117,358.7505 48.1831,359.3088 49.9545,358.1921 55.2687,362.6589 57.0401,360.9839 58.8115,361.5422 60.5829,360.9839 62.3542,360.9839 67.6684,361.5422 69.4398,363.2173 71.2112,361.5422 72.9826,360.9839 74.754,358.7505 80.0682,352.6086 81.8395,348.1418 83.6109,343.1167 85.3823,342.5583 87.1537,338.0915 92.4679,343.675 94.2393,344.2334 96.0107,348.1418 97.7821,346.4668 99.5534,347.5835 104.8676,331.9497 106.639,332.508 108.4104,331.3913 110.1818,321.341 111.9532,315.7575 117.2674,309.0573 119.0387,310.174 120.8101,302.3571 122.5815,301.2222 124.3529,304.0817 129.6671,289.2124 131.4385,287.4967 133.2099,282.3496 134.9813,272.0555 136.7526,250.3234 142.0668,228.0194 143.8382,223.4443 145.6096,219.441 147.381,200.5684 149.1524,199.9965 154.4666,135.9441 156.2379,130.797 158.0093,127.9375 159.7807,130.2251 161.5521,97.627 166.8663,117.0715 168.6377,106.7774 170.4091,107.9212 172.1805,100.4865 173.9518,118.2153 179.266,90.1924 181.0374,83.9015 182.8088,58.1662 186.3516,32.4308 191.6658,61.0256 193.4371,75.3231 195.2085,83.9015 196.9799,64.9574 198.7513,119.3591 204.0655,165.6827 205.8369,149.0977 207.6083,151.9572 209.3797,206.2874 211.151,183.9834 216.4652,186.8429 218.2366,211.4344 220.008,223.4443 221.7794,195.9932 223.5508,199.9965 228.865,177.1206 230.6363,179.4082 232.4077,177.6925 234.1791,149.6696 235.9505,171.4017 241.2647,152.5291 243.0361,142.8068 244.8075,131.3689 246.5789,143.9506 248.3502,133.0846 253.6644,115.3558 255.4358,115.9277 257.2072,139.3755 266.0642,155.3886 267.8355,153.101 269.6069,133.0846 271.3783,135.0148 278.4639,209.1468 280.2353,232.5946 282.0067,248.0358 283.7781,234.3103 285.5494,213.579 292.635,190.8461 294.4064,193.1337 296.1778,214.8658 297.9492,244.6044 303.2634,253.0113 305.0347,272.6274 306.8061,264.0489 308.5775,281.7777 310.3489,282.3496 315.6631,269.196 319.2059,276.6306 320.9773,256.6142 322.7486,245.1763 328.0628,261.1894 329.8342,275.1294 331.6056,269.196 333.377,276.6306 335.1484,287.4967 340.4626,290.3561 342.2339,287.4967 344.0053,272.0555 345.7767,273.1992 347.5481,266.3365 352.8623,280.6339 354.6337,282.3496 356.4051,302.9379 358.1765,309.8006 359.9478,325.8137 365.262,325.8137 367.0334,326.9575 368.8048,317.8072 370.5762,318.3791 372.3476,313.8039 377.6618,325.2418 379.4331,324.098 381.2045,320.0948 382.9759,297.2189 384.7473,291.4999 390.0615,262.3332 391.8329,262.3332 393.6043,260.6175 395.3757,275.4868 397.147,269.196 402.4612,258.9018 404.2326,259.4737 406.004,252.0391 407.7754,224.0161 409.5468,206.2874 414.861,198.2808 416.6323,197.7089 418.4037,202.2841 420.1751,190.8461 421.9465,203.4279 427.2607,221.7286 429.0321,218.2972 430.8035,225.1599 432.5749,241.173 434.3462,216.0096 441.4318,202.856 443.2032,217.7253 444.9746,199.4246 446.746,232.5946 452.0602,223.3871 453.8315,213.722 455.6029,166.2546 457.3743,186.8429 459.1457,182.8396 464.4599,174.2612 466.2313,155.3886 468.0027,160.5356 469.7741,146.8101 471.5454,122.7905 476.8596,103.9179 478.631,119.931 480.4024,134.2284 482.1738,128.5094 483.9452,131.3689 489.2594,157.1043 491.0307,145.0944 492.8021,138.8036 494.5735,171.9736 496.3449,191.9899 501.6591,201.7122 503.4305,210.8625 505.2019,223.4443 508.7446,191.418 514.0588,194.2775 515.8302,179.9801 517.6016,174.2612 519.373,178.5504 521.1444,213.722 528.2299,261.1894 530.0013,285.781 531.7727,295.5032 533.5441,298.9346 538.8583,306.6552 540.6297,311.5163 542.4011,310.3725 545.9438,330.9608 551.258,346.402 553.0294,351.5491 554.8008,356.1242 556.5722,355.1949 558.3436,360.6994 563.6578,363.5589 565.4291,362.4151 567.2005,362.4151 568.9719,361.2713 570.7433,358.4118 576.0575,358.4118 577.8289,357.8399 579.6003,361.2713 581.3717,364.7027 583.143,366.4184 588.4572,365.8465 590.2286,367.5622 592,364.1308" style="fill:none;stroke:rgb(31,119,180);stroke-width:2;stroke-linejoin:bevel" />
  <text dominant-baseline="hanging" text-anchor="middle" transform="translate(313.006,8)" font-family="Segoe UI" font-size="18" font-weight="700" fill="black">7-Tage-Inzidenz Stadt Aachen 30.06.2021</text>
  <polygon points="34.012,29.0795 592,29.0795 592,370.947 34.012,370.947" style="fill:none;stroke:black;stroke-width:1" />
  <polygon points="42.012,37.0795 247.014,37.0795 247.014,63.1325 42.012,63.1325" style="fill:none;stroke:none;" />
  <text dominant-baseline="hanging" text-anchor="start" transform="translate(70.012,45.0795)" font-family="Segoe UI" font-size="12" font-weight="400" fill="black">7-Tage-Inzidenz Stadt Aachen 30.06.2021</text>
  <polyline points="50.012,50.106 66.012,50.106" style="fill:none;stroke:rgb(31,119,180);stroke-width:2" />
</svg>