<?xml version="1.0" encoding="utf-8" standalone="no"?>
<!DOCTYPE svg PUBLIC "-//W3C//DTD SVG 1.1//EN" "http://www.w3.org/Graphics/SVG/1.1/DTD/svg11.dtd">
<svg width="600" height="400" version="1.1" xmlns:xlink="http://www.w3.org/1999/xlink" xmlns="http://www.w3.org/2000/svg">
  <rect x="0" y="0" width="600" height="400" style="fill:rgb(255,255,255);stroke:none;" />
  <polyline points="34.012,362.7539 30.012,362.7539" style="fill:none;stroke:black;stroke-width:1" />
  <polyline points="34.012,348.3289 30.012,348.3289" style="fill:none;stroke:black;stroke-width:1" />
  <polyline points="34.012,333.904 30.012,333.904" style="fill:none;stroke:black;stroke-width:1" />
  <polyline points="34.012,319.479 30.012,319.479" style="fill:none;stroke:black;stroke-width:1" />
  <polyline points="34.012,290.6291 30.012,290.6291" style="fill:none;stroke:black;stroke-width:1" />
  <polyline points="34.012,276.2041 30.012,276.2041" style="fill:none;stroke:black;stroke-width:1" />
  <polyline points="34.012,261.7792 30.012,261.7792" style="fill:none;stroke:black;stroke-width:1" />
  <polyline points="34.012,247.3542 30.012,247.3542" style="fill:none;stroke:black;stroke-width:1" />
  <polyline points="34.012,218.5043 30.012,218.5043" style="fill:none;stroke:black;stroke-width:1" />
  <polyline points="34.012,204.0794 30.012,204.0794" style="fill:none;stroke:black;stroke-width:1" />
  <polyline points="34.012,189.6544 30.012,189.6544" style="fill:none;stroke:black;stroke-width:1" />
  <polyline points="34.012,175.2295 30.012,175.2295" style="fill:none;stroke:black;stroke-width:1" />
  <polyline points="34.012,146.3796 30.012,146.3796" style="fill:none;stroke:black;stroke-width:1" />
  <polyline points="34.012,131.9546 30.012,131.9546" style="fill:none;stroke:black;stroke-width:1" />
  <polyline points="34.012,117.5297 30.012,117.5297" style="fill:none;stroke:black;stroke-width:1" />
  <polyline points="34.012,103.1047 30.012,103.1047" style="fill:none;stroke:black;stroke-width:1" />
  <polyline points="34.012,74.2548 30.012,74.2548" style="fill:none;stroke:black;stroke-width:1" />
  <polyline points="34.012,59.8299 30.012,59.8299" style="fill:none;stroke:black;stroke-width:1" />
  <polyline points="34.012,45.4049 30.012,45.4049" style="fill:none;stroke:black;stroke-width:1" />
  <polyline points="34.012,30.98 30.012,30.98" style="fill:none;stroke:black;stroke-width:1" />
  <text dominant-baseline="middle" text-anchor="end" transform="translate(23.012,305.0541)" font-family="Segoe UI" font-size="12" font-weight="400" fill="black">50</text>
  <text dominant-baseline="middle" text-anchor="end" transform="translate(23.012,232.9293)" font-family="Segoe UI" font-size="12" font-weight="400" fill="black">100</text>
  <text dominant-baseline="middle" text-anchor="end" transform="translate(23.012,160.8045)" font-family="Segoe UI" font-size="12" font-weight="400" fill="black">150</text>
  <text dominant-baseline="middle" text-anchor="end" transform="translate(23.012,88.6798)" font-family="Segoe UI" font-size="12" font-weight="400" fill="black">200</text>
  <polyline points="34.012,305.0541 27.012,305.0541" style="fill:none;stroke:black;stroke-width:1" />
  <polyline points="34.012,232.9293 27.012,232.9293" style="fill:none;stroke:black;stroke-width:1" />
  <polyline points="34.012,160.8045 27.012,160.8045" style="fill:none;stroke:black;stroke-width:1" />
  <polyline points="34.012,88.6798 27.012,88.6798" style="fill:none;stroke:black;stroke-width:1" />
  <text dominant-baseline="hanging" text-anchor="middle" transform="translate(64.3628,381.947)" font-family="Segoe UI" font-size="12" font-weight="400" fill="black">01. September</text>
  <text dominant-baseline="hanging" text-anchor="middle" transform="translate(134.4031,381.947)" font-family="Segoe UI" font-size="12" font-weight="400" fill="black">01. October</text>
  <text dominant-baseline="hanging" text-anchor="middle" transform="translate(206.7782,381.947)" font-family="Segoe UI" font-size="12" font-weight="400" fill="black">01. November</text>
  <text dominant-baseline="hanging" text-anchor="middle" transform="translate(276.8185,381.947)" font-family="Segoe UI" font-size="12" font-weight="400" fill="black">01. December</text>
  <text dominant-baseline="hanging" text-anchor="middle" transform="translate(349.1935,381.947)" font-family="Segoe UI" font-size="12" font-weight="400" fill="black">01. January</text>
  <text dominant-baseline="hanging" text-anchor="middle" transform="translate(421.5685,381.947)" font-family="Segoe UI" font-size="12" font-weight="400" fill="black">01. February</text>
  <text dominant-baseline="hanging" text-anchor="middle" transform="translate(486.9395,381.947)" font-family="Segoe UI" font-size="12" font-weight="400" fill="black">01. March</text>
  <text dominant-baseline="hanging" text-anchor="middle" transform="translate(559.3145,381.947)" font-family="Segoe UI" font-size="12" font-weight="400" fill="black">01. April</text>
  <polyline points="64.3628,370.947 64.3628,377.947" style="fill:none;stroke:black;stroke-width:1" />
  <polyline points="134.4031,370.947 134.4031,377.947" style="fill:none;stroke:black;stroke-width:1" />
  <polyline points="206.7782,370.947 206.7782,377.947" style="fill:none;stroke:black;stroke-width:1" />
  <polyline points="276.8185,370.947 276.8185,377.947" style="fill:none;stroke:black;stroke-width:1" />
  <polyline points="349.1935,370.947 349.1935,377.947" style="fill:none;stroke:black;stroke-width:1" />
  <polyline points="421.5685,370.947 421.5685,377.947" style="fill:none;stroke:black;stroke-width:1" />
  <polyline points="486.9395,370.947 486.9395,377.947" style="fill:none;stroke:black;stroke-width:1" />
  <polyline points="559.3145,370.947 559.3145,377.947" style="fill:none;stroke:black;stroke-width:1" />
  <polyline points="34.012,356.8142 36.3467,356.3899 38.6814,362.471 45.6854,358.5112 48.0201,362.471 50.3547,363.0367 52.6894,363.6024 55.0241,362.471 62.0281,366.9965 64.3628,365.2994 66.6975,365.8651 69.0322,365.2994 71.3668,365.2994 78.3709,365.8651 80.7056,367.5622 83.0402,365.8651 85.3749,365.2994 87.7096,363.0367 94.7136,356.8142 97.0483,352.2887 99.383,347.1975 101.7177,346.6319 104.0523,342.1064 111.0564,347.7632 113.391,348.3289 115.7257,352.2887 118.0604,350.5916 120.3951,351.723 127.3991,335.8838 129.7338,336.4495 132.0685,335.3182 134.4031,325.1358 136.7378,319.479 143.7419,312.6908 146.0765,313.8222 148.4112,305.9026 150.7459,304.7528 153.0806,307.6498 160.0846,292.5852 162.4193,290.847 164.754,285.6323 167.0886,275.2029 169.4233,253.1854 176.4273,230.5885 178.762,225.9532 181.0967,221.8974 183.4314,202.7769 185.7661,202.1975 192.7701,137.3037 195.1048,132.0891 197.4394,129.192 199.7741,131.5096 202.1088,98.4834 209.1128,118.1833 211.4475,107.7539 213.7822,108.9127 216.1169,101.3804 218.4515,119.3421 225.4556,90.9511 227.7903,84.5776 230.1249,58.5042 234.7943,32.4308 241.7983,61.4012 244.133,75.8864 246.4677,84.5776 248.8024,65.3847 251.137,120.5009 258.1411,167.433 260.4757,150.6301 262.8104,153.5272 265.1451,208.571 267.4798,185.974 274.4838,188.8711 276.8185,213.7856 279.1532,225.9532 281.4878,198.1416 283.8225,202.1975 290.8266,179.0211 293.1612,181.3388 295.4959,179.6005 297.8306,151.2095 300.1653,173.2271 307.1693,154.1066 309.504,144.2566 311.8387,132.6685 314.1733,145.4155 316.508,134.4067 323.5121,116.445 325.8467,117.0244 328.1814,140.7802 339.8548,157.0036 342.1895,154.686 344.5242,134.4067 346.8588,136.3622 356.1975,211.468 358.5322,235.2238 360.8669,250.8678 363.2016,236.962 365.5363,215.9584 374.875,192.9269 377.2096,195.2446 379.5443,217.2621 381.879,247.3913 388.883,255.9086 391.2177,275.7823 393.5524,267.0912 395.8871,285.0529 398.2217,285.6323 405.2258,272.3059 409.8951,279.8382 412.2298,259.5589 414.5645,247.9707 421.5685,264.1942 423.9032,278.3173 426.2379,272.3059 428.5726,279.8382 430.9072,290.847 437.9113,293.744 440.2459,290.847 442.5806,275.2029 444.9153,276.3617 447.25,269.4088 454.254,283.8941 456.5887,285.6323 458.9234,306.491 461.258,313.4439 463.5927,329.6673 470.5968,329.6673 472.9314,330.8261 475.2661,321.5556 477.6008,322.135 479.9355,317.4997 486.9395,329.0879 489.2742,327.9291 491.6089,323.8732 493.9435,300.6969 496.2782,294.9028 503.2822,265.353 505.6169,265.353 507.9516,263.6148 510.2863,278.6794 512.621,272.3059 519.625,261.8765 521.9597,262.4559 524.2943,254.9236 526.629,226.5326 528.9637,208.571 535.9677,200.4592 538.3024,199.8798 540.6371,204.5151 542.9718,192.9269 545.3064,205.6739 552.3105,224.215 554.6452,220.7385 556.9798,227.6914 559.3145,243.9149 561.6492,218.4209 570.9879,205.0945 573.3226,220.1591 575.6573,201.6181 577.9919,235.2238 584.996,225.8953 587.3306,216.1033 589.6653,168.0124 592,188.8711" style="fill:none;stroke:rgb(31,119,180);stroke-width:2;stroke-linejoin:bevel" />
  <text dominant-baseline="hanging" text-anchor="middle" transform="translate(313.006,8)" font-family="Segoe UI" font-size="18" font-weight="700" fill="black">7-Tage-Inzidenz Stadt Aachen 15.04.2021</text>
  <polygon points="34.012,29.0795 592,29.0795 592,370.947 34.012,370.947" style="fill:none;stroke:black;stroke-width:1" />
  <polygon points="42.012,37.0795 247.014,37.0795 247.014,63.1325 42.012,63.1325" style="fill:none;stroke:none;" />
  <text dominant-baseline="hanging" text-anchor="start" transform="translate(70.012,45.0795)" font-family="Segoe UI" font-size="12" font-weight="400" fill="black">7-Tage-Inzidenz Stadt Aachen 15.04.2021</text>
  <polyline points="50.012,50.106 66.012,50.106" style="fill:none;stroke:rgb(31,119,180);stroke-width:2" />
</svg>