<?xml version="1.0" encoding="utf-8" standalone="no"?>
<!DOCTYPE svg PUBLIC "-//W3C//DTD SVG 1.1//EN" "http://www.w3.org/Graphics/SVG/1.1/DTD/svg11.dtd">
<svg width="600" height="400" version="1.1" xmlns:xlink="http://www.w3.org/1999/xlink" xmlns="http://www.w3.org/2000/svg">
  <rect x="0" y="0" width="600" height="400" style="fill:rgb(255,255,255);stroke:none;" />
  <polyline points="34.012,358.4713 30.012,358.4713" style="fill:none;stroke:black;stroke-width:1" />
  <polyline points="34.012,344.2334 30.012,344.2334" style="fill:none;stroke:black;stroke-width:1" />
  <polyline points="34.012,329.9954 30.012,329.9954" style="fill:none;stroke:black;stroke-width:1" />
  <polyline points="34.012,315.7575 30.012,315.7575" style="fill:none;stroke:black;stroke-width:1" />
  <polyline points="34.012,287.2816 30.012,287.2816" style="fill:none;stroke:black;stroke-width:1" />
  <polyline points="34.012,273.0437 30.012,273.0437" style="fill:none;stroke:black;stroke-width:1" />
  <polyline points="34.012,258.8058 30.012,258.8058" style="fill:none;stroke:black;stroke-width:1" />
  <polyline points="34.012,244.5678 30.012,244.5678" style="fill:none;stroke:black;stroke-width:1" />
  <polyline points="34.012,216.0919 30.012,216.0919" style="fill:none;stroke:black;stroke-width:1" />
  <polyline points="34.012,201.854 30.012,201.854" style="fill:none;stroke:black;stroke-width:1" />
  <polyline points="34.012,187.6161 30.012,187.6161" style="fill:none;stroke:black;stroke-width:1" />
  <polyline points="34.012,173.3781 30.012,173.3781" style="fill:none;stroke:black;stroke-width:1" />
  <polyline points="34.012,144.9023 30.012,144.9023" style="fill:none;stroke:black;stroke-width:1" />
  <polyline points="34.012,130.6643 30.012,130.6643" style="fill:none;stroke:black;stroke-width:1" />
  <polyline points="34.012,116.4264 30.012,116.4264" style="fill:none;stroke:black;stroke-width:1" />
  <polyline points="34.012,102.1885 30.012,102.1885" style="fill:none;stroke:black;stroke-width:1" />
  <polyline points="34.012,73.7126 30.012,73.7126" style="fill:none;stroke:black;stroke-width:1" />
  <polyline points="34.012,59.4747 30.012,59.4747" style="fill:none;stroke:black;stroke-width:1" />
  <polyline points="34.012,45.2367 30.012,45.2367" style="fill:none;stroke:black;stroke-width:1" />
  <polyline points="34.012,30.9988 30.012,30.9988" style="fill:none;stroke:black;stroke-width:1" />
  <polyline points="55.4731,370.947 55.4731,374.947" style="fill:none;stroke:black;stroke-width:1" />
  <polyline points="156.1751,370.947 156.1751,374.947" style="fill:none;stroke:black;stroke-width:1" />
  <polyline points="256.877,370.947 256.877,374.947" style="fill:none;stroke:black;stroke-width:1" />
  <polyline points="354.2773,370.947 354.2773,374.947" style="fill:none;stroke:black;stroke-width:1" />
  <polyline points="454.9793,370.947 454.9793,374.947" style="fill:none;stroke:black;stroke-width:1" />
  <polyline points="555.6813,370.947 555.6813,374.947" style="fill:none;stroke:black;stroke-width:1" />
  <text dominant-baseline="middle" text-anchor="end" transform="translate(23.012,301.5196)" font-family="Segoe UI" font-size="12" font-weight="400" fill="black">50</text>
  <text dominant-baseline="middle" text-anchor="end" transform="translate(23.012,230.3299)" font-family="Segoe UI" font-size="12" font-weight="400" fill="black">100</text>
  <text dominant-baseline="middle" text-anchor="end" transform="translate(23.012,159.1402)" font-family="Segoe UI" font-size="12" font-weight="400" fill="black">150</text>
  <text dominant-baseline="middle" text-anchor="end" transform="translate(23.012,87.9505)" font-family="Segoe UI" font-size="12" font-weight="400" fill="black">200</text>
  <polyline points="34.012,301.5196 27.012,301.5196" style="fill:none;stroke:black;stroke-width:1" />
  <polyline points="34.012,230.3299 27.012,230.3299" style="fill:none;stroke:black;stroke-width:1" />
  <polyline points="34.012,159.1402 27.012,159.1402" style="fill:none;stroke:black;stroke-width:1" />
  <polyline points="34.012,87.9505 27.012,87.9505" style="fill:none;stroke:black;stroke-width:1" />
  <text dominant-baseline="hanging" text-anchor="middle" transform="translate(104.9986,381.947)" font-family="Segoe UI" font-size="12" font-weight="400" fill="black">01. October</text>
  <text dominant-baseline="hanging" text-anchor="middle" transform="translate(205.7006,381.947)" font-family="Segoe UI" font-size="12" font-weight="400" fill="black">01. December</text>
  <text dominant-baseline="hanging" text-anchor="middle" transform="translate(308.0534,381.947)" font-family="Segoe UI" font-size="12" font-weight="400" fill="black">01. February</text>
  <text dominant-baseline="hanging" text-anchor="middle" transform="translate(405.4537,381.947)" font-family="Segoe UI" font-size="12" font-weight="400" fill="black">01. April</text>
  <text dominant-baseline="hanging" text-anchor="middle" transform="translate(506.1557,381.947)" font-family="Segoe UI" font-size="12" font-weight="400" fill="black">01. June</text>
  <polyline points="104.9986,370.947 104.9986,377.947" style="fill:none;stroke:black;stroke-width:1" />
  <polyline points="205.7006,370.947 205.7006,377.947" style="fill:none;stroke:black;stroke-width:1" />
  <polyline points="308.0534,370.947 308.0534,377.947" style="fill:none;stroke:black;stroke-width:1" />
  <polyline points="405.4537,370.947 405.4537,377.947" style="fill:none;stroke:black;stroke-width:1" />
  <polyline points="506.1557,370.947 506.1557,377.947" style="fill:none;stroke:black;stroke-width:1" />
  <polyline points="34.012,352.6086 35.6629,352.1899 37.3137,358.1921 42.2663,354.2837 43.9171,358.1921 45.568,358.7505 47.2188,359.3088 48.8697,358.1921 53.8222,362.6589 55.4731,360.9839 57.1239,361.5422 58.7748,360.9839 60.4256,360.9839 65.3782,361.5422 67.029,363.2173 68.6799,361.5422 70.3307,360.9839 71.9816,358.7505 76.9342,352.6086 78.585,348.1418 80.2359,343.1167 81.8867,342.5583 83.5376,338.0915 88.4901,343.675 90.141,344.2334 91.7918,348.1418 93.4427,346.4668 95.0935,347.5835 100.0461,331.9497 101.6969,332.508 103.3478,331.3913 104.9986,321.341 106.6495,315.7575 111.602,309.0573 113.2529,310.174 114.9038,302.3571 116.5546,301.2222 118.2055,304.0817 123.158,289.2124 124.8089,287.4967 126.4597,282.3496 128.1106,272.0555 129.7614,250.3234 134.714,228.0194 136.3648,223.4443 138.0157,219.441 139.6665,200.5684 141.3174,199.9965 146.2699,135.9441 147.9208,130.797 149.5716,127.9375 151.2225,130.2251 152.8733,97.627 157.8259,117.0715 159.4768,106.7774 161.1276,107.9212 162.7785,100.4865 164.4293,118.2153 169.3819,90.1924 171.0327,83.9015 172.6836,58.1662 175.9853,32.4308 180.9378,61.0256 182.5887,75.3231 184.2395,83.9015 185.8904,64.9574 187.5412,119.3591 192.4938,165.6827 194.1447,149.0977 195.7955,151.9572 197.4464,206.2874 199.0972,183.9834 204.0498,186.8429 205.7006,211.4344 207.3515,223.4443 209.0023,195.9932 210.6532,199.9965 215.6057,177.1206 217.2566,179.4082 218.9074,177.6925 220.5583,149.6696 222.2091,171.4017 227.1617,152.5291 228.8125,142.8068 230.4634,131.3689 232.1142,143.9506 233.7651,133.0846 238.7177,115.3558 240.3685,115.9277 242.0194,139.3755 250.2736,155.3886 251.9245,153.101 253.5753,133.0846 255.2262,135.0148 261.8296,209.1468 263.4804,232.5946 265.1313,248.0358 266.7821,234.3103 268.433,213.579 275.0364,190.8461 276.6873,193.1337 278.3381,214.8658 279.989,244.6044 284.9415,253.0113 286.5924,272.6274 288.2432,264.0489 289.8941,281.7777 291.5449,282.3496 296.4975,269.196 299.7992,276.6306 301.45,256.6142 303.1009,245.1763 308.0534,261.1894 309.7043,275.1294 311.3551,269.196 313.006,276.6306 314.6569,287.4967 319.6094,290.3561 321.2603,287.4967 322.9111,272.0555 324.562,273.1992 326.2128,266.3365 331.1654,280.6339 332.8162,282.3496 334.4671,302.9379 336.1179,309.8006 337.7688,325.8137 342.7213,325.8137 344.3722,326.9575 346.023,317.8072 347.6739,318.3791 349.3247,313.8039 354.2773,325.2418 355.9282,324.098 357.579,320.0948 359.2299,297.2189 360.8807,291.4999 365.8333,262.3332 367.4841,262.3332 369.135,260.6175 370.7858,275.4868 372.4367,269.196 377.3892,258.9018 379.0401,259.4737 380.6909,252.0391 382.3418,224.0161 383.9926,206.2874 388.9452,198.2808 390.596,197.7089 392.2469,202.2841 393.8978,190.8461 395.5486,203.4279 400.5012,221.7286 402.152,218.2972 403.8029,225.1599 405.4537,241.173 407.1046,216.0096 413.708,202.856 415.3588,217.7253 417.0097,199.4246 418.6605,232.5946 423.6131,223.3871 425.2639,213.722 426.9148,166.2546 428.5656,186.8429 430.2165,182.8396 435.1691,174.2612 436.8199,155.3886 438.4708,160.5356 440.1216,146.8101 441.7725,122.7905 446.725,103.9179 448.3759,119.931 450.0267,134.2284 451.6776,128.5094 453.3284,131.3689 458.281,157.1043 459.9318,145.0944 461.5827,138.8036 463.2335,171.9736 464.8844,191.9899 469.8369,201.7122 471.4878,210.8625 473.1387,223.4443 476.4404,191.418 481.3929,194.2775 483.0438,179.9801 484.6946,174.2612 486.3455,178.5504 487.9963,213.722 494.5997,261.1894 496.2506,285.781 497.9014,295.5032 499.5523,298.9346 504.5048,306.6552 506.1557,311.5163 507.8065,310.3725 511.1082,330.9608 516.0608,346.402 517.7117,351.5491 519.3625,356.1242 521.0134,355.1949 522.6642,360.6994 527.6168,363.5589 529.2676,362.4151 530.9185,362.4151 532.5693,361.2713 534.2202,358.4118 539.1727,358.4118 540.8236,357.8399 542.4744,361.2713 544.1253,364.7027 545.7761,366.4184 550.7287,365.8465 552.3796,367.5622 554.0304,364.1308 555.6813,360.6994 557.3321,361.8432 562.2847,361.8432 565.5864,362.4151 568.8881,364.7027 573.8406,365.8465 577.1423,358.9837 580.444,348.1177 588.6983,336.6798 592,322.3823" style="fill:none;stroke:rgb(31,119,180);stroke-width:2;stroke-linejoin:bevel" />
  <text dominant-baseline="hanging" text-anchor="middle" transform="translate(313.006,8)" font-family="Segoe UI" font-size="18" font-weight="700" fill="black">7-Tage-Inzidenz Stadt Aachen 23.07.2021</text>
  <polygon points="34.012,29.0795 592,29.0795 592,370.947 34.012,370.947" style="fill:none;stroke:black;stroke-width:1" />
  <polygon points="42.012,37.0795 247.014,37.0795 247.014,63.1325 42.012,63.1325" style="fill:none;stroke:none;" />
  <text dominant-baseline="hanging" text-anchor="start" transform="translate(70.012,45.0795)" font-family="Segoe UI" font-size="12" font-weight="400" fill="black">7-Tage-Inzidenz Stadt Aachen 23.07.2021</text>
  <polyline points="50.012,50.106 66.012,50.106" style="fill:none;stroke:rgb(31,119,180);stroke-width:2" />
</svg>