<?xml version="1.0" encoding="utf-8" standalone="no"?>
<!DOCTYPE svg PUBLIC "-//W3C//DTD SVG 1.1//EN" "http://www.w3.org/Graphics/SVG/1.1/DTD/svg11.dtd">
<svg width="600" height="400" version="1.1" xmlns:xlink="http://www.w3.org/1999/xlink" xmlns="http://www.w3.org/2000/svg">
  <rect x="0" y="0" width="600" height="400" style="fill:rgb(255,255,255);stroke:none;" />
  <polyline points="34.012,362.7539 30.012,362.7539" style="fill:none;stroke:black;stroke-width:1" />
  <polyline points="34.012,348.3289 30.012,348.3289" style="fill:none;stroke:black;stroke-width:1" />
  <polyline points="34.012,333.904 30.012,333.904" style="fill:none;stroke:black;stroke-width:1" />
  <polyline points="34.012,319.479 30.012,319.479" style="fill:none;stroke:black;stroke-width:1" />
  <polyline points="34.012,290.6291 30.012,290.6291" style="fill:none;stroke:black;stroke-width:1" />
  <polyline points="34.012,276.2041 30.012,276.2041" style="fill:none;stroke:black;stroke-width:1" />
  <polyline points="34.012,261.7792 30.012,261.7792" style="fill:none;stroke:black;stroke-width:1" />
  <polyline points="34.012,247.3542 30.012,247.3542" style="fill:none;stroke:black;stroke-width:1" />
  <polyline points="34.012,218.5043 30.012,218.5043" style="fill:none;stroke:black;stroke-width:1" />
  <polyline points="34.012,204.0794 30.012,204.0794" style="fill:none;stroke:black;stroke-width:1" />
  <polyline points="34.012,189.6544 30.012,189.6544" style="fill:none;stroke:black;stroke-width:1" />
  <polyline points="34.012,175.2295 30.012,175.2295" style="fill:none;stroke:black;stroke-width:1" />
  <polyline points="34.012,146.3796 30.012,146.3796" style="fill:none;stroke:black;stroke-width:1" />
  <polyline points="34.012,131.9546 30.012,131.9546" style="fill:none;stroke:black;stroke-width:1" />
  <polyline points="34.012,117.5297 30.012,117.5297" style="fill:none;stroke:black;stroke-width:1" />
  <polyline points="34.012,103.1047 30.012,103.1047" style="fill:none;stroke:black;stroke-width:1" />
  <polyline points="34.012,74.2548 30.012,74.2548" style="fill:none;stroke:black;stroke-width:1" />
  <polyline points="34.012,59.8299 30.012,59.8299" style="fill:none;stroke:black;stroke-width:1" />
  <polyline points="34.012,45.4049 30.012,45.4049" style="fill:none;stroke:black;stroke-width:1" />
  <polyline points="34.012,30.98 30.012,30.98" style="fill:none;stroke:black;stroke-width:1" />
  <text dominant-baseline="middle" text-anchor="end" transform="translate(23.012,305.0541)" font-family="Segoe UI" font-size="12" font-weight="400" fill="black">50</text>
  <text dominant-baseline="middle" text-anchor="end" transform="translate(23.012,232.9293)" font-family="Segoe UI" font-size="12" font-weight="400" fill="black">100</text>
  <text dominant-baseline="middle" text-anchor="end" transform="translate(23.012,160.8045)" font-family="Segoe UI" font-size="12" font-weight="400" fill="black">150</text>
  <text dominant-baseline="middle" text-anchor="end" transform="translate(23.012,88.6798)" font-family="Segoe UI" font-size="12" font-weight="400" fill="black">200</text>
  <polyline points="34.012,305.0541 27.012,305.0541" style="fill:none;stroke:black;stroke-width:1" />
  <polyline points="34.012,232.9293 27.012,232.9293" style="fill:none;stroke:black;stroke-width:1" />
  <polyline points="34.012,160.8045 27.012,160.8045" style="fill:none;stroke:black;stroke-width:1" />
  <polyline points="34.012,88.6798 27.012,88.6798" style="fill:none;stroke:black;stroke-width:1" />
  <text dominant-baseline="hanging" text-anchor="middle" transform="translate(69.3966,381.947)" font-family="Segoe UI" font-size="12" font-weight="400" fill="black">01. September</text>
  <text dominant-baseline="hanging" text-anchor="middle" transform="translate(151.0534,381.947)" font-family="Segoe UI" font-size="12" font-weight="400" fill="black">01. October</text>
  <text dominant-baseline="hanging" text-anchor="middle" transform="translate(235.4321,381.947)" font-family="Segoe UI" font-size="12" font-weight="400" fill="black">01. November</text>
  <text dominant-baseline="hanging" text-anchor="middle" transform="translate(317.0888,381.947)" font-family="Segoe UI" font-size="12" font-weight="400" fill="black">01. December</text>
  <text dominant-baseline="hanging" text-anchor="middle" transform="translate(401.4675,381.947)" font-family="Segoe UI" font-size="12" font-weight="400" fill="black">01. January</text>
  <text dominant-baseline="hanging" text-anchor="middle" transform="translate(485.8462,381.947)" font-family="Segoe UI" font-size="12" font-weight="400" fill="black">01. February</text>
  <text dominant-baseline="hanging" text-anchor="middle" transform="translate(562.0592,381.947)" font-family="Segoe UI" font-size="12" font-weight="400" fill="black">01. March</text>
  <polyline points="69.3966,370.947 69.3966,377.947" style="fill:none;stroke:black;stroke-width:1" />
  <polyline points="151.0534,370.947 151.0534,377.947" style="fill:none;stroke:black;stroke-width:1" />
  <polyline points="235.4321,370.947 235.4321,377.947" style="fill:none;stroke:black;stroke-width:1" />
  <polyline points="317.0888,370.947 317.0888,377.947" style="fill:none;stroke:black;stroke-width:1" />
  <polyline points="401.4675,370.947 401.4675,377.947" style="fill:none;stroke:black;stroke-width:1" />
  <polyline points="485.8462,370.947 485.8462,377.947" style="fill:none;stroke:black;stroke-width:1" />
  <polyline points="562.0592,370.947 562.0592,377.947" style="fill:none;stroke:black;stroke-width:1" />
  <polyline points="34.012,356.8142 36.7339,356.3899 39.4558,362.471 47.6215,358.5112 50.3434,362.471 53.0652,363.0367 55.7871,363.6024 58.509,362.471 66.6747,366.9965 69.3966,365.2994 72.1185,365.8651 74.8404,365.2994 77.5623,365.2994 85.728,365.8651 88.4499,367.5622 91.1717,365.8651 93.8936,365.2994 96.6155,363.0367 104.7812,356.8142 107.5031,352.2887 110.225,347.1975 112.9469,346.6319 115.6688,342.1064 123.8345,347.7632 126.5564,348.3289 129.2782,352.2887 132.0001,350.5916 134.722,351.723 142.8877,335.8838 145.6096,336.4495 148.3315,335.3182 151.0534,325.1358 153.7753,319.479 161.941,312.6908 164.6628,313.8222 167.3847,305.9026 170.1066,304.7528 172.8285,307.6498 180.9942,292.5852 183.7161,290.847 186.438,285.6323 189.1599,275.2029 191.8818,253.1854 200.0475,230.5885 202.7693,225.9532 205.4912,221.8974 208.2131,202.7769 210.935,202.1975 219.1007,137.3037 221.8226,132.0891 224.5445,129.192 227.2664,131.5096 229.9883,98.4834 238.154,118.1833 240.8758,107.7539 243.5977,108.9127 246.3196,101.3804 249.0415,119.3421 257.2072,90.9511 259.9291,84.5776 262.651,58.5042 268.0948,32.4308 276.2604,61.4012 278.9823,75.8864 281.7042,84.5776 284.4261,65.3847 287.148,120.5009 295.3137,167.433 298.0356,150.6301 300.7575,153.5272 303.4794,208.571 306.2013,185.974 314.3669,188.8711 317.0888,213.7856 319.8107,225.9532 322.5326,198.1416 325.2545,202.1975 333.4202,179.0211 336.1421,181.3388 338.864,179.6005 341.5859,151.2095 344.3078,173.2271 352.4734,154.1066 355.1953,144.2566 357.9172,132.6685 360.6391,145.4155 363.361,134.4067 371.5267,116.445 374.2486,117.0244 376.9705,140.7802 390.5799,157.0036 393.3018,154.686 396.0237,134.4067 398.7456,136.3622 409.6332,211.468 412.3551,235.2238 415.077,250.8678 417.7989,236.962 420.5208,215.9584 431.4083,192.9269 434.1302,195.2446 436.8521,217.2621 439.574,247.3913 447.7397,255.9086 450.4616,275.7823 453.1835,267.0912 455.9054,285.0529 458.6273,285.6323 466.7929,272.3059 472.2367,279.8382 474.9586,259.5589 477.6805,247.9707 485.8462,264.1942 488.5681,278.3173 491.29,272.3059 494.0119,279.8382 496.7338,290.847 504.8994,293.744 507.6213,290.847 510.3432,275.2029 513.0651,276.3617 515.787,269.4088 523.9527,283.8941 526.6746,285.6323 529.3965,306.491 532.1184,313.4439 534.8403,329.6673 543.0059,329.6673 545.7278,330.8261 548.4497,321.5556 551.1716,322.135 553.8935,317.4997 562.0592,329.0879 564.7811,327.9291 567.503,323.8732 570.2249,300.6969 572.9468,294.9028 581.1124,265.353 583.8343,265.353 586.5562,263.6148 589.2781,278.6794 592,272.3059" style="fill:none;stroke:rgb(31,119,180);stroke-width:2;stroke-linejoin:bevel" />
  <text dominant-baseline="hanging" text-anchor="middle" transform="translate(313.006,8)" font-family="Segoe UI" font-size="18" font-weight="700" fill="black">7-Tage-Inzidenz Stadt Aachen 12.03.2021</text>
  <polygon points="34.012,29.0795 592,29.0795 592,370.947 34.012,370.947" style="fill:none;stroke:black;stroke-width:1" />
  <polygon points="42.012,37.0795 247.014,37.0795 247.014,63.1325 42.012,63.1325" style="fill:none;stroke:none;" />
  <text dominant-baseline="hanging" text-anchor="start" transform="translate(70.012,45.0795)" font-family="Segoe UI" font-size="12" font-weight="400" fill="black">7-Tage-Inzidenz Stadt Aachen 12.03.2021</text>
  <polyline points="50.012,50.106 66.012,50.106" style="fill:none;stroke:rgb(31,119,180);stroke-width:2" />
</svg>