<?xml version="1.0" encoding="utf-8" standalone="no"?>
<!DOCTYPE svg PUBLIC "-//W3C//DTD SVG 1.1//EN" "http://www.w3.org/Graphics/SVG/1.1/DTD/svg11.dtd">
<svg width="600" height="400" version="1.1" xmlns:xlink="http://www.w3.org/1999/xlink" xmlns="http://www.w3.org/2000/svg">
  <rect x="0" y="0" width="600" height="400" style="fill:rgb(255,255,255);stroke:none;" />
  <polyline points="34.012,362.7539 30.012,362.7539" style="fill:none;stroke:black;stroke-width:1" />
  <polyline points="34.012,348.3289 30.012,348.3289" style="fill:none;stroke:black;stroke-width:1" />
  <polyline points="34.012,333.904 30.012,333.904" style="fill:none;stroke:black;stroke-width:1" />
  <polyline points="34.012,319.479 30.012,319.479" style="fill:none;stroke:black;stroke-width:1" />
  <polyline points="34.012,290.6291 30.012,290.6291" style="fill:none;stroke:black;stroke-width:1" />
  <polyline points="34.012,276.2041 30.012,276.2041" style="fill:none;stroke:black;stroke-width:1" />
  <polyline points="34.012,261.7792 30.012,261.7792" style="fill:none;stroke:black;stroke-width:1" />
  <polyline points="34.012,247.3542 30.012,247.3542" style="fill:none;stroke:black;stroke-width:1" />
  <polyline points="34.012,218.5043 30.012,218.5043" style="fill:none;stroke:black;stroke-width:1" />
  <polyline points="34.012,204.0794 30.012,204.0794" style="fill:none;stroke:black;stroke-width:1" />
  <polyline points="34.012,189.6544 30.012,189.6544" style="fill:none;stroke:black;stroke-width:1" />
  <polyline points="34.012,175.2295 30.012,175.2295" style="fill:none;stroke:black;stroke-width:1" />
  <polyline points="34.012,146.3796 30.012,146.3796" style="fill:none;stroke:black;stroke-width:1" />
  <polyline points="34.012,131.9546 30.012,131.9546" style="fill:none;stroke:black;stroke-width:1" />
  <polyline points="34.012,117.5297 30.012,117.5297" style="fill:none;stroke:black;stroke-width:1" />
  <polyline points="34.012,103.1047 30.012,103.1047" style="fill:none;stroke:black;stroke-width:1" />
  <polyline points="34.012,74.2548 30.012,74.2548" style="fill:none;stroke:black;stroke-width:1" />
  <polyline points="34.012,59.8299 30.012,59.8299" style="fill:none;stroke:black;stroke-width:1" />
  <polyline points="34.012,45.4049 30.012,45.4049" style="fill:none;stroke:black;stroke-width:1" />
  <polyline points="34.012,30.98 30.012,30.98" style="fill:none;stroke:black;stroke-width:1" />
  <text dominant-baseline="middle" text-anchor="end" transform="translate(23.012,305.0541)" font-family="Segoe UI" font-size="12" font-weight="400" fill="black">50</text>
  <text dominant-baseline="middle" text-anchor="end" transform="translate(23.012,232.9293)" font-family="Segoe UI" font-size="12" font-weight="400" fill="black">100</text>
  <text dominant-baseline="middle" text-anchor="end" transform="translate(23.012,160.8045)" font-family="Segoe UI" font-size="12" font-weight="400" fill="black">150</text>
  <text dominant-baseline="middle" text-anchor="end" transform="translate(23.012,88.6798)" font-family="Segoe UI" font-size="12" font-weight="400" fill="black">200</text>
  <polyline points="34.012,305.0541 27.012,305.0541" style="fill:none;stroke:black;stroke-width:1" />
  <polyline points="34.012,232.9293 27.012,232.9293" style="fill:none;stroke:black;stroke-width:1" />
  <polyline points="34.012,160.8045 27.012,160.8045" style="fill:none;stroke:black;stroke-width:1" />
  <polyline points="34.012,88.6798 27.012,88.6798" style="fill:none;stroke:black;stroke-width:1" />
  <text dominant-baseline="hanging" text-anchor="middle" transform="translate(68.5541,381.947)" font-family="Segoe UI" font-size="12" font-weight="400" fill="black">01. September</text>
  <text dominant-baseline="hanging" text-anchor="middle" transform="translate(148.2667,381.947)" font-family="Segoe UI" font-size="12" font-weight="400" fill="black">01. October</text>
  <text dominant-baseline="hanging" text-anchor="middle" transform="translate(230.6363,381.947)" font-family="Segoe UI" font-size="12" font-weight="400" fill="black">01. November</text>
  <text dominant-baseline="hanging" text-anchor="middle" transform="translate(310.3489,381.947)" font-family="Segoe UI" font-size="12" font-weight="400" fill="black">01. December</text>
  <text dominant-baseline="hanging" text-anchor="middle" transform="translate(392.7186,381.947)" font-family="Segoe UI" font-size="12" font-weight="400" fill="black">01. January</text>
  <text dominant-baseline="hanging" text-anchor="middle" transform="translate(475.0882,381.947)" font-family="Segoe UI" font-size="12" font-weight="400" fill="black">01. February</text>
  <text dominant-baseline="hanging" text-anchor="middle" transform="translate(549.4866,381.947)" font-family="Segoe UI" font-size="12" font-weight="400" fill="black">01. March</text>
  <polyline points="68.5541,370.947 68.5541,377.947" style="fill:none;stroke:black;stroke-width:1" />
  <polyline points="148.2667,370.947 148.2667,377.947" style="fill:none;stroke:black;stroke-width:1" />
  <polyline points="230.6363,370.947 230.6363,377.947" style="fill:none;stroke:black;stroke-width:1" />
  <polyline points="310.3489,370.947 310.3489,377.947" style="fill:none;stroke:black;stroke-width:1" />
  <polyline points="392.7186,370.947 392.7186,377.947" style="fill:none;stroke:black;stroke-width:1" />
  <polyline points="475.0882,370.947 475.0882,377.947" style="fill:none;stroke:black;stroke-width:1" />
  <polyline points="549.4866,370.947 549.4866,377.947" style="fill:none;stroke:black;stroke-width:1" />
  <polyline points="34.012,356.8142 36.6691,356.3899 39.3262,362.471 47.2974,358.5112 49.9545,362.471 52.6116,363.0367 55.2687,363.6024 57.9258,362.471 65.897,366.9965 68.5541,365.2994 71.2112,365.8651 73.8683,365.2994 76.5254,365.2994 84.4966,365.8651 87.1537,367.5622 89.8108,365.8651 92.4679,365.2994 95.125,363.0367 103.0962,356.8142 105.7533,352.2887 108.4104,347.1975 111.0675,346.6319 113.7246,342.1064 121.6958,347.7632 124.3529,348.3289 127.01,352.2887 129.6671,350.5916 132.3242,351.723 140.2954,335.8838 142.9525,336.4495 145.6096,335.3182 148.2667,325.1358 150.9238,319.479 158.895,312.6908 161.5521,313.8222 164.2092,305.9026 166.8663,304.7528 169.5234,307.6498 177.4946,292.5852 180.1517,290.847 182.8088,285.6323 185.4659,275.2029 188.123,253.1854 196.0942,230.5885 198.7513,225.9532 201.4084,221.8974 204.0655,202.7769 206.7226,202.1975 214.6938,137.3037 217.3509,132.0891 220.008,129.192 222.6651,131.5096 225.3222,98.4834 233.2934,118.1833 235.9505,107.7539 238.6076,108.9127 241.2647,101.3804 243.9218,119.3421 251.893,90.9511 254.5501,84.5776 257.2072,58.5042 262.5214,32.4308 270.4926,61.4012 273.1497,75.8864 275.8068,84.5776 278.4639,65.3847 281.121,120.5009 289.0922,167.433 291.7493,150.6301 294.4064,153.5272 297.0635,208.571 299.7206,185.974 307.6918,188.8711 310.3489,213.7856 313.006,225.9532 315.6631,198.1416 318.3202,202.1975 326.2914,179.0211 328.9485,181.3388 331.6056,179.6005 334.2627,151.2095 336.9198,173.2271 344.891,154.1066 347.5481,144.2566 350.2052,132.6685 352.8623,145.4155 355.5194,134.4067 363.4906,116.445 366.1477,117.0244 368.8048,140.7802 382.0902,157.0036 384.7473,154.686 387.4044,134.4067 390.0615,136.3622 400.6898,211.468 403.3469,235.2238 406.004,250.8678 408.6611,236.962 411.3182,215.9584 421.9465,192.9269 424.6036,195.2446 427.2607,217.2621 429.9178,247.3913 437.889,255.9086 440.5461,275.7823 443.2032,267.0912 445.8603,285.0529 448.5174,285.6323 456.4886,272.3059 461.8028,279.8382 464.4599,259.5589 467.117,247.9707 475.0882,264.1942 477.7453,278.3173 480.4024,272.3059 483.0595,279.8382 485.7166,290.847 493.6878,293.744 496.3449,290.847 499.002,275.2029 501.6591,276.3617 504.3162,269.4088 512.2874,283.8941 514.9445,285.6323 517.6016,306.491 520.2587,313.4439 522.9158,329.6673 530.887,329.6673 533.5441,330.8261 536.2012,321.5556 538.8583,322.135 541.5154,317.4997 549.4866,329.0879 552.1437,327.9291 554.8008,323.8732 557.4579,300.6969 560.115,294.9028 568.0862,265.353 570.7433,265.353 573.4004,263.6148 576.0575,278.6794 578.7146,272.3059 586.6858,261.8765 589.3429,262.4559 592,254.9236" style="fill:none;stroke:rgb(31,119,180);stroke-width:2;stroke-linejoin:bevel" />
  <text dominant-baseline="hanging" text-anchor="middle" transform="translate(313.006,8)" font-family="Segoe UI" font-size="18" font-weight="700" fill="black">7-Tage-Inzidenz Stadt Aachen 17.03.2021</text>
  <polygon points="34.012,29.0795 592,29.0795 592,370.947 34.012,370.947" style="fill:none;stroke:black;stroke-width:1" />
  <polygon points="42.012,37.0795 247.014,37.0795 247.014,63.1325 42.012,63.1325" style="fill:none;stroke:none;" />
  <text dominant-baseline="hanging" text-anchor="start" transform="translate(70.012,45.0795)" font-family="Segoe UI" font-size="12" font-weight="400" fill="black">7-Tage-Inzidenz Stadt Aachen 17.03.2021</text>
  <polyline points="50.012,50.106 66.012,50.106" style="fill:none;stroke:rgb(31,119,180);stroke-width:2" />
</svg>