<?xml version="1.0" encoding="utf-8" standalone="no"?>
<!DOCTYPE svg PUBLIC "-//W3C//DTD SVG 1.1//EN" "http://www.w3.org/Graphics/SVG/1.1/DTD/svg11.dtd">
<svg width="600" height="400" version="1.1" xmlns:xlink="http://www.w3.org/1999/xlink" xmlns="http://www.w3.org/2000/svg">
  <rect x="0" y="0" width="600" height="400" style="fill:rgb(255,255,255);stroke:none;" />
  <polyline points="34.012,362.7539 30.012,362.7539" style="fill:none;stroke:black;stroke-width:1" />
  <polyline points="34.012,348.3289 30.012,348.3289" style="fill:none;stroke:black;stroke-width:1" />
  <polyline points="34.012,333.904 30.012,333.904" style="fill:none;stroke:black;stroke-width:1" />
  <polyline points="34.012,319.479 30.012,319.479" style="fill:none;stroke:black;stroke-width:1" />
  <polyline points="34.012,290.6291 30.012,290.6291" style="fill:none;stroke:black;stroke-width:1" />
  <polyline points="34.012,276.2041 30.012,276.2041" style="fill:none;stroke:black;stroke-width:1" />
  <polyline points="34.012,261.7792 30.012,261.7792" style="fill:none;stroke:black;stroke-width:1" />
  <polyline points="34.012,247.3542 30.012,247.3542" style="fill:none;stroke:black;stroke-width:1" />
  <polyline points="34.012,218.5043 30.012,218.5043" style="fill:none;stroke:black;stroke-width:1" />
  <polyline points="34.012,204.0794 30.012,204.0794" style="fill:none;stroke:black;stroke-width:1" />
  <polyline points="34.012,189.6544 30.012,189.6544" style="fill:none;stroke:black;stroke-width:1" />
  <polyline points="34.012,175.2295 30.012,175.2295" style="fill:none;stroke:black;stroke-width:1" />
  <polyline points="34.012,146.3796 30.012,146.3796" style="fill:none;stroke:black;stroke-width:1" />
  <polyline points="34.012,131.9546 30.012,131.9546" style="fill:none;stroke:black;stroke-width:1" />
  <polyline points="34.012,117.5297 30.012,117.5297" style="fill:none;stroke:black;stroke-width:1" />
  <polyline points="34.012,103.1047 30.012,103.1047" style="fill:none;stroke:black;stroke-width:1" />
  <polyline points="34.012,74.2548 30.012,74.2548" style="fill:none;stroke:black;stroke-width:1" />
  <polyline points="34.012,59.8299 30.012,59.8299" style="fill:none;stroke:black;stroke-width:1" />
  <polyline points="34.012,45.4049 30.012,45.4049" style="fill:none;stroke:black;stroke-width:1" />
  <polyline points="34.012,30.98 30.012,30.98" style="fill:none;stroke:black;stroke-width:1" />
  <text dominant-baseline="middle" text-anchor="end" transform="translate(23.012,305.0541)" font-family="Segoe UI" font-size="12" font-weight="400" fill="black">50</text>
  <text dominant-baseline="middle" text-anchor="end" transform="translate(23.012,232.9293)" font-family="Segoe UI" font-size="12" font-weight="400" fill="black">100</text>
  <text dominant-baseline="middle" text-anchor="end" transform="translate(23.012,160.8045)" font-family="Segoe UI" font-size="12" font-weight="400" fill="black">150</text>
  <text dominant-baseline="middle" text-anchor="end" transform="translate(23.012,88.6798)" font-family="Segoe UI" font-size="12" font-weight="400" fill="black">200</text>
  <polyline points="34.012,305.0541 27.012,305.0541" style="fill:none;stroke:black;stroke-width:1" />
  <polyline points="34.012,232.9293 27.012,232.9293" style="fill:none;stroke:black;stroke-width:1" />
  <polyline points="34.012,160.8045 27.012,160.8045" style="fill:none;stroke:black;stroke-width:1" />
  <polyline points="34.012,88.6798 27.012,88.6798" style="fill:none;stroke:black;stroke-width:1" />
  <text dominant-baseline="hanging" text-anchor="middle" transform="translate(83.3579,381.947)" font-family="Segoe UI" font-size="12" font-weight="400" fill="black">01. September</text>
  <text dominant-baseline="hanging" text-anchor="middle" transform="translate(197.233,381.947)" font-family="Segoe UI" font-size="12" font-weight="400" fill="black">01. October</text>
  <text dominant-baseline="hanging" text-anchor="middle" transform="translate(314.9039,381.947)" font-family="Segoe UI" font-size="12" font-weight="400" fill="black">01. November</text>
  <text dominant-baseline="hanging" text-anchor="middle" transform="translate(428.779,381.947)" font-family="Segoe UI" font-size="12" font-weight="400" fill="black">01. December</text>
  <text dominant-baseline="hanging" text-anchor="middle" transform="translate(546.45,381.947)" font-family="Segoe UI" font-size="12" font-weight="400" fill="black">01. January</text>
  <polyline points="83.3579,370.947 83.3579,377.947" style="fill:none;stroke:black;stroke-width:1" />
  <polyline points="197.233,370.947 197.233,377.947" style="fill:none;stroke:black;stroke-width:1" />
  <polyline points="314.9039,370.947 314.9039,377.947" style="fill:none;stroke:black;stroke-width:1" />
  <polyline points="428.779,370.947 428.779,377.947" style="fill:none;stroke:black;stroke-width:1" />
  <polyline points="546.45,370.947 546.45,377.947" style="fill:none;stroke:black;stroke-width:1" />
  <polyline points="34.012,356.8142 37.8078,356.3899 41.6037,362.471 52.9912,358.5112 56.787,362.471 60.5829,363.0367 64.3787,363.6024 68.1745,362.471 79.562,366.9965 83.3579,365.2994 87.1537,365.8651 90.9496,365.2994 94.7454,365.2994 106.1329,365.8651 109.9287,367.5622 113.7246,365.8651 117.5204,365.2994 121.3162,363.0367 132.7038,356.8142 136.4996,352.2887 140.2954,347.1975 144.0913,346.6319 147.8871,342.1064 159.2746,347.7632 163.0704,348.3289 166.8663,352.2887 170.6621,350.5916 174.458,351.723 185.8455,335.8838 189.6413,336.4495 193.4371,335.3182 197.233,325.1358 201.0288,319.479 212.4163,312.6908 216.2122,313.8222 220.008,305.9026 223.8038,304.7528 227.5997,307.6498 238.9872,292.5852 242.783,290.847 246.5789,285.6323 250.3747,275.2029 254.1705,253.1854 265.558,230.5885 269.3539,225.9532 273.1497,221.8974 276.9456,202.7769 280.7414,202.1975 292.1289,137.3037 295.9247,132.0891 299.7206,129.192 303.5164,131.5096 307.3122,98.4834 318.6998,118.1833 322.4956,107.7539 326.2914,108.9127 330.0873,101.3804 333.8831,119.3421 345.2706,90.9511 349.0664,84.5776 352.8623,58.5042 360.454,32.4308 371.8415,61.4012 375.6373,75.8864 379.4331,84.5776 383.229,65.3847 387.0248,120.5009 398.4123,167.433 402.2082,150.6301 406.004,153.5272 409.7998,208.571 413.5957,185.974 424.9832,188.8711 428.779,213.7856 432.5749,225.9532 436.3707,198.1416 440.1665,202.1975 451.554,179.0211 455.3499,181.3388 459.1457,179.6005 462.9416,151.2095 466.7374,173.2271 478.1249,154.1066 481.9207,144.2566 485.7166,132.6685 489.5124,145.4155 493.3082,134.4067 504.6958,116.445 508.4916,117.0244 512.2874,140.7802 531.2666,157.0036 535.0624,154.686 538.8583,134.4067 542.6541,136.3622 557.8375,211.468 561.6333,235.2238 565.4291,250.8678 569.225,236.962 573.0208,215.9584 584.4083,202.7769 588.2042,192.9269 592,195.2446" style="fill:none;stroke:rgb(31,119,180);stroke-width:2;stroke-linejoin:bevel" />
  <text dominant-baseline="hanging" text-anchor="middle" transform="translate(313.006,8)" font-family="Segoe UI" font-size="18" font-weight="700" fill="black">7-Tage-Inzidenz Stadt Aachen 13.01.2021</text>
  <polygon points="34.012,29.0795 592,29.0795 592,370.947 34.012,370.947" style="fill:none;stroke:black;stroke-width:1" />
  <polygon points="42.012,37.0795 247.014,37.0795 247.014,63.1325 42.012,63.1325" style="fill:none;stroke:none;" />
  <text dominant-baseline="hanging" text-anchor="start" transform="translate(70.012,45.0795)" font-family="Segoe UI" font-size="12" font-weight="400" fill="black">7-Tage-Inzidenz Stadt Aachen 13.01.2021</text>
  <polyline points="50.012,50.106 66.012,50.106" style="fill:none;stroke:rgb(31,119,180);stroke-width:2" />
</svg>