<?xml version="1.0" encoding="utf-8" standalone="no"?>
<!DOCTYPE svg PUBLIC "-//W3C//DTD SVG 1.1//EN" "http://www.w3.org/Graphics/SVG/1.1/DTD/svg11.dtd">
<svg width="600" height="400" version="1.1" xmlns:xlink="http://www.w3.org/1999/xlink" xmlns="http://www.w3.org/2000/svg">
  <rect x="0" y="0" width="600" height="400" style="fill:rgb(255,255,255);stroke:none;" />
  <polyline points="34.012,353.4851 30.012,353.4851" style="fill:none;stroke:black;stroke-width:1" />
  <polyline points="34.012,339.4649 30.012,339.4649" style="fill:none;stroke:black;stroke-width:1" />
  <polyline points="34.012,325.4447 30.012,325.4447" style="fill:none;stroke:black;stroke-width:1" />
  <polyline points="34.012,311.4245 30.012,311.4245" style="fill:none;stroke:black;stroke-width:1" />
  <polyline points="34.012,283.3841 30.012,283.3841" style="fill:none;stroke:black;stroke-width:1" />
  <polyline points="34.012,269.3639 30.012,269.3639" style="fill:none;stroke:black;stroke-width:1" />
  <polyline points="34.012,255.3438 30.012,255.3438" style="fill:none;stroke:black;stroke-width:1" />
  <polyline points="34.012,241.3236 30.012,241.3236" style="fill:none;stroke:black;stroke-width:1" />
  <polyline points="34.012,213.2832 30.012,213.2832" style="fill:none;stroke:black;stroke-width:1" />
  <polyline points="34.012,199.263 30.012,199.263" style="fill:none;stroke:black;stroke-width:1" />
  <polyline points="34.012,185.2428 30.012,185.2428" style="fill:none;stroke:black;stroke-width:1" />
  <polyline points="34.012,171.2226 30.012,171.2226" style="fill:none;stroke:black;stroke-width:1" />
  <polyline points="34.012,143.1822 30.012,143.1822" style="fill:none;stroke:black;stroke-width:1" />
  <polyline points="34.012,129.162 30.012,129.162" style="fill:none;stroke:black;stroke-width:1" />
  <polyline points="34.012,115.1418 30.012,115.1418" style="fill:none;stroke:black;stroke-width:1" />
  <polyline points="34.012,101.1216 30.012,101.1216" style="fill:none;stroke:black;stroke-width:1" />
  <polyline points="34.012,73.0813 30.012,73.0813" style="fill:none;stroke:black;stroke-width:1" />
  <polyline points="34.012,59.0611 30.012,59.0611" style="fill:none;stroke:black;stroke-width:1" />
  <polyline points="34.012,45.0409 30.012,45.0409" style="fill:none;stroke:black;stroke-width:1" />
  <polyline points="34.012,31.0207 30.012,31.0207" style="fill:none;stroke:black;stroke-width:1" />
  <text dominant-baseline="middle" text-anchor="end" transform="translate(23.012,367.5053)" font-family="Segoe UI" font-size="12" font-weight="400" fill="black">0</text>
  <text dominant-baseline="middle" text-anchor="end" transform="translate(23.012,297.4043)" font-family="Segoe UI" font-size="12" font-weight="400" fill="black">50</text>
  <text dominant-baseline="middle" text-anchor="end" transform="translate(23.012,227.3034)" font-family="Segoe UI" font-size="12" font-weight="400" fill="black">100</text>
  <text dominant-baseline="middle" text-anchor="end" transform="translate(23.012,157.2024)" font-family="Segoe UI" font-size="12" font-weight="400" fill="black">150</text>
  <text dominant-baseline="middle" text-anchor="end" transform="translate(23.012,87.1015)" font-family="Segoe UI" font-size="12" font-weight="400" fill="black">200</text>
  <polyline points="34.012,367.5053 27.012,367.5053" style="fill:none;stroke:black;stroke-width:1" />
  <polyline points="34.012,297.4043 27.012,297.4043" style="fill:none;stroke:black;stroke-width:1" />
  <polyline points="34.012,227.3034 27.012,227.3034" style="fill:none;stroke:black;stroke-width:1" />
  <polyline points="34.012,157.2024 27.012,157.2024" style="fill:none;stroke:black;stroke-width:1" />
  <polyline points="34.012,87.1015 27.012,87.1015" style="fill:none;stroke:black;stroke-width:1" />
  <text dominant-baseline="hanging" text-anchor="middle" transform="translate(210.8743,381.947)" font-family="Segoe UI" font-size="12" font-weight="400" fill="black">01. January</text>
  <polyline points="210.8743,370.947 210.8743,377.947" style="fill:none;stroke:black;stroke-width:1" />
  <polyline points="34.012,367.5622 36.503,367.5621 40.2395,367.5621 41.4851,367.562 42.7306,347.7121 43.9761,347.2997 45.2216,353.2102 48.9581,349.3615 50.2036,353.2102 51.4491,353.76 52.6946,354.3098 53.9401,353.2102 57.6767,357.6087 58.9222,355.9593 60.1677,356.5091 61.4132,355.9593 62.6587,355.9593 66.3952,356.5091 67.6407,358.1585 68.8862,356.5091 70.1318,355.9593 71.3773,353.76 75.1138,347.7121 76.3593,343.3136 77.6048,338.3653 78.8503,337.8155 80.0958,333.417 83.8324,338.9151 85.0779,339.4649 86.3234,343.3136 87.5689,341.6642 88.8144,342.7638 92.5509,327.3691 93.7964,327.9189 95.0419,326.8192 96.2874,316.9226 97.533,311.4245 101.2695,304.8268 102.515,305.9264 103.7605,298.229 105.006,297.1115 106.2515,299.9272 109.988,285.2853 111.2336,283.5959 112.4791,278.5275 113.7246,268.3908 114.9701,246.9911 118.7066,225.0282 119.9521,220.523 121.1976,216.581 122.4431,197.997 123.6886,197.4339 127.4252,134.361 128.6707,129.2927 129.9162,126.4769 131.1617,128.7295 132.4072,96.63 136.1437,115.7771 137.3892,105.6404 138.6347,106.7667 139.8803,99.4457 141.1258,116.9034 144.8623,89.309 146.1078,83.1143 147.3533,57.7726 149.8443,32.4308 153.5809,60.5883 154.8264,74.6671 156.0719,83.1143 157.3174,64.46 158.5629,118.0297 162.2994,163.6449 163.5449,147.3135 164.7904,150.1292 166.0359,203.6285 167.2815,181.6657 171.018,184.4814 172.2635,208.6969 173.509,220.523 174.7545,193.4918 176,197.4339 179.7365,174.9079 180.9821,177.1605 182.2276,175.471 183.4731,147.8766 184.7186,169.2764 188.4551,150.6924 189.7006,141.1188 190.9461,129.8558 192.1916,142.2451 193.4371,131.5453 197.1737,114.0876 198.4192,114.6508 199.6647,137.7399 205.8922,153.5081 207.1377,151.2555 208.3832,131.5453 209.6288,133.4459 214.6108,206.4443 215.8563,229.5334 217.1018,244.7385 218.3473,231.2229 219.5928,210.8087 224.5749,188.4235 225.8204,190.6761 227.0659,212.0758 228.3114,241.3596 232.0479,249.6379 233.2934,268.954 234.5389,260.5067 235.7844,277.9644 237.03,278.5275 240.7665,265.5751 243.2575,272.896 244.503,253.1858 245.7485,241.9228 249.485,257.691 250.7306,271.4178 251.9761,265.5751 253.2216,272.896 254.4671,283.5959 258.2036,286.4116 259.4491,283.5959 260.6946,268.3908 261.9401,269.5171 263.1856,262.7593 266.9222,276.8381 268.1677,278.5275 269.4132,298.8009 270.6587,305.5587 271.9042,321.327 275.6407,321.327 276.8862,322.4533 278.1317,313.4429 279.3773,314.006 280.6228,309.5008 284.3593,320.7638 285.6048,319.6375 286.8503,315.6955 288.0958,293.1694 289.3413,287.5379 293.0779,258.8173 294.3234,258.8173 295.5689,257.1278 296.8144,271.7697 298.0599,265.5751 301.7964,255.4384 303.0419,256.0015 304.2874,248.6806 305.5329,221.0862 306.7785,203.6285 310.515,195.7444 311.7605,195.1813 313.006,199.6865 314.2515,188.4235 315.497,200.8128 319.2335,218.8336 320.4791,215.4547 321.7246,222.2125 322.9701,237.9807 324.2156,213.2021 329.1976,200.2496 330.4431,214.8915 331.6886,196.8707 332.9341,229.5334 336.6707,220.4667 337.9162,210.9495 339.1617,164.208 340.4072,184.4814 341.6527,180.5394 345.3892,172.0921 346.6347,153.5081 347.8802,158.5765 349.1258,145.0609 350.3713,121.4086 354.1078,102.8246 355.3533,118.5928 356.5988,132.6716 357.8443,127.0401 359.0898,129.8558 362.8264,155.1976 364.0719,143.3714 365.3174,137.1768 366.5629,169.8395 367.8084,189.5498 371.5449,199.1233 372.7904,208.1337 374.0359,220.523 376.527,188.9866 380.2635,191.8024 381.509,177.7236 382.7545,172.0921 384,176.3157 385.2455,210.9495 390.2276,257.691 391.4731,281.9064 392.7186,291.48 393.9641,294.8589 397.7006,302.4614 398.9461,307.2482 400.1916,306.1219 402.6826,326.3953 406.4192,341.6004 407.6647,346.6687 408.9102,351.1739 410.1557,350.2588 411.4012,355.6791 415.1377,358.4949 416.3832,357.3686 417.6287,357.3686 418.8743,356.2423 420.1198,353.4265 423.8563,353.4265 425.1018,352.8634 426.3473,356.2423 427.5928,359.6212 428.8383,361.3106 432.5749,360.7475 433.8204,362.4369 435.0659,359.058 436.3114,355.6791 437.5569,356.8054 441.2934,356.8054 443.7844,357.3686 446.2755,359.6212 450.012,360.7475 452.503,353.9897 454.994,343.2898 461.2216,332.0268 463.7126,317.9481 469.9401,316.2586 472.4311,329.7742 478.6587,329.2111 481.1497,323.0164 487.3772,294.8589 489.8683,262.7593 496.0958,253.7489 498.5868,268.3908 504.8144,201.3759 507.3054,191.8024 513.5329,233.4755 516.024,222.2125 524.7425,240.2333 533.4611,272.896 539.6886,284.7222 542.1796,290.9168 548.4072,295.422 550.8982,306.6851 557.1257,321.8901 559.6168,321.8901 565.8443,321.327 568.3353,320.7638 574.5629,320.7638 577.0539,302.743 583.2814,266.1382 585.7725,229.5334 592,220.523" style="fill:none;stroke:rgb(31,119,180);stroke-width:2;stroke-linejoin:bevel" />
  <text dominant-baseline="hanging" text-anchor="middle" transform="translate(313.006,8)" font-family="Segoe UI" font-size="18" font-weight="700" fill="black">7-Tage-Inzidenz Stadt Aachen 03.11.2021</text>
  <polygon points="34.012,29.0795 592,29.0795 592,370.947 34.012,370.947" style="fill:none;stroke:black;stroke-width:1" />
  <polygon points="42.012,37.0795 247.014,37.0795 247.014,63.1325 42.012,63.1325" style="fill:none;stroke:none;" />
  <text dominant-baseline="hanging" text-anchor="start" transform="translate(70.012,45.0795)" font-family="Segoe UI" font-size="12" font-weight="400" fill="black">7-Tage-Inzidenz Stadt Aachen 03.11.2021</text>
  <polyline points="50.012,50.106 66.012,50.106" style="fill:none;stroke:rgb(31,119,180);stroke-width:2" />
</svg>