<?xml version="1.0" encoding="utf-8" standalone="no"?>
<!DOCTYPE svg PUBLIC "-//W3C//DTD SVG 1.1//EN" "http://www.w3.org/Graphics/SVG/1.1/DTD/svg11.dtd">
<svg width="600" height="400" version="1.1" xmlns:xlink="http://www.w3.org/1999/xlink" xmlns="http://www.w3.org/2000/svg">
  <rect x="0" y="0" width="600" height="400" style="fill:rgb(255,255,255);stroke:none;" />
  <polyline points="34.012,362.7539 30.012,362.7539" style="fill:none;stroke:black;stroke-width:1" />
  <polyline points="34.012,348.3289 30.012,348.3289" style="fill:none;stroke:black;stroke-width:1" />
  <polyline points="34.012,333.904 30.012,333.904" style="fill:none;stroke:black;stroke-width:1" />
  <polyline points="34.012,319.479 30.012,319.479" style="fill:none;stroke:black;stroke-width:1" />
  <polyline points="34.012,290.6291 30.012,290.6291" style="fill:none;stroke:black;stroke-width:1" />
  <polyline points="34.012,276.2041 30.012,276.2041" style="fill:none;stroke:black;stroke-width:1" />
  <polyline points="34.012,261.7792 30.012,261.7792" style="fill:none;stroke:black;stroke-width:1" />
  <polyline points="34.012,247.3542 30.012,247.3542" style="fill:none;stroke:black;stroke-width:1" />
  <polyline points="34.012,218.5043 30.012,218.5043" style="fill:none;stroke:black;stroke-width:1" />
  <polyline points="34.012,204.0794 30.012,204.0794" style="fill:none;stroke:black;stroke-width:1" />
  <polyline points="34.012,189.6544 30.012,189.6544" style="fill:none;stroke:black;stroke-width:1" />
  <polyline points="34.012,175.2295 30.012,175.2295" style="fill:none;stroke:black;stroke-width:1" />
  <polyline points="34.012,146.3796 30.012,146.3796" style="fill:none;stroke:black;stroke-width:1" />
  <polyline points="34.012,131.9546 30.012,131.9546" style="fill:none;stroke:black;stroke-width:1" />
  <polyline points="34.012,117.5297 30.012,117.5297" style="fill:none;stroke:black;stroke-width:1" />
  <polyline points="34.012,103.1047 30.012,103.1047" style="fill:none;stroke:black;stroke-width:1" />
  <polyline points="34.012,74.2548 30.012,74.2548" style="fill:none;stroke:black;stroke-width:1" />
  <polyline points="34.012,59.8299 30.012,59.8299" style="fill:none;stroke:black;stroke-width:1" />
  <polyline points="34.012,45.4049 30.012,45.4049" style="fill:none;stroke:black;stroke-width:1" />
  <polyline points="34.012,30.98 30.012,30.98" style="fill:none;stroke:black;stroke-width:1" />
  <text dominant-baseline="middle" text-anchor="end" transform="translate(23.012,305.0541)" font-family="Segoe UI" font-size="12" font-weight="400" fill="black">50</text>
  <text dominant-baseline="middle" text-anchor="end" transform="translate(23.012,232.9293)" font-family="Segoe UI" font-size="12" font-weight="400" fill="black">100</text>
  <text dominant-baseline="middle" text-anchor="end" transform="translate(23.012,160.8045)" font-family="Segoe UI" font-size="12" font-weight="400" fill="black">150</text>
  <text dominant-baseline="middle" text-anchor="end" transform="translate(23.012,88.6798)" font-family="Segoe UI" font-size="12" font-weight="400" fill="black">200</text>
  <polyline points="34.012,305.0541 27.012,305.0541" style="fill:none;stroke:black;stroke-width:1" />
  <polyline points="34.012,232.9293 27.012,232.9293" style="fill:none;stroke:black;stroke-width:1" />
  <polyline points="34.012,160.8045 27.012,160.8045" style="fill:none;stroke:black;stroke-width:1" />
  <polyline points="34.012,88.6798 27.012,88.6798" style="fill:none;stroke:black;stroke-width:1" />
  <text dominant-baseline="hanging" text-anchor="middle" transform="translate(59.7349,381.947)" font-family="Segoe UI" font-size="12" font-weight="400" fill="black">01. September</text>
  <text dominant-baseline="hanging" text-anchor="middle" transform="translate(119.0953,381.947)" font-family="Segoe UI" font-size="12" font-weight="400" fill="black">01. October</text>
  <text dominant-baseline="hanging" text-anchor="middle" transform="translate(180.4344,381.947)" font-family="Segoe UI" font-size="12" font-weight="400" fill="black">01. November</text>
  <text dominant-baseline="hanging" text-anchor="middle" transform="translate(239.7948,381.947)" font-family="Segoe UI" font-size="12" font-weight="400" fill="black">01. December</text>
  <text dominant-baseline="hanging" text-anchor="middle" transform="translate(301.1339,381.947)" font-family="Segoe UI" font-size="12" font-weight="400" fill="black">01. January</text>
  <text dominant-baseline="hanging" text-anchor="middle" transform="translate(362.473,381.947)" font-family="Segoe UI" font-size="12" font-weight="400" fill="black">01. February</text>
  <text dominant-baseline="hanging" text-anchor="middle" transform="translate(417.8761,381.947)" font-family="Segoe UI" font-size="12" font-weight="400" fill="black">01. March</text>
  <text dominant-baseline="hanging" text-anchor="middle" transform="translate(479.2152,381.947)" font-family="Segoe UI" font-size="12" font-weight="400" fill="black">01. April</text>
  <text dominant-baseline="hanging" text-anchor="middle" transform="translate(538.5756,381.947)" font-family="Segoe UI" font-size="12" font-weight="400" fill="black">01. May</text>
  <polyline points="59.7349,370.947 59.7349,377.947" style="fill:none;stroke:black;stroke-width:1" />
  <polyline points="119.0953,370.947 119.0953,377.947" style="fill:none;stroke:black;stroke-width:1" />
  <polyline points="180.4344,370.947 180.4344,377.947" style="fill:none;stroke:black;stroke-width:1" />
  <polyline points="239.7948,370.947 239.7948,377.947" style="fill:none;stroke:black;stroke-width:1" />
  <polyline points="301.1339,370.947 301.1339,377.947" style="fill:none;stroke:black;stroke-width:1" />
  <polyline points="362.473,370.947 362.473,377.947" style="fill:none;stroke:black;stroke-width:1" />
  <polyline points="417.8761,370.947 417.8761,377.947" style="fill:none;stroke:black;stroke-width:1" />
  <polyline points="479.2152,370.947 479.2152,377.947" style="fill:none;stroke:black;stroke-width:1" />
  <polyline points="538.5756,370.947 538.5756,377.947" style="fill:none;stroke:black;stroke-width:1" />
  <polyline points="34.012,356.8142 35.9907,356.3899 37.9694,362.471 43.9054,358.5112 45.8841,362.471 47.8628,363.0367 49.8414,363.6024 51.8201,362.471 57.7562,366.9965 59.7349,365.2994 61.7135,365.8651 63.6922,365.2994 65.6709,365.2994 71.6069,365.8651 73.5856,367.5622 75.5643,365.8651 77.543,365.2994 79.5217,363.0367 85.4577,356.8142 87.4364,352.2887 89.4151,347.1975 91.3937,346.6319 93.3724,342.1064 99.3085,347.7632 101.2871,348.3289 103.2658,352.2887 105.2445,350.5916 107.2232,351.723 113.1592,335.8838 115.1379,336.4495 117.1166,335.3182 119.0953,325.1358 121.074,319.479 127.01,312.6908 128.9887,313.8222 130.9674,305.9026 132.946,304.7528 134.9247,307.6498 140.8608,292.5852 142.8394,290.847 144.8181,285.6323 146.7968,275.2029 148.7755,253.1854 154.7115,230.5885 156.6902,225.9532 158.6689,221.8974 160.6476,202.7769 162.6263,202.1975 168.5623,137.3037 170.541,132.0891 172.5197,129.192 174.4983,131.5096 176.477,98.4834 182.4131,118.1833 184.3917,107.7539 186.3704,108.9127 188.3491,101.3804 190.3278,119.3421 196.2638,90.9511 198.2425,84.5776 200.2212,58.5042 204.1786,32.4308 210.1146,61.4012 212.0933,75.8864 214.072,84.5776 216.0506,65.3847 218.0293,120.5009 223.9654,167.433 225.944,150.6301 227.9227,153.5272 229.9014,208.571 231.8801,185.974 237.8161,188.8711 239.7948,213.7856 241.7735,225.9532 243.7522,198.1416 245.7309,202.1975 251.6669,179.0211 253.6456,181.3388 255.6243,179.6005 257.6029,151.2095 259.5816,173.2271 265.5177,154.1066 267.4963,144.2566 269.475,132.6685 271.4537,145.4155 273.4324,134.4067 279.3684,116.445 281.3471,117.0244 283.3258,140.7802 293.2192,157.0036 295.1979,154.686 297.1766,134.4067 299.1552,136.3622 307.07,211.468 309.0486,235.2238 311.0273,250.8678 313.006,236.962 314.9847,215.9584 322.8994,192.9269 324.8781,195.2446 326.8568,217.2621 328.8354,247.3913 334.7715,255.9086 336.7502,275.7823 338.7289,267.0912 340.7075,285.0529 342.6862,285.6323 348.6223,272.3059 352.5796,279.8382 354.5583,259.5589 356.537,247.9707 362.473,264.1942 364.4517,278.3173 366.4304,272.3059 368.4091,279.8382 370.3877,290.847 376.3238,293.744 378.3025,290.847 380.2811,275.2029 382.2598,276.3617 384.2385,269.4088 390.1746,283.8941 392.1532,285.6323 394.1319,306.491 396.1106,313.4439 398.0893,329.6673 404.0253,329.6673 406.004,330.8261 407.9827,321.5556 409.9614,322.135 411.94,317.4997 417.8761,329.0879 419.8548,327.9291 421.8334,323.8732 423.8121,300.6969 425.7908,294.9028 431.7269,265.353 433.7055,265.353 435.6842,263.6148 437.6629,278.6794 439.6416,272.3059 445.5776,261.8765 447.5563,262.4559 449.535,254.9236 451.5137,226.5326 453.4923,208.571 459.4284,200.4592 461.4071,199.8798 463.3857,204.5151 465.3644,192.9269 467.3431,205.6739 473.2791,224.215 475.2578,220.7385 477.2365,227.6914 479.2152,243.9149 481.1939,218.4209 489.1086,205.0945 491.0873,220.1591 493.066,201.6181 495.0446,235.2238 500.9807,225.8953 502.9594,216.1033 504.938,168.0124 506.9167,188.8711 508.8954,184.8152 514.8314,176.1241 516.8101,157.0036 518.7888,162.2183 520.7675,148.3125 522.7462,123.9773 528.6822,104.8569 530.6609,121.0803 532.6396,135.5655 534.6183,129.7714 536.5969,132.6685 542.533,158.7418 544.5117,146.5743 546.4903,140.2008 548.469,173.8065 550.4477,194.0858 556.3837,203.9357 558.3624,213.2062 560.3411,225.9532 564.2985,193.5063 570.2345,196.4034 572.2132,181.9182 574.1919,176.1241 576.1706,180.4697 578.1492,216.1033 586.064,264.1942 588.0426,289.1087 590.0213,298.9587 592,302.4351" style="fill:none;stroke:rgb(31,119,180);stroke-width:2;stroke-linejoin:bevel" />
  <text dominant-baseline="hanging" text-anchor="middle" transform="translate(313.006,8)" font-family="Segoe UI" font-size="18" font-weight="700" fill="black">7-Tage-Inzidenz Stadt Aachen 28.05.2021</text>
  <polygon points="34.012,29.0795 592,29.0795 592,370.947 34.012,370.947" style="fill:none;stroke:black;stroke-width:1" />
  <polygon points="42.012,37.0795 247.014,37.0795 247.014,63.1325 42.012,63.1325" style="fill:none;stroke:none;" />
  <text dominant-baseline="hanging" text-anchor="start" transform="translate(70.012,45.0795)" font-family="Segoe UI" font-size="12" font-weight="400" fill="black">7-Tage-Inzidenz Stadt Aachen 28.05.2021</text>
  <polyline points="50.012,50.106 66.012,50.106" style="fill:none;stroke:rgb(31,119,180);stroke-width:2" />
</svg>