<?xml version="1.0" encoding="utf-8" standalone="no"?>
<!DOCTYPE svg PUBLIC "-//W3C//DTD SVG 1.1//EN" "http://www.w3.org/Graphics/SVG/1.1/DTD/svg11.dtd">
<svg width="600" height="400" version="1.1" xmlns:xlink="http://www.w3.org/1999/xlink" xmlns="http://www.w3.org/2000/svg">
  <rect x="0" y="0" width="600" height="400" style="fill:rgb(255,255,255);stroke:none;" />
  <polyline points="34.012,358.4713 30.012,358.4713" style="fill:none;stroke:black;stroke-width:1" />
  <polyline points="34.012,344.2334 30.012,344.2334" style="fill:none;stroke:black;stroke-width:1" />
  <polyline points="34.012,329.9954 30.012,329.9954" style="fill:none;stroke:black;stroke-width:1" />
  <polyline points="34.012,315.7575 30.012,315.7575" style="fill:none;stroke:black;stroke-width:1" />
  <polyline points="34.012,287.2816 30.012,287.2816" style="fill:none;stroke:black;stroke-width:1" />
  <polyline points="34.012,273.0437 30.012,273.0437" style="fill:none;stroke:black;stroke-width:1" />
  <polyline points="34.012,258.8058 30.012,258.8058" style="fill:none;stroke:black;stroke-width:1" />
  <polyline points="34.012,244.5678 30.012,244.5678" style="fill:none;stroke:black;stroke-width:1" />
  <polyline points="34.012,216.0919 30.012,216.0919" style="fill:none;stroke:black;stroke-width:1" />
  <polyline points="34.012,201.854 30.012,201.854" style="fill:none;stroke:black;stroke-width:1" />
  <polyline points="34.012,187.6161 30.012,187.6161" style="fill:none;stroke:black;stroke-width:1" />
  <polyline points="34.012,173.3781 30.012,173.3781" style="fill:none;stroke:black;stroke-width:1" />
  <polyline points="34.012,144.9023 30.012,144.9023" style="fill:none;stroke:black;stroke-width:1" />
  <polyline points="34.012,130.6643 30.012,130.6643" style="fill:none;stroke:black;stroke-width:1" />
  <polyline points="34.012,116.4264 30.012,116.4264" style="fill:none;stroke:black;stroke-width:1" />
  <polyline points="34.012,102.1885 30.012,102.1885" style="fill:none;stroke:black;stroke-width:1" />
  <polyline points="34.012,73.7126 30.012,73.7126" style="fill:none;stroke:black;stroke-width:1" />
  <polyline points="34.012,59.4747 30.012,59.4747" style="fill:none;stroke:black;stroke-width:1" />
  <polyline points="34.012,45.2367 30.012,45.2367" style="fill:none;stroke:black;stroke-width:1" />
  <polyline points="34.012,30.9988 30.012,30.9988" style="fill:none;stroke:black;stroke-width:1" />
  <polyline points="54.2177,370.947 54.2177,374.947" style="fill:none;stroke:black;stroke-width:1" />
  <polyline points="149.029,370.947 149.029,374.947" style="fill:none;stroke:black;stroke-width:1" />
  <polyline points="243.8404,370.947 243.8404,374.947" style="fill:none;stroke:black;stroke-width:1" />
  <polyline points="335.5431,370.947 335.5431,374.947" style="fill:none;stroke:black;stroke-width:1" />
  <polyline points="430.3545,370.947 430.3545,374.947" style="fill:none;stroke:black;stroke-width:1" />
  <polyline points="525.1658,370.947 525.1658,374.947" style="fill:none;stroke:black;stroke-width:1" />
  <text dominant-baseline="middle" text-anchor="end" transform="translate(23.012,301.5196)" font-family="Segoe UI" font-size="12" font-weight="400" fill="black">50</text>
  <text dominant-baseline="middle" text-anchor="end" transform="translate(23.012,230.3299)" font-family="Segoe UI" font-size="12" font-weight="400" fill="black">100</text>
  <text dominant-baseline="middle" text-anchor="end" transform="translate(23.012,159.1402)" font-family="Segoe UI" font-size="12" font-weight="400" fill="black">150</text>
  <text dominant-baseline="middle" text-anchor="end" transform="translate(23.012,87.9505)" font-family="Segoe UI" font-size="12" font-weight="400" fill="black">200</text>
  <polyline points="34.012,301.5196 27.012,301.5196" style="fill:none;stroke:black;stroke-width:1" />
  <polyline points="34.012,230.3299 27.012,230.3299" style="fill:none;stroke:black;stroke-width:1" />
  <polyline points="34.012,159.1402 27.012,159.1402" style="fill:none;stroke:black;stroke-width:1" />
  <polyline points="34.012,87.9505 27.012,87.9505" style="fill:none;stroke:black;stroke-width:1" />
  <text dominant-baseline="hanging" text-anchor="middle" transform="translate(100.8462,381.947)" font-family="Segoe UI" font-size="12" font-weight="400" fill="black">01. October</text>
  <text dominant-baseline="hanging" text-anchor="middle" transform="translate(195.6575,381.947)" font-family="Segoe UI" font-size="12" font-weight="400" fill="black">01. December</text>
  <text dominant-baseline="hanging" text-anchor="middle" transform="translate(292.0232,381.947)" font-family="Segoe UI" font-size="12" font-weight="400" fill="black">01. February</text>
  <text dominant-baseline="hanging" text-anchor="middle" transform="translate(383.7259,381.947)" font-family="Segoe UI" font-size="12" font-weight="400" fill="black">01. April</text>
  <text dominant-baseline="hanging" text-anchor="middle" transform="translate(478.5373,381.947)" font-family="Segoe UI" font-size="12" font-weight="400" fill="black">01. June</text>
  <text dominant-baseline="hanging" text-anchor="middle" transform="translate(573.3486,381.947)" font-family="Segoe UI" font-size="12" font-weight="400" fill="black">01. August</text>
  <polyline points="100.8462,370.947 100.8462,377.947" style="fill:none;stroke:black;stroke-width:1" />
  <polyline points="195.6575,370.947 195.6575,377.947" style="fill:none;stroke:black;stroke-width:1" />
  <polyline points="292.0232,370.947 292.0232,377.947" style="fill:none;stroke:black;stroke-width:1" />
  <polyline points="383.7259,370.947 383.7259,377.947" style="fill:none;stroke:black;stroke-width:1" />
  <polyline points="478.5373,370.947 478.5373,377.947" style="fill:none;stroke:black;stroke-width:1" />
  <polyline points="573.3486,370.947 573.3486,377.947" style="fill:none;stroke:black;stroke-width:1" />
  <polyline points="34.012,352.6086 35.5663,352.1899 37.1206,358.1921 41.7834,354.2837 43.3377,358.1921 44.892,358.7505 46.4463,359.3088 48.0006,358.1921 52.6634,362.6589 54.2177,360.9839 55.772,361.5422 57.3263,360.9839 58.8805,360.9839 63.5434,361.5422 65.0977,363.2173 66.652,361.5422 68.2063,360.9839 69.7605,358.7505 74.4234,352.6086 75.9777,348.1418 77.532,343.1167 79.0862,342.5583 80.6405,338.0915 85.3034,343.675 86.8577,344.2334 88.4119,348.1418 89.9662,346.4668 91.5205,347.5835 96.1834,331.9497 97.7376,332.508 99.2919,331.3913 100.8462,321.341 102.4005,315.7575 107.0634,309.0573 108.6176,310.174 110.1719,302.3571 111.7262,301.2222 113.2805,304.0817 117.9433,289.2124 119.4976,287.4967 121.0519,282.3496 122.6062,272.0555 124.1605,250.3234 128.8233,228.0194 130.3776,223.4443 131.9319,219.441 133.4862,200.5684 135.0405,199.9965 139.7033,135.9441 141.2576,130.797 142.8119,127.9375 144.3662,130.2251 145.9205,97.627 150.5833,117.0715 152.1376,106.7774 153.6919,107.9212 155.2462,100.4865 156.8004,118.2153 161.4633,90.1924 163.0176,83.9015 164.5719,58.1662 167.6804,32.4308 172.3433,61.0256 173.8976,75.3231 175.4519,83.9015 177.0061,64.9574 178.5604,119.3591 183.2233,165.6827 184.7776,149.0977 186.3318,151.9572 187.8861,206.2874 189.4404,183.9834 194.1033,186.8429 195.6575,211.4344 197.2118,223.4443 198.7661,195.9932 200.3204,199.9965 204.9833,177.1206 206.5375,179.4082 208.0918,177.6925 209.6461,149.6696 211.2004,171.4017 215.8632,152.5291 217.4175,142.8068 218.9718,131.3689 220.5261,143.9506 222.0804,133.0846 226.7432,115.3558 228.2975,115.9277 229.8518,139.3755 237.6232,155.3886 239.1775,153.101 240.7318,133.0846 242.2861,135.0148 248.5032,209.1468 250.0575,232.5946 251.6118,248.0358 253.1661,234.3103 254.7203,213.579 260.9375,190.8461 262.4918,193.1337 264.0461,214.8658 265.6003,244.6044 270.2632,253.0113 271.8175,272.6274 273.3718,264.0489 274.926,281.7777 276.4803,282.3496 281.1432,269.196 284.2517,276.6306 285.806,256.6142 287.3603,245.1763 292.0232,261.1894 293.5774,275.1294 295.1317,269.196 296.686,276.6306 298.2403,287.4967 302.9032,290.3561 304.4574,287.4967 306.0117,272.0555 307.566,273.1992 309.1203,266.3365 313.7831,280.6339 315.3374,282.3496 316.8917,302.9379 318.446,309.8006 320.0003,325.8137 324.6631,325.8137 326.2174,326.9575 327.7717,317.8072 329.326,318.3791 330.8803,313.8039 335.5431,325.2418 337.0974,324.098 338.6517,320.0948 340.206,297.2189 341.7603,291.4999 346.4231,262.3332 347.9774,262.3332 349.5317,260.6175 351.086,275.4868 352.6402,269.196 357.3031,258.9018 358.8574,259.4737 360.4117,252.0391 361.9659,224.0161 363.5202,206.2874 368.1831,198.2808 369.7374,197.7089 371.2917,202.2841 372.8459,190.8461 374.4002,203.4279 379.0631,221.7286 380.6174,218.2972 382.1716,225.1599 383.7259,241.173 385.2802,216.0096 391.4973,202.856 393.0516,217.7253 394.6059,199.4246 396.1602,232.5946 400.8231,223.3871 402.3773,213.722 403.9316,166.2546 405.4859,186.8429 407.0402,182.8396 411.703,174.2612 413.2573,155.3886 414.8116,160.5356 416.3659,146.8101 417.9202,122.7905 422.583,103.9179 424.1373,119.931 425.6916,134.2284 427.2459,128.5094 428.8002,131.3689 433.463,157.1043 435.0173,145.0944 436.5716,138.8036 438.1259,171.9736 439.6802,191.9899 444.343,201.7122 445.8973,210.8625 447.4516,223.4443 450.5601,191.418 455.223,194.2775 456.7773,179.9801 458.3316,174.2612 459.8858,178.5504 461.4401,213.722 467.6573,261.1894 469.2116,285.781 470.7658,295.5032 472.3201,298.9346 476.983,306.6552 478.5373,311.5163 480.0915,310.3725 483.2001,330.9608 487.863,346.402 489.4172,351.5491 490.9715,356.1242 492.5258,355.1949 494.0801,360.6994 498.743,363.5589 500.2972,362.4151 501.8515,362.4151 503.4058,361.2713 504.9601,358.4118 509.6229,358.4118 511.1772,357.8399 512.7315,361.2713 514.2858,364.7027 515.8401,366.4184 520.5029,365.8465 522.0572,367.5622 523.6115,364.1308 525.1658,360.6994 526.7201,361.8432 531.3829,361.8432 534.4915,362.4151 537.6001,364.7027 542.2629,365.8465 545.3715,358.9837 548.48,348.1177 556.2515,336.6798 559.36,322.3823 567.1315,320.6667 570.24,334.3922 578.0114,333.8203 581.12,327.5294 588.8914,298.9346 592,266.3365" style="fill:none;stroke:rgb(31,119,180);stroke-width:2;stroke-linejoin:bevel" />
  <text dominant-baseline="hanging" text-anchor="middle" transform="translate(313.006,8)" font-family="Segoe UI" font-size="18" font-weight="700" fill="black">7-Tage-Inzidenz Stadt Aachen 13.08.2021</text>
  <polygon points="34.012,29.0795 592,29.0795 592,370.947 34.012,370.947" style="fill:none;stroke:black;stroke-width:1" />
  <polygon points="42.012,37.0795 247.014,37.0795 247.014,63.1325 42.012,63.1325" style="fill:none;stroke:none;" />
  <text dominant-baseline="hanging" text-anchor="start" transform="translate(70.012,45.0795)" font-family="Segoe UI" font-size="12" font-weight="400" fill="black">7-Tage-Inzidenz Stadt Aachen 13.08.2021</text>
  <polyline points="50.012,50.106 66.012,50.106" style="fill:none;stroke:rgb(31,119,180);stroke-width:2" />
</svg>