<?xml version="1.0" encoding="utf-8" standalone="no"?>
<!DOCTYPE svg PUBLIC "-//W3C//DTD SVG 1.1//EN" "http://www.w3.org/Graphics/SVG/1.1/DTD/svg11.dtd">
<svg width="600" height="400" version="1.1" xmlns:xlink="http://www.w3.org/1999/xlink" xmlns="http://www.w3.org/2000/svg">
  <rect x="0" y="0" width="600" height="400" style="fill:rgb(255,255,255);stroke:none;" />
  <polyline points="34.012,349.2028 30.012,349.2028" style="fill:none;stroke:black;stroke-width:1" />
  <polyline points="34.012,330.8584 30.012,330.8584" style="fill:none;stroke:black;stroke-width:1" />
  <polyline points="34.012,312.5139 30.012,312.5139" style="fill:none;stroke:black;stroke-width:1" />
  <polyline points="34.012,275.825 30.012,275.825" style="fill:none;stroke:black;stroke-width:1" />
  <polyline points="34.012,257.4805 30.012,257.4805" style="fill:none;stroke:black;stroke-width:1" />
  <polyline points="34.012,239.1361 30.012,239.1361" style="fill:none;stroke:black;stroke-width:1" />
  <polyline points="34.012,202.4472 30.012,202.4472" style="fill:none;stroke:black;stroke-width:1" />
  <polyline points="34.012,184.1027 30.012,184.1027" style="fill:none;stroke:black;stroke-width:1" />
  <polyline points="34.012,165.7582 30.012,165.7582" style="fill:none;stroke:black;stroke-width:1" />
  <polyline points="34.012,129.0693 30.012,129.0693" style="fill:none;stroke:black;stroke-width:1" />
  <polyline points="34.012,110.7249 30.012,110.7249" style="fill:none;stroke:black;stroke-width:1" />
  <polyline points="34.012,92.3804 30.012,92.3804" style="fill:none;stroke:black;stroke-width:1" />
  <polyline points="34.012,55.6915 30.012,55.6915" style="fill:none;stroke:black;stroke-width:1" />
  <polyline points="34.012,37.347 30.012,37.347" style="fill:none;stroke:black;stroke-width:1" />
  <text dominant-baseline="middle" text-anchor="end" transform="translate(23.012,367.5473)" font-family="Segoe UI" font-size="12" font-weight="400" fill="black">0</text>
  <text dominant-baseline="middle" text-anchor="end" transform="translate(23.012,294.1695)" font-family="Segoe UI" font-size="12" font-weight="400" fill="black">200</text>
  <text dominant-baseline="middle" text-anchor="end" transform="translate(23.012,220.7916)" font-family="Segoe UI" font-size="12" font-weight="400" fill="black">400</text>
  <text dominant-baseline="middle" text-anchor="end" transform="translate(23.012,147.4138)" font-family="Segoe UI" font-size="12" font-weight="400" fill="black">600</text>
  <text dominant-baseline="middle" text-anchor="end" transform="translate(23.012,74.036)" font-family="Segoe UI" font-size="12" font-weight="400" fill="black">800</text>
  <polyline points="34.012,367.5473 27.012,367.5473" style="fill:none;stroke:black;stroke-width:1" />
  <polyline points="34.012,294.1695 27.012,294.1695" style="fill:none;stroke:black;stroke-width:1" />
  <polyline points="34.012,220.7916 27.012,220.7916" style="fill:none;stroke:black;stroke-width:1" />
  <polyline points="34.012,147.4138 27.012,147.4138" style="fill:none;stroke:black;stroke-width:1" />
  <polyline points="34.012,74.036 27.012,74.036" style="fill:none;stroke:black;stroke-width:1" />
  <text dominant-baseline="hanging" text-anchor="middle" transform="translate(184.9345,381.947)" font-family="Segoe UI" font-size="12" font-weight="400" fill="black">01. January</text>
  <text dominant-baseline="hanging" text-anchor="middle" transform="translate(572.869,381.947)" font-family="Segoe UI" font-size="12" font-weight="400" fill="black">01. January</text>
  <polyline points="184.9345,370.947 184.9345,377.947" style="fill:none;stroke:black;stroke-width:1" />
  <polyline points="572.869,370.947 572.869,377.947" style="fill:none;stroke:black;stroke-width:1" />
  <polyline points="34.012,367.5622 36.1377,367.5621 39.3262,367.5621 40.389,367.5621 41.4518,362.3677 42.5147,362.2598 43.5775,363.8065 46.766,362.7993 47.8288,363.8065 48.8917,363.9503 49.9545,364.0942 51.0173,363.8065 54.2059,364.9575 55.2687,364.5258 56.3315,364.6697 57.3944,364.5258 58.4572,364.5258 61.6457,364.6697 62.7085,365.1014 63.7714,364.6697 64.8342,364.5258 65.897,363.9503 69.0855,362.3677 70.1484,361.2167 71.2112,359.9217 72.274,359.7779 73.3369,358.6268 76.5254,360.0656 77.5882,360.2095 78.651,361.2167 79.7139,360.785 80.7767,361.0728 83.9652,357.0442 85.028,357.1881 86.0909,356.9003 87.1537,354.3105 88.2165,352.8717 91.4051,351.1452 92.4679,351.4329 93.5307,349.4186 94.5936,349.1262 95.6564,349.863 98.8449,346.0315 99.9077,345.5893 100.9706,344.263 102.0334,341.6104 103.0962,336.0104 106.2847,330.263 107.3476,329.0841 108.4104,328.0525 109.4732,323.1893 110.5361,323.0419 113.7246,306.5366 114.7874,305.2103 115.8502,304.4735 116.9131,305.0629 117.9759,296.6629 121.1644,301.6735 122.2272,299.0208 123.2901,299.3156 124.3529,297.3998 125.4157,301.9682 128.6043,294.7471 129.6671,293.1261 130.7299,286.4945 132.8556,279.8629 136.0441,287.2313 137.1069,290.9156 138.1698,293.1261 139.2326,288.2445 140.2954,302.2629 143.4839,314.1998 144.5468,309.9261 145.6096,310.663 146.6724,324.663 147.7353,318.9156 150.9238,319.6525 151.9866,325.9893 153.0494,329.0841 154.1123,322.0104 155.1751,323.0419 158.3636,317.1472 159.4264,317.7367 160.4893,317.2946 161.5521,310.0735 162.6149,315.6735 165.8035,310.8103 166.8663,308.3051 167.9291,305.3577 168.992,308.5998 170.0548,305.7998 173.2433,301.2314 174.3061,301.3787 175.369,307.4208 180.6831,311.5472 181.746,310.9577 182.8088,305.7998 183.8716,306.2972 188.123,325.3998 189.1858,331.442 190.2486,335.4209 191.3115,331.8841 192.3743,326.5419 196.6256,320.684 197.6885,321.2735 198.7513,326.8735 199.8141,334.5367 203.0027,336.703 204.0655,341.7578 205.1283,339.5472 206.1912,344.1157 207.254,344.263 210.4425,340.8735 212.5682,342.7893 213.631,337.6314 214.6938,334.6841 217.8823,338.8104 218.9452,342.4025 220.008,340.8735 221.0708,342.7893 222.1337,345.5893 225.3222,346.3262 226.385,345.5893 227.4478,341.6104 228.5107,341.9051 229.5735,340.1367 232.762,343.8209 233.8248,344.263 234.8877,349.5683 235.9505,351.3367 237.0133,355.4631 240.2019,355.4631 241.2647,355.7578 242.3275,353.3999 243.3904,353.5473 244.4532,352.3683 247.6417,355.3157 248.7045,355.0209 249.7674,353.9894 250.8302,348.0946 251.893,346.6209 255.0815,339.1051 256.1444,339.1051 257.2072,338.663 258.27,342.4946 259.3329,340.8735 262.5214,338.2209 263.5842,338.3683 264.647,336.4525 265.7099,329.2314 266.7727,324.663 269.9612,322.5998 271.024,322.4525 272.0869,323.6314 273.1497,320.684 274.2125,323.9261 277.4011,328.6419 278.4639,327.7577 279.5267,329.5262 280.5896,333.6525 281.6524,327.1683 285.9037,323.7788 286.9666,327.6104 288.0294,322.8946 289.0922,331.442 292.2807,329.0693 293.3436,326.5788 294.4064,314.3472 295.4692,319.6525 296.5321,318.6209 299.7206,316.4103 300.7834,311.5472 301.8462,312.8735 302.9091,309.3366 303.9719,303.1472 307.1604,298.284 308.2232,302.4103 309.2861,306.0945 310.3489,304.6208 311.4117,305.3577 314.6003,311.9893 315.6631,308.8945 316.7259,307.2735 317.7888,315.8209 318.8516,320.9788 322.0401,323.484 323.1029,325.8419 324.1658,329.0841 326.2914,320.8314 329.4799,321.5682 330.5428,317.884 331.6056,316.4103 332.6684,317.5156 333.7313,326.5788 337.9826,338.8104 339.0454,345.1472 340.1083,347.6525 341.1711,348.5367 344.3596,350.5262 345.4224,351.7788 346.4853,351.4841 348.6109,356.7894 351.7995,360.7683 352.8623,362.0946 353.9251,363.2736 354.988,363.0341 356.0508,364.4525 359.2393,365.1894 360.3021,364.8947 361.365,364.8947 362.4278,364.5999 363.4906,363.8631 366.6791,363.8631 367.742,363.7157 368.8048,364.5999 369.8676,365.4841 370.9305,365.9262 374.119,365.7789 375.1818,366.221 376.2446,365.3368 377.3075,364.4525 378.3703,364.7473 381.5588,364.7473 383.6845,364.8947 385.8101,365.4841 388.9987,365.7789 391.1243,364.0104 393.25,361.2104 398.5642,358.2631 400.6898,354.5788 406.004,354.1367 408.1297,357.6736 413.4438,357.5262 415.5695,355.9052 420.8837,348.5367 423.0093,340.1367 428.3235,337.7788 430.4492,341.6104 435.7634,324.0735 437.889,321.5682 443.2032,332.4735 445.3289,329.5262 452.7687,334.242 460.2085,342.7893 465.5227,345.8841 467.6484,347.5051 472.9626,348.6841 475.0882,351.6315 480.4024,355.6104 482.5281,355.6104 487.8422,355.4631 489.9679,355.3157 495.2821,355.3157 497.4077,350.5999 502.7219,341.0209 504.8476,331.442 510.1618,329.0841 512.2874,324.0735 517.6016,304.1787 519.7273,296.8103 525.0414,289.4419 527.1671,288.9998 532.4813,262.1787 534.6069,251.4207 539.9211,258.9365 547.361,263.7997 549.4866,260.6067 554.8008,280.1576 556.9265,280.7471 577.1203,271.2302 579.246,251.8137 584.5602,130.1363 586.6858,106.852 592,32.4308" style="fill:none;stroke:rgb(31,119,180);stroke-width:2;stroke-linejoin:bevel" />
  <text dominant-baseline="hanging" text-anchor="middle" transform="translate(313.006,8)" font-family="Segoe UI" font-size="18" font-weight="700" fill="black">7-Tage-Inzidenz Stadt Aachen 19.01.2022</text>
  <polygon points="34.012,29.0795 592,29.0795 592,370.947 34.012,370.947" style="fill:none;stroke:black;stroke-width:1" />
  <polygon points="42.012,37.0795 247.014,37.0795 247.014,63.1325 42.012,63.1325" style="fill:none;stroke:none;" />
  <text dominant-baseline="hanging" text-anchor="start" transform="translate(70.012,45.0795)" font-family="Segoe UI" font-size="12" font-weight="400" fill="black">7-Tage-Inzidenz Stadt Aachen 19.01.2022</text>
  <polyline points="50.012,50.106 66.012,50.106" style="fill:none;stroke:rgb(31,119,180);stroke-width:2" />
</svg>