<?xml version="1.0" encoding="utf-8" standalone="no"?>
<!DOCTYPE svg PUBLIC "-//W3C//DTD SVG 1.1//EN" "http://www.w3.org/Graphics/SVG/1.1/DTD/svg11.dtd">
<svg width="600" height="400" version="1.1" xmlns:xlink="http://www.w3.org/1999/xlink" xmlns="http://www.w3.org/2000/svg">
  <rect x="0" y="0" width="600" height="400" style="fill:rgb(255,255,255);stroke:none;" />
  <polyline points="34.012,362.7539 30.012,362.7539" style="fill:none;stroke:black;stroke-width:1" />
  <polyline points="34.012,348.3289 30.012,348.3289" style="fill:none;stroke:black;stroke-width:1" />
  <polyline points="34.012,333.904 30.012,333.904" style="fill:none;stroke:black;stroke-width:1" />
  <polyline points="34.012,319.479 30.012,319.479" style="fill:none;stroke:black;stroke-width:1" />
  <polyline points="34.012,290.6291 30.012,290.6291" style="fill:none;stroke:black;stroke-width:1" />
  <polyline points="34.012,276.2041 30.012,276.2041" style="fill:none;stroke:black;stroke-width:1" />
  <polyline points="34.012,261.7792 30.012,261.7792" style="fill:none;stroke:black;stroke-width:1" />
  <polyline points="34.012,247.3542 30.012,247.3542" style="fill:none;stroke:black;stroke-width:1" />
  <polyline points="34.012,218.5043 30.012,218.5043" style="fill:none;stroke:black;stroke-width:1" />
  <polyline points="34.012,204.0794 30.012,204.0794" style="fill:none;stroke:black;stroke-width:1" />
  <polyline points="34.012,189.6544 30.012,189.6544" style="fill:none;stroke:black;stroke-width:1" />
  <polyline points="34.012,175.2295 30.012,175.2295" style="fill:none;stroke:black;stroke-width:1" />
  <polyline points="34.012,146.3796 30.012,146.3796" style="fill:none;stroke:black;stroke-width:1" />
  <polyline points="34.012,131.9546 30.012,131.9546" style="fill:none;stroke:black;stroke-width:1" />
  <polyline points="34.012,117.5297 30.012,117.5297" style="fill:none;stroke:black;stroke-width:1" />
  <polyline points="34.012,103.1047 30.012,103.1047" style="fill:none;stroke:black;stroke-width:1" />
  <polyline points="34.012,74.2548 30.012,74.2548" style="fill:none;stroke:black;stroke-width:1" />
  <polyline points="34.012,59.8299 30.012,59.8299" style="fill:none;stroke:black;stroke-width:1" />
  <polyline points="34.012,45.4049 30.012,45.4049" style="fill:none;stroke:black;stroke-width:1" />
  <polyline points="34.012,30.98 30.012,30.98" style="fill:none;stroke:black;stroke-width:1" />
  <text dominant-baseline="middle" text-anchor="end" transform="translate(23.012,305.0541)" font-family="Segoe UI" font-size="12" font-weight="400" fill="black">50</text>
  <text dominant-baseline="middle" text-anchor="end" transform="translate(23.012,232.9293)" font-family="Segoe UI" font-size="12" font-weight="400" fill="black">100</text>
  <text dominant-baseline="middle" text-anchor="end" transform="translate(23.012,160.8045)" font-family="Segoe UI" font-size="12" font-weight="400" fill="black">150</text>
  <text dominant-baseline="middle" text-anchor="end" transform="translate(23.012,88.6798)" font-family="Segoe UI" font-size="12" font-weight="400" fill="black">200</text>
  <polyline points="34.012,305.0541 27.012,305.0541" style="fill:none;stroke:black;stroke-width:1" />
  <polyline points="34.012,232.9293 27.012,232.9293" style="fill:none;stroke:black;stroke-width:1" />
  <polyline points="34.012,160.8045 27.012,160.8045" style="fill:none;stroke:black;stroke-width:1" />
  <polyline points="34.012,88.6798 27.012,88.6798" style="fill:none;stroke:black;stroke-width:1" />
  <text dominant-baseline="hanging" text-anchor="middle" transform="translate(68.3904,381.947)" font-family="Segoe UI" font-size="12" font-weight="400" fill="black">01. September</text>
  <text dominant-baseline="hanging" text-anchor="middle" transform="translate(147.7252,381.947)" font-family="Segoe UI" font-size="12" font-weight="400" fill="black">01. October</text>
  <text dominant-baseline="hanging" text-anchor="middle" transform="translate(229.7045,381.947)" font-family="Segoe UI" font-size="12" font-weight="400" fill="black">01. November</text>
  <text dominant-baseline="hanging" text-anchor="middle" transform="translate(309.0393,381.947)" font-family="Segoe UI" font-size="12" font-weight="400" fill="black">01. December</text>
  <text dominant-baseline="hanging" text-anchor="middle" transform="translate(391.0185,381.947)" font-family="Segoe UI" font-size="12" font-weight="400" fill="black">01. January</text>
  <text dominant-baseline="hanging" text-anchor="middle" transform="translate(472.9978,381.947)" font-family="Segoe UI" font-size="12" font-weight="400" fill="black">01. February</text>
  <text dominant-baseline="hanging" text-anchor="middle" transform="translate(547.0436,381.947)" font-family="Segoe UI" font-size="12" font-weight="400" fill="black">01. March</text>
  <polyline points="68.3904,370.947 68.3904,377.947" style="fill:none;stroke:black;stroke-width:1" />
  <polyline points="147.7252,370.947 147.7252,377.947" style="fill:none;stroke:black;stroke-width:1" />
  <polyline points="229.7045,370.947 229.7045,377.947" style="fill:none;stroke:black;stroke-width:1" />
  <polyline points="309.0393,370.947 309.0393,377.947" style="fill:none;stroke:black;stroke-width:1" />
  <polyline points="391.0185,370.947 391.0185,377.947" style="fill:none;stroke:black;stroke-width:1" />
  <polyline points="472.9978,370.947 472.9978,377.947" style="fill:none;stroke:black;stroke-width:1" />
  <polyline points="547.0436,370.947 547.0436,377.947" style="fill:none;stroke:black;stroke-width:1" />
  <polyline points="34.012,356.8142 36.6565,356.3899 39.301,362.471 47.2345,358.5112 49.879,362.471 52.5235,363.0367 55.1679,363.6024 57.8124,362.471 65.7459,366.9965 68.3904,365.2994 71.0349,365.8651 73.6794,365.2994 76.3239,365.2994 84.2574,365.8651 86.9019,367.5622 89.5464,365.8651 92.1908,365.2994 94.8353,363.0367 102.7688,356.8142 105.4133,352.2887 108.0578,347.1975 110.7023,346.6319 113.3468,342.1064 121.2803,347.7632 123.9248,348.3289 126.5693,352.2887 129.2137,350.5916 131.8582,351.723 139.7917,335.8838 142.4362,336.4495 145.0807,335.3182 147.7252,325.1358 150.3697,319.479 158.3032,312.6908 160.9477,313.8222 163.5922,305.9026 166.2366,304.7528 168.8811,307.6498 176.8146,292.5852 179.4591,290.847 182.1036,285.6323 184.7481,275.2029 187.3926,253.1854 195.3261,230.5885 197.9706,225.9532 200.6151,221.8974 203.2595,202.7769 205.904,202.1975 213.8375,137.3037 216.482,132.0891 219.1265,129.192 221.771,131.5096 224.4155,98.4834 232.349,118.1833 234.9935,107.7539 237.638,108.9127 240.2824,101.3804 242.9269,119.3421 250.8604,90.9511 253.5049,84.5776 256.1494,58.5042 261.4384,32.4308 269.3719,61.4012 272.0164,75.8864 274.6609,84.5776 277.3053,65.3847 279.9498,120.5009 287.8833,167.433 290.5278,150.6301 293.1723,153.5272 295.8168,208.571 298.4613,185.974 306.3948,188.8711 309.0393,213.7856 311.6838,225.9532 314.3282,198.1416 316.9727,202.1975 324.9062,179.0211 327.5507,181.3388 330.1952,179.6005 332.8397,151.2095 335.4842,173.2271 343.4177,154.1066 346.0622,144.2566 348.7067,132.6685 351.3511,145.4155 353.9956,134.4067 361.9291,116.445 364.5736,117.0244 367.2181,140.7802 380.4406,157.0036 383.0851,154.686 385.7296,134.4067 388.374,136.3622 398.952,211.468 401.5965,235.2238 404.241,250.8678 406.8855,236.962 409.53,215.9584 420.108,192.9269 422.7525,195.2446 425.3969,217.2621 428.0414,247.3913 435.9749,255.9086 438.6194,275.7823 441.2639,267.0912 443.9084,285.0529 446.5529,285.6323 454.4864,272.3059 459.7754,279.8382 462.4198,259.5589 465.0643,247.9707 472.9978,264.1942 475.6423,278.3173 478.2868,272.3059 480.9313,279.8382 483.5758,290.847 491.5093,293.744 494.1538,290.847 496.7983,275.2029 499.4427,276.3617 502.0872,269.4088 510.0207,283.8941 512.6652,285.6323 515.3097,306.491 517.9542,313.4439 520.5987,329.6673 528.5322,329.6673 531.1767,330.8261 533.8212,321.5556 536.4656,322.135 539.1101,317.4997 547.0436,329.0879 549.6881,327.9291 552.3326,323.8732 554.9771,300.6969 557.6216,294.9028 565.5551,265.353 568.1996,265.353 570.8441,263.6148 573.4885,278.6794 576.133,272.3059 584.0665,261.8765 586.711,262.4559 589.3555,254.9236 592,226.5326" style="fill:none;stroke:rgb(31,119,180);stroke-width:2;stroke-linejoin:bevel" />
  <text dominant-baseline="hanging" text-anchor="middle" transform="translate(313.006,8)" font-family="Segoe UI" font-size="18" font-weight="700" fill="black">7-Tage-Inzidenz Stadt Aachen 18.03.2021</text>
  <polygon points="34.012,29.0795 592,29.0795 592,370.947 34.012,370.947" style="fill:none;stroke:black;stroke-width:1" />
  <polygon points="42.012,37.0795 247.014,37.0795 247.014,63.1325 42.012,63.1325" style="fill:none;stroke:none;" />
  <text dominant-baseline="hanging" text-anchor="start" transform="translate(70.012,45.0795)" font-family="Segoe UI" font-size="12" font-weight="400" fill="black">7-Tage-Inzidenz Stadt Aachen 18.03.2021</text>
  <polyline points="50.012,50.106 66.012,50.106" style="fill:none;stroke:rgb(31,119,180);stroke-width:2" />
</svg>