<?xml version="1.0" encoding="utf-8" standalone="no"?>
<!DOCTYPE svg PUBLIC "-//W3C//DTD SVG 1.1//EN" "http://www.w3.org/Graphics/SVG/1.1/DTD/svg11.dtd">
<svg width="600" height="400" version="1.1" xmlns:xlink="http://www.w3.org/1999/xlink" xmlns="http://www.w3.org/2000/svg">
  <rect x="0" y="0" width="600" height="400" style="fill:rgb(255,255,255);stroke:none;" />
  <polyline points="34.012,353.5006 30.012,353.5006" style="fill:none;stroke:black;stroke-width:1" />
  <polyline points="34.012,339.4798 30.012,339.4798" style="fill:none;stroke:black;stroke-width:1" />
  <polyline points="34.012,325.4589 30.012,325.4589" style="fill:none;stroke:black;stroke-width:1" />
  <polyline points="34.012,311.438 30.012,311.438" style="fill:none;stroke:black;stroke-width:1" />
  <polyline points="34.012,283.3963 30.012,283.3963" style="fill:none;stroke:black;stroke-width:1" />
  <polyline points="34.012,269.3754 30.012,269.3754" style="fill:none;stroke:black;stroke-width:1" />
  <polyline points="34.012,255.3545 30.012,255.3545" style="fill:none;stroke:black;stroke-width:1" />
  <polyline points="34.012,241.3337 30.012,241.3337" style="fill:none;stroke:black;stroke-width:1" />
  <polyline points="34.012,213.2919 30.012,213.2919" style="fill:none;stroke:black;stroke-width:1" />
  <polyline points="34.012,199.2711 30.012,199.2711" style="fill:none;stroke:black;stroke-width:1" />
  <polyline points="34.012,185.2502 30.012,185.2502" style="fill:none;stroke:black;stroke-width:1" />
  <polyline points="34.012,171.2293 30.012,171.2293" style="fill:none;stroke:black;stroke-width:1" />
  <polyline points="34.012,143.1876 30.012,143.1876" style="fill:none;stroke:black;stroke-width:1" />
  <polyline points="34.012,129.1667 30.012,129.1667" style="fill:none;stroke:black;stroke-width:1" />
  <polyline points="34.012,115.1458 30.012,115.1458" style="fill:none;stroke:black;stroke-width:1" />
  <polyline points="34.012,101.125 30.012,101.125" style="fill:none;stroke:black;stroke-width:1" />
  <polyline points="34.012,73.0832 30.012,73.0832" style="fill:none;stroke:black;stroke-width:1" />
  <polyline points="34.012,59.0624 30.012,59.0624" style="fill:none;stroke:black;stroke-width:1" />
  <polyline points="34.012,45.0415 30.012,45.0415" style="fill:none;stroke:black;stroke-width:1" />
  <polyline points="34.012,31.0206 30.012,31.0206" style="fill:none;stroke:black;stroke-width:1" />
  <text dominant-baseline="middle" text-anchor="end" transform="translate(23.012,367.5215)" font-family="Segoe UI" font-size="12" font-weight="400" fill="black">0</text>
  <text dominant-baseline="middle" text-anchor="end" transform="translate(23.012,297.4172)" font-family="Segoe UI" font-size="12" font-weight="400" fill="black">50</text>
  <text dominant-baseline="middle" text-anchor="end" transform="translate(23.012,227.3128)" font-family="Segoe UI" font-size="12" font-weight="400" fill="black">100</text>
  <text dominant-baseline="middle" text-anchor="end" transform="translate(23.012,157.2085)" font-family="Segoe UI" font-size="12" font-weight="400" fill="black">150</text>
  <text dominant-baseline="middle" text-anchor="end" transform="translate(23.012,87.1041)" font-family="Segoe UI" font-size="12" font-weight="400" fill="black">200</text>
  <polyline points="34.012,367.5215 27.012,367.5215" style="fill:none;stroke:black;stroke-width:1" />
  <polyline points="34.012,297.4172 27.012,297.4172" style="fill:none;stroke:black;stroke-width:1" />
  <polyline points="34.012,227.3128 27.012,227.3128" style="fill:none;stroke:black;stroke-width:1" />
  <polyline points="34.012,157.2085 27.012,157.2085" style="fill:none;stroke:black;stroke-width:1" />
  <polyline points="34.012,87.1041 27.012,87.1041" style="fill:none;stroke:black;stroke-width:1" />
  <text dominant-baseline="hanging" text-anchor="middle" transform="translate(80.7056,381.947)" font-family="Segoe UI" font-size="12" font-weight="400" fill="black">01. September</text>
  <text dominant-baseline="hanging" text-anchor="middle" transform="translate(150.7459,381.947)" font-family="Segoe UI" font-size="12" font-weight="400" fill="black">01. October</text>
  <text dominant-baseline="hanging" text-anchor="middle" transform="translate(223.1209,381.947)" font-family="Segoe UI" font-size="12" font-weight="400" fill="black">01. November</text>
  <text dominant-baseline="hanging" text-anchor="middle" transform="translate(293.1612,381.947)" font-family="Segoe UI" font-size="12" font-weight="400" fill="black">01. December</text>
  <text dominant-baseline="hanging" text-anchor="middle" transform="translate(365.5363,381.947)" font-family="Segoe UI" font-size="12" font-weight="400" fill="black">01. January</text>
  <text dominant-baseline="hanging" text-anchor="middle" transform="translate(437.9113,381.947)" font-family="Segoe UI" font-size="12" font-weight="400" fill="black">01. February</text>
  <text dominant-baseline="hanging" text-anchor="middle" transform="translate(503.2822,381.947)" font-family="Segoe UI" font-size="12" font-weight="400" fill="black">01. March</text>
  <text dominant-baseline="hanging" text-anchor="middle" transform="translate(575.6573,381.947)" font-family="Segoe UI" font-size="12" font-weight="400" fill="black">01. April</text>
  <polyline points="80.7056,370.947 80.7056,377.947" style="fill:none;stroke:black;stroke-width:1" />
  <polyline points="150.7459,370.947 150.7459,377.947" style="fill:none;stroke:black;stroke-width:1" />
  <polyline points="223.1209,370.947 223.1209,377.947" style="fill:none;stroke:black;stroke-width:1" />
  <polyline points="293.1612,370.947 293.1612,377.947" style="fill:none;stroke:black;stroke-width:1" />
  <polyline points="365.5363,370.947 365.5363,377.947" style="fill:none;stroke:black;stroke-width:1" />
  <polyline points="437.9113,370.947 437.9113,377.947" style="fill:none;stroke:black;stroke-width:1" />
  <polyline points="503.2822,370.947 503.2822,377.947" style="fill:none;stroke:black;stroke-width:1" />
  <polyline points="575.6573,370.947 575.6573,377.947" style="fill:none;stroke:black;stroke-width:1" />
  <polyline points="34.012,367.5622 38.6814,367.5621 45.6854,367.5621 48.0201,367.562 50.3547,347.7273 52.6894,347.315 55.0241,353.2257 62.0281,349.3769 64.3628,353.2257 66.6975,353.7756 69.0322,354.3254 71.3668,353.2257 78.3709,357.6244 80.7056,355.9749 83.0402,356.5248 85.3749,355.9749 87.7096,355.9749 94.7136,356.5248 97.0483,358.1743 99.383,356.5248 101.7177,355.9749 104.0523,353.7756 111.0564,347.7273 113.391,343.3286 115.7257,338.3801 118.0604,337.8303 120.3951,333.4316 127.3991,338.9299 129.7338,339.4798 132.0685,343.3286 134.4031,341.6791 136.7378,342.7788 143.7419,327.3833 146.0765,327.9332 148.4112,326.8335 150.7459,316.9364 153.0806,311.438 160.0846,304.84 162.4193,305.9397 164.754,298.2419 167.0886,297.1243 169.4233,299.9402 176.4273,285.2976 178.762,283.608 181.0967,278.5394 183.4314,268.4022 185.7661,247.0015 192.7701,225.0376 195.1048,220.5321 197.4394,216.5899 199.7741,198.005 202.1088,197.4419 209.1128,134.366 211.4475,129.2974 213.7822,126.4815 216.1169,128.7342 218.4515,96.6331 225.4556,115.7811 227.7903,105.6439 230.1249,106.7703 232.4596,99.449 234.7943,116.9075 241.7983,89.3118 244.133,83.1168 246.4677,57.7738 251.137,32.4308 258.1411,60.5897 260.4757,74.6691 262.8104,83.1168 265.1451,64.4615 267.4798,118.0338 274.4838,163.6512 276.8185,147.3191 279.1532,150.1349 281.4878,203.6368 283.8225,181.6729 290.8266,184.4888 293.1612,208.7054 295.4959,220.5321 297.8306,193.4996 300.1653,197.4419 307.1693,174.9148 309.504,177.1675 311.8387,175.4779 314.1733,147.8822 316.508,169.283 323.5121,150.6981 325.8467,141.1241 328.1814,129.8605 330.5161,142.2505 332.8508,131.5501 339.8548,114.0916 342.1895,114.6548 344.5242,137.745 356.1975,153.514 358.5322,151.2613 360.8669,131.5501 363.2016,133.4508 372.5403,206.4527 374.875,229.543 377.2096,244.7488 379.5443,231.2325 381.879,210.8173 391.2177,188.431 393.5524,190.6837 395.8871,212.0845 398.2217,241.3697 405.2258,249.6484 407.5605,268.9654 409.8951,260.5178 412.2298,277.9763 414.5645,278.5394 421.5685,265.5864 426.2379,272.9077 428.5726,253.1965 430.9072,241.9329 437.9113,257.7019 440.2459,271.4293 442.5806,265.5864 444.9153,272.9077 447.25,283.608 454.254,286.4239 456.5887,283.608 458.9234,268.4022 461.258,269.5286 463.5927,262.7705 470.5968,276.8499 472.9314,278.5394 475.2661,298.8138 477.6008,305.572 479.9355,321.3409 486.9395,321.3409 489.2742,322.4673 491.6089,313.4565 493.9435,314.0196 496.2782,309.5142 503.2822,320.7778 505.6169,319.6514 507.9516,315.7092 510.2863,293.1821 512.621,287.5503 519.625,258.8282 521.9597,258.8282 524.2943,257.1387 526.629,271.7813 528.9637,265.5864 535.9677,255.4492 538.3024,256.0123 540.6371,248.691 542.9718,221.0953 545.3064,203.6368 552.3105,195.7523 554.6452,195.1892 556.9798,199.6946 559.3145,188.431 561.6492,200.8209 568.6532,218.8426 570.9879,215.4636 573.3226,222.2217 575.6573,237.9907 577.9919,213.2108 587.3306,200.2578 589.6653,214.9004 592,196.8787" style="fill:none;stroke:rgb(31,119,180);stroke-width:2;stroke-linejoin:bevel" />
  <text dominant-baseline="hanging" text-anchor="middle" transform="translate(313.006,8)" font-family="Segoe UI" font-size="18" font-weight="700" fill="black">7-Tage-Inzidenz Stadt Aachen 08.04.2021</text>
  <polygon points="34.012,29.0795 592,29.0795 592,370.947 34.012,370.947" style="fill:none;stroke:black;stroke-width:1" />
  <polygon points="42.012,37.0795 247.014,37.0795 247.014,63.1325 42.012,63.1325" style="fill:none;stroke:none;" />
  <text dominant-baseline="hanging" text-anchor="start" transform="translate(70.012,45.0795)" font-family="Segoe UI" font-size="12" font-weight="400" fill="black">7-Tage-Inzidenz Stadt Aachen 08.04.2021</text>
  <polyline points="50.012,50.106 66.012,50.106" style="fill:none;stroke:rgb(31,119,180);stroke-width:2" />
</svg>