<?xml version="1.0" encoding="utf-8" standalone="no"?>
<!DOCTYPE svg PUBLIC "-//W3C//DTD SVG 1.1//EN" "http://www.w3.org/Graphics/SVG/1.1/DTD/svg11.dtd">
<svg width="600" height="400" version="1.1" xmlns:xlink="http://www.w3.org/1999/xlink" xmlns="http://www.w3.org/2000/svg">
  <rect x="0" y="0" width="600" height="400" style="fill:rgb(255,255,255);stroke:none;" />
  <polyline points="34.012,362.7539 30.012,362.7539" style="fill:none;stroke:black;stroke-width:1" />
  <polyline points="34.012,348.3289 30.012,348.3289" style="fill:none;stroke:black;stroke-width:1" />
  <polyline points="34.012,333.904 30.012,333.904" style="fill:none;stroke:black;stroke-width:1" />
  <polyline points="34.012,319.479 30.012,319.479" style="fill:none;stroke:black;stroke-width:1" />
  <polyline points="34.012,290.6291 30.012,290.6291" style="fill:none;stroke:black;stroke-width:1" />
  <polyline points="34.012,276.2041 30.012,276.2041" style="fill:none;stroke:black;stroke-width:1" />
  <polyline points="34.012,261.7792 30.012,261.7792" style="fill:none;stroke:black;stroke-width:1" />
  <polyline points="34.012,247.3542 30.012,247.3542" style="fill:none;stroke:black;stroke-width:1" />
  <polyline points="34.012,218.5043 30.012,218.5043" style="fill:none;stroke:black;stroke-width:1" />
  <polyline points="34.012,204.0794 30.012,204.0794" style="fill:none;stroke:black;stroke-width:1" />
  <polyline points="34.012,189.6544 30.012,189.6544" style="fill:none;stroke:black;stroke-width:1" />
  <polyline points="34.012,175.2295 30.012,175.2295" style="fill:none;stroke:black;stroke-width:1" />
  <polyline points="34.012,146.3796 30.012,146.3796" style="fill:none;stroke:black;stroke-width:1" />
  <polyline points="34.012,131.9546 30.012,131.9546" style="fill:none;stroke:black;stroke-width:1" />
  <polyline points="34.012,117.5297 30.012,117.5297" style="fill:none;stroke:black;stroke-width:1" />
  <polyline points="34.012,103.1047 30.012,103.1047" style="fill:none;stroke:black;stroke-width:1" />
  <polyline points="34.012,74.2548 30.012,74.2548" style="fill:none;stroke:black;stroke-width:1" />
  <polyline points="34.012,59.8299 30.012,59.8299" style="fill:none;stroke:black;stroke-width:1" />
  <polyline points="34.012,45.4049 30.012,45.4049" style="fill:none;stroke:black;stroke-width:1" />
  <polyline points="34.012,30.98 30.012,30.98" style="fill:none;stroke:black;stroke-width:1" />
  <text dominant-baseline="middle" text-anchor="end" transform="translate(23.012,305.0541)" font-family="Segoe UI" font-size="12" font-weight="400" fill="black">50</text>
  <text dominant-baseline="middle" text-anchor="end" transform="translate(23.012,232.9293)" font-family="Segoe UI" font-size="12" font-weight="400" fill="black">100</text>
  <text dominant-baseline="middle" text-anchor="end" transform="translate(23.012,160.8045)" font-family="Segoe UI" font-size="12" font-weight="400" fill="black">150</text>
  <text dominant-baseline="middle" text-anchor="end" transform="translate(23.012,88.6798)" font-family="Segoe UI" font-size="12" font-weight="400" fill="black">200</text>
  <polyline points="34.012,305.0541 27.012,305.0541" style="fill:none;stroke:black;stroke-width:1" />
  <polyline points="34.012,232.9293 27.012,232.9293" style="fill:none;stroke:black;stroke-width:1" />
  <polyline points="34.012,160.8045 27.012,160.8045" style="fill:none;stroke:black;stroke-width:1" />
  <polyline points="34.012,88.6798 27.012,88.6798" style="fill:none;stroke:black;stroke-width:1" />
  <text dominant-baseline="hanging" text-anchor="middle" transform="translate(63.7409,381.947)" font-family="Segoe UI" font-size="12" font-weight="400" fill="black">01. September</text>
  <text dominant-baseline="hanging" text-anchor="middle" transform="translate(132.346,381.947)" font-family="Segoe UI" font-size="12" font-weight="400" fill="black">01. October</text>
  <text dominant-baseline="hanging" text-anchor="middle" transform="translate(203.2379,381.947)" font-family="Segoe UI" font-size="12" font-weight="400" fill="black">01. November</text>
  <text dominant-baseline="hanging" text-anchor="middle" transform="translate(271.843,381.947)" font-family="Segoe UI" font-size="12" font-weight="400" fill="black">01. December</text>
  <text dominant-baseline="hanging" text-anchor="middle" transform="translate(342.7349,381.947)" font-family="Segoe UI" font-size="12" font-weight="400" fill="black">01. January</text>
  <text dominant-baseline="hanging" text-anchor="middle" transform="translate(413.6268,381.947)" font-family="Segoe UI" font-size="12" font-weight="400" fill="black">01. February</text>
  <text dominant-baseline="hanging" text-anchor="middle" transform="translate(477.6582,381.947)" font-family="Segoe UI" font-size="12" font-weight="400" fill="black">01. March</text>
  <text dominant-baseline="hanging" text-anchor="middle" transform="translate(548.5501,381.947)" font-family="Segoe UI" font-size="12" font-weight="400" fill="black">01. April</text>
  <polyline points="63.7409,370.947 63.7409,377.947" style="fill:none;stroke:black;stroke-width:1" />
  <polyline points="132.346,370.947 132.346,377.947" style="fill:none;stroke:black;stroke-width:1" />
  <polyline points="203.2379,370.947 203.2379,377.947" style="fill:none;stroke:black;stroke-width:1" />
  <polyline points="271.843,370.947 271.843,377.947" style="fill:none;stroke:black;stroke-width:1" />
  <polyline points="342.7349,370.947 342.7349,377.947" style="fill:none;stroke:black;stroke-width:1" />
  <polyline points="413.6268,370.947 413.6268,377.947" style="fill:none;stroke:black;stroke-width:1" />
  <polyline points="477.6582,370.947 477.6582,377.947" style="fill:none;stroke:black;stroke-width:1" />
  <polyline points="548.5501,370.947 548.5501,377.947" style="fill:none;stroke:black;stroke-width:1" />
  <polyline points="34.012,356.8142 36.2988,356.3899 38.5857,362.471 45.4462,358.5112 47.733,362.471 50.0199,363.0367 52.3067,363.6024 54.5935,362.471 61.454,366.9965 63.7409,365.2994 66.0277,365.8651 68.3145,365.2994 70.6014,365.2994 77.4619,365.8651 79.7487,367.5622 82.0356,365.8651 84.3224,365.2994 86.6092,363.0367 93.4697,356.8142 95.7566,352.2887 98.0434,347.1975 100.3302,346.6319 102.6171,342.1064 109.4776,347.7632 111.7644,348.3289 114.0513,352.2887 116.3381,350.5916 118.6249,351.723 125.4854,335.8838 127.7723,336.4495 130.0591,335.3182 132.346,325.1358 134.6328,319.479 141.4933,312.6908 143.7801,313.8222 146.067,305.9026 148.3538,304.7528 150.6406,307.6498 157.5011,292.5852 159.788,290.847 162.0748,285.6323 164.3617,275.2029 166.6485,253.1854 173.509,230.5885 175.7958,225.9532 178.0827,221.8974 180.3695,202.7769 182.6563,202.1975 189.5169,137.3037 191.8037,132.0891 194.0905,129.192 196.3774,131.5096 198.6642,98.4834 205.5247,118.1833 207.8115,107.7539 210.0984,108.9127 212.3852,101.3804 214.672,119.3421 221.5326,90.9511 223.8194,84.5776 226.1062,58.5042 230.6799,32.4308 237.5404,61.4012 239.8272,75.8864 242.1141,84.5776 244.4009,65.3847 246.6878,120.5009 253.5483,167.433 255.8351,150.6301 258.1219,153.5272 260.4088,208.571 262.6956,185.974 269.5561,188.8711 271.843,213.7856 274.1298,225.9532 276.4166,198.1416 278.7035,202.1975 285.564,179.0211 287.8508,181.3388 290.1376,179.6005 292.4245,151.2095 294.7113,173.2271 301.5718,154.1066 303.8587,144.2566 306.1455,132.6685 308.4323,145.4155 310.7192,134.4067 317.5797,116.445 319.8665,117.0244 322.1533,140.7802 333.5875,157.0036 335.8744,154.686 338.1612,134.4067 340.448,136.3622 349.5954,211.468 351.8822,235.2238 354.169,250.8678 356.4559,236.962 358.7427,215.9584 367.8901,192.9269 370.1769,195.2446 372.4637,217.2621 374.7506,247.3913 381.6111,255.9086 383.8979,275.7823 386.1848,267.0912 388.4716,285.0529 390.7584,285.6323 397.6189,272.3059 402.1926,279.8382 404.4794,259.5589 406.7663,247.9707 413.6268,264.1942 415.9136,278.3173 418.2005,272.3059 420.4873,279.8382 422.7741,290.847 429.6346,293.744 431.9215,290.847 434.2083,275.2029 436.4951,276.3617 438.782,269.4088 445.6425,283.8941 447.9293,285.6323 450.2162,306.491 452.503,313.4439 454.7898,329.6673 461.6503,329.6673 463.9372,330.8261 466.224,321.5556 468.5109,322.135 470.7977,317.4997 477.6582,329.0879 479.945,327.9291 482.2319,323.8732 484.5187,300.6969 486.8055,294.9028 493.666,265.353 495.9529,265.353 498.2397,263.6148 500.5266,278.6794 502.8134,272.3059 509.6739,261.8765 511.9607,262.4559 514.2476,254.9236 516.5344,226.5326 518.8212,208.571 525.6818,200.4592 527.9686,199.8798 530.2554,204.5151 532.5423,192.9269 534.8291,205.6739 541.6896,224.215 543.9764,220.7385 546.2633,227.6914 548.5501,243.9149 550.837,218.4209 559.9843,205.0945 562.2711,220.1591 564.558,201.6181 566.8448,235.2238 573.7053,225.8953 575.9921,216.1033 578.279,168.0124 580.5658,188.8711 582.8527,184.8152 589.7132,176.1241 592,157.0036" style="fill:none;stroke:rgb(31,119,180);stroke-width:2;stroke-linejoin:bevel" />
  <text dominant-baseline="hanging" text-anchor="middle" transform="translate(313.006,8)" font-family="Segoe UI" font-size="18" font-weight="700" fill="black">7-Tage-Inzidenz Stadt Aachen 20.04.2021</text>
  <polygon points="34.012,29.0795 592,29.0795 592,370.947 34.012,370.947" style="fill:none;stroke:black;stroke-width:1" />
  <polygon points="42.012,37.0795 247.014,37.0795 247.014,63.1325 42.012,63.1325" style="fill:none;stroke:none;" />
  <text dominant-baseline="hanging" text-anchor="start" transform="translate(70.012,45.0795)" font-family="Segoe UI" font-size="12" font-weight="400" fill="black">7-Tage-Inzidenz Stadt Aachen 20.04.2021</text>
  <polyline points="50.012,50.106 66.012,50.106" style="fill:none;stroke:rgb(31,119,180);stroke-width:2" />
</svg>