<?xml version="1.0" encoding="utf-8" standalone="no"?>
<!DOCTYPE svg PUBLIC "-//W3C//DTD SVG 1.1//EN" "http://www.w3.org/Graphics/SVG/1.1/DTD/svg11.dtd">
<svg width="600" height="400" version="1.1" xmlns:xlink="http://www.w3.org/1999/xlink" xmlns="http://www.w3.org/2000/svg">
  <rect x="0" y="0" width="600" height="400" style="fill:rgb(255,255,255);stroke:none;" />
  <polyline points="34.012,341.6476 30.012,341.6476" style="fill:none;stroke:black;stroke-width:1" />
  <polyline points="34.012,315.754 30.012,315.754" style="fill:none;stroke:black;stroke-width:1" />
  <polyline points="34.012,289.8605 30.012,289.8605" style="fill:none;stroke:black;stroke-width:1" />
  <polyline points="34.012,238.0733 30.012,238.0733" style="fill:none;stroke:black;stroke-width:1" />
  <polyline points="34.012,212.1798 30.012,212.1798" style="fill:none;stroke:black;stroke-width:1" />
  <polyline points="34.012,186.2862 30.012,186.2862" style="fill:none;stroke:black;stroke-width:1" />
  <polyline points="34.012,134.4991 30.012,134.4991" style="fill:none;stroke:black;stroke-width:1" />
  <polyline points="34.012,108.6055 30.012,108.6055" style="fill:none;stroke:black;stroke-width:1" />
  <polyline points="34.012,82.7119 30.012,82.7119" style="fill:none;stroke:black;stroke-width:1" />
  <polyline points="34.012,30.9248 30.012,30.9248" style="fill:none;stroke:black;stroke-width:1" />
  <text dominant-baseline="middle" text-anchor="end" transform="translate(23.012,367.5412)" font-family="Segoe UI" font-size="12" font-weight="400" fill="black">0</text>
  <text dominant-baseline="middle" text-anchor="end" transform="translate(23.012,263.9669)" font-family="Segoe UI" font-size="12" font-weight="400" fill="black">200</text>
  <text dominant-baseline="middle" text-anchor="end" transform="translate(23.012,160.3926)" font-family="Segoe UI" font-size="12" font-weight="400" fill="black">400</text>
  <text dominant-baseline="middle" text-anchor="end" transform="translate(23.012,56.8184)" font-family="Segoe UI" font-size="12" font-weight="400" fill="black">600</text>
  <polyline points="34.012,367.5412 27.012,367.5412" style="fill:none;stroke:black;stroke-width:1" />
  <polyline points="34.012,263.9669 27.012,263.9669" style="fill:none;stroke:black;stroke-width:1" />
  <polyline points="34.012,160.3926 27.012,160.3926" style="fill:none;stroke:black;stroke-width:1" />
  <polyline points="34.012,56.8184 27.012,56.8184" style="fill:none;stroke:black;stroke-width:1" />
  <text dominant-baseline="hanging" text-anchor="middle" transform="translate(186.974,381.947)" font-family="Segoe UI" font-size="12" font-weight="400" fill="black">01. January</text>
  <text dominant-baseline="hanging" text-anchor="middle" transform="translate(580.1508,381.947)" font-family="Segoe UI" font-size="12" font-weight="400" fill="black">01. January</text>
  <polyline points="186.974,370.947 186.974,377.947" style="fill:none;stroke:black;stroke-width:1" />
  <polyline points="580.1508,370.947 580.1508,377.947" style="fill:none;stroke:black;stroke-width:1" />
  <polyline points="34.012,367.5622 36.1664,367.5621 39.398,367.5621 40.4752,367.5621 41.5524,360.23 42.6296,360.0777 43.7068,362.2609 46.9384,360.8393 48.0156,362.2609 49.0928,362.464 50.17,362.6671 51.2472,362.2609 54.4787,363.8856 55.5559,363.2763 56.6331,363.4794 57.7103,363.2763 58.7875,363.2763 62.0191,363.4794 63.0963,364.0887 64.1735,363.4794 65.2507,363.2763 66.3279,362.464 69.5595,360.23 70.6367,358.6053 71.7139,356.7776 72.7911,356.5745 73.8683,354.9498 77.0999,356.9806 78.1771,357.1837 79.2543,358.6053 80.3315,357.9961 81.4087,358.4023 84.6403,352.7158 85.7175,352.9189 86.7946,352.5127 87.8718,348.8572 88.949,346.8263 92.1806,344.3893 93.2578,344.7954 94.335,341.9522 95.4122,341.5394 96.4894,342.5795 99.721,337.1711 100.7982,336.5471 101.8754,334.675 102.9526,330.9307 104.0298,323.0262 107.2614,314.9137 108.3386,313.2495 109.4158,311.7934 110.493,304.929 111.5702,304.721 114.8018,281.4234 115.879,279.5513 116.9562,278.5112 118.0334,279.3433 119.1106,267.4865 122.3421,274.559 123.4193,270.8147 124.4965,271.2307 125.5737,268.5266 126.6509,274.975 129.8825,264.7823 130.9597,262.4942 132.0369,253.1335 134.1913,243.7729 137.4229,254.1736 138.5001,259.3739 139.5773,262.4942 140.6545,255.6037 141.7317,275.391 144.9633,292.2401 146.0405,286.2077 147.1177,287.2478 148.1949,307.0091 149.2721,298.8966 152.5037,299.9367 153.5809,308.8813 154.6581,313.2495 155.7353,303.2649 156.8124,304.721 160.044,296.4004 161.1212,297.2325 162.1984,296.6084 163.2756,286.4158 164.3528,294.3203 167.5844,287.4558 168.6616,283.9196 169.7388,279.7593 170.816,284.3356 171.8932,280.3834 175.1248,273.9349 176.202,274.1429 177.2792,282.6715 182.6652,288.4959 183.7424,287.6638 184.8196,280.3834 185.8968,281.0854 190.2056,308.0492 191.2827,316.5778 192.3599,322.1941 193.4371,317.2018 194.5143,309.6613 198.8231,301.3928 199.9003,302.2248 200.9775,310.1293 202.0547,320.9461 205.2863,324.0039 206.3635,331.1387 207.4407,328.0185 208.5179,334.467 209.5951,334.675 212.8267,329.8907 214.9811,332.5948 216.0583,325.3143 217.1355,321.1541 220.3671,326.9785 221.4443,332.0488 222.5215,329.8907 223.5987,332.5948 224.6759,336.5471 227.9074,337.5872 228.9846,336.5471 230.0618,330.9307 231.139,331.3467 232.2162,328.8506 235.4478,334.0509 236.525,334.675 237.6022,342.1635 238.6794,344.6596 239.7566,350.484 242.9882,350.484 244.0654,350.9001 245.1426,347.5718 246.2198,347.7798 247.297,346.1157 250.5286,350.276 251.6058,349.86 252.683,348.4039 253.7602,340.0833 254.8374,338.0032 258.069,327.3945 259.1462,327.3945 260.2234,326.7704 261.3005,332.1788 262.3777,329.8907 265.6093,326.1464 266.6865,326.3544 267.7637,323.6502 268.8409,313.4576 269.9181,307.0091 273.1497,304.0969 274.2269,303.8889 275.3041,305.553 276.3813,301.3928 277.4585,305.9691 280.6901,312.6255 281.7673,311.3774 282.8445,313.8736 283.9217,319.698 284.9989,310.5454 289.3077,305.761 290.3849,311.1694 291.4621,304.513 292.5393,316.5778 295.7708,313.2287 296.848,309.7133 297.9252,292.4482 299.0024,299.9367 300.0796,298.4806 303.3112,295.3603 304.3884,288.4959 305.4656,290.368 306.5428,285.3757 307.62,276.6391 310.8516,269.7746 311.9288,275.599 313.006,280.7994 314.0832,278.7192 315.1604,279.7593 318.392,289.1199 319.4692,284.7516 320.5464,282.4635 321.6236,294.5283 322.7008,301.8088 325.9324,305.345 327.0096,308.6732 328.0868,313.2495 330.2412,301.6008 333.4727,302.6408 334.5499,297.4405 335.6271,295.3603 336.7043,296.9205 337.7815,309.7133 342.0903,326.9785 343.1675,335.9231 344.2447,339.4593 345.3219,340.7074 348.5535,343.5156 349.6307,345.2837 350.7079,344.8677 352.8623,352.3562 356.0939,357.9725 357.1711,359.8446 358.2483,361.5088 359.3255,361.1707 360.4027,363.1729 363.6343,364.2129 364.7115,363.7969 365.7886,363.7969 366.8658,363.3809 367.943,362.3408 371.1746,362.3408 372.2518,362.1328 373.329,363.3809 374.4062,364.629 375.4834,365.253 378.715,365.045 379.7922,365.669 380.8694,364.421 381.9466,363.1729 383.0238,363.5889 386.2554,363.5889 388.4098,363.7969 390.5642,364.629 393.7958,365.045 395.9502,362.5488 398.1046,358.5966 403.4905,354.4363 405.6449,349.2359 411.0309,348.6119 413.1853,353.6042 418.5713,353.3962 420.7257,351.1081 426.1117,340.7074 428.2661,328.8506 433.6521,325.5224 435.8064,330.9307 441.1924,306.1771 443.3468,302.6408 448.7328,318.0339 450.8872,313.8736 458.4276,320.53 465.968,332.5948 471.3539,336.9631 473.5083,339.2513 478.8943,340.9154 481.0487,345.0757 486.4347,350.692 488.5891,350.692 493.9751,350.484 496.1295,350.276 501.5155,350.276 503.6699,343.6196 509.0558,330.0987 511.2102,316.5778 516.5962,313.2495 518.7506,306.1771 524.1366,278.0952 526.291,267.6945 531.677,257.2938 533.8314,256.6698 539.2174,218.8112 541.3717,203.6262 546.7577,214.2349 554.2981,221.0994 556.4525,216.5924 561.8385,244.1889 563.9929,245.021 584.4596,231.5877 586.614,204.1809 592,32.4308" style="fill:none;stroke:rgb(31,119,180);stroke-width:2;stroke-linejoin:bevel" />
  <text dominant-baseline="hanging" text-anchor="middle" transform="translate(313.006,8)" font-family="Segoe UI" font-size="18" font-weight="700" fill="black">7-Tage-Inzidenz Stadt Aachen 12.01.2022</text>
  <polygon points="34.012,29.0795 592,29.0795 592,370.947 34.012,370.947" style="fill:none;stroke:black;stroke-width:1" />
  <polygon points="42.012,37.0795 247.014,37.0795 247.014,63.1325 42.012,63.1325" style="fill:none;stroke:none;" />
  <text dominant-baseline="hanging" text-anchor="start" transform="translate(70.012,45.0795)" font-family="Segoe UI" font-size="12" font-weight="400" fill="black">7-Tage-Inzidenz Stadt Aachen 12.01.2022</text>
  <polyline points="50.012,50.106 66.012,50.106" style="fill:none;stroke:rgb(31,119,180);stroke-width:2" />
</svg>