<?xml version="1.0" encoding="utf-8" standalone="no"?>
<!DOCTYPE svg PUBLIC "-//W3C//DTD SVG 1.1//EN" "http://www.w3.org/Graphics/SVG/1.1/DTD/svg11.dtd">
<svg width="600" height="400" version="1.1" xmlns:xlink="http://www.w3.org/1999/xlink" xmlns="http://www.w3.org/2000/svg">
  <rect x="0" y="0" width="600" height="400" style="fill:rgb(255,255,255);stroke:none;" />
  <polyline points="34.012,362.7539 30.012,362.7539" style="fill:none;stroke:black;stroke-width:1" />
  <polyline points="34.012,348.3289 30.012,348.3289" style="fill:none;stroke:black;stroke-width:1" />
  <polyline points="34.012,333.904 30.012,333.904" style="fill:none;stroke:black;stroke-width:1" />
  <polyline points="34.012,319.479 30.012,319.479" style="fill:none;stroke:black;stroke-width:1" />
  <polyline points="34.012,290.6291 30.012,290.6291" style="fill:none;stroke:black;stroke-width:1" />
  <polyline points="34.012,276.2041 30.012,276.2041" style="fill:none;stroke:black;stroke-width:1" />
  <polyline points="34.012,261.7792 30.012,261.7792" style="fill:none;stroke:black;stroke-width:1" />
  <polyline points="34.012,247.3542 30.012,247.3542" style="fill:none;stroke:black;stroke-width:1" />
  <polyline points="34.012,218.5043 30.012,218.5043" style="fill:none;stroke:black;stroke-width:1" />
  <polyline points="34.012,204.0794 30.012,204.0794" style="fill:none;stroke:black;stroke-width:1" />
  <polyline points="34.012,189.6544 30.012,189.6544" style="fill:none;stroke:black;stroke-width:1" />
  <polyline points="34.012,175.2295 30.012,175.2295" style="fill:none;stroke:black;stroke-width:1" />
  <polyline points="34.012,146.3796 30.012,146.3796" style="fill:none;stroke:black;stroke-width:1" />
  <polyline points="34.012,131.9546 30.012,131.9546" style="fill:none;stroke:black;stroke-width:1" />
  <polyline points="34.012,117.5297 30.012,117.5297" style="fill:none;stroke:black;stroke-width:1" />
  <polyline points="34.012,103.1047 30.012,103.1047" style="fill:none;stroke:black;stroke-width:1" />
  <polyline points="34.012,74.2548 30.012,74.2548" style="fill:none;stroke:black;stroke-width:1" />
  <polyline points="34.012,59.8299 30.012,59.8299" style="fill:none;stroke:black;stroke-width:1" />
  <polyline points="34.012,45.4049 30.012,45.4049" style="fill:none;stroke:black;stroke-width:1" />
  <polyline points="34.012,30.98 30.012,30.98" style="fill:none;stroke:black;stroke-width:1" />
  <text dominant-baseline="middle" text-anchor="end" transform="translate(23.012,305.0541)" font-family="Segoe UI" font-size="12" font-weight="400" fill="black">50</text>
  <text dominant-baseline="middle" text-anchor="end" transform="translate(23.012,232.9293)" font-family="Segoe UI" font-size="12" font-weight="400" fill="black">100</text>
  <text dominant-baseline="middle" text-anchor="end" transform="translate(23.012,160.8045)" font-family="Segoe UI" font-size="12" font-weight="400" fill="black">150</text>
  <text dominant-baseline="middle" text-anchor="end" transform="translate(23.012,88.6798)" font-family="Segoe UI" font-size="12" font-weight="400" fill="black">200</text>
  <polyline points="34.012,305.0541 27.012,305.0541" style="fill:none;stroke:black;stroke-width:1" />
  <polyline points="34.012,232.9293 27.012,232.9293" style="fill:none;stroke:black;stroke-width:1" />
  <polyline points="34.012,160.8045 27.012,160.8045" style="fill:none;stroke:black;stroke-width:1" />
  <polyline points="34.012,88.6798 27.012,88.6798" style="fill:none;stroke:black;stroke-width:1" />
  <text dominant-baseline="hanging" text-anchor="middle" transform="translate(59.9186,381.947)" font-family="Segoe UI" font-size="12" font-weight="400" fill="black">01. September</text>
  <text dominant-baseline="hanging" text-anchor="middle" transform="translate(119.703,381.947)" font-family="Segoe UI" font-size="12" font-weight="400" fill="black">01. October</text>
  <text dominant-baseline="hanging" text-anchor="middle" transform="translate(181.4803,381.947)" font-family="Segoe UI" font-size="12" font-weight="400" fill="black">01. November</text>
  <text dominant-baseline="hanging" text-anchor="middle" transform="translate(241.2647,381.947)" font-family="Segoe UI" font-size="12" font-weight="400" fill="black">01. December</text>
  <text dominant-baseline="hanging" text-anchor="middle" transform="translate(303.0419,381.947)" font-family="Segoe UI" font-size="12" font-weight="400" fill="black">01. January</text>
  <text dominant-baseline="hanging" text-anchor="middle" transform="translate(364.8192,381.947)" font-family="Segoe UI" font-size="12" font-weight="400" fill="black">01. February</text>
  <text dominant-baseline="hanging" text-anchor="middle" transform="translate(420.618,381.947)" font-family="Segoe UI" font-size="12" font-weight="400" fill="black">01. March</text>
  <text dominant-baseline="hanging" text-anchor="middle" transform="translate(482.3952,381.947)" font-family="Segoe UI" font-size="12" font-weight="400" fill="black">01. April</text>
  <text dominant-baseline="hanging" text-anchor="middle" transform="translate(542.1796,381.947)" font-family="Segoe UI" font-size="12" font-weight="400" fill="black">01. May</text>
  <polyline points="59.9186,370.947 59.9186,377.947" style="fill:none;stroke:black;stroke-width:1" />
  <polyline points="119.703,370.947 119.703,377.947" style="fill:none;stroke:black;stroke-width:1" />
  <polyline points="181.4803,370.947 181.4803,377.947" style="fill:none;stroke:black;stroke-width:1" />
  <polyline points="241.2647,370.947 241.2647,377.947" style="fill:none;stroke:black;stroke-width:1" />
  <polyline points="303.0419,370.947 303.0419,377.947" style="fill:none;stroke:black;stroke-width:1" />
  <polyline points="364.8192,370.947 364.8192,377.947" style="fill:none;stroke:black;stroke-width:1" />
  <polyline points="420.618,370.947 420.618,377.947" style="fill:none;stroke:black;stroke-width:1" />
  <polyline points="482.3952,370.947 482.3952,377.947" style="fill:none;stroke:black;stroke-width:1" />
  <polyline points="542.1796,370.947 542.1796,377.947" style="fill:none;stroke:black;stroke-width:1" />
  <polyline points="34.012,356.8142 36.0048,356.3899 37.9976,362.471 43.9761,358.5112 45.9689,362.471 47.9617,363.0367 49.9545,363.6024 51.9473,362.471 57.9258,366.9965 59.9186,365.2994 61.9114,365.8651 63.9042,365.2994 65.897,365.2994 71.8755,365.8651 73.8683,367.5622 75.8611,365.8651 77.8539,365.2994 79.8467,363.0367 85.8252,356.8142 87.818,352.2887 89.8108,347.1975 91.8036,346.6319 93.7964,342.1064 99.7749,347.7632 101.7677,348.3289 103.7605,352.2887 105.7533,350.5916 107.7461,351.723 113.7246,335.8838 115.7174,336.4495 117.7102,335.3182 119.703,325.1358 121.6958,319.479 127.6743,312.6908 129.6671,313.8222 131.6599,305.9026 133.6527,304.7528 135.6455,307.6498 141.624,292.5852 143.6168,290.847 145.6096,285.6323 147.6024,275.2029 149.5952,253.1854 155.5737,230.5885 157.5665,225.9532 159.5593,221.8974 161.5521,202.7769 163.5449,202.1975 169.5234,137.3037 171.5162,132.0891 173.509,129.192 175.5018,131.5096 177.4946,98.4834 183.4731,118.1833 185.4659,107.7539 187.4587,108.9127 189.4515,101.3804 191.4443,119.3421 197.4228,90.9511 199.4156,84.5776 201.4084,58.5042 205.394,32.4308 211.3725,61.4012 213.3653,75.8864 215.3581,84.5776 217.3509,65.3847 219.3437,120.5009 225.3222,167.433 227.315,150.6301 229.3078,153.5272 231.3006,208.571 233.2934,185.974 239.2719,188.8711 241.2647,213.7856 243.2575,225.9532 245.2503,198.1416 247.2431,202.1975 253.2216,179.0211 255.2144,181.3388 257.2072,179.6005 259.2,151.2095 261.1928,173.2271 267.1713,154.1066 269.1641,144.2566 271.1569,132.6685 273.1497,145.4155 275.1425,134.4067 281.121,116.445 283.1138,117.0244 285.1066,140.7802 295.0707,157.0036 297.0635,154.686 299.0563,134.4067 301.0491,136.3622 309.0204,211.468 311.0132,235.2238 313.006,250.8678 314.9988,236.962 316.9916,215.9584 324.9629,192.9269 326.9557,195.2446 328.9485,217.2621 330.9413,247.3913 336.9198,255.9086 338.9126,275.7823 340.9054,267.0912 342.8982,285.0529 344.891,285.6323 350.8695,272.3059 354.8551,279.8382 356.8479,259.5589 358.8407,247.9707 364.8192,264.1942 366.812,278.3173 368.8048,272.3059 370.7976,279.8382 372.7904,290.847 378.7689,293.744 380.7617,290.847 382.7545,275.2029 384.7473,276.3617 386.7401,269.4088 392.7186,283.8941 394.7114,285.6323 396.7042,306.491 398.697,313.4439 400.6898,329.6673 406.6683,329.6673 408.6611,330.8261 410.6539,321.5556 412.6467,322.135 414.6395,317.4997 420.618,329.0879 422.6108,327.9291 424.6036,323.8732 426.5964,300.6969 428.5892,294.9028 434.5677,265.353 436.5605,265.353 438.5533,263.6148 440.5461,278.6794 442.5389,272.3059 448.5174,261.8765 450.5102,262.4559 452.503,254.9236 454.4958,226.5326 456.4886,208.571 462.4671,200.4592 464.4599,199.8798 466.4527,204.5151 468.4455,192.9269 470.4383,205.6739 476.4168,224.215 478.4096,220.7385 480.4024,227.6914 482.3952,243.9149 484.388,218.4209 492.3593,205.0945 494.3521,220.1591 496.3449,201.6181 498.3377,235.2238 504.3162,225.8953 506.309,216.1033 508.3018,168.0124 510.2946,188.8711 512.2874,184.8152 518.2659,176.1241 520.2587,157.0036 522.2515,162.2183 524.2443,148.3125 526.2371,123.9773 532.2156,104.8569 534.2084,121.0803 536.2012,135.5655 538.194,129.7714 540.1868,132.6685 546.1653,158.7418 548.1581,146.5743 550.1509,140.2008 552.1437,173.8065 554.1365,194.0858 560.115,203.9357 562.1078,213.2062 564.1006,225.9532 568.0862,193.5063 574.0647,196.4034 576.0575,181.9182 578.0503,176.1241 580.0431,180.4697 582.0359,216.1033 590.0072,264.1942 592,289.1087" style="fill:none;stroke:rgb(31,119,180);stroke-width:2;stroke-linejoin:bevel" />
  <text dominant-baseline="hanging" text-anchor="middle" transform="translate(313.006,8)" font-family="Segoe UI" font-size="18" font-weight="700" fill="black">7-Tage-Inzidenz Stadt Aachen 26.05.2021</text>
  <polygon points="34.012,29.0795 592,29.0795 592,370.947 34.012,370.947" style="fill:none;stroke:black;stroke-width:1" />
  <polygon points="42.012,37.0795 247.014,37.0795 247.014,63.1325 42.012,63.1325" style="fill:none;stroke:none;" />
  <text dominant-baseline="hanging" text-anchor="start" transform="translate(70.012,45.0795)" font-family="Segoe UI" font-size="12" font-weight="400" fill="black">7-Tage-Inzidenz Stadt Aachen 26.05.2021</text>
  <polyline points="50.012,50.106 66.012,50.106" style="fill:none;stroke:rgb(31,119,180);stroke-width:2" />
</svg>