<?xml version="1.0" encoding="utf-8" standalone="no"?>
<!DOCTYPE svg PUBLIC "-//W3C//DTD SVG 1.1//EN" "http://www.w3.org/Graphics/SVG/1.1/DTD/svg11.dtd">
<svg width="600" height="400" version="1.1" xmlns:xlink="http://www.w3.org/1999/xlink" xmlns="http://www.w3.org/2000/svg">
  <rect x="0" y="0" width="600" height="400" style="fill:rgb(255,255,255);stroke:none;" />
  <polyline points="34.012,362.7539 30.012,362.7539" style="fill:none;stroke:black;stroke-width:1" />
  <polyline points="34.012,348.3289 30.012,348.3289" style="fill:none;stroke:black;stroke-width:1" />
  <polyline points="34.012,333.904 30.012,333.904" style="fill:none;stroke:black;stroke-width:1" />
  <polyline points="34.012,319.479 30.012,319.479" style="fill:none;stroke:black;stroke-width:1" />
  <polyline points="34.012,290.6291 30.012,290.6291" style="fill:none;stroke:black;stroke-width:1" />
  <polyline points="34.012,276.2041 30.012,276.2041" style="fill:none;stroke:black;stroke-width:1" />
  <polyline points="34.012,261.7792 30.012,261.7792" style="fill:none;stroke:black;stroke-width:1" />
  <polyline points="34.012,247.3542 30.012,247.3542" style="fill:none;stroke:black;stroke-width:1" />
  <polyline points="34.012,218.5043 30.012,218.5043" style="fill:none;stroke:black;stroke-width:1" />
  <polyline points="34.012,204.0794 30.012,204.0794" style="fill:none;stroke:black;stroke-width:1" />
  <polyline points="34.012,189.6544 30.012,189.6544" style="fill:none;stroke:black;stroke-width:1" />
  <polyline points="34.012,175.2295 30.012,175.2295" style="fill:none;stroke:black;stroke-width:1" />
  <polyline points="34.012,146.3796 30.012,146.3796" style="fill:none;stroke:black;stroke-width:1" />
  <polyline points="34.012,131.9546 30.012,131.9546" style="fill:none;stroke:black;stroke-width:1" />
  <polyline points="34.012,117.5297 30.012,117.5297" style="fill:none;stroke:black;stroke-width:1" />
  <polyline points="34.012,103.1047 30.012,103.1047" style="fill:none;stroke:black;stroke-width:1" />
  <polyline points="34.012,74.2548 30.012,74.2548" style="fill:none;stroke:black;stroke-width:1" />
  <polyline points="34.012,59.8299 30.012,59.8299" style="fill:none;stroke:black;stroke-width:1" />
  <polyline points="34.012,45.4049 30.012,45.4049" style="fill:none;stroke:black;stroke-width:1" />
  <polyline points="34.012,30.98 30.012,30.98" style="fill:none;stroke:black;stroke-width:1" />
  <polyline points="59.4641,370.947 59.4641,374.947" style="fill:none;stroke:black;stroke-width:1" />
  <polyline points="178.8931,370.947 178.8931,374.947" style="fill:none;stroke:black;stroke-width:1" />
  <polyline points="298.3221,370.947 298.3221,374.947" style="fill:none;stroke:black;stroke-width:1" />
  <polyline points="413.8354,370.947 413.8354,374.947" style="fill:none;stroke:black;stroke-width:1" />
  <polyline points="533.2644,370.947 533.2644,374.947" style="fill:none;stroke:black;stroke-width:1" />
  <text dominant-baseline="middle" text-anchor="end" transform="translate(23.012,305.0541)" font-family="Segoe UI" font-size="12" font-weight="400" fill="black">50</text>
  <text dominant-baseline="middle" text-anchor="end" transform="translate(23.012,232.9293)" font-family="Segoe UI" font-size="12" font-weight="400" fill="black">100</text>
  <text dominant-baseline="middle" text-anchor="end" transform="translate(23.012,160.8045)" font-family="Segoe UI" font-size="12" font-weight="400" fill="black">150</text>
  <text dominant-baseline="middle" text-anchor="end" transform="translate(23.012,88.6798)" font-family="Segoe UI" font-size="12" font-weight="400" fill="black">200</text>
  <polyline points="34.012,305.0541 27.012,305.0541" style="fill:none;stroke:black;stroke-width:1" />
  <polyline points="34.012,232.9293 27.012,232.9293" style="fill:none;stroke:black;stroke-width:1" />
  <polyline points="34.012,160.8045 27.012,160.8045" style="fill:none;stroke:black;stroke-width:1" />
  <polyline points="34.012,88.6798 27.012,88.6798" style="fill:none;stroke:black;stroke-width:1" />
  <text dominant-baseline="hanging" text-anchor="middle" transform="translate(118.1997,381.947)" font-family="Segoe UI" font-size="12" font-weight="400" fill="black">01. October</text>
  <text dominant-baseline="hanging" text-anchor="middle" transform="translate(237.6287,381.947)" font-family="Segoe UI" font-size="12" font-weight="400" fill="black">01. December</text>
  <text dominant-baseline="hanging" text-anchor="middle" transform="translate(359.0155,381.947)" font-family="Segoe UI" font-size="12" font-weight="400" fill="black">01. February</text>
  <text dominant-baseline="hanging" text-anchor="middle" transform="translate(474.5288,381.947)" font-family="Segoe UI" font-size="12" font-weight="400" fill="black">01. April</text>
  <polyline points="118.1997,370.947 118.1997,377.947" style="fill:none;stroke:black;stroke-width:1" />
  <polyline points="237.6287,370.947 237.6287,377.947" style="fill:none;stroke:black;stroke-width:1" />
  <polyline points="359.0155,370.947 359.0155,377.947" style="fill:none;stroke:black;stroke-width:1" />
  <polyline points="474.5288,370.947 474.5288,377.947" style="fill:none;stroke:black;stroke-width:1" />
  <polyline points="34.012,356.8142 35.9699,356.3899 37.9277,362.471 43.8013,358.5112 45.7591,362.471 47.717,363.0367 49.6748,363.6024 51.6327,362.471 57.5062,366.9965 59.4641,365.2994 61.4219,365.8651 63.3798,365.2994 65.3376,365.2994 71.2112,365.8651 73.1691,367.5622 75.1269,365.8651 77.0848,365.2994 79.0426,363.0367 84.9162,356.8142 86.874,352.2887 88.8319,347.1975 90.7897,346.6319 92.7476,342.1064 98.6211,347.7632 100.579,348.3289 102.5368,352.2887 104.4947,350.5916 106.4525,351.723 112.3261,335.8838 114.284,336.4495 116.2418,335.3182 118.1997,325.1358 120.1575,319.479 126.0311,312.6908 127.9889,313.8222 129.9468,305.9026 131.9046,304.7528 133.8625,307.6498 139.736,292.5852 141.6939,290.847 143.6517,285.6323 145.6096,275.2029 147.5675,253.1854 153.441,230.5885 155.3989,225.9532 157.3567,221.8974 159.3146,202.7769 161.2724,202.1975 167.146,137.3037 169.1038,132.0891 171.0617,129.192 173.0195,131.5096 174.9774,98.4834 180.8509,118.1833 182.8088,107.7539 184.7667,108.9127 186.7245,101.3804 188.6824,119.3421 194.5559,90.9511 196.5138,84.5776 198.4716,58.5042 202.3873,32.4308 208.2609,61.4012 210.2187,75.8864 212.1766,84.5776 214.1344,65.3847 216.0923,120.5009 221.9659,167.433 223.9237,150.6301 225.8816,153.5272 227.8394,208.571 229.7973,185.974 235.6708,188.8711 237.6287,213.7856 239.5865,225.9532 241.5444,198.1416 243.5022,202.1975 249.3758,179.0211 251.3336,181.3388 253.2915,179.6005 255.2493,151.2095 257.2072,173.2271 263.0808,154.1066 265.0386,144.2566 266.9965,132.6685 268.9543,145.4155 270.9122,134.4067 276.7857,116.445 278.7436,117.0244 280.7014,140.7802 290.4907,157.0036 292.4485,154.686 294.4064,134.4067 296.3643,136.3622 304.1957,211.468 306.1535,235.2238 308.1114,250.8678 310.0692,236.962 312.0271,215.9584 319.8585,192.9269 321.8163,195.2446 323.7742,217.2621 325.732,247.3913 331.6056,255.9086 333.5635,275.7823 335.5213,267.0912 337.4792,285.0529 339.437,285.6323 345.3106,272.3059 349.2263,279.8382 351.1841,259.5589 353.142,247.9707 359.0155,264.1942 360.9734,278.3173 362.9312,272.3059 364.8891,279.8382 366.8469,290.847 372.7205,293.744 374.6784,290.847 376.6362,275.2029 378.5941,276.3617 380.5519,269.4088 386.4255,283.8941 388.3833,285.6323 390.3412,306.491 392.299,313.4439 394.2569,329.6673 400.1304,329.6673 402.0883,330.8261 404.0461,321.5556 406.004,322.135 407.9619,317.4997 413.8354,329.0879 415.7933,327.9291 417.7511,323.8732 419.709,300.6969 421.6668,294.9028 427.5404,265.353 429.4982,265.353 431.4561,263.6148 433.4139,278.6794 435.3718,272.3059 441.2453,261.8765 443.2032,262.4559 445.1611,254.9236 447.1189,226.5326 449.0768,208.571 454.9503,200.4592 456.9082,199.8798 458.866,204.5151 460.8239,192.9269 462.7817,205.6739 468.6553,224.215 470.6131,220.7385 472.571,227.6914 474.5288,243.9149 476.4867,218.4209 484.3181,205.0945 486.276,220.1591 488.2338,201.6181 490.1917,235.2238 496.0652,225.8953 498.0231,216.1033 499.9809,168.0124 501.9388,188.8711 503.8966,184.8152 509.7702,176.1241 511.728,157.0036 513.6859,162.2183 515.6437,148.3125 517.6016,123.9773 523.4752,104.8569 525.433,121.0803 527.3909,135.5655 529.3487,129.7714 531.3066,132.6685 537.1801,158.7418 539.138,146.5743 541.0958,140.2008 543.0537,173.8065 545.0115,194.0858 550.8851,203.9357 552.8429,213.2062 554.8008,225.9532 558.7165,193.5063 564.5901,196.4034 566.5479,181.9182 568.5058,176.1241 570.4636,180.4697 572.4215,216.1033 580.2529,264.1942 582.2107,289.1087 584.1686,298.9587 586.1264,302.4351 592,310.2571" style="fill:none;stroke:rgb(31,119,180);stroke-width:2;stroke-linejoin:bevel" />
  <text dominant-baseline="hanging" text-anchor="middle" transform="translate(313.006,8)" font-family="Segoe UI" font-size="18" font-weight="700" fill="black">7-Tage-Inzidenz Stadt Aachen 31.05.2021</text>
  <polygon points="34.012,29.0795 592,29.0795 592,370.947 34.012,370.947" style="fill:none;stroke:black;stroke-width:1" />
  <polygon points="42.012,37.0795 247.014,37.0795 247.014,63.1325 42.012,63.1325" style="fill:none;stroke:none;" />
  <text dominant-baseline="hanging" text-anchor="start" transform="translate(70.012,45.0795)" font-family="Segoe UI" font-size="12" font-weight="400" fill="black">7-Tage-Inzidenz Stadt Aachen 31.05.2021</text>
  <polyline points="50.012,50.106 66.012,50.106" style="fill:none;stroke:rgb(31,119,180);stroke-width:2" />
</svg>