<?xml version="1.0" encoding="utf-8" standalone="no"?>
<!DOCTYPE svg PUBLIC "-//W3C//DTD SVG 1.1//EN" "http://www.w3.org/Graphics/SVG/1.1/DTD/svg11.dtd">
<svg width="600" height="400" version="1.1" xmlns:xlink="http://www.w3.org/1999/xlink" xmlns="http://www.w3.org/2000/svg">
  <rect x="0" y="0" width="600" height="400" style="fill:rgb(255,255,255);stroke:none;" />
  <polyline points="34.012,353.4851 30.012,353.4851" style="fill:none;stroke:black;stroke-width:1" />
  <polyline points="34.012,339.4649 30.012,339.4649" style="fill:none;stroke:black;stroke-width:1" />
  <polyline points="34.012,325.4447 30.012,325.4447" style="fill:none;stroke:black;stroke-width:1" />
  <polyline points="34.012,311.4245 30.012,311.4245" style="fill:none;stroke:black;stroke-width:1" />
  <polyline points="34.012,283.3841 30.012,283.3841" style="fill:none;stroke:black;stroke-width:1" />
  <polyline points="34.012,269.3639 30.012,269.3639" style="fill:none;stroke:black;stroke-width:1" />
  <polyline points="34.012,255.3438 30.012,255.3438" style="fill:none;stroke:black;stroke-width:1" />
  <polyline points="34.012,241.3236 30.012,241.3236" style="fill:none;stroke:black;stroke-width:1" />
  <polyline points="34.012,213.2832 30.012,213.2832" style="fill:none;stroke:black;stroke-width:1" />
  <polyline points="34.012,199.263 30.012,199.263" style="fill:none;stroke:black;stroke-width:1" />
  <polyline points="34.012,185.2428 30.012,185.2428" style="fill:none;stroke:black;stroke-width:1" />
  <polyline points="34.012,171.2226 30.012,171.2226" style="fill:none;stroke:black;stroke-width:1" />
  <polyline points="34.012,143.1822 30.012,143.1822" style="fill:none;stroke:black;stroke-width:1" />
  <polyline points="34.012,129.162 30.012,129.162" style="fill:none;stroke:black;stroke-width:1" />
  <polyline points="34.012,115.1418 30.012,115.1418" style="fill:none;stroke:black;stroke-width:1" />
  <polyline points="34.012,101.1216 30.012,101.1216" style="fill:none;stroke:black;stroke-width:1" />
  <polyline points="34.012,73.0813 30.012,73.0813" style="fill:none;stroke:black;stroke-width:1" />
  <polyline points="34.012,59.0611 30.012,59.0611" style="fill:none;stroke:black;stroke-width:1" />
  <polyline points="34.012,45.0409 30.012,45.0409" style="fill:none;stroke:black;stroke-width:1" />
  <polyline points="34.012,31.0207 30.012,31.0207" style="fill:none;stroke:black;stroke-width:1" />
  <text dominant-baseline="middle" text-anchor="end" transform="translate(23.012,367.5053)" font-family="Segoe UI" font-size="12" font-weight="400" fill="black">0</text>
  <text dominant-baseline="middle" text-anchor="end" transform="translate(23.012,297.4043)" font-family="Segoe UI" font-size="12" font-weight="400" fill="black">50</text>
  <text dominant-baseline="middle" text-anchor="end" transform="translate(23.012,227.3034)" font-family="Segoe UI" font-size="12" font-weight="400" fill="black">100</text>
  <text dominant-baseline="middle" text-anchor="end" transform="translate(23.012,157.2024)" font-family="Segoe UI" font-size="12" font-weight="400" fill="black">150</text>
  <text dominant-baseline="middle" text-anchor="end" transform="translate(23.012,87.1015)" font-family="Segoe UI" font-size="12" font-weight="400" fill="black">200</text>
  <polyline points="34.012,367.5053 27.012,367.5053" style="fill:none;stroke:black;stroke-width:1" />
  <polyline points="34.012,297.4043 27.012,297.4043" style="fill:none;stroke:black;stroke-width:1" />
  <polyline points="34.012,227.3034 27.012,227.3034" style="fill:none;stroke:black;stroke-width:1" />
  <polyline points="34.012,157.2024 27.012,157.2024" style="fill:none;stroke:black;stroke-width:1" />
  <polyline points="34.012,87.1015 27.012,87.1015" style="fill:none;stroke:black;stroke-width:1" />
  <text dominant-baseline="hanging" text-anchor="middle" transform="translate(210.0882,381.947)" font-family="Segoe UI" font-size="12" font-weight="400" fill="black">01. January</text>
  <polyline points="210.0882,370.947 210.0882,377.947" style="fill:none;stroke:black;stroke-width:1" />
  <polyline points="34.012,367.5622 36.4919,367.5621 40.2119,367.5621 41.4518,367.562 42.6918,347.7121 43.9318,347.2997 45.1718,353.2102 48.8917,349.3615 50.1317,353.2102 51.3716,353.76 52.6116,354.3098 53.8516,353.2102 57.5715,357.6087 58.8115,355.9593 60.0514,356.5091 61.2914,355.9593 62.5314,355.9593 66.2513,356.5091 67.4913,358.1585 68.7313,356.5091 69.9712,355.9593 71.2112,353.76 74.9311,347.7121 76.1711,343.3136 77.4111,338.3653 78.651,337.8155 79.891,333.417 83.6109,338.9151 84.8509,339.4649 86.0909,343.3136 87.3309,341.6642 88.5708,342.7638 92.2907,327.3691 93.5307,327.9189 94.7707,326.8192 96.0107,316.9226 97.2506,311.4245 100.9706,304.8268 102.2105,305.9264 103.4505,298.229 104.6905,297.1115 105.9305,299.9272 109.6504,285.2853 110.8903,283.5959 112.1303,278.5275 113.3703,268.3908 114.6103,246.9911 118.3302,225.0282 119.5702,220.523 120.8101,216.581 122.0501,197.997 123.2901,197.4339 127.01,134.361 128.25,129.2927 129.4899,126.4769 130.7299,128.7295 131.9699,96.63 135.6898,115.7771 136.9298,105.6404 138.1698,106.7667 139.4097,99.4457 140.6497,116.9034 144.3696,89.309 145.6096,83.1143 146.8496,57.7726 149.3295,32.4308 153.0494,60.5883 154.2894,74.6671 155.5294,83.1143 156.7694,64.46 158.0093,118.0297 161.7293,163.6449 162.9692,147.3135 164.2092,150.1292 165.4492,203.6285 166.6891,181.6657 170.4091,184.4814 171.649,208.6969 172.889,220.523 174.129,193.4918 175.369,197.4339 179.0889,174.9079 180.3289,177.1605 181.5688,175.471 182.8088,147.8766 184.0488,169.2764 187.7687,150.6924 189.0087,141.1188 190.2486,129.8558 191.4886,142.2451 192.7286,131.5453 196.4485,114.0876 197.6885,114.6508 198.9285,137.7399 205.1283,153.5081 206.3683,151.2555 207.6083,131.5453 208.8482,133.4459 213.8081,206.4443 215.0481,229.5334 216.2881,244.7385 217.5281,231.2229 218.768,210.8087 223.7279,188.4235 224.9679,190.6761 226.2079,212.0758 227.4478,241.3596 231.1678,249.6379 232.4077,268.954 233.6477,260.5067 234.8877,277.9644 236.1277,278.5275 239.8476,265.5751 242.3275,272.896 243.5675,253.1858 244.8075,241.9228 248.5274,257.691 249.7674,271.4178 251.0073,265.5751 252.2473,272.896 253.4873,283.5959 257.2072,286.4116 258.4472,283.5959 259.6871,268.3908 260.9271,269.5171 262.1671,262.7593 265.887,276.8381 267.127,278.5275 268.367,298.8009 269.6069,305.5587 270.8469,321.327 274.5668,321.327 275.8068,322.4533 277.0468,313.4429 278.2867,314.006 279.5267,309.5008 283.2466,320.7638 284.4866,319.6375 285.7266,315.6955 286.9666,293.1694 288.2065,287.5379 291.9265,258.8173 293.1664,258.8173 294.4064,257.1278 295.6464,271.7697 296.8863,265.5751 300.6063,255.4384 301.8462,256.0015 303.0862,248.6806 304.3262,221.0862 305.5662,203.6285 309.2861,195.7444 310.5261,195.1813 311.766,199.6865 313.006,188.4235 314.246,200.8128 317.9659,218.8336 319.2059,215.4547 320.4458,222.2125 321.6858,237.9807 322.9258,213.2021 327.8857,200.2496 329.1257,214.8915 330.3656,196.8707 331.6056,229.5334 335.3255,220.4667 336.5655,210.9495 337.8055,164.208 339.0454,184.4814 340.2854,180.5394 344.0053,172.0921 345.2453,153.5081 346.4853,158.5765 347.7253,145.0609 348.9652,121.4086 352.6851,102.8246 353.9251,118.5928 355.1651,132.6716 356.4051,127.0401 357.645,129.8558 361.365,155.1976 362.6049,143.3714 363.8449,137.1768 365.0849,169.8395 366.3249,189.5498 370.0448,199.1233 371.2847,208.1337 372.5247,220.523 375.0047,188.9866 378.7246,191.8024 379.9646,177.7236 381.2045,172.0921 382.4445,176.3157 383.6845,210.9495 388.6444,257.691 389.8843,281.9064 391.1243,291.48 392.3643,294.8589 396.0842,302.4614 397.3242,307.2482 398.5642,306.1219 401.0441,326.3953 404.764,341.6004 406.004,346.6687 407.244,351.1739 408.4839,350.2588 409.7239,355.6791 413.4438,358.4949 414.6838,357.3686 415.9238,357.3686 417.1638,356.2423 418.4037,353.4265 422.1237,353.4265 423.3636,352.8634 424.6036,356.2423 425.8436,359.6212 427.0835,361.3106 430.8035,360.7475 432.0434,362.4369 433.2834,359.058 434.5234,355.6791 435.7634,356.8054 439.4833,356.8054 441.9632,357.3686 444.4432,359.6212 448.1631,360.7475 450.643,353.9897 453.123,343.2898 459.3229,332.0268 461.8028,317.9481 468.0027,316.2586 470.4826,329.7742 476.6825,329.2111 479.1624,323.0164 485.3623,294.8589 487.8422,262.7593 494.0421,253.7489 496.5221,268.3908 502.7219,201.3759 505.2019,191.8024 511.4017,233.4755 513.8817,222.2125 522.5615,240.2333 531.2413,272.896 537.4412,284.7222 539.9211,290.9168 546.121,295.422 548.6009,306.6851 554.8008,321.8901 557.2807,321.8901 563.4806,321.327 565.9606,320.7638 572.1604,320.7638 574.6404,302.743 580.8402,266.1382 583.3202,229.5334 589.5201,220.523 592,201.3759" style="fill:none;stroke:rgb(31,119,180);stroke-width:2;stroke-linejoin:bevel" />
  <text dominant-baseline="hanging" text-anchor="middle" transform="translate(313.006,8)" font-family="Segoe UI" font-size="18" font-weight="700" fill="black">7-Tage-Inzidenz Stadt Aachen 05.11.2021</text>
  <polygon points="34.012,29.0795 592,29.0795 592,370.947 34.012,370.947" style="fill:none;stroke:black;stroke-width:1" />
  <polygon points="42.012,37.0795 247.014,37.0795 247.014,63.1325 42.012,63.1325" style="fill:none;stroke:none;" />
  <text dominant-baseline="hanging" text-anchor="start" transform="translate(70.012,45.0795)" font-family="Segoe UI" font-size="12" font-weight="400" fill="black">7-Tage-Inzidenz Stadt Aachen 05.11.2021</text>
  <polyline points="50.012,50.106 66.012,50.106" style="fill:none;stroke:rgb(31,119,180);stroke-width:2" />
</svg>