<?xml version="1.0" encoding="utf-8" standalone="no"?>
<!DOCTYPE svg PUBLIC "-//W3C//DTD SVG 1.1//EN" "http://www.w3.org/Graphics/SVG/1.1/DTD/svg11.dtd">
<svg width="600" height="400" version="1.1" xmlns:xlink="http://www.w3.org/1999/xlink" xmlns="http://www.w3.org/2000/svg">
  <rect x="0" y="0" width="600" height="400" style="fill:rgb(255,255,255);stroke:none;" />
  <polyline points="34.012,358.4713 30.012,358.4713" style="fill:none;stroke:black;stroke-width:1" />
  <polyline points="34.012,344.2334 30.012,344.2334" style="fill:none;stroke:black;stroke-width:1" />
  <polyline points="34.012,329.9954 30.012,329.9954" style="fill:none;stroke:black;stroke-width:1" />
  <polyline points="34.012,315.7575 30.012,315.7575" style="fill:none;stroke:black;stroke-width:1" />
  <polyline points="34.012,287.2816 30.012,287.2816" style="fill:none;stroke:black;stroke-width:1" />
  <polyline points="34.012,273.0437 30.012,273.0437" style="fill:none;stroke:black;stroke-width:1" />
  <polyline points="34.012,258.8058 30.012,258.8058" style="fill:none;stroke:black;stroke-width:1" />
  <polyline points="34.012,244.5678 30.012,244.5678" style="fill:none;stroke:black;stroke-width:1" />
  <polyline points="34.012,216.0919 30.012,216.0919" style="fill:none;stroke:black;stroke-width:1" />
  <polyline points="34.012,201.854 30.012,201.854" style="fill:none;stroke:black;stroke-width:1" />
  <polyline points="34.012,187.6161 30.012,187.6161" style="fill:none;stroke:black;stroke-width:1" />
  <polyline points="34.012,173.3781 30.012,173.3781" style="fill:none;stroke:black;stroke-width:1" />
  <polyline points="34.012,144.9023 30.012,144.9023" style="fill:none;stroke:black;stroke-width:1" />
  <polyline points="34.012,130.6643 30.012,130.6643" style="fill:none;stroke:black;stroke-width:1" />
  <polyline points="34.012,116.4264 30.012,116.4264" style="fill:none;stroke:black;stroke-width:1" />
  <polyline points="34.012,102.1885 30.012,102.1885" style="fill:none;stroke:black;stroke-width:1" />
  <polyline points="34.012,73.7126 30.012,73.7126" style="fill:none;stroke:black;stroke-width:1" />
  <polyline points="34.012,59.4747 30.012,59.4747" style="fill:none;stroke:black;stroke-width:1" />
  <polyline points="34.012,45.2367 30.012,45.2367" style="fill:none;stroke:black;stroke-width:1" />
  <polyline points="34.012,30.9988 30.012,30.9988" style="fill:none;stroke:black;stroke-width:1" />
  <polyline points="56.0602,370.947 56.0602,374.947" style="fill:none;stroke:black;stroke-width:1" />
  <polyline points="159.5169,370.947 159.5169,374.947" style="fill:none;stroke:black;stroke-width:1" />
  <polyline points="262.9736,370.947 262.9736,374.947" style="fill:none;stroke:black;stroke-width:1" />
  <polyline points="363.0384,370.947 363.0384,374.947" style="fill:none;stroke:black;stroke-width:1" />
  <polyline points="466.4951,370.947 466.4951,374.947" style="fill:none;stroke:black;stroke-width:1" />
  <polyline points="569.9518,370.947 569.9518,374.947" style="fill:none;stroke:black;stroke-width:1" />
  <text dominant-baseline="middle" text-anchor="end" transform="translate(23.012,301.5196)" font-family="Segoe UI" font-size="12" font-weight="400" fill="black">50</text>
  <text dominant-baseline="middle" text-anchor="end" transform="translate(23.012,230.3299)" font-family="Segoe UI" font-size="12" font-weight="400" fill="black">100</text>
  <text dominant-baseline="middle" text-anchor="end" transform="translate(23.012,159.1402)" font-family="Segoe UI" font-size="12" font-weight="400" fill="black">150</text>
  <text dominant-baseline="middle" text-anchor="end" transform="translate(23.012,87.9505)" font-family="Segoe UI" font-size="12" font-weight="400" fill="black">200</text>
  <polyline points="34.012,301.5196 27.012,301.5196" style="fill:none;stroke:black;stroke-width:1" />
  <polyline points="34.012,230.3299 27.012,230.3299" style="fill:none;stroke:black;stroke-width:1" />
  <polyline points="34.012,159.1402 27.012,159.1402" style="fill:none;stroke:black;stroke-width:1" />
  <polyline points="34.012,87.9505 27.012,87.9505" style="fill:none;stroke:black;stroke-width:1" />
  <text dominant-baseline="hanging" text-anchor="middle" transform="translate(106.9405,381.947)" font-family="Segoe UI" font-size="12" font-weight="400" fill="black">01. October</text>
  <text dominant-baseline="hanging" text-anchor="middle" transform="translate(210.3973,381.947)" font-family="Segoe UI" font-size="12" font-weight="400" fill="black">01. December</text>
  <text dominant-baseline="hanging" text-anchor="middle" transform="translate(315.55,381.947)" font-family="Segoe UI" font-size="12" font-weight="400" fill="black">01. February</text>
  <text dominant-baseline="hanging" text-anchor="middle" transform="translate(415.6147,381.947)" font-family="Segoe UI" font-size="12" font-weight="400" fill="black">01. April</text>
  <text dominant-baseline="hanging" text-anchor="middle" transform="translate(519.0715,381.947)" font-family="Segoe UI" font-size="12" font-weight="400" fill="black">01. June</text>
  <polyline points="106.9405,370.947 106.9405,377.947" style="fill:none;stroke:black;stroke-width:1" />
  <polyline points="210.3973,370.947 210.3973,377.947" style="fill:none;stroke:black;stroke-width:1" />
  <polyline points="315.55,370.947 315.55,377.947" style="fill:none;stroke:black;stroke-width:1" />
  <polyline points="415.6147,370.947 415.6147,377.947" style="fill:none;stroke:black;stroke-width:1" />
  <polyline points="519.0715,370.947 519.0715,377.947" style="fill:none;stroke:black;stroke-width:1" />
  <polyline points="34.012,352.6086 35.708,352.1899 37.404,358.1921 42.4921,354.2837 44.1881,358.1921 45.8841,358.7505 47.5801,359.3088 49.2761,358.1921 54.3641,362.6589 56.0602,360.9839 57.7562,361.5422 59.4522,360.9839 61.1482,360.9839 66.2362,361.5422 67.9322,363.2173 69.6283,361.5422 71.3243,360.9839 73.0203,358.7505 78.1083,352.6086 79.8043,348.1418 81.5003,343.1167 83.1964,342.5583 84.8924,338.0915 89.9804,343.675 91.6764,344.2334 93.3724,348.1418 95.0684,346.4668 96.7644,347.5835 101.8525,331.9497 103.5485,332.508 105.2445,331.3913 106.9405,321.341 108.6365,315.7575 113.7246,309.0573 115.4206,310.174 117.1166,302.3571 118.8126,301.2222 120.5086,304.0817 125.5967,289.2124 127.2927,287.4967 128.9887,282.3496 130.6847,272.0555 132.3807,250.3234 137.4687,228.0194 139.1648,223.4443 140.8608,219.441 142.5568,200.5684 144.2528,199.9965 149.3408,135.9441 151.0368,130.797 152.7329,127.9375 154.4289,130.2251 156.1249,97.627 161.2129,117.0715 162.9089,106.7774 164.6049,107.9212 166.3009,100.4865 167.997,118.2153 173.085,90.1924 174.781,83.9015 176.477,58.1662 179.869,32.4308 184.9571,61.0256 186.6531,75.3231 188.3491,83.9015 190.0451,64.9574 191.7411,119.3591 196.8292,165.6827 198.5252,149.0977 200.2212,151.9572 201.9172,206.2874 203.6132,183.9834 208.7013,186.8429 210.3973,211.4344 212.0933,223.4443 213.7893,195.9932 215.4853,199.9965 220.5733,177.1206 222.2693,179.4082 223.9654,177.6925 225.6614,149.6696 227.3574,171.4017 232.4454,152.5291 234.1414,142.8068 235.8374,131.3689 237.5335,143.9506 239.2295,133.0846 244.3175,115.3558 246.0135,115.9277 247.7095,139.3755 256.1896,155.3886 257.8856,153.101 259.5816,133.0846 261.2776,135.0148 268.0617,209.1468 269.7577,232.5946 271.4537,248.0358 273.1497,234.3103 274.8457,213.579 281.6298,190.8461 283.3258,193.1337 285.0218,214.8658 286.7178,244.6044 291.8058,253.0113 293.5019,272.6274 295.1979,264.0489 296.8939,281.7777 298.5899,282.3496 303.6779,269.196 307.07,276.6306 308.766,256.6142 310.462,245.1763 315.55,261.1894 317.246,275.1294 318.942,269.196 320.6381,276.6306 322.3341,287.4967 327.4221,290.3561 329.1181,287.4967 330.8141,272.0555 332.5101,273.1992 334.2062,266.3365 339.2942,280.6339 340.9902,282.3496 342.6862,302.9379 344.3822,309.8006 346.0782,325.8137 351.1663,325.8137 352.8623,326.9575 354.5583,317.8072 356.2543,318.3791 357.9503,313.8039 363.0384,325.2418 364.7344,324.098 366.4304,320.0948 368.1264,297.2189 369.8224,291.4999 374.9104,262.3332 376.6065,262.3332 378.3025,260.6175 379.9985,275.4868 381.6945,269.196 386.7825,258.9018 388.4785,259.4737 390.1746,252.0391 391.8706,224.0161 393.5666,206.2874 398.6546,198.2808 400.3506,197.7089 402.0466,202.2841 403.7427,190.8461 405.4387,203.4279 410.5267,221.7286 412.2227,218.2972 413.9187,225.1599 415.6147,241.173 417.3107,216.0096 424.0948,202.856 425.7908,217.7253 427.4868,199.4246 429.1828,232.5946 434.2709,223.3871 435.9669,213.722 437.6629,166.2546 439.3589,186.8429 441.0549,182.8396 446.143,174.2612 447.839,155.3886 449.535,160.5356 451.231,146.8101 452.927,122.7905 458.015,103.9179 459.7111,119.931 461.4071,134.2284 463.1031,128.5094 464.7991,131.3689 469.8871,157.1043 471.5831,145.0944 473.2791,138.8036 474.9752,171.9736 476.6712,191.9899 481.7592,201.7122 483.4552,210.8625 485.1512,223.4443 488.5433,191.418 493.6313,194.2775 495.3273,179.9801 497.0233,174.2612 498.7193,178.5504 500.4153,213.722 507.1994,261.1894 508.8954,285.781 510.5914,295.5032 512.2874,298.9346 517.3755,306.6552 519.0715,311.5163 520.7675,310.3725 524.1595,330.9608 529.2476,346.402 530.9436,351.5491 532.6396,356.1242 534.3356,355.1949 536.0316,360.6994 541.1196,363.5589 542.8156,362.4151 544.5117,362.4151 546.2077,361.2713 547.9037,358.4118 552.9917,358.4118 554.6877,357.8399 556.3837,361.2713 558.0798,364.7027 559.7758,366.4184 564.8638,365.8465 566.5598,367.5622 568.2558,364.1308 569.9518,360.6994 571.6479,361.8432 576.7359,361.8432 580.1279,362.4151 583.5199,364.7027 588.608,365.8465 592,358.9837" style="fill:none;stroke:rgb(31,119,180);stroke-width:2;stroke-linejoin:bevel" />
  <text dominant-baseline="hanging" text-anchor="middle" transform="translate(313.006,8)" font-family="Segoe UI" font-size="18" font-weight="700" fill="black">7-Tage-Inzidenz Stadt Aachen 14.07.2021</text>
  <polygon points="34.012,29.0795 592,29.0795 592,370.947 34.012,370.947" style="fill:none;stroke:black;stroke-width:1" />
  <polygon points="42.012,37.0795 247.014,37.0795 247.014,63.1325 42.012,63.1325" style="fill:none;stroke:none;" />
  <text dominant-baseline="hanging" text-anchor="start" transform="translate(70.012,45.0795)" font-family="Segoe UI" font-size="12" font-weight="400" fill="black">7-Tage-Inzidenz Stadt Aachen 14.07.2021</text>
  <polyline points="50.012,50.106 66.012,50.106" style="fill:none;stroke:rgb(31,119,180);stroke-width:2" />
</svg>