<?xml version="1.0" encoding="utf-8" standalone="no"?>
<!DOCTYPE svg PUBLIC "-//W3C//DTD SVG 1.1//EN" "http://www.w3.org/Graphics/SVG/1.1/DTD/svg11.dtd">
<svg width="600" height="400" version="1.1" xmlns:xlink="http://www.w3.org/1999/xlink" xmlns="http://www.w3.org/2000/svg">
  <rect x="0" y="0" width="600" height="400" style="fill:rgb(255,255,255);stroke:none;" />
  <polyline points="34.012,353.4881 30.012,353.4881" style="fill:none;stroke:black;stroke-width:1" />
  <polyline points="34.012,339.4678 30.012,339.4678" style="fill:none;stroke:black;stroke-width:1" />
  <polyline points="34.012,325.4475 30.012,325.4475" style="fill:none;stroke:black;stroke-width:1" />
  <polyline points="34.012,311.4272 30.012,311.4272" style="fill:none;stroke:black;stroke-width:1" />
  <polyline points="34.012,283.3865 30.012,283.3865" style="fill:none;stroke:black;stroke-width:1" />
  <polyline points="34.012,269.3662 30.012,269.3662" style="fill:none;stroke:black;stroke-width:1" />
  <polyline points="34.012,255.3459 30.012,255.3459" style="fill:none;stroke:black;stroke-width:1" />
  <polyline points="34.012,241.3255 30.012,241.3255" style="fill:none;stroke:black;stroke-width:1" />
  <polyline points="34.012,213.2849 30.012,213.2849" style="fill:none;stroke:black;stroke-width:1" />
  <polyline points="34.012,199.2646 30.012,199.2646" style="fill:none;stroke:black;stroke-width:1" />
  <polyline points="34.012,185.2442 30.012,185.2442" style="fill:none;stroke:black;stroke-width:1" />
  <polyline points="34.012,171.2239 30.012,171.2239" style="fill:none;stroke:black;stroke-width:1" />
  <polyline points="34.012,143.1833 30.012,143.1833" style="fill:none;stroke:black;stroke-width:1" />
  <polyline points="34.012,129.1629 30.012,129.1629" style="fill:none;stroke:black;stroke-width:1" />
  <polyline points="34.012,115.1426 30.012,115.1426" style="fill:none;stroke:black;stroke-width:1" />
  <polyline points="34.012,101.1223 30.012,101.1223" style="fill:none;stroke:black;stroke-width:1" />
  <polyline points="34.012,73.0816 30.012,73.0816" style="fill:none;stroke:black;stroke-width:1" />
  <polyline points="34.012,59.0613 30.012,59.0613" style="fill:none;stroke:black;stroke-width:1" />
  <polyline points="34.012,45.041 30.012,45.041" style="fill:none;stroke:black;stroke-width:1" />
  <polyline points="34.012,31.0207 30.012,31.0207" style="fill:none;stroke:black;stroke-width:1" />
  <polyline points="69.5526,370.947 69.5526,374.947" style="fill:none;stroke:black;stroke-width:1" />
  <polyline points="177.9516,370.947 177.9516,374.947" style="fill:none;stroke:black;stroke-width:1" />
  <polyline points="286.3505,370.947 286.3505,374.947" style="fill:none;stroke:black;stroke-width:1" />
  <polyline points="391.1954,370.947 391.1954,374.947" style="fill:none;stroke:black;stroke-width:1" />
  <polyline points="499.5943,370.947 499.5943,374.947" style="fill:none;stroke:black;stroke-width:1" />
  <text dominant-baseline="middle" text-anchor="end" transform="translate(23.012,367.5085)" font-family="Segoe UI" font-size="12" font-weight="400" fill="black">0</text>
  <text dominant-baseline="middle" text-anchor="end" transform="translate(23.012,297.4068)" font-family="Segoe UI" font-size="12" font-weight="400" fill="black">50</text>
  <text dominant-baseline="middle" text-anchor="end" transform="translate(23.012,227.3052)" font-family="Segoe UI" font-size="12" font-weight="400" fill="black">100</text>
  <text dominant-baseline="middle" text-anchor="end" transform="translate(23.012,157.2036)" font-family="Segoe UI" font-size="12" font-weight="400" fill="black">150</text>
  <text dominant-baseline="middle" text-anchor="end" transform="translate(23.012,87.102)" font-family="Segoe UI" font-size="12" font-weight="400" fill="black">200</text>
  <polyline points="34.012,367.5085 27.012,367.5085" style="fill:none;stroke:black;stroke-width:1" />
  <polyline points="34.012,297.4068 27.012,297.4068" style="fill:none;stroke:black;stroke-width:1" />
  <polyline points="34.012,227.3052 27.012,227.3052" style="fill:none;stroke:black;stroke-width:1" />
  <polyline points="34.012,157.2036 27.012,157.2036" style="fill:none;stroke:black;stroke-width:1" />
  <polyline points="34.012,87.102 27.012,87.102" style="fill:none;stroke:black;stroke-width:1" />
  <text dominant-baseline="hanging" text-anchor="middle" transform="translate(122.8636,381.947)" font-family="Segoe UI" font-size="12" font-weight="400" fill="black">01. October</text>
  <text dominant-baseline="hanging" text-anchor="middle" transform="translate(231.2625,381.947)" font-family="Segoe UI" font-size="12" font-weight="400" fill="black">01. December</text>
  <text dominant-baseline="hanging" text-anchor="middle" transform="translate(341.4385,381.947)" font-family="Segoe UI" font-size="12" font-weight="400" fill="black">01. February</text>
  <text dominant-baseline="hanging" text-anchor="middle" transform="translate(446.2834,381.947)" font-family="Segoe UI" font-size="12" font-weight="400" fill="black">01. April</text>
  <text dominant-baseline="hanging" text-anchor="middle" transform="translate(554.6823,381.947)" font-family="Segoe UI" font-size="12" font-weight="400" fill="black">01. June</text>
  <polyline points="122.8636,370.947 122.8636,377.947" style="fill:none;stroke:black;stroke-width:1" />
  <polyline points="231.2625,370.947 231.2625,377.947" style="fill:none;stroke:black;stroke-width:1" />
  <polyline points="341.4385,370.947 341.4385,377.947" style="fill:none;stroke:black;stroke-width:1" />
  <polyline points="446.2834,370.947 446.2834,377.947" style="fill:none;stroke:black;stroke-width:1" />
  <polyline points="554.6823,370.947 554.6823,377.947" style="fill:none;stroke:black;stroke-width:1" />
  <polyline points="34.012,367.5622 37.5661,367.5621 42.8972,367.5621 44.6742,367.562 46.4512,347.7151 48.2283,347.3027 50.0053,353.2132 55.3364,349.3645 57.1134,353.2132 58.8904,353.7631 60.6675,354.3129 62.4445,353.2132 67.7756,357.6118 69.5526,355.9623 71.3297,356.5121 73.1067,355.9623 74.8837,355.9623 80.2148,356.5121 81.9919,358.1616 83.7689,356.5121 85.5459,355.9623 87.323,353.7631 92.6541,347.7151 94.4311,343.3165 96.2081,338.3682 97.9851,337.8184 99.7622,333.4198 105.0933,338.918 106.8703,339.4678 108.6473,343.3165 110.4244,341.6671 112.2014,342.7667 117.5325,327.3719 119.3095,327.9217 121.0866,326.822 122.8636,316.9253 124.6406,311.4272 129.9717,304.8294 131.7488,305.929 133.5258,298.2316 135.3028,297.114 137.0798,299.9298 142.4109,285.2877 144.188,283.5983 145.965,278.5299 147.742,268.3931 149.5191,246.9931 154.8502,225.0301 156.6272,220.5248 158.4042,216.5827 160.1813,197.9986 161.9583,197.4354 167.2894,134.362 169.0664,129.2936 170.8435,126.4778 172.6205,128.7304 174.3975,96.6306 179.7286,115.7779 181.5056,105.6411 183.2827,106.7674 185.0597,99.4463 186.8367,116.9042 192.1678,89.3095 193.9449,83.1148 195.7219,57.7728 199.276,32.4308 204.6071,60.5886 206.3841,74.6675 208.1611,83.1148 209.9382,64.4603 211.7152,118.0305 217.0463,163.6461 218.8233,147.3146 220.6003,150.1304 222.3774,203.6302 224.1544,181.6671 229.4855,184.4829 231.2625,208.6986 233.0396,220.5248 234.8166,193.4934 236.5936,197.4354 241.9247,174.9092 243.7018,177.1618 245.4788,175.4724 247.2558,147.8777 249.0329,169.2777 254.3639,150.6935 256.141,141.1199 257.918,129.8568 259.695,142.2462 261.4721,131.5462 266.8032,114.0884 268.5802,114.6515 270.3572,137.7409 279.2424,153.5093 281.0194,151.2567 282.7965,131.5462 284.5735,133.4469 291.6816,206.4459 293.4586,229.5353 295.2357,244.7405 297.0127,231.2248 298.7897,210.8104 305.8979,188.4249 307.6749,190.6776 309.4519,212.0775 311.229,241.3616 316.5601,249.64 318.3371,268.9562 320.1141,260.5089 321.8912,277.9667 323.6682,278.5299 328.9993,265.5773 332.5534,272.8983 334.3304,253.1879 336.1074,241.9247 341.4385,257.6931 343.2155,271.42 344.9926,265.5773 346.7696,272.8983 348.5466,283.5983 353.8777,286.414 355.6548,283.5983 357.4318,268.3931 359.2088,269.5194 360.9859,262.7615 366.317,276.8404 368.094,278.5299 369.871,298.8035 371.6481,305.5613 373.4251,321.3297 378.7562,321.3297 380.5332,322.456 382.3102,313.4455 384.0873,314.0087 385.8643,309.5034 391.1954,320.7665 392.9724,319.6402 394.7495,315.6981 396.5265,293.1719 398.3035,287.5404 403.6346,258.8194 405.4117,258.8194 407.1887,257.1299 408.9657,271.772 410.7428,265.5773 416.0738,255.4405 417.8509,256.0036 419.6279,248.6826 421.4049,221.088 423.182,203.6302 428.5131,195.746 430.2901,195.1828 432.0671,199.6881 433.8442,188.4249 435.6212,200.8144 440.9523,218.8354 442.7293,215.4564 444.5064,222.2143 446.2834,237.9827 448.0604,213.2038 455.1685,200.2512 456.9456,214.8933 458.7226,196.8723 460.4996,229.5353 465.8307,220.4685 467.6078,210.9512 469.3848,164.2093 471.1618,184.4829 472.9389,180.5408 478.27,172.0934 480.047,153.5093 481.824,158.5777 483.6011,145.062 485.3781,121.4094 490.7092,102.8253 492.4862,118.5936 494.2632,132.6725 496.0403,127.041 497.8173,129.8568 503.1484,155.1988 504.9254,143.3725 506.7025,137.1778 508.4795,169.8408 510.2565,189.5513 515.5876,199.1249 517.3647,208.1354 519.1417,220.5248 522.6958,188.9881 528.0269,191.8039 529.8039,177.725 531.5809,172.0934 533.3579,176.3171 535.135,210.9512 542.2431,257.6931 544.0201,281.9088 545.7972,291.4824 547.5742,294.8614 552.9053,302.464 554.6823,307.2508 556.4594,306.1245 560.0134,326.3981 565.3445,341.6033 567.1216,346.6717 568.8986,351.177 570.6756,350.2618 572.4526,355.6822 577.7837,358.498 579.5608,357.3717 581.3378,357.3717 583.1148,356.2454 584.8919,353.4296 590.223,353.4296 592,352.8664" style="fill:none;stroke:rgb(31,119,180);stroke-width:2;stroke-linejoin:bevel" />
  <text dominant-baseline="hanging" text-anchor="middle" transform="translate(313.006,8)" font-family="Segoe UI" font-size="18" font-weight="700" fill="black">7-Tage-Inzidenz Stadt Aachen 22.06.2021</text>
  <polygon points="34.012,29.0795 592,29.0795 592,370.947 34.012,370.947" style="fill:none;stroke:black;stroke-width:1" />
  <polygon points="42.012,37.0795 247.014,37.0795 247.014,63.1325 42.012,63.1325" style="fill:none;stroke:none;" />
  <text dominant-baseline="hanging" text-anchor="start" transform="translate(70.012,45.0795)" font-family="Segoe UI" font-size="12" font-weight="400" fill="black">7-Tage-Inzidenz Stadt Aachen 22.06.2021</text>
  <polyline points="50.012,50.106 66.012,50.106" style="fill:none;stroke:rgb(31,119,180);stroke-width:2" />
</svg>