<?xml version="1.0" encoding="utf-8" standalone="no"?>
<!DOCTYPE svg PUBLIC "-//W3C//DTD SVG 1.1//EN" "http://www.w3.org/Graphics/SVG/1.1/DTD/svg11.dtd">
<svg width="600" height="400" version="1.1" xmlns:xlink="http://www.w3.org/1999/xlink" xmlns="http://www.w3.org/2000/svg">
  <rect x="0" y="0" width="600" height="400" style="fill:rgb(255,255,255);stroke:none;" />
  <polyline points="34.012,362.7539 30.012,362.7539" style="fill:none;stroke:black;stroke-width:1" />
  <polyline points="34.012,348.3289 30.012,348.3289" style="fill:none;stroke:black;stroke-width:1" />
  <polyline points="34.012,333.904 30.012,333.904" style="fill:none;stroke:black;stroke-width:1" />
  <polyline points="34.012,319.479 30.012,319.479" style="fill:none;stroke:black;stroke-width:1" />
  <polyline points="34.012,290.6291 30.012,290.6291" style="fill:none;stroke:black;stroke-width:1" />
  <polyline points="34.012,276.2041 30.012,276.2041" style="fill:none;stroke:black;stroke-width:1" />
  <polyline points="34.012,261.7792 30.012,261.7792" style="fill:none;stroke:black;stroke-width:1" />
  <polyline points="34.012,247.3542 30.012,247.3542" style="fill:none;stroke:black;stroke-width:1" />
  <polyline points="34.012,218.5043 30.012,218.5043" style="fill:none;stroke:black;stroke-width:1" />
  <polyline points="34.012,204.0794 30.012,204.0794" style="fill:none;stroke:black;stroke-width:1" />
  <polyline points="34.012,189.6544 30.012,189.6544" style="fill:none;stroke:black;stroke-width:1" />
  <polyline points="34.012,175.2295 30.012,175.2295" style="fill:none;stroke:black;stroke-width:1" />
  <polyline points="34.012,146.3796 30.012,146.3796" style="fill:none;stroke:black;stroke-width:1" />
  <polyline points="34.012,131.9546 30.012,131.9546" style="fill:none;stroke:black;stroke-width:1" />
  <polyline points="34.012,117.5297 30.012,117.5297" style="fill:none;stroke:black;stroke-width:1" />
  <polyline points="34.012,103.1047 30.012,103.1047" style="fill:none;stroke:black;stroke-width:1" />
  <polyline points="34.012,74.2548 30.012,74.2548" style="fill:none;stroke:black;stroke-width:1" />
  <polyline points="34.012,59.8299 30.012,59.8299" style="fill:none;stroke:black;stroke-width:1" />
  <polyline points="34.012,45.4049 30.012,45.4049" style="fill:none;stroke:black;stroke-width:1" />
  <polyline points="34.012,30.98 30.012,30.98" style="fill:none;stroke:black;stroke-width:1" />
  <text dominant-baseline="middle" text-anchor="end" transform="translate(23.012,305.0541)" font-family="Segoe UI" font-size="12" font-weight="400" fill="black">50</text>
  <text dominant-baseline="middle" text-anchor="end" transform="translate(23.012,232.9293)" font-family="Segoe UI" font-size="12" font-weight="400" fill="black">100</text>
  <text dominant-baseline="middle" text-anchor="end" transform="translate(23.012,160.8045)" font-family="Segoe UI" font-size="12" font-weight="400" fill="black">150</text>
  <text dominant-baseline="middle" text-anchor="end" transform="translate(23.012,88.6798)" font-family="Segoe UI" font-size="12" font-weight="400" fill="black">200</text>
  <polyline points="34.012,305.0541 27.012,305.0541" style="fill:none;stroke:black;stroke-width:1" />
  <polyline points="34.012,232.9293 27.012,232.9293" style="fill:none;stroke:black;stroke-width:1" />
  <polyline points="34.012,160.8045 27.012,160.8045" style="fill:none;stroke:black;stroke-width:1" />
  <polyline points="34.012,88.6798 27.012,88.6798" style="fill:none;stroke:black;stroke-width:1" />
  <text dominant-baseline="hanging" text-anchor="middle" transform="translate(80.511,381.947)" font-family="Segoe UI" font-size="12" font-weight="400" fill="black">29. August</text>
  <text dominant-baseline="hanging" text-anchor="middle" transform="translate(145.6096,381.947)" font-family="Segoe UI" font-size="12" font-weight="400" fill="black">12. September</text>
  <text dominant-baseline="hanging" text-anchor="middle" transform="translate(210.7082,381.947)" font-family="Segoe UI" font-size="12" font-weight="400" fill="black">26. September</text>
  <text dominant-baseline="hanging" text-anchor="middle" transform="translate(275.8068,381.947)" font-family="Segoe UI" font-size="12" font-weight="400" fill="black">10. October</text>
  <text dominant-baseline="hanging" text-anchor="middle" transform="translate(340.9054,381.947)" font-family="Segoe UI" font-size="12" font-weight="400" fill="black">24. October</text>
  <text dominant-baseline="hanging" text-anchor="middle" transform="translate(406.004,381.947)" font-family="Segoe UI" font-size="12" font-weight="400" fill="black">07. November</text>
  <text dominant-baseline="hanging" text-anchor="middle" transform="translate(471.1026,381.947)" font-family="Segoe UI" font-size="12" font-weight="400" fill="black">21. November</text>
  <text dominant-baseline="hanging" text-anchor="middle" transform="translate(536.2012,381.947)" font-family="Segoe UI" font-size="12" font-weight="400" fill="black">05. December</text>
  <polyline points="80.511,370.947 80.511,377.947" style="fill:none;stroke:black;stroke-width:1" />
  <polyline points="145.6096,370.947 145.6096,377.947" style="fill:none;stroke:black;stroke-width:1" />
  <polyline points="210.7082,370.947 210.7082,377.947" style="fill:none;stroke:black;stroke-width:1" />
  <polyline points="275.8068,370.947 275.8068,377.947" style="fill:none;stroke:black;stroke-width:1" />
  <polyline points="340.9054,370.947 340.9054,377.947" style="fill:none;stroke:black;stroke-width:1" />
  <polyline points="406.004,370.947 406.004,377.947" style="fill:none;stroke:black;stroke-width:1" />
  <polyline points="471.1026,370.947 471.1026,377.947" style="fill:none;stroke:black;stroke-width:1" />
  <polyline points="536.2012,370.947 536.2012,377.947" style="fill:none;stroke:black;stroke-width:1" />
  <polyline points="34.012,356.8142 38.6619,356.3899 43.3118,362.471 57.2615,358.5112 61.9114,362.471 66.5613,363.0367 71.2112,363.6024 75.8611,362.471 89.8108,366.9965 94.4607,365.2994 99.1106,365.8651 103.7605,365.2994 108.4104,365.2994 122.3601,365.8651 127.01,367.5622 131.6599,365.8651 136.3098,365.2994 140.9597,363.0367 154.9094,356.8142 159.5593,352.2887 164.2092,347.1975 168.8591,346.6319 173.509,342.1064 187.4587,347.7632 192.1086,348.3289 196.7585,352.2887 201.4084,350.5916 206.0583,351.723 220.008,335.8838 224.6579,336.4495 229.3078,335.3182 233.9577,325.1358 238.6076,319.479 252.5573,312.6908 257.2072,313.8222 261.8571,305.9026 266.507,304.7528 271.1569,307.6498 285.1066,292.5852 289.7565,290.847 294.4064,285.6323 299.0563,275.2029 303.7062,253.1854 317.6559,230.5885 322.3058,225.9532 326.9557,221.8974 331.6056,202.7769 336.2555,202.1975 350.2052,137.3037 354.8551,132.0891 359.505,129.192 364.1549,131.5096 368.8048,98.4834 382.7545,118.1833 387.4044,107.7539 392.0543,108.9127 396.7042,101.3804 401.3541,119.3421 415.3038,90.9511 419.9537,84.5776 424.6036,58.5042 433.9034,32.4308 447.8531,61.4012 452.503,75.8864 457.1529,84.5776 461.8028,65.3847 466.4527,120.5009 480.4024,167.433 485.0523,150.6301 489.7022,153.5272 494.3521,208.571 499.002,185.974 512.9517,188.8711 517.6016,213.7856 522.2515,225.9532 526.9014,198.1416 531.5513,202.1975 545.501,179.0211 550.1509,181.3388 554.8008,179.6005 559.4507,151.2095 564.1006,173.2271 578.0503,154.1066 582.7002,144.2566 587.3501,132.6685 592,145.4155" style="fill:none;stroke:rgb(31,119,180);stroke-width:2;stroke-linejoin:bevel" />
  <text dominant-baseline="hanging" text-anchor="middle" transform="translate(313.006,8)" font-family="Segoe UI" font-size="18" font-weight="700" fill="black">7-Tage-Inzidenz Stadt Aachen 17.12.2020</text>
  <polygon points="34.012,29.0795 592,29.0795 592,370.947 34.012,370.947" style="fill:none;stroke:black;stroke-width:1" />
  <polygon points="42.012,37.0795 247.014,37.0795 247.014,63.1325 42.012,63.1325" style="fill:none;stroke:none;" />
  <text dominant-baseline="hanging" text-anchor="start" transform="translate(70.012,45.0795)" font-family="Segoe UI" font-size="12" font-weight="400" fill="black">7-Tage-Inzidenz Stadt Aachen 17.12.2020</text>
  <polyline points="50.012,50.106 66.012,50.106" style="fill:none;stroke:rgb(31,119,180);stroke-width:2" />
</svg>