<?xml version="1.0" encoding="utf-8" standalone="no"?>
<!DOCTYPE svg PUBLIC "-//W3C//DTD SVG 1.1//EN" "http://www.w3.org/Graphics/SVG/1.1/DTD/svg11.dtd">
<svg width="600" height="400" version="1.1" xmlns:xlink="http://www.w3.org/1999/xlink" xmlns="http://www.w3.org/2000/svg">
  <rect x="0" y="0" width="600" height="400" style="fill:rgb(255,255,255);stroke:none;" />
  <polyline points="34.012,362.7539 30.012,362.7539" style="fill:none;stroke:black;stroke-width:1" />
  <polyline points="34.012,348.3289 30.012,348.3289" style="fill:none;stroke:black;stroke-width:1" />
  <polyline points="34.012,333.904 30.012,333.904" style="fill:none;stroke:black;stroke-width:1" />
  <polyline points="34.012,319.479 30.012,319.479" style="fill:none;stroke:black;stroke-width:1" />
  <polyline points="34.012,290.6291 30.012,290.6291" style="fill:none;stroke:black;stroke-width:1" />
  <polyline points="34.012,276.2041 30.012,276.2041" style="fill:none;stroke:black;stroke-width:1" />
  <polyline points="34.012,261.7792 30.012,261.7792" style="fill:none;stroke:black;stroke-width:1" />
  <polyline points="34.012,247.3542 30.012,247.3542" style="fill:none;stroke:black;stroke-width:1" />
  <polyline points="34.012,218.5043 30.012,218.5043" style="fill:none;stroke:black;stroke-width:1" />
  <polyline points="34.012,204.0794 30.012,204.0794" style="fill:none;stroke:black;stroke-width:1" />
  <polyline points="34.012,189.6544 30.012,189.6544" style="fill:none;stroke:black;stroke-width:1" />
  <polyline points="34.012,175.2295 30.012,175.2295" style="fill:none;stroke:black;stroke-width:1" />
  <polyline points="34.012,146.3796 30.012,146.3796" style="fill:none;stroke:black;stroke-width:1" />
  <polyline points="34.012,131.9546 30.012,131.9546" style="fill:none;stroke:black;stroke-width:1" />
  <polyline points="34.012,117.5297 30.012,117.5297" style="fill:none;stroke:black;stroke-width:1" />
  <polyline points="34.012,103.1047 30.012,103.1047" style="fill:none;stroke:black;stroke-width:1" />
  <polyline points="34.012,74.2548 30.012,74.2548" style="fill:none;stroke:black;stroke-width:1" />
  <polyline points="34.012,59.8299 30.012,59.8299" style="fill:none;stroke:black;stroke-width:1" />
  <polyline points="34.012,45.4049 30.012,45.4049" style="fill:none;stroke:black;stroke-width:1" />
  <polyline points="34.012,30.98 30.012,30.98" style="fill:none;stroke:black;stroke-width:1" />
  <text dominant-baseline="middle" text-anchor="end" transform="translate(23.012,305.0541)" font-family="Segoe UI" font-size="12" font-weight="400" fill="black">50</text>
  <text dominant-baseline="middle" text-anchor="end" transform="translate(23.012,232.9293)" font-family="Segoe UI" font-size="12" font-weight="400" fill="black">100</text>
  <text dominant-baseline="middle" text-anchor="end" transform="translate(23.012,160.8045)" font-family="Segoe UI" font-size="12" font-weight="400" fill="black">150</text>
  <text dominant-baseline="middle" text-anchor="end" transform="translate(23.012,88.6798)" font-family="Segoe UI" font-size="12" font-weight="400" fill="black">200</text>
  <polyline points="34.012,305.0541 27.012,305.0541" style="fill:none;stroke:black;stroke-width:1" />
  <polyline points="34.012,232.9293 27.012,232.9293" style="fill:none;stroke:black;stroke-width:1" />
  <polyline points="34.012,160.8045 27.012,160.8045" style="fill:none;stroke:black;stroke-width:1" />
  <polyline points="34.012,88.6798 27.012,88.6798" style="fill:none;stroke:black;stroke-width:1" />
  <text dominant-baseline="hanging" text-anchor="middle" transform="translate(67.5946,381.947)" font-family="Segoe UI" font-size="12" font-weight="400" fill="black">01. September</text>
  <text dominant-baseline="hanging" text-anchor="middle" transform="translate(145.0929,381.947)" font-family="Segoe UI" font-size="12" font-weight="400" fill="black">01. October</text>
  <text dominant-baseline="hanging" text-anchor="middle" transform="translate(225.1746,381.947)" font-family="Segoe UI" font-size="12" font-weight="400" fill="black">01. November</text>
  <text dominant-baseline="hanging" text-anchor="middle" transform="translate(302.6729,381.947)" font-family="Segoe UI" font-size="12" font-weight="400" fill="black">01. December</text>
  <text dominant-baseline="hanging" text-anchor="middle" transform="translate(382.7545,381.947)" font-family="Segoe UI" font-size="12" font-weight="400" fill="black">01. January</text>
  <text dominant-baseline="hanging" text-anchor="middle" transform="translate(462.8361,381.947)" font-family="Segoe UI" font-size="12" font-weight="400" fill="black">01. February</text>
  <text dominant-baseline="hanging" text-anchor="middle" transform="translate(535.1679,381.947)" font-family="Segoe UI" font-size="12" font-weight="400" fill="black">01. March</text>
  <polyline points="67.5946,370.947 67.5946,377.947" style="fill:none;stroke:black;stroke-width:1" />
  <polyline points="145.0929,370.947 145.0929,377.947" style="fill:none;stroke:black;stroke-width:1" />
  <polyline points="225.1746,370.947 225.1746,377.947" style="fill:none;stroke:black;stroke-width:1" />
  <polyline points="302.6729,370.947 302.6729,377.947" style="fill:none;stroke:black;stroke-width:1" />
  <polyline points="382.7545,370.947 382.7545,377.947" style="fill:none;stroke:black;stroke-width:1" />
  <polyline points="462.8361,370.947 462.8361,377.947" style="fill:none;stroke:black;stroke-width:1" />
  <polyline points="535.1679,370.947 535.1679,377.947" style="fill:none;stroke:black;stroke-width:1" />
  <polyline points="34.012,356.8142 36.5953,356.3899 39.1786,362.471 46.9284,358.5112 49.5117,362.471 52.0949,363.0367 54.6782,363.6024 57.2615,362.471 65.0113,366.9965 67.5946,365.2994 70.1779,365.8651 72.7612,365.2994 75.3444,365.2994 83.0943,365.8651 85.6776,367.5622 88.2608,365.8651 90.8441,365.2994 93.4274,363.0367 101.1772,356.8142 103.7605,352.2887 106.3438,347.1975 108.9271,346.6319 111.5103,342.1064 119.2602,347.7632 121.8434,348.3289 124.4267,352.2887 127.01,350.5916 129.5933,351.723 137.3431,335.8838 139.9264,336.4495 142.5097,335.3182 145.0929,325.1358 147.6762,319.479 155.4261,312.6908 158.0093,313.8222 160.5926,305.9026 163.1759,304.7528 165.7592,307.6498 173.509,292.5852 176.0923,290.847 178.6756,285.6323 181.2588,275.2029 183.8421,253.1854 191.5919,230.5885 194.1752,225.9532 196.7585,221.8974 199.3418,202.7769 201.9251,202.1975 209.6749,137.3037 212.2582,132.0891 214.8414,129.192 217.4247,131.5096 220.008,98.4834 227.7578,118.1833 230.3411,107.7539 232.9244,108.9127 235.5077,101.3804 238.0909,119.3421 245.8408,90.9511 248.4241,84.5776 251.0073,58.5042 256.1739,32.4308 263.9237,61.4012 266.507,75.8864 269.0903,84.5776 271.6736,65.3847 274.2568,120.5009 282.0067,167.433 284.5899,150.6301 287.1732,153.5272 289.7565,208.571 292.3398,185.974 300.0896,188.8711 302.6729,213.7856 305.2562,225.9532 307.8394,198.1416 310.4227,202.1975 318.1726,179.0211 320.7558,181.3388 323.3391,179.6005 325.9224,151.2095 328.5057,173.2271 336.2555,154.1066 338.8388,144.2566 341.4221,132.6685 344.0053,145.4155 346.5886,134.4067 354.3384,116.445 356.9217,117.0244 359.505,140.7802 372.4214,157.0036 375.0047,154.686 377.5879,134.4067 380.1712,136.3622 390.5043,211.468 393.0876,235.2238 395.6709,250.8678 398.2542,236.962 400.8374,215.9584 411.1706,192.9269 413.7538,195.2446 416.3371,217.2621 418.9204,247.3913 426.6702,255.9086 429.2535,275.7823 431.8368,267.0912 434.4201,285.0529 437.0033,285.6323 444.7532,272.3059 449.9197,279.8382 452.503,259.5589 455.0863,247.9707 462.8361,264.1942 465.4194,278.3173 468.0027,272.3059 470.5859,279.8382 473.1692,290.847 480.9191,293.744 483.5023,290.847 486.0856,275.2029 488.6689,276.3617 491.2522,269.4088 499.002,283.8941 501.5853,285.6323 504.1686,306.491 506.7518,313.4439 509.3351,329.6673 517.0849,329.6673 519.6682,330.8261 522.2515,321.5556 524.8348,322.135 527.4181,317.4997 535.1679,329.0879 537.7512,327.9291 540.3344,323.8732 542.9177,300.6969 545.501,294.9028 553.2508,265.353 555.8341,265.353 558.4174,263.6148 561.0007,278.6794 563.5839,272.3059 571.3338,261.8765 573.9171,262.4559 576.5003,254.9236 579.0836,226.5326 581.6669,208.571 589.4167,200.4592 592,199.8798" style="fill:none;stroke:rgb(31,119,180);stroke-width:2;stroke-linejoin:bevel" />
  <text dominant-baseline="hanging" text-anchor="middle" transform="translate(313.006,8)" font-family="Segoe UI" font-size="18" font-weight="700" fill="black">7-Tage-Inzidenz Stadt Aachen 23.03.2021</text>
  <polygon points="34.012,29.0795 592,29.0795 592,370.947 34.012,370.947" style="fill:none;stroke:black;stroke-width:1" />
  <polygon points="42.012,37.0795 247.014,37.0795 247.014,63.1325 42.012,63.1325" style="fill:none;stroke:none;" />
  <text dominant-baseline="hanging" text-anchor="start" transform="translate(70.012,45.0795)" font-family="Segoe UI" font-size="12" font-weight="400" fill="black">7-Tage-Inzidenz Stadt Aachen 23.03.2021</text>
  <polyline points="50.012,50.106 66.012,50.106" style="fill:none;stroke:rgb(31,119,180);stroke-width:2" />
</svg>