<?xml version="1.0" encoding="utf-8" standalone="no"?>
<!DOCTYPE svg PUBLIC "-//W3C//DTD SVG 1.1//EN" "http://www.w3.org/Graphics/SVG/1.1/DTD/svg11.dtd">
<svg width="600" height="400" version="1.1" xmlns:xlink="http://www.w3.org/1999/xlink" xmlns="http://www.w3.org/2000/svg">
  <rect x="0" y="0" width="600" height="400" style="fill:rgb(255,255,255);stroke:none;" />
  <polyline points="34.012,343.9621 30.012,343.9621" style="fill:none;stroke:black;stroke-width:1" />
  <polyline points="34.012,320.3811 30.012,320.3811" style="fill:none;stroke:black;stroke-width:1" />
  <polyline points="34.012,296.8001 30.012,296.8001" style="fill:none;stroke:black;stroke-width:1" />
  <polyline points="34.012,249.6381 30.012,249.6381" style="fill:none;stroke:black;stroke-width:1" />
  <polyline points="34.012,226.0571 30.012,226.0571" style="fill:none;stroke:black;stroke-width:1" />
  <polyline points="34.012,202.4761 30.012,202.4761" style="fill:none;stroke:black;stroke-width:1" />
  <polyline points="34.012,155.3141 30.012,155.3141" style="fill:none;stroke:black;stroke-width:1" />
  <polyline points="34.012,131.7331 30.012,131.7331" style="fill:none;stroke:black;stroke-width:1" />
  <polyline points="34.012,108.1522 30.012,108.1522" style="fill:none;stroke:black;stroke-width:1" />
  <polyline points="34.012,60.9902 30.012,60.9902" style="fill:none;stroke:black;stroke-width:1" />
  <polyline points="34.012,37.4092 30.012,37.4092" style="fill:none;stroke:black;stroke-width:1" />
  <text dominant-baseline="middle" text-anchor="end" transform="translate(23.012,367.543)" font-family="Segoe UI" font-size="12" font-weight="400" fill="black">0</text>
  <text dominant-baseline="middle" text-anchor="end" transform="translate(23.012,273.2191)" font-family="Segoe UI" font-size="12" font-weight="400" fill="black">200</text>
  <text dominant-baseline="middle" text-anchor="end" transform="translate(23.012,178.8951)" font-family="Segoe UI" font-size="12" font-weight="400" fill="black">400</text>
  <text dominant-baseline="middle" text-anchor="end" transform="translate(23.012,84.5712)" font-family="Segoe UI" font-size="12" font-weight="400" fill="black">600</text>
  <polyline points="34.012,367.543 27.012,367.543" style="fill:none;stroke:black;stroke-width:1" />
  <polyline points="34.012,273.2191 27.012,273.2191" style="fill:none;stroke:black;stroke-width:1" />
  <polyline points="34.012,178.8951 27.012,178.8951" style="fill:none;stroke:black;stroke-width:1" />
  <polyline points="34.012,84.5712 27.012,84.5712" style="fill:none;stroke:black;stroke-width:1" />
  <text dominant-baseline="hanging" text-anchor="middle" transform="translate(186.3856,381.947)" font-family="Segoe UI" font-size="12" font-weight="400" fill="black">01. January</text>
  <text dominant-baseline="hanging" text-anchor="middle" transform="translate(578.0503,381.947)" font-family="Segoe UI" font-size="12" font-weight="400" fill="black">01. January</text>
  <polyline points="186.3856,370.947 186.3856,377.947" style="fill:none;stroke:black;stroke-width:1" />
  <polyline points="578.0503,370.947 578.0503,377.947" style="fill:none;stroke:black;stroke-width:1" />
  <polyline points="34.012,367.5622 36.1581,367.5621 39.3773,367.5621 40.4503,367.5621 41.5234,360.8849 42.5964,360.7462 43.6695,362.7344 46.8886,361.4397 47.9617,362.7344 49.0348,362.9193 50.1078,363.1043 51.1809,362.7344 54.4,364.214 55.4731,363.6591 56.5461,363.8441 57.6192,363.6591 58.6922,363.6591 61.9114,363.8441 62.9845,364.3989 64.0575,363.8441 65.1306,363.6591 66.2036,362.9193 69.4228,360.8849 70.4958,359.4053 71.5689,357.7407 72.6419,357.5558 73.715,356.0762 76.9342,357.9257 78.0072,358.1106 79.0803,359.4053 80.1533,358.8504 81.2264,359.2203 84.4455,354.0418 85.5186,354.2267 86.5916,353.8568 87.6647,350.5277 88.7377,348.6782 91.9569,346.4589 93.03,346.8288 94.103,344.2395 95.1761,343.8635 96.2491,344.8107 99.4683,339.8854 100.5413,339.3171 101.6144,337.6122 102.6874,334.2023 103.7605,327.0037 106.9797,319.6157 108.0527,318.1003 109.1258,316.7742 110.1988,310.5228 111.2719,310.3334 114.491,289.1165 115.5641,287.4116 116.6371,286.4644 117.7102,287.2222 118.7833,276.4243 122.0024,282.8652 123.0755,279.4553 124.1485,279.8342 125.2216,277.3715 126.2946,283.244 129.5138,273.9617 130.5868,271.8779 131.6599,263.3533 133.806,254.8286 137.0252,264.3004 138.0982,269.0363 139.1713,271.8779 140.2443,265.6028 141.3174,283.6229 144.5365,298.9672 145.6096,293.4736 146.6827,294.4208 147.7557,312.4172 148.8288,305.0292 152.0479,305.9763 153.121,314.1221 154.194,318.1003 155.2671,309.0073 156.3401,310.3334 159.5593,302.7559 160.6324,303.5137 161.7054,302.9454 162.7785,293.663 163.8515,300.8616 167.0707,294.6102 168.1437,291.3898 169.2168,287.6011 170.2898,291.7687 171.3629,288.1694 174.5821,282.2969 175.6551,282.4863 176.7282,290.2532 182.0934,295.5574 183.1665,294.7996 184.2395,288.1694 185.3126,288.8087 189.6048,313.3644 190.6779,321.1312 191.7509,326.246 192.824,321.6995 193.897,314.8325 198.1892,307.3024 199.2623,308.0601 200.3353,315.2587 201.4084,325.1094 204.6276,327.8941 205.7006,334.3917 206.7737,331.5502 207.8467,337.4227 208.9198,337.6122 212.1389,333.2551 214.285,335.7178 215.3581,329.0875 216.4312,325.2988 219.6503,330.603 220.7234,335.2205 221.7964,333.2551 222.8695,335.7178 223.9425,339.3171 227.1617,340.2643 228.2347,339.3171 229.3078,334.2023 230.3809,334.5812 231.4539,332.3079 234.6731,337.0438 235.7461,337.6122 236.8192,344.4319 237.8922,346.7051 238.9653,352.0093 242.1844,352.0093 243.2575,352.3882 244.3306,349.3572 245.4036,349.5466 246.4767,348.0311 249.6958,351.8199 250.7689,351.441 251.8419,350.1149 252.915,342.5375 253.988,340.6431 257.2072,330.9819 258.2803,330.9819 259.3533,330.4136 260.4264,335.3389 261.4994,333.2551 264.7186,329.8453 265.7916,330.0347 266.8647,327.5721 267.9377,318.2897 269.0108,312.4172 272.23,309.7651 273.303,309.5756 274.3761,311.0911 275.4491,307.3024 276.5222,311.47 279.7413,317.5319 280.8144,316.3953 281.8874,318.6686 282.9605,323.9728 284.0335,315.6376 288.3258,311.2806 289.3988,316.2059 290.4719,310.1439 291.5449,321.1312 294.7641,318.0813 295.8371,314.8798 296.9102,299.1567 297.9832,305.9763 299.0563,304.6503 302.2755,301.8088 303.3485,295.5574 304.4216,297.2623 305.4946,292.7158 306.5677,284.7595 309.7868,278.5081 310.8599,283.8123 311.9329,288.5482 313.006,286.6539 314.0791,287.6011 317.2982,296.1257 318.3713,292.1475 319.4443,290.0637 320.5174,301.051 321.5904,307.6813 324.8096,310.9017 325.8826,313.9327 326.9557,318.1003 329.1018,307.4918 332.321,308.439 333.394,303.7031 334.4671,301.8088 335.5401,303.2295 336.6132,314.8798 340.9054,330.603 341.9785,338.7488 343.0515,341.9692 344.1246,343.1058 347.3437,345.6632 348.4168,347.2734 349.4898,346.8945 351.6359,353.7142 354.8551,358.829 355.9282,360.5339 357.0012,362.0494 358.0743,361.7416 359.1473,363.5649 362.3665,364.5121 363.4395,364.1332 364.5126,364.1332 365.5856,363.7543 366.6587,362.8071 369.8779,362.8071 370.9509,362.6177 372.024,363.7543 373.097,364.8909 374.1701,365.4592 377.3892,365.2698 378.4623,365.8381 379.5353,364.7015 380.6084,363.5649 381.6814,363.9438 384.9006,363.9438 387.0467,364.1332 389.1928,364.8909 392.412,365.2698 394.5581,362.9966 396.7042,359.3973 402.0695,355.6086 404.2156,350.8727 409.5808,350.3044 411.727,354.8508 417.0922,354.6614 419.2383,352.5776 424.6036,343.1058 426.7497,332.3079 432.115,329.277 434.2611,334.2023 439.6264,311.6594 441.7725,308.439 447.1377,322.4573 449.2838,318.6686 456.7952,324.7305 464.3066,335.7178 469.6719,339.696 471.818,341.7797 477.1832,343.2952 479.3293,347.084 484.6946,352.1987 486.8407,352.1987 492.206,352.0093 494.3521,351.8199 499.7174,351.8199 501.8635,345.7579 507.2287,333.4446 509.3749,321.1312 514.7401,318.1003 516.8862,311.6594 522.2515,286.0856 524.3976,276.6138 529.7629,267.142 531.909,266.5737 537.2743,232.0963 539.4204,218.2675 544.7856,227.9287 552.297,234.1801 554.4431,230.0757 559.8084,255.2075 561.9545,255.9653 582.3425,243.7317 584.4886,218.7727 589.8539,62.3617 592,32.4308" style="fill:none;stroke:rgb(31,119,180);stroke-width:2;stroke-linejoin:bevel" />
  <text dominant-baseline="hanging" text-anchor="middle" transform="translate(313.006,8)" font-family="Segoe UI" font-size="18" font-weight="700" fill="black">7-Tage-Inzidenz Stadt Aachen 14.01.2022</text>
  <polygon points="34.012,29.0795 592,29.0795 592,370.947 34.012,370.947" style="fill:none;stroke:black;stroke-width:1" />
  <polygon points="42.012,37.0795 247.014,37.0795 247.014,63.1325 42.012,63.1325" style="fill:none;stroke:none;" />
  <text dominant-baseline="hanging" text-anchor="start" transform="translate(70.012,45.0795)" font-family="Segoe UI" font-size="12" font-weight="400" fill="black">7-Tage-Inzidenz Stadt Aachen 14.01.2022</text>
  <polyline points="50.012,50.106 66.012,50.106" style="fill:none;stroke:rgb(31,119,180);stroke-width:2" />
</svg>