<?xml version="1.0" encoding="utf-8" standalone="no"?>
<!DOCTYPE svg PUBLIC "-//W3C//DTD SVG 1.1//EN" "http://www.w3.org/Graphics/SVG/1.1/DTD/svg11.dtd">
<svg width="600" height="400" version="1.1" xmlns:xlink="http://www.w3.org/1999/xlink" xmlns="http://www.w3.org/2000/svg">
  <rect x="0" y="0" width="600" height="400" style="fill:rgb(255,255,255);stroke:none;" />
  <polyline points="34.012,362.7539 30.012,362.7539" style="fill:none;stroke:black;stroke-width:1" />
  <polyline points="34.012,348.3289 30.012,348.3289" style="fill:none;stroke:black;stroke-width:1" />
  <polyline points="34.012,333.904 30.012,333.904" style="fill:none;stroke:black;stroke-width:1" />
  <polyline points="34.012,319.479 30.012,319.479" style="fill:none;stroke:black;stroke-width:1" />
  <polyline points="34.012,290.6291 30.012,290.6291" style="fill:none;stroke:black;stroke-width:1" />
  <polyline points="34.012,276.2041 30.012,276.2041" style="fill:none;stroke:black;stroke-width:1" />
  <polyline points="34.012,261.7792 30.012,261.7792" style="fill:none;stroke:black;stroke-width:1" />
  <polyline points="34.012,247.3542 30.012,247.3542" style="fill:none;stroke:black;stroke-width:1" />
  <polyline points="34.012,218.5043 30.012,218.5043" style="fill:none;stroke:black;stroke-width:1" />
  <polyline points="34.012,204.0794 30.012,204.0794" style="fill:none;stroke:black;stroke-width:1" />
  <polyline points="34.012,189.6544 30.012,189.6544" style="fill:none;stroke:black;stroke-width:1" />
  <polyline points="34.012,175.2295 30.012,175.2295" style="fill:none;stroke:black;stroke-width:1" />
  <polyline points="34.012,146.3796 30.012,146.3796" style="fill:none;stroke:black;stroke-width:1" />
  <polyline points="34.012,131.9546 30.012,131.9546" style="fill:none;stroke:black;stroke-width:1" />
  <polyline points="34.012,117.5297 30.012,117.5297" style="fill:none;stroke:black;stroke-width:1" />
  <polyline points="34.012,103.1047 30.012,103.1047" style="fill:none;stroke:black;stroke-width:1" />
  <polyline points="34.012,74.2548 30.012,74.2548" style="fill:none;stroke:black;stroke-width:1" />
  <polyline points="34.012,59.8299 30.012,59.8299" style="fill:none;stroke:black;stroke-width:1" />
  <polyline points="34.012,45.4049 30.012,45.4049" style="fill:none;stroke:black;stroke-width:1" />
  <polyline points="34.012,30.98 30.012,30.98" style="fill:none;stroke:black;stroke-width:1" />
  <text dominant-baseline="middle" text-anchor="end" transform="translate(23.012,305.0541)" font-family="Segoe UI" font-size="12" font-weight="400" fill="black">50</text>
  <text dominant-baseline="middle" text-anchor="end" transform="translate(23.012,232.9293)" font-family="Segoe UI" font-size="12" font-weight="400" fill="black">100</text>
  <text dominant-baseline="middle" text-anchor="end" transform="translate(23.012,160.8045)" font-family="Segoe UI" font-size="12" font-weight="400" fill="black">150</text>
  <text dominant-baseline="middle" text-anchor="end" transform="translate(23.012,88.6798)" font-family="Segoe UI" font-size="12" font-weight="400" fill="black">200</text>
  <polyline points="34.012,305.0541 27.012,305.0541" style="fill:none;stroke:black;stroke-width:1" />
  <polyline points="34.012,232.9293 27.012,232.9293" style="fill:none;stroke:black;stroke-width:1" />
  <polyline points="34.012,160.8045 27.012,160.8045" style="fill:none;stroke:black;stroke-width:1" />
  <polyline points="34.012,88.6798 27.012,88.6798" style="fill:none;stroke:black;stroke-width:1" />
  <text dominant-baseline="hanging" text-anchor="middle" transform="translate(62.0191,381.947)" font-family="Segoe UI" font-size="12" font-weight="400" fill="black">01. September</text>
  <text dominant-baseline="hanging" text-anchor="middle" transform="translate(126.6509,381.947)" font-family="Segoe UI" font-size="12" font-weight="400" fill="black">01. October</text>
  <text dominant-baseline="hanging" text-anchor="middle" transform="translate(193.4371,381.947)" font-family="Segoe UI" font-size="12" font-weight="400" fill="black">01. November</text>
  <text dominant-baseline="hanging" text-anchor="middle" transform="translate(258.069,381.947)" font-family="Segoe UI" font-size="12" font-weight="400" fill="black">01. December</text>
  <text dominant-baseline="hanging" text-anchor="middle" transform="translate(324.8552,381.947)" font-family="Segoe UI" font-size="12" font-weight="400" fill="black">01. January</text>
  <text dominant-baseline="hanging" text-anchor="middle" transform="translate(391.6414,381.947)" font-family="Segoe UI" font-size="12" font-weight="400" fill="black">01. February</text>
  <text dominant-baseline="hanging" text-anchor="middle" transform="translate(451.9644,381.947)" font-family="Segoe UI" font-size="12" font-weight="400" fill="black">01. March</text>
  <text dominant-baseline="hanging" text-anchor="middle" transform="translate(518.7506,381.947)" font-family="Segoe UI" font-size="12" font-weight="400" fill="black">01. April</text>
  <text dominant-baseline="hanging" text-anchor="middle" transform="translate(583.3824,381.947)" font-family="Segoe UI" font-size="12" font-weight="400" fill="black">01. May</text>
  <polyline points="62.0191,370.947 62.0191,377.947" style="fill:none;stroke:black;stroke-width:1" />
  <polyline points="126.6509,370.947 126.6509,377.947" style="fill:none;stroke:black;stroke-width:1" />
  <polyline points="193.4371,370.947 193.4371,377.947" style="fill:none;stroke:black;stroke-width:1" />
  <polyline points="258.069,370.947 258.069,377.947" style="fill:none;stroke:black;stroke-width:1" />
  <polyline points="324.8552,370.947 324.8552,377.947" style="fill:none;stroke:black;stroke-width:1" />
  <polyline points="391.6414,370.947 391.6414,377.947" style="fill:none;stroke:black;stroke-width:1" />
  <polyline points="451.9644,370.947 451.9644,377.947" style="fill:none;stroke:black;stroke-width:1" />
  <polyline points="518.7506,370.947 518.7506,377.947" style="fill:none;stroke:black;stroke-width:1" />
  <polyline points="583.3824,370.947 583.3824,377.947" style="fill:none;stroke:black;stroke-width:1" />
  <polyline points="34.012,356.8142 36.1664,356.3899 38.3208,362.471 44.784,358.5112 46.9384,362.471 49.0928,363.0367 51.2472,363.6024 53.4015,362.471 59.8647,366.9965 62.0191,365.2994 64.1735,365.8651 66.3279,365.2994 68.4823,365.2994 74.9455,365.8651 77.0999,367.5622 79.2543,365.8651 81.4087,365.2994 83.5631,363.0367 90.0262,356.8142 92.1806,352.2887 94.335,347.1975 96.4894,346.6319 98.6438,342.1064 105.107,347.7632 107.2614,348.3289 109.4158,352.2887 111.5702,350.5916 113.7246,351.723 120.1878,335.8838 122.3421,336.4495 124.4965,335.3182 126.6509,325.1358 128.8053,319.479 135.2685,312.6908 137.4229,313.8222 139.5773,305.9026 141.7317,304.7528 143.8861,307.6498 150.3493,292.5852 152.5037,290.847 154.6581,285.6323 156.8124,275.2029 158.9668,253.1854 165.43,230.5885 167.5844,225.9532 169.7388,221.8974 171.8932,202.7769 174.0476,202.1975 180.5108,137.3037 182.6652,132.0891 184.8196,129.192 186.974,131.5096 189.1284,98.4834 195.5915,118.1833 197.7459,107.7539 199.9003,108.9127 202.0547,101.3804 204.2091,119.3421 210.6723,90.9511 212.8267,84.5776 214.9811,58.5042 219.2899,32.4308 225.7531,61.4012 227.9074,75.8864 230.0618,84.5776 232.2162,65.3847 234.3706,120.5009 240.8338,167.433 242.9882,150.6301 245.1426,153.5272 247.297,208.571 249.4514,185.974 255.9146,188.8711 258.069,213.7856 260.2234,225.9532 262.3777,198.1416 264.5321,202.1975 270.9953,179.0211 273.1497,181.3388 275.3041,179.6005 277.4585,151.2095 279.6129,173.2271 286.0761,154.1066 288.2305,144.2566 290.3849,132.6685 292.5393,145.4155 294.6937,134.4067 301.1568,116.445 303.3112,117.0244 305.4656,140.7802 316.2376,157.0036 318.392,154.686 320.5464,134.4067 322.7008,136.3622 331.3183,211.468 333.4727,235.2238 335.6271,250.8678 337.7815,236.962 339.9359,215.9584 348.5535,192.9269 350.7079,195.2446 352.8623,217.2621 355.0167,247.3913 361.4799,255.9086 363.6343,275.7823 365.7886,267.0912 367.943,285.0529 370.0974,285.6323 376.5606,272.3059 380.8694,279.8382 383.0238,259.5589 385.1782,247.9707 391.6414,264.1942 393.7958,278.3173 395.9502,272.3059 398.1046,279.8382 400.2589,290.847 406.7221,293.744 408.8765,290.847 411.0309,275.2029 413.1853,276.3617 415.3397,269.4088 421.8029,283.8941 423.9573,285.6323 426.1117,306.491 428.2661,313.4439 430.4205,329.6673 436.8836,329.6673 439.038,330.8261 441.1924,321.5556 443.3468,322.135 445.5012,317.4997 451.9644,329.0879 454.1188,327.9291 456.2732,323.8732 458.4276,300.6969 460.582,294.9028 467.0452,265.353 469.1996,265.353 471.3539,263.6148 473.5083,278.6794 475.6627,272.3059 482.1259,261.8765 484.2803,262.4559 486.4347,254.9236 488.5891,226.5326 490.7435,208.571 497.2067,200.4592 499.3611,199.8798 501.5155,204.5151 503.6699,192.9269 505.8242,205.6739 512.2874,224.215 514.4418,220.7385 516.5962,227.6914 518.7506,243.9149 520.905,218.4209 529.5226,205.0945 531.677,220.1591 533.8314,201.6181 535.9858,235.2238 542.4489,225.8953 544.6033,216.1033 546.7577,168.0124 548.9121,188.8711 551.0665,184.8152 557.5297,176.1241 559.6841,157.0036 561.8385,162.2183 563.9929,148.3125 566.1473,123.9773 572.6105,104.8569 574.7648,121.0803 576.9192,135.5655 579.0736,129.7714 581.228,132.6685 587.6912,158.7418 589.8456,146.5743 592,140.2008" style="fill:none;stroke:rgb(31,119,180);stroke-width:2;stroke-linejoin:bevel" />
  <text dominant-baseline="hanging" text-anchor="middle" transform="translate(313.006,8)" font-family="Segoe UI" font-size="18" font-weight="700" fill="black">7-Tage-Inzidenz Stadt Aachen 05.05.2021</text>
  <polygon points="34.012,29.0795 592,29.0795 592,370.947 34.012,370.947" style="fill:none;stroke:black;stroke-width:1" />
  <polygon points="42.012,37.0795 247.014,37.0795 247.014,63.1325 42.012,63.1325" style="fill:none;stroke:none;" />
  <text dominant-baseline="hanging" text-anchor="start" transform="translate(70.012,45.0795)" font-family="Segoe UI" font-size="12" font-weight="400" fill="black">7-Tage-Inzidenz Stadt Aachen 05.05.2021</text>
  <polyline points="50.012,50.106 66.012,50.106" style="fill:none;stroke:rgb(31,119,180);stroke-width:2" />
</svg>