<?xml version="1.0" encoding="utf-8" standalone="no"?>
<!DOCTYPE svg PUBLIC "-//W3C//DTD SVG 1.1//EN" "http://www.w3.org/Graphics/SVG/1.1/DTD/svg11.dtd">
<svg width="600" height="400" version="1.1" xmlns:xlink="http://www.w3.org/1999/xlink" xmlns="http://www.w3.org/2000/svg">
  <rect x="0" y="0" width="600" height="400" style="fill:rgb(255,255,255);stroke:none;" />
  <polyline points="34.012,362.7539 30.012,362.7539" style="fill:none;stroke:black;stroke-width:1" />
  <polyline points="34.012,348.3289 30.012,348.3289" style="fill:none;stroke:black;stroke-width:1" />
  <polyline points="34.012,333.904 30.012,333.904" style="fill:none;stroke:black;stroke-width:1" />
  <polyline points="34.012,319.479 30.012,319.479" style="fill:none;stroke:black;stroke-width:1" />
  <polyline points="34.012,290.6291 30.012,290.6291" style="fill:none;stroke:black;stroke-width:1" />
  <polyline points="34.012,276.2041 30.012,276.2041" style="fill:none;stroke:black;stroke-width:1" />
  <polyline points="34.012,261.7792 30.012,261.7792" style="fill:none;stroke:black;stroke-width:1" />
  <polyline points="34.012,247.3542 30.012,247.3542" style="fill:none;stroke:black;stroke-width:1" />
  <polyline points="34.012,218.5043 30.012,218.5043" style="fill:none;stroke:black;stroke-width:1" />
  <polyline points="34.012,204.0794 30.012,204.0794" style="fill:none;stroke:black;stroke-width:1" />
  <polyline points="34.012,189.6544 30.012,189.6544" style="fill:none;stroke:black;stroke-width:1" />
  <polyline points="34.012,175.2295 30.012,175.2295" style="fill:none;stroke:black;stroke-width:1" />
  <polyline points="34.012,146.3796 30.012,146.3796" style="fill:none;stroke:black;stroke-width:1" />
  <polyline points="34.012,131.9546 30.012,131.9546" style="fill:none;stroke:black;stroke-width:1" />
  <polyline points="34.012,117.5297 30.012,117.5297" style="fill:none;stroke:black;stroke-width:1" />
  <polyline points="34.012,103.1047 30.012,103.1047" style="fill:none;stroke:black;stroke-width:1" />
  <polyline points="34.012,74.2548 30.012,74.2548" style="fill:none;stroke:black;stroke-width:1" />
  <polyline points="34.012,59.8299 30.012,59.8299" style="fill:none;stroke:black;stroke-width:1" />
  <polyline points="34.012,45.4049 30.012,45.4049" style="fill:none;stroke:black;stroke-width:1" />
  <polyline points="34.012,30.98 30.012,30.98" style="fill:none;stroke:black;stroke-width:1" />
  <text dominant-baseline="middle" text-anchor="end" transform="translate(23.012,305.0541)" font-family="Segoe UI" font-size="12" font-weight="400" fill="black">50</text>
  <text dominant-baseline="middle" text-anchor="end" transform="translate(23.012,232.9293)" font-family="Segoe UI" font-size="12" font-weight="400" fill="black">100</text>
  <text dominant-baseline="middle" text-anchor="end" transform="translate(23.012,160.8045)" font-family="Segoe UI" font-size="12" font-weight="400" fill="black">150</text>
  <text dominant-baseline="middle" text-anchor="end" transform="translate(23.012,88.6798)" font-family="Segoe UI" font-size="12" font-weight="400" fill="black">200</text>
  <polyline points="34.012,305.0541 27.012,305.0541" style="fill:none;stroke:black;stroke-width:1" />
  <polyline points="34.012,232.9293 27.012,232.9293" style="fill:none;stroke:black;stroke-width:1" />
  <polyline points="34.012,160.8045 27.012,160.8045" style="fill:none;stroke:black;stroke-width:1" />
  <polyline points="34.012,88.6798 27.012,88.6798" style="fill:none;stroke:black;stroke-width:1" />
  <text dominant-baseline="hanging" text-anchor="middle" transform="translate(63.8632,381.947)" font-family="Segoe UI" font-size="12" font-weight="400" fill="black">01. September</text>
  <text dominant-baseline="hanging" text-anchor="middle" transform="translate(132.7506,381.947)" font-family="Segoe UI" font-size="12" font-weight="400" fill="black">01. October</text>
  <text dominant-baseline="hanging" text-anchor="middle" transform="translate(203.9343,381.947)" font-family="Segoe UI" font-size="12" font-weight="400" fill="black">01. November</text>
  <text dominant-baseline="hanging" text-anchor="middle" transform="translate(272.8217,381.947)" font-family="Segoe UI" font-size="12" font-weight="400" fill="black">01. December</text>
  <text dominant-baseline="hanging" text-anchor="middle" transform="translate(344.0053,381.947)" font-family="Segoe UI" font-size="12" font-weight="400" fill="black">01. January</text>
  <text dominant-baseline="hanging" text-anchor="middle" transform="translate(415.189,381.947)" font-family="Segoe UI" font-size="12" font-weight="400" fill="black">01. February</text>
  <text dominant-baseline="hanging" text-anchor="middle" transform="translate(479.4839,381.947)" font-family="Segoe UI" font-size="12" font-weight="400" fill="black">01. March</text>
  <text dominant-baseline="hanging" text-anchor="middle" transform="translate(550.6676,381.947)" font-family="Segoe UI" font-size="12" font-weight="400" fill="black">01. April</text>
  <polyline points="63.8632,370.947 63.8632,377.947" style="fill:none;stroke:black;stroke-width:1" />
  <polyline points="132.7506,370.947 132.7506,377.947" style="fill:none;stroke:black;stroke-width:1" />
  <polyline points="203.9343,370.947 203.9343,377.947" style="fill:none;stroke:black;stroke-width:1" />
  <polyline points="272.8217,370.947 272.8217,377.947" style="fill:none;stroke:black;stroke-width:1" />
  <polyline points="344.0053,370.947 344.0053,377.947" style="fill:none;stroke:black;stroke-width:1" />
  <polyline points="415.189,370.947 415.189,377.947" style="fill:none;stroke:black;stroke-width:1" />
  <polyline points="479.4839,370.947 479.4839,377.947" style="fill:none;stroke:black;stroke-width:1" />
  <polyline points="550.6676,370.947 550.6676,377.947" style="fill:none;stroke:black;stroke-width:1" />
  <polyline points="34.012,356.8142 36.3082,356.3899 38.6045,362.471 45.4932,358.5112 47.7895,362.471 50.0857,363.0367 52.382,363.6024 54.6782,362.471 61.567,366.9965 63.8632,365.2994 66.1595,365.8651 68.4557,365.2994 70.752,365.2994 77.6407,365.8651 79.9369,367.5622 82.2332,365.8651 84.5294,365.2994 86.8257,363.0367 93.7144,356.8142 96.0107,352.2887 98.3069,347.1975 100.6032,346.6319 102.8994,342.1064 109.7881,347.7632 112.0844,348.3289 114.3806,352.2887 116.6769,350.5916 118.9731,351.723 125.8619,335.8838 128.1581,336.4495 130.4544,335.3182 132.7506,325.1358 135.0469,319.479 141.9356,312.6908 144.2319,313.8222 146.5281,305.9026 148.8243,304.7528 151.1206,307.6498 158.0093,292.5852 160.3056,290.847 162.6018,285.6323 164.8981,275.2029 167.1943,253.1854 174.0831,230.5885 176.3793,225.9532 178.6756,221.8974 180.9718,202.7769 183.268,202.1975 190.1568,137.3037 192.453,132.0891 194.7493,129.192 197.0455,131.5096 199.3418,98.4834 206.2305,118.1833 208.5268,107.7539 210.823,108.9127 213.1193,101.3804 215.4155,119.3421 222.3042,90.9511 224.6005,84.5776 226.8967,58.5042 231.4892,32.4308 238.378,61.4012 240.6742,75.8864 242.9705,84.5776 245.2667,65.3847 247.563,120.5009 254.4517,167.433 256.748,150.6301 259.0442,153.5272 261.3404,208.571 263.6367,185.974 270.5254,188.8711 272.8217,213.7856 275.1179,225.9532 277.4142,198.1416 279.7104,202.1975 286.5992,179.0211 288.8954,181.3388 291.1917,179.6005 293.4879,151.2095 295.7841,173.2271 302.6729,154.1066 304.9691,144.2566 307.2654,132.6685 309.5616,145.4155 311.8579,134.4067 318.7466,116.445 321.0429,117.0244 323.3391,140.7802 334.8203,157.0036 337.1166,154.686 339.4128,134.4067 341.7091,136.3622 350.8941,211.468 353.1903,235.2238 355.4866,250.8678 357.7828,236.962 360.0791,215.9584 369.264,192.9269 371.5603,195.2446 373.8565,217.2621 376.1528,247.3913 383.0415,255.9086 385.3378,275.7823 387.634,267.0912 389.9303,285.0529 392.2265,285.6323 399.1153,272.3059 403.7078,279.8382 406.004,259.5589 408.3002,247.9707 415.189,264.1942 417.4852,278.3173 419.7815,272.3059 422.0777,279.8382 424.374,290.847 431.2627,293.744 433.559,290.847 435.8552,275.2029 438.1515,276.3617 440.4477,269.4088 447.3364,283.8941 449.6327,285.6323 451.9289,306.491 454.2252,313.4439 456.5214,329.6673 463.4102,329.6673 465.7064,330.8261 468.0027,321.5556 470.2989,322.135 472.5952,317.4997 479.4839,329.0879 481.7801,327.9291 484.0764,323.8732 486.3726,300.6969 488.6689,294.9028 495.5576,265.353 497.8539,265.353 500.1501,263.6148 502.4464,278.6794 504.7426,272.3059 511.6314,261.8765 513.9276,262.4559 516.2239,254.9236 518.5201,226.5326 520.8163,208.571 527.7051,200.4592 530.0013,199.8798 532.2976,204.5151 534.5938,192.9269 536.8901,205.6739 543.7788,224.215 546.0751,220.7385 548.3713,227.6914 550.6676,243.9149 552.9638,218.4209 562.1488,205.0945 564.445,220.1591 566.7413,201.6181 569.0375,235.2238 575.9263,225.8953 578.2225,216.1033 580.5188,168.0124 582.815,188.8711 585.1113,184.8152 592,176.1241" style="fill:none;stroke:rgb(31,119,180);stroke-width:2;stroke-linejoin:bevel" />
  <text dominant-baseline="hanging" text-anchor="middle" transform="translate(313.006,8)" font-family="Segoe UI" font-size="18" font-weight="700" fill="black">7-Tage-Inzidenz Stadt Aachen 19.04.2021</text>
  <polygon points="34.012,29.0795 592,29.0795 592,370.947 34.012,370.947" style="fill:none;stroke:black;stroke-width:1" />
  <polygon points="42.012,37.0795 247.014,37.0795 247.014,63.1325 42.012,63.1325" style="fill:none;stroke:none;" />
  <text dominant-baseline="hanging" text-anchor="start" transform="translate(70.012,45.0795)" font-family="Segoe UI" font-size="12" font-weight="400" fill="black">7-Tage-Inzidenz Stadt Aachen 19.04.2021</text>
  <polyline points="50.012,50.106 66.012,50.106" style="fill:none;stroke:rgb(31,119,180);stroke-width:2" />
</svg>