<?xml version="1.0" encoding="utf-8" standalone="no"?>
<!DOCTYPE svg PUBLIC "-//W3C//DTD SVG 1.1//EN" "http://www.w3.org/Graphics/SVG/1.1/DTD/svg11.dtd">
<svg width="600" height="400" version="1.1" xmlns:xlink="http://www.w3.org/1999/xlink" xmlns="http://www.w3.org/2000/svg">
  <rect x="0" y="0" width="600" height="400" style="fill:rgb(255,255,255);stroke:none;" />
  <polyline points="34.012,362.7539 30.012,362.7539" style="fill:none;stroke:black;stroke-width:1" />
  <polyline points="34.012,348.3289 30.012,348.3289" style="fill:none;stroke:black;stroke-width:1" />
  <polyline points="34.012,333.904 30.012,333.904" style="fill:none;stroke:black;stroke-width:1" />
  <polyline points="34.012,319.479 30.012,319.479" style="fill:none;stroke:black;stroke-width:1" />
  <polyline points="34.012,290.6291 30.012,290.6291" style="fill:none;stroke:black;stroke-width:1" />
  <polyline points="34.012,276.2041 30.012,276.2041" style="fill:none;stroke:black;stroke-width:1" />
  <polyline points="34.012,261.7792 30.012,261.7792" style="fill:none;stroke:black;stroke-width:1" />
  <polyline points="34.012,247.3542 30.012,247.3542" style="fill:none;stroke:black;stroke-width:1" />
  <polyline points="34.012,218.5043 30.012,218.5043" style="fill:none;stroke:black;stroke-width:1" />
  <polyline points="34.012,204.0794 30.012,204.0794" style="fill:none;stroke:black;stroke-width:1" />
  <polyline points="34.012,189.6544 30.012,189.6544" style="fill:none;stroke:black;stroke-width:1" />
  <polyline points="34.012,175.2295 30.012,175.2295" style="fill:none;stroke:black;stroke-width:1" />
  <polyline points="34.012,146.3796 30.012,146.3796" style="fill:none;stroke:black;stroke-width:1" />
  <polyline points="34.012,131.9546 30.012,131.9546" style="fill:none;stroke:black;stroke-width:1" />
  <polyline points="34.012,117.5297 30.012,117.5297" style="fill:none;stroke:black;stroke-width:1" />
  <polyline points="34.012,103.1047 30.012,103.1047" style="fill:none;stroke:black;stroke-width:1" />
  <polyline points="34.012,74.2548 30.012,74.2548" style="fill:none;stroke:black;stroke-width:1" />
  <polyline points="34.012,59.8299 30.012,59.8299" style="fill:none;stroke:black;stroke-width:1" />
  <polyline points="34.012,45.4049 30.012,45.4049" style="fill:none;stroke:black;stroke-width:1" />
  <polyline points="34.012,30.98 30.012,30.98" style="fill:none;stroke:black;stroke-width:1" />
  <text dominant-baseline="middle" text-anchor="end" transform="translate(23.012,305.0541)" font-family="Segoe UI" font-size="12" font-weight="400" fill="black">50</text>
  <text dominant-baseline="middle" text-anchor="end" transform="translate(23.012,232.9293)" font-family="Segoe UI" font-size="12" font-weight="400" fill="black">100</text>
  <text dominant-baseline="middle" text-anchor="end" transform="translate(23.012,160.8045)" font-family="Segoe UI" font-size="12" font-weight="400" fill="black">150</text>
  <text dominant-baseline="middle" text-anchor="end" transform="translate(23.012,88.6798)" font-family="Segoe UI" font-size="12" font-weight="400" fill="black">200</text>
  <polyline points="34.012,305.0541 27.012,305.0541" style="fill:none;stroke:black;stroke-width:1" />
  <polyline points="34.012,232.9293 27.012,232.9293" style="fill:none;stroke:black;stroke-width:1" />
  <polyline points="34.012,160.8045 27.012,160.8045" style="fill:none;stroke:black;stroke-width:1" />
  <polyline points="34.012,88.6798 27.012,88.6798" style="fill:none;stroke:black;stroke-width:1" />
  <text dominant-baseline="hanging" text-anchor="middle" transform="translate(76.6817,381.947)" font-family="Segoe UI" font-size="12" font-weight="400" fill="black">01. September</text>
  <text dominant-baseline="hanging" text-anchor="middle" transform="translate(175.1501,381.947)" font-family="Segoe UI" font-size="12" font-weight="400" fill="black">01. October</text>
  <text dominant-baseline="hanging" text-anchor="middle" transform="translate(276.9009,381.947)" font-family="Segoe UI" font-size="12" font-weight="400" fill="black">01. November</text>
  <text dominant-baseline="hanging" text-anchor="middle" transform="translate(375.3694,381.947)" font-family="Segoe UI" font-size="12" font-weight="400" fill="black">01. December</text>
  <text dominant-baseline="hanging" text-anchor="middle" transform="translate(477.1201,381.947)" font-family="Segoe UI" font-size="12" font-weight="400" fill="black">01. January</text>
  <text dominant-baseline="hanging" text-anchor="middle" transform="translate(578.8709,381.947)" font-family="Segoe UI" font-size="12" font-weight="400" fill="black">01. February</text>
  <polyline points="76.6817,370.947 76.6817,377.947" style="fill:none;stroke:black;stroke-width:1" />
  <polyline points="175.1501,370.947 175.1501,377.947" style="fill:none;stroke:black;stroke-width:1" />
  <polyline points="276.9009,370.947 276.9009,377.947" style="fill:none;stroke:black;stroke-width:1" />
  <polyline points="375.3694,370.947 375.3694,377.947" style="fill:none;stroke:black;stroke-width:1" />
  <polyline points="477.1201,370.947 477.1201,377.947" style="fill:none;stroke:black;stroke-width:1" />
  <polyline points="578.8709,370.947 578.8709,377.947" style="fill:none;stroke:black;stroke-width:1" />
  <polyline points="34.012,356.8142 37.2943,356.3899 40.5766,362.471 50.4234,358.5112 53.7057,362.471 56.988,363.0367 60.2703,363.6024 63.5525,362.471 73.3994,366.9965 76.6817,365.2994 79.964,365.8651 83.2462,365.2994 86.5285,365.2994 96.3754,365.8651 99.6576,367.5622 102.9399,365.8651 106.2222,365.2994 109.5045,363.0367 119.3513,356.8142 122.6336,352.2887 125.9159,347.1975 129.1982,346.6319 132.4805,342.1064 142.3273,347.7632 145.6096,348.3289 148.8919,352.2887 152.1742,350.5916 155.4564,351.723 165.3033,335.8838 168.5856,336.4495 171.8679,335.3182 175.1501,325.1358 178.4324,319.479 188.2793,312.6908 191.5616,313.8222 194.8438,305.9026 198.1261,304.7528 201.4084,307.6498 211.2552,292.5852 214.5375,290.847 217.8198,285.6323 221.1021,275.2029 224.3844,253.1854 234.2312,230.5885 237.5135,225.9532 240.7958,221.8974 244.0781,202.7769 247.3604,202.1975 257.2072,137.3037 260.4895,132.0891 263.7718,129.192 267.054,131.5096 270.3363,98.4834 280.1832,118.1833 283.4655,107.7539 286.7477,108.9127 290.03,101.3804 293.3123,119.3421 303.1592,90.9511 306.4414,84.5776 309.7237,58.5042 316.2883,32.4308 326.1351,61.4012 329.4174,75.8864 332.6997,84.5776 335.982,65.3847 339.2643,120.5009 349.1111,167.433 352.3934,150.6301 355.6757,153.5272 358.958,208.571 362.2402,185.974 372.0871,188.8711 375.3694,213.7856 378.6516,225.9532 381.9339,198.1416 385.2162,202.1975 395.0631,179.0211 398.3453,181.3388 401.6276,179.6005 404.9099,151.2095 408.1922,173.2271 418.039,154.1066 421.3213,144.2566 424.6036,132.6685 427.8859,145.4155 431.1682,134.4067 441.015,116.445 444.2973,117.0244 447.5796,140.7802 463.991,157.0036 467.2733,154.686 470.5556,134.4067 473.8378,136.3622 486.967,211.468 490.2492,235.2238 493.5315,250.8678 496.8138,236.962 500.0961,215.9584 513.2252,192.9269 516.5075,195.2446 519.7898,217.2621 523.0721,247.3913 532.9189,255.9086 536.2012,275.7823 539.4835,267.0912 542.7658,285.0529 546.048,285.6323 555.8949,272.3059 562.4595,279.8382 565.7417,259.5589 569.024,247.9707 578.8709,264.1942 582.1532,278.3173 585.4354,272.3059 588.7177,279.8382 592,290.847" style="fill:none;stroke:rgb(31,119,180);stroke-width:2;stroke-linejoin:bevel" />
  <text dominant-baseline="hanging" text-anchor="middle" transform="translate(313.006,8)" font-family="Segoe UI" font-size="18" font-weight="700" fill="black">7-Tage-Inzidenz Stadt Aachen 05.02.2021</text>
  <polygon points="34.012,29.0795 592,29.0795 592,370.947 34.012,370.947" style="fill:none;stroke:black;stroke-width:1" />
  <polygon points="42.012,37.0795 247.014,37.0795 247.014,63.1325 42.012,63.1325" style="fill:none;stroke:none;" />
  <text dominant-baseline="hanging" text-anchor="start" transform="translate(70.012,45.0795)" font-family="Segoe UI" font-size="12" font-weight="400" fill="black">7-Tage-Inzidenz Stadt Aachen 05.02.2021</text>
  <polyline points="50.012,50.106 66.012,50.106" style="fill:none;stroke:rgb(31,119,180);stroke-width:2" />
</svg>