<?xml version="1.0" encoding="utf-8" standalone="no"?>
<!DOCTYPE svg PUBLIC "-//W3C//DTD SVG 1.1//EN" "http://www.w3.org/Graphics/SVG/1.1/DTD/svg11.dtd">
<svg width="600" height="400" version="1.1" xmlns:xlink="http://www.w3.org/1999/xlink" xmlns="http://www.w3.org/2000/svg">
  <rect x="0" y="0" width="600" height="400" style="fill:rgb(255,255,255);stroke:none;" />
  <polyline points="34.012,355.7977 30.012,355.7977" style="fill:none;stroke:black;stroke-width:1" />
  <polyline points="34.012,338.1511 30.012,338.1511" style="fill:none;stroke:black;stroke-width:1" />
  <polyline points="34.012,302.8578 30.012,302.8578" style="fill:none;stroke:black;stroke-width:1" />
  <polyline points="34.012,285.2111 30.012,285.2111" style="fill:none;stroke:black;stroke-width:1" />
  <polyline points="34.012,267.5645 30.012,267.5645" style="fill:none;stroke:black;stroke-width:1" />
  <polyline points="34.012,232.2712 30.012,232.2712" style="fill:none;stroke:black;stroke-width:1" />
  <polyline points="34.012,214.6245 30.012,214.6245" style="fill:none;stroke:black;stroke-width:1" />
  <polyline points="34.012,196.9779 30.012,196.9779" style="fill:none;stroke:black;stroke-width:1" />
  <polyline points="34.012,161.6846 30.012,161.6846" style="fill:none;stroke:black;stroke-width:1" />
  <polyline points="34.012,144.0379 30.012,144.0379" style="fill:none;stroke:black;stroke-width:1" />
  <polyline points="34.012,126.3913 30.012,126.3913" style="fill:none;stroke:black;stroke-width:1" />
  <polyline points="34.012,91.098 30.012,91.098" style="fill:none;stroke:black;stroke-width:1" />
  <polyline points="34.012,73.4513 30.012,73.4513" style="fill:none;stroke:black;stroke-width:1" />
  <polyline points="34.012,55.8047 30.012,55.8047" style="fill:none;stroke:black;stroke-width:1" />
  <text dominant-baseline="middle" text-anchor="end" transform="translate(23.012,320.5044)" font-family="Segoe UI" font-size="12" font-weight="400" fill="black">20</text>
  <text dominant-baseline="middle" text-anchor="end" transform="translate(23.012,249.9178)" font-family="Segoe UI" font-size="12" font-weight="400" fill="black">40</text>
  <text dominant-baseline="middle" text-anchor="end" transform="translate(23.012,179.3312)" font-family="Segoe UI" font-size="12" font-weight="400" fill="black">60</text>
  <text dominant-baseline="middle" text-anchor="end" transform="translate(23.012,108.7446)" font-family="Segoe UI" font-size="12" font-weight="400" fill="black">80</text>
  <text dominant-baseline="middle" text-anchor="end" transform="translate(23.012,38.158)" font-family="Segoe UI" font-size="12" font-weight="400" fill="black">100</text>
  <polyline points="34.012,320.5044 27.012,320.5044" style="fill:none;stroke:black;stroke-width:1" />
  <polyline points="34.012,249.9178 27.012,249.9178" style="fill:none;stroke:black;stroke-width:1" />
  <polyline points="34.012,179.3312 27.012,179.3312" style="fill:none;stroke:black;stroke-width:1" />
  <polyline points="34.012,108.7446 27.012,108.7446" style="fill:none;stroke:black;stroke-width:1" />
  <polyline points="34.012,38.158 27.012,38.158" style="fill:none;stroke:black;stroke-width:1" />
  <text dominant-baseline="hanging" text-anchor="middle" transform="translate(61.454,381.947)" font-family="Segoe UI" font-size="12" font-weight="400" fill="black">22. August</text>
  <text dominant-baseline="hanging" text-anchor="middle" transform="translate(125.4854,381.947)" font-family="Segoe UI" font-size="12" font-weight="400" fill="black">29. August</text>
  <text dominant-baseline="hanging" text-anchor="middle" transform="translate(189.5169,381.947)" font-family="Segoe UI" font-size="12" font-weight="400" fill="black">05. September</text>
  <text dominant-baseline="hanging" text-anchor="middle" transform="translate(253.5483,381.947)" font-family="Segoe UI" font-size="12" font-weight="400" fill="black">12. September</text>
  <text dominant-baseline="hanging" text-anchor="middle" transform="translate(317.5797,381.947)" font-family="Segoe UI" font-size="12" font-weight="400" fill="black">19. September</text>
  <text dominant-baseline="hanging" text-anchor="middle" transform="translate(381.6111,381.947)" font-family="Segoe UI" font-size="12" font-weight="400" fill="black">26. September</text>
  <text dominant-baseline="hanging" text-anchor="middle" transform="translate(445.6425,381.947)" font-family="Segoe UI" font-size="12" font-weight="400" fill="black">03. October</text>
  <text dominant-baseline="hanging" text-anchor="middle" transform="translate(509.6739,381.947)" font-family="Segoe UI" font-size="12" font-weight="400" fill="black">10. October</text>
  <text dominant-baseline="hanging" text-anchor="middle" transform="translate(573.7053,381.947)" font-family="Segoe UI" font-size="12" font-weight="400" fill="black">17. October</text>
  <polyline points="61.454,370.947 61.454,377.947" style="fill:none;stroke:black;stroke-width:1" />
  <polyline points="125.4854,370.947 125.4854,377.947" style="fill:none;stroke:black;stroke-width:1" />
  <polyline points="189.5169,370.947 189.5169,377.947" style="fill:none;stroke:black;stroke-width:1" />
  <polyline points="253.5483,370.947 253.5483,377.947" style="fill:none;stroke:black;stroke-width:1" />
  <polyline points="317.5797,370.947 317.5797,377.947" style="fill:none;stroke:black;stroke-width:1" />
  <polyline points="381.6111,370.947 381.6111,377.947" style="fill:none;stroke:black;stroke-width:1" />
  <polyline points="445.6425,370.947 445.6425,377.947" style="fill:none;stroke:black;stroke-width:1" />
  <polyline points="509.6739,370.947 509.6739,377.947" style="fill:none;stroke:black;stroke-width:1" />
  <polyline points="573.7053,370.947 573.7053,377.947" style="fill:none;stroke:black;stroke-width:1" />
  <polyline points="34.012,341.2652 43.1593,340.2272 52.3067,355.1057 79.7487,345.4174 88.8961,355.1057 98.0434,356.4898 107.1908,357.8738 116.3381,355.1057 143.7801,366.1781 152.9275,362.026 162.0748,363.41 171.2222,362.026 180.3695,362.026 207.8115,363.41 216.9589,367.5622 226.1062,363.41 235.2536,362.026 244.4009,356.4898 271.843,341.2652 280.9903,330.1928 290.1376,317.7363 299.285,316.3523 308.4323,305.2799 335.8744,319.1204 345.0217,320.5044 354.169,330.1928 363.3164,326.0406 372.4637,328.8087 399.9058,290.0553 409.0531,291.4394 418.2005,288.6713 427.3478,263.7583 436.4951,249.9178 463.9372,233.3092 473.0845,236.0773 482.2319,216.7006 491.3792,213.8874 500.5266,220.9755 527.9686,184.1172 537.1159,179.8643 546.2633,167.1056 555.4106,141.5883 564.558,87.7184 592,32.4308" style="fill:none;stroke:rgb(31,119,180);stroke-width:2;stroke-linejoin:bevel" />
  <text dominant-baseline="hanging" text-anchor="middle" transform="translate(313.006,8)" font-family="Segoe UI" font-size="18" font-weight="700" fill="black">7-Tage-Inzidenz Stadt Aachen 19.10.2020</text>
  <polygon points="34.012,29.0795 592,29.0795 592,370.947 34.012,370.947" style="fill:none;stroke:black;stroke-width:1" />
  <polygon points="42.012,37.0795 247.014,37.0795 247.014,63.1325 42.012,63.1325" style="fill:none;stroke:none;" />
  <text dominant-baseline="hanging" text-anchor="start" transform="translate(70.012,45.0795)" font-family="Segoe UI" font-size="12" font-weight="400" fill="black">7-Tage-Inzidenz Stadt Aachen 19.10.2020</text>
  <polyline points="50.012,50.106 66.012,50.106" style="fill:none;stroke:rgb(31,119,180);stroke-width:2" />
</svg>