<?xml version="1.0" encoding="utf-8" standalone="no"?>
<!DOCTYPE svg PUBLIC "-//W3C//DTD SVG 1.1//EN" "http://www.w3.org/Graphics/SVG/1.1/DTD/svg11.dtd">
<svg width="600" height="400" version="1.1" xmlns:xlink="http://www.w3.org/1999/xlink" xmlns="http://www.w3.org/2000/svg">
  <rect x="0" y="0" width="600" height="400" style="fill:rgb(255,255,255);stroke:none;" />
  <polyline points="34.012,362.7539 30.012,362.7539" style="fill:none;stroke:black;stroke-width:1" />
  <polyline points="34.012,348.3289 30.012,348.3289" style="fill:none;stroke:black;stroke-width:1" />
  <polyline points="34.012,333.904 30.012,333.904" style="fill:none;stroke:black;stroke-width:1" />
  <polyline points="34.012,319.479 30.012,319.479" style="fill:none;stroke:black;stroke-width:1" />
  <polyline points="34.012,290.6291 30.012,290.6291" style="fill:none;stroke:black;stroke-width:1" />
  <polyline points="34.012,276.2041 30.012,276.2041" style="fill:none;stroke:black;stroke-width:1" />
  <polyline points="34.012,261.7792 30.012,261.7792" style="fill:none;stroke:black;stroke-width:1" />
  <polyline points="34.012,247.3542 30.012,247.3542" style="fill:none;stroke:black;stroke-width:1" />
  <polyline points="34.012,218.5043 30.012,218.5043" style="fill:none;stroke:black;stroke-width:1" />
  <polyline points="34.012,204.0794 30.012,204.0794" style="fill:none;stroke:black;stroke-width:1" />
  <polyline points="34.012,189.6544 30.012,189.6544" style="fill:none;stroke:black;stroke-width:1" />
  <polyline points="34.012,175.2295 30.012,175.2295" style="fill:none;stroke:black;stroke-width:1" />
  <polyline points="34.012,146.3796 30.012,146.3796" style="fill:none;stroke:black;stroke-width:1" />
  <polyline points="34.012,131.9546 30.012,131.9546" style="fill:none;stroke:black;stroke-width:1" />
  <polyline points="34.012,117.5297 30.012,117.5297" style="fill:none;stroke:black;stroke-width:1" />
  <polyline points="34.012,103.1047 30.012,103.1047" style="fill:none;stroke:black;stroke-width:1" />
  <polyline points="34.012,74.2548 30.012,74.2548" style="fill:none;stroke:black;stroke-width:1" />
  <polyline points="34.012,59.8299 30.012,59.8299" style="fill:none;stroke:black;stroke-width:1" />
  <polyline points="34.012,45.4049 30.012,45.4049" style="fill:none;stroke:black;stroke-width:1" />
  <polyline points="34.012,30.98 30.012,30.98" style="fill:none;stroke:black;stroke-width:1" />
  <polyline points="58.5182,370.947 58.5182,374.947" style="fill:none;stroke:black;stroke-width:1" />
  <polyline points="173.509,370.947 173.509,374.947" style="fill:none;stroke:black;stroke-width:1" />
  <polyline points="288.4998,370.947 288.4998,374.947" style="fill:none;stroke:black;stroke-width:1" />
  <polyline points="399.7204,370.947 399.7204,374.947" style="fill:none;stroke:black;stroke-width:1" />
  <polyline points="514.7111,370.947 514.7111,374.947" style="fill:none;stroke:black;stroke-width:1" />
  <text dominant-baseline="middle" text-anchor="end" transform="translate(23.012,305.0541)" font-family="Segoe UI" font-size="12" font-weight="400" fill="black">50</text>
  <text dominant-baseline="middle" text-anchor="end" transform="translate(23.012,232.9293)" font-family="Segoe UI" font-size="12" font-weight="400" fill="black">100</text>
  <text dominant-baseline="middle" text-anchor="end" transform="translate(23.012,160.8045)" font-family="Segoe UI" font-size="12" font-weight="400" fill="black">150</text>
  <text dominant-baseline="middle" text-anchor="end" transform="translate(23.012,88.6798)" font-family="Segoe UI" font-size="12" font-weight="400" fill="black">200</text>
  <polyline points="34.012,305.0541 27.012,305.0541" style="fill:none;stroke:black;stroke-width:1" />
  <polyline points="34.012,232.9293 27.012,232.9293" style="fill:none;stroke:black;stroke-width:1" />
  <polyline points="34.012,160.8045 27.012,160.8045" style="fill:none;stroke:black;stroke-width:1" />
  <polyline points="34.012,88.6798 27.012,88.6798" style="fill:none;stroke:black;stroke-width:1" />
  <text dominant-baseline="hanging" text-anchor="middle" transform="translate(115.0711,381.947)" font-family="Segoe UI" font-size="12" font-weight="400" fill="black">01. October</text>
  <text dominant-baseline="hanging" text-anchor="middle" transform="translate(230.0618,381.947)" font-family="Segoe UI" font-size="12" font-weight="400" fill="black">01. December</text>
  <text dominant-baseline="hanging" text-anchor="middle" transform="translate(346.9377,381.947)" font-family="Segoe UI" font-size="12" font-weight="400" fill="black">01. February</text>
  <text dominant-baseline="hanging" text-anchor="middle" transform="translate(458.1583,381.947)" font-family="Segoe UI" font-size="12" font-weight="400" fill="black">01. April</text>
  <text dominant-baseline="hanging" text-anchor="middle" transform="translate(573.1491,381.947)" font-family="Segoe UI" font-size="12" font-weight="400" fill="black">01. June</text>
  <polyline points="115.0711,370.947 115.0711,377.947" style="fill:none;stroke:black;stroke-width:1" />
  <polyline points="230.0618,370.947 230.0618,377.947" style="fill:none;stroke:black;stroke-width:1" />
  <polyline points="346.9377,370.947 346.9377,377.947" style="fill:none;stroke:black;stroke-width:1" />
  <polyline points="458.1583,370.947 458.1583,377.947" style="fill:none;stroke:black;stroke-width:1" />
  <polyline points="573.1491,370.947 573.1491,377.947" style="fill:none;stroke:black;stroke-width:1" />
  <polyline points="34.012,356.8142 35.8971,356.3899 37.7822,362.471 43.4375,358.5112 45.3226,362.471 47.2077,363.0367 49.0928,363.6024 50.9779,362.471 56.6331,366.9965 58.5182,365.2994 60.4033,365.8651 62.2884,365.2994 64.1735,365.2994 69.8288,365.8651 71.7139,367.5622 73.599,365.8651 75.4841,365.2994 77.3692,363.0367 83.0245,356.8142 84.9096,352.2887 86.7946,347.1975 88.6797,346.6319 90.5648,342.1064 96.2201,347.7632 98.1052,348.3289 99.9903,352.2887 101.8754,350.5916 103.7605,351.723 109.4158,335.8838 111.3009,336.4495 113.186,335.3182 115.0711,325.1358 116.9562,319.479 122.6114,312.6908 124.4965,313.8222 126.3816,305.9026 128.2667,304.7528 130.1518,307.6498 135.8071,292.5852 137.6922,290.847 139.5773,285.6323 141.4624,275.2029 143.3475,253.1854 149.0028,230.5885 150.8879,225.9532 152.773,221.8974 154.6581,202.7769 156.5431,202.1975 162.1984,137.3037 164.0835,132.0891 165.9686,129.192 167.8537,131.5096 169.7388,98.4834 175.3941,118.1833 177.2792,107.7539 179.1643,108.9127 181.0494,101.3804 182.9345,119.3421 188.5898,90.9511 190.4749,84.5776 192.3599,58.5042 196.1301,32.4308 201.7854,61.4012 203.6705,75.8864 205.5556,84.5776 207.4407,65.3847 209.3258,120.5009 214.9811,167.433 216.8662,150.6301 218.7513,153.5272 220.6364,208.571 222.5215,185.974 228.1767,188.8711 230.0618,213.7856 231.9469,225.9532 233.832,198.1416 235.7171,202.1975 241.3724,179.0211 243.2575,181.3388 245.1426,179.6005 247.0277,151.2095 248.9128,173.2271 254.5681,154.1066 256.4532,144.2566 258.3383,132.6685 260.2234,145.4155 262.1084,134.4067 267.7637,116.445 269.6488,117.0244 271.5339,140.7802 280.9594,157.0036 282.8445,154.686 284.7296,134.4067 286.6147,136.3622 294.1551,211.468 296.0401,235.2238 297.9252,250.8678 299.8103,236.962 301.6954,215.9584 309.2358,192.9269 311.1209,195.2446 313.006,217.2621 314.8911,247.3913 320.5464,255.9086 322.4315,275.7823 324.3166,267.0912 326.2017,285.0529 328.0868,285.6323 333.742,272.3059 337.5122,279.8382 339.3973,259.5589 341.2824,247.9707 346.9377,264.1942 348.8228,278.3173 350.7079,272.3059 352.593,279.8382 354.4781,290.847 360.1334,293.744 362.0185,290.847 363.9036,275.2029 365.7886,276.3617 367.6737,269.4088 373.329,283.8941 375.2141,285.6323 377.0992,306.491 378.9843,313.4439 380.8694,329.6673 386.5247,329.6673 388.4098,330.8261 390.2949,321.5556 392.18,322.135 394.0651,317.4997 399.7204,329.0879 401.6054,327.9291 403.4905,323.8732 405.3756,300.6969 407.2607,294.9028 412.916,265.353 414.8011,265.353 416.6862,263.6148 418.5713,278.6794 420.4564,272.3059 426.1117,261.8765 427.9968,262.4559 429.8819,254.9236 431.767,226.5326 433.6521,208.571 439.3073,200.4592 441.1924,199.8798 443.0775,204.5151 444.9626,192.9269 446.8477,205.6739 452.503,224.215 454.3881,220.7385 456.2732,227.6914 458.1583,243.9149 460.0434,218.4209 467.5838,205.0945 469.4689,220.1591 471.3539,201.6181 473.239,235.2238 478.8943,225.8953 480.7794,216.1033 482.6645,168.0124 484.5496,188.8711 486.4347,184.8152 492.09,176.1241 493.9751,157.0036 495.8602,162.2183 497.7453,148.3125 499.6304,123.9773 505.2856,104.8569 507.1707,121.0803 509.0558,135.5655 510.9409,129.7714 512.826,132.6685 518.4813,158.7418 520.3664,146.5743 522.2515,140.2008 524.1366,173.8065 526.0217,194.0858 531.677,203.9357 533.5621,213.2062 535.4472,225.9532 539.2174,193.5063 544.8726,196.4034 546.7577,181.9182 548.6428,176.1241 550.5279,180.4697 552.413,216.1033 559.9534,264.1942 561.8385,289.1087 563.7236,298.9587 565.6087,302.4351 571.264,310.2571 573.1491,315.1821 575.0341,314.0233 578.8043,334.882 584.4596,350.526 586.3447,355.7407 588.2298,360.376 590.1149,359.4344 592,365.0112" style="fill:none;stroke:rgb(31,119,180);stroke-width:2;stroke-linejoin:bevel" />
  <text dominant-baseline="hanging" text-anchor="middle" transform="translate(313.006,8)" font-family="Segoe UI" font-size="18" font-weight="700" fill="black">7-Tage-Inzidenz Stadt Aachen 11.06.2021</text>
  <polygon points="34.012,29.0795 592,29.0795 592,370.947 34.012,370.947" style="fill:none;stroke:black;stroke-width:1" />
  <polygon points="42.012,37.0795 247.014,37.0795 247.014,63.1325 42.012,63.1325" style="fill:none;stroke:none;" />
  <text dominant-baseline="hanging" text-anchor="start" transform="translate(70.012,45.0795)" font-family="Segoe UI" font-size="12" font-weight="400" fill="black">7-Tage-Inzidenz Stadt Aachen 11.06.2021</text>
  <polyline points="50.012,50.106 66.012,50.106" style="fill:none;stroke:rgb(31,119,180);stroke-width:2" />
</svg>