<?xml version="1.0" encoding="utf-8" standalone="no"?>
<!DOCTYPE svg PUBLIC "-//W3C//DTD SVG 1.1//EN" "http://www.w3.org/Graphics/SVG/1.1/DTD/svg11.dtd">
<svg width="600" height="400" version="1.1" xmlns:xlink="http://www.w3.org/1999/xlink" xmlns="http://www.w3.org/2000/svg">
  <rect x="0" y="0" width="600" height="400" style="fill:rgb(255,255,255);stroke:none;" />
  <polyline points="34.012,353.4851 30.012,353.4851" style="fill:none;stroke:black;stroke-width:1" />
  <polyline points="34.012,339.4649 30.012,339.4649" style="fill:none;stroke:black;stroke-width:1" />
  <polyline points="34.012,325.4447 30.012,325.4447" style="fill:none;stroke:black;stroke-width:1" />
  <polyline points="34.012,311.4245 30.012,311.4245" style="fill:none;stroke:black;stroke-width:1" />
  <polyline points="34.012,283.3841 30.012,283.3841" style="fill:none;stroke:black;stroke-width:1" />
  <polyline points="34.012,269.3639 30.012,269.3639" style="fill:none;stroke:black;stroke-width:1" />
  <polyline points="34.012,255.3438 30.012,255.3438" style="fill:none;stroke:black;stroke-width:1" />
  <polyline points="34.012,241.3236 30.012,241.3236" style="fill:none;stroke:black;stroke-width:1" />
  <polyline points="34.012,213.2832 30.012,213.2832" style="fill:none;stroke:black;stroke-width:1" />
  <polyline points="34.012,199.263 30.012,199.263" style="fill:none;stroke:black;stroke-width:1" />
  <polyline points="34.012,185.2428 30.012,185.2428" style="fill:none;stroke:black;stroke-width:1" />
  <polyline points="34.012,171.2226 30.012,171.2226" style="fill:none;stroke:black;stroke-width:1" />
  <polyline points="34.012,143.1822 30.012,143.1822" style="fill:none;stroke:black;stroke-width:1" />
  <polyline points="34.012,129.162 30.012,129.162" style="fill:none;stroke:black;stroke-width:1" />
  <polyline points="34.012,115.1418 30.012,115.1418" style="fill:none;stroke:black;stroke-width:1" />
  <polyline points="34.012,101.1216 30.012,101.1216" style="fill:none;stroke:black;stroke-width:1" />
  <polyline points="34.012,73.0813 30.012,73.0813" style="fill:none;stroke:black;stroke-width:1" />
  <polyline points="34.012,59.0611 30.012,59.0611" style="fill:none;stroke:black;stroke-width:1" />
  <polyline points="34.012,45.0409 30.012,45.0409" style="fill:none;stroke:black;stroke-width:1" />
  <polyline points="34.012,31.0207 30.012,31.0207" style="fill:none;stroke:black;stroke-width:1" />
  <text dominant-baseline="middle" text-anchor="end" transform="translate(23.012,367.5053)" font-family="Segoe UI" font-size="12" font-weight="400" fill="black">0</text>
  <text dominant-baseline="middle" text-anchor="end" transform="translate(23.012,297.4043)" font-family="Segoe UI" font-size="12" font-weight="400" fill="black">50</text>
  <text dominant-baseline="middle" text-anchor="end" transform="translate(23.012,227.3034)" font-family="Segoe UI" font-size="12" font-weight="400" fill="black">100</text>
  <text dominant-baseline="middle" text-anchor="end" transform="translate(23.012,157.2024)" font-family="Segoe UI" font-size="12" font-weight="400" fill="black">150</text>
  <text dominant-baseline="middle" text-anchor="end" transform="translate(23.012,87.1015)" font-family="Segoe UI" font-size="12" font-weight="400" fill="black">200</text>
  <polyline points="34.012,367.5053 27.012,367.5053" style="fill:none;stroke:black;stroke-width:1" />
  <polyline points="34.012,297.4043 27.012,297.4043" style="fill:none;stroke:black;stroke-width:1" />
  <polyline points="34.012,227.3034 27.012,227.3034" style="fill:none;stroke:black;stroke-width:1" />
  <polyline points="34.012,157.2024 27.012,157.2024" style="fill:none;stroke:black;stroke-width:1" />
  <polyline points="34.012,87.1015 27.012,87.1015" style="fill:none;stroke:black;stroke-width:1" />
  <text dominant-baseline="hanging" text-anchor="middle" transform="translate(216.5795,381.947)" font-family="Segoe UI" font-size="12" font-weight="400" fill="black">01. January</text>
  <polyline points="216.5795,370.947 216.5795,377.947" style="fill:none;stroke:black;stroke-width:1" />
  <polyline points="34.012,367.5622 36.5834,367.5621 40.4404,367.5621 41.7261,367.562 43.0118,347.7121 44.2975,347.2997 45.5832,353.2102 49.4402,349.3615 50.7259,353.2102 52.0116,353.76 53.2973,354.3098 54.583,353.2102 58.44,357.6087 59.7257,355.9593 61.0114,356.5091 62.2971,355.9593 63.5828,355.9593 67.4399,356.5091 68.7255,358.1585 70.0112,356.5091 71.2969,355.9593 72.5826,353.76 76.4397,347.7121 77.7253,343.3136 79.011,338.3653 80.2967,337.8155 81.5824,333.417 85.4395,338.9151 86.7252,339.4649 88.0108,343.3136 89.2965,341.6642 90.5822,342.7638 94.4393,327.3691 95.725,327.9189 97.0106,326.8192 98.2963,316.9226 99.582,311.4245 103.4391,304.8268 104.7248,305.9264 106.0105,298.229 107.2961,297.1115 108.5818,299.9272 112.4389,285.2853 113.7246,283.5959 115.0103,278.5275 116.2959,268.3908 117.5816,246.9911 121.4387,225.0282 122.7244,220.523 124.0101,216.581 125.2958,197.997 126.5814,197.4339 130.4385,134.361 131.7242,129.2927 133.0099,126.4769 134.2956,128.7295 135.5812,96.63 139.4383,115.7771 140.724,105.6404 142.0097,106.7667 143.2954,99.4457 144.5811,116.9034 148.4381,89.309 149.7238,83.1143 151.0095,57.7726 153.5809,32.4308 157.4379,60.5883 158.7236,74.6671 160.0093,83.1143 161.295,64.46 162.5807,118.0297 166.4377,163.6449 167.7234,147.3135 169.0091,150.1292 170.2948,203.6285 171.5805,181.6657 175.4375,184.4814 176.7232,208.6969 178.0089,220.523 179.2946,193.4918 180.5803,197.4339 184.4373,174.9079 185.723,177.1605 187.0087,175.471 188.2944,147.8766 189.5801,169.2764 193.4371,150.6924 194.7228,141.1188 196.0085,129.8558 197.2942,142.2451 198.5799,131.5453 202.4369,114.0876 203.7226,114.6508 205.0083,137.7399 211.4368,153.5081 212.7224,151.2555 214.0081,131.5453 215.2938,133.4459 220.4366,206.4443 221.7222,229.5334 223.0079,244.7385 224.2936,231.2229 225.5793,210.8087 230.7221,188.4235 232.0077,190.6761 233.2934,212.0758 234.5791,241.3596 238.4362,249.6379 239.7219,268.954 241.0075,260.5067 242.2932,277.9644 243.5789,278.5275 247.436,265.5751 250.0074,272.896 251.293,253.1858 252.5787,241.9228 256.4358,257.691 257.7215,271.4178 259.0072,265.5751 260.2928,272.896 261.5785,283.5959 265.4356,286.4116 266.7213,283.5959 268.007,268.3908 269.2927,269.5171 270.5783,262.7593 274.4354,276.8381 275.7211,278.5275 277.0068,298.8009 278.2925,305.5587 279.5781,321.327 283.4352,321.327 284.7209,322.4533 286.0066,313.4429 287.2923,314.006 288.578,309.5008 292.435,320.7638 293.7207,319.6375 295.0064,315.6955 296.2921,293.1694 297.5778,287.5379 301.4348,258.8173 302.7205,258.8173 304.0062,257.1278 305.2919,271.7697 306.5776,265.5751 310.4346,255.4384 311.7203,256.0015 313.006,248.6806 314.2917,221.0862 315.5774,203.6285 319.4344,195.7444 320.7201,195.1813 322.0058,199.6865 323.2915,188.4235 324.5772,200.8128 328.4342,218.8336 329.7199,215.4547 331.0056,222.2125 332.2913,237.9807 333.577,213.2021 338.7197,200.2496 340.0054,214.8915 341.2911,196.8707 342.5768,229.5334 346.4339,220.4667 347.7195,210.9495 349.0052,164.208 350.2909,184.4814 351.5766,180.5394 355.4337,172.0921 356.7193,153.5081 358.005,158.5765 359.2907,145.0609 360.5764,121.4086 364.4335,102.8246 365.7192,118.5928 367.0048,132.6716 368.2905,127.0401 369.5762,129.8558 373.4333,155.1976 374.719,143.3714 376.0046,137.1768 377.2903,169.8395 378.576,189.5498 382.4331,199.1233 383.7188,208.1337 385.0045,220.523 387.5758,188.9866 391.4329,191.8024 392.7186,177.7236 394.0043,172.0921 395.2899,176.3157 396.5756,210.9495 401.7184,257.691 403.0041,281.9064 404.2898,291.48 405.5754,294.8589 409.4325,302.4614 410.7182,307.2482 412.0039,306.1219 414.5752,326.3953 418.4323,341.6004 419.718,346.6687 421.0037,351.1739 422.2894,350.2588 423.5751,355.6791 427.4321,358.4949 428.7178,357.3686 430.0035,357.3686 431.2892,356.2423 432.5749,353.4265 436.4319,353.4265 437.7176,352.8634 439.0033,356.2423 440.289,359.6212 441.5747,361.3106 445.4317,360.7475 446.7174,362.4369 448.0031,359.058 449.2888,355.6791 450.5745,356.8054 454.4315,356.8054 457.0029,357.3686 459.5743,359.6212 463.4313,360.7475 466.0027,353.9897 468.5741,343.2898 475.0025,332.0268 477.5739,317.9481 484.0023,316.2586 486.5737,329.7742 493.0021,329.2111 495.5735,323.0164 502.0019,294.8589 504.5733,262.7593 511.0017,253.7489 513.5731,268.3908 520.0015,201.3759 522.5729,191.8024 529.0014,233.4755 531.5727,222.2125 540.5725,240.2333 549.5723,272.896 556.0008,284.7222 558.5721,290.9168 565.0006,295.422 567.572,306.6851 574.0004,321.8901 576.5718,321.8901 583.0002,321.327 585.5716,320.7638 592,320.7638" style="fill:none;stroke:rgb(31,119,180);stroke-width:2;stroke-linejoin:bevel" />
  <text dominant-baseline="hanging" text-anchor="middle" transform="translate(313.006,8)" font-family="Segoe UI" font-size="18" font-weight="700" fill="black">7-Tage-Inzidenz Stadt Aachen 20.10.2021</text>
  <polygon points="34.012,29.0795 592,29.0795 592,370.947 34.012,370.947" style="fill:none;stroke:black;stroke-width:1" />
  <polygon points="42.012,37.0795 247.014,37.0795 247.014,63.1325 42.012,63.1325" style="fill:none;stroke:none;" />
  <text dominant-baseline="hanging" text-anchor="start" transform="translate(70.012,45.0795)" font-family="Segoe UI" font-size="12" font-weight="400" fill="black">7-Tage-Inzidenz Stadt Aachen 20.10.2021</text>
  <polyline points="50.012,50.106 66.012,50.106" style="fill:none;stroke:rgb(31,119,180);stroke-width:2" />
</svg>