<?xml version="1.0" encoding="utf-8" standalone="no"?>
<!DOCTYPE svg PUBLIC "-//W3C//DTD SVG 1.1//EN" "http://www.w3.org/Graphics/SVG/1.1/DTD/svg11.dtd">
<svg width="600" height="400" version="1.1" xmlns:xlink="http://www.w3.org/1999/xlink" xmlns="http://www.w3.org/2000/svg">
  <rect x="0" y="0" width="600" height="400" style="fill:rgb(255,255,255);stroke:none;" />
  <polyline points="29.008,357.2999 25.008,357.2999" style="fill:none;stroke:black;stroke-width:1" />
  <polyline points="29.008,326.5131 25.008,326.5131" style="fill:none;stroke:black;stroke-width:1" />
  <polyline points="29.008,311.1197 25.008,311.1197" style="fill:none;stroke:black;stroke-width:1" />
  <polyline points="29.008,295.7263 25.008,295.7263" style="fill:none;stroke:black;stroke-width:1" />
  <polyline points="29.008,280.3329 25.008,280.3329" style="fill:none;stroke:black;stroke-width:1" />
  <polyline points="29.008,249.5461 25.008,249.5461" style="fill:none;stroke:black;stroke-width:1" />
  <polyline points="29.008,234.1527 25.008,234.1527" style="fill:none;stroke:black;stroke-width:1" />
  <polyline points="29.008,218.7593 25.008,218.7593" style="fill:none;stroke:black;stroke-width:1" />
  <polyline points="29.008,203.3659 25.008,203.3659" style="fill:none;stroke:black;stroke-width:1" />
  <polyline points="29.008,172.5791 25.008,172.5791" style="fill:none;stroke:black;stroke-width:1" />
  <polyline points="29.008,157.1856 25.008,157.1856" style="fill:none;stroke:black;stroke-width:1" />
  <polyline points="29.008,141.7922 25.008,141.7922" style="fill:none;stroke:black;stroke-width:1" />
  <polyline points="29.008,126.3988 25.008,126.3988" style="fill:none;stroke:black;stroke-width:1" />
  <polyline points="29.008,95.612 25.008,95.612" style="fill:none;stroke:black;stroke-width:1" />
  <polyline points="29.008,80.2186 25.008,80.2186" style="fill:none;stroke:black;stroke-width:1" />
  <polyline points="29.008,64.8252 25.008,64.8252" style="fill:none;stroke:black;stroke-width:1" />
  <polyline points="29.008,49.4318 25.008,49.4318" style="fill:none;stroke:black;stroke-width:1" />
  <text dominant-baseline="middle" text-anchor="end" transform="translate(18.008,341.9065)" font-family="Segoe UI" font-size="12" font-weight="400" fill="black">10</text>
  <text dominant-baseline="middle" text-anchor="end" transform="translate(18.008,264.9395)" font-family="Segoe UI" font-size="12" font-weight="400" fill="black">20</text>
  <text dominant-baseline="middle" text-anchor="end" transform="translate(18.008,187.9725)" font-family="Segoe UI" font-size="12" font-weight="400" fill="black">30</text>
  <text dominant-baseline="middle" text-anchor="end" transform="translate(18.008,111.0054)" font-family="Segoe UI" font-size="12" font-weight="400" fill="black">40</text>
  <text dominant-baseline="middle" text-anchor="end" transform="translate(18.008,34.0384)" font-family="Segoe UI" font-size="12" font-weight="400" fill="black">50</text>
  <polyline points="29.008,341.9065 22.008,341.9065" style="fill:none;stroke:black;stroke-width:1" />
  <polyline points="29.008,264.9395 22.008,264.9395" style="fill:none;stroke:black;stroke-width:1" />
  <polyline points="29.008,187.9725 22.008,187.9725" style="fill:none;stroke:black;stroke-width:1" />
  <polyline points="29.008,111.0054 22.008,111.0054" style="fill:none;stroke:black;stroke-width:1" />
  <polyline points="29.008,34.0384 22.008,34.0384" style="fill:none;stroke:black;stroke-width:1" />
  <text dominant-baseline="hanging" text-anchor="middle" transform="translate(62.1252,381.947)" font-family="Segoe UI" font-size="12" font-weight="400" fill="black">22. August</text>
  <text dominant-baseline="hanging" text-anchor="middle" transform="translate(139.3986,381.947)" font-family="Segoe UI" font-size="12" font-weight="400" fill="black">29. August</text>
  <text dominant-baseline="hanging" text-anchor="middle" transform="translate(216.672,381.947)" font-family="Segoe UI" font-size="12" font-weight="400" fill="black">05. September</text>
  <text dominant-baseline="hanging" text-anchor="middle" transform="translate(293.9454,381.947)" font-family="Segoe UI" font-size="12" font-weight="400" fill="black">12. September</text>
  <text dominant-baseline="hanging" text-anchor="middle" transform="translate(371.2188,381.947)" font-family="Segoe UI" font-size="12" font-weight="400" fill="black">19. September</text>
  <text dominant-baseline="hanging" text-anchor="middle" transform="translate(448.4922,381.947)" font-family="Segoe UI" font-size="12" font-weight="400" fill="black">26. September</text>
  <text dominant-baseline="hanging" text-anchor="middle" transform="translate(525.7656,381.947)" font-family="Segoe UI" font-size="12" font-weight="400" fill="black">03. October</text>
  <polyline points="62.1252,370.947 62.1252,377.947" style="fill:none;stroke:black;stroke-width:1" />
  <polyline points="139.3986,370.947 139.3986,377.947" style="fill:none;stroke:black;stroke-width:1" />
  <polyline points="216.672,370.947 216.672,377.947" style="fill:none;stroke:black;stroke-width:1" />
  <polyline points="293.9454,370.947 293.9454,377.947" style="fill:none;stroke:black;stroke-width:1" />
  <polyline points="371.2188,370.947 371.2188,377.947" style="fill:none;stroke:black;stroke-width:1" />
  <polyline points="448.4922,370.947 448.4922,377.947" style="fill:none;stroke:black;stroke-width:1" />
  <polyline points="525.7656,370.947 525.7656,377.947" style="fill:none;stroke:black;stroke-width:1" />
  <polyline points="29.008,310.2142 40.0471,307.9505 51.0861,340.3973 84.2033,319.2691 95.2424,340.3973 106.2814,343.4157 117.3205,346.434 128.3595,340.3973 161.4767,364.5439 172.5158,355.4889 183.5548,358.5072 194.5939,355.4889 205.6329,355.4889 238.7501,358.5072 249.7892,367.5622 260.8282,358.5072 271.8673,355.4889 282.9064,343.4157 316.0235,310.2142 327.0626,286.0677 338.1016,258.9028 349.1407,255.8845 360.1798,231.738 393.2969,261.9212 404.336,264.9395 415.3751,286.0677 426.4141,277.0127 437.4532,283.0494 470.5704,198.5366 481.6094,201.5549 492.6485,195.5182 503.6875,141.1886 514.7266,111.0054 547.8438,74.7857 558.8828,80.8223 569.9219,38.5659 580.9609,32.4308 592,47.8885" style="fill:none;stroke:rgb(31,119,180);stroke-width:2;stroke-linejoin:bevel" />
  <text dominant-baseline="hanging" text-anchor="middle" transform="translate(310.504,8)" font-family="Segoe UI" font-size="18" font-weight="700" fill="black">7-Tage-Inzidenz Stadt Aachen 09.10.2020</text>
  <polygon points="29.008,29.0795 592,29.0795 592,370.947 29.008,370.947" style="fill:none;stroke:black;stroke-width:1" />
  <polygon points="37.008,37.0795 242.01,37.0795 242.01,63.1325 37.008,63.1325" style="fill:none;stroke:none;" />
  <text dominant-baseline="hanging" text-anchor="start" transform="translate(65.008,45.0795)" font-family="Segoe UI" font-size="12" font-weight="400" fill="black">7-Tage-Inzidenz Stadt Aachen 09.10.2020</text>
  <polyline points="45.008,50.106 61.008,50.106" style="fill:none;stroke:rgb(31,119,180);stroke-width:2" />
</svg>