<?xml version="1.0" encoding="utf-8" standalone="no"?>
<!DOCTYPE svg PUBLIC "-//W3C//DTD SVG 1.1//EN" "http://www.w3.org/Graphics/SVG/1.1/DTD/svg11.dtd">
<svg width="600" height="400" version="1.1" xmlns:xlink="http://www.w3.org/1999/xlink" xmlns="http://www.w3.org/2000/svg">
  <rect x="0" y="0" width="600" height="400" style="fill:rgb(255,255,255);stroke:none;" />
  <polyline points="34.012,353.4851 30.012,353.4851" style="fill:none;stroke:black;stroke-width:1" />
  <polyline points="34.012,339.4649 30.012,339.4649" style="fill:none;stroke:black;stroke-width:1" />
  <polyline points="34.012,325.4447 30.012,325.4447" style="fill:none;stroke:black;stroke-width:1" />
  <polyline points="34.012,311.4245 30.012,311.4245" style="fill:none;stroke:black;stroke-width:1" />
  <polyline points="34.012,283.3841 30.012,283.3841" style="fill:none;stroke:black;stroke-width:1" />
  <polyline points="34.012,269.3639 30.012,269.3639" style="fill:none;stroke:black;stroke-width:1" />
  <polyline points="34.012,255.3438 30.012,255.3438" style="fill:none;stroke:black;stroke-width:1" />
  <polyline points="34.012,241.3236 30.012,241.3236" style="fill:none;stroke:black;stroke-width:1" />
  <polyline points="34.012,213.2832 30.012,213.2832" style="fill:none;stroke:black;stroke-width:1" />
  <polyline points="34.012,199.263 30.012,199.263" style="fill:none;stroke:black;stroke-width:1" />
  <polyline points="34.012,185.2428 30.012,185.2428" style="fill:none;stroke:black;stroke-width:1" />
  <polyline points="34.012,171.2226 30.012,171.2226" style="fill:none;stroke:black;stroke-width:1" />
  <polyline points="34.012,143.1822 30.012,143.1822" style="fill:none;stroke:black;stroke-width:1" />
  <polyline points="34.012,129.162 30.012,129.162" style="fill:none;stroke:black;stroke-width:1" />
  <polyline points="34.012,115.1418 30.012,115.1418" style="fill:none;stroke:black;stroke-width:1" />
  <polyline points="34.012,101.1216 30.012,101.1216" style="fill:none;stroke:black;stroke-width:1" />
  <polyline points="34.012,73.0813 30.012,73.0813" style="fill:none;stroke:black;stroke-width:1" />
  <polyline points="34.012,59.0611 30.012,59.0611" style="fill:none;stroke:black;stroke-width:1" />
  <polyline points="34.012,45.0409 30.012,45.0409" style="fill:none;stroke:black;stroke-width:1" />
  <polyline points="34.012,31.0207 30.012,31.0207" style="fill:none;stroke:black;stroke-width:1" />
  <text dominant-baseline="middle" text-anchor="end" transform="translate(23.012,367.5053)" font-family="Segoe UI" font-size="12" font-weight="400" fill="black">0</text>
  <text dominant-baseline="middle" text-anchor="end" transform="translate(23.012,297.4043)" font-family="Segoe UI" font-size="12" font-weight="400" fill="black">50</text>
  <text dominant-baseline="middle" text-anchor="end" transform="translate(23.012,227.3034)" font-family="Segoe UI" font-size="12" font-weight="400" fill="black">100</text>
  <text dominant-baseline="middle" text-anchor="end" transform="translate(23.012,157.2024)" font-family="Segoe UI" font-size="12" font-weight="400" fill="black">150</text>
  <text dominant-baseline="middle" text-anchor="end" transform="translate(23.012,87.1015)" font-family="Segoe UI" font-size="12" font-weight="400" fill="black">200</text>
  <polyline points="34.012,367.5053 27.012,367.5053" style="fill:none;stroke:black;stroke-width:1" />
  <polyline points="34.012,297.4043 27.012,297.4043" style="fill:none;stroke:black;stroke-width:1" />
  <polyline points="34.012,227.3034 27.012,227.3034" style="fill:none;stroke:black;stroke-width:1" />
  <polyline points="34.012,157.2024 27.012,157.2024" style="fill:none;stroke:black;stroke-width:1" />
  <polyline points="34.012,87.1015 27.012,87.1015" style="fill:none;stroke:black;stroke-width:1" />
  <text dominant-baseline="hanging" text-anchor="middle" transform="translate(224.938,381.947)" font-family="Segoe UI" font-size="12" font-weight="400" fill="black">01. January</text>
  <polyline points="224.938,370.947 224.938,377.947" style="fill:none;stroke:black;stroke-width:1" />
  <polyline points="34.012,367.5622 36.7011,367.5621 40.7347,367.5621 42.0793,367.562 43.4238,347.7121 44.7684,347.2997 46.1129,353.2102 50.1466,349.3615 51.4911,353.2102 52.8357,353.76 54.1802,354.3098 55.5248,353.2102 59.5584,357.6087 60.903,355.9593 62.2475,356.5091 63.5921,355.9593 64.9366,355.9593 68.9703,356.5091 70.3148,358.1585 71.6594,356.5091 73.0039,355.9593 74.3485,353.76 78.3821,347.7121 79.7267,343.3136 81.0712,338.3653 82.4158,337.8155 83.7603,333.417 87.794,338.9151 89.1385,339.4649 90.4831,343.3136 91.8276,341.6642 93.1722,342.7638 97.2058,327.3691 98.5504,327.9189 99.8949,326.8192 101.2395,316.9226 102.584,311.4245 106.6177,304.8268 107.9622,305.9264 109.3068,298.229 110.6513,297.1115 111.9959,299.9272 116.0295,285.2853 117.3741,283.5959 118.7186,278.5275 120.0632,268.3908 121.4077,246.9911 125.4414,225.0282 126.7859,220.523 128.1305,216.581 129.475,197.997 130.8196,197.4339 134.8532,134.361 136.1978,129.2927 137.5423,126.4769 138.8869,128.7295 140.2314,96.63 144.2651,115.7771 145.6096,105.6404 146.9541,106.7667 148.2987,99.4457 149.6432,116.9034 153.6769,89.309 155.0214,83.1143 156.366,57.7726 159.0551,32.4308 163.0887,60.5883 164.4333,74.6671 165.7778,83.1143 167.1224,64.46 168.4669,118.0297 172.5006,163.6449 173.8451,147.3135 175.1897,150.1292 176.5342,203.6285 177.8788,181.6657 181.9124,184.4814 183.257,208.6969 184.6015,220.523 185.9461,193.4918 187.2906,197.4339 191.3243,174.9079 192.6688,177.1605 194.0134,175.471 195.3579,147.8766 196.7025,169.2764 200.7361,150.6924 202.0807,141.1188 203.4252,129.8558 204.7698,142.2451 206.1143,131.5453 210.148,114.0876 211.4925,114.6508 212.8371,137.7399 219.5598,153.5081 220.9044,151.2555 222.2489,131.5453 223.5935,133.4459 228.9717,206.4443 230.3162,229.5334 231.6608,244.7385 233.0053,231.2229 234.3499,210.8087 239.7281,188.4235 241.0726,190.6761 242.4172,212.0758 243.7617,241.3596 247.7954,249.6379 249.1399,268.954 250.4845,260.5067 251.829,277.9644 253.1736,278.5275 257.2072,265.5751 259.8963,272.896 261.2408,253.1858 262.5854,241.9228 266.619,257.691 267.9636,271.4178 269.3081,265.5751 270.6527,272.896 271.9972,283.5959 276.0309,286.4116 277.3754,283.5959 278.72,268.3908 280.0645,269.5171 281.4091,262.7593 285.4427,276.8381 286.7873,278.5275 288.1318,298.8009 289.4764,305.5587 290.8209,321.327 294.8546,321.327 296.1991,322.4533 297.5437,313.4429 298.8882,314.006 300.2328,309.5008 304.2664,320.7638 305.611,319.6375 306.9555,315.6955 308.3001,293.1694 309.6446,287.5379 313.6783,258.8173 315.0228,258.8173 316.3674,257.1278 317.7119,271.7697 319.0565,265.5751 323.0901,255.4384 324.4347,256.0015 325.7792,248.6806 327.1238,221.0862 328.4683,203.6285 332.502,195.7444 333.8465,195.1813 335.1911,199.6865 336.5356,188.4235 337.8802,200.8128 341.9138,218.8336 343.2584,215.4547 344.6029,222.2125 345.9475,237.9807 347.292,213.2021 352.6702,200.2496 354.0148,214.8915 355.3593,196.8707 356.7039,229.5334 360.7375,220.4667 362.0821,210.9495 363.4266,164.208 364.7712,184.4814 366.1157,180.5394 370.1493,172.0921 371.4939,153.5081 372.8384,158.5765 374.183,145.0609 375.5275,121.4086 379.5612,102.8246 380.9057,118.5928 382.2503,132.6716 383.5948,127.0401 384.9394,129.8558 388.973,155.1976 390.3176,143.3714 391.6621,137.1768 393.0067,169.8395 394.3512,189.5498 398.3849,199.1233 399.7294,208.1337 401.074,220.523 403.7631,188.9866 407.7967,191.8024 409.1413,177.7236 410.4858,172.0921 411.8304,176.3157 413.1749,210.9495 418.5531,257.691 419.8977,281.9064 421.2422,291.48 422.5868,294.8589 426.6204,302.4614 427.965,307.2482 429.3095,306.1219 431.9986,326.3953 436.0323,341.6004 437.3768,346.6687 438.7214,351.1739 440.0659,350.2588 441.4105,355.6791 445.4441,358.4949 446.7887,357.3686 448.1332,357.3686 449.4778,356.2423 450.8223,353.4265 454.856,353.4265 456.2005,352.8634 457.5451,356.2423 458.8896,359.6212 460.2342,361.3106 464.2678,360.7475 465.6124,362.4369 466.9569,359.058 468.3015,355.6791 469.646,356.8054 473.6797,356.8054 476.3688,357.3686 479.0579,359.6212 483.0915,360.7475 485.7806,353.9897 488.4697,343.2898 495.1924,332.0268 497.8815,317.9481 504.6043,316.2586 507.2934,329.7742 514.0161,329.2111 516.7052,323.0164 523.428,294.8589 526.1171,262.7593 532.8398,253.7489 535.5289,268.3908 542.2517,201.3759 544.9408,191.8024 551.6635,233.4755 554.3526,222.2125 563.7645,240.2333 573.1763,272.896 579.8991,284.7222 582.5882,290.9168 589.3109,295.422 592,306.6851" style="fill:none;stroke:rgb(31,119,180);stroke-width:2;stroke-linejoin:bevel" />
  <text dominant-baseline="hanging" text-anchor="middle" transform="translate(313.006,8)" font-family="Segoe UI" font-size="18" font-weight="700" fill="black">7-Tage-Inzidenz Stadt Aachen 01.10.2021</text>
  <polygon points="34.012,29.0795 592,29.0795 592,370.947 34.012,370.947" style="fill:none;stroke:black;stroke-width:1" />
  <polygon points="42.012,37.0795 247.014,37.0795 247.014,63.1325 42.012,63.1325" style="fill:none;stroke:none;" />
  <text dominant-baseline="hanging" text-anchor="start" transform="translate(70.012,45.0795)" font-family="Segoe UI" font-size="12" font-weight="400" fill="black">7-Tage-Inzidenz Stadt Aachen 01.10.2021</text>
  <polyline points="50.012,50.106 66.012,50.106" style="fill:none;stroke:rgb(31,119,180);stroke-width:2" />
</svg>