<?xml version="1.0" encoding="utf-8" standalone="no"?>
<!DOCTYPE svg PUBLIC "-//W3C//DTD SVG 1.1//EN" "http://www.w3.org/Graphics/SVG/1.1/DTD/svg11.dtd">
<svg width="600" height="400" version="1.1" xmlns:xlink="http://www.w3.org/1999/xlink" xmlns="http://www.w3.org/2000/svg">
  <rect x="0" y="0" width="600" height="400" style="fill:rgb(255,255,255);stroke:none;" />
  <polyline points="34.012,362.4131 30.012,362.4131" style="fill:none;stroke:black;stroke-width:1" />
  <polyline points="34.012,348.003 30.012,348.003" style="fill:none;stroke:black;stroke-width:1" />
  <polyline points="34.012,333.5929 30.012,333.5929" style="fill:none;stroke:black;stroke-width:1" />
  <polyline points="34.012,319.1829 30.012,319.1829" style="fill:none;stroke:black;stroke-width:1" />
  <polyline points="34.012,290.3627 30.012,290.3627" style="fill:none;stroke:black;stroke-width:1" />
  <polyline points="34.012,275.9527 30.012,275.9527" style="fill:none;stroke:black;stroke-width:1" />
  <polyline points="34.012,261.5426 30.012,261.5426" style="fill:none;stroke:black;stroke-width:1" />
  <polyline points="34.012,247.1325 30.012,247.1325" style="fill:none;stroke:black;stroke-width:1" />
  <polyline points="34.012,218.3124 30.012,218.3124" style="fill:none;stroke:black;stroke-width:1" />
  <polyline points="34.012,203.9023 30.012,203.9023" style="fill:none;stroke:black;stroke-width:1" />
  <polyline points="34.012,189.4922 30.012,189.4922" style="fill:none;stroke:black;stroke-width:1" />
  <polyline points="34.012,175.0822 30.012,175.0822" style="fill:none;stroke:black;stroke-width:1" />
  <polyline points="34.012,146.262 30.012,146.262" style="fill:none;stroke:black;stroke-width:1" />
  <polyline points="34.012,131.852 30.012,131.852" style="fill:none;stroke:black;stroke-width:1" />
  <polyline points="34.012,117.4419 30.012,117.4419" style="fill:none;stroke:black;stroke-width:1" />
  <polyline points="34.012,103.0318 30.012,103.0318" style="fill:none;stroke:black;stroke-width:1" />
  <polyline points="34.012,74.2117 30.012,74.2117" style="fill:none;stroke:black;stroke-width:1" />
  <polyline points="34.012,59.8016 30.012,59.8016" style="fill:none;stroke:black;stroke-width:1" />
  <polyline points="34.012,45.3915 30.012,45.3915" style="fill:none;stroke:black;stroke-width:1" />
  <polyline points="34.012,30.9815 30.012,30.9815" style="fill:none;stroke:black;stroke-width:1" />
  <polyline points="58.0314,370.947 58.0314,374.947" style="fill:none;stroke:black;stroke-width:1" />
  <polyline points="170.7375,370.947 170.7375,374.947" style="fill:none;stroke:black;stroke-width:1" />
  <polyline points="283.4437,370.947 283.4437,374.947" style="fill:none;stroke:black;stroke-width:1" />
  <polyline points="392.4546,370.947 392.4546,374.947" style="fill:none;stroke:black;stroke-width:1" />
  <polyline points="505.1608,370.947 505.1608,374.947" style="fill:none;stroke:black;stroke-width:1" />
  <text dominant-baseline="middle" text-anchor="end" transform="translate(23.012,304.7728)" font-family="Segoe UI" font-size="12" font-weight="400" fill="black">50</text>
  <text dominant-baseline="middle" text-anchor="end" transform="translate(23.012,232.7224)" font-family="Segoe UI" font-size="12" font-weight="400" fill="black">100</text>
  <text dominant-baseline="middle" text-anchor="end" transform="translate(23.012,160.6721)" font-family="Segoe UI" font-size="12" font-weight="400" fill="black">150</text>
  <text dominant-baseline="middle" text-anchor="end" transform="translate(23.012,88.6218)" font-family="Segoe UI" font-size="12" font-weight="400" fill="black">200</text>
  <polyline points="34.012,304.7728 27.012,304.7728" style="fill:none;stroke:black;stroke-width:1" />
  <polyline points="34.012,232.7224 27.012,232.7224" style="fill:none;stroke:black;stroke-width:1" />
  <polyline points="34.012,160.6721 27.012,160.6721" style="fill:none;stroke:black;stroke-width:1" />
  <polyline points="34.012,88.6218 27.012,88.6218" style="fill:none;stroke:black;stroke-width:1" />
  <text dominant-baseline="hanging" text-anchor="middle" transform="translate(113.4606,381.947)" font-family="Segoe UI" font-size="12" font-weight="400" fill="black">01. October</text>
  <text dominant-baseline="hanging" text-anchor="middle" transform="translate(226.1668,381.947)" font-family="Segoe UI" font-size="12" font-weight="400" fill="black">01. December</text>
  <text dominant-baseline="hanging" text-anchor="middle" transform="translate(340.7206,381.947)" font-family="Segoe UI" font-size="12" font-weight="400" fill="black">01. February</text>
  <text dominant-baseline="hanging" text-anchor="middle" transform="translate(449.7315,381.947)" font-family="Segoe UI" font-size="12" font-weight="400" fill="black">01. April</text>
  <text dominant-baseline="hanging" text-anchor="middle" transform="translate(562.4377,381.947)" font-family="Segoe UI" font-size="12" font-weight="400" fill="black">01. June</text>
  <polyline points="113.4606,370.947 113.4606,377.947" style="fill:none;stroke:black;stroke-width:1" />
  <polyline points="226.1668,370.947 226.1668,377.947" style="fill:none;stroke:black;stroke-width:1" />
  <polyline points="340.7206,370.947 340.7206,377.947" style="fill:none;stroke:black;stroke-width:1" />
  <polyline points="449.7315,370.947 449.7315,377.947" style="fill:none;stroke:black;stroke-width:1" />
  <polyline points="562.4377,370.947 562.4377,377.947" style="fill:none;stroke:black;stroke-width:1" />
  <polyline points="34.012,356.4795 35.8596,356.0557 37.7073,362.1305 43.2502,358.1748 45.0979,362.1305 46.9455,362.6956 48.7931,363.2607 50.6408,362.1305 56.1837,366.6513 58.0314,364.956 59.879,365.5211 61.7266,364.956 63.5743,364.956 69.1172,365.5211 70.9648,367.2164 72.8125,365.5211 74.6601,364.956 76.5078,362.6956 82.0507,356.4795 83.8983,351.9587 85.746,346.8728 87.5936,346.3077 89.4413,341.7869 94.9842,347.4379 96.8318,348.003 98.6795,351.9587 100.5271,350.2634 102.3748,351.3936 107.9177,335.5708 109.7653,336.1359 111.613,335.0057 113.4606,324.8339 115.3083,319.1829 120.8512,312.4017 122.6988,313.5319 124.5465,305.6204 126.3941,304.4718 128.2418,307.3659 133.7847,292.3168 135.6323,290.5804 137.48,285.3711 139.3276,274.9525 141.1753,252.9577 146.7182,230.3841 148.5658,225.7536 150.4135,221.7019 152.2611,202.6011 154.1088,202.0223 159.6517,137.1955 161.4993,131.9862 163.347,129.0922 165.1946,131.4074 167.0423,98.4152 172.5852,118.0948 174.4328,107.6762 176.2805,108.8338 178.1281,101.3093 179.9757,119.2524 185.5187,90.8907 187.3663,84.5238 189.214,58.4773 192.9092,32.4308 198.4522,61.3713 200.2998,75.8416 202.1475,84.5238 203.9951,65.3507 205.8427,120.41 211.3857,167.2937 213.2333,150.5082 215.081,153.4022 216.9286,208.3892 218.7762,185.8156 224.3192,188.7097 226.1668,213.5985 228.0145,225.7536 229.8621,197.9707 231.7097,202.0223 237.2527,178.8699 239.1003,181.1851 240.9479,179.4487 242.7956,151.087 244.6432,173.0818 250.1862,153.981 252.0338,144.1413 253.8814,132.5651 255.7291,145.2989 257.5767,134.3015 263.1197,116.3584 264.9673,116.9372 266.8149,140.6684 276.0532,156.8751 277.9008,154.5599 279.7484,134.3015 281.5961,136.255 288.9866,211.2833 290.8343,235.0145 292.6819,250.6424 294.5296,236.751 296.3772,215.7691 303.7678,192.7614 305.6154,195.0766 307.4631,217.0714 309.3107,247.1696 314.8536,255.6781 316.7013,275.5313 318.5489,266.8491 320.3966,284.7923 322.2442,285.3711 327.7871,272.0584 331.4824,279.583 333.3301,259.3246 335.1777,247.7484 340.7206,263.9551 342.5683,278.0636 344.4159,272.0584 346.2636,279.583 348.1112,290.5804 353.6541,293.4744 355.5018,290.5804 357.3494,274.9525 359.1971,276.1101 361.0447,269.1644 366.5876,283.6346 368.4353,285.3711 370.2829,306.2082 372.1306,313.154 373.9782,329.3607 379.5211,329.3607 381.3688,330.5183 383.2164,321.2573 385.0641,321.8361 386.9117,317.2056 392.4546,328.7819 394.3023,327.6242 396.1499,323.5726 397.9975,300.4201 399.8452,294.632 405.3881,265.1127 407.2358,265.1127 409.0834,263.3763 410.931,278.4253 412.7787,272.0584 418.3216,261.6398 420.1693,262.2186 422.0169,254.6941 423.8645,226.3324 425.7122,208.3892 431.2551,200.2859 433.1028,199.7071 434.9504,204.3376 436.798,192.7614 438.6457,205.4952 444.1886,224.0171 446.0363,220.5443 447.8839,227.49 449.7315,243.6967 451.5792,218.229 458.9697,204.9164 460.8174,219.9655 462.665,201.4435 464.5127,235.0145 470.0556,225.6957 471.9032,215.9138 473.7509,167.8725 475.5985,188.7097 477.4462,184.658 482.9891,175.9759 484.8367,156.8751 486.6844,162.0844 488.532,148.1929 490.3797,123.8829 495.9226,104.7821 497.7702,120.9888 499.6179,135.4591 501.4655,129.671 503.3132,132.5651 508.8561,158.6115 510.7037,146.4565 512.5514,140.0896 514.399,173.6606 516.2467,193.919 521.7896,203.7588 523.6372,213.0197 525.4849,225.7536 529.1802,193.3402 534.7231,196.2342 536.5707,181.764 538.4184,175.9759 540.266,180.3169 542.1137,215.9138 549.5042,263.9551 551.3519,288.8439 553.1995,298.6837 555.0472,302.1566 560.5901,309.9705 562.4377,314.8904 564.2854,313.7328 567.9806,334.57 573.5236,350.1979 575.3712,355.4071 577.2189,360.0376 579.0665,359.0971 580.9141,364.6681 586.4571,367.5622 588.3047,366.4046 590.1524,366.4046 592,365.2469" style="fill:none;stroke:rgb(31,119,180);stroke-width:2;stroke-linejoin:bevel" />
  <text dominant-baseline="hanging" text-anchor="middle" transform="translate(313.006,8)" font-family="Segoe UI" font-size="18" font-weight="700" fill="black">7-Tage-Inzidenz Stadt Aachen 17.06.2021</text>
  <polygon points="34.012,29.0795 592,29.0795 592,370.947 34.012,370.947" style="fill:none;stroke:black;stroke-width:1" />
  <polygon points="42.012,37.0795 247.014,37.0795 247.014,63.1325 42.012,63.1325" style="fill:none;stroke:none;" />
  <text dominant-baseline="hanging" text-anchor="start" transform="translate(70.012,45.0795)" font-family="Segoe UI" font-size="12" font-weight="400" fill="black">7-Tage-Inzidenz Stadt Aachen 17.06.2021</text>
  <polyline points="50.012,50.106 66.012,50.106" style="fill:none;stroke:rgb(31,119,180);stroke-width:2" />
</svg>