<?xml version="1.0" encoding="utf-8" standalone="no"?>
<!DOCTYPE svg PUBLIC "-//W3C//DTD SVG 1.1//EN" "http://www.w3.org/Graphics/SVG/1.1/DTD/svg11.dtd">
<svg width="600" height="400" version="1.1" xmlns:xlink="http://www.w3.org/1999/xlink" xmlns="http://www.w3.org/2000/svg">
  <rect x="0" y="0" width="600" height="400" style="fill:rgb(255,255,255);stroke:none;" />
  <polyline points="34.012,362.7539 30.012,362.7539" style="fill:none;stroke:black;stroke-width:1" />
  <polyline points="34.012,348.3289 30.012,348.3289" style="fill:none;stroke:black;stroke-width:1" />
  <polyline points="34.012,333.904 30.012,333.904" style="fill:none;stroke:black;stroke-width:1" />
  <polyline points="34.012,319.479 30.012,319.479" style="fill:none;stroke:black;stroke-width:1" />
  <polyline points="34.012,290.6291 30.012,290.6291" style="fill:none;stroke:black;stroke-width:1" />
  <polyline points="34.012,276.2041 30.012,276.2041" style="fill:none;stroke:black;stroke-width:1" />
  <polyline points="34.012,261.7792 30.012,261.7792" style="fill:none;stroke:black;stroke-width:1" />
  <polyline points="34.012,247.3542 30.012,247.3542" style="fill:none;stroke:black;stroke-width:1" />
  <polyline points="34.012,218.5043 30.012,218.5043" style="fill:none;stroke:black;stroke-width:1" />
  <polyline points="34.012,204.0794 30.012,204.0794" style="fill:none;stroke:black;stroke-width:1" />
  <polyline points="34.012,189.6544 30.012,189.6544" style="fill:none;stroke:black;stroke-width:1" />
  <polyline points="34.012,175.2295 30.012,175.2295" style="fill:none;stroke:black;stroke-width:1" />
  <polyline points="34.012,146.3796 30.012,146.3796" style="fill:none;stroke:black;stroke-width:1" />
  <polyline points="34.012,131.9546 30.012,131.9546" style="fill:none;stroke:black;stroke-width:1" />
  <polyline points="34.012,117.5297 30.012,117.5297" style="fill:none;stroke:black;stroke-width:1" />
  <polyline points="34.012,103.1047 30.012,103.1047" style="fill:none;stroke:black;stroke-width:1" />
  <polyline points="34.012,74.2548 30.012,74.2548" style="fill:none;stroke:black;stroke-width:1" />
  <polyline points="34.012,59.8299 30.012,59.8299" style="fill:none;stroke:black;stroke-width:1" />
  <polyline points="34.012,45.4049 30.012,45.4049" style="fill:none;stroke:black;stroke-width:1" />
  <polyline points="34.012,30.98 30.012,30.98" style="fill:none;stroke:black;stroke-width:1" />
  <text dominant-baseline="middle" text-anchor="end" transform="translate(23.012,305.0541)" font-family="Segoe UI" font-size="12" font-weight="400" fill="black">50</text>
  <text dominant-baseline="middle" text-anchor="end" transform="translate(23.012,232.9293)" font-family="Segoe UI" font-size="12" font-weight="400" fill="black">100</text>
  <text dominant-baseline="middle" text-anchor="end" transform="translate(23.012,160.8045)" font-family="Segoe UI" font-size="12" font-weight="400" fill="black">150</text>
  <text dominant-baseline="middle" text-anchor="end" transform="translate(23.012,88.6798)" font-family="Segoe UI" font-size="12" font-weight="400" fill="black">200</text>
  <polyline points="34.012,305.0541 27.012,305.0541" style="fill:none;stroke:black;stroke-width:1" />
  <polyline points="34.012,232.9293 27.012,232.9293" style="fill:none;stroke:black;stroke-width:1" />
  <polyline points="34.012,160.8045 27.012,160.8045" style="fill:none;stroke:black;stroke-width:1" />
  <polyline points="34.012,88.6798 27.012,88.6798" style="fill:none;stroke:black;stroke-width:1" />
  <text dominant-baseline="hanging" text-anchor="middle" transform="translate(85.8252,381.947)" font-family="Segoe UI" font-size="12" font-weight="400" fill="black">01. September</text>
  <text dominant-baseline="hanging" text-anchor="middle" transform="translate(205.394,381.947)" font-family="Segoe UI" font-size="12" font-weight="400" fill="black">01. October</text>
  <text dominant-baseline="hanging" text-anchor="middle" transform="translate(328.9485,381.947)" font-family="Segoe UI" font-size="12" font-weight="400" fill="black">01. November</text>
  <text dominant-baseline="hanging" text-anchor="middle" transform="translate(448.5174,381.947)" font-family="Segoe UI" font-size="12" font-weight="400" fill="black">01. December</text>
  <text dominant-baseline="hanging" text-anchor="middle" transform="translate(572.0719,381.947)" font-family="Segoe UI" font-size="12" font-weight="400" fill="black">01. January</text>
  <polyline points="85.8252,370.947 85.8252,377.947" style="fill:none;stroke:black;stroke-width:1" />
  <polyline points="205.394,370.947 205.394,377.947" style="fill:none;stroke:black;stroke-width:1" />
  <polyline points="328.9485,370.947 328.9485,377.947" style="fill:none;stroke:black;stroke-width:1" />
  <polyline points="448.5174,370.947 448.5174,377.947" style="fill:none;stroke:black;stroke-width:1" />
  <polyline points="572.0719,370.947 572.0719,377.947" style="fill:none;stroke:black;stroke-width:1" />
  <polyline points="34.012,356.8142 37.9976,356.3899 41.9833,362.471 53.9401,358.5112 57.9258,362.471 61.9114,363.0367 65.897,363.6024 69.8827,362.471 81.8395,366.9965 85.8252,365.2994 89.8108,365.8651 93.7964,365.2994 97.7821,365.2994 109.7389,365.8651 113.7246,367.5622 117.7102,365.8651 121.6958,365.2994 125.6815,363.0367 137.6383,356.8142 141.624,352.2887 145.6096,347.1975 149.5952,346.6319 153.5809,342.1064 165.5377,347.7632 169.5234,348.3289 173.509,352.2887 177.4946,350.5916 181.4803,351.723 193.4371,335.8838 197.4228,336.4495 201.4084,335.3182 205.394,325.1358 209.3797,319.479 221.3365,312.6908 225.3222,313.8222 229.3078,305.9026 233.2934,304.7528 237.2791,307.6498 249.2359,292.5852 253.2216,290.847 257.2072,285.6323 261.1928,275.2029 265.1785,253.1854 277.1353,230.5885 281.121,225.9532 285.1066,221.8974 289.0922,202.7769 293.0779,202.1975 305.0347,137.3037 309.0204,132.0891 313.006,129.192 316.9916,131.5096 320.9773,98.4834 332.9341,118.1833 336.9198,107.7539 340.9054,108.9127 344.891,101.3804 348.8767,119.3421 360.8335,90.9511 364.8192,84.5776 368.8048,58.5042 376.7761,32.4308 388.7329,61.4012 392.7186,75.8864 396.7042,84.5776 400.6898,65.3847 404.6755,120.5009 416.6323,167.433 420.618,150.6301 424.6036,153.5272 428.5892,208.571 432.5749,185.974 444.5317,188.8711 448.5174,213.7856 452.503,225.9532 456.4886,198.1416 460.4743,202.1975 472.4311,179.0211 476.4168,181.3388 480.4024,179.6005 484.388,151.2095 488.3737,173.2271 500.3305,154.1066 504.3162,144.2566 508.3018,132.6685 512.2874,145.4155 516.2731,134.4067 528.2299,116.445 532.2156,117.0244 536.2012,140.7802 556.1293,157.0036 560.115,154.686 564.1006,134.4067 568.0862,136.3622 584.0287,211.468 588.0144,235.2238 592,250.8678" style="fill:none;stroke:rgb(31,119,180);stroke-width:2;stroke-linejoin:bevel" />
  <text dominant-baseline="hanging" text-anchor="middle" transform="translate(313.006,8)" font-family="Segoe UI" font-size="18" font-weight="700" fill="black">7-Tage-Inzidenz Stadt Aachen 06.01.2021</text>
  <polygon points="34.012,29.0795 592,29.0795 592,370.947 34.012,370.947" style="fill:none;stroke:black;stroke-width:1" />
  <polygon points="42.012,37.0795 247.014,37.0795 247.014,63.1325 42.012,63.1325" style="fill:none;stroke:none;" />
  <text dominant-baseline="hanging" text-anchor="start" transform="translate(70.012,45.0795)" font-family="Segoe UI" font-size="12" font-weight="400" fill="black">7-Tage-Inzidenz Stadt Aachen 06.01.2021</text>
  <polyline points="50.012,50.106 66.012,50.106" style="fill:none;stroke:rgb(31,119,180);stroke-width:2" />
</svg>