<?xml version="1.0" encoding="utf-8" standalone="no"?>
<!DOCTYPE svg PUBLIC "-//W3C//DTD SVG 1.1//EN" "http://www.w3.org/Graphics/SVG/1.1/DTD/svg11.dtd">
<svg width="600" height="400" version="1.1" xmlns:xlink="http://www.w3.org/1999/xlink" xmlns="http://www.w3.org/2000/svg">
  <rect x="0" y="0" width="600" height="400" style="fill:rgb(255,255,255);stroke:none;" />
  <polyline points="34.012,362.7539 30.012,362.7539" style="fill:none;stroke:black;stroke-width:1" />
  <polyline points="34.012,348.3289 30.012,348.3289" style="fill:none;stroke:black;stroke-width:1" />
  <polyline points="34.012,333.904 30.012,333.904" style="fill:none;stroke:black;stroke-width:1" />
  <polyline points="34.012,319.479 30.012,319.479" style="fill:none;stroke:black;stroke-width:1" />
  <polyline points="34.012,290.6291 30.012,290.6291" style="fill:none;stroke:black;stroke-width:1" />
  <polyline points="34.012,276.2041 30.012,276.2041" style="fill:none;stroke:black;stroke-width:1" />
  <polyline points="34.012,261.7792 30.012,261.7792" style="fill:none;stroke:black;stroke-width:1" />
  <polyline points="34.012,247.3542 30.012,247.3542" style="fill:none;stroke:black;stroke-width:1" />
  <polyline points="34.012,218.5043 30.012,218.5043" style="fill:none;stroke:black;stroke-width:1" />
  <polyline points="34.012,204.0794 30.012,204.0794" style="fill:none;stroke:black;stroke-width:1" />
  <polyline points="34.012,189.6544 30.012,189.6544" style="fill:none;stroke:black;stroke-width:1" />
  <polyline points="34.012,175.2295 30.012,175.2295" style="fill:none;stroke:black;stroke-width:1" />
  <polyline points="34.012,146.3796 30.012,146.3796" style="fill:none;stroke:black;stroke-width:1" />
  <polyline points="34.012,131.9546 30.012,131.9546" style="fill:none;stroke:black;stroke-width:1" />
  <polyline points="34.012,117.5297 30.012,117.5297" style="fill:none;stroke:black;stroke-width:1" />
  <polyline points="34.012,103.1047 30.012,103.1047" style="fill:none;stroke:black;stroke-width:1" />
  <polyline points="34.012,74.2548 30.012,74.2548" style="fill:none;stroke:black;stroke-width:1" />
  <polyline points="34.012,59.8299 30.012,59.8299" style="fill:none;stroke:black;stroke-width:1" />
  <polyline points="34.012,45.4049 30.012,45.4049" style="fill:none;stroke:black;stroke-width:1" />
  <polyline points="34.012,30.98 30.012,30.98" style="fill:none;stroke:black;stroke-width:1" />
  <polyline points="58.8539,370.947 58.8539,374.947" style="fill:none;stroke:black;stroke-width:1" />
  <polyline points="175.4199,370.947 175.4199,374.947" style="fill:none;stroke:black;stroke-width:1" />
  <polyline points="291.9859,370.947 291.9859,374.947" style="fill:none;stroke:black;stroke-width:1" />
  <polyline points="404.7301,370.947 404.7301,374.947" style="fill:none;stroke:black;stroke-width:1" />
  <polyline points="521.296,370.947 521.296,374.947" style="fill:none;stroke:black;stroke-width:1" />
  <text dominant-baseline="middle" text-anchor="end" transform="translate(23.012,305.0541)" font-family="Segoe UI" font-size="12" font-weight="400" fill="black">50</text>
  <text dominant-baseline="middle" text-anchor="end" transform="translate(23.012,232.9293)" font-family="Segoe UI" font-size="12" font-weight="400" fill="black">100</text>
  <text dominant-baseline="middle" text-anchor="end" transform="translate(23.012,160.8045)" font-family="Segoe UI" font-size="12" font-weight="400" fill="black">150</text>
  <text dominant-baseline="middle" text-anchor="end" transform="translate(23.012,88.6798)" font-family="Segoe UI" font-size="12" font-weight="400" fill="black">200</text>
  <polyline points="34.012,305.0541 27.012,305.0541" style="fill:none;stroke:black;stroke-width:1" />
  <polyline points="34.012,232.9293 27.012,232.9293" style="fill:none;stroke:black;stroke-width:1" />
  <polyline points="34.012,160.8045 27.012,160.8045" style="fill:none;stroke:black;stroke-width:1" />
  <polyline points="34.012,88.6798 27.012,88.6798" style="fill:none;stroke:black;stroke-width:1" />
  <text dominant-baseline="hanging" text-anchor="middle" transform="translate(116.1815,381.947)" font-family="Segoe UI" font-size="12" font-weight="400" fill="black">01. October</text>
  <text dominant-baseline="hanging" text-anchor="middle" transform="translate(232.7475,381.947)" font-family="Segoe UI" font-size="12" font-weight="400" fill="black">01. December</text>
  <text dominant-baseline="hanging" text-anchor="middle" transform="translate(351.2244,381.947)" font-family="Segoe UI" font-size="12" font-weight="400" fill="black">01. February</text>
  <text dominant-baseline="hanging" text-anchor="middle" transform="translate(463.9685,381.947)" font-family="Segoe UI" font-size="12" font-weight="400" fill="black">01. April</text>
  <text dominant-baseline="hanging" text-anchor="middle" transform="translate(580.5345,381.947)" font-family="Segoe UI" font-size="12" font-weight="400" fill="black">01. June</text>
  <polyline points="116.1815,370.947 116.1815,377.947" style="fill:none;stroke:black;stroke-width:1" />
  <polyline points="232.7475,370.947 232.7475,377.947" style="fill:none;stroke:black;stroke-width:1" />
  <polyline points="351.2244,370.947 351.2244,377.947" style="fill:none;stroke:black;stroke-width:1" />
  <polyline points="463.9685,370.947 463.9685,377.947" style="fill:none;stroke:black;stroke-width:1" />
  <polyline points="580.5345,370.947 580.5345,377.947" style="fill:none;stroke:black;stroke-width:1" />
  <polyline points="34.012,356.8142 35.9229,356.3899 37.8338,362.471 43.5666,358.5112 45.4775,362.471 47.3884,363.0367 49.2993,363.6024 51.2103,362.471 56.943,366.9965 58.8539,365.2994 60.7648,365.8651 62.6758,365.2994 64.5867,365.2994 70.3194,365.8651 72.2304,367.5622 74.1413,365.8651 76.0522,365.2994 77.9631,363.0367 83.6959,356.8142 85.6068,352.2887 87.5177,347.1975 89.4286,346.6319 91.3395,342.1064 97.0723,347.7632 98.9832,348.3289 100.8941,352.2887 102.805,350.5916 104.716,351.723 110.4487,335.8838 112.3596,336.4495 114.2705,335.3182 116.1815,325.1358 118.0924,319.479 123.8251,312.6908 125.7361,313.8222 127.647,305.9026 129.5579,304.7528 131.4688,307.6498 137.2016,292.5852 139.1125,290.847 141.0234,285.6323 142.9343,275.2029 144.8452,253.1854 150.578,230.5885 152.4889,225.9532 154.3998,221.8974 156.3107,202.7769 158.2217,202.1975 163.9544,137.3037 165.8653,132.0891 167.7762,129.192 169.6872,131.5096 171.5981,98.4834 177.3308,118.1833 179.2418,107.7539 181.1527,108.9127 183.0636,101.3804 184.9745,119.3421 190.7073,90.9511 192.6182,84.5776 194.5291,58.5042 198.3509,32.4308 204.0837,61.4012 205.9946,75.8864 207.9055,84.5776 209.8164,65.3847 211.7274,120.5009 217.4601,167.433 219.371,150.6301 221.2819,153.5272 223.1929,208.571 225.1038,185.974 230.8365,188.8711 232.7475,213.7856 234.6584,225.9532 236.5693,198.1416 238.4802,202.1975 244.213,179.0211 246.1239,181.3388 248.0348,179.6005 249.9457,151.2095 251.8566,173.2271 257.5894,154.1066 259.5003,144.2566 261.4112,132.6685 263.3221,145.4155 265.2331,134.4067 270.9658,116.445 272.8767,117.0244 274.7876,140.7802 284.3422,157.0036 286.2532,154.686 288.1641,134.4067 290.075,136.3622 297.7187,211.468 299.6296,235.2238 301.5405,250.8678 303.4514,236.962 305.3623,215.9584 313.006,192.9269 314.9169,195.2446 316.8278,217.2621 318.7388,247.3913 324.4715,255.9086 326.3824,275.7823 328.2933,267.0912 330.2043,285.0529 332.1152,285.6323 337.8479,272.3059 341.6698,279.8382 343.5807,259.5589 345.4916,247.9707 351.2244,264.1942 353.1353,278.3173 355.0462,272.3059 356.9571,279.8382 358.868,290.847 364.6008,293.744 366.5117,290.847 368.4226,275.2029 370.3335,276.3617 372.2445,269.4088 377.9772,283.8941 379.8881,285.6323 381.799,306.491 383.71,313.4439 385.6209,329.6673 391.3536,329.6673 393.2645,330.8261 395.1755,321.5556 397.0864,322.135 398.9973,317.4997 404.7301,329.0879 406.641,327.9291 408.5519,323.8732 410.4628,300.6969 412.3737,294.9028 418.1065,265.353 420.0174,265.353 421.9283,263.6148 423.8392,278.6794 425.7502,272.3059 431.4829,261.8765 433.3938,262.4559 435.3047,254.9236 437.2157,226.5326 439.1266,208.571 444.8593,200.4592 446.7702,199.8798 448.6812,204.5151 450.5921,192.9269 452.503,205.6739 458.2358,224.215 460.1467,220.7385 462.0576,227.6914 463.9685,243.9149 465.8794,218.4209 473.5231,205.0945 475.434,220.1591 477.3449,201.6181 479.2558,235.2238 484.9886,225.8953 486.8995,216.1033 488.8104,168.0124 490.7214,188.8711 492.6323,184.8152 498.365,176.1241 500.2759,157.0036 502.1869,162.2183 504.0978,148.3125 506.0087,123.9773 511.7415,104.8569 513.6524,121.0803 515.5633,135.5655 517.4742,129.7714 519.3851,132.6685 525.1179,158.7418 527.0288,146.5743 528.9397,140.2008 530.8506,173.8065 532.7615,194.0858 538.4943,203.9357 540.4052,213.2062 542.3161,225.9532 546.138,193.5063 551.8707,196.4034 553.7816,181.9182 555.6926,176.1241 557.6035,180.4697 559.5144,216.1033 567.1581,264.1942 569.069,289.1087 570.9799,298.9587 572.8908,302.4351 578.6236,310.2571 580.5345,315.1821 582.4454,314.0233 586.2672,334.882 592,350.526" style="fill:none;stroke:rgb(31,119,180);stroke-width:2;stroke-linejoin:bevel" />
  <text dominant-baseline="hanging" text-anchor="middle" transform="translate(313.006,8)" font-family="Segoe UI" font-size="18" font-weight="700" fill="black">7-Tage-Inzidenz Stadt Aachen 07.06.2021</text>
  <polygon points="34.012,29.0795 592,29.0795 592,370.947 34.012,370.947" style="fill:none;stroke:black;stroke-width:1" />
  <polygon points="42.012,37.0795 247.014,37.0795 247.014,63.1325 42.012,63.1325" style="fill:none;stroke:none;" />
  <text dominant-baseline="hanging" text-anchor="start" transform="translate(70.012,45.0795)" font-family="Segoe UI" font-size="12" font-weight="400" fill="black">7-Tage-Inzidenz Stadt Aachen 07.06.2021</text>
  <polyline points="50.012,50.106 66.012,50.106" style="fill:none;stroke:rgb(31,119,180);stroke-width:2" />
</svg>