<?xml version="1.0" encoding="utf-8" standalone="no"?>
<!DOCTYPE svg PUBLIC "-//W3C//DTD SVG 1.1//EN" "http://www.w3.org/Graphics/SVG/1.1/DTD/svg11.dtd">
<svg width="600" height="400" version="1.1" xmlns:xlink="http://www.w3.org/1999/xlink" xmlns="http://www.w3.org/2000/svg">
  <rect x="0" y="0" width="600" height="400" style="fill:rgb(255,255,255);stroke:none;" />
  <polyline points="34.012,358.4713 30.012,358.4713" style="fill:none;stroke:black;stroke-width:1" />
  <polyline points="34.012,344.2334 30.012,344.2334" style="fill:none;stroke:black;stroke-width:1" />
  <polyline points="34.012,329.9954 30.012,329.9954" style="fill:none;stroke:black;stroke-width:1" />
  <polyline points="34.012,315.7575 30.012,315.7575" style="fill:none;stroke:black;stroke-width:1" />
  <polyline points="34.012,287.2816 30.012,287.2816" style="fill:none;stroke:black;stroke-width:1" />
  <polyline points="34.012,273.0437 30.012,273.0437" style="fill:none;stroke:black;stroke-width:1" />
  <polyline points="34.012,258.8058 30.012,258.8058" style="fill:none;stroke:black;stroke-width:1" />
  <polyline points="34.012,244.5678 30.012,244.5678" style="fill:none;stroke:black;stroke-width:1" />
  <polyline points="34.012,216.0919 30.012,216.0919" style="fill:none;stroke:black;stroke-width:1" />
  <polyline points="34.012,201.854 30.012,201.854" style="fill:none;stroke:black;stroke-width:1" />
  <polyline points="34.012,187.6161 30.012,187.6161" style="fill:none;stroke:black;stroke-width:1" />
  <polyline points="34.012,173.3781 30.012,173.3781" style="fill:none;stroke:black;stroke-width:1" />
  <polyline points="34.012,144.9023 30.012,144.9023" style="fill:none;stroke:black;stroke-width:1" />
  <polyline points="34.012,130.6643 30.012,130.6643" style="fill:none;stroke:black;stroke-width:1" />
  <polyline points="34.012,116.4264 30.012,116.4264" style="fill:none;stroke:black;stroke-width:1" />
  <polyline points="34.012,102.1885 30.012,102.1885" style="fill:none;stroke:black;stroke-width:1" />
  <polyline points="34.012,73.7126 30.012,73.7126" style="fill:none;stroke:black;stroke-width:1" />
  <polyline points="34.012,59.4747 30.012,59.4747" style="fill:none;stroke:black;stroke-width:1" />
  <polyline points="34.012,45.2367 30.012,45.2367" style="fill:none;stroke:black;stroke-width:1" />
  <polyline points="34.012,30.9988 30.012,30.9988" style="fill:none;stroke:black;stroke-width:1" />
  <polyline points="54.3309,370.947 54.3309,374.947" style="fill:none;stroke:black;stroke-width:1" />
  <polyline points="149.6734,370.947 149.6734,374.947" style="fill:none;stroke:black;stroke-width:1" />
  <polyline points="245.0159,370.947 245.0159,374.947" style="fill:none;stroke:black;stroke-width:1" />
  <polyline points="337.2324,370.947 337.2324,374.947" style="fill:none;stroke:black;stroke-width:1" />
  <polyline points="432.5749,370.947 432.5749,374.947" style="fill:none;stroke:black;stroke-width:1" />
  <polyline points="527.9173,370.947 527.9173,374.947" style="fill:none;stroke:black;stroke-width:1" />
  <text dominant-baseline="middle" text-anchor="end" transform="translate(23.012,301.5196)" font-family="Segoe UI" font-size="12" font-weight="400" fill="black">50</text>
  <text dominant-baseline="middle" text-anchor="end" transform="translate(23.012,230.3299)" font-family="Segoe UI" font-size="12" font-weight="400" fill="black">100</text>
  <text dominant-baseline="middle" text-anchor="end" transform="translate(23.012,159.1402)" font-family="Segoe UI" font-size="12" font-weight="400" fill="black">150</text>
  <text dominant-baseline="middle" text-anchor="end" transform="translate(23.012,87.9505)" font-family="Segoe UI" font-size="12" font-weight="400" fill="black">200</text>
  <polyline points="34.012,301.5196 27.012,301.5196" style="fill:none;stroke:black;stroke-width:1" />
  <polyline points="34.012,230.3299 27.012,230.3299" style="fill:none;stroke:black;stroke-width:1" />
  <polyline points="34.012,159.1402 27.012,159.1402" style="fill:none;stroke:black;stroke-width:1" />
  <polyline points="34.012,87.9505 27.012,87.9505" style="fill:none;stroke:black;stroke-width:1" />
  <text dominant-baseline="hanging" text-anchor="middle" transform="translate(101.2206,381.947)" font-family="Segoe UI" font-size="12" font-weight="400" fill="black">01. October</text>
  <text dominant-baseline="hanging" text-anchor="middle" transform="translate(196.5631,381.947)" font-family="Segoe UI" font-size="12" font-weight="400" fill="black">01. December</text>
  <text dominant-baseline="hanging" text-anchor="middle" transform="translate(293.4686,381.947)" font-family="Segoe UI" font-size="12" font-weight="400" fill="black">01. February</text>
  <text dominant-baseline="hanging" text-anchor="middle" transform="translate(385.6851,381.947)" font-family="Segoe UI" font-size="12" font-weight="400" fill="black">01. April</text>
  <text dominant-baseline="hanging" text-anchor="middle" transform="translate(481.0276,381.947)" font-family="Segoe UI" font-size="12" font-weight="400" fill="black">01. June</text>
  <text dominant-baseline="hanging" text-anchor="middle" transform="translate(576.3701,381.947)" font-family="Segoe UI" font-size="12" font-weight="400" fill="black">01. August</text>
  <polyline points="101.2206,370.947 101.2206,377.947" style="fill:none;stroke:black;stroke-width:1" />
  <polyline points="196.5631,370.947 196.5631,377.947" style="fill:none;stroke:black;stroke-width:1" />
  <polyline points="293.4686,370.947 293.4686,377.947" style="fill:none;stroke:black;stroke-width:1" />
  <polyline points="385.6851,370.947 385.6851,377.947" style="fill:none;stroke:black;stroke-width:1" />
  <polyline points="481.0276,370.947 481.0276,377.947" style="fill:none;stroke:black;stroke-width:1" />
  <polyline points="576.3701,370.947 576.3701,377.947" style="fill:none;stroke:black;stroke-width:1" />
  <polyline points="34.012,352.6086 35.575,352.1899 37.138,358.1921 41.827,354.2837 43.3899,358.1921 44.9529,358.7505 46.5159,359.3088 48.0789,358.1921 52.7679,362.6589 54.3309,360.9839 55.8939,361.5422 57.4569,360.9839 59.0199,360.9839 63.7088,361.5422 65.2718,363.2173 66.8348,361.5422 68.3978,360.9839 69.9608,358.7505 74.6498,352.6086 76.2128,348.1418 77.7758,343.1167 79.3388,342.5583 80.9017,338.0915 85.5907,343.675 87.1537,344.2334 88.7167,348.1418 90.2797,346.4668 91.8427,347.5835 96.5317,331.9497 98.0947,332.508 99.6576,331.3913 101.2206,321.341 102.7836,315.7575 107.4726,309.0573 109.0356,310.174 110.5986,302.3571 112.1616,301.2222 113.7246,304.0817 118.4135,289.2124 119.9765,287.4967 121.5395,282.3496 123.1025,272.0555 124.6655,250.3234 129.3545,228.0194 130.9175,223.4443 132.4805,219.441 134.0435,200.5684 135.6065,199.9965 140.2954,135.9441 141.8584,130.797 143.4214,127.9375 144.9844,130.2251 146.5474,97.627 151.2364,117.0715 152.7994,106.7774 154.3624,107.9212 155.9253,100.4865 157.4883,118.2153 162.1773,90.1924 163.7403,83.9015 165.3033,58.1662 168.4293,32.4308 173.1183,61.0256 174.6812,75.3231 176.2442,83.9015 177.8072,64.9574 179.3702,119.3591 184.0592,165.6827 185.6222,149.0977 187.1852,151.9572 188.7482,206.2874 190.3112,183.9834 195.0001,186.8429 196.5631,211.4344 198.1261,223.4443 199.6891,195.9932 201.2521,199.9965 205.9411,177.1206 207.5041,179.4082 209.0671,177.6925 210.6301,149.6696 212.193,171.4017 216.882,152.5291 218.445,142.8068 220.008,131.3689 221.571,143.9506 223.134,133.0846 227.823,115.3558 229.3859,115.9277 230.9489,139.3755 238.7639,155.3886 240.3269,153.101 241.8899,133.0846 243.4529,135.0148 249.7048,209.1468 251.2678,232.5946 252.8308,248.0358 254.3938,234.3103 255.9568,213.579 262.2088,190.8461 263.7718,193.1337 265.3348,214.8658 266.8977,244.6044 271.5867,253.0113 273.1497,272.6274 274.7127,264.0489 276.2757,281.7777 277.8387,282.3496 282.5277,269.196 285.6536,276.6306 287.2166,256.6142 288.7796,245.1763 293.4686,261.1894 295.0316,275.1294 296.5946,269.196 298.1576,276.6306 299.7206,287.4967 304.4095,290.3561 305.9725,287.4967 307.5355,272.0555 309.0985,273.1992 310.6615,266.3365 315.3505,280.6339 316.9135,282.3496 318.4765,302.9379 320.0395,309.8006 321.6025,325.8137 326.2914,325.8137 327.8544,326.9575 329.4174,317.8072 330.9804,318.3791 332.5434,313.8039 337.2324,325.2418 338.7954,324.098 340.3584,320.0948 341.9213,297.2189 343.4843,291.4999 348.1733,262.3332 349.7363,262.3332 351.2993,260.6175 352.8623,275.4868 354.4253,269.196 359.1143,258.9018 360.6772,259.4737 362.2402,252.0391 363.8032,224.0161 365.3662,206.2874 370.0552,198.2808 371.6182,197.7089 373.1812,202.2841 374.7442,190.8461 376.3072,203.4279 380.9961,221.7286 382.5591,218.2972 384.1221,225.1599 385.6851,241.173 387.2481,216.0096 393.5001,202.856 395.0631,217.7253 396.6261,199.4246 398.189,232.5946 402.878,223.3871 404.441,213.722 406.004,166.2546 407.567,186.8429 409.13,182.8396 413.819,174.2612 415.3819,155.3886 416.9449,160.5356 418.5079,146.8101 420.0709,122.7905 424.7599,103.9179 426.3229,119.931 427.8859,134.2284 429.4489,128.5094 431.0119,131.3689 435.7008,157.1043 437.2638,145.0944 438.8268,138.8036 440.3898,171.9736 441.9528,191.9899 446.6418,201.7122 448.2048,210.8625 449.7678,223.4443 452.8937,191.418 457.5827,194.2775 459.1457,179.9801 460.7087,174.2612 462.2717,178.5504 463.8347,213.722 470.0867,261.1894 471.6496,285.781 473.2126,295.5032 474.7756,298.9346 479.4646,306.6552 481.0276,311.5163 482.5906,310.3725 485.7166,330.9608 490.4055,346.402 491.9685,351.5491 493.5315,356.1242 495.0945,355.1949 496.6575,360.6994 501.3465,363.5589 502.9095,362.4151 504.4725,362.4151 506.0355,361.2713 507.5985,358.4118 512.2874,358.4118 513.8504,357.8399 515.4134,361.2713 516.9764,364.7027 518.5394,366.4184 523.2284,365.8465 524.7914,367.5622 526.3544,364.1308 527.9173,360.6994 529.4803,361.8432 534.1693,361.8432 537.2953,362.4151 540.4213,364.7027 545.1103,365.8465 548.2362,358.9837 551.3622,348.1177 559.1772,336.6798 562.3032,322.3823 570.1181,320.6667 573.2441,334.3922 581.0591,333.8203 584.185,327.5294 592,298.9346" style="fill:none;stroke:rgb(31,119,180);stroke-width:2;stroke-linejoin:bevel" />
  <text dominant-baseline="hanging" text-anchor="middle" transform="translate(313.006,8)" font-family="Segoe UI" font-size="18" font-weight="700" fill="black">7-Tage-Inzidenz Stadt Aachen 11.08.2021</text>
  <polygon points="34.012,29.0795 592,29.0795 592,370.947 34.012,370.947" style="fill:none;stroke:black;stroke-width:1" />
  <polygon points="42.012,37.0795 247.014,37.0795 247.014,63.1325 42.012,63.1325" style="fill:none;stroke:none;" />
  <text dominant-baseline="hanging" text-anchor="start" transform="translate(70.012,45.0795)" font-family="Segoe UI" font-size="12" font-weight="400" fill="black">7-Tage-Inzidenz Stadt Aachen 11.08.2021</text>
  <polyline points="50.012,50.106 66.012,50.106" style="fill:none;stroke:rgb(31,119,180);stroke-width:2" />
</svg>