<?xml version="1.0" encoding="utf-8" standalone="no"?>
<!DOCTYPE svg PUBLIC "-//W3C//DTD SVG 1.1//EN" "http://www.w3.org/Graphics/SVG/1.1/DTD/svg11.dtd">
<svg width="600" height="400" version="1.1" xmlns:xlink="http://www.w3.org/1999/xlink" xmlns="http://www.w3.org/2000/svg">
  <rect x="0" y="0" width="600" height="400" style="fill:rgb(255,255,255);stroke:none;" />
  <polyline points="34.012,346.3457 30.012,346.3457" style="fill:none;stroke:black;stroke-width:1" />
  <polyline points="34.012,325.1722 30.012,325.1722" style="fill:none;stroke:black;stroke-width:1" />
  <polyline points="34.012,303.9987 30.012,303.9987" style="fill:none;stroke:black;stroke-width:1" />
  <polyline points="34.012,282.8252 30.012,282.8252" style="fill:none;stroke:black;stroke-width:1" />
  <polyline points="34.012,240.4782 30.012,240.4782" style="fill:none;stroke:black;stroke-width:1" />
  <polyline points="34.012,219.3047 30.012,219.3047" style="fill:none;stroke:black;stroke-width:1" />
  <polyline points="34.012,198.1312 30.012,198.1312" style="fill:none;stroke:black;stroke-width:1" />
  <polyline points="34.012,176.9577 30.012,176.9577" style="fill:none;stroke:black;stroke-width:1" />
  <polyline points="34.012,134.6107 30.012,134.6107" style="fill:none;stroke:black;stroke-width:1" />
  <polyline points="34.012,113.4372 30.012,113.4372" style="fill:none;stroke:black;stroke-width:1" />
  <polyline points="34.012,92.2637 30.012,92.2637" style="fill:none;stroke:black;stroke-width:1" />
  <polyline points="34.012,71.0902 30.012,71.0902" style="fill:none;stroke:black;stroke-width:1" />
  <text dominant-baseline="middle" text-anchor="end" transform="translate(23.012,367.5192)" font-family="Segoe UI" font-size="12" font-weight="400" fill="black">0</text>
  <text dominant-baseline="middle" text-anchor="end" transform="translate(23.012,261.6517)" font-family="Segoe UI" font-size="12" font-weight="400" fill="black">100</text>
  <text dominant-baseline="middle" text-anchor="end" transform="translate(23.012,155.7842)" font-family="Segoe UI" font-size="12" font-weight="400" fill="black">200</text>
  <text dominant-baseline="middle" text-anchor="end" transform="translate(23.012,49.9166)" font-family="Segoe UI" font-size="12" font-weight="400" fill="black">300</text>
  <polyline points="34.012,367.5192 27.012,367.5192" style="fill:none;stroke:black;stroke-width:1" />
  <polyline points="34.012,261.6517 27.012,261.6517" style="fill:none;stroke:black;stroke-width:1" />
  <polyline points="34.012,155.7842 27.012,155.7842" style="fill:none;stroke:black;stroke-width:1" />
  <polyline points="34.012,49.9166 27.012,49.9166" style="fill:none;stroke:black;stroke-width:1" />
  <text dominant-baseline="hanging" text-anchor="middle" transform="translate(195.7146,381.947)" font-family="Segoe UI" font-size="12" font-weight="400" fill="black">01. January</text>
  <polyline points="195.7146,370.947 195.7146,377.947" style="fill:none;stroke:black;stroke-width:1" />
  <polyline points="34.012,367.5622 36.2895,367.5621 39.7058,367.5621 40.8445,367.562 41.9833,352.5732 43.122,352.2618 44.2608,356.7249 47.677,353.8187 48.8158,356.7249 49.9545,357.1401 51.0933,357.5552 52.232,356.7249 55.6483,360.0462 56.787,358.8007 57.9258,359.2159 59.0645,358.8007 60.2033,358.8007 63.6195,359.2159 64.7583,360.4614 65.897,359.2159 67.0358,358.8007 68.1745,357.1401 71.5908,352.5732 72.7295,349.2519 73.8683,345.5154 75.007,345.1002 76.1458,341.7789 79.562,345.9305 80.7008,346.3457 81.8395,349.2519 82.9783,348.0064 84.117,348.8367 87.5333,337.212 88.672,337.6272 89.8108,336.7969 90.9496,329.3239 92.0883,325.1722 95.5046,320.1902 96.6433,321.0205 97.7821,315.2082 98.9208,314.3643 100.0596,316.4905 103.4758,305.4343 104.6146,304.1586 105.7533,300.3314 106.8921,292.6771 108.0308,276.5181 111.4471,259.9337 112.5858,256.5318 113.7246,253.5551 114.8633,239.5223 116.0021,239.097 119.4183,191.4702 120.5571,187.6431 121.6958,185.5169 122.8346,187.2178 123.9733,162.9792 127.3896,177.4373 128.5283,169.783 129.6671,170.6335 130.8058,165.1054 131.9446,178.2878 135.3608,157.4511 136.4996,152.7735 137.6383,133.6377 139.9158,114.502 143.3321,135.7639 144.4708,146.3949 145.6096,152.7735 146.7484,138.6874 147.8871,179.1383 151.3034,213.5827 152.4421,201.2507 153.5809,203.3769 154.7196,243.7746 155.8584,227.1903 159.2746,229.3165 160.4134,247.6018 161.5521,256.5318 162.6909,236.1203 163.8296,239.097 167.2459,222.0875 168.3846,223.7884 169.5234,222.5127 170.6621,201.676 171.8009,217.8351 175.2171,203.8022 176.3559,196.5731 177.4946,188.0683 178.6334,197.4236 179.7721,189.344 183.1884,176.1616 184.3271,176.5869 185.4659,194.0217 191.1596,205.9284 192.2984,204.2274 193.4371,189.344 194.5759,190.7792 199.1309,245.9008 200.2696,263.3356 201.4084,274.8171 202.5472,264.6114 203.6859,249.1964 208.2409,232.2932 209.3797,233.9941 210.5184,250.1532 211.6572,272.2657 215.0734,278.5167 216.2122,293.1024 217.3509,286.7238 218.4897,299.9062 219.6284,300.3314 223.0447,290.5509 225.3222,296.0791 226.4609,281.1957 227.5997,272.6909 231.0159,284.5976 232.1547,294.9628 233.2934,290.5509 234.4322,296.0791 235.5709,304.1586 238.9872,306.2848 240.1259,304.1586 241.2647,292.6771 242.4034,293.5276 243.5422,288.4247 246.9584,299.0557 248.0972,300.3314 249.2359,315.6401 250.3747,320.7429 251.5134,332.6496 254.9297,332.6496 256.0684,333.5001 257.2072,326.6963 258.346,327.1215 259.4847,323.7196 262.901,332.2244 264.0397,331.3739 265.1785,328.3972 266.3172,311.3877 267.456,307.1353 270.8722,285.4481 272.011,285.4481 273.1497,284.1724 274.2885,295.2286 275.4272,290.5509 278.8435,282.8966 279.9822,283.3219 281.121,277.7938 282.2597,256.9571 283.3985,243.7746 286.8147,237.8213 287.9535,237.3961 289.0922,240.798 290.231,232.2932 291.3697,241.6484 294.786,255.2561 295.9247,252.7047 297.0635,257.8075 298.2022,269.7142 299.341,251.0037 303.896,241.2232 305.0347,252.2794 306.1735,238.6718 307.3122,263.3356 310.7285,256.4893 311.8672,249.3028 313.006,214.0079 314.1448,229.3165 315.2835,226.3398 318.6998,219.9613 319.8385,205.9284 320.9773,209.7555 322.116,199.5498 323.2548,181.6897 326.671,167.6568 327.8098,179.5635 328.9485,190.1945 330.0873,185.9421 331.226,188.0683 334.6423,207.2041 335.781,198.2741 336.9198,193.5964 338.0585,218.2603 339.1973,233.1437 342.6135,240.3727 343.7523,247.1766 344.891,256.5318 347.1685,232.7184 350.5848,234.8446 351.7235,224.2136 352.8623,219.9613 354.001,223.1505 355.1398,249.3028 359.6948,284.5976 360.8335,302.8829 361.9723,310.1119 363.111,312.6634 366.5273,318.4041 367.666,322.0186 368.8048,321.1682 371.0823,336.4768 374.4986,347.9582 375.6373,351.7854 376.7761,355.1873 377.9148,354.4963 379.0536,358.5892 382.4698,360.7154 383.6086,359.8649 384.7473,359.8649 385.8861,359.0144 387.0248,356.8882 390.4411,356.8882 391.5798,356.463 392.7186,359.0144 393.8573,361.5659 394.9961,362.8416 398.4123,362.4164 399.5511,363.6921 400.6898,361.1406 401.8286,358.5892 402.9673,359.4397 406.3836,359.4397 408.6611,359.8649 410.9386,361.5659 414.3548,362.4164 416.6323,357.3135 418.9098,349.2339 424.6036,340.7292 426.8811,330.0982 432.5749,328.8225 434.8524,339.0282 440.5461,338.603 442.8236,333.9253 448.5174,312.6634 450.7949,288.4247 456.4886,281.6209 458.7661,292.6771 464.4599,242.0737 466.7374,234.8446 472.4311,266.3123 474.7086,257.8075 482.6799,271.4152 490.6512,296.0791 496.3449,305.0091 498.6224,309.6867 504.3162,313.0886 506.5937,321.5934 512.2874,333.0749 514.5649,333.0749 520.2587,332.6496 522.5362,332.2244 528.2299,332.2244 530.5074,318.6167 536.2012,290.9762 538.4787,263.3356 544.1725,256.5318 546.45,242.0737 552.1437,184.6664 554.4212,163.4045 560.115,142.1425 562.3925,140.8668 568.0862,63.4733 570.3637,32.4308 576.0575,54.118 584.0287,68.1509 586.3062,58.9374 592,115.3524" style="fill:none;stroke:rgb(31,119,180);stroke-width:2;stroke-linejoin:bevel" />
  <text dominant-baseline="hanging" text-anchor="middle" transform="translate(313.006,8)" font-family="Segoe UI" font-size="18" font-weight="700" fill="black">7-Tage-Inzidenz Stadt Aachen 15.12.2021</text>
  <polygon points="34.012,29.0795 592,29.0795 592,370.947 34.012,370.947" style="fill:none;stroke:black;stroke-width:1" />
  <polygon points="42.012,37.0795 247.014,37.0795 247.014,63.1325 42.012,63.1325" style="fill:none;stroke:none;" />
  <text dominant-baseline="hanging" text-anchor="start" transform="translate(70.012,45.0795)" font-family="Segoe UI" font-size="12" font-weight="400" fill="black">7-Tage-Inzidenz Stadt Aachen 15.12.2021</text>
  <polyline points="50.012,50.106 66.012,50.106" style="fill:none;stroke:rgb(31,119,180);stroke-width:2" />
</svg>