<?xml version="1.0" encoding="utf-8" standalone="no"?>
<!DOCTYPE svg PUBLIC "-//W3C//DTD SVG 1.1//EN" "http://www.w3.org/Graphics/SVG/1.1/DTD/svg11.dtd">
<svg width="600" height="400" version="1.1" xmlns:xlink="http://www.w3.org/1999/xlink" xmlns="http://www.w3.org/2000/svg">
  <rect x="0" y="0" width="600" height="400" style="fill:rgb(255,255,255);stroke:none;" />
  <polyline points="34.012,362.7539 30.012,362.7539" style="fill:none;stroke:black;stroke-width:1" />
  <polyline points="34.012,348.3289 30.012,348.3289" style="fill:none;stroke:black;stroke-width:1" />
  <polyline points="34.012,333.904 30.012,333.904" style="fill:none;stroke:black;stroke-width:1" />
  <polyline points="34.012,319.479 30.012,319.479" style="fill:none;stroke:black;stroke-width:1" />
  <polyline points="34.012,290.6291 30.012,290.6291" style="fill:none;stroke:black;stroke-width:1" />
  <polyline points="34.012,276.2041 30.012,276.2041" style="fill:none;stroke:black;stroke-width:1" />
  <polyline points="34.012,261.7792 30.012,261.7792" style="fill:none;stroke:black;stroke-width:1" />
  <polyline points="34.012,247.3542 30.012,247.3542" style="fill:none;stroke:black;stroke-width:1" />
  <polyline points="34.012,218.5043 30.012,218.5043" style="fill:none;stroke:black;stroke-width:1" />
  <polyline points="34.012,204.0794 30.012,204.0794" style="fill:none;stroke:black;stroke-width:1" />
  <polyline points="34.012,189.6544 30.012,189.6544" style="fill:none;stroke:black;stroke-width:1" />
  <polyline points="34.012,175.2295 30.012,175.2295" style="fill:none;stroke:black;stroke-width:1" />
  <polyline points="34.012,146.3796 30.012,146.3796" style="fill:none;stroke:black;stroke-width:1" />
  <polyline points="34.012,131.9546 30.012,131.9546" style="fill:none;stroke:black;stroke-width:1" />
  <polyline points="34.012,117.5297 30.012,117.5297" style="fill:none;stroke:black;stroke-width:1" />
  <polyline points="34.012,103.1047 30.012,103.1047" style="fill:none;stroke:black;stroke-width:1" />
  <polyline points="34.012,74.2548 30.012,74.2548" style="fill:none;stroke:black;stroke-width:1" />
  <polyline points="34.012,59.8299 30.012,59.8299" style="fill:none;stroke:black;stroke-width:1" />
  <polyline points="34.012,45.4049 30.012,45.4049" style="fill:none;stroke:black;stroke-width:1" />
  <polyline points="34.012,30.98 30.012,30.98" style="fill:none;stroke:black;stroke-width:1" />
  <text dominant-baseline="middle" text-anchor="end" transform="translate(23.012,305.0541)" font-family="Segoe UI" font-size="12" font-weight="400" fill="black">50</text>
  <text dominant-baseline="middle" text-anchor="end" transform="translate(23.012,232.9293)" font-family="Segoe UI" font-size="12" font-weight="400" fill="black">100</text>
  <text dominant-baseline="middle" text-anchor="end" transform="translate(23.012,160.8045)" font-family="Segoe UI" font-size="12" font-weight="400" fill="black">150</text>
  <text dominant-baseline="middle" text-anchor="end" transform="translate(23.012,88.6798)" font-family="Segoe UI" font-size="12" font-weight="400" fill="black">200</text>
  <polyline points="34.012,305.0541 27.012,305.0541" style="fill:none;stroke:black;stroke-width:1" />
  <polyline points="34.012,232.9293 27.012,232.9293" style="fill:none;stroke:black;stroke-width:1" />
  <polyline points="34.012,160.8045 27.012,160.8045" style="fill:none;stroke:black;stroke-width:1" />
  <polyline points="34.012,88.6798 27.012,88.6798" style="fill:none;stroke:black;stroke-width:1" />
  <text dominant-baseline="hanging" text-anchor="middle" transform="translate(71.4029,381.947)" font-family="Segoe UI" font-size="12" font-weight="400" fill="black">01. September</text>
  <text dominant-baseline="hanging" text-anchor="middle" transform="translate(157.6898,381.947)" font-family="Segoe UI" font-size="12" font-weight="400" fill="black">01. October</text>
  <text dominant-baseline="hanging" text-anchor="middle" transform="translate(246.8528,381.947)" font-family="Segoe UI" font-size="12" font-weight="400" fill="black">01. November</text>
  <text dominant-baseline="hanging" text-anchor="middle" transform="translate(333.1396,381.947)" font-family="Segoe UI" font-size="12" font-weight="400" fill="black">01. December</text>
  <text dominant-baseline="hanging" text-anchor="middle" transform="translate(422.3026,381.947)" font-family="Segoe UI" font-size="12" font-weight="400" fill="black">01. January</text>
  <text dominant-baseline="hanging" text-anchor="middle" transform="translate(511.4656,381.947)" font-family="Segoe UI" font-size="12" font-weight="400" fill="black">01. February</text>
  <text dominant-baseline="hanging" text-anchor="middle" transform="translate(592,381.947)" font-family="Segoe UI" font-size="12" font-weight="400" fill="black">01. March</text>
  <polyline points="71.4029,370.947 71.4029,377.947" style="fill:none;stroke:black;stroke-width:1" />
  <polyline points="157.6898,370.947 157.6898,377.947" style="fill:none;stroke:black;stroke-width:1" />
  <polyline points="246.8528,370.947 246.8528,377.947" style="fill:none;stroke:black;stroke-width:1" />
  <polyline points="333.1396,370.947 333.1396,377.947" style="fill:none;stroke:black;stroke-width:1" />
  <polyline points="422.3026,370.947 422.3026,377.947" style="fill:none;stroke:black;stroke-width:1" />
  <polyline points="511.4656,370.947 511.4656,377.947" style="fill:none;stroke:black;stroke-width:1" />
  <polyline points="592,370.947 592,377.947" style="fill:none;stroke:black;stroke-width:1" />
  <polyline points="34.012,356.8142 36.8882,356.3899 39.7645,362.471 48.3931,358.5112 51.2694,362.471 54.1456,363.0367 57.0218,363.6024 59.898,362.471 68.5267,366.9965 71.4029,365.2994 74.2792,365.8651 77.1554,365.2994 80.0316,365.2994 88.6603,365.8651 91.5365,367.5622 94.4128,365.8651 97.289,365.2994 100.1652,363.0367 108.7939,356.8142 111.6701,352.2887 114.5464,347.1975 117.4226,346.6319 120.2988,342.1064 128.9275,347.7632 131.8037,348.3289 134.6799,352.2887 137.5562,350.5916 140.4324,351.723 149.0611,335.8838 151.9373,336.4495 154.8135,335.3182 157.6898,325.1358 160.566,319.479 169.1947,312.6908 172.0709,313.8222 174.9471,305.9026 177.8233,304.7528 180.6996,307.6498 189.3282,292.5852 192.2045,290.847 195.0807,285.6323 197.9569,275.2029 200.8332,253.1854 209.4618,230.5885 212.3381,225.9532 215.2143,221.8974 218.0905,202.7769 220.9667,202.1975 229.5954,137.3037 232.4716,132.0891 235.3479,129.192 238.2241,131.5096 241.1003,98.4834 249.729,118.1833 252.6052,107.7539 255.4815,108.9127 258.3577,101.3804 261.2339,119.3421 269.8626,90.9511 272.7388,84.5776 275.6151,58.5042 281.3675,32.4308 289.9962,61.4012 292.8724,75.8864 295.7486,84.5776 298.6249,65.3847 301.5011,120.5009 310.1298,167.433 313.006,150.6301 315.8822,153.5272 318.7585,208.571 321.6347,185.974 330.2634,188.8711 333.1396,213.7856 336.0158,225.9532 338.892,198.1416 341.7683,202.1975 350.3969,179.0211 353.2732,181.3388 356.1494,179.6005 359.0256,151.2095 361.9019,173.2271 370.5305,154.1066 373.4068,144.2566 376.283,132.6685 379.1592,145.4155 382.0354,134.4067 390.6641,116.445 393.5404,117.0244 396.4166,140.7802 410.7977,157.0036 413.6739,154.686 416.5502,134.4067 419.4264,136.3622 430.9313,211.468 433.8075,235.2238 436.6838,250.8678 439.56,236.962 442.4362,215.9584 453.9411,192.9269 456.8173,195.2446 459.6936,217.2621 462.5698,247.3913 471.1985,255.9086 474.0747,275.7823 476.9509,267.0912 479.8272,285.0529 482.7034,285.6323 491.3321,272.3059 497.0845,279.8382 499.9607,259.5589 502.837,247.9707 511.4656,264.1942 514.3419,278.3173 517.2181,272.3059 520.0943,279.8382 522.9706,290.847 531.5992,293.744 534.4755,290.847 537.3517,275.2029 540.2279,276.3617 543.1041,269.4088 551.7328,283.8941 554.6091,285.6323 557.4853,306.491 560.3615,313.4439 563.2377,329.6673 571.8664,329.6673 574.7426,330.8261 577.6189,321.5556 580.4951,322.135 583.3713,317.4997 592,329.0879" style="fill:none;stroke:rgb(31,119,180);stroke-width:2;stroke-linejoin:bevel" />
  <text dominant-baseline="hanging" text-anchor="middle" transform="translate(313.006,8)" font-family="Segoe UI" font-size="18" font-weight="700" fill="black">7-Tage-Inzidenz Stadt Aachen 01.03.2021</text>
  <polygon points="34.012,29.0795 592,29.0795 592,370.947 34.012,370.947" style="fill:none;stroke:black;stroke-width:1" />
  <polygon points="42.012,37.0795 247.014,37.0795 247.014,63.1325 42.012,63.1325" style="fill:none;stroke:none;" />
  <text dominant-baseline="hanging" text-anchor="start" transform="translate(70.012,45.0795)" font-family="Segoe UI" font-size="12" font-weight="400" fill="black">7-Tage-Inzidenz Stadt Aachen 01.03.2021</text>
  <polyline points="50.012,50.106 66.012,50.106" style="fill:none;stroke:rgb(31,119,180);stroke-width:2" />
</svg>