<?xml version="1.0" encoding="utf-8" standalone="no"?>
<!DOCTYPE svg PUBLIC "-//W3C//DTD SVG 1.1//EN" "http://www.w3.org/Graphics/SVG/1.1/DTD/svg11.dtd">
<svg width="600" height="400" version="1.1" xmlns:xlink="http://www.w3.org/1999/xlink" xmlns="http://www.w3.org/2000/svg">
  <rect x="0" y="0" width="600" height="400" style="fill:rgb(255,255,255);stroke:none;" />
  <polyline points="34.012,353.4881 30.012,353.4881" style="fill:none;stroke:black;stroke-width:1" />
  <polyline points="34.012,339.4678 30.012,339.4678" style="fill:none;stroke:black;stroke-width:1" />
  <polyline points="34.012,325.4475 30.012,325.4475" style="fill:none;stroke:black;stroke-width:1" />
  <polyline points="34.012,311.4272 30.012,311.4272" style="fill:none;stroke:black;stroke-width:1" />
  <polyline points="34.012,283.3865 30.012,283.3865" style="fill:none;stroke:black;stroke-width:1" />
  <polyline points="34.012,269.3662 30.012,269.3662" style="fill:none;stroke:black;stroke-width:1" />
  <polyline points="34.012,255.3459 30.012,255.3459" style="fill:none;stroke:black;stroke-width:1" />
  <polyline points="34.012,241.3255 30.012,241.3255" style="fill:none;stroke:black;stroke-width:1" />
  <polyline points="34.012,213.2849 30.012,213.2849" style="fill:none;stroke:black;stroke-width:1" />
  <polyline points="34.012,199.2646 30.012,199.2646" style="fill:none;stroke:black;stroke-width:1" />
  <polyline points="34.012,185.2442 30.012,185.2442" style="fill:none;stroke:black;stroke-width:1" />
  <polyline points="34.012,171.2239 30.012,171.2239" style="fill:none;stroke:black;stroke-width:1" />
  <polyline points="34.012,143.1833 30.012,143.1833" style="fill:none;stroke:black;stroke-width:1" />
  <polyline points="34.012,129.1629 30.012,129.1629" style="fill:none;stroke:black;stroke-width:1" />
  <polyline points="34.012,115.1426 30.012,115.1426" style="fill:none;stroke:black;stroke-width:1" />
  <polyline points="34.012,101.1223 30.012,101.1223" style="fill:none;stroke:black;stroke-width:1" />
  <polyline points="34.012,73.0816 30.012,73.0816" style="fill:none;stroke:black;stroke-width:1" />
  <polyline points="34.012,59.0613 30.012,59.0613" style="fill:none;stroke:black;stroke-width:1" />
  <polyline points="34.012,45.041 30.012,45.041" style="fill:none;stroke:black;stroke-width:1" />
  <polyline points="34.012,31.0207 30.012,31.0207" style="fill:none;stroke:black;stroke-width:1" />
  <polyline points="69.6662,370.947 69.6662,374.947" style="fill:none;stroke:black;stroke-width:1" />
  <polyline points="178.4115,370.947 178.4115,374.947" style="fill:none;stroke:black;stroke-width:1" />
  <polyline points="287.1567,370.947 287.1567,374.947" style="fill:none;stroke:black;stroke-width:1" />
  <polyline points="392.3366,370.947 392.3366,374.947" style="fill:none;stroke:black;stroke-width:1" />
  <polyline points="501.0818,370.947 501.0818,374.947" style="fill:none;stroke:black;stroke-width:1" />
  <text dominant-baseline="middle" text-anchor="end" transform="translate(23.012,367.5085)" font-family="Segoe UI" font-size="12" font-weight="400" fill="black">0</text>
  <text dominant-baseline="middle" text-anchor="end" transform="translate(23.012,297.4068)" font-family="Segoe UI" font-size="12" font-weight="400" fill="black">50</text>
  <text dominant-baseline="middle" text-anchor="end" transform="translate(23.012,227.3052)" font-family="Segoe UI" font-size="12" font-weight="400" fill="black">100</text>
  <text dominant-baseline="middle" text-anchor="end" transform="translate(23.012,157.2036)" font-family="Segoe UI" font-size="12" font-weight="400" fill="black">150</text>
  <text dominant-baseline="middle" text-anchor="end" transform="translate(23.012,87.102)" font-family="Segoe UI" font-size="12" font-weight="400" fill="black">200</text>
  <polyline points="34.012,367.5085 27.012,367.5085" style="fill:none;stroke:black;stroke-width:1" />
  <polyline points="34.012,297.4068 27.012,297.4068" style="fill:none;stroke:black;stroke-width:1" />
  <polyline points="34.012,227.3052 27.012,227.3052" style="fill:none;stroke:black;stroke-width:1" />
  <polyline points="34.012,157.2036 27.012,157.2036" style="fill:none;stroke:black;stroke-width:1" />
  <polyline points="34.012,87.102 27.012,87.102" style="fill:none;stroke:black;stroke-width:1" />
  <text dominant-baseline="hanging" text-anchor="middle" transform="translate(123.1475,381.947)" font-family="Segoe UI" font-size="12" font-weight="400" fill="black">01. October</text>
  <text dominant-baseline="hanging" text-anchor="middle" transform="translate(231.8927,381.947)" font-family="Segoe UI" font-size="12" font-weight="400" fill="black">01. December</text>
  <text dominant-baseline="hanging" text-anchor="middle" transform="translate(342.4207,381.947)" font-family="Segoe UI" font-size="12" font-weight="400" fill="black">01. February</text>
  <text dominant-baseline="hanging" text-anchor="middle" transform="translate(447.6005,381.947)" font-family="Segoe UI" font-size="12" font-weight="400" fill="black">01. April</text>
  <text dominant-baseline="hanging" text-anchor="middle" transform="translate(556.3458,381.947)" font-family="Segoe UI" font-size="12" font-weight="400" fill="black">01. June</text>
  <polyline points="123.1475,370.947 123.1475,377.947" style="fill:none;stroke:black;stroke-width:1" />
  <polyline points="231.8927,370.947 231.8927,377.947" style="fill:none;stroke:black;stroke-width:1" />
  <polyline points="342.4207,370.947 342.4207,377.947" style="fill:none;stroke:black;stroke-width:1" />
  <polyline points="447.6005,370.947 447.6005,377.947" style="fill:none;stroke:black;stroke-width:1" />
  <polyline points="556.3458,370.947 556.3458,377.947" style="fill:none;stroke:black;stroke-width:1" />
  <polyline points="34.012,367.5622 37.5774,367.5621 42.9255,367.5621 44.7083,367.562 46.491,347.7151 48.2737,347.3027 50.0564,353.2132 55.4045,349.3645 57.1872,353.2132 58.9699,353.7631 60.7526,354.3129 62.5353,353.2132 67.8835,357.6118 69.6662,355.9623 71.4489,356.5121 73.2316,355.9623 75.0143,355.9623 80.3624,356.5121 82.1452,358.1616 83.9279,356.5121 85.7106,355.9623 87.4933,353.7631 92.8414,347.7151 94.6241,343.3165 96.4068,338.3682 98.1895,337.8184 99.9722,333.4198 105.3204,338.918 107.1031,339.4678 108.8858,343.3165 110.6685,341.6671 112.4512,342.7667 117.7993,327.3719 119.582,327.9217 121.3648,326.822 123.1475,316.9253 124.9302,311.4272 130.2783,304.8294 132.061,305.929 133.8437,298.2316 135.6264,297.114 137.4091,299.9298 142.7573,285.2877 144.54,283.5983 146.3227,278.5299 148.1054,268.3931 149.8881,246.9931 155.2362,225.0301 157.0189,220.5248 158.8016,216.5827 160.5844,197.9986 162.3671,197.4354 167.7152,134.362 169.4979,129.2936 171.2806,126.4778 173.0633,128.7304 174.846,96.6306 180.1942,115.7779 181.9769,105.6411 183.7596,106.7674 185.5423,99.4463 187.325,116.9042 192.6731,89.3095 194.4558,83.1148 196.2385,57.7728 199.804,32.4308 205.1521,60.5886 206.9348,74.6675 208.7175,83.1148 210.5002,64.4603 212.2829,118.0305 217.6311,163.6461 219.4138,147.3146 221.1965,150.1304 222.9792,203.6302 224.7619,181.6671 230.11,184.4829 231.8927,208.6986 233.6754,220.5248 235.4581,193.4934 237.2409,197.4354 242.589,174.9092 244.3717,177.1618 246.1544,175.4724 247.9371,147.8777 249.7198,169.2777 255.0679,150.6935 256.8507,141.1199 258.6334,129.8568 260.4161,142.2462 262.1988,131.5462 267.5469,114.0884 269.3296,114.6515 271.1123,137.7409 280.0259,153.5093 281.8086,151.2567 283.5913,131.5462 285.374,133.4469 292.5048,206.4459 294.2876,229.5353 296.0703,244.7405 297.853,231.2248 299.6357,210.8104 306.7665,188.4249 308.5492,190.6776 310.3319,212.0775 312.1146,241.3616 317.4628,249.64 319.2455,268.9562 321.0282,260.5089 322.8109,277.9667 324.5936,278.5299 329.9417,265.5773 333.5072,272.8983 335.2899,253.1879 337.0726,241.9247 342.4207,257.6931 344.2034,271.42 345.9861,265.5773 347.7688,272.8983 349.5515,283.5983 354.8997,286.414 356.6824,283.5983 358.4651,268.3931 360.2478,269.5194 362.0305,262.7615 367.3786,276.8404 369.1613,278.5299 370.9441,298.8035 372.7268,305.5613 374.5095,321.3297 379.8576,321.3297 381.6403,322.456 383.423,313.4455 385.2057,314.0087 386.9884,309.5034 392.3366,320.7665 394.1193,319.6402 395.902,315.6981 397.6847,293.1719 399.4674,287.5404 404.8155,258.8194 406.5982,258.8194 408.3809,257.1299 410.1637,271.772 411.9464,265.5773 417.2945,255.4405 419.0772,256.0036 420.8599,248.6826 422.6426,221.088 424.4253,203.6302 429.7735,195.746 431.5562,195.1828 433.3389,199.6881 435.1216,188.4249 436.9043,200.8144 442.2524,218.8354 444.0351,215.4564 445.8178,222.2143 447.6005,237.9827 449.3833,213.2038 456.5141,200.2512 458.2968,214.8933 460.0795,196.8723 461.8622,229.5353 467.2104,220.4685 468.9931,210.9512 470.7758,164.2093 472.5585,184.4829 474.3412,180.5408 479.6893,172.0934 481.472,153.5093 483.2547,158.5777 485.0374,145.062 486.8202,121.4094 492.1683,102.8253 493.951,118.5936 495.7337,132.6725 497.5164,127.041 499.2991,129.8568 504.6472,155.1988 506.43,143.3725 508.2127,137.1778 509.9954,169.8408 511.7781,189.5513 517.1262,199.1249 518.9089,208.1354 520.6916,220.5248 524.257,188.9881 529.6052,191.8039 531.3879,177.725 533.1706,172.0934 534.9533,176.3171 536.736,210.9512 543.8668,257.6931 545.6496,281.9088 547.4323,291.4824 549.215,294.8614 554.5631,302.464 556.3458,307.2508 558.1285,306.1245 561.6939,326.3981 567.0421,341.6033 568.8248,346.6717 570.6075,351.177 572.3902,350.2618 574.1729,355.6822 579.521,358.498 581.3037,357.3717 583.0865,357.3717 584.8692,356.2454 586.6519,353.4296 592,353.4296" style="fill:none;stroke:rgb(31,119,180);stroke-width:2;stroke-linejoin:bevel" />
  <text dominant-baseline="hanging" text-anchor="middle" transform="translate(313.006,8)" font-family="Segoe UI" font-size="18" font-weight="700" fill="black">7-Tage-Inzidenz Stadt Aachen 21.06.2021</text>
  <polygon points="34.012,29.0795 592,29.0795 592,370.947 34.012,370.947" style="fill:none;stroke:black;stroke-width:1" />
  <polygon points="42.012,37.0795 247.014,37.0795 247.014,63.1325 42.012,63.1325" style="fill:none;stroke:none;" />
  <text dominant-baseline="hanging" text-anchor="start" transform="translate(70.012,45.0795)" font-family="Segoe UI" font-size="12" font-weight="400" fill="black">7-Tage-Inzidenz Stadt Aachen 21.06.2021</text>
  <polyline points="50.012,50.106 66.012,50.106" style="fill:none;stroke:rgb(31,119,180);stroke-width:2" />
</svg>