<?xml version="1.0" encoding="utf-8" standalone="no"?>
<!DOCTYPE svg PUBLIC "-//W3C//DTD SVG 1.1//EN" "http://www.w3.org/Graphics/SVG/1.1/DTD/svg11.dtd">
<svg width="600" height="400" version="1.1" xmlns:xlink="http://www.w3.org/1999/xlink" xmlns="http://www.w3.org/2000/svg">
  <rect x="0" y="0" width="600" height="400" style="fill:rgb(255,255,255);stroke:none;" />
  <polyline points="34.012,362.7539 30.012,362.7539" style="fill:none;stroke:black;stroke-width:1" />
  <polyline points="34.012,348.3289 30.012,348.3289" style="fill:none;stroke:black;stroke-width:1" />
  <polyline points="34.012,333.904 30.012,333.904" style="fill:none;stroke:black;stroke-width:1" />
  <polyline points="34.012,319.479 30.012,319.479" style="fill:none;stroke:black;stroke-width:1" />
  <polyline points="34.012,290.6291 30.012,290.6291" style="fill:none;stroke:black;stroke-width:1" />
  <polyline points="34.012,276.2041 30.012,276.2041" style="fill:none;stroke:black;stroke-width:1" />
  <polyline points="34.012,261.7792 30.012,261.7792" style="fill:none;stroke:black;stroke-width:1" />
  <polyline points="34.012,247.3542 30.012,247.3542" style="fill:none;stroke:black;stroke-width:1" />
  <polyline points="34.012,218.5043 30.012,218.5043" style="fill:none;stroke:black;stroke-width:1" />
  <polyline points="34.012,204.0794 30.012,204.0794" style="fill:none;stroke:black;stroke-width:1" />
  <polyline points="34.012,189.6544 30.012,189.6544" style="fill:none;stroke:black;stroke-width:1" />
  <polyline points="34.012,175.2295 30.012,175.2295" style="fill:none;stroke:black;stroke-width:1" />
  <polyline points="34.012,146.3796 30.012,146.3796" style="fill:none;stroke:black;stroke-width:1" />
  <polyline points="34.012,131.9546 30.012,131.9546" style="fill:none;stroke:black;stroke-width:1" />
  <polyline points="34.012,117.5297 30.012,117.5297" style="fill:none;stroke:black;stroke-width:1" />
  <polyline points="34.012,103.1047 30.012,103.1047" style="fill:none;stroke:black;stroke-width:1" />
  <polyline points="34.012,74.2548 30.012,74.2548" style="fill:none;stroke:black;stroke-width:1" />
  <polyline points="34.012,59.8299 30.012,59.8299" style="fill:none;stroke:black;stroke-width:1" />
  <polyline points="34.012,45.4049 30.012,45.4049" style="fill:none;stroke:black;stroke-width:1" />
  <polyline points="34.012,30.98 30.012,30.98" style="fill:none;stroke:black;stroke-width:1" />
  <text dominant-baseline="middle" text-anchor="end" transform="translate(23.012,305.0541)" font-family="Segoe UI" font-size="12" font-weight="400" fill="black">50</text>
  <text dominant-baseline="middle" text-anchor="end" transform="translate(23.012,232.9293)" font-family="Segoe UI" font-size="12" font-weight="400" fill="black">100</text>
  <text dominant-baseline="middle" text-anchor="end" transform="translate(23.012,160.8045)" font-family="Segoe UI" font-size="12" font-weight="400" fill="black">150</text>
  <text dominant-baseline="middle" text-anchor="end" transform="translate(23.012,88.6798)" font-family="Segoe UI" font-size="12" font-weight="400" fill="black">200</text>
  <polyline points="34.012,305.0541 27.012,305.0541" style="fill:none;stroke:black;stroke-width:1" />
  <polyline points="34.012,232.9293 27.012,232.9293" style="fill:none;stroke:black;stroke-width:1" />
  <polyline points="34.012,160.8045 27.012,160.8045" style="fill:none;stroke:black;stroke-width:1" />
  <polyline points="34.012,88.6798 27.012,88.6798" style="fill:none;stroke:black;stroke-width:1" />
  <text dominant-baseline="hanging" text-anchor="middle" transform="translate(79.6337,381.947)" font-family="Segoe UI" font-size="12" font-weight="400" fill="black">01. September</text>
  <text dominant-baseline="hanging" text-anchor="middle" transform="translate(184.9144,381.947)" font-family="Segoe UI" font-size="12" font-weight="400" fill="black">01. October</text>
  <text dominant-baseline="hanging" text-anchor="middle" transform="translate(293.7045,381.947)" font-family="Segoe UI" font-size="12" font-weight="400" fill="black">01. November</text>
  <text dominant-baseline="hanging" text-anchor="middle" transform="translate(398.9853,381.947)" font-family="Segoe UI" font-size="12" font-weight="400" fill="black">01. December</text>
  <text dominant-baseline="hanging" text-anchor="middle" transform="translate(507.7754,381.947)" font-family="Segoe UI" font-size="12" font-weight="400" fill="black">01. January</text>
  <polyline points="79.6337,370.947 79.6337,377.947" style="fill:none;stroke:black;stroke-width:1" />
  <polyline points="184.9144,370.947 184.9144,377.947" style="fill:none;stroke:black;stroke-width:1" />
  <polyline points="293.7045,370.947 293.7045,377.947" style="fill:none;stroke:black;stroke-width:1" />
  <polyline points="398.9853,370.947 398.9853,377.947" style="fill:none;stroke:black;stroke-width:1" />
  <polyline points="507.7754,370.947 507.7754,377.947" style="fill:none;stroke:black;stroke-width:1" />
  <polyline points="34.012,356.8142 37.5214,356.3899 41.0307,362.471 51.5588,358.5112 55.0682,362.471 58.5775,363.0367 62.0869,363.6024 65.5962,362.471 76.1243,366.9965 79.6337,365.2994 83.143,365.8651 86.6524,365.2994 90.1617,365.2994 100.6898,365.8651 104.1992,367.5622 107.7085,365.8651 111.2179,365.2994 114.7272,363.0367 125.2553,356.8142 128.7647,352.2887 132.274,347.1975 135.7834,346.6319 139.2928,342.1064 149.8208,347.7632 153.3302,348.3289 156.8395,352.2887 160.3489,350.5916 163.8583,351.723 174.3863,335.8838 177.8957,336.4495 181.4051,335.3182 184.9144,325.1358 188.4238,319.479 198.9518,312.6908 202.4612,313.8222 205.9706,305.9026 209.4799,304.7528 212.9893,307.6498 223.5174,292.5852 227.0267,290.847 230.5361,285.6323 234.0454,275.2029 237.5548,253.1854 248.0829,230.5885 251.5922,225.9532 255.1016,221.8974 258.6109,202.7769 262.1203,202.1975 272.6484,137.3037 276.1577,132.0891 279.6671,129.192 283.1765,131.5096 286.6858,98.4834 297.2139,118.1833 300.7232,107.7539 304.2326,108.9127 307.742,101.3804 311.2513,119.3421 321.7794,90.9511 325.2888,84.5776 328.7981,58.5042 335.8168,32.4308 346.3449,61.4012 349.8543,75.8864 353.3636,84.5776 356.873,65.3847 360.3823,120.5009 370.9104,167.433 374.4198,150.6301 377.9291,153.5272 381.4385,208.571 384.9478,185.974 395.4759,188.8711 398.9853,213.7856 402.4946,225.9532 406.004,198.1416 409.5134,202.1975 420.0414,179.0211 423.5508,181.3388 427.0602,179.6005 430.5695,151.2095 434.0789,173.2271 444.6069,154.1066 448.1163,144.2566 451.6257,132.6685 455.135,145.4155 458.6444,134.4067 469.1725,116.445 472.6818,117.0244 476.1912,140.7802 493.738,157.0036 497.2473,154.686 500.7567,134.4067 504.266,136.3622 518.3035,211.468 521.8128,235.2238 525.3222,250.8678 528.8315,236.962 532.3409,215.9584 546.3783,192.9269 549.8877,195.2446 553.3971,217.2621 556.9064,247.3913 567.4345,255.9086 570.9438,275.7823 574.4532,267.0912 577.9626,285.0529 581.4719,285.6323 592,272.3059" style="fill:none;stroke:rgb(31,119,180);stroke-width:2;stroke-linejoin:bevel" />
  <text dominant-baseline="hanging" text-anchor="middle" transform="translate(313.006,8)" font-family="Segoe UI" font-size="18" font-weight="700" fill="black">7-Tage-Inzidenz Stadt Aachen 25.01.2021</text>
  <polygon points="34.012,29.0795 592,29.0795 592,370.947 34.012,370.947" style="fill:none;stroke:black;stroke-width:1" />
  <polygon points="42.012,37.0795 247.014,37.0795 247.014,63.1325 42.012,63.1325" style="fill:none;stroke:none;" />
  <text dominant-baseline="hanging" text-anchor="start" transform="translate(70.012,45.0795)" font-family="Segoe UI" font-size="12" font-weight="400" fill="black">7-Tage-Inzidenz Stadt Aachen 25.01.2021</text>
  <polyline points="50.012,50.106 66.012,50.106" style="fill:none;stroke:rgb(31,119,180);stroke-width:2" />
</svg>