<?xml version="1.0" encoding="utf-8" standalone="no"?>
<!DOCTYPE svg PUBLIC "-//W3C//DTD SVG 1.1//EN" "http://www.w3.org/Graphics/SVG/1.1/DTD/svg11.dtd">
<svg width="600" height="400" version="1.1" xmlns:xlink="http://www.w3.org/1999/xlink" xmlns="http://www.w3.org/2000/svg">
  <rect x="0" y="0" width="600" height="400" style="fill:rgb(255,255,255);stroke:none;" />
  <polyline points="34.012,353.4851 30.012,353.4851" style="fill:none;stroke:black;stroke-width:1" />
  <polyline points="34.012,339.4649 30.012,339.4649" style="fill:none;stroke:black;stroke-width:1" />
  <polyline points="34.012,325.4447 30.012,325.4447" style="fill:none;stroke:black;stroke-width:1" />
  <polyline points="34.012,311.4245 30.012,311.4245" style="fill:none;stroke:black;stroke-width:1" />
  <polyline points="34.012,283.3841 30.012,283.3841" style="fill:none;stroke:black;stroke-width:1" />
  <polyline points="34.012,269.3639 30.012,269.3639" style="fill:none;stroke:black;stroke-width:1" />
  <polyline points="34.012,255.3438 30.012,255.3438" style="fill:none;stroke:black;stroke-width:1" />
  <polyline points="34.012,241.3236 30.012,241.3236" style="fill:none;stroke:black;stroke-width:1" />
  <polyline points="34.012,213.2832 30.012,213.2832" style="fill:none;stroke:black;stroke-width:1" />
  <polyline points="34.012,199.263 30.012,199.263" style="fill:none;stroke:black;stroke-width:1" />
  <polyline points="34.012,185.2428 30.012,185.2428" style="fill:none;stroke:black;stroke-width:1" />
  <polyline points="34.012,171.2226 30.012,171.2226" style="fill:none;stroke:black;stroke-width:1" />
  <polyline points="34.012,143.1822 30.012,143.1822" style="fill:none;stroke:black;stroke-width:1" />
  <polyline points="34.012,129.162 30.012,129.162" style="fill:none;stroke:black;stroke-width:1" />
  <polyline points="34.012,115.1418 30.012,115.1418" style="fill:none;stroke:black;stroke-width:1" />
  <polyline points="34.012,101.1216 30.012,101.1216" style="fill:none;stroke:black;stroke-width:1" />
  <polyline points="34.012,73.0813 30.012,73.0813" style="fill:none;stroke:black;stroke-width:1" />
  <polyline points="34.012,59.0611 30.012,59.0611" style="fill:none;stroke:black;stroke-width:1" />
  <polyline points="34.012,45.0409 30.012,45.0409" style="fill:none;stroke:black;stroke-width:1" />
  <polyline points="34.012,31.0207 30.012,31.0207" style="fill:none;stroke:black;stroke-width:1" />
  <text dominant-baseline="middle" text-anchor="end" transform="translate(23.012,367.5053)" font-family="Segoe UI" font-size="12" font-weight="400" fill="black">0</text>
  <text dominant-baseline="middle" text-anchor="end" transform="translate(23.012,297.4043)" font-family="Segoe UI" font-size="12" font-weight="400" fill="black">50</text>
  <text dominant-baseline="middle" text-anchor="end" transform="translate(23.012,227.3034)" font-family="Segoe UI" font-size="12" font-weight="400" fill="black">100</text>
  <text dominant-baseline="middle" text-anchor="end" transform="translate(23.012,157.2024)" font-family="Segoe UI" font-size="12" font-weight="400" fill="black">150</text>
  <text dominant-baseline="middle" text-anchor="end" transform="translate(23.012,87.1015)" font-family="Segoe UI" font-size="12" font-weight="400" fill="black">200</text>
  <polyline points="34.012,367.5053 27.012,367.5053" style="fill:none;stroke:black;stroke-width:1" />
  <polyline points="34.012,297.4043 27.012,297.4043" style="fill:none;stroke:black;stroke-width:1" />
  <polyline points="34.012,227.3034 27.012,227.3034" style="fill:none;stroke:black;stroke-width:1" />
  <polyline points="34.012,157.2024 27.012,157.2024" style="fill:none;stroke:black;stroke-width:1" />
  <polyline points="34.012,87.1015 27.012,87.1015" style="fill:none;stroke:black;stroke-width:1" />
  <text dominant-baseline="hanging" text-anchor="middle" transform="translate(218.7073,381.947)" font-family="Segoe UI" font-size="12" font-weight="400" fill="black">01. January</text>
  <polyline points="218.7073,370.947 218.7073,377.947" style="fill:none;stroke:black;stroke-width:1" />
  <polyline points="34.012,367.5622 36.6133,367.5621 40.5154,367.5621 41.816,367.562 43.1167,347.7121 44.4174,347.2997 45.718,353.2102 49.6201,349.3615 50.9207,353.2102 52.2214,353.76 53.5221,354.3098 54.8227,353.2102 58.7248,357.6087 60.0254,355.9593 61.3261,356.5091 62.6268,355.9593 63.9274,355.9593 67.8295,356.5091 69.1301,358.1585 70.4308,356.5091 71.7315,355.9593 73.0321,353.76 76.9342,347.7121 78.2348,343.3136 79.5355,338.3653 80.8362,337.8155 82.1368,333.417 86.0389,338.9151 87.3395,339.4649 88.6402,343.3136 89.9409,341.6642 91.2415,342.7638 95.1436,327.3691 96.4442,327.9189 97.7449,326.8192 99.0456,316.9226 100.3462,311.4245 104.2483,304.8268 105.5489,305.9264 106.8496,298.229 108.1503,297.1115 109.4509,299.9272 113.353,285.2853 114.6536,283.5959 115.9543,278.5275 117.255,268.3908 118.5556,246.9911 122.4577,225.0282 123.7583,220.523 125.059,216.581 126.3597,197.997 127.6603,197.4339 131.5623,134.361 132.863,129.2927 134.1637,126.4769 135.4644,128.7295 136.765,96.63 140.667,115.7771 141.9677,105.6404 143.2684,106.7667 144.5691,99.4457 145.8697,116.9034 149.7717,89.309 151.0724,83.1143 152.3731,57.7726 154.9744,32.4308 158.8764,60.5883 160.1771,74.6671 161.4778,83.1143 162.7785,64.46 164.0791,118.0297 167.9811,163.6449 169.2818,147.3135 170.5825,150.1292 171.8832,203.6285 173.1838,181.6657 177.0858,184.4814 178.3865,208.6969 179.6872,220.523 180.9879,193.4918 182.2885,197.4339 186.1905,174.9079 187.4912,177.1605 188.7919,175.471 190.0926,147.8766 191.3932,169.2764 195.2952,150.6924 196.5959,141.1188 197.8966,129.8558 199.1973,142.2451 200.4979,131.5453 204.3999,114.0876 205.7006,114.6508 207.0013,137.7399 213.5046,153.5081 214.8053,151.2555 216.106,131.5453 217.4067,133.4459 222.6093,206.4443 223.91,229.5334 225.2107,244.7385 226.5114,231.2229 227.812,210.8087 233.0147,188.4235 234.3154,190.6761 235.6161,212.0758 236.9167,241.3596 240.8187,249.6379 242.1194,268.954 243.4201,260.5067 244.7208,277.9644 246.0214,278.5275 249.9234,265.5751 252.5248,272.896 253.8255,253.1858 255.1261,241.9228 259.0281,257.691 260.3288,271.4178 261.6295,265.5751 262.9302,272.896 264.2308,283.5959 268.1328,286.4116 269.4335,283.5959 270.7342,268.3908 272.0349,269.5171 273.3355,262.7593 277.2375,276.8381 278.5382,278.5275 279.8389,298.8009 281.1396,305.5587 282.4402,321.327 286.3422,321.327 287.6429,322.4533 288.9436,313.4429 290.2443,314.006 291.5449,309.5008 295.4469,320.7638 296.7476,319.6375 298.0483,315.6955 299.349,293.1694 300.6496,287.5379 304.5516,258.8173 305.8523,258.8173 307.153,257.1278 308.4537,271.7697 309.7543,265.5751 313.6563,255.4384 314.957,256.0015 316.2577,248.6806 317.5583,221.0862 318.859,203.6285 322.761,195.7444 324.0617,195.1813 325.3624,199.6865 326.663,188.4235 327.9637,200.8128 331.8657,218.8336 333.1664,215.4547 334.4671,222.2125 335.7677,237.9807 337.0684,213.2021 342.2711,200.2496 343.5718,214.8915 344.8724,196.8707 346.1731,229.5334 350.0751,220.4667 351.3758,210.9495 352.6765,164.208 353.9771,184.4814 355.2778,180.5394 359.1798,172.0921 360.4805,153.5081 361.7812,158.5765 363.0818,145.0609 364.3825,121.4086 368.2845,102.8246 369.5852,118.5928 370.8859,132.6716 372.1865,127.0401 373.4872,129.8558 377.3892,155.1976 378.6899,143.3714 379.9906,137.1768 381.2912,169.8395 382.5919,189.5498 386.4939,199.1233 387.7946,208.1337 389.0953,220.523 391.6966,188.9866 395.5986,191.8024 396.8993,177.7236 398.2,172.0921 399.5006,176.3157 400.8013,210.9495 406.004,257.691 407.3047,281.9064 408.6053,291.48 409.906,294.8589 413.808,302.4614 415.1087,307.2482 416.4094,306.1219 419.0107,326.3953 422.9127,341.6004 424.2134,346.6687 425.5141,351.1739 426.8147,350.2588 428.1154,355.6791 432.0174,358.4949 433.3181,357.3686 434.6188,357.3686 435.9194,356.2423 437.2201,353.4265 441.1221,353.4265 442.4228,352.8634 443.7235,356.2423 445.0241,359.6212 446.3248,361.3106 450.2268,360.7475 451.5275,362.4369 452.8282,359.058 454.1288,355.6791 455.4295,356.8054 459.3315,356.8054 461.9329,357.3686 464.5342,359.6212 468.4362,360.7475 471.0376,353.9897 473.6389,343.2898 480.1423,332.0268 482.7436,317.9481 489.247,316.2586 491.8483,329.7742 498.3517,329.2111 500.953,323.0164 507.4564,294.8589 510.0577,262.7593 516.5611,253.7489 519.1624,268.3908 525.6658,201.3759 528.2671,191.8024 534.7705,233.4755 537.3718,222.2125 546.4765,240.2333 555.5812,272.896 562.0846,284.7222 564.6859,290.9168 571.1893,295.422 573.7906,306.6851 580.294,321.8901 582.8953,321.8901 589.3987,321.327 592,320.7638" style="fill:none;stroke:rgb(31,119,180);stroke-width:2;stroke-linejoin:bevel" />
  <text dominant-baseline="hanging" text-anchor="middle" transform="translate(313.006,8)" font-family="Segoe UI" font-size="18" font-weight="700" fill="black">7-Tage-Inzidenz Stadt Aachen 15.10.2021</text>
  <polygon points="34.012,29.0795 592,29.0795 592,370.947 34.012,370.947" style="fill:none;stroke:black;stroke-width:1" />
  <polygon points="42.012,37.0795 247.014,37.0795 247.014,63.1325 42.012,63.1325" style="fill:none;stroke:none;" />
  <text dominant-baseline="hanging" text-anchor="start" transform="translate(70.012,45.0795)" font-family="Segoe UI" font-size="12" font-weight="400" fill="black">7-Tage-Inzidenz Stadt Aachen 15.10.2021</text>
  <polyline points="50.012,50.106 66.012,50.106" style="fill:none;stroke:rgb(31,119,180);stroke-width:2" />
</svg>