<?xml version="1.0" encoding="utf-8" standalone="no"?>
<!DOCTYPE svg PUBLIC "-//W3C//DTD SVG 1.1//EN" "http://www.w3.org/Graphics/SVG/1.1/DTD/svg11.dtd">
<svg width="600" height="400" version="1.1" xmlns:xlink="http://www.w3.org/1999/xlink" xmlns="http://www.w3.org/2000/svg">
  <rect x="0" y="0" width="600" height="400" style="fill:rgb(255,255,255);stroke:none;" />
  <polyline points="34.012,358.4713 30.012,358.4713" style="fill:none;stroke:black;stroke-width:1" />
  <polyline points="34.012,344.2334 30.012,344.2334" style="fill:none;stroke:black;stroke-width:1" />
  <polyline points="34.012,329.9954 30.012,329.9954" style="fill:none;stroke:black;stroke-width:1" />
  <polyline points="34.012,315.7575 30.012,315.7575" style="fill:none;stroke:black;stroke-width:1" />
  <polyline points="34.012,287.2816 30.012,287.2816" style="fill:none;stroke:black;stroke-width:1" />
  <polyline points="34.012,273.0437 30.012,273.0437" style="fill:none;stroke:black;stroke-width:1" />
  <polyline points="34.012,258.8058 30.012,258.8058" style="fill:none;stroke:black;stroke-width:1" />
  <polyline points="34.012,244.5678 30.012,244.5678" style="fill:none;stroke:black;stroke-width:1" />
  <polyline points="34.012,216.0919 30.012,216.0919" style="fill:none;stroke:black;stroke-width:1" />
  <polyline points="34.012,201.854 30.012,201.854" style="fill:none;stroke:black;stroke-width:1" />
  <polyline points="34.012,187.6161 30.012,187.6161" style="fill:none;stroke:black;stroke-width:1" />
  <polyline points="34.012,173.3781 30.012,173.3781" style="fill:none;stroke:black;stroke-width:1" />
  <polyline points="34.012,144.9023 30.012,144.9023" style="fill:none;stroke:black;stroke-width:1" />
  <polyline points="34.012,130.6643 30.012,130.6643" style="fill:none;stroke:black;stroke-width:1" />
  <polyline points="34.012,116.4264 30.012,116.4264" style="fill:none;stroke:black;stroke-width:1" />
  <polyline points="34.012,102.1885 30.012,102.1885" style="fill:none;stroke:black;stroke-width:1" />
  <polyline points="34.012,73.7126 30.012,73.7126" style="fill:none;stroke:black;stroke-width:1" />
  <polyline points="34.012,59.4747 30.012,59.4747" style="fill:none;stroke:black;stroke-width:1" />
  <polyline points="34.012,45.2367 30.012,45.2367" style="fill:none;stroke:black;stroke-width:1" />
  <polyline points="34.012,30.9988 30.012,30.9988" style="fill:none;stroke:black;stroke-width:1" />
  <polyline points="56.9672,370.947 56.9672,374.947" style="fill:none;stroke:black;stroke-width:1" />
  <polyline points="164.6801,370.947 164.6801,374.947" style="fill:none;stroke:black;stroke-width:1" />
  <polyline points="272.3929,370.947 272.3929,374.947" style="fill:none;stroke:black;stroke-width:1" />
  <polyline points="376.5743,370.947 376.5743,374.947" style="fill:none;stroke:black;stroke-width:1" />
  <polyline points="484.2871,370.947 484.2871,374.947" style="fill:none;stroke:black;stroke-width:1" />
  <polyline points="592,370.947 592,374.947" style="fill:none;stroke:black;stroke-width:1" />
  <text dominant-baseline="middle" text-anchor="end" transform="translate(23.012,301.5196)" font-family="Segoe UI" font-size="12" font-weight="400" fill="black">50</text>
  <text dominant-baseline="middle" text-anchor="end" transform="translate(23.012,230.3299)" font-family="Segoe UI" font-size="12" font-weight="400" fill="black">100</text>
  <text dominant-baseline="middle" text-anchor="end" transform="translate(23.012,159.1402)" font-family="Segoe UI" font-size="12" font-weight="400" fill="black">150</text>
  <text dominant-baseline="middle" text-anchor="end" transform="translate(23.012,87.9505)" font-family="Segoe UI" font-size="12" font-weight="400" fill="black">200</text>
  <polyline points="34.012,301.5196 27.012,301.5196" style="fill:none;stroke:black;stroke-width:1" />
  <polyline points="34.012,230.3299 27.012,230.3299" style="fill:none;stroke:black;stroke-width:1" />
  <polyline points="34.012,159.1402 27.012,159.1402" style="fill:none;stroke:black;stroke-width:1" />
  <polyline points="34.012,87.9505 27.012,87.9505" style="fill:none;stroke:black;stroke-width:1" />
  <text dominant-baseline="hanging" text-anchor="middle" transform="translate(109.9407,381.947)" font-family="Segoe UI" font-size="12" font-weight="400" fill="black">01. October</text>
  <text dominant-baseline="hanging" text-anchor="middle" transform="translate(217.6536,381.947)" font-family="Segoe UI" font-size="12" font-weight="400" fill="black">01. December</text>
  <text dominant-baseline="hanging" text-anchor="middle" transform="translate(327.1323,381.947)" font-family="Segoe UI" font-size="12" font-weight="400" fill="black">01. February</text>
  <text dominant-baseline="hanging" text-anchor="middle" transform="translate(431.3136,381.947)" font-family="Segoe UI" font-size="12" font-weight="400" fill="black">01. April</text>
  <text dominant-baseline="hanging" text-anchor="middle" transform="translate(539.0265,381.947)" font-family="Segoe UI" font-size="12" font-weight="400" fill="black">01. June</text>
  <polyline points="109.9407,370.947 109.9407,377.947" style="fill:none;stroke:black;stroke-width:1" />
  <polyline points="217.6536,370.947 217.6536,377.947" style="fill:none;stroke:black;stroke-width:1" />
  <polyline points="327.1323,370.947 327.1323,377.947" style="fill:none;stroke:black;stroke-width:1" />
  <polyline points="431.3136,370.947 431.3136,377.947" style="fill:none;stroke:black;stroke-width:1" />
  <polyline points="539.0265,370.947 539.0265,377.947" style="fill:none;stroke:black;stroke-width:1" />
  <polyline points="34.012,352.6086 35.7778,352.1899 37.5436,358.1921 42.8409,354.2837 44.6067,358.1921 46.3725,358.7505 48.1383,359.3088 49.9041,358.1921 55.2014,362.6589 56.9672,360.9839 58.733,361.5422 60.4988,360.9839 62.2646,360.9839 67.5619,361.5422 69.3277,363.2173 71.0935,361.5422 72.8593,360.9839 74.6251,358.7505 79.9224,352.6086 81.6882,348.1418 83.454,343.1167 85.2198,342.5583 86.9855,338.0915 92.2829,343.675 94.0487,344.2334 95.8145,348.1418 97.5803,346.4668 99.346,347.5835 104.6434,331.9497 106.4092,332.508 108.175,331.3913 109.9407,321.341 111.7065,315.7575 117.0039,309.0573 118.7697,310.174 120.5355,302.3571 122.3012,301.2222 124.067,304.0817 129.3644,289.2124 131.1302,287.4967 132.8959,282.3496 134.6617,272.0555 136.4275,250.3234 141.7249,228.0194 143.4907,223.4443 145.2564,219.441 147.0222,200.5684 148.788,199.9965 154.0854,135.9441 155.8512,130.797 157.6169,127.9375 159.3827,130.2251 161.1485,97.627 166.4459,117.0715 168.2116,106.7774 169.9774,107.9212 171.7432,100.4865 173.509,118.2153 178.8064,90.1924 180.5721,83.9015 182.3379,58.1662 185.8695,32.4308 191.1668,61.0256 192.9326,75.3231 194.6984,83.9015 196.4642,64.9574 198.23,119.3591 203.5273,165.6827 205.2931,149.0977 207.0589,151.9572 208.8247,206.2874 210.5905,183.9834 215.8878,186.8429 217.6536,211.4344 219.4194,223.4443 221.1852,195.9932 222.951,199.9965 228.2483,177.1206 230.0141,179.4082 231.7799,177.6925 233.5457,149.6696 235.3115,171.4017 240.6088,152.5291 242.3746,142.8068 244.1404,131.3689 245.9062,143.9506 247.672,133.0846 252.9693,115.3558 254.7351,115.9277 256.5009,139.3755 265.3298,155.3886 267.0956,153.101 268.8614,133.0846 270.6272,135.0148 277.6903,209.1468 279.4561,232.5946 281.2219,248.0358 282.9877,234.3103 284.7534,213.579 291.8166,190.8461 293.5824,193.1337 295.3482,214.8658 297.1139,244.6044 302.4113,253.0113 304.1771,272.6274 305.9429,264.0489 307.7086,281.7777 309.4744,282.3496 314.7718,269.196 318.3034,276.6306 320.0691,256.6142 321.8349,245.1763 327.1323,261.1894 328.8981,275.1294 330.6638,269.196 332.4296,276.6306 334.1954,287.4967 339.4928,290.3561 341.2586,287.4967 343.0243,272.0555 344.7901,273.1992 346.5559,266.3365 351.8533,280.6339 353.6191,282.3496 355.3848,302.9379 357.1506,309.8006 358.9164,325.8137 364.2138,325.8137 365.9795,326.9575 367.7453,317.8072 369.5111,318.3791 371.2769,313.8039 376.5743,325.2418 378.34,324.098 380.1058,320.0948 381.8716,297.2189 383.6374,291.4999 388.9347,262.3332 390.7005,262.3332 392.4663,260.6175 394.2321,275.4868 395.9979,269.196 401.2952,258.9018 403.061,259.4737 404.8268,252.0391 406.5926,224.0161 408.3584,206.2874 413.6557,198.2808 415.4215,197.7089 417.1873,202.2841 418.9531,190.8461 420.7189,203.4279 426.0162,221.7286 427.782,218.2972 429.5478,225.1599 431.3136,241.173 433.0794,216.0096 440.1425,202.856 441.9083,217.7253 443.6741,199.4246 445.4399,232.5946 450.7372,223.3871 452.503,213.722 454.2688,166.2546 456.0346,186.8429 457.8004,182.8396 463.0977,174.2612 464.8635,155.3886 466.6293,160.5356 468.3951,146.8101 470.1608,122.7905 475.4582,103.9179 477.224,119.931 478.9898,134.2284 480.7556,128.5094 482.5213,131.3689 487.8187,157.1043 489.5845,145.0944 491.3503,138.8036 493.1161,171.9736 494.8818,191.9899 500.1792,201.7122 501.945,210.8625 503.7108,223.4443 507.2423,191.418 512.5397,194.2775 514.3055,179.9801 516.0713,174.2612 517.837,178.5504 519.6028,213.722 526.666,261.1894 528.4317,285.781 530.1975,295.5032 531.9633,298.9346 537.2607,306.6552 539.0265,311.5163 540.7922,310.3725 544.3238,330.9608 549.6212,346.402 551.3869,351.5491 553.1527,356.1242 554.9185,355.1949 556.6843,360.6994 561.9817,363.5589 563.7474,362.4151 565.5132,362.4151 567.279,361.2713 569.0448,358.4118 574.3422,358.4118 576.1079,357.8399 577.8737,361.2713 579.6395,364.7027 581.4053,366.4184 586.7026,365.8465 588.4684,367.5622 590.2342,364.1308 592,360.6994" style="fill:none;stroke:rgb(31,119,180);stroke-width:2;stroke-linejoin:bevel" />
  <text dominant-baseline="hanging" text-anchor="middle" transform="translate(313.006,8)" font-family="Segoe UI" font-size="18" font-weight="700" fill="black">7-Tage-Inzidenz Stadt Aachen 01.07.2021</text>
  <polygon points="34.012,29.0795 592,29.0795 592,370.947 34.012,370.947" style="fill:none;stroke:black;stroke-width:1" />
  <polygon points="42.012,37.0795 247.014,37.0795 247.014,63.1325 42.012,63.1325" style="fill:none;stroke:none;" />
  <text dominant-baseline="hanging" text-anchor="start" transform="translate(70.012,45.0795)" font-family="Segoe UI" font-size="12" font-weight="400" fill="black">7-Tage-Inzidenz Stadt Aachen 01.07.2021</text>
  <polyline points="50.012,50.106 66.012,50.106" style="fill:none;stroke:rgb(31,119,180);stroke-width:2" />
</svg>