<?xml version="1.0" encoding="utf-8" standalone="no"?>
<!DOCTYPE svg PUBLIC "-//W3C//DTD SVG 1.1//EN" "http://www.w3.org/Graphics/SVG/1.1/DTD/svg11.dtd">
<svg width="600" height="400" version="1.1" xmlns:xlink="http://www.w3.org/1999/xlink" xmlns="http://www.w3.org/2000/svg">
  <rect x="0" y="0" width="600" height="400" style="fill:rgb(255,255,255);stroke:none;" />
  <polyline points="34.012,362.7539 30.012,362.7539" style="fill:none;stroke:black;stroke-width:1" />
  <polyline points="34.012,348.3289 30.012,348.3289" style="fill:none;stroke:black;stroke-width:1" />
  <polyline points="34.012,333.904 30.012,333.904" style="fill:none;stroke:black;stroke-width:1" />
  <polyline points="34.012,319.479 30.012,319.479" style="fill:none;stroke:black;stroke-width:1" />
  <polyline points="34.012,290.6291 30.012,290.6291" style="fill:none;stroke:black;stroke-width:1" />
  <polyline points="34.012,276.2041 30.012,276.2041" style="fill:none;stroke:black;stroke-width:1" />
  <polyline points="34.012,261.7792 30.012,261.7792" style="fill:none;stroke:black;stroke-width:1" />
  <polyline points="34.012,247.3542 30.012,247.3542" style="fill:none;stroke:black;stroke-width:1" />
  <polyline points="34.012,218.5043 30.012,218.5043" style="fill:none;stroke:black;stroke-width:1" />
  <polyline points="34.012,204.0794 30.012,204.0794" style="fill:none;stroke:black;stroke-width:1" />
  <polyline points="34.012,189.6544 30.012,189.6544" style="fill:none;stroke:black;stroke-width:1" />
  <polyline points="34.012,175.2295 30.012,175.2295" style="fill:none;stroke:black;stroke-width:1" />
  <polyline points="34.012,146.3796 30.012,146.3796" style="fill:none;stroke:black;stroke-width:1" />
  <polyline points="34.012,131.9546 30.012,131.9546" style="fill:none;stroke:black;stroke-width:1" />
  <polyline points="34.012,117.5297 30.012,117.5297" style="fill:none;stroke:black;stroke-width:1" />
  <polyline points="34.012,103.1047 30.012,103.1047" style="fill:none;stroke:black;stroke-width:1" />
  <polyline points="34.012,74.2548 30.012,74.2548" style="fill:none;stroke:black;stroke-width:1" />
  <polyline points="34.012,59.8299 30.012,59.8299" style="fill:none;stroke:black;stroke-width:1" />
  <polyline points="34.012,45.4049 30.012,45.4049" style="fill:none;stroke:black;stroke-width:1" />
  <polyline points="34.012,30.98 30.012,30.98" style="fill:none;stroke:black;stroke-width:1" />
  <text dominant-baseline="middle" text-anchor="end" transform="translate(23.012,305.0541)" font-family="Segoe UI" font-size="12" font-weight="400" fill="black">50</text>
  <text dominant-baseline="middle" text-anchor="end" transform="translate(23.012,232.9293)" font-family="Segoe UI" font-size="12" font-weight="400" fill="black">100</text>
  <text dominant-baseline="middle" text-anchor="end" transform="translate(23.012,160.8045)" font-family="Segoe UI" font-size="12" font-weight="400" fill="black">150</text>
  <text dominant-baseline="middle" text-anchor="end" transform="translate(23.012,88.6798)" font-family="Segoe UI" font-size="12" font-weight="400" fill="black">200</text>
  <polyline points="34.012,305.0541 27.012,305.0541" style="fill:none;stroke:black;stroke-width:1" />
  <polyline points="34.012,232.9293 27.012,232.9293" style="fill:none;stroke:black;stroke-width:1" />
  <polyline points="34.012,160.8045 27.012,160.8045" style="fill:none;stroke:black;stroke-width:1" />
  <polyline points="34.012,88.6798 27.012,88.6798" style="fill:none;stroke:black;stroke-width:1" />
  <text dominant-baseline="hanging" text-anchor="middle" transform="translate(73.8683,381.947)" font-family="Segoe UI" font-size="12" font-weight="400" fill="black">01. September</text>
  <text dominant-baseline="hanging" text-anchor="middle" transform="translate(165.8443,381.947)" font-family="Segoe UI" font-size="12" font-weight="400" fill="black">01. October</text>
  <text dominant-baseline="hanging" text-anchor="middle" transform="translate(260.8862,381.947)" font-family="Segoe UI" font-size="12" font-weight="400" fill="black">01. November</text>
  <text dominant-baseline="hanging" text-anchor="middle" transform="translate(352.8623,381.947)" font-family="Segoe UI" font-size="12" font-weight="400" fill="black">01. December</text>
  <text dominant-baseline="hanging" text-anchor="middle" transform="translate(447.9042,381.947)" font-family="Segoe UI" font-size="12" font-weight="400" fill="black">01. January</text>
  <text dominant-baseline="hanging" text-anchor="middle" transform="translate(542.9461,381.947)" font-family="Segoe UI" font-size="12" font-weight="400" fill="black">01. February</text>
  <polyline points="73.8683,370.947 73.8683,377.947" style="fill:none;stroke:black;stroke-width:1" />
  <polyline points="165.8443,370.947 165.8443,377.947" style="fill:none;stroke:black;stroke-width:1" />
  <polyline points="260.8862,370.947 260.8862,377.947" style="fill:none;stroke:black;stroke-width:1" />
  <polyline points="352.8623,370.947 352.8623,377.947" style="fill:none;stroke:black;stroke-width:1" />
  <polyline points="447.9042,370.947 447.9042,377.947" style="fill:none;stroke:black;stroke-width:1" />
  <polyline points="542.9461,370.947 542.9461,377.947" style="fill:none;stroke:black;stroke-width:1" />
  <polyline points="34.012,356.8142 37.0779,356.3899 40.1437,362.471 49.3413,358.5112 52.4072,362.471 55.4731,363.0367 58.5389,363.6024 61.6048,362.471 70.8024,366.9965 73.8683,365.2994 76.9342,365.8651 80,365.2994 83.0659,365.2994 92.2635,365.8651 95.3294,367.5622 98.3952,365.8651 101.4611,365.2994 104.527,363.0367 113.7246,356.8142 116.7904,352.2887 119.8563,347.1975 122.9222,346.6319 125.988,342.1064 135.1856,347.7632 138.2515,348.3289 141.3174,352.2887 144.3833,350.5916 147.4491,351.723 156.6467,335.8838 159.7126,336.4495 162.7785,335.3182 165.8443,325.1358 168.9102,319.479 178.1078,312.6908 181.1737,313.8222 184.2395,305.9026 187.3054,304.7528 190.3713,307.6498 199.5689,292.5852 202.6347,290.847 205.7006,285.6323 208.7665,275.2029 211.8324,253.1854 221.03,230.5885 224.0958,225.9532 227.1617,221.8974 230.2276,202.7769 233.2934,202.1975 242.491,137.3037 245.5569,132.0891 248.6228,129.192 251.6886,131.5096 254.7545,98.4834 263.9521,118.1833 267.018,107.7539 270.0838,108.9127 273.1497,101.3804 276.2156,119.3421 285.4132,90.9511 288.4791,84.5776 291.5449,58.5042 297.6767,32.4308 306.8743,61.4012 309.9401,75.8864 313.006,84.5776 316.0719,65.3847 319.1377,120.5009 328.3353,167.433 331.4012,150.6301 334.4671,153.5272 337.5329,208.571 340.5988,185.974 349.7964,188.8711 352.8623,213.7856 355.9282,225.9532 358.994,198.1416 362.0599,202.1975 371.2575,179.0211 374.3234,181.3388 377.3892,179.6005 380.4551,151.2095 383.521,173.2271 392.7186,154.1066 395.7844,144.2566 398.8503,132.6685 401.9162,145.4155 404.982,134.4067 414.1796,116.445 417.2455,117.0244 420.3114,140.7802 435.6407,157.0036 438.7066,154.686 441.7725,134.4067 444.8383,136.3622 457.1018,211.468 460.1677,235.2238 463.2335,250.8678 466.2994,236.962 469.3653,215.9584 481.6287,192.9269 484.6946,195.2446 487.7605,217.2621 490.8264,247.3913 500.024,255.9086 503.0898,275.7823 506.1557,267.0912 509.2216,285.0529 512.2874,285.6323 521.485,272.3059 527.6168,279.8382 530.6826,259.5589 533.7485,247.9707 542.9461,264.1942 546.012,278.3173 549.0778,272.3059 552.1437,279.8382 555.2096,290.847 564.4072,293.744 567.4731,290.847 570.5389,275.2029 573.6048,276.3617 576.6707,269.4088 585.8683,283.8941 588.9341,285.6323 592,306.491" style="fill:none;stroke:rgb(31,119,180);stroke-width:2;stroke-linejoin:bevel" />
  <text dominant-baseline="hanging" text-anchor="middle" transform="translate(313.006,8)" font-family="Segoe UI" font-size="18" font-weight="700" fill="black">7-Tage-Inzidenz Stadt Aachen 17.02.2021</text>
  <polygon points="34.012,29.0795 592,29.0795 592,370.947 34.012,370.947" style="fill:none;stroke:black;stroke-width:1" />
  <polygon points="42.012,37.0795 247.014,37.0795 247.014,63.1325 42.012,63.1325" style="fill:none;stroke:none;" />
  <text dominant-baseline="hanging" text-anchor="start" transform="translate(70.012,45.0795)" font-family="Segoe UI" font-size="12" font-weight="400" fill="black">7-Tage-Inzidenz Stadt Aachen 17.02.2021</text>
  <polyline points="50.012,50.106 66.012,50.106" style="fill:none;stroke:rgb(31,119,180);stroke-width:2" />
</svg>