<?xml version="1.0" encoding="utf-8" standalone="no"?>
<!DOCTYPE svg PUBLIC "-//W3C//DTD SVG 1.1//EN" "http://www.w3.org/Graphics/SVG/1.1/DTD/svg11.dtd">
<svg width="600" height="400" version="1.1" xmlns:xlink="http://www.w3.org/1999/xlink" xmlns="http://www.w3.org/2000/svg">
  <rect x="0" y="0" width="600" height="400" style="fill:rgb(255,255,255);stroke:none;" />
  <polyline points="34.012,362.7539 30.012,362.7539" style="fill:none;stroke:black;stroke-width:1" />
  <polyline points="34.012,348.3289 30.012,348.3289" style="fill:none;stroke:black;stroke-width:1" />
  <polyline points="34.012,333.904 30.012,333.904" style="fill:none;stroke:black;stroke-width:1" />
  <polyline points="34.012,319.479 30.012,319.479" style="fill:none;stroke:black;stroke-width:1" />
  <polyline points="34.012,290.6291 30.012,290.6291" style="fill:none;stroke:black;stroke-width:1" />
  <polyline points="34.012,276.2041 30.012,276.2041" style="fill:none;stroke:black;stroke-width:1" />
  <polyline points="34.012,261.7792 30.012,261.7792" style="fill:none;stroke:black;stroke-width:1" />
  <polyline points="34.012,247.3542 30.012,247.3542" style="fill:none;stroke:black;stroke-width:1" />
  <polyline points="34.012,218.5043 30.012,218.5043" style="fill:none;stroke:black;stroke-width:1" />
  <polyline points="34.012,204.0794 30.012,204.0794" style="fill:none;stroke:black;stroke-width:1" />
  <polyline points="34.012,189.6544 30.012,189.6544" style="fill:none;stroke:black;stroke-width:1" />
  <polyline points="34.012,175.2295 30.012,175.2295" style="fill:none;stroke:black;stroke-width:1" />
  <polyline points="34.012,146.3796 30.012,146.3796" style="fill:none;stroke:black;stroke-width:1" />
  <polyline points="34.012,131.9546 30.012,131.9546" style="fill:none;stroke:black;stroke-width:1" />
  <polyline points="34.012,117.5297 30.012,117.5297" style="fill:none;stroke:black;stroke-width:1" />
  <polyline points="34.012,103.1047 30.012,103.1047" style="fill:none;stroke:black;stroke-width:1" />
  <polyline points="34.012,74.2548 30.012,74.2548" style="fill:none;stroke:black;stroke-width:1" />
  <polyline points="34.012,59.8299 30.012,59.8299" style="fill:none;stroke:black;stroke-width:1" />
  <polyline points="34.012,45.4049 30.012,45.4049" style="fill:none;stroke:black;stroke-width:1" />
  <polyline points="34.012,30.98 30.012,30.98" style="fill:none;stroke:black;stroke-width:1" />
  <text dominant-baseline="middle" text-anchor="end" transform="translate(23.012,305.0541)" font-family="Segoe UI" font-size="12" font-weight="400" fill="black">50</text>
  <text dominant-baseline="middle" text-anchor="end" transform="translate(23.012,232.9293)" font-family="Segoe UI" font-size="12" font-weight="400" fill="black">100</text>
  <text dominant-baseline="middle" text-anchor="end" transform="translate(23.012,160.8045)" font-family="Segoe UI" font-size="12" font-weight="400" fill="black">150</text>
  <text dominant-baseline="middle" text-anchor="end" transform="translate(23.012,88.6798)" font-family="Segoe UI" font-size="12" font-weight="400" fill="black">200</text>
  <polyline points="34.012,305.0541 27.012,305.0541" style="fill:none;stroke:black;stroke-width:1" />
  <polyline points="34.012,232.9293 27.012,232.9293" style="fill:none;stroke:black;stroke-width:1" />
  <polyline points="34.012,160.8045 27.012,160.8045" style="fill:none;stroke:black;stroke-width:1" />
  <polyline points="34.012,88.6798 27.012,88.6798" style="fill:none;stroke:black;stroke-width:1" />
  <text dominant-baseline="hanging" text-anchor="middle" transform="translate(62.1277,381.947)" font-family="Segoe UI" font-size="12" font-weight="400" fill="black">01. September</text>
  <text dominant-baseline="hanging" text-anchor="middle" transform="translate(127.01,381.947)" font-family="Segoe UI" font-size="12" font-weight="400" fill="black">01. October</text>
  <text dominant-baseline="hanging" text-anchor="middle" transform="translate(194.0551,381.947)" font-family="Segoe UI" font-size="12" font-weight="400" fill="black">01. November</text>
  <text dominant-baseline="hanging" text-anchor="middle" transform="translate(258.9374,381.947)" font-family="Segoe UI" font-size="12" font-weight="400" fill="black">01. December</text>
  <text dominant-baseline="hanging" text-anchor="middle" transform="translate(325.9825,381.947)" font-family="Segoe UI" font-size="12" font-weight="400" fill="black">01. January</text>
  <text dominant-baseline="hanging" text-anchor="middle" transform="translate(393.0275,381.947)" font-family="Segoe UI" font-size="12" font-weight="400" fill="black">01. February</text>
  <text dominant-baseline="hanging" text-anchor="middle" transform="translate(453.5844,381.947)" font-family="Segoe UI" font-size="12" font-weight="400" fill="black">01. March</text>
  <text dominant-baseline="hanging" text-anchor="middle" transform="translate(520.6294,381.947)" font-family="Segoe UI" font-size="12" font-weight="400" fill="black">01. April</text>
  <text dominant-baseline="hanging" text-anchor="middle" transform="translate(585.5118,381.947)" font-family="Segoe UI" font-size="12" font-weight="400" fill="black">01. May</text>
  <polyline points="62.1277,370.947 62.1277,377.947" style="fill:none;stroke:black;stroke-width:1" />
  <polyline points="127.01,370.947 127.01,377.947" style="fill:none;stroke:black;stroke-width:1" />
  <polyline points="194.0551,370.947 194.0551,377.947" style="fill:none;stroke:black;stroke-width:1" />
  <polyline points="258.9374,370.947 258.9374,377.947" style="fill:none;stroke:black;stroke-width:1" />
  <polyline points="325.9825,370.947 325.9825,377.947" style="fill:none;stroke:black;stroke-width:1" />
  <polyline points="393.0275,370.947 393.0275,377.947" style="fill:none;stroke:black;stroke-width:1" />
  <polyline points="453.5844,370.947 453.5844,377.947" style="fill:none;stroke:black;stroke-width:1" />
  <polyline points="520.6294,370.947 520.6294,377.947" style="fill:none;stroke:black;stroke-width:1" />
  <polyline points="585.5118,370.947 585.5118,377.947" style="fill:none;stroke:black;stroke-width:1" />
  <polyline points="34.012,356.8142 36.1747,356.3899 38.3375,362.471 44.8257,358.5112 46.9885,362.471 49.1512,363.0367 51.314,363.6024 53.4767,362.471 59.9649,366.9965 62.1277,365.2994 64.2904,365.8651 66.4532,365.2994 68.6159,365.2994 75.1041,365.8651 77.2669,367.5622 79.4296,365.8651 81.5924,365.2994 83.7551,363.0367 90.2433,356.8142 92.4061,352.2887 94.5688,347.1975 96.7316,346.6319 98.8943,342.1064 105.3826,347.7632 107.5453,348.3289 109.708,352.2887 111.8708,350.5916 114.0335,351.723 120.5218,335.8838 122.6845,336.4495 124.8473,335.3182 127.01,325.1358 129.1727,319.479 135.661,312.6908 137.8237,313.8222 139.9865,305.9026 142.1492,304.7528 144.312,307.6498 150.8002,292.5852 152.9629,290.847 155.1257,285.6323 157.2884,275.2029 159.4512,253.1854 165.9394,230.5885 168.1021,225.9532 170.2649,221.8974 172.4276,202.7769 174.5904,202.1975 181.0786,137.3037 183.2413,132.0891 185.4041,129.192 187.5668,131.5096 189.7296,98.4834 196.2178,118.1833 198.3806,107.7539 200.5433,108.9127 202.706,101.3804 204.8688,119.3421 211.357,90.9511 213.5198,84.5776 215.6825,58.5042 220.008,32.4308 226.4962,61.4012 228.659,75.8864 230.8217,84.5776 232.9845,65.3847 235.1472,120.5009 241.6354,167.433 243.7982,150.6301 245.9609,153.5272 248.1237,208.571 250.2864,185.974 256.7747,188.8711 258.9374,213.7856 261.1001,225.9532 263.2629,198.1416 265.4256,202.1975 271.9139,179.0211 274.0766,181.3388 276.2393,179.6005 278.4021,151.2095 280.5648,173.2271 287.0531,154.1066 289.2158,144.2566 291.3786,132.6685 293.5413,145.4155 295.704,134.4067 302.1923,116.445 304.355,117.0244 306.5178,140.7802 317.3315,157.0036 319.4942,154.686 321.657,134.4067 323.8197,136.3622 332.4707,211.468 334.6334,235.2238 336.7962,250.8678 338.9589,236.962 341.1217,215.9584 349.7727,192.9269 351.9354,195.2446 354.0981,217.2621 356.2609,247.3913 362.7491,255.9086 364.9119,275.7823 367.0746,267.0912 369.2373,285.0529 371.4001,285.6323 377.8883,272.3059 382.2138,279.8382 384.3766,259.5589 386.5393,247.9707 393.0275,264.1942 395.1903,278.3173 397.353,272.3059 399.5158,279.8382 401.6785,290.847 408.1667,293.744 410.3295,290.847 412.4922,275.2029 414.655,276.3617 416.8177,269.4088 423.306,283.8941 425.4687,285.6323 427.6314,306.491 429.7942,313.4439 431.9569,329.6673 438.4452,329.6673 440.6079,330.8261 442.7707,321.5556 444.9334,322.135 447.0961,317.4997 453.5844,329.0879 455.7471,327.9291 457.9099,323.8732 460.0726,300.6969 462.2353,294.9028 468.7236,265.353 470.8863,265.353 473.0491,263.6148 475.2118,278.6794 477.3746,272.3059 483.8628,261.8765 486.0255,262.4559 488.1883,254.9236 490.351,226.5326 492.5138,208.571 499.002,200.4592 501.1647,199.8798 503.3275,204.5151 505.4902,192.9269 507.653,205.6739 514.1412,224.215 516.304,220.7385 518.4667,227.6914 520.6294,243.9149 522.7922,218.4209 531.4432,205.0945 533.6059,220.1591 535.7687,201.6181 537.9314,235.2238 544.4196,225.8953 546.5824,216.1033 548.7451,168.0124 550.9079,188.8711 553.0706,184.8152 559.5588,176.1241 561.7216,157.0036 563.8843,162.2183 566.0471,148.3125 568.2098,123.9773 574.698,104.8569 576.8608,121.0803 579.0235,135.5655 581.1863,129.7714 583.349,132.6685 589.8373,158.7418 592,146.5743" style="fill:none;stroke:rgb(31,119,180);stroke-width:2;stroke-linejoin:bevel" />
  <text dominant-baseline="hanging" text-anchor="middle" transform="translate(313.006,8)" font-family="Segoe UI" font-size="18" font-weight="700" fill="black">7-Tage-Inzidenz Stadt Aachen 04.05.2021</text>
  <polygon points="34.012,29.0795 592,29.0795 592,370.947 34.012,370.947" style="fill:none;stroke:black;stroke-width:1" />
  <polygon points="42.012,37.0795 247.014,37.0795 247.014,63.1325 42.012,63.1325" style="fill:none;stroke:none;" />
  <text dominant-baseline="hanging" text-anchor="start" transform="translate(70.012,45.0795)" font-family="Segoe UI" font-size="12" font-weight="400" fill="black">7-Tage-Inzidenz Stadt Aachen 04.05.2021</text>
  <polyline points="50.012,50.106 66.012,50.106" style="fill:none;stroke:rgb(31,119,180);stroke-width:2" />
</svg>