<?xml version="1.0" encoding="utf-8" standalone="no"?>
<!DOCTYPE svg PUBLIC "-//W3C//DTD SVG 1.1//EN" "http://www.w3.org/Graphics/SVG/1.1/DTD/svg11.dtd">
<svg width="600" height="400" version="1.1" xmlns:xlink="http://www.w3.org/1999/xlink" xmlns="http://www.w3.org/2000/svg">
  <rect x="0" y="0" width="600" height="400" style="fill:rgb(255,255,255);stroke:none;" />
  <polyline points="34.012,358.4713 30.012,358.4713" style="fill:none;stroke:black;stroke-width:1" />
  <polyline points="34.012,344.2334 30.012,344.2334" style="fill:none;stroke:black;stroke-width:1" />
  <polyline points="34.012,329.9954 30.012,329.9954" style="fill:none;stroke:black;stroke-width:1" />
  <polyline points="34.012,315.7575 30.012,315.7575" style="fill:none;stroke:black;stroke-width:1" />
  <polyline points="34.012,287.2816 30.012,287.2816" style="fill:none;stroke:black;stroke-width:1" />
  <polyline points="34.012,273.0437 30.012,273.0437" style="fill:none;stroke:black;stroke-width:1" />
  <polyline points="34.012,258.8058 30.012,258.8058" style="fill:none;stroke:black;stroke-width:1" />
  <polyline points="34.012,244.5678 30.012,244.5678" style="fill:none;stroke:black;stroke-width:1" />
  <polyline points="34.012,216.0919 30.012,216.0919" style="fill:none;stroke:black;stroke-width:1" />
  <polyline points="34.012,201.854 30.012,201.854" style="fill:none;stroke:black;stroke-width:1" />
  <polyline points="34.012,187.6161 30.012,187.6161" style="fill:none;stroke:black;stroke-width:1" />
  <polyline points="34.012,173.3781 30.012,173.3781" style="fill:none;stroke:black;stroke-width:1" />
  <polyline points="34.012,144.9023 30.012,144.9023" style="fill:none;stroke:black;stroke-width:1" />
  <polyline points="34.012,130.6643 30.012,130.6643" style="fill:none;stroke:black;stroke-width:1" />
  <polyline points="34.012,116.4264 30.012,116.4264" style="fill:none;stroke:black;stroke-width:1" />
  <polyline points="34.012,102.1885 30.012,102.1885" style="fill:none;stroke:black;stroke-width:1" />
  <polyline points="34.012,73.7126 30.012,73.7126" style="fill:none;stroke:black;stroke-width:1" />
  <polyline points="34.012,59.4747 30.012,59.4747" style="fill:none;stroke:black;stroke-width:1" />
  <polyline points="34.012,45.2367 30.012,45.2367" style="fill:none;stroke:black;stroke-width:1" />
  <polyline points="34.012,30.9988 30.012,30.9988" style="fill:none;stroke:black;stroke-width:1" />
  <polyline points="56.8948,370.947 56.8948,374.947" style="fill:none;stroke:black;stroke-width:1" />
  <polyline points="164.2679,370.947 164.2679,374.947" style="fill:none;stroke:black;stroke-width:1" />
  <polyline points="271.641,370.947 271.641,374.947" style="fill:none;stroke:black;stroke-width:1" />
  <polyline points="375.4936,370.947 375.4936,374.947" style="fill:none;stroke:black;stroke-width:1" />
  <polyline points="482.8667,370.947 482.8667,374.947" style="fill:none;stroke:black;stroke-width:1" />
  <polyline points="590.2398,370.947 590.2398,374.947" style="fill:none;stroke:black;stroke-width:1" />
  <text dominant-baseline="middle" text-anchor="end" transform="translate(23.012,301.5196)" font-family="Segoe UI" font-size="12" font-weight="400" fill="black">50</text>
  <text dominant-baseline="middle" text-anchor="end" transform="translate(23.012,230.3299)" font-family="Segoe UI" font-size="12" font-weight="400" fill="black">100</text>
  <text dominant-baseline="middle" text-anchor="end" transform="translate(23.012,159.1402)" font-family="Segoe UI" font-size="12" font-weight="400" fill="black">150</text>
  <text dominant-baseline="middle" text-anchor="end" transform="translate(23.012,87.9505)" font-family="Segoe UI" font-size="12" font-weight="400" fill="black">200</text>
  <polyline points="34.012,301.5196 27.012,301.5196" style="fill:none;stroke:black;stroke-width:1" />
  <polyline points="34.012,230.3299 27.012,230.3299" style="fill:none;stroke:black;stroke-width:1" />
  <polyline points="34.012,159.1402 27.012,159.1402" style="fill:none;stroke:black;stroke-width:1" />
  <polyline points="34.012,87.9505 27.012,87.9505" style="fill:none;stroke:black;stroke-width:1" />
  <text dominant-baseline="hanging" text-anchor="middle" transform="translate(109.7012,381.947)" font-family="Segoe UI" font-size="12" font-weight="400" fill="black">01. October</text>
  <text dominant-baseline="hanging" text-anchor="middle" transform="translate(217.0743,381.947)" font-family="Segoe UI" font-size="12" font-weight="400" fill="black">01. December</text>
  <text dominant-baseline="hanging" text-anchor="middle" transform="translate(326.2076,381.947)" font-family="Segoe UI" font-size="12" font-weight="400" fill="black">01. February</text>
  <text dominant-baseline="hanging" text-anchor="middle" transform="translate(430.0603,381.947)" font-family="Segoe UI" font-size="12" font-weight="400" fill="black">01. April</text>
  <text dominant-baseline="hanging" text-anchor="middle" transform="translate(537.4334,381.947)" font-family="Segoe UI" font-size="12" font-weight="400" fill="black">01. June</text>
  <polyline points="109.7012,370.947 109.7012,377.947" style="fill:none;stroke:black;stroke-width:1" />
  <polyline points="217.0743,370.947 217.0743,377.947" style="fill:none;stroke:black;stroke-width:1" />
  <polyline points="326.2076,370.947 326.2076,377.947" style="fill:none;stroke:black;stroke-width:1" />
  <polyline points="430.0603,370.947 430.0603,377.947" style="fill:none;stroke:black;stroke-width:1" />
  <polyline points="537.4334,370.947 537.4334,377.947" style="fill:none;stroke:black;stroke-width:1" />
  <polyline points="34.012,352.6086 35.7722,352.1899 37.5324,358.1921 42.8131,354.2837 44.5733,358.1921 46.3335,358.7505 48.0937,359.3088 49.8539,358.1921 55.1346,362.6589 56.8948,360.9839 58.655,361.5422 60.4152,360.9839 62.1754,360.9839 67.4561,361.5422 69.2163,363.2173 70.9765,361.5422 72.7367,360.9839 74.4969,358.7505 79.7776,352.6086 81.5378,348.1418 83.298,343.1167 85.0582,342.5583 86.8184,338.0915 92.0991,343.675 93.8593,344.2334 95.6195,348.1418 97.3797,346.4668 99.1399,347.5835 104.4206,331.9497 106.1808,332.508 107.941,331.3913 109.7012,321.341 111.4614,315.7575 116.7421,309.0573 118.5023,310.174 120.2625,302.3571 122.0227,301.2222 123.7829,304.0817 129.0636,289.2124 130.8238,287.4967 132.584,282.3496 134.3442,272.0555 136.1044,250.3234 141.3851,228.0194 143.1453,223.4443 144.9055,219.441 146.6657,200.5684 148.4259,199.9965 153.7066,135.9441 155.4668,130.797 157.227,127.9375 158.9872,130.2251 160.7474,97.627 166.0281,117.0715 167.7883,106.7774 169.5485,107.9212 171.3087,100.4865 173.0689,118.2153 178.3496,90.1924 180.1098,83.9015 181.87,58.1662 185.3904,32.4308 190.6711,61.0256 192.4313,75.3231 194.1915,83.9015 195.9517,64.9574 197.7119,119.3591 202.9926,165.6827 204.7528,149.0977 206.513,151.9572 208.2732,206.2874 210.0335,183.9834 215.3141,186.8429 217.0743,211.4344 218.8345,223.4443 220.5947,195.9932 222.355,199.9965 227.6356,177.1206 229.3958,179.4082 231.156,177.6925 232.9162,149.6696 234.6765,171.4017 239.9571,152.5291 241.7173,142.8068 243.4775,131.3689 245.2377,143.9506 246.998,133.0846 252.2786,115.3558 254.0388,115.9277 255.799,139.3755 264.6001,155.3886 266.3603,153.101 268.1205,133.0846 269.8807,135.0148 276.9216,209.1468 278.6818,232.5946 280.442,248.0358 282.2022,234.3103 283.9625,213.579 291.0033,190.8461 292.7635,193.1337 294.5237,214.8658 296.284,244.6044 301.5646,253.0113 303.3248,272.6274 305.085,264.0489 306.8452,281.7777 308.6055,282.3496 313.8861,269.196 317.4065,276.6306 319.1668,256.6142 320.927,245.1763 326.2076,261.1894 327.9678,275.1294 329.728,269.196 331.4883,276.6306 333.2485,287.4967 338.5291,290.3561 340.2893,287.4967 342.0495,272.0555 343.8098,273.1992 345.57,266.3365 350.8506,280.6339 352.6108,282.3496 354.371,302.9379 356.1313,309.8006 357.8915,325.8137 363.1721,325.8137 364.9323,326.9575 366.6925,317.8072 368.4528,318.3791 370.213,313.8039 375.4936,325.2418 377.2538,324.098 379.014,320.0948 380.7743,297.2189 382.5345,291.4999 387.8151,262.3332 389.5753,262.3332 391.3355,260.6175 393.0958,275.4868 394.856,269.196 400.1366,258.9018 401.8968,259.4737 403.657,252.0391 405.4173,224.0161 407.1775,206.2874 412.4581,198.2808 414.2183,197.7089 415.9785,202.2841 417.7388,190.8461 419.499,203.4279 424.7796,221.7286 426.5398,218.2972 428.3001,225.1599 430.0603,241.173 431.8205,216.0096 438.8613,202.856 440.6216,217.7253 442.3818,199.4246 444.142,232.5946 449.4226,223.3871 451.1828,213.722 452.9431,166.2546 454.7033,186.8429 456.4635,182.8396 461.7441,174.2612 463.5043,155.3886 465.2646,160.5356 467.0248,146.8101 468.785,122.7905 474.0656,103.9179 475.8258,119.931 477.5861,134.2284 479.3463,128.5094 481.1065,131.3689 486.3871,157.1043 488.1473,145.0944 489.9076,138.8036 491.6678,171.9736 493.428,191.9899 498.7086,201.7122 500.4688,210.8625 502.2291,223.4443 505.7495,191.418 511.0301,194.2775 512.7903,179.9801 514.5506,174.2612 516.3108,178.5504 518.071,213.722 525.1118,261.1894 526.8721,285.781 528.6323,295.5032 530.3925,298.9346 535.6731,306.6552 537.4334,311.5163 539.1936,310.3725 542.714,330.9608 547.9946,346.402 549.7549,351.5491 551.5151,356.1242 553.2753,355.1949 555.0355,360.6994 560.3161,363.5589 562.0764,362.4151 563.8366,362.4151 565.5968,361.2713 567.357,358.4118 572.6376,358.4118 574.3979,357.8399 576.1581,361.2713 577.9183,364.7027 579.6785,366.4184 584.9591,365.8465 586.7194,367.5622 588.4796,364.1308 590.2398,360.6994 592,361.8432" style="fill:none;stroke:rgb(31,119,180);stroke-width:2;stroke-linejoin:bevel" />
  <text dominant-baseline="hanging" text-anchor="middle" transform="translate(313.006,8)" font-family="Segoe UI" font-size="18" font-weight="700" fill="black">7-Tage-Inzidenz Stadt Aachen 02.07.2021</text>
  <polygon points="34.012,29.0795 592,29.0795 592,370.947 34.012,370.947" style="fill:none;stroke:black;stroke-width:1" />
  <polygon points="42.012,37.0795 247.014,37.0795 247.014,63.1325 42.012,63.1325" style="fill:none;stroke:none;" />
  <text dominant-baseline="hanging" text-anchor="start" transform="translate(70.012,45.0795)" font-family="Segoe UI" font-size="12" font-weight="400" fill="black">7-Tage-Inzidenz Stadt Aachen 02.07.2021</text>
  <polyline points="50.012,50.106 66.012,50.106" style="fill:none;stroke:rgb(31,119,180);stroke-width:2" />
</svg>