<?xml version="1.0" encoding="utf-8" standalone="no"?>
<!DOCTYPE svg PUBLIC "-//W3C//DTD SVG 1.1//EN" "http://www.w3.org/Graphics/SVG/1.1/DTD/svg11.dtd">
<svg width="600" height="400" version="1.1" xmlns:xlink="http://www.w3.org/1999/xlink" xmlns="http://www.w3.org/2000/svg">
  <rect x="0" y="0" width="600" height="400" style="fill:rgb(255,255,255);stroke:none;" />
  <polyline points="34.012,362.7539 30.012,362.7539" style="fill:none;stroke:black;stroke-width:1" />
  <polyline points="34.012,348.3289 30.012,348.3289" style="fill:none;stroke:black;stroke-width:1" />
  <polyline points="34.012,333.904 30.012,333.904" style="fill:none;stroke:black;stroke-width:1" />
  <polyline points="34.012,319.479 30.012,319.479" style="fill:none;stroke:black;stroke-width:1" />
  <polyline points="34.012,290.6291 30.012,290.6291" style="fill:none;stroke:black;stroke-width:1" />
  <polyline points="34.012,276.2041 30.012,276.2041" style="fill:none;stroke:black;stroke-width:1" />
  <polyline points="34.012,261.7792 30.012,261.7792" style="fill:none;stroke:black;stroke-width:1" />
  <polyline points="34.012,247.3542 30.012,247.3542" style="fill:none;stroke:black;stroke-width:1" />
  <polyline points="34.012,218.5043 30.012,218.5043" style="fill:none;stroke:black;stroke-width:1" />
  <polyline points="34.012,204.0794 30.012,204.0794" style="fill:none;stroke:black;stroke-width:1" />
  <polyline points="34.012,189.6544 30.012,189.6544" style="fill:none;stroke:black;stroke-width:1" />
  <polyline points="34.012,175.2295 30.012,175.2295" style="fill:none;stroke:black;stroke-width:1" />
  <polyline points="34.012,146.3796 30.012,146.3796" style="fill:none;stroke:black;stroke-width:1" />
  <polyline points="34.012,131.9546 30.012,131.9546" style="fill:none;stroke:black;stroke-width:1" />
  <polyline points="34.012,117.5297 30.012,117.5297" style="fill:none;stroke:black;stroke-width:1" />
  <polyline points="34.012,103.1047 30.012,103.1047" style="fill:none;stroke:black;stroke-width:1" />
  <polyline points="34.012,74.2548 30.012,74.2548" style="fill:none;stroke:black;stroke-width:1" />
  <polyline points="34.012,59.8299 30.012,59.8299" style="fill:none;stroke:black;stroke-width:1" />
  <polyline points="34.012,45.4049 30.012,45.4049" style="fill:none;stroke:black;stroke-width:1" />
  <polyline points="34.012,30.98 30.012,30.98" style="fill:none;stroke:black;stroke-width:1" />
  <text dominant-baseline="middle" text-anchor="end" transform="translate(23.012,305.0541)" font-family="Segoe UI" font-size="12" font-weight="400" fill="black">50</text>
  <text dominant-baseline="middle" text-anchor="end" transform="translate(23.012,232.9293)" font-family="Segoe UI" font-size="12" font-weight="400" fill="black">100</text>
  <text dominant-baseline="middle" text-anchor="end" transform="translate(23.012,160.8045)" font-family="Segoe UI" font-size="12" font-weight="400" fill="black">150</text>
  <text dominant-baseline="middle" text-anchor="end" transform="translate(23.012,88.6798)" font-family="Segoe UI" font-size="12" font-weight="400" fill="black">200</text>
  <polyline points="34.012,305.0541 27.012,305.0541" style="fill:none;stroke:black;stroke-width:1" />
  <polyline points="34.012,232.9293 27.012,232.9293" style="fill:none;stroke:black;stroke-width:1" />
  <polyline points="34.012,160.8045 27.012,160.8045" style="fill:none;stroke:black;stroke-width:1" />
  <polyline points="34.012,88.6798 27.012,88.6798" style="fill:none;stroke:black;stroke-width:1" />
  <text dominant-baseline="hanging" text-anchor="middle" transform="translate(73.4351,381.947)" font-family="Segoe UI" font-size="12" font-weight="400" fill="black">01. September</text>
  <text dominant-baseline="hanging" text-anchor="middle" transform="translate(164.4114,381.947)" font-family="Segoe UI" font-size="12" font-weight="400" fill="black">01. October</text>
  <text dominant-baseline="hanging" text-anchor="middle" transform="translate(258.4202,381.947)" font-family="Segoe UI" font-size="12" font-weight="400" fill="black">01. November</text>
  <text dominant-baseline="hanging" text-anchor="middle" transform="translate(349.3965,381.947)" font-family="Segoe UI" font-size="12" font-weight="400" fill="black">01. December</text>
  <text dominant-baseline="hanging" text-anchor="middle" transform="translate(443.4054,381.947)" font-family="Segoe UI" font-size="12" font-weight="400" fill="black">01. January</text>
  <text dominant-baseline="hanging" text-anchor="middle" transform="translate(537.4142,381.947)" font-family="Segoe UI" font-size="12" font-weight="400" fill="black">01. February</text>
  <polyline points="73.4351,370.947 73.4351,377.947" style="fill:none;stroke:black;stroke-width:1" />
  <polyline points="164.4114,370.947 164.4114,377.947" style="fill:none;stroke:black;stroke-width:1" />
  <polyline points="258.4202,370.947 258.4202,377.947" style="fill:none;stroke:black;stroke-width:1" />
  <polyline points="349.3965,370.947 349.3965,377.947" style="fill:none;stroke:black;stroke-width:1" />
  <polyline points="443.4054,370.947 443.4054,377.947" style="fill:none;stroke:black;stroke-width:1" />
  <polyline points="537.4142,370.947 537.4142,377.947" style="fill:none;stroke:black;stroke-width:1" />
  <polyline points="34.012,356.8142 37.0445,356.3899 40.0771,362.471 49.1747,358.5112 52.2073,362.471 55.2398,363.0367 58.2723,363.6024 61.3049,362.471 70.4025,366.9965 73.4351,365.2994 76.4676,365.8651 79.5002,365.2994 82.5327,365.2994 91.6303,365.8651 94.6629,367.5622 97.6954,365.8651 100.728,365.2994 103.7605,363.0367 112.8581,356.8142 115.8907,352.2887 118.9232,347.1975 121.9558,346.6319 124.9883,342.1064 134.0859,347.7632 137.1185,348.3289 140.151,352.2887 143.1836,350.5916 146.2161,351.723 155.3137,335.8838 158.3463,336.4495 161.3788,335.3182 164.4114,325.1358 167.4439,319.479 176.5415,312.6908 179.5741,313.8222 182.6066,305.9026 185.6392,304.7528 188.6717,307.6498 197.7693,292.5852 200.8019,290.847 203.8344,285.6323 206.867,275.2029 209.8995,253.1854 218.9972,230.5885 222.0297,225.9532 225.0622,221.8974 228.0948,202.7769 231.1273,202.1975 240.225,137.3037 243.2575,132.0891 246.29,129.192 249.3226,131.5096 252.3551,98.4834 261.4528,118.1833 264.4853,107.7539 267.5178,108.9127 270.5504,101.3804 273.5829,119.3421 282.6806,90.9511 285.7131,84.5776 288.7457,58.5042 294.8107,32.4308 303.9084,61.4012 306.9409,75.8864 309.9735,84.5776 313.006,65.3847 316.0385,120.5009 325.1362,167.433 328.1687,150.6301 331.2013,153.5272 334.2338,208.571 337.2663,185.974 346.364,188.8711 349.3965,213.7856 352.4291,225.9532 355.4616,198.1416 358.4942,202.1975 367.5918,179.0211 370.6243,181.3388 373.6569,179.6005 376.6894,151.2095 379.722,173.2271 388.8196,154.1066 391.8521,144.2566 394.8847,132.6685 397.9172,145.4155 400.9498,134.4067 410.0474,116.445 413.0799,117.0244 416.1125,140.7802 431.2752,157.0036 434.3077,154.686 437.3403,134.4067 440.3728,136.3622 452.503,211.468 455.5355,235.2238 458.5681,250.8678 461.6006,236.962 464.6332,215.9584 476.7633,192.9269 479.7959,195.2446 482.8284,217.2621 485.861,247.3913 494.9586,255.9086 497.9912,275.7823 501.0237,267.0912 504.0562,285.0529 507.0888,285.6323 516.1864,272.3059 522.2515,279.8382 525.284,259.5589 528.3166,247.9707 537.4142,264.1942 540.4468,278.3173 543.4793,272.3059 546.5118,279.8382 549.5444,290.847 558.642,293.744 561.6746,290.847 564.7071,275.2029 567.7397,276.3617 570.7722,269.4088 579.8698,283.8941 582.9024,285.6323 585.9349,306.491 588.9675,313.4439 592,329.6673" style="fill:none;stroke:rgb(31,119,180);stroke-width:2;stroke-linejoin:bevel" />
  <text dominant-baseline="hanging" text-anchor="middle" transform="translate(313.006,8)" font-family="Segoe UI" font-size="18" font-weight="700" fill="black">7-Tage-Inzidenz Stadt Aachen 19.02.2021</text>
  <polygon points="34.012,29.0795 592,29.0795 592,370.947 34.012,370.947" style="fill:none;stroke:black;stroke-width:1" />
  <polygon points="42.012,37.0795 247.014,37.0795 247.014,63.1325 42.012,63.1325" style="fill:none;stroke:none;" />
  <text dominant-baseline="hanging" text-anchor="start" transform="translate(70.012,45.0795)" font-family="Segoe UI" font-size="12" font-weight="400" fill="black">7-Tage-Inzidenz Stadt Aachen 19.02.2021</text>
  <polyline points="50.012,50.106 66.012,50.106" style="fill:none;stroke:rgb(31,119,180);stroke-width:2" />
</svg>