<?xml version="1.0" encoding="utf-8" standalone="no"?>
<!DOCTYPE svg PUBLIC "-//W3C//DTD SVG 1.1//EN" "http://www.w3.org/Graphics/SVG/1.1/DTD/svg11.dtd">
<svg width="600" height="400" version="1.1" xmlns:xlink="http://www.w3.org/1999/xlink" xmlns="http://www.w3.org/2000/svg">
  <rect x="0" y="0" width="600" height="400" style="fill:rgb(255,255,255);stroke:none;" />
  <polyline points="34.012,357.8175 30.012,357.8175" style="fill:none;stroke:black;stroke-width:1" />
  <polyline points="34.012,328.5837 30.012,328.5837" style="fill:none;stroke:black;stroke-width:1" />
  <polyline points="34.012,299.3498 30.012,299.3498" style="fill:none;stroke:black;stroke-width:1" />
  <polyline points="34.012,270.1159 30.012,270.1159" style="fill:none;stroke:black;stroke-width:1" />
  <polyline points="34.012,211.6481 30.012,211.6481" style="fill:none;stroke:black;stroke-width:1" />
  <polyline points="34.012,182.4142 30.012,182.4142" style="fill:none;stroke:black;stroke-width:1" />
  <polyline points="34.012,153.1803 30.012,153.1803" style="fill:none;stroke:black;stroke-width:1" />
  <polyline points="34.012,123.9464 30.012,123.9464" style="fill:none;stroke:black;stroke-width:1" />
  <polyline points="34.012,65.4786 30.012,65.4786" style="fill:none;stroke:black;stroke-width:1" />
  <polyline points="34.012,36.2447 30.012,36.2447" style="fill:none;stroke:black;stroke-width:1" />
  <text dominant-baseline="middle" text-anchor="end" transform="translate(23.012,240.882)" font-family="Segoe UI" font-size="12" font-weight="400" fill="black">50</text>
  <text dominant-baseline="middle" text-anchor="end" transform="translate(23.012,94.7125)" font-family="Segoe UI" font-size="12" font-weight="400" fill="black">100</text>
  <polyline points="34.012,240.882 27.012,240.882" style="fill:none;stroke:black;stroke-width:1" />
  <polyline points="34.012,94.7125 27.012,94.7125" style="fill:none;stroke:black;stroke-width:1" />
  <text dominant-baseline="hanging" text-anchor="middle" transform="translate(119.8563,381.947)" font-family="Segoe UI" font-size="12" font-weight="400" fill="black">29. August</text>
  <text dominant-baseline="hanging" text-anchor="middle" transform="translate(240.0383,381.947)" font-family="Segoe UI" font-size="12" font-weight="400" fill="black">12. September</text>
  <text dominant-baseline="hanging" text-anchor="middle" transform="translate(360.2204,381.947)" font-family="Segoe UI" font-size="12" font-weight="400" fill="black">26. September</text>
  <text dominant-baseline="hanging" text-anchor="middle" transform="translate(480.4024,381.947)" font-family="Segoe UI" font-size="12" font-weight="400" fill="black">10. October</text>
  <polyline points="119.8563,370.947 119.8563,377.947" style="fill:none;stroke:black;stroke-width:1" />
  <polyline points="240.0383,370.947 240.0383,377.947" style="fill:none;stroke:black;stroke-width:1" />
  <polyline points="360.2204,370.947 360.2204,377.947" style="fill:none;stroke:black;stroke-width:1" />
  <polyline points="480.4024,370.947 480.4024,377.947" style="fill:none;stroke:black;stroke-width:1" />
  <polyline points="34.012,345.7801 42.5964,344.9202 51.1809,357.2443 76.9342,349.2193 85.5186,357.2443 94.103,358.3908 102.6874,359.5372 111.2719,357.2443 137.0252,366.4157 145.6096,362.9765 154.194,364.1229 162.7785,362.9765 171.3629,362.9765 197.1162,364.1229 205.7006,367.5622 214.285,364.1229 222.8695,362.9765 231.4539,358.3908 257.2072,345.7801 265.7916,336.6086 274.3761,326.2908 282.9605,325.1444 291.5449,315.973 317.2982,327.4372 325.8826,328.5837 334.4671,336.6086 343.0515,333.1694 351.6359,335.4622 377.3892,303.3623 385.9737,304.5087 394.5581,302.2158 403.1425,281.5801 411.727,270.1159 437.4802,256.3587 446.0647,258.6516 454.6491,242.6016 463.2335,240.2714 471.818,246.1426 497.5713,215.6123 506.1557,212.0896 514.7401,201.5214 523.3246,180.3851 531.909,135.764 557.6623,89.9686 566.2467,80.5747 574.8311,72.355 583.4156,33.6051 592,32.4308" style="fill:none;stroke:rgb(31,119,180);stroke-width:2;stroke-linejoin:bevel" />
  <text dominant-baseline="hanging" text-anchor="middle" transform="translate(313.006,8)" font-family="Segoe UI" font-size="18" font-weight="700" fill="black">7-Tage-Inzidenz Stadt Aachen 23.10.2020</text>
  <polygon points="34.012,29.0795 592,29.0795 592,370.947 34.012,370.947" style="fill:none;stroke:black;stroke-width:1" />
  <polygon points="42.012,37.0795 247.014,37.0795 247.014,63.1325 42.012,63.1325" style="fill:none;stroke:none;" />
  <text dominant-baseline="hanging" text-anchor="start" transform="translate(70.012,45.0795)" font-family="Segoe UI" font-size="12" font-weight="400" fill="black">7-Tage-Inzidenz Stadt Aachen 23.10.2020</text>
  <polyline points="50.012,50.106 66.012,50.106" style="fill:none;stroke:rgb(31,119,180);stroke-width:2" />
</svg>