<?xml version="1.0" encoding="utf-8" standalone="no"?>
<!DOCTYPE svg PUBLIC "-//W3C//DTD SVG 1.1//EN" "http://www.w3.org/Graphics/SVG/1.1/DTD/svg11.dtd">
<svg width="600" height="400" version="1.1" xmlns:xlink="http://www.w3.org/1999/xlink" xmlns="http://www.w3.org/2000/svg">
  <rect x="0" y="0" width="600" height="400" style="fill:rgb(255,255,255);stroke:none;" />
  <polyline points="34.012,362.7539 30.012,362.7539" style="fill:none;stroke:black;stroke-width:1" />
  <polyline points="34.012,348.3289 30.012,348.3289" style="fill:none;stroke:black;stroke-width:1" />
  <polyline points="34.012,333.904 30.012,333.904" style="fill:none;stroke:black;stroke-width:1" />
  <polyline points="34.012,319.479 30.012,319.479" style="fill:none;stroke:black;stroke-width:1" />
  <polyline points="34.012,290.6291 30.012,290.6291" style="fill:none;stroke:black;stroke-width:1" />
  <polyline points="34.012,276.2041 30.012,276.2041" style="fill:none;stroke:black;stroke-width:1" />
  <polyline points="34.012,261.7792 30.012,261.7792" style="fill:none;stroke:black;stroke-width:1" />
  <polyline points="34.012,247.3542 30.012,247.3542" style="fill:none;stroke:black;stroke-width:1" />
  <polyline points="34.012,218.5043 30.012,218.5043" style="fill:none;stroke:black;stroke-width:1" />
  <polyline points="34.012,204.0794 30.012,204.0794" style="fill:none;stroke:black;stroke-width:1" />
  <polyline points="34.012,189.6544 30.012,189.6544" style="fill:none;stroke:black;stroke-width:1" />
  <polyline points="34.012,175.2295 30.012,175.2295" style="fill:none;stroke:black;stroke-width:1" />
  <polyline points="34.012,146.3796 30.012,146.3796" style="fill:none;stroke:black;stroke-width:1" />
  <polyline points="34.012,131.9546 30.012,131.9546" style="fill:none;stroke:black;stroke-width:1" />
  <polyline points="34.012,117.5297 30.012,117.5297" style="fill:none;stroke:black;stroke-width:1" />
  <polyline points="34.012,103.1047 30.012,103.1047" style="fill:none;stroke:black;stroke-width:1" />
  <polyline points="34.012,74.2548 30.012,74.2548" style="fill:none;stroke:black;stroke-width:1" />
  <polyline points="34.012,59.8299 30.012,59.8299" style="fill:none;stroke:black;stroke-width:1" />
  <polyline points="34.012,45.4049 30.012,45.4049" style="fill:none;stroke:black;stroke-width:1" />
  <polyline points="34.012,30.98 30.012,30.98" style="fill:none;stroke:black;stroke-width:1" />
  <text dominant-baseline="middle" text-anchor="end" transform="translate(23.012,305.0541)" font-family="Segoe UI" font-size="12" font-weight="400" fill="black">50</text>
  <text dominant-baseline="middle" text-anchor="end" transform="translate(23.012,232.9293)" font-family="Segoe UI" font-size="12" font-weight="400" fill="black">100</text>
  <text dominant-baseline="middle" text-anchor="end" transform="translate(23.012,160.8045)" font-family="Segoe UI" font-size="12" font-weight="400" fill="black">150</text>
  <text dominant-baseline="middle" text-anchor="end" transform="translate(23.012,88.6798)" font-family="Segoe UI" font-size="12" font-weight="400" fill="black">200</text>
  <polyline points="34.012,305.0541 27.012,305.0541" style="fill:none;stroke:black;stroke-width:1" />
  <polyline points="34.012,232.9293 27.012,232.9293" style="fill:none;stroke:black;stroke-width:1" />
  <polyline points="34.012,160.8045 27.012,160.8045" style="fill:none;stroke:black;stroke-width:1" />
  <polyline points="34.012,88.6798 27.012,88.6798" style="fill:none;stroke:black;stroke-width:1" />
  <text dominant-baseline="hanging" text-anchor="middle" transform="translate(73.6505,381.947)" font-family="Segoe UI" font-size="12" font-weight="400" fill="black">01. September</text>
  <text dominant-baseline="hanging" text-anchor="middle" transform="translate(165.1239,381.947)" font-family="Segoe UI" font-size="12" font-weight="400" fill="black">01. October</text>
  <text dominant-baseline="hanging" text-anchor="middle" transform="translate(259.6465,381.947)" font-family="Segoe UI" font-size="12" font-weight="400" fill="black">01. November</text>
  <text dominant-baseline="hanging" text-anchor="middle" transform="translate(351.1199,381.947)" font-family="Segoe UI" font-size="12" font-weight="400" fill="black">01. December</text>
  <text dominant-baseline="hanging" text-anchor="middle" transform="translate(445.6425,381.947)" font-family="Segoe UI" font-size="12" font-weight="400" fill="black">01. January</text>
  <text dominant-baseline="hanging" text-anchor="middle" transform="translate(540.165,381.947)" font-family="Segoe UI" font-size="12" font-weight="400" fill="black">01. February</text>
  <polyline points="73.6505,370.947 73.6505,377.947" style="fill:none;stroke:black;stroke-width:1" />
  <polyline points="165.1239,370.947 165.1239,377.947" style="fill:none;stroke:black;stroke-width:1" />
  <polyline points="259.6465,370.947 259.6465,377.947" style="fill:none;stroke:black;stroke-width:1" />
  <polyline points="351.1199,370.947 351.1199,377.947" style="fill:none;stroke:black;stroke-width:1" />
  <polyline points="445.6425,370.947 445.6425,377.947" style="fill:none;stroke:black;stroke-width:1" />
  <polyline points="540.165,370.947 540.165,377.947" style="fill:none;stroke:black;stroke-width:1" />
  <polyline points="34.012,356.8142 37.0611,356.3899 40.1102,362.471 49.2576,358.5112 52.3067,362.471 55.3558,363.0367 58.4049,363.6024 61.454,362.471 70.6014,366.9965 73.6505,365.2994 76.6996,365.8651 79.7487,365.2994 82.7978,365.2994 91.9452,365.8651 94.9943,367.5622 98.0434,365.8651 101.0925,365.2994 104.1416,363.0367 113.289,356.8142 116.3381,352.2887 119.3872,347.1975 122.4363,346.6319 125.4854,342.1064 134.6328,347.7632 137.6819,348.3289 140.731,352.2887 143.7801,350.5916 146.8292,351.723 155.9766,335.8838 159.0257,336.4495 162.0748,335.3182 165.1239,325.1358 168.173,319.479 177.3204,312.6908 180.3695,313.8222 183.4186,305.9026 186.4677,304.7528 189.5169,307.6498 198.6642,292.5852 201.7133,290.847 204.7624,285.6323 207.8115,275.2029 210.8607,253.1854 220.008,230.5885 223.0571,225.9532 226.1062,221.8974 229.1553,202.7769 232.2045,202.1975 241.3518,137.3037 244.4009,132.0891 247.45,129.192 250.4991,131.5096 253.5483,98.4834 262.6956,118.1833 265.7447,107.7539 268.7938,108.9127 271.843,101.3804 274.8921,119.3421 284.0394,90.9511 287.0885,84.5776 290.1376,58.5042 296.2359,32.4308 305.3832,61.4012 308.4323,75.8864 311.4814,84.5776 314.5306,65.3847 317.5797,120.5009 326.727,167.433 329.7761,150.6301 332.8252,153.5272 335.8744,208.571 338.9235,185.974 348.0708,188.8711 351.1199,213.7856 354.169,225.9532 357.2182,198.1416 360.2673,202.1975 369.4146,179.0211 372.4637,181.3388 375.5129,179.6005 378.562,151.2095 381.6111,173.2271 390.7584,154.1066 393.8075,144.2566 396.8567,132.6685 399.9058,145.4155 402.9549,134.4067 412.1022,116.445 415.1513,117.0244 418.2005,140.7802 433.446,157.0036 436.4951,154.686 439.5443,134.4067 442.5934,136.3622 454.7898,211.468 457.839,235.2238 460.8881,250.8678 463.9372,236.962 466.9863,215.9584 479.1828,192.9269 482.2319,195.2446 485.281,217.2621 488.3301,247.3913 497.4774,255.9086 500.5266,275.7823 503.5757,267.0912 506.6248,285.0529 509.6739,285.6323 518.8212,272.3059 524.9195,279.8382 527.9686,259.5589 531.0177,247.9707 540.165,264.1942 543.2142,278.3173 546.2633,272.3059 549.3124,279.8382 552.3615,290.847 561.5089,293.744 564.558,290.847 567.6071,275.2029 570.6562,276.3617 573.7053,269.4088 582.8527,283.8941 585.9018,285.6323 588.9509,306.491 592,313.4439" style="fill:none;stroke:rgb(31,119,180);stroke-width:2;stroke-linejoin:bevel" />
  <text dominant-baseline="hanging" text-anchor="middle" transform="translate(313.006,8)" font-family="Segoe UI" font-size="18" font-weight="700" fill="black">7-Tage-Inzidenz Stadt Aachen 18.02.2021</text>
  <polygon points="34.012,29.0795 592,29.0795 592,370.947 34.012,370.947" style="fill:none;stroke:black;stroke-width:1" />
  <polygon points="42.012,37.0795 247.014,37.0795 247.014,63.1325 42.012,63.1325" style="fill:none;stroke:none;" />
  <text dominant-baseline="hanging" text-anchor="start" transform="translate(70.012,45.0795)" font-family="Segoe UI" font-size="12" font-weight="400" fill="black">7-Tage-Inzidenz Stadt Aachen 18.02.2021</text>
  <polyline points="50.012,50.106 66.012,50.106" style="fill:none;stroke:rgb(31,119,180);stroke-width:2" />
</svg>