<?xml version="1.0" encoding="utf-8" standalone="no"?>
<!DOCTYPE svg PUBLIC "-//W3C//DTD SVG 1.1//EN" "http://www.w3.org/Graphics/SVG/1.1/DTD/svg11.dtd">
<svg width="600" height="400" version="1.1" xmlns:xlink="http://www.w3.org/1999/xlink" xmlns="http://www.w3.org/2000/svg">
  <rect x="0" y="0" width="600" height="400" style="fill:rgb(255,255,255);stroke:none;" />
  <polyline points="34.012,358.4713 30.012,358.4713" style="fill:none;stroke:black;stroke-width:1" />
  <polyline points="34.012,344.2334 30.012,344.2334" style="fill:none;stroke:black;stroke-width:1" />
  <polyline points="34.012,329.9954 30.012,329.9954" style="fill:none;stroke:black;stroke-width:1" />
  <polyline points="34.012,315.7575 30.012,315.7575" style="fill:none;stroke:black;stroke-width:1" />
  <polyline points="34.012,287.2816 30.012,287.2816" style="fill:none;stroke:black;stroke-width:1" />
  <polyline points="34.012,273.0437 30.012,273.0437" style="fill:none;stroke:black;stroke-width:1" />
  <polyline points="34.012,258.8058 30.012,258.8058" style="fill:none;stroke:black;stroke-width:1" />
  <polyline points="34.012,244.5678 30.012,244.5678" style="fill:none;stroke:black;stroke-width:1" />
  <polyline points="34.012,216.0919 30.012,216.0919" style="fill:none;stroke:black;stroke-width:1" />
  <polyline points="34.012,201.854 30.012,201.854" style="fill:none;stroke:black;stroke-width:1" />
  <polyline points="34.012,187.6161 30.012,187.6161" style="fill:none;stroke:black;stroke-width:1" />
  <polyline points="34.012,173.3781 30.012,173.3781" style="fill:none;stroke:black;stroke-width:1" />
  <polyline points="34.012,144.9023 30.012,144.9023" style="fill:none;stroke:black;stroke-width:1" />
  <polyline points="34.012,130.6643 30.012,130.6643" style="fill:none;stroke:black;stroke-width:1" />
  <polyline points="34.012,116.4264 30.012,116.4264" style="fill:none;stroke:black;stroke-width:1" />
  <polyline points="34.012,102.1885 30.012,102.1885" style="fill:none;stroke:black;stroke-width:1" />
  <polyline points="34.012,73.7126 30.012,73.7126" style="fill:none;stroke:black;stroke-width:1" />
  <polyline points="34.012,59.4747 30.012,59.4747" style="fill:none;stroke:black;stroke-width:1" />
  <polyline points="34.012,45.2367 30.012,45.2367" style="fill:none;stroke:black;stroke-width:1" />
  <polyline points="34.012,30.9988 30.012,30.9988" style="fill:none;stroke:black;stroke-width:1" />
  <polyline points="56.195,370.947 56.195,374.947" style="fill:none;stroke:black;stroke-width:1" />
  <polyline points="160.2845,370.947 160.2845,374.947" style="fill:none;stroke:black;stroke-width:1" />
  <polyline points="264.374,370.947 264.374,374.947" style="fill:none;stroke:black;stroke-width:1" />
  <polyline points="365.0508,370.947 365.0508,374.947" style="fill:none;stroke:black;stroke-width:1" />
  <polyline points="469.1403,370.947 469.1403,374.947" style="fill:none;stroke:black;stroke-width:1" />
  <polyline points="573.2298,370.947 573.2298,374.947" style="fill:none;stroke:black;stroke-width:1" />
  <text dominant-baseline="middle" text-anchor="end" transform="translate(23.012,301.5196)" font-family="Segoe UI" font-size="12" font-weight="400" fill="black">50</text>
  <text dominant-baseline="middle" text-anchor="end" transform="translate(23.012,230.3299)" font-family="Segoe UI" font-size="12" font-weight="400" fill="black">100</text>
  <text dominant-baseline="middle" text-anchor="end" transform="translate(23.012,159.1402)" font-family="Segoe UI" font-size="12" font-weight="400" fill="black">150</text>
  <text dominant-baseline="middle" text-anchor="end" transform="translate(23.012,87.9505)" font-family="Segoe UI" font-size="12" font-weight="400" fill="black">200</text>
  <polyline points="34.012,301.5196 27.012,301.5196" style="fill:none;stroke:black;stroke-width:1" />
  <polyline points="34.012,230.3299 27.012,230.3299" style="fill:none;stroke:black;stroke-width:1" />
  <polyline points="34.012,159.1402 27.012,159.1402" style="fill:none;stroke:black;stroke-width:1" />
  <polyline points="34.012,87.9505 27.012,87.9505" style="fill:none;stroke:black;stroke-width:1" />
  <text dominant-baseline="hanging" text-anchor="middle" transform="translate(107.3866,381.947)" font-family="Segoe UI" font-size="12" font-weight="400" fill="black">01. October</text>
  <text dominant-baseline="hanging" text-anchor="middle" transform="translate(211.4761,381.947)" font-family="Segoe UI" font-size="12" font-weight="400" fill="black">01. December</text>
  <text dominant-baseline="hanging" text-anchor="middle" transform="translate(317.272,381.947)" font-family="Segoe UI" font-size="12" font-weight="400" fill="black">01. February</text>
  <text dominant-baseline="hanging" text-anchor="middle" transform="translate(417.9487,381.947)" font-family="Segoe UI" font-size="12" font-weight="400" fill="black">01. April</text>
  <text dominant-baseline="hanging" text-anchor="middle" transform="translate(522.0382,381.947)" font-family="Segoe UI" font-size="12" font-weight="400" fill="black">01. June</text>
  <polyline points="107.3866,370.947 107.3866,377.947" style="fill:none;stroke:black;stroke-width:1" />
  <polyline points="211.4761,370.947 211.4761,377.947" style="fill:none;stroke:black;stroke-width:1" />
  <polyline points="317.272,370.947 317.272,377.947" style="fill:none;stroke:black;stroke-width:1" />
  <polyline points="417.9487,370.947 417.9487,377.947" style="fill:none;stroke:black;stroke-width:1" />
  <polyline points="522.0382,370.947 522.0382,377.947" style="fill:none;stroke:black;stroke-width:1" />
  <polyline points="34.012,352.6086 35.7184,352.1899 37.4248,358.1921 42.5439,354.2837 44.2503,358.1921 45.9567,358.7505 47.6631,359.3088 49.3695,358.1921 54.4886,362.6589 56.195,360.9839 57.9014,361.5422 59.6078,360.9839 61.3142,360.9839 66.4333,361.5422 68.1397,363.2173 69.8461,361.5422 71.5525,360.9839 73.2589,358.7505 78.378,352.6086 80.0844,348.1418 81.7908,343.1167 83.4972,342.5583 85.2036,338.0915 90.3227,343.675 92.0291,344.2334 93.7355,348.1418 95.4419,346.4668 97.1483,347.5835 102.2674,331.9497 103.9738,332.508 105.6802,331.3913 107.3866,321.341 109.093,315.7575 114.2121,309.0573 115.9185,310.174 117.6249,302.3571 119.3313,301.2222 121.0377,304.0817 126.1568,289.2124 127.8632,287.4967 129.5696,282.3496 131.276,272.0555 132.9823,250.3234 138.1015,228.0194 139.8079,223.4443 141.5143,219.441 143.2207,200.5684 144.927,199.9965 150.0462,135.9441 151.7526,130.797 153.459,127.9375 155.1654,130.2251 156.8717,97.627 161.9909,117.0715 163.6973,106.7774 165.4037,107.9212 167.1101,100.4865 168.8164,118.2153 173.9356,90.1924 175.642,83.9015 177.3484,58.1662 180.7611,32.4308 185.8803,61.0256 187.5867,75.3231 189.2931,83.9015 190.9994,64.9574 192.7058,119.3591 197.825,165.6827 199.5314,149.0977 201.2378,151.9572 202.9441,206.2874 204.6505,183.9834 209.7697,186.8429 211.4761,211.4344 213.1825,223.4443 214.8888,195.9932 216.5952,199.9965 221.7144,177.1206 223.4208,179.4082 225.1272,177.6925 226.8335,149.6696 228.5399,171.4017 233.6591,152.5291 235.3655,142.8068 237.0719,131.3689 238.7782,143.9506 240.4846,133.0846 245.6038,115.3558 247.3102,115.9277 249.0166,139.3755 257.5485,155.3886 259.2549,153.101 260.9612,133.0846 262.6676,135.0148 269.4932,209.1468 271.1996,232.5946 272.9059,248.0358 274.6123,234.3103 276.3187,213.579 283.1443,190.8461 284.8506,193.1337 286.557,214.8658 288.2634,244.6044 293.3826,253.0113 295.089,272.6274 296.7953,264.0489 298.5017,281.7777 300.2081,282.3496 305.3273,269.196 308.74,276.6306 310.4464,256.6142 312.1528,245.1763 317.272,261.1894 318.9783,275.1294 320.6847,269.196 322.3911,276.6306 324.0975,287.4967 329.2167,290.3561 330.923,287.4967 332.6294,272.0555 334.3358,273.1992 336.0422,266.3365 341.1614,280.6339 342.8677,282.3496 344.5741,302.9379 346.2805,309.8006 347.9869,325.8137 353.1061,325.8137 354.8124,326.9575 356.5188,317.8072 358.2252,318.3791 359.9316,313.8039 365.0508,325.2418 366.7571,324.098 368.4635,320.0948 370.1699,297.2189 371.8763,291.4999 376.9954,262.3332 378.7018,262.3332 380.4082,260.6175 382.1146,275.4868 383.821,269.196 388.9401,258.9018 390.6465,259.4737 392.3529,252.0391 394.0593,224.0161 395.7657,206.2874 400.8848,198.2808 402.5912,197.7089 404.2976,202.2841 406.004,190.8461 407.7104,203.4279 412.8295,221.7286 414.5359,218.2972 416.2423,225.1599 417.9487,241.173 419.6551,216.0096 426.4806,202.856 428.187,217.7253 429.8934,199.4246 431.5998,232.5946 436.7189,223.3871 438.4253,213.722 440.1317,166.2546 441.8381,186.8429 443.5445,182.8396 448.6636,174.2612 450.37,155.3886 452.0764,160.5356 453.7828,146.8101 455.4892,122.7905 460.6083,103.9179 462.3147,119.931 464.0211,134.2284 465.7275,128.5094 467.4339,131.3689 472.553,157.1043 474.2594,145.0944 475.9658,138.8036 477.6722,171.9736 479.3786,191.9899 484.4977,201.7122 486.2041,210.8625 487.9105,223.4443 491.3233,191.418 496.4424,194.2775 498.1488,179.9801 499.8552,174.2612 501.5616,178.5504 503.268,213.722 510.0935,261.1894 511.7999,285.781 513.5063,295.5032 515.2127,298.9346 520.3318,306.6552 522.0382,311.5163 523.7446,310.3725 527.1574,330.9608 532.2765,346.402 533.9829,351.5491 535.6893,356.1242 537.3957,355.1949 539.1021,360.6994 544.2212,363.5589 545.9276,362.4151 547.634,362.4151 549.3404,361.2713 551.0468,358.4118 556.1659,358.4118 557.8723,357.8399 559.5787,361.2713 561.2851,364.7027 562.9914,366.4184 568.1106,365.8465 569.817,367.5622 571.5234,364.1308 573.2298,360.6994 574.9361,361.8432 580.0553,361.8432 583.4681,362.4151 586.8808,364.7027 592,365.8465" style="fill:none;stroke:rgb(31,119,180);stroke-width:2;stroke-linejoin:bevel" />
  <text dominant-baseline="hanging" text-anchor="middle" transform="translate(313.006,8)" font-family="Segoe UI" font-size="18" font-weight="700" fill="black">7-Tage-Inzidenz Stadt Aachen 12.07.2021</text>
  <polygon points="34.012,29.0795 592,29.0795 592,370.947 34.012,370.947" style="fill:none;stroke:black;stroke-width:1" />
  <polygon points="42.012,37.0795 247.014,37.0795 247.014,63.1325 42.012,63.1325" style="fill:none;stroke:none;" />
  <text dominant-baseline="hanging" text-anchor="start" transform="translate(70.012,45.0795)" font-family="Segoe UI" font-size="12" font-weight="400" fill="black">7-Tage-Inzidenz Stadt Aachen 12.07.2021</text>
  <polyline points="50.012,50.106 66.012,50.106" style="fill:none;stroke:rgb(31,119,180);stroke-width:2" />
</svg>