<?xml version="1.0" encoding="utf-8" standalone="no"?>
<!DOCTYPE svg PUBLIC "-//W3C//DTD SVG 1.1//EN" "http://www.w3.org/Graphics/SVG/1.1/DTD/svg11.dtd">
<svg width="600" height="400" version="1.1" xmlns:xlink="http://www.w3.org/1999/xlink" xmlns="http://www.w3.org/2000/svg">
  <rect x="0" y="0" width="600" height="400" style="fill:rgb(255,255,255);stroke:none;" />
  <polyline points="34.012,362.7539 30.012,362.7539" style="fill:none;stroke:black;stroke-width:1" />
  <polyline points="34.012,348.3289 30.012,348.3289" style="fill:none;stroke:black;stroke-width:1" />
  <polyline points="34.012,333.904 30.012,333.904" style="fill:none;stroke:black;stroke-width:1" />
  <polyline points="34.012,319.479 30.012,319.479" style="fill:none;stroke:black;stroke-width:1" />
  <polyline points="34.012,290.6291 30.012,290.6291" style="fill:none;stroke:black;stroke-width:1" />
  <polyline points="34.012,276.2041 30.012,276.2041" style="fill:none;stroke:black;stroke-width:1" />
  <polyline points="34.012,261.7792 30.012,261.7792" style="fill:none;stroke:black;stroke-width:1" />
  <polyline points="34.012,247.3542 30.012,247.3542" style="fill:none;stroke:black;stroke-width:1" />
  <polyline points="34.012,218.5043 30.012,218.5043" style="fill:none;stroke:black;stroke-width:1" />
  <polyline points="34.012,204.0794 30.012,204.0794" style="fill:none;stroke:black;stroke-width:1" />
  <polyline points="34.012,189.6544 30.012,189.6544" style="fill:none;stroke:black;stroke-width:1" />
  <polyline points="34.012,175.2295 30.012,175.2295" style="fill:none;stroke:black;stroke-width:1" />
  <polyline points="34.012,146.3796 30.012,146.3796" style="fill:none;stroke:black;stroke-width:1" />
  <polyline points="34.012,131.9546 30.012,131.9546" style="fill:none;stroke:black;stroke-width:1" />
  <polyline points="34.012,117.5297 30.012,117.5297" style="fill:none;stroke:black;stroke-width:1" />
  <polyline points="34.012,103.1047 30.012,103.1047" style="fill:none;stroke:black;stroke-width:1" />
  <polyline points="34.012,74.2548 30.012,74.2548" style="fill:none;stroke:black;stroke-width:1" />
  <polyline points="34.012,59.8299 30.012,59.8299" style="fill:none;stroke:black;stroke-width:1" />
  <polyline points="34.012,45.4049 30.012,45.4049" style="fill:none;stroke:black;stroke-width:1" />
  <polyline points="34.012,30.98 30.012,30.98" style="fill:none;stroke:black;stroke-width:1" />
  <text dominant-baseline="middle" text-anchor="end" transform="translate(23.012,305.0541)" font-family="Segoe UI" font-size="12" font-weight="400" fill="black">50</text>
  <text dominant-baseline="middle" text-anchor="end" transform="translate(23.012,232.9293)" font-family="Segoe UI" font-size="12" font-weight="400" fill="black">100</text>
  <text dominant-baseline="middle" text-anchor="end" transform="translate(23.012,160.8045)" font-family="Segoe UI" font-size="12" font-weight="400" fill="black">150</text>
  <text dominant-baseline="middle" text-anchor="end" transform="translate(23.012,88.6798)" font-family="Segoe UI" font-size="12" font-weight="400" fill="black">200</text>
  <polyline points="34.012,305.0541 27.012,305.0541" style="fill:none;stroke:black;stroke-width:1" />
  <polyline points="34.012,232.9293 27.012,232.9293" style="fill:none;stroke:black;stroke-width:1" />
  <polyline points="34.012,160.8045 27.012,160.8045" style="fill:none;stroke:black;stroke-width:1" />
  <polyline points="34.012,88.6798 27.012,88.6798" style="fill:none;stroke:black;stroke-width:1" />
  <text dominant-baseline="hanging" text-anchor="middle" transform="translate(60.6805,381.947)" font-family="Segoe UI" font-size="12" font-weight="400" fill="black">01. September</text>
  <text dominant-baseline="hanging" text-anchor="middle" transform="translate(122.2233,381.947)" font-family="Segoe UI" font-size="12" font-weight="400" fill="black">01. October</text>
  <text dominant-baseline="hanging" text-anchor="middle" transform="translate(185.8176,381.947)" font-family="Segoe UI" font-size="12" font-weight="400" fill="black">01. November</text>
  <text dominant-baseline="hanging" text-anchor="middle" transform="translate(247.3604,381.947)" font-family="Segoe UI" font-size="12" font-weight="400" fill="black">01. December</text>
  <text dominant-baseline="hanging" text-anchor="middle" transform="translate(310.9546,381.947)" font-family="Segoe UI" font-size="12" font-weight="400" fill="black">01. January</text>
  <text dominant-baseline="hanging" text-anchor="middle" transform="translate(374.5488,381.947)" font-family="Segoe UI" font-size="12" font-weight="400" fill="black">01. February</text>
  <text dominant-baseline="hanging" text-anchor="middle" transform="translate(431.9887,381.947)" font-family="Segoe UI" font-size="12" font-weight="400" fill="black">01. March</text>
  <text dominant-baseline="hanging" text-anchor="middle" transform="translate(495.583,381.947)" font-family="Segoe UI" font-size="12" font-weight="400" fill="black">01. April</text>
  <text dominant-baseline="hanging" text-anchor="middle" transform="translate(557.1258,381.947)" font-family="Segoe UI" font-size="12" font-weight="400" fill="black">01. May</text>
  <polyline points="60.6805,370.947 60.6805,377.947" style="fill:none;stroke:black;stroke-width:1" />
  <polyline points="122.2233,370.947 122.2233,377.947" style="fill:none;stroke:black;stroke-width:1" />
  <polyline points="185.8176,370.947 185.8176,377.947" style="fill:none;stroke:black;stroke-width:1" />
  <polyline points="247.3604,370.947 247.3604,377.947" style="fill:none;stroke:black;stroke-width:1" />
  <polyline points="310.9546,370.947 310.9546,377.947" style="fill:none;stroke:black;stroke-width:1" />
  <polyline points="374.5488,370.947 374.5488,377.947" style="fill:none;stroke:black;stroke-width:1" />
  <polyline points="431.9887,370.947 431.9887,377.947" style="fill:none;stroke:black;stroke-width:1" />
  <polyline points="495.583,370.947 495.583,377.947" style="fill:none;stroke:black;stroke-width:1" />
  <polyline points="557.1258,370.947 557.1258,377.947" style="fill:none;stroke:black;stroke-width:1" />
  <polyline points="34.012,356.8142 36.0634,356.3899 38.1149,362.471 44.2691,358.5112 46.3206,362.471 48.372,363.0367 50.4234,363.6024 52.4748,362.471 58.6291,366.9965 60.6805,365.2994 62.732,365.8651 64.7834,365.2994 66.8348,365.2994 72.9891,365.8651 75.0405,367.5622 77.092,365.8651 79.1434,365.2994 81.1948,363.0367 87.3491,356.8142 89.4005,352.2887 91.4519,347.1975 93.5034,346.6319 95.5548,342.1064 101.7091,347.7632 103.7605,348.3289 105.8119,352.2887 107.8634,350.5916 109.9148,351.723 116.0691,335.8838 118.1205,336.4495 120.1719,335.3182 122.2233,325.1358 124.2748,319.479 130.429,312.6908 132.4805,313.8222 134.5319,305.9026 136.5833,304.7528 138.6348,307.6498 144.789,292.5852 146.8405,290.847 148.8919,285.6323 150.9433,275.2029 152.9947,253.1854 159.149,230.5885 161.2004,225.9532 163.2519,221.8974 165.3033,202.7769 167.3547,202.1975 173.509,137.3037 175.5604,132.0891 177.6119,129.192 179.6633,131.5096 181.7147,98.4834 187.869,118.1833 189.9204,107.7539 191.9718,108.9127 194.0233,101.3804 196.0747,119.3421 202.229,90.9511 204.2804,84.5776 206.3318,58.5042 210.4347,32.4308 216.589,61.4012 218.6404,75.8864 220.6918,84.5776 222.7432,65.3847 224.7947,120.5009 230.9489,167.433 233.0004,150.6301 235.0518,153.5272 237.1032,208.571 239.1546,185.974 245.3089,188.8711 247.3604,213.7856 249.4118,225.9532 251.4632,198.1416 253.5146,202.1975 259.6689,179.0211 261.7203,181.3388 263.7718,179.6005 265.8232,151.2095 267.8746,173.2271 274.0289,154.1066 276.0803,144.2566 278.1318,132.6685 280.1832,145.4155 282.2346,134.4067 288.3889,116.445 290.4403,117.0244 292.4917,140.7802 302.7489,157.0036 304.8003,154.686 306.8517,134.4067 308.9031,136.3622 317.1089,211.468 319.1603,235.2238 321.2117,250.8678 323.2631,236.962 325.3146,215.9584 333.5203,192.9269 335.5717,195.2446 337.6231,217.2621 339.6745,247.3913 345.8288,255.9086 347.8803,275.7823 349.9317,267.0912 351.9831,285.0529 354.0345,285.6323 360.1888,272.3059 364.2917,279.8382 366.3431,259.5589 368.3945,247.9707 374.5488,264.1942 376.6002,278.3173 378.6516,272.3059 380.7031,279.8382 382.7545,290.847 388.9088,293.744 390.9602,290.847 393.0116,275.2029 395.0631,276.3617 397.1145,269.4088 403.2688,283.8941 405.3202,285.6323 407.3716,306.491 409.423,313.4439 411.4745,329.6673 417.6288,329.6673 419.6802,330.8261 421.7316,321.5556 423.783,322.135 425.8345,317.4997 431.9887,329.0879 434.0402,327.9291 436.0916,323.8732 438.143,300.6969 440.1944,294.9028 446.3487,265.353 448.4001,265.353 450.4516,263.6148 452.503,278.6794 454.5544,272.3059 460.7087,261.8765 462.7601,262.4559 464.8116,254.9236 466.863,226.5326 468.9144,208.571 475.0687,200.4592 477.1201,199.8798 479.1715,204.5151 481.223,192.9269 483.2744,205.6739 489.4287,224.215 491.4801,220.7385 493.5315,227.6914 495.583,243.9149 497.6344,218.4209 505.8401,205.0945 507.8915,220.1591 509.9429,201.6181 511.9944,235.2238 518.1486,225.8953 520.2001,216.1033 522.2515,168.0124 524.3029,188.8711 526.3544,184.8152 532.5086,176.1241 534.5601,157.0036 536.6115,162.2183 538.6629,148.3125 540.7143,123.9773 546.8686,104.8569 548.92,121.0803 550.9715,135.5655 553.0229,129.7714 555.0743,132.6685 561.2286,158.7418 563.28,146.5743 565.3315,140.2008 567.3829,173.8065 569.4343,194.0858 575.5886,203.9357 577.64,213.2062 579.6914,225.9532 583.7943,193.5063 589.9486,196.4034 592,181.9182" style="fill:none;stroke:rgb(31,119,180);stroke-width:2;stroke-linejoin:bevel" />
  <text dominant-baseline="hanging" text-anchor="middle" transform="translate(313.006,8)" font-family="Segoe UI" font-size="18" font-weight="700" fill="black">7-Tage-Inzidenz Stadt Aachen 18.05.2021</text>
  <polygon points="34.012,29.0795 592,29.0795 592,370.947 34.012,370.947" style="fill:none;stroke:black;stroke-width:1" />
  <polygon points="42.012,37.0795 247.014,37.0795 247.014,63.1325 42.012,63.1325" style="fill:none;stroke:none;" />
  <text dominant-baseline="hanging" text-anchor="start" transform="translate(70.012,45.0795)" font-family="Segoe UI" font-size="12" font-weight="400" fill="black">7-Tage-Inzidenz Stadt Aachen 18.05.2021</text>
  <polyline points="50.012,50.106 66.012,50.106" style="fill:none;stroke:rgb(31,119,180);stroke-width:2" />
</svg>