<?xml version="1.0" encoding="utf-8" standalone="no"?>
<!DOCTYPE svg PUBLIC "-//W3C//DTD SVG 1.1//EN" "http://www.w3.org/Graphics/SVG/1.1/DTD/svg11.dtd">
<svg width="600" height="400" version="1.1" xmlns:xlink="http://www.w3.org/1999/xlink" xmlns="http://www.w3.org/2000/svg">
  <rect x="0" y="0" width="600" height="400" style="fill:rgb(255,255,255);stroke:none;" />
  <polyline points="34.012,362.7539 30.012,362.7539" style="fill:none;stroke:black;stroke-width:1" />
  <polyline points="34.012,348.3289 30.012,348.3289" style="fill:none;stroke:black;stroke-width:1" />
  <polyline points="34.012,333.904 30.012,333.904" style="fill:none;stroke:black;stroke-width:1" />
  <polyline points="34.012,319.479 30.012,319.479" style="fill:none;stroke:black;stroke-width:1" />
  <polyline points="34.012,290.6291 30.012,290.6291" style="fill:none;stroke:black;stroke-width:1" />
  <polyline points="34.012,276.2041 30.012,276.2041" style="fill:none;stroke:black;stroke-width:1" />
  <polyline points="34.012,261.7792 30.012,261.7792" style="fill:none;stroke:black;stroke-width:1" />
  <polyline points="34.012,247.3542 30.012,247.3542" style="fill:none;stroke:black;stroke-width:1" />
  <polyline points="34.012,218.5043 30.012,218.5043" style="fill:none;stroke:black;stroke-width:1" />
  <polyline points="34.012,204.0794 30.012,204.0794" style="fill:none;stroke:black;stroke-width:1" />
  <polyline points="34.012,189.6544 30.012,189.6544" style="fill:none;stroke:black;stroke-width:1" />
  <polyline points="34.012,175.2295 30.012,175.2295" style="fill:none;stroke:black;stroke-width:1" />
  <polyline points="34.012,146.3796 30.012,146.3796" style="fill:none;stroke:black;stroke-width:1" />
  <polyline points="34.012,131.9546 30.012,131.9546" style="fill:none;stroke:black;stroke-width:1" />
  <polyline points="34.012,117.5297 30.012,117.5297" style="fill:none;stroke:black;stroke-width:1" />
  <polyline points="34.012,103.1047 30.012,103.1047" style="fill:none;stroke:black;stroke-width:1" />
  <polyline points="34.012,74.2548 30.012,74.2548" style="fill:none;stroke:black;stroke-width:1" />
  <polyline points="34.012,59.8299 30.012,59.8299" style="fill:none;stroke:black;stroke-width:1" />
  <polyline points="34.012,45.4049 30.012,45.4049" style="fill:none;stroke:black;stroke-width:1" />
  <polyline points="34.012,30.98 30.012,30.98" style="fill:none;stroke:black;stroke-width:1" />
  <text dominant-baseline="middle" text-anchor="end" transform="translate(23.012,305.0541)" font-family="Segoe UI" font-size="12" font-weight="400" fill="black">50</text>
  <text dominant-baseline="middle" text-anchor="end" transform="translate(23.012,232.9293)" font-family="Segoe UI" font-size="12" font-weight="400" fill="black">100</text>
  <text dominant-baseline="middle" text-anchor="end" transform="translate(23.012,160.8045)" font-family="Segoe UI" font-size="12" font-weight="400" fill="black">150</text>
  <text dominant-baseline="middle" text-anchor="end" transform="translate(23.012,88.6798)" font-family="Segoe UI" font-size="12" font-weight="400" fill="black">200</text>
  <polyline points="34.012,305.0541 27.012,305.0541" style="fill:none;stroke:black;stroke-width:1" />
  <polyline points="34.012,232.9293 27.012,232.9293" style="fill:none;stroke:black;stroke-width:1" />
  <polyline points="34.012,160.8045 27.012,160.8045" style="fill:none;stroke:black;stroke-width:1" />
  <polyline points="34.012,88.6798 27.012,88.6798" style="fill:none;stroke:black;stroke-width:1" />
  <text dominant-baseline="hanging" text-anchor="middle" transform="translate(78.5141,381.947)" font-family="Segoe UI" font-size="12" font-weight="400" fill="black">01. September</text>
  <text dominant-baseline="hanging" text-anchor="middle" transform="translate(181.2113,381.947)" font-family="Segoe UI" font-size="12" font-weight="400" fill="black">01. October</text>
  <text dominant-baseline="hanging" text-anchor="middle" transform="translate(287.3317,381.947)" font-family="Segoe UI" font-size="12" font-weight="400" fill="black">01. November</text>
  <text dominant-baseline="hanging" text-anchor="middle" transform="translate(390.0289,381.947)" font-family="Segoe UI" font-size="12" font-weight="400" fill="black">01. December</text>
  <text dominant-baseline="hanging" text-anchor="middle" transform="translate(496.1493,381.947)" font-family="Segoe UI" font-size="12" font-weight="400" fill="black">01. January</text>
  <polyline points="78.5141,370.947 78.5141,377.947" style="fill:none;stroke:black;stroke-width:1" />
  <polyline points="181.2113,370.947 181.2113,377.947" style="fill:none;stroke:black;stroke-width:1" />
  <polyline points="287.3317,370.947 287.3317,377.947" style="fill:none;stroke:black;stroke-width:1" />
  <polyline points="390.0289,370.947 390.0289,377.947" style="fill:none;stroke:black;stroke-width:1" />
  <polyline points="496.1493,370.947 496.1493,377.947" style="fill:none;stroke:black;stroke-width:1" />
  <polyline points="34.012,356.8142 37.4352,356.3899 40.8585,362.471 51.1282,358.5112 54.5514,362.471 57.9747,363.0367 61.3979,363.6024 64.8212,362.471 75.0909,366.9965 78.5141,365.2994 81.9373,365.8651 85.3606,365.2994 88.7838,365.2994 99.0535,365.8651 102.4768,367.5622 105.9,365.8651 109.3233,365.2994 112.7465,363.0367 123.0162,356.8142 126.4395,352.2887 129.8627,347.1975 133.2859,346.6319 136.7092,342.1064 146.9789,347.7632 150.4021,348.3289 153.8254,352.2887 157.2486,350.5916 160.6719,351.723 170.9416,335.8838 174.3648,336.4495 177.788,335.3182 181.2113,325.1358 184.6345,319.479 194.9042,312.6908 198.3275,313.8222 201.7507,305.9026 205.174,304.7528 208.5972,307.6498 218.8669,292.5852 222.2902,290.847 225.7134,285.6323 229.1366,275.2029 232.5599,253.1854 242.8296,230.5885 246.2528,225.9532 249.6761,221.8974 253.0993,202.7769 256.5226,202.1975 266.7923,137.3037 270.2155,132.0891 273.6387,129.192 277.062,131.5096 280.4852,98.4834 290.7549,118.1833 294.1782,107.7539 297.6014,108.9127 301.0247,101.3804 304.4479,119.3421 314.7176,90.9511 318.1409,84.5776 321.5641,58.5042 328.4106,32.4308 338.6803,61.4012 342.1035,75.8864 345.5268,84.5776 348.95,65.3847 352.3733,120.5009 362.643,167.433 366.0662,150.6301 369.4894,153.5272 372.9127,208.571 376.3359,185.974 386.6056,188.8711 390.0289,213.7856 393.4521,225.9532 396.8754,198.1416 400.2986,202.1975 410.5683,179.0211 413.9916,181.3388 417.4148,179.6005 420.838,151.2095 424.2613,173.2271 434.531,154.1066 437.9542,144.2566 441.3775,132.6685 444.8007,145.4155 448.224,134.4067 458.4937,116.445 461.9169,117.0244 465.3401,140.7802 482.4563,157.0036 485.8796,154.686 489.3028,134.4067 492.7261,136.3622 506.419,211.468 509.8423,235.2238 513.2655,250.8678 516.6887,236.962 520.112,215.9584 533.8049,192.9269 537.2282,195.2446 540.6514,217.2621 544.0747,247.3913 554.3444,255.9086 557.7676,275.7823 561.1908,267.0912 564.6141,285.0529 568.0373,285.6323 578.307,272.3059 585.1535,279.8382 588.5768,259.5589 592,247.9707" style="fill:none;stroke:rgb(31,119,180);stroke-width:2;stroke-linejoin:bevel" />
  <text dominant-baseline="hanging" text-anchor="middle" transform="translate(313.006,8)" font-family="Segoe UI" font-size="18" font-weight="700" fill="black">7-Tage-Inzidenz Stadt Aachen 29.01.2021</text>
  <polygon points="34.012,29.0795 592,29.0795 592,370.947 34.012,370.947" style="fill:none;stroke:black;stroke-width:1" />
  <polygon points="42.012,37.0795 247.014,37.0795 247.014,63.1325 42.012,63.1325" style="fill:none;stroke:none;" />
  <text dominant-baseline="hanging" text-anchor="start" transform="translate(70.012,45.0795)" font-family="Segoe UI" font-size="12" font-weight="400" fill="black">7-Tage-Inzidenz Stadt Aachen 29.01.2021</text>
  <polyline points="50.012,50.106 66.012,50.106" style="fill:none;stroke:rgb(31,119,180);stroke-width:2" />
</svg>