<?xml version="1.0" encoding="utf-8" standalone="no"?>
<!DOCTYPE svg PUBLIC "-//W3C//DTD SVG 1.1//EN" "http://www.w3.org/Graphics/SVG/1.1/DTD/svg11.dtd">
<svg width="600" height="400" version="1.1" xmlns:xlink="http://www.w3.org/1999/xlink" xmlns="http://www.w3.org/2000/svg">
  <rect x="0" y="0" width="600" height="400" style="fill:rgb(255,255,255);stroke:none;" />
  <polyline points="34.012,362.7539 30.012,362.7539" style="fill:none;stroke:black;stroke-width:1" />
  <polyline points="34.012,348.3289 30.012,348.3289" style="fill:none;stroke:black;stroke-width:1" />
  <polyline points="34.012,333.904 30.012,333.904" style="fill:none;stroke:black;stroke-width:1" />
  <polyline points="34.012,319.479 30.012,319.479" style="fill:none;stroke:black;stroke-width:1" />
  <polyline points="34.012,290.6291 30.012,290.6291" style="fill:none;stroke:black;stroke-width:1" />
  <polyline points="34.012,276.2041 30.012,276.2041" style="fill:none;stroke:black;stroke-width:1" />
  <polyline points="34.012,261.7792 30.012,261.7792" style="fill:none;stroke:black;stroke-width:1" />
  <polyline points="34.012,247.3542 30.012,247.3542" style="fill:none;stroke:black;stroke-width:1" />
  <polyline points="34.012,218.5043 30.012,218.5043" style="fill:none;stroke:black;stroke-width:1" />
  <polyline points="34.012,204.0794 30.012,204.0794" style="fill:none;stroke:black;stroke-width:1" />
  <polyline points="34.012,189.6544 30.012,189.6544" style="fill:none;stroke:black;stroke-width:1" />
  <polyline points="34.012,175.2295 30.012,175.2295" style="fill:none;stroke:black;stroke-width:1" />
  <polyline points="34.012,146.3796 30.012,146.3796" style="fill:none;stroke:black;stroke-width:1" />
  <polyline points="34.012,131.9546 30.012,131.9546" style="fill:none;stroke:black;stroke-width:1" />
  <polyline points="34.012,117.5297 30.012,117.5297" style="fill:none;stroke:black;stroke-width:1" />
  <polyline points="34.012,103.1047 30.012,103.1047" style="fill:none;stroke:black;stroke-width:1" />
  <polyline points="34.012,74.2548 30.012,74.2548" style="fill:none;stroke:black;stroke-width:1" />
  <polyline points="34.012,59.8299 30.012,59.8299" style="fill:none;stroke:black;stroke-width:1" />
  <polyline points="34.012,45.4049 30.012,45.4049" style="fill:none;stroke:black;stroke-width:1" />
  <polyline points="34.012,30.98 30.012,30.98" style="fill:none;stroke:black;stroke-width:1" />
  <text dominant-baseline="middle" text-anchor="end" transform="translate(23.012,305.0541)" font-family="Segoe UI" font-size="12" font-weight="400" fill="black">50</text>
  <text dominant-baseline="middle" text-anchor="end" transform="translate(23.012,232.9293)" font-family="Segoe UI" font-size="12" font-weight="400" fill="black">100</text>
  <text dominant-baseline="middle" text-anchor="end" transform="translate(23.012,160.8045)" font-family="Segoe UI" font-size="12" font-weight="400" fill="black">150</text>
  <text dominant-baseline="middle" text-anchor="end" transform="translate(23.012,88.6798)" font-family="Segoe UI" font-size="12" font-weight="400" fill="black">200</text>
  <polyline points="34.012,305.0541 27.012,305.0541" style="fill:none;stroke:black;stroke-width:1" />
  <polyline points="34.012,232.9293 27.012,232.9293" style="fill:none;stroke:black;stroke-width:1" />
  <polyline points="34.012,160.8045 27.012,160.8045" style="fill:none;stroke:black;stroke-width:1" />
  <polyline points="34.012,88.6798 27.012,88.6798" style="fill:none;stroke:black;stroke-width:1" />
  <text dominant-baseline="hanging" text-anchor="middle" transform="translate(62.9118,381.947)" font-family="Segoe UI" font-size="12" font-weight="400" fill="black">01. September</text>
  <text dominant-baseline="hanging" text-anchor="middle" transform="translate(129.6036,381.947)" font-family="Segoe UI" font-size="12" font-weight="400" fill="black">01. October</text>
  <text dominant-baseline="hanging" text-anchor="middle" transform="translate(198.5184,381.947)" font-family="Segoe UI" font-size="12" font-weight="400" fill="black">01. November</text>
  <text dominant-baseline="hanging" text-anchor="middle" transform="translate(265.2102,381.947)" font-family="Segoe UI" font-size="12" font-weight="400" fill="black">01. December</text>
  <text dominant-baseline="hanging" text-anchor="middle" transform="translate(334.1251,381.947)" font-family="Segoe UI" font-size="12" font-weight="400" fill="black">01. January</text>
  <text dominant-baseline="hanging" text-anchor="middle" transform="translate(403.0399,381.947)" font-family="Segoe UI" font-size="12" font-weight="400" fill="black">01. February</text>
  <text dominant-baseline="hanging" text-anchor="middle" transform="translate(465.2856,381.947)" font-family="Segoe UI" font-size="12" font-weight="400" fill="black">01. March</text>
  <text dominant-baseline="hanging" text-anchor="middle" transform="translate(534.2004,381.947)" font-family="Segoe UI" font-size="12" font-weight="400" fill="black">01. April</text>
  <polyline points="62.9118,370.947 62.9118,377.947" style="fill:none;stroke:black;stroke-width:1" />
  <polyline points="129.6036,370.947 129.6036,377.947" style="fill:none;stroke:black;stroke-width:1" />
  <polyline points="198.5184,370.947 198.5184,377.947" style="fill:none;stroke:black;stroke-width:1" />
  <polyline points="265.2102,370.947 265.2102,377.947" style="fill:none;stroke:black;stroke-width:1" />
  <polyline points="334.1251,370.947 334.1251,377.947" style="fill:none;stroke:black;stroke-width:1" />
  <polyline points="403.0399,370.947 403.0399,377.947" style="fill:none;stroke:black;stroke-width:1" />
  <polyline points="465.2856,370.947 465.2856,377.947" style="fill:none;stroke:black;stroke-width:1" />
  <polyline points="534.2004,370.947 534.2004,377.947" style="fill:none;stroke:black;stroke-width:1" />
  <polyline points="34.012,356.8142 36.2351,356.3899 38.4581,362.471 45.1273,358.5112 47.3504,362.471 49.5734,363.0367 51.7965,363.6024 54.0195,362.471 60.6887,366.9965 62.9118,365.2994 65.1348,365.8651 67.3579,365.2994 69.581,365.2994 76.2501,365.8651 78.4732,367.5622 80.6963,365.8651 82.9193,365.2994 85.1424,363.0367 91.8116,356.8142 94.0346,352.2887 96.2577,347.1975 98.4807,346.6319 100.7038,342.1064 107.373,347.7632 109.596,348.3289 111.8191,352.2887 114.0422,350.5916 116.2652,351.723 122.9344,335.8838 125.1575,336.4495 127.3805,335.3182 129.6036,325.1358 131.8266,319.479 138.4958,312.6908 140.7189,313.8222 142.9419,305.9026 145.165,304.7528 147.388,307.6498 154.0572,292.5852 156.2803,290.847 158.5033,285.6323 160.7264,275.2029 162.9495,253.1854 169.6186,230.5885 171.8417,225.9532 174.0648,221.8974 176.2878,202.7769 178.5109,202.1975 185.1801,137.3037 187.4031,132.0891 189.6262,129.192 191.8492,131.5096 194.0723,98.4834 200.7415,118.1833 202.9645,107.7539 205.1876,108.9127 207.4107,101.3804 209.6337,119.3421 216.3029,90.9511 218.526,84.5776 220.749,58.5042 225.1951,32.4308 231.8643,61.4012 234.0874,75.8864 236.3104,84.5776 238.5335,65.3847 240.7566,120.5009 247.4257,167.433 249.6488,150.6301 251.8719,153.5272 254.0949,208.571 256.318,185.974 262.9872,188.8711 265.2102,213.7856 267.4333,225.9532 269.6563,198.1416 271.8794,202.1975 278.5486,179.0211 280.7716,181.3388 282.9947,179.6005 285.2178,151.2095 287.4408,173.2271 294.11,154.1066 296.3331,144.2566 298.5561,132.6685 300.7792,145.4155 303.0022,134.4067 309.6714,116.445 311.8945,117.0244 314.1175,140.7802 325.2328,157.0036 327.4559,154.686 329.6789,134.4067 331.902,136.3622 340.7942,211.468 343.0173,235.2238 345.2404,250.8678 347.4634,236.962 349.6865,215.9584 358.5787,192.9269 360.8018,195.2446 363.0248,217.2621 365.2479,247.3913 371.9171,255.9086 374.1401,275.7823 376.3632,267.0912 378.5863,285.0529 380.8093,285.6323 387.4785,272.3059 391.9246,279.8382 394.1477,259.5589 396.3707,247.9707 403.0399,264.1942 405.263,278.3173 407.486,272.3059 409.7091,279.8382 411.9322,290.847 418.6013,293.744 420.8244,290.847 423.0475,275.2029 425.2705,276.3617 427.4936,269.4088 434.1628,283.8941 436.3858,285.6323 438.6089,306.491 440.8319,313.4439 443.055,329.6673 449.7242,329.6673 451.9472,330.8261 454.1703,321.5556 456.3934,322.135 458.6164,317.4997 465.2856,329.0879 467.5087,327.9291 469.7317,323.8732 471.9548,300.6969 474.1778,294.9028 480.847,265.353 483.0701,265.353 485.2931,263.6148 487.5162,278.6794 489.7393,272.3059 496.4084,261.8765 498.6315,262.4559 500.8545,254.9236 503.0776,226.5326 505.3007,208.571 511.9698,200.4592 514.1929,199.8798 516.416,204.5151 518.639,192.9269 520.8621,205.6739 527.5313,224.215 529.7543,220.7385 531.9774,227.6914 534.2004,243.9149 536.4235,218.4209 545.3157,205.0945 547.5388,220.1591 549.7619,201.6181 551.9849,235.2238 558.6541,225.8953 560.8772,216.1033 563.1002,168.0124 565.3233,188.8711 567.5463,184.8152 574.2155,176.1241 576.4386,157.0036 578.6616,162.2183 580.8847,148.3125 583.1078,123.9773 589.7769,104.8569 592,121.0803" style="fill:none;stroke:rgb(31,119,180);stroke-width:2;stroke-linejoin:bevel" />
  <text dominant-baseline="hanging" text-anchor="middle" transform="translate(313.006,8)" font-family="Segoe UI" font-size="18" font-weight="700" fill="black">7-Tage-Inzidenz Stadt Aachen 27.04.2021</text>
  <polygon points="34.012,29.0795 592,29.0795 592,370.947 34.012,370.947" style="fill:none;stroke:black;stroke-width:1" />
  <polygon points="42.012,37.0795 247.014,37.0795 247.014,63.1325 42.012,63.1325" style="fill:none;stroke:none;" />
  <text dominant-baseline="hanging" text-anchor="start" transform="translate(70.012,45.0795)" font-family="Segoe UI" font-size="12" font-weight="400" fill="black">7-Tage-Inzidenz Stadt Aachen 27.04.2021</text>
  <polyline points="50.012,50.106 66.012,50.106" style="fill:none;stroke:rgb(31,119,180);stroke-width:2" />
</svg>