<?xml version="1.0" encoding="utf-8" standalone="no"?>
<!DOCTYPE svg PUBLIC "-//W3C//DTD SVG 1.1//EN" "http://www.w3.org/Graphics/SVG/1.1/DTD/svg11.dtd">
<svg width="600" height="400" version="1.1" xmlns:xlink="http://www.w3.org/1999/xlink" xmlns="http://www.w3.org/2000/svg">
  <rect x="0" y="0" width="600" height="400" style="fill:rgb(255,255,255);stroke:none;" />
  <polyline points="34.012,362.7539 30.012,362.7539" style="fill:none;stroke:black;stroke-width:1" />
  <polyline points="34.012,348.3289 30.012,348.3289" style="fill:none;stroke:black;stroke-width:1" />
  <polyline points="34.012,333.904 30.012,333.904" style="fill:none;stroke:black;stroke-width:1" />
  <polyline points="34.012,319.479 30.012,319.479" style="fill:none;stroke:black;stroke-width:1" />
  <polyline points="34.012,290.6291 30.012,290.6291" style="fill:none;stroke:black;stroke-width:1" />
  <polyline points="34.012,276.2041 30.012,276.2041" style="fill:none;stroke:black;stroke-width:1" />
  <polyline points="34.012,261.7792 30.012,261.7792" style="fill:none;stroke:black;stroke-width:1" />
  <polyline points="34.012,247.3542 30.012,247.3542" style="fill:none;stroke:black;stroke-width:1" />
  <polyline points="34.012,218.5043 30.012,218.5043" style="fill:none;stroke:black;stroke-width:1" />
  <polyline points="34.012,204.0794 30.012,204.0794" style="fill:none;stroke:black;stroke-width:1" />
  <polyline points="34.012,189.6544 30.012,189.6544" style="fill:none;stroke:black;stroke-width:1" />
  <polyline points="34.012,175.2295 30.012,175.2295" style="fill:none;stroke:black;stroke-width:1" />
  <polyline points="34.012,146.3796 30.012,146.3796" style="fill:none;stroke:black;stroke-width:1" />
  <polyline points="34.012,131.9546 30.012,131.9546" style="fill:none;stroke:black;stroke-width:1" />
  <polyline points="34.012,117.5297 30.012,117.5297" style="fill:none;stroke:black;stroke-width:1" />
  <polyline points="34.012,103.1047 30.012,103.1047" style="fill:none;stroke:black;stroke-width:1" />
  <polyline points="34.012,74.2548 30.012,74.2548" style="fill:none;stroke:black;stroke-width:1" />
  <polyline points="34.012,59.8299 30.012,59.8299" style="fill:none;stroke:black;stroke-width:1" />
  <polyline points="34.012,45.4049 30.012,45.4049" style="fill:none;stroke:black;stroke-width:1" />
  <polyline points="34.012,30.98 30.012,30.98" style="fill:none;stroke:black;stroke-width:1" />
  <text dominant-baseline="middle" text-anchor="end" transform="translate(23.012,305.0541)" font-family="Segoe UI" font-size="12" font-weight="400" fill="black">50</text>
  <text dominant-baseline="middle" text-anchor="end" transform="translate(23.012,232.9293)" font-family="Segoe UI" font-size="12" font-weight="400" fill="black">100</text>
  <text dominant-baseline="middle" text-anchor="end" transform="translate(23.012,160.8045)" font-family="Segoe UI" font-size="12" font-weight="400" fill="black">150</text>
  <text dominant-baseline="middle" text-anchor="end" transform="translate(23.012,88.6798)" font-family="Segoe UI" font-size="12" font-weight="400" fill="black">200</text>
  <polyline points="34.012,305.0541 27.012,305.0541" style="fill:none;stroke:black;stroke-width:1" />
  <polyline points="34.012,232.9293 27.012,232.9293" style="fill:none;stroke:black;stroke-width:1" />
  <polyline points="34.012,160.8045 27.012,160.8045" style="fill:none;stroke:black;stroke-width:1" />
  <polyline points="34.012,88.6798 27.012,88.6798" style="fill:none;stroke:black;stroke-width:1" />
  <text dominant-baseline="hanging" text-anchor="middle" transform="translate(63.0274,381.947)" font-family="Segoe UI" font-size="12" font-weight="400" fill="black">01. September</text>
  <text dominant-baseline="hanging" text-anchor="middle" transform="translate(129.9859,381.947)" font-family="Segoe UI" font-size="12" font-weight="400" fill="black">01. October</text>
  <text dominant-baseline="hanging" text-anchor="middle" transform="translate(199.1764,381.947)" font-family="Segoe UI" font-size="12" font-weight="400" fill="black">01. November</text>
  <text dominant-baseline="hanging" text-anchor="middle" transform="translate(266.135,381.947)" font-family="Segoe UI" font-size="12" font-weight="400" fill="black">01. December</text>
  <text dominant-baseline="hanging" text-anchor="middle" transform="translate(335.3255,381.947)" font-family="Segoe UI" font-size="12" font-weight="400" fill="black">01. January</text>
  <text dominant-baseline="hanging" text-anchor="middle" transform="translate(404.516,381.947)" font-family="Segoe UI" font-size="12" font-weight="400" fill="black">01. February</text>
  <text dominant-baseline="hanging" text-anchor="middle" transform="translate(467.0107,381.947)" font-family="Segoe UI" font-size="12" font-weight="400" fill="black">01. March</text>
  <text dominant-baseline="hanging" text-anchor="middle" transform="translate(536.2012,381.947)" font-family="Segoe UI" font-size="12" font-weight="400" fill="black">01. April</text>
  <polyline points="63.0274,370.947 63.0274,377.947" style="fill:none;stroke:black;stroke-width:1" />
  <polyline points="129.9859,370.947 129.9859,377.947" style="fill:none;stroke:black;stroke-width:1" />
  <polyline points="199.1764,370.947 199.1764,377.947" style="fill:none;stroke:black;stroke-width:1" />
  <polyline points="266.135,370.947 266.135,377.947" style="fill:none;stroke:black;stroke-width:1" />
  <polyline points="335.3255,370.947 335.3255,377.947" style="fill:none;stroke:black;stroke-width:1" />
  <polyline points="404.516,370.947 404.516,377.947" style="fill:none;stroke:black;stroke-width:1" />
  <polyline points="467.0107,370.947 467.0107,377.947" style="fill:none;stroke:black;stroke-width:1" />
  <polyline points="536.2012,370.947 536.2012,377.947" style="fill:none;stroke:black;stroke-width:1" />
  <polyline points="34.012,356.8142 36.244,356.3899 38.4759,362.471 45.1718,358.5112 47.4037,362.471 49.6357,363.0367 51.8676,363.6024 54.0996,362.471 60.7954,366.9965 63.0274,365.2994 65.2593,365.8651 67.4913,365.2994 69.7232,365.2994 76.4191,365.8651 78.651,367.5622 80.883,365.8651 83.1149,365.2994 85.3469,363.0367 92.0428,356.8142 94.2747,352.2887 96.5067,347.1975 98.7386,346.6319 100.9706,342.1064 107.6664,347.7632 109.8984,348.3289 112.1303,352.2887 114.3623,350.5916 116.5942,351.723 123.2901,335.8838 125.522,336.4495 127.754,335.3182 129.9859,325.1358 132.2179,319.479 138.9137,312.6908 141.1457,313.8222 143.3776,305.9026 145.6096,304.7528 147.8416,307.6498 154.5374,292.5852 156.7694,290.847 159.0013,285.6323 161.2333,275.2029 163.4652,253.1854 170.1611,230.5885 172.393,225.9532 174.625,221.8974 176.8569,202.7769 179.0889,202.1975 185.7847,137.3037 188.0167,132.0891 190.2486,129.192 192.4806,131.5096 194.7125,98.4834 201.4084,118.1833 203.6404,107.7539 205.8723,108.9127 208.1043,101.3804 210.3362,119.3421 217.0321,90.9511 219.264,84.5776 221.496,58.5042 225.9599,32.4308 232.6557,61.4012 234.8877,75.8864 237.1196,84.5776 239.3516,65.3847 241.5835,120.5009 248.2794,167.433 250.5113,150.6301 252.7433,153.5272 254.9752,208.571 257.2072,185.974 263.9031,188.8711 266.135,213.7856 268.367,225.9532 270.5989,198.1416 272.8309,202.1975 279.5267,179.0211 281.7587,181.3388 283.9906,179.6005 286.2226,151.2095 288.4545,173.2271 295.1504,154.1066 297.3823,144.2566 299.6143,132.6685 301.8462,145.4155 304.0782,134.4067 310.774,116.445 313.006,117.0244 315.238,140.7802 326.3977,157.0036 328.6297,154.686 330.8616,134.4067 333.0936,136.3622 342.0214,211.468 344.2533,235.2238 346.4853,250.8678 348.7172,236.962 350.9492,215.9584 359.877,192.9269 362.1089,195.2446 364.3409,217.2621 366.5728,247.3913 373.2687,255.9086 375.5007,275.7823 377.7326,267.0912 379.9646,285.0529 382.1965,285.6323 388.8924,272.3059 393.3563,279.8382 395.5882,259.5589 397.8202,247.9707 404.516,264.1942 406.748,278.3173 408.9799,272.3059 411.2119,279.8382 413.4438,290.847 420.1397,293.744 422.3716,290.847 424.6036,275.2029 426.8356,276.3617 429.0675,269.4088 435.7634,283.8941 437.9953,285.6323 440.2273,306.491 442.4592,313.4439 444.6912,329.6673 451.387,329.6673 453.619,330.8261 455.8509,321.5556 458.0829,322.135 460.3148,317.4997 467.0107,329.0879 469.2426,327.9291 471.4746,323.8732 473.7065,300.6969 475.9385,294.9028 482.6344,265.353 484.8663,265.353 487.0983,263.6148 489.3302,278.6794 491.5622,272.3059 498.258,261.8765 500.49,262.4559 502.7219,254.9236 504.9539,226.5326 507.1858,208.571 513.8817,200.4592 516.1136,199.8798 518.3456,204.5151 520.5775,192.9269 522.8095,205.6739 529.5053,224.215 531.7373,220.7385 533.9692,227.6914 536.2012,243.9149 538.4332,218.4209 547.361,205.0945 549.5929,220.1591 551.8249,201.6181 554.0568,235.2238 560.7527,225.8953 562.9846,216.1033 565.2166,168.0124 567.4485,188.8711 569.6805,184.8152 576.3763,176.1241 578.6083,157.0036 580.8402,162.2183 583.0722,148.3125 585.3041,123.9773 592,104.8569" style="fill:none;stroke:rgb(31,119,180);stroke-width:2;stroke-linejoin:bevel" />
  <text dominant-baseline="hanging" text-anchor="middle" transform="translate(313.006,8)" font-family="Segoe UI" font-size="18" font-weight="700" fill="black">7-Tage-Inzidenz Stadt Aachen 26.04.2021</text>
  <polygon points="34.012,29.0795 592,29.0795 592,370.947 34.012,370.947" style="fill:none;stroke:black;stroke-width:1" />
  <polygon points="42.012,37.0795 247.014,37.0795 247.014,63.1325 42.012,63.1325" style="fill:none;stroke:none;" />
  <text dominant-baseline="hanging" text-anchor="start" transform="translate(70.012,45.0795)" font-family="Segoe UI" font-size="12" font-weight="400" fill="black">7-Tage-Inzidenz Stadt Aachen 26.04.2021</text>
  <polyline points="50.012,50.106 66.012,50.106" style="fill:none;stroke:rgb(31,119,180);stroke-width:2" />
</svg>