<?xml version="1.0" encoding="utf-8" standalone="no"?>
<!DOCTYPE svg PUBLIC "-//W3C//DTD SVG 1.1//EN" "http://www.w3.org/Graphics/SVG/1.1/DTD/svg11.dtd">
<svg width="600" height="400" version="1.1" xmlns:xlink="http://www.w3.org/1999/xlink" xmlns="http://www.w3.org/2000/svg">
  <rect x="0" y="0" width="600" height="400" style="fill:rgb(255,255,255);stroke:none;" />
  <polyline points="34.012,362.7539 30.012,362.7539" style="fill:none;stroke:black;stroke-width:1" />
  <polyline points="34.012,348.3289 30.012,348.3289" style="fill:none;stroke:black;stroke-width:1" />
  <polyline points="34.012,333.904 30.012,333.904" style="fill:none;stroke:black;stroke-width:1" />
  <polyline points="34.012,319.479 30.012,319.479" style="fill:none;stroke:black;stroke-width:1" />
  <polyline points="34.012,290.6291 30.012,290.6291" style="fill:none;stroke:black;stroke-width:1" />
  <polyline points="34.012,276.2041 30.012,276.2041" style="fill:none;stroke:black;stroke-width:1" />
  <polyline points="34.012,261.7792 30.012,261.7792" style="fill:none;stroke:black;stroke-width:1" />
  <polyline points="34.012,247.3542 30.012,247.3542" style="fill:none;stroke:black;stroke-width:1" />
  <polyline points="34.012,218.5043 30.012,218.5043" style="fill:none;stroke:black;stroke-width:1" />
  <polyline points="34.012,204.0794 30.012,204.0794" style="fill:none;stroke:black;stroke-width:1" />
  <polyline points="34.012,189.6544 30.012,189.6544" style="fill:none;stroke:black;stroke-width:1" />
  <polyline points="34.012,175.2295 30.012,175.2295" style="fill:none;stroke:black;stroke-width:1" />
  <polyline points="34.012,146.3796 30.012,146.3796" style="fill:none;stroke:black;stroke-width:1" />
  <polyline points="34.012,131.9546 30.012,131.9546" style="fill:none;stroke:black;stroke-width:1" />
  <polyline points="34.012,117.5297 30.012,117.5297" style="fill:none;stroke:black;stroke-width:1" />
  <polyline points="34.012,103.1047 30.012,103.1047" style="fill:none;stroke:black;stroke-width:1" />
  <polyline points="34.012,74.2548 30.012,74.2548" style="fill:none;stroke:black;stroke-width:1" />
  <polyline points="34.012,59.8299 30.012,59.8299" style="fill:none;stroke:black;stroke-width:1" />
  <polyline points="34.012,45.4049 30.012,45.4049" style="fill:none;stroke:black;stroke-width:1" />
  <polyline points="34.012,30.98 30.012,30.98" style="fill:none;stroke:black;stroke-width:1" />
  <text dominant-baseline="middle" text-anchor="end" transform="translate(23.012,305.0541)" font-family="Segoe UI" font-size="12" font-weight="400" fill="black">50</text>
  <text dominant-baseline="middle" text-anchor="end" transform="translate(23.012,232.9293)" font-family="Segoe UI" font-size="12" font-weight="400" fill="black">100</text>
  <text dominant-baseline="middle" text-anchor="end" transform="translate(23.012,160.8045)" font-family="Segoe UI" font-size="12" font-weight="400" fill="black">150</text>
  <text dominant-baseline="middle" text-anchor="end" transform="translate(23.012,88.6798)" font-family="Segoe UI" font-size="12" font-weight="400" fill="black">200</text>
  <polyline points="34.012,305.0541 27.012,305.0541" style="fill:none;stroke:black;stroke-width:1" />
  <polyline points="34.012,232.9293 27.012,232.9293" style="fill:none;stroke:black;stroke-width:1" />
  <polyline points="34.012,160.8045 27.012,160.8045" style="fill:none;stroke:black;stroke-width:1" />
  <polyline points="34.012,88.6798 27.012,88.6798" style="fill:none;stroke:black;stroke-width:1" />
  <text dominant-baseline="hanging" text-anchor="middle" transform="translate(68.7194,381.947)" font-family="Segoe UI" font-size="12" font-weight="400" fill="black">01. September</text>
  <text dominant-baseline="hanging" text-anchor="middle" transform="translate(148.8134,381.947)" font-family="Segoe UI" font-size="12" font-weight="400" fill="black">01. October</text>
  <text dominant-baseline="hanging" text-anchor="middle" transform="translate(231.5771,381.947)" font-family="Segoe UI" font-size="12" font-weight="400" fill="black">01. November</text>
  <text dominant-baseline="hanging" text-anchor="middle" transform="translate(311.6711,381.947)" font-family="Segoe UI" font-size="12" font-weight="400" fill="black">01. December</text>
  <text dominant-baseline="hanging" text-anchor="middle" transform="translate(394.4349,381.947)" font-family="Segoe UI" font-size="12" font-weight="400" fill="black">01. January</text>
  <text dominant-baseline="hanging" text-anchor="middle" transform="translate(477.1986,381.947)" font-family="Segoe UI" font-size="12" font-weight="400" fill="black">01. February</text>
  <text dominant-baseline="hanging" text-anchor="middle" transform="translate(551.953,381.947)" font-family="Segoe UI" font-size="12" font-weight="400" fill="black">01. March</text>
  <polyline points="68.7194,370.947 68.7194,377.947" style="fill:none;stroke:black;stroke-width:1" />
  <polyline points="148.8134,370.947 148.8134,377.947" style="fill:none;stroke:black;stroke-width:1" />
  <polyline points="231.5771,370.947 231.5771,377.947" style="fill:none;stroke:black;stroke-width:1" />
  <polyline points="311.6711,370.947 311.6711,377.947" style="fill:none;stroke:black;stroke-width:1" />
  <polyline points="394.4349,370.947 394.4349,377.947" style="fill:none;stroke:black;stroke-width:1" />
  <polyline points="477.1986,370.947 477.1986,377.947" style="fill:none;stroke:black;stroke-width:1" />
  <polyline points="551.953,370.947 551.953,377.947" style="fill:none;stroke:black;stroke-width:1" />
  <polyline points="34.012,356.8142 36.6818,356.3899 39.3516,362.471 47.361,358.5112 50.0308,362.471 52.7006,363.0367 55.3704,363.6024 58.0402,362.471 66.0496,366.9965 68.7194,365.2994 71.3892,365.8651 74.059,365.2994 76.7288,365.2994 84.7382,365.8651 87.408,367.5622 90.0778,365.8651 92.7476,365.2994 95.4174,363.0367 103.4268,356.8142 106.0966,352.2887 108.7664,347.1975 111.4362,346.6319 114.106,342.1064 122.1154,347.7632 124.7852,348.3289 127.455,352.2887 130.1248,350.5916 132.7946,351.723 140.804,335.8838 143.4738,336.4495 146.1436,335.3182 148.8134,325.1358 151.4832,319.479 159.4926,312.6908 162.1624,313.8222 164.8322,305.9026 167.502,304.7528 170.1718,307.6498 178.1811,292.5852 180.8509,290.847 183.5207,285.6323 186.1905,275.2029 188.8603,253.1854 196.8697,230.5885 199.5395,225.9532 202.2093,221.8974 204.8791,202.7769 207.5489,202.1975 215.5583,137.3037 218.2281,132.0891 220.8979,129.192 223.5677,131.5096 226.2375,98.4834 234.2469,118.1833 236.9167,107.7539 239.5865,108.9127 242.2563,101.3804 244.9261,119.3421 252.9355,90.9511 255.6053,84.5776 258.2751,58.5042 263.6147,32.4308 271.6241,61.4012 274.2939,75.8864 276.9637,84.5776 279.6335,65.3847 282.3033,120.5009 290.3127,167.433 292.9825,150.6301 295.6523,153.5272 298.3221,208.571 300.9919,185.974 309.0013,188.8711 311.6711,213.7856 314.3409,225.9532 317.0107,198.1416 319.6805,202.1975 327.6899,179.0211 330.3597,181.3388 333.0295,179.6005 335.6993,151.2095 338.3691,173.2271 346.3785,154.1066 349.0483,144.2566 351.7181,132.6685 354.3879,145.4155 357.0577,134.4067 365.0671,116.445 367.7369,117.0244 370.4067,140.7802 383.7557,157.0036 386.4255,154.686 389.0953,134.4067 391.7651,136.3622 402.4443,211.468 405.1141,235.2238 407.7839,250.8678 410.4537,236.962 413.1235,215.9584 423.8027,192.9269 426.4725,195.2446 429.1423,217.2621 431.8121,247.3913 439.8215,255.9086 442.4913,275.7823 445.1611,267.0912 447.8309,285.0529 450.5007,285.6323 458.51,272.3059 463.8496,279.8382 466.5194,259.5589 469.1892,247.9707 477.1986,264.1942 479.8684,278.3173 482.5382,272.3059 485.208,279.8382 487.8778,290.847 495.8872,293.744 498.557,290.847 501.2268,275.2029 503.8966,276.3617 506.5664,269.4088 514.5758,283.8941 517.2456,285.6323 519.9154,306.491 522.5852,313.4439 525.255,329.6673 533.2644,329.6673 535.9342,330.8261 538.604,321.5556 541.2738,322.135 543.9436,317.4997 551.953,329.0879 554.6228,327.9291 557.2926,323.8732 559.9624,300.6969 562.6322,294.9028 570.6416,265.353 573.3114,265.353 575.9812,263.6148 578.651,278.6794 581.3208,272.3059 589.3302,261.8765 592,262.4559" style="fill:none;stroke:rgb(31,119,180);stroke-width:2;stroke-linejoin:bevel" />
  <text dominant-baseline="hanging" text-anchor="middle" transform="translate(313.006,8)" font-family="Segoe UI" font-size="18" font-weight="700" fill="black">7-Tage-Inzidenz Stadt Aachen 16.03.2021</text>
  <polygon points="34.012,29.0795 592,29.0795 592,370.947 34.012,370.947" style="fill:none;stroke:black;stroke-width:1" />
  <polygon points="42.012,37.0795 247.014,37.0795 247.014,63.1325 42.012,63.1325" style="fill:none;stroke:none;" />
  <text dominant-baseline="hanging" text-anchor="start" transform="translate(70.012,45.0795)" font-family="Segoe UI" font-size="12" font-weight="400" fill="black">7-Tage-Inzidenz Stadt Aachen 16.03.2021</text>
  <polyline points="50.012,50.106 66.012,50.106" style="fill:none;stroke:rgb(31,119,180);stroke-width:2" />
</svg>