<?xml version="1.0" encoding="utf-8" standalone="no"?>
<!DOCTYPE svg PUBLIC "-//W3C//DTD SVG 1.1//EN" "http://www.w3.org/Graphics/SVG/1.1/DTD/svg11.dtd">
<svg width="600" height="400" version="1.1" xmlns:xlink="http://www.w3.org/1999/xlink" xmlns="http://www.w3.org/2000/svg">
  <rect x="0" y="0" width="600" height="400" style="fill:rgb(255,255,255);stroke:none;" />
  <polyline points="34.012,353.4851 30.012,353.4851" style="fill:none;stroke:black;stroke-width:1" />
  <polyline points="34.012,339.4649 30.012,339.4649" style="fill:none;stroke:black;stroke-width:1" />
  <polyline points="34.012,325.4447 30.012,325.4447" style="fill:none;stroke:black;stroke-width:1" />
  <polyline points="34.012,311.4245 30.012,311.4245" style="fill:none;stroke:black;stroke-width:1" />
  <polyline points="34.012,283.3841 30.012,283.3841" style="fill:none;stroke:black;stroke-width:1" />
  <polyline points="34.012,269.3639 30.012,269.3639" style="fill:none;stroke:black;stroke-width:1" />
  <polyline points="34.012,255.3438 30.012,255.3438" style="fill:none;stroke:black;stroke-width:1" />
  <polyline points="34.012,241.3236 30.012,241.3236" style="fill:none;stroke:black;stroke-width:1" />
  <polyline points="34.012,213.2832 30.012,213.2832" style="fill:none;stroke:black;stroke-width:1" />
  <polyline points="34.012,199.263 30.012,199.263" style="fill:none;stroke:black;stroke-width:1" />
  <polyline points="34.012,185.2428 30.012,185.2428" style="fill:none;stroke:black;stroke-width:1" />
  <polyline points="34.012,171.2226 30.012,171.2226" style="fill:none;stroke:black;stroke-width:1" />
  <polyline points="34.012,143.1822 30.012,143.1822" style="fill:none;stroke:black;stroke-width:1" />
  <polyline points="34.012,129.162 30.012,129.162" style="fill:none;stroke:black;stroke-width:1" />
  <polyline points="34.012,115.1418 30.012,115.1418" style="fill:none;stroke:black;stroke-width:1" />
  <polyline points="34.012,101.1216 30.012,101.1216" style="fill:none;stroke:black;stroke-width:1" />
  <polyline points="34.012,73.0813 30.012,73.0813" style="fill:none;stroke:black;stroke-width:1" />
  <polyline points="34.012,59.0611 30.012,59.0611" style="fill:none;stroke:black;stroke-width:1" />
  <polyline points="34.012,45.0409 30.012,45.0409" style="fill:none;stroke:black;stroke-width:1" />
  <polyline points="34.012,31.0207 30.012,31.0207" style="fill:none;stroke:black;stroke-width:1" />
  <text dominant-baseline="middle" text-anchor="end" transform="translate(23.012,367.5053)" font-family="Segoe UI" font-size="12" font-weight="400" fill="black">0</text>
  <text dominant-baseline="middle" text-anchor="end" transform="translate(23.012,297.4043)" font-family="Segoe UI" font-size="12" font-weight="400" fill="black">50</text>
  <text dominant-baseline="middle" text-anchor="end" transform="translate(23.012,227.3034)" font-family="Segoe UI" font-size="12" font-weight="400" fill="black">100</text>
  <text dominant-baseline="middle" text-anchor="end" transform="translate(23.012,157.2024)" font-family="Segoe UI" font-size="12" font-weight="400" fill="black">150</text>
  <text dominant-baseline="middle" text-anchor="end" transform="translate(23.012,87.1015)" font-family="Segoe UI" font-size="12" font-weight="400" fill="black">200</text>
  <polyline points="34.012,367.5053 27.012,367.5053" style="fill:none;stroke:black;stroke-width:1" />
  <polyline points="34.012,297.4043 27.012,297.4043" style="fill:none;stroke:black;stroke-width:1" />
  <polyline points="34.012,227.3034 27.012,227.3034" style="fill:none;stroke:black;stroke-width:1" />
  <polyline points="34.012,157.2024 27.012,157.2024" style="fill:none;stroke:black;stroke-width:1" />
  <polyline points="34.012,87.1015 27.012,87.1015" style="fill:none;stroke:black;stroke-width:1" />
  <text dominant-baseline="hanging" text-anchor="middle" transform="translate(225.8626,381.947)" font-family="Segoe UI" font-size="12" font-weight="400" fill="black">01. January</text>
  <polyline points="225.8626,370.947 225.8626,377.947" style="fill:none;stroke:black;stroke-width:1" />
  <polyline points="34.012,367.5622 36.7141,367.5621 40.7673,367.5621 42.1184,367.562 43.4694,347.7121 44.8205,347.2997 46.1715,353.2102 50.2247,349.3615 51.5758,353.2102 52.9268,353.76 54.2779,354.3098 55.629,353.2102 59.6822,357.6087 61.0332,355.9593 62.3843,356.5091 63.7353,355.9593 65.0864,355.9593 69.1396,356.5091 70.4906,358.1585 71.8417,356.5091 73.1928,355.9593 74.5438,353.76 78.597,347.7121 79.9481,343.3136 81.2991,338.3653 82.6502,337.8155 84.0012,333.417 88.0544,338.9151 89.4055,339.4649 90.7565,343.3136 92.1076,341.6642 93.4587,342.7638 97.5118,327.3691 98.8629,327.9189 100.214,326.8192 101.565,316.9226 102.9161,311.4245 106.9693,304.8268 108.3203,305.9264 109.6714,298.229 111.0225,297.1115 112.3735,299.9272 116.4267,285.2853 117.7778,283.5959 119.1288,278.5275 120.4799,268.3908 121.8309,246.9911 125.8841,225.0282 127.2352,220.523 128.5862,216.581 129.9373,197.997 131.2884,197.4339 135.3415,134.361 136.6926,129.2927 138.0437,126.4769 139.3947,128.7295 140.7458,96.63 144.799,115.7771 146.15,105.6404 147.5011,106.7667 148.8521,99.4457 150.2032,116.9034 154.2564,89.309 155.6074,83.1143 156.9585,57.7726 159.6606,32.4308 163.7138,60.5883 165.0649,74.6671 166.4159,83.1143 167.767,64.46 169.1181,118.0297 173.1712,163.6449 174.5223,147.3135 175.8734,150.1292 177.2244,203.6285 178.5755,181.6657 182.6287,184.4814 183.9797,208.6969 185.3308,220.523 186.6818,193.4918 188.0329,197.4339 192.0861,174.9079 193.4371,177.1605 194.7882,175.471 196.1393,147.8766 197.4903,169.2764 201.5435,150.6924 202.8946,141.1188 204.2456,129.8558 205.5967,142.2451 206.9477,131.5453 211.0009,114.0876 212.352,114.6508 213.7031,137.7399 220.4584,153.5081 221.8094,151.2555 223.1605,131.5453 224.5115,133.4459 229.9158,206.4443 231.2668,229.5334 232.6179,244.7385 233.969,231.2229 235.32,210.8087 240.7243,188.4235 242.0753,190.6761 243.4264,212.0758 244.7774,241.3596 248.8306,249.6379 250.1817,268.954 251.5327,260.5067 252.8838,277.9644 254.2349,278.5275 258.288,265.5751 260.9902,272.896 262.3412,253.1858 263.6923,241.9228 267.7455,257.691 269.0965,271.4178 270.4476,265.5751 271.7987,272.896 273.1497,283.5959 277.2029,286.4116 278.554,283.5959 279.905,268.3908 281.2561,269.5171 282.6071,262.7593 286.6603,276.8381 288.0114,278.5275 289.3624,298.8009 290.7135,305.5587 292.0646,321.327 296.1177,321.327 297.4688,322.4533 298.8199,313.4429 300.1709,314.006 301.522,309.5008 305.5752,320.7638 306.9262,319.6375 308.2773,315.6955 309.6283,293.1694 310.9794,287.5379 315.0326,258.8173 316.3837,258.8173 317.7347,257.1278 319.0858,271.7697 320.4368,265.5751 324.49,255.4384 325.8411,256.0015 327.1921,248.6806 328.5432,221.0862 329.8943,203.6285 333.9474,195.7444 335.2985,195.1813 336.6496,199.6865 338.0006,188.4235 339.3517,200.8128 343.4049,218.8336 344.7559,215.4547 346.107,222.2125 347.458,237.9807 348.8091,213.2021 354.2133,200.2496 355.5644,214.8915 356.9155,196.8707 358.2665,229.5334 362.3197,220.4667 363.6708,210.9495 365.0218,164.208 366.3729,184.4814 367.724,180.5394 371.7771,172.0921 373.1282,153.5081 374.4793,158.5765 375.8303,145.0609 377.1814,121.4086 381.2346,102.8246 382.5856,118.5928 383.9367,132.6716 385.2877,127.0401 386.6388,129.8558 390.692,155.1976 392.043,143.3714 393.3941,137.1768 394.7452,169.8395 396.0962,189.5498 400.1494,199.1233 401.5005,208.1337 402.8515,220.523 405.5536,188.9866 409.6068,191.8024 410.9579,177.7236 412.3089,172.0921 413.66,176.3157 415.0111,210.9495 420.4153,257.691 421.7664,281.9064 423.1174,291.48 424.4685,294.8589 428.5217,302.4614 429.8727,307.2482 431.2238,306.1219 433.9259,326.3953 437.9791,341.6004 439.3302,346.6687 440.6812,351.1739 442.0323,350.2588 443.3833,355.6791 447.4365,358.4949 448.7876,357.3686 450.1386,357.3686 451.4897,356.2423 452.8408,353.4265 456.8939,353.4265 458.245,352.8634 459.5961,356.2423 460.9471,359.6212 462.2982,361.3106 466.3514,360.7475 467.7024,362.4369 469.0535,359.058 470.4046,355.6791 471.7556,356.8054 475.8088,356.8054 478.5109,357.3686 481.213,359.6212 485.2662,360.7475 487.9683,353.9897 490.6705,343.2898 497.4258,332.0268 500.1279,317.9481 506.8832,316.2586 509.5853,329.7742 516.3406,329.2111 519.0427,323.0164 525.798,294.8589 528.5002,262.7593 535.2555,253.7489 537.9576,268.3908 544.7129,201.3759 547.415,191.8024 554.1703,233.4755 556.8724,222.2125 566.3298,240.2333 575.7873,272.896 582.5426,284.7222 585.2447,290.9168 592,295.422" style="fill:none;stroke:rgb(31,119,180);stroke-width:2;stroke-linejoin:bevel" />
  <text dominant-baseline="hanging" text-anchor="middle" transform="translate(313.006,8)" font-family="Segoe UI" font-size="18" font-weight="700" fill="black">7-Tage-Inzidenz Stadt Aachen 29.09.2021</text>
  <polygon points="34.012,29.0795 592,29.0795 592,370.947 34.012,370.947" style="fill:none;stroke:black;stroke-width:1" />
  <polygon points="42.012,37.0795 247.014,37.0795 247.014,63.1325 42.012,63.1325" style="fill:none;stroke:none;" />
  <text dominant-baseline="hanging" text-anchor="start" transform="translate(70.012,45.0795)" font-family="Segoe UI" font-size="12" font-weight="400" fill="black">7-Tage-Inzidenz Stadt Aachen 29.09.2021</text>
  <polyline points="50.012,50.106 66.012,50.106" style="fill:none;stroke:rgb(31,119,180);stroke-width:2" />
</svg>