<?xml version="1.0" encoding="utf-8" standalone="no"?>
<!DOCTYPE svg PUBLIC "-//W3C//DTD SVG 1.1//EN" "http://www.w3.org/Graphics/SVG/1.1/DTD/svg11.dtd">
<svg width="600" height="400" version="1.1" xmlns:xlink="http://www.w3.org/1999/xlink" xmlns="http://www.w3.org/2000/svg">
  <rect x="0" y="0" width="600" height="400" style="fill:rgb(255,255,255);stroke:none;" />
  <polyline points="34.012,362.7539 30.012,362.7539" style="fill:none;stroke:black;stroke-width:1" />
  <polyline points="34.012,348.3289 30.012,348.3289" style="fill:none;stroke:black;stroke-width:1" />
  <polyline points="34.012,333.904 30.012,333.904" style="fill:none;stroke:black;stroke-width:1" />
  <polyline points="34.012,319.479 30.012,319.479" style="fill:none;stroke:black;stroke-width:1" />
  <polyline points="34.012,290.6291 30.012,290.6291" style="fill:none;stroke:black;stroke-width:1" />
  <polyline points="34.012,276.2041 30.012,276.2041" style="fill:none;stroke:black;stroke-width:1" />
  <polyline points="34.012,261.7792 30.012,261.7792" style="fill:none;stroke:black;stroke-width:1" />
  <polyline points="34.012,247.3542 30.012,247.3542" style="fill:none;stroke:black;stroke-width:1" />
  <polyline points="34.012,218.5043 30.012,218.5043" style="fill:none;stroke:black;stroke-width:1" />
  <polyline points="34.012,204.0794 30.012,204.0794" style="fill:none;stroke:black;stroke-width:1" />
  <polyline points="34.012,189.6544 30.012,189.6544" style="fill:none;stroke:black;stroke-width:1" />
  <polyline points="34.012,175.2295 30.012,175.2295" style="fill:none;stroke:black;stroke-width:1" />
  <polyline points="34.012,146.3796 30.012,146.3796" style="fill:none;stroke:black;stroke-width:1" />
  <polyline points="34.012,131.9546 30.012,131.9546" style="fill:none;stroke:black;stroke-width:1" />
  <polyline points="34.012,117.5297 30.012,117.5297" style="fill:none;stroke:black;stroke-width:1" />
  <polyline points="34.012,103.1047 30.012,103.1047" style="fill:none;stroke:black;stroke-width:1" />
  <polyline points="34.012,74.2548 30.012,74.2548" style="fill:none;stroke:black;stroke-width:1" />
  <polyline points="34.012,59.8299 30.012,59.8299" style="fill:none;stroke:black;stroke-width:1" />
  <polyline points="34.012,45.4049 30.012,45.4049" style="fill:none;stroke:black;stroke-width:1" />
  <polyline points="34.012,30.98 30.012,30.98" style="fill:none;stroke:black;stroke-width:1" />
  <text dominant-baseline="middle" text-anchor="end" transform="translate(23.012,305.0541)" font-family="Segoe UI" font-size="12" font-weight="400" fill="black">50</text>
  <text dominant-baseline="middle" text-anchor="end" transform="translate(23.012,232.9293)" font-family="Segoe UI" font-size="12" font-weight="400" fill="black">100</text>
  <text dominant-baseline="middle" text-anchor="end" transform="translate(23.012,160.8045)" font-family="Segoe UI" font-size="12" font-weight="400" fill="black">150</text>
  <text dominant-baseline="middle" text-anchor="end" transform="translate(23.012,88.6798)" font-family="Segoe UI" font-size="12" font-weight="400" fill="black">200</text>
  <polyline points="34.012,305.0541 27.012,305.0541" style="fill:none;stroke:black;stroke-width:1" />
  <polyline points="34.012,232.9293 27.012,232.9293" style="fill:none;stroke:black;stroke-width:1" />
  <polyline points="34.012,160.8045 27.012,160.8045" style="fill:none;stroke:black;stroke-width:1" />
  <polyline points="34.012,88.6798 27.012,88.6798" style="fill:none;stroke:black;stroke-width:1" />
  <text dominant-baseline="hanging" text-anchor="middle" transform="translate(70.6476,381.947)" font-family="Segoe UI" font-size="12" font-weight="400" fill="black">01. September</text>
  <text dominant-baseline="hanging" text-anchor="middle" transform="translate(155.1912,381.947)" font-family="Segoe UI" font-size="12" font-weight="400" fill="black">01. October</text>
  <text dominant-baseline="hanging" text-anchor="middle" transform="translate(242.553,381.947)" font-family="Segoe UI" font-size="12" font-weight="400" fill="black">01. November</text>
  <text dominant-baseline="hanging" text-anchor="middle" transform="translate(327.0966,381.947)" font-family="Segoe UI" font-size="12" font-weight="400" fill="black">01. December</text>
  <text dominant-baseline="hanging" text-anchor="middle" transform="translate(414.4584,381.947)" font-family="Segoe UI" font-size="12" font-weight="400" fill="black">01. January</text>
  <text dominant-baseline="hanging" text-anchor="middle" transform="translate(501.8201,381.947)" font-family="Segoe UI" font-size="12" font-weight="400" fill="black">01. February</text>
  <text dominant-baseline="hanging" text-anchor="middle" transform="translate(580.7275,381.947)" font-family="Segoe UI" font-size="12" font-weight="400" fill="black">01. March</text>
  <polyline points="70.6476,370.947 70.6476,377.947" style="fill:none;stroke:black;stroke-width:1" />
  <polyline points="155.1912,370.947 155.1912,377.947" style="fill:none;stroke:black;stroke-width:1" />
  <polyline points="242.553,370.947 242.553,377.947" style="fill:none;stroke:black;stroke-width:1" />
  <polyline points="327.0966,370.947 327.0966,377.947" style="fill:none;stroke:black;stroke-width:1" />
  <polyline points="414.4584,370.947 414.4584,377.947" style="fill:none;stroke:black;stroke-width:1" />
  <polyline points="501.8201,370.947 501.8201,377.947" style="fill:none;stroke:black;stroke-width:1" />
  <polyline points="580.7275,370.947 580.7275,377.947" style="fill:none;stroke:black;stroke-width:1" />
  <polyline points="34.012,356.8142 36.8301,356.3899 39.6482,362.471 48.1026,358.5112 50.9207,362.471 53.7388,363.0367 56.557,363.6024 59.3751,362.471 67.8295,366.9965 70.6476,365.2994 73.4657,365.8651 76.2838,365.2994 79.1019,365.2994 87.5563,365.8651 90.3744,367.5622 93.1925,365.8651 96.0107,365.2994 98.8288,363.0367 107.2832,356.8142 110.1013,352.2887 112.9194,347.1975 115.7375,346.6319 118.5556,342.1064 127.01,347.7632 129.8281,348.3289 132.6462,352.2887 135.4644,350.5916 138.2825,351.723 146.7368,335.8838 149.555,336.4495 152.3731,335.3182 155.1912,325.1358 158.0093,319.479 166.4637,312.6908 169.2818,313.8222 172.0999,305.9026 174.9181,304.7528 177.7362,307.6498 186.1905,292.5852 189.0087,290.847 191.8268,285.6323 194.6449,275.2029 197.463,253.1854 205.9174,230.5885 208.7355,225.9532 211.5536,221.8974 214.3718,202.7769 217.1899,202.1975 225.6442,137.3037 228.4624,132.0891 231.2805,129.192 234.0986,131.5096 236.9167,98.4834 245.3711,118.1833 248.1892,107.7539 251.0073,108.9127 253.8255,101.3804 256.6436,119.3421 265.0979,90.9511 267.9161,84.5776 270.7342,58.5042 276.3704,32.4308 284.8248,61.4012 287.6429,75.8864 290.461,84.5776 293.2792,65.3847 296.0973,120.5009 304.5516,167.433 307.3698,150.6301 310.1879,153.5272 313.006,208.571 315.8241,185.974 324.2785,188.8711 327.0966,213.7856 329.9147,225.9532 332.7328,198.1416 335.551,202.1975 344.0053,179.0211 346.8235,181.3388 349.6416,179.6005 352.4597,151.2095 355.2778,173.2271 363.7322,154.1066 366.5503,144.2566 369.3684,132.6685 372.1865,145.4155 375.0047,134.4067 383.459,116.445 386.2772,117.0244 389.0953,140.7802 403.1859,157.0036 406.004,154.686 408.8221,134.4067 411.6402,136.3622 422.9127,211.468 425.7308,235.2238 428.549,250.8678 431.3671,236.962 434.1852,215.9584 445.4577,192.9269 448.2758,195.2446 451.0939,217.2621 453.9121,247.3913 462.3664,255.9086 465.1845,275.7823 468.0027,267.0912 470.8208,285.0529 473.6389,285.6323 482.0933,272.3059 487.7295,279.8382 490.5476,259.5589 493.3658,247.9707 501.8201,264.1942 504.6382,278.3173 507.4564,272.3059 510.2745,279.8382 513.0926,290.847 521.547,293.744 524.3651,290.847 527.1832,275.2029 530.0013,276.3617 532.8195,269.4088 541.2738,283.8941 544.0919,285.6323 546.9101,306.491 549.7282,313.4439 552.5463,329.6673 561.0007,329.6673 563.8188,330.8261 566.6369,321.5556 569.455,322.135 572.2732,317.4997 580.7275,329.0879 583.5456,327.9291 586.3638,323.8732 589.1819,300.6969 592,294.9028" style="fill:none;stroke:rgb(31,119,180);stroke-width:2;stroke-linejoin:bevel" />
  <text dominant-baseline="hanging" text-anchor="middle" transform="translate(313.006,8)" font-family="Segoe UI" font-size="18" font-weight="700" fill="black">7-Tage-Inzidenz Stadt Aachen 05.03.2021</text>
  <polygon points="34.012,29.0795 592,29.0795 592,370.947 34.012,370.947" style="fill:none;stroke:black;stroke-width:1" />
  <polygon points="42.012,37.0795 247.014,37.0795 247.014,63.1325 42.012,63.1325" style="fill:none;stroke:none;" />
  <text dominant-baseline="hanging" text-anchor="start" transform="translate(70.012,45.0795)" font-family="Segoe UI" font-size="12" font-weight="400" fill="black">7-Tage-Inzidenz Stadt Aachen 05.03.2021</text>
  <polyline points="50.012,50.106 66.012,50.106" style="fill:none;stroke:rgb(31,119,180);stroke-width:2" />
</svg>