<?xml version="1.0" encoding="utf-8" standalone="no"?>
<!DOCTYPE svg PUBLIC "-//W3C//DTD SVG 1.1//EN" "http://www.w3.org/Graphics/SVG/1.1/DTD/svg11.dtd">
<svg width="600" height="400" version="1.1" xmlns:xlink="http://www.w3.org/1999/xlink" xmlns="http://www.w3.org/2000/svg">
  <rect x="0" y="0" width="600" height="400" style="fill:rgb(255,255,255);stroke:none;" />
  <polyline points="34.012,362.4131 30.012,362.4131" style="fill:none;stroke:black;stroke-width:1" />
  <polyline points="34.012,348.003 30.012,348.003" style="fill:none;stroke:black;stroke-width:1" />
  <polyline points="34.012,333.5929 30.012,333.5929" style="fill:none;stroke:black;stroke-width:1" />
  <polyline points="34.012,319.1829 30.012,319.1829" style="fill:none;stroke:black;stroke-width:1" />
  <polyline points="34.012,290.3627 30.012,290.3627" style="fill:none;stroke:black;stroke-width:1" />
  <polyline points="34.012,275.9527 30.012,275.9527" style="fill:none;stroke:black;stroke-width:1" />
  <polyline points="34.012,261.5426 30.012,261.5426" style="fill:none;stroke:black;stroke-width:1" />
  <polyline points="34.012,247.1325 30.012,247.1325" style="fill:none;stroke:black;stroke-width:1" />
  <polyline points="34.012,218.3124 30.012,218.3124" style="fill:none;stroke:black;stroke-width:1" />
  <polyline points="34.012,203.9023 30.012,203.9023" style="fill:none;stroke:black;stroke-width:1" />
  <polyline points="34.012,189.4922 30.012,189.4922" style="fill:none;stroke:black;stroke-width:1" />
  <polyline points="34.012,175.0822 30.012,175.0822" style="fill:none;stroke:black;stroke-width:1" />
  <polyline points="34.012,146.262 30.012,146.262" style="fill:none;stroke:black;stroke-width:1" />
  <polyline points="34.012,131.852 30.012,131.852" style="fill:none;stroke:black;stroke-width:1" />
  <polyline points="34.012,117.4419 30.012,117.4419" style="fill:none;stroke:black;stroke-width:1" />
  <polyline points="34.012,103.0318 30.012,103.0318" style="fill:none;stroke:black;stroke-width:1" />
  <polyline points="34.012,74.2117 30.012,74.2117" style="fill:none;stroke:black;stroke-width:1" />
  <polyline points="34.012,59.8016 30.012,59.8016" style="fill:none;stroke:black;stroke-width:1" />
  <polyline points="34.012,45.3915 30.012,45.3915" style="fill:none;stroke:black;stroke-width:1" />
  <polyline points="34.012,30.9815 30.012,30.9815" style="fill:none;stroke:black;stroke-width:1" />
  <polyline points="58.2723,370.947 58.2723,374.947" style="fill:none;stroke:black;stroke-width:1" />
  <polyline points="172.1094,370.947 172.1094,374.947" style="fill:none;stroke:black;stroke-width:1" />
  <polyline points="285.9464,370.947 285.9464,374.947" style="fill:none;stroke:black;stroke-width:1" />
  <polyline points="396.051,370.947 396.051,374.947" style="fill:none;stroke:black;stroke-width:1" />
  <polyline points="509.8881,370.947 509.8881,374.947" style="fill:none;stroke:black;stroke-width:1" />
  <text dominant-baseline="middle" text-anchor="end" transform="translate(23.012,304.7728)" font-family="Segoe UI" font-size="12" font-weight="400" fill="black">50</text>
  <text dominant-baseline="middle" text-anchor="end" transform="translate(23.012,232.7224)" font-family="Segoe UI" font-size="12" font-weight="400" fill="black">100</text>
  <text dominant-baseline="middle" text-anchor="end" transform="translate(23.012,160.6721)" font-family="Segoe UI" font-size="12" font-weight="400" fill="black">150</text>
  <text dominant-baseline="middle" text-anchor="end" transform="translate(23.012,88.6218)" font-family="Segoe UI" font-size="12" font-weight="400" fill="black">200</text>
  <polyline points="34.012,304.7728 27.012,304.7728" style="fill:none;stroke:black;stroke-width:1" />
  <polyline points="34.012,232.7224 27.012,232.7224" style="fill:none;stroke:black;stroke-width:1" />
  <polyline points="34.012,160.6721 27.012,160.6721" style="fill:none;stroke:black;stroke-width:1" />
  <polyline points="34.012,88.6218 27.012,88.6218" style="fill:none;stroke:black;stroke-width:1" />
  <text dominant-baseline="hanging" text-anchor="middle" transform="translate(114.2578,381.947)" font-family="Segoe UI" font-size="12" font-weight="400" fill="black">01. October</text>
  <text dominant-baseline="hanging" text-anchor="middle" transform="translate(228.0948,381.947)" font-family="Segoe UI" font-size="12" font-weight="400" fill="black">01. December</text>
  <text dominant-baseline="hanging" text-anchor="middle" transform="translate(343.798,381.947)" font-family="Segoe UI" font-size="12" font-weight="400" fill="black">01. February</text>
  <text dominant-baseline="hanging" text-anchor="middle" transform="translate(453.9026,381.947)" font-family="Segoe UI" font-size="12" font-weight="400" fill="black">01. April</text>
  <text dominant-baseline="hanging" text-anchor="middle" transform="translate(567.7397,381.947)" font-family="Segoe UI" font-size="12" font-weight="400" fill="black">01. June</text>
  <polyline points="114.2578,370.947 114.2578,377.947" style="fill:none;stroke:black;stroke-width:1" />
  <polyline points="228.0948,370.947 228.0948,377.947" style="fill:none;stroke:black;stroke-width:1" />
  <polyline points="343.798,370.947 343.798,377.947" style="fill:none;stroke:black;stroke-width:1" />
  <polyline points="453.9026,370.947 453.9026,377.947" style="fill:none;stroke:black;stroke-width:1" />
  <polyline points="567.7397,370.947 567.7397,377.947" style="fill:none;stroke:black;stroke-width:1" />
  <polyline points="34.012,356.4795 35.8782,356.0557 37.7444,362.1305 43.3429,358.1748 45.2091,362.1305 47.0753,362.6956 48.9414,363.2607 50.8076,362.1305 56.4062,366.6513 58.2723,364.956 60.1385,365.5211 62.0047,364.956 63.8709,364.956 69.4694,365.5211 71.3356,367.2164 73.2018,365.5211 75.068,364.956 76.9342,362.6956 82.5327,356.4795 84.3989,351.9587 86.2651,346.8728 88.1312,346.3077 89.9974,341.7869 95.596,347.4379 97.4621,348.003 99.3283,351.9587 101.1945,350.2634 103.0607,351.3936 108.6592,335.5708 110.5254,336.1359 112.3916,335.0057 114.2578,324.8339 116.1239,319.1829 121.7225,312.4017 123.5887,313.5319 125.4548,305.6204 127.321,304.4718 129.1872,307.3659 134.7858,292.3168 136.6519,290.5804 138.5181,285.3711 140.3843,274.9525 142.2505,252.9577 147.849,230.3841 149.7152,225.7536 151.5814,221.7019 153.4476,202.6011 155.3137,202.0223 160.9123,137.1955 162.7785,131.9862 164.6446,129.0922 166.5108,131.4074 168.377,98.4152 173.9755,118.0948 175.8417,107.6762 177.7079,108.8338 179.5741,101.3093 181.4403,119.2524 187.0388,90.8907 188.905,84.5238 190.7712,58.4773 194.5035,32.4308 200.1021,61.3713 201.9683,75.8416 203.8344,84.5238 205.7006,65.3507 207.5668,120.41 213.1653,167.2937 215.0315,150.5082 216.8977,153.4022 218.7639,208.3892 220.6301,185.8156 226.2286,188.7097 228.0948,213.5985 229.961,225.7536 231.8271,197.9707 233.6933,202.0223 239.2919,178.8699 241.158,181.1851 243.0242,179.4487 244.8904,151.087 246.7566,173.0818 252.3551,153.981 254.2213,144.1413 256.0875,132.5651 257.9537,145.2989 259.8199,134.3015 265.4184,116.3584 267.2846,116.9372 269.1508,140.6684 278.4817,156.8751 280.3478,154.5599 282.214,134.3015 284.0802,136.255 291.5449,211.2833 293.4111,235.0145 295.2773,250.6424 297.1435,236.751 299.0096,215.7691 306.4744,192.7614 308.3405,195.0766 310.2067,217.0714 312.0729,247.1696 317.6715,255.6781 319.5376,275.5313 321.4038,266.8491 323.27,284.7923 325.1362,285.3711 330.7347,272.0584 334.4671,279.583 336.3333,259.3246 338.1994,247.7484 343.798,263.9551 345.6642,278.0636 347.5303,272.0584 349.3965,279.583 351.2627,290.5804 356.8612,293.4744 358.7274,290.5804 360.5936,274.9525 362.4598,276.1101 364.326,269.1644 369.9245,283.6346 371.7907,285.3711 373.6569,306.2082 375.5231,313.154 377.3892,329.3607 382.9878,329.3607 384.854,330.5183 386.7201,321.2573 388.5863,321.8361 390.4525,317.2056 396.051,328.7819 397.9172,327.6242 399.7834,323.5726 401.6496,300.4201 403.5158,294.632 409.1143,265.1127 410.9805,265.1127 412.8467,263.3763 414.7128,278.4253 416.579,272.0584 422.1776,261.6398 424.0437,262.2186 425.9099,254.6941 427.7761,226.3324 429.6423,208.3892 435.2408,200.2859 437.107,199.7071 438.9732,204.3376 440.8394,192.7614 442.7056,205.4952 448.3041,224.0171 450.1703,220.5443 452.0365,227.49 453.9026,243.6967 455.7688,218.229 463.2335,204.9164 465.0997,219.9655 466.9659,201.4435 468.8321,235.0145 474.4306,225.6957 476.2968,215.9138 478.163,167.8725 480.0292,188.7097 481.8953,184.658 487.4939,175.9759 489.3601,156.8751 491.2262,162.0844 493.0924,148.1929 494.9586,123.8829 500.5572,104.7821 502.4233,120.9888 504.2895,135.4591 506.1557,129.671 508.0219,132.5651 513.6204,158.6115 515.4866,146.4565 517.3528,140.0896 519.219,173.6606 521.0851,193.919 526.6837,203.7588 528.5499,213.0197 530.416,225.7536 534.1484,193.3402 539.7469,196.2342 541.6131,181.764 543.4793,175.9759 545.3455,180.3169 547.2117,215.9138 554.6764,263.9551 556.5426,288.8439 558.4087,298.6837 560.2749,302.1566 565.8735,309.9705 567.7397,314.8904 569.6058,313.7328 573.3382,334.57 578.9367,350.1979 580.8029,355.4071 582.6691,360.0376 584.5353,359.0971 586.4015,364.6681 592,367.5622" style="fill:none;stroke:rgb(31,119,180);stroke-width:2;stroke-linejoin:bevel" />
  <text dominant-baseline="hanging" text-anchor="middle" transform="translate(313.006,8)" font-family="Segoe UI" font-size="18" font-weight="700" fill="black">7-Tage-Inzidenz Stadt Aachen 14.06.2021</text>
  <polygon points="34.012,29.0795 592,29.0795 592,370.947 34.012,370.947" style="fill:none;stroke:black;stroke-width:1" />
  <polygon points="42.012,37.0795 247.014,37.0795 247.014,63.1325 42.012,63.1325" style="fill:none;stroke:none;" />
  <text dominant-baseline="hanging" text-anchor="start" transform="translate(70.012,45.0795)" font-family="Segoe UI" font-size="12" font-weight="400" fill="black">7-Tage-Inzidenz Stadt Aachen 14.06.2021</text>
  <polyline points="50.012,50.106 66.012,50.106" style="fill:none;stroke:rgb(31,119,180);stroke-width:2" />
</svg>