<svg xmlns="http://www.w3.org/2000/svg" viewBox="0 0 125.94 52.229" height="197.399" width="475.994"><rect width="100%" height="100%" x="-.001" fill="#fff"/><g transform="translate(-13.231 -25.355)"><rect ry=".106" rx=".169" y="32.284" x="46.434" height="6.615" width="13.229" fill="#92dc7c7F"/><rect ry=".106" rx=".169" y="32.284" x="59.664" height="6.615" width="13.229" fill="#92dc7c7F"/><rect ry=".106" rx=".169" y="32.284" x="72.893" height="6.615" width="13.229" fill="#92dc7c7F"/><rect ry=".106" rx=".169" y="32.284" x="86.122" height="6.615" width="13.229" fill="#B5D4007F"/><rect ry=".106" rx=".169" y="32.284" x="99.351" height="6.615" width="13.229" fill="#92dc7c7F"/><rect ry=".106" rx=".169" y="32.284" x="112.58" height="6.615" width="13.229" fill="#92dc7c7F"/><rect ry=".106" rx=".169" y="32.284" x="125.809" height="6.615" width="13.229" fill="#92dc7c7F"/><text y="30.266" x="53.113" style="line-height:125%;-inkscape-font-specification:Arial;text-align:center" font-weight="400" font-size="2.749" letter-spacing="0" word-spacing="0" font-family="Arial" text-anchor="middle" stroke-width=".064"><tspan style="text-align:center" y="30.266" x="53.113">30.05.21</tspan></text><text y="30.266" x="66.342" style="line-height:125%;-inkscape-font-specification:Arial;text-align:center" font-weight="400" font-size="2.749" letter-spacing="0" word-spacing="0" font-family="Arial" text-anchor="middle" stroke-width=".064"><tspan style="text-align:center" y="30.266" x="66.342">31.05.21</tspan></text><text y="30.266" x="79.571" style="line-height:125%;-inkscape-font-specification:Arial;text-align:center" font-weight="400" font-size="2.749" letter-spacing="0" word-spacing="0" font-family="Arial" text-anchor="middle" stroke-width=".064"><tspan style="text-align:center" y="30.266" x="79.571">01.06.21</tspan></text><text y="30.266" x="92.8" style="line-height:125%;-inkscape-font-specification:Arial;text-align:center" font-weight="400" font-size="2.749" letter-spacing="0" word-spacing="0" font-family="Arial" text-anchor="middle" stroke-width=".064"><tspan style="text-align:center" y="30.266" x="92.8">02.06.21</tspan></text><text y="30.266" x="106.029" style="line-height:125%;-inkscape-font-specification:Arial;text-align:center" font-weight="400" font-size="2.749" letter-spacing="0" word-spacing="0" font-family="Arial" text-anchor="middle" stroke-width=".064"><tspan style="text-align:center" y="30.266" x="106.029">03.06.21</tspan></text><text y="30.266" x="119.258" style="line-height:125%;-inkscape-font-specification:Arial;text-align:center" font-weight="400" font-size="2.749" letter-spacing="0" word-spacing="0" font-family="Arial" text-anchor="middle" stroke-width=".064"><tspan style="text-align:center" y="30.266" x="119.258">04.06.21</tspan></text><text y="30.266" x="132.488" style="line-height:125%;-inkscape-font-specification:Arial;text-align:center" font-weight="400" font-size="2.749" letter-spacing="0" word-spacing="0" font-family="Arial" text-anchor="middle" stroke-width=".064"><tspan style="text-align:center" y="30.266" x="132.488">05.06.21</tspan></text><text y="36.616" x="53.113" style="line-height:125%;-inkscape-font-specification:Arial;text-align:center" font-weight="400" font-size="2.749" letter-spacing="0" word-spacing="0" font-family="Arial" text-anchor="middle" stroke-width=".064"><tspan style="text-align:center" y="36.616" x="53.113">43,8</tspan></text><text y="36.616" x="66.342" style="line-height:125%;-inkscape-font-specification:Arial;text-align:center" font-weight="400" font-size="2.749" letter-spacing="0" word-spacing="0" font-family="Arial" text-anchor="middle" stroke-width=".064"><tspan style="text-align:center" y="36.616" x="66.342">41,5</tspan></text><text y="36.616" x="79.571" style="line-height:125%;-inkscape-font-specification:Arial;text-align:center" font-weight="400" font-size="2.749" letter-spacing="0" word-spacing="0" font-family="Arial" text-anchor="middle" stroke-width=".064"><tspan style="text-align:center" y="36.616" x="79.571">47,8</tspan></text><text y="36.616" x="92.8" style="line-height:125%;-inkscape-font-specification:Arial;text-align:center" font-weight="400" font-size="2.749" letter-spacing="0" word-spacing="0" font-family="Arial" text-anchor="middle" stroke-width=".064"><tspan style="text-align:center" y="36.616" x="92.8">50,6</tspan></text><text y="36.616" x="106.029" style="line-height:125%;-inkscape-font-specification:Arial;text-align:center" font-weight="400" font-size="2.749" letter-spacing="0" word-spacing="0" font-family="Arial" text-anchor="middle" stroke-width=".064"><tspan style="text-align:center" y="36.616" x="106.029">41,8</tspan></text><text y="36.616" x="119.258" style="line-height:125%;-inkscape-font-specification:Arial;text-align:center" font-weight="400" font-size="2.749" letter-spacing="0" word-spacing="0" font-family="Arial" text-anchor="middle" stroke-width=".064"><tspan style="text-align:center" y="36.616" x="119.258">33,6</tspan></text><text y="36.616" x="132.488" style="line-height:125%;-inkscape-font-specification:Arial;text-align:center" font-weight="400" font-size="2.749" letter-spacing="0" word-spacing="0" font-family="Arial" text-anchor="middle" stroke-width=".064"><tspan style="text-align:center" y="36.616" x="132.488">27,1</tspan></text><rect ry=".071" rx=".12" y="52.79" x="48.224" height="3.969" width="3.969" fill="#92dc7c"/><text y="55.896" x="53.84" style="line-height:125%;-inkscape-font-specification:Arial" font-weight="400" font-size="3.175" letter-spacing="0" word-spacing="0" font-family="Arial" stroke-width=".265"><tspan y="55.896" x="53.84">&lt; 50</tspan></text><rect ry=".071" rx=".12" y="52.79" x="67.11" height="3.969" width="3.969" fill="#B5D400"/><text y="55.896" x="72.726" style="line-height:125%;-inkscape-font-specification:Arial" font-weight="400" font-size="3.175" letter-spacing="0" word-spacing="0" font-family="Arial" stroke-width=".265"><tspan y="55.896" x="72.726">&lt; 100</tspan></text><rect ry=".071" rx=".12" y="52.79" x="104.88" height="3.969" width="3.969" fill="#ea6e6e"/><text y="55.896" x="110.496" style="line-height:125%;-inkscape-font-specification:Arial" font-weight="400" font-size="3.175" letter-spacing="0" word-spacing="0" font-family="Arial" stroke-width=".265"><tspan y="55.896" x="110.496">&lt; 165</tspan></text><rect ry=".071" rx=".12" y="52.79" x="123.765" height="3.969" width="3.969" fill="#FF49E3"/><text y="55.896" x="129.381" style="line-height:125%;-inkscape-font-specification:Arial" font-weight="400" font-size="3.175" letter-spacing="0" word-spacing="0" font-family="Arial" stroke-width=".265"><tspan y="55.896" x="129.381">&gt; 165</tspan></text><rect ry=".071" rx=".12" y="52.79" x="85.995" height="3.969" width="3.969" fill="#ff9f3d"/><text y="55.896" x="91.61" style="line-height:125%;-inkscape-font-specification:Arial" font-weight="400" font-size="3.175" letter-spacing="0" word-spacing="0" font-family="Arial" stroke-width=".265"><tspan y="55.896" x="91.61">&lt; 150</tspan></text><rect ry=".106" rx=".169" y="39.031" x="46.435" height="6.615" width="13.229" fill="#92dc7c"/><rect ry=".106" rx=".169" y="39.031" x="59.665" height="6.615" width="13.229" fill="#92dc7c"/><rect ry=".106" rx=".169" y="39.031" x="72.894" height="6.615" width="13.229" fill="#92dc7c"/><rect ry=".106" rx=".169" y="39.031" x="86.123" height="6.615" width="13.229" fill="#92dc7c"/><rect ry=".106" rx=".169" y="39.031" x="99.352" height="6.615" width="13.229" fill="#92dc7c"/><rect ry=".106" rx=".169" y="39.031" x="112.581" height="6.615" width="13.229" fill="#92dc7c"/><rect ry=".106" rx=".169" y="39.031" x="125.81" height="6.615" width="13.229" fill="#92dc7c"/><text y="43.363" x="53.114" style="line-height:125%;-inkscape-font-specification:Arial;text-align:center" font-weight="400" font-size="2.749" letter-spacing="0" word-spacing="0" font-family="Arial" text-anchor="middle" stroke-width=".064"><tspan style="text-align:center" y="43.363" x="53.114">45,4</tspan></text><text y="43.363" x="66.343" style="line-height:125%;-inkscape-font-specification:Arial;text-align:center" font-weight="400" font-size="2.749" letter-spacing="0" word-spacing="0" font-family="Arial" text-anchor="middle" stroke-width=".064"><tspan style="text-align:center" y="43.363" x="66.343">42,2</tspan></text><text y="43.363" x="79.572" style="line-height:125%;-inkscape-font-specification:Arial;text-align:center" font-weight="400" font-size="2.749" letter-spacing="0" word-spacing="0" font-family="Arial" text-anchor="middle" stroke-width=".064"><tspan style="text-align:center" y="43.363" x="79.572">45,8</tspan></text><text y="43.363" x="92.801" style="line-height:125%;-inkscape-font-specification:Arial;text-align:center" font-weight="400" font-size="2.749" letter-spacing="0" word-spacing="0" font-family="Arial" text-anchor="middle" stroke-width=".064"><tspan style="text-align:center" y="43.363" x="92.801">48,8</tspan></text><text y="43.363" x="106.03" style="line-height:125%;-inkscape-font-specification:Arial;text-align:center" font-weight="400" font-size="2.749" letter-spacing="0" word-spacing="0" font-family="Arial" text-anchor="middle" stroke-width=".064"><tspan style="text-align:center" y="43.363" x="106.03">38,8</tspan></text><text y="43.363" x="119.259" style="line-height:125%;-inkscape-font-specification:Arial;text-align:center" font-weight="400" font-size="2.749" letter-spacing="0" word-spacing="0" font-family="Arial" text-anchor="middle" stroke-width=".064"><tspan style="text-align:center" y="43.363" x="119.259">33,6</tspan></text><text y="43.363" x="132.489" style="line-height:125%;-inkscape-font-specification:Arial;text-align:center" font-weight="400" font-size="2.749" letter-spacing="0" word-spacing="0" font-family="Arial" text-anchor="middle" stroke-width=".064"><tspan style="text-align:center" y="43.363" x="132.489">27,1</tspan></text><text style="line-height:125%;-inkscape-font-specification:Arial" x="25.224" y="36.483" font-weight="400" font-size="3.528" font-family="Arial" letter-spacing="0" word-spacing="0" stroke-width=".265"><tspan x="25.224" y="36.483">korrigiert</tspan></text><text style="line-height:125%;-inkscape-font-specification:Arial" x="25.396" y="43.23" font-weight="400" font-size="3.528" font-family="Arial" letter-spacing="0" word-spacing="0" stroke-width=".265"><tspan x="25.396" y="43.23">tagesaktuell</tspan></text><path d="M59.665 25.802v19.844zm13.23 0v19.844zm13.228 0v19.844zm13.23 0v19.844zm13.228 0v19.844zm13.23 0v19.844zM23.812 32.27h115.096zm0 6.629h115.096zm0 6.6h115.096zm22.823-19.83h92.206c.11 0 .2.09.2.2v19.445a.2.2 0 01-.2.2H46.635a.2.2 0 01-.2-.2V25.869c0-.11.089-.2.2-.2z" fill="none" stroke="#000" stroke-width=".264"/><rect ry=".108" rx=".169" y="63.735" x="30.927" height="13.715" width="21.588" fill="#92dc7c" stroke-miterlimit="0" stroke="#000" stroke-width=".269"/><text y="69.629" x="41.626" style="line-height:125%;-inkscape-font-specification:Arial;text-align:center" font-weight="400" font-size="3.528" letter-spacing="0" word-spacing="0" font-family="Arial" text-anchor="middle" stroke-width=".265"><tspan style="text-align:center" y="69.629" x="42.1">Unter</tspan> <tspan style="text-align:center" y="74.038" x="41.626">50</tspan></text><text style="line-height:125%;-inkscape-font-specification:Arial" x="56.955" y="72.75" font-weight="400" font-size="8.467" font-family="Arial" letter-spacing="0" word-spacing="0" stroke-width=".265"><tspan x="56.955" y="72.75">Beschränkungslevel</tspan></text></g></svg>