<?xml version="1.0" encoding="utf-8" standalone="no"?>
<!DOCTYPE svg PUBLIC "-//W3C//DTD SVG 1.1//EN" "http://www.w3.org/Graphics/SVG/1.1/DTD/svg11.dtd">
<svg width="600" height="400" version="1.1" xmlns:xlink="http://www.w3.org/1999/xlink" xmlns="http://www.w3.org/2000/svg">
  <rect x="0" y="0" width="600" height="400" style="fill:rgb(255,255,255);stroke:none;" />
  <polyline points="34.012,362.7539 30.012,362.7539" style="fill:none;stroke:black;stroke-width:1" />
  <polyline points="34.012,348.3289 30.012,348.3289" style="fill:none;stroke:black;stroke-width:1" />
  <polyline points="34.012,333.904 30.012,333.904" style="fill:none;stroke:black;stroke-width:1" />
  <polyline points="34.012,319.479 30.012,319.479" style="fill:none;stroke:black;stroke-width:1" />
  <polyline points="34.012,290.6291 30.012,290.6291" style="fill:none;stroke:black;stroke-width:1" />
  <polyline points="34.012,276.2041 30.012,276.2041" style="fill:none;stroke:black;stroke-width:1" />
  <polyline points="34.012,261.7792 30.012,261.7792" style="fill:none;stroke:black;stroke-width:1" />
  <polyline points="34.012,247.3542 30.012,247.3542" style="fill:none;stroke:black;stroke-width:1" />
  <polyline points="34.012,218.5043 30.012,218.5043" style="fill:none;stroke:black;stroke-width:1" />
  <polyline points="34.012,204.0794 30.012,204.0794" style="fill:none;stroke:black;stroke-width:1" />
  <polyline points="34.012,189.6544 30.012,189.6544" style="fill:none;stroke:black;stroke-width:1" />
  <polyline points="34.012,175.2295 30.012,175.2295" style="fill:none;stroke:black;stroke-width:1" />
  <polyline points="34.012,146.3796 30.012,146.3796" style="fill:none;stroke:black;stroke-width:1" />
  <polyline points="34.012,131.9546 30.012,131.9546" style="fill:none;stroke:black;stroke-width:1" />
  <polyline points="34.012,117.5297 30.012,117.5297" style="fill:none;stroke:black;stroke-width:1" />
  <polyline points="34.012,103.1047 30.012,103.1047" style="fill:none;stroke:black;stroke-width:1" />
  <polyline points="34.012,74.2548 30.012,74.2548" style="fill:none;stroke:black;stroke-width:1" />
  <polyline points="34.012,59.8299 30.012,59.8299" style="fill:none;stroke:black;stroke-width:1" />
  <polyline points="34.012,45.4049 30.012,45.4049" style="fill:none;stroke:black;stroke-width:1" />
  <polyline points="34.012,30.98 30.012,30.98" style="fill:none;stroke:black;stroke-width:1" />
  <text dominant-baseline="middle" text-anchor="end" transform="translate(23.012,305.0541)" font-family="Segoe UI" font-size="12" font-weight="400" fill="black">50</text>
  <text dominant-baseline="middle" text-anchor="end" transform="translate(23.012,232.9293)" font-family="Segoe UI" font-size="12" font-weight="400" fill="black">100</text>
  <text dominant-baseline="middle" text-anchor="end" transform="translate(23.012,160.8045)" font-family="Segoe UI" font-size="12" font-weight="400" fill="black">150</text>
  <text dominant-baseline="middle" text-anchor="end" transform="translate(23.012,88.6798)" font-family="Segoe UI" font-size="12" font-weight="400" fill="black">200</text>
  <polyline points="34.012,305.0541 27.012,305.0541" style="fill:none;stroke:black;stroke-width:1" />
  <polyline points="34.012,232.9293 27.012,232.9293" style="fill:none;stroke:black;stroke-width:1" />
  <polyline points="34.012,160.8045 27.012,160.8045" style="fill:none;stroke:black;stroke-width:1" />
  <polyline points="34.012,88.6798 27.012,88.6798" style="fill:none;stroke:black;stroke-width:1" />
  <text dominant-baseline="hanging" text-anchor="middle" transform="translate(88.1452,381.947)" font-family="Segoe UI" font-size="12" font-weight="400" fill="black">01. September</text>
  <text dominant-baseline="hanging" text-anchor="middle" transform="translate(213.0679,381.947)" font-family="Segoe UI" font-size="12" font-weight="400" fill="black">01. October</text>
  <text dominant-baseline="hanging" text-anchor="middle" transform="translate(342.1546,381.947)" font-family="Segoe UI" font-size="12" font-weight="400" fill="black">01. November</text>
  <text dominant-baseline="hanging" text-anchor="middle" transform="translate(467.0773,381.947)" font-family="Segoe UI" font-size="12" font-weight="400" fill="black">01. December</text>
  <polyline points="88.1452,370.947 88.1452,377.947" style="fill:none;stroke:black;stroke-width:1" />
  <polyline points="213.0679,370.947 213.0679,377.947" style="fill:none;stroke:black;stroke-width:1" />
  <polyline points="342.1546,370.947 342.1546,377.947" style="fill:none;stroke:black;stroke-width:1" />
  <polyline points="467.0773,370.947 467.0773,377.947" style="fill:none;stroke:black;stroke-width:1" />
  <polyline points="34.012,356.8142 38.1761,356.3899 42.3402,362.471 54.8324,358.5112 58.9965,362.471 63.1606,363.0367 67.3247,363.6024 71.4888,362.471 83.9811,366.9965 88.1452,365.2994 92.3093,365.8651 96.4733,365.2994 100.6374,365.2994 113.1297,365.8651 117.2938,367.5622 121.4579,365.8651 125.622,365.2994 129.7861,363.0367 142.2783,356.8142 146.4424,352.2887 150.6065,347.1975 154.7706,346.6319 158.9347,342.1064 171.427,347.7632 175.591,348.3289 179.7551,352.2887 183.9192,350.5916 188.0833,351.723 200.5756,335.8838 204.7397,336.4495 208.9038,335.3182 213.0679,325.1358 217.2319,319.479 229.7242,312.6908 233.8883,313.8222 238.0524,305.9026 242.2165,304.7528 246.3806,307.6498 258.8728,292.5852 263.0369,290.847 267.201,285.6323 271.3651,275.2029 275.5292,253.1854 288.0215,230.5885 292.1856,225.9532 296.3496,221.8974 300.5137,202.7769 304.6778,202.1975 317.1701,137.3037 321.3342,132.0891 325.4983,129.192 329.6624,131.5096 333.8264,98.4834 346.3187,118.1833 350.4828,107.7539 354.6469,108.9127 358.811,101.3804 362.9751,119.3421 375.4673,90.9511 379.6314,84.5776 383.7955,58.5042 392.1237,32.4308 404.616,61.4012 408.7801,75.8864 412.9441,84.5776 417.1082,65.3847 421.2723,120.5009 433.7646,167.433 437.9287,150.6301 442.0928,153.5272 446.2569,208.571 450.421,185.974 462.9132,188.8711 467.0773,213.7856 471.2414,225.9532 475.4055,198.1416 479.5696,202.1975 492.0619,179.0211 496.2259,181.3388 500.39,179.6005 504.5541,151.2095 508.7182,173.2271 521.2105,154.1066 525.3746,144.2566 529.5387,132.6685 533.7027,145.4155 537.8668,134.4067 550.3591,116.445 554.5232,117.0244 558.6873,140.7802 579.5077,157.0036 583.6718,154.686 587.8359,134.4067 592,136.3622" style="fill:none;stroke:rgb(31,119,180);stroke-width:2;stroke-linejoin:bevel" />
  <text dominant-baseline="hanging" text-anchor="middle" transform="translate(313.006,8)" font-family="Segoe UI" font-size="18" font-weight="700" fill="black">7-Tage-Inzidenz Stadt Aachen 31.12.2020</text>
  <polygon points="34.012,29.0795 592,29.0795 592,370.947 34.012,370.947" style="fill:none;stroke:black;stroke-width:1" />
  <polygon points="42.012,37.0795 247.014,37.0795 247.014,63.1325 42.012,63.1325" style="fill:none;stroke:none;" />
  <text dominant-baseline="hanging" text-anchor="start" transform="translate(70.012,45.0795)" font-family="Segoe UI" font-size="12" font-weight="400" fill="black">7-Tage-Inzidenz Stadt Aachen 31.12.2020</text>
  <polyline points="50.012,50.106 66.012,50.106" style="fill:none;stroke:rgb(31,119,180);stroke-width:2" />
</svg>