<?xml version="1.0" encoding="utf-8" standalone="no"?>
<!DOCTYPE svg PUBLIC "-//W3C//DTD SVG 1.1//EN" "http://www.w3.org/Graphics/SVG/1.1/DTD/svg11.dtd">
<svg width="600" height="400" version="1.1" xmlns:xlink="http://www.w3.org/1999/xlink" xmlns="http://www.w3.org/2000/svg">
  <rect x="0" y="0" width="600" height="400" style="fill:rgb(255,255,255);stroke:none;" />
  <polyline points="34.012,362.7539 30.012,362.7539" style="fill:none;stroke:black;stroke-width:1" />
  <polyline points="34.012,348.3289 30.012,348.3289" style="fill:none;stroke:black;stroke-width:1" />
  <polyline points="34.012,333.904 30.012,333.904" style="fill:none;stroke:black;stroke-width:1" />
  <polyline points="34.012,319.479 30.012,319.479" style="fill:none;stroke:black;stroke-width:1" />
  <polyline points="34.012,290.6291 30.012,290.6291" style="fill:none;stroke:black;stroke-width:1" />
  <polyline points="34.012,276.2041 30.012,276.2041" style="fill:none;stroke:black;stroke-width:1" />
  <polyline points="34.012,261.7792 30.012,261.7792" style="fill:none;stroke:black;stroke-width:1" />
  <polyline points="34.012,247.3542 30.012,247.3542" style="fill:none;stroke:black;stroke-width:1" />
  <polyline points="34.012,218.5043 30.012,218.5043" style="fill:none;stroke:black;stroke-width:1" />
  <polyline points="34.012,204.0794 30.012,204.0794" style="fill:none;stroke:black;stroke-width:1" />
  <polyline points="34.012,189.6544 30.012,189.6544" style="fill:none;stroke:black;stroke-width:1" />
  <polyline points="34.012,175.2295 30.012,175.2295" style="fill:none;stroke:black;stroke-width:1" />
  <polyline points="34.012,146.3796 30.012,146.3796" style="fill:none;stroke:black;stroke-width:1" />
  <polyline points="34.012,131.9546 30.012,131.9546" style="fill:none;stroke:black;stroke-width:1" />
  <polyline points="34.012,117.5297 30.012,117.5297" style="fill:none;stroke:black;stroke-width:1" />
  <polyline points="34.012,103.1047 30.012,103.1047" style="fill:none;stroke:black;stroke-width:1" />
  <polyline points="34.012,74.2548 30.012,74.2548" style="fill:none;stroke:black;stroke-width:1" />
  <polyline points="34.012,59.8299 30.012,59.8299" style="fill:none;stroke:black;stroke-width:1" />
  <polyline points="34.012,45.4049 30.012,45.4049" style="fill:none;stroke:black;stroke-width:1" />
  <polyline points="34.012,30.98 30.012,30.98" style="fill:none;stroke:black;stroke-width:1" />
  <text dominant-baseline="middle" text-anchor="end" transform="translate(23.012,305.0541)" font-family="Segoe UI" font-size="12" font-weight="400" fill="black">50</text>
  <text dominant-baseline="middle" text-anchor="end" transform="translate(23.012,232.9293)" font-family="Segoe UI" font-size="12" font-weight="400" fill="black">100</text>
  <text dominant-baseline="middle" text-anchor="end" transform="translate(23.012,160.8045)" font-family="Segoe UI" font-size="12" font-weight="400" fill="black">150</text>
  <text dominant-baseline="middle" text-anchor="end" transform="translate(23.012,88.6798)" font-family="Segoe UI" font-size="12" font-weight="400" fill="black">200</text>
  <polyline points="34.012,305.0541 27.012,305.0541" style="fill:none;stroke:black;stroke-width:1" />
  <polyline points="34.012,232.9293 27.012,232.9293" style="fill:none;stroke:black;stroke-width:1" />
  <polyline points="34.012,160.8045 27.012,160.8045" style="fill:none;stroke:black;stroke-width:1" />
  <polyline points="34.012,88.6798 27.012,88.6798" style="fill:none;stroke:black;stroke-width:1" />
  <text dominant-baseline="hanging" text-anchor="middle" transform="translate(79.3485,381.947)" font-family="Segoe UI" font-size="12" font-weight="400" fill="black">01. September</text>
  <text dominant-baseline="hanging" text-anchor="middle" transform="translate(183.9713,381.947)" font-family="Segoe UI" font-size="12" font-weight="400" fill="black">01. October</text>
  <text dominant-baseline="hanging" text-anchor="middle" transform="translate(292.0815,381.947)" font-family="Segoe UI" font-size="12" font-weight="400" fill="black">01. November</text>
  <text dominant-baseline="hanging" text-anchor="middle" transform="translate(396.7042,381.947)" font-family="Segoe UI" font-size="12" font-weight="400" fill="black">01. December</text>
  <text dominant-baseline="hanging" text-anchor="middle" transform="translate(504.8144,381.947)" font-family="Segoe UI" font-size="12" font-weight="400" fill="black">01. January</text>
  <polyline points="79.3485,370.947 79.3485,377.947" style="fill:none;stroke:black;stroke-width:1" />
  <polyline points="183.9713,370.947 183.9713,377.947" style="fill:none;stroke:black;stroke-width:1" />
  <polyline points="292.0815,370.947 292.0815,377.947" style="fill:none;stroke:black;stroke-width:1" />
  <polyline points="396.7042,370.947 396.7042,377.947" style="fill:none;stroke:black;stroke-width:1" />
  <polyline points="504.8144,370.947 504.8144,377.947" style="fill:none;stroke:black;stroke-width:1" />
  <polyline points="34.012,356.8142 37.4994,356.3899 40.9869,362.471 51.4491,358.5112 54.9366,362.471 58.424,363.0367 61.9114,363.6024 65.3988,362.471 75.8611,366.9965 79.3485,365.2994 82.836,365.8651 86.3234,365.2994 89.8108,365.2994 100.2731,365.8651 103.7605,367.5622 107.2479,365.8651 110.7354,365.2994 114.2228,363.0367 124.6851,356.8142 128.1725,352.2887 131.6599,347.1975 135.1473,346.6319 138.6348,342.1064 149.097,347.7632 152.5845,348.3289 156.0719,352.2887 159.5593,350.5916 163.0467,351.723 173.509,335.8838 176.9964,336.4495 180.4839,335.3182 183.9713,325.1358 187.4587,319.479 197.921,312.6908 201.4084,313.8222 204.8958,305.9026 208.3833,304.7528 211.8707,307.6498 222.333,292.5852 225.8204,290.847 229.3078,285.6323 232.7952,275.2029 236.2827,253.1854 246.7449,230.5885 250.2324,225.9532 253.7198,221.8974 257.2072,202.7769 260.6946,202.1975 271.1569,137.3037 274.6443,132.0891 278.1318,129.192 281.6192,131.5096 285.1066,98.4834 295.5689,118.1833 299.0563,107.7539 302.5437,108.9127 306.0312,101.3804 309.5186,119.3421 319.9809,90.9511 323.4683,84.5776 326.9557,58.5042 333.9306,32.4308 344.3928,61.4012 347.8803,75.8864 351.3677,84.5776 354.8551,65.3847 358.3425,120.5009 368.8048,167.433 372.2922,150.6301 375.7797,153.5272 379.2671,208.571 382.7545,185.974 393.2168,188.8711 396.7042,213.7856 400.1916,225.9532 403.6791,198.1416 407.1665,202.1975 417.6288,179.0211 421.1162,181.3388 424.6036,179.6005 428.091,151.2095 431.5785,173.2271 442.0407,154.1066 445.5282,144.2566 449.0156,132.6685 452.503,145.4155 455.9904,134.4067 466.4527,116.445 469.9401,117.0244 473.4276,140.7802 490.8647,157.0036 494.3521,154.686 497.8395,134.4067 501.327,136.3622 515.2767,211.468 518.7641,235.2238 522.2515,250.8678 525.7389,236.962 529.2264,215.9584 543.1761,192.9269 546.6635,195.2446 550.1509,217.2621 553.6383,247.3913 564.1006,255.9086 567.588,275.7823 571.0755,267.0912 574.5629,285.0529 578.0503,285.6323 588.5126,272.3059 592,268.25" style="fill:none;stroke:rgb(31,119,180);stroke-width:2;stroke-linejoin:bevel" />
  <text dominant-baseline="hanging" text-anchor="middle" transform="translate(313.006,8)" font-family="Segoe UI" font-size="18" font-weight="700" fill="black">7-Tage-Inzidenz Stadt Aachen 26.01.2021</text>
  <polygon points="34.012,29.0795 592,29.0795 592,370.947 34.012,370.947" style="fill:none;stroke:black;stroke-width:1" />
  <polygon points="42.012,37.0795 247.014,37.0795 247.014,63.1325 42.012,63.1325" style="fill:none;stroke:none;" />
  <text dominant-baseline="hanging" text-anchor="start" transform="translate(70.012,45.0795)" font-family="Segoe UI" font-size="12" font-weight="400" fill="black">7-Tage-Inzidenz Stadt Aachen 26.01.2021</text>
  <polyline points="50.012,50.106 66.012,50.106" style="fill:none;stroke:rgb(31,119,180);stroke-width:2" />
</svg>