<?xml version="1.0" encoding="utf-8" standalone="no"?>
<!DOCTYPE svg PUBLIC "-//W3C//DTD SVG 1.1//EN" "http://www.w3.org/Graphics/SVG/1.1/DTD/svg11.dtd">
<svg width="600" height="400" version="1.1" xmlns:xlink="http://www.w3.org/1999/xlink" xmlns="http://www.w3.org/2000/svg">
  <rect x="0" y="0" width="600" height="400" style="fill:rgb(255,255,255);stroke:none;" />
  <polyline points="34.012,353.4851 30.012,353.4851" style="fill:none;stroke:black;stroke-width:1" />
  <polyline points="34.012,339.4649 30.012,339.4649" style="fill:none;stroke:black;stroke-width:1" />
  <polyline points="34.012,325.4447 30.012,325.4447" style="fill:none;stroke:black;stroke-width:1" />
  <polyline points="34.012,311.4245 30.012,311.4245" style="fill:none;stroke:black;stroke-width:1" />
  <polyline points="34.012,283.3841 30.012,283.3841" style="fill:none;stroke:black;stroke-width:1" />
  <polyline points="34.012,269.3639 30.012,269.3639" style="fill:none;stroke:black;stroke-width:1" />
  <polyline points="34.012,255.3438 30.012,255.3438" style="fill:none;stroke:black;stroke-width:1" />
  <polyline points="34.012,241.3236 30.012,241.3236" style="fill:none;stroke:black;stroke-width:1" />
  <polyline points="34.012,213.2832 30.012,213.2832" style="fill:none;stroke:black;stroke-width:1" />
  <polyline points="34.012,199.263 30.012,199.263" style="fill:none;stroke:black;stroke-width:1" />
  <polyline points="34.012,185.2428 30.012,185.2428" style="fill:none;stroke:black;stroke-width:1" />
  <polyline points="34.012,171.2226 30.012,171.2226" style="fill:none;stroke:black;stroke-width:1" />
  <polyline points="34.012,143.1822 30.012,143.1822" style="fill:none;stroke:black;stroke-width:1" />
  <polyline points="34.012,129.162 30.012,129.162" style="fill:none;stroke:black;stroke-width:1" />
  <polyline points="34.012,115.1418 30.012,115.1418" style="fill:none;stroke:black;stroke-width:1" />
  <polyline points="34.012,101.1216 30.012,101.1216" style="fill:none;stroke:black;stroke-width:1" />
  <polyline points="34.012,73.0813 30.012,73.0813" style="fill:none;stroke:black;stroke-width:1" />
  <polyline points="34.012,59.0611 30.012,59.0611" style="fill:none;stroke:black;stroke-width:1" />
  <polyline points="34.012,45.0409 30.012,45.0409" style="fill:none;stroke:black;stroke-width:1" />
  <polyline points="34.012,31.0207 30.012,31.0207" style="fill:none;stroke:black;stroke-width:1" />
  <text dominant-baseline="middle" text-anchor="end" transform="translate(23.012,367.5053)" font-family="Segoe UI" font-size="12" font-weight="400" fill="black">0</text>
  <text dominant-baseline="middle" text-anchor="end" transform="translate(23.012,297.4043)" font-family="Segoe UI" font-size="12" font-weight="400" fill="black">50</text>
  <text dominant-baseline="middle" text-anchor="end" transform="translate(23.012,227.3034)" font-family="Segoe UI" font-size="12" font-weight="400" fill="black">100</text>
  <text dominant-baseline="middle" text-anchor="end" transform="translate(23.012,157.2024)" font-family="Segoe UI" font-size="12" font-weight="400" fill="black">150</text>
  <text dominant-baseline="middle" text-anchor="end" transform="translate(23.012,87.1015)" font-family="Segoe UI" font-size="12" font-weight="400" fill="black">200</text>
  <polyline points="34.012,367.5053 27.012,367.5053" style="fill:none;stroke:black;stroke-width:1" />
  <polyline points="34.012,297.4043 27.012,297.4043" style="fill:none;stroke:black;stroke-width:1" />
  <polyline points="34.012,227.3034 27.012,227.3034" style="fill:none;stroke:black;stroke-width:1" />
  <polyline points="34.012,157.2024 27.012,157.2024" style="fill:none;stroke:black;stroke-width:1" />
  <polyline points="34.012,87.1015 27.012,87.1015" style="fill:none;stroke:black;stroke-width:1" />
  <text dominant-baseline="hanging" text-anchor="middle" transform="translate(229.1704,381.947)" font-family="Segoe UI" font-size="12" font-weight="400" fill="black">01. January</text>
  <polyline points="229.1704,370.947 229.1704,377.947" style="fill:none;stroke:black;stroke-width:1" />
  <polyline points="34.012,367.5622 36.7607,367.5621 40.8838,367.5621 42.2581,367.562 43.6325,347.7121 45.0068,347.2997 46.3812,353.2102 50.5043,349.3615 51.8786,353.2102 53.253,353.76 54.6273,354.3098 56.0017,353.2102 60.1247,357.6087 61.4991,355.9593 62.8734,356.5091 64.2478,355.9593 65.6222,355.9593 69.7452,356.5091 71.1196,358.1585 72.4939,356.5091 73.8683,355.9593 75.2426,353.76 79.3657,347.7121 80.7401,343.3136 82.1144,338.3653 83.4888,337.8155 84.8631,333.417 88.9862,338.9151 90.3605,339.4649 91.7349,343.3136 93.1093,341.6642 94.4836,342.7638 98.6067,327.3691 99.981,327.9189 101.3554,326.8192 102.7297,316.9226 104.1041,311.4245 108.2272,304.8268 109.6015,305.9264 110.9759,298.229 112.3502,297.1115 113.7246,299.9272 117.8476,285.2853 119.222,283.5959 120.5963,278.5275 121.9707,268.3908 123.3451,246.9911 127.4681,225.0282 128.8425,220.523 130.2168,216.581 131.5912,197.997 132.9655,197.4339 137.0886,134.361 138.463,129.2927 139.8373,126.4769 141.2117,128.7295 142.586,96.63 146.7091,115.7771 148.0834,105.6404 149.4578,106.7667 150.8321,99.4457 152.2065,116.9034 156.3296,89.309 157.7039,83.1143 159.0783,57.7726 161.827,32.4308 165.95,60.5883 167.3244,74.6671 168.6988,83.1143 170.0731,64.46 171.4475,118.0297 175.5705,163.6449 176.9449,147.3135 178.3192,150.1292 179.6936,203.6285 181.068,181.6657 185.191,184.4814 186.5654,208.6969 187.9397,220.523 189.3141,193.4918 190.6884,197.4339 194.8115,174.9079 196.1859,177.1605 197.5602,175.471 198.9346,147.8766 200.3089,169.2764 204.432,150.6924 205.8063,141.1188 207.1807,129.8558 208.555,142.2451 209.9294,131.5453 214.0525,114.0876 215.4268,114.6508 216.8012,137.7399 223.6729,153.5081 225.0473,151.2555 226.4217,131.5453 227.796,133.4459 233.2934,206.4443 234.6678,229.5334 236.0421,244.7385 237.4165,231.2229 238.7908,210.8087 244.2883,188.4235 245.6626,190.6761 247.037,212.0758 248.4113,241.3596 252.5344,249.6379 253.9087,268.954 255.2831,260.5067 256.6575,277.9644 258.0318,278.5275 262.1549,265.5751 264.9036,272.896 266.2779,253.1858 267.6523,241.9228 271.7754,257.691 273.1497,271.4178 274.5241,265.5751 275.8984,272.896 277.2728,283.5959 281.3958,286.4116 282.7702,283.5959 284.1446,268.3908 285.5189,269.5171 286.8933,262.7593 291.0163,276.8381 292.3907,278.5275 293.765,298.8009 295.1394,305.5587 296.5137,321.327 300.6368,321.327 302.0112,322.4533 303.3855,313.4429 304.7599,314.006 306.1342,309.5008 310.2573,320.7638 311.6316,319.6375 313.006,315.6955 314.3804,293.1694 315.7547,287.5379 319.8778,258.8173 321.2521,258.8173 322.6265,257.1278 324.0008,271.7697 325.3752,265.5751 329.4983,255.4384 330.8726,256.0015 332.247,248.6806 333.6213,221.0862 334.9957,203.6285 339.1187,195.7444 340.4931,195.1813 341.8674,199.6865 343.2418,188.4235 344.6162,200.8128 348.7392,218.8336 350.1136,215.4547 351.4879,222.2125 352.8623,237.9807 354.2366,213.2021 359.7341,200.2496 361.1084,214.8915 362.4828,196.8707 363.8571,229.5334 367.9802,220.4667 369.3545,210.9495 370.7289,164.208 372.1033,184.4814 373.4776,180.5394 377.6007,172.0921 378.975,153.5081 380.3494,158.5765 381.7237,145.0609 383.0981,121.4086 387.2212,102.8246 388.5955,118.5928 389.9699,132.6716 391.3442,127.0401 392.7186,129.8558 396.8416,155.1976 398.216,143.3714 399.5903,137.1768 400.9647,169.8395 402.3391,189.5498 406.4621,199.1233 407.8365,208.1337 409.2108,220.523 411.9595,188.9866 416.0826,191.8024 417.457,177.7236 418.8313,172.0921 420.2057,176.3157 421.58,210.9495 427.0774,257.691 428.4518,281.9064 429.8261,291.48 431.2005,294.8589 435.3236,302.4614 436.6979,307.2482 438.0723,306.1219 440.821,326.3953 444.944,341.6004 446.3184,346.6687 447.6928,351.1739 449.0671,350.2588 450.4415,355.6791 454.5645,358.4949 455.9389,357.3686 457.3132,357.3686 458.6876,356.2423 460.062,353.4265 464.185,353.4265 465.5594,352.8634 466.9337,356.2423 468.3081,359.6212 469.6824,361.3106 473.8055,360.7475 475.1799,362.4369 476.5542,359.058 477.9286,355.6791 479.3029,356.8054 483.426,356.8054 486.1747,357.3686 488.9234,359.6212 493.0465,360.7475 495.7952,353.9897 498.5439,343.2898 505.4157,332.0268 508.1644,317.9481 515.0361,316.2586 517.7848,329.7742 524.6566,329.2111 527.4053,323.0164 534.2771,294.8589 537.0258,262.7593 543.8976,253.7489 546.6463,268.3908 553.5181,201.3759 556.2668,191.8024 563.1386,233.4755 565.8873,222.2125 575.5077,240.2333 585.1282,272.896 592,284.7222" style="fill:none;stroke:rgb(31,119,180);stroke-width:2;stroke-linejoin:bevel" />
  <text dominant-baseline="hanging" text-anchor="middle" transform="translate(313.006,8)" font-family="Segoe UI" font-size="18" font-weight="700" fill="black">7-Tage-Inzidenz Stadt Aachen 22.09.2021</text>
  <polygon points="34.012,29.0795 592,29.0795 592,370.947 34.012,370.947" style="fill:none;stroke:black;stroke-width:1" />
  <polygon points="42.012,37.0795 247.014,37.0795 247.014,63.1325 42.012,63.1325" style="fill:none;stroke:none;" />
  <text dominant-baseline="hanging" text-anchor="start" transform="translate(70.012,45.0795)" font-family="Segoe UI" font-size="12" font-weight="400" fill="black">7-Tage-Inzidenz Stadt Aachen 22.09.2021</text>
  <polyline points="50.012,50.106 66.012,50.106" style="fill:none;stroke:rgb(31,119,180);stroke-width:2" />
</svg>