<?xml version="1.0" encoding="utf-8" standalone="no"?>
<!DOCTYPE svg PUBLIC "-//W3C//DTD SVG 1.1//EN" "http://www.w3.org/Graphics/SVG/1.1/DTD/svg11.dtd">
<svg width="600" height="400" version="1.1" xmlns:xlink="http://www.w3.org/1999/xlink" xmlns="http://www.w3.org/2000/svg">
  <rect x="0" y="0" width="600" height="400" style="fill:rgb(255,255,255);stroke:none;" />
  <polyline points="34.012,362.7539 30.012,362.7539" style="fill:none;stroke:black;stroke-width:1" />
  <polyline points="34.012,348.3289 30.012,348.3289" style="fill:none;stroke:black;stroke-width:1" />
  <polyline points="34.012,333.904 30.012,333.904" style="fill:none;stroke:black;stroke-width:1" />
  <polyline points="34.012,319.479 30.012,319.479" style="fill:none;stroke:black;stroke-width:1" />
  <polyline points="34.012,290.6291 30.012,290.6291" style="fill:none;stroke:black;stroke-width:1" />
  <polyline points="34.012,276.2041 30.012,276.2041" style="fill:none;stroke:black;stroke-width:1" />
  <polyline points="34.012,261.7792 30.012,261.7792" style="fill:none;stroke:black;stroke-width:1" />
  <polyline points="34.012,247.3542 30.012,247.3542" style="fill:none;stroke:black;stroke-width:1" />
  <polyline points="34.012,218.5043 30.012,218.5043" style="fill:none;stroke:black;stroke-width:1" />
  <polyline points="34.012,204.0794 30.012,204.0794" style="fill:none;stroke:black;stroke-width:1" />
  <polyline points="34.012,189.6544 30.012,189.6544" style="fill:none;stroke:black;stroke-width:1" />
  <polyline points="34.012,175.2295 30.012,175.2295" style="fill:none;stroke:black;stroke-width:1" />
  <polyline points="34.012,146.3796 30.012,146.3796" style="fill:none;stroke:black;stroke-width:1" />
  <polyline points="34.012,131.9546 30.012,131.9546" style="fill:none;stroke:black;stroke-width:1" />
  <polyline points="34.012,117.5297 30.012,117.5297" style="fill:none;stroke:black;stroke-width:1" />
  <polyline points="34.012,103.1047 30.012,103.1047" style="fill:none;stroke:black;stroke-width:1" />
  <polyline points="34.012,74.2548 30.012,74.2548" style="fill:none;stroke:black;stroke-width:1" />
  <polyline points="34.012,59.8299 30.012,59.8299" style="fill:none;stroke:black;stroke-width:1" />
  <polyline points="34.012,45.4049 30.012,45.4049" style="fill:none;stroke:black;stroke-width:1" />
  <polyline points="34.012,30.98 30.012,30.98" style="fill:none;stroke:black;stroke-width:1" />
  <text dominant-baseline="middle" text-anchor="end" transform="translate(23.012,305.0541)" font-family="Segoe UI" font-size="12" font-weight="400" fill="black">50</text>
  <text dominant-baseline="middle" text-anchor="end" transform="translate(23.012,232.9293)" font-family="Segoe UI" font-size="12" font-weight="400" fill="black">100</text>
  <text dominant-baseline="middle" text-anchor="end" transform="translate(23.012,160.8045)" font-family="Segoe UI" font-size="12" font-weight="400" fill="black">150</text>
  <text dominant-baseline="middle" text-anchor="end" transform="translate(23.012,88.6798)" font-family="Segoe UI" font-size="12" font-weight="400" fill="black">200</text>
  <polyline points="34.012,305.0541 27.012,305.0541" style="fill:none;stroke:black;stroke-width:1" />
  <polyline points="34.012,232.9293 27.012,232.9293" style="fill:none;stroke:black;stroke-width:1" />
  <polyline points="34.012,160.8045 27.012,160.8045" style="fill:none;stroke:black;stroke-width:1" />
  <polyline points="34.012,88.6798 27.012,88.6798" style="fill:none;stroke:black;stroke-width:1" />
  <text dominant-baseline="hanging" text-anchor="middle" transform="translate(82.9583,381.947)" font-family="Segoe UI" font-size="12" font-weight="400" fill="black">29. August</text>
  <text dominant-baseline="hanging" text-anchor="middle" transform="translate(151.4832,381.947)" font-family="Segoe UI" font-size="12" font-weight="400" fill="black">12. September</text>
  <text dominant-baseline="hanging" text-anchor="middle" transform="translate(220.008,381.947)" font-family="Segoe UI" font-size="12" font-weight="400" fill="black">26. September</text>
  <text dominant-baseline="hanging" text-anchor="middle" transform="translate(288.5328,381.947)" font-family="Segoe UI" font-size="12" font-weight="400" fill="black">10. October</text>
  <text dominant-baseline="hanging" text-anchor="middle" transform="translate(357.0577,381.947)" font-family="Segoe UI" font-size="12" font-weight="400" fill="black">24. October</text>
  <text dominant-baseline="hanging" text-anchor="middle" transform="translate(425.5825,381.947)" font-family="Segoe UI" font-size="12" font-weight="400" fill="black">07. November</text>
  <text dominant-baseline="hanging" text-anchor="middle" transform="translate(494.1074,381.947)" font-family="Segoe UI" font-size="12" font-weight="400" fill="black">21. November</text>
  <text dominant-baseline="hanging" text-anchor="middle" transform="translate(562.6322,381.947)" font-family="Segoe UI" font-size="12" font-weight="400" fill="black">05. December</text>
  <polyline points="82.9583,370.947 82.9583,377.947" style="fill:none;stroke:black;stroke-width:1" />
  <polyline points="151.4832,370.947 151.4832,377.947" style="fill:none;stroke:black;stroke-width:1" />
  <polyline points="220.008,370.947 220.008,377.947" style="fill:none;stroke:black;stroke-width:1" />
  <polyline points="288.5328,370.947 288.5328,377.947" style="fill:none;stroke:black;stroke-width:1" />
  <polyline points="357.0577,370.947 357.0577,377.947" style="fill:none;stroke:black;stroke-width:1" />
  <polyline points="425.5825,370.947 425.5825,377.947" style="fill:none;stroke:black;stroke-width:1" />
  <polyline points="494.1074,370.947 494.1074,377.947" style="fill:none;stroke:black;stroke-width:1" />
  <polyline points="562.6322,370.947 562.6322,377.947" style="fill:none;stroke:black;stroke-width:1" />
  <polyline points="34.012,356.8142 38.9066,356.3899 43.8013,362.471 58.4852,358.5112 63.3798,362.471 68.2744,363.0367 73.1691,363.6024 78.0637,362.471 92.7476,366.9965 97.6422,365.2994 102.5368,365.8651 107.4315,365.2994 112.3261,365.2994 127.01,365.8651 131.9046,367.5622 136.7993,365.8651 141.6939,365.2994 146.5885,363.0367 161.2724,356.8142 166.1671,352.2887 171.0617,347.1975 175.9563,346.6319 180.8509,342.1064 195.5348,347.7632 200.4295,348.3289 205.3241,352.2887 210.2187,350.5916 215.1134,351.723 229.7973,335.8838 234.6919,336.4495 239.5865,335.3182 244.4812,325.1358 249.3758,319.479 264.0597,312.6908 268.9543,313.8222 273.8489,305.9026 278.7436,304.7528 283.6382,307.6498 298.3221,292.5852 303.2167,290.847 308.1114,285.6323 313.006,275.2029 317.9006,253.1854 332.5845,230.5885 337.4792,225.9532 342.3738,221.8974 347.2684,202.7769 352.1631,202.1975 366.8469,137.3037 371.7416,132.0891 376.6362,129.192 381.5308,131.5096 386.4255,98.4834 401.1094,118.1833 406.004,107.7539 410.8986,108.9127 415.7933,101.3804 420.6879,119.3421 435.3718,90.9511 440.2664,84.5776 445.1611,58.5042 454.9503,32.4308 469.6342,61.4012 474.5288,75.8864 479.4235,84.5776 484.3181,65.3847 489.2127,120.5009 503.8966,167.433 508.7913,150.6301 513.6859,153.5272 518.5805,208.571 523.4752,185.974 538.1591,188.8711 543.0537,213.7856 547.9483,225.9532 552.8429,198.1416 557.7376,202.1975 572.4215,179.0211 577.3161,181.3388 582.2107,179.6005 587.1054,151.2095 592,173.2271" style="fill:none;stroke:rgb(31,119,180);stroke-width:2;stroke-linejoin:bevel" />
  <text dominant-baseline="hanging" text-anchor="middle" transform="translate(313.006,8)" font-family="Segoe UI" font-size="18" font-weight="700" fill="black">7-Tage-Inzidenz Stadt Aachen 11.12.2020</text>
  <polygon points="34.012,29.0795 592,29.0795 592,370.947 34.012,370.947" style="fill:none;stroke:black;stroke-width:1" />
  <polygon points="42.012,37.0795 247.014,37.0795 247.014,63.1325 42.012,63.1325" style="fill:none;stroke:none;" />
  <text dominant-baseline="hanging" text-anchor="start" transform="translate(70.012,45.0795)" font-family="Segoe UI" font-size="12" font-weight="400" fill="black">7-Tage-Inzidenz Stadt Aachen 11.12.2020</text>
  <polyline points="50.012,50.106 66.012,50.106" style="fill:none;stroke:rgb(31,119,180);stroke-width:2" />
</svg>