<?xml version="1.0" encoding="utf-8" standalone="no"?>
<!DOCTYPE svg PUBLIC "-//W3C//DTD SVG 1.1//EN" "http://www.w3.org/Graphics/SVG/1.1/DTD/svg11.dtd">
<svg width="600" height="400" version="1.1" xmlns:xlink="http://www.w3.org/1999/xlink" xmlns="http://www.w3.org/2000/svg">
  <rect x="0" y="0" width="600" height="400" style="fill:rgb(255,255,255);stroke:none;" />
  <polyline points="49.024,345.2244 45.024,345.2244" style="fill:none;stroke:black;stroke-width:1" />
  <polyline points="49.024,322.8792 45.024,322.8792" style="fill:none;stroke:black;stroke-width:1" />
  <polyline points="49.024,300.5341 45.024,300.5341" style="fill:none;stroke:black;stroke-width:1" />
  <polyline points="49.024,278.1889 45.024,278.1889" style="fill:none;stroke:black;stroke-width:1" />
  <polyline points="49.024,233.4985 45.024,233.4985" style="fill:none;stroke:black;stroke-width:1" />
  <polyline points="49.024,211.1533 45.024,211.1533" style="fill:none;stroke:black;stroke-width:1" />
  <polyline points="49.024,188.8081 45.024,188.8081" style="fill:none;stroke:black;stroke-width:1" />
  <polyline points="49.024,166.4629 45.024,166.4629" style="fill:none;stroke:black;stroke-width:1" />
  <polyline points="49.024,121.7725 45.024,121.7725" style="fill:none;stroke:black;stroke-width:1" />
  <polyline points="49.024,99.4273 45.024,99.4273" style="fill:none;stroke:black;stroke-width:1" />
  <polyline points="49.024,77.0822 45.024,77.0822" style="fill:none;stroke:black;stroke-width:1" />
  <polyline points="49.024,54.737 45.024,54.737" style="fill:none;stroke:black;stroke-width:1" />
  <text dominant-baseline="middle" text-anchor="end" transform="translate(38.024,367.5696)" font-family="Segoe UI" font-size="12" font-weight="400" fill="black">0</text>
  <text dominant-baseline="middle" text-anchor="end" transform="translate(38.024,255.8437)" font-family="Segoe UI" font-size="12" font-weight="400" fill="black">100000</text>
  <text dominant-baseline="middle" text-anchor="end" transform="translate(38.024,144.1177)" font-family="Segoe UI" font-size="12" font-weight="400" fill="black">200000</text>
  <text dominant-baseline="middle" text-anchor="end" transform="translate(38.024,32.3918)" font-family="Segoe UI" font-size="12" font-weight="400" fill="black">300000</text>
  <polyline points="49.024,367.5696 42.024,367.5696" style="fill:none;stroke:black;stroke-width:1" />
  <polyline points="49.024,255.8437 42.024,255.8437" style="fill:none;stroke:black;stroke-width:1" />
  <polyline points="49.024,144.1177 42.024,144.1177" style="fill:none;stroke:black;stroke-width:1" />
  <polyline points="49.024,32.3918 42.024,32.3918" style="fill:none;stroke:black;stroke-width:1" />
  <text dominant-baseline="hanging" text-anchor="middle" transform="translate(86.175,381.947)" font-family="Segoe UI" font-size="12" font-weight="400" fill="black">01. September</text>
  <text dominant-baseline="hanging" text-anchor="middle" transform="translate(171.908,381.947)" font-family="Segoe UI" font-size="12" font-weight="400" fill="black">01. October</text>
  <text dominant-baseline="hanging" text-anchor="middle" transform="translate(260.4989,381.947)" font-family="Segoe UI" font-size="12" font-weight="400" fill="black">01. November</text>
  <text dominant-baseline="hanging" text-anchor="middle" transform="translate(346.2319,381.947)" font-family="Segoe UI" font-size="12" font-weight="400" fill="black">01. December</text>
  <text dominant-baseline="hanging" text-anchor="middle" transform="translate(434.8227,381.947)" font-family="Segoe UI" font-size="12" font-weight="400" fill="black">01. January</text>
  <text dominant-baseline="hanging" text-anchor="middle" transform="translate(523.4136,381.947)" font-family="Segoe UI" font-size="12" font-weight="400" fill="black">01. February</text>
  <polyline points="86.175,370.947 86.175,377.947" style="fill:none;stroke:black;stroke-width:1" />
  <polyline points="171.908,370.947 171.908,377.947" style="fill:none;stroke:black;stroke-width:1" />
  <polyline points="260.4989,370.947 260.4989,377.947" style="fill:none;stroke:black;stroke-width:1" />
  <polyline points="346.2319,370.947 346.2319,377.947" style="fill:none;stroke:black;stroke-width:1" />
  <polyline points="434.8227,370.947 434.8227,377.947" style="fill:none;stroke:black;stroke-width:1" />
  <polyline points="523.4136,370.947 523.4136,377.947" style="fill:none;stroke:black;stroke-width:1" />
  <polyline points="49.024,367.5538 51.8818,367.5535 54.7395,367.5582 63.3128,367.5552 66.1706,367.5582 69.0284,367.5587 71.8861,367.5591 74.7439,367.5582 83.3172,367.5617 86.175,367.5604 89.0328,367.5609 91.8905,367.5604 94.7483,367.5604 103.3216,367.5609 106.1794,367.5622 109.0371,367.5609 111.8949,367.5604 114.7527,367.5587 123.326,367.5538 126.1837,367.5503 129.0415,367.5464 131.8993,367.546 134.7571,367.5425 143.3304,367.5468 146.1881,367.5473 149.0459,367.5503 151.9037,367.549 154.7614,367.5499 163.3347,367.5376 166.1925,367.5381 169.0503,367.5372 171.908,367.5293 174.7658,367.5249 183.3391,367.5197 186.1969,367.5205 189.0547,367.5144 191.9124,367.5135 194.7702,367.5158 203.3435,367.5041 206.2013,367.5028 209.059,367.4987 211.9168,367.4906 214.7746,367.4736 223.3479,367.4561 226.2056,367.4525 229.0634,367.4494 231.9212,367.4345 234.7789,367.4341 243.3523,367.3838 246.21,367.3798 249.0678,367.3775 251.9256,367.3793 254.7833,367.3538 263.3566,367.369 266.2144,367.3609 269.0722,367.3618 271.9299,367.356 274.7877,367.3699 283.361,367.3479 286.2188,367.343 289.0765,367.3228 294.7921,367.3026 303.3654,367.325 306.2232,367.3363 309.0809,367.343 311.9387,367.3281 314.7965,367.3708 323.3698,367.4072 326.2275,367.3942 329.0853,367.3964 331.9431,367.439 334.8008,367.4215 343.3741,367.4238 346.2319,367.4431 349.0897,367.4525 351.9475,367.431 354.8052,367.4341 363.3785,367.4161 366.2363,367.4179 369.0941,367.4166 371.9518,367.3946 374.8096,367.4117 383.3829,367.3968 386.2407,367.3892 389.0984,367.3802 391.9562,367.3901 394.814,367.3816 403.3873,367.3677 406.2451,367.3681 409.1028,367.3865 423.3917,367.3991 426.2494,367.3973 429.1072,367.3816 431.965,367.3831 443.396,367.4413 446.2538,367.4597 449.1116,367.4718 451.9693,367.461 454.8271,367.4448 466.2582,367.4269 469.116,367.4287 471.9737,367.4458 474.8315,367.4691 483.4048,367.4757 486.2626,367.4911 489.1203,367.4844 491.9781,367.4983 494.8359,367.4987 503.4092,367.4884 509.1247,367.4942 511.9825,367.4785 514.8403,367.4695 523.4136,367.4821 526.2713,367.4931 529.1291,367.4884 531.9869,367.4942 534.8446,367.5028 543.4179,367.505 546.2757,367.5028 549.1335,367.4906 551.9912,367.4915 554.849,367.4862 563.4223,367.4974 566.2801,367.4987 569.1379,367.5149 571.9956,367.5203 574.8534,367.5328 583.4267,367.5328 586.2845,367.5337 589.1422,32.4308 592,367.527" style="fill:none;stroke:rgb(31,119,180);stroke-width:2;stroke-linejoin:bevel" />
  <text dominant-baseline="hanging" text-anchor="middle" transform="translate(320.512,8)" font-family="Segoe UI" font-size="18" font-weight="700" fill="black">7-Tage-Inzidenz Stadt Aachen 25.02.2021</text>
  <polygon points="49.024,29.0795 592,29.0795 592,370.947 49.024,370.947" style="fill:none;stroke:black;stroke-width:1" />
  <polygon points="57.024,37.0795 262.026,37.0795 262.026,63.1325 57.024,63.1325" style="fill:none;stroke:none;" />
  <text dominant-baseline="hanging" text-anchor="start" transform="translate(85.024,45.0795)" font-family="Segoe UI" font-size="12" font-weight="400" fill="black">7-Tage-Inzidenz Stadt Aachen 25.02.2021</text>
  <polyline points="65.024,50.106 81.024,50.106" style="fill:none;stroke:rgb(31,119,180);stroke-width:2" />
</svg>