<?xml version="1.0" encoding="utf-8" standalone="no"?>
<!DOCTYPE svg PUBLIC "-//W3C//DTD SVG 1.1//EN" "http://www.w3.org/Graphics/SVG/1.1/DTD/svg11.dtd">
<svg width="600" height="400" version="1.1" xmlns:xlink="http://www.w3.org/1999/xlink" xmlns="http://www.w3.org/2000/svg">
  <rect x="0" y="0" width="600" height="400" style="fill:rgb(255,255,255);stroke:none;" />
  <polyline points="34.012,353.4851 30.012,353.4851" style="fill:none;stroke:black;stroke-width:1" />
  <polyline points="34.012,339.4649 30.012,339.4649" style="fill:none;stroke:black;stroke-width:1" />
  <polyline points="34.012,325.4447 30.012,325.4447" style="fill:none;stroke:black;stroke-width:1" />
  <polyline points="34.012,311.4245 30.012,311.4245" style="fill:none;stroke:black;stroke-width:1" />
  <polyline points="34.012,283.3841 30.012,283.3841" style="fill:none;stroke:black;stroke-width:1" />
  <polyline points="34.012,269.3639 30.012,269.3639" style="fill:none;stroke:black;stroke-width:1" />
  <polyline points="34.012,255.3438 30.012,255.3438" style="fill:none;stroke:black;stroke-width:1" />
  <polyline points="34.012,241.3236 30.012,241.3236" style="fill:none;stroke:black;stroke-width:1" />
  <polyline points="34.012,213.2832 30.012,213.2832" style="fill:none;stroke:black;stroke-width:1" />
  <polyline points="34.012,199.263 30.012,199.263" style="fill:none;stroke:black;stroke-width:1" />
  <polyline points="34.012,185.2428 30.012,185.2428" style="fill:none;stroke:black;stroke-width:1" />
  <polyline points="34.012,171.2226 30.012,171.2226" style="fill:none;stroke:black;stroke-width:1" />
  <polyline points="34.012,143.1822 30.012,143.1822" style="fill:none;stroke:black;stroke-width:1" />
  <polyline points="34.012,129.162 30.012,129.162" style="fill:none;stroke:black;stroke-width:1" />
  <polyline points="34.012,115.1418 30.012,115.1418" style="fill:none;stroke:black;stroke-width:1" />
  <polyline points="34.012,101.1216 30.012,101.1216" style="fill:none;stroke:black;stroke-width:1" />
  <polyline points="34.012,73.0813 30.012,73.0813" style="fill:none;stroke:black;stroke-width:1" />
  <polyline points="34.012,59.0611 30.012,59.0611" style="fill:none;stroke:black;stroke-width:1" />
  <polyline points="34.012,45.0409 30.012,45.0409" style="fill:none;stroke:black;stroke-width:1" />
  <polyline points="34.012,31.0207 30.012,31.0207" style="fill:none;stroke:black;stroke-width:1" />
  <text dominant-baseline="middle" text-anchor="end" transform="translate(23.012,367.5053)" font-family="Segoe UI" font-size="12" font-weight="400" fill="black">0</text>
  <text dominant-baseline="middle" text-anchor="end" transform="translate(23.012,297.4043)" font-family="Segoe UI" font-size="12" font-weight="400" fill="black">50</text>
  <text dominant-baseline="middle" text-anchor="end" transform="translate(23.012,227.3034)" font-family="Segoe UI" font-size="12" font-weight="400" fill="black">100</text>
  <text dominant-baseline="middle" text-anchor="end" transform="translate(23.012,157.2024)" font-family="Segoe UI" font-size="12" font-weight="400" fill="black">150</text>
  <text dominant-baseline="middle" text-anchor="end" transform="translate(23.012,87.1015)" font-family="Segoe UI" font-size="12" font-weight="400" fill="black">200</text>
  <polyline points="34.012,367.5053 27.012,367.5053" style="fill:none;stroke:black;stroke-width:1" />
  <polyline points="34.012,297.4043 27.012,297.4043" style="fill:none;stroke:black;stroke-width:1" />
  <polyline points="34.012,227.3034 27.012,227.3034" style="fill:none;stroke:black;stroke-width:1" />
  <polyline points="34.012,157.2024 27.012,157.2024" style="fill:none;stroke:black;stroke-width:1" />
  <polyline points="34.012,87.1015 27.012,87.1015" style="fill:none;stroke:black;stroke-width:1" />
  <text dominant-baseline="hanging" text-anchor="middle" transform="translate(215.742,381.947)" font-family="Segoe UI" font-size="12" font-weight="400" fill="black">01. January</text>
  <polyline points="215.742,370.947 215.742,377.947" style="fill:none;stroke:black;stroke-width:1" />
  <polyline points="34.012,367.5622 36.5716,367.5621 40.4109,367.5621 41.6907,367.562 42.9705,347.7121 44.2503,347.2997 45.5301,353.2102 49.3695,349.3615 50.6493,353.2102 51.929,353.76 53.2088,354.3098 54.4886,353.2102 58.328,357.6087 59.6078,355.9593 60.8876,356.5091 62.1674,355.9593 63.4471,355.9593 67.2865,356.5091 68.5663,358.1585 69.8461,356.5091 71.1259,355.9593 72.4057,353.76 76.245,347.7121 77.5248,343.3136 78.8046,338.3653 80.0844,337.8155 81.3642,333.417 85.2036,338.9151 86.4833,339.4649 87.7631,343.3136 89.0429,341.6642 90.3227,342.7638 94.1621,327.3691 95.4419,327.9189 96.7217,326.8192 98.0014,316.9226 99.2812,311.4245 103.1206,304.8268 104.4004,305.9264 105.6802,298.229 106.96,297.1115 108.2398,299.9272 112.0791,285.2853 113.3589,283.5959 114.6387,278.5275 115.9185,268.3908 117.1983,246.9911 121.0377,225.0282 122.3174,220.523 123.5972,216.581 124.877,197.997 126.1568,197.4339 129.9962,134.361 131.276,129.2927 132.5558,126.4769 133.8355,128.7295 135.1153,96.63 138.9547,115.7771 140.2345,105.6404 141.5143,106.7667 142.7941,99.4457 144.0739,116.9034 147.9132,89.309 149.193,83.1143 150.4728,57.7726 153.0324,32.4308 156.8717,60.5883 158.1515,74.6671 159.4313,83.1143 160.7111,64.46 161.9909,118.0297 165.8303,163.6449 167.1101,147.3135 168.3898,150.1292 169.6696,203.6285 170.9494,181.6657 174.7888,184.4814 176.0686,208.6969 177.3484,220.523 178.6282,193.4918 179.9079,197.4339 183.7473,174.9079 185.0271,177.1605 186.3069,175.471 187.5867,147.8766 188.8665,169.2764 192.7058,150.6924 193.9856,141.1188 195.2654,129.8558 196.5452,142.2451 197.825,131.5453 201.6644,114.0876 202.9441,114.6508 204.2239,137.7399 210.6229,153.5081 211.9027,151.2555 213.1825,131.5453 214.4622,133.4459 219.5814,206.4443 220.8612,229.5334 222.141,244.7385 223.4208,231.2229 224.7006,210.8087 229.8197,188.4235 231.0995,190.6761 232.3793,212.0758 233.6591,241.3596 237.4984,249.6379 238.7782,268.954 240.058,260.5067 241.3378,277.9644 242.6176,278.5275 246.457,265.5751 249.0166,272.896 250.2963,253.1858 251.5761,241.9228 255.4155,257.691 256.6953,271.4178 257.9751,265.5751 259.2549,272.896 260.5347,283.5959 264.374,286.4116 265.6538,283.5959 266.9336,268.3908 268.2134,269.5171 269.4932,262.7593 273.3325,276.8381 274.6123,278.5275 275.8921,298.8009 277.1719,305.5587 278.4517,321.327 282.2911,321.327 283.5709,322.4533 284.8506,313.4429 286.1304,314.006 287.4102,309.5008 291.2496,320.7638 292.5294,319.6375 293.8092,315.6955 295.089,293.1694 296.3687,287.5379 300.2081,258.8173 301.4879,258.8173 302.7677,257.1278 304.0475,271.7697 305.3273,265.5751 309.1666,255.4384 310.4464,256.0015 311.7262,248.6806 313.006,221.0862 314.2858,203.6285 318.1252,195.7444 319.4049,195.1813 320.6847,199.6865 321.9645,188.4235 323.2443,200.8128 327.0837,218.8336 328.3635,215.4547 329.6433,222.2125 330.923,237.9807 332.2028,213.2021 337.322,200.2496 338.6018,214.8915 339.8816,196.8707 341.1614,229.5334 345.0007,220.4667 346.2805,210.9495 347.5603,164.208 348.8401,184.4814 350.1199,180.5394 353.9592,172.0921 355.239,153.5081 356.5188,158.5765 357.7986,145.0609 359.0784,121.4086 362.9178,102.8246 364.1976,118.5928 365.4773,132.6716 366.7571,127.0401 368.0369,129.8558 371.8763,155.1976 373.1561,143.3714 374.4359,137.1768 375.7157,169.8395 376.9954,189.5498 380.8348,199.1233 382.1146,208.1337 383.3944,220.523 385.954,188.9866 389.7933,191.8024 391.0731,177.7236 392.3529,172.0921 393.6327,176.3157 394.9125,210.9495 400.0317,257.691 401.3114,281.9064 402.5912,291.48 403.871,294.8589 407.7104,302.4614 408.9902,307.2482 410.27,306.1219 412.8295,326.3953 416.6689,341.6004 417.9487,346.6687 419.2285,351.1739 420.5083,350.2588 421.7881,355.6791 425.6274,358.4949 426.9072,357.3686 428.187,357.3686 429.4668,356.2423 430.7466,353.4265 434.586,353.4265 435.8657,352.8634 437.1455,356.2423 438.4253,359.6212 439.7051,361.3106 443.5445,360.7475 444.8243,362.4369 446.1041,359.058 447.3838,355.6791 448.6636,356.8054 452.503,356.8054 455.0626,357.3686 457.6222,359.6212 461.4615,360.7475 464.0211,353.9897 466.5807,343.2898 472.9796,332.0268 475.5392,317.9481 481.9381,316.2586 484.4977,329.7742 490.8967,329.2111 493.4562,323.0164 499.8552,294.8589 502.4148,262.7593 508.8137,253.7489 511.3733,268.3908 517.7722,201.3759 520.3318,191.8024 526.7308,233.4755 529.2903,222.2125 538.2489,240.2333 547.2074,272.896 553.6063,284.7222 556.1659,290.9168 562.5649,295.422 565.1244,306.6851 571.5234,321.8901 574.083,321.8901 580.4819,321.327 583.0415,320.7638 589.4404,320.7638 592,302.743" style="fill:none;stroke:rgb(31,119,180);stroke-width:2;stroke-linejoin:bevel" />
  <text dominant-baseline="hanging" text-anchor="middle" transform="translate(313.006,8)" font-family="Segoe UI" font-size="18" font-weight="700" fill="black">7-Tage-Inzidenz Stadt Aachen 22.10.2021</text>
  <polygon points="34.012,29.0795 592,29.0795 592,370.947 34.012,370.947" style="fill:none;stroke:black;stroke-width:1" />
  <polygon points="42.012,37.0795 247.014,37.0795 247.014,63.1325 42.012,63.1325" style="fill:none;stroke:none;" />
  <text dominant-baseline="hanging" text-anchor="start" transform="translate(70.012,45.0795)" font-family="Segoe UI" font-size="12" font-weight="400" fill="black">7-Tage-Inzidenz Stadt Aachen 22.10.2021</text>
  <polyline points="50.012,50.106 66.012,50.106" style="fill:none;stroke:rgb(31,119,180);stroke-width:2" />
</svg>