<?xml version="1.0" encoding="utf-8" standalone="no"?>
<!DOCTYPE svg PUBLIC "-//W3C//DTD SVG 1.1//EN" "http://www.w3.org/Graphics/SVG/1.1/DTD/svg11.dtd">
<svg width="600" height="400" version="1.1" xmlns:xlink="http://www.w3.org/1999/xlink" xmlns="http://www.w3.org/2000/svg">
  <rect x="0" y="0" width="600" height="400" style="fill:rgb(255,255,255);stroke:none;" />
  <polyline points="34.012,357.7833 30.012,357.7833" style="fill:none;stroke:black;stroke-width:1" />
  <polyline points="34.012,328.4466 30.012,328.4466" style="fill:none;stroke:black;stroke-width:1" />
  <polyline points="34.012,299.1099 30.012,299.1099" style="fill:none;stroke:black;stroke-width:1" />
  <polyline points="34.012,269.7732 30.012,269.7732" style="fill:none;stroke:black;stroke-width:1" />
  <polyline points="34.012,211.0999 30.012,211.0999" style="fill:none;stroke:black;stroke-width:1" />
  <polyline points="34.012,181.7632 30.012,181.7632" style="fill:none;stroke:black;stroke-width:1" />
  <polyline points="34.012,152.4265 30.012,152.4265" style="fill:none;stroke:black;stroke-width:1" />
  <polyline points="34.012,123.0898 30.012,123.0898" style="fill:none;stroke:black;stroke-width:1" />
  <polyline points="34.012,64.4165 30.012,64.4165" style="fill:none;stroke:black;stroke-width:1" />
  <polyline points="34.012,35.0798 30.012,35.0798" style="fill:none;stroke:black;stroke-width:1" />
  <text dominant-baseline="middle" text-anchor="end" transform="translate(23.012,240.4366)" font-family="Segoe UI" font-size="12" font-weight="400" fill="black">50</text>
  <text dominant-baseline="middle" text-anchor="end" transform="translate(23.012,93.7531)" font-family="Segoe UI" font-size="12" font-weight="400" fill="black">100</text>
  <polyline points="34.012,240.4366 27.012,240.4366" style="fill:none;stroke:black;stroke-width:1" />
  <polyline points="34.012,93.7531 27.012,93.7531" style="fill:none;stroke:black;stroke-width:1" />
  <text dominant-baseline="hanging" text-anchor="middle" transform="translate(121.1976,381.947)" font-family="Segoe UI" font-size="12" font-weight="400" fill="black">29. August</text>
  <text dominant-baseline="hanging" text-anchor="middle" transform="translate(243.2575,381.947)" font-family="Segoe UI" font-size="12" font-weight="400" fill="black">12. September</text>
  <text dominant-baseline="hanging" text-anchor="middle" transform="translate(365.3174,381.947)" font-family="Segoe UI" font-size="12" font-weight="400" fill="black">26. September</text>
  <text dominant-baseline="hanging" text-anchor="middle" transform="translate(487.3773,381.947)" font-family="Segoe UI" font-size="12" font-weight="400" fill="black">10. October</text>
  <polyline points="121.1976,370.947 121.1976,377.947" style="fill:none;stroke:black;stroke-width:1" />
  <polyline points="243.2575,370.947 243.2575,377.947" style="fill:none;stroke:black;stroke-width:1" />
  <polyline points="365.3174,370.947 365.3174,377.947" style="fill:none;stroke:black;stroke-width:1" />
  <polyline points="487.3773,370.947 487.3773,377.947" style="fill:none;stroke:black;stroke-width:1" />
  <polyline points="34.012,345.7035 42.7306,344.8406 51.4491,357.2081 77.6048,349.1548 86.3234,357.2081 95.0419,358.3585 103.7605,359.509 112.4791,357.2081 138.6348,366.4117 147.3533,362.9603 156.0719,364.1108 164.7904,362.9603 173.509,362.9603 199.6647,364.1108 208.3833,367.5622 217.1018,364.1108 225.8204,362.9603 234.5389,358.3585 260.6946,345.7035 269.4132,336.4998 278.1318,326.1457 286.8503,324.9952 295.5689,315.7916 321.7246,327.2961 330.4431,328.4466 339.1617,336.4998 347.8803,333.0484 356.5988,335.3493 382.7545,303.1365 391.4731,304.287 400.1916,301.9861 408.9102,281.2778 417.6288,269.7732 443.7844,255.9677 452.503,258.2687 461.2216,242.1622 469.9401,239.8238 478.6587,245.7156 504.8144,215.078 513.5329,211.5429 522.2515,200.9376 530.9701,179.727 539.6886,134.9489 565.8443,88.9925 574.5629,79.5656 583.2814,71.317 592,32.4308" style="fill:none;stroke:rgb(31,119,180);stroke-width:2;stroke-linejoin:bevel" />
  <text dominant-baseline="hanging" text-anchor="middle" transform="translate(313.006,8)" font-family="Segoe UI" font-size="18" font-weight="700" fill="black">7-Tage-Inzidenz Stadt Aachen 22.10.2020</text>
  <polygon points="34.012,29.0795 592,29.0795 592,370.947 34.012,370.947" style="fill:none;stroke:black;stroke-width:1" />
  <polygon points="42.012,37.0795 247.014,37.0795 247.014,63.1325 42.012,63.1325" style="fill:none;stroke:none;" />
  <text dominant-baseline="hanging" text-anchor="start" transform="translate(70.012,45.0795)" font-family="Segoe UI" font-size="12" font-weight="400" fill="black">7-Tage-Inzidenz Stadt Aachen 22.10.2020</text>
  <polyline points="50.012,50.106 66.012,50.106" style="fill:none;stroke:rgb(31,119,180);stroke-width:2" />
</svg>