<?xml version="1.0" encoding="utf-8" standalone="no"?>
<!DOCTYPE svg PUBLIC "-//W3C//DTD SVG 1.1//EN" "http://www.w3.org/Graphics/SVG/1.1/DTD/svg11.dtd">
<svg width="600" height="400" version="1.1" xmlns:xlink="http://www.w3.org/1999/xlink" xmlns="http://www.w3.org/2000/svg">
  <rect x="0" y="0" width="600" height="400" style="fill:rgb(255,255,255);stroke:none;" />
  <polyline points="34.012,362.4131 30.012,362.4131" style="fill:none;stroke:black;stroke-width:1" />
  <polyline points="34.012,348.003 30.012,348.003" style="fill:none;stroke:black;stroke-width:1" />
  <polyline points="34.012,333.5929 30.012,333.5929" style="fill:none;stroke:black;stroke-width:1" />
  <polyline points="34.012,319.1829 30.012,319.1829" style="fill:none;stroke:black;stroke-width:1" />
  <polyline points="34.012,290.3627 30.012,290.3627" style="fill:none;stroke:black;stroke-width:1" />
  <polyline points="34.012,275.9527 30.012,275.9527" style="fill:none;stroke:black;stroke-width:1" />
  <polyline points="34.012,261.5426 30.012,261.5426" style="fill:none;stroke:black;stroke-width:1" />
  <polyline points="34.012,247.1325 30.012,247.1325" style="fill:none;stroke:black;stroke-width:1" />
  <polyline points="34.012,218.3124 30.012,218.3124" style="fill:none;stroke:black;stroke-width:1" />
  <polyline points="34.012,203.9023 30.012,203.9023" style="fill:none;stroke:black;stroke-width:1" />
  <polyline points="34.012,189.4922 30.012,189.4922" style="fill:none;stroke:black;stroke-width:1" />
  <polyline points="34.012,175.0822 30.012,175.0822" style="fill:none;stroke:black;stroke-width:1" />
  <polyline points="34.012,146.262 30.012,146.262" style="fill:none;stroke:black;stroke-width:1" />
  <polyline points="34.012,131.852 30.012,131.852" style="fill:none;stroke:black;stroke-width:1" />
  <polyline points="34.012,117.4419 30.012,117.4419" style="fill:none;stroke:black;stroke-width:1" />
  <polyline points="34.012,103.0318 30.012,103.0318" style="fill:none;stroke:black;stroke-width:1" />
  <polyline points="34.012,74.2117 30.012,74.2117" style="fill:none;stroke:black;stroke-width:1" />
  <polyline points="34.012,59.8016 30.012,59.8016" style="fill:none;stroke:black;stroke-width:1" />
  <polyline points="34.012,45.3915 30.012,45.3915" style="fill:none;stroke:black;stroke-width:1" />
  <polyline points="34.012,30.9815 30.012,30.9815" style="fill:none;stroke:black;stroke-width:1" />
  <polyline points="57.6402,370.947 57.6402,374.947" style="fill:none;stroke:black;stroke-width:1" />
  <polyline points="168.5107,370.947 168.5107,374.947" style="fill:none;stroke:black;stroke-width:1" />
  <polyline points="279.3813,370.947 279.3813,374.947" style="fill:none;stroke:black;stroke-width:1" />
  <polyline points="386.6168,370.947 386.6168,374.947" style="fill:none;stroke:black;stroke-width:1" />
  <polyline points="497.4874,370.947 497.4874,374.947" style="fill:none;stroke:black;stroke-width:1" />
  <text dominant-baseline="middle" text-anchor="end" transform="translate(23.012,304.7728)" font-family="Segoe UI" font-size="12" font-weight="400" fill="black">50</text>
  <text dominant-baseline="middle" text-anchor="end" transform="translate(23.012,232.7224)" font-family="Segoe UI" font-size="12" font-weight="400" fill="black">100</text>
  <text dominant-baseline="middle" text-anchor="end" transform="translate(23.012,160.6721)" font-family="Segoe UI" font-size="12" font-weight="400" fill="black">150</text>
  <text dominant-baseline="middle" text-anchor="end" transform="translate(23.012,88.6218)" font-family="Segoe UI" font-size="12" font-weight="400" fill="black">200</text>
  <polyline points="34.012,304.7728 27.012,304.7728" style="fill:none;stroke:black;stroke-width:1" />
  <polyline points="34.012,232.7224 27.012,232.7224" style="fill:none;stroke:black;stroke-width:1" />
  <polyline points="34.012,160.6721 27.012,160.6721" style="fill:none;stroke:black;stroke-width:1" />
  <polyline points="34.012,88.6218 27.012,88.6218" style="fill:none;stroke:black;stroke-width:1" />
  <text dominant-baseline="hanging" text-anchor="middle" transform="translate(112.1667,381.947)" font-family="Segoe UI" font-size="12" font-weight="400" fill="black">01. October</text>
  <text dominant-baseline="hanging" text-anchor="middle" transform="translate(223.0373,381.947)" font-family="Segoe UI" font-size="12" font-weight="400" fill="black">01. December</text>
  <text dominant-baseline="hanging" text-anchor="middle" transform="translate(335.7254,381.947)" font-family="Segoe UI" font-size="12" font-weight="400" fill="black">01. February</text>
  <text dominant-baseline="hanging" text-anchor="middle" transform="translate(442.9609,381.947)" font-family="Segoe UI" font-size="12" font-weight="400" fill="black">01. April</text>
  <text dominant-baseline="hanging" text-anchor="middle" transform="translate(553.8314,381.947)" font-family="Segoe UI" font-size="12" font-weight="400" fill="black">01. June</text>
  <polyline points="112.1667,370.947 112.1667,377.947" style="fill:none;stroke:black;stroke-width:1" />
  <polyline points="223.0373,370.947 223.0373,377.947" style="fill:none;stroke:black;stroke-width:1" />
  <polyline points="335.7254,370.947 335.7254,377.947" style="fill:none;stroke:black;stroke-width:1" />
  <polyline points="442.9609,370.947 442.9609,377.947" style="fill:none;stroke:black;stroke-width:1" />
  <polyline points="553.8314,370.947 553.8314,377.947" style="fill:none;stroke:black;stroke-width:1" />
  <polyline points="34.012,356.4795 35.8296,356.0557 37.6471,362.1305 43.0998,358.1748 44.9173,362.1305 46.7349,362.6956 48.5524,363.2607 50.37,362.1305 55.8226,366.6513 57.6402,364.956 59.4577,365.5211 61.2753,364.956 63.0928,364.956 68.5455,365.5211 70.363,367.2164 72.1806,365.5211 73.9981,364.956 75.8157,362.6956 81.2683,356.4795 83.0859,351.9587 84.9034,346.8728 86.721,346.3077 88.5385,341.7869 93.9912,347.4379 95.8087,348.003 97.6263,351.9587 99.4438,350.2634 101.2614,351.3936 106.714,335.5708 108.5316,336.1359 110.3491,335.0057 112.1667,324.8339 113.9842,319.1829 119.4369,312.4017 121.2544,313.5319 123.072,305.6204 124.8895,304.4718 126.7071,307.3659 132.1597,292.3168 133.9773,290.5804 135.7948,285.3711 137.6124,274.9525 139.4299,252.9577 144.8826,230.3841 146.7001,225.7536 148.5177,221.7019 150.3352,202.6011 152.1528,202.0223 157.6054,137.1955 159.423,131.9862 161.2405,129.0922 163.0581,131.4074 164.8756,98.4152 170.3283,118.0948 172.1458,107.6762 173.9634,108.8338 175.7809,101.3093 177.5985,119.2524 183.0511,90.8907 184.8687,84.5238 186.6862,58.4773 190.3213,32.4308 195.774,61.3713 197.5915,75.8416 199.4091,84.5238 201.2266,65.3507 203.0442,120.41 208.4968,167.2937 210.3144,150.5082 212.1319,153.4022 213.9495,208.3892 215.767,185.8156 221.2197,188.7097 223.0373,213.5985 224.8548,225.7536 226.6724,197.9707 228.4899,202.0223 233.9426,178.8699 235.7601,181.1851 237.5777,179.4487 239.3952,151.087 241.2128,173.0818 246.6654,153.981 248.483,144.1413 250.3005,132.5651 252.1181,145.2989 253.9356,134.3015 259.3883,116.3584 261.2058,116.9372 263.0234,140.6684 272.1111,156.8751 273.9287,154.5599 275.7462,134.3015 277.5638,136.255 284.834,211.2833 286.6515,235.0145 288.4691,250.6424 290.2866,236.751 292.1042,215.7691 299.3744,192.7614 301.1919,195.0766 303.0095,217.0714 304.827,247.1696 310.2797,255.6781 312.0972,275.5313 313.9148,266.8491 315.7323,284.7923 317.5499,285.3711 323.0025,272.0584 326.6376,279.583 328.4552,259.3246 330.2727,247.7484 335.7254,263.9551 337.5429,278.0636 339.3605,272.0584 341.178,279.583 342.9956,290.5804 348.4482,293.4744 350.2658,290.5804 352.0833,274.9525 353.9009,276.1101 355.7184,269.1644 361.1711,283.6346 362.9886,285.3711 364.8062,306.2082 366.6237,313.154 368.4413,329.3607 373.8939,329.3607 375.7115,330.5183 377.529,321.2573 379.3466,321.8361 381.1641,317.2056 386.6168,328.7819 388.4343,327.6242 390.2519,323.5726 392.0694,300.4201 393.887,294.632 399.3396,265.1127 401.1572,265.1127 402.9747,263.3763 404.7923,278.4253 406.6099,272.0584 412.0625,261.6398 413.8801,262.2186 415.6976,254.6941 417.5152,226.3324 419.3327,208.3892 424.7854,200.2859 426.6029,199.7071 428.4205,204.3376 430.238,192.7614 432.0556,205.4952 437.5082,224.0171 439.3258,220.5443 441.1433,227.49 442.9609,243.6967 444.7784,218.229 452.0486,204.9164 453.8662,219.9655 455.6837,201.4435 457.5013,235.0145 462.9539,225.6957 464.7715,215.9138 466.589,167.8725 468.4066,188.7097 470.2241,184.658 475.6768,175.9759 477.4943,156.8751 479.3119,162.0844 481.1294,148.1929 482.947,123.8829 488.3996,104.7821 490.2172,120.9888 492.0347,135.4591 493.8523,129.671 495.6698,132.5651 501.1225,158.6115 502.94,146.4565 504.7576,140.0896 506.5751,173.6606 508.3927,193.919 513.8453,203.7588 515.6629,213.0197 517.4804,225.7536 521.1155,193.3402 526.5682,196.2342 528.3857,181.764 530.2033,175.9759 532.0208,180.3169 533.8384,215.9138 541.1086,263.9551 542.9261,288.8439 544.7437,298.6837 546.5612,302.1566 552.0139,309.9705 553.8314,314.8904 555.649,313.7328 559.2841,334.57 564.7367,350.1979 566.5543,355.4071 568.3718,360.0376 570.1894,359.0971 572.0069,364.6681 577.4596,367.5622 579.2771,366.4046 581.0947,366.4046 582.9122,365.2469 584.7298,362.3529 590.1824,362.3529 592,361.7741" style="fill:none;stroke:rgb(31,119,180);stroke-width:2;stroke-linejoin:bevel" />
  <text dominant-baseline="hanging" text-anchor="middle" transform="translate(313.006,8)" font-family="Segoe UI" font-size="18" font-weight="700" fill="black">7-Tage-Inzidenz Stadt Aachen 22.06.2021</text>
  <polygon points="34.012,29.0795 592,29.0795 592,370.947 34.012,370.947" style="fill:none;stroke:black;stroke-width:1" />
  <polygon points="42.012,37.0795 247.014,37.0795 247.014,63.1325 42.012,63.1325" style="fill:none;stroke:none;" />
  <text dominant-baseline="hanging" text-anchor="start" transform="translate(70.012,45.0795)" font-family="Segoe UI" font-size="12" font-weight="400" fill="black">7-Tage-Inzidenz Stadt Aachen 22.06.2021</text>
  <polyline points="50.012,50.106 66.012,50.106" style="fill:none;stroke:rgb(31,119,180);stroke-width:2" />
</svg>