<?xml version="1.0" encoding="utf-8" standalone="no"?>
<!DOCTYPE svg PUBLIC "-//W3C//DTD SVG 1.1//EN" "http://www.w3.org/Graphics/SVG/1.1/DTD/svg11.dtd">
<svg width="600" height="400" version="1.1" xmlns:xlink="http://www.w3.org/1999/xlink" xmlns="http://www.w3.org/2000/svg">
  <rect x="0" y="0" width="600" height="400" style="fill:rgb(255,255,255);stroke:none;" />
  <polyline points="34.012,362.7539 30.012,362.7539" style="fill:none;stroke:black;stroke-width:1" />
  <polyline points="34.012,348.3289 30.012,348.3289" style="fill:none;stroke:black;stroke-width:1" />
  <polyline points="34.012,333.904 30.012,333.904" style="fill:none;stroke:black;stroke-width:1" />
  <polyline points="34.012,319.479 30.012,319.479" style="fill:none;stroke:black;stroke-width:1" />
  <polyline points="34.012,290.6291 30.012,290.6291" style="fill:none;stroke:black;stroke-width:1" />
  <polyline points="34.012,276.2041 30.012,276.2041" style="fill:none;stroke:black;stroke-width:1" />
  <polyline points="34.012,261.7792 30.012,261.7792" style="fill:none;stroke:black;stroke-width:1" />
  <polyline points="34.012,247.3542 30.012,247.3542" style="fill:none;stroke:black;stroke-width:1" />
  <polyline points="34.012,218.5043 30.012,218.5043" style="fill:none;stroke:black;stroke-width:1" />
  <polyline points="34.012,204.0794 30.012,204.0794" style="fill:none;stroke:black;stroke-width:1" />
  <polyline points="34.012,189.6544 30.012,189.6544" style="fill:none;stroke:black;stroke-width:1" />
  <polyline points="34.012,175.2295 30.012,175.2295" style="fill:none;stroke:black;stroke-width:1" />
  <polyline points="34.012,146.3796 30.012,146.3796" style="fill:none;stroke:black;stroke-width:1" />
  <polyline points="34.012,131.9546 30.012,131.9546" style="fill:none;stroke:black;stroke-width:1" />
  <polyline points="34.012,117.5297 30.012,117.5297" style="fill:none;stroke:black;stroke-width:1" />
  <polyline points="34.012,103.1047 30.012,103.1047" style="fill:none;stroke:black;stroke-width:1" />
  <polyline points="34.012,74.2548 30.012,74.2548" style="fill:none;stroke:black;stroke-width:1" />
  <polyline points="34.012,59.8299 30.012,59.8299" style="fill:none;stroke:black;stroke-width:1" />
  <polyline points="34.012,45.4049 30.012,45.4049" style="fill:none;stroke:black;stroke-width:1" />
  <polyline points="34.012,30.98 30.012,30.98" style="fill:none;stroke:black;stroke-width:1" />
  <text dominant-baseline="middle" text-anchor="end" transform="translate(23.012,305.0541)" font-family="Segoe UI" font-size="12" font-weight="400" fill="black">50</text>
  <text dominant-baseline="middle" text-anchor="end" transform="translate(23.012,232.9293)" font-family="Segoe UI" font-size="12" font-weight="400" fill="black">100</text>
  <text dominant-baseline="middle" text-anchor="end" transform="translate(23.012,160.8045)" font-family="Segoe UI" font-size="12" font-weight="400" fill="black">150</text>
  <text dominant-baseline="middle" text-anchor="end" transform="translate(23.012,88.6798)" font-family="Segoe UI" font-size="12" font-weight="400" fill="black">200</text>
  <polyline points="34.012,305.0541 27.012,305.0541" style="fill:none;stroke:black;stroke-width:1" />
  <polyline points="34.012,232.9293 27.012,232.9293" style="fill:none;stroke:black;stroke-width:1" />
  <polyline points="34.012,160.8045 27.012,160.8045" style="fill:none;stroke:black;stroke-width:1" />
  <polyline points="34.012,88.6798 27.012,88.6798" style="fill:none;stroke:black;stroke-width:1" />
  <text dominant-baseline="hanging" text-anchor="middle" transform="translate(61.385,381.947)" font-family="Segoe UI" font-size="12" font-weight="400" fill="black">01. September</text>
  <text dominant-baseline="hanging" text-anchor="middle" transform="translate(124.5534,381.947)" font-family="Segoe UI" font-size="12" font-weight="400" fill="black">01. October</text>
  <text dominant-baseline="hanging" text-anchor="middle" transform="translate(189.8275,381.947)" font-family="Segoe UI" font-size="12" font-weight="400" fill="black">01. November</text>
  <text dominant-baseline="hanging" text-anchor="middle" transform="translate(252.996,381.947)" font-family="Segoe UI" font-size="12" font-weight="400" fill="black">01. December</text>
  <text dominant-baseline="hanging" text-anchor="middle" transform="translate(318.27,381.947)" font-family="Segoe UI" font-size="12" font-weight="400" fill="black">01. January</text>
  <text dominant-baseline="hanging" text-anchor="middle" transform="translate(383.5441,381.947)" font-family="Segoe UI" font-size="12" font-weight="400" fill="black">01. February</text>
  <text dominant-baseline="hanging" text-anchor="middle" transform="translate(442.5013,381.947)" font-family="Segoe UI" font-size="12" font-weight="400" fill="black">01. March</text>
  <text dominant-baseline="hanging" text-anchor="middle" transform="translate(507.7754,381.947)" font-family="Segoe UI" font-size="12" font-weight="400" fill="black">01. April</text>
  <text dominant-baseline="hanging" text-anchor="middle" transform="translate(570.9438,381.947)" font-family="Segoe UI" font-size="12" font-weight="400" fill="black">01. May</text>
  <polyline points="61.385,370.947 61.385,377.947" style="fill:none;stroke:black;stroke-width:1" />
  <polyline points="124.5534,370.947 124.5534,377.947" style="fill:none;stroke:black;stroke-width:1" />
  <polyline points="189.8275,370.947 189.8275,377.947" style="fill:none;stroke:black;stroke-width:1" />
  <polyline points="252.996,370.947 252.996,377.947" style="fill:none;stroke:black;stroke-width:1" />
  <polyline points="318.27,370.947 318.27,377.947" style="fill:none;stroke:black;stroke-width:1" />
  <polyline points="383.5441,370.947 383.5441,377.947" style="fill:none;stroke:black;stroke-width:1" />
  <polyline points="442.5013,370.947 442.5013,377.947" style="fill:none;stroke:black;stroke-width:1" />
  <polyline points="507.7754,370.947 507.7754,377.947" style="fill:none;stroke:black;stroke-width:1" />
  <polyline points="570.9438,370.947 570.9438,377.947" style="fill:none;stroke:black;stroke-width:1" />
  <polyline points="34.012,356.8142 36.1176,356.3899 38.2232,362.471 44.5401,358.5112 46.6457,362.471 48.7513,363.0367 50.8569,363.6024 52.9625,362.471 59.2794,366.9965 61.385,365.2994 63.4906,365.8651 65.5962,365.2994 67.7018,365.2994 74.0187,365.8651 76.1243,367.5622 78.2299,365.8651 80.3355,365.2994 82.4411,363.0367 88.758,356.8142 90.8636,352.2887 92.9692,347.1975 95.0748,346.6319 97.1805,342.1064 103.4973,347.7632 105.6029,348.3289 107.7085,352.2887 109.8141,350.5916 111.9198,351.723 118.2366,335.8838 120.3422,336.4495 122.4478,335.3182 124.5534,325.1358 126.6591,319.479 132.9759,312.6908 135.0815,313.8222 137.1871,305.9026 139.2928,304.7528 141.3984,307.6498 147.7152,292.5852 149.8208,290.847 151.9264,285.6323 154.0321,275.2029 156.1377,253.1854 162.4545,230.5885 164.5601,225.9532 166.6658,221.8974 168.7714,202.7769 170.877,202.1975 177.1938,137.3037 179.2994,132.0891 181.4051,129.192 183.5107,131.5096 185.6163,98.4834 191.9331,118.1833 194.0387,107.7539 196.1444,108.9127 198.25,101.3804 200.3556,119.3421 206.6724,90.9511 208.7781,84.5776 210.8837,58.5042 215.0949,32.4308 221.4117,61.4012 223.5174,75.8864 225.623,84.5776 227.7286,65.3847 229.8342,120.5009 236.151,167.433 238.2567,150.6301 240.3623,153.5272 242.4679,208.571 244.5735,185.974 250.8904,188.8711 252.996,213.7856 255.1016,225.9532 257.2072,198.1416 259.3128,202.1975 265.6297,179.0211 267.7353,181.3388 269.8409,179.6005 271.9465,151.2095 274.0521,173.2271 280.369,154.1066 282.4746,144.2566 284.5802,132.6685 286.6858,145.4155 288.7914,134.4067 295.1083,116.445 297.2139,117.0244 299.3195,140.7802 309.8476,157.0036 311.9532,154.686 314.0588,134.4067 316.1644,136.3622 324.5869,211.468 326.6925,235.2238 328.7981,250.8678 330.9037,236.962 333.0093,215.9584 341.4318,192.9269 343.5374,195.2446 345.643,217.2621 347.7486,247.3913 354.0655,255.9086 356.1711,275.7823 358.2767,267.0912 360.3823,285.0529 362.488,285.6323 368.8048,272.3059 373.016,279.8382 375.1216,259.5589 377.2273,247.9707 383.5441,264.1942 385.6497,278.3173 387.7553,272.3059 389.861,279.8382 391.9666,290.847 398.2834,293.744 400.389,290.847 402.4946,275.2029 404.6003,276.3617 406.7059,269.4088 413.0227,283.8941 415.1283,285.6323 417.2339,306.491 419.3396,313.4439 421.4452,329.6673 427.762,329.6673 429.8676,330.8261 431.9733,321.5556 434.0789,322.135 436.1845,317.4997 442.5013,329.0879 444.6069,327.9291 446.7126,323.8732 448.8182,300.6969 450.9238,294.9028 457.2406,265.353 459.3462,265.353 461.4519,263.6148 463.5575,278.6794 465.6631,272.3059 471.9799,261.8765 474.0856,262.4559 476.1912,254.9236 478.2968,226.5326 480.4024,208.571 486.7192,200.4592 488.8249,199.8798 490.9305,204.5151 493.0361,192.9269 495.1417,205.6739 501.4586,224.215 503.5642,220.7385 505.6698,227.6914 507.7754,243.9149 509.881,218.4209 518.3035,205.0945 520.4091,220.1591 522.5147,201.6181 524.6203,235.2238 530.9372,225.8953 533.0428,216.1033 535.1484,168.0124 537.254,188.8711 539.3596,184.8152 545.6765,176.1241 547.7821,157.0036 549.8877,162.2183 551.9933,148.3125 554.0989,123.9773 560.4158,104.8569 562.5214,121.0803 564.627,135.5655 566.7326,129.7714 568.8382,132.6685 575.1551,158.7418 577.2607,146.5743 579.3663,140.2008 581.4719,173.8065 583.5775,194.0858 589.8944,203.9357 592,213.2062" style="fill:none;stroke:rgb(31,119,180);stroke-width:2;stroke-linejoin:bevel" />
  <text dominant-baseline="hanging" text-anchor="middle" transform="translate(313.006,8)" font-family="Segoe UI" font-size="18" font-weight="700" fill="black">7-Tage-Inzidenz Stadt Aachen 11.05.2021</text>
  <polygon points="34.012,29.0795 592,29.0795 592,370.947 34.012,370.947" style="fill:none;stroke:black;stroke-width:1" />
  <polygon points="42.012,37.0795 247.014,37.0795 247.014,63.1325 42.012,63.1325" style="fill:none;stroke:none;" />
  <text dominant-baseline="hanging" text-anchor="start" transform="translate(70.012,45.0795)" font-family="Segoe UI" font-size="12" font-weight="400" fill="black">7-Tage-Inzidenz Stadt Aachen 11.05.2021</text>
  <polyline points="50.012,50.106 66.012,50.106" style="fill:none;stroke:rgb(31,119,180);stroke-width:2" />
</svg>