<?xml version="1.0" encoding="utf-8" standalone="no"?>
<!DOCTYPE svg PUBLIC "-//W3C//DTD SVG 1.1//EN" "http://www.w3.org/Graphics/SVG/1.1/DTD/svg11.dtd">
<svg width="600" height="400" version="1.1" xmlns:xlink="http://www.w3.org/1999/xlink" xmlns="http://www.w3.org/2000/svg">
  <rect x="0" y="0" width="600" height="400" style="fill:rgb(255,255,255);stroke:none;" />
  <polyline points="34.012,362.7539 30.012,362.7539" style="fill:none;stroke:black;stroke-width:1" />
  <polyline points="34.012,348.3289 30.012,348.3289" style="fill:none;stroke:black;stroke-width:1" />
  <polyline points="34.012,333.904 30.012,333.904" style="fill:none;stroke:black;stroke-width:1" />
  <polyline points="34.012,319.479 30.012,319.479" style="fill:none;stroke:black;stroke-width:1" />
  <polyline points="34.012,290.6291 30.012,290.6291" style="fill:none;stroke:black;stroke-width:1" />
  <polyline points="34.012,276.2041 30.012,276.2041" style="fill:none;stroke:black;stroke-width:1" />
  <polyline points="34.012,261.7792 30.012,261.7792" style="fill:none;stroke:black;stroke-width:1" />
  <polyline points="34.012,247.3542 30.012,247.3542" style="fill:none;stroke:black;stroke-width:1" />
  <polyline points="34.012,218.5043 30.012,218.5043" style="fill:none;stroke:black;stroke-width:1" />
  <polyline points="34.012,204.0794 30.012,204.0794" style="fill:none;stroke:black;stroke-width:1" />
  <polyline points="34.012,189.6544 30.012,189.6544" style="fill:none;stroke:black;stroke-width:1" />
  <polyline points="34.012,175.2295 30.012,175.2295" style="fill:none;stroke:black;stroke-width:1" />
  <polyline points="34.012,146.3796 30.012,146.3796" style="fill:none;stroke:black;stroke-width:1" />
  <polyline points="34.012,131.9546 30.012,131.9546" style="fill:none;stroke:black;stroke-width:1" />
  <polyline points="34.012,117.5297 30.012,117.5297" style="fill:none;stroke:black;stroke-width:1" />
  <polyline points="34.012,103.1047 30.012,103.1047" style="fill:none;stroke:black;stroke-width:1" />
  <polyline points="34.012,74.2548 30.012,74.2548" style="fill:none;stroke:black;stroke-width:1" />
  <polyline points="34.012,59.8299 30.012,59.8299" style="fill:none;stroke:black;stroke-width:1" />
  <polyline points="34.012,45.4049 30.012,45.4049" style="fill:none;stroke:black;stroke-width:1" />
  <polyline points="34.012,30.98 30.012,30.98" style="fill:none;stroke:black;stroke-width:1" />
  <text dominant-baseline="middle" text-anchor="end" transform="translate(23.012,305.0541)" font-family="Segoe UI" font-size="12" font-weight="400" fill="black">50</text>
  <text dominant-baseline="middle" text-anchor="end" transform="translate(23.012,232.9293)" font-family="Segoe UI" font-size="12" font-weight="400" fill="black">100</text>
  <text dominant-baseline="middle" text-anchor="end" transform="translate(23.012,160.8045)" font-family="Segoe UI" font-size="12" font-weight="400" fill="black">150</text>
  <text dominant-baseline="middle" text-anchor="end" transform="translate(23.012,88.6798)" font-family="Segoe UI" font-size="12" font-weight="400" fill="black">200</text>
  <polyline points="34.012,305.0541 27.012,305.0541" style="fill:none;stroke:black;stroke-width:1" />
  <polyline points="34.012,232.9293 27.012,232.9293" style="fill:none;stroke:black;stroke-width:1" />
  <polyline points="34.012,160.8045 27.012,160.8045" style="fill:none;stroke:black;stroke-width:1" />
  <polyline points="34.012,88.6798 27.012,88.6798" style="fill:none;stroke:black;stroke-width:1" />
  <text dominant-baseline="hanging" text-anchor="middle" transform="translate(76.9342,381.947)" font-family="Segoe UI" font-size="12" font-weight="400" fill="black">01. September</text>
  <text dominant-baseline="hanging" text-anchor="middle" transform="translate(175.9853,381.947)" font-family="Segoe UI" font-size="12" font-weight="400" fill="black">01. October</text>
  <text dominant-baseline="hanging" text-anchor="middle" transform="translate(278.3381,381.947)" font-family="Segoe UI" font-size="12" font-weight="400" fill="black">01. November</text>
  <text dominant-baseline="hanging" text-anchor="middle" transform="translate(377.3892,381.947)" font-family="Segoe UI" font-size="12" font-weight="400" fill="black">01. December</text>
  <text dominant-baseline="hanging" text-anchor="middle" transform="translate(479.7421,381.947)" font-family="Segoe UI" font-size="12" font-weight="400" fill="black">01. January</text>
  <text dominant-baseline="hanging" text-anchor="middle" transform="translate(582.0949,381.947)" font-family="Segoe UI" font-size="12" font-weight="400" fill="black">01. February</text>
  <polyline points="76.9342,370.947 76.9342,377.947" style="fill:none;stroke:black;stroke-width:1" />
  <polyline points="175.9853,370.947 175.9853,377.947" style="fill:none;stroke:black;stroke-width:1" />
  <polyline points="278.3381,370.947 278.3381,377.947" style="fill:none;stroke:black;stroke-width:1" />
  <polyline points="377.3892,370.947 377.3892,377.947" style="fill:none;stroke:black;stroke-width:1" />
  <polyline points="479.7421,370.947 479.7421,377.947" style="fill:none;stroke:black;stroke-width:1" />
  <polyline points="582.0949,370.947 582.0949,377.947" style="fill:none;stroke:black;stroke-width:1" />
  <polyline points="34.012,356.8142 37.3137,356.3899 40.6154,362.471 50.5205,358.5112 53.8222,362.471 57.1239,363.0367 60.4256,363.6024 63.7273,362.471 73.6324,366.9965 76.9342,365.2994 80.2359,365.8651 83.5376,365.2994 86.8393,365.2994 96.7444,365.8651 100.0461,367.5622 103.3478,365.8651 106.6495,365.2994 109.9512,363.0367 119.8563,356.8142 123.158,352.2887 126.4597,347.1975 129.7614,346.6319 133.0631,342.1064 142.9682,347.7632 146.2699,348.3289 149.5716,352.2887 152.8733,350.5916 156.1751,351.723 166.0802,335.8838 169.3819,336.4495 172.6836,335.3182 175.9853,325.1358 179.287,319.479 189.1921,312.6908 192.4938,313.8222 195.7955,305.9026 199.0972,304.7528 202.3989,307.6498 212.304,292.5852 215.6057,290.847 218.9074,285.6323 222.2091,275.2029 225.5108,253.1854 235.416,230.5885 238.7177,225.9532 242.0194,221.8974 245.3211,202.7769 248.6228,202.1975 258.5279,137.3037 261.8296,132.0891 265.1313,129.192 268.433,131.5096 271.7347,98.4834 281.6398,118.1833 284.9415,107.7539 288.2432,108.9127 291.5449,101.3804 294.8466,119.3421 304.7517,90.9511 308.0534,84.5776 311.3551,58.5042 317.9586,32.4308 327.8637,61.4012 331.1654,75.8864 334.4671,84.5776 337.7688,65.3847 341.0705,120.5009 350.9756,167.433 354.2773,150.6301 357.579,153.5272 360.8807,208.571 364.1824,185.974 374.0875,188.8711 377.3892,213.7856 380.6909,225.9532 383.9926,198.1416 387.2943,202.1975 397.1995,179.0211 400.5012,181.3388 403.8029,179.6005 407.1046,151.2095 410.4063,173.2271 420.3114,154.1066 423.6131,144.2566 426.9148,132.6685 430.2165,145.4155 433.5182,134.4067 443.4233,116.445 446.725,117.0244 450.0267,140.7802 466.5352,157.0036 469.8369,154.686 473.1387,134.4067 476.4404,136.3622 489.6472,211.468 492.9489,235.2238 496.2506,250.8678 499.5523,236.962 502.854,215.9584 516.0608,192.9269 519.3625,195.2446 522.6642,217.2621 525.9659,247.3913 535.871,255.9086 539.1727,275.7823 542.4744,267.0912 545.7761,285.0529 549.0778,285.6323 558.983,272.3059 565.5864,279.8382 568.8881,259.5589 572.1898,247.9707 582.0949,264.1942 585.3966,278.3173 588.6983,272.3059 592,279.8382" style="fill:none;stroke:rgb(31,119,180);stroke-width:2;stroke-linejoin:bevel" />
  <text dominant-baseline="hanging" text-anchor="middle" transform="translate(313.006,8)" font-family="Segoe UI" font-size="18" font-weight="700" fill="black">7-Tage-Inzidenz Stadt Aachen 04.02.2021</text>
  <polygon points="34.012,29.0795 592,29.0795 592,370.947 34.012,370.947" style="fill:none;stroke:black;stroke-width:1" />
  <polygon points="42.012,37.0795 247.014,37.0795 247.014,63.1325 42.012,63.1325" style="fill:none;stroke:none;" />
  <text dominant-baseline="hanging" text-anchor="start" transform="translate(70.012,45.0795)" font-family="Segoe UI" font-size="12" font-weight="400" fill="black">7-Tage-Inzidenz Stadt Aachen 04.02.2021</text>
  <polyline points="50.012,50.106 66.012,50.106" style="fill:none;stroke:rgb(31,119,180);stroke-width:2" />
</svg>