<?xml version="1.0" encoding="utf-8" standalone="no"?>
<!DOCTYPE svg PUBLIC "-//W3C//DTD SVG 1.1//EN" "http://www.w3.org/Graphics/SVG/1.1/DTD/svg11.dtd">
<svg width="600" height="400" version="1.1" xmlns:xlink="http://www.w3.org/1999/xlink" xmlns="http://www.w3.org/2000/svg">
  <rect x="0" y="0" width="600" height="400" style="fill:rgb(255,255,255);stroke:none;" />
  <polyline points="34.012,360.802 30.012,360.802" style="fill:none;stroke:black;stroke-width:1" />
  <polyline points="34.012,340.5216 30.012,340.5216" style="fill:none;stroke:black;stroke-width:1" />
  <polyline points="34.012,320.2411 30.012,320.2411" style="fill:none;stroke:black;stroke-width:1" />
  <polyline points="34.012,299.9607 30.012,299.9607" style="fill:none;stroke:black;stroke-width:1" />
  <polyline points="34.012,259.3998 30.012,259.3998" style="fill:none;stroke:black;stroke-width:1" />
  <polyline points="34.012,239.1193 30.012,239.1193" style="fill:none;stroke:black;stroke-width:1" />
  <polyline points="34.012,218.8389 30.012,218.8389" style="fill:none;stroke:black;stroke-width:1" />
  <polyline points="34.012,198.5584 30.012,198.5584" style="fill:none;stroke:black;stroke-width:1" />
  <polyline points="34.012,157.9975 30.012,157.9975" style="fill:none;stroke:black;stroke-width:1" />
  <polyline points="34.012,137.7171 30.012,137.7171" style="fill:none;stroke:black;stroke-width:1" />
  <polyline points="34.012,117.4366 30.012,117.4366" style="fill:none;stroke:black;stroke-width:1" />
  <polyline points="34.012,97.1562 30.012,97.1562" style="fill:none;stroke:black;stroke-width:1" />
  <polyline points="34.012,56.5953 30.012,56.5953" style="fill:none;stroke:black;stroke-width:1" />
  <polyline points="34.012,36.3149 30.012,36.3149" style="fill:none;stroke:black;stroke-width:1" />
  <text dominant-baseline="middle" text-anchor="end" transform="translate(23.012,279.6802)" font-family="Segoe UI" font-size="12" font-weight="400" fill="black">50</text>
  <text dominant-baseline="middle" text-anchor="end" transform="translate(23.012,178.278)" font-family="Segoe UI" font-size="12" font-weight="400" fill="black">100</text>
  <text dominant-baseline="middle" text-anchor="end" transform="translate(23.012,76.8758)" font-family="Segoe UI" font-size="12" font-weight="400" fill="black">150</text>
  <polyline points="34.012,279.6802 27.012,279.6802" style="fill:none;stroke:black;stroke-width:1" />
  <polyline points="34.012,178.278 27.012,178.278" style="fill:none;stroke:black;stroke-width:1" />
  <polyline points="34.012,76.8758 27.012,76.8758" style="fill:none;stroke:black;stroke-width:1" />
  <text dominant-baseline="hanging" text-anchor="middle" transform="translate(113.7246,381.947)" font-family="Segoe UI" font-size="12" font-weight="400" fill="black">29. August</text>
  <text dominant-baseline="hanging" text-anchor="middle" transform="translate(225.3222,381.947)" font-family="Segoe UI" font-size="12" font-weight="400" fill="black">12. September</text>
  <text dominant-baseline="hanging" text-anchor="middle" transform="translate(336.9198,381.947)" font-family="Segoe UI" font-size="12" font-weight="400" fill="black">26. September</text>
  <text dominant-baseline="hanging" text-anchor="middle" transform="translate(448.5174,381.947)" font-family="Segoe UI" font-size="12" font-weight="400" fill="black">10. October</text>
  <text dominant-baseline="hanging" text-anchor="middle" transform="translate(560.115,381.947)" font-family="Segoe UI" font-size="12" font-weight="400" fill="black">24. October</text>
  <polyline points="113.7246,370.947 113.7246,377.947" style="fill:none;stroke:black;stroke-width:1" />
  <polyline points="225.3222,370.947 225.3222,377.947" style="fill:none;stroke:black;stroke-width:1" />
  <polyline points="336.9198,370.947 336.9198,377.947" style="fill:none;stroke:black;stroke-width:1" />
  <polyline points="448.5174,370.947 448.5174,377.947" style="fill:none;stroke:black;stroke-width:1" />
  <polyline points="560.115,370.947 560.115,377.947" style="fill:none;stroke:black;stroke-width:1" />
  <polyline points="34.012,352.4513 41.9833,351.8548 49.9545,360.4044 73.8683,354.8372 81.8395,360.4044 89.8108,361.1997 97.7821,361.995 105.7533,360.4044 129.6671,366.7669 137.6383,364.3809 145.6096,365.1762 153.5809,364.3809 161.5521,364.3809 185.4659,365.1762 193.4371,367.5622 201.4084,365.1762 209.3797,364.3809 217.3509,361.1997 241.2647,352.4513 249.2359,346.0888 257.2072,338.931 265.1785,338.1356 273.1497,331.7731 297.0635,339.7263 305.0347,340.5216 313.006,346.0888 320.9773,343.7028 328.9485,345.2934 352.8623,323.0247 360.8335,323.82 368.8048,322.2294 376.7761,307.9138 384.7473,299.9607 408.6611,290.4169 416.6323,292.0076 424.6036,280.8732 432.5749,279.2566 440.5461,283.3297 464.4599,262.1499 472.4311,259.7061 480.4024,252.3746 488.3737,237.7117 496.3449,206.7566 520.2587,174.987 528.2299,168.4701 536.2012,162.7679 544.1725,135.8859 552.1437,135.0713 576.0575,43.8353 584.0287,36.5038 592,32.4308" style="fill:none;stroke:rgb(31,119,180);stroke-width:2;stroke-linejoin:bevel" />
  <text dominant-baseline="hanging" text-anchor="middle" transform="translate(313.006,8)" font-family="Segoe UI" font-size="18" font-weight="700" fill="black">7-Tage-Inzidenz Stadt Aachen 28.10.2020</text>
  <polygon points="34.012,29.0795 592,29.0795 592,370.947 34.012,370.947" style="fill:none;stroke:black;stroke-width:1" />
  <polygon points="42.012,37.0795 247.014,37.0795 247.014,63.1325 42.012,63.1325" style="fill:none;stroke:none;" />
  <text dominant-baseline="hanging" text-anchor="start" transform="translate(70.012,45.0795)" font-family="Segoe UI" font-size="12" font-weight="400" fill="black">7-Tage-Inzidenz Stadt Aachen 28.10.2020</text>
  <polyline points="50.012,50.106 66.012,50.106" style="fill:none;stroke:rgb(31,119,180);stroke-width:2" />
</svg>