<?xml version="1.0" encoding="utf-8" standalone="no"?>
<!DOCTYPE svg PUBLIC "-//W3C//DTD SVG 1.1//EN" "http://www.w3.org/Graphics/SVG/1.1/DTD/svg11.dtd">
<svg width="600" height="400" version="1.1" xmlns:xlink="http://www.w3.org/1999/xlink" xmlns="http://www.w3.org/2000/svg">
  <rect x="0" y="0" width="600" height="400" style="fill:rgb(255,255,255);stroke:none;" />
  <polyline points="29.008,355.8153 25.008,355.8153" style="fill:none;stroke:black;stroke-width:1" />
  <polyline points="29.008,320.5747 25.008,320.5747" style="fill:none;stroke:black;stroke-width:1" />
  <polyline points="29.008,302.9544 25.008,302.9544" style="fill:none;stroke:black;stroke-width:1" />
  <polyline points="29.008,285.3341 25.008,285.3341" style="fill:none;stroke:black;stroke-width:1" />
  <polyline points="29.008,267.7138 25.008,267.7138" style="fill:none;stroke:black;stroke-width:1" />
  <polyline points="29.008,232.4731 25.008,232.4731" style="fill:none;stroke:black;stroke-width:1" />
  <polyline points="29.008,214.8528 25.008,214.8528" style="fill:none;stroke:black;stroke-width:1" />
  <polyline points="29.008,197.2325 25.008,197.2325" style="fill:none;stroke:black;stroke-width:1" />
  <polyline points="29.008,179.6122 25.008,179.6122" style="fill:none;stroke:black;stroke-width:1" />
  <polyline points="29.008,144.3716 25.008,144.3716" style="fill:none;stroke:black;stroke-width:1" />
  <polyline points="29.008,126.7513 25.008,126.7513" style="fill:none;stroke:black;stroke-width:1" />
  <polyline points="29.008,109.131 25.008,109.131" style="fill:none;stroke:black;stroke-width:1" />
  <polyline points="29.008,91.5107 25.008,91.5107" style="fill:none;stroke:black;stroke-width:1" />
  <polyline points="29.008,56.2701 25.008,56.2701" style="fill:none;stroke:black;stroke-width:1" />
  <polyline points="29.008,38.6497 25.008,38.6497" style="fill:none;stroke:black;stroke-width:1" />
  <text dominant-baseline="middle" text-anchor="end" transform="translate(18.008,338.195)" font-family="Segoe UI" font-size="12" font-weight="400" fill="black">10</text>
  <text dominant-baseline="middle" text-anchor="end" transform="translate(18.008,250.0934)" font-family="Segoe UI" font-size="12" font-weight="400" fill="black">20</text>
  <text dominant-baseline="middle" text-anchor="end" transform="translate(18.008,161.9919)" font-family="Segoe UI" font-size="12" font-weight="400" fill="black">30</text>
  <text dominant-baseline="middle" text-anchor="end" transform="translate(18.008,73.8904)" font-family="Segoe UI" font-size="12" font-weight="400" fill="black">40</text>
  <polyline points="29.008,338.195 22.008,338.195" style="fill:none;stroke:black;stroke-width:1" />
  <polyline points="29.008,250.0934 22.008,250.0934" style="fill:none;stroke:black;stroke-width:1" />
  <polyline points="29.008,161.9919 22.008,161.9919" style="fill:none;stroke:black;stroke-width:1" />
  <polyline points="29.008,73.8904 22.008,73.8904" style="fill:none;stroke:black;stroke-width:1" />
  <text dominant-baseline="hanging" text-anchor="middle" transform="translate(41.247,381.947)" font-family="Segoe UI" font-size="12" font-weight="400" fill="black">22. August</text>
  <text dominant-baseline="hanging" text-anchor="middle" transform="translate(126.9197,381.947)" font-family="Segoe UI" font-size="12" font-weight="400" fill="black">29. August</text>
  <text dominant-baseline="hanging" text-anchor="middle" transform="translate(212.5923,381.947)" font-family="Segoe UI" font-size="12" font-weight="400" fill="black">05. September</text>
  <text dominant-baseline="hanging" text-anchor="middle" transform="translate(298.265,381.947)" font-family="Segoe UI" font-size="12" font-weight="400" fill="black">12. September</text>
  <text dominant-baseline="hanging" text-anchor="middle" transform="translate(383.9377,381.947)" font-family="Segoe UI" font-size="12" font-weight="400" fill="black">19. September</text>
  <text dominant-baseline="hanging" text-anchor="middle" transform="translate(469.6104,381.947)" font-family="Segoe UI" font-size="12" font-weight="400" fill="black">26. September</text>
  <text dominant-baseline="hanging" text-anchor="middle" transform="translate(555.2831,381.947)" font-family="Segoe UI" font-size="12" font-weight="400" fill="black">03. October</text>
  <polyline points="41.247,370.947 41.247,377.947" style="fill:none;stroke:black;stroke-width:1" />
  <polyline points="126.9197,370.947 126.9197,377.947" style="fill:none;stroke:black;stroke-width:1" />
  <polyline points="212.5923,370.947 212.5923,377.947" style="fill:none;stroke:black;stroke-width:1" />
  <polyline points="298.265,370.947 298.265,377.947" style="fill:none;stroke:black;stroke-width:1" />
  <polyline points="383.9377,370.947 383.9377,377.947" style="fill:none;stroke:black;stroke-width:1" />
  <polyline points="469.6104,370.947 469.6104,377.947" style="fill:none;stroke:black;stroke-width:1" />
  <polyline points="555.2831,370.947 555.2831,377.947" style="fill:none;stroke:black;stroke-width:1" />
  <polyline points="29.008,336.4675 65.7249,312.2828 77.9638,336.4675 90.2028,339.9225 102.4417,343.3774 114.6807,336.4675 151.3976,364.1072 163.6365,353.7423 175.8755,357.1973 188.1144,353.7423 200.3534,353.7423 237.0703,357.1973 249.3092,367.5622 261.5482,357.1973 273.7871,353.7423 286.0261,339.9225 322.743,301.9179 334.9819,274.2782 347.2209,243.1835 408.4157,246.6385 420.6546,250.0934 432.8936,274.2782 445.1325,260.0265 457.3715,240.8802 494.0883,174.0843 530.8052,108.44 543.0442,73.8904 579.761,32.4308 592,63.5255" style="fill:none;stroke:rgb(31,119,180);stroke-width:2;stroke-linejoin:bevel" />
  <text dominant-baseline="hanging" text-anchor="middle" transform="translate(310.504,8)" font-family="Segoe UI" font-size="18" font-weight="700" fill="black">7-Tage-Inzidenz Stadt Aachen 06.10.2020</text>
  <polygon points="29.008,29.0795 592,29.0795 592,370.947 29.008,370.947" style="fill:none;stroke:black;stroke-width:1" />
  <polygon points="37.008,37.0795 242.01,37.0795 242.01,63.1325 37.008,63.1325" style="fill:none;stroke:none;" />
  <text dominant-baseline="hanging" text-anchor="start" transform="translate(65.008,45.0795)" font-family="Segoe UI" font-size="12" font-weight="400" fill="black">7-Tage-Inzidenz Stadt Aachen 06.10.2020</text>
  <polyline points="45.008,50.106 61.008,50.106" style="fill:none;stroke:rgb(31,119,180);stroke-width:2" />
</svg>