<?xml version="1.0" encoding="utf-8" standalone="no"?>
<!DOCTYPE svg PUBLIC "-//W3C//DTD SVG 1.1//EN" "http://www.w3.org/Graphics/SVG/1.1/DTD/svg11.dtd">
<svg width="600" height="400" version="1.1" xmlns:xlink="http://www.w3.org/1999/xlink" xmlns="http://www.w3.org/2000/svg">
  <rect x="0" y="0" width="600" height="400" style="fill:rgb(255,255,255);stroke:none;" />
  <polyline points="34.012,353.4851 30.012,353.4851" style="fill:none;stroke:black;stroke-width:1" />
  <polyline points="34.012,339.4649 30.012,339.4649" style="fill:none;stroke:black;stroke-width:1" />
  <polyline points="34.012,325.4447 30.012,325.4447" style="fill:none;stroke:black;stroke-width:1" />
  <polyline points="34.012,311.4245 30.012,311.4245" style="fill:none;stroke:black;stroke-width:1" />
  <polyline points="34.012,283.3841 30.012,283.3841" style="fill:none;stroke:black;stroke-width:1" />
  <polyline points="34.012,269.3639 30.012,269.3639" style="fill:none;stroke:black;stroke-width:1" />
  <polyline points="34.012,255.3438 30.012,255.3438" style="fill:none;stroke:black;stroke-width:1" />
  <polyline points="34.012,241.3236 30.012,241.3236" style="fill:none;stroke:black;stroke-width:1" />
  <polyline points="34.012,213.2832 30.012,213.2832" style="fill:none;stroke:black;stroke-width:1" />
  <polyline points="34.012,199.263 30.012,199.263" style="fill:none;stroke:black;stroke-width:1" />
  <polyline points="34.012,185.2428 30.012,185.2428" style="fill:none;stroke:black;stroke-width:1" />
  <polyline points="34.012,171.2226 30.012,171.2226" style="fill:none;stroke:black;stroke-width:1" />
  <polyline points="34.012,143.1822 30.012,143.1822" style="fill:none;stroke:black;stroke-width:1" />
  <polyline points="34.012,129.162 30.012,129.162" style="fill:none;stroke:black;stroke-width:1" />
  <polyline points="34.012,115.1418 30.012,115.1418" style="fill:none;stroke:black;stroke-width:1" />
  <polyline points="34.012,101.1216 30.012,101.1216" style="fill:none;stroke:black;stroke-width:1" />
  <polyline points="34.012,73.0813 30.012,73.0813" style="fill:none;stroke:black;stroke-width:1" />
  <polyline points="34.012,59.0611 30.012,59.0611" style="fill:none;stroke:black;stroke-width:1" />
  <polyline points="34.012,45.0409 30.012,45.0409" style="fill:none;stroke:black;stroke-width:1" />
  <polyline points="34.012,31.0207 30.012,31.0207" style="fill:none;stroke:black;stroke-width:1" />
  <text dominant-baseline="middle" text-anchor="end" transform="translate(23.012,367.5053)" font-family="Segoe UI" font-size="12" font-weight="400" fill="black">0</text>
  <text dominant-baseline="middle" text-anchor="end" transform="translate(23.012,297.4043)" font-family="Segoe UI" font-size="12" font-weight="400" fill="black">50</text>
  <text dominant-baseline="middle" text-anchor="end" transform="translate(23.012,227.3034)" font-family="Segoe UI" font-size="12" font-weight="400" fill="black">100</text>
  <text dominant-baseline="middle" text-anchor="end" transform="translate(23.012,157.2024)" font-family="Segoe UI" font-size="12" font-weight="400" fill="black">150</text>
  <text dominant-baseline="middle" text-anchor="end" transform="translate(23.012,87.1015)" font-family="Segoe UI" font-size="12" font-weight="400" fill="black">200</text>
  <polyline points="34.012,367.5053 27.012,367.5053" style="fill:none;stroke:black;stroke-width:1" />
  <polyline points="34.012,297.4043 27.012,297.4043" style="fill:none;stroke:black;stroke-width:1" />
  <polyline points="34.012,227.3034 27.012,227.3034" style="fill:none;stroke:black;stroke-width:1" />
  <polyline points="34.012,157.2024 27.012,157.2024" style="fill:none;stroke:black;stroke-width:1" />
  <polyline points="34.012,87.1015 27.012,87.1015" style="fill:none;stroke:black;stroke-width:1" />
  <text dominant-baseline="hanging" text-anchor="middle" transform="translate(242.5233,381.947)" font-family="Segoe UI" font-size="12" font-weight="400" fill="black">01. January</text>
  <polyline points="242.5233,370.947 242.5233,377.947" style="fill:none;stroke:black;stroke-width:1" />
  <polyline points="34.012,367.5622 36.9488,367.5621 41.3539,367.5621 42.8223,367.562 44.2907,347.7121 45.7591,347.2997 47.2275,353.2102 51.6327,349.3615 53.1011,353.2102 54.5695,353.76 56.0378,354.3098 57.5062,353.2102 61.9114,357.6087 63.3798,355.9593 64.8482,356.5091 66.3166,355.9593 67.785,355.9593 72.1901,356.5091 73.6585,358.1585 75.1269,356.5091 76.5953,355.9593 78.0637,353.76 82.4689,347.7121 83.9372,343.3136 85.4056,338.3653 86.874,337.8155 88.3424,333.417 92.7476,338.9151 94.216,339.4649 95.6844,343.3136 97.1527,341.6642 98.6211,342.7638 103.0263,327.3691 104.4947,327.9189 105.9631,326.8192 107.4315,316.9226 108.8999,311.4245 113.305,304.8268 114.7734,305.9264 116.2418,298.229 117.7102,297.1115 119.1786,299.9272 123.5838,285.2853 125.0521,283.5959 126.5205,278.5275 127.9889,268.3908 129.4573,246.9911 133.8625,225.0282 135.3309,220.523 136.7993,216.581 138.2677,197.997 139.736,197.4339 144.1412,134.361 145.6096,129.2927 147.078,126.4769 148.5464,128.7295 150.0148,96.63 154.4199,115.7771 155.8883,105.6404 157.3567,106.7667 158.8251,99.4457 160.2935,116.9034 164.6987,89.309 166.1671,83.1143 167.6354,57.7726 170.5722,32.4308 174.9774,60.5883 176.4458,74.6671 177.9142,83.1143 179.3826,64.46 180.8509,118.0297 185.2561,163.6449 186.7245,147.3135 188.1929,150.1292 189.6613,203.6285 191.1297,181.6657 195.5348,184.4814 197.0032,208.6969 198.4716,220.523 199.94,193.4918 201.4084,197.4339 205.8136,174.9079 207.282,177.1605 208.7503,175.471 210.2187,147.8766 211.6871,169.2764 216.0923,150.6924 217.5607,141.1188 219.0291,129.8558 220.4975,142.2451 221.9659,131.5453 226.371,114.0876 227.8394,114.6508 229.3078,137.7399 236.6497,153.5081 238.1181,151.2555 239.5865,131.5453 241.0549,133.4459 246.9285,206.4443 248.3969,229.5334 249.8653,244.7385 251.3336,231.2229 252.802,210.8087 258.6756,188.4235 260.144,190.6761 261.6124,212.0758 263.0808,241.3596 267.4859,249.6379 268.9543,268.954 270.4227,260.5067 271.8911,277.9644 273.3595,278.5275 277.7647,265.5751 280.7014,272.896 282.1698,253.1858 283.6382,241.9228 288.0434,257.691 289.5118,271.4178 290.9802,265.5751 292.4485,272.896 293.9169,283.5959 298.3221,286.4116 299.7905,283.5959 301.2589,268.3908 302.7273,269.5171 304.1957,262.7593 308.6008,276.8381 310.0692,278.5275 311.5376,298.8009 313.006,305.5587 314.4744,321.327 318.8796,321.327 320.3479,322.4533 321.8163,313.4429 323.2847,314.006 324.7531,309.5008 329.1583,320.7638 330.6267,319.6375 332.0951,315.6955 333.5635,293.1694 335.0318,287.5379 339.437,258.8173 340.9054,258.8173 342.3738,257.1278 343.8422,271.7697 345.3106,265.5751 349.7157,255.4384 351.1841,256.0015 352.6525,248.6806 354.1209,221.0862 355.5893,203.6285 359.9945,195.7444 361.4629,195.1813 362.9312,199.6865 364.3996,188.4235 365.868,200.8128 370.2732,218.8336 371.7416,215.4547 373.21,222.2125 374.6784,237.9807 376.1467,213.2021 382.0203,200.2496 383.4887,214.8915 384.9571,196.8707 386.4255,229.5334 390.8306,220.4667 392.299,210.9495 393.7674,164.208 395.2358,184.4814 396.7042,180.5394 401.1094,172.0921 402.5778,153.5081 404.0461,158.5765 405.5145,145.0609 406.9829,121.4086 411.3881,102.8246 412.8565,118.5928 414.3249,132.6716 415.7933,127.0401 417.2617,129.8558 421.6668,155.1976 423.1352,143.3714 424.6036,137.1768 426.072,169.8395 427.5404,189.5498 431.9455,199.1233 433.4139,208.1337 434.8823,220.523 437.8191,188.9866 442.2243,191.8024 443.6927,177.7236 445.1611,172.0921 446.6294,176.3157 448.0978,210.9495 453.9714,257.691 455.4398,281.9064 456.9082,291.48 458.3766,294.8589 462.7817,302.4614 464.2501,307.2482 465.7185,306.1219 468.6553,326.3953 473.0605,341.6004 474.5288,346.6687 475.9972,351.1739 477.4656,350.2588 478.934,355.6791 483.3392,358.4949 484.8076,357.3686 486.276,357.3686 487.7443,356.2423 489.2127,353.4265 493.6179,353.4265 495.0863,352.8634 496.5547,356.2423 498.0231,359.6212 499.4915,361.3106 503.8966,360.7475 505.365,362.4369 506.8334,359.058 508.3018,355.6791 509.7702,356.8054 514.1754,356.8054 517.1121,357.3686 520.0489,359.6212 524.4541,360.7475 527.3909,353.9897 530.3276,343.2898 537.6696,332.0268 540.6064,317.9481 547.9483,316.2586 550.8851,329.7742 558.227,329.2111 561.1638,323.0164 568.5058,294.8589 571.4425,262.7593 578.7845,253.7489 581.7213,268.3908 589.0632,201.3759 592,191.8024" style="fill:none;stroke:rgb(31,119,180);stroke-width:2;stroke-linejoin:bevel" />
  <text dominant-baseline="hanging" text-anchor="middle" transform="translate(313.006,8)" font-family="Segoe UI" font-size="18" font-weight="700" fill="black">7-Tage-Inzidenz Stadt Aachen 27.08.2021</text>
  <polygon points="34.012,29.0795 592,29.0795 592,370.947 34.012,370.947" style="fill:none;stroke:black;stroke-width:1" />
  <polygon points="42.012,37.0795 247.014,37.0795 247.014,63.1325 42.012,63.1325" style="fill:none;stroke:none;" />
  <text dominant-baseline="hanging" text-anchor="start" transform="translate(70.012,45.0795)" font-family="Segoe UI" font-size="12" font-weight="400" fill="black">7-Tage-Inzidenz Stadt Aachen 27.08.2021</text>
  <polyline points="50.012,50.106 66.012,50.106" style="fill:none;stroke:rgb(31,119,180);stroke-width:2" />
</svg>