<?xml version="1.0" encoding="utf-8" standalone="no"?>
<!DOCTYPE svg PUBLIC "-//W3C//DTD SVG 1.1//EN" "http://www.w3.org/Graphics/SVG/1.1/DTD/svg11.dtd">
<svg width="600" height="400" version="1.1" xmlns:xlink="http://www.w3.org/1999/xlink" xmlns="http://www.w3.org/2000/svg">
  <rect x="0" y="0" width="600" height="400" style="fill:rgb(255,255,255);stroke:none;" />
  <polyline points="29.008,357.1085 25.008,357.1085" style="fill:none;stroke:black;stroke-width:1" />
  <polyline points="29.008,325.7476 25.008,325.7476" style="fill:none;stroke:black;stroke-width:1" />
  <polyline points="29.008,310.0672 25.008,310.0672" style="fill:none;stroke:black;stroke-width:1" />
  <polyline points="29.008,294.3867 25.008,294.3867" style="fill:none;stroke:black;stroke-width:1" />
  <polyline points="29.008,278.7062 25.008,278.7062" style="fill:none;stroke:black;stroke-width:1" />
  <polyline points="29.008,247.3453 25.008,247.3453" style="fill:none;stroke:black;stroke-width:1" />
  <polyline points="29.008,231.6649 25.008,231.6649" style="fill:none;stroke:black;stroke-width:1" />
  <polyline points="29.008,215.9844 25.008,215.9844" style="fill:none;stroke:black;stroke-width:1" />
  <polyline points="29.008,200.304 25.008,200.304" style="fill:none;stroke:black;stroke-width:1" />
  <polyline points="29.008,168.943 25.008,168.943" style="fill:none;stroke:black;stroke-width:1" />
  <polyline points="29.008,153.2626 25.008,153.2626" style="fill:none;stroke:black;stroke-width:1" />
  <polyline points="29.008,137.5821 25.008,137.5821" style="fill:none;stroke:black;stroke-width:1" />
  <polyline points="29.008,121.9017 25.008,121.9017" style="fill:none;stroke:black;stroke-width:1" />
  <polyline points="29.008,90.5407 25.008,90.5407" style="fill:none;stroke:black;stroke-width:1" />
  <polyline points="29.008,74.8603 25.008,74.8603" style="fill:none;stroke:black;stroke-width:1" />
  <polyline points="29.008,59.1798 25.008,59.1798" style="fill:none;stroke:black;stroke-width:1" />
  <polyline points="29.008,43.4994 25.008,43.4994" style="fill:none;stroke:black;stroke-width:1" />
  <text dominant-baseline="middle" text-anchor="end" transform="translate(18.008,341.4281)" font-family="Segoe UI" font-size="12" font-weight="400" fill="black">10</text>
  <text dominant-baseline="middle" text-anchor="end" transform="translate(18.008,263.0258)" font-family="Segoe UI" font-size="12" font-weight="400" fill="black">20</text>
  <text dominant-baseline="middle" text-anchor="end" transform="translate(18.008,184.6235)" font-family="Segoe UI" font-size="12" font-weight="400" fill="black">30</text>
  <text dominant-baseline="middle" text-anchor="end" transform="translate(18.008,106.2212)" font-family="Segoe UI" font-size="12" font-weight="400" fill="black">40</text>
  <polyline points="29.008,341.4281 22.008,341.4281" style="fill:none;stroke:black;stroke-width:1" />
  <polyline points="29.008,263.0258 22.008,263.0258" style="fill:none;stroke:black;stroke-width:1" />
  <polyline points="29.008,184.6235 22.008,184.6235" style="fill:none;stroke:black;stroke-width:1" />
  <polyline points="29.008,106.2212 22.008,106.2212" style="fill:none;stroke:black;stroke-width:1" />
  <text dominant-baseline="hanging" text-anchor="middle" transform="translate(63.4769,381.947)" font-family="Segoe UI" font-size="12" font-weight="400" fill="black">22. August</text>
  <text dominant-baseline="hanging" text-anchor="middle" transform="translate(143.9043,381.947)" font-family="Segoe UI" font-size="12" font-weight="400" fill="black">29. August</text>
  <text dominant-baseline="hanging" text-anchor="middle" transform="translate(224.3318,381.947)" font-family="Segoe UI" font-size="12" font-weight="400" fill="black">05. September</text>
  <text dominant-baseline="hanging" text-anchor="middle" transform="translate(304.7592,381.947)" font-family="Segoe UI" font-size="12" font-weight="400" fill="black">12. September</text>
  <text dominant-baseline="hanging" text-anchor="middle" transform="translate(385.1866,381.947)" font-family="Segoe UI" font-size="12" font-weight="400" fill="black">19. September</text>
  <text dominant-baseline="hanging" text-anchor="middle" transform="translate(465.614,381.947)" font-family="Segoe UI" font-size="12" font-weight="400" fill="black">26. September</text>
  <text dominant-baseline="hanging" text-anchor="middle" transform="translate(546.0415,381.947)" font-family="Segoe UI" font-size="12" font-weight="400" fill="black">03. October</text>
  <polyline points="63.4769,370.947 63.4769,377.947" style="fill:none;stroke:black;stroke-width:1" />
  <polyline points="143.9043,370.947 143.9043,377.947" style="fill:none;stroke:black;stroke-width:1" />
  <polyline points="224.3318,370.947 224.3318,377.947" style="fill:none;stroke:black;stroke-width:1" />
  <polyline points="304.7592,370.947 304.7592,377.947" style="fill:none;stroke:black;stroke-width:1" />
  <polyline points="385.1866,370.947 385.1866,377.947" style="fill:none;stroke:black;stroke-width:1" />
  <polyline points="465.614,370.947 465.614,377.947" style="fill:none;stroke:black;stroke-width:1" />
  <polyline points="546.0415,370.947 546.0415,377.947" style="fill:none;stroke:black;stroke-width:1" />
  <polyline points="29.008,309.1448 40.4976,306.8388 51.9873,339.8908 86.4562,318.3686 97.9458,339.8908 109.4354,342.9654 120.9251,346.04 132.4147,339.8908 166.8836,364.4876 178.3732,355.2638 189.8629,358.3384 201.3525,355.2638 212.8421,355.2638 247.311,358.3384 258.8007,367.5622 270.2903,358.3384 281.7799,355.2638 293.2696,342.9654 327.7384,309.1448 339.2281,284.548 350.7177,256.8766 362.2073,253.802 373.697,229.2052 408.1659,259.9512 419.6555,263.0258 431.1451,284.548 442.6348,275.3242 454.1244,281.4734 488.5933,195.3846 500.0829,198.4592 511.5726,192.31 523.0622,136.9672 534.5518,106.2212 569.0207,69.326 580.5104,75.4752 592,32.4308" style="fill:none;stroke:rgb(31,119,180);stroke-width:2;stroke-linejoin:bevel" />
  <text dominant-baseline="hanging" text-anchor="middle" transform="translate(310.504,8)" font-family="Segoe UI" font-size="18" font-weight="700" fill="black">7-Tage-Inzidenz Stadt Aachen 07.10.2020</text>
  <polygon points="29.008,29.0795 592,29.0795 592,370.947 29.008,370.947" style="fill:none;stroke:black;stroke-width:1" />
  <polygon points="37.008,37.0795 242.01,37.0795 242.01,63.1325 37.008,63.1325" style="fill:none;stroke:none;" />
  <text dominant-baseline="hanging" text-anchor="start" transform="translate(65.008,45.0795)" font-family="Segoe UI" font-size="12" font-weight="400" fill="black">7-Tage-Inzidenz Stadt Aachen 07.10.2020</text>
  <polyline points="45.008,50.106 61.008,50.106" style="fill:none;stroke:rgb(31,119,180);stroke-width:2" />
</svg>