<?xml version="1.0" encoding="utf-8" standalone="no"?>
<!DOCTYPE svg PUBLIC "-//W3C//DTD SVG 1.1//EN" "http://www.w3.org/Graphics/SVG/1.1/DTD/svg11.dtd">
<svg width="600" height="400" version="1.1" xmlns:xlink="http://www.w3.org/1999/xlink" xmlns="http://www.w3.org/2000/svg">
  <rect x="0" y="0" width="600" height="400" style="fill:rgb(255,255,255);stroke:none;" />
  <polyline points="34.012,362.7539 30.012,362.7539" style="fill:none;stroke:black;stroke-width:1" />
  <polyline points="34.012,348.3289 30.012,348.3289" style="fill:none;stroke:black;stroke-width:1" />
  <polyline points="34.012,333.904 30.012,333.904" style="fill:none;stroke:black;stroke-width:1" />
  <polyline points="34.012,319.479 30.012,319.479" style="fill:none;stroke:black;stroke-width:1" />
  <polyline points="34.012,290.6291 30.012,290.6291" style="fill:none;stroke:black;stroke-width:1" />
  <polyline points="34.012,276.2041 30.012,276.2041" style="fill:none;stroke:black;stroke-width:1" />
  <polyline points="34.012,261.7792 30.012,261.7792" style="fill:none;stroke:black;stroke-width:1" />
  <polyline points="34.012,247.3542 30.012,247.3542" style="fill:none;stroke:black;stroke-width:1" />
  <polyline points="34.012,218.5043 30.012,218.5043" style="fill:none;stroke:black;stroke-width:1" />
  <polyline points="34.012,204.0794 30.012,204.0794" style="fill:none;stroke:black;stroke-width:1" />
  <polyline points="34.012,189.6544 30.012,189.6544" style="fill:none;stroke:black;stroke-width:1" />
  <polyline points="34.012,175.2295 30.012,175.2295" style="fill:none;stroke:black;stroke-width:1" />
  <polyline points="34.012,146.3796 30.012,146.3796" style="fill:none;stroke:black;stroke-width:1" />
  <polyline points="34.012,131.9546 30.012,131.9546" style="fill:none;stroke:black;stroke-width:1" />
  <polyline points="34.012,117.5297 30.012,117.5297" style="fill:none;stroke:black;stroke-width:1" />
  <polyline points="34.012,103.1047 30.012,103.1047" style="fill:none;stroke:black;stroke-width:1" />
  <polyline points="34.012,74.2548 30.012,74.2548" style="fill:none;stroke:black;stroke-width:1" />
  <polyline points="34.012,59.8299 30.012,59.8299" style="fill:none;stroke:black;stroke-width:1" />
  <polyline points="34.012,45.4049 30.012,45.4049" style="fill:none;stroke:black;stroke-width:1" />
  <polyline points="34.012,30.98 30.012,30.98" style="fill:none;stroke:black;stroke-width:1" />
  <text dominant-baseline="middle" text-anchor="end" transform="translate(23.012,305.0541)" font-family="Segoe UI" font-size="12" font-weight="400" fill="black">50</text>
  <text dominant-baseline="middle" text-anchor="end" transform="translate(23.012,232.9293)" font-family="Segoe UI" font-size="12" font-weight="400" fill="black">100</text>
  <text dominant-baseline="middle" text-anchor="end" transform="translate(23.012,160.8045)" font-family="Segoe UI" font-size="12" font-weight="400" fill="black">150</text>
  <text dominant-baseline="middle" text-anchor="end" transform="translate(23.012,88.6798)" font-family="Segoe UI" font-size="12" font-weight="400" fill="black">200</text>
  <polyline points="34.012,305.0541 27.012,305.0541" style="fill:none;stroke:black;stroke-width:1" />
  <polyline points="34.012,232.9293 27.012,232.9293" style="fill:none;stroke:black;stroke-width:1" />
  <polyline points="34.012,160.8045 27.012,160.8045" style="fill:none;stroke:black;stroke-width:1" />
  <polyline points="34.012,88.6798 27.012,88.6798" style="fill:none;stroke:black;stroke-width:1" />
  <text dominant-baseline="hanging" text-anchor="middle" transform="translate(64.7486,381.947)" font-family="Segoe UI" font-size="12" font-weight="400" fill="black">01. September</text>
  <text dominant-baseline="hanging" text-anchor="middle" transform="translate(135.6793,381.947)" font-family="Segoe UI" font-size="12" font-weight="400" fill="black">01. October</text>
  <text dominant-baseline="hanging" text-anchor="middle" transform="translate(208.9743,381.947)" font-family="Segoe UI" font-size="12" font-weight="400" fill="black">01. November</text>
  <text dominant-baseline="hanging" text-anchor="middle" transform="translate(279.905,381.947)" font-family="Segoe UI" font-size="12" font-weight="400" fill="black">01. December</text>
  <text dominant-baseline="hanging" text-anchor="middle" transform="translate(353.2001,381.947)" font-family="Segoe UI" font-size="12" font-weight="400" fill="black">01. January</text>
  <text dominant-baseline="hanging" text-anchor="middle" transform="translate(426.4951,381.947)" font-family="Segoe UI" font-size="12" font-weight="400" fill="black">01. February</text>
  <text dominant-baseline="hanging" text-anchor="middle" transform="translate(492.6971,381.947)" font-family="Segoe UI" font-size="12" font-weight="400" fill="black">01. March</text>
  <text dominant-baseline="hanging" text-anchor="middle" transform="translate(565.9921,381.947)" font-family="Segoe UI" font-size="12" font-weight="400" fill="black">01. April</text>
  <polyline points="64.7486,370.947 64.7486,377.947" style="fill:none;stroke:black;stroke-width:1" />
  <polyline points="135.6793,370.947 135.6793,377.947" style="fill:none;stroke:black;stroke-width:1" />
  <polyline points="208.9743,370.947 208.9743,377.947" style="fill:none;stroke:black;stroke-width:1" />
  <polyline points="279.905,370.947 279.905,377.947" style="fill:none;stroke:black;stroke-width:1" />
  <polyline points="353.2001,370.947 353.2001,377.947" style="fill:none;stroke:black;stroke-width:1" />
  <polyline points="426.4951,370.947 426.4951,377.947" style="fill:none;stroke:black;stroke-width:1" />
  <polyline points="492.6971,370.947 492.6971,377.947" style="fill:none;stroke:black;stroke-width:1" />
  <polyline points="565.9921,370.947 565.9921,377.947" style="fill:none;stroke:black;stroke-width:1" />
  <polyline points="34.012,356.8142 36.3764,356.3899 38.7407,362.471 45.8338,358.5112 48.1981,362.471 50.5625,363.0367 52.9268,363.6024 55.2912,362.471 62.3843,366.9965 64.7486,365.2994 67.113,365.8651 69.4773,365.2994 71.8417,365.2994 78.9348,365.8651 81.2991,367.5622 83.6635,365.8651 86.0278,365.2994 88.3922,363.0367 95.4853,356.8142 97.8496,352.2887 100.214,347.1975 102.5783,346.6319 104.9427,342.1064 112.0357,347.7632 114.4001,348.3289 116.7645,352.2887 119.1288,350.5916 121.4932,351.723 128.5862,335.8838 130.9506,336.4495 133.3149,335.3182 135.6793,325.1358 138.0437,319.479 145.1367,312.6908 147.5011,313.8222 149.8654,305.9026 152.2298,304.7528 154.5942,307.6498 161.6872,292.5852 164.0516,290.847 166.4159,285.6323 168.7803,275.2029 171.1446,253.1854 178.2377,230.5885 180.6021,225.9532 182.9664,221.8974 185.3308,202.7769 187.6951,202.1975 194.7882,137.3037 197.1526,132.0891 199.5169,129.192 201.8813,131.5096 204.2456,98.4834 211.3387,118.1833 213.7031,107.7539 216.0674,108.9127 218.4318,101.3804 220.7961,119.3421 227.8892,90.9511 230.2535,84.5776 232.6179,58.5042 237.3466,32.4308 244.4397,61.4012 246.804,75.8864 249.1684,84.5776 251.5327,65.3847 253.8971,120.5009 260.9902,167.433 263.3545,150.6301 265.7189,153.5272 268.0832,208.571 270.4476,185.974 277.5407,188.8711 279.905,213.7856 282.2694,225.9532 284.6337,198.1416 286.9981,202.1975 294.0912,179.0211 296.4555,181.3388 298.8199,179.6005 301.1842,151.2095 303.5486,173.2271 310.6416,154.1066 313.006,144.2566 315.3704,132.6685 317.7347,145.4155 320.0991,134.4067 327.1921,116.445 329.5565,117.0244 331.9208,140.7802 343.7426,157.0036 346.107,154.686 348.4713,134.4067 350.8357,136.3622 360.2931,211.468 362.6575,235.2238 365.0218,250.8678 367.3862,236.962 369.7505,215.9584 379.208,192.9269 381.5723,195.2446 383.9367,217.2621 386.301,247.3913 393.3941,255.9086 395.7585,275.7823 398.1228,267.0912 400.4872,285.0529 402.8515,285.6323 409.9446,272.3059 414.6733,279.8382 417.0377,259.5589 419.402,247.9707 426.4951,264.1942 428.8594,278.3173 431.2238,272.3059 433.5882,279.8382 435.9525,290.847 443.0456,293.744 445.4099,290.847 447.7743,275.2029 450.1386,276.3617 452.503,269.4088 459.5961,283.8941 461.9604,285.6323 464.3248,306.491 466.6891,313.4439 469.0535,329.6673 476.1466,329.6673 478.5109,330.8261 480.8753,321.5556 483.2396,322.135 485.604,317.4997 492.6971,329.0879 495.0614,327.9291 497.4258,323.8732 499.7901,300.6969 502.1545,294.9028 509.2475,265.353 511.6119,265.353 513.9763,263.6148 516.3406,278.6794 518.705,272.3059 525.798,261.8765 528.1624,262.4559 530.5267,254.9236 532.8911,226.5326 535.2555,208.571 542.3485,200.4592 544.7129,199.8798 547.0772,204.5151 549.4416,192.9269 551.8059,205.6739 558.899,224.215 561.2634,220.7385 563.6277,227.6914 565.9921,243.9149 568.3564,218.4209 577.8139,205.0945 580.1782,220.1591 582.5426,201.6181 584.9069,235.2238 592,225.8953" style="fill:none;stroke:rgb(31,119,180);stroke-width:2;stroke-linejoin:bevel" />
  <text dominant-baseline="hanging" text-anchor="middle" transform="translate(313.006,8)" font-family="Segoe UI" font-size="18" font-weight="700" fill="black">7-Tage-Inzidenz Stadt Aachen 12.04.2021</text>
  <polygon points="34.012,29.0795 592,29.0795 592,370.947 34.012,370.947" style="fill:none;stroke:black;stroke-width:1" />
  <polygon points="42.012,37.0795 247.014,37.0795 247.014,63.1325 42.012,63.1325" style="fill:none;stroke:none;" />
  <text dominant-baseline="hanging" text-anchor="start" transform="translate(70.012,45.0795)" font-family="Segoe UI" font-size="12" font-weight="400" fill="black">7-Tage-Inzidenz Stadt Aachen 12.04.2021</text>
  <polyline points="50.012,50.106 66.012,50.106" style="fill:none;stroke:rgb(31,119,180);stroke-width:2" />
</svg>