<?xml version="1.0" encoding="utf-8" standalone="no"?>
<!DOCTYPE svg PUBLIC "-//W3C//DTD SVG 1.1//EN" "http://www.w3.org/Graphics/SVG/1.1/DTD/svg11.dtd">
<svg width="600" height="400" version="1.1" xmlns:xlink="http://www.w3.org/1999/xlink" xmlns="http://www.w3.org/2000/svg">
  <rect x="0" y="0" width="600" height="400" style="fill:rgb(255,255,255);stroke:none;" />
  <polyline points="34.012,362.7539 30.012,362.7539" style="fill:none;stroke:black;stroke-width:1" />
  <polyline points="34.012,348.3289 30.012,348.3289" style="fill:none;stroke:black;stroke-width:1" />
  <polyline points="34.012,333.904 30.012,333.904" style="fill:none;stroke:black;stroke-width:1" />
  <polyline points="34.012,319.479 30.012,319.479" style="fill:none;stroke:black;stroke-width:1" />
  <polyline points="34.012,290.6291 30.012,290.6291" style="fill:none;stroke:black;stroke-width:1" />
  <polyline points="34.012,276.2041 30.012,276.2041" style="fill:none;stroke:black;stroke-width:1" />
  <polyline points="34.012,261.7792 30.012,261.7792" style="fill:none;stroke:black;stroke-width:1" />
  <polyline points="34.012,247.3542 30.012,247.3542" style="fill:none;stroke:black;stroke-width:1" />
  <polyline points="34.012,218.5043 30.012,218.5043" style="fill:none;stroke:black;stroke-width:1" />
  <polyline points="34.012,204.0794 30.012,204.0794" style="fill:none;stroke:black;stroke-width:1" />
  <polyline points="34.012,189.6544 30.012,189.6544" style="fill:none;stroke:black;stroke-width:1" />
  <polyline points="34.012,175.2295 30.012,175.2295" style="fill:none;stroke:black;stroke-width:1" />
  <polyline points="34.012,146.3796 30.012,146.3796" style="fill:none;stroke:black;stroke-width:1" />
  <polyline points="34.012,131.9546 30.012,131.9546" style="fill:none;stroke:black;stroke-width:1" />
  <polyline points="34.012,117.5297 30.012,117.5297" style="fill:none;stroke:black;stroke-width:1" />
  <polyline points="34.012,103.1047 30.012,103.1047" style="fill:none;stroke:black;stroke-width:1" />
  <polyline points="34.012,74.2548 30.012,74.2548" style="fill:none;stroke:black;stroke-width:1" />
  <polyline points="34.012,59.8299 30.012,59.8299" style="fill:none;stroke:black;stroke-width:1" />
  <polyline points="34.012,45.4049 30.012,45.4049" style="fill:none;stroke:black;stroke-width:1" />
  <polyline points="34.012,30.98 30.012,30.98" style="fill:none;stroke:black;stroke-width:1" />
  <text dominant-baseline="middle" text-anchor="end" transform="translate(23.012,305.0541)" font-family="Segoe UI" font-size="12" font-weight="400" fill="black">50</text>
  <text dominant-baseline="middle" text-anchor="end" transform="translate(23.012,232.9293)" font-family="Segoe UI" font-size="12" font-weight="400" fill="black">100</text>
  <text dominant-baseline="middle" text-anchor="end" transform="translate(23.012,160.8045)" font-family="Segoe UI" font-size="12" font-weight="400" fill="black">150</text>
  <text dominant-baseline="middle" text-anchor="end" transform="translate(23.012,88.6798)" font-family="Segoe UI" font-size="12" font-weight="400" fill="black">200</text>
  <polyline points="34.012,305.0541 27.012,305.0541" style="fill:none;stroke:black;stroke-width:1" />
  <polyline points="34.012,232.9293 27.012,232.9293" style="fill:none;stroke:black;stroke-width:1" />
  <polyline points="34.012,160.8045 27.012,160.8045" style="fill:none;stroke:black;stroke-width:1" />
  <polyline points="34.012,88.6798 27.012,88.6798" style="fill:none;stroke:black;stroke-width:1" />
  <text dominant-baseline="hanging" text-anchor="middle" transform="translate(69.9221,381.947)" font-family="Segoe UI" font-size="12" font-weight="400" fill="black">01. September</text>
  <text dominant-baseline="hanging" text-anchor="middle" transform="translate(152.7916,381.947)" font-family="Segoe UI" font-size="12" font-weight="400" fill="black">01. October</text>
  <text dominant-baseline="hanging" text-anchor="middle" transform="translate(238.4234,381.947)" font-family="Segoe UI" font-size="12" font-weight="400" fill="black">01. November</text>
  <text dominant-baseline="hanging" text-anchor="middle" transform="translate(321.293,381.947)" font-family="Segoe UI" font-size="12" font-weight="400" fill="black">01. December</text>
  <text dominant-baseline="hanging" text-anchor="middle" transform="translate(406.9248,381.947)" font-family="Segoe UI" font-size="12" font-weight="400" fill="black">01. January</text>
  <text dominant-baseline="hanging" text-anchor="middle" transform="translate(492.5566,381.947)" font-family="Segoe UI" font-size="12" font-weight="400" fill="black">01. February</text>
  <text dominant-baseline="hanging" text-anchor="middle" transform="translate(569.9015,381.947)" font-family="Segoe UI" font-size="12" font-weight="400" fill="black">01. March</text>
  <polyline points="69.9221,370.947 69.9221,377.947" style="fill:none;stroke:black;stroke-width:1" />
  <polyline points="152.7916,370.947 152.7916,377.947" style="fill:none;stroke:black;stroke-width:1" />
  <polyline points="238.4234,370.947 238.4234,377.947" style="fill:none;stroke:black;stroke-width:1" />
  <polyline points="321.293,370.947 321.293,377.947" style="fill:none;stroke:black;stroke-width:1" />
  <polyline points="406.9248,370.947 406.9248,377.947" style="fill:none;stroke:black;stroke-width:1" />
  <polyline points="492.5566,370.947 492.5566,377.947" style="fill:none;stroke:black;stroke-width:1" />
  <polyline points="569.9015,370.947 569.9015,377.947" style="fill:none;stroke:black;stroke-width:1" />
  <polyline points="34.012,356.8142 36.7743,356.3899 39.5366,362.471 47.8236,358.5112 50.5859,362.471 53.3482,363.0367 56.1105,363.6024 58.8729,362.471 67.1598,366.9965 69.9221,365.2994 72.6844,365.8651 75.4468,365.2994 78.2091,365.2994 86.496,365.8651 89.2583,367.5622 92.0207,365.8651 94.783,365.2994 97.5453,363.0367 105.8322,356.8142 108.5946,352.2887 111.3569,347.1975 114.1192,346.6319 116.8815,342.1064 125.1685,347.7632 127.9308,348.3289 130.6931,352.2887 133.4554,350.5916 136.2177,351.723 144.5047,335.8838 147.267,336.4495 150.0293,335.3182 152.7916,325.1358 155.5539,319.479 163.8409,312.6908 166.6032,313.8222 169.3655,305.9026 172.1278,304.7528 174.8902,307.6498 183.1771,292.5852 185.9394,290.847 188.7017,285.6323 191.4641,275.2029 194.2264,253.1854 202.5133,230.5885 205.2756,225.9532 208.038,221.8974 210.8003,202.7769 213.5626,202.1975 221.8495,137.3037 224.6119,132.0891 227.3742,129.192 230.1365,131.5096 232.8988,98.4834 241.1858,118.1833 243.9481,107.7539 246.7104,108.9127 249.4727,101.3804 252.235,119.3421 260.522,90.9511 263.2843,84.5776 266.0466,58.5042 271.5712,32.4308 279.8582,61.4012 282.6205,75.8864 285.3828,84.5776 288.1451,65.3847 290.9075,120.5009 299.1944,167.433 301.9567,150.6301 304.719,153.5272 307.4814,208.571 310.2437,185.974 318.5306,188.8711 321.293,213.7856 324.0553,225.9532 326.8176,198.1416 329.5799,202.1975 337.8669,179.0211 340.6292,181.3388 343.3915,179.6005 346.1538,151.2095 348.9161,173.2271 357.2031,154.1066 359.9654,144.2566 362.7277,132.6685 365.49,145.4155 368.2523,134.4067 376.5393,116.445 379.3016,117.0244 382.0639,140.7802 395.8755,157.0036 398.6378,154.686 401.4001,134.4067 404.1625,136.3622 415.2117,211.468 417.974,235.2238 420.7364,250.8678 423.4987,236.962 426.261,215.9584 437.3103,192.9269 440.0726,195.2446 442.8349,217.2621 445.5972,247.3913 453.8842,255.9086 456.6465,275.7823 459.4088,267.0912 462.1711,285.0529 464.9334,285.6323 473.2204,272.3059 478.745,279.8382 481.5073,259.5589 484.2696,247.9707 492.5566,264.1942 495.3189,278.3173 498.0812,272.3059 500.8435,279.8382 503.6059,290.847 511.8928,293.744 514.6551,290.847 517.4174,275.2029 520.1798,276.3617 522.9421,269.4088 531.229,283.8941 533.9913,285.6323 536.7537,306.491 539.516,313.4439 542.2783,329.6673 550.5652,329.6673 553.3276,330.8261 556.0899,321.5556 558.8522,322.135 561.6145,317.4997 569.9015,329.0879 572.6638,327.9291 575.4261,323.8732 578.1884,300.6969 580.9507,294.9028 589.2377,265.353 592,265.353" style="fill:none;stroke:rgb(31,119,180);stroke-width:2;stroke-linejoin:bevel" />
  <text dominant-baseline="hanging" text-anchor="middle" transform="translate(313.006,8)" font-family="Segoe UI" font-size="18" font-weight="700" fill="black">7-Tage-Inzidenz Stadt Aachen 09.03.2021</text>
  <polygon points="34.012,29.0795 592,29.0795 592,370.947 34.012,370.947" style="fill:none;stroke:black;stroke-width:1" />
  <polygon points="42.012,37.0795 247.014,37.0795 247.014,63.1325 42.012,63.1325" style="fill:none;stroke:none;" />
  <text dominant-baseline="hanging" text-anchor="start" transform="translate(70.012,45.0795)" font-family="Segoe UI" font-size="12" font-weight="400" fill="black">7-Tage-Inzidenz Stadt Aachen 09.03.2021</text>
  <polyline points="50.012,50.106 66.012,50.106" style="fill:none;stroke:rgb(31,119,180);stroke-width:2" />
</svg>