<?xml version="1.0" encoding="utf-8" standalone="no"?>
<!DOCTYPE svg PUBLIC "-//W3C//DTD SVG 1.1//EN" "http://www.w3.org/Graphics/SVG/1.1/DTD/svg11.dtd">
<svg width="600" height="400" version="1.1" xmlns:xlink="http://www.w3.org/1999/xlink" xmlns="http://www.w3.org/2000/svg">
  <rect x="0" y="0" width="600" height="400" style="fill:rgb(255,255,255);stroke:none;" />
  <polyline points="34.012,362.7539 30.012,362.7539" style="fill:none;stroke:black;stroke-width:1" />
  <polyline points="34.012,348.3289 30.012,348.3289" style="fill:none;stroke:black;stroke-width:1" />
  <polyline points="34.012,333.904 30.012,333.904" style="fill:none;stroke:black;stroke-width:1" />
  <polyline points="34.012,319.479 30.012,319.479" style="fill:none;stroke:black;stroke-width:1" />
  <polyline points="34.012,290.6291 30.012,290.6291" style="fill:none;stroke:black;stroke-width:1" />
  <polyline points="34.012,276.2041 30.012,276.2041" style="fill:none;stroke:black;stroke-width:1" />
  <polyline points="34.012,261.7792 30.012,261.7792" style="fill:none;stroke:black;stroke-width:1" />
  <polyline points="34.012,247.3542 30.012,247.3542" style="fill:none;stroke:black;stroke-width:1" />
  <polyline points="34.012,218.5043 30.012,218.5043" style="fill:none;stroke:black;stroke-width:1" />
  <polyline points="34.012,204.0794 30.012,204.0794" style="fill:none;stroke:black;stroke-width:1" />
  <polyline points="34.012,189.6544 30.012,189.6544" style="fill:none;stroke:black;stroke-width:1" />
  <polyline points="34.012,175.2295 30.012,175.2295" style="fill:none;stroke:black;stroke-width:1" />
  <polyline points="34.012,146.3796 30.012,146.3796" style="fill:none;stroke:black;stroke-width:1" />
  <polyline points="34.012,131.9546 30.012,131.9546" style="fill:none;stroke:black;stroke-width:1" />
  <polyline points="34.012,117.5297 30.012,117.5297" style="fill:none;stroke:black;stroke-width:1" />
  <polyline points="34.012,103.1047 30.012,103.1047" style="fill:none;stroke:black;stroke-width:1" />
  <polyline points="34.012,74.2548 30.012,74.2548" style="fill:none;stroke:black;stroke-width:1" />
  <polyline points="34.012,59.8299 30.012,59.8299" style="fill:none;stroke:black;stroke-width:1" />
  <polyline points="34.012,45.4049 30.012,45.4049" style="fill:none;stroke:black;stroke-width:1" />
  <polyline points="34.012,30.98 30.012,30.98" style="fill:none;stroke:black;stroke-width:1" />
  <text dominant-baseline="middle" text-anchor="end" transform="translate(23.012,305.0541)" font-family="Segoe UI" font-size="12" font-weight="400" fill="black">50</text>
  <text dominant-baseline="middle" text-anchor="end" transform="translate(23.012,232.9293)" font-family="Segoe UI" font-size="12" font-weight="400" fill="black">100</text>
  <text dominant-baseline="middle" text-anchor="end" transform="translate(23.012,160.8045)" font-family="Segoe UI" font-size="12" font-weight="400" fill="black">150</text>
  <text dominant-baseline="middle" text-anchor="end" transform="translate(23.012,88.6798)" font-family="Segoe UI" font-size="12" font-weight="400" fill="black">200</text>
  <polyline points="34.012,305.0541 27.012,305.0541" style="fill:none;stroke:black;stroke-width:1" />
  <polyline points="34.012,232.9293 27.012,232.9293" style="fill:none;stroke:black;stroke-width:1" />
  <polyline points="34.012,160.8045 27.012,160.8045" style="fill:none;stroke:black;stroke-width:1" />
  <polyline points="34.012,88.6798 27.012,88.6798" style="fill:none;stroke:black;stroke-width:1" />
  <text dominant-baseline="hanging" text-anchor="middle" transform="translate(74.3111,381.947)" font-family="Segoe UI" font-size="12" font-weight="400" fill="black">01. September</text>
  <text dominant-baseline="hanging" text-anchor="middle" transform="translate(167.3091,381.947)" font-family="Segoe UI" font-size="12" font-weight="400" fill="black">01. October</text>
  <text dominant-baseline="hanging" text-anchor="middle" transform="translate(263.4071,381.947)" font-family="Segoe UI" font-size="12" font-weight="400" fill="black">01. November</text>
  <text dominant-baseline="hanging" text-anchor="middle" transform="translate(356.4051,381.947)" font-family="Segoe UI" font-size="12" font-weight="400" fill="black">01. December</text>
  <text dominant-baseline="hanging" text-anchor="middle" transform="translate(452.503,381.947)" font-family="Segoe UI" font-size="12" font-weight="400" fill="black">01. January</text>
  <text dominant-baseline="hanging" text-anchor="middle" transform="translate(548.6009,381.947)" font-family="Segoe UI" font-size="12" font-weight="400" fill="black">01. February</text>
  <polyline points="74.3111,370.947 74.3111,377.947" style="fill:none;stroke:black;stroke-width:1" />
  <polyline points="167.3091,370.947 167.3091,377.947" style="fill:none;stroke:black;stroke-width:1" />
  <polyline points="263.4071,370.947 263.4071,377.947" style="fill:none;stroke:black;stroke-width:1" />
  <polyline points="356.4051,370.947 356.4051,377.947" style="fill:none;stroke:black;stroke-width:1" />
  <polyline points="452.503,370.947 452.503,377.947" style="fill:none;stroke:black;stroke-width:1" />
  <polyline points="548.6009,370.947 548.6009,377.947" style="fill:none;stroke:black;stroke-width:1" />
  <polyline points="34.012,356.8142 37.1119,356.3899 40.2119,362.471 49.5117,358.5112 52.6116,362.471 55.7115,363.0367 58.8115,363.6024 61.9114,362.471 71.2112,366.9965 74.3111,365.2994 77.4111,365.8651 80.511,365.2994 83.6109,365.2994 92.9107,365.8651 96.0107,367.5622 99.1106,365.8651 102.2105,365.2994 105.3105,363.0367 114.6103,356.8142 117.7102,352.2887 120.8101,347.1975 123.9101,346.6319 127.01,342.1064 136.3098,347.7632 139.4097,348.3289 142.5097,352.2887 145.6096,350.5916 148.7095,351.723 158.0093,335.8838 161.1093,336.4495 164.2092,335.3182 167.3091,325.1358 170.4091,319.479 179.7089,312.6908 182.8088,313.8222 185.9087,305.9026 189.0087,304.7528 192.1086,307.6498 201.4084,292.5852 204.5083,290.847 207.6083,285.6323 210.7082,275.2029 213.8081,253.1854 223.1079,230.5885 226.2079,225.9532 229.3078,221.8974 232.4077,202.7769 235.5077,202.1975 244.8075,137.3037 247.9074,132.0891 251.0073,129.192 254.1073,131.5096 257.2072,98.4834 266.507,118.1833 269.6069,107.7539 272.7069,108.9127 275.8068,101.3804 278.9067,119.3421 288.2065,90.9511 291.3065,84.5776 294.4064,58.5042 300.6063,32.4308 309.9061,61.4012 313.006,75.8864 316.1059,84.5776 319.2059,65.3847 322.3058,120.5009 331.6056,167.433 334.7055,150.6301 337.8055,153.5272 340.9054,208.571 344.0053,185.974 353.3051,188.8711 356.4051,213.7856 359.505,225.9532 362.6049,198.1416 365.7049,202.1975 375.0047,179.0211 378.1046,181.3388 381.2045,179.6005 384.3045,151.2095 387.4044,173.2271 396.7042,154.1066 399.8041,144.2566 402.9041,132.6685 406.004,145.4155 409.1039,134.4067 418.4037,116.445 421.5037,117.0244 424.6036,140.7802 440.1033,157.0036 443.2032,154.686 446.3031,134.4067 449.4031,136.3622 461.8028,211.468 464.9027,235.2238 468.0027,250.8678 471.1026,236.962 474.2025,215.9584 486.6023,192.9269 489.7022,195.2446 492.8021,217.2621 495.9021,247.3913 505.2019,255.9086 508.3018,275.7823 511.4017,267.0912 514.5017,285.0529 517.6016,285.6323 526.9014,272.3059 533.1013,279.8382 536.2012,259.5589 539.3011,247.9707 548.6009,264.1942 551.7009,278.3173 554.8008,272.3059 557.9007,279.8382 561.0007,290.847 570.3005,293.744 573.4004,290.847 576.5003,275.2029 579.6003,276.3617 582.7002,269.4088 592,283.8941" style="fill:none;stroke:rgb(31,119,180);stroke-width:2;stroke-linejoin:bevel" />
  <text dominant-baseline="hanging" text-anchor="middle" transform="translate(313.006,8)" font-family="Segoe UI" font-size="18" font-weight="700" fill="black">7-Tage-Inzidenz Stadt Aachen 15.02.2021</text>
  <polygon points="34.012,29.0795 592,29.0795 592,370.947 34.012,370.947" style="fill:none;stroke:black;stroke-width:1" />
  <polygon points="42.012,37.0795 247.014,37.0795 247.014,63.1325 42.012,63.1325" style="fill:none;stroke:none;" />
  <text dominant-baseline="hanging" text-anchor="start" transform="translate(70.012,45.0795)" font-family="Segoe UI" font-size="12" font-weight="400" fill="black">7-Tage-Inzidenz Stadt Aachen 15.02.2021</text>
  <polyline points="50.012,50.106 66.012,50.106" style="fill:none;stroke:rgb(31,119,180);stroke-width:2" />
</svg>