<?xml version="1.0" encoding="utf-8" standalone="no"?>
<!DOCTYPE svg PUBLIC "-//W3C//DTD SVG 1.1//EN" "http://www.w3.org/Graphics/SVG/1.1/DTD/svg11.dtd">
<svg width="600" height="400" version="1.1" xmlns:xlink="http://www.w3.org/1999/xlink" xmlns="http://www.w3.org/2000/svg">
  <rect x="0" y="0" width="600" height="400" style="fill:rgb(255,255,255);stroke:none;" />
  <polyline points="34.012,362.7539 30.012,362.7539" style="fill:none;stroke:black;stroke-width:1" />
  <polyline points="34.012,348.3289 30.012,348.3289" style="fill:none;stroke:black;stroke-width:1" />
  <polyline points="34.012,333.904 30.012,333.904" style="fill:none;stroke:black;stroke-width:1" />
  <polyline points="34.012,319.479 30.012,319.479" style="fill:none;stroke:black;stroke-width:1" />
  <polyline points="34.012,290.6291 30.012,290.6291" style="fill:none;stroke:black;stroke-width:1" />
  <polyline points="34.012,276.2041 30.012,276.2041" style="fill:none;stroke:black;stroke-width:1" />
  <polyline points="34.012,261.7792 30.012,261.7792" style="fill:none;stroke:black;stroke-width:1" />
  <polyline points="34.012,247.3542 30.012,247.3542" style="fill:none;stroke:black;stroke-width:1" />
  <polyline points="34.012,218.5043 30.012,218.5043" style="fill:none;stroke:black;stroke-width:1" />
  <polyline points="34.012,204.0794 30.012,204.0794" style="fill:none;stroke:black;stroke-width:1" />
  <polyline points="34.012,189.6544 30.012,189.6544" style="fill:none;stroke:black;stroke-width:1" />
  <polyline points="34.012,175.2295 30.012,175.2295" style="fill:none;stroke:black;stroke-width:1" />
  <polyline points="34.012,146.3796 30.012,146.3796" style="fill:none;stroke:black;stroke-width:1" />
  <polyline points="34.012,131.9546 30.012,131.9546" style="fill:none;stroke:black;stroke-width:1" />
  <polyline points="34.012,117.5297 30.012,117.5297" style="fill:none;stroke:black;stroke-width:1" />
  <polyline points="34.012,103.1047 30.012,103.1047" style="fill:none;stroke:black;stroke-width:1" />
  <polyline points="34.012,74.2548 30.012,74.2548" style="fill:none;stroke:black;stroke-width:1" />
  <polyline points="34.012,59.8299 30.012,59.8299" style="fill:none;stroke:black;stroke-width:1" />
  <polyline points="34.012,45.4049 30.012,45.4049" style="fill:none;stroke:black;stroke-width:1" />
  <polyline points="34.012,30.98 30.012,30.98" style="fill:none;stroke:black;stroke-width:1" />
  <text dominant-baseline="middle" text-anchor="end" transform="translate(23.012,305.0541)" font-family="Segoe UI" font-size="12" font-weight="400" fill="black">50</text>
  <text dominant-baseline="middle" text-anchor="end" transform="translate(23.012,232.9293)" font-family="Segoe UI" font-size="12" font-weight="400" fill="black">100</text>
  <text dominant-baseline="middle" text-anchor="end" transform="translate(23.012,160.8045)" font-family="Segoe UI" font-size="12" font-weight="400" fill="black">150</text>
  <text dominant-baseline="middle" text-anchor="end" transform="translate(23.012,88.6798)" font-family="Segoe UI" font-size="12" font-weight="400" fill="black">200</text>
  <polyline points="34.012,305.0541 27.012,305.0541" style="fill:none;stroke:black;stroke-width:1" />
  <polyline points="34.012,232.9293 27.012,232.9293" style="fill:none;stroke:black;stroke-width:1" />
  <polyline points="34.012,160.8045 27.012,160.8045" style="fill:none;stroke:black;stroke-width:1" />
  <polyline points="34.012,88.6798 27.012,88.6798" style="fill:none;stroke:black;stroke-width:1" />
  <text dominant-baseline="hanging" text-anchor="middle" transform="translate(63.3798,381.947)" font-family="Segoe UI" font-size="12" font-weight="400" fill="black">01. September</text>
  <text dominant-baseline="hanging" text-anchor="middle" transform="translate(131.1516,381.947)" font-family="Segoe UI" font-size="12" font-weight="400" fill="black">01. October</text>
  <text dominant-baseline="hanging" text-anchor="middle" transform="translate(201.1825,381.947)" font-family="Segoe UI" font-size="12" font-weight="400" fill="black">01. November</text>
  <text dominant-baseline="hanging" text-anchor="middle" transform="translate(268.9543,381.947)" font-family="Segoe UI" font-size="12" font-weight="400" fill="black">01. December</text>
  <text dominant-baseline="hanging" text-anchor="middle" transform="translate(338.9852,381.947)" font-family="Segoe UI" font-size="12" font-weight="400" fill="black">01. January</text>
  <text dominant-baseline="hanging" text-anchor="middle" transform="translate(409.0161,381.947)" font-family="Segoe UI" font-size="12" font-weight="400" fill="black">01. February</text>
  <text dominant-baseline="hanging" text-anchor="middle" transform="translate(472.2698,381.947)" font-family="Segoe UI" font-size="12" font-weight="400" fill="black">01. March</text>
  <text dominant-baseline="hanging" text-anchor="middle" transform="translate(542.3007,381.947)" font-family="Segoe UI" font-size="12" font-weight="400" fill="black">01. April</text>
  <polyline points="63.3798,370.947 63.3798,377.947" style="fill:none;stroke:black;stroke-width:1" />
  <polyline points="131.1516,370.947 131.1516,377.947" style="fill:none;stroke:black;stroke-width:1" />
  <polyline points="201.1825,370.947 201.1825,377.947" style="fill:none;stroke:black;stroke-width:1" />
  <polyline points="268.9543,370.947 268.9543,377.947" style="fill:none;stroke:black;stroke-width:1" />
  <polyline points="338.9852,370.947 338.9852,377.947" style="fill:none;stroke:black;stroke-width:1" />
  <polyline points="409.0161,370.947 409.0161,377.947" style="fill:none;stroke:black;stroke-width:1" />
  <polyline points="472.2698,370.947 472.2698,377.947" style="fill:none;stroke:black;stroke-width:1" />
  <polyline points="542.3007,370.947 542.3007,377.947" style="fill:none;stroke:black;stroke-width:1" />
  <polyline points="34.012,356.8142 36.2711,356.3899 38.5301,362.471 45.3073,358.5112 47.5664,362.471 49.8254,363.0367 52.0845,363.6024 54.3435,362.471 61.1207,366.9965 63.3798,365.2994 65.6389,365.8651 67.8979,365.2994 70.157,365.2994 76.9342,365.8651 79.1932,367.5622 81.4523,365.8651 83.7113,365.2994 85.9704,363.0367 92.7476,356.8142 95.0066,352.2887 97.2657,347.1975 99.5248,346.6319 101.7838,342.1064 108.561,347.7632 110.8201,348.3289 113.0791,352.2887 115.3382,350.5916 117.5972,351.723 124.3744,335.8838 126.6335,336.4495 128.8926,335.3182 131.1516,325.1358 133.4107,319.479 140.1879,312.6908 142.4469,313.8222 144.706,305.9026 146.965,304.7528 149.2241,307.6498 156.0013,292.5852 158.2603,290.847 160.5194,285.6323 162.7785,275.2029 165.0375,253.1854 171.8147,230.5885 174.0738,225.9532 176.3328,221.8974 178.5919,202.7769 180.8509,202.1975 187.6281,137.3037 189.8872,132.0891 192.1463,129.192 194.4053,131.5096 196.6644,98.4834 203.4416,118.1833 205.7006,107.7539 207.9597,108.9127 210.2187,101.3804 212.4778,119.3421 219.255,90.9511 221.514,84.5776 223.7731,58.5042 228.2912,32.4308 235.0684,61.4012 237.3275,75.8864 239.5865,84.5776 241.8456,65.3847 244.1046,120.5009 250.8818,167.433 253.1409,150.6301 255.4,153.5272 257.659,208.571 259.9181,185.974 266.6953,188.8711 268.9543,213.7856 271.2134,225.9532 273.4724,198.1416 275.7315,202.1975 282.5087,179.0211 284.7677,181.3388 287.0268,179.6005 289.2859,151.2095 291.5449,173.2271 298.3221,154.1066 300.5812,144.2566 302.8402,132.6685 305.0993,145.4155 307.3583,134.4067 314.1355,116.445 316.3946,117.0244 318.6537,140.7802 329.949,157.0036 332.208,154.686 334.4671,134.4067 336.7261,136.3622 345.7624,211.468 348.0214,235.2238 350.2805,250.8678 352.5396,236.962 354.7986,215.9584 363.8349,192.9269 366.0939,195.2446 368.353,217.2621 370.612,247.3913 377.3892,255.9086 379.6483,275.7823 381.9074,267.0912 384.1664,285.0529 386.4255,285.6323 393.2027,272.3059 397.7208,279.8382 399.9798,259.5589 402.2389,247.9707 409.0161,264.1942 411.2751,278.3173 413.5342,272.3059 415.7933,279.8382 418.0523,290.847 424.8295,293.744 427.0886,290.847 429.3476,275.2029 431.6067,276.3617 433.8657,269.4088 440.6429,283.8941 442.902,285.6323 445.1611,306.491 447.4201,313.4439 449.6792,329.6673 456.4564,329.6673 458.7154,330.8261 460.9745,321.5556 463.2335,322.135 465.4926,317.4997 472.2698,329.0879 474.5288,327.9291 476.7879,323.8732 479.047,300.6969 481.306,294.9028 488.0832,265.353 490.3423,265.353 492.6013,263.6148 494.8604,278.6794 497.1194,272.3059 503.8966,261.8765 506.1557,262.4559 508.4148,254.9236 510.6738,226.5326 512.9329,208.571 519.7101,200.4592 521.9691,199.8798 524.2282,204.5151 526.4872,192.9269 528.7463,205.6739 535.5235,224.215 537.7825,220.7385 540.0416,227.6914 542.3007,243.9149 544.5597,218.4209 553.596,205.0945 555.855,220.1591 558.1141,201.6181 560.3731,235.2238 567.1503,225.8953 569.4094,216.1033 571.6685,168.0124 573.9275,188.8711 576.1866,184.8152 582.9638,176.1241 585.2228,157.0036 587.4819,162.2183 589.7409,148.3125 592,123.9773" style="fill:none;stroke:rgb(31,119,180);stroke-width:2;stroke-linejoin:bevel" />
  <text dominant-baseline="hanging" text-anchor="middle" transform="translate(313.006,8)" font-family="Segoe UI" font-size="18" font-weight="700" fill="black">7-Tage-Inzidenz Stadt Aachen 23.04.2021</text>
  <polygon points="34.012,29.0795 592,29.0795 592,370.947 34.012,370.947" style="fill:none;stroke:black;stroke-width:1" />
  <polygon points="42.012,37.0795 247.014,37.0795 247.014,63.1325 42.012,63.1325" style="fill:none;stroke:none;" />
  <text dominant-baseline="hanging" text-anchor="start" transform="translate(70.012,45.0795)" font-family="Segoe UI" font-size="12" font-weight="400" fill="black">7-Tage-Inzidenz Stadt Aachen 23.04.2021</text>
  <polyline points="50.012,50.106 66.012,50.106" style="fill:none;stroke:rgb(31,119,180);stroke-width:2" />
</svg>