<?xml version="1.0" encoding="utf-8" standalone="no"?>
<!DOCTYPE svg PUBLIC "-//W3C//DTD SVG 1.1//EN" "http://www.w3.org/Graphics/SVG/1.1/DTD/svg11.dtd">
<svg width="600" height="400" version="1.1" xmlns:xlink="http://www.w3.org/1999/xlink" xmlns="http://www.w3.org/2000/svg">
  <rect x="0" y="0" width="600" height="400" style="fill:rgb(255,255,255);stroke:none;" />
  <polyline points="34.012,362.4131 30.012,362.4131" style="fill:none;stroke:black;stroke-width:1" />
  <polyline points="34.012,348.003 30.012,348.003" style="fill:none;stroke:black;stroke-width:1" />
  <polyline points="34.012,333.5929 30.012,333.5929" style="fill:none;stroke:black;stroke-width:1" />
  <polyline points="34.012,319.1829 30.012,319.1829" style="fill:none;stroke:black;stroke-width:1" />
  <polyline points="34.012,290.3627 30.012,290.3627" style="fill:none;stroke:black;stroke-width:1" />
  <polyline points="34.012,275.9527 30.012,275.9527" style="fill:none;stroke:black;stroke-width:1" />
  <polyline points="34.012,261.5426 30.012,261.5426" style="fill:none;stroke:black;stroke-width:1" />
  <polyline points="34.012,247.1325 30.012,247.1325" style="fill:none;stroke:black;stroke-width:1" />
  <polyline points="34.012,218.3124 30.012,218.3124" style="fill:none;stroke:black;stroke-width:1" />
  <polyline points="34.012,203.9023 30.012,203.9023" style="fill:none;stroke:black;stroke-width:1" />
  <polyline points="34.012,189.4922 30.012,189.4922" style="fill:none;stroke:black;stroke-width:1" />
  <polyline points="34.012,175.0822 30.012,175.0822" style="fill:none;stroke:black;stroke-width:1" />
  <polyline points="34.012,146.262 30.012,146.262" style="fill:none;stroke:black;stroke-width:1" />
  <polyline points="34.012,131.852 30.012,131.852" style="fill:none;stroke:black;stroke-width:1" />
  <polyline points="34.012,117.4419 30.012,117.4419" style="fill:none;stroke:black;stroke-width:1" />
  <polyline points="34.012,103.0318 30.012,103.0318" style="fill:none;stroke:black;stroke-width:1" />
  <polyline points="34.012,74.2117 30.012,74.2117" style="fill:none;stroke:black;stroke-width:1" />
  <polyline points="34.012,59.8016 30.012,59.8016" style="fill:none;stroke:black;stroke-width:1" />
  <polyline points="34.012,45.3915 30.012,45.3915" style="fill:none;stroke:black;stroke-width:1" />
  <polyline points="34.012,30.9815 30.012,30.9815" style="fill:none;stroke:black;stroke-width:1" />
  <polyline points="57.9521,370.947 57.9521,374.947" style="fill:none;stroke:black;stroke-width:1" />
  <polyline points="170.2863,370.947 170.2863,374.947" style="fill:none;stroke:black;stroke-width:1" />
  <polyline points="282.6205,370.947 282.6205,374.947" style="fill:none;stroke:black;stroke-width:1" />
  <polyline points="391.2716,370.947 391.2716,374.947" style="fill:none;stroke:black;stroke-width:1" />
  <polyline points="503.6059,370.947 503.6059,374.947" style="fill:none;stroke:black;stroke-width:1" />
  <text dominant-baseline="middle" text-anchor="end" transform="translate(23.012,304.7728)" font-family="Segoe UI" font-size="12" font-weight="400" fill="black">50</text>
  <text dominant-baseline="middle" text-anchor="end" transform="translate(23.012,232.7224)" font-family="Segoe UI" font-size="12" font-weight="400" fill="black">100</text>
  <text dominant-baseline="middle" text-anchor="end" transform="translate(23.012,160.6721)" font-family="Segoe UI" font-size="12" font-weight="400" fill="black">150</text>
  <text dominant-baseline="middle" text-anchor="end" transform="translate(23.012,88.6218)" font-family="Segoe UI" font-size="12" font-weight="400" fill="black">200</text>
  <polyline points="34.012,304.7728 27.012,304.7728" style="fill:none;stroke:black;stroke-width:1" />
  <polyline points="34.012,232.7224 27.012,232.7224" style="fill:none;stroke:black;stroke-width:1" />
  <polyline points="34.012,160.6721 27.012,160.6721" style="fill:none;stroke:black;stroke-width:1" />
  <polyline points="34.012,88.6218 27.012,88.6218" style="fill:none;stroke:black;stroke-width:1" />
  <text dominant-baseline="hanging" text-anchor="middle" transform="translate(113.1984,381.947)" font-family="Segoe UI" font-size="12" font-weight="400" fill="black">01. October</text>
  <text dominant-baseline="hanging" text-anchor="middle" transform="translate(225.5326,381.947)" font-family="Segoe UI" font-size="12" font-weight="400" fill="black">01. December</text>
  <text dominant-baseline="hanging" text-anchor="middle" transform="translate(339.7084,381.947)" font-family="Segoe UI" font-size="12" font-weight="400" fill="black">01. February</text>
  <text dominant-baseline="hanging" text-anchor="middle" transform="translate(448.3595,381.947)" font-family="Segoe UI" font-size="12" font-weight="400" fill="black">01. April</text>
  <text dominant-baseline="hanging" text-anchor="middle" transform="translate(560.6937,381.947)" font-family="Segoe UI" font-size="12" font-weight="400" fill="black">01. June</text>
  <polyline points="113.1984,370.947 113.1984,377.947" style="fill:none;stroke:black;stroke-width:1" />
  <polyline points="225.5326,370.947 225.5326,377.947" style="fill:none;stroke:black;stroke-width:1" />
  <polyline points="339.7084,370.947 339.7084,377.947" style="fill:none;stroke:black;stroke-width:1" />
  <polyline points="448.3595,370.947 448.3595,377.947" style="fill:none;stroke:black;stroke-width:1" />
  <polyline points="560.6937,370.947 560.6937,377.947" style="fill:none;stroke:black;stroke-width:1" />
  <polyline points="34.012,356.4795 35.8535,356.0557 37.6951,362.1305 43.2197,358.1748 45.0613,362.1305 46.9028,362.6956 48.7444,363.2607 50.5859,362.1305 56.1105,366.6513 57.9521,364.956 59.7936,365.5211 61.6352,364.956 63.4767,364.956 69.0013,365.5211 70.8429,367.2164 72.6844,365.5211 74.526,364.956 76.3675,362.6956 81.8922,356.4795 83.7337,351.9587 85.5752,346.8728 87.4168,346.3077 89.2583,341.7869 94.783,347.4379 96.6245,348.003 98.4661,351.9587 100.3076,350.2634 102.1491,351.3936 107.6738,335.5708 109.5153,336.1359 111.3569,335.0057 113.1984,324.8339 115.04,319.1829 120.5646,312.4017 122.4061,313.5319 124.2477,305.6204 126.0892,304.4718 127.9308,307.3659 133.4554,292.3168 135.297,290.5804 137.1385,285.3711 138.98,274.9525 140.8216,252.9577 146.3462,230.3841 148.1878,225.7536 150.0293,221.7019 151.8709,202.6011 153.7124,202.0223 159.237,137.1955 161.0786,131.9862 162.9201,129.0922 164.7617,131.4074 166.6032,98.4152 172.1278,118.0948 173.9694,107.6762 175.8109,108.8338 177.6525,101.3093 179.494,119.2524 185.0187,90.8907 186.8602,84.5238 188.7017,58.4773 192.3848,32.4308 197.9095,61.3713 199.751,75.8416 201.5926,84.5238 203.4341,65.3507 205.2756,120.41 210.8003,167.2937 212.6418,150.5082 214.4834,153.4022 216.3249,208.3892 218.1665,185.8156 223.6911,188.7097 225.5326,213.5985 227.3742,225.7536 229.2157,197.9707 231.0573,202.0223 236.5819,178.8699 238.4234,181.1851 240.265,179.4487 242.1065,151.087 243.9481,173.0818 249.4727,153.981 251.3143,144.1413 253.1558,132.5651 254.9973,145.2989 256.8389,134.3015 262.3635,116.3584 264.2051,116.9372 266.0466,140.6684 275.2543,156.8751 277.0959,154.5599 278.9374,134.3015 280.779,136.255 288.1451,211.2833 289.9867,235.0145 291.8282,250.6424 293.6698,236.751 295.5113,215.7691 302.8775,192.7614 304.719,195.0766 306.5606,217.0714 308.4021,247.1696 313.9268,255.6781 315.7683,275.5313 317.6099,266.8491 319.4514,284.7923 321.293,285.3711 326.8176,272.0584 330.5007,279.583 332.3422,259.3246 334.1838,247.7484 339.7084,263.9551 341.5499,278.0636 343.3915,272.0584 345.233,279.583 347.0746,290.5804 352.5992,293.4744 354.4408,290.5804 356.2823,274.9525 358.1238,276.1101 359.9654,269.1644 365.49,283.6346 367.3316,285.3711 369.1731,306.2082 371.0147,313.154 372.8562,329.3607 378.3808,329.3607 380.2224,330.5183 382.0639,321.2573 383.9055,321.8361 385.747,317.2056 391.2716,328.7819 393.1132,327.6242 394.9547,323.5726 396.7963,300.4201 398.6378,294.632 404.1625,265.1127 406.004,265.1127 407.8455,263.3763 409.6871,278.4253 411.5286,272.0584 417.0533,261.6398 418.8948,262.2186 420.7364,254.6941 422.5779,226.3324 424.4194,208.3892 429.9441,200.2859 431.7856,199.7071 433.6272,204.3376 435.4687,192.7614 437.3103,205.4952 442.8349,224.0171 444.6764,220.5443 446.518,227.49 448.3595,243.6967 450.2011,218.229 457.5672,204.9164 459.4088,219.9655 461.2503,201.4435 463.0919,235.0145 468.6165,225.6957 470.4581,215.9138 472.2996,167.8725 474.1411,188.7097 475.9827,184.658 481.5073,175.9759 483.3489,156.8751 485.1904,162.0844 487.032,148.1929 488.8735,123.8829 494.3981,104.7821 496.2397,120.9888 498.0812,135.4591 499.9228,129.671 501.7643,132.5651 507.289,158.6115 509.1305,146.4565 510.972,140.0896 512.8136,173.6606 514.6551,193.919 520.1798,203.7588 522.0213,213.0197 523.8629,225.7536 527.5459,193.3402 533.0706,196.2342 534.9121,181.764 536.7537,175.9759 538.5952,180.3169 540.4368,215.9138 547.8029,263.9551 549.6445,288.8439 551.486,298.6837 553.3276,302.1566 558.8522,309.9705 560.6937,314.8904 562.5353,313.7328 566.2184,334.57 571.743,350.1979 573.5846,355.4071 575.4261,360.0376 577.2676,359.0971 579.1092,364.6681 584.6338,367.5622 586.4754,366.4046 588.3169,366.4046 590.1585,365.2469 592,362.3529" style="fill:none;stroke:rgb(31,119,180);stroke-width:2;stroke-linejoin:bevel" />
  <text dominant-baseline="hanging" text-anchor="middle" transform="translate(313.006,8)" font-family="Segoe UI" font-size="18" font-weight="700" fill="black">7-Tage-Inzidenz Stadt Aachen 18.06.2021</text>
  <polygon points="34.012,29.0795 592,29.0795 592,370.947 34.012,370.947" style="fill:none;stroke:black;stroke-width:1" />
  <polygon points="42.012,37.0795 247.014,37.0795 247.014,63.1325 42.012,63.1325" style="fill:none;stroke:none;" />
  <text dominant-baseline="hanging" text-anchor="start" transform="translate(70.012,45.0795)" font-family="Segoe UI" font-size="12" font-weight="400" fill="black">7-Tage-Inzidenz Stadt Aachen 18.06.2021</text>
  <polyline points="50.012,50.106 66.012,50.106" style="fill:none;stroke:rgb(31,119,180);stroke-width:2" />
</svg>