<?xml version="1.0" encoding="utf-8" standalone="no"?>
<!DOCTYPE svg PUBLIC "-//W3C//DTD SVG 1.1//EN" "http://www.w3.org/Graphics/SVG/1.1/DTD/svg11.dtd">
<svg width="600" height="400" version="1.1" xmlns:xlink="http://www.w3.org/1999/xlink" xmlns="http://www.w3.org/2000/svg">
  <rect x="0" y="0" width="600" height="400" style="fill:rgb(255,255,255);stroke:none;" />
  <polyline points="34.012,353.4851 30.012,353.4851" style="fill:none;stroke:black;stroke-width:1" />
  <polyline points="34.012,339.4649 30.012,339.4649" style="fill:none;stroke:black;stroke-width:1" />
  <polyline points="34.012,325.4447 30.012,325.4447" style="fill:none;stroke:black;stroke-width:1" />
  <polyline points="34.012,311.4245 30.012,311.4245" style="fill:none;stroke:black;stroke-width:1" />
  <polyline points="34.012,283.3841 30.012,283.3841" style="fill:none;stroke:black;stroke-width:1" />
  <polyline points="34.012,269.3639 30.012,269.3639" style="fill:none;stroke:black;stroke-width:1" />
  <polyline points="34.012,255.3438 30.012,255.3438" style="fill:none;stroke:black;stroke-width:1" />
  <polyline points="34.012,241.3236 30.012,241.3236" style="fill:none;stroke:black;stroke-width:1" />
  <polyline points="34.012,213.2832 30.012,213.2832" style="fill:none;stroke:black;stroke-width:1" />
  <polyline points="34.012,199.263 30.012,199.263" style="fill:none;stroke:black;stroke-width:1" />
  <polyline points="34.012,185.2428 30.012,185.2428" style="fill:none;stroke:black;stroke-width:1" />
  <polyline points="34.012,171.2226 30.012,171.2226" style="fill:none;stroke:black;stroke-width:1" />
  <polyline points="34.012,143.1822 30.012,143.1822" style="fill:none;stroke:black;stroke-width:1" />
  <polyline points="34.012,129.162 30.012,129.162" style="fill:none;stroke:black;stroke-width:1" />
  <polyline points="34.012,115.1418 30.012,115.1418" style="fill:none;stroke:black;stroke-width:1" />
  <polyline points="34.012,101.1216 30.012,101.1216" style="fill:none;stroke:black;stroke-width:1" />
  <polyline points="34.012,73.0813 30.012,73.0813" style="fill:none;stroke:black;stroke-width:1" />
  <polyline points="34.012,59.0611 30.012,59.0611" style="fill:none;stroke:black;stroke-width:1" />
  <polyline points="34.012,45.0409 30.012,45.0409" style="fill:none;stroke:black;stroke-width:1" />
  <polyline points="34.012,31.0207 30.012,31.0207" style="fill:none;stroke:black;stroke-width:1" />
  <text dominant-baseline="middle" text-anchor="end" transform="translate(23.012,367.5053)" font-family="Segoe UI" font-size="12" font-weight="400" fill="black">0</text>
  <text dominant-baseline="middle" text-anchor="end" transform="translate(23.012,297.4043)" font-family="Segoe UI" font-size="12" font-weight="400" fill="black">50</text>
  <text dominant-baseline="middle" text-anchor="end" transform="translate(23.012,227.3034)" font-family="Segoe UI" font-size="12" font-weight="400" fill="black">100</text>
  <text dominant-baseline="middle" text-anchor="end" transform="translate(23.012,157.2024)" font-family="Segoe UI" font-size="12" font-weight="400" fill="black">150</text>
  <text dominant-baseline="middle" text-anchor="end" transform="translate(23.012,87.1015)" font-family="Segoe UI" font-size="12" font-weight="400" fill="black">200</text>
  <polyline points="34.012,367.5053 27.012,367.5053" style="fill:none;stroke:black;stroke-width:1" />
  <polyline points="34.012,297.4043 27.012,297.4043" style="fill:none;stroke:black;stroke-width:1" />
  <polyline points="34.012,227.3034 27.012,227.3034" style="fill:none;stroke:black;stroke-width:1" />
  <polyline points="34.012,157.2024 27.012,157.2024" style="fill:none;stroke:black;stroke-width:1" />
  <polyline points="34.012,87.1015 27.012,87.1015" style="fill:none;stroke:black;stroke-width:1" />
  <text dominant-baseline="hanging" text-anchor="middle" transform="translate(222.6651,381.947)" font-family="Segoe UI" font-size="12" font-weight="400" fill="black">01. January</text>
  <polyline points="222.6651,370.947 222.6651,377.947" style="fill:none;stroke:black;stroke-width:1" />
  <polyline points="34.012,367.5622 36.6691,367.5621 40.6547,367.5621 41.9833,367.562 43.3118,347.7121 44.6403,347.2997 45.9689,353.2102 49.9545,349.3615 51.2831,353.2102 52.6116,353.76 53.9401,354.3098 55.2687,353.2102 59.2543,357.6087 60.5829,355.9593 61.9114,356.5091 63.2399,355.9593 64.5685,355.9593 68.5541,356.5091 69.8827,358.1585 71.2112,356.5091 72.5397,355.9593 73.8683,353.76 77.8539,347.7121 79.1825,343.3136 80.511,338.3653 81.8395,337.8155 83.1681,333.417 87.1537,338.9151 88.4823,339.4649 89.8108,343.3136 91.1393,341.6642 92.4679,342.7638 96.4535,327.3691 97.7821,327.9189 99.1106,326.8192 100.4391,316.9226 101.7677,311.4245 105.7533,304.8268 107.0819,305.9264 108.4104,298.229 109.7389,297.1115 111.0675,299.9272 115.0531,285.2853 116.3817,283.5959 117.7102,278.5275 119.0387,268.3908 120.3673,246.9911 124.3529,225.0282 125.6815,220.523 127.01,216.581 128.3385,197.997 129.6671,197.4339 133.6527,134.361 134.9813,129.2927 136.3098,126.4769 137.6383,128.7295 138.9669,96.63 142.9525,115.7771 144.2811,105.6404 145.6096,106.7667 146.9381,99.4457 148.2667,116.9034 152.2523,89.309 153.5809,83.1143 154.9094,57.7726 157.5665,32.4308 161.5521,60.5883 162.8807,74.6671 164.2092,83.1143 165.5377,64.46 166.8663,118.0297 170.8519,163.6449 172.1805,147.3135 173.509,150.1292 174.8375,203.6285 176.1661,181.6657 180.1517,184.4814 181.4803,208.6969 182.8088,220.523 184.1373,193.4918 185.4659,197.4339 189.4515,174.9079 190.7801,177.1605 192.1086,175.471 193.4371,147.8766 194.7657,169.2764 198.7513,150.6924 200.0799,141.1188 201.4084,129.8558 202.7369,142.2451 204.0655,131.5453 208.0511,114.0876 209.3797,114.6508 210.7082,137.7399 217.3509,153.5081 218.6795,151.2555 220.008,131.5453 221.3365,133.4459 226.6507,206.4443 227.9793,229.5334 229.3078,244.7385 230.6363,231.2229 231.9649,210.8087 237.2791,188.4235 238.6076,190.6761 239.9361,212.0758 241.2647,241.3596 245.2503,249.6379 246.5789,268.954 247.9074,260.5067 249.2359,277.9644 250.5645,278.5275 254.5501,265.5751 257.2072,272.896 258.5357,253.1858 259.8643,241.9228 263.8499,257.691 265.1785,271.4178 266.507,265.5751 267.8355,272.896 269.1641,283.5959 273.1497,286.4116 274.4783,283.5959 275.8068,268.3908 277.1353,269.5171 278.4639,262.7593 282.4495,276.8381 283.7781,278.5275 285.1066,298.8009 286.4351,305.5587 287.7637,321.327 291.7493,321.327 293.0779,322.4533 294.4064,313.4429 295.7349,314.006 297.0635,309.5008 301.0491,320.7638 302.3777,319.6375 303.7062,315.6955 305.0347,293.1694 306.3633,287.5379 310.3489,258.8173 311.6775,258.8173 313.006,257.1278 314.3345,271.7697 315.6631,265.5751 319.6487,255.4384 320.9773,256.0015 322.3058,248.6806 323.6343,221.0862 324.9629,203.6285 328.9485,195.7444 330.2771,195.1813 331.6056,199.6865 332.9341,188.4235 334.2627,200.8128 338.2483,218.8336 339.5769,215.4547 340.9054,222.2125 342.2339,237.9807 343.5625,213.2021 348.8767,200.2496 350.2052,214.8915 351.5337,196.8707 352.8623,229.5334 356.8479,220.4667 358.1765,210.9495 359.505,164.208 360.8335,184.4814 362.1621,180.5394 366.1477,172.0921 367.4763,153.5081 368.8048,158.5765 370.1333,145.0609 371.4619,121.4086 375.4475,102.8246 376.7761,118.5928 378.1046,132.6716 379.4331,127.0401 380.7617,129.8558 384.7473,155.1976 386.0759,143.3714 387.4044,137.1768 388.7329,169.8395 390.0615,189.5498 394.0471,199.1233 395.3757,208.1337 396.7042,220.523 399.3613,188.9866 403.3469,191.8024 404.6755,177.7236 406.004,172.0921 407.3325,176.3157 408.6611,210.9495 413.9753,257.691 415.3038,281.9064 416.6323,291.48 417.9609,294.8589 421.9465,302.4614 423.2751,307.2482 424.6036,306.1219 427.2607,326.3953 431.2463,341.6004 432.5749,346.6687 433.9034,351.1739 435.2319,350.2588 436.5605,355.6791 440.5461,358.4949 441.8747,357.3686 443.2032,357.3686 444.5317,356.2423 445.8603,353.4265 449.8459,353.4265 451.1745,352.8634 452.503,356.2423 453.8315,359.6212 455.1601,361.3106 459.1457,360.7475 460.4743,362.4369 461.8028,359.058 463.1313,355.6791 464.4599,356.8054 468.4455,356.8054 471.1026,357.3686 473.7597,359.6212 477.7453,360.7475 480.4024,353.9897 483.0595,343.2898 489.7022,332.0268 492.3593,317.9481 499.002,316.2586 501.6591,329.7742 508.3018,329.2111 510.9589,323.0164 517.6016,294.8589 520.2587,262.7593 526.9014,253.7489 529.5585,268.3908 536.2012,201.3759 538.8583,191.8024 545.501,233.4755 548.1581,222.2125 557.4579,240.2333 566.7577,272.896 573.4004,284.7222 576.0575,290.9168 582.7002,295.422 585.3573,306.6851 592,321.8901" style="fill:none;stroke:rgb(31,119,180);stroke-width:2;stroke-linejoin:bevel" />
  <text dominant-baseline="hanging" text-anchor="middle" transform="translate(313.006,8)" font-family="Segoe UI" font-size="18" font-weight="700" fill="black">7-Tage-Inzidenz Stadt Aachen 06.10.2021</text>
  <polygon points="34.012,29.0795 592,29.0795 592,370.947 34.012,370.947" style="fill:none;stroke:black;stroke-width:1" />
  <polygon points="42.012,37.0795 247.014,37.0795 247.014,63.1325 42.012,63.1325" style="fill:none;stroke:none;" />
  <text dominant-baseline="hanging" text-anchor="start" transform="translate(70.012,45.0795)" font-family="Segoe UI" font-size="12" font-weight="400" fill="black">7-Tage-Inzidenz Stadt Aachen 06.10.2021</text>
  <polyline points="50.012,50.106 66.012,50.106" style="fill:none;stroke:rgb(31,119,180);stroke-width:2" />
</svg>