<?xml version="1.0" encoding="utf-8" standalone="no"?>
<!DOCTYPE svg PUBLIC "-//W3C//DTD SVG 1.1//EN" "http://www.w3.org/Graphics/SVG/1.1/DTD/svg11.dtd">
<svg width="600" height="400" version="1.1" xmlns:xlink="http://www.w3.org/1999/xlink" xmlns="http://www.w3.org/2000/svg">
  <rect x="0" y="0" width="600" height="400" style="fill:rgb(255,255,255);stroke:none;" />
  <polyline points="34.012,362.7539 30.012,362.7539" style="fill:none;stroke:black;stroke-width:1" />
  <polyline points="34.012,348.3289 30.012,348.3289" style="fill:none;stroke:black;stroke-width:1" />
  <polyline points="34.012,333.904 30.012,333.904" style="fill:none;stroke:black;stroke-width:1" />
  <polyline points="34.012,319.479 30.012,319.479" style="fill:none;stroke:black;stroke-width:1" />
  <polyline points="34.012,290.6291 30.012,290.6291" style="fill:none;stroke:black;stroke-width:1" />
  <polyline points="34.012,276.2041 30.012,276.2041" style="fill:none;stroke:black;stroke-width:1" />
  <polyline points="34.012,261.7792 30.012,261.7792" style="fill:none;stroke:black;stroke-width:1" />
  <polyline points="34.012,247.3542 30.012,247.3542" style="fill:none;stroke:black;stroke-width:1" />
  <polyline points="34.012,218.5043 30.012,218.5043" style="fill:none;stroke:black;stroke-width:1" />
  <polyline points="34.012,204.0794 30.012,204.0794" style="fill:none;stroke:black;stroke-width:1" />
  <polyline points="34.012,189.6544 30.012,189.6544" style="fill:none;stroke:black;stroke-width:1" />
  <polyline points="34.012,175.2295 30.012,175.2295" style="fill:none;stroke:black;stroke-width:1" />
  <polyline points="34.012,146.3796 30.012,146.3796" style="fill:none;stroke:black;stroke-width:1" />
  <polyline points="34.012,131.9546 30.012,131.9546" style="fill:none;stroke:black;stroke-width:1" />
  <polyline points="34.012,117.5297 30.012,117.5297" style="fill:none;stroke:black;stroke-width:1" />
  <polyline points="34.012,103.1047 30.012,103.1047" style="fill:none;stroke:black;stroke-width:1" />
  <polyline points="34.012,74.2548 30.012,74.2548" style="fill:none;stroke:black;stroke-width:1" />
  <polyline points="34.012,59.8299 30.012,59.8299" style="fill:none;stroke:black;stroke-width:1" />
  <polyline points="34.012,45.4049 30.012,45.4049" style="fill:none;stroke:black;stroke-width:1" />
  <polyline points="34.012,30.98 30.012,30.98" style="fill:none;stroke:black;stroke-width:1" />
  <text dominant-baseline="middle" text-anchor="end" transform="translate(23.012,305.0541)" font-family="Segoe UI" font-size="12" font-weight="400" fill="black">50</text>
  <text dominant-baseline="middle" text-anchor="end" transform="translate(23.012,232.9293)" font-family="Segoe UI" font-size="12" font-weight="400" fill="black">100</text>
  <text dominant-baseline="middle" text-anchor="end" transform="translate(23.012,160.8045)" font-family="Segoe UI" font-size="12" font-weight="400" fill="black">150</text>
  <text dominant-baseline="middle" text-anchor="end" transform="translate(23.012,88.6798)" font-family="Segoe UI" font-size="12" font-weight="400" fill="black">200</text>
  <polyline points="34.012,305.0541 27.012,305.0541" style="fill:none;stroke:black;stroke-width:1" />
  <polyline points="34.012,232.9293 27.012,232.9293" style="fill:none;stroke:black;stroke-width:1" />
  <polyline points="34.012,160.8045 27.012,160.8045" style="fill:none;stroke:black;stroke-width:1" />
  <polyline points="34.012,88.6798 27.012,88.6798" style="fill:none;stroke:black;stroke-width:1" />
  <text dominant-baseline="hanging" text-anchor="middle" transform="translate(80.1267,381.947)" font-family="Segoe UI" font-size="12" font-weight="400" fill="black">29. August</text>
  <text dominant-baseline="hanging" text-anchor="middle" transform="translate(144.6873,381.947)" font-family="Segoe UI" font-size="12" font-weight="400" fill="black">12. September</text>
  <text dominant-baseline="hanging" text-anchor="middle" transform="translate(209.2479,381.947)" font-family="Segoe UI" font-size="12" font-weight="400" fill="black">26. September</text>
  <text dominant-baseline="hanging" text-anchor="middle" transform="translate(273.8085,381.947)" font-family="Segoe UI" font-size="12" font-weight="400" fill="black">10. October</text>
  <text dominant-baseline="hanging" text-anchor="middle" transform="translate(338.3691,381.947)" font-family="Segoe UI" font-size="12" font-weight="400" fill="black">24. October</text>
  <text dominant-baseline="hanging" text-anchor="middle" transform="translate(402.9297,381.947)" font-family="Segoe UI" font-size="12" font-weight="400" fill="black">07. November</text>
  <text dominant-baseline="hanging" text-anchor="middle" transform="translate(467.4903,381.947)" font-family="Segoe UI" font-size="12" font-weight="400" fill="black">21. November</text>
  <text dominant-baseline="hanging" text-anchor="middle" transform="translate(532.0509,381.947)" font-family="Segoe UI" font-size="12" font-weight="400" fill="black">05. December</text>
  <polyline points="80.1267,370.947 80.1267,377.947" style="fill:none;stroke:black;stroke-width:1" />
  <polyline points="144.6873,370.947 144.6873,377.947" style="fill:none;stroke:black;stroke-width:1" />
  <polyline points="209.2479,370.947 209.2479,377.947" style="fill:none;stroke:black;stroke-width:1" />
  <polyline points="273.8085,370.947 273.8085,377.947" style="fill:none;stroke:black;stroke-width:1" />
  <polyline points="338.3691,370.947 338.3691,377.947" style="fill:none;stroke:black;stroke-width:1" />
  <polyline points="402.9297,370.947 402.9297,377.947" style="fill:none;stroke:black;stroke-width:1" />
  <polyline points="467.4903,370.947 467.4903,377.947" style="fill:none;stroke:black;stroke-width:1" />
  <polyline points="532.0509,370.947 532.0509,377.947" style="fill:none;stroke:black;stroke-width:1" />
  <polyline points="34.012,356.8142 38.6235,356.3899 43.2349,362.471 57.0694,358.5112 61.6808,362.471 66.2923,363.0367 70.9038,363.6024 75.5152,362.471 89.3497,366.9965 93.9611,365.2994 98.5726,365.8651 103.1841,365.2994 107.7955,365.2994 121.63,365.8651 126.2414,367.5622 130.8529,365.8651 135.4644,365.2994 140.0758,363.0367 153.9102,356.8142 158.5217,352.2887 163.1332,347.1975 167.7447,346.6319 172.3561,342.1064 186.1905,347.7632 190.802,348.3289 195.4135,352.2887 200.025,350.5916 204.6364,351.723 218.4708,335.8838 223.0823,336.4495 227.6938,335.3182 232.3053,325.1358 236.9167,319.479 250.7511,312.6908 255.3626,313.8222 259.9741,305.9026 264.5856,304.7528 269.197,307.6498 283.0314,292.5852 287.6429,290.847 292.2544,285.6323 296.8659,275.2029 301.4773,253.1854 315.3117,230.5885 319.9232,225.9532 324.5347,221.8974 329.1461,202.7769 333.7576,202.1975 347.592,137.3037 352.2035,132.0891 356.815,129.192 361.4264,131.5096 366.0379,98.4834 379.8723,118.1833 384.4838,107.7539 389.0953,108.9127 393.7067,101.3804 398.3182,119.3421 412.1526,90.9511 416.7641,84.5776 421.3756,58.5042 430.5985,32.4308 444.4329,61.4012 449.0444,75.8864 453.6559,84.5776 458.2673,65.3847 462.8788,120.5009 476.7132,167.433 481.3247,150.6301 485.9362,153.5272 490.5476,208.571 495.1591,185.974 508.9935,188.8711 513.605,213.7856 518.2165,225.9532 522.8279,198.1416 527.4394,202.1975 541.2738,179.0211 545.8853,181.3388 550.4968,179.6005 555.1082,151.2095 559.7197,173.2271 573.5541,154.1066 578.1656,144.2566 582.7771,132.6685 587.3885,145.4155 592,134.4067" style="fill:none;stroke:rgb(31,119,180);stroke-width:2;stroke-linejoin:bevel" />
  <text dominant-baseline="hanging" text-anchor="middle" transform="translate(313.006,8)" font-family="Segoe UI" font-size="18" font-weight="700" fill="black">7-Tage-Inzidenz Stadt Aachen 18.12.2020</text>
  <polygon points="34.012,29.0795 592,29.0795 592,370.947 34.012,370.947" style="fill:none;stroke:black;stroke-width:1" />
  <polygon points="42.012,37.0795 247.014,37.0795 247.014,63.1325 42.012,63.1325" style="fill:none;stroke:none;" />
  <text dominant-baseline="hanging" text-anchor="start" transform="translate(70.012,45.0795)" font-family="Segoe UI" font-size="12" font-weight="400" fill="black">7-Tage-Inzidenz Stadt Aachen 18.12.2020</text>
  <polyline points="50.012,50.106 66.012,50.106" style="fill:none;stroke:rgb(31,119,180);stroke-width:2" />
</svg>