<?xml version="1.0" encoding="utf-8" standalone="no"?>
<!DOCTYPE svg PUBLIC "-//W3C//DTD SVG 1.1//EN" "http://www.w3.org/Graphics/SVG/1.1/DTD/svg11.dtd">
<svg width="600" height="400" version="1.1" xmlns:xlink="http://www.w3.org/1999/xlink" xmlns="http://www.w3.org/2000/svg">
  <rect x="0" y="0" width="600" height="400" style="fill:rgb(255,255,255);stroke:none;" />
  <polyline points="34.012,362.7539 30.012,362.7539" style="fill:none;stroke:black;stroke-width:1" />
  <polyline points="34.012,348.3289 30.012,348.3289" style="fill:none;stroke:black;stroke-width:1" />
  <polyline points="34.012,333.904 30.012,333.904" style="fill:none;stroke:black;stroke-width:1" />
  <polyline points="34.012,319.479 30.012,319.479" style="fill:none;stroke:black;stroke-width:1" />
  <polyline points="34.012,290.6291 30.012,290.6291" style="fill:none;stroke:black;stroke-width:1" />
  <polyline points="34.012,276.2041 30.012,276.2041" style="fill:none;stroke:black;stroke-width:1" />
  <polyline points="34.012,261.7792 30.012,261.7792" style="fill:none;stroke:black;stroke-width:1" />
  <polyline points="34.012,247.3542 30.012,247.3542" style="fill:none;stroke:black;stroke-width:1" />
  <polyline points="34.012,218.5043 30.012,218.5043" style="fill:none;stroke:black;stroke-width:1" />
  <polyline points="34.012,204.0794 30.012,204.0794" style="fill:none;stroke:black;stroke-width:1" />
  <polyline points="34.012,189.6544 30.012,189.6544" style="fill:none;stroke:black;stroke-width:1" />
  <polyline points="34.012,175.2295 30.012,175.2295" style="fill:none;stroke:black;stroke-width:1" />
  <polyline points="34.012,146.3796 30.012,146.3796" style="fill:none;stroke:black;stroke-width:1" />
  <polyline points="34.012,131.9546 30.012,131.9546" style="fill:none;stroke:black;stroke-width:1" />
  <polyline points="34.012,117.5297 30.012,117.5297" style="fill:none;stroke:black;stroke-width:1" />
  <polyline points="34.012,103.1047 30.012,103.1047" style="fill:none;stroke:black;stroke-width:1" />
  <polyline points="34.012,74.2548 30.012,74.2548" style="fill:none;stroke:black;stroke-width:1" />
  <polyline points="34.012,59.8299 30.012,59.8299" style="fill:none;stroke:black;stroke-width:1" />
  <polyline points="34.012,45.4049 30.012,45.4049" style="fill:none;stroke:black;stroke-width:1" />
  <polyline points="34.012,30.98 30.012,30.98" style="fill:none;stroke:black;stroke-width:1" />
  <text dominant-baseline="middle" text-anchor="end" transform="translate(23.012,305.0541)" font-family="Segoe UI" font-size="12" font-weight="400" fill="black">50</text>
  <text dominant-baseline="middle" text-anchor="end" transform="translate(23.012,232.9293)" font-family="Segoe UI" font-size="12" font-weight="400" fill="black">100</text>
  <text dominant-baseline="middle" text-anchor="end" transform="translate(23.012,160.8045)" font-family="Segoe UI" font-size="12" font-weight="400" fill="black">150</text>
  <text dominant-baseline="middle" text-anchor="end" transform="translate(23.012,88.6798)" font-family="Segoe UI" font-size="12" font-weight="400" fill="black">200</text>
  <polyline points="34.012,305.0541 27.012,305.0541" style="fill:none;stroke:black;stroke-width:1" />
  <polyline points="34.012,232.9293 27.012,232.9293" style="fill:none;stroke:black;stroke-width:1" />
  <polyline points="34.012,160.8045 27.012,160.8045" style="fill:none;stroke:black;stroke-width:1" />
  <polyline points="34.012,88.6798 27.012,88.6798" style="fill:none;stroke:black;stroke-width:1" />
  <text dominant-baseline="hanging" text-anchor="middle" transform="translate(87.6647,381.947)" font-family="Segoe UI" font-size="12" font-weight="400" fill="black">29. August</text>
  <text dominant-baseline="hanging" text-anchor="middle" transform="translate(162.7785,381.947)" font-family="Segoe UI" font-size="12" font-weight="400" fill="black">12. September</text>
  <text dominant-baseline="hanging" text-anchor="middle" transform="translate(237.8922,381.947)" font-family="Segoe UI" font-size="12" font-weight="400" fill="black">26. September</text>
  <text dominant-baseline="hanging" text-anchor="middle" transform="translate(313.006,381.947)" font-family="Segoe UI" font-size="12" font-weight="400" fill="black">10. October</text>
  <text dominant-baseline="hanging" text-anchor="middle" transform="translate(388.1198,381.947)" font-family="Segoe UI" font-size="12" font-weight="400" fill="black">24. October</text>
  <text dominant-baseline="hanging" text-anchor="middle" transform="translate(463.2335,381.947)" font-family="Segoe UI" font-size="12" font-weight="400" fill="black">07. November</text>
  <text dominant-baseline="hanging" text-anchor="middle" transform="translate(538.3473,381.947)" font-family="Segoe UI" font-size="12" font-weight="400" fill="black">21. November</text>
  <polyline points="87.6647,370.947 87.6647,377.947" style="fill:none;stroke:black;stroke-width:1" />
  <polyline points="162.7785,370.947 162.7785,377.947" style="fill:none;stroke:black;stroke-width:1" />
  <polyline points="237.8922,370.947 237.8922,377.947" style="fill:none;stroke:black;stroke-width:1" />
  <polyline points="313.006,370.947 313.006,377.947" style="fill:none;stroke:black;stroke-width:1" />
  <polyline points="388.1198,370.947 388.1198,377.947" style="fill:none;stroke:black;stroke-width:1" />
  <polyline points="463.2335,370.947 463.2335,377.947" style="fill:none;stroke:black;stroke-width:1" />
  <polyline points="538.3473,370.947 538.3473,377.947" style="fill:none;stroke:black;stroke-width:1" />
  <polyline points="34.012,356.8142 39.3773,356.3899 44.7425,362.471 60.8383,358.5112 66.2036,362.471 71.5689,363.0367 76.9342,363.6024 82.2994,362.471 98.3952,366.9965 103.7605,365.2994 109.1258,365.8651 114.491,365.2994 119.8563,365.2994 135.9521,365.8651 141.3174,367.5622 146.6827,365.8651 152.0479,365.2994 157.4132,363.0367 173.509,356.8142 178.8743,352.2887 184.2395,347.1975 189.6048,346.6319 194.9701,342.1064 211.0659,347.7632 216.4312,348.3289 221.7964,352.2887 227.1617,350.5916 232.527,351.723 248.6228,335.8838 253.988,336.4495 259.3533,335.3182 264.7186,325.1358 270.0838,319.479 286.1797,312.6908 291.5449,313.8222 296.9102,305.9026 302.2755,304.7528 307.6407,307.6498 323.7365,292.5852 329.1018,290.847 334.4671,285.6323 339.8323,275.2029 345.1976,253.1854 361.2934,230.5885 366.6587,225.9532 372.024,221.8974 377.3892,202.7769 382.7545,202.1975 398.8503,137.3037 404.2156,132.0891 409.5808,129.192 414.9461,131.5096 420.3114,98.4834 436.4072,118.1833 441.7725,107.7539 447.1377,108.9127 452.503,101.3804 457.8683,119.3421 473.9641,90.9511 479.3293,84.5776 484.6946,58.5042 495.4252,32.4308 511.521,61.4012 516.8862,75.8864 522.2515,84.5776 527.6168,65.3847 532.982,120.5009 549.0778,167.433 554.4431,150.6301 559.8084,153.5272 565.1737,208.571 570.5389,185.974 586.6347,188.8711 592,213.7856" style="fill:none;stroke:rgb(31,119,180);stroke-width:2;stroke-linejoin:bevel" />
  <text dominant-baseline="hanging" text-anchor="middle" transform="translate(313.006,8)" font-family="Segoe UI" font-size="18" font-weight="700" fill="black">7-Tage-Inzidenz Stadt Aachen 01.12.2020</text>
  <polygon points="34.012,29.0795 592,29.0795 592,370.947 34.012,370.947" style="fill:none;stroke:black;stroke-width:1" />
  <polygon points="42.012,37.0795 247.014,37.0795 247.014,63.1325 42.012,63.1325" style="fill:none;stroke:none;" />
  <text dominant-baseline="hanging" text-anchor="start" transform="translate(70.012,45.0795)" font-family="Segoe UI" font-size="12" font-weight="400" fill="black">7-Tage-Inzidenz Stadt Aachen 01.12.2020</text>
  <polyline points="50.012,50.106 66.012,50.106" style="fill:none;stroke:rgb(31,119,180);stroke-width:2" />
</svg>