<?xml version="1.0" encoding="utf-8" standalone="no"?>
<!DOCTYPE svg PUBLIC "-//W3C//DTD SVG 1.1//EN" "http://www.w3.org/Graphics/SVG/1.1/DTD/svg11.dtd">
<svg width="600" height="400" version="1.1" xmlns:xlink="http://www.w3.org/1999/xlink" xmlns="http://www.w3.org/2000/svg">
  <rect x="0" y="0" width="600" height="400" style="fill:rgb(255,255,255);stroke:none;" />
  <polyline points="34.012,362.4131 30.012,362.4131" style="fill:none;stroke:black;stroke-width:1" />
  <polyline points="34.012,348.003 30.012,348.003" style="fill:none;stroke:black;stroke-width:1" />
  <polyline points="34.012,333.5929 30.012,333.5929" style="fill:none;stroke:black;stroke-width:1" />
  <polyline points="34.012,319.1829 30.012,319.1829" style="fill:none;stroke:black;stroke-width:1" />
  <polyline points="34.012,290.3627 30.012,290.3627" style="fill:none;stroke:black;stroke-width:1" />
  <polyline points="34.012,275.9527 30.012,275.9527" style="fill:none;stroke:black;stroke-width:1" />
  <polyline points="34.012,261.5426 30.012,261.5426" style="fill:none;stroke:black;stroke-width:1" />
  <polyline points="34.012,247.1325 30.012,247.1325" style="fill:none;stroke:black;stroke-width:1" />
  <polyline points="34.012,218.3124 30.012,218.3124" style="fill:none;stroke:black;stroke-width:1" />
  <polyline points="34.012,203.9023 30.012,203.9023" style="fill:none;stroke:black;stroke-width:1" />
  <polyline points="34.012,189.4922 30.012,189.4922" style="fill:none;stroke:black;stroke-width:1" />
  <polyline points="34.012,175.0822 30.012,175.0822" style="fill:none;stroke:black;stroke-width:1" />
  <polyline points="34.012,146.262 30.012,146.262" style="fill:none;stroke:black;stroke-width:1" />
  <polyline points="34.012,131.852 30.012,131.852" style="fill:none;stroke:black;stroke-width:1" />
  <polyline points="34.012,117.4419 30.012,117.4419" style="fill:none;stroke:black;stroke-width:1" />
  <polyline points="34.012,103.0318 30.012,103.0318" style="fill:none;stroke:black;stroke-width:1" />
  <polyline points="34.012,74.2117 30.012,74.2117" style="fill:none;stroke:black;stroke-width:1" />
  <polyline points="34.012,59.8016 30.012,59.8016" style="fill:none;stroke:black;stroke-width:1" />
  <polyline points="34.012,45.3915 30.012,45.3915" style="fill:none;stroke:black;stroke-width:1" />
  <polyline points="34.012,30.9815 30.012,30.9815" style="fill:none;stroke:black;stroke-width:1" />
  <polyline points="58.1915,370.947 58.1915,374.947" style="fill:none;stroke:black;stroke-width:1" />
  <polyline points="171.649,370.947 171.649,374.947" style="fill:none;stroke:black;stroke-width:1" />
  <polyline points="285.1066,370.947 285.1066,374.947" style="fill:none;stroke:black;stroke-width:1" />
  <polyline points="394.8442,370.947 394.8442,374.947" style="fill:none;stroke:black;stroke-width:1" />
  <polyline points="508.3018,370.947 508.3018,374.947" style="fill:none;stroke:black;stroke-width:1" />
  <text dominant-baseline="middle" text-anchor="end" transform="translate(23.012,304.7728)" font-family="Segoe UI" font-size="12" font-weight="400" fill="black">50</text>
  <text dominant-baseline="middle" text-anchor="end" transform="translate(23.012,232.7224)" font-family="Segoe UI" font-size="12" font-weight="400" fill="black">100</text>
  <text dominant-baseline="middle" text-anchor="end" transform="translate(23.012,160.6721)" font-family="Segoe UI" font-size="12" font-weight="400" fill="black">150</text>
  <text dominant-baseline="middle" text-anchor="end" transform="translate(23.012,88.6218)" font-family="Segoe UI" font-size="12" font-weight="400" fill="black">200</text>
  <polyline points="34.012,304.7728 27.012,304.7728" style="fill:none;stroke:black;stroke-width:1" />
  <polyline points="34.012,232.7224 27.012,232.7224" style="fill:none;stroke:black;stroke-width:1" />
  <polyline points="34.012,160.6721 27.012,160.6721" style="fill:none;stroke:black;stroke-width:1" />
  <polyline points="34.012,88.6218 27.012,88.6218" style="fill:none;stroke:black;stroke-width:1" />
  <text dominant-baseline="hanging" text-anchor="middle" transform="translate(113.9903,381.947)" font-family="Segoe UI" font-size="12" font-weight="400" fill="black">01. October</text>
  <text dominant-baseline="hanging" text-anchor="middle" transform="translate(227.4478,381.947)" font-family="Segoe UI" font-size="12" font-weight="400" fill="black">01. December</text>
  <text dominant-baseline="hanging" text-anchor="middle" transform="translate(342.7654,381.947)" font-family="Segoe UI" font-size="12" font-weight="400" fill="black">01. February</text>
  <text dominant-baseline="hanging" text-anchor="middle" transform="translate(452.503,381.947)" font-family="Segoe UI" font-size="12" font-weight="400" fill="black">01. April</text>
  <text dominant-baseline="hanging" text-anchor="middle" transform="translate(565.9606,381.947)" font-family="Segoe UI" font-size="12" font-weight="400" fill="black">01. June</text>
  <polyline points="113.9903,370.947 113.9903,377.947" style="fill:none;stroke:black;stroke-width:1" />
  <polyline points="227.4478,370.947 227.4478,377.947" style="fill:none;stroke:black;stroke-width:1" />
  <polyline points="342.7654,370.947 342.7654,377.947" style="fill:none;stroke:black;stroke-width:1" />
  <polyline points="452.503,370.947 452.503,377.947" style="fill:none;stroke:black;stroke-width:1" />
  <polyline points="565.9606,370.947 565.9606,377.947" style="fill:none;stroke:black;stroke-width:1" />
  <polyline points="34.012,356.4795 35.872,356.0557 37.7319,362.1305 43.3118,358.1748 45.1718,362.1305 47.0317,362.6956 48.8917,363.2607 50.7516,362.1305 56.3315,366.6513 58.1915,364.956 60.0514,365.5211 61.9114,364.956 63.7714,364.956 69.3512,365.5211 71.2112,367.2164 73.0712,365.5211 74.9311,364.956 76.7911,362.6956 82.371,356.4795 84.2309,351.9587 86.0909,346.8728 87.9508,346.3077 89.8108,341.7869 95.3907,347.4379 97.2506,348.003 99.1106,351.9587 100.9706,350.2634 102.8305,351.3936 108.4104,335.5708 110.2704,336.1359 112.1303,335.0057 113.9903,324.8339 115.8502,319.1829 121.4301,312.4017 123.2901,313.5319 125.15,305.6204 127.01,304.4718 128.87,307.3659 134.4498,292.3168 136.3098,290.5804 138.1698,285.3711 140.0297,274.9525 141.8897,252.9577 147.4696,230.3841 149.3295,225.7536 151.1895,221.7019 153.0494,202.6011 154.9094,202.0223 160.4893,137.1955 162.3492,131.9862 164.2092,129.0922 166.0692,131.4074 167.9291,98.4152 173.509,118.0948 175.369,107.6762 177.2289,108.8338 179.0889,101.3093 180.9488,119.2524 186.5287,90.8907 188.3887,84.5238 190.2486,58.4773 193.9686,32.4308 199.5484,61.3713 201.4084,75.8416 203.2684,84.5238 205.1283,65.3507 206.9883,120.41 212.5682,167.2937 214.4281,150.5082 216.2881,153.4022 218.148,208.3892 220.008,185.8156 225.5879,188.7097 227.4478,213.5985 229.3078,225.7536 231.1678,197.9707 233.0277,202.0223 238.6076,178.8699 240.4676,181.1851 242.3275,179.4487 244.1875,151.087 246.0474,173.0818 251.6273,153.981 253.4873,144.1413 255.3472,132.5651 257.2072,145.2989 259.0672,134.3015 264.647,116.3584 266.507,116.9372 268.367,140.6684 277.6668,156.8751 279.5267,154.5599 281.3867,134.3015 283.2466,136.255 290.6865,211.2833 292.5464,235.0145 294.4064,250.6424 296.2664,236.751 298.1263,215.7691 305.5662,192.7614 307.4261,195.0766 309.2861,217.0714 311.146,247.1696 316.7259,255.6781 318.5859,275.5313 320.4458,266.8491 322.3058,284.7923 324.1658,285.3711 329.7456,272.0584 333.4656,279.583 335.3255,259.3246 337.1855,247.7484 342.7654,263.9551 344.6253,278.0636 346.4853,272.0584 348.3452,279.583 350.2052,290.5804 355.7851,293.4744 357.645,290.5804 359.505,274.9525 361.365,276.1101 363.2249,269.1644 368.8048,283.6346 370.6648,285.3711 372.5247,306.2082 374.3847,313.154 376.2446,329.3607 381.8245,329.3607 383.6845,330.5183 385.5444,321.2573 387.4044,321.8361 389.2644,317.2056 394.8442,328.7819 396.7042,327.6242 398.5642,323.5726 400.4241,300.4201 402.2841,294.632 407.864,265.1127 409.7239,265.1127 411.5839,263.3763 413.4438,278.4253 415.3038,272.0584 420.8837,261.6398 422.7436,262.2186 424.6036,254.6941 426.4636,226.3324 428.3235,208.3892 433.9034,200.2859 435.7634,199.7071 437.6233,204.3376 439.4833,192.7614 441.3432,205.4952 446.9231,224.0171 448.7831,220.5443 450.643,227.49 452.503,243.6967 454.363,218.229 461.8028,204.9164 463.6628,219.9655 465.5227,201.4435 467.3827,235.0145 472.9626,225.6957 474.8225,215.9138 476.6825,167.8725 478.5424,188.7097 480.4024,184.658 485.9823,175.9759 487.8422,156.8751 489.7022,162.0844 491.5622,148.1929 493.4221,123.8829 499.002,104.7821 500.862,120.9888 502.7219,135.4591 504.5819,129.671 506.4418,132.5651 512.0217,158.6115 513.8817,146.4565 515.7416,140.0896 517.6016,173.6606 519.4616,193.919 525.0414,203.7588 526.9014,213.0197 528.7614,225.7536 532.4813,193.3402 538.0612,196.2342 539.9211,181.764 541.7811,175.9759 543.641,180.3169 545.501,215.9138 552.9408,263.9551 554.8008,288.8439 556.6608,298.6837 558.5207,302.1566 564.1006,309.9705 565.9606,314.8904 567.8205,313.7328 571.5404,334.57 577.1203,350.1979 578.9803,355.4071 580.8402,360.0376 582.7002,359.0971 584.5602,364.6681 590.14,367.5622 592,366.4046" style="fill:none;stroke:rgb(31,119,180);stroke-width:2;stroke-linejoin:bevel" />
  <text dominant-baseline="hanging" text-anchor="middle" transform="translate(313.006,8)" font-family="Segoe UI" font-size="18" font-weight="700" fill="black">7-Tage-Inzidenz Stadt Aachen 15.06.2021</text>
  <polygon points="34.012,29.0795 592,29.0795 592,370.947 34.012,370.947" style="fill:none;stroke:black;stroke-width:1" />
  <polygon points="42.012,37.0795 247.014,37.0795 247.014,63.1325 42.012,63.1325" style="fill:none;stroke:none;" />
  <text dominant-baseline="hanging" text-anchor="start" transform="translate(70.012,45.0795)" font-family="Segoe UI" font-size="12" font-weight="400" fill="black">7-Tage-Inzidenz Stadt Aachen 15.06.2021</text>
  <polyline points="50.012,50.106 66.012,50.106" style="fill:none;stroke:rgb(31,119,180);stroke-width:2" />
</svg>