<?xml version="1.0" encoding="utf-8" standalone="no"?>
<!DOCTYPE svg PUBLIC "-//W3C//DTD SVG 1.1//EN" "http://www.w3.org/Graphics/SVG/1.1/DTD/svg11.dtd">
<svg width="600" height="400" version="1.1" xmlns:xlink="http://www.w3.org/1999/xlink" xmlns="http://www.w3.org/2000/svg">
  <rect x="0" y="0" width="600" height="400" style="fill:rgb(255,255,255);stroke:none;" />
  <polyline points="34.012,362.7539 30.012,362.7539" style="fill:none;stroke:black;stroke-width:1" />
  <polyline points="34.012,348.3289 30.012,348.3289" style="fill:none;stroke:black;stroke-width:1" />
  <polyline points="34.012,333.904 30.012,333.904" style="fill:none;stroke:black;stroke-width:1" />
  <polyline points="34.012,319.479 30.012,319.479" style="fill:none;stroke:black;stroke-width:1" />
  <polyline points="34.012,290.6291 30.012,290.6291" style="fill:none;stroke:black;stroke-width:1" />
  <polyline points="34.012,276.2041 30.012,276.2041" style="fill:none;stroke:black;stroke-width:1" />
  <polyline points="34.012,261.7792 30.012,261.7792" style="fill:none;stroke:black;stroke-width:1" />
  <polyline points="34.012,247.3542 30.012,247.3542" style="fill:none;stroke:black;stroke-width:1" />
  <polyline points="34.012,218.5043 30.012,218.5043" style="fill:none;stroke:black;stroke-width:1" />
  <polyline points="34.012,204.0794 30.012,204.0794" style="fill:none;stroke:black;stroke-width:1" />
  <polyline points="34.012,189.6544 30.012,189.6544" style="fill:none;stroke:black;stroke-width:1" />
  <polyline points="34.012,175.2295 30.012,175.2295" style="fill:none;stroke:black;stroke-width:1" />
  <polyline points="34.012,146.3796 30.012,146.3796" style="fill:none;stroke:black;stroke-width:1" />
  <polyline points="34.012,131.9546 30.012,131.9546" style="fill:none;stroke:black;stroke-width:1" />
  <polyline points="34.012,117.5297 30.012,117.5297" style="fill:none;stroke:black;stroke-width:1" />
  <polyline points="34.012,103.1047 30.012,103.1047" style="fill:none;stroke:black;stroke-width:1" />
  <polyline points="34.012,74.2548 30.012,74.2548" style="fill:none;stroke:black;stroke-width:1" />
  <polyline points="34.012,59.8299 30.012,59.8299" style="fill:none;stroke:black;stroke-width:1" />
  <polyline points="34.012,45.4049 30.012,45.4049" style="fill:none;stroke:black;stroke-width:1" />
  <polyline points="34.012,30.98 30.012,30.98" style="fill:none;stroke:black;stroke-width:1" />
  <text dominant-baseline="middle" text-anchor="end" transform="translate(23.012,305.0541)" font-family="Segoe UI" font-size="12" font-weight="400" fill="black">50</text>
  <text dominant-baseline="middle" text-anchor="end" transform="translate(23.012,232.9293)" font-family="Segoe UI" font-size="12" font-weight="400" fill="black">100</text>
  <text dominant-baseline="middle" text-anchor="end" transform="translate(23.012,160.8045)" font-family="Segoe UI" font-size="12" font-weight="400" fill="black">150</text>
  <text dominant-baseline="middle" text-anchor="end" transform="translate(23.012,88.6798)" font-family="Segoe UI" font-size="12" font-weight="400" fill="black">200</text>
  <polyline points="34.012,305.0541 27.012,305.0541" style="fill:none;stroke:black;stroke-width:1" />
  <polyline points="34.012,232.9293 27.012,232.9293" style="fill:none;stroke:black;stroke-width:1" />
  <polyline points="34.012,160.8045 27.012,160.8045" style="fill:none;stroke:black;stroke-width:1" />
  <polyline points="34.012,88.6798 27.012,88.6798" style="fill:none;stroke:black;stroke-width:1" />
  <text dominant-baseline="hanging" text-anchor="middle" transform="translate(77.4482,381.947)" font-family="Segoe UI" font-size="12" font-weight="400" fill="black">01. September</text>
  <text dominant-baseline="hanging" text-anchor="middle" transform="translate(177.6856,381.947)" font-family="Segoe UI" font-size="12" font-weight="400" fill="black">01. October</text>
  <text dominant-baseline="hanging" text-anchor="middle" transform="translate(281.2642,381.947)" font-family="Segoe UI" font-size="12" font-weight="400" fill="black">01. November</text>
  <text dominant-baseline="hanging" text-anchor="middle" transform="translate(381.5015,381.947)" font-family="Segoe UI" font-size="12" font-weight="400" fill="black">01. December</text>
  <text dominant-baseline="hanging" text-anchor="middle" transform="translate(485.0801,381.947)" font-family="Segoe UI" font-size="12" font-weight="400" fill="black">01. January</text>
  <text dominant-baseline="hanging" text-anchor="middle" transform="translate(588.6588,381.947)" font-family="Segoe UI" font-size="12" font-weight="400" fill="black">01. February</text>
  <polyline points="77.4482,370.947 77.4482,377.947" style="fill:none;stroke:black;stroke-width:1" />
  <polyline points="177.6856,370.947 177.6856,377.947" style="fill:none;stroke:black;stroke-width:1" />
  <polyline points="281.2642,370.947 281.2642,377.947" style="fill:none;stroke:black;stroke-width:1" />
  <polyline points="381.5015,370.947 381.5015,377.947" style="fill:none;stroke:black;stroke-width:1" />
  <polyline points="485.0801,370.947 485.0801,377.947" style="fill:none;stroke:black;stroke-width:1" />
  <polyline points="588.6588,370.947 588.6588,377.947" style="fill:none;stroke:black;stroke-width:1" />
  <polyline points="34.012,356.8142 37.3532,356.3899 40.6945,362.471 50.7182,358.5112 54.0595,362.471 57.4007,363.0367 60.742,363.6024 64.0832,362.471 74.1069,366.9965 77.4482,365.2994 80.7894,365.8651 84.1307,365.2994 87.4719,365.2994 97.4957,365.8651 100.8369,367.5622 104.1782,365.8651 107.5194,365.2994 110.8606,363.0367 120.8844,356.8142 124.2256,352.2887 127.5669,347.1975 130.9081,346.6319 134.2494,342.1064 144.2731,347.7632 147.6143,348.3289 150.9556,352.2887 154.2968,350.5916 157.6381,351.723 167.6618,335.8838 171.0031,336.4495 174.3443,335.3182 177.6856,325.1358 181.0268,319.479 191.0505,312.6908 194.3918,313.8222 197.733,305.9026 201.0743,304.7528 204.4155,307.6498 214.4393,292.5852 217.7805,290.847 221.1217,285.6323 224.463,275.2029 227.8042,253.1854 237.828,230.5885 241.1692,225.9532 244.5105,221.8974 247.8517,202.7769 251.193,202.1975 261.2167,137.3037 264.5579,132.0891 267.8992,129.192 271.2404,131.5096 274.5817,98.4834 284.6054,118.1833 287.9467,107.7539 291.2879,108.9127 294.6291,101.3804 297.9704,119.3421 307.9941,90.9511 311.3354,84.5776 314.6766,58.5042 321.3591,32.4308 331.3829,61.4012 334.7241,75.8864 338.0653,84.5776 341.4066,65.3847 344.7478,120.5009 354.7716,167.433 358.1128,150.6301 361.4541,153.5272 364.7953,208.571 368.1366,185.974 378.1603,188.8711 381.5015,213.7856 384.8428,225.9532 388.184,198.1416 391.5253,202.1975 401.549,179.0211 404.8903,181.3388 408.2315,179.6005 411.5727,151.2095 414.914,173.2271 424.9377,154.1066 428.279,144.2566 431.6202,132.6685 434.9615,145.4155 438.3027,134.4067 448.3264,116.445 451.6677,117.0244 455.0089,140.7802 471.7152,157.0036 475.0564,154.686 478.3977,134.4067 481.7389,136.3622 495.1039,211.468 498.4451,235.2238 501.7864,250.8678 505.1276,236.962 508.4689,215.9584 521.8338,192.9269 525.1751,195.2446 528.5163,217.2621 531.8576,247.3913 541.8813,255.9086 545.2226,275.7823 548.5638,267.0912 551.9051,285.0529 555.2463,285.6323 565.27,272.3059 571.9525,279.8382 575.2938,259.5589 578.635,247.9707 588.6588,264.1942 592,278.3173" style="fill:none;stroke:rgb(31,119,180);stroke-width:2;stroke-linejoin:bevel" />
  <text dominant-baseline="hanging" text-anchor="middle" transform="translate(313.006,8)" font-family="Segoe UI" font-size="18" font-weight="700" fill="black">7-Tage-Inzidenz Stadt Aachen 02.02.2021</text>
  <polygon points="34.012,29.0795 592,29.0795 592,370.947 34.012,370.947" style="fill:none;stroke:black;stroke-width:1" />
  <polygon points="42.012,37.0795 247.014,37.0795 247.014,63.1325 42.012,63.1325" style="fill:none;stroke:none;" />
  <text dominant-baseline="hanging" text-anchor="start" transform="translate(70.012,45.0795)" font-family="Segoe UI" font-size="12" font-weight="400" fill="black">7-Tage-Inzidenz Stadt Aachen 02.02.2021</text>
  <polyline points="50.012,50.106 66.012,50.106" style="fill:none;stroke:rgb(31,119,180);stroke-width:2" />
</svg>