<?xml version="1.0" encoding="utf-8" standalone="no"?>
<!DOCTYPE svg PUBLIC "-//W3C//DTD SVG 1.1//EN" "http://www.w3.org/Graphics/SVG/1.1/DTD/svg11.dtd">
<svg width="600" height="400" version="1.1" xmlns:xlink="http://www.w3.org/1999/xlink" xmlns="http://www.w3.org/2000/svg">
  <rect x="0" y="0" width="600" height="400" style="fill:rgb(255,255,255);stroke:none;" />
  <polyline points="34.012,353.4851 30.012,353.4851" style="fill:none;stroke:black;stroke-width:1" />
  <polyline points="34.012,339.4649 30.012,339.4649" style="fill:none;stroke:black;stroke-width:1" />
  <polyline points="34.012,325.4447 30.012,325.4447" style="fill:none;stroke:black;stroke-width:1" />
  <polyline points="34.012,311.4245 30.012,311.4245" style="fill:none;stroke:black;stroke-width:1" />
  <polyline points="34.012,283.3841 30.012,283.3841" style="fill:none;stroke:black;stroke-width:1" />
  <polyline points="34.012,269.3639 30.012,269.3639" style="fill:none;stroke:black;stroke-width:1" />
  <polyline points="34.012,255.3438 30.012,255.3438" style="fill:none;stroke:black;stroke-width:1" />
  <polyline points="34.012,241.3236 30.012,241.3236" style="fill:none;stroke:black;stroke-width:1" />
  <polyline points="34.012,213.2832 30.012,213.2832" style="fill:none;stroke:black;stroke-width:1" />
  <polyline points="34.012,199.263 30.012,199.263" style="fill:none;stroke:black;stroke-width:1" />
  <polyline points="34.012,185.2428 30.012,185.2428" style="fill:none;stroke:black;stroke-width:1" />
  <polyline points="34.012,171.2226 30.012,171.2226" style="fill:none;stroke:black;stroke-width:1" />
  <polyline points="34.012,143.1822 30.012,143.1822" style="fill:none;stroke:black;stroke-width:1" />
  <polyline points="34.012,129.162 30.012,129.162" style="fill:none;stroke:black;stroke-width:1" />
  <polyline points="34.012,115.1418 30.012,115.1418" style="fill:none;stroke:black;stroke-width:1" />
  <polyline points="34.012,101.1216 30.012,101.1216" style="fill:none;stroke:black;stroke-width:1" />
  <polyline points="34.012,73.0813 30.012,73.0813" style="fill:none;stroke:black;stroke-width:1" />
  <polyline points="34.012,59.0611 30.012,59.0611" style="fill:none;stroke:black;stroke-width:1" />
  <polyline points="34.012,45.0409 30.012,45.0409" style="fill:none;stroke:black;stroke-width:1" />
  <polyline points="34.012,31.0207 30.012,31.0207" style="fill:none;stroke:black;stroke-width:1" />
  <text dominant-baseline="middle" text-anchor="end" transform="translate(23.012,367.5053)" font-family="Segoe UI" font-size="12" font-weight="400" fill="black">0</text>
  <text dominant-baseline="middle" text-anchor="end" transform="translate(23.012,297.4043)" font-family="Segoe UI" font-size="12" font-weight="400" fill="black">50</text>
  <text dominant-baseline="middle" text-anchor="end" transform="translate(23.012,227.3034)" font-family="Segoe UI" font-size="12" font-weight="400" fill="black">100</text>
  <text dominant-baseline="middle" text-anchor="end" transform="translate(23.012,157.2024)" font-family="Segoe UI" font-size="12" font-weight="400" fill="black">150</text>
  <text dominant-baseline="middle" text-anchor="end" transform="translate(23.012,87.1015)" font-family="Segoe UI" font-size="12" font-weight="400" fill="black">200</text>
  <polyline points="34.012,367.5053 27.012,367.5053" style="fill:none;stroke:black;stroke-width:1" />
  <polyline points="34.012,297.4043 27.012,297.4043" style="fill:none;stroke:black;stroke-width:1" />
  <polyline points="34.012,227.3034 27.012,227.3034" style="fill:none;stroke:black;stroke-width:1" />
  <polyline points="34.012,157.2024 27.012,157.2024" style="fill:none;stroke:black;stroke-width:1" />
  <polyline points="34.012,87.1015 27.012,87.1015" style="fill:none;stroke:black;stroke-width:1" />
  <text dominant-baseline="hanging" text-anchor="middle" transform="translate(219.5724,381.947)" font-family="Segoe UI" font-size="12" font-weight="400" fill="black">01. January</text>
  <polyline points="219.5724,370.947 219.5724,377.947" style="fill:none;stroke:black;stroke-width:1" />
  <polyline points="34.012,367.5622 36.6255,367.5621 40.5458,367.5621 41.8526,367.562 43.1593,347.7121 44.4661,347.2997 45.7729,353.2102 49.6932,349.3615 50.9999,353.2102 52.3067,353.76 53.6135,354.3098 54.9202,353.2102 58.8405,357.6087 60.1473,355.9593 61.454,356.5091 62.7608,355.9593 64.0676,355.9593 67.9879,356.5091 69.2946,358.1585 70.6014,356.5091 71.9081,355.9593 73.2149,353.76 77.1352,347.7121 78.442,343.3136 79.7487,338.3653 81.0555,337.8155 82.3622,333.417 86.2825,338.9151 87.5893,339.4649 88.8961,343.3136 90.2028,341.6642 91.5096,342.7638 95.4299,327.3691 96.7366,327.9189 98.0434,326.8192 99.3502,316.9226 100.6569,311.4245 104.5772,304.8268 105.884,305.9264 107.1908,298.229 108.4975,297.1115 109.8043,299.9272 113.7246,285.2853 115.0313,283.5959 116.3381,278.5275 117.6449,268.3908 118.9516,246.9911 122.8719,225.0282 124.1787,220.523 125.4854,216.581 126.7922,197.997 128.099,197.4339 132.0193,134.361 133.326,129.2927 134.6328,126.4769 135.9396,128.7295 137.2463,96.63 141.1666,115.7771 142.4734,105.6404 143.7801,106.7667 145.0869,99.4457 146.3937,116.9034 150.3139,89.309 151.6207,83.1143 152.9275,57.7726 155.541,32.4308 159.4613,60.5883 160.7681,74.6671 162.0748,83.1143 163.3816,64.46 164.6883,118.0297 168.6086,163.6449 169.9154,147.3135 171.2222,150.1292 172.5289,203.6285 173.8357,181.6657 177.756,184.4814 179.0627,208.6969 180.3695,220.523 181.6763,193.4918 182.983,197.4339 186.9033,174.9079 188.2101,177.1605 189.5169,175.471 190.8236,147.8766 192.1304,169.2764 196.0507,150.6924 197.3574,141.1188 198.6642,129.8558 199.971,142.2451 201.2777,131.5453 205.198,114.0876 206.5048,114.6508 207.8115,137.7399 214.3454,153.5081 215.6521,151.2555 216.9589,131.5453 218.2656,133.4459 223.4927,206.4443 224.7995,229.5334 226.1062,244.7385 227.413,231.2229 228.7198,210.8087 233.9468,188.4235 235.2536,190.6761 236.5603,212.0758 237.8671,241.3596 241.7874,249.6379 243.0942,268.954 244.4009,260.5067 245.7077,277.9644 247.0144,278.5275 250.9347,265.5751 253.5483,272.896 254.855,253.1858 256.1618,241.9228 260.0821,257.691 261.3888,271.4178 262.6956,265.5751 264.0024,272.896 265.3091,283.5959 269.2294,286.4116 270.5362,283.5959 271.843,268.3908 273.1497,269.5171 274.4565,262.7593 278.3768,276.8381 279.6835,278.5275 280.9903,298.8009 282.2971,305.5587 283.6038,321.327 287.5241,321.327 288.8309,322.4533 290.1376,313.4429 291.4444,314.006 292.7512,309.5008 296.6715,320.7638 297.9782,319.6375 299.285,315.6955 300.5917,293.1694 301.8985,287.5379 305.8188,258.8173 307.1256,258.8173 308.4323,257.1278 309.7391,271.7697 311.0459,265.5751 314.9661,255.4384 316.2729,256.0015 317.5797,248.6806 318.8864,221.0862 320.1932,203.6285 324.1135,195.7444 325.4203,195.1813 326.727,199.6865 328.0338,188.4235 329.3405,200.8128 333.2608,218.8336 334.5676,215.4547 335.8744,222.2125 337.1811,237.9807 338.4879,213.2021 343.7149,200.2496 345.0217,214.8915 346.3285,196.8707 347.6352,229.5334 351.5555,220.4667 352.8623,210.9495 354.169,164.208 355.4758,184.4814 356.7826,180.5394 360.7029,172.0921 362.0096,153.5081 363.3164,158.5765 364.6232,145.0609 365.9299,121.4086 369.8502,102.8246 371.157,118.5928 372.4637,132.6716 373.7705,127.0401 375.0773,129.8558 378.9976,155.1976 380.3043,143.3714 381.6111,137.1768 382.9178,169.8395 384.2246,189.5498 388.1449,199.1233 389.4517,208.1337 390.7584,220.523 393.372,188.9866 397.2922,191.8024 398.599,177.7236 399.9058,172.0921 401.2125,176.3157 402.5193,210.9495 407.7464,257.691 409.0531,281.9064 410.3599,291.48 411.6666,294.8589 415.5869,302.4614 416.8937,307.2482 418.2005,306.1219 420.814,326.3953 424.7343,341.6004 426.041,346.6687 427.3478,351.1739 428.6546,350.2588 429.9613,355.6791 433.8816,358.4949 435.1884,357.3686 436.4951,357.3686 437.8019,356.2423 439.1087,353.4265 443.029,353.4265 444.3357,352.8634 445.6425,356.2423 446.9493,359.6212 448.256,361.3106 452.1763,360.7475 453.4831,362.4369 454.7898,359.058 456.0966,355.6791 457.4034,356.8054 461.3237,356.8054 463.9372,357.3686 466.5507,359.6212 470.471,360.7475 473.0845,353.9897 475.6981,343.2898 482.2319,332.0268 484.8454,317.9481 491.3792,316.2586 493.9927,329.7742 500.5266,329.2111 503.1401,323.0164 509.6739,294.8589 512.2874,262.7593 518.8212,253.7489 521.4348,268.3908 527.9686,201.3759 530.5821,191.8024 537.1159,233.4755 539.7295,222.2125 548.8768,240.2333 558.0241,272.896 564.558,284.7222 567.1715,290.9168 573.7053,295.422 576.3188,306.6851 582.8527,321.8901 585.4662,321.8901 592,321.327" style="fill:none;stroke:rgb(31,119,180);stroke-width:2;stroke-linejoin:bevel" />
  <text dominant-baseline="hanging" text-anchor="middle" transform="translate(313.006,8)" font-family="Segoe UI" font-size="18" font-weight="700" fill="black">7-Tage-Inzidenz Stadt Aachen 13.10.2021</text>
  <polygon points="34.012,29.0795 592,29.0795 592,370.947 34.012,370.947" style="fill:none;stroke:black;stroke-width:1" />
  <polygon points="42.012,37.0795 247.014,37.0795 247.014,63.1325 42.012,63.1325" style="fill:none;stroke:none;" />
  <text dominant-baseline="hanging" text-anchor="start" transform="translate(70.012,45.0795)" font-family="Segoe UI" font-size="12" font-weight="400" fill="black">7-Tage-Inzidenz Stadt Aachen 13.10.2021</text>
  <polyline points="50.012,50.106 66.012,50.106" style="fill:none;stroke:rgb(31,119,180);stroke-width:2" />
</svg>