<?xml version="1.0" encoding="utf-8" standalone="no"?>
<!DOCTYPE svg PUBLIC "-//W3C//DTD SVG 1.1//EN" "http://www.w3.org/Graphics/SVG/1.1/DTD/svg11.dtd">
<svg width="600" height="400" version="1.1" xmlns:xlink="http://www.w3.org/1999/xlink" xmlns="http://www.w3.org/2000/svg">
  <rect x="0" y="0" width="600" height="400" style="fill:rgb(255,255,255);stroke:none;" />
  <polyline points="34.012,362.7539 30.012,362.7539" style="fill:none;stroke:black;stroke-width:1" />
  <polyline points="34.012,348.3289 30.012,348.3289" style="fill:none;stroke:black;stroke-width:1" />
  <polyline points="34.012,333.904 30.012,333.904" style="fill:none;stroke:black;stroke-width:1" />
  <polyline points="34.012,319.479 30.012,319.479" style="fill:none;stroke:black;stroke-width:1" />
  <polyline points="34.012,290.6291 30.012,290.6291" style="fill:none;stroke:black;stroke-width:1" />
  <polyline points="34.012,276.2041 30.012,276.2041" style="fill:none;stroke:black;stroke-width:1" />
  <polyline points="34.012,261.7792 30.012,261.7792" style="fill:none;stroke:black;stroke-width:1" />
  <polyline points="34.012,247.3542 30.012,247.3542" style="fill:none;stroke:black;stroke-width:1" />
  <polyline points="34.012,218.5043 30.012,218.5043" style="fill:none;stroke:black;stroke-width:1" />
  <polyline points="34.012,204.0794 30.012,204.0794" style="fill:none;stroke:black;stroke-width:1" />
  <polyline points="34.012,189.6544 30.012,189.6544" style="fill:none;stroke:black;stroke-width:1" />
  <polyline points="34.012,175.2295 30.012,175.2295" style="fill:none;stroke:black;stroke-width:1" />
  <polyline points="34.012,146.3796 30.012,146.3796" style="fill:none;stroke:black;stroke-width:1" />
  <polyline points="34.012,131.9546 30.012,131.9546" style="fill:none;stroke:black;stroke-width:1" />
  <polyline points="34.012,117.5297 30.012,117.5297" style="fill:none;stroke:black;stroke-width:1" />
  <polyline points="34.012,103.1047 30.012,103.1047" style="fill:none;stroke:black;stroke-width:1" />
  <polyline points="34.012,74.2548 30.012,74.2548" style="fill:none;stroke:black;stroke-width:1" />
  <polyline points="34.012,59.8299 30.012,59.8299" style="fill:none;stroke:black;stroke-width:1" />
  <polyline points="34.012,45.4049 30.012,45.4049" style="fill:none;stroke:black;stroke-width:1" />
  <polyline points="34.012,30.98 30.012,30.98" style="fill:none;stroke:black;stroke-width:1" />
  <text dominant-baseline="middle" text-anchor="end" transform="translate(23.012,305.0541)" font-family="Segoe UI" font-size="12" font-weight="400" fill="black">50</text>
  <text dominant-baseline="middle" text-anchor="end" transform="translate(23.012,232.9293)" font-family="Segoe UI" font-size="12" font-weight="400" fill="black">100</text>
  <text dominant-baseline="middle" text-anchor="end" transform="translate(23.012,160.8045)" font-family="Segoe UI" font-size="12" font-weight="400" fill="black">150</text>
  <text dominant-baseline="middle" text-anchor="end" transform="translate(23.012,88.6798)" font-family="Segoe UI" font-size="12" font-weight="400" fill="black">200</text>
  <polyline points="34.012,305.0541 27.012,305.0541" style="fill:none;stroke:black;stroke-width:1" />
  <polyline points="34.012,232.9293 27.012,232.9293" style="fill:none;stroke:black;stroke-width:1" />
  <polyline points="34.012,160.8045 27.012,160.8045" style="fill:none;stroke:black;stroke-width:1" />
  <polyline points="34.012,88.6798 27.012,88.6798" style="fill:none;stroke:black;stroke-width:1" />
  <text dominant-baseline="hanging" text-anchor="middle" transform="translate(67.1346,381.947)" font-family="Segoe UI" font-size="12" font-weight="400" fill="black">01. September</text>
  <text dominant-baseline="hanging" text-anchor="middle" transform="translate(143.5713,381.947)" font-family="Segoe UI" font-size="12" font-weight="400" fill="black">01. October</text>
  <text dominant-baseline="hanging" text-anchor="middle" transform="translate(222.5559,381.947)" font-family="Segoe UI" font-size="12" font-weight="400" fill="black">01. November</text>
  <text dominant-baseline="hanging" text-anchor="middle" transform="translate(298.9926,381.947)" font-family="Segoe UI" font-size="12" font-weight="400" fill="black">01. December</text>
  <text dominant-baseline="hanging" text-anchor="middle" transform="translate(377.9772,381.947)" font-family="Segoe UI" font-size="12" font-weight="400" fill="black">01. January</text>
  <text dominant-baseline="hanging" text-anchor="middle" transform="translate(456.9618,381.947)" font-family="Segoe UI" font-size="12" font-weight="400" fill="black">01. February</text>
  <text dominant-baseline="hanging" text-anchor="middle" transform="translate(528.3027,381.947)" font-family="Segoe UI" font-size="12" font-weight="400" fill="black">01. March</text>
  <polyline points="67.1346,370.947 67.1346,377.947" style="fill:none;stroke:black;stroke-width:1" />
  <polyline points="143.5713,370.947 143.5713,377.947" style="fill:none;stroke:black;stroke-width:1" />
  <polyline points="222.5559,370.947 222.5559,377.947" style="fill:none;stroke:black;stroke-width:1" />
  <polyline points="298.9926,370.947 298.9926,377.947" style="fill:none;stroke:black;stroke-width:1" />
  <polyline points="377.9772,370.947 377.9772,377.947" style="fill:none;stroke:black;stroke-width:1" />
  <polyline points="456.9618,370.947 456.9618,377.947" style="fill:none;stroke:black;stroke-width:1" />
  <polyline points="528.3027,370.947 528.3027,377.947" style="fill:none;stroke:black;stroke-width:1" />
  <polyline points="34.012,356.8142 36.5599,356.3899 39.1078,362.471 46.7515,358.5112 49.2993,362.471 51.8472,363.0367 54.3951,363.6024 56.943,362.471 64.5867,366.9965 67.1346,365.2994 69.6825,365.8651 72.2304,365.2994 74.7782,365.2994 82.4219,365.8651 84.9698,367.5622 87.5177,365.8651 90.0656,365.2994 92.6135,363.0367 100.2572,356.8142 102.805,352.2887 105.3529,347.1975 107.9008,346.6319 110.4487,342.1064 118.0924,347.7632 120.6403,348.3289 123.1882,352.2887 125.7361,350.5916 128.2839,351.723 135.9276,335.8838 138.4755,336.4495 141.0234,335.3182 143.5713,325.1358 146.1192,319.479 153.7628,312.6908 156.3107,313.8222 158.8586,305.9026 161.4065,304.7528 163.9544,307.6498 171.5981,292.5852 174.146,290.847 176.6939,285.6323 179.2418,275.2029 181.7896,253.1854 189.4333,230.5885 191.9812,225.9532 194.5291,221.8974 197.077,202.7769 199.6249,202.1975 207.2685,137.3037 209.8164,132.0891 212.3643,129.192 214.9122,131.5096 217.4601,98.4834 225.1038,118.1833 227.6517,107.7539 230.1996,108.9127 232.7475,101.3804 235.2953,119.3421 242.939,90.9511 245.4869,84.5776 248.0348,58.5042 253.1306,32.4308 260.7742,61.4012 263.3221,75.8864 265.87,84.5776 268.4179,65.3847 270.9658,120.5009 278.6095,167.433 281.1574,150.6301 283.7053,153.5272 286.2532,208.571 288.801,185.974 296.4447,188.8711 298.9926,213.7856 301.5405,225.9532 304.0884,198.1416 306.6363,202.1975 314.2799,179.0211 316.8278,181.3388 319.3757,179.6005 321.9236,151.2095 324.4715,173.2271 332.1152,154.1066 334.6631,144.2566 337.211,132.6685 339.7588,145.4155 342.3067,134.4067 349.9504,116.445 352.4983,117.0244 355.0462,140.7802 367.7856,157.0036 370.3335,154.686 372.8814,134.4067 375.4293,136.3622 385.6209,211.468 388.1688,235.2238 390.7167,250.8678 393.2645,236.962 395.8124,215.9584 406.004,192.9269 408.5519,195.2446 411.0998,217.2621 413.6477,247.3913 421.2913,255.9086 423.8392,275.7823 426.3871,267.0912 428.935,285.0529 431.4829,285.6323 439.1266,272.3059 444.2224,279.8382 446.7702,259.5589 449.3181,247.9707 456.9618,264.1942 459.5097,278.3173 462.0576,272.3059 464.6055,279.8382 467.1534,290.847 474.797,293.744 477.3449,290.847 479.8928,275.2029 482.4407,276.3617 484.9886,269.4088 492.6323,283.8941 495.1802,285.6323 497.7281,306.491 500.2759,313.4439 502.8238,329.6673 510.4675,329.6673 513.0154,330.8261 515.5633,321.5556 518.1112,322.135 520.6591,317.4997 528.3027,329.0879 530.8506,327.9291 533.3985,323.8732 535.9464,300.6969 538.4943,294.9028 546.138,265.353 548.6859,265.353 551.2338,263.6148 553.7816,278.6794 556.3295,272.3059 563.9732,261.8765 566.5211,262.4559 569.069,254.9236 571.6169,226.5326 574.1648,208.571 581.8084,200.4592 584.3563,199.8798 586.9042,204.5151 589.4521,192.9269 592,205.6739" style="fill:none;stroke:rgb(31,119,180);stroke-width:2;stroke-linejoin:bevel" />
  <text dominant-baseline="hanging" text-anchor="middle" transform="translate(313.006,8)" font-family="Segoe UI" font-size="18" font-weight="700" fill="black">7-Tage-Inzidenz Stadt Aachen 26.03.2021</text>
  <polygon points="34.012,29.0795 592,29.0795 592,370.947 34.012,370.947" style="fill:none;stroke:black;stroke-width:1" />
  <polygon points="42.012,37.0795 247.014,37.0795 247.014,63.1325 42.012,63.1325" style="fill:none;stroke:none;" />
  <text dominant-baseline="hanging" text-anchor="start" transform="translate(70.012,45.0795)" font-family="Segoe UI" font-size="12" font-weight="400" fill="black">7-Tage-Inzidenz Stadt Aachen 26.03.2021</text>
  <polyline points="50.012,50.106 66.012,50.106" style="fill:none;stroke:rgb(31,119,180);stroke-width:2" />
</svg>