<?xml version="1.0" encoding="utf-8" standalone="no"?>
<!DOCTYPE svg PUBLIC "-//W3C//DTD SVG 1.1//EN" "http://www.w3.org/Graphics/SVG/1.1/DTD/svg11.dtd">
<svg width="600" height="400" version="1.1" xmlns:xlink="http://www.w3.org/1999/xlink" xmlns="http://www.w3.org/2000/svg">
  <rect x="0" y="0" width="600" height="400" style="fill:rgb(255,255,255);stroke:none;" />
  <polyline points="34.012,362.7539 30.012,362.7539" style="fill:none;stroke:black;stroke-width:1" />
  <polyline points="34.012,348.3289 30.012,348.3289" style="fill:none;stroke:black;stroke-width:1" />
  <polyline points="34.012,333.904 30.012,333.904" style="fill:none;stroke:black;stroke-width:1" />
  <polyline points="34.012,319.479 30.012,319.479" style="fill:none;stroke:black;stroke-width:1" />
  <polyline points="34.012,290.6291 30.012,290.6291" style="fill:none;stroke:black;stroke-width:1" />
  <polyline points="34.012,276.2041 30.012,276.2041" style="fill:none;stroke:black;stroke-width:1" />
  <polyline points="34.012,261.7792 30.012,261.7792" style="fill:none;stroke:black;stroke-width:1" />
  <polyline points="34.012,247.3542 30.012,247.3542" style="fill:none;stroke:black;stroke-width:1" />
  <polyline points="34.012,218.5043 30.012,218.5043" style="fill:none;stroke:black;stroke-width:1" />
  <polyline points="34.012,204.0794 30.012,204.0794" style="fill:none;stroke:black;stroke-width:1" />
  <polyline points="34.012,189.6544 30.012,189.6544" style="fill:none;stroke:black;stroke-width:1" />
  <polyline points="34.012,175.2295 30.012,175.2295" style="fill:none;stroke:black;stroke-width:1" />
  <polyline points="34.012,146.3796 30.012,146.3796" style="fill:none;stroke:black;stroke-width:1" />
  <polyline points="34.012,131.9546 30.012,131.9546" style="fill:none;stroke:black;stroke-width:1" />
  <polyline points="34.012,117.5297 30.012,117.5297" style="fill:none;stroke:black;stroke-width:1" />
  <polyline points="34.012,103.1047 30.012,103.1047" style="fill:none;stroke:black;stroke-width:1" />
  <polyline points="34.012,74.2548 30.012,74.2548" style="fill:none;stroke:black;stroke-width:1" />
  <polyline points="34.012,59.8299 30.012,59.8299" style="fill:none;stroke:black;stroke-width:1" />
  <polyline points="34.012,45.4049 30.012,45.4049" style="fill:none;stroke:black;stroke-width:1" />
  <polyline points="34.012,30.98 30.012,30.98" style="fill:none;stroke:black;stroke-width:1" />
  <text dominant-baseline="middle" text-anchor="end" transform="translate(23.012,305.0541)" font-family="Segoe UI" font-size="12" font-weight="400" fill="black">50</text>
  <text dominant-baseline="middle" text-anchor="end" transform="translate(23.012,232.9293)" font-family="Segoe UI" font-size="12" font-weight="400" fill="black">100</text>
  <text dominant-baseline="middle" text-anchor="end" transform="translate(23.012,160.8045)" font-family="Segoe UI" font-size="12" font-weight="400" fill="black">150</text>
  <text dominant-baseline="middle" text-anchor="end" transform="translate(23.012,88.6798)" font-family="Segoe UI" font-size="12" font-weight="400" fill="black">200</text>
  <polyline points="34.012,305.0541 27.012,305.0541" style="fill:none;stroke:black;stroke-width:1" />
  <polyline points="34.012,232.9293 27.012,232.9293" style="fill:none;stroke:black;stroke-width:1" />
  <polyline points="34.012,160.8045 27.012,160.8045" style="fill:none;stroke:black;stroke-width:1" />
  <polyline points="34.012,88.6798 27.012,88.6798" style="fill:none;stroke:black;stroke-width:1" />
  <text dominant-baseline="hanging" text-anchor="middle" transform="translate(86.1979,381.947)" font-family="Segoe UI" font-size="12" font-weight="400" fill="black">01. September</text>
  <text dominant-baseline="hanging" text-anchor="middle" transform="translate(206.627,381.947)" font-family="Segoe UI" font-size="12" font-weight="400" fill="black">01. October</text>
  <text dominant-baseline="hanging" text-anchor="middle" transform="translate(331.0704,381.947)" font-family="Segoe UI" font-size="12" font-weight="400" fill="black">01. November</text>
  <text dominant-baseline="hanging" text-anchor="middle" transform="translate(451.4994,381.947)" font-family="Segoe UI" font-size="12" font-weight="400" fill="black">01. December</text>
  <text dominant-baseline="hanging" text-anchor="middle" transform="translate(575.9428,381.947)" font-family="Segoe UI" font-size="12" font-weight="400" fill="black">01. January</text>
  <polyline points="86.1979,370.947 86.1979,377.947" style="fill:none;stroke:black;stroke-width:1" />
  <polyline points="206.627,370.947 206.627,377.947" style="fill:none;stroke:black;stroke-width:1" />
  <polyline points="331.0704,370.947 331.0704,377.947" style="fill:none;stroke:black;stroke-width:1" />
  <polyline points="451.4994,370.947 451.4994,377.947" style="fill:none;stroke:black;stroke-width:1" />
  <polyline points="575.9428,370.947 575.9428,377.947" style="fill:none;stroke:black;stroke-width:1" />
  <polyline points="34.012,356.8142 38.0263,356.3899 42.0406,362.471 54.0835,358.5112 58.0978,362.471 62.1121,363.0367 66.1264,363.6024 70.1407,362.471 82.1836,366.9965 86.1979,365.2994 90.2122,365.8651 94.2265,365.2994 98.2408,365.2994 110.2837,365.8651 114.298,367.5622 118.3123,365.8651 122.3266,365.2994 126.3409,363.0367 138.3839,356.8142 142.3982,352.2887 146.4125,347.1975 150.4268,346.6319 154.4411,342.1064 166.484,347.7632 170.4983,348.3289 174.5126,352.2887 178.5269,350.5916 182.5412,351.723 194.5841,335.8838 198.5984,336.4495 202.6127,335.3182 206.627,325.1358 210.6413,319.479 222.6842,312.6908 226.6985,313.8222 230.7128,305.9026 234.7271,304.7528 238.7414,307.6498 250.7843,292.5852 254.7986,290.847 258.8129,285.6323 262.8272,275.2029 266.8415,253.1854 278.8844,230.5885 282.8987,225.9532 286.913,221.8974 290.9273,202.7769 294.9416,202.1975 306.9845,137.3037 310.9988,132.0891 315.0132,129.192 319.0275,131.5096 323.0418,98.4834 335.0847,118.1833 339.099,107.7539 343.1133,108.9127 347.1276,101.3804 351.1419,119.3421 363.1848,90.9511 367.1991,84.5776 371.2134,58.5042 379.242,32.4308 391.2849,61.4012 395.2992,75.8864 399.3135,84.5776 403.3278,65.3847 407.3421,120.5009 419.385,167.433 423.3993,150.6301 427.4136,153.5272 431.4279,208.571 435.4422,185.974 447.4851,188.8711 451.4994,213.7856 455.5137,225.9532 459.528,198.1416 463.5423,202.1975 475.5852,179.0211 479.5995,181.3388 483.6138,179.6005 487.6281,151.2095 491.6424,173.2271 503.6854,154.1066 507.6997,144.2566 511.714,132.6685 515.7283,145.4155 519.7426,134.4067 531.7855,116.445 535.7998,117.0244 539.8141,140.7802 559.8856,157.0036 563.8999,154.686 567.9142,134.4067 571.9285,136.3622 587.9857,211.468 592,235.2238" style="fill:none;stroke:rgb(31,119,180);stroke-width:2;stroke-linejoin:bevel" />
  <text dominant-baseline="hanging" text-anchor="middle" transform="translate(313.006,8)" font-family="Segoe UI" font-size="18" font-weight="700" fill="black">7-Tage-Inzidenz Stadt Aachen 05.01.2021</text>
  <polygon points="34.012,29.0795 592,29.0795 592,370.947 34.012,370.947" style="fill:none;stroke:black;stroke-width:1" />
  <polygon points="42.012,37.0795 247.014,37.0795 247.014,63.1325 42.012,63.1325" style="fill:none;stroke:none;" />
  <text dominant-baseline="hanging" text-anchor="start" transform="translate(70.012,45.0795)" font-family="Segoe UI" font-size="12" font-weight="400" fill="black">7-Tage-Inzidenz Stadt Aachen 05.01.2021</text>
  <polyline points="50.012,50.106 66.012,50.106" style="fill:none;stroke:rgb(31,119,180);stroke-width:2" />
</svg>