<?xml version="1.0" encoding="utf-8" standalone="no"?>
<!DOCTYPE svg PUBLIC "-//W3C//DTD SVG 1.1//EN" "http://www.w3.org/Graphics/SVG/1.1/DTD/svg11.dtd">
<svg width="600" height="400" version="1.1" xmlns:xlink="http://www.w3.org/1999/xlink" xmlns="http://www.w3.org/2000/svg">
  <rect x="0" y="0" width="600" height="400" style="fill:rgb(255,255,255);stroke:none;" />
  <polyline points="34.012,346.3457 30.012,346.3457" style="fill:none;stroke:black;stroke-width:1" />
  <polyline points="34.012,325.1722 30.012,325.1722" style="fill:none;stroke:black;stroke-width:1" />
  <polyline points="34.012,303.9987 30.012,303.9987" style="fill:none;stroke:black;stroke-width:1" />
  <polyline points="34.012,282.8252 30.012,282.8252" style="fill:none;stroke:black;stroke-width:1" />
  <polyline points="34.012,240.4782 30.012,240.4782" style="fill:none;stroke:black;stroke-width:1" />
  <polyline points="34.012,219.3047 30.012,219.3047" style="fill:none;stroke:black;stroke-width:1" />
  <polyline points="34.012,198.1312 30.012,198.1312" style="fill:none;stroke:black;stroke-width:1" />
  <polyline points="34.012,176.9577 30.012,176.9577" style="fill:none;stroke:black;stroke-width:1" />
  <polyline points="34.012,134.6107 30.012,134.6107" style="fill:none;stroke:black;stroke-width:1" />
  <polyline points="34.012,113.4372 30.012,113.4372" style="fill:none;stroke:black;stroke-width:1" />
  <polyline points="34.012,92.2637 30.012,92.2637" style="fill:none;stroke:black;stroke-width:1" />
  <polyline points="34.012,71.0902 30.012,71.0902" style="fill:none;stroke:black;stroke-width:1" />
  <text dominant-baseline="middle" text-anchor="end" transform="translate(23.012,367.5192)" font-family="Segoe UI" font-size="12" font-weight="400" fill="black">0</text>
  <text dominant-baseline="middle" text-anchor="end" transform="translate(23.012,261.6517)" font-family="Segoe UI" font-size="12" font-weight="400" fill="black">100</text>
  <text dominant-baseline="middle" text-anchor="end" transform="translate(23.012,155.7842)" font-family="Segoe UI" font-size="12" font-weight="400" fill="black">200</text>
  <text dominant-baseline="middle" text-anchor="end" transform="translate(23.012,49.9166)" font-family="Segoe UI" font-size="12" font-weight="400" fill="black">300</text>
  <polyline points="34.012,367.5192 27.012,367.5192" style="fill:none;stroke:black;stroke-width:1" />
  <polyline points="34.012,261.6517 27.012,261.6517" style="fill:none;stroke:black;stroke-width:1" />
  <polyline points="34.012,155.7842 27.012,155.7842" style="fill:none;stroke:black;stroke-width:1" />
  <polyline points="34.012,49.9166 27.012,49.9166" style="fill:none;stroke:black;stroke-width:1" />
  <text dominant-baseline="hanging" text-anchor="middle" transform="translate(188.4648,381.947)" font-family="Segoe UI" font-size="12" font-weight="400" fill="black">01. January</text>
  <text dominant-baseline="hanging" text-anchor="middle" transform="translate(585.4738,381.947)" font-family="Segoe UI" font-size="12" font-weight="400" fill="black">01. January</text>
  <polyline points="188.4648,370.947 188.4648,377.947" style="fill:none;stroke:black;stroke-width:1" />
  <polyline points="585.4738,370.947 585.4738,377.947" style="fill:none;stroke:black;stroke-width:1" />
  <polyline points="34.012,367.5622 36.1874,367.5621 39.4505,367.5621 40.5382,367.562 41.6259,352.5732 42.7136,352.2618 43.8013,356.7249 47.0644,353.8187 48.152,356.7249 49.2397,357.1401 50.3274,357.5552 51.4151,356.7249 54.6782,360.0462 55.7659,358.8007 56.8536,359.2159 57.9413,358.8007 59.029,358.8007 62.2921,359.2159 63.3798,360.4614 64.4675,359.2159 65.5552,358.8007 66.6429,357.1401 69.906,352.5732 70.9937,349.2519 72.0814,345.5154 73.1691,345.1002 74.2567,341.7789 77.5198,345.9305 78.6075,346.3457 79.6952,349.2519 80.7829,348.0064 81.8706,348.8367 85.1337,337.212 86.2214,337.6272 87.3091,336.7969 88.3968,329.3239 89.4845,325.1722 92.7476,320.1902 93.8353,321.0205 94.923,315.2082 96.0107,314.3643 97.0984,316.4905 100.3615,305.4343 101.4491,304.1586 102.5368,300.3314 103.6245,292.6771 104.7122,276.5181 107.9753,259.9337 109.063,256.5318 110.1507,253.5551 111.2384,239.5223 112.3261,239.097 115.5892,191.4702 116.6769,187.6431 117.7646,185.5169 118.8523,187.2178 119.94,162.9792 123.2031,177.4373 124.2908,169.783 125.3785,170.6335 126.4662,165.1054 127.5538,178.2878 130.8169,157.4511 131.9046,152.7735 132.9923,133.6377 135.1677,114.502 138.4308,135.7639 139.5185,146.3949 140.6062,152.7735 141.6939,138.6874 142.7816,179.1383 146.0447,213.5827 147.1324,201.2507 148.2201,203.3769 149.3078,243.7746 150.3955,227.1903 153.6585,229.3165 154.7462,247.6018 155.8339,256.5318 156.9216,236.1203 158.0093,239.097 161.2724,222.0875 162.3601,223.7884 163.4478,222.5127 164.5355,201.676 165.6232,217.8351 168.8863,203.8022 169.974,196.5731 171.0617,188.0683 172.1494,197.4236 173.2371,189.344 176.5002,176.1616 177.5879,176.5869 178.6756,194.0217 184.114,205.9284 185.2017,204.2274 186.2894,189.344 187.3771,190.7792 191.7279,245.9008 192.8156,263.3356 193.9033,274.8171 194.991,264.6114 196.0787,249.1964 200.4295,232.2932 201.5172,233.9941 202.6049,250.1532 203.6926,272.2657 206.9556,278.5167 208.0433,293.1024 209.131,286.7238 210.2187,299.9062 211.3064,300.3314 214.5695,290.5509 216.7449,296.0791 217.8326,281.1957 218.9203,272.6909 222.1834,284.5976 223.2711,294.9628 224.3588,290.5509 225.4465,296.0791 226.5342,304.1586 229.7973,306.2848 230.885,304.1586 231.9727,292.6771 233.0604,293.5276 234.148,288.4247 237.4111,299.0557 238.4988,300.3314 239.5865,315.6401 240.6742,320.7429 241.7619,332.6496 245.025,332.6496 246.1127,333.5001 247.2004,326.6963 248.2881,327.1215 249.3758,323.7196 252.6389,332.2244 253.7266,331.3739 254.8143,328.3972 255.902,311.3877 256.9897,307.1353 260.2527,285.4481 261.3404,285.4481 262.4281,284.1724 263.5158,295.2286 264.6035,290.5509 267.8666,282.8966 268.9543,283.3219 270.042,277.7938 271.1297,256.9571 272.2174,243.7746 275.4805,237.8213 276.5682,237.3961 277.6559,240.798 278.7436,232.2932 279.8313,241.6484 283.0944,255.2561 284.1821,252.7047 285.2698,257.8075 286.3575,269.7142 287.4451,251.0037 291.7959,241.2232 292.8836,252.2794 293.9713,238.6718 295.059,263.3356 298.3221,256.4893 299.4098,249.3028 300.4975,214.0079 301.5852,229.3165 302.6729,226.3398 305.936,219.9613 307.0237,205.9284 308.1114,209.7555 309.1991,199.5498 310.2868,181.6897 313.5498,167.6568 314.6375,179.5635 315.7252,190.1945 316.8129,185.9421 317.9006,188.0683 321.1637,207.2041 322.2514,198.2741 323.3391,193.5964 324.4268,218.2603 325.5145,233.1437 328.7776,240.3727 329.8653,247.1766 330.953,256.5318 333.1284,232.7184 336.3915,234.8446 337.4792,224.2136 338.5669,219.9613 339.6545,223.1505 340.7422,249.3028 345.093,284.5976 346.1807,302.8829 347.2684,310.1119 348.3561,312.6634 351.6192,318.4041 352.7069,322.0186 353.7946,321.1682 355.97,336.4768 359.2331,347.9582 360.3208,351.7854 361.4085,355.1873 362.4962,354.4963 363.5839,358.5892 366.8469,360.7154 367.9346,359.8649 369.0223,359.8649 370.11,359.0144 371.1977,356.8882 374.4608,356.8882 375.5485,356.463 376.6362,359.0144 377.7239,361.5659 378.8116,362.8416 382.0747,362.4164 383.1624,363.6921 384.2501,361.1406 385.3378,358.5892 386.4255,359.4397 389.6886,359.4397 391.864,359.8649 394.0393,361.5659 397.3024,362.4164 399.4778,357.3135 401.6532,349.2339 407.0917,340.7292 409.2671,330.0982 414.7056,328.8225 416.881,339.0282 422.3194,338.603 424.4948,333.9253 429.9333,312.6634 432.1087,288.4247 437.5472,281.6209 439.7226,292.6771 445.1611,242.0737 447.3364,234.8446 452.7749,266.3123 454.9503,257.8075 462.5642,271.4152 470.1781,296.0791 475.6165,305.0091 477.7919,309.6867 483.2304,313.0886 485.4058,321.5934 490.8443,333.0749 493.0197,333.0749 498.4582,332.6496 500.6335,332.2244 506.072,332.2244 508.2474,318.6167 513.6859,290.9762 515.8613,263.3356 521.2998,256.5318 523.4752,242.0737 528.9136,184.6664 531.089,163.4045 536.5275,142.1425 538.7029,140.8668 544.1414,63.4733 546.3168,32.4308 551.7553,54.118 559.3691,68.1509 561.5445,58.9374 566.983,115.3524 569.1584,117.0534 589.8246,89.5919 592,33.5648" style="fill:none;stroke:rgb(31,119,180);stroke-width:2;stroke-linejoin:bevel" />
  <text dominant-baseline="hanging" text-anchor="middle" transform="translate(313.006,8)" font-family="Segoe UI" font-size="18" font-weight="700" fill="black">7-Tage-Inzidenz Stadt Aachen 07.01.2022</text>
  <polygon points="34.012,29.0795 592,29.0795 592,370.947 34.012,370.947" style="fill:none;stroke:black;stroke-width:1" />
  <polygon points="42.012,37.0795 247.014,37.0795 247.014,63.1325 42.012,63.1325" style="fill:none;stroke:none;" />
  <text dominant-baseline="hanging" text-anchor="start" transform="translate(70.012,45.0795)" font-family="Segoe UI" font-size="12" font-weight="400" fill="black">7-Tage-Inzidenz Stadt Aachen 07.01.2022</text>
  <polyline points="50.012,50.106 66.012,50.106" style="fill:none;stroke:rgb(31,119,180);stroke-width:2" />
</svg>