<?xml version="1.0" encoding="utf-8" standalone="no"?>
<!DOCTYPE svg PUBLIC "-//W3C//DTD SVG 1.1//EN" "http://www.w3.org/Graphics/SVG/1.1/DTD/svg11.dtd">
<svg width="600" height="400" version="1.1" xmlns:xlink="http://www.w3.org/1999/xlink" xmlns="http://www.w3.org/2000/svg">
  <rect x="0" y="0" width="600" height="400" style="fill:rgb(255,255,255);stroke:none;" />
  <polyline points="34.012,362.7539 30.012,362.7539" style="fill:none;stroke:black;stroke-width:1" />
  <polyline points="34.012,348.3289 30.012,348.3289" style="fill:none;stroke:black;stroke-width:1" />
  <polyline points="34.012,333.904 30.012,333.904" style="fill:none;stroke:black;stroke-width:1" />
  <polyline points="34.012,319.479 30.012,319.479" style="fill:none;stroke:black;stroke-width:1" />
  <polyline points="34.012,290.6291 30.012,290.6291" style="fill:none;stroke:black;stroke-width:1" />
  <polyline points="34.012,276.2041 30.012,276.2041" style="fill:none;stroke:black;stroke-width:1" />
  <polyline points="34.012,261.7792 30.012,261.7792" style="fill:none;stroke:black;stroke-width:1" />
  <polyline points="34.012,247.3542 30.012,247.3542" style="fill:none;stroke:black;stroke-width:1" />
  <polyline points="34.012,218.5043 30.012,218.5043" style="fill:none;stroke:black;stroke-width:1" />
  <polyline points="34.012,204.0794 30.012,204.0794" style="fill:none;stroke:black;stroke-width:1" />
  <polyline points="34.012,189.6544 30.012,189.6544" style="fill:none;stroke:black;stroke-width:1" />
  <polyline points="34.012,175.2295 30.012,175.2295" style="fill:none;stroke:black;stroke-width:1" />
  <polyline points="34.012,146.3796 30.012,146.3796" style="fill:none;stroke:black;stroke-width:1" />
  <polyline points="34.012,131.9546 30.012,131.9546" style="fill:none;stroke:black;stroke-width:1" />
  <polyline points="34.012,117.5297 30.012,117.5297" style="fill:none;stroke:black;stroke-width:1" />
  <polyline points="34.012,103.1047 30.012,103.1047" style="fill:none;stroke:black;stroke-width:1" />
  <polyline points="34.012,74.2548 30.012,74.2548" style="fill:none;stroke:black;stroke-width:1" />
  <polyline points="34.012,59.8299 30.012,59.8299" style="fill:none;stroke:black;stroke-width:1" />
  <polyline points="34.012,45.4049 30.012,45.4049" style="fill:none;stroke:black;stroke-width:1" />
  <polyline points="34.012,30.98 30.012,30.98" style="fill:none;stroke:black;stroke-width:1" />
  <text dominant-baseline="middle" text-anchor="end" transform="translate(23.012,305.0541)" font-family="Segoe UI" font-size="12" font-weight="400" fill="black">50</text>
  <text dominant-baseline="middle" text-anchor="end" transform="translate(23.012,232.9293)" font-family="Segoe UI" font-size="12" font-weight="400" fill="black">100</text>
  <text dominant-baseline="middle" text-anchor="end" transform="translate(23.012,160.8045)" font-family="Segoe UI" font-size="12" font-weight="400" fill="black">150</text>
  <text dominant-baseline="middle" text-anchor="end" transform="translate(23.012,88.6798)" font-family="Segoe UI" font-size="12" font-weight="400" fill="black">200</text>
  <polyline points="34.012,305.0541 27.012,305.0541" style="fill:none;stroke:black;stroke-width:1" />
  <polyline points="34.012,232.9293 27.012,232.9293" style="fill:none;stroke:black;stroke-width:1" />
  <polyline points="34.012,160.8045 27.012,160.8045" style="fill:none;stroke:black;stroke-width:1" />
  <polyline points="34.012,88.6798 27.012,88.6798" style="fill:none;stroke:black;stroke-width:1" />
  <text dominant-baseline="hanging" text-anchor="middle" transform="translate(64.4903,381.947)" font-family="Segoe UI" font-size="12" font-weight="400" fill="black">01. September</text>
  <text dominant-baseline="hanging" text-anchor="middle" transform="translate(134.825,381.947)" font-family="Segoe UI" font-size="12" font-weight="400" fill="black">01. October</text>
  <text dominant-baseline="hanging" text-anchor="middle" transform="translate(207.5041,381.947)" font-family="Segoe UI" font-size="12" font-weight="400" fill="black">01. November</text>
  <text dominant-baseline="hanging" text-anchor="middle" transform="translate(277.8387,381.947)" font-family="Segoe UI" font-size="12" font-weight="400" fill="black">01. December</text>
  <text dominant-baseline="hanging" text-anchor="middle" transform="translate(350.5178,381.947)" font-family="Segoe UI" font-size="12" font-weight="400" fill="black">01. January</text>
  <text dominant-baseline="hanging" text-anchor="middle" transform="translate(423.1969,381.947)" font-family="Segoe UI" font-size="12" font-weight="400" fill="black">01. February</text>
  <text dominant-baseline="hanging" text-anchor="middle" transform="translate(488.8426,381.947)" font-family="Segoe UI" font-size="12" font-weight="400" fill="black">01. March</text>
  <text dominant-baseline="hanging" text-anchor="middle" transform="translate(561.5217,381.947)" font-family="Segoe UI" font-size="12" font-weight="400" fill="black">01. April</text>
  <polyline points="64.4903,370.947 64.4903,377.947" style="fill:none;stroke:black;stroke-width:1" />
  <polyline points="134.825,370.947 134.825,377.947" style="fill:none;stroke:black;stroke-width:1" />
  <polyline points="207.5041,370.947 207.5041,377.947" style="fill:none;stroke:black;stroke-width:1" />
  <polyline points="277.8387,370.947 277.8387,377.947" style="fill:none;stroke:black;stroke-width:1" />
  <polyline points="350.5178,370.947 350.5178,377.947" style="fill:none;stroke:black;stroke-width:1" />
  <polyline points="423.1969,370.947 423.1969,377.947" style="fill:none;stroke:black;stroke-width:1" />
  <polyline points="488.8426,370.947 488.8426,377.947" style="fill:none;stroke:black;stroke-width:1" />
  <polyline points="561.5217,370.947 561.5217,377.947" style="fill:none;stroke:black;stroke-width:1" />
  <polyline points="34.012,356.8142 36.3565,356.3899 38.701,362.471 45.7344,358.5112 48.0789,362.471 50.4234,363.0367 52.7679,363.6024 55.1124,362.471 62.1458,366.9965 64.4903,365.2994 66.8348,365.8651 69.1793,365.2994 71.5238,365.2994 78.5573,365.8651 80.9017,367.5622 83.2462,365.8651 85.5907,365.2994 87.9352,363.0367 94.9687,356.8142 97.3132,352.2887 99.6576,347.1975 102.0021,346.6319 104.3466,342.1064 111.3801,347.7632 113.7246,348.3289 116.0691,352.2887 118.4135,350.5916 120.758,351.723 127.7915,335.8838 130.136,336.4495 132.4805,335.3182 134.825,325.1358 137.1694,319.479 144.2029,312.6908 146.5474,313.8222 148.8919,305.9026 151.2364,304.7528 153.5809,307.6498 160.6143,292.5852 162.9588,290.847 165.3033,285.6323 167.6478,275.2029 169.9923,253.1854 177.0257,230.5885 179.3702,225.9532 181.7147,221.8974 184.0592,202.7769 186.4037,202.1975 193.4371,137.3037 195.7816,132.0891 198.1261,129.192 200.4706,131.5096 202.8151,98.4834 209.8486,118.1833 212.193,107.7539 214.5375,108.9127 216.882,101.3804 219.2265,119.3421 226.26,90.9511 228.6045,84.5776 230.9489,58.5042 235.6379,32.4308 242.6714,61.4012 245.0159,75.8864 247.3604,84.5776 249.7048,65.3847 252.0493,120.5009 259.0828,167.433 261.4273,150.6301 263.7718,153.5272 266.1163,208.571 268.4607,185.974 275.4942,188.8711 277.8387,213.7856 280.1832,225.9532 282.5277,198.1416 284.8722,202.1975 291.9056,179.0211 294.2501,181.3388 296.5946,179.6005 298.9391,151.2095 301.2836,173.2271 308.317,154.1066 310.6615,144.2566 313.006,132.6685 315.3505,145.4155 317.695,134.4067 324.7284,116.445 327.0729,117.0244 329.4174,140.7802 341.1398,157.0036 343.4843,154.686 345.8288,134.4067 348.1733,136.3622 357.5513,211.468 359.8957,235.2238 362.2402,250.8678 364.5847,236.962 366.9292,215.9584 376.3072,192.9269 378.6516,195.2446 380.9961,217.2621 383.3406,247.3913 390.3741,255.9086 392.7186,275.7823 395.0631,267.0912 397.4075,285.0529 399.752,285.6323 406.7855,272.3059 411.4745,279.8382 413.819,259.5589 416.1634,247.9707 423.1969,264.1942 425.5414,278.3173 427.8859,272.3059 430.2304,279.8382 432.5749,290.847 439.6083,293.744 441.9528,290.847 444.2973,275.2029 446.6418,276.3617 448.9863,269.4088 456.0197,283.8941 458.3642,285.6323 460.7087,306.491 463.0532,313.4439 465.3977,329.6673 472.4311,329.6673 474.7756,330.8261 477.1201,321.5556 479.4646,322.135 481.8091,317.4997 488.8426,329.0879 491.187,327.9291 493.5315,323.8732 495.876,300.6969 498.2205,294.9028 505.254,265.353 507.5985,265.353 509.9429,263.6148 512.2874,278.6794 514.6319,272.3059 521.6654,261.8765 524.0099,262.4559 526.3544,254.9236 528.6988,226.5326 531.0433,208.571 538.0768,200.4592 540.4213,199.8798 542.7658,204.5151 545.1103,192.9269 547.4547,205.6739 554.4882,224.215 556.8327,220.7385 559.1772,227.6914 561.5217,243.9149 563.8662,218.4209 573.2441,205.0945 575.5886,220.1591 577.9331,201.6181 580.2776,235.2238 587.311,225.8953 589.6555,216.1033 592,168.0124" style="fill:none;stroke:rgb(31,119,180);stroke-width:2;stroke-linejoin:bevel" />
  <text dominant-baseline="hanging" text-anchor="middle" transform="translate(313.006,8)" font-family="Segoe UI" font-size="18" font-weight="700" fill="black">7-Tage-Inzidenz Stadt Aachen 14.04.2021</text>
  <polygon points="34.012,29.0795 592,29.0795 592,370.947 34.012,370.947" style="fill:none;stroke:black;stroke-width:1" />
  <polygon points="42.012,37.0795 247.014,37.0795 247.014,63.1325 42.012,63.1325" style="fill:none;stroke:none;" />
  <text dominant-baseline="hanging" text-anchor="start" transform="translate(70.012,45.0795)" font-family="Segoe UI" font-size="12" font-weight="400" fill="black">7-Tage-Inzidenz Stadt Aachen 14.04.2021</text>
  <polyline points="50.012,50.106 66.012,50.106" style="fill:none;stroke:rgb(31,119,180);stroke-width:2" />
</svg>