<?xml version="1.0" encoding="utf-8" standalone="no"?>
<!DOCTYPE svg PUBLIC "-//W3C//DTD SVG 1.1//EN" "http://www.w3.org/Graphics/SVG/1.1/DTD/svg11.dtd">
<svg width="600" height="400" version="1.1" xmlns:xlink="http://www.w3.org/1999/xlink" xmlns="http://www.w3.org/2000/svg">
  <rect x="0" y="0" width="600" height="400" style="fill:rgb(255,255,255);stroke:none;" />
  <polyline points="34.012,362.7539 30.012,362.7539" style="fill:none;stroke:black;stroke-width:1" />
  <polyline points="34.012,348.3289 30.012,348.3289" style="fill:none;stroke:black;stroke-width:1" />
  <polyline points="34.012,333.904 30.012,333.904" style="fill:none;stroke:black;stroke-width:1" />
  <polyline points="34.012,319.479 30.012,319.479" style="fill:none;stroke:black;stroke-width:1" />
  <polyline points="34.012,290.6291 30.012,290.6291" style="fill:none;stroke:black;stroke-width:1" />
  <polyline points="34.012,276.2041 30.012,276.2041" style="fill:none;stroke:black;stroke-width:1" />
  <polyline points="34.012,261.7792 30.012,261.7792" style="fill:none;stroke:black;stroke-width:1" />
  <polyline points="34.012,247.3542 30.012,247.3542" style="fill:none;stroke:black;stroke-width:1" />
  <polyline points="34.012,218.5043 30.012,218.5043" style="fill:none;stroke:black;stroke-width:1" />
  <polyline points="34.012,204.0794 30.012,204.0794" style="fill:none;stroke:black;stroke-width:1" />
  <polyline points="34.012,189.6544 30.012,189.6544" style="fill:none;stroke:black;stroke-width:1" />
  <polyline points="34.012,175.2295 30.012,175.2295" style="fill:none;stroke:black;stroke-width:1" />
  <polyline points="34.012,146.3796 30.012,146.3796" style="fill:none;stroke:black;stroke-width:1" />
  <polyline points="34.012,131.9546 30.012,131.9546" style="fill:none;stroke:black;stroke-width:1" />
  <polyline points="34.012,117.5297 30.012,117.5297" style="fill:none;stroke:black;stroke-width:1" />
  <polyline points="34.012,103.1047 30.012,103.1047" style="fill:none;stroke:black;stroke-width:1" />
  <polyline points="34.012,74.2548 30.012,74.2548" style="fill:none;stroke:black;stroke-width:1" />
  <polyline points="34.012,59.8299 30.012,59.8299" style="fill:none;stroke:black;stroke-width:1" />
  <polyline points="34.012,45.4049 30.012,45.4049" style="fill:none;stroke:black;stroke-width:1" />
  <polyline points="34.012,30.98 30.012,30.98" style="fill:none;stroke:black;stroke-width:1" />
  <text dominant-baseline="middle" text-anchor="end" transform="translate(23.012,305.0541)" font-family="Segoe UI" font-size="12" font-weight="400" fill="black">50</text>
  <text dominant-baseline="middle" text-anchor="end" transform="translate(23.012,232.9293)" font-family="Segoe UI" font-size="12" font-weight="400" fill="black">100</text>
  <text dominant-baseline="middle" text-anchor="end" transform="translate(23.012,160.8045)" font-family="Segoe UI" font-size="12" font-weight="400" fill="black">150</text>
  <text dominant-baseline="middle" text-anchor="end" transform="translate(23.012,88.6798)" font-family="Segoe UI" font-size="12" font-weight="400" fill="black">200</text>
  <polyline points="34.012,305.0541 27.012,305.0541" style="fill:none;stroke:black;stroke-width:1" />
  <polyline points="34.012,232.9293 27.012,232.9293" style="fill:none;stroke:black;stroke-width:1" />
  <polyline points="34.012,160.8045 27.012,160.8045" style="fill:none;stroke:black;stroke-width:1" />
  <polyline points="34.012,88.6798 27.012,88.6798" style="fill:none;stroke:black;stroke-width:1" />
  <text dominant-baseline="hanging" text-anchor="middle" transform="translate(68.8863,381.947)" font-family="Segoe UI" font-size="12" font-weight="400" fill="black">01. September</text>
  <text dominant-baseline="hanging" text-anchor="middle" transform="translate(149.3653,381.947)" font-family="Segoe UI" font-size="12" font-weight="400" fill="black">01. October</text>
  <text dominant-baseline="hanging" text-anchor="middle" transform="translate(232.527,381.947)" font-family="Segoe UI" font-size="12" font-weight="400" fill="black">01. November</text>
  <text dominant-baseline="hanging" text-anchor="middle" transform="translate(313.006,381.947)" font-family="Segoe UI" font-size="12" font-weight="400" fill="black">01. December</text>
  <text dominant-baseline="hanging" text-anchor="middle" transform="translate(396.1677,381.947)" font-family="Segoe UI" font-size="12" font-weight="400" fill="black">01. January</text>
  <text dominant-baseline="hanging" text-anchor="middle" transform="translate(479.3293,381.947)" font-family="Segoe UI" font-size="12" font-weight="400" fill="black">01. February</text>
  <text dominant-baseline="hanging" text-anchor="middle" transform="translate(554.4431,381.947)" font-family="Segoe UI" font-size="12" font-weight="400" fill="black">01. March</text>
  <polyline points="68.8863,370.947 68.8863,377.947" style="fill:none;stroke:black;stroke-width:1" />
  <polyline points="149.3653,370.947 149.3653,377.947" style="fill:none;stroke:black;stroke-width:1" />
  <polyline points="232.527,370.947 232.527,377.947" style="fill:none;stroke:black;stroke-width:1" />
  <polyline points="313.006,370.947 313.006,377.947" style="fill:none;stroke:black;stroke-width:1" />
  <polyline points="396.1677,370.947 396.1677,377.947" style="fill:none;stroke:black;stroke-width:1" />
  <polyline points="479.3293,370.947 479.3293,377.947" style="fill:none;stroke:black;stroke-width:1" />
  <polyline points="554.4431,370.947 554.4431,377.947" style="fill:none;stroke:black;stroke-width:1" />
  <polyline points="34.012,356.8142 36.6946,356.3899 39.3773,362.471 47.4252,358.5112 50.1078,362.471 52.7904,363.0367 55.4731,363.6024 58.1557,362.471 66.2036,366.9965 68.8863,365.2994 71.5689,365.8651 74.2515,365.2994 76.9342,365.2994 84.9821,365.8651 87.6647,367.5622 90.3473,365.8651 93.03,365.2994 95.7126,363.0367 103.7605,356.8142 106.4431,352.2887 109.1258,347.1975 111.8084,346.6319 114.491,342.1064 122.5389,347.7632 125.2216,348.3289 127.9042,352.2887 130.5868,350.5916 133.2695,351.723 141.3174,335.8838 144,336.4495 146.6827,335.3182 149.3653,325.1358 152.0479,319.479 160.0958,312.6908 162.7785,313.8222 165.4611,305.9026 168.1437,304.7528 170.8264,307.6498 178.8743,292.5852 181.5569,290.847 184.2395,285.6323 186.9222,275.2029 189.6048,253.1854 197.6527,230.5885 200.3353,225.9532 203.018,221.8974 205.7006,202.7769 208.3833,202.1975 216.4312,137.3037 219.1138,132.0891 221.7964,129.192 224.4791,131.5096 227.1617,98.4834 235.2096,118.1833 237.8922,107.7539 240.5749,108.9127 243.2575,101.3804 245.9401,119.3421 253.988,90.9511 256.6707,84.5776 259.3533,58.5042 264.7186,32.4308 272.7665,61.4012 275.4491,75.8864 278.1318,84.5776 280.8144,65.3847 283.497,120.5009 291.5449,167.433 294.2276,150.6301 296.9102,153.5272 299.5928,208.571 302.2755,185.974 310.3234,188.8711 313.006,213.7856 315.6886,225.9532 318.3713,198.1416 321.0539,202.1975 329.1018,179.0211 331.7844,181.3388 334.4671,179.6005 337.1497,151.2095 339.8323,173.2271 347.8803,154.1066 350.5629,144.2566 353.2455,132.6685 355.9282,145.4155 358.6108,134.4067 366.6587,116.445 369.3413,117.0244 372.024,140.7802 385.4371,157.0036 388.1198,154.686 390.8024,134.4067 393.485,136.3622 404.2156,211.468 406.8982,235.2238 409.5808,250.8678 412.2635,236.962 414.9461,215.9584 425.6767,192.9269 428.3593,195.2446 431.0419,217.2621 433.7246,247.3913 441.7725,255.9086 444.4551,275.7823 447.1377,267.0912 449.8204,285.0529 452.503,285.6323 460.5509,272.3059 465.9162,279.8382 468.5988,259.5589 471.2814,247.9707 479.3293,264.1942 482.012,278.3173 484.6946,272.3059 487.3773,279.8382 490.0599,290.847 498.1078,293.744 500.7904,290.847 503.4731,275.2029 506.1557,276.3617 508.8383,269.4088 516.8862,283.8941 519.5689,285.6323 522.2515,306.491 524.9341,313.4439 527.6168,329.6673 535.6647,329.6673 538.3473,330.8261 541.0299,321.5556 543.7126,322.135 546.3952,317.4997 554.4431,329.0879 557.1258,327.9291 559.8084,323.8732 562.491,300.6969 565.1737,294.9028 573.2216,265.353 575.9042,265.353 578.5868,263.6148 581.2695,278.6794 583.9521,272.3059 592,261.8765" style="fill:none;stroke:rgb(31,119,180);stroke-width:2;stroke-linejoin:bevel" />
  <text dominant-baseline="hanging" text-anchor="middle" transform="translate(313.006,8)" font-family="Segoe UI" font-size="18" font-weight="700" fill="black">7-Tage-Inzidenz Stadt Aachen 15.03.2021</text>
  <polygon points="34.012,29.0795 592,29.0795 592,370.947 34.012,370.947" style="fill:none;stroke:black;stroke-width:1" />
  <polygon points="42.012,37.0795 247.014,37.0795 247.014,63.1325 42.012,63.1325" style="fill:none;stroke:none;" />
  <text dominant-baseline="hanging" text-anchor="start" transform="translate(70.012,45.0795)" font-family="Segoe UI" font-size="12" font-weight="400" fill="black">7-Tage-Inzidenz Stadt Aachen 15.03.2021</text>
  <polyline points="50.012,50.106 66.012,50.106" style="fill:none;stroke:rgb(31,119,180);stroke-width:2" />
</svg>