<?xml version="1.0" encoding="utf-8" standalone="no"?>
<!DOCTYPE svg PUBLIC "-//W3C//DTD SVG 1.1//EN" "http://www.w3.org/Graphics/SVG/1.1/DTD/svg11.dtd">
<svg width="600" height="400" version="1.1" xmlns:xlink="http://www.w3.org/1999/xlink" xmlns="http://www.w3.org/2000/svg">
  <rect x="0" y="0" width="600" height="400" style="fill:rgb(255,255,255);stroke:none;" />
  <polyline points="34.012,362.7539 30.012,362.7539" style="fill:none;stroke:black;stroke-width:1" />
  <polyline points="34.012,348.3289 30.012,348.3289" style="fill:none;stroke:black;stroke-width:1" />
  <polyline points="34.012,333.904 30.012,333.904" style="fill:none;stroke:black;stroke-width:1" />
  <polyline points="34.012,319.479 30.012,319.479" style="fill:none;stroke:black;stroke-width:1" />
  <polyline points="34.012,290.6291 30.012,290.6291" style="fill:none;stroke:black;stroke-width:1" />
  <polyline points="34.012,276.2041 30.012,276.2041" style="fill:none;stroke:black;stroke-width:1" />
  <polyline points="34.012,261.7792 30.012,261.7792" style="fill:none;stroke:black;stroke-width:1" />
  <polyline points="34.012,247.3542 30.012,247.3542" style="fill:none;stroke:black;stroke-width:1" />
  <polyline points="34.012,218.5043 30.012,218.5043" style="fill:none;stroke:black;stroke-width:1" />
  <polyline points="34.012,204.0794 30.012,204.0794" style="fill:none;stroke:black;stroke-width:1" />
  <polyline points="34.012,189.6544 30.012,189.6544" style="fill:none;stroke:black;stroke-width:1" />
  <polyline points="34.012,175.2295 30.012,175.2295" style="fill:none;stroke:black;stroke-width:1" />
  <polyline points="34.012,146.3796 30.012,146.3796" style="fill:none;stroke:black;stroke-width:1" />
  <polyline points="34.012,131.9546 30.012,131.9546" style="fill:none;stroke:black;stroke-width:1" />
  <polyline points="34.012,117.5297 30.012,117.5297" style="fill:none;stroke:black;stroke-width:1" />
  <polyline points="34.012,103.1047 30.012,103.1047" style="fill:none;stroke:black;stroke-width:1" />
  <polyline points="34.012,74.2548 30.012,74.2548" style="fill:none;stroke:black;stroke-width:1" />
  <polyline points="34.012,59.8299 30.012,59.8299" style="fill:none;stroke:black;stroke-width:1" />
  <polyline points="34.012,45.4049 30.012,45.4049" style="fill:none;stroke:black;stroke-width:1" />
  <polyline points="34.012,30.98 30.012,30.98" style="fill:none;stroke:black;stroke-width:1" />
  <text dominant-baseline="middle" text-anchor="end" transform="translate(23.012,305.0541)" font-family="Segoe UI" font-size="12" font-weight="400" fill="black">50</text>
  <text dominant-baseline="middle" text-anchor="end" transform="translate(23.012,232.9293)" font-family="Segoe UI" font-size="12" font-weight="400" fill="black">100</text>
  <text dominant-baseline="middle" text-anchor="end" transform="translate(23.012,160.8045)" font-family="Segoe UI" font-size="12" font-weight="400" fill="black">150</text>
  <text dominant-baseline="middle" text-anchor="end" transform="translate(23.012,88.6798)" font-family="Segoe UI" font-size="12" font-weight="400" fill="black">200</text>
  <polyline points="34.012,305.0541 27.012,305.0541" style="fill:none;stroke:black;stroke-width:1" />
  <polyline points="34.012,232.9293 27.012,232.9293" style="fill:none;stroke:black;stroke-width:1" />
  <polyline points="34.012,160.8045 27.012,160.8045" style="fill:none;stroke:black;stroke-width:1" />
  <polyline points="34.012,88.6798 27.012,88.6798" style="fill:none;stroke:black;stroke-width:1" />
  <text dominant-baseline="hanging" text-anchor="middle" transform="translate(81.1149,381.947)" font-family="Segoe UI" font-size="12" font-weight="400" fill="black">01. September</text>
  <text dominant-baseline="hanging" text-anchor="middle" transform="translate(189.8138,381.947)" font-family="Segoe UI" font-size="12" font-weight="400" fill="black">01. October</text>
  <text dominant-baseline="hanging" text-anchor="middle" transform="translate(302.1361,381.947)" font-family="Segoe UI" font-size="12" font-weight="400" fill="black">01. November</text>
  <text dominant-baseline="hanging" text-anchor="middle" transform="translate(410.8351,381.947)" font-family="Segoe UI" font-size="12" font-weight="400" fill="black">01. December</text>
  <text dominant-baseline="hanging" text-anchor="middle" transform="translate(523.1573,381.947)" font-family="Segoe UI" font-size="12" font-weight="400" fill="black">01. January</text>
  <polyline points="81.1149,370.947 81.1149,377.947" style="fill:none;stroke:black;stroke-width:1" />
  <polyline points="189.8138,370.947 189.8138,377.947" style="fill:none;stroke:black;stroke-width:1" />
  <polyline points="302.1361,370.947 302.1361,377.947" style="fill:none;stroke:black;stroke-width:1" />
  <polyline points="410.8351,370.947 410.8351,377.947" style="fill:none;stroke:black;stroke-width:1" />
  <polyline points="523.1573,370.947 523.1573,377.947" style="fill:none;stroke:black;stroke-width:1" />
  <polyline points="34.012,356.8142 37.6353,356.3899 41.2586,362.471 52.1285,358.5112 55.7518,362.471 59.3751,363.0367 62.9984,363.6024 66.6217,362.471 77.4916,366.9965 81.1149,365.2994 84.7382,365.8651 88.3615,365.2994 91.9848,365.2994 102.8547,365.8651 106.478,367.5622 110.1013,365.8651 113.7246,365.2994 117.3479,363.0367 128.2178,356.8142 131.8411,352.2887 135.4644,347.1975 139.0877,346.6319 142.711,342.1064 153.5809,347.7632 157.2042,348.3289 160.8275,352.2887 164.4508,350.5916 168.0741,351.723 178.9439,335.8838 182.5672,336.4495 186.1905,335.3182 189.8138,325.1358 193.4371,319.479 204.307,312.6908 207.9303,313.8222 211.5536,305.9026 215.1769,304.7528 218.8002,307.6498 229.6701,292.5852 233.2934,290.847 236.9167,285.6323 240.54,275.2029 244.1633,253.1854 255.0332,230.5885 258.6565,225.9532 262.2798,221.8974 265.9031,202.7769 269.5264,202.1975 280.3963,137.3037 284.0196,132.0891 287.6429,129.192 291.2662,131.5096 294.8895,98.4834 305.7594,118.1833 309.3827,107.7539 313.006,108.9127 316.6293,101.3804 320.2526,119.3421 331.1225,90.9511 334.7458,84.5776 338.3691,58.5042 345.6157,32.4308 356.4856,61.4012 360.1089,75.8864 363.7322,84.5776 367.3555,65.3847 370.9788,120.5009 381.8487,167.433 385.472,150.6301 389.0953,153.5272 392.7186,208.571 396.3419,185.974 407.2118,188.8711 410.8351,213.7856 414.4584,225.9532 418.0817,198.1416 421.705,202.1975 432.5749,179.0211 436.1982,181.3388 439.8215,179.6005 443.4448,151.2095 447.0681,173.2271 457.9379,154.1066 461.5612,144.2566 465.1845,132.6685 468.8078,145.4155 472.4311,134.4067 483.301,116.445 486.9243,117.0244 490.5476,140.7802 508.6641,157.0036 512.2874,154.686 515.9107,134.4067 519.534,136.3622 534.0272,211.468 537.6505,235.2238 541.2738,250.8678 544.8971,236.962 548.5204,215.9584 563.0136,192.9269 566.6369,195.2446 570.2602,217.2621 573.8835,247.3913 584.7534,255.9086 588.3767,275.7823 592,267.0912" style="fill:none;stroke:rgb(31,119,180);stroke-width:2;stroke-linejoin:bevel" />
  <text dominant-baseline="hanging" text-anchor="middle" transform="translate(313.006,8)" font-family="Segoe UI" font-size="18" font-weight="700" fill="black">7-Tage-Inzidenz Stadt Aachen 20.01.2021</text>
  <polygon points="34.012,29.0795 592,29.0795 592,370.947 34.012,370.947" style="fill:none;stroke:black;stroke-width:1" />
  <polygon points="42.012,37.0795 247.014,37.0795 247.014,63.1325 42.012,63.1325" style="fill:none;stroke:none;" />
  <text dominant-baseline="hanging" text-anchor="start" transform="translate(70.012,45.0795)" font-family="Segoe UI" font-size="12" font-weight="400" fill="black">7-Tage-Inzidenz Stadt Aachen 20.01.2021</text>
  <polyline points="50.012,50.106 66.012,50.106" style="fill:none;stroke:rgb(31,119,180);stroke-width:2" />
</svg>