<?xml version="1.0" encoding="utf-8" standalone="no"?>
<!DOCTYPE svg PUBLIC "-//W3C//DTD SVG 1.1//EN" "http://www.w3.org/Graphics/SVG/1.1/DTD/svg11.dtd">
<svg width="600" height="400" version="1.1" xmlns:xlink="http://www.w3.org/1999/xlink" xmlns="http://www.w3.org/2000/svg">
  <rect x="0" y="0" width="600" height="400" style="fill:rgb(255,255,255);stroke:none;" />
  <polyline points="34.012,358.4713 30.012,358.4713" style="fill:none;stroke:black;stroke-width:1" />
  <polyline points="34.012,344.2334 30.012,344.2334" style="fill:none;stroke:black;stroke-width:1" />
  <polyline points="34.012,329.9954 30.012,329.9954" style="fill:none;stroke:black;stroke-width:1" />
  <polyline points="34.012,315.7575 30.012,315.7575" style="fill:none;stroke:black;stroke-width:1" />
  <polyline points="34.012,287.2816 30.012,287.2816" style="fill:none;stroke:black;stroke-width:1" />
  <polyline points="34.012,273.0437 30.012,273.0437" style="fill:none;stroke:black;stroke-width:1" />
  <polyline points="34.012,258.8058 30.012,258.8058" style="fill:none;stroke:black;stroke-width:1" />
  <polyline points="34.012,244.5678 30.012,244.5678" style="fill:none;stroke:black;stroke-width:1" />
  <polyline points="34.012,216.0919 30.012,216.0919" style="fill:none;stroke:black;stroke-width:1" />
  <polyline points="34.012,201.854 30.012,201.854" style="fill:none;stroke:black;stroke-width:1" />
  <polyline points="34.012,187.6161 30.012,187.6161" style="fill:none;stroke:black;stroke-width:1" />
  <polyline points="34.012,173.3781 30.012,173.3781" style="fill:none;stroke:black;stroke-width:1" />
  <polyline points="34.012,144.9023 30.012,144.9023" style="fill:none;stroke:black;stroke-width:1" />
  <polyline points="34.012,130.6643 30.012,130.6643" style="fill:none;stroke:black;stroke-width:1" />
  <polyline points="34.012,116.4264 30.012,116.4264" style="fill:none;stroke:black;stroke-width:1" />
  <polyline points="34.012,102.1885 30.012,102.1885" style="fill:none;stroke:black;stroke-width:1" />
  <polyline points="34.012,73.7126 30.012,73.7126" style="fill:none;stroke:black;stroke-width:1" />
  <polyline points="34.012,59.4747 30.012,59.4747" style="fill:none;stroke:black;stroke-width:1" />
  <polyline points="34.012,45.2367 30.012,45.2367" style="fill:none;stroke:black;stroke-width:1" />
  <polyline points="34.012,30.9988 30.012,30.9988" style="fill:none;stroke:black;stroke-width:1" />
  <polyline points="56.4004,370.947 56.4004,374.947" style="fill:none;stroke:black;stroke-width:1" />
  <polyline points="161.4537,370.947 161.4537,374.947" style="fill:none;stroke:black;stroke-width:1" />
  <polyline points="266.507,370.947 266.507,374.947" style="fill:none;stroke:black;stroke-width:1" />
  <polyline points="368.1159,370.947 368.1159,374.947" style="fill:none;stroke:black;stroke-width:1" />
  <polyline points="473.1692,370.947 473.1692,374.947" style="fill:none;stroke:black;stroke-width:1" />
  <polyline points="578.2225,370.947 578.2225,374.947" style="fill:none;stroke:black;stroke-width:1" />
  <text dominant-baseline="middle" text-anchor="end" transform="translate(23.012,301.5196)" font-family="Segoe UI" font-size="12" font-weight="400" fill="black">50</text>
  <text dominant-baseline="middle" text-anchor="end" transform="translate(23.012,230.3299)" font-family="Segoe UI" font-size="12" font-weight="400" fill="black">100</text>
  <text dominant-baseline="middle" text-anchor="end" transform="translate(23.012,159.1402)" font-family="Segoe UI" font-size="12" font-weight="400" fill="black">150</text>
  <text dominant-baseline="middle" text-anchor="end" transform="translate(23.012,87.9505)" font-family="Segoe UI" font-size="12" font-weight="400" fill="black">200</text>
  <polyline points="34.012,301.5196 27.012,301.5196" style="fill:none;stroke:black;stroke-width:1" />
  <polyline points="34.012,230.3299 27.012,230.3299" style="fill:none;stroke:black;stroke-width:1" />
  <polyline points="34.012,159.1402 27.012,159.1402" style="fill:none;stroke:black;stroke-width:1" />
  <polyline points="34.012,87.9505 27.012,87.9505" style="fill:none;stroke:black;stroke-width:1" />
  <text dominant-baseline="hanging" text-anchor="middle" transform="translate(108.066,381.947)" font-family="Segoe UI" font-size="12" font-weight="400" fill="black">01. October</text>
  <text dominant-baseline="hanging" text-anchor="middle" transform="translate(213.1193,381.947)" font-family="Segoe UI" font-size="12" font-weight="400" fill="black">01. December</text>
  <text dominant-baseline="hanging" text-anchor="middle" transform="translate(319.8947,381.947)" font-family="Segoe UI" font-size="12" font-weight="400" fill="black">01. February</text>
  <text dominant-baseline="hanging" text-anchor="middle" transform="translate(421.5037,381.947)" font-family="Segoe UI" font-size="12" font-weight="400" fill="black">01. April</text>
  <text dominant-baseline="hanging" text-anchor="middle" transform="translate(526.557,381.947)" font-family="Segoe UI" font-size="12" font-weight="400" fill="black">01. June</text>
  <polyline points="108.066,370.947 108.066,377.947" style="fill:none;stroke:black;stroke-width:1" />
  <polyline points="213.1193,370.947 213.1193,377.947" style="fill:none;stroke:black;stroke-width:1" />
  <polyline points="319.8947,370.947 319.8947,377.947" style="fill:none;stroke:black;stroke-width:1" />
  <polyline points="421.5037,370.947 421.5037,377.947" style="fill:none;stroke:black;stroke-width:1" />
  <polyline points="526.557,370.947 526.557,377.947" style="fill:none;stroke:black;stroke-width:1" />
  <polyline points="34.012,352.6086 35.7342,352.1899 37.4564,358.1921 42.6229,354.2837 44.3451,358.1921 46.0673,358.7505 47.7895,359.3088 49.5117,358.1921 54.6782,362.6589 56.4004,360.9839 58.1226,361.5422 59.8448,360.9839 61.567,360.9839 66.7335,361.5422 68.4557,363.2173 70.1779,361.5422 71.9001,360.9839 73.6223,358.7505 78.7888,352.6086 80.511,348.1418 82.2332,343.1167 83.9554,342.5583 85.6776,338.0915 90.8441,343.675 92.5663,344.2334 94.2885,348.1418 96.0107,346.4668 97.7329,347.5835 102.8994,331.9497 104.6216,332.508 106.3438,331.3913 108.066,321.341 109.7881,315.7575 114.9547,309.0573 116.6769,310.174 118.3991,302.3571 120.1213,301.2222 121.8434,304.0817 127.01,289.2124 128.7322,287.4967 130.4544,282.3496 132.1766,272.0555 133.8987,250.3234 139.0653,228.0194 140.7875,223.4443 142.5097,219.441 144.2319,200.5684 145.954,199.9965 151.1206,135.9441 152.8428,130.797 154.565,127.9375 156.2871,130.2251 158.0093,97.627 163.1759,117.0715 164.8981,106.7774 166.6203,107.9212 168.3424,100.4865 170.0646,118.2153 175.2312,90.1924 176.9534,83.9015 178.6756,58.1662 182.1199,32.4308 187.2865,61.0256 189.0087,75.3231 190.7309,83.9015 192.453,64.9574 194.1752,119.3591 199.3418,165.6827 201.064,149.0977 202.7861,151.9572 204.5083,206.2874 206.2305,183.9834 211.3971,186.8429 213.1193,211.4344 214.8414,223.4443 216.5636,195.9932 218.2858,199.9965 223.4524,177.1206 225.1746,179.4082 226.8967,177.6925 228.6189,149.6696 230.3411,171.4017 235.5077,152.5291 237.2299,142.8068 238.952,131.3689 240.6742,143.9506 242.3964,133.0846 247.563,115.3558 249.2851,115.9277 251.0073,139.3755 259.6183,155.3886 261.3404,153.101 263.0626,133.0846 264.7848,135.0148 271.6736,209.1468 273.3957,232.5946 275.1179,248.0358 276.8401,234.3103 278.5623,213.579 285.451,190.8461 287.1732,193.1337 288.8954,214.8658 290.6176,244.6044 295.7841,253.0113 297.5063,272.6274 299.2285,264.0489 300.9507,281.7777 302.6729,282.3496 307.8394,269.196 311.2838,276.6306 313.006,256.6142 314.7282,245.1763 319.8947,261.1894 321.6169,275.1294 323.3391,269.196 325.0613,276.6306 326.7835,287.4967 331.95,290.3561 333.6722,287.4967 335.3944,272.0555 337.1166,273.1992 338.8388,266.3365 344.0053,280.6339 345.7275,282.3496 347.4497,302.9379 349.1719,309.8006 350.8941,325.8137 356.0606,325.8137 357.7828,326.9575 359.505,317.8072 361.2272,318.3791 362.9494,313.8039 368.1159,325.2418 369.8381,324.098 371.5603,320.0948 373.2825,297.2189 375.0047,291.4999 380.1712,262.3332 381.8934,262.3332 383.6156,260.6175 385.3378,275.4868 387.06,269.196 392.2265,258.9018 393.9487,259.4737 395.6709,252.0391 397.3931,224.0161 399.1153,206.2874 404.2818,198.2808 406.004,197.7089 407.7262,202.2841 409.4484,190.8461 411.1706,203.4279 416.3371,221.7286 418.0593,218.2972 419.7815,225.1599 421.5037,241.173 423.2259,216.0096 430.1146,202.856 431.8368,217.7253 433.559,199.4246 435.2811,232.5946 440.4477,223.3871 442.1699,213.722 443.8921,166.2546 445.6143,186.8429 447.3364,182.8396 452.503,174.2612 454.2252,155.3886 455.9474,160.5356 457.6696,146.8101 459.3917,122.7905 464.5583,103.9179 466.2805,119.931 468.0027,134.2284 469.7249,128.5094 471.447,131.3689 476.6136,157.1043 478.3358,145.0944 480.058,138.8036 481.7801,171.9736 483.5023,191.9899 488.6689,201.7122 490.3911,210.8625 492.1133,223.4443 495.5576,191.418 500.7242,194.2775 502.4464,179.9801 504.1686,174.2612 505.8907,178.5504 507.6129,213.722 514.5017,261.1894 516.2239,285.781 517.946,295.5032 519.6682,298.9346 524.8348,306.6552 526.557,311.5163 528.2791,310.3725 531.7235,330.9608 536.8901,346.402 538.6123,351.5491 540.3344,356.1242 542.0566,355.1949 543.7788,360.6994 548.9454,363.5589 550.6676,362.4151 552.3897,362.4151 554.1119,361.2713 555.8341,358.4118 561.0007,358.4118 562.7229,357.8399 564.445,361.2713 566.1672,364.7027 567.8894,366.4184 573.056,365.8465 574.7781,367.5622 576.5003,364.1308 578.2225,360.6994 579.9447,361.8432 585.1113,361.8432 588.5556,362.4151 592,364.7027" style="fill:none;stroke:rgb(31,119,180);stroke-width:2;stroke-linejoin:bevel" />
  <text dominant-baseline="hanging" text-anchor="middle" transform="translate(313.006,8)" font-family="Segoe UI" font-size="18" font-weight="700" fill="black">7-Tage-Inzidenz Stadt Aachen 09.07.2021</text>
  <polygon points="34.012,29.0795 592,29.0795 592,370.947 34.012,370.947" style="fill:none;stroke:black;stroke-width:1" />
  <polygon points="42.012,37.0795 247.014,37.0795 247.014,63.1325 42.012,63.1325" style="fill:none;stroke:none;" />
  <text dominant-baseline="hanging" text-anchor="start" transform="translate(70.012,45.0795)" font-family="Segoe UI" font-size="12" font-weight="400" fill="black">7-Tage-Inzidenz Stadt Aachen 09.07.2021</text>
  <polyline points="50.012,50.106 66.012,50.106" style="fill:none;stroke:rgb(31,119,180);stroke-width:2" />
</svg>