<?xml version="1.0" encoding="utf-8" standalone="no"?>
<!DOCTYPE svg PUBLIC "-//W3C//DTD SVG 1.1//EN" "http://www.w3.org/Graphics/SVG/1.1/DTD/svg11.dtd">
<svg width="600" height="400" version="1.1" xmlns:xlink="http://www.w3.org/1999/xlink" xmlns="http://www.w3.org/2000/svg">
  <rect x="0" y="0" width="600" height="400" style="fill:rgb(255,255,255);stroke:none;" />
  <polyline points="34.012,362.7539 30.012,362.7539" style="fill:none;stroke:black;stroke-width:1" />
  <polyline points="34.012,348.3289 30.012,348.3289" style="fill:none;stroke:black;stroke-width:1" />
  <polyline points="34.012,333.904 30.012,333.904" style="fill:none;stroke:black;stroke-width:1" />
  <polyline points="34.012,319.479 30.012,319.479" style="fill:none;stroke:black;stroke-width:1" />
  <polyline points="34.012,290.6291 30.012,290.6291" style="fill:none;stroke:black;stroke-width:1" />
  <polyline points="34.012,276.2041 30.012,276.2041" style="fill:none;stroke:black;stroke-width:1" />
  <polyline points="34.012,261.7792 30.012,261.7792" style="fill:none;stroke:black;stroke-width:1" />
  <polyline points="34.012,247.3542 30.012,247.3542" style="fill:none;stroke:black;stroke-width:1" />
  <polyline points="34.012,218.5043 30.012,218.5043" style="fill:none;stroke:black;stroke-width:1" />
  <polyline points="34.012,204.0794 30.012,204.0794" style="fill:none;stroke:black;stroke-width:1" />
  <polyline points="34.012,189.6544 30.012,189.6544" style="fill:none;stroke:black;stroke-width:1" />
  <polyline points="34.012,175.2295 30.012,175.2295" style="fill:none;stroke:black;stroke-width:1" />
  <polyline points="34.012,146.3796 30.012,146.3796" style="fill:none;stroke:black;stroke-width:1" />
  <polyline points="34.012,131.9546 30.012,131.9546" style="fill:none;stroke:black;stroke-width:1" />
  <polyline points="34.012,117.5297 30.012,117.5297" style="fill:none;stroke:black;stroke-width:1" />
  <polyline points="34.012,103.1047 30.012,103.1047" style="fill:none;stroke:black;stroke-width:1" />
  <polyline points="34.012,74.2548 30.012,74.2548" style="fill:none;stroke:black;stroke-width:1" />
  <polyline points="34.012,59.8299 30.012,59.8299" style="fill:none;stroke:black;stroke-width:1" />
  <polyline points="34.012,45.4049 30.012,45.4049" style="fill:none;stroke:black;stroke-width:1" />
  <polyline points="34.012,30.98 30.012,30.98" style="fill:none;stroke:black;stroke-width:1" />
  <text dominant-baseline="middle" text-anchor="end" transform="translate(23.012,305.0541)" font-family="Segoe UI" font-size="12" font-weight="400" fill="black">50</text>
  <text dominant-baseline="middle" text-anchor="end" transform="translate(23.012,232.9293)" font-family="Segoe UI" font-size="12" font-weight="400" fill="black">100</text>
  <text dominant-baseline="middle" text-anchor="end" transform="translate(23.012,160.8045)" font-family="Segoe UI" font-size="12" font-weight="400" fill="black">150</text>
  <text dominant-baseline="middle" text-anchor="end" transform="translate(23.012,88.6798)" font-family="Segoe UI" font-size="12" font-weight="400" fill="black">200</text>
  <polyline points="34.012,305.0541 27.012,305.0541" style="fill:none;stroke:black;stroke-width:1" />
  <polyline points="34.012,232.9293 27.012,232.9293" style="fill:none;stroke:black;stroke-width:1" />
  <polyline points="34.012,160.8045 27.012,160.8045" style="fill:none;stroke:black;stroke-width:1" />
  <polyline points="34.012,88.6798 27.012,88.6798" style="fill:none;stroke:black;stroke-width:1" />
  <text dominant-baseline="hanging" text-anchor="middle" transform="translate(69.5701,381.947)" font-family="Segoe UI" font-size="12" font-weight="400" fill="black">01. September</text>
  <text dominant-baseline="hanging" text-anchor="middle" transform="translate(151.6271,381.947)" font-family="Segoe UI" font-size="12" font-weight="400" fill="black">01. October</text>
  <text dominant-baseline="hanging" text-anchor="middle" transform="translate(236.4194,381.947)" font-family="Segoe UI" font-size="12" font-weight="400" fill="black">01. November</text>
  <text dominant-baseline="hanging" text-anchor="middle" transform="translate(318.4765,381.947)" font-family="Segoe UI" font-size="12" font-weight="400" fill="black">01. December</text>
  <text dominant-baseline="hanging" text-anchor="middle" transform="translate(403.2688,381.947)" font-family="Segoe UI" font-size="12" font-weight="400" fill="black">01. January</text>
  <text dominant-baseline="hanging" text-anchor="middle" transform="translate(488.0611,381.947)" font-family="Segoe UI" font-size="12" font-weight="400" fill="black">01. February</text>
  <text dominant-baseline="hanging" text-anchor="middle" transform="translate(564.6476,381.947)" font-family="Segoe UI" font-size="12" font-weight="400" fill="black">01. March</text>
  <polyline points="69.5701,370.947 69.5701,377.947" style="fill:none;stroke:black;stroke-width:1" />
  <polyline points="151.6271,370.947 151.6271,377.947" style="fill:none;stroke:black;stroke-width:1" />
  <polyline points="236.4194,370.947 236.4194,377.947" style="fill:none;stroke:black;stroke-width:1" />
  <polyline points="318.4765,370.947 318.4765,377.947" style="fill:none;stroke:black;stroke-width:1" />
  <polyline points="403.2688,370.947 403.2688,377.947" style="fill:none;stroke:black;stroke-width:1" />
  <polyline points="488.0611,370.947 488.0611,377.947" style="fill:none;stroke:black;stroke-width:1" />
  <polyline points="564.6476,370.947 564.6476,377.947" style="fill:none;stroke:black;stroke-width:1" />
  <polyline points="34.012,356.8142 36.7472,356.3899 39.4825,362.471 47.6882,358.5112 50.4234,362.471 53.1586,363.0367 55.8939,363.6024 58.6291,362.471 66.8348,366.9965 69.5701,365.2994 72.3053,365.8651 75.0405,365.2994 77.7758,365.2994 85.9815,365.8651 88.7167,367.5622 91.4519,365.8651 94.1872,365.2994 96.9224,363.0367 105.1281,356.8142 107.8634,352.2887 110.5986,347.1975 113.3338,346.6319 116.0691,342.1064 124.2748,347.7632 127.01,348.3289 129.7452,352.2887 132.4805,350.5916 135.2157,351.723 143.4214,335.8838 146.1566,336.4495 148.8919,335.3182 151.6271,325.1358 154.3624,319.479 162.5681,312.6908 165.3033,313.8222 168.0385,305.9026 170.7738,304.7528 173.509,307.6498 181.7147,292.5852 184.4499,290.847 187.1852,285.6323 189.9204,275.2029 192.6556,253.1854 200.8614,230.5885 203.5966,225.9532 206.3318,221.8974 209.0671,202.7769 211.8023,202.1975 220.008,137.3037 222.7432,132.0891 225.4785,129.192 228.2137,131.5096 230.9489,98.4834 239.1546,118.1833 241.8899,107.7539 244.6251,108.9127 247.3604,101.3804 250.0956,119.3421 258.3013,90.9511 261.0365,84.5776 263.7718,58.5042 269.2422,32.4308 277.4479,61.4012 280.1832,75.8864 282.9184,84.5776 285.6536,65.3847 288.3889,120.5009 296.5946,167.433 299.3298,150.6301 302.0651,153.5272 304.8003,208.571 307.5355,185.974 315.7412,188.8711 318.4765,213.7856 321.2117,225.9532 323.9469,198.1416 326.6822,202.1975 334.8879,179.0211 337.6231,181.3388 340.3584,179.6005 343.0936,151.2095 345.8288,173.2271 354.0345,154.1066 356.7698,144.2566 359.505,132.6685 362.2402,145.4155 364.9755,134.4067 373.1812,116.445 375.9164,117.0244 378.6516,140.7802 392.3278,157.0036 395.0631,154.686 397.7983,134.4067 400.5335,136.3622 411.4745,211.468 414.2097,235.2238 416.9449,250.8678 419.6802,236.962 422.4154,215.9584 433.3564,192.9269 436.0916,195.2446 438.8268,217.2621 441.5621,247.3913 449.7678,255.9086 452.503,275.7823 455.2382,267.0912 457.9735,285.0529 460.7087,285.6323 468.9144,272.3059 474.3849,279.8382 477.1201,259.5589 479.8554,247.9707 488.0611,264.1942 490.7963,278.3173 493.5315,272.3059 496.2668,279.8382 499.002,290.847 507.2077,293.744 509.9429,290.847 512.6782,275.2029 515.4134,276.3617 518.1486,269.4088 526.3544,283.8941 529.0896,285.6323 531.8248,306.491 534.5601,313.4439 537.2953,329.6673 545.501,329.6673 548.2362,330.8261 550.9715,321.5556 553.7067,322.135 556.4419,317.4997 564.6476,329.0879 567.3829,327.9291 570.1181,323.8732 572.8534,300.6969 575.5886,294.9028 583.7943,265.353 586.5295,265.353 589.2648,263.6148 592,278.6794" style="fill:none;stroke:rgb(31,119,180);stroke-width:2;stroke-linejoin:bevel" />
  <text dominant-baseline="hanging" text-anchor="middle" transform="translate(313.006,8)" font-family="Segoe UI" font-size="18" font-weight="700" fill="black">7-Tage-Inzidenz Stadt Aachen 11.03.2021</text>
  <polygon points="34.012,29.0795 592,29.0795 592,370.947 34.012,370.947" style="fill:none;stroke:black;stroke-width:1" />
  <polygon points="42.012,37.0795 247.014,37.0795 247.014,63.1325 42.012,63.1325" style="fill:none;stroke:none;" />
  <text dominant-baseline="hanging" text-anchor="start" transform="translate(70.012,45.0795)" font-family="Segoe UI" font-size="12" font-weight="400" fill="black">7-Tage-Inzidenz Stadt Aachen 11.03.2021</text>
  <polyline points="50.012,50.106 66.012,50.106" style="fill:none;stroke:rgb(31,119,180);stroke-width:2" />
</svg>