<?xml version="1.0" encoding="utf-8" standalone="no"?>
<!DOCTYPE svg PUBLIC "-//W3C//DTD SVG 1.1//EN" "http://www.w3.org/Graphics/SVG/1.1/DTD/svg11.dtd">
<svg width="600" height="400" version="1.1" xmlns:xlink="http://www.w3.org/1999/xlink" xmlns="http://www.w3.org/2000/svg">
  <rect x="0" y="0" width="600" height="400" style="fill:rgb(255,255,255);stroke:none;" />
  <polyline points="34.012,362.7539 30.012,362.7539" style="fill:none;stroke:black;stroke-width:1" />
  <polyline points="34.012,348.3289 30.012,348.3289" style="fill:none;stroke:black;stroke-width:1" />
  <polyline points="34.012,333.904 30.012,333.904" style="fill:none;stroke:black;stroke-width:1" />
  <polyline points="34.012,319.479 30.012,319.479" style="fill:none;stroke:black;stroke-width:1" />
  <polyline points="34.012,290.6291 30.012,290.6291" style="fill:none;stroke:black;stroke-width:1" />
  <polyline points="34.012,276.2041 30.012,276.2041" style="fill:none;stroke:black;stroke-width:1" />
  <polyline points="34.012,261.7792 30.012,261.7792" style="fill:none;stroke:black;stroke-width:1" />
  <polyline points="34.012,247.3542 30.012,247.3542" style="fill:none;stroke:black;stroke-width:1" />
  <polyline points="34.012,218.5043 30.012,218.5043" style="fill:none;stroke:black;stroke-width:1" />
  <polyline points="34.012,204.0794 30.012,204.0794" style="fill:none;stroke:black;stroke-width:1" />
  <polyline points="34.012,189.6544 30.012,189.6544" style="fill:none;stroke:black;stroke-width:1" />
  <polyline points="34.012,175.2295 30.012,175.2295" style="fill:none;stroke:black;stroke-width:1" />
  <polyline points="34.012,146.3796 30.012,146.3796" style="fill:none;stroke:black;stroke-width:1" />
  <polyline points="34.012,131.9546 30.012,131.9546" style="fill:none;stroke:black;stroke-width:1" />
  <polyline points="34.012,117.5297 30.012,117.5297" style="fill:none;stroke:black;stroke-width:1" />
  <polyline points="34.012,103.1047 30.012,103.1047" style="fill:none;stroke:black;stroke-width:1" />
  <polyline points="34.012,74.2548 30.012,74.2548" style="fill:none;stroke:black;stroke-width:1" />
  <polyline points="34.012,59.8299 30.012,59.8299" style="fill:none;stroke:black;stroke-width:1" />
  <polyline points="34.012,45.4049 30.012,45.4049" style="fill:none;stroke:black;stroke-width:1" />
  <polyline points="34.012,30.98 30.012,30.98" style="fill:none;stroke:black;stroke-width:1" />
  <text dominant-baseline="middle" text-anchor="end" transform="translate(23.012,305.0541)" font-family="Segoe UI" font-size="12" font-weight="400" fill="black">50</text>
  <text dominant-baseline="middle" text-anchor="end" transform="translate(23.012,232.9293)" font-family="Segoe UI" font-size="12" font-weight="400" fill="black">100</text>
  <text dominant-baseline="middle" text-anchor="end" transform="translate(23.012,160.8045)" font-family="Segoe UI" font-size="12" font-weight="400" fill="black">150</text>
  <text dominant-baseline="middle" text-anchor="end" transform="translate(23.012,88.6798)" font-family="Segoe UI" font-size="12" font-weight="400" fill="black">200</text>
  <polyline points="34.012,305.0541 27.012,305.0541" style="fill:none;stroke:black;stroke-width:1" />
  <polyline points="34.012,232.9293 27.012,232.9293" style="fill:none;stroke:black;stroke-width:1" />
  <polyline points="34.012,160.8045 27.012,160.8045" style="fill:none;stroke:black;stroke-width:1" />
  <polyline points="34.012,88.6798 27.012,88.6798" style="fill:none;stroke:black;stroke-width:1" />
  <text dominant-baseline="hanging" text-anchor="middle" transform="translate(85.4577,381.947)" font-family="Segoe UI" font-size="12" font-weight="400" fill="black">01. September</text>
  <text dominant-baseline="hanging" text-anchor="middle" transform="translate(204.1786,381.947)" font-family="Segoe UI" font-size="12" font-weight="400" fill="black">01. October</text>
  <text dominant-baseline="hanging" text-anchor="middle" transform="translate(326.8568,381.947)" font-family="Segoe UI" font-size="12" font-weight="400" fill="black">01. November</text>
  <text dominant-baseline="hanging" text-anchor="middle" transform="translate(445.5776,381.947)" font-family="Segoe UI" font-size="12" font-weight="400" fill="black">01. December</text>
  <text dominant-baseline="hanging" text-anchor="middle" transform="translate(568.2558,381.947)" font-family="Segoe UI" font-size="12" font-weight="400" fill="black">01. January</text>
  <polyline points="85.4577,370.947 85.4577,377.947" style="fill:none;stroke:black;stroke-width:1" />
  <polyline points="204.1786,370.947 204.1786,377.947" style="fill:none;stroke:black;stroke-width:1" />
  <polyline points="326.8568,370.947 326.8568,377.947" style="fill:none;stroke:black;stroke-width:1" />
  <polyline points="445.5776,370.947 445.5776,377.947" style="fill:none;stroke:black;stroke-width:1" />
  <polyline points="568.2558,370.947 568.2558,377.947" style="fill:none;stroke:black;stroke-width:1" />
  <polyline points="34.012,356.8142 37.9694,356.3899 41.9267,362.471 53.7988,358.5112 57.7562,362.471 61.7135,363.0367 65.6709,363.6024 69.6283,362.471 81.5003,366.9965 85.4577,365.2994 89.4151,365.8651 93.3724,365.2994 97.3298,365.2994 109.2019,365.8651 113.1592,367.5622 117.1166,365.8651 121.074,365.2994 125.0313,363.0367 136.9034,356.8142 140.8608,352.2887 144.8181,347.1975 148.7755,346.6319 152.7329,342.1064 164.6049,347.7632 168.5623,348.3289 172.5197,352.2887 176.477,350.5916 180.4344,351.723 192.3065,335.8838 196.2638,336.4495 200.2212,335.3182 204.1786,325.1358 208.1359,319.479 220.008,312.6908 223.9654,313.8222 227.9227,305.9026 231.8801,304.7528 235.8374,307.6498 247.7095,292.5852 251.6669,290.847 255.6243,285.6323 259.5816,275.2029 263.539,253.1854 275.4111,230.5885 279.3684,225.9532 283.3258,221.8974 287.2831,202.7769 291.2405,202.1975 303.1126,137.3037 307.07,132.0891 311.0273,129.192 314.9847,131.5096 318.942,98.4834 330.8141,118.1833 334.7715,107.7539 338.7289,108.9127 342.6862,101.3804 346.6436,119.3421 358.5157,90.9511 362.473,84.5776 366.4304,58.5042 374.3451,32.4308 386.2172,61.4012 390.1746,75.8864 394.1319,84.5776 398.0893,65.3847 402.0466,120.5009 413.9187,167.433 417.8761,150.6301 421.8334,153.5272 425.7908,208.571 429.7482,185.974 441.6203,188.8711 445.5776,213.7856 449.535,225.9532 453.4923,198.1416 457.4497,202.1975 469.3218,179.0211 473.2791,181.3388 477.2365,179.6005 481.1939,151.2095 485.1512,173.2271 497.0233,154.1066 500.9807,144.2566 504.938,132.6685 508.8954,145.4155 512.8528,134.4067 524.7249,116.445 528.6822,117.0244 532.6396,140.7802 552.4264,157.0036 556.3837,154.686 560.3411,134.4067 564.2985,136.3622 580.1279,211.468 584.0853,235.2238 588.0426,250.8678 592,236.962" style="fill:none;stroke:rgb(31,119,180);stroke-width:2;stroke-linejoin:bevel" />
  <text dominant-baseline="hanging" text-anchor="middle" transform="translate(313.006,8)" font-family="Segoe UI" font-size="18" font-weight="700" fill="black">7-Tage-Inzidenz Stadt Aachen 07.01.2021</text>
  <polygon points="34.012,29.0795 592,29.0795 592,370.947 34.012,370.947" style="fill:none;stroke:black;stroke-width:1" />
  <polygon points="42.012,37.0795 247.014,37.0795 247.014,63.1325 42.012,63.1325" style="fill:none;stroke:none;" />
  <text dominant-baseline="hanging" text-anchor="start" transform="translate(70.012,45.0795)" font-family="Segoe UI" font-size="12" font-weight="400" fill="black">7-Tage-Inzidenz Stadt Aachen 07.01.2021</text>
  <polyline points="50.012,50.106 66.012,50.106" style="fill:none;stroke:rgb(31,119,180);stroke-width:2" />
</svg>