<?xml version="1.0" encoding="utf-8" standalone="no"?>
<!DOCTYPE svg PUBLIC "-//W3C//DTD SVG 1.1//EN" "http://www.w3.org/Graphics/SVG/1.1/DTD/svg11.dtd">
<svg width="600" height="400" version="1.1" xmlns:xlink="http://www.w3.org/1999/xlink" xmlns="http://www.w3.org/2000/svg">
  <rect x="0" y="0" width="600" height="400" style="fill:rgb(255,255,255);stroke:none;" />
  <polyline points="34.012,353.4851 30.012,353.4851" style="fill:none;stroke:black;stroke-width:1" />
  <polyline points="34.012,339.4649 30.012,339.4649" style="fill:none;stroke:black;stroke-width:1" />
  <polyline points="34.012,325.4447 30.012,325.4447" style="fill:none;stroke:black;stroke-width:1" />
  <polyline points="34.012,311.4245 30.012,311.4245" style="fill:none;stroke:black;stroke-width:1" />
  <polyline points="34.012,283.3841 30.012,283.3841" style="fill:none;stroke:black;stroke-width:1" />
  <polyline points="34.012,269.3639 30.012,269.3639" style="fill:none;stroke:black;stroke-width:1" />
  <polyline points="34.012,255.3438 30.012,255.3438" style="fill:none;stroke:black;stroke-width:1" />
  <polyline points="34.012,241.3236 30.012,241.3236" style="fill:none;stroke:black;stroke-width:1" />
  <polyline points="34.012,213.2832 30.012,213.2832" style="fill:none;stroke:black;stroke-width:1" />
  <polyline points="34.012,199.263 30.012,199.263" style="fill:none;stroke:black;stroke-width:1" />
  <polyline points="34.012,185.2428 30.012,185.2428" style="fill:none;stroke:black;stroke-width:1" />
  <polyline points="34.012,171.2226 30.012,171.2226" style="fill:none;stroke:black;stroke-width:1" />
  <polyline points="34.012,143.1822 30.012,143.1822" style="fill:none;stroke:black;stroke-width:1" />
  <polyline points="34.012,129.162 30.012,129.162" style="fill:none;stroke:black;stroke-width:1" />
  <polyline points="34.012,115.1418 30.012,115.1418" style="fill:none;stroke:black;stroke-width:1" />
  <polyline points="34.012,101.1216 30.012,101.1216" style="fill:none;stroke:black;stroke-width:1" />
  <polyline points="34.012,73.0813 30.012,73.0813" style="fill:none;stroke:black;stroke-width:1" />
  <polyline points="34.012,59.0611 30.012,59.0611" style="fill:none;stroke:black;stroke-width:1" />
  <polyline points="34.012,45.0409 30.012,45.0409" style="fill:none;stroke:black;stroke-width:1" />
  <polyline points="34.012,31.0207 30.012,31.0207" style="fill:none;stroke:black;stroke-width:1" />
  <text dominant-baseline="middle" text-anchor="end" transform="translate(23.012,367.5053)" font-family="Segoe UI" font-size="12" font-weight="400" fill="black">0</text>
  <text dominant-baseline="middle" text-anchor="end" transform="translate(23.012,297.4043)" font-family="Segoe UI" font-size="12" font-weight="400" fill="black">50</text>
  <text dominant-baseline="middle" text-anchor="end" transform="translate(23.012,227.3034)" font-family="Segoe UI" font-size="12" font-weight="400" fill="black">100</text>
  <text dominant-baseline="middle" text-anchor="end" transform="translate(23.012,157.2024)" font-family="Segoe UI" font-size="12" font-weight="400" fill="black">150</text>
  <text dominant-baseline="middle" text-anchor="end" transform="translate(23.012,87.1015)" font-family="Segoe UI" font-size="12" font-weight="400" fill="black">200</text>
  <polyline points="34.012,367.5053 27.012,367.5053" style="fill:none;stroke:black;stroke-width:1" />
  <polyline points="34.012,297.4043 27.012,297.4043" style="fill:none;stroke:black;stroke-width:1" />
  <polyline points="34.012,227.3034 27.012,227.3034" style="fill:none;stroke:black;stroke-width:1" />
  <polyline points="34.012,157.2024 27.012,157.2024" style="fill:none;stroke:black;stroke-width:1" />
  <polyline points="34.012,87.1015 27.012,87.1015" style="fill:none;stroke:black;stroke-width:1" />
  <text dominant-baseline="hanging" text-anchor="middle" transform="translate(228.2137,381.947)" font-family="Segoe UI" font-size="12" font-weight="400" fill="black">01. January</text>
  <polyline points="228.2137,370.947 228.2137,377.947" style="fill:none;stroke:black;stroke-width:1" />
  <polyline points="34.012,367.5622 36.7472,367.5621 40.8501,367.5621 42.2177,367.562 43.5853,347.7121 44.9529,347.2997 46.3206,353.2102 50.4234,349.3615 51.791,353.2102 53.1586,353.76 54.5263,354.3098 55.8939,353.2102 59.9967,357.6087 61.3644,355.9593 62.732,356.5091 64.0996,355.9593 65.4672,355.9593 69.5701,356.5091 70.9377,358.1585 72.3053,356.5091 73.6729,355.9593 75.0405,353.76 79.1434,347.7121 80.511,343.3136 81.8786,338.3653 83.2462,337.8155 84.6139,333.417 88.7167,338.9151 90.0843,339.4649 91.4519,343.3136 92.8196,341.6642 94.1872,342.7638 98.29,327.3691 99.6576,327.9189 101.0253,326.8192 102.3929,316.9226 103.7605,311.4245 107.8634,304.8268 109.231,305.9264 110.5986,298.229 111.9662,297.1115 113.3338,299.9272 117.4367,285.2853 118.8043,283.5959 120.1719,278.5275 121.5395,268.3908 122.9071,246.9911 127.01,225.0282 128.3776,220.523 129.7452,216.581 131.1129,197.997 132.4805,197.4339 136.5833,134.361 137.9509,129.2927 139.3186,126.4769 140.6862,128.7295 142.0538,96.63 146.1566,115.7771 147.5243,105.6404 148.8919,106.7667 150.2595,99.4457 151.6271,116.9034 155.73,89.309 157.0976,83.1143 158.4652,57.7726 161.2004,32.4308 165.3033,60.5883 166.6709,74.6671 168.0385,83.1143 169.4061,64.46 170.7738,118.0297 174.8766,163.6449 176.2442,147.3135 177.6119,150.1292 178.9795,203.6285 180.3471,181.6657 184.4499,184.4814 185.8176,208.6969 187.1852,220.523 188.5528,193.4918 189.9204,197.4339 194.0233,174.9079 195.3909,177.1605 196.7585,175.471 198.1261,147.8766 199.4937,169.2764 203.5966,150.6924 204.9642,141.1188 206.3318,129.8558 207.6994,142.2451 209.0671,131.5453 213.1699,114.0876 214.5375,114.6508 215.9051,137.7399 222.7432,153.5081 224.1109,151.2555 225.4785,131.5453 226.8461,133.4459 232.3166,206.4443 233.6842,229.5334 235.0518,244.7385 236.4194,231.2229 237.787,210.8087 243.2575,188.4235 244.6251,190.6761 245.9927,212.0758 247.3604,241.3596 251.4632,249.6379 252.8308,268.954 254.1984,260.5067 255.5661,277.9644 256.9337,278.5275 261.0365,265.5751 263.7718,272.896 265.1394,253.1858 266.507,241.9228 270.6099,257.691 271.9775,271.4178 273.3451,265.5751 274.7127,272.896 276.0803,283.5959 280.1832,286.4116 281.5508,283.5959 282.9184,268.3908 284.286,269.5171 285.6536,262.7593 289.7565,276.8381 291.1241,278.5275 292.4917,298.8009 293.8594,305.5587 295.227,321.327 299.3298,321.327 300.6974,322.4533 302.0651,313.4429 303.4327,314.006 304.8003,309.5008 308.9031,320.7638 310.2708,319.6375 311.6384,315.6955 313.006,293.1694 314.3736,287.5379 318.4765,258.8173 319.8441,258.8173 321.2117,257.1278 322.5793,271.7697 323.9469,265.5751 328.0498,255.4384 329.4174,256.0015 330.785,248.6806 332.1526,221.0862 333.5203,203.6285 337.6231,195.7444 338.9907,195.1813 340.3584,199.6865 341.726,188.4235 343.0936,200.8128 347.1964,218.8336 348.5641,215.4547 349.9317,222.2125 351.2993,237.9807 352.6669,213.2021 358.1374,200.2496 359.505,214.8915 360.8726,196.8707 362.2402,229.5334 366.3431,220.4667 367.7107,210.9495 369.0783,164.208 370.4459,184.4814 371.8136,180.5394 375.9164,172.0921 377.284,153.5081 378.6516,158.5765 380.0193,145.0609 381.3869,121.4086 385.4897,102.8246 386.8574,118.5928 388.225,132.6716 389.5926,127.0401 390.9602,129.8558 395.0631,155.1976 396.4307,143.3714 397.7983,137.1768 399.1659,169.8395 400.5335,189.5498 404.6364,199.1233 406.004,208.1337 407.3716,220.523 410.1069,188.9866 414.2097,191.8024 415.5773,177.7236 416.9449,172.0921 418.3126,176.3157 419.6802,210.9495 425.1506,257.691 426.5183,281.9064 427.8859,291.48 429.2535,294.8589 433.3564,302.4614 434.724,307.2482 436.0916,306.1219 438.8268,326.3953 442.9297,341.6004 444.2973,346.6687 445.6649,351.1739 447.0325,350.2588 448.4001,355.6791 452.503,358.4949 453.8706,357.3686 455.2382,357.3686 456.6059,356.2423 457.9735,353.4265 462.0763,353.4265 463.4439,352.8634 464.8116,356.2423 466.1792,359.6212 467.5468,361.3106 471.6496,360.7475 473.0173,362.4369 474.3849,359.058 475.7525,355.6791 477.1201,356.8054 481.223,356.8054 483.9582,357.3686 486.6934,359.6212 490.7963,360.7475 493.5315,353.9897 496.2668,343.2898 503.1049,332.0268 505.8401,317.9481 512.6782,316.2586 515.4134,329.7742 522.2515,329.2111 524.9867,323.0164 531.8248,294.8589 534.5601,262.7593 541.3981,253.7489 544.1334,268.3908 550.9715,201.3759 553.7067,191.8024 560.5448,233.4755 563.28,222.2125 572.8534,240.2333 582.4267,272.896 589.2648,284.7222 592,290.9168" style="fill:none;stroke:rgb(31,119,180);stroke-width:2;stroke-linejoin:bevel" />
  <text dominant-baseline="hanging" text-anchor="middle" transform="translate(313.006,8)" font-family="Segoe UI" font-size="18" font-weight="700" fill="black">7-Tage-Inzidenz Stadt Aachen 24.09.2021</text>
  <polygon points="34.012,29.0795 592,29.0795 592,370.947 34.012,370.947" style="fill:none;stroke:black;stroke-width:1" />
  <polygon points="42.012,37.0795 247.014,37.0795 247.014,63.1325 42.012,63.1325" style="fill:none;stroke:none;" />
  <text dominant-baseline="hanging" text-anchor="start" transform="translate(70.012,45.0795)" font-family="Segoe UI" font-size="12" font-weight="400" fill="black">7-Tage-Inzidenz Stadt Aachen 24.09.2021</text>
  <polyline points="50.012,50.106 66.012,50.106" style="fill:none;stroke:rgb(31,119,180);stroke-width:2" />
</svg>