<?xml version="1.0" encoding="utf-8" standalone="no"?>
<!DOCTYPE svg PUBLIC "-//W3C//DTD SVG 1.1//EN" "http://www.w3.org/Graphics/SVG/1.1/DTD/svg11.dtd">
<svg width="600" height="400" version="1.1" xmlns:xlink="http://www.w3.org/1999/xlink" xmlns="http://www.w3.org/2000/svg">
  <rect x="0" y="0" width="600" height="400" style="fill:rgb(255,255,255);stroke:none;" />
  <polyline points="34.012,362.7539 30.012,362.7539" style="fill:none;stroke:black;stroke-width:1" />
  <polyline points="34.012,348.3289 30.012,348.3289" style="fill:none;stroke:black;stroke-width:1" />
  <polyline points="34.012,333.904 30.012,333.904" style="fill:none;stroke:black;stroke-width:1" />
  <polyline points="34.012,319.479 30.012,319.479" style="fill:none;stroke:black;stroke-width:1" />
  <polyline points="34.012,290.6291 30.012,290.6291" style="fill:none;stroke:black;stroke-width:1" />
  <polyline points="34.012,276.2041 30.012,276.2041" style="fill:none;stroke:black;stroke-width:1" />
  <polyline points="34.012,261.7792 30.012,261.7792" style="fill:none;stroke:black;stroke-width:1" />
  <polyline points="34.012,247.3542 30.012,247.3542" style="fill:none;stroke:black;stroke-width:1" />
  <polyline points="34.012,218.5043 30.012,218.5043" style="fill:none;stroke:black;stroke-width:1" />
  <polyline points="34.012,204.0794 30.012,204.0794" style="fill:none;stroke:black;stroke-width:1" />
  <polyline points="34.012,189.6544 30.012,189.6544" style="fill:none;stroke:black;stroke-width:1" />
  <polyline points="34.012,175.2295 30.012,175.2295" style="fill:none;stroke:black;stroke-width:1" />
  <polyline points="34.012,146.3796 30.012,146.3796" style="fill:none;stroke:black;stroke-width:1" />
  <polyline points="34.012,131.9546 30.012,131.9546" style="fill:none;stroke:black;stroke-width:1" />
  <polyline points="34.012,117.5297 30.012,117.5297" style="fill:none;stroke:black;stroke-width:1" />
  <polyline points="34.012,103.1047 30.012,103.1047" style="fill:none;stroke:black;stroke-width:1" />
  <polyline points="34.012,74.2548 30.012,74.2548" style="fill:none;stroke:black;stroke-width:1" />
  <polyline points="34.012,59.8299 30.012,59.8299" style="fill:none;stroke:black;stroke-width:1" />
  <polyline points="34.012,45.4049 30.012,45.4049" style="fill:none;stroke:black;stroke-width:1" />
  <polyline points="34.012,30.98 30.012,30.98" style="fill:none;stroke:black;stroke-width:1" />
  <text dominant-baseline="middle" text-anchor="end" transform="translate(23.012,305.0541)" font-family="Segoe UI" font-size="12" font-weight="400" fill="black">50</text>
  <text dominant-baseline="middle" text-anchor="end" transform="translate(23.012,232.9293)" font-family="Segoe UI" font-size="12" font-weight="400" fill="black">100</text>
  <text dominant-baseline="middle" text-anchor="end" transform="translate(23.012,160.8045)" font-family="Segoe UI" font-size="12" font-weight="400" fill="black">150</text>
  <text dominant-baseline="middle" text-anchor="end" transform="translate(23.012,88.6798)" font-family="Segoe UI" font-size="12" font-weight="400" fill="black">200</text>
  <polyline points="34.012,305.0541 27.012,305.0541" style="fill:none;stroke:black;stroke-width:1" />
  <polyline points="34.012,232.9293 27.012,232.9293" style="fill:none;stroke:black;stroke-width:1" />
  <polyline points="34.012,160.8045 27.012,160.8045" style="fill:none;stroke:black;stroke-width:1" />
  <polyline points="34.012,88.6798 27.012,88.6798" style="fill:none;stroke:black;stroke-width:1" />
  <text dominant-baseline="hanging" text-anchor="middle" transform="translate(62.5704,381.947)" font-family="Segoe UI" font-size="12" font-weight="400" fill="black">01. September</text>
  <text dominant-baseline="hanging" text-anchor="middle" transform="translate(128.4745,381.947)" font-family="Segoe UI" font-size="12" font-weight="400" fill="black">01. October</text>
  <text dominant-baseline="hanging" text-anchor="middle" transform="translate(196.5754,381.947)" font-family="Segoe UI" font-size="12" font-weight="400" fill="black">01. November</text>
  <text dominant-baseline="hanging" text-anchor="middle" transform="translate(262.4795,381.947)" font-family="Segoe UI" font-size="12" font-weight="400" fill="black">01. December</text>
  <text dominant-baseline="hanging" text-anchor="middle" transform="translate(330.5804,381.947)" font-family="Segoe UI" font-size="12" font-weight="400" fill="black">01. January</text>
  <text dominant-baseline="hanging" text-anchor="middle" transform="translate(398.6813,381.947)" font-family="Segoe UI" font-size="12" font-weight="400" fill="black">01. February</text>
  <text dominant-baseline="hanging" text-anchor="middle" transform="translate(460.1918,381.947)" font-family="Segoe UI" font-size="12" font-weight="400" fill="black">01. March</text>
  <text dominant-baseline="hanging" text-anchor="middle" transform="translate(528.2927,381.947)" font-family="Segoe UI" font-size="12" font-weight="400" fill="black">01. April</text>
  <polyline points="62.5704,370.947 62.5704,377.947" style="fill:none;stroke:black;stroke-width:1" />
  <polyline points="128.4745,370.947 128.4745,377.947" style="fill:none;stroke:black;stroke-width:1" />
  <polyline points="196.5754,370.947 196.5754,377.947" style="fill:none;stroke:black;stroke-width:1" />
  <polyline points="262.4795,370.947 262.4795,377.947" style="fill:none;stroke:black;stroke-width:1" />
  <polyline points="330.5804,370.947 330.5804,377.947" style="fill:none;stroke:black;stroke-width:1" />
  <polyline points="398.6813,370.947 398.6813,377.947" style="fill:none;stroke:black;stroke-width:1" />
  <polyline points="460.1918,370.947 460.1918,377.947" style="fill:none;stroke:black;stroke-width:1" />
  <polyline points="528.2927,370.947 528.2927,377.947" style="fill:none;stroke:black;stroke-width:1" />
  <polyline points="34.012,356.8142 36.2088,356.3899 38.4056,362.471 44.996,358.5112 47.1928,362.471 49.3896,363.0367 51.5864,363.6024 53.7832,362.471 60.3736,366.9965 62.5704,365.2994 64.7672,365.8651 66.964,365.2994 69.1609,365.2994 75.7513,365.8651 77.9481,367.5622 80.1449,365.8651 82.3417,365.2994 84.5385,363.0367 91.1289,356.8142 93.3257,352.2887 95.5225,347.1975 97.7193,346.6319 99.9161,342.1064 106.5065,347.7632 108.7033,348.3289 110.9001,352.2887 113.0969,350.5916 115.2937,351.723 121.8841,335.8838 124.0809,336.4495 126.2777,335.3182 128.4745,325.1358 130.6713,319.479 137.2617,312.6908 139.4586,313.8222 141.6554,305.9026 143.8522,304.7528 146.049,307.6498 152.6394,292.5852 154.8362,290.847 157.033,285.6323 159.2298,275.2029 161.4266,253.1854 168.017,230.5885 170.2138,225.9532 172.4106,221.8974 174.6074,202.7769 176.8042,202.1975 183.3946,137.3037 185.5914,132.0891 187.7882,129.192 189.985,131.5096 192.1818,98.4834 198.7722,118.1833 200.969,107.7539 203.1658,108.9127 205.3626,101.3804 207.5594,119.3421 214.1499,90.9511 216.3467,84.5776 218.5435,58.5042 222.9371,32.4308 229.5275,61.4012 231.7243,75.8864 233.9211,84.5776 236.1179,65.3847 238.3147,120.5009 244.9051,167.433 247.1019,150.6301 249.2987,153.5272 251.4955,208.571 253.6923,185.974 260.2827,188.8711 262.4795,213.7856 264.6763,225.9532 266.8731,198.1416 269.0699,202.1975 275.6603,179.0211 277.8571,181.3388 280.054,179.6005 282.2508,151.2095 284.4476,173.2271 291.038,154.1066 293.2348,144.2566 295.4316,132.6685 297.6284,145.4155 299.8252,134.4067 306.4156,116.445 308.6124,117.0244 310.8092,140.7802 321.7932,157.0036 323.99,154.686 326.1868,134.4067 328.3836,136.3622 337.1708,211.468 339.3676,235.2238 341.5644,250.8678 343.7612,236.962 345.958,215.9584 354.7453,192.9269 356.9421,195.2446 359.1389,217.2621 361.3357,247.3913 367.9261,255.9086 370.1229,275.7823 372.3197,267.0912 374.5165,285.0529 376.7133,285.6323 383.3037,272.3059 387.6973,279.8382 389.8941,259.5589 392.0909,247.9707 398.6813,264.1942 400.8781,278.3173 403.0749,272.3059 405.2717,279.8382 407.4685,290.847 414.0589,293.744 416.2557,290.847 418.4526,275.2029 420.6494,276.3617 422.8462,269.4088 429.4366,283.8941 431.6334,285.6323 433.8302,306.491 436.027,313.4439 438.2238,329.6673 444.8142,329.6673 447.011,330.8261 449.2078,321.5556 451.4046,322.135 453.6014,317.4997 460.1918,329.0879 462.3886,327.9291 464.5854,323.8732 466.7822,300.6969 468.979,294.9028 475.5694,265.353 477.7662,265.353 479.963,263.6148 482.1598,278.6794 484.3566,272.3059 490.9471,261.8765 493.1439,262.4559 495.3407,254.9236 497.5375,226.5326 499.7343,208.571 506.3247,200.4592 508.5215,199.8798 510.7183,204.5151 512.9151,192.9269 515.1119,205.6739 521.7023,224.215 523.8991,220.7385 526.0959,227.6914 528.2927,243.9149 530.4895,218.4209 539.2767,205.0945 541.4735,220.1591 543.6703,201.6181 545.8671,235.2238 552.4575,225.8953 554.6543,216.1033 556.8511,168.0124 559.048,188.8711 561.2448,184.8152 567.8352,176.1241 570.032,157.0036 572.2288,162.2183 574.4256,148.3125 576.6224,123.9773 583.2128,104.8569 585.4096,121.0803 587.6064,135.5655 589.8032,129.7714 592,132.6685" style="fill:none;stroke:rgb(31,119,180);stroke-width:2;stroke-linejoin:bevel" />
  <text dominant-baseline="hanging" text-anchor="middle" transform="translate(313.006,8)" font-family="Segoe UI" font-size="18" font-weight="700" fill="black">7-Tage-Inzidenz Stadt Aachen 30.04.2021</text>
  <polygon points="34.012,29.0795 592,29.0795 592,370.947 34.012,370.947" style="fill:none;stroke:black;stroke-width:1" />
  <polygon points="42.012,37.0795 247.014,37.0795 247.014,63.1325 42.012,63.1325" style="fill:none;stroke:none;" />
  <text dominant-baseline="hanging" text-anchor="start" transform="translate(70.012,45.0795)" font-family="Segoe UI" font-size="12" font-weight="400" fill="black">7-Tage-Inzidenz Stadt Aachen 30.04.2021</text>
  <polyline points="50.012,50.106 66.012,50.106" style="fill:none;stroke:rgb(31,119,180);stroke-width:2" />
</svg>