<?xml version="1.0" encoding="utf-8" standalone="no"?>
<!DOCTYPE svg PUBLIC "-//W3C//DTD SVG 1.1//EN" "http://www.w3.org/Graphics/SVG/1.1/DTD/svg11.dtd">
<svg width="600" height="400" version="1.1" xmlns:xlink="http://www.w3.org/1999/xlink" xmlns="http://www.w3.org/2000/svg">
  <rect x="0" y="0" width="600" height="400" style="fill:rgb(255,255,255);stroke:none;" />
  <polyline points="34.012,362.7539 30.012,362.7539" style="fill:none;stroke:black;stroke-width:1" />
  <polyline points="34.012,348.3289 30.012,348.3289" style="fill:none;stroke:black;stroke-width:1" />
  <polyline points="34.012,333.904 30.012,333.904" style="fill:none;stroke:black;stroke-width:1" />
  <polyline points="34.012,319.479 30.012,319.479" style="fill:none;stroke:black;stroke-width:1" />
  <polyline points="34.012,290.6291 30.012,290.6291" style="fill:none;stroke:black;stroke-width:1" />
  <polyline points="34.012,276.2041 30.012,276.2041" style="fill:none;stroke:black;stroke-width:1" />
  <polyline points="34.012,261.7792 30.012,261.7792" style="fill:none;stroke:black;stroke-width:1" />
  <polyline points="34.012,247.3542 30.012,247.3542" style="fill:none;stroke:black;stroke-width:1" />
  <polyline points="34.012,218.5043 30.012,218.5043" style="fill:none;stroke:black;stroke-width:1" />
  <polyline points="34.012,204.0794 30.012,204.0794" style="fill:none;stroke:black;stroke-width:1" />
  <polyline points="34.012,189.6544 30.012,189.6544" style="fill:none;stroke:black;stroke-width:1" />
  <polyline points="34.012,175.2295 30.012,175.2295" style="fill:none;stroke:black;stroke-width:1" />
  <polyline points="34.012,146.3796 30.012,146.3796" style="fill:none;stroke:black;stroke-width:1" />
  <polyline points="34.012,131.9546 30.012,131.9546" style="fill:none;stroke:black;stroke-width:1" />
  <polyline points="34.012,117.5297 30.012,117.5297" style="fill:none;stroke:black;stroke-width:1" />
  <polyline points="34.012,103.1047 30.012,103.1047" style="fill:none;stroke:black;stroke-width:1" />
  <polyline points="34.012,74.2548 30.012,74.2548" style="fill:none;stroke:black;stroke-width:1" />
  <polyline points="34.012,59.8299 30.012,59.8299" style="fill:none;stroke:black;stroke-width:1" />
  <polyline points="34.012,45.4049 30.012,45.4049" style="fill:none;stroke:black;stroke-width:1" />
  <polyline points="34.012,30.98 30.012,30.98" style="fill:none;stroke:black;stroke-width:1" />
  <text dominant-baseline="middle" text-anchor="end" transform="translate(23.012,305.0541)" font-family="Segoe UI" font-size="12" font-weight="400" fill="black">50</text>
  <text dominant-baseline="middle" text-anchor="end" transform="translate(23.012,232.9293)" font-family="Segoe UI" font-size="12" font-weight="400" fill="black">100</text>
  <text dominant-baseline="middle" text-anchor="end" transform="translate(23.012,160.8045)" font-family="Segoe UI" font-size="12" font-weight="400" fill="black">150</text>
  <text dominant-baseline="middle" text-anchor="end" transform="translate(23.012,88.6798)" font-family="Segoe UI" font-size="12" font-weight="400" fill="black">200</text>
  <polyline points="34.012,305.0541 27.012,305.0541" style="fill:none;stroke:black;stroke-width:1" />
  <polyline points="34.012,232.9293 27.012,232.9293" style="fill:none;stroke:black;stroke-width:1" />
  <polyline points="34.012,160.8045 27.012,160.8045" style="fill:none;stroke:black;stroke-width:1" />
  <polyline points="34.012,88.6798 27.012,88.6798" style="fill:none;stroke:black;stroke-width:1" />
  <text dominant-baseline="hanging" text-anchor="middle" transform="translate(66.2513,381.947)" font-family="Segoe UI" font-size="12" font-weight="400" fill="black">01. September</text>
  <text dominant-baseline="hanging" text-anchor="middle" transform="translate(140.6497,381.947)" font-family="Segoe UI" font-size="12" font-weight="400" fill="black">01. October</text>
  <text dominant-baseline="hanging" text-anchor="middle" transform="translate(217.5281,381.947)" font-family="Segoe UI" font-size="12" font-weight="400" fill="black">01. November</text>
  <text dominant-baseline="hanging" text-anchor="middle" transform="translate(291.9265,381.947)" font-family="Segoe UI" font-size="12" font-weight="400" fill="black">01. December</text>
  <text dominant-baseline="hanging" text-anchor="middle" transform="translate(368.8048,381.947)" font-family="Segoe UI" font-size="12" font-weight="400" fill="black">01. January</text>
  <text dominant-baseline="hanging" text-anchor="middle" transform="translate(445.6831,381.947)" font-family="Segoe UI" font-size="12" font-weight="400" fill="black">01. February</text>
  <text dominant-baseline="hanging" text-anchor="middle" transform="translate(515.1217,381.947)" font-family="Segoe UI" font-size="12" font-weight="400" fill="black">01. March</text>
  <text dominant-baseline="hanging" text-anchor="middle" transform="translate(592,381.947)" font-family="Segoe UI" font-size="12" font-weight="400" fill="black">01. April</text>
  <polyline points="66.2513,370.947 66.2513,377.947" style="fill:none;stroke:black;stroke-width:1" />
  <polyline points="140.6497,370.947 140.6497,377.947" style="fill:none;stroke:black;stroke-width:1" />
  <polyline points="217.5281,370.947 217.5281,377.947" style="fill:none;stroke:black;stroke-width:1" />
  <polyline points="291.9265,370.947 291.9265,377.947" style="fill:none;stroke:black;stroke-width:1" />
  <polyline points="368.8048,370.947 368.8048,377.947" style="fill:none;stroke:black;stroke-width:1" />
  <polyline points="445.6831,370.947 445.6831,377.947" style="fill:none;stroke:black;stroke-width:1" />
  <polyline points="515.1217,370.947 515.1217,377.947" style="fill:none;stroke:black;stroke-width:1" />
  <polyline points="592,370.947 592,377.947" style="fill:none;stroke:black;stroke-width:1" />
  <polyline points="34.012,356.8142 36.4919,356.3899 38.9719,362.471 46.4117,358.5112 48.8917,362.471 51.3716,363.0367 53.8516,363.6024 56.3315,362.471 63.7714,366.9965 66.2513,365.2994 68.7313,365.8651 71.2112,365.2994 73.6911,365.2994 81.131,365.8651 83.6109,367.5622 86.0909,365.8651 88.5708,365.2994 91.0508,363.0367 98.4906,356.8142 100.9706,352.2887 103.4505,347.1975 105.9305,346.6319 108.4104,342.1064 115.8502,347.7632 118.3302,348.3289 120.8101,352.2887 123.2901,350.5916 125.77,351.723 133.2099,335.8838 135.6898,336.4495 138.1698,335.3182 140.6497,325.1358 143.1297,319.479 150.5695,312.6908 153.0494,313.8222 155.5294,305.9026 158.0093,304.7528 160.4893,307.6498 167.9291,292.5852 170.4091,290.847 172.889,285.6323 175.369,275.2029 177.8489,253.1854 185.2887,230.5885 187.7687,225.9532 190.2486,221.8974 192.7286,202.7769 195.2085,202.1975 202.6484,137.3037 205.1283,132.0891 207.6083,129.192 210.0882,131.5096 212.5682,98.4834 220.008,118.1833 222.4879,107.7539 224.9679,108.9127 227.4478,101.3804 229.9278,119.3421 237.3676,90.9511 239.8476,84.5776 242.3275,58.5042 247.2874,32.4308 254.7273,61.4012 257.2072,75.8864 259.6871,84.5776 262.1671,65.3847 264.647,120.5009 272.0869,167.433 274.5668,150.6301 277.0468,153.5272 279.5267,208.571 282.0067,185.974 289.4465,188.8711 291.9265,213.7856 294.4064,225.9532 296.8863,198.1416 299.3663,202.1975 306.8061,179.0211 309.2861,181.3388 311.766,179.6005 314.246,151.2095 316.7259,173.2271 324.1658,154.1066 326.6457,144.2566 329.1257,132.6685 331.6056,145.4155 334.0855,134.4067 341.5254,116.445 344.0053,117.0244 346.4853,140.7802 358.885,157.0036 361.365,154.686 363.8449,134.4067 366.3249,136.3622 376.2446,211.468 378.7246,235.2238 381.2045,250.8678 383.6845,236.962 386.1644,215.9584 396.0842,192.9269 398.5642,195.2446 401.0441,217.2621 403.5241,247.3913 410.9639,255.9086 413.4438,275.7823 415.9238,267.0912 418.4037,285.0529 420.8837,285.6323 428.3235,272.3059 433.2834,279.8382 435.7634,259.5589 438.2433,247.9707 445.6831,264.1942 448.1631,278.3173 450.643,272.3059 453.123,279.8382 455.6029,290.847 463.0428,293.744 465.5227,290.847 468.0027,275.2029 470.4826,276.3617 472.9626,269.4088 480.4024,283.8941 482.8823,285.6323 485.3623,306.491 487.8422,313.4439 490.3222,329.6673 497.762,329.6673 500.242,330.8261 502.7219,321.5556 505.2019,322.135 507.6818,317.4997 515.1217,329.0879 517.6016,327.9291 520.0815,323.8732 522.5615,300.6969 525.0414,294.9028 532.4813,265.353 534.9612,265.353 537.4412,263.6148 539.9211,278.6794 542.4011,272.3059 549.8409,261.8765 552.3209,262.4559 554.8008,254.9236 557.2807,226.5326 559.7607,208.571 567.2005,200.4592 569.6805,199.8798 572.1604,204.5151 574.6404,192.9269 577.1203,205.6739 584.5602,224.215 587.0401,220.7385 589.5201,227.6914 592,243.9149" style="fill:none;stroke:rgb(31,119,180);stroke-width:2;stroke-linejoin:bevel" />
  <text dominant-baseline="hanging" text-anchor="middle" transform="translate(313.006,8)" font-family="Segoe UI" font-size="18" font-weight="700" fill="black">7-Tage-Inzidenz Stadt Aachen 01.04.2021</text>
  <polygon points="34.012,29.0795 592,29.0795 592,370.947 34.012,370.947" style="fill:none;stroke:black;stroke-width:1" />
  <polygon points="42.012,37.0795 247.014,37.0795 247.014,63.1325 42.012,63.1325" style="fill:none;stroke:none;" />
  <text dominant-baseline="hanging" text-anchor="start" transform="translate(70.012,45.0795)" font-family="Segoe UI" font-size="12" font-weight="400" fill="black">7-Tage-Inzidenz Stadt Aachen 01.04.2021</text>
  <polyline points="50.012,50.106 66.012,50.106" style="fill:none;stroke:rgb(31,119,180);stroke-width:2" />
</svg>