<?xml version="1.0" encoding="utf-8" standalone="no"?>
<!DOCTYPE svg PUBLIC "-//W3C//DTD SVG 1.1//EN" "http://www.w3.org/Graphics/SVG/1.1/DTD/svg11.dtd">
<svg width="600" height="400" version="1.1" xmlns:xlink="http://www.w3.org/1999/xlink" xmlns="http://www.w3.org/2000/svg">
  <rect x="0" y="0" width="600" height="400" style="fill:rgb(255,255,255);stroke:none;" />
  <polyline points="34.012,362.7539 30.012,362.7539" style="fill:none;stroke:black;stroke-width:1" />
  <polyline points="34.012,348.3289 30.012,348.3289" style="fill:none;stroke:black;stroke-width:1" />
  <polyline points="34.012,333.904 30.012,333.904" style="fill:none;stroke:black;stroke-width:1" />
  <polyline points="34.012,319.479 30.012,319.479" style="fill:none;stroke:black;stroke-width:1" />
  <polyline points="34.012,290.6291 30.012,290.6291" style="fill:none;stroke:black;stroke-width:1" />
  <polyline points="34.012,276.2041 30.012,276.2041" style="fill:none;stroke:black;stroke-width:1" />
  <polyline points="34.012,261.7792 30.012,261.7792" style="fill:none;stroke:black;stroke-width:1" />
  <polyline points="34.012,247.3542 30.012,247.3542" style="fill:none;stroke:black;stroke-width:1" />
  <polyline points="34.012,218.5043 30.012,218.5043" style="fill:none;stroke:black;stroke-width:1" />
  <polyline points="34.012,204.0794 30.012,204.0794" style="fill:none;stroke:black;stroke-width:1" />
  <polyline points="34.012,189.6544 30.012,189.6544" style="fill:none;stroke:black;stroke-width:1" />
  <polyline points="34.012,175.2295 30.012,175.2295" style="fill:none;stroke:black;stroke-width:1" />
  <polyline points="34.012,146.3796 30.012,146.3796" style="fill:none;stroke:black;stroke-width:1" />
  <polyline points="34.012,131.9546 30.012,131.9546" style="fill:none;stroke:black;stroke-width:1" />
  <polyline points="34.012,117.5297 30.012,117.5297" style="fill:none;stroke:black;stroke-width:1" />
  <polyline points="34.012,103.1047 30.012,103.1047" style="fill:none;stroke:black;stroke-width:1" />
  <polyline points="34.012,74.2548 30.012,74.2548" style="fill:none;stroke:black;stroke-width:1" />
  <polyline points="34.012,59.8299 30.012,59.8299" style="fill:none;stroke:black;stroke-width:1" />
  <polyline points="34.012,45.4049 30.012,45.4049" style="fill:none;stroke:black;stroke-width:1" />
  <polyline points="34.012,30.98 30.012,30.98" style="fill:none;stroke:black;stroke-width:1" />
  <text dominant-baseline="middle" text-anchor="end" transform="translate(23.012,305.0541)" font-family="Segoe UI" font-size="12" font-weight="400" fill="black">50</text>
  <text dominant-baseline="middle" text-anchor="end" transform="translate(23.012,232.9293)" font-family="Segoe UI" font-size="12" font-weight="400" fill="black">100</text>
  <text dominant-baseline="middle" text-anchor="end" transform="translate(23.012,160.8045)" font-family="Segoe UI" font-size="12" font-weight="400" fill="black">150</text>
  <text dominant-baseline="middle" text-anchor="end" transform="translate(23.012,88.6798)" font-family="Segoe UI" font-size="12" font-weight="400" fill="black">200</text>
  <polyline points="34.012,305.0541 27.012,305.0541" style="fill:none;stroke:black;stroke-width:1" />
  <polyline points="34.012,232.9293 27.012,232.9293" style="fill:none;stroke:black;stroke-width:1" />
  <polyline points="34.012,160.8045 27.012,160.8045" style="fill:none;stroke:black;stroke-width:1" />
  <polyline points="34.012,88.6798 27.012,88.6798" style="fill:none;stroke:black;stroke-width:1" />
  <text dominant-baseline="hanging" text-anchor="middle" transform="translate(70.8335,381.947)" font-family="Segoe UI" font-size="12" font-weight="400" fill="black">01. September</text>
  <text dominant-baseline="hanging" text-anchor="middle" transform="translate(155.8063,381.947)" font-family="Segoe UI" font-size="12" font-weight="400" fill="black">01. October</text>
  <text dominant-baseline="hanging" text-anchor="middle" transform="translate(243.6116,381.947)" font-family="Segoe UI" font-size="12" font-weight="400" fill="black">01. November</text>
  <text dominant-baseline="hanging" text-anchor="middle" transform="translate(328.5843,381.947)" font-family="Segoe UI" font-size="12" font-weight="400" fill="black">01. December</text>
  <text dominant-baseline="hanging" text-anchor="middle" transform="translate(416.3896,381.947)" font-family="Segoe UI" font-size="12" font-weight="400" fill="black">01. January</text>
  <text dominant-baseline="hanging" text-anchor="middle" transform="translate(504.1948,381.947)" font-family="Segoe UI" font-size="12" font-weight="400" fill="black">01. February</text>
  <text dominant-baseline="hanging" text-anchor="middle" transform="translate(583.5027,381.947)" font-family="Segoe UI" font-size="12" font-weight="400" fill="black">01. March</text>
  <polyline points="70.8335,370.947 70.8335,377.947" style="fill:none;stroke:black;stroke-width:1" />
  <polyline points="155.8063,370.947 155.8063,377.947" style="fill:none;stroke:black;stroke-width:1" />
  <polyline points="243.6116,370.947 243.6116,377.947" style="fill:none;stroke:black;stroke-width:1" />
  <polyline points="328.5843,370.947 328.5843,377.947" style="fill:none;stroke:black;stroke-width:1" />
  <polyline points="416.3896,370.947 416.3896,377.947" style="fill:none;stroke:black;stroke-width:1" />
  <polyline points="504.1948,370.947 504.1948,377.947" style="fill:none;stroke:black;stroke-width:1" />
  <polyline points="583.5027,370.947 583.5027,377.947" style="fill:none;stroke:black;stroke-width:1" />
  <polyline points="34.012,356.8142 36.8444,356.3899 39.6769,362.471 48.1741,358.5112 51.0066,362.471 53.839,363.0367 56.6714,363.6024 59.5038,362.471 68.0011,366.9965 70.8335,365.2994 73.666,365.8651 76.4984,365.2994 79.3308,365.2994 87.8281,365.8651 90.6605,367.5622 93.493,365.8651 96.3254,365.2994 99.1578,363.0367 107.6551,356.8142 110.4875,352.2887 113.3199,347.1975 116.1524,346.6319 118.9848,342.1064 127.4821,347.7632 130.3145,348.3289 133.1469,352.2887 135.9794,350.5916 138.8118,351.723 147.3091,335.8838 150.1415,336.4495 152.9739,335.3182 155.8063,325.1358 158.6388,319.479 167.136,312.6908 169.9685,313.8222 172.8009,305.9026 175.6333,304.7528 178.4657,307.6498 186.963,292.5852 189.7955,290.847 192.6279,285.6323 195.4603,275.2029 198.2927,253.1854 206.79,230.5885 209.6224,225.9532 212.4549,221.8974 215.2873,202.7769 218.1197,202.1975 226.617,137.3037 229.4494,132.0891 232.2818,129.192 235.1143,131.5096 237.9467,98.4834 246.444,118.1833 249.2764,107.7539 252.1088,108.9127 254.9413,101.3804 257.7737,119.3421 266.271,90.9511 269.1034,84.5776 271.9358,58.5042 277.6007,32.4308 286.0979,61.4012 288.9304,75.8864 291.7628,84.5776 294.5952,65.3847 297.4277,120.5009 305.9249,167.433 308.7574,150.6301 311.5898,153.5272 314.4222,208.571 317.2546,185.974 325.7519,188.8711 328.5843,213.7856 331.4168,225.9532 334.2492,198.1416 337.0816,202.1975 345.5789,179.0211 348.4113,181.3388 351.2438,179.6005 354.0762,151.2095 356.9086,173.2271 365.4059,154.1066 368.2383,144.2566 371.0707,132.6685 373.9032,145.4155 376.7356,134.4067 385.2329,116.445 388.0653,117.0244 390.8977,140.7802 405.0599,157.0036 407.8923,154.686 410.7247,134.4067 413.5571,136.3622 424.8868,211.468 427.7193,235.2238 430.5517,250.8678 433.3841,236.962 436.2165,215.9584 447.5463,192.9269 450.3787,195.2446 453.2111,217.2621 456.0435,247.3913 464.5408,255.9086 467.3732,275.7823 470.2057,267.0912 473.0381,285.0529 475.8705,285.6323 484.3678,272.3059 490.0326,279.8382 492.8651,259.5589 495.6975,247.9707 504.1948,264.1942 507.0272,278.3173 509.8596,272.3059 512.6921,279.8382 515.5245,290.847 524.0218,293.744 526.8542,290.847 529.6866,275.2029 532.519,276.3617 535.3515,269.4088 543.8488,283.8941 546.6812,285.6323 549.5136,306.491 552.346,313.4439 555.1785,329.6673 563.6757,329.6673 566.5082,330.8261 569.3406,321.5556 572.173,322.135 575.0054,317.4997 583.5027,329.0879 586.3351,327.9291 589.1676,323.8732 592,300.6969" style="fill:none;stroke:rgb(31,119,180);stroke-width:2;stroke-linejoin:bevel" />
  <text dominant-baseline="hanging" text-anchor="middle" transform="translate(313.006,8)" font-family="Segoe UI" font-size="18" font-weight="700" fill="black">7-Tage-Inzidenz Stadt Aachen 04.03.2021</text>
  <polygon points="34.012,29.0795 592,29.0795 592,370.947 34.012,370.947" style="fill:none;stroke:black;stroke-width:1" />
  <polygon points="42.012,37.0795 247.014,37.0795 247.014,63.1325 42.012,63.1325" style="fill:none;stroke:none;" />
  <text dominant-baseline="hanging" text-anchor="start" transform="translate(70.012,45.0795)" font-family="Segoe UI" font-size="12" font-weight="400" fill="black">7-Tage-Inzidenz Stadt Aachen 04.03.2021</text>
  <polyline points="50.012,50.106 66.012,50.106" style="fill:none;stroke:rgb(31,119,180);stroke-width:2" />
</svg>