<?xml version="1.0" encoding="utf-8" standalone="no"?>
<!DOCTYPE svg PUBLIC "-//W3C//DTD SVG 1.1//EN" "http://www.w3.org/Graphics/SVG/1.1/DTD/svg11.dtd">
<svg width="600" height="400" version="1.1" xmlns:xlink="http://www.w3.org/1999/xlink" xmlns="http://www.w3.org/2000/svg">
  <rect x="0" y="0" width="600" height="400" style="fill:rgb(255,255,255);stroke:none;" />
  <polyline points="34.012,362.7539 30.012,362.7539" style="fill:none;stroke:black;stroke-width:1" />
  <polyline points="34.012,348.3289 30.012,348.3289" style="fill:none;stroke:black;stroke-width:1" />
  <polyline points="34.012,333.904 30.012,333.904" style="fill:none;stroke:black;stroke-width:1" />
  <polyline points="34.012,319.479 30.012,319.479" style="fill:none;stroke:black;stroke-width:1" />
  <polyline points="34.012,290.6291 30.012,290.6291" style="fill:none;stroke:black;stroke-width:1" />
  <polyline points="34.012,276.2041 30.012,276.2041" style="fill:none;stroke:black;stroke-width:1" />
  <polyline points="34.012,261.7792 30.012,261.7792" style="fill:none;stroke:black;stroke-width:1" />
  <polyline points="34.012,247.3542 30.012,247.3542" style="fill:none;stroke:black;stroke-width:1" />
  <polyline points="34.012,218.5043 30.012,218.5043" style="fill:none;stroke:black;stroke-width:1" />
  <polyline points="34.012,204.0794 30.012,204.0794" style="fill:none;stroke:black;stroke-width:1" />
  <polyline points="34.012,189.6544 30.012,189.6544" style="fill:none;stroke:black;stroke-width:1" />
  <polyline points="34.012,175.2295 30.012,175.2295" style="fill:none;stroke:black;stroke-width:1" />
  <polyline points="34.012,146.3796 30.012,146.3796" style="fill:none;stroke:black;stroke-width:1" />
  <polyline points="34.012,131.9546 30.012,131.9546" style="fill:none;stroke:black;stroke-width:1" />
  <polyline points="34.012,117.5297 30.012,117.5297" style="fill:none;stroke:black;stroke-width:1" />
  <polyline points="34.012,103.1047 30.012,103.1047" style="fill:none;stroke:black;stroke-width:1" />
  <polyline points="34.012,74.2548 30.012,74.2548" style="fill:none;stroke:black;stroke-width:1" />
  <polyline points="34.012,59.8299 30.012,59.8299" style="fill:none;stroke:black;stroke-width:1" />
  <polyline points="34.012,45.4049 30.012,45.4049" style="fill:none;stroke:black;stroke-width:1" />
  <polyline points="34.012,30.98 30.012,30.98" style="fill:none;stroke:black;stroke-width:1" />
  <polyline points="58.6013,370.947 58.6013,374.947" style="fill:none;stroke:black;stroke-width:1" />
  <polyline points="173.9819,370.947 173.9819,374.947" style="fill:none;stroke:black;stroke-width:1" />
  <polyline points="289.3624,370.947 289.3624,374.947" style="fill:none;stroke:black;stroke-width:1" />
  <polyline points="400.96,370.947 400.96,374.947" style="fill:none;stroke:black;stroke-width:1" />
  <polyline points="516.3406,370.947 516.3406,374.947" style="fill:none;stroke:black;stroke-width:1" />
  <text dominant-baseline="middle" text-anchor="end" transform="translate(23.012,305.0541)" font-family="Segoe UI" font-size="12" font-weight="400" fill="black">50</text>
  <text dominant-baseline="middle" text-anchor="end" transform="translate(23.012,232.9293)" font-family="Segoe UI" font-size="12" font-weight="400" fill="black">100</text>
  <text dominant-baseline="middle" text-anchor="end" transform="translate(23.012,160.8045)" font-family="Segoe UI" font-size="12" font-weight="400" fill="black">150</text>
  <text dominant-baseline="middle" text-anchor="end" transform="translate(23.012,88.6798)" font-family="Segoe UI" font-size="12" font-weight="400" fill="black">200</text>
  <polyline points="34.012,305.0541 27.012,305.0541" style="fill:none;stroke:black;stroke-width:1" />
  <polyline points="34.012,232.9293 27.012,232.9293" style="fill:none;stroke:black;stroke-width:1" />
  <polyline points="34.012,160.8045 27.012,160.8045" style="fill:none;stroke:black;stroke-width:1" />
  <polyline points="34.012,88.6798 27.012,88.6798" style="fill:none;stroke:black;stroke-width:1" />
  <text dominant-baseline="hanging" text-anchor="middle" transform="translate(115.3458,381.947)" font-family="Segoe UI" font-size="12" font-weight="400" fill="black">01. October</text>
  <text dominant-baseline="hanging" text-anchor="middle" transform="translate(230.7264,381.947)" font-family="Segoe UI" font-size="12" font-weight="400" fill="black">01. December</text>
  <text dominant-baseline="hanging" text-anchor="middle" transform="translate(347.9985,381.947)" font-family="Segoe UI" font-size="12" font-weight="400" fill="black">01. February</text>
  <text dominant-baseline="hanging" text-anchor="middle" transform="translate(459.5961,381.947)" font-family="Segoe UI" font-size="12" font-weight="400" fill="black">01. April</text>
  <text dominant-baseline="hanging" text-anchor="middle" transform="translate(574.9766,381.947)" font-family="Segoe UI" font-size="12" font-weight="400" fill="black">01. June</text>
  <polyline points="115.3458,370.947 115.3458,377.947" style="fill:none;stroke:black;stroke-width:1" />
  <polyline points="230.7264,370.947 230.7264,377.947" style="fill:none;stroke:black;stroke-width:1" />
  <polyline points="347.9985,370.947 347.9985,377.947" style="fill:none;stroke:black;stroke-width:1" />
  <polyline points="459.5961,370.947 459.5961,377.947" style="fill:none;stroke:black;stroke-width:1" />
  <polyline points="574.9766,370.947 574.9766,377.947" style="fill:none;stroke:black;stroke-width:1" />
  <polyline points="34.012,356.8142 35.9035,356.3899 37.795,362.471 43.4694,358.5112 45.3609,362.471 47.2524,363.0367 49.1439,363.6024 51.0354,362.471 56.7098,366.9965 58.6013,365.2994 60.4928,365.8651 62.3843,365.2994 64.2758,365.2994 69.9502,365.8651 71.8417,367.5622 73.7332,365.8651 75.6247,365.2994 77.5161,363.0367 83.1906,356.8142 85.0821,352.2887 86.9736,347.1975 88.8651,346.6319 90.7565,342.1064 96.431,347.7632 98.3225,348.3289 100.214,352.2887 102.1055,350.5916 103.9969,351.723 109.6714,335.8838 111.5629,336.4495 113.4544,335.3182 115.3458,325.1358 117.2373,319.479 122.9118,312.6908 124.8033,313.8222 126.6948,305.9026 128.5862,304.7528 130.4777,307.6498 136.1522,292.5852 138.0437,290.847 139.9351,285.6323 141.8266,275.2029 143.7181,253.1854 149.3926,230.5885 151.2841,225.9532 153.1755,221.8974 155.067,202.7769 156.9585,202.1975 162.633,137.3037 164.5244,132.0891 166.4159,129.192 168.3074,131.5096 170.1989,98.4834 175.8734,118.1833 177.7648,107.7539 179.6563,108.9127 181.5478,101.3804 183.4393,119.3421 189.1137,90.9511 191.0052,84.5776 192.8967,58.5042 196.6797,32.4308 202.3541,61.4012 204.2456,75.8864 206.1371,84.5776 208.0286,65.3847 209.9201,120.5009 215.5945,167.433 217.486,150.6301 219.3775,153.5272 221.269,208.571 223.1605,185.974 228.8349,188.8711 230.7264,213.7856 232.6179,225.9532 234.5094,198.1416 236.4009,202.1975 242.0753,179.0211 243.9668,181.3388 245.8583,179.6005 247.7498,151.2095 249.6413,173.2271 255.3157,154.1066 257.2072,144.2566 259.0987,132.6685 260.9902,145.4155 262.8817,134.4067 268.5561,116.445 270.4476,117.0244 272.3391,140.7802 281.7965,157.0036 283.688,154.686 285.5795,134.4067 287.471,136.3622 295.0369,211.468 296.9284,235.2238 298.8199,250.8678 300.7113,236.962 302.6028,215.9584 310.1688,192.9269 312.0603,195.2446 313.9517,217.2621 315.8432,247.3913 321.5177,255.9086 323.4092,275.7823 325.3007,267.0912 327.1921,285.0529 329.0836,285.6323 334.7581,272.3059 338.541,279.8382 340.4325,259.5589 342.324,247.9707 347.9985,264.1942 349.89,278.3173 351.7814,272.3059 353.6729,279.8382 355.5644,290.847 361.2389,293.744 363.1303,290.847 365.0218,275.2029 366.9133,276.3617 368.8048,269.4088 374.4793,283.8941 376.3707,285.6323 378.2622,306.491 380.1537,313.4439 382.0452,329.6673 387.7196,329.6673 389.6111,330.8261 391.5026,321.5556 393.3941,322.135 395.2856,317.4997 400.96,329.0879 402.8515,327.9291 404.743,323.8732 406.6345,300.6969 408.526,294.9028 414.2004,265.353 416.0919,265.353 417.9834,263.6148 419.8749,278.6794 421.7664,272.3059 427.4408,261.8765 429.3323,262.4559 431.2238,254.9236 433.1153,226.5326 435.0068,208.571 440.6812,200.4592 442.5727,199.8798 444.4642,204.5151 446.3557,192.9269 448.2472,205.6739 453.9216,224.215 455.8131,220.7385 457.7046,227.6914 459.5961,243.9149 461.4876,218.4209 469.0535,205.0945 470.945,220.1591 472.8365,201.6181 474.7279,235.2238 480.4024,225.8953 482.2939,216.1033 484.1854,168.0124 486.0769,188.8711 487.9683,184.8152 493.6428,176.1241 495.5343,157.0036 497.4258,162.2183 499.3172,148.3125 501.2087,123.9773 506.8832,104.8569 508.7747,121.0803 510.6662,135.5655 512.5576,129.7714 514.4491,132.6685 520.1236,158.7418 522.0151,146.5743 523.9065,140.2008 525.798,173.8065 527.6895,194.0858 533.364,203.9357 535.2555,213.2062 537.1469,225.9532 540.9299,193.5063 546.6044,196.4034 548.4959,181.9182 550.3873,176.1241 552.2788,180.4697 554.1703,216.1033 561.7362,264.1942 563.6277,289.1087 565.5192,298.9587 567.4107,302.4351 573.0852,310.2571 574.9766,315.1821 576.8681,314.0233 580.6511,334.882 586.3255,350.526 588.217,355.7407 590.1085,360.376 592,359.4344" style="fill:none;stroke:rgb(31,119,180);stroke-width:2;stroke-linejoin:bevel" />
  <text dominant-baseline="hanging" text-anchor="middle" transform="translate(313.006,8)" font-family="Segoe UI" font-size="18" font-weight="700" fill="black">7-Tage-Inzidenz Stadt Aachen 10.06.2021</text>
  <polygon points="34.012,29.0795 592,29.0795 592,370.947 34.012,370.947" style="fill:none;stroke:black;stroke-width:1" />
  <polygon points="42.012,37.0795 247.014,37.0795 247.014,63.1325 42.012,63.1325" style="fill:none;stroke:none;" />
  <text dominant-baseline="hanging" text-anchor="start" transform="translate(70.012,45.0795)" font-family="Segoe UI" font-size="12" font-weight="400" fill="black">7-Tage-Inzidenz Stadt Aachen 10.06.2021</text>
  <polyline points="50.012,50.106 66.012,50.106" style="fill:none;stroke:rgb(31,119,180);stroke-width:2" />
</svg>