<?xml version="1.0" encoding="utf-8" standalone="no"?>
<!DOCTYPE svg PUBLIC "-//W3C//DTD SVG 1.1//EN" "http://www.w3.org/Graphics/SVG/1.1/DTD/svg11.dtd">
<svg width="600" height="400" version="1.1" xmlns:xlink="http://www.w3.org/1999/xlink" xmlns="http://www.w3.org/2000/svg">
  <rect x="0" y="0" width="600" height="400" style="fill:rgb(255,255,255);stroke:none;" />
  <polyline points="34.012,362.7539 30.012,362.7539" style="fill:none;stroke:black;stroke-width:1" />
  <polyline points="34.012,348.3289 30.012,348.3289" style="fill:none;stroke:black;stroke-width:1" />
  <polyline points="34.012,333.904 30.012,333.904" style="fill:none;stroke:black;stroke-width:1" />
  <polyline points="34.012,319.479 30.012,319.479" style="fill:none;stroke:black;stroke-width:1" />
  <polyline points="34.012,290.6291 30.012,290.6291" style="fill:none;stroke:black;stroke-width:1" />
  <polyline points="34.012,276.2041 30.012,276.2041" style="fill:none;stroke:black;stroke-width:1" />
  <polyline points="34.012,261.7792 30.012,261.7792" style="fill:none;stroke:black;stroke-width:1" />
  <polyline points="34.012,247.3542 30.012,247.3542" style="fill:none;stroke:black;stroke-width:1" />
  <polyline points="34.012,218.5043 30.012,218.5043" style="fill:none;stroke:black;stroke-width:1" />
  <polyline points="34.012,204.0794 30.012,204.0794" style="fill:none;stroke:black;stroke-width:1" />
  <polyline points="34.012,189.6544 30.012,189.6544" style="fill:none;stroke:black;stroke-width:1" />
  <polyline points="34.012,175.2295 30.012,175.2295" style="fill:none;stroke:black;stroke-width:1" />
  <polyline points="34.012,146.3796 30.012,146.3796" style="fill:none;stroke:black;stroke-width:1" />
  <polyline points="34.012,131.9546 30.012,131.9546" style="fill:none;stroke:black;stroke-width:1" />
  <polyline points="34.012,117.5297 30.012,117.5297" style="fill:none;stroke:black;stroke-width:1" />
  <polyline points="34.012,103.1047 30.012,103.1047" style="fill:none;stroke:black;stroke-width:1" />
  <polyline points="34.012,74.2548 30.012,74.2548" style="fill:none;stroke:black;stroke-width:1" />
  <polyline points="34.012,59.8299 30.012,59.8299" style="fill:none;stroke:black;stroke-width:1" />
  <polyline points="34.012,45.4049 30.012,45.4049" style="fill:none;stroke:black;stroke-width:1" />
  <polyline points="34.012,30.98 30.012,30.98" style="fill:none;stroke:black;stroke-width:1" />
  <text dominant-baseline="middle" text-anchor="end" transform="translate(23.012,305.0541)" font-family="Segoe UI" font-size="12" font-weight="400" fill="black">50</text>
  <text dominant-baseline="middle" text-anchor="end" transform="translate(23.012,232.9293)" font-family="Segoe UI" font-size="12" font-weight="400" fill="black">100</text>
  <text dominant-baseline="middle" text-anchor="end" transform="translate(23.012,160.8045)" font-family="Segoe UI" font-size="12" font-weight="400" fill="black">150</text>
  <text dominant-baseline="middle" text-anchor="end" transform="translate(23.012,88.6798)" font-family="Segoe UI" font-size="12" font-weight="400" fill="black">200</text>
  <polyline points="34.012,305.0541 27.012,305.0541" style="fill:none;stroke:black;stroke-width:1" />
  <polyline points="34.012,232.9293 27.012,232.9293" style="fill:none;stroke:black;stroke-width:1" />
  <polyline points="34.012,160.8045 27.012,160.8045" style="fill:none;stroke:black;stroke-width:1" />
  <polyline points="34.012,88.6798 27.012,88.6798" style="fill:none;stroke:black;stroke-width:1" />
  <text dominant-baseline="hanging" text-anchor="middle" transform="translate(77.7099,381.947)" font-family="Segoe UI" font-size="12" font-weight="400" fill="black">01. September</text>
  <text dominant-baseline="hanging" text-anchor="middle" transform="translate(178.5511,381.947)" font-family="Segoe UI" font-size="12" font-weight="400" fill="black">01. October</text>
  <text dominant-baseline="hanging" text-anchor="middle" transform="translate(282.7536,381.947)" font-family="Segoe UI" font-size="12" font-weight="400" fill="black">01. November</text>
  <text dominant-baseline="hanging" text-anchor="middle" transform="translate(383.5948,381.947)" font-family="Segoe UI" font-size="12" font-weight="400" fill="black">01. December</text>
  <text dominant-baseline="hanging" text-anchor="middle" transform="translate(487.7974,381.947)" font-family="Segoe UI" font-size="12" font-weight="400" fill="black">01. January</text>
  <text dominant-baseline="hanging" text-anchor="middle" transform="translate(592,381.947)" font-family="Segoe UI" font-size="12" font-weight="400" fill="black">01. February</text>
  <polyline points="77.7099,370.947 77.7099,377.947" style="fill:none;stroke:black;stroke-width:1" />
  <polyline points="178.5511,370.947 178.5511,377.947" style="fill:none;stroke:black;stroke-width:1" />
  <polyline points="282.7536,370.947 282.7536,377.947" style="fill:none;stroke:black;stroke-width:1" />
  <polyline points="383.5948,370.947 383.5948,377.947" style="fill:none;stroke:black;stroke-width:1" />
  <polyline points="487.7974,370.947 487.7974,377.947" style="fill:none;stroke:black;stroke-width:1" />
  <polyline points="592,370.947 592,377.947" style="fill:none;stroke:black;stroke-width:1" />
  <polyline points="34.012,356.8142 37.3734,356.3899 40.7347,362.471 50.8189,358.5112 54.1802,362.471 57.5416,363.0367 60.903,363.6024 64.2644,362.471 74.3485,366.9965 77.7099,365.2994 81.0712,365.8651 84.4326,365.2994 87.794,365.2994 97.8781,365.8651 101.2395,367.5622 104.6008,365.8651 107.9622,365.2994 111.3236,363.0367 121.4077,356.8142 124.7691,352.2887 128.1305,347.1975 131.4918,346.6319 134.8532,342.1064 144.9373,347.7632 148.2987,348.3289 151.6601,352.2887 155.0214,350.5916 158.3828,351.723 168.4669,335.8838 171.8283,336.4495 175.1897,335.3182 178.5511,325.1358 181.9124,319.479 191.9966,312.6908 195.3579,313.8222 198.7193,305.9026 202.0807,304.7528 205.442,307.6498 215.5262,292.5852 218.8875,290.847 222.2489,285.6323 225.6103,275.2029 228.9717,253.1854 239.0558,230.5885 242.4172,225.9532 245.7785,221.8974 249.1399,202.7769 252.5013,202.1975 262.5854,137.3037 265.9468,132.0891 269.3081,129.192 272.6695,131.5096 276.0309,98.4834 286.115,118.1833 289.4764,107.7539 292.8378,108.9127 296.1991,101.3804 299.5605,119.3421 309.6446,90.9511 313.006,84.5776 316.3674,58.5042 323.0901,32.4308 333.1742,61.4012 336.5356,75.8864 339.897,84.5776 343.2584,65.3847 346.6197,120.5009 356.7039,167.433 360.0652,150.6301 363.4266,153.5272 366.788,208.571 370.1493,185.974 380.2335,188.8711 383.5948,213.7856 386.9562,225.9532 390.3176,198.1416 393.679,202.1975 403.7631,179.0211 407.1245,181.3388 410.4858,179.6005 413.8472,151.2095 417.2086,173.2271 427.2927,154.1066 430.6541,144.2566 434.0154,132.6685 437.3768,145.4155 440.7382,134.4067 450.8223,116.445 454.1837,117.0244 457.5451,140.7802 474.3519,157.0036 477.7133,154.686 481.0747,134.4067 484.436,136.3622 497.8815,211.468 501.2429,235.2238 504.6043,250.8678 507.9657,236.962 511.327,215.9584 524.7725,192.9269 528.1339,195.2446 531.4953,217.2621 534.8567,247.3913 544.9408,255.9086 548.3021,275.7823 551.6635,267.0912 555.0249,285.0529 558.3863,285.6323 568.4704,272.3059 575.1931,279.8382 578.5545,259.5589 581.9159,247.9707 592,264.1942" style="fill:none;stroke:rgb(31,119,180);stroke-width:2;stroke-linejoin:bevel" />
  <text dominant-baseline="hanging" text-anchor="middle" transform="translate(313.006,8)" font-family="Segoe UI" font-size="18" font-weight="700" fill="black">7-Tage-Inzidenz Stadt Aachen 01.02.2021</text>
  <polygon points="34.012,29.0795 592,29.0795 592,370.947 34.012,370.947" style="fill:none;stroke:black;stroke-width:1" />
  <polygon points="42.012,37.0795 247.014,37.0795 247.014,63.1325 42.012,63.1325" style="fill:none;stroke:none;" />
  <text dominant-baseline="hanging" text-anchor="start" transform="translate(70.012,45.0795)" font-family="Segoe UI" font-size="12" font-weight="400" fill="black">7-Tage-Inzidenz Stadt Aachen 01.02.2021</text>
  <polyline points="50.012,50.106 66.012,50.106" style="fill:none;stroke:rgb(31,119,180);stroke-width:2" />
</svg>