<?xml version="1.0" encoding="utf-8" standalone="no"?>
<!DOCTYPE svg PUBLIC "-//W3C//DTD SVG 1.1//EN" "http://www.w3.org/Graphics/SVG/1.1/DTD/svg11.dtd">
<svg width="600" height="400" version="1.1" xmlns:xlink="http://www.w3.org/1999/xlink" xmlns="http://www.w3.org/2000/svg">
  <rect x="0" y="0" width="600" height="400" style="fill:rgb(255,255,255);stroke:none;" />
  <polyline points="34.012,362.7539 30.012,362.7539" style="fill:none;stroke:black;stroke-width:1" />
  <polyline points="34.012,348.3289 30.012,348.3289" style="fill:none;stroke:black;stroke-width:1" />
  <polyline points="34.012,333.904 30.012,333.904" style="fill:none;stroke:black;stroke-width:1" />
  <polyline points="34.012,319.479 30.012,319.479" style="fill:none;stroke:black;stroke-width:1" />
  <polyline points="34.012,290.6291 30.012,290.6291" style="fill:none;stroke:black;stroke-width:1" />
  <polyline points="34.012,276.2041 30.012,276.2041" style="fill:none;stroke:black;stroke-width:1" />
  <polyline points="34.012,261.7792 30.012,261.7792" style="fill:none;stroke:black;stroke-width:1" />
  <polyline points="34.012,247.3542 30.012,247.3542" style="fill:none;stroke:black;stroke-width:1" />
  <polyline points="34.012,218.5043 30.012,218.5043" style="fill:none;stroke:black;stroke-width:1" />
  <polyline points="34.012,204.0794 30.012,204.0794" style="fill:none;stroke:black;stroke-width:1" />
  <polyline points="34.012,189.6544 30.012,189.6544" style="fill:none;stroke:black;stroke-width:1" />
  <polyline points="34.012,175.2295 30.012,175.2295" style="fill:none;stroke:black;stroke-width:1" />
  <polyline points="34.012,146.3796 30.012,146.3796" style="fill:none;stroke:black;stroke-width:1" />
  <polyline points="34.012,131.9546 30.012,131.9546" style="fill:none;stroke:black;stroke-width:1" />
  <polyline points="34.012,117.5297 30.012,117.5297" style="fill:none;stroke:black;stroke-width:1" />
  <polyline points="34.012,103.1047 30.012,103.1047" style="fill:none;stroke:black;stroke-width:1" />
  <polyline points="34.012,74.2548 30.012,74.2548" style="fill:none;stroke:black;stroke-width:1" />
  <polyline points="34.012,59.8299 30.012,59.8299" style="fill:none;stroke:black;stroke-width:1" />
  <polyline points="34.012,45.4049 30.012,45.4049" style="fill:none;stroke:black;stroke-width:1" />
  <polyline points="34.012,30.98 30.012,30.98" style="fill:none;stroke:black;stroke-width:1" />
  <text dominant-baseline="middle" text-anchor="end" transform="translate(23.012,305.0541)" font-family="Segoe UI" font-size="12" font-weight="400" fill="black">50</text>
  <text dominant-baseline="middle" text-anchor="end" transform="translate(23.012,232.9293)" font-family="Segoe UI" font-size="12" font-weight="400" fill="black">100</text>
  <text dominant-baseline="middle" text-anchor="end" transform="translate(23.012,160.8045)" font-family="Segoe UI" font-size="12" font-weight="400" fill="black">150</text>
  <text dominant-baseline="middle" text-anchor="end" transform="translate(23.012,88.6798)" font-family="Segoe UI" font-size="12" font-weight="400" fill="black">200</text>
  <polyline points="34.012,305.0541 27.012,305.0541" style="fill:none;stroke:black;stroke-width:1" />
  <polyline points="34.012,232.9293 27.012,232.9293" style="fill:none;stroke:black;stroke-width:1" />
  <polyline points="34.012,160.8045 27.012,160.8045" style="fill:none;stroke:black;stroke-width:1" />
  <polyline points="34.012,88.6798 27.012,88.6798" style="fill:none;stroke:black;stroke-width:1" />
  <text dominant-baseline="hanging" text-anchor="middle" transform="translate(81.2991,381.947)" font-family="Segoe UI" font-size="12" font-weight="400" fill="black">29. August</text>
  <text dominant-baseline="hanging" text-anchor="middle" transform="translate(147.5011,381.947)" font-family="Segoe UI" font-size="12" font-weight="400" fill="black">12. September</text>
  <text dominant-baseline="hanging" text-anchor="middle" transform="translate(213.7031,381.947)" font-family="Segoe UI" font-size="12" font-weight="400" fill="black">26. September</text>
  <text dominant-baseline="hanging" text-anchor="middle" transform="translate(279.905,381.947)" font-family="Segoe UI" font-size="12" font-weight="400" fill="black">10. October</text>
  <text dominant-baseline="hanging" text-anchor="middle" transform="translate(346.107,381.947)" font-family="Segoe UI" font-size="12" font-weight="400" fill="black">24. October</text>
  <text dominant-baseline="hanging" text-anchor="middle" transform="translate(412.3089,381.947)" font-family="Segoe UI" font-size="12" font-weight="400" fill="black">07. November</text>
  <text dominant-baseline="hanging" text-anchor="middle" transform="translate(478.5109,381.947)" font-family="Segoe UI" font-size="12" font-weight="400" fill="black">21. November</text>
  <text dominant-baseline="hanging" text-anchor="middle" transform="translate(544.7129,381.947)" font-family="Segoe UI" font-size="12" font-weight="400" fill="black">05. December</text>
  <polyline points="81.2991,370.947 81.2991,377.947" style="fill:none;stroke:black;stroke-width:1" />
  <polyline points="147.5011,370.947 147.5011,377.947" style="fill:none;stroke:black;stroke-width:1" />
  <polyline points="213.7031,370.947 213.7031,377.947" style="fill:none;stroke:black;stroke-width:1" />
  <polyline points="279.905,370.947 279.905,377.947" style="fill:none;stroke:black;stroke-width:1" />
  <polyline points="346.107,370.947 346.107,377.947" style="fill:none;stroke:black;stroke-width:1" />
  <polyline points="412.3089,370.947 412.3089,377.947" style="fill:none;stroke:black;stroke-width:1" />
  <polyline points="478.5109,370.947 478.5109,377.947" style="fill:none;stroke:black;stroke-width:1" />
  <polyline points="544.7129,370.947 544.7129,377.947" style="fill:none;stroke:black;stroke-width:1" />
  <polyline points="34.012,356.8142 38.7407,356.3899 43.4694,362.471 57.6556,358.5112 62.3843,362.471 67.113,363.0367 71.8417,363.6024 76.5704,362.471 90.7565,366.9965 95.4853,365.2994 100.214,365.8651 104.9427,365.2994 109.6714,365.2994 123.8575,365.8651 128.5862,367.5622 133.3149,365.8651 138.0437,365.2994 142.7724,363.0367 156.9585,356.8142 161.6872,352.2887 166.4159,347.1975 171.1446,346.6319 175.8734,342.1064 190.0595,347.7632 194.7882,348.3289 199.5169,352.2887 204.2456,350.5916 208.9743,351.723 223.1605,335.8838 227.8892,336.4495 232.6179,335.3182 237.3466,325.1358 242.0753,319.479 256.2615,312.6908 260.9902,313.8222 265.7189,305.9026 270.4476,304.7528 275.1763,307.6498 289.3624,292.5852 294.0912,290.847 298.8199,285.6323 303.5486,275.2029 308.2773,253.1854 322.4634,230.5885 327.1921,225.9532 331.9208,221.8974 336.6496,202.7769 341.3783,202.1975 355.5644,137.3037 360.2931,132.0891 365.0218,129.192 369.7505,131.5096 374.4793,98.4834 388.6654,118.1833 393.3941,107.7539 398.1228,108.9127 402.8515,101.3804 407.5802,119.3421 421.7664,90.9511 426.4951,84.5776 431.2238,58.5042 440.6812,32.4308 454.8674,61.4012 459.5961,75.8864 464.3248,84.5776 469.0535,65.3847 473.7822,120.5009 487.9683,167.433 492.6971,150.6301 497.4258,153.5272 502.1545,208.571 506.8832,185.974 521.0693,188.8711 525.798,213.7856 530.5267,225.9532 535.2555,198.1416 539.9842,202.1975 554.1703,179.0211 558.899,181.3388 563.6277,179.6005 568.3564,151.2095 573.0852,173.2271 587.2713,154.1066 592,144.2566" style="fill:none;stroke:rgb(31,119,180);stroke-width:2;stroke-linejoin:bevel" />
  <text dominant-baseline="hanging" text-anchor="middle" transform="translate(313.006,8)" font-family="Segoe UI" font-size="18" font-weight="700" fill="black">7-Tage-Inzidenz Stadt Aachen 15.12.2020</text>
  <polygon points="34.012,29.0795 592,29.0795 592,370.947 34.012,370.947" style="fill:none;stroke:black;stroke-width:1" />
  <polygon points="42.012,37.0795 247.014,37.0795 247.014,63.1325 42.012,63.1325" style="fill:none;stroke:none;" />
  <text dominant-baseline="hanging" text-anchor="start" transform="translate(70.012,45.0795)" font-family="Segoe UI" font-size="12" font-weight="400" fill="black">7-Tage-Inzidenz Stadt Aachen 15.12.2020</text>
  <polyline points="50.012,50.106 66.012,50.106" style="fill:none;stroke:rgb(31,119,180);stroke-width:2" />
</svg>