<?xml version="1.0" encoding="utf-8" standalone="no"?>
<!DOCTYPE svg PUBLIC "-//W3C//DTD SVG 1.1//EN" "http://www.w3.org/Graphics/SVG/1.1/DTD/svg11.dtd">
<svg width="600" height="400" version="1.1" xmlns:xlink="http://www.w3.org/1999/xlink" xmlns="http://www.w3.org/2000/svg">
  <rect x="0" y="0" width="600" height="400" style="fill:rgb(255,255,255);stroke:none;" />
  <polyline points="34.012,358.4713 30.012,358.4713" style="fill:none;stroke:black;stroke-width:1" />
  <polyline points="34.012,344.2334 30.012,344.2334" style="fill:none;stroke:black;stroke-width:1" />
  <polyline points="34.012,329.9954 30.012,329.9954" style="fill:none;stroke:black;stroke-width:1" />
  <polyline points="34.012,315.7575 30.012,315.7575" style="fill:none;stroke:black;stroke-width:1" />
  <polyline points="34.012,287.2816 30.012,287.2816" style="fill:none;stroke:black;stroke-width:1" />
  <polyline points="34.012,273.0437 30.012,273.0437" style="fill:none;stroke:black;stroke-width:1" />
  <polyline points="34.012,258.8058 30.012,258.8058" style="fill:none;stroke:black;stroke-width:1" />
  <polyline points="34.012,244.5678 30.012,244.5678" style="fill:none;stroke:black;stroke-width:1" />
  <polyline points="34.012,216.0919 30.012,216.0919" style="fill:none;stroke:black;stroke-width:1" />
  <polyline points="34.012,201.854 30.012,201.854" style="fill:none;stroke:black;stroke-width:1" />
  <polyline points="34.012,187.6161 30.012,187.6161" style="fill:none;stroke:black;stroke-width:1" />
  <polyline points="34.012,173.3781 30.012,173.3781" style="fill:none;stroke:black;stroke-width:1" />
  <polyline points="34.012,144.9023 30.012,144.9023" style="fill:none;stroke:black;stroke-width:1" />
  <polyline points="34.012,130.6643 30.012,130.6643" style="fill:none;stroke:black;stroke-width:1" />
  <polyline points="34.012,116.4264 30.012,116.4264" style="fill:none;stroke:black;stroke-width:1" />
  <polyline points="34.012,102.1885 30.012,102.1885" style="fill:none;stroke:black;stroke-width:1" />
  <polyline points="34.012,73.7126 30.012,73.7126" style="fill:none;stroke:black;stroke-width:1" />
  <polyline points="34.012,59.4747 30.012,59.4747" style="fill:none;stroke:black;stroke-width:1" />
  <polyline points="34.012,45.2367 30.012,45.2367" style="fill:none;stroke:black;stroke-width:1" />
  <polyline points="34.012,30.9988 30.012,30.9988" style="fill:none;stroke:black;stroke-width:1" />
  <polyline points="55.0376,370.947 55.0376,374.947" style="fill:none;stroke:black;stroke-width:1" />
  <polyline points="153.6964,370.947 153.6964,374.947" style="fill:none;stroke:black;stroke-width:1" />
  <polyline points="252.3551,370.947 252.3551,374.947" style="fill:none;stroke:black;stroke-width:1" />
  <polyline points="347.7792,370.947 347.7792,374.947" style="fill:none;stroke:black;stroke-width:1" />
  <polyline points="446.4379,370.947 446.4379,374.947" style="fill:none;stroke:black;stroke-width:1" />
  <polyline points="545.0967,370.947 545.0967,374.947" style="fill:none;stroke:black;stroke-width:1" />
  <text dominant-baseline="middle" text-anchor="end" transform="translate(23.012,301.5196)" font-family="Segoe UI" font-size="12" font-weight="400" fill="black">50</text>
  <text dominant-baseline="middle" text-anchor="end" transform="translate(23.012,230.3299)" font-family="Segoe UI" font-size="12" font-weight="400" fill="black">100</text>
  <text dominant-baseline="middle" text-anchor="end" transform="translate(23.012,159.1402)" font-family="Segoe UI" font-size="12" font-weight="400" fill="black">150</text>
  <text dominant-baseline="middle" text-anchor="end" transform="translate(23.012,87.9505)" font-family="Segoe UI" font-size="12" font-weight="400" fill="black">200</text>
  <polyline points="34.012,301.5196 27.012,301.5196" style="fill:none;stroke:black;stroke-width:1" />
  <polyline points="34.012,230.3299 27.012,230.3299" style="fill:none;stroke:black;stroke-width:1" />
  <polyline points="34.012,159.1402 27.012,159.1402" style="fill:none;stroke:black;stroke-width:1" />
  <polyline points="34.012,87.9505 27.012,87.9505" style="fill:none;stroke:black;stroke-width:1" />
  <text dominant-baseline="hanging" text-anchor="middle" transform="translate(103.5583,381.947)" font-family="Segoe UI" font-size="12" font-weight="400" fill="black">01. October</text>
  <text dominant-baseline="hanging" text-anchor="middle" transform="translate(202.2171,381.947)" font-family="Segoe UI" font-size="12" font-weight="400" fill="black">01. December</text>
  <text dominant-baseline="hanging" text-anchor="middle" transform="translate(302.4932,381.947)" font-family="Segoe UI" font-size="12" font-weight="400" fill="black">01. February</text>
  <text dominant-baseline="hanging" text-anchor="middle" transform="translate(397.9172,381.947)" font-family="Segoe UI" font-size="12" font-weight="400" fill="black">01. April</text>
  <text dominant-baseline="hanging" text-anchor="middle" transform="translate(496.576,381.947)" font-family="Segoe UI" font-size="12" font-weight="400" fill="black">01. June</text>
  <polyline points="103.5583,370.947 103.5583,377.947" style="fill:none;stroke:black;stroke-width:1" />
  <polyline points="202.2171,370.947 202.2171,377.947" style="fill:none;stroke:black;stroke-width:1" />
  <polyline points="302.4932,370.947 302.4932,377.947" style="fill:none;stroke:black;stroke-width:1" />
  <polyline points="397.9172,370.947 397.9172,377.947" style="fill:none;stroke:black;stroke-width:1" />
  <polyline points="496.576,370.947 496.576,377.947" style="fill:none;stroke:black;stroke-width:1" />
  <polyline points="34.012,352.6086 35.6294,352.1899 37.2467,358.1921 42.0988,354.2837 43.7161,358.1921 45.3335,358.7505 46.9509,359.3088 48.5682,358.1921 53.4203,362.6589 55.0376,360.9839 56.655,361.5422 58.2723,360.9839 59.8897,360.9839 64.7418,361.5422 66.3591,363.2173 67.9765,361.5422 69.5938,360.9839 71.2112,358.7505 76.0633,352.6086 77.6806,348.1418 79.298,343.1167 80.9153,342.5583 82.5327,338.0915 87.3848,343.675 89.0021,344.2334 90.6195,348.1418 92.2368,346.4668 93.8542,347.5835 98.7063,331.9497 100.3236,332.508 101.941,331.3913 103.5583,321.341 105.1757,315.7575 110.0278,309.0573 111.6451,310.174 113.2625,302.3571 114.8798,301.2222 116.4972,304.0817 121.3493,289.2124 122.9666,287.4967 124.584,282.3496 126.2013,272.0555 127.8187,250.3234 132.6707,228.0194 134.2881,223.4443 135.9055,219.441 137.5228,200.5684 139.1402,199.9965 143.9922,135.9441 145.6096,130.797 147.227,127.9375 148.8443,130.2251 150.4617,97.627 155.3137,117.0715 156.9311,106.7774 158.5485,107.9212 160.1658,100.4865 161.7832,118.2153 166.6352,90.1924 168.2526,83.9015 169.8699,58.1662 173.1047,32.4308 177.9567,61.0256 179.5741,75.3231 181.1914,83.9015 182.8088,64.9574 184.4262,119.3591 189.2782,165.6827 190.8956,149.0977 192.5129,151.9572 194.1303,206.2874 195.7477,183.9834 200.5997,186.8429 202.2171,211.4344 203.8344,223.4443 205.4518,195.9932 207.0691,199.9965 211.9212,177.1206 213.5386,179.4082 215.1559,177.6925 216.7733,149.6696 218.3906,171.4017 223.2427,152.5291 224.8601,142.8068 226.4774,131.3689 228.0948,143.9506 229.7121,133.0846 234.5642,115.3558 236.1816,115.9277 237.7989,139.3755 245.8857,155.3886 247.5031,153.101 249.1204,133.0846 250.7378,135.0148 257.2072,209.1468 258.8246,232.5946 260.4419,248.0358 262.0593,234.3103 263.6766,213.579 270.1461,190.8461 271.7634,193.1337 273.3808,214.8658 274.9981,244.6044 279.8502,253.0113 281.4675,272.6274 283.0849,264.0489 284.7023,281.7777 286.3196,282.3496 291.1717,269.196 294.4064,276.6306 296.0238,256.6142 297.6411,245.1763 302.4932,261.1894 304.1105,275.1294 305.7279,269.196 307.3453,276.6306 308.9626,287.4967 313.8147,290.3561 315.432,287.4967 317.0494,272.0555 318.6667,273.1992 320.2841,266.3365 325.1362,280.6339 326.7535,282.3496 328.3709,302.9379 329.9882,309.8006 331.6056,325.8137 336.4577,325.8137 338.075,326.9575 339.6924,317.8072 341.3097,318.3791 342.9271,313.8039 347.7792,325.2418 349.3965,324.098 351.0139,320.0948 352.6312,297.2189 354.2486,291.4999 359.1007,262.3332 360.718,262.3332 362.3354,260.6175 363.9527,275.4868 365.5701,269.196 370.4222,258.9018 372.0395,259.4737 373.6569,252.0391 375.2742,224.0161 376.8916,206.2874 381.7437,198.2808 383.361,197.7089 384.9784,202.2841 386.5957,190.8461 388.2131,203.4279 393.0651,221.7286 394.6825,218.2972 396.2999,225.1599 397.9172,241.173 399.5346,216.0096 406.004,202.856 407.6214,217.7253 409.2387,199.4246 410.8561,232.5946 415.7081,223.3871 417.3255,213.722 418.9429,166.2546 420.5602,186.8429 422.1776,182.8396 427.0296,174.2612 428.647,155.3886 430.2643,160.5356 431.8817,146.8101 433.4991,122.7905 438.3511,103.9179 439.9685,119.931 441.5858,134.2284 443.2032,128.5094 444.8206,131.3689 449.6726,157.1043 451.29,145.0944 452.9073,138.8036 454.5247,171.9736 456.1421,191.9899 460.9941,201.7122 462.6115,210.8625 464.2288,223.4443 467.4635,191.418 472.3156,194.2775 473.933,179.9801 475.5503,174.2612 477.1677,178.5504 478.785,213.722 485.2545,261.1894 486.8718,285.781 488.4892,295.5032 490.1065,298.9346 494.9586,306.6552 496.576,311.5163 498.1933,310.3725 501.428,330.9608 506.2801,346.402 507.8975,351.5491 509.5148,356.1242 511.1322,355.1949 512.7495,360.6994 517.6016,363.5589 519.219,362.4151 520.8363,362.4151 522.4537,361.2713 524.071,358.4118 528.9231,358.4118 530.5405,357.8399 532.1578,361.2713 533.7752,364.7027 535.3925,366.4184 540.2446,365.8465 541.8619,367.5622 543.4793,364.1308 545.0967,360.6994 546.714,361.8432 551.5661,361.8432 554.8008,362.4151 558.0355,364.7027 562.8876,365.8465 566.1223,358.9837 569.357,348.1177 577.4438,336.6798 580.6785,322.3823 588.7653,320.6667 592,334.3922" style="fill:none;stroke:rgb(31,119,180);stroke-width:2;stroke-linejoin:bevel" />
  <text dominant-baseline="hanging" text-anchor="middle" transform="translate(313.006,8)" font-family="Segoe UI" font-size="18" font-weight="700" fill="black">7-Tage-Inzidenz Stadt Aachen 30.07.2021</text>
  <polygon points="34.012,29.0795 592,29.0795 592,370.947 34.012,370.947" style="fill:none;stroke:black;stroke-width:1" />
  <polygon points="42.012,37.0795 247.014,37.0795 247.014,63.1325 42.012,63.1325" style="fill:none;stroke:none;" />
  <text dominant-baseline="hanging" text-anchor="start" transform="translate(70.012,45.0795)" font-family="Segoe UI" font-size="12" font-weight="400" fill="black">7-Tage-Inzidenz Stadt Aachen 30.07.2021</text>
  <polyline points="50.012,50.106 66.012,50.106" style="fill:none;stroke:rgb(31,119,180);stroke-width:2" />
</svg>