<?xml version="1.0" encoding="utf-8" standalone="no"?>
<!DOCTYPE svg PUBLIC "-//W3C//DTD SVG 1.1//EN" "http://www.w3.org/Graphics/SVG/1.1/DTD/svg11.dtd">
<svg width="600" height="400" version="1.1" xmlns:xlink="http://www.w3.org/1999/xlink" xmlns="http://www.w3.org/2000/svg">
  <rect x="0" y="0" width="600" height="400" style="fill:rgb(255,255,255);stroke:none;" />
  <polyline points="34.012,362.7539 30.012,362.7539" style="fill:none;stroke:black;stroke-width:1" />
  <polyline points="34.012,348.3289 30.012,348.3289" style="fill:none;stroke:black;stroke-width:1" />
  <polyline points="34.012,333.904 30.012,333.904" style="fill:none;stroke:black;stroke-width:1" />
  <polyline points="34.012,319.479 30.012,319.479" style="fill:none;stroke:black;stroke-width:1" />
  <polyline points="34.012,290.6291 30.012,290.6291" style="fill:none;stroke:black;stroke-width:1" />
  <polyline points="34.012,276.2041 30.012,276.2041" style="fill:none;stroke:black;stroke-width:1" />
  <polyline points="34.012,261.7792 30.012,261.7792" style="fill:none;stroke:black;stroke-width:1" />
  <polyline points="34.012,247.3542 30.012,247.3542" style="fill:none;stroke:black;stroke-width:1" />
  <polyline points="34.012,218.5043 30.012,218.5043" style="fill:none;stroke:black;stroke-width:1" />
  <polyline points="34.012,204.0794 30.012,204.0794" style="fill:none;stroke:black;stroke-width:1" />
  <polyline points="34.012,189.6544 30.012,189.6544" style="fill:none;stroke:black;stroke-width:1" />
  <polyline points="34.012,175.2295 30.012,175.2295" style="fill:none;stroke:black;stroke-width:1" />
  <polyline points="34.012,146.3796 30.012,146.3796" style="fill:none;stroke:black;stroke-width:1" />
  <polyline points="34.012,131.9546 30.012,131.9546" style="fill:none;stroke:black;stroke-width:1" />
  <polyline points="34.012,117.5297 30.012,117.5297" style="fill:none;stroke:black;stroke-width:1" />
  <polyline points="34.012,103.1047 30.012,103.1047" style="fill:none;stroke:black;stroke-width:1" />
  <polyline points="34.012,74.2548 30.012,74.2548" style="fill:none;stroke:black;stroke-width:1" />
  <polyline points="34.012,59.8299 30.012,59.8299" style="fill:none;stroke:black;stroke-width:1" />
  <polyline points="34.012,45.4049 30.012,45.4049" style="fill:none;stroke:black;stroke-width:1" />
  <polyline points="34.012,30.98 30.012,30.98" style="fill:none;stroke:black;stroke-width:1" />
  <text dominant-baseline="middle" text-anchor="end" transform="translate(23.012,305.0541)" font-family="Segoe UI" font-size="12" font-weight="400" fill="black">50</text>
  <text dominant-baseline="middle" text-anchor="end" transform="translate(23.012,232.9293)" font-family="Segoe UI" font-size="12" font-weight="400" fill="black">100</text>
  <text dominant-baseline="middle" text-anchor="end" transform="translate(23.012,160.8045)" font-family="Segoe UI" font-size="12" font-weight="400" fill="black">150</text>
  <text dominant-baseline="middle" text-anchor="end" transform="translate(23.012,88.6798)" font-family="Segoe UI" font-size="12" font-weight="400" fill="black">200</text>
  <polyline points="34.012,305.0541 27.012,305.0541" style="fill:none;stroke:black;stroke-width:1" />
  <polyline points="34.012,232.9293 27.012,232.9293" style="fill:none;stroke:black;stroke-width:1" />
  <polyline points="34.012,160.8045 27.012,160.8045" style="fill:none;stroke:black;stroke-width:1" />
  <polyline points="34.012,88.6798 27.012,88.6798" style="fill:none;stroke:black;stroke-width:1" />
  <text dominant-baseline="hanging" text-anchor="middle" transform="translate(59.8264,381.947)" font-family="Segoe UI" font-size="12" font-weight="400" fill="black">01. September</text>
  <text dominant-baseline="hanging" text-anchor="middle" transform="translate(119.3981,381.947)" font-family="Segoe UI" font-size="12" font-weight="400" fill="black">01. October</text>
  <text dominant-baseline="hanging" text-anchor="middle" transform="translate(180.9555,381.947)" font-family="Segoe UI" font-size="12" font-weight="400" fill="black">01. November</text>
  <text dominant-baseline="hanging" text-anchor="middle" transform="translate(240.5271,381.947)" font-family="Segoe UI" font-size="12" font-weight="400" fill="black">01. December</text>
  <text dominant-baseline="hanging" text-anchor="middle" transform="translate(302.0845,381.947)" font-family="Segoe UI" font-size="12" font-weight="400" fill="black">01. January</text>
  <text dominant-baseline="hanging" text-anchor="middle" transform="translate(363.6419,381.947)" font-family="Segoe UI" font-size="12" font-weight="400" fill="black">01. February</text>
  <text dominant-baseline="hanging" text-anchor="middle" transform="translate(419.2421,381.947)" font-family="Segoe UI" font-size="12" font-weight="400" fill="black">01. March</text>
  <text dominant-baseline="hanging" text-anchor="middle" transform="translate(480.7995,381.947)" font-family="Segoe UI" font-size="12" font-weight="400" fill="black">01. April</text>
  <text dominant-baseline="hanging" text-anchor="middle" transform="translate(540.3712,381.947)" font-family="Segoe UI" font-size="12" font-weight="400" fill="black">01. May</text>
  <polyline points="59.8264,370.947 59.8264,377.947" style="fill:none;stroke:black;stroke-width:1" />
  <polyline points="119.3981,370.947 119.3981,377.947" style="fill:none;stroke:black;stroke-width:1" />
  <polyline points="180.9555,370.947 180.9555,377.947" style="fill:none;stroke:black;stroke-width:1" />
  <polyline points="240.5271,370.947 240.5271,377.947" style="fill:none;stroke:black;stroke-width:1" />
  <polyline points="302.0845,370.947 302.0845,377.947" style="fill:none;stroke:black;stroke-width:1" />
  <polyline points="363.6419,370.947 363.6419,377.947" style="fill:none;stroke:black;stroke-width:1" />
  <polyline points="419.2421,370.947 419.2421,377.947" style="fill:none;stroke:black;stroke-width:1" />
  <polyline points="480.7995,370.947 480.7995,377.947" style="fill:none;stroke:black;stroke-width:1" />
  <polyline points="540.3712,370.947 540.3712,377.947" style="fill:none;stroke:black;stroke-width:1" />
  <polyline points="34.012,356.8142 35.9977,356.3899 37.9834,362.471 43.9406,358.5112 45.9263,362.471 47.9121,363.0367 49.8978,363.6024 51.8835,362.471 57.8407,366.9965 59.8264,365.2994 61.8121,365.8651 63.7978,365.2994 65.7836,365.2994 71.7407,365.8651 73.7264,367.5622 75.7122,365.8651 77.6979,365.2994 79.6836,363.0367 85.6408,356.8142 87.6265,352.2887 89.6122,347.1975 91.598,346.6319 93.5837,342.1064 99.5408,347.7632 101.5266,348.3289 103.5123,352.2887 105.498,350.5916 107.4837,351.723 113.4409,335.8838 115.4266,336.4495 117.4123,335.3182 119.3981,325.1358 121.3838,319.479 127.341,312.6908 129.3267,313.8222 131.3124,305.9026 133.2981,304.7528 135.2838,307.6498 141.241,292.5852 143.2267,290.847 145.2125,285.6323 147.1982,275.2029 149.1839,253.1854 155.1411,230.5885 157.1268,225.9532 159.1125,221.8974 161.0982,202.7769 163.084,202.1975 169.0411,137.3037 171.0268,132.0891 173.0126,129.192 174.9983,131.5096 176.984,98.4834 182.9412,118.1833 184.9269,107.7539 186.9126,108.9127 188.8983,101.3804 190.8841,119.3421 196.8412,90.9511 198.827,84.5776 200.8127,58.5042 204.7841,32.4308 210.7413,61.4012 212.727,75.8864 214.7127,84.5776 216.6985,65.3847 218.6842,120.5009 224.6414,167.433 226.6271,150.6301 228.6128,153.5272 230.5985,208.571 232.5842,185.974 238.5414,188.8711 240.5271,213.7856 242.5129,225.9532 244.4986,198.1416 246.4843,202.1975 252.4415,179.0211 254.4272,181.3388 256.4129,179.6005 258.3986,151.2095 260.3844,173.2271 266.3415,154.1066 268.3272,144.2566 270.313,132.6685 272.2987,145.4155 274.2844,134.4067 280.2416,116.445 282.2273,117.0244 284.213,140.7802 294.1416,157.0036 296.1274,154.686 298.1131,134.4067 300.0988,136.3622 308.0417,211.468 310.0274,235.2238 312.0131,250.8678 313.9989,236.962 315.9846,215.9584 323.9275,192.9269 325.9132,195.2446 327.8989,217.2621 329.8846,247.3913 335.8418,255.9086 337.8275,275.7823 339.8133,267.0912 341.799,285.0529 343.7847,285.6323 349.7419,272.3059 353.7133,279.8382 355.699,259.5589 357.6848,247.9707 363.6419,264.1942 365.6276,278.3173 367.6134,272.3059 369.5991,279.8382 371.5848,290.847 377.542,293.744 379.5277,290.847 381.5134,275.2029 383.4991,276.3617 385.4849,269.4088 391.442,283.8941 393.4278,285.6323 395.4135,306.491 397.3992,313.4439 399.3849,329.6673 405.3421,329.6673 407.3278,330.8261 409.3135,321.5556 411.2993,322.135 413.285,317.4997 419.2421,329.0879 421.2279,327.9291 423.2136,323.8732 425.1993,300.6969 427.185,294.9028 433.1422,265.353 435.1279,265.353 437.1137,263.6148 439.0994,278.6794 441.0851,272.3059 447.0423,261.8765 449.028,262.4559 451.0137,254.9236 452.9994,226.5326 454.9852,208.571 460.9423,200.4592 462.928,199.8798 464.9138,204.5151 466.8995,192.9269 468.8852,205.6739 474.8424,224.215 476.8281,220.7385 478.8138,227.6914 480.7995,243.9149 482.7853,218.4209 490.7282,205.0945 492.7139,220.1591 494.6996,201.6181 496.6853,235.2238 502.6425,225.8953 504.6282,216.1033 506.6139,168.0124 508.5997,188.8711 510.5854,184.8152 516.5425,176.1241 518.5283,157.0036 520.514,162.2183 522.4997,148.3125 524.4854,123.9773 530.4426,104.8569 532.4283,121.0803 534.414,135.5655 536.3998,129.7714 538.3855,132.6685 544.3427,158.7418 546.3284,146.5743 548.3141,140.2008 550.2998,173.8065 552.2856,194.0858 558.2427,203.9357 560.2284,213.2062 562.2142,225.9532 566.1856,193.5063 572.1428,196.4034 574.1285,181.9182 576.1142,176.1241 578.0999,180.4697 580.0857,216.1033 588.0286,264.1942 590.0143,289.1087 592,298.9587" style="fill:none;stroke:rgb(31,119,180);stroke-width:2;stroke-linejoin:bevel" />
  <text dominant-baseline="hanging" text-anchor="middle" transform="translate(313.006,8)" font-family="Segoe UI" font-size="18" font-weight="700" fill="black">7-Tage-Inzidenz Stadt Aachen 27.05.2021</text>
  <polygon points="34.012,29.0795 592,29.0795 592,370.947 34.012,370.947" style="fill:none;stroke:black;stroke-width:1" />
  <polygon points="42.012,37.0795 247.014,37.0795 247.014,63.1325 42.012,63.1325" style="fill:none;stroke:none;" />
  <text dominant-baseline="hanging" text-anchor="start" transform="translate(70.012,45.0795)" font-family="Segoe UI" font-size="12" font-weight="400" fill="black">7-Tage-Inzidenz Stadt Aachen 27.05.2021</text>
  <polyline points="50.012,50.106 66.012,50.106" style="fill:none;stroke:rgb(31,119,180);stroke-width:2" />
</svg>