<?xml version="1.0" encoding="utf-8" standalone="no"?>
<!DOCTYPE svg PUBLIC "-//W3C//DTD SVG 1.1//EN" "http://www.w3.org/Graphics/SVG/1.1/DTD/svg11.dtd">
<svg width="600" height="400" version="1.1" xmlns:xlink="http://www.w3.org/1999/xlink" xmlns="http://www.w3.org/2000/svg">
  <rect x="0" y="0" width="600" height="400" style="fill:rgb(255,255,255);stroke:none;" />
  <polyline points="34.012,362.7539 30.012,362.7539" style="fill:none;stroke:black;stroke-width:1" />
  <polyline points="34.012,348.3289 30.012,348.3289" style="fill:none;stroke:black;stroke-width:1" />
  <polyline points="34.012,333.904 30.012,333.904" style="fill:none;stroke:black;stroke-width:1" />
  <polyline points="34.012,319.479 30.012,319.479" style="fill:none;stroke:black;stroke-width:1" />
  <polyline points="34.012,290.6291 30.012,290.6291" style="fill:none;stroke:black;stroke-width:1" />
  <polyline points="34.012,276.2041 30.012,276.2041" style="fill:none;stroke:black;stroke-width:1" />
  <polyline points="34.012,261.7792 30.012,261.7792" style="fill:none;stroke:black;stroke-width:1" />
  <polyline points="34.012,247.3542 30.012,247.3542" style="fill:none;stroke:black;stroke-width:1" />
  <polyline points="34.012,218.5043 30.012,218.5043" style="fill:none;stroke:black;stroke-width:1" />
  <polyline points="34.012,204.0794 30.012,204.0794" style="fill:none;stroke:black;stroke-width:1" />
  <polyline points="34.012,189.6544 30.012,189.6544" style="fill:none;stroke:black;stroke-width:1" />
  <polyline points="34.012,175.2295 30.012,175.2295" style="fill:none;stroke:black;stroke-width:1" />
  <polyline points="34.012,146.3796 30.012,146.3796" style="fill:none;stroke:black;stroke-width:1" />
  <polyline points="34.012,131.9546 30.012,131.9546" style="fill:none;stroke:black;stroke-width:1" />
  <polyline points="34.012,117.5297 30.012,117.5297" style="fill:none;stroke:black;stroke-width:1" />
  <polyline points="34.012,103.1047 30.012,103.1047" style="fill:none;stroke:black;stroke-width:1" />
  <polyline points="34.012,74.2548 30.012,74.2548" style="fill:none;stroke:black;stroke-width:1" />
  <polyline points="34.012,59.8299 30.012,59.8299" style="fill:none;stroke:black;stroke-width:1" />
  <polyline points="34.012,45.4049 30.012,45.4049" style="fill:none;stroke:black;stroke-width:1" />
  <polyline points="34.012,30.98 30.012,30.98" style="fill:none;stroke:black;stroke-width:1" />
  <polyline points="59.3751,370.947 59.3751,374.947" style="fill:none;stroke:black;stroke-width:1" />
  <polyline points="178.3865,370.947 178.3865,374.947" style="fill:none;stroke:black;stroke-width:1" />
  <polyline points="297.3979,370.947 297.3979,374.947" style="fill:none;stroke:black;stroke-width:1" />
  <polyline points="412.5074,370.947 412.5074,374.947" style="fill:none;stroke:black;stroke-width:1" />
  <polyline points="531.5188,370.947 531.5188,374.947" style="fill:none;stroke:black;stroke-width:1" />
  <text dominant-baseline="middle" text-anchor="end" transform="translate(23.012,305.0541)" font-family="Segoe UI" font-size="12" font-weight="400" fill="black">50</text>
  <text dominant-baseline="middle" text-anchor="end" transform="translate(23.012,232.9293)" font-family="Segoe UI" font-size="12" font-weight="400" fill="black">100</text>
  <text dominant-baseline="middle" text-anchor="end" transform="translate(23.012,160.8045)" font-family="Segoe UI" font-size="12" font-weight="400" fill="black">150</text>
  <text dominant-baseline="middle" text-anchor="end" transform="translate(23.012,88.6798)" font-family="Segoe UI" font-size="12" font-weight="400" fill="black">200</text>
  <polyline points="34.012,305.0541 27.012,305.0541" style="fill:none;stroke:black;stroke-width:1" />
  <polyline points="34.012,232.9293 27.012,232.9293" style="fill:none;stroke:black;stroke-width:1" />
  <polyline points="34.012,160.8045 27.012,160.8045" style="fill:none;stroke:black;stroke-width:1" />
  <polyline points="34.012,88.6798 27.012,88.6798" style="fill:none;stroke:black;stroke-width:1" />
  <text dominant-baseline="hanging" text-anchor="middle" transform="translate(117.9053,381.947)" font-family="Segoe UI" font-size="12" font-weight="400" fill="black">01. October</text>
  <text dominant-baseline="hanging" text-anchor="middle" transform="translate(236.9167,381.947)" font-family="Segoe UI" font-size="12" font-weight="400" fill="black">01. December</text>
  <text dominant-baseline="hanging" text-anchor="middle" transform="translate(357.8792,381.947)" font-family="Segoe UI" font-size="12" font-weight="400" fill="black">01. February</text>
  <text dominant-baseline="hanging" text-anchor="middle" transform="translate(472.9886,381.947)" font-family="Segoe UI" font-size="12" font-weight="400" fill="black">01. April</text>
  <text dominant-baseline="hanging" text-anchor="middle" transform="translate(592,381.947)" font-family="Segoe UI" font-size="12" font-weight="400" fill="black">01. June</text>
  <polyline points="117.9053,370.947 117.9053,377.947" style="fill:none;stroke:black;stroke-width:1" />
  <polyline points="236.9167,370.947 236.9167,377.947" style="fill:none;stroke:black;stroke-width:1" />
  <polyline points="357.8792,370.947 357.8792,377.947" style="fill:none;stroke:black;stroke-width:1" />
  <polyline points="472.9886,370.947 472.9886,377.947" style="fill:none;stroke:black;stroke-width:1" />
  <polyline points="592,370.947 592,377.947" style="fill:none;stroke:black;stroke-width:1" />
  <polyline points="34.012,356.8142 35.963,356.3899 37.914,362.471 43.767,358.5112 45.718,362.471 47.669,363.0367 49.6201,363.6024 51.5711,362.471 57.4241,366.9965 59.3751,365.2994 61.3261,365.8651 63.2771,365.2994 65.2281,365.2994 71.0811,365.8651 73.0321,367.5622 74.9831,365.8651 76.9342,365.2994 78.8852,363.0367 84.7382,356.8142 86.6892,352.2887 88.6402,347.1975 90.5912,346.6319 92.5422,342.1064 98.3952,347.7632 100.3462,348.3289 102.2972,352.2887 104.2483,350.5916 106.1993,351.723 112.0523,335.8838 114.0033,336.4495 115.9543,335.3182 117.9053,325.1358 119.8563,319.479 125.7093,312.6908 127.6603,313.8222 129.6113,305.9026 131.5623,304.7528 133.5134,307.6498 139.3664,292.5852 141.3174,290.847 143.2684,285.6323 145.2194,275.2029 147.1704,253.1854 153.0234,230.5885 154.9744,225.9532 156.9254,221.8974 158.8764,202.7769 160.8275,202.1975 166.6805,137.3037 168.6315,132.0891 170.5825,129.192 172.5335,131.5096 174.4845,98.4834 180.3375,118.1833 182.2885,107.7539 184.2395,108.9127 186.1905,101.3804 188.1416,119.3421 193.9946,90.9511 195.9456,84.5776 197.8966,58.5042 201.7986,32.4308 207.6516,61.4012 209.6026,75.8864 211.5536,84.5776 213.5046,65.3847 215.4557,120.5009 221.3087,167.433 223.2597,150.6301 225.2107,153.5272 227.1617,208.571 229.1127,185.974 234.9657,188.8711 236.9167,213.7856 238.8677,225.9532 240.8187,198.1416 242.7697,202.1975 248.6228,179.0211 250.5738,181.3388 252.5248,179.6005 254.4758,151.2095 256.4268,173.2271 262.2798,154.1066 264.2308,144.2566 266.1818,132.6685 268.1328,145.4155 270.0838,134.4067 275.9369,116.445 277.8879,117.0244 279.8389,140.7802 289.5939,157.0036 291.5449,154.686 293.4959,134.4067 295.4469,136.3622 303.251,211.468 305.202,235.2238 307.153,250.8678 309.104,236.962 311.055,215.9584 318.859,192.9269 320.81,195.2446 322.761,217.2621 324.712,247.3913 330.5651,255.9086 332.5161,275.7823 334.4671,267.0912 336.4181,285.0529 338.3691,285.6323 344.2221,272.3059 348.1241,279.8382 350.0751,259.5589 352.0261,247.9707 357.8792,264.1942 359.8302,278.3173 361.7812,272.3059 363.7322,279.8382 365.6832,290.847 371.5362,293.744 373.4872,290.847 375.4382,275.2029 377.3892,276.3617 379.3402,269.4088 385.1933,283.8941 387.1443,285.6323 389.0953,306.491 391.0463,313.4439 392.9973,329.6673 398.8503,329.6673 400.8013,330.8261 402.7523,321.5556 404.7033,322.135 406.6543,317.4997 412.5074,329.0879 414.4584,327.9291 416.4094,323.8732 418.3604,300.6969 420.3114,294.9028 426.1644,265.353 428.1154,265.353 430.0664,263.6148 432.0174,278.6794 433.9684,272.3059 439.8215,261.8765 441.7725,262.4559 443.7235,254.9236 445.6745,226.5326 447.6255,208.571 453.4785,200.4592 455.4295,199.8798 457.3805,204.5151 459.3315,192.9269 461.2825,205.6739 467.1356,224.215 469.0866,220.7385 471.0376,227.6914 472.9886,243.9149 474.9396,218.4209 482.7436,205.0945 484.6946,220.1591 486.6456,201.6181 488.5966,235.2238 494.4497,225.8953 496.4007,216.1033 498.3517,168.0124 500.3027,188.8711 502.2537,184.8152 508.1067,176.1241 510.0577,157.0036 512.0087,162.2183 513.9597,148.3125 515.9107,123.9773 521.7637,104.8569 523.7148,121.0803 525.6658,135.5655 527.6168,129.7714 529.5678,132.6685 535.4208,158.7418 537.3718,146.5743 539.3228,140.2008 541.2738,173.8065 543.2248,194.0858 549.0778,203.9357 551.0289,213.2062 552.9799,225.9532 556.8819,193.5063 562.7349,196.4034 564.6859,181.9182 566.6369,176.1241 568.5879,180.4697 570.5389,216.1033 578.343,264.1942 580.294,289.1087 582.245,298.9587 584.196,302.4351 590.049,310.2571 592,315.1821" style="fill:none;stroke:rgb(31,119,180);stroke-width:2;stroke-linejoin:bevel" />
  <text dominant-baseline="hanging" text-anchor="middle" transform="translate(313.006,8)" font-family="Segoe UI" font-size="18" font-weight="700" fill="black">7-Tage-Inzidenz Stadt Aachen 01.06.2021</text>
  <polygon points="34.012,29.0795 592,29.0795 592,370.947 34.012,370.947" style="fill:none;stroke:black;stroke-width:1" />
  <polygon points="42.012,37.0795 247.014,37.0795 247.014,63.1325 42.012,63.1325" style="fill:none;stroke:none;" />
  <text dominant-baseline="hanging" text-anchor="start" transform="translate(70.012,45.0795)" font-family="Segoe UI" font-size="12" font-weight="400" fill="black">7-Tage-Inzidenz Stadt Aachen 01.06.2021</text>
  <polyline points="50.012,50.106 66.012,50.106" style="fill:none;stroke:rgb(31,119,180);stroke-width:2" />
</svg>