<?xml version="1.0" encoding="utf-8" standalone="no"?>
<!DOCTYPE svg PUBLIC "-//W3C//DTD SVG 1.1//EN" "http://www.w3.org/Graphics/SVG/1.1/DTD/svg11.dtd">
<svg width="600" height="400" version="1.1" xmlns:xlink="http://www.w3.org/1999/xlink" xmlns="http://www.w3.org/2000/svg">
  <rect x="0" y="0" width="600" height="400" style="fill:rgb(255,255,255);stroke:none;" />
  <polyline points="34.012,362.7539 30.012,362.7539" style="fill:none;stroke:black;stroke-width:1" />
  <polyline points="34.012,348.3289 30.012,348.3289" style="fill:none;stroke:black;stroke-width:1" />
  <polyline points="34.012,333.904 30.012,333.904" style="fill:none;stroke:black;stroke-width:1" />
  <polyline points="34.012,319.479 30.012,319.479" style="fill:none;stroke:black;stroke-width:1" />
  <polyline points="34.012,290.6291 30.012,290.6291" style="fill:none;stroke:black;stroke-width:1" />
  <polyline points="34.012,276.2041 30.012,276.2041" style="fill:none;stroke:black;stroke-width:1" />
  <polyline points="34.012,261.7792 30.012,261.7792" style="fill:none;stroke:black;stroke-width:1" />
  <polyline points="34.012,247.3542 30.012,247.3542" style="fill:none;stroke:black;stroke-width:1" />
  <polyline points="34.012,218.5043 30.012,218.5043" style="fill:none;stroke:black;stroke-width:1" />
  <polyline points="34.012,204.0794 30.012,204.0794" style="fill:none;stroke:black;stroke-width:1" />
  <polyline points="34.012,189.6544 30.012,189.6544" style="fill:none;stroke:black;stroke-width:1" />
  <polyline points="34.012,175.2295 30.012,175.2295" style="fill:none;stroke:black;stroke-width:1" />
  <polyline points="34.012,146.3796 30.012,146.3796" style="fill:none;stroke:black;stroke-width:1" />
  <polyline points="34.012,131.9546 30.012,131.9546" style="fill:none;stroke:black;stroke-width:1" />
  <polyline points="34.012,117.5297 30.012,117.5297" style="fill:none;stroke:black;stroke-width:1" />
  <polyline points="34.012,103.1047 30.012,103.1047" style="fill:none;stroke:black;stroke-width:1" />
  <polyline points="34.012,74.2548 30.012,74.2548" style="fill:none;stroke:black;stroke-width:1" />
  <polyline points="34.012,59.8299 30.012,59.8299" style="fill:none;stroke:black;stroke-width:1" />
  <polyline points="34.012,45.4049 30.012,45.4049" style="fill:none;stroke:black;stroke-width:1" />
  <polyline points="34.012,30.98 30.012,30.98" style="fill:none;stroke:black;stroke-width:1" />
  <polyline points="59.1118,370.947 59.1118,374.947" style="fill:none;stroke:black;stroke-width:1" />
  <polyline points="176.8878,370.947 176.8878,374.947" style="fill:none;stroke:black;stroke-width:1" />
  <polyline points="294.6638,370.947 294.6638,374.947" style="fill:none;stroke:black;stroke-width:1" />
  <polyline points="408.5783,370.947 408.5783,374.947" style="fill:none;stroke:black;stroke-width:1" />
  <polyline points="526.3544,370.947 526.3544,374.947" style="fill:none;stroke:black;stroke-width:1" />
  <text dominant-baseline="middle" text-anchor="end" transform="translate(23.012,305.0541)" font-family="Segoe UI" font-size="12" font-weight="400" fill="black">50</text>
  <text dominant-baseline="middle" text-anchor="end" transform="translate(23.012,232.9293)" font-family="Segoe UI" font-size="12" font-weight="400" fill="black">100</text>
  <text dominant-baseline="middle" text-anchor="end" transform="translate(23.012,160.8045)" font-family="Segoe UI" font-size="12" font-weight="400" fill="black">150</text>
  <text dominant-baseline="middle" text-anchor="end" transform="translate(23.012,88.6798)" font-family="Segoe UI" font-size="12" font-weight="400" fill="black">200</text>
  <polyline points="34.012,305.0541 27.012,305.0541" style="fill:none;stroke:black;stroke-width:1" />
  <polyline points="34.012,232.9293 27.012,232.9293" style="fill:none;stroke:black;stroke-width:1" />
  <polyline points="34.012,160.8045 27.012,160.8045" style="fill:none;stroke:black;stroke-width:1" />
  <polyline points="34.012,88.6798 27.012,88.6798" style="fill:none;stroke:black;stroke-width:1" />
  <text dominant-baseline="hanging" text-anchor="middle" transform="translate(117.0344,381.947)" font-family="Segoe UI" font-size="12" font-weight="400" fill="black">01. October</text>
  <text dominant-baseline="hanging" text-anchor="middle" transform="translate(234.8104,381.947)" font-family="Segoe UI" font-size="12" font-weight="400" fill="black">01. December</text>
  <text dominant-baseline="hanging" text-anchor="middle" transform="translate(354.5172,381.947)" font-family="Segoe UI" font-size="12" font-weight="400" fill="black">01. February</text>
  <text dominant-baseline="hanging" text-anchor="middle" transform="translate(468.4317,381.947)" font-family="Segoe UI" font-size="12" font-weight="400" fill="black">01. April</text>
  <text dominant-baseline="hanging" text-anchor="middle" transform="translate(586.2077,381.947)" font-family="Segoe UI" font-size="12" font-weight="400" fill="black">01. June</text>
  <polyline points="117.0344,370.947 117.0344,377.947" style="fill:none;stroke:black;stroke-width:1" />
  <polyline points="234.8104,370.947 234.8104,377.947" style="fill:none;stroke:black;stroke-width:1" />
  <polyline points="354.5172,370.947 354.5172,377.947" style="fill:none;stroke:black;stroke-width:1" />
  <polyline points="468.4317,370.947 468.4317,377.947" style="fill:none;stroke:black;stroke-width:1" />
  <polyline points="586.2077,370.947 586.2077,377.947" style="fill:none;stroke:black;stroke-width:1" />
  <polyline points="34.012,356.8142 35.9428,356.3899 37.8735,362.471 43.6658,358.5112 45.5965,362.471 47.5273,363.0367 49.458,363.6024 51.3888,362.471 57.1811,366.9965 59.1118,365.2994 61.0426,365.8651 62.9733,365.2994 64.9041,365.2994 70.6963,365.8651 72.6271,367.5622 74.5578,365.8651 76.4886,365.2994 78.4193,363.0367 84.2116,356.8142 86.1424,352.2887 88.0731,347.1975 90.0039,346.6319 91.9346,342.1064 97.7269,347.7632 99.6576,348.3289 101.5884,352.2887 103.5192,350.5916 105.4499,351.723 111.2422,335.8838 113.1729,336.4495 115.1037,335.3182 117.0344,325.1358 118.9652,319.479 124.7575,312.6908 126.6882,313.8222 128.619,305.9026 130.5497,304.7528 132.4805,307.6498 138.2727,292.5852 140.2035,290.847 142.1342,285.6323 144.065,275.2029 145.9958,253.1854 151.788,230.5885 153.7188,225.9532 155.6495,221.8974 157.5803,202.7769 159.511,202.1975 165.3033,137.3037 167.234,132.0891 169.1648,129.192 171.0956,131.5096 173.0263,98.4834 178.8186,118.1833 180.7493,107.7539 182.6801,108.9127 184.6108,101.3804 186.5416,119.3421 192.3339,90.9511 194.2646,84.5776 196.1954,58.5042 200.0569,32.4308 205.8491,61.4012 207.7799,75.8864 209.7106,84.5776 211.6414,65.3847 213.5722,120.5009 219.3644,167.433 221.2952,150.6301 223.2259,153.5272 225.1567,208.571 227.0874,185.974 232.8797,188.8711 234.8104,213.7856 236.7412,225.9532 238.672,198.1416 240.6027,202.1975 246.395,179.0211 248.3257,181.3388 250.2565,179.6005 252.1872,151.2095 254.118,173.2271 259.9103,154.1066 261.841,144.2566 263.7718,132.6685 265.7025,145.4155 267.6333,134.4067 273.4255,116.445 275.3563,117.0244 277.287,140.7802 286.9408,157.0036 288.8716,154.686 290.8023,134.4067 292.7331,136.3622 300.4561,211.468 302.3869,235.2238 304.3176,250.8678 306.2484,236.962 308.1791,215.9584 315.9021,192.9269 317.8329,195.2446 319.7636,217.2621 321.6944,247.3913 327.4867,255.9086 329.4174,275.7823 331.3482,267.0912 333.2789,285.0529 335.2097,285.6323 341.0019,272.3059 344.8634,279.8382 346.7942,259.5589 348.725,247.9707 354.5172,264.1942 356.448,278.3173 358.3787,272.3059 360.3095,279.8382 362.2402,290.847 368.0325,293.744 369.9633,290.847 371.894,275.2029 373.8248,276.3617 375.7555,269.4088 381.5478,283.8941 383.4785,285.6323 385.4093,306.491 387.34,313.4439 389.2708,329.6673 395.0631,329.6673 396.9938,330.8261 398.9246,321.5556 400.8553,322.135 402.7861,317.4997 408.5783,329.0879 410.5091,327.9291 412.4398,323.8732 414.3706,300.6969 416.3014,294.9028 422.0936,265.353 424.0244,265.353 425.9551,263.6148 427.8859,278.6794 429.8166,272.3059 435.6089,261.8765 437.5397,262.4559 439.4704,254.9236 441.4012,226.5326 443.3319,208.571 449.1242,200.4592 451.0549,199.8798 452.9857,204.5151 454.9164,192.9269 456.8472,205.6739 462.6395,224.215 464.5702,220.7385 466.501,227.6914 468.4317,243.9149 470.3625,218.4209 478.0855,205.0945 480.0162,220.1591 481.947,201.6181 483.8778,235.2238 489.67,225.8953 491.6008,216.1033 493.5315,168.0124 495.4623,188.8711 497.393,184.8152 503.1853,176.1241 505.1161,157.0036 507.0468,162.2183 508.9776,148.3125 510.9083,123.9773 516.7006,104.8569 518.6313,121.0803 520.5621,135.5655 522.4928,129.7714 524.4236,132.6685 530.2159,158.7418 532.1466,146.5743 534.0774,140.2008 536.0081,173.8065 537.9389,194.0858 543.7311,203.9357 545.6619,213.2062 547.5927,225.9532 551.4542,193.5063 557.2464,196.4034 559.1772,181.9182 561.1079,176.1241 563.0387,180.4697 564.9694,216.1033 572.6925,264.1942 574.6232,289.1087 576.554,298.9587 578.4847,302.4351 584.277,310.2571 586.2077,315.1821 588.1385,314.0233 592,334.882" style="fill:none;stroke:rgb(31,119,180);stroke-width:2;stroke-linejoin:bevel" />
  <text dominant-baseline="hanging" text-anchor="middle" transform="translate(313.006,8)" font-family="Segoe UI" font-size="18" font-weight="700" fill="black">7-Tage-Inzidenz Stadt Aachen 04.06.2021</text>
  <polygon points="34.012,29.0795 592,29.0795 592,370.947 34.012,370.947" style="fill:none;stroke:black;stroke-width:1" />
  <polygon points="42.012,37.0795 247.014,37.0795 247.014,63.1325 42.012,63.1325" style="fill:none;stroke:none;" />
  <text dominant-baseline="hanging" text-anchor="start" transform="translate(70.012,45.0795)" font-family="Segoe UI" font-size="12" font-weight="400" fill="black">7-Tage-Inzidenz Stadt Aachen 04.06.2021</text>
  <polyline points="50.012,50.106 66.012,50.106" style="fill:none;stroke:rgb(31,119,180);stroke-width:2" />
</svg>