<?xml version="1.0" encoding="utf-8" standalone="no"?>
<!DOCTYPE svg PUBLIC "-//W3C//DTD SVG 1.1//EN" "http://www.w3.org/Graphics/SVG/1.1/DTD/svg11.dtd">
<svg width="600" height="400" version="1.1" xmlns:xlink="http://www.w3.org/1999/xlink" xmlns="http://www.w3.org/2000/svg">
  <rect x="0" y="0" width="600" height="400" style="fill:rgb(255,255,255);stroke:none;" />
  <polyline points="34.012,362.7539 30.012,362.7539" style="fill:none;stroke:black;stroke-width:1" />
  <polyline points="34.012,348.3289 30.012,348.3289" style="fill:none;stroke:black;stroke-width:1" />
  <polyline points="34.012,333.904 30.012,333.904" style="fill:none;stroke:black;stroke-width:1" />
  <polyline points="34.012,319.479 30.012,319.479" style="fill:none;stroke:black;stroke-width:1" />
  <polyline points="34.012,290.6291 30.012,290.6291" style="fill:none;stroke:black;stroke-width:1" />
  <polyline points="34.012,276.2041 30.012,276.2041" style="fill:none;stroke:black;stroke-width:1" />
  <polyline points="34.012,261.7792 30.012,261.7792" style="fill:none;stroke:black;stroke-width:1" />
  <polyline points="34.012,247.3542 30.012,247.3542" style="fill:none;stroke:black;stroke-width:1" />
  <polyline points="34.012,218.5043 30.012,218.5043" style="fill:none;stroke:black;stroke-width:1" />
  <polyline points="34.012,204.0794 30.012,204.0794" style="fill:none;stroke:black;stroke-width:1" />
  <polyline points="34.012,189.6544 30.012,189.6544" style="fill:none;stroke:black;stroke-width:1" />
  <polyline points="34.012,175.2295 30.012,175.2295" style="fill:none;stroke:black;stroke-width:1" />
  <polyline points="34.012,146.3796 30.012,146.3796" style="fill:none;stroke:black;stroke-width:1" />
  <polyline points="34.012,131.9546 30.012,131.9546" style="fill:none;stroke:black;stroke-width:1" />
  <polyline points="34.012,117.5297 30.012,117.5297" style="fill:none;stroke:black;stroke-width:1" />
  <polyline points="34.012,103.1047 30.012,103.1047" style="fill:none;stroke:black;stroke-width:1" />
  <polyline points="34.012,74.2548 30.012,74.2548" style="fill:none;stroke:black;stroke-width:1" />
  <polyline points="34.012,59.8299 30.012,59.8299" style="fill:none;stroke:black;stroke-width:1" />
  <polyline points="34.012,45.4049 30.012,45.4049" style="fill:none;stroke:black;stroke-width:1" />
  <polyline points="34.012,30.98 30.012,30.98" style="fill:none;stroke:black;stroke-width:1" />
  <text dominant-baseline="middle" text-anchor="end" transform="translate(23.012,305.0541)" font-family="Segoe UI" font-size="12" font-weight="400" fill="black">50</text>
  <text dominant-baseline="middle" text-anchor="end" transform="translate(23.012,232.9293)" font-family="Segoe UI" font-size="12" font-weight="400" fill="black">100</text>
  <text dominant-baseline="middle" text-anchor="end" transform="translate(23.012,160.8045)" font-family="Segoe UI" font-size="12" font-weight="400" fill="black">150</text>
  <text dominant-baseline="middle" text-anchor="end" transform="translate(23.012,88.6798)" font-family="Segoe UI" font-size="12" font-weight="400" fill="black">200</text>
  <polyline points="34.012,305.0541 27.012,305.0541" style="fill:none;stroke:black;stroke-width:1" />
  <polyline points="34.012,232.9293 27.012,232.9293" style="fill:none;stroke:black;stroke-width:1" />
  <polyline points="34.012,160.8045 27.012,160.8045" style="fill:none;stroke:black;stroke-width:1" />
  <polyline points="34.012,88.6798 27.012,88.6798" style="fill:none;stroke:black;stroke-width:1" />
  <text dominant-baseline="hanging" text-anchor="middle" transform="translate(65.1444,381.947)" font-family="Segoe UI" font-size="12" font-weight="400" fill="black">01. September</text>
  <text dominant-baseline="hanging" text-anchor="middle" transform="translate(136.9883,381.947)" font-family="Segoe UI" font-size="12" font-weight="400" fill="black">01. October</text>
  <text dominant-baseline="hanging" text-anchor="middle" transform="translate(211.2271,381.947)" font-family="Segoe UI" font-size="12" font-weight="400" fill="black">01. November</text>
  <text dominant-baseline="hanging" text-anchor="middle" transform="translate(283.071,381.947)" font-family="Segoe UI" font-size="12" font-weight="400" fill="black">01. December</text>
  <text dominant-baseline="hanging" text-anchor="middle" transform="translate(357.3098,381.947)" font-family="Segoe UI" font-size="12" font-weight="400" fill="black">01. January</text>
  <text dominant-baseline="hanging" text-anchor="middle" transform="translate(431.5485,381.947)" font-family="Segoe UI" font-size="12" font-weight="400" fill="black">01. February</text>
  <text dominant-baseline="hanging" text-anchor="middle" transform="translate(498.6029,381.947)" font-family="Segoe UI" font-size="12" font-weight="400" fill="black">01. March</text>
  <text dominant-baseline="hanging" text-anchor="middle" transform="translate(572.8416,381.947)" font-family="Segoe UI" font-size="12" font-weight="400" fill="black">01. April</text>
  <polyline points="65.1444,370.947 65.1444,377.947" style="fill:none;stroke:black;stroke-width:1" />
  <polyline points="136.9883,370.947 136.9883,377.947" style="fill:none;stroke:black;stroke-width:1" />
  <polyline points="211.2271,370.947 211.2271,377.947" style="fill:none;stroke:black;stroke-width:1" />
  <polyline points="283.071,370.947 283.071,377.947" style="fill:none;stroke:black;stroke-width:1" />
  <polyline points="357.3098,370.947 357.3098,377.947" style="fill:none;stroke:black;stroke-width:1" />
  <polyline points="431.5485,370.947 431.5485,377.947" style="fill:none;stroke:black;stroke-width:1" />
  <polyline points="498.6029,370.947 498.6029,377.947" style="fill:none;stroke:black;stroke-width:1" />
  <polyline points="572.8416,370.947 572.8416,377.947" style="fill:none;stroke:black;stroke-width:1" />
  <polyline points="34.012,356.8142 36.4068,356.3899 38.8016,362.471 45.986,358.5112 48.3808,362.471 50.7756,363.0367 53.1704,363.6024 55.5652,362.471 62.7496,366.9965 65.1444,365.2994 67.5392,365.8651 69.934,365.2994 72.3288,365.2994 79.5132,365.8651 81.908,367.5622 84.3028,365.8651 86.6976,365.2994 89.0924,363.0367 96.2768,356.8142 98.6716,352.2887 101.0664,347.1975 103.4612,346.6319 105.8559,342.1064 113.0403,347.7632 115.4351,348.3289 117.8299,352.2887 120.2247,350.5916 122.6195,351.723 129.8039,335.8838 132.1987,336.4495 134.5935,335.3182 136.9883,325.1358 139.3831,319.479 146.5675,312.6908 148.9623,313.8222 151.3571,305.9026 153.7519,304.7528 156.1467,307.6498 163.3311,292.5852 165.7259,290.847 168.1207,285.6323 170.5155,275.2029 172.9103,253.1854 180.0947,230.5885 182.4895,225.9532 184.8843,221.8974 187.2791,202.7769 189.6739,202.1975 196.8583,137.3037 199.2531,132.0891 201.6479,129.192 204.0427,131.5096 206.4375,98.4834 213.6219,118.1833 216.0167,107.7539 218.4115,108.9127 220.8063,101.3804 223.2011,119.3421 230.3855,90.9511 232.7803,84.5776 235.1751,58.5042 239.9647,32.4308 247.149,61.4012 249.5438,75.8864 251.9386,84.5776 254.3334,65.3847 256.7282,120.5009 263.9126,167.433 266.3074,150.6301 268.7022,153.5272 271.097,208.571 273.4918,185.974 280.6762,188.8711 283.071,213.7856 285.4658,225.9532 287.8606,198.1416 290.2554,202.1975 297.4398,179.0211 299.8346,181.3388 302.2294,179.6005 304.6242,151.2095 307.019,173.2271 314.2034,154.1066 316.5982,144.2566 318.993,132.6685 321.3878,145.4155 323.7826,134.4067 330.967,116.445 333.3618,117.0244 335.7566,140.7802 347.7306,157.0036 350.1254,154.686 352.5202,134.4067 354.915,136.3622 364.4942,211.468 366.889,235.2238 369.2838,250.8678 371.6786,236.962 374.0734,215.9584 383.6525,192.9269 386.0473,195.2446 388.4421,217.2621 390.8369,247.3913 398.0213,255.9086 400.4161,275.7823 402.8109,267.0912 405.2057,285.0529 407.6005,285.6323 414.7849,272.3059 419.5745,279.8382 421.9693,259.5589 424.3641,247.9707 431.5485,264.1942 433.9433,278.3173 436.3381,272.3059 438.7329,279.8382 441.1277,290.847 448.3121,293.744 450.7069,290.847 453.1017,275.2029 455.4965,276.3617 457.8913,269.4088 465.0757,283.8941 467.4705,285.6323 469.8653,306.491 472.2601,313.4439 474.6549,329.6673 481.8393,329.6673 484.2341,330.8261 486.6289,321.5556 489.0237,322.135 491.4185,317.4997 498.6029,329.0879 500.9977,327.9291 503.3925,323.8732 505.7873,300.6969 508.1821,294.9028 515.3665,265.353 517.7613,265.353 520.1561,263.6148 522.5508,278.6794 524.9456,272.3059 532.13,261.8765 534.5248,262.4559 536.9196,254.9236 539.3144,226.5326 541.7092,208.571 548.8936,200.4592 551.2884,199.8798 553.6832,204.5151 556.078,192.9269 558.4728,205.6739 565.6572,224.215 568.052,220.7385 570.4468,227.6914 572.8416,243.9149 575.2364,218.4209 584.8156,205.0945 587.2104,220.1591 589.6052,201.6181 592,235.2238" style="fill:none;stroke:rgb(31,119,180);stroke-width:2;stroke-linejoin:bevel" />
  <text dominant-baseline="hanging" text-anchor="middle" transform="translate(313.006,8)" font-family="Segoe UI" font-size="18" font-weight="700" fill="black">7-Tage-Inzidenz Stadt Aachen 09.04.2021</text>
  <polygon points="34.012,29.0795 592,29.0795 592,370.947 34.012,370.947" style="fill:none;stroke:black;stroke-width:1" />
  <polygon points="42.012,37.0795 247.014,37.0795 247.014,63.1325 42.012,63.1325" style="fill:none;stroke:none;" />
  <text dominant-baseline="hanging" text-anchor="start" transform="translate(70.012,45.0795)" font-family="Segoe UI" font-size="12" font-weight="400" fill="black">7-Tage-Inzidenz Stadt Aachen 09.04.2021</text>
  <polyline points="50.012,50.106 66.012,50.106" style="fill:none;stroke:rgb(31,119,180);stroke-width:2" />
</svg>