<?xml version="1.0" encoding="utf-8" standalone="no"?>
<!DOCTYPE svg PUBLIC "-//W3C//DTD SVG 1.1//EN" "http://www.w3.org/Graphics/SVG/1.1/DTD/svg11.dtd">
<svg width="600" height="400" version="1.1" xmlns:xlink="http://www.w3.org/1999/xlink" xmlns="http://www.w3.org/2000/svg">
  <rect x="0" y="0" width="600" height="400" style="fill:rgb(255,255,255);stroke:none;" />
  <polyline points="34.012,362.7539 30.012,362.7539" style="fill:none;stroke:black;stroke-width:1" />
  <polyline points="34.012,348.3289 30.012,348.3289" style="fill:none;stroke:black;stroke-width:1" />
  <polyline points="34.012,333.904 30.012,333.904" style="fill:none;stroke:black;stroke-width:1" />
  <polyline points="34.012,319.479 30.012,319.479" style="fill:none;stroke:black;stroke-width:1" />
  <polyline points="34.012,290.6291 30.012,290.6291" style="fill:none;stroke:black;stroke-width:1" />
  <polyline points="34.012,276.2041 30.012,276.2041" style="fill:none;stroke:black;stroke-width:1" />
  <polyline points="34.012,261.7792 30.012,261.7792" style="fill:none;stroke:black;stroke-width:1" />
  <polyline points="34.012,247.3542 30.012,247.3542" style="fill:none;stroke:black;stroke-width:1" />
  <polyline points="34.012,218.5043 30.012,218.5043" style="fill:none;stroke:black;stroke-width:1" />
  <polyline points="34.012,204.0794 30.012,204.0794" style="fill:none;stroke:black;stroke-width:1" />
  <polyline points="34.012,189.6544 30.012,189.6544" style="fill:none;stroke:black;stroke-width:1" />
  <polyline points="34.012,175.2295 30.012,175.2295" style="fill:none;stroke:black;stroke-width:1" />
  <polyline points="34.012,146.3796 30.012,146.3796" style="fill:none;stroke:black;stroke-width:1" />
  <polyline points="34.012,131.9546 30.012,131.9546" style="fill:none;stroke:black;stroke-width:1" />
  <polyline points="34.012,117.5297 30.012,117.5297" style="fill:none;stroke:black;stroke-width:1" />
  <polyline points="34.012,103.1047 30.012,103.1047" style="fill:none;stroke:black;stroke-width:1" />
  <polyline points="34.012,74.2548 30.012,74.2548" style="fill:none;stroke:black;stroke-width:1" />
  <polyline points="34.012,59.8299 30.012,59.8299" style="fill:none;stroke:black;stroke-width:1" />
  <polyline points="34.012,45.4049 30.012,45.4049" style="fill:none;stroke:black;stroke-width:1" />
  <polyline points="34.012,30.98 30.012,30.98" style="fill:none;stroke:black;stroke-width:1" />
  <text dominant-baseline="middle" text-anchor="end" transform="translate(23.012,305.0541)" font-family="Segoe UI" font-size="12" font-weight="400" fill="black">50</text>
  <text dominant-baseline="middle" text-anchor="end" transform="translate(23.012,232.9293)" font-family="Segoe UI" font-size="12" font-weight="400" fill="black">100</text>
  <text dominant-baseline="middle" text-anchor="end" transform="translate(23.012,160.8045)" font-family="Segoe UI" font-size="12" font-weight="400" fill="black">150</text>
  <text dominant-baseline="middle" text-anchor="end" transform="translate(23.012,88.6798)" font-family="Segoe UI" font-size="12" font-weight="400" fill="black">200</text>
  <polyline points="34.012,305.0541 27.012,305.0541" style="fill:none;stroke:black;stroke-width:1" />
  <polyline points="34.012,232.9293 27.012,232.9293" style="fill:none;stroke:black;stroke-width:1" />
  <polyline points="34.012,160.8045 27.012,160.8045" style="fill:none;stroke:black;stroke-width:1" />
  <polyline points="34.012,88.6798 27.012,88.6798" style="fill:none;stroke:black;stroke-width:1" />
  <text dominant-baseline="hanging" text-anchor="middle" transform="translate(88.9654,381.947)" font-family="Segoe UI" font-size="12" font-weight="400" fill="black">01. September</text>
  <text dominant-baseline="hanging" text-anchor="middle" transform="translate(215.7808,381.947)" font-family="Segoe UI" font-size="12" font-weight="400" fill="black">01. October</text>
  <text dominant-baseline="hanging" text-anchor="middle" transform="translate(346.8235,381.947)" font-family="Segoe UI" font-size="12" font-weight="400" fill="black">01. November</text>
  <text dominant-baseline="hanging" text-anchor="middle" transform="translate(473.6389,381.947)" font-family="Segoe UI" font-size="12" font-weight="400" fill="black">01. December</text>
  <polyline points="88.9654,370.947 88.9654,377.947" style="fill:none;stroke:black;stroke-width:1" />
  <polyline points="215.7808,370.947 215.7808,377.947" style="fill:none;stroke:black;stroke-width:1" />
  <polyline points="346.8235,370.947 346.8235,377.947" style="fill:none;stroke:black;stroke-width:1" />
  <polyline points="473.6389,370.947 473.6389,377.947" style="fill:none;stroke:black;stroke-width:1" />
  <polyline points="34.012,356.8142 38.2392,356.3899 42.4664,362.471 55.1479,358.5112 59.3751,362.471 63.6023,363.0367 67.8295,363.6024 72.0566,362.471 84.7382,366.9965 88.9654,365.2994 93.1925,365.8651 97.4197,365.2994 101.6469,365.2994 114.3285,365.8651 118.5556,367.5622 122.7828,365.8651 127.01,365.2994 131.2372,363.0367 143.9187,356.8142 148.1459,352.2887 152.3731,347.1975 156.6003,346.6319 160.8275,342.1064 173.509,347.7632 177.7362,348.3289 181.9634,352.2887 186.1905,350.5916 190.4177,351.723 203.0993,335.8838 207.3265,336.4495 211.5536,335.3182 215.7808,325.1358 220.008,319.479 232.6895,312.6908 236.9167,313.8222 241.1439,305.9026 245.3711,304.7528 249.5983,307.6498 262.2798,292.5852 266.507,290.847 270.7342,285.6323 274.9614,275.2029 279.1885,253.1854 291.8701,230.5885 296.0973,225.9532 300.3245,221.8974 304.5516,202.7769 308.7788,202.1975 321.4604,137.3037 325.6875,132.0891 329.9147,129.192 334.1419,131.5096 338.3691,98.4834 351.0506,118.1833 355.2778,107.7539 359.505,108.9127 363.7322,101.3804 367.9594,119.3421 380.6409,90.9511 384.8681,84.5776 389.0953,58.5042 397.5496,32.4308 410.2312,61.4012 414.4584,75.8864 418.6855,84.5776 422.9127,65.3847 427.1399,120.5009 439.8215,167.433 444.0486,150.6301 448.2758,153.5272 452.503,208.571 456.7302,185.974 469.4117,188.8711 473.6389,213.7856 477.8661,225.9532 482.0933,198.1416 486.3205,202.1975 499.002,179.0211 503.2292,181.3388 507.4564,179.6005 511.6835,151.2095 515.9107,173.2271 528.5923,154.1066 532.8195,144.2566 537.0466,132.6685 541.2738,145.4155 545.501,134.4067 558.1825,116.445 562.4097,117.0244 566.6369,140.7802 587.7728,157.0036 592,154.686" style="fill:none;stroke:rgb(31,119,180);stroke-width:2;stroke-linejoin:bevel" />
  <text dominant-baseline="hanging" text-anchor="middle" transform="translate(313.006,8)" font-family="Segoe UI" font-size="18" font-weight="700" fill="black">7-Tage-Inzidenz Stadt Aachen 29.12.2020</text>
  <polygon points="34.012,29.0795 592,29.0795 592,370.947 34.012,370.947" style="fill:none;stroke:black;stroke-width:1" />
  <polygon points="42.012,37.0795 247.014,37.0795 247.014,63.1325 42.012,63.1325" style="fill:none;stroke:none;" />
  <text dominant-baseline="hanging" text-anchor="start" transform="translate(70.012,45.0795)" font-family="Segoe UI" font-size="12" font-weight="400" fill="black">7-Tage-Inzidenz Stadt Aachen 29.12.2020</text>
  <polyline points="50.012,50.106 66.012,50.106" style="fill:none;stroke:rgb(31,119,180);stroke-width:2" />
</svg>