<?xml version="1.0" encoding="utf-8" standalone="no"?>
<!DOCTYPE svg PUBLIC "-//W3C//DTD SVG 1.1//EN" "http://www.w3.org/Graphics/SVG/1.1/DTD/svg11.dtd">
<svg width="600" height="400" version="1.1" xmlns:xlink="http://www.w3.org/1999/xlink" xmlns="http://www.w3.org/2000/svg">
  <rect x="0" y="0" width="600" height="400" style="fill:rgb(255,255,255);stroke:none;" />
  <polyline points="34.012,362.7539 30.012,362.7539" style="fill:none;stroke:black;stroke-width:1" />
  <polyline points="34.012,348.3289 30.012,348.3289" style="fill:none;stroke:black;stroke-width:1" />
  <polyline points="34.012,333.904 30.012,333.904" style="fill:none;stroke:black;stroke-width:1" />
  <polyline points="34.012,319.479 30.012,319.479" style="fill:none;stroke:black;stroke-width:1" />
  <polyline points="34.012,290.6291 30.012,290.6291" style="fill:none;stroke:black;stroke-width:1" />
  <polyline points="34.012,276.2041 30.012,276.2041" style="fill:none;stroke:black;stroke-width:1" />
  <polyline points="34.012,261.7792 30.012,261.7792" style="fill:none;stroke:black;stroke-width:1" />
  <polyline points="34.012,247.3542 30.012,247.3542" style="fill:none;stroke:black;stroke-width:1" />
  <polyline points="34.012,218.5043 30.012,218.5043" style="fill:none;stroke:black;stroke-width:1" />
  <polyline points="34.012,204.0794 30.012,204.0794" style="fill:none;stroke:black;stroke-width:1" />
  <polyline points="34.012,189.6544 30.012,189.6544" style="fill:none;stroke:black;stroke-width:1" />
  <polyline points="34.012,175.2295 30.012,175.2295" style="fill:none;stroke:black;stroke-width:1" />
  <polyline points="34.012,146.3796 30.012,146.3796" style="fill:none;stroke:black;stroke-width:1" />
  <polyline points="34.012,131.9546 30.012,131.9546" style="fill:none;stroke:black;stroke-width:1" />
  <polyline points="34.012,117.5297 30.012,117.5297" style="fill:none;stroke:black;stroke-width:1" />
  <polyline points="34.012,103.1047 30.012,103.1047" style="fill:none;stroke:black;stroke-width:1" />
  <polyline points="34.012,74.2548 30.012,74.2548" style="fill:none;stroke:black;stroke-width:1" />
  <polyline points="34.012,59.8299 30.012,59.8299" style="fill:none;stroke:black;stroke-width:1" />
  <polyline points="34.012,45.4049 30.012,45.4049" style="fill:none;stroke:black;stroke-width:1" />
  <polyline points="34.012,30.98 30.012,30.98" style="fill:none;stroke:black;stroke-width:1" />
  <polyline points="59.2867,370.947 59.2867,374.947" style="fill:none;stroke:black;stroke-width:1" />
  <polyline points="177.8835,370.947 177.8835,374.947" style="fill:none;stroke:black;stroke-width:1" />
  <polyline points="296.4802,370.947 296.4802,374.947" style="fill:none;stroke:black;stroke-width:1" />
  <polyline points="411.1886,370.947 411.1886,374.947" style="fill:none;stroke:black;stroke-width:1" />
  <polyline points="529.7853,370.947 529.7853,374.947" style="fill:none;stroke:black;stroke-width:1" />
  <text dominant-baseline="middle" text-anchor="end" transform="translate(23.012,305.0541)" font-family="Segoe UI" font-size="12" font-weight="400" fill="black">50</text>
  <text dominant-baseline="middle" text-anchor="end" transform="translate(23.012,232.9293)" font-family="Segoe UI" font-size="12" font-weight="400" fill="black">100</text>
  <text dominant-baseline="middle" text-anchor="end" transform="translate(23.012,160.8045)" font-family="Segoe UI" font-size="12" font-weight="400" fill="black">150</text>
  <text dominant-baseline="middle" text-anchor="end" transform="translate(23.012,88.6798)" font-family="Segoe UI" font-size="12" font-weight="400" fill="black">200</text>
  <polyline points="34.012,305.0541 27.012,305.0541" style="fill:none;stroke:black;stroke-width:1" />
  <polyline points="34.012,232.9293 27.012,232.9293" style="fill:none;stroke:black;stroke-width:1" />
  <polyline points="34.012,160.8045 27.012,160.8045" style="fill:none;stroke:black;stroke-width:1" />
  <polyline points="34.012,88.6798 27.012,88.6798" style="fill:none;stroke:black;stroke-width:1" />
  <text dominant-baseline="hanging" text-anchor="middle" transform="translate(117.613,381.947)" font-family="Segoe UI" font-size="12" font-weight="400" fill="black">01. October</text>
  <text dominant-baseline="hanging" text-anchor="middle" transform="translate(236.2097,381.947)" font-family="Segoe UI" font-size="12" font-weight="400" fill="black">01. December</text>
  <text dominant-baseline="hanging" text-anchor="middle" transform="translate(356.7507,381.947)" font-family="Segoe UI" font-size="12" font-weight="400" fill="black">01. February</text>
  <text dominant-baseline="hanging" text-anchor="middle" transform="translate(471.459,381.947)" font-family="Segoe UI" font-size="12" font-weight="400" fill="black">01. April</text>
  <text dominant-baseline="hanging" text-anchor="middle" transform="translate(590.0558,381.947)" font-family="Segoe UI" font-size="12" font-weight="400" fill="black">01. June</text>
  <polyline points="117.613,370.947 117.613,377.947" style="fill:none;stroke:black;stroke-width:1" />
  <polyline points="236.2097,370.947 236.2097,377.947" style="fill:none;stroke:black;stroke-width:1" />
  <polyline points="356.7507,370.947 356.7507,377.947" style="fill:none;stroke:black;stroke-width:1" />
  <polyline points="471.459,370.947 471.459,377.947" style="fill:none;stroke:black;stroke-width:1" />
  <polyline points="590.0558,370.947 590.0558,377.947" style="fill:none;stroke:black;stroke-width:1" />
  <polyline points="34.012,356.8142 35.9562,356.3899 37.9004,362.471 43.733,358.5112 45.6773,362.471 47.6215,363.0367 49.5657,363.6024 51.5099,362.471 57.3425,366.9965 59.2867,365.2994 61.2309,365.8651 63.1751,365.2994 65.1193,365.2994 70.952,365.8651 72.8962,367.5622 74.8404,365.8651 76.7846,365.2994 78.7288,363.0367 84.5614,356.8142 86.5056,352.2887 88.4499,347.1975 90.3941,346.6319 92.3383,342.1064 98.1709,347.7632 100.1151,348.3289 102.0593,352.2887 104.0035,350.5916 105.9477,351.723 111.7804,335.8838 113.7246,336.4495 115.6688,335.3182 117.613,325.1358 119.5572,319.479 125.3898,312.6908 127.334,313.8222 129.2782,305.9026 131.2225,304.7528 133.1667,307.6498 138.9993,292.5852 140.9435,290.847 142.8877,285.6323 144.8319,275.2029 146.7761,253.1854 152.6088,230.5885 154.553,225.9532 156.4972,221.8974 158.4414,202.7769 160.3856,202.1975 166.2182,137.3037 168.1624,132.0891 170.1066,129.192 172.0508,131.5096 173.9951,98.4834 179.8277,118.1833 181.7719,107.7539 183.7161,108.9127 185.6603,101.3804 187.6045,119.3421 193.4371,90.9511 195.3814,84.5776 197.3256,58.5042 201.214,32.4308 207.0466,61.4012 208.9908,75.8864 210.935,84.5776 212.8792,65.3847 214.8234,120.5009 220.6561,167.433 222.6003,150.6301 224.5445,153.5272 226.4887,208.571 228.4329,185.974 234.2655,188.8711 236.2097,213.7856 238.154,225.9532 240.0982,198.1416 242.0424,202.1975 247.875,179.0211 249.8192,181.3388 251.7634,179.6005 253.7076,151.2095 255.6518,173.2271 261.4845,154.1066 263.4287,144.2566 265.3729,132.6685 267.3171,145.4155 269.2613,134.4067 275.0939,116.445 277.0381,117.0244 278.9823,140.7802 288.7034,157.0036 290.6476,154.686 292.5918,134.4067 294.536,136.3622 302.3129,211.468 304.2571,235.2238 306.2013,250.8678 308.1455,236.962 310.0897,215.9584 317.8665,192.9269 319.8107,195.2446 321.7549,217.2621 323.6991,247.3913 329.5318,255.9086 331.476,275.7823 333.4202,267.0912 335.3644,285.0529 337.3086,285.6323 343.1412,272.3059 347.0297,279.8382 348.9739,259.5589 350.9181,247.9707 356.7507,264.1942 358.6949,278.3173 360.6391,272.3059 362.5833,279.8382 364.5275,290.847 370.3602,293.744 372.3044,290.847 374.2486,275.2029 376.1928,276.3617 378.137,269.4088 383.9696,283.8941 385.9138,285.6323 387.858,306.491 389.8023,313.4439 391.7465,329.6673 397.5791,329.6673 399.5233,330.8261 401.4675,321.5556 403.4117,322.135 405.3559,317.4997 411.1886,329.0879 413.1328,327.9291 415.077,323.8732 417.0212,300.6969 418.9654,294.9028 424.798,265.353 426.7422,265.353 428.6864,263.6148 430.6306,278.6794 432.5749,272.3059 438.4075,261.8765 440.3517,262.4559 442.2959,254.9236 444.2401,226.5326 446.1843,208.571 452.0169,200.4592 453.9612,199.8798 455.9054,204.5151 457.8496,192.9269 459.7938,205.6739 465.6264,224.215 467.5706,220.7385 469.5148,227.6914 471.459,243.9149 473.4032,218.4209 481.1801,205.0945 483.1243,220.1591 485.0685,201.6181 487.0127,235.2238 492.8453,225.8953 494.7895,216.1033 496.7338,168.0124 498.678,188.8711 500.6222,184.8152 506.4548,176.1241 508.399,157.0036 510.3432,162.2183 512.2874,148.3125 514.2316,123.9773 520.0643,104.8569 522.0085,121.0803 523.9527,135.5655 525.8969,129.7714 527.8411,132.6685 533.6737,158.7418 535.6179,146.5743 537.5621,140.2008 539.5064,173.8065 541.4506,194.0858 547.2832,203.9357 549.2274,213.2062 551.1716,225.9532 555.06,193.5063 560.8927,196.4034 562.8369,181.9182 564.7811,176.1241 566.7253,180.4697 568.6695,216.1033 576.4463,264.1942 578.3905,289.1087 580.3347,298.9587 582.279,302.4351 588.1116,310.2571 590.0558,315.1821 592,314.0233" style="fill:none;stroke:rgb(31,119,180);stroke-width:2;stroke-linejoin:bevel" />
  <text dominant-baseline="hanging" text-anchor="middle" transform="translate(313.006,8)" font-family="Segoe UI" font-size="18" font-weight="700" fill="black">7-Tage-Inzidenz Stadt Aachen 02.06.2021</text>
  <polygon points="34.012,29.0795 592,29.0795 592,370.947 34.012,370.947" style="fill:none;stroke:black;stroke-width:1" />
  <polygon points="42.012,37.0795 247.014,37.0795 247.014,63.1325 42.012,63.1325" style="fill:none;stroke:none;" />
  <text dominant-baseline="hanging" text-anchor="start" transform="translate(70.012,45.0795)" font-family="Segoe UI" font-size="12" font-weight="400" fill="black">7-Tage-Inzidenz Stadt Aachen 02.06.2021</text>
  <polyline points="50.012,50.106 66.012,50.106" style="fill:none;stroke:rgb(31,119,180);stroke-width:2" />
</svg>