<?xml version="1.0" encoding="utf-8" standalone="no"?>
<!DOCTYPE svg PUBLIC "-//W3C//DTD SVG 1.1//EN" "http://www.w3.org/Graphics/SVG/1.1/DTD/svg11.dtd">
<svg width="600" height="400" version="1.1" xmlns:xlink="http://www.w3.org/1999/xlink" xmlns="http://www.w3.org/2000/svg">
  <rect x="0" y="0" width="600" height="400" style="fill:rgb(255,255,255);stroke:none;" />
  <polyline points="34.012,362.7539 30.012,362.7539" style="fill:none;stroke:black;stroke-width:1" />
  <polyline points="34.012,348.3289 30.012,348.3289" style="fill:none;stroke:black;stroke-width:1" />
  <polyline points="34.012,333.904 30.012,333.904" style="fill:none;stroke:black;stroke-width:1" />
  <polyline points="34.012,319.479 30.012,319.479" style="fill:none;stroke:black;stroke-width:1" />
  <polyline points="34.012,290.6291 30.012,290.6291" style="fill:none;stroke:black;stroke-width:1" />
  <polyline points="34.012,276.2041 30.012,276.2041" style="fill:none;stroke:black;stroke-width:1" />
  <polyline points="34.012,261.7792 30.012,261.7792" style="fill:none;stroke:black;stroke-width:1" />
  <polyline points="34.012,247.3542 30.012,247.3542" style="fill:none;stroke:black;stroke-width:1" />
  <polyline points="34.012,218.5043 30.012,218.5043" style="fill:none;stroke:black;stroke-width:1" />
  <polyline points="34.012,204.0794 30.012,204.0794" style="fill:none;stroke:black;stroke-width:1" />
  <polyline points="34.012,189.6544 30.012,189.6544" style="fill:none;stroke:black;stroke-width:1" />
  <polyline points="34.012,175.2295 30.012,175.2295" style="fill:none;stroke:black;stroke-width:1" />
  <polyline points="34.012,146.3796 30.012,146.3796" style="fill:none;stroke:black;stroke-width:1" />
  <polyline points="34.012,131.9546 30.012,131.9546" style="fill:none;stroke:black;stroke-width:1" />
  <polyline points="34.012,117.5297 30.012,117.5297" style="fill:none;stroke:black;stroke-width:1" />
  <polyline points="34.012,103.1047 30.012,103.1047" style="fill:none;stroke:black;stroke-width:1" />
  <polyline points="34.012,74.2548 30.012,74.2548" style="fill:none;stroke:black;stroke-width:1" />
  <polyline points="34.012,59.8299 30.012,59.8299" style="fill:none;stroke:black;stroke-width:1" />
  <polyline points="34.012,45.4049 30.012,45.4049" style="fill:none;stroke:black;stroke-width:1" />
  <polyline points="34.012,30.98 30.012,30.98" style="fill:none;stroke:black;stroke-width:1" />
  <text dominant-baseline="middle" text-anchor="end" transform="translate(23.012,305.0541)" font-family="Segoe UI" font-size="12" font-weight="400" fill="black">50</text>
  <text dominant-baseline="middle" text-anchor="end" transform="translate(23.012,232.9293)" font-family="Segoe UI" font-size="12" font-weight="400" fill="black">100</text>
  <text dominant-baseline="middle" text-anchor="end" transform="translate(23.012,160.8045)" font-family="Segoe UI" font-size="12" font-weight="400" fill="black">150</text>
  <text dominant-baseline="middle" text-anchor="end" transform="translate(23.012,88.6798)" font-family="Segoe UI" font-size="12" font-weight="400" fill="black">200</text>
  <polyline points="34.012,305.0541 27.012,305.0541" style="fill:none;stroke:black;stroke-width:1" />
  <polyline points="34.012,232.9293 27.012,232.9293" style="fill:none;stroke:black;stroke-width:1" />
  <polyline points="34.012,160.8045 27.012,160.8045" style="fill:none;stroke:black;stroke-width:1" />
  <polyline points="34.012,88.6798 27.012,88.6798" style="fill:none;stroke:black;stroke-width:1" />
  <text dominant-baseline="hanging" text-anchor="middle" transform="translate(63.4992,381.947)" font-family="Segoe UI" font-size="12" font-weight="400" fill="black">01. September</text>
  <text dominant-baseline="hanging" text-anchor="middle" transform="translate(131.5465,381.947)" font-family="Segoe UI" font-size="12" font-weight="400" fill="black">01. October</text>
  <text dominant-baseline="hanging" text-anchor="middle" transform="translate(201.862,381.947)" font-family="Segoe UI" font-size="12" font-weight="400" fill="black">01. November</text>
  <text dominant-baseline="hanging" text-anchor="middle" transform="translate(269.9094,381.947)" font-family="Segoe UI" font-size="12" font-weight="400" fill="black">01. December</text>
  <text dominant-baseline="hanging" text-anchor="middle" transform="translate(340.2249,381.947)" font-family="Segoe UI" font-size="12" font-weight="400" fill="black">01. January</text>
  <text dominant-baseline="hanging" text-anchor="middle" transform="translate(410.5405,381.947)" font-family="Segoe UI" font-size="12" font-weight="400" fill="black">01. February</text>
  <text dominant-baseline="hanging" text-anchor="middle" transform="translate(474.0513,381.947)" font-family="Segoe UI" font-size="12" font-weight="400" fill="black">01. March</text>
  <text dominant-baseline="hanging" text-anchor="middle" transform="translate(544.3669,381.947)" font-family="Segoe UI" font-size="12" font-weight="400" fill="black">01. April</text>
  <polyline points="63.4992,370.947 63.4992,377.947" style="fill:none;stroke:black;stroke-width:1" />
  <polyline points="131.5465,370.947 131.5465,377.947" style="fill:none;stroke:black;stroke-width:1" />
  <polyline points="201.862,370.947 201.862,377.947" style="fill:none;stroke:black;stroke-width:1" />
  <polyline points="269.9094,370.947 269.9094,377.947" style="fill:none;stroke:black;stroke-width:1" />
  <polyline points="340.2249,370.947 340.2249,377.947" style="fill:none;stroke:black;stroke-width:1" />
  <polyline points="410.5405,370.947 410.5405,377.947" style="fill:none;stroke:black;stroke-width:1" />
  <polyline points="474.0513,370.947 474.0513,377.947" style="fill:none;stroke:black;stroke-width:1" />
  <polyline points="544.3669,370.947 544.3669,377.947" style="fill:none;stroke:black;stroke-width:1" />
  <polyline points="34.012,356.8142 36.2802,356.3899 38.5485,362.471 45.3532,358.5112 47.6215,362.471 49.8897,363.0367 52.158,363.6024 54.4262,362.471 61.2309,366.9965 63.4992,365.2994 65.7674,365.8651 68.0357,365.2994 70.3039,365.2994 77.1086,365.8651 79.3769,367.5622 81.6451,365.8651 83.9134,365.2994 86.1816,363.0367 92.9863,356.8142 95.2546,352.2887 97.5228,347.1975 99.7911,346.6319 102.0593,342.1064 108.864,347.7632 111.1323,348.3289 113.4005,352.2887 115.6688,350.5916 117.937,351.723 124.7418,335.8838 127.01,336.4495 129.2782,335.3182 131.5465,325.1358 133.8147,319.479 140.6195,312.6908 142.8877,313.8222 145.156,305.9026 147.4242,304.7528 149.6924,307.6498 156.4972,292.5852 158.7654,290.847 161.0337,285.6323 163.3019,275.2029 165.5701,253.1854 172.3749,230.5885 174.6431,225.9532 176.9114,221.8974 179.1796,202.7769 181.4479,202.1975 188.2526,137.3037 190.5208,132.0891 192.7891,129.192 195.0573,131.5096 197.3256,98.4834 204.1303,118.1833 206.3985,107.7539 208.6668,108.9127 210.935,101.3804 213.2033,119.3421 220.008,90.9511 222.2762,84.5776 224.5445,58.5042 229.081,32.4308 235.8857,61.4012 238.154,75.8864 240.4222,84.5776 242.6904,65.3847 244.9587,120.5009 251.7634,167.433 254.0317,150.6301 256.2999,153.5272 258.5681,208.571 260.8364,185.974 267.6411,188.8711 269.9094,213.7856 272.1776,225.9532 274.4459,198.1416 276.7141,202.1975 283.5188,179.0211 285.7871,181.3388 288.0553,179.6005 290.3236,151.2095 292.5918,173.2271 299.3965,154.1066 301.6648,144.2566 303.933,132.6685 306.2013,145.4155 308.4695,134.4067 315.2742,116.445 317.5425,117.0244 319.8107,140.7802 331.152,157.0036 333.4202,154.686 335.6884,134.4067 337.9567,136.3622 347.0297,211.468 349.2979,235.2238 351.5661,250.8678 353.8344,236.962 356.1026,215.9584 365.1756,192.9269 367.4439,195.2446 369.7121,217.2621 371.9803,247.3913 378.7851,255.9086 381.0533,275.7823 383.3216,267.0912 385.5898,285.0529 387.858,285.6323 394.6628,272.3059 399.1993,279.8382 401.4675,259.5589 403.7358,247.9707 410.5405,264.1942 412.8087,278.3173 415.077,272.3059 417.3452,279.8382 419.6135,290.847 426.4182,293.744 428.6864,290.847 430.9547,275.2029 433.2229,276.3617 435.4912,269.4088 442.2959,283.8941 444.5641,285.6323 446.8324,306.491 449.1006,313.4439 451.3689,329.6673 458.1736,329.6673 460.4419,330.8261 462.7101,321.5556 464.9783,322.135 467.2466,317.4997 474.0513,329.0879 476.3196,327.9291 478.5878,323.8732 480.856,300.6969 483.1243,294.9028 489.929,265.353 492.1973,265.353 494.4655,263.6148 496.7338,278.6794 499.002,272.3059 505.8067,261.8765 508.075,262.4559 510.3432,254.9236 512.6115,226.5326 514.8797,208.571 521.6844,200.4592 523.9527,199.8798 526.2209,204.5151 528.4892,192.9269 530.7574,205.6739 537.5621,224.215 539.8304,220.7385 542.0986,227.6914 544.3669,243.9149 546.6351,218.4209 555.7081,205.0945 557.9763,220.1591 560.2446,201.6181 562.5128,235.2238 569.3176,225.8953 571.5858,216.1033 573.854,168.0124 576.1223,188.8711 578.3905,184.8152 585.1953,176.1241 587.4635,157.0036 589.7318,162.2183 592,148.3125" style="fill:none;stroke:rgb(31,119,180);stroke-width:2;stroke-linejoin:bevel" />
  <text dominant-baseline="hanging" text-anchor="middle" transform="translate(313.006,8)" font-family="Segoe UI" font-size="18" font-weight="700" fill="black">7-Tage-Inzidenz Stadt Aachen 22.04.2021</text>
  <polygon points="34.012,29.0795 592,29.0795 592,370.947 34.012,370.947" style="fill:none;stroke:black;stroke-width:1" />
  <polygon points="42.012,37.0795 247.014,37.0795 247.014,63.1325 42.012,63.1325" style="fill:none;stroke:none;" />
  <text dominant-baseline="hanging" text-anchor="start" transform="translate(70.012,45.0795)" font-family="Segoe UI" font-size="12" font-weight="400" fill="black">7-Tage-Inzidenz Stadt Aachen 22.04.2021</text>
  <polyline points="50.012,50.106 66.012,50.106" style="fill:none;stroke:rgb(31,119,180);stroke-width:2" />
</svg>