<?xml version="1.0" encoding="utf-8" standalone="no"?>
<!DOCTYPE svg PUBLIC "-//W3C//DTD SVG 1.1//EN" "http://www.w3.org/Graphics/SVG/1.1/DTD/svg11.dtd">
<svg width="600" height="400" version="1.1" xmlns:xlink="http://www.w3.org/1999/xlink" xmlns="http://www.w3.org/2000/svg">
  <rect x="0" y="0" width="600" height="400" style="fill:rgb(255,255,255);stroke:none;" />
  <polyline points="34.012,362.7539 30.012,362.7539" style="fill:none;stroke:black;stroke-width:1" />
  <polyline points="34.012,348.3289 30.012,348.3289" style="fill:none;stroke:black;stroke-width:1" />
  <polyline points="34.012,333.904 30.012,333.904" style="fill:none;stroke:black;stroke-width:1" />
  <polyline points="34.012,319.479 30.012,319.479" style="fill:none;stroke:black;stroke-width:1" />
  <polyline points="34.012,290.6291 30.012,290.6291" style="fill:none;stroke:black;stroke-width:1" />
  <polyline points="34.012,276.2041 30.012,276.2041" style="fill:none;stroke:black;stroke-width:1" />
  <polyline points="34.012,261.7792 30.012,261.7792" style="fill:none;stroke:black;stroke-width:1" />
  <polyline points="34.012,247.3542 30.012,247.3542" style="fill:none;stroke:black;stroke-width:1" />
  <polyline points="34.012,218.5043 30.012,218.5043" style="fill:none;stroke:black;stroke-width:1" />
  <polyline points="34.012,204.0794 30.012,204.0794" style="fill:none;stroke:black;stroke-width:1" />
  <polyline points="34.012,189.6544 30.012,189.6544" style="fill:none;stroke:black;stroke-width:1" />
  <polyline points="34.012,175.2295 30.012,175.2295" style="fill:none;stroke:black;stroke-width:1" />
  <polyline points="34.012,146.3796 30.012,146.3796" style="fill:none;stroke:black;stroke-width:1" />
  <polyline points="34.012,131.9546 30.012,131.9546" style="fill:none;stroke:black;stroke-width:1" />
  <polyline points="34.012,117.5297 30.012,117.5297" style="fill:none;stroke:black;stroke-width:1" />
  <polyline points="34.012,103.1047 30.012,103.1047" style="fill:none;stroke:black;stroke-width:1" />
  <polyline points="34.012,74.2548 30.012,74.2548" style="fill:none;stroke:black;stroke-width:1" />
  <polyline points="34.012,59.8299 30.012,59.8299" style="fill:none;stroke:black;stroke-width:1" />
  <polyline points="34.012,45.4049 30.012,45.4049" style="fill:none;stroke:black;stroke-width:1" />
  <polyline points="34.012,30.98 30.012,30.98" style="fill:none;stroke:black;stroke-width:1" />
  <polyline points="58.7691,370.947 58.7691,374.947" style="fill:none;stroke:black;stroke-width:1" />
  <polyline points="174.9373,370.947 174.9373,374.947" style="fill:none;stroke:black;stroke-width:1" />
  <polyline points="291.1054,370.947 291.1054,374.947" style="fill:none;stroke:black;stroke-width:1" />
  <polyline points="403.4648,370.947 403.4648,374.947" style="fill:none;stroke:black;stroke-width:1" />
  <polyline points="519.633,370.947 519.633,374.947" style="fill:none;stroke:black;stroke-width:1" />
  <text dominant-baseline="middle" text-anchor="end" transform="translate(23.012,305.0541)" font-family="Segoe UI" font-size="12" font-weight="400" fill="black">50</text>
  <text dominant-baseline="middle" text-anchor="end" transform="translate(23.012,232.9293)" font-family="Segoe UI" font-size="12" font-weight="400" fill="black">100</text>
  <text dominant-baseline="middle" text-anchor="end" transform="translate(23.012,160.8045)" font-family="Segoe UI" font-size="12" font-weight="400" fill="black">150</text>
  <text dominant-baseline="middle" text-anchor="end" transform="translate(23.012,88.6798)" font-family="Segoe UI" font-size="12" font-weight="400" fill="black">200</text>
  <polyline points="34.012,305.0541 27.012,305.0541" style="fill:none;stroke:black;stroke-width:1" />
  <polyline points="34.012,232.9293 27.012,232.9293" style="fill:none;stroke:black;stroke-width:1" />
  <polyline points="34.012,160.8045 27.012,160.8045" style="fill:none;stroke:black;stroke-width:1" />
  <polyline points="34.012,88.6798 27.012,88.6798" style="fill:none;stroke:black;stroke-width:1" />
  <text dominant-baseline="hanging" text-anchor="middle" transform="translate(115.901,381.947)" font-family="Segoe UI" font-size="12" font-weight="400" fill="black">01. October</text>
  <text dominant-baseline="hanging" text-anchor="middle" transform="translate(232.0692,381.947)" font-family="Segoe UI" font-size="12" font-weight="400" fill="black">01. December</text>
  <text dominant-baseline="hanging" text-anchor="middle" transform="translate(350.1417,381.947)" font-family="Segoe UI" font-size="12" font-weight="400" fill="black">01. February</text>
  <text dominant-baseline="hanging" text-anchor="middle" transform="translate(462.5011,381.947)" font-family="Segoe UI" font-size="12" font-weight="400" fill="black">01. April</text>
  <text dominant-baseline="hanging" text-anchor="middle" transform="translate(578.6692,381.947)" font-family="Segoe UI" font-size="12" font-weight="400" fill="black">01. June</text>
  <polyline points="115.901,370.947 115.901,377.947" style="fill:none;stroke:black;stroke-width:1" />
  <polyline points="232.0692,370.947 232.0692,377.947" style="fill:none;stroke:black;stroke-width:1" />
  <polyline points="350.1417,370.947 350.1417,377.947" style="fill:none;stroke:black;stroke-width:1" />
  <polyline points="462.5011,370.947 462.5011,377.947" style="fill:none;stroke:black;stroke-width:1" />
  <polyline points="578.6692,370.947 578.6692,377.947" style="fill:none;stroke:black;stroke-width:1" />
  <polyline points="34.012,356.8142 35.9164,356.3899 37.8208,362.471 43.534,358.5112 45.4384,362.471 47.3428,363.0367 49.2472,363.6024 51.1516,362.471 56.8648,366.9965 58.7691,365.2994 60.6735,365.8651 62.5779,365.2994 64.4823,365.2994 70.1955,365.8651 72.0999,367.5622 74.0043,365.8651 75.9087,365.2994 77.8131,363.0367 83.5263,356.8142 85.4307,352.2887 87.3351,347.1975 89.2395,346.6319 91.1439,342.1064 96.8571,347.7632 98.7615,348.3289 100.6659,352.2887 102.5703,350.5916 104.4746,351.723 110.1878,335.8838 112.0922,336.4495 113.9966,335.3182 115.901,325.1358 117.8054,319.479 123.5186,312.6908 125.423,313.8222 127.3274,305.9026 129.2318,304.7528 131.1362,307.6498 136.8494,292.5852 138.7538,290.847 140.6582,285.6323 142.5626,275.2029 144.467,253.1854 150.1802,230.5885 152.0845,225.9532 153.9889,221.8974 155.8933,202.7769 157.7977,202.1975 163.5109,137.3037 165.4153,132.0891 167.3197,129.192 169.2241,131.5096 171.1285,98.4834 176.8417,118.1833 178.7461,107.7539 180.6505,108.9127 182.5549,101.3804 184.4593,119.3421 190.1725,90.9511 192.0769,84.5776 193.9813,58.5042 197.79,32.4308 203.5032,61.4012 205.4076,75.8864 207.312,84.5776 209.2164,65.3847 211.1208,120.5009 216.834,167.433 218.7384,150.6301 220.6428,153.5272 222.5472,208.571 224.4516,185.974 230.1648,188.8711 232.0692,213.7856 233.9736,225.9532 235.878,198.1416 237.7824,202.1975 243.4955,179.0211 245.3999,181.3388 247.3043,179.6005 249.2087,151.2095 251.1131,173.2271 256.8263,154.1066 258.7307,144.2566 260.6351,132.6685 262.5395,145.4155 264.4439,134.4067 270.1571,116.445 272.0615,117.0244 273.9659,140.7802 283.4879,157.0036 285.3923,154.686 287.2967,134.4067 289.2011,136.3622 296.8186,211.468 298.723,235.2238 300.6274,250.8678 302.5318,236.962 304.4362,215.9584 312.0538,192.9269 313.9582,195.2446 315.8626,217.2621 317.767,247.3913 323.4802,255.9086 325.3846,275.7823 327.289,267.0912 329.1934,285.0529 331.0978,285.6323 336.8109,272.3059 340.6197,279.8382 342.5241,259.5589 344.4285,247.9707 350.1417,264.1942 352.0461,278.3173 353.9505,272.3059 355.8549,279.8382 357.7593,290.847 363.4725,293.744 365.3769,290.847 367.2813,275.2029 369.1857,276.3617 371.0901,269.4088 376.8033,283.8941 378.7077,285.6323 380.6121,306.491 382.5165,313.4439 384.4208,329.6673 390.134,329.6673 392.0384,330.8261 393.9428,321.5556 395.8472,322.135 397.7516,317.4997 403.4648,329.0879 405.3692,327.9291 407.2736,323.8732 409.178,300.6969 411.0824,294.9028 416.7956,265.353 418.7,265.353 420.6044,263.6148 422.5088,278.6794 424.4132,272.3059 430.1263,261.8765 432.0307,262.4559 433.9351,254.9236 435.8395,226.5326 437.7439,208.571 443.4571,200.4592 445.3615,199.8798 447.2659,204.5151 449.1703,192.9269 451.0747,205.6739 456.7879,224.215 458.6923,220.7385 460.5967,227.6914 462.5011,243.9149 464.4055,218.4209 472.0231,205.0945 473.9275,220.1591 475.8318,201.6181 477.7362,235.2238 483.4494,225.8953 485.3538,216.1033 487.2582,168.0124 489.1626,188.8711 491.067,184.8152 496.7802,176.1241 498.6846,157.0036 500.589,162.2183 502.4934,148.3125 504.3978,123.9773 510.111,104.8569 512.0154,121.0803 513.9198,135.5655 515.8242,129.7714 517.7286,132.6685 523.4417,158.7418 525.3461,146.5743 527.2505,140.2008 529.1549,173.8065 531.0593,194.0858 536.7725,203.9357 538.6769,213.2062 540.5813,225.9532 544.3901,193.5063 550.1033,196.4034 552.0077,181.9182 553.9121,176.1241 555.8165,180.4697 557.7209,216.1033 565.3385,264.1942 567.2429,289.1087 569.1472,298.9587 571.0516,302.4351 576.7648,310.2571 578.6692,315.1821 580.5736,314.0233 584.3824,334.882 590.0956,350.526 592,355.7407" style="fill:none;stroke:rgb(31,119,180);stroke-width:2;stroke-linejoin:bevel" />
  <text dominant-baseline="hanging" text-anchor="middle" transform="translate(313.006,8)" font-family="Segoe UI" font-size="18" font-weight="700" fill="black">7-Tage-Inzidenz Stadt Aachen 08.06.2021</text>
  <polygon points="34.012,29.0795 592,29.0795 592,370.947 34.012,370.947" style="fill:none;stroke:black;stroke-width:1" />
  <polygon points="42.012,37.0795 247.014,37.0795 247.014,63.1325 42.012,63.1325" style="fill:none;stroke:none;" />
  <text dominant-baseline="hanging" text-anchor="start" transform="translate(70.012,45.0795)" font-family="Segoe UI" font-size="12" font-weight="400" fill="black">7-Tage-Inzidenz Stadt Aachen 08.06.2021</text>
  <polyline points="50.012,50.106 66.012,50.106" style="fill:none;stroke:rgb(31,119,180);stroke-width:2" />
</svg>