<?xml version="1.0" encoding="utf-8" standalone="no"?>
<!DOCTYPE svg PUBLIC "-//W3C//DTD SVG 1.1//EN" "http://www.w3.org/Graphics/SVG/1.1/DTD/svg11.dtd">
<svg width="600" height="400" version="1.1" xmlns:xlink="http://www.w3.org/1999/xlink" xmlns="http://www.w3.org/2000/svg">
  <rect x="0" y="0" width="600" height="400" style="fill:rgb(255,255,255);stroke:none;" />
  <polyline points="34.012,353.4851 30.012,353.4851" style="fill:none;stroke:black;stroke-width:1" />
  <polyline points="34.012,339.4649 30.012,339.4649" style="fill:none;stroke:black;stroke-width:1" />
  <polyline points="34.012,325.4447 30.012,325.4447" style="fill:none;stroke:black;stroke-width:1" />
  <polyline points="34.012,311.4245 30.012,311.4245" style="fill:none;stroke:black;stroke-width:1" />
  <polyline points="34.012,283.3841 30.012,283.3841" style="fill:none;stroke:black;stroke-width:1" />
  <polyline points="34.012,269.3639 30.012,269.3639" style="fill:none;stroke:black;stroke-width:1" />
  <polyline points="34.012,255.3438 30.012,255.3438" style="fill:none;stroke:black;stroke-width:1" />
  <polyline points="34.012,241.3236 30.012,241.3236" style="fill:none;stroke:black;stroke-width:1" />
  <polyline points="34.012,213.2832 30.012,213.2832" style="fill:none;stroke:black;stroke-width:1" />
  <polyline points="34.012,199.263 30.012,199.263" style="fill:none;stroke:black;stroke-width:1" />
  <polyline points="34.012,185.2428 30.012,185.2428" style="fill:none;stroke:black;stroke-width:1" />
  <polyline points="34.012,171.2226 30.012,171.2226" style="fill:none;stroke:black;stroke-width:1" />
  <polyline points="34.012,143.1822 30.012,143.1822" style="fill:none;stroke:black;stroke-width:1" />
  <polyline points="34.012,129.162 30.012,129.162" style="fill:none;stroke:black;stroke-width:1" />
  <polyline points="34.012,115.1418 30.012,115.1418" style="fill:none;stroke:black;stroke-width:1" />
  <polyline points="34.012,101.1216 30.012,101.1216" style="fill:none;stroke:black;stroke-width:1" />
  <polyline points="34.012,73.0813 30.012,73.0813" style="fill:none;stroke:black;stroke-width:1" />
  <polyline points="34.012,59.0611 30.012,59.0611" style="fill:none;stroke:black;stroke-width:1" />
  <polyline points="34.012,45.0409 30.012,45.0409" style="fill:none;stroke:black;stroke-width:1" />
  <polyline points="34.012,31.0207 30.012,31.0207" style="fill:none;stroke:black;stroke-width:1" />
  <text dominant-baseline="middle" text-anchor="end" transform="translate(23.012,367.5053)" font-family="Segoe UI" font-size="12" font-weight="400" fill="black">0</text>
  <text dominant-baseline="middle" text-anchor="end" transform="translate(23.012,297.4043)" font-family="Segoe UI" font-size="12" font-weight="400" fill="black">50</text>
  <text dominant-baseline="middle" text-anchor="end" transform="translate(23.012,227.3034)" font-family="Segoe UI" font-size="12" font-weight="400" fill="black">100</text>
  <text dominant-baseline="middle" text-anchor="end" transform="translate(23.012,157.2024)" font-family="Segoe UI" font-size="12" font-weight="400" fill="black">150</text>
  <text dominant-baseline="middle" text-anchor="end" transform="translate(23.012,87.1015)" font-family="Segoe UI" font-size="12" font-weight="400" fill="black">200</text>
  <polyline points="34.012,367.5053 27.012,367.5053" style="fill:none;stroke:black;stroke-width:1" />
  <polyline points="34.012,297.4043 27.012,297.4043" style="fill:none;stroke:black;stroke-width:1" />
  <polyline points="34.012,227.3034 27.012,227.3034" style="fill:none;stroke:black;stroke-width:1" />
  <polyline points="34.012,157.2024 27.012,157.2024" style="fill:none;stroke:black;stroke-width:1" />
  <polyline points="34.012,87.1015 27.012,87.1015" style="fill:none;stroke:black;stroke-width:1" />
  <text dominant-baseline="hanging" text-anchor="middle" transform="translate(208.1533,381.947)" font-family="Segoe UI" font-size="12" font-weight="400" fill="black">01. January</text>
  <polyline points="208.1533,370.947 208.1533,377.947" style="fill:none;stroke:black;stroke-width:1" />
  <polyline points="34.012,367.5622 36.4647,367.5621 40.1437,367.5621 41.3701,367.562 42.5964,347.7121 43.8228,347.2997 45.0491,353.2102 48.7282,349.3615 49.9545,353.2102 51.1809,353.76 52.4072,354.3098 53.6336,353.2102 57.3126,357.6087 58.5389,355.9593 59.7653,356.5091 60.9916,355.9593 62.218,355.9593 65.897,356.5091 67.1234,358.1585 68.3497,356.5091 69.5761,355.9593 70.8024,353.76 74.4815,347.7121 75.7078,343.3136 76.9342,338.3653 78.1605,337.8155 79.3868,333.417 83.0659,338.9151 84.2922,339.4649 85.5186,343.3136 86.7449,341.6642 87.9713,342.7638 91.6503,327.3691 92.8767,327.9189 94.103,326.8192 95.3294,316.9226 96.5557,311.4245 100.2348,304.8268 101.4611,305.9264 102.6874,298.229 103.9138,297.1115 105.1401,299.9272 108.8192,285.2853 110.0455,283.5959 111.2719,278.5275 112.4982,268.3908 113.7246,246.9911 117.4036,225.0282 118.63,220.523 119.8563,216.581 121.0827,197.997 122.309,197.4339 125.988,134.361 127.2144,129.2927 128.4407,126.4769 129.6671,128.7295 130.8934,96.63 134.5725,115.7771 135.7988,105.6404 137.0252,106.7667 138.2515,99.4457 139.4779,116.9034 143.1569,89.309 144.3833,83.1143 145.6096,57.7726 148.0623,32.4308 151.7413,60.5883 152.9677,74.6671 154.194,83.1143 155.4204,64.46 156.6467,118.0297 160.3258,163.6449 161.5521,147.3135 162.7785,150.1292 164.0048,203.6285 165.2312,181.6657 168.9102,184.4814 170.1365,208.6969 171.3629,220.523 172.5892,193.4918 173.8156,197.4339 177.4946,174.9079 178.721,177.1605 179.9473,175.471 181.1737,147.8766 182.4,169.2764 186.0791,150.6924 187.3054,141.1188 188.5318,129.8558 189.7581,142.2451 190.9844,131.5453 194.6635,114.0876 195.8898,114.6508 197.1162,137.7399 203.2479,153.5081 204.4743,151.2555 205.7006,131.5453 206.927,133.4459 211.8324,206.4443 213.0587,229.5334 214.285,244.7385 215.5114,231.2229 216.7377,210.8087 221.6431,188.4235 222.8695,190.6761 224.0958,212.0758 225.3222,241.3596 229.0012,249.6379 230.2276,268.954 231.4539,260.5067 232.6803,277.9644 233.9066,278.5275 237.5856,265.5751 240.0383,272.896 241.2647,253.1858 242.491,241.9228 246.1701,257.691 247.3964,271.4178 248.6228,265.5751 249.8491,272.896 251.0755,283.5959 254.7545,286.4116 255.9809,283.5959 257.2072,268.3908 258.4335,269.5171 259.6599,262.7593 263.3389,276.8381 264.5653,278.5275 265.7916,298.8009 267.018,305.5587 268.2443,321.327 271.9234,321.327 273.1497,322.4533 274.3761,313.4429 275.6024,314.006 276.8288,309.5008 280.5078,320.7638 281.7341,319.6375 282.9605,315.6955 284.1868,293.1694 285.4132,287.5379 289.0922,258.8173 290.3186,258.8173 291.5449,257.1278 292.7713,271.7697 293.9976,265.5751 297.6767,255.4384 298.903,256.0015 300.1294,248.6806 301.3557,221.0862 302.582,203.6285 306.2611,195.7444 307.4874,195.1813 308.7138,199.6865 309.9401,188.4235 311.1665,200.8128 314.8455,218.8336 316.0719,215.4547 317.2982,222.2125 318.5246,237.9807 319.7509,213.2021 324.6563,200.2496 325.8826,214.8915 327.109,196.8707 328.3353,229.5334 332.0144,220.4667 333.2407,210.9495 334.4671,164.208 335.6934,184.4814 336.9198,180.5394 340.5988,172.0921 341.8252,153.5081 343.0515,158.5765 344.2779,145.0609 345.5042,121.4086 349.1832,102.8246 350.4096,118.5928 351.6359,132.6716 352.8623,127.0401 354.0886,129.8558 357.7677,155.1976 358.994,143.3714 360.2204,137.1768 361.4467,169.8395 362.6731,189.5498 366.3521,199.1233 367.5785,208.1337 368.8048,220.523 371.2575,188.9866 374.9365,191.8024 376.1629,177.7236 377.3892,172.0921 378.6156,176.3157 379.8419,210.9495 384.7473,257.691 385.9737,281.9064 387.2,291.48 388.4264,294.8589 392.1054,302.4614 393.3317,307.2482 394.5581,306.1219 397.0108,326.3953 400.6898,341.6004 401.9162,346.6687 403.1425,351.1739 404.3689,350.2588 405.5952,355.6791 409.2743,358.4949 410.5006,357.3686 411.727,357.3686 412.9533,356.2423 414.1796,353.4265 417.8587,353.4265 419.085,352.8634 420.3114,356.2423 421.5377,359.6212 422.7641,361.3106 426.4431,360.7475 427.6695,362.4369 428.8958,359.058 430.1222,355.6791 431.3485,356.8054 435.0276,356.8054 437.4802,357.3686 439.9329,359.6212 443.612,360.7475 446.0647,353.9897 448.5174,343.2898 454.6491,332.0268 457.1018,317.9481 463.2335,316.2586 465.6862,329.7742 471.818,329.2111 474.2707,323.0164 480.4024,294.8589 482.8551,262.7593 488.9868,253.7489 491.4395,268.3908 497.5713,201.3759 500.024,191.8024 506.1557,233.4755 508.6084,222.2125 517.1928,240.2333 525.7772,272.896 531.909,284.7222 534.3617,290.9168 540.4934,295.422 542.9461,306.6851 549.0778,321.8901 551.5305,321.8901 557.6623,321.327 560.115,320.7638 566.2467,320.7638 568.6994,302.743 574.8311,266.1382 577.2838,229.5334 583.4156,220.523 585.8683,201.3759 592,125.3506" style="fill:none;stroke:rgb(31,119,180);stroke-width:2;stroke-linejoin:bevel" />
  <text dominant-baseline="hanging" text-anchor="middle" transform="translate(313.006,8)" font-family="Segoe UI" font-size="18" font-weight="700" fill="black">7-Tage-Inzidenz Stadt Aachen 10.11.2021</text>
  <polygon points="34.012,29.0795 592,29.0795 592,370.947 34.012,370.947" style="fill:none;stroke:black;stroke-width:1" />
  <polygon points="42.012,37.0795 247.014,37.0795 247.014,63.1325 42.012,63.1325" style="fill:none;stroke:none;" />
  <text dominant-baseline="hanging" text-anchor="start" transform="translate(70.012,45.0795)" font-family="Segoe UI" font-size="12" font-weight="400" fill="black">7-Tage-Inzidenz Stadt Aachen 10.11.2021</text>
  <polyline points="50.012,50.106 66.012,50.106" style="fill:none;stroke:rgb(31,119,180);stroke-width:2" />
</svg>