<?xml version="1.0" encoding="utf-8" standalone="no"?>
<!DOCTYPE svg PUBLIC "-//W3C//DTD SVG 1.1//EN" "http://www.w3.org/Graphics/SVG/1.1/DTD/svg11.dtd">
<svg width="600" height="400" version="1.1" xmlns:xlink="http://www.w3.org/1999/xlink" xmlns="http://www.w3.org/2000/svg">
  <rect x="0" y="0" width="600" height="400" style="fill:rgb(255,255,255);stroke:none;" />
  <polyline points="34.012,358.4713 30.012,358.4713" style="fill:none;stroke:black;stroke-width:1" />
  <polyline points="34.012,344.2334 30.012,344.2334" style="fill:none;stroke:black;stroke-width:1" />
  <polyline points="34.012,329.9954 30.012,329.9954" style="fill:none;stroke:black;stroke-width:1" />
  <polyline points="34.012,315.7575 30.012,315.7575" style="fill:none;stroke:black;stroke-width:1" />
  <polyline points="34.012,287.2816 30.012,287.2816" style="fill:none;stroke:black;stroke-width:1" />
  <polyline points="34.012,273.0437 30.012,273.0437" style="fill:none;stroke:black;stroke-width:1" />
  <polyline points="34.012,258.8058 30.012,258.8058" style="fill:none;stroke:black;stroke-width:1" />
  <polyline points="34.012,244.5678 30.012,244.5678" style="fill:none;stroke:black;stroke-width:1" />
  <polyline points="34.012,216.0919 30.012,216.0919" style="fill:none;stroke:black;stroke-width:1" />
  <polyline points="34.012,201.854 30.012,201.854" style="fill:none;stroke:black;stroke-width:1" />
  <polyline points="34.012,187.6161 30.012,187.6161" style="fill:none;stroke:black;stroke-width:1" />
  <polyline points="34.012,173.3781 30.012,173.3781" style="fill:none;stroke:black;stroke-width:1" />
  <polyline points="34.012,144.9023 30.012,144.9023" style="fill:none;stroke:black;stroke-width:1" />
  <polyline points="34.012,130.6643 30.012,130.6643" style="fill:none;stroke:black;stroke-width:1" />
  <polyline points="34.012,116.4264 30.012,116.4264" style="fill:none;stroke:black;stroke-width:1" />
  <polyline points="34.012,102.1885 30.012,102.1885" style="fill:none;stroke:black;stroke-width:1" />
  <polyline points="34.012,73.7126 30.012,73.7126" style="fill:none;stroke:black;stroke-width:1" />
  <polyline points="34.012,59.4747 30.012,59.4747" style="fill:none;stroke:black;stroke-width:1" />
  <polyline points="34.012,45.2367 30.012,45.2367" style="fill:none;stroke:black;stroke-width:1" />
  <polyline points="34.012,30.9988 30.012,30.9988" style="fill:none;stroke:black;stroke-width:1" />
  <polyline points="54.7373,370.947 54.7373,374.947" style="fill:none;stroke:black;stroke-width:1" />
  <polyline points="151.9866,370.947 151.9866,374.947" style="fill:none;stroke:black;stroke-width:1" />
  <polyline points="249.2359,370.947 249.2359,374.947" style="fill:none;stroke:black;stroke-width:1" />
  <polyline points="343.2968,370.947 343.2968,374.947" style="fill:none;stroke:black;stroke-width:1" />
  <polyline points="440.5461,370.947 440.5461,374.947" style="fill:none;stroke:black;stroke-width:1" />
  <polyline points="537.7955,370.947 537.7955,374.947" style="fill:none;stroke:black;stroke-width:1" />
  <text dominant-baseline="middle" text-anchor="end" transform="translate(23.012,301.5196)" font-family="Segoe UI" font-size="12" font-weight="400" fill="black">50</text>
  <text dominant-baseline="middle" text-anchor="end" transform="translate(23.012,230.3299)" font-family="Segoe UI" font-size="12" font-weight="400" fill="black">100</text>
  <text dominant-baseline="middle" text-anchor="end" transform="translate(23.012,159.1402)" font-family="Segoe UI" font-size="12" font-weight="400" fill="black">150</text>
  <text dominant-baseline="middle" text-anchor="end" transform="translate(23.012,87.9505)" font-family="Segoe UI" font-size="12" font-weight="400" fill="black">200</text>
  <polyline points="34.012,301.5196 27.012,301.5196" style="fill:none;stroke:black;stroke-width:1" />
  <polyline points="34.012,230.3299 27.012,230.3299" style="fill:none;stroke:black;stroke-width:1" />
  <polyline points="34.012,159.1402 27.012,159.1402" style="fill:none;stroke:black;stroke-width:1" />
  <polyline points="34.012,87.9505 27.012,87.9505" style="fill:none;stroke:black;stroke-width:1" />
  <text dominant-baseline="hanging" text-anchor="middle" transform="translate(102.5648,381.947)" font-family="Segoe UI" font-size="12" font-weight="400" fill="black">01. October</text>
  <text dominant-baseline="hanging" text-anchor="middle" transform="translate(199.8141,381.947)" font-family="Segoe UI" font-size="12" font-weight="400" fill="black">01. December</text>
  <text dominant-baseline="hanging" text-anchor="middle" transform="translate(298.6577,381.947)" font-family="Segoe UI" font-size="12" font-weight="400" fill="black">01. February</text>
  <text dominant-baseline="hanging" text-anchor="middle" transform="translate(392.7186,381.947)" font-family="Segoe UI" font-size="12" font-weight="400" fill="black">01. April</text>
  <text dominant-baseline="hanging" text-anchor="middle" transform="translate(489.9679,381.947)" font-family="Segoe UI" font-size="12" font-weight="400" fill="black">01. June</text>
  <text dominant-baseline="hanging" text-anchor="middle" transform="translate(587.2172,381.947)" font-family="Segoe UI" font-size="12" font-weight="400" fill="black">01. August</text>
  <polyline points="102.5648,370.947 102.5648,377.947" style="fill:none;stroke:black;stroke-width:1" />
  <polyline points="199.8141,370.947 199.8141,377.947" style="fill:none;stroke:black;stroke-width:1" />
  <polyline points="298.6577,370.947 298.6577,377.947" style="fill:none;stroke:black;stroke-width:1" />
  <polyline points="392.7186,370.947 392.7186,377.947" style="fill:none;stroke:black;stroke-width:1" />
  <polyline points="489.9679,370.947 489.9679,377.947" style="fill:none;stroke:black;stroke-width:1" />
  <polyline points="587.2172,370.947 587.2172,377.947" style="fill:none;stroke:black;stroke-width:1" />
  <polyline points="34.012,352.6086 35.6063,352.1899 37.2005,358.1921 41.9833,354.2837 43.5775,358.1921 45.1718,358.7505 46.766,359.3088 48.3603,358.1921 53.143,362.6589 54.7373,360.9839 56.3315,361.5422 57.9258,360.9839 59.52,360.9839 64.3028,361.5422 65.897,363.2173 67.4913,361.5422 69.0855,360.9839 70.6798,358.7505 75.4625,352.6086 77.0568,348.1418 78.651,343.1167 80.2453,342.5583 81.8395,338.0915 86.6223,343.675 88.2165,344.2334 89.8108,348.1418 91.4051,346.4668 92.9993,347.5835 97.7821,331.9497 99.3763,332.508 100.9706,331.3913 102.5648,321.341 104.1591,315.7575 108.9418,309.0573 110.5361,310.174 112.1303,302.3571 113.7246,301.2222 115.3188,304.0817 120.1016,289.2124 121.6958,287.4967 123.2901,282.3496 124.8843,272.0555 126.4786,250.3234 131.2613,228.0194 132.8556,223.4443 134.4498,219.441 136.0441,200.5684 137.6383,199.9965 142.4211,135.9441 144.0153,130.797 145.6096,127.9375 147.2039,130.2251 148.7981,97.627 153.5809,117.0715 155.1751,106.7774 156.7694,107.9212 158.3636,100.4865 159.9579,118.2153 164.7406,90.1924 166.3349,83.9015 167.9291,58.1662 171.1176,32.4308 175.9004,61.0256 177.4946,75.3231 179.0889,83.9015 180.6831,64.9574 182.2774,119.3591 187.0601,165.6827 188.6544,149.0977 190.2486,151.9572 191.8429,206.2874 193.4371,183.9834 198.2199,186.8429 199.8141,211.4344 201.4084,223.4443 203.0027,195.9932 204.5969,199.9965 209.3797,177.1206 210.9739,179.4082 212.5682,177.6925 214.1624,149.6696 215.7567,171.4017 220.5394,152.5291 222.1337,142.8068 223.7279,131.3689 225.3222,143.9506 226.9164,133.0846 231.6992,115.3558 233.2934,115.9277 234.8877,139.3755 242.8589,155.3886 244.4532,153.101 246.0474,133.0846 247.6417,135.0148 254.0187,209.1468 255.6129,232.5946 257.2072,248.0358 258.8015,234.3103 260.3957,213.579 266.7727,190.8461 268.367,193.1337 269.9612,214.8658 271.5555,244.6044 276.3382,253.0113 277.9325,272.6274 279.5267,264.0489 281.121,281.7777 282.7152,282.3496 287.498,269.196 290.6865,276.6306 292.2807,256.6142 293.875,245.1763 298.6577,261.1894 300.252,275.1294 301.8462,269.196 303.4405,276.6306 305.0347,287.4967 309.8175,290.3561 311.4117,287.4967 313.006,272.0555 314.6003,273.1992 316.1945,266.3365 320.9773,280.6339 322.5715,282.3496 324.1658,302.9379 325.76,309.8006 327.3543,325.8137 332.137,325.8137 333.7313,326.9575 335.3255,317.8072 336.9198,318.3791 338.514,313.8039 343.2968,325.2418 344.891,324.098 346.4853,320.0948 348.0795,297.2189 349.6738,291.4999 354.4565,262.3332 356.0508,262.3332 357.645,260.6175 359.2393,275.4868 360.8335,269.196 365.6163,258.9018 367.2105,259.4737 368.8048,252.0391 370.3991,224.0161 371.9933,206.2874 376.7761,198.2808 378.3703,197.7089 379.9646,202.2841 381.5588,190.8461 383.1531,203.4279 387.9358,221.7286 389.5301,218.2972 391.1243,225.1599 392.7186,241.173 394.3128,216.0096 400.6898,202.856 402.2841,217.7253 403.8783,199.4246 405.4726,232.5946 410.2553,223.3871 411.8496,213.722 413.4438,166.2546 415.0381,186.8429 416.6323,182.8396 421.4151,174.2612 423.0093,155.3886 424.6036,160.5356 426.1979,146.8101 427.7921,122.7905 432.5749,103.9179 434.1691,119.931 435.7634,134.2284 437.3576,128.5094 438.9519,131.3689 443.7346,157.1043 445.3289,145.0944 446.9231,138.8036 448.5174,171.9736 450.1116,191.9899 454.8944,201.7122 456.4886,210.8625 458.0829,223.4443 461.2714,191.418 466.0541,194.2775 467.6484,179.9801 469.2426,174.2612 470.8369,178.5504 472.4311,213.722 478.8081,261.1894 480.4024,285.781 481.9967,295.5032 483.5909,298.9346 488.3737,306.6552 489.9679,311.5163 491.5622,310.3725 494.7507,330.9608 499.5334,346.402 501.1277,351.5491 502.7219,356.1242 504.3162,355.1949 505.9104,360.6994 510.6932,363.5589 512.2874,362.4151 513.8817,362.4151 515.4759,361.2713 517.0702,358.4118 521.8529,358.4118 523.4472,357.8399 525.0414,361.2713 526.6357,364.7027 528.2299,366.4184 533.0127,365.8465 534.6069,367.5622 536.2012,364.1308 537.7955,360.6994 539.3897,361.8432 544.1725,361.8432 547.361,362.4151 550.5495,364.7027 555.3322,365.8465 558.5207,358.9837 561.7092,348.1177 569.6805,336.6798 572.869,322.3823 580.8402,320.6667 584.0287,334.3922 592,333.8203" style="fill:none;stroke:rgb(31,119,180);stroke-width:2;stroke-linejoin:bevel" />
  <text dominant-baseline="hanging" text-anchor="middle" transform="translate(313.006,8)" font-family="Segoe UI" font-size="18" font-weight="700" fill="black">7-Tage-Inzidenz Stadt Aachen 04.08.2021</text>
  <polygon points="34.012,29.0795 592,29.0795 592,370.947 34.012,370.947" style="fill:none;stroke:black;stroke-width:1" />
  <polygon points="42.012,37.0795 247.014,37.0795 247.014,63.1325 42.012,63.1325" style="fill:none;stroke:none;" />
  <text dominant-baseline="hanging" text-anchor="start" transform="translate(70.012,45.0795)" font-family="Segoe UI" font-size="12" font-weight="400" fill="black">7-Tage-Inzidenz Stadt Aachen 04.08.2021</text>
  <polyline points="50.012,50.106 66.012,50.106" style="fill:none;stroke:rgb(31,119,180);stroke-width:2" />
</svg>