<?xml version="1.0" encoding="utf-8" standalone="no"?>
<!DOCTYPE svg PUBLIC "-//W3C//DTD SVG 1.1//EN" "http://www.w3.org/Graphics/SVG/1.1/DTD/svg11.dtd">
<svg width="600" height="400" version="1.1" xmlns:xlink="http://www.w3.org/1999/xlink" xmlns="http://www.w3.org/2000/svg">
  <rect x="0" y="0" width="600" height="400" style="fill:rgb(255,255,255);stroke:none;" />
  <polyline points="34.012,362.7539 30.012,362.7539" style="fill:none;stroke:black;stroke-width:1" />
  <polyline points="34.012,348.3289 30.012,348.3289" style="fill:none;stroke:black;stroke-width:1" />
  <polyline points="34.012,333.904 30.012,333.904" style="fill:none;stroke:black;stroke-width:1" />
  <polyline points="34.012,319.479 30.012,319.479" style="fill:none;stroke:black;stroke-width:1" />
  <polyline points="34.012,290.6291 30.012,290.6291" style="fill:none;stroke:black;stroke-width:1" />
  <polyline points="34.012,276.2041 30.012,276.2041" style="fill:none;stroke:black;stroke-width:1" />
  <polyline points="34.012,261.7792 30.012,261.7792" style="fill:none;stroke:black;stroke-width:1" />
  <polyline points="34.012,247.3542 30.012,247.3542" style="fill:none;stroke:black;stroke-width:1" />
  <polyline points="34.012,218.5043 30.012,218.5043" style="fill:none;stroke:black;stroke-width:1" />
  <polyline points="34.012,204.0794 30.012,204.0794" style="fill:none;stroke:black;stroke-width:1" />
  <polyline points="34.012,189.6544 30.012,189.6544" style="fill:none;stroke:black;stroke-width:1" />
  <polyline points="34.012,175.2295 30.012,175.2295" style="fill:none;stroke:black;stroke-width:1" />
  <polyline points="34.012,146.3796 30.012,146.3796" style="fill:none;stroke:black;stroke-width:1" />
  <polyline points="34.012,131.9546 30.012,131.9546" style="fill:none;stroke:black;stroke-width:1" />
  <polyline points="34.012,117.5297 30.012,117.5297" style="fill:none;stroke:black;stroke-width:1" />
  <polyline points="34.012,103.1047 30.012,103.1047" style="fill:none;stroke:black;stroke-width:1" />
  <polyline points="34.012,74.2548 30.012,74.2548" style="fill:none;stroke:black;stroke-width:1" />
  <polyline points="34.012,59.8299 30.012,59.8299" style="fill:none;stroke:black;stroke-width:1" />
  <polyline points="34.012,45.4049 30.012,45.4049" style="fill:none;stroke:black;stroke-width:1" />
  <polyline points="34.012,30.98 30.012,30.98" style="fill:none;stroke:black;stroke-width:1" />
  <text dominant-baseline="middle" text-anchor="end" transform="translate(23.012,305.0541)" font-family="Segoe UI" font-size="12" font-weight="400" fill="black">50</text>
  <text dominant-baseline="middle" text-anchor="end" transform="translate(23.012,232.9293)" font-family="Segoe UI" font-size="12" font-weight="400" fill="black">100</text>
  <text dominant-baseline="middle" text-anchor="end" transform="translate(23.012,160.8045)" font-family="Segoe UI" font-size="12" font-weight="400" fill="black">150</text>
  <text dominant-baseline="middle" text-anchor="end" transform="translate(23.012,88.6798)" font-family="Segoe UI" font-size="12" font-weight="400" fill="black">200</text>
  <polyline points="34.012,305.0541 27.012,305.0541" style="fill:none;stroke:black;stroke-width:1" />
  <polyline points="34.012,232.9293 27.012,232.9293" style="fill:none;stroke:black;stroke-width:1" />
  <polyline points="34.012,160.8045 27.012,160.8045" style="fill:none;stroke:black;stroke-width:1" />
  <polyline points="34.012,88.6798 27.012,88.6798" style="fill:none;stroke:black;stroke-width:1" />
  <text dominant-baseline="hanging" text-anchor="middle" transform="translate(61.4887,381.947)" font-family="Segoe UI" font-size="12" font-weight="400" fill="black">01. September</text>
  <text dominant-baseline="hanging" text-anchor="middle" transform="translate(124.8964,381.947)" font-family="Segoe UI" font-size="12" font-weight="400" fill="black">01. October</text>
  <text dominant-baseline="hanging" text-anchor="middle" transform="translate(190.4177,381.947)" font-family="Segoe UI" font-size="12" font-weight="400" fill="black">01. November</text>
  <text dominant-baseline="hanging" text-anchor="middle" transform="translate(253.8255,381.947)" font-family="Segoe UI" font-size="12" font-weight="400" fill="black">01. December</text>
  <text dominant-baseline="hanging" text-anchor="middle" transform="translate(319.3468,381.947)" font-family="Segoe UI" font-size="12" font-weight="400" fill="black">01. January</text>
  <text dominant-baseline="hanging" text-anchor="middle" transform="translate(384.8681,381.947)" font-family="Segoe UI" font-size="12" font-weight="400" fill="black">01. February</text>
  <text dominant-baseline="hanging" text-anchor="middle" transform="translate(444.0486,381.947)" font-family="Segoe UI" font-size="12" font-weight="400" fill="black">01. March</text>
  <text dominant-baseline="hanging" text-anchor="middle" transform="translate(509.57,381.947)" font-family="Segoe UI" font-size="12" font-weight="400" fill="black">01. April</text>
  <text dominant-baseline="hanging" text-anchor="middle" transform="translate(572.9777,381.947)" font-family="Segoe UI" font-size="12" font-weight="400" fill="black">01. May</text>
  <polyline points="61.4887,370.947 61.4887,377.947" style="fill:none;stroke:black;stroke-width:1" />
  <polyline points="124.8964,370.947 124.8964,377.947" style="fill:none;stroke:black;stroke-width:1" />
  <polyline points="190.4177,370.947 190.4177,377.947" style="fill:none;stroke:black;stroke-width:1" />
  <polyline points="253.8255,370.947 253.8255,377.947" style="fill:none;stroke:black;stroke-width:1" />
  <polyline points="319.3468,370.947 319.3468,377.947" style="fill:none;stroke:black;stroke-width:1" />
  <polyline points="384.8681,370.947 384.8681,377.947" style="fill:none;stroke:black;stroke-width:1" />
  <polyline points="444.0486,370.947 444.0486,377.947" style="fill:none;stroke:black;stroke-width:1" />
  <polyline points="509.57,370.947 509.57,377.947" style="fill:none;stroke:black;stroke-width:1" />
  <polyline points="572.9777,370.947 572.9777,377.947" style="fill:none;stroke:black;stroke-width:1" />
  <polyline points="34.012,356.8142 36.1256,356.3899 38.2392,362.471 44.58,358.5112 46.6935,362.471 48.8071,363.0367 50.9207,363.6024 53.0343,362.471 59.3751,366.9965 61.4887,365.2994 63.6023,365.8651 65.7159,365.2994 67.8295,365.2994 74.1702,365.8651 76.2838,367.5622 78.3974,365.8651 80.511,365.2994 82.6246,363.0367 88.9654,356.8142 91.079,352.2887 93.1925,347.1975 95.3061,346.6319 97.4197,342.1064 103.7605,347.7632 105.8741,348.3289 107.9877,352.2887 110.1013,350.5916 112.2149,351.723 118.5556,335.8838 120.6692,336.4495 122.7828,335.3182 124.8964,325.1358 127.01,319.479 133.3508,312.6908 135.4644,313.8222 137.578,305.9026 139.6915,304.7528 141.8051,307.6498 148.1459,292.5852 150.2595,290.847 152.3731,285.6323 154.4867,275.2029 156.6003,253.1854 162.941,230.5885 165.0546,225.9532 167.1682,221.8974 169.2818,202.7769 171.3954,202.1975 177.7362,137.3037 179.8498,132.0891 181.9634,129.192 184.077,131.5096 186.1905,98.4834 192.5313,118.1833 194.6449,107.7539 196.7585,108.9127 198.8721,101.3804 200.9857,119.3421 207.3265,90.9511 209.44,84.5776 211.5536,58.5042 215.7808,32.4308 222.1216,61.4012 224.2352,75.8864 226.3488,84.5776 228.4624,65.3847 230.576,120.5009 236.9167,167.433 239.0303,150.6301 241.1439,153.5272 243.2575,208.571 245.3711,185.974 251.7119,188.8711 253.8255,213.7856 255.939,225.9532 258.0526,198.1416 260.1662,202.1975 266.507,179.0211 268.6206,181.3388 270.7342,179.6005 272.8478,151.2095 274.9614,173.2271 281.3021,154.1066 283.4157,144.2566 285.5293,132.6685 287.6429,145.4155 289.7565,134.4067 296.0973,116.445 298.2109,117.0244 300.3245,140.7802 310.8924,157.0036 313.006,154.686 315.1196,134.4067 317.2332,136.3622 325.6875,211.468 327.8011,235.2238 329.9147,250.8678 332.0283,236.962 334.1419,215.9584 342.5963,192.9269 344.7099,195.2446 346.8235,217.2621 348.937,247.3913 355.2778,255.9086 357.3914,275.7823 359.505,267.0912 361.6186,285.0529 363.7322,285.6323 370.073,272.3059 374.3001,279.8382 376.4137,259.5589 378.5273,247.9707 384.8681,264.1942 386.9817,278.3173 389.0953,272.3059 391.2089,279.8382 393.3225,290.847 399.6632,293.744 401.7768,290.847 403.8904,275.2029 406.004,276.3617 408.1176,269.4088 414.4584,283.8941 416.572,285.6323 418.6855,306.491 420.7991,313.4439 422.9127,329.6673 429.2535,329.6673 431.3671,330.8261 433.4807,321.5556 435.5943,322.135 437.7079,317.4997 444.0486,329.0879 446.1622,327.9291 448.2758,323.8732 450.3894,300.6969 452.503,294.9028 458.8438,265.353 460.9574,265.353 463.071,263.6148 465.1845,278.6794 467.2981,272.3059 473.6389,261.8765 475.7525,262.4559 477.8661,254.9236 479.9797,226.5326 482.0933,208.571 488.434,200.4592 490.5476,199.8798 492.6612,204.5151 494.7748,192.9269 496.8884,205.6739 503.2292,224.215 505.3428,220.7385 507.4564,227.6914 509.57,243.9149 511.6835,218.4209 520.1379,205.0945 522.2515,220.1591 524.3651,201.6181 526.4787,235.2238 532.8195,225.8953 534.933,216.1033 537.0466,168.0124 539.1602,188.8711 541.2738,184.8152 547.6146,176.1241 549.7282,157.0036 551.8418,162.2183 553.9554,148.3125 556.069,123.9773 562.4097,104.8569 564.5233,121.0803 566.6369,135.5655 568.7505,129.7714 570.8641,132.6685 577.2049,158.7418 579.3185,146.5743 581.432,140.2008 583.5456,173.8065 585.6592,194.0858 592,203.9357" style="fill:none;stroke:rgb(31,119,180);stroke-width:2;stroke-linejoin:bevel" />
  <text dominant-baseline="hanging" text-anchor="middle" transform="translate(313.006,8)" font-family="Segoe UI" font-size="18" font-weight="700" fill="black">7-Tage-Inzidenz Stadt Aachen 10.05.2021</text>
  <polygon points="34.012,29.0795 592,29.0795 592,370.947 34.012,370.947" style="fill:none;stroke:black;stroke-width:1" />
  <polygon points="42.012,37.0795 247.014,37.0795 247.014,63.1325 42.012,63.1325" style="fill:none;stroke:none;" />
  <text dominant-baseline="hanging" text-anchor="start" transform="translate(70.012,45.0795)" font-family="Segoe UI" font-size="12" font-weight="400" fill="black">7-Tage-Inzidenz Stadt Aachen 10.05.2021</text>
  <polyline points="50.012,50.106 66.012,50.106" style="fill:none;stroke:rgb(31,119,180);stroke-width:2" />
</svg>