<?xml version="1.0" encoding="utf-8" standalone="no"?>
<!DOCTYPE svg PUBLIC "-//W3C//DTD SVG 1.1//EN" "http://www.w3.org/Graphics/SVG/1.1/DTD/svg11.dtd">
<svg width="600" height="400" version="1.1" xmlns:xlink="http://www.w3.org/1999/xlink" xmlns="http://www.w3.org/2000/svg">
  <rect x="0" y="0" width="600" height="400" style="fill:rgb(255,255,255);stroke:none;" />
  <polyline points="34.012,353.4851 30.012,353.4851" style="fill:none;stroke:black;stroke-width:1" />
  <polyline points="34.012,339.4649 30.012,339.4649" style="fill:none;stroke:black;stroke-width:1" />
  <polyline points="34.012,325.4447 30.012,325.4447" style="fill:none;stroke:black;stroke-width:1" />
  <polyline points="34.012,311.4245 30.012,311.4245" style="fill:none;stroke:black;stroke-width:1" />
  <polyline points="34.012,283.3841 30.012,283.3841" style="fill:none;stroke:black;stroke-width:1" />
  <polyline points="34.012,269.3639 30.012,269.3639" style="fill:none;stroke:black;stroke-width:1" />
  <polyline points="34.012,255.3438 30.012,255.3438" style="fill:none;stroke:black;stroke-width:1" />
  <polyline points="34.012,241.3236 30.012,241.3236" style="fill:none;stroke:black;stroke-width:1" />
  <polyline points="34.012,213.2832 30.012,213.2832" style="fill:none;stroke:black;stroke-width:1" />
  <polyline points="34.012,199.263 30.012,199.263" style="fill:none;stroke:black;stroke-width:1" />
  <polyline points="34.012,185.2428 30.012,185.2428" style="fill:none;stroke:black;stroke-width:1" />
  <polyline points="34.012,171.2226 30.012,171.2226" style="fill:none;stroke:black;stroke-width:1" />
  <polyline points="34.012,143.1822 30.012,143.1822" style="fill:none;stroke:black;stroke-width:1" />
  <polyline points="34.012,129.162 30.012,129.162" style="fill:none;stroke:black;stroke-width:1" />
  <polyline points="34.012,115.1418 30.012,115.1418" style="fill:none;stroke:black;stroke-width:1" />
  <polyline points="34.012,101.1216 30.012,101.1216" style="fill:none;stroke:black;stroke-width:1" />
  <polyline points="34.012,73.0813 30.012,73.0813" style="fill:none;stroke:black;stroke-width:1" />
  <polyline points="34.012,59.0611 30.012,59.0611" style="fill:none;stroke:black;stroke-width:1" />
  <polyline points="34.012,45.0409 30.012,45.0409" style="fill:none;stroke:black;stroke-width:1" />
  <polyline points="34.012,31.0207 30.012,31.0207" style="fill:none;stroke:black;stroke-width:1" />
  <text dominant-baseline="middle" text-anchor="end" transform="translate(23.012,367.5053)" font-family="Segoe UI" font-size="12" font-weight="400" fill="black">0</text>
  <text dominant-baseline="middle" text-anchor="end" transform="translate(23.012,297.4043)" font-family="Segoe UI" font-size="12" font-weight="400" fill="black">50</text>
  <text dominant-baseline="middle" text-anchor="end" transform="translate(23.012,227.3034)" font-family="Segoe UI" font-size="12" font-weight="400" fill="black">100</text>
  <text dominant-baseline="middle" text-anchor="end" transform="translate(23.012,157.2024)" font-family="Segoe UI" font-size="12" font-weight="400" fill="black">150</text>
  <text dominant-baseline="middle" text-anchor="end" transform="translate(23.012,87.1015)" font-family="Segoe UI" font-size="12" font-weight="400" fill="black">200</text>
  <polyline points="34.012,367.5053 27.012,367.5053" style="fill:none;stroke:black;stroke-width:1" />
  <polyline points="34.012,297.4043 27.012,297.4043" style="fill:none;stroke:black;stroke-width:1" />
  <polyline points="34.012,227.3034 27.012,227.3034" style="fill:none;stroke:black;stroke-width:1" />
  <polyline points="34.012,157.2024 27.012,157.2024" style="fill:none;stroke:black;stroke-width:1" />
  <polyline points="34.012,87.1015 27.012,87.1015" style="fill:none;stroke:black;stroke-width:1" />
  <text dominant-baseline="hanging" text-anchor="middle" transform="translate(239.8154,381.947)" font-family="Segoe UI" font-size="12" font-weight="400" fill="black">01. January</text>
  <polyline points="239.8154,370.947 239.8154,377.947" style="fill:none;stroke:black;stroke-width:1" />
  <polyline points="34.012,367.5622 36.9106,367.5621 41.2586,367.5621 42.7079,367.562 44.1572,347.7121 45.6066,347.2997 47.0559,353.2102 51.4038,349.3615 52.8532,353.2102 54.3025,353.76 55.7518,354.3098 57.2011,353.2102 61.5491,357.6087 62.9984,355.9593 64.4477,356.5091 65.897,355.9593 67.3463,355.9593 71.6943,356.5091 73.1436,358.1585 74.5929,356.5091 76.0423,355.9593 77.4916,353.76 81.8395,347.7121 83.2889,343.3136 84.7382,338.3653 86.1875,337.8155 87.6368,333.417 91.9848,338.9151 93.4341,339.4649 94.8834,343.3136 96.3327,341.6642 97.7821,342.7638 102.13,327.3691 103.5793,327.9189 105.0287,326.8192 106.478,316.9226 107.9273,311.4245 112.2753,304.8268 113.7246,305.9264 115.1739,298.229 116.6232,297.1115 118.0725,299.9272 122.4205,285.2853 123.8698,283.5959 125.3191,278.5275 126.7684,268.3908 128.2178,246.9911 132.5657,225.0282 134.015,220.523 135.4644,216.581 136.9137,197.997 138.363,197.4339 142.711,134.361 144.1603,129.2927 145.6096,126.4769 147.0589,128.7295 148.5082,96.63 152.8562,115.7771 154.3055,105.6404 155.7548,106.7667 157.2042,99.4457 158.6535,116.9034 163.0014,89.309 164.4508,83.1143 165.9001,57.7726 168.7987,32.4308 173.1467,60.5883 174.596,74.6671 176.0453,83.1143 177.4946,64.46 178.9439,118.0297 183.2919,163.6449 184.7412,147.3135 186.1905,150.1292 187.6399,203.6285 189.0892,181.6657 193.4371,184.4814 194.8865,208.6969 196.3358,220.523 197.7851,193.4918 199.2344,197.4339 203.5824,174.9079 205.0317,177.1605 206.481,175.471 207.9303,147.8766 209.3797,169.2764 213.7276,150.6924 215.1769,141.1188 216.6263,129.8558 218.0756,142.2451 219.5249,131.5453 223.8729,114.0876 225.3222,114.6508 226.7715,137.7399 234.0181,153.5081 235.4674,151.2555 236.9167,131.5453 238.366,133.4459 244.1633,206.4443 245.6126,229.5334 247.062,244.7385 248.5113,231.2229 249.9606,210.8087 255.7579,188.4235 257.2072,190.6761 258.6565,212.0758 260.1058,241.3596 264.4538,249.6379 265.9031,268.954 267.3524,260.5067 268.8018,277.9644 270.2511,278.5275 274.599,265.5751 277.4977,272.896 278.947,253.1858 280.3963,241.9228 284.7443,257.691 286.1936,271.4178 287.6429,265.5751 289.0922,272.896 290.5415,283.5959 294.8895,286.4116 296.3388,283.5959 297.7881,268.3908 299.2375,269.5171 300.6868,262.7593 305.0347,276.8381 306.4841,278.5275 307.9334,298.8009 309.3827,305.5587 310.832,321.327 315.18,321.327 316.6293,322.4533 318.0786,313.4429 319.5279,314.006 320.9773,309.5008 325.3252,320.7638 326.7745,319.6375 328.2239,315.6955 329.6732,293.1694 331.1225,287.5379 335.4705,258.8173 336.9198,258.8173 338.3691,257.1278 339.8184,271.7697 341.2677,265.5751 345.6157,255.4384 347.065,256.0015 348.5143,248.6806 349.9636,221.0862 351.413,203.6285 355.7609,195.7444 357.2102,195.1813 358.6596,199.6865 360.1089,188.4235 361.5582,200.8128 365.9062,218.8336 367.3555,215.4547 368.8048,222.2125 370.2541,237.9807 371.7034,213.2021 377.5007,200.2496 378.95,214.8915 380.3994,196.8707 381.8487,229.5334 386.1966,220.4667 387.646,210.9495 389.0953,164.208 390.5446,184.4814 391.9939,180.5394 396.3419,172.0921 397.7912,153.5081 399.2405,158.5765 400.6898,145.0609 402.1391,121.4086 406.4871,102.8246 407.9364,118.5928 409.3857,132.6716 410.8351,127.0401 412.2844,129.8558 416.6323,155.1976 418.0817,143.3714 419.531,137.1768 420.9803,169.8395 422.4296,189.5498 426.7776,199.1233 428.2269,208.1337 429.6762,220.523 432.5749,188.9866 436.9228,191.8024 438.3721,177.7236 439.8215,172.0921 441.2708,176.3157 442.7201,210.9495 448.5174,257.691 449.9667,281.9064 451.416,291.48 452.8653,294.8589 457.2133,302.4614 458.6626,307.2482 460.1119,306.1219 463.0106,326.3953 467.3585,341.6004 468.8078,346.6687 470.2572,351.1739 471.7065,350.2588 473.1558,355.6791 477.5038,358.4949 478.9531,357.3686 480.4024,357.3686 481.8517,356.2423 483.301,353.4265 487.649,353.4265 489.0983,352.8634 490.5476,356.2423 491.997,359.6212 493.4463,361.3106 497.7942,360.7475 499.2436,362.4369 500.6929,359.058 502.1422,355.6791 503.5915,356.8054 507.9395,356.8054 510.8381,357.3686 513.7367,359.6212 518.0847,360.7475 520.9833,353.9897 523.882,343.2898 531.1286,332.0268 534.0272,317.9481 541.2738,316.2586 544.1725,329.7742 551.4191,329.2111 554.3177,323.0164 561.5643,294.8589 564.4629,262.7593 571.7095,253.7489 574.6082,268.3908 581.8548,201.3759 584.7534,191.8024 592,233.4755" style="fill:none;stroke:rgb(31,119,180);stroke-width:2;stroke-linejoin:bevel" />
  <text dominant-baseline="hanging" text-anchor="middle" transform="translate(313.006,8)" font-family="Segoe UI" font-size="18" font-weight="700" fill="black">7-Tage-Inzidenz Stadt Aachen 01.09.2021</text>
  <polygon points="34.012,29.0795 592,29.0795 592,370.947 34.012,370.947" style="fill:none;stroke:black;stroke-width:1" />
  <polygon points="42.012,37.0795 247.014,37.0795 247.014,63.1325 42.012,63.1325" style="fill:none;stroke:none;" />
  <text dominant-baseline="hanging" text-anchor="start" transform="translate(70.012,45.0795)" font-family="Segoe UI" font-size="12" font-weight="400" fill="black">7-Tage-Inzidenz Stadt Aachen 01.09.2021</text>
  <polyline points="50.012,50.106 66.012,50.106" style="fill:none;stroke:rgb(31,119,180);stroke-width:2" />
</svg>