<?xml version="1.0" encoding="utf-8" standalone="no"?>
<!DOCTYPE svg PUBLIC "-//W3C//DTD SVG 1.1//EN" "http://www.w3.org/Graphics/SVG/1.1/DTD/svg11.dtd">
<svg width="600" height="400" version="1.1" xmlns:xlink="http://www.w3.org/1999/xlink" xmlns="http://www.w3.org/2000/svg">
  <rect x="0" y="0" width="600" height="400" style="fill:rgb(255,255,255);stroke:none;" />
  <polyline points="39.016,349.6931 35.016,349.6931" style="fill:none;stroke:black;stroke-width:1" />
  <polyline points="39.016,331.8313 35.016,331.8313" style="fill:none;stroke:black;stroke-width:1" />
  <polyline points="39.016,313.9695 35.016,313.9695" style="fill:none;stroke:black;stroke-width:1" />
  <polyline points="39.016,296.1077 35.016,296.1077" style="fill:none;stroke:black;stroke-width:1" />
  <polyline points="39.016,260.3841 35.016,260.3841" style="fill:none;stroke:black;stroke-width:1" />
  <polyline points="39.016,242.5223 35.016,242.5223" style="fill:none;stroke:black;stroke-width:1" />
  <polyline points="39.016,224.6605 35.016,224.6605" style="fill:none;stroke:black;stroke-width:1" />
  <polyline points="39.016,206.7987 35.016,206.7987" style="fill:none;stroke:black;stroke-width:1" />
  <polyline points="39.016,171.0751 35.016,171.0751" style="fill:none;stroke:black;stroke-width:1" />
  <polyline points="39.016,153.2132 35.016,153.2132" style="fill:none;stroke:black;stroke-width:1" />
  <polyline points="39.016,135.3514 35.016,135.3514" style="fill:none;stroke:black;stroke-width:1" />
  <polyline points="39.016,117.4896 35.016,117.4896" style="fill:none;stroke:black;stroke-width:1" />
  <polyline points="39.016,81.766 35.016,81.766" style="fill:none;stroke:black;stroke-width:1" />
  <polyline points="39.016,63.9042 35.016,63.9042" style="fill:none;stroke:black;stroke-width:1" />
  <polyline points="39.016,46.0424 35.016,46.0424" style="fill:none;stroke:black;stroke-width:1" />
  <text dominant-baseline="middle" text-anchor="end" transform="translate(28.016,367.5549)" font-family="Segoe UI" font-size="12" font-weight="400" fill="black">0</text>
  <text dominant-baseline="middle" text-anchor="end" transform="translate(28.016,278.2459)" font-family="Segoe UI" font-size="12" font-weight="400" fill="black">500</text>
  <text dominant-baseline="middle" text-anchor="end" transform="translate(28.016,188.9369)" font-family="Segoe UI" font-size="12" font-weight="400" fill="black">1000</text>
  <text dominant-baseline="middle" text-anchor="end" transform="translate(28.016,99.6278)" font-family="Segoe UI" font-size="12" font-weight="400" fill="black">1500</text>
  <polyline points="39.016,367.5549 32.016,367.5549" style="fill:none;stroke:black;stroke-width:1" />
  <polyline points="39.016,278.2459 32.016,278.2459" style="fill:none;stroke:black;stroke-width:1" />
  <polyline points="39.016,188.9369 32.016,188.9369" style="fill:none;stroke:black;stroke-width:1" />
  <polyline points="39.016,99.6278 32.016,99.6278" style="fill:none;stroke:black;stroke-width:1" />
  <text dominant-baseline="hanging" text-anchor="middle" transform="translate(184.7001,381.947)" font-family="Segoe UI" font-size="12" font-weight="400" fill="black">01. January</text>
  <text dominant-baseline="hanging" text-anchor="middle" transform="translate(559.1698,381.947)" font-family="Segoe UI" font-size="12" font-weight="400" fill="black">01. January</text>
  <polyline points="184.7001,370.947 184.7001,377.947" style="fill:none;stroke:black;stroke-width:1" />
  <polyline points="559.1698,370.947 559.1698,377.947" style="fill:none;stroke:black;stroke-width:1" />
  <polyline points="39.016,367.5622 41.0679,367.5622 44.1457,367.5622 45.1717,367.5622 46.1976,365.0333 47.2236,364.9807 48.2495,365.7337 51.3273,365.2434 52.3533,365.7337 53.3792,365.8038 54.4052,365.8738 55.4311,365.7337 58.5089,366.2941 59.5349,366.084 60.5608,366.154 61.5868,366.084 62.6127,366.084 65.6906,366.154 66.7165,366.3641 67.7424,366.154 68.7684,366.084 69.7943,365.8038 72.8722,365.0333 73.8981,364.4729 74.9241,363.8425 75.95,363.7724 76.9759,363.2121 80.0538,363.9125 81.0797,363.9826 82.1057,364.4729 83.1316,364.2628 84.1576,364.4028 87.2354,362.4415 88.2613,362.5116 89.2873,362.3715 90.3132,361.1107 91.3392,360.4102 94.417,359.5696 95.4429,359.7097 96.4689,358.7291 97.4948,358.5867 98.5208,358.9454 101.5986,357.0801 102.6245,356.8648 103.6505,356.2191 104.6764,354.9277 105.7024,352.2013 108.7802,349.4033 109.8062,348.8293 110.8321,348.3271 111.858,345.9595 112.884,345.8877 115.9618,337.8522 116.9878,337.2065 118.0137,336.8478 119.0397,337.1348 120.0656,333.0453 123.1434,335.4846 124.1694,334.1932 125.1953,334.3367 126.2213,333.404 127.2472,335.6281 130.325,332.1126 131.351,331.3234 132.3769,328.0948 134.4288,324.8662 137.5067,328.4535 138.5326,330.2472 139.5585,331.3234 140.5845,328.9468 141.6104,335.7716 144.6883,341.583 145.7142,339.5024 146.7402,339.8611 147.7661,346.6769 148.792,343.8788 151.8699,344.2376 152.8958,347.3226 153.9218,348.8293 154.9477,345.3855 155.9737,345.8877 159.0515,343.0179 160.0774,343.3049 161.1034,343.0896 162.1293,339.5741 163.1553,342.3004 166.2331,339.9328 167.259,338.7132 168.285,337.2782 169.3109,338.8567 170.3369,337.4935 173.4147,335.2694 174.4407,335.3411 175.4666,338.2827 180.5963,340.2916 181.6223,340.0046 182.6482,337.4935 183.6742,337.7356 187.7779,347.0357 188.8039,349.9772 189.8298,351.9144 190.8558,350.1925 191.8817,347.5917 195.9855,344.7398 197.0114,345.0268 198.0374,347.7531 199.0633,351.4839 202.1412,352.5386 203.1671,354.9994 204.193,353.9232 205.219,356.1474 206.2449,356.2191 209.3228,354.569 211.3746,355.5017 212.4006,352.9906 213.4265,351.5556 216.5044,353.5645 217.5303,355.3133 218.5563,354.569 219.5822,355.5017 220.6081,356.8648 223.686,357.2235 224.7119,356.8648 225.7379,354.9277 226.7638,355.0712 227.7898,354.2102 230.8676,356.0039 231.8935,356.2191 232.9195,358.802 233.9454,359.6629 234.9714,361.6718 238.0492,361.6718 239.0751,361.8153 240.1011,360.6673 241.127,360.7391 242.153,360.1651 245.2308,361.6 246.2568,361.4565 247.2827,360.9543 248.3086,358.0845 249.3346,357.367 252.4124,353.708 253.4384,353.708 254.4643,353.4928 255.4903,355.3582 256.5162,354.569 259.594,353.2775 260.62,353.3493 261.6459,352.4166 262.6719,348.901 263.6978,346.6769 266.7756,345.6725 267.8016,345.6007 268.8275,346.1747 269.8535,344.7398 270.8794,346.3182 273.9573,348.6141 274.9832,348.1836 276.0091,349.0445 277.0351,351.0534 278.061,347.8966 282.1648,346.2465 283.1908,348.1118 284.2167,345.816 285.2426,349.9772 288.3205,348.8221 289.3464,347.6096 290.3724,341.6547 291.3983,344.2376 292.4243,343.7354 295.5021,342.6592 296.528,340.2916 297.554,340.9373 298.5799,339.2154 299.6059,336.2021 302.6837,333.8345 303.7096,335.8433 304.7356,337.637 305.7615,336.9195 306.7875,337.2782 309.8653,340.5068 310.8913,339.0001 311.9172,338.2109 312.9431,342.3722 313.9691,344.8833 317.0469,346.103 318.0729,347.2509 319.0988,348.8293 321.1507,344.8115 324.2285,345.1703 325.2545,343.3766 326.2804,342.6592 327.3064,343.1973 328.3323,347.6096 332.4361,353.5645 333.462,356.6496 334.488,357.8693 335.5139,358.2997 338.5917,359.2683 339.6177,359.8781 340.6436,359.7346 342.6955,362.3175 345.7734,364.2546 346.7993,364.9003 347.8252,365.4743 348.8512,365.3577 349.8771,366.0483 352.955,366.407 353.9809,366.2635 355.0069,366.2635 356.0328,366.12 357.0587,365.7613 360.1366,365.7613 361.1625,365.6895 362.1885,366.12 363.2144,366.5505 364.2404,366.7657 367.3182,366.694 368.3441,366.9092 369.3701,366.4787 370.396,366.0483 371.422,366.1918 374.4998,366.1918 376.5517,366.2635 378.6036,366.5505 381.6814,366.694 383.7333,365.833 385.7852,364.4699 390.9149,363.0349 392.9668,361.2413 398.0965,361.0261 400.1484,362.748 405.2781,362.6762 407.33,361.887 412.4597,358.2997 414.5116,354.2102 419.6414,353.0623 421.6932,354.9277 426.823,346.3899 428.8748,345.1703 434.0046,350.4795 436.0565,349.0445 443.2381,351.3404 450.4197,355.5017 455.5494,357.0083 457.6013,357.7975 462.731,358.3715 464.7829,359.8064 469.9126,361.7435 471.9645,361.7435 477.0942,361.6718 479.1461,361.6 484.2758,361.6 486.3277,359.3042 491.4575,354.6407 493.5093,349.9772 498.6391,348.8293 500.691,346.3899 505.8207,336.7043 507.8726,333.117 513.0023,329.5297 515.0542,329.3145 520.1839,316.2568 522.2358,311.0193 527.3655,314.6784 534.5471,317.046 536.599,315.4915 541.7287,325.0097 543.7806,325.2967 563.2736,320.6635 565.3254,311.2106 570.4552,251.9726 572.5071,240.6368 577.6368,204.4052 586.8703,65.2186 592,32.4308" style="fill:none;stroke:rgb(31,119,180);stroke-width:2;stroke-linejoin:bevel" />
  <text dominant-baseline="hanging" text-anchor="middle" transform="translate(315.508,8)" font-family="Segoe UI" font-size="18" font-weight="700" fill="black">7-Tage-Inzidenz Stadt Aachen 02.02.2022</text>
  <polygon points="39.016,29.0795 592,29.0795 592,370.947 39.016,370.947" style="fill:none;stroke:black;stroke-width:1" />
  <polygon points="47.016,37.0795 252.018,37.0795 252.018,63.1325 47.016,63.1325" style="fill:none;stroke:none;" />
  <text dominant-baseline="hanging" text-anchor="start" transform="translate(75.016,45.0795)" font-family="Segoe UI" font-size="12" font-weight="400" fill="black">7-Tage-Inzidenz Stadt Aachen 02.02.2022</text>
  <polyline points="55.016,50.106 71.016,50.106" style="fill:none;stroke:rgb(31,119,180);stroke-width:2" />
</svg>