<?xml version="1.0" encoding="utf-8" standalone="no"?>
<!DOCTYPE svg PUBLIC "-//W3C//DTD SVG 1.1//EN" "http://www.w3.org/Graphics/SVG/1.1/DTD/svg11.dtd">
<svg width="600" height="400" version="1.1" xmlns:xlink="http://www.w3.org/1999/xlink" xmlns="http://www.w3.org/2000/svg">
  <rect x="0" y="0" width="600" height="400" style="fill:rgb(255,255,255);stroke:none;" />
  <polyline points="34.012,344.1799 30.012,344.1799" style="fill:none;stroke:black;stroke-width:1" />
  <polyline points="34.012,320.8449 30.012,320.8449" style="fill:none;stroke:black;stroke-width:1" />
  <polyline points="34.012,297.5099 30.012,297.5099" style="fill:none;stroke:black;stroke-width:1" />
  <polyline points="34.012,274.175 30.012,274.175" style="fill:none;stroke:black;stroke-width:1" />
  <polyline points="34.012,227.505 30.012,227.505" style="fill:none;stroke:black;stroke-width:1" />
  <polyline points="34.012,204.17 30.012,204.17" style="fill:none;stroke:black;stroke-width:1" />
  <polyline points="34.012,180.8351 30.012,180.8351" style="fill:none;stroke:black;stroke-width:1" />
  <polyline points="34.012,157.5001 30.012,157.5001" style="fill:none;stroke:black;stroke-width:1" />
  <polyline points="34.012,110.8302 30.012,110.8302" style="fill:none;stroke:black;stroke-width:1" />
  <polyline points="34.012,87.4952 30.012,87.4952" style="fill:none;stroke:black;stroke-width:1" />
  <polyline points="34.012,64.1602 30.012,64.1602" style="fill:none;stroke:black;stroke-width:1" />
  <polyline points="34.012,40.8253 30.012,40.8253" style="fill:none;stroke:black;stroke-width:1" />
  <text dominant-baseline="middle" text-anchor="end" transform="translate(23.012,367.5148)" font-family="Segoe UI" font-size="12" font-weight="400" fill="black">0</text>
  <text dominant-baseline="middle" text-anchor="end" transform="translate(23.012,250.84)" font-family="Segoe UI" font-size="12" font-weight="400" fill="black">100</text>
  <text dominant-baseline="middle" text-anchor="end" transform="translate(23.012,134.1651)" font-family="Segoe UI" font-size="12" font-weight="400" fill="black">200</text>
  <polyline points="34.012,367.5148 27.012,367.5148" style="fill:none;stroke:black;stroke-width:1" />
  <polyline points="34.012,250.84 27.012,250.84" style="fill:none;stroke:black;stroke-width:1" />
  <polyline points="34.012,134.1651 27.012,134.1651" style="fill:none;stroke:black;stroke-width:1" />
  <text dominant-baseline="hanging" text-anchor="middle" transform="translate(202.9551,381.947)" font-family="Segoe UI" font-size="12" font-weight="400" fill="black">01. January</text>
  <polyline points="202.9551,370.947 202.9551,377.947" style="fill:none;stroke:black;stroke-width:1" />
  <polyline points="34.012,367.5622 36.3915,367.5621 39.9607,367.5621 41.1504,367.562 42.3402,351.0431 43.5299,350.6999 44.7197,355.6186 48.2889,352.4157 49.4786,355.6186 50.6684,356.0761 51.8581,356.5337 53.0478,355.6186 56.6171,359.279 57.8068,357.9063 58.9965,358.3639 60.1863,357.9063 61.376,357.9063 64.9452,358.3639 66.135,359.7365 67.3247,358.3639 68.5145,357.9063 69.7042,356.0761 73.2734,351.0431 74.4632,347.3827 75.6529,343.2648 76.8426,342.8072 78.0324,339.1468 81.6016,343.7223 82.7913,344.1799 83.9811,347.3827 85.1708,346.0101 86.3606,346.9252 89.9298,334.1138 91.1195,334.5713 92.3093,333.6563 93.499,325.4204 94.6887,320.8449 98.258,315.3543 99.4477,316.2694 100.6374,309.8637 101.8272,308.9337 103.0169,311.277 106.5861,299.0921 107.7759,297.6861 108.9656,293.4683 110.1554,285.0326 111.3451,267.224 114.9143,248.9466 116.1041,245.1975 117.2938,241.9169 118.4835,226.4515 119.6733,225.9828 123.2425,173.4942 124.4322,169.2763 125.622,166.9331 126.8117,168.8077 128.0014,142.0947 131.5707,158.0287 132.7604,149.5931 133.9501,150.5304 135.1399,144.4379 136.3296,158.966 139.8988,136.0022 141.0886,130.8471 142.2783,109.7579 144.6578,88.6687 148.227,112.1011 149.4168,123.8174 150.6065,130.8471 151.7962,115.3231 152.986,159.9033 156.5552,197.8639 157.7449,184.2731 158.9347,186.6163 160.1244,231.138 161.3142,212.8607 164.8834,215.2039 166.0731,235.3558 167.2629,245.1975 168.4526,222.7023 169.6423,225.9828 173.2116,207.2369 174.4013,209.1115 175.591,207.7055 176.7808,184.7417 177.9705,202.5504 181.5397,187.085 182.7295,179.1179 183.9192,169.745 185.109,180.0552 186.2987,171.1509 189.8679,156.6228 191.0577,157.0914 192.2474,176.3061 198.1961,189.4282 199.3858,187.5536 200.5756,171.1509 201.7653,172.7326 206.5243,233.4812 207.714,252.6958 208.9038,265.3494 210.0935,254.1018 211.2832,237.1133 216.0422,218.4845 217.2319,220.3591 218.4217,238.1677 219.6114,262.5375 223.1806,269.4266 224.3704,285.5013 225.5601,278.4715 226.7499,292.9996 227.9396,293.4683 231.5088,282.6894 233.8883,288.7818 235.078,272.3791 236.2678,263.0061 239.837,276.1283 241.0267,287.5516 242.2165,282.6894 243.4062,288.7818 244.596,297.6861 248.1652,300.0294 249.3549,297.6861 250.5447,285.0326 251.7344,285.9699 252.9241,280.3461 256.4934,292.0624 257.6831,293.4683 258.8728,310.3397 260.0626,315.9634 261.2523,329.0856 264.8215,329.0856 266.0113,330.0229 267.201,322.5245 268.3908,322.9932 269.5805,319.244 273.1497,328.617 274.3395,327.6797 275.5292,324.3991 276.7189,305.6532 277.9087,300.9667 281.4779,277.0656 282.6676,277.0656 283.8574,275.6596 285.0471,287.8445 286.2369,282.6894 289.8061,274.2537 290.9958,274.7223 292.1856,268.6299 293.3753,245.6661 294.565,231.138 298.1343,224.5769 299.324,224.1082 300.5137,227.8574 301.7035,218.4845 302.8932,228.7947 306.4624,243.7915 307.6522,240.9796 308.8419,246.6034 310.0317,259.7256 311.2214,239.105 315.9803,228.3261 317.1701,240.511 318.3598,225.5142 319.5496,252.6958 323.1188,245.1506 324.3085,237.2304 325.4983,198.3326 326.688,215.2039 327.8777,211.9234 331.447,204.8936 332.6367,189.4282 333.8264,193.6461 335.0162,182.3985 336.2059,162.7152 339.7751,147.2498 340.9649,160.372 342.1546,172.0882 343.3444,167.4017 344.5341,169.745 348.1033,190.8342 349.2931,180.9925 350.4828,175.8374 351.6725,203.019 352.8623,219.4218 356.4315,227.3888 357.6212,234.8872 358.811,245.1975 361.1905,218.9531 364.7597,221.2964 365.9494,209.5801 367.1392,204.8936 368.3289,208.4085 369.5186,237.2304 374.2776,276.1283 375.4673,296.2802 376.6571,304.2472 377.8468,307.0591 381.416,313.3859 382.6058,317.3694 383.7955,316.4321 386.175,333.3035 389.7442,345.957 390.934,350.1748 392.1237,353.924 393.3134,353.1625 394.5032,357.6732 398.0724,360.0165 399.2621,359.0792 400.4519,359.0792 401.6416,358.1419 402.8314,355.7986 406.4006,355.7986 407.5903,355.33 408.7801,358.1419 409.9698,360.9538 411.1595,362.3597 414.7288,361.891 415.9185,363.297 417.1082,360.4851 418.298,357.6732 419.4877,358.6105 423.0569,358.6105 425.4364,359.0792 427.8159,360.9538 431.3851,361.891 433.7646,356.2673 436.1441,347.3629 442.0928,337.99 444.4723,326.2737 450.421,324.8678 452.8004,336.1154 458.7491,335.6467 461.1286,330.4916 467.0773,307.0591 469.4568,280.3461 475.4055,272.8477 477.785,285.0326 483.7337,229.2634 486.1132,221.2964 492.0619,255.9764 494.4413,246.6034 502.7695,261.6002 511.0977,288.7818 517.0464,298.6234 519.4259,303.7786 525.3746,307.5278 527.754,316.9007 533.7027,329.5543 536.0822,329.5543 542.0309,329.0856 544.4104,328.617 550.3591,328.617 552.7386,313.6202 558.6873,283.158 561.0668,252.6958 567.0155,245.1975 569.3949,229.2634 575.3436,165.9958 577.7231,142.5633 583.6718,119.1309 586.0513,117.7249 592,32.4308" style="fill:none;stroke:rgb(31,119,180);stroke-width:2;stroke-linejoin:bevel" />
  <text dominant-baseline="hanging" text-anchor="middle" transform="translate(313.006,8)" font-family="Segoe UI" font-size="18" font-weight="700" fill="black">7-Tage-Inzidenz Stadt Aachen 24.11.2021</text>
  <polygon points="34.012,29.0795 592,29.0795 592,370.947 34.012,370.947" style="fill:none;stroke:black;stroke-width:1" />
  <polygon points="42.012,37.0795 247.014,37.0795 247.014,63.1325 42.012,63.1325" style="fill:none;stroke:none;" />
  <text dominant-baseline="hanging" text-anchor="start" transform="translate(70.012,45.0795)" font-family="Segoe UI" font-size="12" font-weight="400" fill="black">7-Tage-Inzidenz Stadt Aachen 24.11.2021</text>
  <polyline points="50.012,50.106 66.012,50.106" style="fill:none;stroke:rgb(31,119,180);stroke-width:2" />
</svg>