<?xml version="1.0" encoding="utf-8" standalone="no"?>
<!DOCTYPE svg PUBLIC "-//W3C//DTD SVG 1.1//EN" "http://www.w3.org/Graphics/SVG/1.1/DTD/svg11.dtd">
<svg width="600" height="400" version="1.1" xmlns:xlink="http://www.w3.org/1999/xlink" xmlns="http://www.w3.org/2000/svg">
  <rect x="0" y="0" width="600" height="400" style="fill:rgb(255,255,255);stroke:none;" />
  <polyline points="34.012,353.4851 30.012,353.4851" style="fill:none;stroke:black;stroke-width:1" />
  <polyline points="34.012,339.4649 30.012,339.4649" style="fill:none;stroke:black;stroke-width:1" />
  <polyline points="34.012,325.4447 30.012,325.4447" style="fill:none;stroke:black;stroke-width:1" />
  <polyline points="34.012,311.4245 30.012,311.4245" style="fill:none;stroke:black;stroke-width:1" />
  <polyline points="34.012,283.3841 30.012,283.3841" style="fill:none;stroke:black;stroke-width:1" />
  <polyline points="34.012,269.3639 30.012,269.3639" style="fill:none;stroke:black;stroke-width:1" />
  <polyline points="34.012,255.3438 30.012,255.3438" style="fill:none;stroke:black;stroke-width:1" />
  <polyline points="34.012,241.3236 30.012,241.3236" style="fill:none;stroke:black;stroke-width:1" />
  <polyline points="34.012,213.2832 30.012,213.2832" style="fill:none;stroke:black;stroke-width:1" />
  <polyline points="34.012,199.263 30.012,199.263" style="fill:none;stroke:black;stroke-width:1" />
  <polyline points="34.012,185.2428 30.012,185.2428" style="fill:none;stroke:black;stroke-width:1" />
  <polyline points="34.012,171.2226 30.012,171.2226" style="fill:none;stroke:black;stroke-width:1" />
  <polyline points="34.012,143.1822 30.012,143.1822" style="fill:none;stroke:black;stroke-width:1" />
  <polyline points="34.012,129.162 30.012,129.162" style="fill:none;stroke:black;stroke-width:1" />
  <polyline points="34.012,115.1418 30.012,115.1418" style="fill:none;stroke:black;stroke-width:1" />
  <polyline points="34.012,101.1216 30.012,101.1216" style="fill:none;stroke:black;stroke-width:1" />
  <polyline points="34.012,73.0813 30.012,73.0813" style="fill:none;stroke:black;stroke-width:1" />
  <polyline points="34.012,59.0611 30.012,59.0611" style="fill:none;stroke:black;stroke-width:1" />
  <polyline points="34.012,45.0409 30.012,45.0409" style="fill:none;stroke:black;stroke-width:1" />
  <polyline points="34.012,31.0207 30.012,31.0207" style="fill:none;stroke:black;stroke-width:1" />
  <text dominant-baseline="middle" text-anchor="end" transform="translate(23.012,367.5053)" font-family="Segoe UI" font-size="12" font-weight="400" fill="black">0</text>
  <text dominant-baseline="middle" text-anchor="end" transform="translate(23.012,297.4043)" font-family="Segoe UI" font-size="12" font-weight="400" fill="black">50</text>
  <text dominant-baseline="middle" text-anchor="end" transform="translate(23.012,227.3034)" font-family="Segoe UI" font-size="12" font-weight="400" fill="black">100</text>
  <text dominant-baseline="middle" text-anchor="end" transform="translate(23.012,157.2024)" font-family="Segoe UI" font-size="12" font-weight="400" fill="black">150</text>
  <text dominant-baseline="middle" text-anchor="end" transform="translate(23.012,87.1015)" font-family="Segoe UI" font-size="12" font-weight="400" fill="black">200</text>
  <polyline points="34.012,367.5053 27.012,367.5053" style="fill:none;stroke:black;stroke-width:1" />
  <polyline points="34.012,297.4043 27.012,297.4043" style="fill:none;stroke:black;stroke-width:1" />
  <polyline points="34.012,227.3034 27.012,227.3034" style="fill:none;stroke:black;stroke-width:1" />
  <polyline points="34.012,157.2024 27.012,157.2024" style="fill:none;stroke:black;stroke-width:1" />
  <polyline points="34.012,87.1015 27.012,87.1015" style="fill:none;stroke:black;stroke-width:1" />
  <text dominant-baseline="hanging" text-anchor="middle" transform="translate(212.8705,381.947)" font-family="Segoe UI" font-size="12" font-weight="400" fill="black">01. January</text>
  <polyline points="212.8705,370.947 212.8705,377.947" style="fill:none;stroke:black;stroke-width:1" />
  <polyline points="34.012,367.5622 36.5311,367.5621 40.3098,367.5621 41.5694,367.562 42.829,347.7121 44.0885,347.2997 45.3481,353.2102 49.1268,349.3615 50.3864,353.2102 51.6459,353.76 52.9055,354.3098 54.1651,353.2102 57.9438,357.6087 59.2033,355.9593 60.4629,356.5091 61.7225,355.9593 62.982,355.9593 66.7607,356.5091 68.0203,358.1585 69.2799,356.5091 70.5394,355.9593 71.799,353.76 75.5777,347.7121 76.8373,343.3136 78.0968,338.3653 79.3564,337.8155 80.616,333.417 84.3947,338.9151 85.6542,339.4649 86.9138,343.3136 88.1734,341.6642 89.4329,342.7638 93.2116,327.3691 94.4712,327.9189 95.7308,326.8192 96.9903,316.9226 98.2499,311.4245 102.0286,304.8268 103.2882,305.9264 104.5477,298.229 105.8073,297.1115 107.0669,299.9272 110.8456,285.2853 112.1051,283.5959 113.3647,278.5275 114.6243,268.3908 115.8838,246.9911 119.6625,225.0282 120.9221,220.523 122.1817,216.581 123.4412,197.997 124.7008,197.4339 128.4795,134.361 129.7391,129.2927 130.9986,126.4769 132.2582,128.7295 133.5178,96.63 137.2965,115.7771 138.556,105.6404 139.8156,106.7667 141.0752,99.4457 142.3347,116.9034 146.1134,89.309 147.373,83.1143 148.6326,57.7726 151.1517,32.4308 154.9304,60.5883 156.19,74.6671 157.4495,83.1143 158.7091,64.46 159.9687,118.0297 163.7474,163.6449 165.0069,147.3135 166.2665,150.1292 167.5261,203.6285 168.7856,181.6657 172.5643,184.4814 173.8239,208.6969 175.0835,220.523 176.343,193.4918 177.6026,197.4339 181.3813,174.9079 182.6409,177.1605 183.9004,175.471 185.16,147.8766 186.4196,169.2764 190.1983,150.6924 191.4578,141.1188 192.7174,129.8558 193.977,142.2451 195.2365,131.5453 199.0152,114.0876 200.2748,114.6508 201.5344,137.7399 207.8322,153.5081 209.0918,151.2555 210.3513,131.5453 211.6109,133.4459 216.6492,206.4443 217.9087,229.5334 219.1683,244.7385 220.4279,231.2229 221.6874,210.8087 226.7257,188.4235 227.9853,190.6761 229.2448,212.0758 230.5044,241.3596 234.2831,249.6379 235.5427,268.954 236.8022,260.5067 238.0618,277.9644 239.3214,278.5275 243.1001,265.5751 245.6192,272.896 246.8788,253.1858 248.1383,241.9228 251.917,257.691 253.1766,271.4178 254.4362,265.5751 255.6957,272.896 256.9553,283.5959 260.734,286.4116 261.9936,283.5959 263.2531,268.3908 264.5127,269.5171 265.7723,262.7593 269.551,276.8381 270.8105,278.5275 272.0701,298.8009 273.3297,305.5587 274.5892,321.327 278.3679,321.327 279.6275,322.4533 280.8871,313.4429 282.1466,314.006 283.4062,309.5008 287.1849,320.7638 288.4445,319.6375 289.704,315.6955 290.9636,293.1694 292.2232,287.5379 296.0019,258.8173 297.2614,258.8173 298.521,257.1278 299.7806,271.7697 301.0401,265.5751 304.8188,255.4384 306.0784,256.0015 307.338,248.6806 308.5975,221.0862 309.8571,203.6285 313.6358,195.7444 314.8953,195.1813 316.1549,199.6865 317.4145,188.4235 318.674,200.8128 322.4527,218.8336 323.7123,215.4547 324.9719,222.2125 326.2314,237.9807 327.491,213.2021 332.5293,200.2496 333.7888,214.8915 335.0484,196.8707 336.308,229.5334 340.0867,220.4667 341.3462,210.9495 342.6058,164.208 343.8654,184.4814 345.1249,180.5394 348.9036,172.0921 350.1632,153.5081 351.4228,158.5765 352.6823,145.0609 353.9419,121.4086 357.7206,102.8246 358.9802,118.5928 360.2397,132.6716 361.4993,127.0401 362.7589,129.8558 366.5376,155.1976 367.7971,143.3714 369.0567,137.1768 370.3163,169.8395 371.5758,189.5498 375.3545,199.1233 376.6141,208.1337 377.8737,220.523 380.3928,188.9866 384.1715,191.8024 385.4311,177.7236 386.6906,172.0921 387.9502,176.3157 389.2098,210.9495 394.248,257.691 395.5076,281.9064 396.7672,291.48 398.0267,294.8589 401.8054,302.4614 403.065,307.2482 404.3246,306.1219 406.8437,326.3953 410.6224,341.6004 411.882,346.6687 413.1415,351.1739 414.4011,350.2588 415.6607,355.6791 419.4394,358.4949 420.6989,357.3686 421.9585,357.3686 423.2181,356.2423 424.4776,353.4265 428.2563,353.4265 429.5159,352.8634 430.7755,356.2423 432.035,359.6212 433.2946,361.3106 437.0733,360.7475 438.3329,362.4369 439.5924,359.058 440.852,355.6791 442.1116,356.8054 445.8903,356.8054 448.4094,357.3686 450.9285,359.6212 454.7072,360.7475 457.2264,353.9897 459.7455,343.2898 466.0433,332.0268 468.5625,317.9481 474.8603,316.2586 477.3794,329.7742 483.6773,329.2111 486.1964,323.0164 492.4942,294.8589 495.0134,262.7593 501.3112,253.7489 503.8303,268.3908 510.1282,201.3759 512.6473,191.8024 518.9451,233.4755 521.4643,222.2125 530.2812,240.2333 539.0982,272.896 545.396,284.7222 547.9152,290.9168 554.213,295.422 556.7321,306.6851 563.03,321.8901 565.5491,321.8901 571.8469,321.327 574.3661,320.7638 580.6639,320.7638 583.183,302.743 589.4809,266.1382 592,229.5334" style="fill:none;stroke:rgb(31,119,180);stroke-width:2;stroke-linejoin:bevel" />
  <text dominant-baseline="hanging" text-anchor="middle" transform="translate(313.006,8)" font-family="Segoe UI" font-size="18" font-weight="700" fill="black">7-Tage-Inzidenz Stadt Aachen 29.10.2021</text>
  <polygon points="34.012,29.0795 592,29.0795 592,370.947 34.012,370.947" style="fill:none;stroke:black;stroke-width:1" />
  <polygon points="42.012,37.0795 247.014,37.0795 247.014,63.1325 42.012,63.1325" style="fill:none;stroke:none;" />
  <text dominant-baseline="hanging" text-anchor="start" transform="translate(70.012,45.0795)" font-family="Segoe UI" font-size="12" font-weight="400" fill="black">7-Tage-Inzidenz Stadt Aachen 29.10.2021</text>
  <polyline points="50.012,50.106 66.012,50.106" style="fill:none;stroke:rgb(31,119,180);stroke-width:2" />
</svg>