<?xml version="1.0" encoding="utf-8" standalone="no"?>
<!DOCTYPE svg PUBLIC "-//W3C//DTD SVG 1.1//EN" "http://www.w3.org/Graphics/SVG/1.1/DTD/svg11.dtd">
<svg width="600" height="400" version="1.1" xmlns:xlink="http://www.w3.org/1999/xlink" xmlns="http://www.w3.org/2000/svg">
  <rect x="0" y="0" width="600" height="400" style="fill:rgb(255,255,255);stroke:none;" />
  <polyline points="34.012,362.7539 30.012,362.7539" style="fill:none;stroke:black;stroke-width:1" />
  <polyline points="34.012,348.3289 30.012,348.3289" style="fill:none;stroke:black;stroke-width:1" />
  <polyline points="34.012,333.904 30.012,333.904" style="fill:none;stroke:black;stroke-width:1" />
  <polyline points="34.012,319.479 30.012,319.479" style="fill:none;stroke:black;stroke-width:1" />
  <polyline points="34.012,290.6291 30.012,290.6291" style="fill:none;stroke:black;stroke-width:1" />
  <polyline points="34.012,276.2041 30.012,276.2041" style="fill:none;stroke:black;stroke-width:1" />
  <polyline points="34.012,261.7792 30.012,261.7792" style="fill:none;stroke:black;stroke-width:1" />
  <polyline points="34.012,247.3542 30.012,247.3542" style="fill:none;stroke:black;stroke-width:1" />
  <polyline points="34.012,218.5043 30.012,218.5043" style="fill:none;stroke:black;stroke-width:1" />
  <polyline points="34.012,204.0794 30.012,204.0794" style="fill:none;stroke:black;stroke-width:1" />
  <polyline points="34.012,189.6544 30.012,189.6544" style="fill:none;stroke:black;stroke-width:1" />
  <polyline points="34.012,175.2295 30.012,175.2295" style="fill:none;stroke:black;stroke-width:1" />
  <polyline points="34.012,146.3796 30.012,146.3796" style="fill:none;stroke:black;stroke-width:1" />
  <polyline points="34.012,131.9546 30.012,131.9546" style="fill:none;stroke:black;stroke-width:1" />
  <polyline points="34.012,117.5297 30.012,117.5297" style="fill:none;stroke:black;stroke-width:1" />
  <polyline points="34.012,103.1047 30.012,103.1047" style="fill:none;stroke:black;stroke-width:1" />
  <polyline points="34.012,74.2548 30.012,74.2548" style="fill:none;stroke:black;stroke-width:1" />
  <polyline points="34.012,59.8299 30.012,59.8299" style="fill:none;stroke:black;stroke-width:1" />
  <polyline points="34.012,45.4049 30.012,45.4049" style="fill:none;stroke:black;stroke-width:1" />
  <polyline points="34.012,30.98 30.012,30.98" style="fill:none;stroke:black;stroke-width:1" />
  <text dominant-baseline="middle" text-anchor="end" transform="translate(23.012,305.0541)" font-family="Segoe UI" font-size="12" font-weight="400" fill="black">50</text>
  <text dominant-baseline="middle" text-anchor="end" transform="translate(23.012,232.9293)" font-family="Segoe UI" font-size="12" font-weight="400" fill="black">100</text>
  <text dominant-baseline="middle" text-anchor="end" transform="translate(23.012,160.8045)" font-family="Segoe UI" font-size="12" font-weight="400" fill="black">150</text>
  <text dominant-baseline="middle" text-anchor="end" transform="translate(23.012,88.6798)" font-family="Segoe UI" font-size="12" font-weight="400" fill="black">200</text>
  <polyline points="34.012,305.0541 27.012,305.0541" style="fill:none;stroke:black;stroke-width:1" />
  <polyline points="34.012,232.9293 27.012,232.9293" style="fill:none;stroke:black;stroke-width:1" />
  <polyline points="34.012,160.8045 27.012,160.8045" style="fill:none;stroke:black;stroke-width:1" />
  <polyline points="34.012,88.6798 27.012,88.6798" style="fill:none;stroke:black;stroke-width:1" />
  <text dominant-baseline="hanging" text-anchor="middle" transform="translate(72.1901,381.947)" font-family="Segoe UI" font-size="12" font-weight="400" fill="black">01. September</text>
  <text dominant-baseline="hanging" text-anchor="middle" transform="translate(160.2935,381.947)" font-family="Segoe UI" font-size="12" font-weight="400" fill="black">01. October</text>
  <text dominant-baseline="hanging" text-anchor="middle" transform="translate(251.3336,381.947)" font-family="Segoe UI" font-size="12" font-weight="400" fill="black">01. November</text>
  <text dominant-baseline="hanging" text-anchor="middle" transform="translate(339.437,381.947)" font-family="Segoe UI" font-size="12" font-weight="400" fill="black">01. December</text>
  <text dominant-baseline="hanging" text-anchor="middle" transform="translate(430.4772,381.947)" font-family="Segoe UI" font-size="12" font-weight="400" fill="black">01. January</text>
  <text dominant-baseline="hanging" text-anchor="middle" transform="translate(521.5173,381.947)" font-family="Segoe UI" font-size="12" font-weight="400" fill="black">01. February</text>
  <polyline points="72.1901,370.947 72.1901,377.947" style="fill:none;stroke:black;stroke-width:1" />
  <polyline points="160.2935,370.947 160.2935,377.947" style="fill:none;stroke:black;stroke-width:1" />
  <polyline points="251.3336,370.947 251.3336,377.947" style="fill:none;stroke:black;stroke-width:1" />
  <polyline points="339.437,370.947 339.437,377.947" style="fill:none;stroke:black;stroke-width:1" />
  <polyline points="430.4772,370.947 430.4772,377.947" style="fill:none;stroke:black;stroke-width:1" />
  <polyline points="521.5173,370.947 521.5173,377.947" style="fill:none;stroke:black;stroke-width:1" />
  <polyline points="34.012,356.8142 36.9488,356.3899 39.8856,362.471 48.6959,358.5112 51.6327,362.471 54.5695,363.0367 57.5062,363.6024 60.443,362.471 69.2533,366.9965 72.1901,365.2994 75.1269,365.8651 78.0637,365.2994 81.0005,365.2994 89.8108,365.8651 92.7476,367.5622 95.6844,365.8651 98.6211,365.2994 101.5579,363.0367 110.3683,356.8142 113.305,352.2887 116.2418,347.1975 119.1786,346.6319 122.1154,342.1064 130.9257,347.7632 133.8625,348.3289 136.7993,352.2887 139.736,350.5916 142.6728,351.723 151.4832,335.8838 154.4199,336.4495 157.3567,335.3182 160.2935,325.1358 163.2303,319.479 172.0406,312.6908 174.9774,313.8222 177.9142,305.9026 180.8509,304.7528 183.7877,307.6498 192.5981,292.5852 195.5348,290.847 198.4716,285.6323 201.4084,275.2029 204.3452,253.1854 213.1555,230.5885 216.0923,225.9532 219.0291,221.8974 221.9659,202.7769 224.9026,202.1975 233.713,137.3037 236.6497,132.0891 239.5865,129.192 242.5233,131.5096 245.4601,98.4834 254.2704,118.1833 257.2072,107.7539 260.144,108.9127 263.0808,101.3804 266.0175,119.3421 274.8279,90.9511 277.7647,84.5776 280.7014,58.5042 286.575,32.4308 295.3853,61.4012 298.3221,75.8864 301.2589,84.5776 304.1957,65.3847 307.1324,120.5009 315.9428,167.433 318.8796,150.6301 321.8163,153.5272 324.7531,208.571 327.6899,185.974 336.5002,188.8711 339.437,213.7856 342.3738,225.9532 345.3106,198.1416 348.2473,202.1975 357.0577,179.0211 359.9945,181.3388 362.9312,179.6005 365.868,151.2095 368.8048,173.2271 377.6151,154.1066 380.5519,144.2566 383.4887,132.6685 386.4255,145.4155 389.3623,134.4067 398.1726,116.445 401.1094,117.0244 404.0461,140.7802 418.73,157.0036 421.6668,154.686 424.6036,134.4067 427.5404,136.3622 439.2875,211.468 442.2243,235.2238 445.1611,250.8678 448.0978,236.962 451.0346,215.9584 462.7817,192.9269 465.7185,195.2446 468.6553,217.2621 471.5921,247.3913 480.4024,255.9086 483.3392,275.7823 486.276,267.0912 489.2127,285.0529 492.1495,285.6323 500.9599,272.3059 506.8334,279.8382 509.7702,259.5589 512.707,247.9707 521.5173,264.1942 524.4541,278.3173 527.3909,272.3059 530.3276,279.8382 533.2644,290.847 542.0748,293.744 545.0115,290.847 547.9483,275.2029 550.8851,276.3617 553.8219,269.4088 562.6322,283.8941 565.569,285.6323 568.5058,306.491 571.4425,313.4439 574.3793,329.6673 583.1897,329.6673 586.1264,330.8261 589.0632,321.5556 592,322.135" style="fill:none;stroke:rgb(31,119,180);stroke-width:2;stroke-linejoin:bevel" />
  <text dominant-baseline="hanging" text-anchor="middle" transform="translate(313.006,8)" font-family="Segoe UI" font-size="18" font-weight="700" fill="black">7-Tage-Inzidenz Stadt Aachen 25.02.2021</text>
  <polygon points="34.012,29.0795 592,29.0795 592,370.947 34.012,370.947" style="fill:none;stroke:black;stroke-width:1" />
  <polygon points="42.012,37.0795 247.014,37.0795 247.014,63.1325 42.012,63.1325" style="fill:none;stroke:none;" />
  <text dominant-baseline="hanging" text-anchor="start" transform="translate(70.012,45.0795)" font-family="Segoe UI" font-size="12" font-weight="400" fill="black">7-Tage-Inzidenz Stadt Aachen 25.02.2021</text>
  <polyline points="50.012,50.106 66.012,50.106" style="fill:none;stroke:rgb(31,119,180);stroke-width:2" />
</svg>