<?xml version="1.0" encoding="utf-8" standalone="no"?>
<!DOCTYPE svg PUBLIC "-//W3C//DTD SVG 1.1//EN" "http://www.w3.org/Graphics/SVG/1.1/DTD/svg11.dtd">
<svg width="600" height="400" version="1.1" xmlns:xlink="http://www.w3.org/1999/xlink" xmlns="http://www.w3.org/2000/svg">
  <rect x="0" y="0" width="600" height="400" style="fill:rgb(255,255,255);stroke:none;" />
  <polyline points="34.012,362.7539 30.012,362.7539" style="fill:none;stroke:black;stroke-width:1" />
  <polyline points="34.012,348.3289 30.012,348.3289" style="fill:none;stroke:black;stroke-width:1" />
  <polyline points="34.012,333.904 30.012,333.904" style="fill:none;stroke:black;stroke-width:1" />
  <polyline points="34.012,319.479 30.012,319.479" style="fill:none;stroke:black;stroke-width:1" />
  <polyline points="34.012,290.6291 30.012,290.6291" style="fill:none;stroke:black;stroke-width:1" />
  <polyline points="34.012,276.2041 30.012,276.2041" style="fill:none;stroke:black;stroke-width:1" />
  <polyline points="34.012,261.7792 30.012,261.7792" style="fill:none;stroke:black;stroke-width:1" />
  <polyline points="34.012,247.3542 30.012,247.3542" style="fill:none;stroke:black;stroke-width:1" />
  <polyline points="34.012,218.5043 30.012,218.5043" style="fill:none;stroke:black;stroke-width:1" />
  <polyline points="34.012,204.0794 30.012,204.0794" style="fill:none;stroke:black;stroke-width:1" />
  <polyline points="34.012,189.6544 30.012,189.6544" style="fill:none;stroke:black;stroke-width:1" />
  <polyline points="34.012,175.2295 30.012,175.2295" style="fill:none;stroke:black;stroke-width:1" />
  <polyline points="34.012,146.3796 30.012,146.3796" style="fill:none;stroke:black;stroke-width:1" />
  <polyline points="34.012,131.9546 30.012,131.9546" style="fill:none;stroke:black;stroke-width:1" />
  <polyline points="34.012,117.5297 30.012,117.5297" style="fill:none;stroke:black;stroke-width:1" />
  <polyline points="34.012,103.1047 30.012,103.1047" style="fill:none;stroke:black;stroke-width:1" />
  <polyline points="34.012,74.2548 30.012,74.2548" style="fill:none;stroke:black;stroke-width:1" />
  <polyline points="34.012,59.8299 30.012,59.8299" style="fill:none;stroke:black;stroke-width:1" />
  <polyline points="34.012,45.4049 30.012,45.4049" style="fill:none;stroke:black;stroke-width:1" />
  <polyline points="34.012,30.98 30.012,30.98" style="fill:none;stroke:black;stroke-width:1" />
  <text dominant-baseline="middle" text-anchor="end" transform="translate(23.012,305.0541)" font-family="Segoe UI" font-size="12" font-weight="400" fill="black">50</text>
  <text dominant-baseline="middle" text-anchor="end" transform="translate(23.012,232.9293)" font-family="Segoe UI" font-size="12" font-weight="400" fill="black">100</text>
  <text dominant-baseline="middle" text-anchor="end" transform="translate(23.012,160.8045)" font-family="Segoe UI" font-size="12" font-weight="400" fill="black">150</text>
  <text dominant-baseline="middle" text-anchor="end" transform="translate(23.012,88.6798)" font-family="Segoe UI" font-size="12" font-weight="400" fill="black">200</text>
  <polyline points="34.012,305.0541 27.012,305.0541" style="fill:none;stroke:black;stroke-width:1" />
  <polyline points="34.012,232.9293 27.012,232.9293" style="fill:none;stroke:black;stroke-width:1" />
  <polyline points="34.012,160.8045 27.012,160.8045" style="fill:none;stroke:black;stroke-width:1" />
  <polyline points="34.012,88.6798 27.012,88.6798" style="fill:none;stroke:black;stroke-width:1" />
  <text dominant-baseline="hanging" text-anchor="middle" transform="translate(66.5404,381.947)" font-family="Segoe UI" font-size="12" font-weight="400" fill="black">01. September</text>
  <text dominant-baseline="hanging" text-anchor="middle" transform="translate(141.6061,381.947)" font-family="Segoe UI" font-size="12" font-weight="400" fill="black">01. October</text>
  <text dominant-baseline="hanging" text-anchor="middle" transform="translate(219.1739,381.947)" font-family="Segoe UI" font-size="12" font-weight="400" fill="black">01. November</text>
  <text dominant-baseline="hanging" text-anchor="middle" transform="translate(294.2396,381.947)" font-family="Segoe UI" font-size="12" font-weight="400" fill="black">01. December</text>
  <text dominant-baseline="hanging" text-anchor="middle" transform="translate(371.8074,381.947)" font-family="Segoe UI" font-size="12" font-weight="400" fill="black">01. January</text>
  <text dominant-baseline="hanging" text-anchor="middle" transform="translate(449.3753,381.947)" font-family="Segoe UI" font-size="12" font-weight="400" fill="black">01. February</text>
  <text dominant-baseline="hanging" text-anchor="middle" transform="translate(519.4365,381.947)" font-family="Segoe UI" font-size="12" font-weight="400" fill="black">01. March</text>
  <polyline points="66.5404,370.947 66.5404,377.947" style="fill:none;stroke:black;stroke-width:1" />
  <polyline points="141.6061,370.947 141.6061,377.947" style="fill:none;stroke:black;stroke-width:1" />
  <polyline points="219.1739,370.947 219.1739,377.947" style="fill:none;stroke:black;stroke-width:1" />
  <polyline points="294.2396,370.947 294.2396,377.947" style="fill:none;stroke:black;stroke-width:1" />
  <polyline points="371.8074,370.947 371.8074,377.947" style="fill:none;stroke:black;stroke-width:1" />
  <polyline points="449.3753,370.947 449.3753,377.947" style="fill:none;stroke:black;stroke-width:1" />
  <polyline points="519.4365,370.947 519.4365,377.947" style="fill:none;stroke:black;stroke-width:1" />
  <polyline points="34.012,356.8142 36.5142,356.3899 39.0164,362.471 46.5229,358.5112 49.0251,362.471 51.5273,363.0367 54.0295,363.6024 56.5317,362.471 64.0383,366.9965 66.5404,365.2994 69.0426,365.8651 71.5448,365.2994 74.047,365.2994 81.5536,365.8651 84.0558,367.5622 86.558,365.8651 89.0601,365.2994 91.5623,363.0367 99.0689,356.8142 101.5711,352.2887 104.0733,347.1975 106.5755,346.6319 109.0777,342.1064 116.5842,347.7632 119.0864,348.3289 121.5886,352.2887 124.0908,350.5916 126.593,351.723 134.0995,335.8838 136.6017,336.4495 139.1039,335.3182 141.6061,325.1358 144.1083,319.479 151.6149,312.6908 154.117,313.8222 156.6192,305.9026 159.1214,304.7528 161.6236,307.6498 169.1302,292.5852 171.6324,290.847 174.1345,285.6323 176.6367,275.2029 179.1389,253.1854 186.6455,230.5885 189.1477,225.9532 191.6499,221.8974 194.1521,202.7769 196.6542,202.1975 204.1608,137.3037 206.663,132.0891 209.1652,129.192 211.6674,131.5096 214.1696,98.4834 221.6761,118.1833 224.1783,107.7539 226.6805,108.9127 229.1827,101.3804 231.6849,119.3421 239.1914,90.9511 241.6936,84.5776 244.1958,58.5042 249.2002,32.4308 256.7068,61.4012 259.209,75.8864 261.7111,84.5776 264.2133,65.3847 266.7155,120.5009 274.2221,167.433 276.7243,150.6301 279.2265,153.5272 281.7286,208.571 284.2308,185.974 291.7374,188.8711 294.2396,213.7856 296.7418,225.9532 299.244,198.1416 301.7462,202.1975 309.2527,179.0211 311.7549,181.3388 314.2571,179.6005 316.7593,151.2095 319.2615,173.2271 326.768,154.1066 329.2702,144.2566 331.7724,132.6685 334.2746,145.4155 336.7768,134.4067 344.2834,116.445 346.7855,117.0244 349.2877,140.7802 361.7987,157.0036 364.3009,154.686 366.803,134.4067 369.3052,136.3622 379.314,211.468 381.8162,235.2238 384.3184,250.8678 386.8206,236.962 389.3227,215.9584 399.3315,192.9269 401.8337,195.2446 404.3359,217.2621 406.8381,247.3913 414.3446,255.9086 416.8468,275.7823 419.349,267.0912 421.8512,285.0529 424.3534,285.6323 431.8599,272.3059 436.8643,279.8382 439.3665,259.5589 441.8687,247.9707 449.3753,264.1942 451.8775,278.3173 454.3796,272.3059 456.8818,279.8382 459.384,290.847 466.8906,293.744 469.3928,290.847 471.895,275.2029 474.3971,276.3617 476.8993,269.4088 484.4059,283.8941 486.9081,285.6323 489.4103,306.491 491.9125,313.4439 494.4147,329.6673 501.9212,329.6673 504.4234,330.8261 506.9256,321.5556 509.4278,322.135 511.93,317.4997 519.4365,329.0879 521.9387,327.9291 524.4409,323.8732 526.9431,300.6969 529.4453,294.9028 536.9519,265.353 539.454,265.353 541.9562,263.6148 544.4584,278.6794 546.9606,272.3059 554.4672,261.8765 556.9694,262.4559 559.4716,254.9236 561.9737,226.5326 564.4759,208.571 571.9825,200.4592 574.4847,199.8798 576.9869,204.5151 579.4891,192.9269 581.9912,205.6739 589.4978,224.215 592,220.7385" style="fill:none;stroke:rgb(31,119,180);stroke-width:2;stroke-linejoin:bevel" />
  <text dominant-baseline="hanging" text-anchor="middle" transform="translate(313.006,8)" font-family="Segoe UI" font-size="18" font-weight="700" fill="black">7-Tage-Inzidenz Stadt Aachen 30.03.2021</text>
  <polygon points="34.012,29.0795 592,29.0795 592,370.947 34.012,370.947" style="fill:none;stroke:black;stroke-width:1" />
  <polygon points="42.012,37.0795 247.014,37.0795 247.014,63.1325 42.012,63.1325" style="fill:none;stroke:none;" />
  <text dominant-baseline="hanging" text-anchor="start" transform="translate(70.012,45.0795)" font-family="Segoe UI" font-size="12" font-weight="400" fill="black">7-Tage-Inzidenz Stadt Aachen 30.03.2021</text>
  <polyline points="50.012,50.106 66.012,50.106" style="fill:none;stroke:rgb(31,119,180);stroke-width:2" />
</svg>