<?xml version="1.0" encoding="utf-8" standalone="no"?>
<!DOCTYPE svg PUBLIC "-//W3C//DTD SVG 1.1//EN" "http://www.w3.org/Graphics/SVG/1.1/DTD/svg11.dtd">
<svg width="600" height="400" version="1.1" xmlns:xlink="http://www.w3.org/1999/xlink" xmlns="http://www.w3.org/2000/svg">
  <rect x="0" y="0" width="600" height="400" style="fill:rgb(255,255,255);stroke:none;" />
  <polyline points="34.012,353.4851 30.012,353.4851" style="fill:none;stroke:black;stroke-width:1" />
  <polyline points="34.012,339.4649 30.012,339.4649" style="fill:none;stroke:black;stroke-width:1" />
  <polyline points="34.012,325.4447 30.012,325.4447" style="fill:none;stroke:black;stroke-width:1" />
  <polyline points="34.012,311.4245 30.012,311.4245" style="fill:none;stroke:black;stroke-width:1" />
  <polyline points="34.012,283.3841 30.012,283.3841" style="fill:none;stroke:black;stroke-width:1" />
  <polyline points="34.012,269.3639 30.012,269.3639" style="fill:none;stroke:black;stroke-width:1" />
  <polyline points="34.012,255.3438 30.012,255.3438" style="fill:none;stroke:black;stroke-width:1" />
  <polyline points="34.012,241.3236 30.012,241.3236" style="fill:none;stroke:black;stroke-width:1" />
  <polyline points="34.012,213.2832 30.012,213.2832" style="fill:none;stroke:black;stroke-width:1" />
  <polyline points="34.012,199.263 30.012,199.263" style="fill:none;stroke:black;stroke-width:1" />
  <polyline points="34.012,185.2428 30.012,185.2428" style="fill:none;stroke:black;stroke-width:1" />
  <polyline points="34.012,171.2226 30.012,171.2226" style="fill:none;stroke:black;stroke-width:1" />
  <polyline points="34.012,143.1822 30.012,143.1822" style="fill:none;stroke:black;stroke-width:1" />
  <polyline points="34.012,129.162 30.012,129.162" style="fill:none;stroke:black;stroke-width:1" />
  <polyline points="34.012,115.1418 30.012,115.1418" style="fill:none;stroke:black;stroke-width:1" />
  <polyline points="34.012,101.1216 30.012,101.1216" style="fill:none;stroke:black;stroke-width:1" />
  <polyline points="34.012,73.0813 30.012,73.0813" style="fill:none;stroke:black;stroke-width:1" />
  <polyline points="34.012,59.0611 30.012,59.0611" style="fill:none;stroke:black;stroke-width:1" />
  <polyline points="34.012,45.0409 30.012,45.0409" style="fill:none;stroke:black;stroke-width:1" />
  <polyline points="34.012,31.0207 30.012,31.0207" style="fill:none;stroke:black;stroke-width:1" />
  <text dominant-baseline="middle" text-anchor="end" transform="translate(23.012,367.5053)" font-family="Segoe UI" font-size="12" font-weight="400" fill="black">0</text>
  <text dominant-baseline="middle" text-anchor="end" transform="translate(23.012,297.4043)" font-family="Segoe UI" font-size="12" font-weight="400" fill="black">50</text>
  <text dominant-baseline="middle" text-anchor="end" transform="translate(23.012,227.3034)" font-family="Segoe UI" font-size="12" font-weight="400" fill="black">100</text>
  <text dominant-baseline="middle" text-anchor="end" transform="translate(23.012,157.2024)" font-family="Segoe UI" font-size="12" font-weight="400" fill="black">150</text>
  <text dominant-baseline="middle" text-anchor="end" transform="translate(23.012,87.1015)" font-family="Segoe UI" font-size="12" font-weight="400" fill="black">200</text>
  <polyline points="34.012,367.5053 27.012,367.5053" style="fill:none;stroke:black;stroke-width:1" />
  <polyline points="34.012,297.4043 27.012,297.4043" style="fill:none;stroke:black;stroke-width:1" />
  <polyline points="34.012,227.3034 27.012,227.3034" style="fill:none;stroke:black;stroke-width:1" />
  <polyline points="34.012,157.2024 27.012,157.2024" style="fill:none;stroke:black;stroke-width:1" />
  <polyline points="34.012,87.1015 27.012,87.1015" style="fill:none;stroke:black;stroke-width:1" />
  <text dominant-baseline="hanging" text-anchor="middle" transform="translate(205.5148,381.947)" font-family="Segoe UI" font-size="12" font-weight="400" fill="black">01. January</text>
  <polyline points="205.5148,370.947 205.5148,377.947" style="fill:none;stroke:black;stroke-width:1" />
  <polyline points="34.012,367.5622 36.4275,367.5621 40.0508,367.5621 41.2586,367.562 42.4664,347.7121 43.6741,347.2997 44.8819,353.2102 48.5052,349.3615 49.713,353.2102 50.9207,353.76 52.1285,354.3098 53.3363,353.2102 56.9596,357.6087 58.1673,355.9593 59.3751,356.5091 60.5829,355.9593 61.7906,355.9593 65.4139,356.5091 66.6217,358.1585 67.8295,356.5091 69.0372,355.9593 70.245,353.76 73.8683,347.7121 75.0761,343.3136 76.2838,338.3653 77.4916,337.8155 78.6994,333.417 82.3226,338.9151 83.5304,339.4649 84.7382,343.3136 85.9459,341.6642 87.1537,342.7638 90.777,327.3691 91.9848,327.9189 93.1925,326.8192 94.4003,316.9226 95.6081,311.4245 99.2314,304.8268 100.4391,305.9264 101.6469,298.229 102.8547,297.1115 104.0624,299.9272 107.6857,285.2853 108.8935,283.5959 110.1013,278.5275 111.309,268.3908 112.5168,246.9911 116.1401,225.0282 117.3479,220.523 118.5556,216.581 119.7634,197.997 120.9712,197.4339 124.5945,134.361 125.8022,129.2927 127.01,126.4769 128.2178,128.7295 129.4255,96.63 133.0488,115.7771 134.2566,105.6404 135.4644,106.7667 136.6721,99.4457 137.8799,116.9034 141.5032,89.309 142.711,83.1143 143.9187,57.7726 146.3343,32.4308 149.9576,60.5883 151.1653,74.6671 152.3731,83.1143 153.5809,64.46 154.7886,118.0297 158.4119,163.6449 159.6197,147.3135 160.8275,150.1292 162.0352,203.6285 163.243,181.6657 166.8663,184.4814 168.0741,208.6969 169.2818,220.523 170.4896,193.4918 171.6974,197.4339 175.3206,174.9079 176.5284,177.1605 177.7362,175.471 178.9439,147.8766 180.1517,169.2764 183.775,150.6924 184.9828,141.1188 186.1905,129.8558 187.3983,142.2451 188.6061,131.5453 192.2294,114.0876 193.4371,114.6508 194.6449,137.7399 200.6837,153.5081 201.8915,151.2555 203.0993,131.5453 204.307,133.4459 209.1381,206.4443 210.3459,229.5334 211.5536,244.7385 212.7614,231.2229 213.9692,210.8087 218.8002,188.4235 220.008,190.6761 221.2158,212.0758 222.4235,241.3596 226.0468,249.6379 227.2546,268.954 228.4624,260.5067 229.6701,277.9644 230.8779,278.5275 234.5012,265.5751 236.9167,272.896 238.1245,253.1858 239.3323,241.9228 242.9556,257.691 244.1633,271.4178 245.3711,265.5751 246.5789,272.896 247.7866,283.5959 251.4099,286.4116 252.6177,283.5959 253.8255,268.3908 255.0332,269.5171 256.241,262.7593 259.8643,276.8381 261.0721,278.5275 262.2798,298.8009 263.4876,305.5587 264.6954,321.327 268.3186,321.327 269.5264,322.4533 270.7342,313.4429 271.9419,314.006 273.1497,309.5008 276.773,320.7638 277.9808,319.6375 279.1885,315.6955 280.3963,293.1694 281.6041,287.5379 285.2274,258.8173 286.4351,258.8173 287.6429,257.1278 288.8507,271.7697 290.0584,265.5751 293.6817,255.4384 294.8895,256.0015 296.0973,248.6806 297.305,221.0862 298.5128,203.6285 302.1361,195.7444 303.3439,195.1813 304.5516,199.6865 305.7594,188.4235 306.9672,200.8128 310.5905,218.8336 311.7982,215.4547 313.006,222.2125 314.2138,237.9807 315.4215,213.2021 320.2526,200.2496 321.4604,214.8915 322.6681,196.8707 323.8759,229.5334 327.4992,220.4667 328.707,210.9495 329.9147,164.208 331.1225,184.4814 332.3303,180.5394 335.9536,172.0921 337.1613,153.5081 338.3691,158.5765 339.5769,145.0609 340.7846,121.4086 344.4079,102.8246 345.6157,118.5928 346.8235,132.6716 348.0312,127.0401 349.239,129.8558 352.8623,155.1976 354.0701,143.3714 355.2778,137.1768 356.4856,169.8395 357.6934,189.5498 361.3166,199.1233 362.5244,208.1337 363.7322,220.523 366.1477,188.9866 369.771,191.8024 370.9788,177.7236 372.1865,172.0921 373.3943,176.3157 374.6021,210.9495 379.4331,257.691 380.6409,281.9064 381.8487,291.48 383.0564,294.8589 386.6797,302.4614 387.8875,307.2482 389.0953,306.1219 391.5108,326.3953 395.1341,341.6004 396.3419,346.6687 397.5496,351.1739 398.7574,350.2588 399.9652,355.6791 403.5885,358.4949 404.7962,357.3686 406.004,357.3686 407.2118,356.2423 408.4195,353.4265 412.0428,353.4265 413.2506,352.8634 414.4584,356.2423 415.6661,359.6212 416.8739,361.3106 420.4972,360.7475 421.705,362.4369 422.9127,359.058 424.1205,355.6791 425.3283,356.8054 428.9516,356.8054 431.3671,357.3686 433.7826,359.6212 437.4059,360.7475 439.8215,353.9897 442.237,343.2898 448.2758,332.0268 450.6914,317.9481 456.7302,316.2586 459.1457,329.7742 465.1845,329.2111 467.6001,323.0164 473.6389,294.8589 476.0544,262.7593 482.0933,253.7489 484.5088,268.3908 490.5476,201.3759 492.9632,191.8024 499.002,233.4755 501.4175,222.2125 509.8719,240.2333 518.3263,272.896 524.3651,284.7222 526.7806,290.9168 532.8195,295.422 535.235,306.6851 541.2738,321.8901 543.6894,321.8901 549.7282,321.327 552.1437,320.7638 558.1825,320.7638 560.5981,302.743 566.6369,266.1382 569.0524,229.5334 575.0913,220.523 577.5068,201.3759 583.5456,125.3506 585.9612,97.1931 592,69.0356" style="fill:none;stroke:rgb(31,119,180);stroke-width:2;stroke-linejoin:bevel" />
  <text dominant-baseline="hanging" text-anchor="middle" transform="translate(313.006,8)" font-family="Segoe UI" font-size="18" font-weight="700" fill="black">7-Tage-Inzidenz Stadt Aachen 17.11.2021</text>
  <polygon points="34.012,29.0795 592,29.0795 592,370.947 34.012,370.947" style="fill:none;stroke:black;stroke-width:1" />
  <polygon points="42.012,37.0795 247.014,37.0795 247.014,63.1325 42.012,63.1325" style="fill:none;stroke:none;" />
  <text dominant-baseline="hanging" text-anchor="start" transform="translate(70.012,45.0795)" font-family="Segoe UI" font-size="12" font-weight="400" fill="black">7-Tage-Inzidenz Stadt Aachen 17.11.2021</text>
  <polyline points="50.012,50.106 66.012,50.106" style="fill:none;stroke:rgb(31,119,180);stroke-width:2" />
</svg>