<?xml version="1.0" encoding="utf-8" standalone="no"?>
<!DOCTYPE svg PUBLIC "-//W3C//DTD SVG 1.1//EN" "http://www.w3.org/Graphics/SVG/1.1/DTD/svg11.dtd">
<svg width="600" height="400" version="1.1" xmlns:xlink="http://www.w3.org/1999/xlink" xmlns="http://www.w3.org/2000/svg">
  <rect x="0" y="0" width="600" height="400" style="fill:rgb(255,255,255);stroke:none;" />
  <polyline points="34.012,353.4851 30.012,353.4851" style="fill:none;stroke:black;stroke-width:1" />
  <polyline points="34.012,339.4649 30.012,339.4649" style="fill:none;stroke:black;stroke-width:1" />
  <polyline points="34.012,325.4447 30.012,325.4447" style="fill:none;stroke:black;stroke-width:1" />
  <polyline points="34.012,311.4245 30.012,311.4245" style="fill:none;stroke:black;stroke-width:1" />
  <polyline points="34.012,283.3841 30.012,283.3841" style="fill:none;stroke:black;stroke-width:1" />
  <polyline points="34.012,269.3639 30.012,269.3639" style="fill:none;stroke:black;stroke-width:1" />
  <polyline points="34.012,255.3438 30.012,255.3438" style="fill:none;stroke:black;stroke-width:1" />
  <polyline points="34.012,241.3236 30.012,241.3236" style="fill:none;stroke:black;stroke-width:1" />
  <polyline points="34.012,213.2832 30.012,213.2832" style="fill:none;stroke:black;stroke-width:1" />
  <polyline points="34.012,199.263 30.012,199.263" style="fill:none;stroke:black;stroke-width:1" />
  <polyline points="34.012,185.2428 30.012,185.2428" style="fill:none;stroke:black;stroke-width:1" />
  <polyline points="34.012,171.2226 30.012,171.2226" style="fill:none;stroke:black;stroke-width:1" />
  <polyline points="34.012,143.1822 30.012,143.1822" style="fill:none;stroke:black;stroke-width:1" />
  <polyline points="34.012,129.162 30.012,129.162" style="fill:none;stroke:black;stroke-width:1" />
  <polyline points="34.012,115.1418 30.012,115.1418" style="fill:none;stroke:black;stroke-width:1" />
  <polyline points="34.012,101.1216 30.012,101.1216" style="fill:none;stroke:black;stroke-width:1" />
  <polyline points="34.012,73.0813 30.012,73.0813" style="fill:none;stroke:black;stroke-width:1" />
  <polyline points="34.012,59.0611 30.012,59.0611" style="fill:none;stroke:black;stroke-width:1" />
  <polyline points="34.012,45.0409 30.012,45.0409" style="fill:none;stroke:black;stroke-width:1" />
  <polyline points="34.012,31.0207 30.012,31.0207" style="fill:none;stroke:black;stroke-width:1" />
  <text dominant-baseline="middle" text-anchor="end" transform="translate(23.012,367.5053)" font-family="Segoe UI" font-size="12" font-weight="400" fill="black">0</text>
  <text dominant-baseline="middle" text-anchor="end" transform="translate(23.012,297.4043)" font-family="Segoe UI" font-size="12" font-weight="400" fill="black">50</text>
  <text dominant-baseline="middle" text-anchor="end" transform="translate(23.012,227.3034)" font-family="Segoe UI" font-size="12" font-weight="400" fill="black">100</text>
  <text dominant-baseline="middle" text-anchor="end" transform="translate(23.012,157.2024)" font-family="Segoe UI" font-size="12" font-weight="400" fill="black">150</text>
  <text dominant-baseline="middle" text-anchor="end" transform="translate(23.012,87.1015)" font-family="Segoe UI" font-size="12" font-weight="400" fill="black">200</text>
  <polyline points="34.012,367.5053 27.012,367.5053" style="fill:none;stroke:black;stroke-width:1" />
  <polyline points="34.012,297.4043 27.012,297.4043" style="fill:none;stroke:black;stroke-width:1" />
  <polyline points="34.012,227.3034 27.012,227.3034" style="fill:none;stroke:black;stroke-width:1" />
  <polyline points="34.012,157.2024 27.012,157.2024" style="fill:none;stroke:black;stroke-width:1" />
  <polyline points="34.012,87.1015 27.012,87.1015" style="fill:none;stroke:black;stroke-width:1" />
  <text dominant-baseline="hanging" text-anchor="middle" transform="translate(204.7756,381.947)" font-family="Segoe UI" font-size="12" font-weight="400" fill="black">01. January</text>
  <polyline points="204.7756,370.947 204.7756,377.947" style="fill:none;stroke:black;stroke-width:1" />
  <polyline points="34.012,367.5622 36.4171,367.5621 40.0248,367.5621 41.2274,367.562 42.4299,347.7121 43.6325,347.2997 44.835,353.2102 48.4427,349.3615 49.6453,353.2102 50.8478,353.76 52.0504,354.3098 53.253,353.2102 56.8606,357.6087 58.0632,355.9593 59.2658,356.5091 60.4683,355.9593 61.6709,355.9593 65.2786,356.5091 66.4811,358.1585 67.6837,356.5091 68.8863,355.9593 70.0888,353.76 73.6965,347.7121 74.8991,343.3136 76.1016,338.3653 77.3042,337.8155 78.5067,333.417 82.1144,338.9151 83.317,339.4649 84.5195,343.3136 85.7221,341.6642 86.9247,342.7638 90.5323,327.3691 91.7349,327.9189 92.9375,326.8192 94.14,316.9226 95.3426,311.4245 98.9503,304.8268 100.1528,305.9264 101.3554,298.229 102.5579,297.1115 103.7605,299.9272 107.3682,285.2853 108.5707,283.5959 109.7733,278.5275 110.9759,268.3908 112.1784,246.9911 115.7861,225.0282 116.9887,220.523 118.1912,216.581 119.3938,197.997 120.5963,197.4339 124.204,134.361 125.4066,129.2927 126.6091,126.4769 127.8117,128.7295 129.0143,96.63 132.6219,115.7771 133.8245,105.6404 135.0271,106.7667 136.2296,99.4457 137.4322,116.9034 141.0399,89.309 142.2424,83.1143 143.445,57.7726 145.8501,32.4308 149.4578,60.5883 150.6604,74.6671 151.8629,83.1143 153.0655,64.46 154.268,118.0297 157.8757,163.6449 159.0783,147.3135 160.2808,150.1292 161.4834,203.6285 162.686,181.6657 166.2936,184.4814 167.4962,208.6969 168.6988,220.523 169.9013,193.4918 171.1039,197.4339 174.7116,174.9079 175.9141,177.1605 177.1167,175.471 178.3192,147.8766 179.5218,169.2764 183.1295,150.6924 184.332,141.1188 185.5346,129.8558 186.7372,142.2451 187.9397,131.5453 191.5474,114.0876 192.75,114.6508 193.9525,137.7399 199.9653,153.5081 201.1679,151.2555 202.3704,131.5453 203.573,133.4459 208.3833,206.4443 209.5858,229.5334 210.7884,244.7385 211.9909,231.2229 213.1935,210.8087 218.0037,188.4235 219.2063,190.6761 220.4089,212.0758 221.6114,241.3596 225.2191,249.6379 226.4217,268.954 227.6242,260.5067 228.8268,277.9644 230.0293,278.5275 233.637,265.5751 236.0421,272.896 237.2447,253.1858 238.4473,241.9228 242.0549,257.691 243.2575,271.4178 244.4601,265.5751 245.6626,272.896 246.8652,283.5959 250.4729,286.4116 251.6754,283.5959 252.878,268.3908 254.0805,269.5171 255.2831,262.7593 258.8908,276.8381 260.0933,278.5275 261.2959,298.8009 262.4985,305.5587 263.701,321.327 267.3087,321.327 268.5113,322.4533 269.7138,313.4429 270.9164,314.006 272.1189,309.5008 275.7266,320.7638 276.9292,319.6375 278.1318,315.6955 279.3343,293.1694 280.5369,287.5379 284.1446,258.8173 285.3471,258.8173 286.5497,257.1278 287.7522,271.7697 288.9548,265.5751 292.5625,255.4384 293.765,256.0015 294.9676,248.6806 296.1702,221.0862 297.3727,203.6285 300.9804,195.7444 302.183,195.1813 303.3855,199.6865 304.5881,188.4235 305.7906,200.8128 309.3983,218.8336 310.6009,215.4547 311.8034,222.2125 313.006,237.9807 314.2086,213.2021 319.0188,200.2496 320.2214,214.8915 321.4239,196.8707 322.6265,229.5334 326.2342,220.4667 327.4367,210.9495 328.6393,164.208 329.8418,184.4814 331.0444,180.5394 334.6521,172.0921 335.8546,153.5081 337.0572,158.5765 338.2598,145.0609 339.4623,121.4086 343.07,102.8246 344.2726,118.5928 345.4751,132.6716 346.6777,127.0401 347.8803,129.8558 351.4879,155.1976 352.6905,143.3714 353.8931,137.1768 355.0956,169.8395 356.2982,189.5498 359.9059,199.1233 361.1084,208.1337 362.311,220.523 364.7161,188.9866 368.3238,191.8024 369.5263,177.7236 370.7289,172.0921 371.9315,176.3157 373.134,210.9495 377.9443,257.691 379.1468,281.9064 380.3494,291.48 381.5519,294.8589 385.1596,302.4614 386.3622,307.2482 387.5647,306.1219 389.9699,326.3953 393.5775,341.6004 394.7801,346.6687 395.9827,351.1739 397.1852,350.2588 398.3878,355.6791 401.9955,358.4949 403.198,357.3686 404.4006,357.3686 405.6031,356.2423 406.8057,353.4265 410.4134,353.4265 411.6159,352.8634 412.8185,356.2423 414.0211,359.6212 415.2236,361.3106 418.8313,360.7475 420.0339,362.4369 421.2364,359.058 422.439,355.6791 423.6416,356.8054 427.2492,356.8054 429.6544,357.3686 432.0595,359.6212 435.6672,360.7475 438.0723,353.9897 440.4774,343.2898 446.4902,332.0268 448.8953,317.9481 454.9081,316.2586 457.3132,329.7742 463.326,329.2111 465.7312,323.0164 471.744,294.8589 474.1491,262.7593 480.1619,253.7489 482.567,268.3908 488.5798,201.3759 490.9849,191.8024 496.9977,233.4755 499.4029,222.2125 507.8208,240.2333 516.2387,272.896 522.2515,284.7222 524.6566,290.9168 530.6694,295.422 533.0745,306.6851 539.0873,321.8901 541.4925,321.8901 547.5053,321.327 549.9104,320.7638 555.9232,320.7638 558.3283,302.743 564.3411,266.1382 566.7462,229.5334 572.759,220.523 575.1642,201.3759 581.177,125.3506 583.5821,97.1931 589.5949,69.0356 592,67.3461" style="fill:none;stroke:rgb(31,119,180);stroke-width:2;stroke-linejoin:bevel" />
  <text dominant-baseline="hanging" text-anchor="middle" transform="translate(313.006,8)" font-family="Segoe UI" font-size="18" font-weight="700" fill="black">7-Tage-Inzidenz Stadt Aachen 19.11.2021</text>
  <polygon points="34.012,29.0795 592,29.0795 592,370.947 34.012,370.947" style="fill:none;stroke:black;stroke-width:1" />
  <polygon points="42.012,37.0795 247.014,37.0795 247.014,63.1325 42.012,63.1325" style="fill:none;stroke:none;" />
  <text dominant-baseline="hanging" text-anchor="start" transform="translate(70.012,45.0795)" font-family="Segoe UI" font-size="12" font-weight="400" fill="black">7-Tage-Inzidenz Stadt Aachen 19.11.2021</text>
  <polyline points="50.012,50.106 66.012,50.106" style="fill:none;stroke:rgb(31,119,180);stroke-width:2" />
</svg>