<?xml version="1.0" encoding="utf-8" standalone="no"?>
<!DOCTYPE svg PUBLIC "-//W3C//DTD SVG 1.1//EN" "http://www.w3.org/Graphics/SVG/1.1/DTD/svg11.dtd">
<svg width="600" height="400" version="1.1" xmlns:xlink="http://www.w3.org/1999/xlink" xmlns="http://www.w3.org/2000/svg">
  <rect x="0" y="0" width="600" height="400" style="fill:rgb(255,255,255);stroke:none;" />
  <polyline points="34.012,362.7539 30.012,362.7539" style="fill:none;stroke:black;stroke-width:1" />
  <polyline points="34.012,348.3289 30.012,348.3289" style="fill:none;stroke:black;stroke-width:1" />
  <polyline points="34.012,333.904 30.012,333.904" style="fill:none;stroke:black;stroke-width:1" />
  <polyline points="34.012,319.479 30.012,319.479" style="fill:none;stroke:black;stroke-width:1" />
  <polyline points="34.012,290.6291 30.012,290.6291" style="fill:none;stroke:black;stroke-width:1" />
  <polyline points="34.012,276.2041 30.012,276.2041" style="fill:none;stroke:black;stroke-width:1" />
  <polyline points="34.012,261.7792 30.012,261.7792" style="fill:none;stroke:black;stroke-width:1" />
  <polyline points="34.012,247.3542 30.012,247.3542" style="fill:none;stroke:black;stroke-width:1" />
  <polyline points="34.012,218.5043 30.012,218.5043" style="fill:none;stroke:black;stroke-width:1" />
  <polyline points="34.012,204.0794 30.012,204.0794" style="fill:none;stroke:black;stroke-width:1" />
  <polyline points="34.012,189.6544 30.012,189.6544" style="fill:none;stroke:black;stroke-width:1" />
  <polyline points="34.012,175.2295 30.012,175.2295" style="fill:none;stroke:black;stroke-width:1" />
  <polyline points="34.012,146.3796 30.012,146.3796" style="fill:none;stroke:black;stroke-width:1" />
  <polyline points="34.012,131.9546 30.012,131.9546" style="fill:none;stroke:black;stroke-width:1" />
  <polyline points="34.012,117.5297 30.012,117.5297" style="fill:none;stroke:black;stroke-width:1" />
  <polyline points="34.012,103.1047 30.012,103.1047" style="fill:none;stroke:black;stroke-width:1" />
  <polyline points="34.012,74.2548 30.012,74.2548" style="fill:none;stroke:black;stroke-width:1" />
  <polyline points="34.012,59.8299 30.012,59.8299" style="fill:none;stroke:black;stroke-width:1" />
  <polyline points="34.012,45.4049 30.012,45.4049" style="fill:none;stroke:black;stroke-width:1" />
  <polyline points="34.012,30.98 30.012,30.98" style="fill:none;stroke:black;stroke-width:1" />
  <text dominant-baseline="middle" text-anchor="end" transform="translate(23.012,305.0541)" font-family="Segoe UI" font-size="12" font-weight="400" fill="black">50</text>
  <text dominant-baseline="middle" text-anchor="end" transform="translate(23.012,232.9293)" font-family="Segoe UI" font-size="12" font-weight="400" fill="black">100</text>
  <text dominant-baseline="middle" text-anchor="end" transform="translate(23.012,160.8045)" font-family="Segoe UI" font-size="12" font-weight="400" fill="black">150</text>
  <text dominant-baseline="middle" text-anchor="end" transform="translate(23.012,88.6798)" font-family="Segoe UI" font-size="12" font-weight="400" fill="black">200</text>
  <polyline points="34.012,305.0541 27.012,305.0541" style="fill:none;stroke:black;stroke-width:1" />
  <polyline points="34.012,232.9293 27.012,232.9293" style="fill:none;stroke:black;stroke-width:1" />
  <polyline points="34.012,160.8045 27.012,160.8045" style="fill:none;stroke:black;stroke-width:1" />
  <polyline points="34.012,88.6798 27.012,88.6798" style="fill:none;stroke:black;stroke-width:1" />
  <text dominant-baseline="hanging" text-anchor="middle" transform="translate(66.1087,381.947)" font-family="Segoe UI" font-size="12" font-weight="400" fill="black">01. September</text>
  <text dominant-baseline="hanging" text-anchor="middle" transform="translate(140.1779,381.947)" font-family="Segoe UI" font-size="12" font-weight="400" fill="black">01. October</text>
  <text dominant-baseline="hanging" text-anchor="middle" transform="translate(216.716,381.947)" font-family="Segoe UI" font-size="12" font-weight="400" fill="black">01. November</text>
  <text dominant-baseline="hanging" text-anchor="middle" transform="translate(290.7852,381.947)" font-family="Segoe UI" font-size="12" font-weight="400" fill="black">01. December</text>
  <text dominant-baseline="hanging" text-anchor="middle" transform="translate(367.3234,381.947)" font-family="Segoe UI" font-size="12" font-weight="400" fill="black">01. January</text>
  <text dominant-baseline="hanging" text-anchor="middle" transform="translate(443.8616,381.947)" font-family="Segoe UI" font-size="12" font-weight="400" fill="black">01. February</text>
  <text dominant-baseline="hanging" text-anchor="middle" transform="translate(512.9928,381.947)" font-family="Segoe UI" font-size="12" font-weight="400" fill="black">01. March</text>
  <text dominant-baseline="hanging" text-anchor="middle" transform="translate(589.531,381.947)" font-family="Segoe UI" font-size="12" font-weight="400" fill="black">01. April</text>
  <polyline points="66.1087,370.947 66.1087,377.947" style="fill:none;stroke:black;stroke-width:1" />
  <polyline points="140.1779,370.947 140.1779,377.947" style="fill:none;stroke:black;stroke-width:1" />
  <polyline points="216.716,370.947 216.716,377.947" style="fill:none;stroke:black;stroke-width:1" />
  <polyline points="290.7852,370.947 290.7852,377.947" style="fill:none;stroke:black;stroke-width:1" />
  <polyline points="367.3234,370.947 367.3234,377.947" style="fill:none;stroke:black;stroke-width:1" />
  <polyline points="443.8616,370.947 443.8616,377.947" style="fill:none;stroke:black;stroke-width:1" />
  <polyline points="512.9928,370.947 512.9928,377.947" style="fill:none;stroke:black;stroke-width:1" />
  <polyline points="589.531,370.947 589.531,377.947" style="fill:none;stroke:black;stroke-width:1" />
  <polyline points="34.012,356.8142 36.481,356.3899 38.9499,362.471 46.3569,358.5112 48.8258,362.471 51.2948,363.0367 53.7638,363.6024 56.2328,362.471 63.6397,366.9965 66.1087,365.2994 68.5776,365.8651 71.0466,365.2994 73.5156,365.2994 80.9225,365.8651 83.3915,367.5622 85.8604,365.8651 88.3294,365.2994 90.7984,363.0367 98.2053,356.8142 100.6743,352.2887 103.1433,347.1975 105.6122,346.6319 108.0812,342.1064 115.4881,347.7632 117.9571,348.3289 120.4261,352.2887 122.895,350.5916 125.364,351.723 132.7709,335.8838 135.2399,336.4495 137.7089,335.3182 140.1779,325.1358 142.6468,319.479 150.0538,312.6908 152.5227,313.8222 154.9917,305.9026 157.4607,304.7528 159.9296,307.6498 167.3366,292.5852 169.8055,290.847 172.2745,285.6323 174.7435,275.2029 177.2125,253.1854 184.6194,230.5885 187.0884,225.9532 189.5573,221.8974 192.0263,202.7769 194.4953,202.1975 201.9022,137.3037 204.3712,132.0891 206.8401,129.192 209.3091,131.5096 211.7781,98.4834 219.185,118.1833 221.654,107.7539 224.123,108.9127 226.5919,101.3804 229.0609,119.3421 236.4678,90.9511 238.9368,84.5776 241.4058,58.5042 246.3437,32.4308 253.7506,61.4012 256.2196,75.8864 258.6886,84.5776 261.1576,65.3847 263.6265,120.5009 271.0335,167.433 273.5024,150.6301 275.9714,153.5272 278.4404,208.571 280.9093,185.974 288.3163,188.8711 290.7852,213.7856 293.2542,225.9532 295.7232,198.1416 298.1922,202.1975 305.5991,179.0211 308.0681,181.3388 310.537,179.6005 313.006,151.2095 315.475,173.2271 322.8819,154.1066 325.3509,144.2566 327.8198,132.6685 330.2888,145.4155 332.7578,134.4067 340.1647,116.445 342.6337,117.0244 345.1027,140.7802 357.4475,157.0036 359.9165,154.686 362.3855,134.4067 364.8544,136.3622 374.7303,211.468 377.1993,235.2238 379.6683,250.8678 382.1373,236.962 384.6062,215.9584 394.4821,192.9269 396.9511,195.2446 399.4201,217.2621 401.889,247.3913 409.296,255.9086 411.7649,275.7823 414.2339,267.0912 416.7029,285.0529 419.1719,285.6323 426.5788,272.3059 431.5167,279.8382 433.9857,259.5589 436.4547,247.9707 443.8616,264.1942 446.3306,278.3173 448.7995,272.3059 451.2685,279.8382 453.7375,290.847 461.1444,293.744 463.6134,290.847 466.0824,275.2029 468.5513,276.3617 471.0203,269.4088 478.4272,283.8941 480.8962,285.6323 483.3652,306.491 485.8341,313.4439 488.3031,329.6673 495.71,329.6673 498.179,330.8261 500.648,321.5556 503.117,322.135 505.5859,317.4997 512.9928,329.0879 515.4618,327.9291 517.9308,323.8732 520.3998,300.6969 522.8687,294.9028 530.2757,265.353 532.7446,265.353 535.2136,263.6148 537.6826,278.6794 540.1516,272.3059 547.5585,261.8765 550.0275,262.4559 552.4964,254.9236 554.9654,226.5326 557.4344,208.571 564.8413,200.4592 567.3103,199.8798 569.7792,204.5151 572.2482,192.9269 574.7172,205.6739 582.1241,224.215 584.5931,220.7385 587.0621,227.6914 589.531,243.9149 592,218.4209" style="fill:none;stroke:rgb(31,119,180);stroke-width:2;stroke-linejoin:bevel" />
  <text dominant-baseline="hanging" text-anchor="middle" transform="translate(313.006,8)" font-family="Segoe UI" font-size="18" font-weight="700" fill="black">7-Tage-Inzidenz Stadt Aachen 02.04.2021</text>
  <polygon points="34.012,29.0795 592,29.0795 592,370.947 34.012,370.947" style="fill:none;stroke:black;stroke-width:1" />
  <polygon points="42.012,37.0795 247.014,37.0795 247.014,63.1325 42.012,63.1325" style="fill:none;stroke:none;" />
  <text dominant-baseline="hanging" text-anchor="start" transform="translate(70.012,45.0795)" font-family="Segoe UI" font-size="12" font-weight="400" fill="black">7-Tage-Inzidenz Stadt Aachen 02.04.2021</text>
  <polyline points="50.012,50.106 66.012,50.106" style="fill:none;stroke:rgb(31,119,180);stroke-width:2" />
</svg>