<?xml version="1.0" encoding="utf-8" standalone="no"?>
<!DOCTYPE svg PUBLIC "-//W3C//DTD SVG 1.1//EN" "http://www.w3.org/Graphics/SVG/1.1/DTD/svg11.dtd">
<svg width="600" height="400" version="1.1" xmlns:xlink="http://www.w3.org/1999/xlink" xmlns="http://www.w3.org/2000/svg">
  <rect x="0" y="0" width="600" height="400" style="fill:rgb(255,255,255);stroke:none;" />
  <polyline points="34.012,346.3457 30.012,346.3457" style="fill:none;stroke:black;stroke-width:1" />
  <polyline points="34.012,325.1722 30.012,325.1722" style="fill:none;stroke:black;stroke-width:1" />
  <polyline points="34.012,303.9987 30.012,303.9987" style="fill:none;stroke:black;stroke-width:1" />
  <polyline points="34.012,282.8252 30.012,282.8252" style="fill:none;stroke:black;stroke-width:1" />
  <polyline points="34.012,240.4782 30.012,240.4782" style="fill:none;stroke:black;stroke-width:1" />
  <polyline points="34.012,219.3047 30.012,219.3047" style="fill:none;stroke:black;stroke-width:1" />
  <polyline points="34.012,198.1312 30.012,198.1312" style="fill:none;stroke:black;stroke-width:1" />
  <polyline points="34.012,176.9577 30.012,176.9577" style="fill:none;stroke:black;stroke-width:1" />
  <polyline points="34.012,134.6107 30.012,134.6107" style="fill:none;stroke:black;stroke-width:1" />
  <polyline points="34.012,113.4372 30.012,113.4372" style="fill:none;stroke:black;stroke-width:1" />
  <polyline points="34.012,92.2637 30.012,92.2637" style="fill:none;stroke:black;stroke-width:1" />
  <polyline points="34.012,71.0902 30.012,71.0902" style="fill:none;stroke:black;stroke-width:1" />
  <text dominant-baseline="middle" text-anchor="end" transform="translate(23.012,367.5192)" font-family="Segoe UI" font-size="12" font-weight="400" fill="black">0</text>
  <text dominant-baseline="middle" text-anchor="end" transform="translate(23.012,261.6517)" font-family="Segoe UI" font-size="12" font-weight="400" fill="black">100</text>
  <text dominant-baseline="middle" text-anchor="end" transform="translate(23.012,155.7842)" font-family="Segoe UI" font-size="12" font-weight="400" fill="black">200</text>
  <text dominant-baseline="middle" text-anchor="end" transform="translate(23.012,49.9166)" font-family="Segoe UI" font-size="12" font-weight="400" fill="black">300</text>
  <polyline points="34.012,367.5192 27.012,367.5192" style="fill:none;stroke:black;stroke-width:1" />
  <polyline points="34.012,261.6517 27.012,261.6517" style="fill:none;stroke:black;stroke-width:1" />
  <polyline points="34.012,155.7842 27.012,155.7842" style="fill:none;stroke:black;stroke-width:1" />
  <polyline points="34.012,49.9166 27.012,49.9166" style="fill:none;stroke:black;stroke-width:1" />
  <text dominant-baseline="hanging" text-anchor="middle" transform="translate(197.3817,381.947)" font-family="Segoe UI" font-size="12" font-weight="400" fill="black">01. January</text>
  <polyline points="197.3817,370.947 197.3817,377.947" style="fill:none;stroke:black;stroke-width:1" />
  <polyline points="34.012,367.5622 36.313,367.5621 39.7645,367.5621 40.9149,367.562 42.0654,352.5732 43.2159,352.2618 44.3664,356.7249 47.8179,353.8187 48.9684,356.7249 50.1189,357.1401 51.2694,357.5552 52.4199,356.7249 55.8713,360.0462 57.0218,358.8007 58.1723,359.2159 59.3228,358.8007 60.4733,358.8007 63.9248,359.2159 65.0752,360.4614 66.2257,359.2159 67.3762,358.8007 68.5267,357.1401 71.9782,352.5732 73.1287,349.2519 74.2792,345.5154 75.4297,345.1002 76.5802,341.7789 80.0316,345.9305 81.1821,346.3457 82.3326,349.2519 83.4831,348.0064 84.6336,348.8367 88.0851,337.212 89.2356,337.6272 90.386,336.7969 91.5365,329.3239 92.687,325.1722 96.1385,320.1902 97.289,321.0205 98.4395,315.2082 99.59,314.3643 100.7405,316.4905 104.1919,305.4343 105.3424,304.1586 106.4929,300.3314 107.6434,292.6771 108.7939,276.5181 112.2454,259.9337 113.3959,256.5318 114.5464,253.5551 115.6968,239.5223 116.8473,239.097 120.2988,191.4702 121.4493,187.6431 122.5998,185.5169 123.7503,187.2178 124.9008,162.9792 128.3522,177.4373 129.5027,169.783 130.6532,170.6335 131.8037,165.1054 132.9542,178.2878 136.4057,157.4511 137.5562,152.7735 138.7067,133.6377 141.0076,114.502 144.4591,135.7639 145.6096,146.3949 146.7601,152.7735 147.9106,138.6874 149.0611,179.1383 152.5125,213.5827 153.663,201.2507 154.8135,203.3769 155.964,243.7746 157.1145,227.1903 160.566,229.3165 161.7165,247.6018 162.867,256.5318 164.0175,236.1203 165.1679,239.097 168.6194,222.0875 169.7699,223.7884 170.9204,222.5127 172.0709,201.676 173.2214,217.8351 176.6728,203.8022 177.8233,196.5731 178.9738,188.0683 180.1243,197.4236 181.2748,189.344 184.7263,176.1616 185.8768,176.5869 187.0273,194.0217 192.7797,205.9284 193.9302,204.2274 195.0807,189.344 196.2312,190.7792 200.8332,245.9008 201.9836,263.3356 203.1341,274.8171 204.2846,264.6114 205.4351,249.1964 210.0371,232.2932 211.1876,233.9941 212.3381,250.1532 213.4886,272.2657 216.94,278.5167 218.0905,293.1024 219.241,286.7238 220.3915,299.9062 221.542,300.3314 224.9935,290.5509 227.2944,296.0791 228.4449,281.1957 229.5954,272.6909 233.0469,284.5976 234.1974,294.9628 235.3479,290.5509 236.4984,296.0791 237.6489,304.1586 241.1003,306.2848 242.2508,304.1586 243.4013,292.6771 244.5518,293.5276 245.7023,288.4247 249.1538,299.0557 250.3043,300.3314 251.4547,315.6401 252.6052,320.7429 253.7557,332.6496 257.2072,332.6496 258.3577,333.5001 259.5082,326.6963 260.6587,327.1215 261.8092,323.7196 265.2606,332.2244 266.4111,331.3739 267.5616,328.3972 268.7121,311.3877 269.8626,307.1353 273.3141,285.4481 274.4646,285.4481 275.6151,284.1724 276.7655,295.2286 277.916,290.5509 281.3675,282.8966 282.518,283.3219 283.6685,277.7938 284.819,256.9571 285.9695,243.7746 289.4209,237.8213 290.5714,237.3961 291.7219,240.798 292.8724,232.2932 294.0229,241.6484 297.4744,255.2561 298.6249,252.7047 299.7754,257.8075 300.9258,269.7142 302.0763,251.0037 306.6783,241.2232 307.8288,252.2794 308.9793,238.6718 310.1298,263.3356 313.5812,256.4893 314.7317,249.3028 315.8822,214.0079 317.0327,229.3165 318.1832,226.3398 321.6347,219.9613 322.7852,205.9284 323.9357,209.7555 325.0862,199.5498 326.2366,181.6897 329.6881,167.6568 330.8386,179.5635 331.9891,190.1945 333.1396,185.9421 334.2901,188.0683 337.7416,207.2041 338.892,198.2741 340.0425,193.5964 341.193,218.2603 342.3435,233.1437 345.795,240.3727 346.9455,247.1766 348.096,256.5318 350.3969,232.7184 353.8484,234.8446 354.9989,224.2136 356.1494,219.9613 357.2999,223.1505 358.4504,249.3028 363.0523,284.5976 364.2028,302.8829 365.3533,310.1119 366.5038,312.6634 369.9553,318.4041 371.1058,322.0186 372.2563,321.1682 374.5573,336.4768 378.0087,347.9582 379.1592,351.7854 380.3097,355.1873 381.4602,354.4963 382.6107,358.5892 386.0622,360.7154 387.2127,359.8649 388.3631,359.8649 389.5136,359.0144 390.6641,356.8882 394.1156,356.8882 395.2661,356.463 396.4166,359.0144 397.5671,361.5659 398.7176,362.8416 402.169,362.4164 403.3195,363.6921 404.47,361.1406 405.6205,358.5892 406.771,359.4397 410.2225,359.4397 412.5234,359.8649 414.8244,361.5659 418.2759,362.4164 420.5769,357.3135 422.8779,349.2339 428.6303,340.7292 430.9313,330.0982 436.6838,328.8225 438.9847,339.0282 444.7372,338.603 447.0382,333.9253 452.7906,312.6634 455.0916,288.4247 460.8441,281.6209 463.145,292.6771 468.8975,242.0737 471.1985,234.8446 476.9509,266.3123 479.2519,257.8075 487.3053,271.4152 495.3588,296.0791 501.1112,305.0091 503.4122,309.6867 509.1647,313.0886 511.4656,321.5934 517.2181,333.0749 519.5191,333.0749 525.2715,332.6496 527.5725,332.2244 533.325,332.2244 535.626,318.6167 541.3784,290.9762 543.6794,263.3356 549.4318,256.5318 551.7328,242.0737 557.4853,184.6664 559.7863,163.4045 565.5387,142.1425 567.8397,140.8668 573.5921,63.4733 575.8931,32.4308 581.6456,54.118 589.699,68.1509 592,58.9374" style="fill:none;stroke:rgb(31,119,180);stroke-width:2;stroke-linejoin:bevel" />
  <text dominant-baseline="hanging" text-anchor="middle" transform="translate(313.006,8)" font-family="Segoe UI" font-size="18" font-weight="700" fill="black">7-Tage-Inzidenz Stadt Aachen 10.12.2021</text>
  <polygon points="34.012,29.0795 592,29.0795 592,370.947 34.012,370.947" style="fill:none;stroke:black;stroke-width:1" />
  <polygon points="42.012,37.0795 247.014,37.0795 247.014,63.1325 42.012,63.1325" style="fill:none;stroke:none;" />
  <text dominant-baseline="hanging" text-anchor="start" transform="translate(70.012,45.0795)" font-family="Segoe UI" font-size="12" font-weight="400" fill="black">7-Tage-Inzidenz Stadt Aachen 10.12.2021</text>
  <polyline points="50.012,50.106 66.012,50.106" style="fill:none;stroke:rgb(31,119,180);stroke-width:2" />
</svg>