<?xml version="1.0" encoding="utf-8" standalone="no"?>
<!DOCTYPE svg PUBLIC "-//W3C//DTD SVG 1.1//EN" "http://www.w3.org/Graphics/SVG/1.1/DTD/svg11.dtd">
<svg width="600" height="400" version="1.1" xmlns:xlink="http://www.w3.org/1999/xlink" xmlns="http://www.w3.org/2000/svg">
  <rect x="0" y="0" width="600" height="400" style="fill:rgb(255,255,255);stroke:none;" />
  <polyline points="34.012,362.7539 30.012,362.7539" style="fill:none;stroke:black;stroke-width:1" />
  <polyline points="34.012,348.3289 30.012,348.3289" style="fill:none;stroke:black;stroke-width:1" />
  <polyline points="34.012,333.904 30.012,333.904" style="fill:none;stroke:black;stroke-width:1" />
  <polyline points="34.012,319.479 30.012,319.479" style="fill:none;stroke:black;stroke-width:1" />
  <polyline points="34.012,290.6291 30.012,290.6291" style="fill:none;stroke:black;stroke-width:1" />
  <polyline points="34.012,276.2041 30.012,276.2041" style="fill:none;stroke:black;stroke-width:1" />
  <polyline points="34.012,261.7792 30.012,261.7792" style="fill:none;stroke:black;stroke-width:1" />
  <polyline points="34.012,247.3542 30.012,247.3542" style="fill:none;stroke:black;stroke-width:1" />
  <polyline points="34.012,218.5043 30.012,218.5043" style="fill:none;stroke:black;stroke-width:1" />
  <polyline points="34.012,204.0794 30.012,204.0794" style="fill:none;stroke:black;stroke-width:1" />
  <polyline points="34.012,189.6544 30.012,189.6544" style="fill:none;stroke:black;stroke-width:1" />
  <polyline points="34.012,175.2295 30.012,175.2295" style="fill:none;stroke:black;stroke-width:1" />
  <polyline points="34.012,146.3796 30.012,146.3796" style="fill:none;stroke:black;stroke-width:1" />
  <polyline points="34.012,131.9546 30.012,131.9546" style="fill:none;stroke:black;stroke-width:1" />
  <polyline points="34.012,117.5297 30.012,117.5297" style="fill:none;stroke:black;stroke-width:1" />
  <polyline points="34.012,103.1047 30.012,103.1047" style="fill:none;stroke:black;stroke-width:1" />
  <polyline points="34.012,74.2548 30.012,74.2548" style="fill:none;stroke:black;stroke-width:1" />
  <polyline points="34.012,59.8299 30.012,59.8299" style="fill:none;stroke:black;stroke-width:1" />
  <polyline points="34.012,45.4049 30.012,45.4049" style="fill:none;stroke:black;stroke-width:1" />
  <polyline points="34.012,30.98 30.012,30.98" style="fill:none;stroke:black;stroke-width:1" />
  <text dominant-baseline="middle" text-anchor="end" transform="translate(23.012,305.0541)" font-family="Segoe UI" font-size="12" font-weight="400" fill="black">50</text>
  <text dominant-baseline="middle" text-anchor="end" transform="translate(23.012,232.9293)" font-family="Segoe UI" font-size="12" font-weight="400" fill="black">100</text>
  <text dominant-baseline="middle" text-anchor="end" transform="translate(23.012,160.8045)" font-family="Segoe UI" font-size="12" font-weight="400" fill="black">150</text>
  <text dominant-baseline="middle" text-anchor="end" transform="translate(23.012,88.6798)" font-family="Segoe UI" font-size="12" font-weight="400" fill="black">200</text>
  <polyline points="34.012,305.0541 27.012,305.0541" style="fill:none;stroke:black;stroke-width:1" />
  <polyline points="34.012,232.9293 27.012,232.9293" style="fill:none;stroke:black;stroke-width:1" />
  <polyline points="34.012,160.8045 27.012,160.8045" style="fill:none;stroke:black;stroke-width:1" />
  <polyline points="34.012,88.6798 27.012,88.6798" style="fill:none;stroke:black;stroke-width:1" />
  <text dominant-baseline="hanging" text-anchor="middle" transform="translate(71.9902,381.947)" font-family="Segoe UI" font-size="12" font-weight="400" fill="black">01. September</text>
  <text dominant-baseline="hanging" text-anchor="middle" transform="translate(159.6323,381.947)" font-family="Segoe UI" font-size="12" font-weight="400" fill="black">01. October</text>
  <text dominant-baseline="hanging" text-anchor="middle" transform="translate(250.1958,381.947)" font-family="Segoe UI" font-size="12" font-weight="400" fill="black">01. November</text>
  <text dominant-baseline="hanging" text-anchor="middle" transform="translate(337.8379,381.947)" font-family="Segoe UI" font-size="12" font-weight="400" fill="black">01. December</text>
  <text dominant-baseline="hanging" text-anchor="middle" transform="translate(428.4014,381.947)" font-family="Segoe UI" font-size="12" font-weight="400" fill="black">01. January</text>
  <text dominant-baseline="hanging" text-anchor="middle" transform="translate(518.9649,381.947)" font-family="Segoe UI" font-size="12" font-weight="400" fill="black">01. February</text>
  <polyline points="71.9902,370.947 71.9902,377.947" style="fill:none;stroke:black;stroke-width:1" />
  <polyline points="159.6323,370.947 159.6323,377.947" style="fill:none;stroke:black;stroke-width:1" />
  <polyline points="250.1958,370.947 250.1958,377.947" style="fill:none;stroke:black;stroke-width:1" />
  <polyline points="337.8379,370.947 337.8379,377.947" style="fill:none;stroke:black;stroke-width:1" />
  <polyline points="428.4014,370.947 428.4014,377.947" style="fill:none;stroke:black;stroke-width:1" />
  <polyline points="518.9649,370.947 518.9649,377.947" style="fill:none;stroke:black;stroke-width:1" />
  <polyline points="34.012,356.8142 36.9334,356.3899 39.8548,362.471 48.619,358.5112 51.5404,362.471 54.4618,363.0367 57.3832,363.6024 60.3046,362.471 69.0688,366.9965 71.9902,365.2994 74.9116,365.8651 77.833,365.2994 80.7545,365.2994 89.5187,365.8651 92.4401,367.5622 95.3615,365.8651 98.2829,365.2994 101.2043,363.0367 109.9685,356.8142 112.8899,352.2887 115.8113,347.1975 118.7327,346.6319 121.6541,342.1064 130.4183,347.7632 133.3397,348.3289 136.2611,352.2887 139.1825,350.5916 142.1039,351.723 150.8681,335.8838 153.7895,336.4495 156.7109,335.3182 159.6323,325.1358 162.5537,319.479 171.3179,312.6908 174.2394,313.8222 177.1608,305.9026 180.0822,304.7528 183.0036,307.6498 191.7678,292.5852 194.6892,290.847 197.6106,285.6323 200.532,275.2029 203.4534,253.1854 212.2176,230.5885 215.139,225.9532 218.0604,221.8974 220.9818,202.7769 223.9032,202.1975 232.6674,137.3037 235.5888,132.0891 238.5102,129.192 241.4316,131.5096 244.353,98.4834 253.1172,118.1833 256.0386,107.7539 258.96,108.9127 261.8814,101.3804 264.8028,119.3421 273.5671,90.9511 276.4885,84.5776 279.4099,58.5042 285.2527,32.4308 294.0169,61.4012 296.9383,75.8864 299.8597,84.5776 302.7811,65.3847 305.7025,120.5009 314.4667,167.433 317.3881,150.6301 320.3095,153.5272 323.2309,208.571 326.1523,185.974 334.9165,188.8711 337.8379,213.7856 340.7593,225.9532 343.6807,198.1416 346.6021,202.1975 355.3663,179.0211 358.2877,181.3388 361.2092,179.6005 364.1306,151.2095 367.052,173.2271 375.8162,154.1066 378.7376,144.2566 381.659,132.6685 384.5804,145.4155 387.5018,134.4067 396.266,116.445 399.1874,117.0244 402.1088,140.7802 416.7158,157.0036 419.6372,154.686 422.5586,134.4067 425.48,136.3622 437.1656,211.468 440.087,235.2238 443.0084,250.8678 445.9298,236.962 448.8512,215.9584 460.5369,192.9269 463.4583,195.2446 466.3797,217.2621 469.3011,247.3913 478.0653,255.9086 480.9867,275.7823 483.9081,267.0912 486.8295,285.0529 489.7509,285.6323 498.5151,272.3059 504.3579,279.8382 507.2793,259.5589 510.2007,247.9707 518.9649,264.1942 521.8863,278.3173 524.8077,272.3059 527.7291,279.8382 530.6505,290.847 539.4147,293.744 542.3361,290.847 545.2575,275.2029 548.179,276.3617 551.1004,269.4088 559.8646,283.8941 562.786,285.6323 565.7074,306.491 568.6288,313.4439 571.5502,329.6673 580.3144,329.6673 583.2358,330.8261 586.1572,321.5556 589.0786,322.135 592,317.4997" style="fill:none;stroke:rgb(31,119,180);stroke-width:2;stroke-linejoin:bevel" />
  <text dominant-baseline="hanging" text-anchor="middle" transform="translate(313.006,8)" font-family="Segoe UI" font-size="18" font-weight="700" fill="black">7-Tage-Inzidenz Stadt Aachen 26.02.2021</text>
  <polygon points="34.012,29.0795 592,29.0795 592,370.947 34.012,370.947" style="fill:none;stroke:black;stroke-width:1" />
  <polygon points="42.012,37.0795 247.014,37.0795 247.014,63.1325 42.012,63.1325" style="fill:none;stroke:none;" />
  <text dominant-baseline="hanging" text-anchor="start" transform="translate(70.012,45.0795)" font-family="Segoe UI" font-size="12" font-weight="400" fill="black">7-Tage-Inzidenz Stadt Aachen 26.02.2021</text>
  <polyline points="50.012,50.106 66.012,50.106" style="fill:none;stroke:rgb(31,119,180);stroke-width:2" />
</svg>