<?xml version="1.0" encoding="utf-8" standalone="no"?>
<!DOCTYPE svg PUBLIC "-//W3C//DTD SVG 1.1//EN" "http://www.w3.org/Graphics/SVG/1.1/DTD/svg11.dtd">
<svg width="600" height="400" version="1.1" xmlns:xlink="http://www.w3.org/1999/xlink" xmlns="http://www.w3.org/2000/svg">
  <rect x="0" y="0" width="600" height="400" style="fill:rgb(255,255,255);stroke:none;" />
  <polyline points="34.012,362.7539 30.012,362.7539" style="fill:none;stroke:black;stroke-width:1" />
  <polyline points="34.012,348.3289 30.012,348.3289" style="fill:none;stroke:black;stroke-width:1" />
  <polyline points="34.012,333.904 30.012,333.904" style="fill:none;stroke:black;stroke-width:1" />
  <polyline points="34.012,319.479 30.012,319.479" style="fill:none;stroke:black;stroke-width:1" />
  <polyline points="34.012,290.6291 30.012,290.6291" style="fill:none;stroke:black;stroke-width:1" />
  <polyline points="34.012,276.2041 30.012,276.2041" style="fill:none;stroke:black;stroke-width:1" />
  <polyline points="34.012,261.7792 30.012,261.7792" style="fill:none;stroke:black;stroke-width:1" />
  <polyline points="34.012,247.3542 30.012,247.3542" style="fill:none;stroke:black;stroke-width:1" />
  <polyline points="34.012,218.5043 30.012,218.5043" style="fill:none;stroke:black;stroke-width:1" />
  <polyline points="34.012,204.0794 30.012,204.0794" style="fill:none;stroke:black;stroke-width:1" />
  <polyline points="34.012,189.6544 30.012,189.6544" style="fill:none;stroke:black;stroke-width:1" />
  <polyline points="34.012,175.2295 30.012,175.2295" style="fill:none;stroke:black;stroke-width:1" />
  <polyline points="34.012,146.3796 30.012,146.3796" style="fill:none;stroke:black;stroke-width:1" />
  <polyline points="34.012,131.9546 30.012,131.9546" style="fill:none;stroke:black;stroke-width:1" />
  <polyline points="34.012,117.5297 30.012,117.5297" style="fill:none;stroke:black;stroke-width:1" />
  <polyline points="34.012,103.1047 30.012,103.1047" style="fill:none;stroke:black;stroke-width:1" />
  <polyline points="34.012,74.2548 30.012,74.2548" style="fill:none;stroke:black;stroke-width:1" />
  <polyline points="34.012,59.8299 30.012,59.8299" style="fill:none;stroke:black;stroke-width:1" />
  <polyline points="34.012,45.4049 30.012,45.4049" style="fill:none;stroke:black;stroke-width:1" />
  <polyline points="34.012,30.98 30.012,30.98" style="fill:none;stroke:black;stroke-width:1" />
  <text dominant-baseline="middle" text-anchor="end" transform="translate(23.012,305.0541)" font-family="Segoe UI" font-size="12" font-weight="400" fill="black">50</text>
  <text dominant-baseline="middle" text-anchor="end" transform="translate(23.012,232.9293)" font-family="Segoe UI" font-size="12" font-weight="400" fill="black">100</text>
  <text dominant-baseline="middle" text-anchor="end" transform="translate(23.012,160.8045)" font-family="Segoe UI" font-size="12" font-weight="400" fill="black">150</text>
  <text dominant-baseline="middle" text-anchor="end" transform="translate(23.012,88.6798)" font-family="Segoe UI" font-size="12" font-weight="400" fill="black">200</text>
  <polyline points="34.012,305.0541 27.012,305.0541" style="fill:none;stroke:black;stroke-width:1" />
  <polyline points="34.012,232.9293 27.012,232.9293" style="fill:none;stroke:black;stroke-width:1" />
  <polyline points="34.012,160.8045 27.012,160.8045" style="fill:none;stroke:black;stroke-width:1" />
  <polyline points="34.012,88.6798 27.012,88.6798" style="fill:none;stroke:black;stroke-width:1" />
  <text dominant-baseline="hanging" text-anchor="middle" transform="translate(71.0214,381.947)" font-family="Segoe UI" font-size="12" font-weight="400" fill="black">01. September</text>
  <text dominant-baseline="hanging" text-anchor="middle" transform="translate(156.4277,381.947)" font-family="Segoe UI" font-size="12" font-weight="400" fill="black">01. October</text>
  <text dominant-baseline="hanging" text-anchor="middle" transform="translate(244.6809,381.947)" font-family="Segoe UI" font-size="12" font-weight="400" fill="black">01. November</text>
  <text dominant-baseline="hanging" text-anchor="middle" transform="translate(330.0873,381.947)" font-family="Segoe UI" font-size="12" font-weight="400" fill="black">01. December</text>
  <text dominant-baseline="hanging" text-anchor="middle" transform="translate(418.3405,381.947)" font-family="Segoe UI" font-size="12" font-weight="400" fill="black">01. January</text>
  <text dominant-baseline="hanging" text-anchor="middle" transform="translate(506.5937,381.947)" font-family="Segoe UI" font-size="12" font-weight="400" fill="black">01. February</text>
  <text dominant-baseline="hanging" text-anchor="middle" transform="translate(586.3062,381.947)" font-family="Segoe UI" font-size="12" font-weight="400" fill="black">01. March</text>
  <polyline points="71.0214,370.947 71.0214,377.947" style="fill:none;stroke:black;stroke-width:1" />
  <polyline points="156.4277,370.947 156.4277,377.947" style="fill:none;stroke:black;stroke-width:1" />
  <polyline points="244.6809,370.947 244.6809,377.947" style="fill:none;stroke:black;stroke-width:1" />
  <polyline points="330.0873,370.947 330.0873,377.947" style="fill:none;stroke:black;stroke-width:1" />
  <polyline points="418.3405,370.947 418.3405,377.947" style="fill:none;stroke:black;stroke-width:1" />
  <polyline points="506.5937,370.947 506.5937,377.947" style="fill:none;stroke:black;stroke-width:1" />
  <polyline points="586.3062,370.947 586.3062,377.947" style="fill:none;stroke:black;stroke-width:1" />
  <polyline points="34.012,356.8142 36.8589,356.3899 39.7058,362.471 48.2464,358.5112 51.0933,362.471 53.9401,363.0367 56.787,363.6024 59.6339,362.471 68.1745,366.9965 71.0214,365.2994 73.8683,365.8651 76.7152,365.2994 79.562,365.2994 88.1027,365.8651 90.9496,367.5622 93.7964,365.8651 96.6433,365.2994 99.4902,363.0367 108.0308,356.8142 110.8777,352.2887 113.7246,347.1975 116.5714,346.6319 119.4183,342.1064 127.959,347.7632 130.8058,348.3289 133.6527,352.2887 136.4996,350.5916 139.3465,351.723 147.8871,335.8838 150.734,336.4495 153.5809,335.3182 156.4277,325.1358 159.2746,319.479 167.8152,312.6908 170.6621,313.8222 173.509,305.9026 176.3559,304.7528 179.2028,307.6498 187.7434,292.5852 190.5903,290.847 193.4371,285.6323 196.284,275.2029 199.1309,253.1854 207.6715,230.5885 210.5184,225.9532 213.3653,221.8974 216.2122,202.7769 219.059,202.1975 227.5997,137.3037 230.4466,132.0891 233.2934,129.192 236.1403,131.5096 238.9872,98.4834 247.5278,118.1833 250.3747,107.7539 253.2216,108.9127 256.0684,101.3804 258.9153,119.3421 267.456,90.9511 270.3028,84.5776 273.1497,58.5042 278.8435,32.4308 287.3841,61.4012 290.231,75.8864 293.0779,84.5776 295.9247,65.3847 298.7716,120.5009 307.3122,167.433 310.1591,150.6301 313.006,153.5272 315.8529,208.571 318.6998,185.974 327.2404,188.8711 330.0873,213.7856 332.9341,225.9532 335.781,198.1416 338.6279,202.1975 347.1685,179.0211 350.0154,181.3388 352.8623,179.6005 355.7092,151.2095 358.556,173.2271 367.0967,154.1066 369.9436,144.2566 372.7904,132.6685 375.6373,145.4155 378.4842,134.4067 387.0248,116.445 389.8717,117.0244 392.7186,140.7802 406.953,157.0036 409.7998,154.686 412.6467,134.4067 415.4936,136.3622 426.8811,211.468 429.728,235.2238 432.5749,250.8678 435.4217,236.962 438.2686,215.9584 449.6561,192.9269 452.503,195.2446 455.3499,217.2621 458.1968,247.3913 466.7374,255.9086 469.5843,275.7823 472.4311,267.0912 475.278,285.0529 478.1249,285.6323 486.6655,272.3059 492.3593,279.8382 495.2062,259.5589 498.053,247.9707 506.5937,264.1942 509.4406,278.3173 512.2874,272.3059 515.1343,279.8382 517.9812,290.847 526.5218,293.744 529.3687,290.847 532.2156,275.2029 535.0624,276.3617 537.9093,269.4088 546.45,283.8941 549.2968,285.6323 552.1437,306.491 554.9906,313.4439 557.8375,329.6673 566.3781,329.6673 569.225,330.8261 572.0719,321.5556 574.9187,322.135 577.7656,317.4997 586.3062,329.0879 589.1531,327.9291 592,323.8732" style="fill:none;stroke:rgb(31,119,180);stroke-width:2;stroke-linejoin:bevel" />
  <text dominant-baseline="hanging" text-anchor="middle" transform="translate(313.006,8)" font-family="Segoe UI" font-size="18" font-weight="700" fill="black">7-Tage-Inzidenz Stadt Aachen 03.03.2021</text>
  <polygon points="34.012,29.0795 592,29.0795 592,370.947 34.012,370.947" style="fill:none;stroke:black;stroke-width:1" />
  <polygon points="42.012,37.0795 247.014,37.0795 247.014,63.1325 42.012,63.1325" style="fill:none;stroke:none;" />
  <text dominant-baseline="hanging" text-anchor="start" transform="translate(70.012,45.0795)" font-family="Segoe UI" font-size="12" font-weight="400" fill="black">7-Tage-Inzidenz Stadt Aachen 03.03.2021</text>
  <polyline points="50.012,50.106 66.012,50.106" style="fill:none;stroke:rgb(31,119,180);stroke-width:2" />
</svg>