<?xml version="1.0" encoding="utf-8" standalone="no"?>
<!DOCTYPE svg PUBLIC "-//W3C//DTD SVG 1.1//EN" "http://www.w3.org/Graphics/SVG/1.1/DTD/svg11.dtd">
<svg width="600" height="400" version="1.1" xmlns:xlink="http://www.w3.org/1999/xlink" xmlns="http://www.w3.org/2000/svg">
  <rect x="0" y="0" width="600" height="400" style="fill:rgb(255,255,255);stroke:none;" />
  <polyline points="34.012,358.4713 30.012,358.4713" style="fill:none;stroke:black;stroke-width:1" />
  <polyline points="34.012,344.2334 30.012,344.2334" style="fill:none;stroke:black;stroke-width:1" />
  <polyline points="34.012,329.9954 30.012,329.9954" style="fill:none;stroke:black;stroke-width:1" />
  <polyline points="34.012,315.7575 30.012,315.7575" style="fill:none;stroke:black;stroke-width:1" />
  <polyline points="34.012,287.2816 30.012,287.2816" style="fill:none;stroke:black;stroke-width:1" />
  <polyline points="34.012,273.0437 30.012,273.0437" style="fill:none;stroke:black;stroke-width:1" />
  <polyline points="34.012,258.8058 30.012,258.8058" style="fill:none;stroke:black;stroke-width:1" />
  <polyline points="34.012,244.5678 30.012,244.5678" style="fill:none;stroke:black;stroke-width:1" />
  <polyline points="34.012,216.0919 30.012,216.0919" style="fill:none;stroke:black;stroke-width:1" />
  <polyline points="34.012,201.854 30.012,201.854" style="fill:none;stroke:black;stroke-width:1" />
  <polyline points="34.012,187.6161 30.012,187.6161" style="fill:none;stroke:black;stroke-width:1" />
  <polyline points="34.012,173.3781 30.012,173.3781" style="fill:none;stroke:black;stroke-width:1" />
  <polyline points="34.012,144.9023 30.012,144.9023" style="fill:none;stroke:black;stroke-width:1" />
  <polyline points="34.012,130.6643 30.012,130.6643" style="fill:none;stroke:black;stroke-width:1" />
  <polyline points="34.012,116.4264 30.012,116.4264" style="fill:none;stroke:black;stroke-width:1" />
  <polyline points="34.012,102.1885 30.012,102.1885" style="fill:none;stroke:black;stroke-width:1" />
  <polyline points="34.012,73.7126 30.012,73.7126" style="fill:none;stroke:black;stroke-width:1" />
  <polyline points="34.012,59.4747 30.012,59.4747" style="fill:none;stroke:black;stroke-width:1" />
  <polyline points="34.012,45.2367 30.012,45.2367" style="fill:none;stroke:black;stroke-width:1" />
  <polyline points="34.012,30.9988 30.012,30.9988" style="fill:none;stroke:black;stroke-width:1" />
  <polyline points="55.9269,370.947 55.9269,374.947" style="fill:none;stroke:black;stroke-width:1" />
  <polyline points="158.7586,370.947 158.7586,374.947" style="fill:none;stroke:black;stroke-width:1" />
  <polyline points="261.5902,370.947 261.5902,374.947" style="fill:none;stroke:black;stroke-width:1" />
  <polyline points="361.0503,370.947 361.0503,374.947" style="fill:none;stroke:black;stroke-width:1" />
  <polyline points="463.8819,370.947 463.8819,374.947" style="fill:none;stroke:black;stroke-width:1" />
  <polyline points="566.7135,370.947 566.7135,374.947" style="fill:none;stroke:black;stroke-width:1" />
  <text dominant-baseline="middle" text-anchor="end" transform="translate(23.012,301.5196)" font-family="Segoe UI" font-size="12" font-weight="400" fill="black">50</text>
  <text dominant-baseline="middle" text-anchor="end" transform="translate(23.012,230.3299)" font-family="Segoe UI" font-size="12" font-weight="400" fill="black">100</text>
  <text dominant-baseline="middle" text-anchor="end" transform="translate(23.012,159.1402)" font-family="Segoe UI" font-size="12" font-weight="400" fill="black">150</text>
  <text dominant-baseline="middle" text-anchor="end" transform="translate(23.012,87.9505)" font-family="Segoe UI" font-size="12" font-weight="400" fill="black">200</text>
  <polyline points="34.012,301.5196 27.012,301.5196" style="fill:none;stroke:black;stroke-width:1" />
  <polyline points="34.012,230.3299 27.012,230.3299" style="fill:none;stroke:black;stroke-width:1" />
  <polyline points="34.012,159.1402 27.012,159.1402" style="fill:none;stroke:black;stroke-width:1" />
  <polyline points="34.012,87.9505 27.012,87.9505" style="fill:none;stroke:black;stroke-width:1" />
  <text dominant-baseline="hanging" text-anchor="middle" transform="translate(106.4999,381.947)" font-family="Segoe UI" font-size="12" font-weight="400" fill="black">01. October</text>
  <text dominant-baseline="hanging" text-anchor="middle" transform="translate(209.3315,381.947)" font-family="Segoe UI" font-size="12" font-weight="400" fill="black">01. December</text>
  <text dominant-baseline="hanging" text-anchor="middle" transform="translate(313.8489,381.947)" font-family="Segoe UI" font-size="12" font-weight="400" fill="black">01. February</text>
  <text dominant-baseline="hanging" text-anchor="middle" transform="translate(413.309,381.947)" font-family="Segoe UI" font-size="12" font-weight="400" fill="black">01. April</text>
  <text dominant-baseline="hanging" text-anchor="middle" transform="translate(516.1406,381.947)" font-family="Segoe UI" font-size="12" font-weight="400" fill="black">01. June</text>
  <polyline points="106.4999,370.947 106.4999,377.947" style="fill:none;stroke:black;stroke-width:1" />
  <polyline points="209.3315,370.947 209.3315,377.947" style="fill:none;stroke:black;stroke-width:1" />
  <polyline points="313.8489,370.947 313.8489,377.947" style="fill:none;stroke:black;stroke-width:1" />
  <polyline points="413.309,370.947 413.309,377.947" style="fill:none;stroke:black;stroke-width:1" />
  <polyline points="516.1406,370.947 516.1406,377.947" style="fill:none;stroke:black;stroke-width:1" />
  <polyline points="34.012,352.6086 35.6978,352.1899 37.3835,358.1921 42.4408,354.2837 44.1266,358.1921 45.8124,358.7505 47.4981,359.3088 49.1839,358.1921 54.2412,362.6589 55.9269,360.9839 57.6127,361.5422 59.2985,360.9839 60.9842,360.9839 66.0415,361.5422 67.7273,363.2173 69.4131,361.5422 71.0988,360.9839 72.7846,358.7505 77.8419,352.6086 79.5276,348.1418 81.2134,343.1167 82.8992,342.5583 84.5849,338.0915 89.6422,343.675 91.328,344.2334 93.0138,348.1418 94.6995,346.4668 96.3853,347.5835 101.4426,331.9497 103.1283,332.508 104.8141,331.3913 106.4999,321.341 108.1856,315.7575 113.2429,309.0573 114.9287,310.174 116.6145,302.3571 118.3002,301.2222 119.986,304.0817 125.0433,289.2124 126.729,287.4967 128.4148,282.3496 130.1006,272.0555 131.7863,250.3234 136.8436,228.0194 138.5294,223.4443 140.2152,219.441 141.9009,200.5684 143.5867,199.9965 148.644,135.9441 150.3297,130.797 152.0155,127.9375 153.7013,130.2251 155.387,97.627 160.4443,117.0715 162.1301,106.7774 163.8159,107.9212 165.5016,100.4865 167.1874,118.2153 172.2447,90.1924 173.9304,83.9015 175.6162,58.1662 178.9877,32.4308 184.045,61.0256 185.7308,75.3231 187.4166,83.9015 189.1023,64.9574 190.7881,119.3591 195.8454,165.6827 197.5311,149.0977 199.2169,151.9572 200.9027,206.2874 202.5884,183.9834 207.6457,186.8429 209.3315,211.4344 211.0173,223.4443 212.703,195.9932 214.3888,199.9965 219.4461,177.1206 221.1318,179.4082 222.8176,177.6925 224.5034,149.6696 226.1891,171.4017 231.2464,152.5291 232.9322,142.8068 234.618,131.3689 236.3037,143.9506 237.9895,133.0846 243.0468,115.3558 244.7325,115.9277 246.4183,139.3755 254.8471,155.3886 256.5329,153.101 258.2187,133.0846 259.9044,135.0148 266.6475,209.1468 268.3332,232.5946 270.019,248.0358 271.7048,234.3103 273.3905,213.579 280.1336,190.8461 281.8194,193.1337 283.5051,214.8658 285.1909,244.6044 290.2482,253.0113 291.9339,272.6274 293.6197,264.0489 295.3055,281.7777 296.9912,282.3496 302.0485,269.196 305.4201,276.6306 307.1058,256.6142 308.7916,245.1763 313.8489,261.1894 315.5346,275.1294 317.2204,269.196 318.9062,276.6306 320.5919,287.4967 325.6492,290.3561 327.335,287.4967 329.0208,272.0555 330.7065,273.1992 332.3923,266.3365 337.4496,280.6339 339.1353,282.3496 340.8211,302.9379 342.5069,309.8006 344.1926,325.8137 349.2499,325.8137 350.9357,326.9575 352.6215,317.8072 354.3072,318.3791 355.993,313.8039 361.0503,325.2418 362.736,324.098 364.4218,320.0948 366.1076,297.2189 367.7933,291.4999 372.8506,262.3332 374.5364,262.3332 376.2222,260.6175 377.9079,275.4868 379.5937,269.196 384.651,258.9018 386.3367,259.4737 388.0225,252.0391 389.7083,224.0161 391.394,206.2874 396.4513,198.2808 398.1371,197.7089 399.8229,202.2841 401.5086,190.8461 403.1944,203.4279 408.2517,221.7286 409.9375,218.2972 411.6232,225.1599 413.309,241.173 414.9947,216.0096 421.7378,202.856 423.4236,217.7253 425.1093,199.4246 426.7951,232.5946 431.8524,223.3871 433.5382,213.722 435.2239,166.2546 436.9097,186.8429 438.5954,182.8396 443.6527,174.2612 445.3385,155.3886 447.0243,160.5356 448.71,146.8101 450.3958,122.7905 455.4531,103.9179 457.1389,119.931 458.8246,134.2284 460.5104,128.5094 462.1961,131.3689 467.2534,157.1043 468.9392,145.0944 470.625,138.8036 472.3107,171.9736 473.9965,191.9899 479.0538,201.7122 480.7396,210.8625 482.4253,223.4443 485.7968,191.418 490.8541,194.2775 492.5399,179.9801 494.2257,174.2612 495.9114,178.5504 497.5972,213.722 504.3403,261.1894 506.026,285.781 507.7118,295.5032 509.3975,298.9346 514.4548,306.6552 516.1406,311.5163 517.8264,310.3725 521.1979,330.9608 526.2552,346.402 527.941,351.5491 529.6267,356.1242 531.3125,355.1949 532.9982,360.6994 538.0555,363.5589 539.7413,362.4151 541.4271,362.4151 543.1128,361.2713 544.7986,358.4118 549.8559,358.4118 551.5417,357.8399 553.2274,361.2713 554.9132,364.7027 556.5989,366.4184 561.6562,365.8465 563.342,367.5622 565.0278,364.1308 566.7135,360.6994 568.3993,361.8432 573.4566,361.8432 576.8281,362.4151 580.1996,364.7027 585.2569,365.8465 588.6285,358.9837 592,348.1177" style="fill:none;stroke:rgb(31,119,180);stroke-width:2;stroke-linejoin:bevel" />
  <text dominant-baseline="hanging" text-anchor="middle" transform="translate(313.006,8)" font-family="Segoe UI" font-size="18" font-weight="700" fill="black">7-Tage-Inzidenz Stadt Aachen 16.07.2021</text>
  <polygon points="34.012,29.0795 592,29.0795 592,370.947 34.012,370.947" style="fill:none;stroke:black;stroke-width:1" />
  <polygon points="42.012,37.0795 247.014,37.0795 247.014,63.1325 42.012,63.1325" style="fill:none;stroke:none;" />
  <text dominant-baseline="hanging" text-anchor="start" transform="translate(70.012,45.0795)" font-family="Segoe UI" font-size="12" font-weight="400" fill="black">7-Tage-Inzidenz Stadt Aachen 16.07.2021</text>
  <polyline points="50.012,50.106 66.012,50.106" style="fill:none;stroke:rgb(31,119,180);stroke-width:2" />
</svg>