<?xml version="1.0" encoding="utf-8" standalone="no"?>
<!DOCTYPE svg PUBLIC "-//W3C//DTD SVG 1.1//EN" "http://www.w3.org/Graphics/SVG/1.1/DTD/svg11.dtd">
<svg width="600" height="400" version="1.1" xmlns:xlink="http://www.w3.org/1999/xlink" xmlns="http://www.w3.org/2000/svg">
  <rect x="0" y="0" width="600" height="400" style="fill:rgb(255,255,255);stroke:none;" />
  <polyline points="34.012,362.7539 30.012,362.7539" style="fill:none;stroke:black;stroke-width:1" />
  <polyline points="34.012,348.3289 30.012,348.3289" style="fill:none;stroke:black;stroke-width:1" />
  <polyline points="34.012,333.904 30.012,333.904" style="fill:none;stroke:black;stroke-width:1" />
  <polyline points="34.012,319.479 30.012,319.479" style="fill:none;stroke:black;stroke-width:1" />
  <polyline points="34.012,290.6291 30.012,290.6291" style="fill:none;stroke:black;stroke-width:1" />
  <polyline points="34.012,276.2041 30.012,276.2041" style="fill:none;stroke:black;stroke-width:1" />
  <polyline points="34.012,261.7792 30.012,261.7792" style="fill:none;stroke:black;stroke-width:1" />
  <polyline points="34.012,247.3542 30.012,247.3542" style="fill:none;stroke:black;stroke-width:1" />
  <polyline points="34.012,218.5043 30.012,218.5043" style="fill:none;stroke:black;stroke-width:1" />
  <polyline points="34.012,204.0794 30.012,204.0794" style="fill:none;stroke:black;stroke-width:1" />
  <polyline points="34.012,189.6544 30.012,189.6544" style="fill:none;stroke:black;stroke-width:1" />
  <polyline points="34.012,175.2295 30.012,175.2295" style="fill:none;stroke:black;stroke-width:1" />
  <polyline points="34.012,146.3796 30.012,146.3796" style="fill:none;stroke:black;stroke-width:1" />
  <polyline points="34.012,131.9546 30.012,131.9546" style="fill:none;stroke:black;stroke-width:1" />
  <polyline points="34.012,117.5297 30.012,117.5297" style="fill:none;stroke:black;stroke-width:1" />
  <polyline points="34.012,103.1047 30.012,103.1047" style="fill:none;stroke:black;stroke-width:1" />
  <polyline points="34.012,74.2548 30.012,74.2548" style="fill:none;stroke:black;stroke-width:1" />
  <polyline points="34.012,59.8299 30.012,59.8299" style="fill:none;stroke:black;stroke-width:1" />
  <polyline points="34.012,45.4049 30.012,45.4049" style="fill:none;stroke:black;stroke-width:1" />
  <polyline points="34.012,30.98 30.012,30.98" style="fill:none;stroke:black;stroke-width:1" />
  <text dominant-baseline="middle" text-anchor="end" transform="translate(23.012,305.0541)" font-family="Segoe UI" font-size="12" font-weight="400" fill="black">50</text>
  <text dominant-baseline="middle" text-anchor="end" transform="translate(23.012,232.9293)" font-family="Segoe UI" font-size="12" font-weight="400" fill="black">100</text>
  <text dominant-baseline="middle" text-anchor="end" transform="translate(23.012,160.8045)" font-family="Segoe UI" font-size="12" font-weight="400" fill="black">150</text>
  <text dominant-baseline="middle" text-anchor="end" transform="translate(23.012,88.6798)" font-family="Segoe UI" font-size="12" font-weight="400" fill="black">200</text>
  <polyline points="34.012,305.0541 27.012,305.0541" style="fill:none;stroke:black;stroke-width:1" />
  <polyline points="34.012,232.9293 27.012,232.9293" style="fill:none;stroke:black;stroke-width:1" />
  <polyline points="34.012,160.8045 27.012,160.8045" style="fill:none;stroke:black;stroke-width:1" />
  <polyline points="34.012,88.6798 27.012,88.6798" style="fill:none;stroke:black;stroke-width:1" />
  <text dominant-baseline="hanging" text-anchor="middle" transform="translate(72.8026,381.947)" font-family="Segoe UI" font-size="12" font-weight="400" fill="black">01. September</text>
  <text dominant-baseline="hanging" text-anchor="middle" transform="translate(162.3194,381.947)" font-family="Segoe UI" font-size="12" font-weight="400" fill="black">01. October</text>
  <text dominant-baseline="hanging" text-anchor="middle" transform="translate(254.8201,381.947)" font-family="Segoe UI" font-size="12" font-weight="400" fill="black">01. November</text>
  <text dominant-baseline="hanging" text-anchor="middle" transform="translate(344.3369,381.947)" font-family="Segoe UI" font-size="12" font-weight="400" fill="black">01. December</text>
  <text dominant-baseline="hanging" text-anchor="middle" transform="translate(436.8376,381.947)" font-family="Segoe UI" font-size="12" font-weight="400" fill="black">01. January</text>
  <text dominant-baseline="hanging" text-anchor="middle" transform="translate(529.3382,381.947)" font-family="Segoe UI" font-size="12" font-weight="400" fill="black">01. February</text>
  <polyline points="72.8026,370.947 72.8026,377.947" style="fill:none;stroke:black;stroke-width:1" />
  <polyline points="162.3194,370.947 162.3194,377.947" style="fill:none;stroke:black;stroke-width:1" />
  <polyline points="254.8201,370.947 254.8201,377.947" style="fill:none;stroke:black;stroke-width:1" />
  <polyline points="344.3369,370.947 344.3369,377.947" style="fill:none;stroke:black;stroke-width:1" />
  <polyline points="436.8376,370.947 436.8376,377.947" style="fill:none;stroke:black;stroke-width:1" />
  <polyline points="529.3382,370.947 529.3382,377.947" style="fill:none;stroke:black;stroke-width:1" />
  <polyline points="34.012,356.8142 36.9959,356.3899 39.9798,362.471 48.9315,358.5112 51.9154,362.471 54.8993,363.0367 57.8831,363.6024 60.867,362.471 69.8187,366.9965 72.8026,365.2994 75.7865,365.8651 78.7704,365.2994 81.7543,365.2994 90.706,365.8651 93.6899,367.5622 96.6738,365.8651 99.6576,365.2994 102.6415,363.0367 111.5932,356.8142 114.5771,352.2887 117.561,347.1975 120.5449,346.6319 123.5288,342.1064 132.4805,347.7632 135.4644,348.3289 138.4483,352.2887 141.4321,350.5916 144.416,351.723 153.3677,335.8838 156.3516,336.4495 159.3355,335.3182 162.3194,325.1358 165.3033,319.479 174.255,312.6908 177.2389,313.8222 180.2228,305.9026 183.2067,304.7528 186.1905,307.6498 195.1422,292.5852 198.1261,290.847 201.11,285.6323 204.0939,275.2029 207.0778,253.1854 216.0295,230.5885 219.0134,225.9532 221.9973,221.8974 224.9812,202.7769 227.965,202.1975 236.9167,137.3037 239.9006,132.0891 242.8845,129.192 245.8684,131.5096 248.8523,98.4834 257.804,118.1833 260.7879,107.7539 263.7718,108.9127 266.7557,101.3804 269.7396,119.3421 278.6912,90.9511 281.6751,84.5776 284.659,58.5042 290.6268,32.4308 299.5785,61.4012 302.5624,75.8864 305.5463,84.5776 308.5302,65.3847 311.5141,120.5009 320.4657,167.433 323.4496,150.6301 326.4335,153.5272 329.4174,208.571 332.4013,185.974 341.353,188.8711 344.3369,213.7856 347.3208,225.9532 350.3047,198.1416 353.2886,202.1975 362.2402,179.0211 365.2241,181.3388 368.208,179.6005 371.1919,151.2095 374.1758,173.2271 383.1275,154.1066 386.1114,144.2566 389.0953,132.6685 392.0792,145.4155 395.0631,134.4067 404.0147,116.445 406.9986,117.0244 409.9825,140.7802 424.902,157.0036 427.8859,154.686 430.8698,134.4067 433.8537,136.3622 445.7892,211.468 448.7731,235.2238 451.757,250.8678 454.7409,236.962 457.7248,215.9584 469.6604,192.9269 472.6443,195.2446 475.6282,217.2621 478.6121,247.3913 487.5637,255.9086 490.5476,275.7823 493.5315,267.0912 496.5154,285.0529 499.4993,285.6323 508.451,272.3059 514.4188,279.8382 517.4027,259.5589 520.3866,247.9707 529.3382,264.1942 532.3221,278.3173 535.306,272.3059 538.2899,279.8382 541.2738,290.847 550.2255,293.744 553.2094,290.847 556.1933,275.2029 559.1772,276.3617 562.1611,269.4088 571.1127,283.8941 574.0966,285.6323 577.0805,306.491 580.0644,313.4439 583.0483,329.6673 592,329.6673" style="fill:none;stroke:rgb(31,119,180);stroke-width:2;stroke-linejoin:bevel" />
  <text dominant-baseline="hanging" text-anchor="middle" transform="translate(313.006,8)" font-family="Segoe UI" font-size="18" font-weight="700" fill="black">7-Tage-Inzidenz Stadt Aachen 22.02.2021</text>
  <polygon points="34.012,29.0795 592,29.0795 592,370.947 34.012,370.947" style="fill:none;stroke:black;stroke-width:1" />
  <polygon points="42.012,37.0795 247.014,37.0795 247.014,63.1325 42.012,63.1325" style="fill:none;stroke:none;" />
  <text dominant-baseline="hanging" text-anchor="start" transform="translate(70.012,45.0795)" font-family="Segoe UI" font-size="12" font-weight="400" fill="black">7-Tage-Inzidenz Stadt Aachen 22.02.2021</text>
  <polyline points="50.012,50.106 66.012,50.106" style="fill:none;stroke:rgb(31,119,180);stroke-width:2" />
</svg>