<?xml version="1.0" encoding="utf-8" standalone="no"?>
<!DOCTYPE svg PUBLIC "-//W3C//DTD SVG 1.1//EN" "http://www.w3.org/Graphics/SVG/1.1/DTD/svg11.dtd">
<svg width="600" height="400" version="1.1" xmlns:xlink="http://www.w3.org/1999/xlink" xmlns="http://www.w3.org/2000/svg">
  <rect x="0" y="0" width="600" height="400" style="fill:rgb(255,255,255);stroke:none;" />
  <polyline points="34.012,358.4713 30.012,358.4713" style="fill:none;stroke:black;stroke-width:1" />
  <polyline points="34.012,344.2334 30.012,344.2334" style="fill:none;stroke:black;stroke-width:1" />
  <polyline points="34.012,329.9954 30.012,329.9954" style="fill:none;stroke:black;stroke-width:1" />
  <polyline points="34.012,315.7575 30.012,315.7575" style="fill:none;stroke:black;stroke-width:1" />
  <polyline points="34.012,287.2816 30.012,287.2816" style="fill:none;stroke:black;stroke-width:1" />
  <polyline points="34.012,273.0437 30.012,273.0437" style="fill:none;stroke:black;stroke-width:1" />
  <polyline points="34.012,258.8058 30.012,258.8058" style="fill:none;stroke:black;stroke-width:1" />
  <polyline points="34.012,244.5678 30.012,244.5678" style="fill:none;stroke:black;stroke-width:1" />
  <polyline points="34.012,216.0919 30.012,216.0919" style="fill:none;stroke:black;stroke-width:1" />
  <polyline points="34.012,201.854 30.012,201.854" style="fill:none;stroke:black;stroke-width:1" />
  <polyline points="34.012,187.6161 30.012,187.6161" style="fill:none;stroke:black;stroke-width:1" />
  <polyline points="34.012,173.3781 30.012,173.3781" style="fill:none;stroke:black;stroke-width:1" />
  <polyline points="34.012,144.9023 30.012,144.9023" style="fill:none;stroke:black;stroke-width:1" />
  <polyline points="34.012,130.6643 30.012,130.6643" style="fill:none;stroke:black;stroke-width:1" />
  <polyline points="34.012,116.4264 30.012,116.4264" style="fill:none;stroke:black;stroke-width:1" />
  <polyline points="34.012,102.1885 30.012,102.1885" style="fill:none;stroke:black;stroke-width:1" />
  <polyline points="34.012,73.7126 30.012,73.7126" style="fill:none;stroke:black;stroke-width:1" />
  <polyline points="34.012,59.4747 30.012,59.4747" style="fill:none;stroke:black;stroke-width:1" />
  <polyline points="34.012,45.2367 30.012,45.2367" style="fill:none;stroke:black;stroke-width:1" />
  <polyline points="34.012,30.9988 30.012,30.9988" style="fill:none;stroke:black;stroke-width:1" />
  <polyline points="55.1602,370.947 55.1602,374.947" style="fill:none;stroke:black;stroke-width:1" />
  <polyline points="154.3943,370.947 154.3943,374.947" style="fill:none;stroke:black;stroke-width:1" />
  <polyline points="253.6283,370.947 253.6283,374.947" style="fill:none;stroke:black;stroke-width:1" />
  <polyline points="349.6087,370.947 349.6087,374.947" style="fill:none;stroke:black;stroke-width:1" />
  <polyline points="448.8427,370.947 448.8427,374.947" style="fill:none;stroke:black;stroke-width:1" />
  <polyline points="548.0767,370.947 548.0767,374.947" style="fill:none;stroke:black;stroke-width:1" />
  <text dominant-baseline="middle" text-anchor="end" transform="translate(23.012,301.5196)" font-family="Segoe UI" font-size="12" font-weight="400" fill="black">50</text>
  <text dominant-baseline="middle" text-anchor="end" transform="translate(23.012,230.3299)" font-family="Segoe UI" font-size="12" font-weight="400" fill="black">100</text>
  <text dominant-baseline="middle" text-anchor="end" transform="translate(23.012,159.1402)" font-family="Segoe UI" font-size="12" font-weight="400" fill="black">150</text>
  <text dominant-baseline="middle" text-anchor="end" transform="translate(23.012,87.9505)" font-family="Segoe UI" font-size="12" font-weight="400" fill="black">200</text>
  <polyline points="34.012,301.5196 27.012,301.5196" style="fill:none;stroke:black;stroke-width:1" />
  <polyline points="34.012,230.3299 27.012,230.3299" style="fill:none;stroke:black;stroke-width:1" />
  <polyline points="34.012,159.1402 27.012,159.1402" style="fill:none;stroke:black;stroke-width:1" />
  <polyline points="34.012,87.9505 27.012,87.9505" style="fill:none;stroke:black;stroke-width:1" />
  <text dominant-baseline="hanging" text-anchor="middle" transform="translate(103.9638,381.947)" font-family="Segoe UI" font-size="12" font-weight="400" fill="black">01. October</text>
  <text dominant-baseline="hanging" text-anchor="middle" transform="translate(203.1979,381.947)" font-family="Segoe UI" font-size="12" font-weight="400" fill="black">01. December</text>
  <text dominant-baseline="hanging" text-anchor="middle" transform="translate(304.0587,381.947)" font-family="Segoe UI" font-size="12" font-weight="400" fill="black">01. February</text>
  <text dominant-baseline="hanging" text-anchor="middle" transform="translate(400.0391,381.947)" font-family="Segoe UI" font-size="12" font-weight="400" fill="black">01. April</text>
  <text dominant-baseline="hanging" text-anchor="middle" transform="translate(499.2731,381.947)" font-family="Segoe UI" font-size="12" font-weight="400" fill="black">01. June</text>
  <polyline points="103.9638,370.947 103.9638,377.947" style="fill:none;stroke:black;stroke-width:1" />
  <polyline points="203.1979,370.947 203.1979,377.947" style="fill:none;stroke:black;stroke-width:1" />
  <polyline points="304.0587,370.947 304.0587,377.947" style="fill:none;stroke:black;stroke-width:1" />
  <polyline points="400.0391,370.947 400.0391,377.947" style="fill:none;stroke:black;stroke-width:1" />
  <polyline points="499.2731,370.947 499.2731,377.947" style="fill:none;stroke:black;stroke-width:1" />
  <polyline points="34.012,352.6086 35.6388,352.1899 37.2656,358.1921 42.1459,354.2837 43.7727,358.1921 45.3995,358.7505 47.0263,359.3088 48.6531,358.1921 53.5334,362.6589 55.1602,360.9839 56.787,361.5422 58.4138,360.9839 60.0406,360.9839 64.921,361.5422 66.5477,363.2173 68.1745,361.5422 69.8013,360.9839 71.4281,358.7505 76.3085,352.6086 77.9353,348.1418 79.562,343.1167 81.1888,342.5583 82.8156,338.0915 87.696,343.675 89.3228,344.2334 90.9496,348.1418 92.5763,346.4668 94.2031,347.5835 99.0835,331.9497 100.7103,332.508 102.3371,331.3913 103.9638,321.341 105.5906,315.7575 110.471,309.0573 112.0978,310.174 113.7246,302.3571 115.3514,301.2222 116.9781,304.0817 121.8585,289.2124 123.4853,287.4967 125.1121,282.3496 126.7389,272.0555 128.3657,250.3234 133.246,228.0194 134.8728,223.4443 136.4996,219.441 138.1264,200.5684 139.7532,199.9965 144.6335,135.9441 146.2603,130.797 147.8871,127.9375 149.5139,130.2251 151.1407,97.627 156.021,117.0715 157.6478,106.7774 159.2746,107.9212 160.9014,100.4865 162.5282,118.2153 167.4085,90.1924 169.0353,83.9015 170.6621,58.1662 173.9157,32.4308 178.7961,61.0256 180.4228,75.3231 182.0496,83.9015 183.6764,64.9574 185.3032,119.3591 190.1836,165.6827 191.8104,149.0977 193.4371,151.9572 195.0639,206.2874 196.6907,183.9834 201.5711,186.8429 203.1979,211.4344 204.8247,223.4443 206.4514,195.9932 208.0782,199.9965 212.9586,177.1206 214.5854,179.4082 216.2122,177.6925 217.839,149.6696 219.4657,171.4017 224.3461,152.5291 225.9729,142.8068 227.5997,131.3689 229.2265,143.9506 230.8532,133.0846 235.7336,115.3558 237.3604,115.9277 238.9872,139.3755 247.1211,155.3886 248.7479,153.101 250.3747,133.0846 252.0015,135.0148 258.5086,209.1468 260.1354,232.5946 261.7622,248.0358 263.389,234.3103 265.0158,213.579 271.5229,190.8461 273.1497,193.1337 274.7765,214.8658 276.4033,244.6044 281.2837,253.0113 282.9104,272.6274 284.5372,264.0489 286.164,281.7777 287.7908,282.3496 292.6712,269.196 295.9247,276.6306 297.5515,256.6142 299.1783,245.1763 304.0587,261.1894 305.6855,275.1294 307.3122,269.196 308.939,276.6306 310.5658,287.4967 315.4462,290.3561 317.073,287.4967 318.6998,272.0555 320.3265,273.1992 321.9533,266.3365 326.8337,280.6339 328.4605,282.3496 330.0873,302.9379 331.7141,309.8006 333.3408,325.8137 338.2212,325.8137 339.848,326.9575 341.4748,317.8072 343.1016,318.3791 344.7283,313.8039 349.6087,325.2418 351.2355,324.098 352.8623,320.0948 354.4891,297.2189 356.1159,291.4999 360.9962,262.3332 362.623,262.3332 364.2498,260.6175 365.8766,275.4868 367.5034,269.196 372.3837,258.9018 374.0105,259.4737 375.6373,252.0391 377.2641,224.0161 378.8909,206.2874 383.7712,198.2808 385.398,197.7089 387.0248,202.2841 388.6516,190.8461 390.2784,203.4279 395.1588,221.7286 396.7855,218.2972 398.4123,225.1599 400.0391,241.173 401.6659,216.0096 408.173,202.856 409.7998,217.7253 411.4266,199.4246 413.0534,232.5946 417.9338,223.3871 419.5606,213.722 421.1873,166.2546 422.8141,186.8429 424.4409,182.8396 429.3213,174.2612 430.9481,155.3886 432.5749,160.5356 434.2016,146.8101 435.8284,122.7905 440.7088,103.9179 442.3356,119.931 443.9624,134.2284 445.5892,128.5094 447.2159,131.3689 452.0963,157.1043 453.7231,145.0944 455.3499,138.8036 456.9767,171.9736 458.6035,191.9899 463.4838,201.7122 465.1106,210.8625 466.7374,223.4443 469.991,191.418 474.8713,194.2775 476.4981,179.9801 478.1249,174.2612 479.7517,178.5504 481.3785,213.722 487.8856,261.1894 489.5124,285.781 491.1392,295.5032 492.766,298.9346 497.6463,306.6552 499.2731,311.5163 500.8999,310.3725 504.1535,330.9608 509.0339,346.402 510.6606,351.5491 512.2874,356.1242 513.9142,355.1949 515.541,360.6994 520.4214,363.5589 522.0482,362.4151 523.6749,362.4151 525.3017,361.2713 526.9285,358.4118 531.8089,358.4118 533.4357,357.8399 535.0624,361.2713 536.6892,364.7027 538.316,366.4184 543.1964,365.8465 544.8232,367.5622 546.45,364.1308 548.0767,360.6994 549.7035,361.8432 554.5839,361.8432 557.8375,362.4151 561.091,364.7027 565.9714,365.8465 569.225,358.9837 572.4786,348.1177 580.6125,336.6798 583.8661,322.3823 592,320.6667" style="fill:none;stroke:rgb(31,119,180);stroke-width:2;stroke-linejoin:bevel" />
  <text dominant-baseline="hanging" text-anchor="middle" transform="translate(313.006,8)" font-family="Segoe UI" font-size="18" font-weight="700" fill="black">7-Tage-Inzidenz Stadt Aachen 28.07.2021</text>
  <polygon points="34.012,29.0795 592,29.0795 592,370.947 34.012,370.947" style="fill:none;stroke:black;stroke-width:1" />
  <polygon points="42.012,37.0795 247.014,37.0795 247.014,63.1325 42.012,63.1325" style="fill:none;stroke:none;" />
  <text dominant-baseline="hanging" text-anchor="start" transform="translate(70.012,45.0795)" font-family="Segoe UI" font-size="12" font-weight="400" fill="black">7-Tage-Inzidenz Stadt Aachen 28.07.2021</text>
  <polyline points="50.012,50.106 66.012,50.106" style="fill:none;stroke:rgb(31,119,180);stroke-width:2" />
</svg>