<?xml version="1.0" encoding="utf-8" standalone="no"?>
<!DOCTYPE svg PUBLIC "-//W3C//DTD SVG 1.1//EN" "http://www.w3.org/Graphics/SVG/1.1/DTD/svg11.dtd">
<svg width="600" height="400" version="1.1" xmlns:xlink="http://www.w3.org/1999/xlink" xmlns="http://www.w3.org/2000/svg">
  <rect x="0" y="0" width="600" height="400" style="fill:rgb(255,255,255);stroke:none;" />
  <polyline points="34.012,353.5006 30.012,353.5006" style="fill:none;stroke:black;stroke-width:1" />
  <polyline points="34.012,339.4798 30.012,339.4798" style="fill:none;stroke:black;stroke-width:1" />
  <polyline points="34.012,325.4589 30.012,325.4589" style="fill:none;stroke:black;stroke-width:1" />
  <polyline points="34.012,311.438 30.012,311.438" style="fill:none;stroke:black;stroke-width:1" />
  <polyline points="34.012,283.3963 30.012,283.3963" style="fill:none;stroke:black;stroke-width:1" />
  <polyline points="34.012,269.3754 30.012,269.3754" style="fill:none;stroke:black;stroke-width:1" />
  <polyline points="34.012,255.3545 30.012,255.3545" style="fill:none;stroke:black;stroke-width:1" />
  <polyline points="34.012,241.3337 30.012,241.3337" style="fill:none;stroke:black;stroke-width:1" />
  <polyline points="34.012,213.2919 30.012,213.2919" style="fill:none;stroke:black;stroke-width:1" />
  <polyline points="34.012,199.2711 30.012,199.2711" style="fill:none;stroke:black;stroke-width:1" />
  <polyline points="34.012,185.2502 30.012,185.2502" style="fill:none;stroke:black;stroke-width:1" />
  <polyline points="34.012,171.2293 30.012,171.2293" style="fill:none;stroke:black;stroke-width:1" />
  <polyline points="34.012,143.1876 30.012,143.1876" style="fill:none;stroke:black;stroke-width:1" />
  <polyline points="34.012,129.1667 30.012,129.1667" style="fill:none;stroke:black;stroke-width:1" />
  <polyline points="34.012,115.1458 30.012,115.1458" style="fill:none;stroke:black;stroke-width:1" />
  <polyline points="34.012,101.125 30.012,101.125" style="fill:none;stroke:black;stroke-width:1" />
  <polyline points="34.012,73.0832 30.012,73.0832" style="fill:none;stroke:black;stroke-width:1" />
  <polyline points="34.012,59.0624 30.012,59.0624" style="fill:none;stroke:black;stroke-width:1" />
  <polyline points="34.012,45.0415 30.012,45.0415" style="fill:none;stroke:black;stroke-width:1" />
  <polyline points="34.012,31.0206 30.012,31.0206" style="fill:none;stroke:black;stroke-width:1" />
  <text dominant-baseline="middle" text-anchor="end" transform="translate(23.012,367.5215)" font-family="Segoe UI" font-size="12" font-weight="400" fill="black">0</text>
  <text dominant-baseline="middle" text-anchor="end" transform="translate(23.012,297.4172)" font-family="Segoe UI" font-size="12" font-weight="400" fill="black">50</text>
  <text dominant-baseline="middle" text-anchor="end" transform="translate(23.012,227.3128)" font-family="Segoe UI" font-size="12" font-weight="400" fill="black">100</text>
  <text dominant-baseline="middle" text-anchor="end" transform="translate(23.012,157.2085)" font-family="Segoe UI" font-size="12" font-weight="400" fill="black">150</text>
  <text dominant-baseline="middle" text-anchor="end" transform="translate(23.012,87.1041)" font-family="Segoe UI" font-size="12" font-weight="400" fill="black">200</text>
  <polyline points="34.012,367.5215 27.012,367.5215" style="fill:none;stroke:black;stroke-width:1" />
  <polyline points="34.012,297.4172 27.012,297.4172" style="fill:none;stroke:black;stroke-width:1" />
  <polyline points="34.012,227.3128 27.012,227.3128" style="fill:none;stroke:black;stroke-width:1" />
  <polyline points="34.012,157.2085 27.012,157.2085" style="fill:none;stroke:black;stroke-width:1" />
  <polyline points="34.012,87.1041 27.012,87.1041" style="fill:none;stroke:black;stroke-width:1" />
  <text dominant-baseline="hanging" text-anchor="middle" transform="translate(81.0996,381.947)" font-family="Segoe UI" font-size="12" font-weight="400" fill="black">01. September</text>
  <text dominant-baseline="hanging" text-anchor="middle" transform="translate(151.731,381.947)" font-family="Segoe UI" font-size="12" font-weight="400" fill="black">01. October</text>
  <text dominant-baseline="hanging" text-anchor="middle" transform="translate(224.7168,381.947)" font-family="Segoe UI" font-size="12" font-weight="400" fill="black">01. November</text>
  <text dominant-baseline="hanging" text-anchor="middle" transform="translate(295.3482,381.947)" font-family="Segoe UI" font-size="12" font-weight="400" fill="black">01. December</text>
  <text dominant-baseline="hanging" text-anchor="middle" transform="translate(368.3339,381.947)" font-family="Segoe UI" font-size="12" font-weight="400" fill="black">01. January</text>
  <text dominant-baseline="hanging" text-anchor="middle" transform="translate(441.3197,381.947)" font-family="Segoe UI" font-size="12" font-weight="400" fill="black">01. February</text>
  <text dominant-baseline="hanging" text-anchor="middle" transform="translate(507.2423,381.947)" font-family="Segoe UI" font-size="12" font-weight="400" fill="black">01. March</text>
  <text dominant-baseline="hanging" text-anchor="middle" transform="translate(580.2281,381.947)" font-family="Segoe UI" font-size="12" font-weight="400" fill="black">01. April</text>
  <polyline points="81.0996,370.947 81.0996,377.947" style="fill:none;stroke:black;stroke-width:1" />
  <polyline points="151.731,370.947 151.731,377.947" style="fill:none;stroke:black;stroke-width:1" />
  <polyline points="224.7168,370.947 224.7168,377.947" style="fill:none;stroke:black;stroke-width:1" />
  <polyline points="295.3482,370.947 295.3482,377.947" style="fill:none;stroke:black;stroke-width:1" />
  <polyline points="368.3339,370.947 368.3339,377.947" style="fill:none;stroke:black;stroke-width:1" />
  <polyline points="441.3197,370.947 441.3197,377.947" style="fill:none;stroke:black;stroke-width:1" />
  <polyline points="507.2423,370.947 507.2423,377.947" style="fill:none;stroke:black;stroke-width:1" />
  <polyline points="580.2281,370.947 580.2281,377.947" style="fill:none;stroke:black;stroke-width:1" />
  <polyline points="34.012,367.5622 38.7208,367.5621 45.7839,367.5621 48.1383,367.562 50.4927,347.7273 52.847,347.315 55.2014,353.2257 62.2646,349.3769 64.6189,353.2257 66.9733,353.7756 69.3277,354.3254 71.6821,353.2257 78.7452,357.6244 81.0996,355.9749 83.454,356.5248 85.8084,355.9749 88.1627,355.9749 95.2259,356.5248 97.5803,358.1743 99.9346,356.5248 102.289,355.9749 104.6434,353.7756 111.7065,347.7273 114.0609,343.3286 116.4153,338.3801 118.7697,337.8303 121.1241,333.4316 128.1872,338.9299 130.5416,339.4798 132.8959,343.3286 135.2503,341.6791 137.6047,342.7788 144.6678,327.3833 147.0222,327.9332 149.3766,326.8335 151.731,316.9364 154.0854,311.438 161.1485,304.84 163.5029,305.9397 165.8573,298.2419 168.2116,297.1243 170.566,299.9402 177.6292,285.2976 179.9835,283.608 182.3379,278.5394 184.6923,268.4022 187.0467,247.0015 194.1098,225.0376 196.4642,220.5321 198.8186,216.5899 201.173,198.005 203.5273,197.4419 210.5905,134.366 212.9449,129.2974 215.2992,126.4815 217.6536,128.7342 220.008,96.6331 227.0711,115.7811 229.4255,105.6439 231.7799,106.7703 234.1343,99.449 236.4887,116.9075 243.5518,89.3118 245.9062,83.1168 248.2606,57.7738 252.9693,32.4308 260.0325,60.5897 262.3868,74.6691 264.7412,83.1168 267.0956,64.4615 269.45,118.0338 276.5131,163.6512 278.8675,147.3191 281.2219,150.1349 283.5763,203.6368 285.9306,181.6729 292.9938,184.4888 295.3482,208.7054 297.7025,220.5321 300.0569,193.4996 302.4113,197.4419 309.4744,174.9148 311.8288,177.1675 314.1832,175.4779 316.5376,147.8822 318.8919,169.283 325.9551,150.6981 328.3095,141.1241 330.6638,129.8605 333.0182,142.2505 335.3726,131.5501 342.4357,114.0916 344.7901,114.6548 347.1445,137.745 358.9164,153.514 361.2708,151.2613 363.6252,131.5501 365.9795,133.4508 375.3971,206.4527 377.7514,229.543 380.1058,244.7488 382.4602,231.2325 384.8146,210.8173 394.2321,188.431 396.5865,190.6837 398.9409,212.0845 401.2952,241.3697 408.3584,249.6484 410.7128,268.9654 413.0671,260.5178 415.4215,277.9763 417.7759,278.5394 424.839,265.5864 429.5478,272.9077 431.9022,253.1965 434.2566,241.9329 441.3197,257.7019 443.6741,271.4293 446.0285,265.5864 448.3828,272.9077 450.7372,283.608 457.8004,286.4239 460.1547,283.608 462.5091,268.4022 464.8635,269.5286 467.2179,262.7705 474.281,276.8499 476.6354,278.5394 478.9898,298.8138 481.3442,305.572 483.6985,321.3409 490.7617,321.3409 493.1161,322.4673 495.4704,313.4565 497.8248,314.0196 500.1792,309.5142 507.2423,320.7778 509.5967,319.6514 511.9511,315.7092 514.3055,293.1821 516.6598,287.5503 523.723,258.8282 526.0774,258.8282 528.4317,257.1387 530.7861,271.7813 533.1405,265.5864 540.2036,255.4492 542.558,256.0123 544.9124,248.691 547.2668,221.0953 549.6212,203.6368 556.6843,195.7523 559.0387,195.1892 561.3931,199.6946 563.7474,188.431 566.1018,200.8209 573.165,218.8426 575.5193,215.4636 577.8737,222.2217 580.2281,237.9907 582.5825,213.2108 592,200.2578" style="fill:none;stroke:rgb(31,119,180);stroke-width:2;stroke-linejoin:bevel" />
  <text dominant-baseline="hanging" text-anchor="middle" transform="translate(313.006,8)" font-family="Segoe UI" font-size="18" font-weight="700" fill="black">7-Tage-Inzidenz Stadt Aachen 06.04.2021</text>
  <polygon points="34.012,29.0795 592,29.0795 592,370.947 34.012,370.947" style="fill:none;stroke:black;stroke-width:1" />
  <polygon points="42.012,37.0795 247.014,37.0795 247.014,63.1325 42.012,63.1325" style="fill:none;stroke:none;" />
  <text dominant-baseline="hanging" text-anchor="start" transform="translate(70.012,45.0795)" font-family="Segoe UI" font-size="12" font-weight="400" fill="black">7-Tage-Inzidenz Stadt Aachen 06.04.2021</text>
  <polyline points="50.012,50.106 66.012,50.106" style="fill:none;stroke:rgb(31,119,180);stroke-width:2" />
</svg>