<svg xmlns="http://www.w3.org/2000/svg" viewBox="0 0 125.38 20.291" height="76.689" width="473.877"><rect width="100%" height="100%" fill="white"/><g transform="translate(-13.23 -25.355)"><rect ry=".106" rx=".169" y="32.284" x="13.361" height="6.615" width="13.229" fill="#ea6e6e"/><rect ry=".106" rx=".169" y="32.284" x="26.591" height="6.615" width="13.229" fill="#ea6e6e"/><rect ry=".106" rx=".169" y="32.284" x="39.82" height="6.615" width="13.229" fill="#eca0a0"/><rect ry=".106" rx=".169" y="32.284" x="53.049" height="6.615" width="13.229" fill="#eca0a0"/><rect ry=".106" rx=".169" y="32.284" x="66.278" height="6.615" width="13.229" fill="#eca0a0"/><rect ry=".106" rx=".169" y="32.284" x="79.507" height="6.615" width="13.229" fill="#eca0a0"/><rect ry=".106" rx=".166" y="32.284" x="92.736" height="6.615" width="12.965" fill="#eca0a0"/><path d="M13.444 25.905h92.175c.062 0 .111.02.111.046v12.93c0 .026-.05.047-.111.047H13.444c-.062 0-.112-.02-.112-.046v-12.93c0-.026.05-.047.112-.047zm13.147-.103v13.23zm13.229 0v13.23zm13.229 0v13.23zm13.23 0v13.23zm13.228 0v13.23zm13.23 0v13.23zm-79.508 6.482h92.604" fill="none" stroke="#000" stroke-width=".206" stroke-miterlimit="0"/><text y="30.266" x="20.04" style="line-height:125%;-inkscape-font-specification:Arial;text-align:center" font-weight="400" font-size="2.749" font-family="Arial" letter-spacing="0" word-spacing="0" text-anchor="middle" stroke-width=".064"><tspan style="text-align:center" y="30.266" x="20.04">26.04.21</tspan></text><text y="30.266" x="33.269" style="line-height:125%;-inkscape-font-specification:Arial;text-align:center" font-weight="400" font-size="2.749" font-family="Arial" letter-spacing="0" word-spacing="0" text-anchor="middle" stroke-width=".064"><tspan style="text-align:center" y="30.266" x="33.269">27.04.21</tspan></text><text y="30.266" x="46.498" style="line-height:125%;-inkscape-font-specification:Arial;text-align:center" font-weight="400" font-size="2.749" font-family="Arial" letter-spacing="0" word-spacing="0" text-anchor="middle" stroke-width=".064"><tspan style="text-align:center" y="30.266" x="46.498">28.04.21</tspan></text><text y="30.266" x="59.727" style="line-height:125%;-inkscape-font-specification:Arial;text-align:center" font-weight="400" font-size="2.749" font-family="Arial" letter-spacing="0" word-spacing="0" text-anchor="middle" stroke-width=".064"><tspan style="text-align:center" y="30.266" x="59.727">29.04.21</tspan></text><text y="30.266" x="72.956" style="line-height:125%;-inkscape-font-specification:Arial;text-align:center" font-weight="400" font-size="2.749" font-family="Arial" letter-spacing="0" word-spacing="0" text-anchor="middle" stroke-width=".064"><tspan style="text-align:center" y="30.266" x="72.956">30.04.21</tspan></text><text y="30.266" x="86.185" style="line-height:125%;-inkscape-font-specification:Arial;text-align:center" font-weight="400" font-size="2.749" font-family="Arial" letter-spacing="0" word-spacing="0" text-anchor="middle" stroke-width=".064"><tspan style="text-align:center" y="30.266" x="86.185">01.05.21</tspan></text><text y="30.266" x="99.415" style="line-height:125%;-inkscape-font-specification:Arial;text-align:center" font-weight="400" font-size="2.749" font-family="Arial" letter-spacing="0" word-spacing="0" text-anchor="middle" stroke-width=".064"><tspan style="text-align:center" y="30.266" x="99.415">02.05.21</tspan></text><text y="36.616" x="20.04" style="line-height:125%;-inkscape-font-specification:Arial;text-align:center" font-weight="400" font-size="2.749" font-family="Arial" letter-spacing="0" word-spacing="0" text-anchor="middle" stroke-width=".064"><tspan style="text-align:center" y="36.616" x="20.04">178,4</tspan></text><text y="36.616" x="33.269" style="line-height:125%;-inkscape-font-specification:Arial;text-align:center" font-weight="400" font-size="2.749" font-family="Arial" letter-spacing="0" word-spacing="0" text-anchor="middle" stroke-width=".064"><tspan style="text-align:center" y="36.616" x="33.269">167,5</tspan></text><text y="36.616" x="46.498" style="line-height:125%;-inkscape-font-specification:Arial;text-align:center" font-weight="400" font-size="2.749" font-family="Arial" letter-spacing="0" word-spacing="0" text-anchor="middle" stroke-width=".064"><tspan style="text-align:center" y="36.616" x="46.498">143,4</tspan></text><text y="36.616" x="59.727" style="line-height:125%;-inkscape-font-specification:Arial;text-align:center" font-weight="400" font-size="2.749" font-family="Arial" letter-spacing="0" word-spacing="0" text-anchor="middle" stroke-width=".064"><tspan style="text-align:center" y="36.616" x="59.727">159,6</tspan></text><text y="36.616" x="72.956" style="line-height:125%;-inkscape-font-specification:Arial;text-align:center" font-weight="400" font-size="2.749" font-family="Arial" letter-spacing="0" word-spacing="0" text-anchor="middle" stroke-width=".064"><tspan style="text-align:center" y="36.616" x="72.956">161,2</tspan></text><text y="36.616" x="86.185" style="line-height:125%;-inkscape-font-specification:Arial;text-align:center" font-weight="400" font-size="2.749" font-family="Arial" letter-spacing="0" word-spacing="0" text-anchor="middle" stroke-width=".064"><tspan style="text-align:center" y="36.616" x="86.185">149,7</tspan></text><text y="36.616" x="99.415" style="line-height:125%;-inkscape-font-specification:Arial;text-align:center" font-weight="400" font-size="2.749" font-family="Arial" letter-spacing="0" word-spacing="0" text-anchor="middle" stroke-width=".064"><tspan style="text-align:center" y="36.616" x="99.415">149,2</tspan></text><rect ry=".071" rx=".12" y="41.677" x="15.151" height="3.969" width="3.969" fill="#92dc7c"/><text y="44.783" x="20.767" style="line-height:125%;-inkscape-font-specification:Arial" font-weight="400" font-size="3.175" font-family="Arial" letter-spacing="0" word-spacing="0" stroke-width=".265"><tspan y="44.783" x="20.767">&lt; 50</tspan></text><rect ry=".071" rx=".12" y="41.677" x="33.697" height="3.969" width="3.969" fill="#ffce19"/><text y="44.783" x="39.313" style="line-height:125%;-inkscape-font-specification:Arial" font-weight="400" font-size="3.175" font-family="Arial" letter-spacing="0" word-spacing="0" stroke-width=".265"><tspan y="44.783" x="39.313">&lt; 100</tspan></text><rect ry=".071" rx=".12" y="41.677" x="53.459" height="3.969" width="3.969" fill="#eca0a0"/><text y="44.783" x="59.074" style="line-height:125%;-inkscape-font-specification:Arial" font-weight="400" font-size="3.175" font-family="Arial" letter-spacing="0" word-spacing="0" stroke-width=".265"><tspan y="44.783" x="59.074">&lt; 165</tspan></text><rect ry=".071" rx=".12" y="41.677" x="73.23" height="3.969" width="3.969" fill="#ea6e6e"/><text y="44.783" x="78.845" style="line-height:125%;-inkscape-font-specification:Arial" font-weight="400" font-size="3.175" font-family="Arial" letter-spacing="0" word-spacing="0" stroke-width=".265"><tspan y="44.783" x="78.845">&gt; 165</tspan></text><rect ry=".108" rx=".169" y="25.49" x="116.886" height="13.715" width="21.588" fill="#eca0a0" stroke="#000" stroke-width=".269" stroke-miterlimit="0"/><text y="31.384" x="127.585" style="line-height:125%;-inkscape-font-specification:Arial;text-align:center" font-weight="400" font-size="3.528" font-family="Arial" letter-spacing="0" word-spacing="0" text-anchor="middle" stroke-width=".265"><tspan style="text-align:center" y="31.384" x="127.585">5 Tage unter</tspan><tspan style="text-align:center" y="35.793" x="127.585">165</tspan></text></g></svg>