<?xml version="1.0" encoding="utf-8" standalone="no"?>
<!DOCTYPE svg PUBLIC "-//W3C//DTD SVG 1.1//EN" "http://www.w3.org/Graphics/SVG/1.1/DTD/svg11.dtd">
<svg width="600" height="400" version="1.1" xmlns:xlink="http://www.w3.org/1999/xlink" xmlns="http://www.w3.org/2000/svg">
  <rect x="0" y="0" width="600" height="400" style="fill:rgb(255,255,255);stroke:none;" />
  <polyline points="34.012,362.7539 30.012,362.7539" style="fill:none;stroke:black;stroke-width:1" />
  <polyline points="34.012,348.3289 30.012,348.3289" style="fill:none;stroke:black;stroke-width:1" />
  <polyline points="34.012,333.904 30.012,333.904" style="fill:none;stroke:black;stroke-width:1" />
  <polyline points="34.012,319.479 30.012,319.479" style="fill:none;stroke:black;stroke-width:1" />
  <polyline points="34.012,290.6291 30.012,290.6291" style="fill:none;stroke:black;stroke-width:1" />
  <polyline points="34.012,276.2041 30.012,276.2041" style="fill:none;stroke:black;stroke-width:1" />
  <polyline points="34.012,261.7792 30.012,261.7792" style="fill:none;stroke:black;stroke-width:1" />
  <polyline points="34.012,247.3542 30.012,247.3542" style="fill:none;stroke:black;stroke-width:1" />
  <polyline points="34.012,218.5043 30.012,218.5043" style="fill:none;stroke:black;stroke-width:1" />
  <polyline points="34.012,204.0794 30.012,204.0794" style="fill:none;stroke:black;stroke-width:1" />
  <polyline points="34.012,189.6544 30.012,189.6544" style="fill:none;stroke:black;stroke-width:1" />
  <polyline points="34.012,175.2295 30.012,175.2295" style="fill:none;stroke:black;stroke-width:1" />
  <polyline points="34.012,146.3796 30.012,146.3796" style="fill:none;stroke:black;stroke-width:1" />
  <polyline points="34.012,131.9546 30.012,131.9546" style="fill:none;stroke:black;stroke-width:1" />
  <polyline points="34.012,117.5297 30.012,117.5297" style="fill:none;stroke:black;stroke-width:1" />
  <polyline points="34.012,103.1047 30.012,103.1047" style="fill:none;stroke:black;stroke-width:1" />
  <polyline points="34.012,74.2548 30.012,74.2548" style="fill:none;stroke:black;stroke-width:1" />
  <polyline points="34.012,59.8299 30.012,59.8299" style="fill:none;stroke:black;stroke-width:1" />
  <polyline points="34.012,45.4049 30.012,45.4049" style="fill:none;stroke:black;stroke-width:1" />
  <polyline points="34.012,30.98 30.012,30.98" style="fill:none;stroke:black;stroke-width:1" />
  <text dominant-baseline="middle" text-anchor="end" transform="translate(23.012,305.0541)" font-family="Segoe UI" font-size="12" font-weight="400" fill="black">50</text>
  <text dominant-baseline="middle" text-anchor="end" transform="translate(23.012,232.9293)" font-family="Segoe UI" font-size="12" font-weight="400" fill="black">100</text>
  <text dominant-baseline="middle" text-anchor="end" transform="translate(23.012,160.8045)" font-family="Segoe UI" font-size="12" font-weight="400" fill="black">150</text>
  <text dominant-baseline="middle" text-anchor="end" transform="translate(23.012,88.6798)" font-family="Segoe UI" font-size="12" font-weight="400" fill="black">200</text>
  <polyline points="34.012,305.0541 27.012,305.0541" style="fill:none;stroke:black;stroke-width:1" />
  <polyline points="34.012,232.9293 27.012,232.9293" style="fill:none;stroke:black;stroke-width:1" />
  <polyline points="34.012,160.8045 27.012,160.8045" style="fill:none;stroke:black;stroke-width:1" />
  <polyline points="34.012,88.6798 27.012,88.6798" style="fill:none;stroke:black;stroke-width:1" />
  <text dominant-baseline="hanging" text-anchor="middle" transform="translate(75.9417,381.947)" font-family="Segoe UI" font-size="12" font-weight="400" fill="black">01. September</text>
  <text dominant-baseline="hanging" text-anchor="middle" transform="translate(172.7027,381.947)" font-family="Segoe UI" font-size="12" font-weight="400" fill="black">01. October</text>
  <text dominant-baseline="hanging" text-anchor="middle" transform="translate(272.6889,381.947)" font-family="Segoe UI" font-size="12" font-weight="400" fill="black">01. November</text>
  <text dominant-baseline="hanging" text-anchor="middle" transform="translate(369.4499,381.947)" font-family="Segoe UI" font-size="12" font-weight="400" fill="black">01. December</text>
  <text dominant-baseline="hanging" text-anchor="middle" transform="translate(469.4362,381.947)" font-family="Segoe UI" font-size="12" font-weight="400" fill="black">01. January</text>
  <text dominant-baseline="hanging" text-anchor="middle" transform="translate(569.4225,381.947)" font-family="Segoe UI" font-size="12" font-weight="400" fill="black">01. February</text>
  <polyline points="75.9417,370.947 75.9417,377.947" style="fill:none;stroke:black;stroke-width:1" />
  <polyline points="172.7027,370.947 172.7027,377.947" style="fill:none;stroke:black;stroke-width:1" />
  <polyline points="272.6889,370.947 272.6889,377.947" style="fill:none;stroke:black;stroke-width:1" />
  <polyline points="369.4499,370.947 369.4499,377.947" style="fill:none;stroke:black;stroke-width:1" />
  <polyline points="469.4362,370.947 469.4362,377.947" style="fill:none;stroke:black;stroke-width:1" />
  <polyline points="569.4225,370.947 569.4225,377.947" style="fill:none;stroke:black;stroke-width:1" />
  <polyline points="34.012,356.8142 37.2374,356.3899 40.4627,362.471 50.1388,358.5112 53.3642,362.471 56.5895,363.0367 59.8149,363.6024 63.0403,362.471 72.7164,366.9965 75.9417,365.2994 79.1671,365.8651 82.3925,365.2994 85.6178,365.2994 95.2939,365.8651 98.5193,367.5622 101.7446,365.8651 104.97,365.2994 108.1954,363.0367 117.8715,356.8142 121.0968,352.2887 124.3222,347.1975 127.5476,346.6319 130.7729,342.1064 140.449,347.7632 143.6744,348.3289 146.8997,352.2887 150.1251,350.5916 153.3505,351.723 163.0266,335.8838 166.2519,336.4495 169.4773,335.3182 172.7027,325.1358 175.928,319.479 185.6041,312.6908 188.8295,313.8222 192.0548,305.9026 195.2802,304.7528 198.5056,307.6498 208.1817,292.5852 211.407,290.847 214.6324,285.6323 217.8578,275.2029 221.0831,253.1854 230.7592,230.5885 233.9846,225.9532 237.2099,221.8974 240.4353,202.7769 243.6607,202.1975 253.3368,137.3037 256.5621,132.0891 259.7875,129.192 263.0129,131.5096 266.2382,98.4834 275.9143,118.1833 279.1397,107.7539 282.365,108.9127 285.5904,101.3804 288.8158,119.3421 298.4919,90.9511 301.7172,84.5776 304.9426,58.5042 311.3933,32.4308 321.0694,61.4012 324.2948,75.8864 327.5201,84.5776 330.7455,65.3847 333.9709,120.5009 343.647,167.433 346.8723,150.6301 350.0977,153.5272 353.3231,208.571 356.5484,185.974 366.2245,188.8711 369.4499,213.7856 372.6752,225.9532 375.9006,198.1416 379.126,202.1975 388.8021,179.0211 392.0274,181.3388 395.2528,179.6005 398.4782,151.2095 401.7035,173.2271 411.3796,154.1066 414.605,144.2566 417.8303,132.6685 421.0557,145.4155 424.2811,134.4067 433.9572,116.445 437.1825,117.0244 440.4079,140.7802 456.5347,157.0036 459.7601,154.686 462.9854,134.4067 466.2108,136.3622 479.1123,211.468 482.3376,235.2238 485.563,250.8678 488.7883,236.962 492.0137,215.9584 504.9152,192.9269 508.1405,195.2446 511.3659,217.2621 514.5913,247.3913 524.2674,255.9086 527.4927,275.7823 530.7181,267.0912 533.9434,285.0529 537.1688,285.6323 546.8449,272.3059 553.2956,279.8382 556.521,259.5589 559.7464,247.9707 569.4225,264.1942 572.6478,278.3173 575.8732,272.3059 579.0985,279.8382 582.3239,290.847 592,293.744" style="fill:none;stroke:rgb(31,119,180);stroke-width:2;stroke-linejoin:bevel" />
  <text dominant-baseline="hanging" text-anchor="middle" transform="translate(313.006,8)" font-family="Segoe UI" font-size="18" font-weight="700" fill="black">7-Tage-Inzidenz Stadt Aachen 08.02.2021</text>
  <polygon points="34.012,29.0795 592,29.0795 592,370.947 34.012,370.947" style="fill:none;stroke:black;stroke-width:1" />
  <polygon points="42.012,37.0795 247.014,37.0795 247.014,63.1325 42.012,63.1325" style="fill:none;stroke:none;" />
  <text dominant-baseline="hanging" text-anchor="start" transform="translate(70.012,45.0795)" font-family="Segoe UI" font-size="12" font-weight="400" fill="black">7-Tage-Inzidenz Stadt Aachen 08.02.2021</text>
  <polyline points="50.012,50.106 66.012,50.106" style="fill:none;stroke:rgb(31,119,180);stroke-width:2" />
</svg>