<?xml version="1.0" encoding="utf-8" standalone="no"?>
<!DOCTYPE svg PUBLIC "-//W3C//DTD SVG 1.1//EN" "http://www.w3.org/Graphics/SVG/1.1/DTD/svg11.dtd">
<svg width="600" height="400" version="1.1" xmlns:xlink="http://www.w3.org/1999/xlink" xmlns="http://www.w3.org/2000/svg">
  <rect x="0" y="0" width="600" height="400" style="fill:rgb(255,255,255);stroke:none;" />
  <polyline points="34.012,346.3457 30.012,346.3457" style="fill:none;stroke:black;stroke-width:1" />
  <polyline points="34.012,325.1722 30.012,325.1722" style="fill:none;stroke:black;stroke-width:1" />
  <polyline points="34.012,303.9987 30.012,303.9987" style="fill:none;stroke:black;stroke-width:1" />
  <polyline points="34.012,282.8252 30.012,282.8252" style="fill:none;stroke:black;stroke-width:1" />
  <polyline points="34.012,240.4782 30.012,240.4782" style="fill:none;stroke:black;stroke-width:1" />
  <polyline points="34.012,219.3047 30.012,219.3047" style="fill:none;stroke:black;stroke-width:1" />
  <polyline points="34.012,198.1312 30.012,198.1312" style="fill:none;stroke:black;stroke-width:1" />
  <polyline points="34.012,176.9577 30.012,176.9577" style="fill:none;stroke:black;stroke-width:1" />
  <polyline points="34.012,134.6107 30.012,134.6107" style="fill:none;stroke:black;stroke-width:1" />
  <polyline points="34.012,113.4372 30.012,113.4372" style="fill:none;stroke:black;stroke-width:1" />
  <polyline points="34.012,92.2637 30.012,92.2637" style="fill:none;stroke:black;stroke-width:1" />
  <polyline points="34.012,71.0902 30.012,71.0902" style="fill:none;stroke:black;stroke-width:1" />
  <text dominant-baseline="middle" text-anchor="end" transform="translate(23.012,367.5192)" font-family="Segoe UI" font-size="12" font-weight="400" fill="black">0</text>
  <text dominant-baseline="middle" text-anchor="end" transform="translate(23.012,261.6517)" font-family="Segoe UI" font-size="12" font-weight="400" fill="black">100</text>
  <text dominant-baseline="middle" text-anchor="end" transform="translate(23.012,155.7842)" font-family="Segoe UI" font-size="12" font-weight="400" fill="black">200</text>
  <text dominant-baseline="middle" text-anchor="end" transform="translate(23.012,49.9166)" font-family="Segoe UI" font-size="12" font-weight="400" fill="black">300</text>
  <polyline points="34.012,367.5192 27.012,367.5192" style="fill:none;stroke:black;stroke-width:1" />
  <polyline points="34.012,261.6517 27.012,261.6517" style="fill:none;stroke:black;stroke-width:1" />
  <polyline points="34.012,155.7842 27.012,155.7842" style="fill:none;stroke:black;stroke-width:1" />
  <polyline points="34.012,49.9166 27.012,49.9166" style="fill:none;stroke:black;stroke-width:1" />
  <text dominant-baseline="hanging" text-anchor="middle" transform="translate(189.0693,381.947)" font-family="Segoe UI" font-size="12" font-weight="400" fill="black">01. January</text>
  <text dominant-baseline="hanging" text-anchor="middle" transform="translate(587.6322,381.947)" font-family="Segoe UI" font-size="12" font-weight="400" fill="black">01. January</text>
  <polyline points="189.0693,370.947 189.0693,377.947" style="fill:none;stroke:black;stroke-width:1" />
  <polyline points="587.6322,370.947 587.6322,377.947" style="fill:none;stroke:black;stroke-width:1" />
  <polyline points="34.012,367.5622 36.1959,367.5621 39.4718,367.5621 40.5637,367.562 41.6557,352.5732 42.7476,352.2618 43.8396,356.7249 47.1154,353.8187 48.2074,356.7249 49.2993,357.1401 50.3913,357.5552 51.4832,356.7249 54.7591,360.0462 55.8511,358.8007 56.943,359.2159 58.035,358.8007 59.1269,358.8007 62.4028,359.2159 63.4947,360.4614 64.5867,359.2159 65.6786,358.8007 66.7706,357.1401 70.0465,352.5732 71.1384,349.2519 72.2304,345.5154 73.3223,345.1002 74.4143,341.7789 77.6901,345.9305 78.7821,346.3457 79.874,349.2519 80.966,348.0064 82.0579,348.8367 85.3338,337.212 86.4257,337.6272 87.5177,336.7969 88.6097,329.3239 89.7016,325.1722 92.9775,320.1902 94.0694,321.0205 95.1614,315.2082 96.2533,314.3643 97.3453,316.4905 100.6211,305.4343 101.7131,304.1586 102.805,300.3314 103.897,292.6771 104.9889,276.5181 108.2648,259.9337 109.3568,256.5318 110.4487,253.5551 111.5407,239.5223 112.6326,239.097 115.9085,191.4702 117.0004,187.6431 118.0924,185.5169 119.1843,187.2178 120.2763,162.9792 123.5521,177.4373 124.6441,169.783 125.7361,170.6335 126.828,165.1054 127.92,178.2878 131.1958,157.4511 132.2878,152.7735 133.3797,133.6377 135.5636,114.502 138.8395,135.7639 139.9314,146.3949 141.0234,152.7735 142.1154,138.6874 143.2073,179.1383 146.4832,213.5827 147.5751,201.2507 148.6671,203.3769 149.759,243.7746 150.851,227.1903 154.1268,229.3165 155.2188,247.6018 156.3107,256.5318 157.4027,236.1203 158.4946,239.097 161.7705,222.0875 162.8625,223.7884 163.9544,222.5127 165.0464,201.676 166.1383,217.8351 169.4142,203.8022 170.5061,196.5731 171.5981,188.0683 172.69,197.4236 173.782,189.344 177.0578,176.1616 178.1498,176.5869 179.2418,194.0217 184.7015,205.9284 185.7935,204.2274 186.8854,189.344 187.9774,190.7792 192.3452,245.9008 193.4371,263.3356 194.5291,274.8171 195.621,264.6114 196.713,249.1964 201.0808,232.2932 202.1728,233.9941 203.2647,250.1532 204.3567,272.2657 207.6325,278.5167 208.7245,293.1024 209.8164,286.7238 210.9084,299.9062 212.0003,300.3314 215.2762,290.5509 217.4601,296.0791 218.5521,281.1957 219.644,272.6909 222.9199,284.5976 224.0118,294.9628 225.1038,290.5509 226.1957,296.0791 227.2877,304.1586 230.5635,306.2848 231.6555,304.1586 232.7475,292.6771 233.8394,293.5276 234.9314,288.4247 238.2072,299.0557 239.2992,300.3314 240.3911,315.6401 241.4831,320.7429 242.575,332.6496 245.8509,332.6496 246.9428,333.5001 248.0348,326.6963 249.1267,327.1215 250.2187,323.7196 253.4946,332.2244 254.5865,331.3739 255.6785,328.3972 256.7704,311.3877 257.8624,307.1353 261.1382,285.4481 262.2302,285.4481 263.3221,284.1724 264.4141,295.2286 265.506,290.5509 268.7819,282.8966 269.8739,283.3219 270.9658,277.7938 272.0578,256.9571 273.1497,243.7746 276.4256,237.8213 277.5175,237.3961 278.6095,240.798 279.7014,232.2932 280.7934,241.6484 284.0692,255.2561 285.1612,252.7047 286.2532,257.8075 287.3451,269.7142 288.4371,251.0037 292.8049,241.2232 293.8968,252.2794 294.9888,238.6718 296.0807,263.3356 299.3566,256.4893 300.4485,249.3028 301.5405,214.0079 302.6324,229.3165 303.7244,226.3398 307.0003,219.9613 308.0922,205.9284 309.1842,209.7555 310.2761,199.5498 311.3681,181.6897 314.6439,167.6568 315.7359,179.5635 316.8278,190.1945 317.9198,185.9421 319.0117,188.0683 322.2876,207.2041 323.3796,198.2741 324.4715,193.5964 325.5635,218.2603 326.6554,233.1437 329.9313,240.3727 331.0232,247.1766 332.1152,256.5318 334.2991,232.7184 337.5749,234.8446 338.6669,224.2136 339.7588,219.9613 340.8508,223.1505 341.9428,249.3028 346.3106,284.5976 347.4025,302.8829 348.4945,310.1119 349.5864,312.6634 352.8623,318.4041 353.9542,322.0186 355.0462,321.1682 357.2301,336.4768 360.506,347.9582 361.5979,351.7854 362.6899,355.1873 363.7818,354.4963 364.8738,358.5892 368.1496,360.7154 369.2416,359.8649 370.3335,359.8649 371.4255,359.0144 372.5174,356.8882 375.7933,356.8882 376.8853,356.463 377.9772,359.0144 379.0692,361.5659 380.1611,362.8416 383.437,362.4164 384.5289,363.6921 385.6209,361.1406 386.7128,358.5892 387.8048,359.4397 391.0806,359.4397 393.2645,359.8649 395.4485,361.5659 398.7243,362.4164 400.9082,357.3135 403.0921,349.2339 408.5519,340.7292 410.7358,330.0982 416.1956,328.8225 418.3795,339.0282 423.8392,338.603 426.0231,333.9253 431.4829,312.6634 433.6668,288.4247 439.1266,281.6209 441.3105,292.6771 446.7702,242.0737 448.9542,234.8446 454.4139,266.3123 456.5978,257.8075 464.2415,271.4152 471.8852,296.0791 477.3449,305.0091 479.5288,309.6867 484.9886,313.0886 487.1725,321.5934 492.6323,333.0749 494.8162,333.0749 500.2759,332.6496 502.4599,332.2244 507.9196,332.2244 510.1035,318.6167 515.5633,290.9762 517.7472,263.3356 523.207,256.5318 525.3909,242.0737 530.8506,184.6664 533.0345,163.4045 538.4943,142.1425 540.6782,140.8668 546.138,63.4733 548.3219,32.4308 553.7816,54.118 561.4253,68.1509 563.6092,58.9374 569.069,115.3524 571.2529,117.0534 592,89.5919" style="fill:none;stroke:rgb(31,119,180);stroke-width:2;stroke-linejoin:bevel" />
  <text dominant-baseline="hanging" text-anchor="middle" transform="translate(313.006,8)" font-family="Segoe UI" font-size="18" font-weight="700" fill="black">7-Tage-Inzidenz Stadt Aachen 05.01.2022</text>
  <polygon points="34.012,29.0795 592,29.0795 592,370.947 34.012,370.947" style="fill:none;stroke:black;stroke-width:1" />
  <polygon points="42.012,37.0795 247.014,37.0795 247.014,63.1325 42.012,63.1325" style="fill:none;stroke:none;" />
  <text dominant-baseline="hanging" text-anchor="start" transform="translate(70.012,45.0795)" font-family="Segoe UI" font-size="12" font-weight="400" fill="black">7-Tage-Inzidenz Stadt Aachen 05.01.2022</text>
  <polyline points="50.012,50.106 66.012,50.106" style="fill:none;stroke:rgb(31,119,180);stroke-width:2" />
</svg>