<?xml version="1.0" encoding="utf-8" standalone="no"?>
<!DOCTYPE svg PUBLIC "-//W3C//DTD SVG 1.1//EN" "http://www.w3.org/Graphics/SVG/1.1/DTD/svg11.dtd">
<svg width="600" height="400" version="1.1" xmlns:xlink="http://www.w3.org/1999/xlink" xmlns="http://www.w3.org/2000/svg">
  <rect x="0" y="0" width="600" height="400" style="fill:rgb(255,255,255);stroke:none;" />
  <polyline points="34.012,362.7539 30.012,362.7539" style="fill:none;stroke:black;stroke-width:1" />
  <polyline points="34.012,348.3289 30.012,348.3289" style="fill:none;stroke:black;stroke-width:1" />
  <polyline points="34.012,333.904 30.012,333.904" style="fill:none;stroke:black;stroke-width:1" />
  <polyline points="34.012,319.479 30.012,319.479" style="fill:none;stroke:black;stroke-width:1" />
  <polyline points="34.012,290.6291 30.012,290.6291" style="fill:none;stroke:black;stroke-width:1" />
  <polyline points="34.012,276.2041 30.012,276.2041" style="fill:none;stroke:black;stroke-width:1" />
  <polyline points="34.012,261.7792 30.012,261.7792" style="fill:none;stroke:black;stroke-width:1" />
  <polyline points="34.012,247.3542 30.012,247.3542" style="fill:none;stroke:black;stroke-width:1" />
  <polyline points="34.012,218.5043 30.012,218.5043" style="fill:none;stroke:black;stroke-width:1" />
  <polyline points="34.012,204.0794 30.012,204.0794" style="fill:none;stroke:black;stroke-width:1" />
  <polyline points="34.012,189.6544 30.012,189.6544" style="fill:none;stroke:black;stroke-width:1" />
  <polyline points="34.012,175.2295 30.012,175.2295" style="fill:none;stroke:black;stroke-width:1" />
  <polyline points="34.012,146.3796 30.012,146.3796" style="fill:none;stroke:black;stroke-width:1" />
  <polyline points="34.012,131.9546 30.012,131.9546" style="fill:none;stroke:black;stroke-width:1" />
  <polyline points="34.012,117.5297 30.012,117.5297" style="fill:none;stroke:black;stroke-width:1" />
  <polyline points="34.012,103.1047 30.012,103.1047" style="fill:none;stroke:black;stroke-width:1" />
  <polyline points="34.012,74.2548 30.012,74.2548" style="fill:none;stroke:black;stroke-width:1" />
  <polyline points="34.012,59.8299 30.012,59.8299" style="fill:none;stroke:black;stroke-width:1" />
  <polyline points="34.012,45.4049 30.012,45.4049" style="fill:none;stroke:black;stroke-width:1" />
  <polyline points="34.012,30.98 30.012,30.98" style="fill:none;stroke:black;stroke-width:1" />
  <text dominant-baseline="middle" text-anchor="end" transform="translate(23.012,305.0541)" font-family="Segoe UI" font-size="12" font-weight="400" fill="black">50</text>
  <text dominant-baseline="middle" text-anchor="end" transform="translate(23.012,232.9293)" font-family="Segoe UI" font-size="12" font-weight="400" fill="black">100</text>
  <text dominant-baseline="middle" text-anchor="end" transform="translate(23.012,160.8045)" font-family="Segoe UI" font-size="12" font-weight="400" fill="black">150</text>
  <text dominant-baseline="middle" text-anchor="end" transform="translate(23.012,88.6798)" font-family="Segoe UI" font-size="12" font-weight="400" fill="black">200</text>
  <polyline points="34.012,305.0541 27.012,305.0541" style="fill:none;stroke:black;stroke-width:1" />
  <polyline points="34.012,232.9293 27.012,232.9293" style="fill:none;stroke:black;stroke-width:1" />
  <polyline points="34.012,160.8045 27.012,160.8045" style="fill:none;stroke:black;stroke-width:1" />
  <polyline points="34.012,88.6798 27.012,88.6798" style="fill:none;stroke:black;stroke-width:1" />
  <text dominant-baseline="hanging" text-anchor="middle" transform="translate(64.6189,381.947)" font-family="Segoe UI" font-size="12" font-weight="400" fill="black">01. September</text>
  <text dominant-baseline="hanging" text-anchor="middle" transform="translate(135.2503,381.947)" font-family="Segoe UI" font-size="12" font-weight="400" fill="black">01. October</text>
  <text dominant-baseline="hanging" text-anchor="middle" transform="translate(208.2361,381.947)" font-family="Segoe UI" font-size="12" font-weight="400" fill="black">01. November</text>
  <text dominant-baseline="hanging" text-anchor="middle" transform="translate(278.8675,381.947)" font-family="Segoe UI" font-size="12" font-weight="400" fill="black">01. December</text>
  <text dominant-baseline="hanging" text-anchor="middle" transform="translate(351.8533,381.947)" font-family="Segoe UI" font-size="12" font-weight="400" fill="black">01. January</text>
  <text dominant-baseline="hanging" text-anchor="middle" transform="translate(424.839,381.947)" font-family="Segoe UI" font-size="12" font-weight="400" fill="black">01. February</text>
  <text dominant-baseline="hanging" text-anchor="middle" transform="translate(490.7617,381.947)" font-family="Segoe UI" font-size="12" font-weight="400" fill="black">01. March</text>
  <text dominant-baseline="hanging" text-anchor="middle" transform="translate(563.7474,381.947)" font-family="Segoe UI" font-size="12" font-weight="400" fill="black">01. April</text>
  <polyline points="64.6189,370.947 64.6189,377.947" style="fill:none;stroke:black;stroke-width:1" />
  <polyline points="135.2503,370.947 135.2503,377.947" style="fill:none;stroke:black;stroke-width:1" />
  <polyline points="208.2361,370.947 208.2361,377.947" style="fill:none;stroke:black;stroke-width:1" />
  <polyline points="278.8675,370.947 278.8675,377.947" style="fill:none;stroke:black;stroke-width:1" />
  <polyline points="351.8533,370.947 351.8533,377.947" style="fill:none;stroke:black;stroke-width:1" />
  <polyline points="424.839,370.947 424.839,377.947" style="fill:none;stroke:black;stroke-width:1" />
  <polyline points="490.7617,370.947 490.7617,377.947" style="fill:none;stroke:black;stroke-width:1" />
  <polyline points="563.7474,370.947 563.7474,377.947" style="fill:none;stroke:black;stroke-width:1" />
  <polyline points="34.012,356.8142 36.3664,356.3899 38.7208,362.471 45.7839,358.5112 48.1383,362.471 50.4927,363.0367 52.847,363.6024 55.2014,362.471 62.2646,366.9965 64.6189,365.2994 66.9733,365.8651 69.3277,365.2994 71.6821,365.2994 78.7452,365.8651 81.0996,367.5622 83.454,365.8651 85.8084,365.2994 88.1627,363.0367 95.2259,356.8142 97.5803,352.2887 99.9346,347.1975 102.289,346.6319 104.6434,342.1064 111.7065,347.7632 114.0609,348.3289 116.4153,352.2887 118.7697,350.5916 121.1241,351.723 128.1872,335.8838 130.5416,336.4495 132.8959,335.3182 135.2503,325.1358 137.6047,319.479 144.6678,312.6908 147.0222,313.8222 149.3766,305.9026 151.731,304.7528 154.0854,307.6498 161.1485,292.5852 163.5029,290.847 165.8573,285.6323 168.2116,275.2029 170.566,253.1854 177.6292,230.5885 179.9835,225.9532 182.3379,221.8974 184.6923,202.7769 187.0467,202.1975 194.1098,137.3037 196.4642,132.0891 198.8186,129.192 201.173,131.5096 203.5273,98.4834 210.5905,118.1833 212.9449,107.7539 215.2992,108.9127 217.6536,101.3804 220.008,119.3421 227.0711,90.9511 229.4255,84.5776 231.7799,58.5042 236.4887,32.4308 243.5518,61.4012 245.9062,75.8864 248.2606,84.5776 250.6149,65.3847 252.9693,120.5009 260.0325,167.433 262.3868,150.6301 264.7412,153.5272 267.0956,208.571 269.45,185.974 276.5131,188.8711 278.8675,213.7856 281.2219,225.9532 283.5763,198.1416 285.9306,202.1975 292.9938,179.0211 295.3482,181.3388 297.7025,179.6005 300.0569,151.2095 302.4113,173.2271 309.4744,154.1066 311.8288,144.2566 314.1832,132.6685 316.5376,145.4155 318.8919,134.4067 325.9551,116.445 328.3095,117.0244 330.6638,140.7802 342.4357,157.0036 344.7901,154.686 347.1445,134.4067 349.4989,136.3622 358.9164,211.468 361.2708,235.2238 363.6252,250.8678 365.9795,236.962 368.3339,215.9584 377.7514,192.9269 380.1058,195.2446 382.4602,217.2621 384.8146,247.3913 391.8777,255.9086 394.2321,275.7823 396.5865,267.0912 398.9409,285.0529 401.2952,285.6323 408.3584,272.3059 413.0671,279.8382 415.4215,259.5589 417.7759,247.9707 424.839,264.1942 427.1934,278.3173 429.5478,272.3059 431.9022,279.8382 434.2566,290.847 441.3197,293.744 443.6741,290.847 446.0285,275.2029 448.3828,276.3617 450.7372,269.4088 457.8004,283.8941 460.1547,285.6323 462.5091,306.491 464.8635,313.4439 467.2179,329.6673 474.281,329.6673 476.6354,330.8261 478.9898,321.5556 481.3442,322.135 483.6985,317.4997 490.7617,329.0879 493.1161,327.9291 495.4704,323.8732 497.8248,300.6969 500.1792,294.9028 507.2423,265.353 509.5967,265.353 511.9511,263.6148 514.3055,278.6794 516.6598,272.3059 523.723,261.8765 526.0774,262.4559 528.4317,254.9236 530.7861,226.5326 533.1405,208.571 540.2036,200.4592 542.558,199.8798 544.9124,204.5151 547.2668,192.9269 549.6212,205.6739 556.6843,224.215 559.0387,220.7385 561.3931,227.6914 563.7474,243.9149 566.1018,218.4209 575.5193,205.0945 577.8737,220.1591 580.2281,201.6181 582.5825,235.2238 589.6456,225.8953 592,216.1033" style="fill:none;stroke:rgb(31,119,180);stroke-width:2;stroke-linejoin:bevel" />
  <text dominant-baseline="hanging" text-anchor="middle" transform="translate(313.006,8)" font-family="Segoe UI" font-size="18" font-weight="700" fill="black">7-Tage-Inzidenz Stadt Aachen 13.04.2021</text>
  <polygon points="34.012,29.0795 592,29.0795 592,370.947 34.012,370.947" style="fill:none;stroke:black;stroke-width:1" />
  <polygon points="42.012,37.0795 247.014,37.0795 247.014,63.1325 42.012,63.1325" style="fill:none;stroke:none;" />
  <text dominant-baseline="hanging" text-anchor="start" transform="translate(70.012,45.0795)" font-family="Segoe UI" font-size="12" font-weight="400" fill="black">7-Tage-Inzidenz Stadt Aachen 13.04.2021</text>
  <polyline points="50.012,50.106 66.012,50.106" style="fill:none;stroke:rgb(31,119,180);stroke-width:2" />
</svg>