<?xml version="1.0" encoding="utf-8" standalone="no"?>
<!DOCTYPE svg PUBLIC "-//W3C//DTD SVG 1.1//EN" "http://www.w3.org/Graphics/SVG/1.1/DTD/svg11.dtd">
<svg width="600" height="400" version="1.1" xmlns:xlink="http://www.w3.org/1999/xlink" xmlns="http://www.w3.org/2000/svg">
  <rect x="0" y="0" width="600" height="400" style="fill:rgb(255,255,255);stroke:none;" />
  <polyline points="34.012,353.4851 30.012,353.4851" style="fill:none;stroke:black;stroke-width:1" />
  <polyline points="34.012,339.4649 30.012,339.4649" style="fill:none;stroke:black;stroke-width:1" />
  <polyline points="34.012,325.4447 30.012,325.4447" style="fill:none;stroke:black;stroke-width:1" />
  <polyline points="34.012,311.4245 30.012,311.4245" style="fill:none;stroke:black;stroke-width:1" />
  <polyline points="34.012,283.3841 30.012,283.3841" style="fill:none;stroke:black;stroke-width:1" />
  <polyline points="34.012,269.3639 30.012,269.3639" style="fill:none;stroke:black;stroke-width:1" />
  <polyline points="34.012,255.3438 30.012,255.3438" style="fill:none;stroke:black;stroke-width:1" />
  <polyline points="34.012,241.3236 30.012,241.3236" style="fill:none;stroke:black;stroke-width:1" />
  <polyline points="34.012,213.2832 30.012,213.2832" style="fill:none;stroke:black;stroke-width:1" />
  <polyline points="34.012,199.263 30.012,199.263" style="fill:none;stroke:black;stroke-width:1" />
  <polyline points="34.012,185.2428 30.012,185.2428" style="fill:none;stroke:black;stroke-width:1" />
  <polyline points="34.012,171.2226 30.012,171.2226" style="fill:none;stroke:black;stroke-width:1" />
  <polyline points="34.012,143.1822 30.012,143.1822" style="fill:none;stroke:black;stroke-width:1" />
  <polyline points="34.012,129.162 30.012,129.162" style="fill:none;stroke:black;stroke-width:1" />
  <polyline points="34.012,115.1418 30.012,115.1418" style="fill:none;stroke:black;stroke-width:1" />
  <polyline points="34.012,101.1216 30.012,101.1216" style="fill:none;stroke:black;stroke-width:1" />
  <polyline points="34.012,73.0813 30.012,73.0813" style="fill:none;stroke:black;stroke-width:1" />
  <polyline points="34.012,59.0611 30.012,59.0611" style="fill:none;stroke:black;stroke-width:1" />
  <polyline points="34.012,45.0409 30.012,45.0409" style="fill:none;stroke:black;stroke-width:1" />
  <polyline points="34.012,31.0207 30.012,31.0207" style="fill:none;stroke:black;stroke-width:1" />
  <text dominant-baseline="middle" text-anchor="end" transform="translate(23.012,367.5053)" font-family="Segoe UI" font-size="12" font-weight="400" fill="black">0</text>
  <text dominant-baseline="middle" text-anchor="end" transform="translate(23.012,297.4043)" font-family="Segoe UI" font-size="12" font-weight="400" fill="black">50</text>
  <text dominant-baseline="middle" text-anchor="end" transform="translate(23.012,227.3034)" font-family="Segoe UI" font-size="12" font-weight="400" fill="black">100</text>
  <text dominant-baseline="middle" text-anchor="end" transform="translate(23.012,157.2024)" font-family="Segoe UI" font-size="12" font-weight="400" fill="black">150</text>
  <text dominant-baseline="middle" text-anchor="end" transform="translate(23.012,87.1015)" font-family="Segoe UI" font-size="12" font-weight="400" fill="black">200</text>
  <polyline points="34.012,367.5053 27.012,367.5053" style="fill:none;stroke:black;stroke-width:1" />
  <polyline points="34.012,297.4043 27.012,297.4043" style="fill:none;stroke:black;stroke-width:1" />
  <polyline points="34.012,227.3034 27.012,227.3034" style="fill:none;stroke:black;stroke-width:1" />
  <polyline points="34.012,157.2024 27.012,157.2024" style="fill:none;stroke:black;stroke-width:1" />
  <polyline points="34.012,87.1015 27.012,87.1015" style="fill:none;stroke:black;stroke-width:1" />
  <text dominant-baseline="hanging" text-anchor="middle" transform="translate(250.4991,381.947)" font-family="Segoe UI" font-size="12" font-weight="400" fill="black">01. January</text>
  <polyline points="250.4991,370.947 250.4991,377.947" style="fill:none;stroke:black;stroke-width:1" />
  <polyline points="34.012,367.5622 37.0611,367.5621 41.6348,367.5621 43.1593,367.562 44.6839,347.7121 46.2085,347.2997 47.733,353.2102 52.3067,349.3615 53.8312,353.2102 55.3558,353.76 56.8804,354.3098 58.4049,353.2102 62.9786,357.6087 64.5031,355.9593 66.0277,356.5091 67.5523,355.9593 69.0768,355.9593 73.6505,356.5091 75.175,358.1585 76.6996,356.5091 78.2242,355.9593 79.7487,353.76 84.3224,347.7121 85.847,343.3136 87.3715,338.3653 88.8961,337.8155 90.4206,333.417 94.9943,338.9151 96.5189,339.4649 98.0434,343.3136 99.568,341.6642 101.0925,342.7638 105.6662,327.3691 107.1908,327.9189 108.7153,326.8192 110.2399,316.9226 111.7644,311.4245 116.3381,304.8268 117.8627,305.9264 119.3872,298.229 120.9118,297.1115 122.4363,299.9272 127.01,285.2853 128.5346,283.5959 130.0591,278.5275 131.5837,268.3908 133.1082,246.9911 137.6819,225.0282 139.2065,220.523 140.731,216.581 142.2556,197.997 143.7801,197.4339 148.3538,134.361 149.8784,129.2927 151.4029,126.4769 152.9275,128.7295 154.452,96.63 159.0257,115.7771 160.5503,105.6404 162.0748,106.7667 163.5994,99.4457 165.1239,116.9034 169.6976,89.309 171.2222,83.1143 172.7467,57.7726 175.7958,32.4308 180.3695,60.5883 181.8941,74.6671 183.4186,83.1143 184.9432,64.46 186.4677,118.0297 191.0414,163.6449 192.566,147.3135 194.0905,150.1292 195.6151,203.6285 197.1396,181.6657 201.7133,184.4814 203.2379,208.6969 204.7624,220.523 206.287,193.4918 207.8115,197.4339 212.3852,174.9079 213.9098,177.1605 215.4343,175.471 216.9589,147.8766 218.4834,169.2764 223.0571,150.6924 224.5817,141.1188 226.1062,129.8558 227.6308,142.2451 229.1553,131.5453 233.729,114.0876 235.2536,114.6508 236.7781,137.7399 244.4009,153.5081 245.9255,151.2555 247.45,131.5453 248.9746,133.4459 255.0728,206.4443 256.5974,229.5334 258.1219,244.7385 259.6465,231.2229 261.171,210.8087 267.2693,188.4235 268.7938,190.6761 270.3184,212.0758 271.843,241.3596 276.4166,249.6379 277.9412,268.954 279.4657,260.5067 280.9903,277.9644 282.5149,278.5275 287.0885,265.5751 290.1376,272.896 291.6622,253.1858 293.1868,241.9228 297.7604,257.691 299.285,271.4178 300.8095,265.5751 302.3341,272.896 303.8587,283.5959 308.4323,286.4116 309.9569,283.5959 311.4814,268.3908 313.006,269.5171 314.5306,262.7593 319.1042,276.8381 320.6288,278.5275 322.1533,298.8009 323.6779,305.5587 325.2025,321.327 329.7761,321.327 331.3007,322.4533 332.8252,313.4429 334.3498,314.006 335.8744,309.5008 340.448,320.7638 341.9726,319.6375 343.4971,315.6955 345.0217,293.1694 346.5463,287.5379 351.1199,258.8173 352.6445,258.8173 354.169,257.1278 355.6936,271.7697 357.2182,265.5751 361.7918,255.4384 363.3164,256.0015 364.841,248.6806 366.3655,221.0862 367.8901,203.6285 372.4637,195.7444 373.9883,195.1813 375.5129,199.6865 377.0374,188.4235 378.562,200.8128 383.1356,218.8336 384.6602,215.4547 386.1848,222.2125 387.7093,237.9807 389.2339,213.2021 395.3321,200.2496 396.8567,214.8915 398.3812,196.8707 399.9058,229.5334 404.4794,220.4667 406.004,210.9495 407.5286,164.208 409.0531,184.4814 410.5777,180.5394 415.1513,172.0921 416.6759,153.5081 418.2005,158.5765 419.725,145.0609 421.2496,121.4086 425.8232,102.8246 427.3478,118.5928 428.8724,132.6716 430.3969,127.0401 431.9215,129.8558 436.4951,155.1976 438.0197,143.3714 439.5443,137.1768 441.0688,169.8395 442.5934,189.5498 447.167,199.1233 448.6916,208.1337 450.2162,220.523 453.2653,188.9866 457.839,191.8024 459.3635,177.7236 460.8881,172.0921 462.4126,176.3157 463.9372,210.9495 470.0354,257.691 471.56,281.9064 473.0845,291.48 474.6091,294.8589 479.1828,302.4614 480.7073,307.2482 482.2319,306.1219 485.281,326.3953 489.8547,341.6004 491.3792,346.6687 492.9038,351.1739 494.4283,350.2588 495.9529,355.6791 500.5266,358.4949 502.0511,357.3686 503.5757,357.3686 505.1002,356.2423 506.6248,353.4265 511.1985,353.4265 512.723,352.8634 514.2476,356.2423 515.7721,359.6212 517.2967,361.3106 521.8704,360.7475 523.3949,362.4369 524.9195,359.058 526.444,355.6791 527.9686,356.8054 532.5423,356.8054 535.5914,357.3686 538.6405,359.6212 543.2142,360.7475 546.2633,353.9897 549.3124,343.2898 556.9352,332.0268 559.9843,317.9481 567.6071,316.2586 570.6562,329.7742 578.279,329.2111 581.3281,323.0164 588.9509,294.8589 592,262.7593" style="fill:none;stroke:rgb(31,119,180);stroke-width:2;stroke-linejoin:bevel" />
  <text dominant-baseline="hanging" text-anchor="middle" transform="translate(313.006,8)" font-family="Segoe UI" font-size="18" font-weight="700" fill="black">7-Tage-Inzidenz Stadt Aachen 13.08.2021</text>
  <polygon points="34.012,29.0795 592,29.0795 592,370.947 34.012,370.947" style="fill:none;stroke:black;stroke-width:1" />
  <polygon points="42.012,37.0795 247.014,37.0795 247.014,63.1325 42.012,63.1325" style="fill:none;stroke:none;" />
  <text dominant-baseline="hanging" text-anchor="start" transform="translate(70.012,45.0795)" font-family="Segoe UI" font-size="12" font-weight="400" fill="black">7-Tage-Inzidenz Stadt Aachen 13.08.2021</text>
  <polyline points="50.012,50.106 66.012,50.106" style="fill:none;stroke:rgb(31,119,180);stroke-width:2" />
</svg>