<?xml version="1.0" encoding="utf-8" standalone="no"?>
<!DOCTYPE svg PUBLIC "-//W3C//DTD SVG 1.1//EN" "http://www.w3.org/Graphics/SVG/1.1/DTD/svg11.dtd">
<svg width="600" height="400" version="1.1" xmlns:xlink="http://www.w3.org/1999/xlink" xmlns="http://www.w3.org/2000/svg">
  <rect x="0" y="0" width="600" height="400" style="fill:rgb(255,255,255);stroke:none;" />
  <polyline points="34.012,346.3457 30.012,346.3457" style="fill:none;stroke:black;stroke-width:1" />
  <polyline points="34.012,325.1722 30.012,325.1722" style="fill:none;stroke:black;stroke-width:1" />
  <polyline points="34.012,303.9987 30.012,303.9987" style="fill:none;stroke:black;stroke-width:1" />
  <polyline points="34.012,282.8252 30.012,282.8252" style="fill:none;stroke:black;stroke-width:1" />
  <polyline points="34.012,240.4782 30.012,240.4782" style="fill:none;stroke:black;stroke-width:1" />
  <polyline points="34.012,219.3047 30.012,219.3047" style="fill:none;stroke:black;stroke-width:1" />
  <polyline points="34.012,198.1312 30.012,198.1312" style="fill:none;stroke:black;stroke-width:1" />
  <polyline points="34.012,176.9577 30.012,176.9577" style="fill:none;stroke:black;stroke-width:1" />
  <polyline points="34.012,134.6107 30.012,134.6107" style="fill:none;stroke:black;stroke-width:1" />
  <polyline points="34.012,113.4372 30.012,113.4372" style="fill:none;stroke:black;stroke-width:1" />
  <polyline points="34.012,92.2637 30.012,92.2637" style="fill:none;stroke:black;stroke-width:1" />
  <polyline points="34.012,71.0902 30.012,71.0902" style="fill:none;stroke:black;stroke-width:1" />
  <text dominant-baseline="middle" text-anchor="end" transform="translate(23.012,367.5192)" font-family="Segoe UI" font-size="12" font-weight="400" fill="black">0</text>
  <text dominant-baseline="middle" text-anchor="end" transform="translate(23.012,261.6517)" font-family="Segoe UI" font-size="12" font-weight="400" fill="black">100</text>
  <text dominant-baseline="middle" text-anchor="end" transform="translate(23.012,155.7842)" font-family="Segoe UI" font-size="12" font-weight="400" fill="black">200</text>
  <text dominant-baseline="middle" text-anchor="end" transform="translate(23.012,49.9166)" font-family="Segoe UI" font-size="12" font-weight="400" fill="black">300</text>
  <polyline points="34.012,367.5192 27.012,367.5192" style="fill:none;stroke:black;stroke-width:1" />
  <polyline points="34.012,261.6517 27.012,261.6517" style="fill:none;stroke:black;stroke-width:1" />
  <polyline points="34.012,155.7842 27.012,155.7842" style="fill:none;stroke:black;stroke-width:1" />
  <polyline points="34.012,49.9166 27.012,49.9166" style="fill:none;stroke:black;stroke-width:1" />
  <text dominant-baseline="hanging" text-anchor="middle" transform="translate(202.2377,381.947)" font-family="Segoe UI" font-size="12" font-weight="400" fill="black">01. January</text>
  <polyline points="202.2377,370.947 202.2377,377.947" style="fill:none;stroke:black;stroke-width:1" />
  <polyline points="34.012,367.5622 36.3814,367.5621 39.9354,367.5621 41.1201,367.562 42.3048,352.5732 43.4895,352.2618 44.6742,356.7249 48.2283,353.8187 49.4129,356.7249 50.5976,357.1401 51.7823,357.5552 52.967,356.7249 56.5211,360.0462 57.7058,358.8007 58.8904,359.2159 60.0751,358.8007 61.2598,358.8007 64.8139,359.2159 65.9986,360.4614 67.1833,359.2159 68.3679,358.8007 69.5526,357.1401 73.1067,352.5732 74.2914,349.2519 75.4761,345.5154 76.6608,345.1002 77.8455,341.7789 81.3995,345.9305 82.5842,346.3457 83.7689,349.2519 84.9536,348.0064 86.1383,348.8367 89.6923,337.212 90.877,337.6272 92.0617,336.7969 93.2464,329.3239 94.4311,325.1722 97.9851,320.1902 99.1698,321.0205 100.3545,315.2082 101.5392,314.3643 102.7239,316.4905 106.278,305.4343 107.4626,304.1586 108.6473,300.3314 109.832,292.6771 111.0167,276.5181 114.5708,259.9337 115.7555,256.5318 116.9402,253.5551 118.1248,239.5223 119.3095,239.097 122.8636,191.4702 124.0483,187.6431 125.233,185.5169 126.4177,187.2178 127.6023,162.9792 131.1564,177.4373 132.3411,169.783 133.5258,170.6335 134.7105,165.1054 135.8952,178.2878 139.4492,157.4511 140.6339,152.7735 141.8186,133.6377 144.188,114.502 147.742,135.7639 148.9267,146.3949 150.1114,152.7735 151.2961,138.6874 152.4808,179.1383 156.0349,213.5827 157.2195,201.2507 158.4042,203.3769 159.5889,243.7746 160.7736,227.1903 164.3277,229.3165 165.5124,247.6018 166.697,256.5318 167.8817,236.1203 169.0664,239.097 172.6205,222.0875 173.8052,223.7884 174.9899,222.5127 176.1745,201.676 177.3592,217.8351 180.9133,203.8022 182.098,196.5731 183.2827,188.0683 184.4674,197.4236 185.6521,189.344 189.2061,176.1616 190.3908,176.5869 191.5755,194.0217 197.4989,205.9284 198.6836,204.2274 199.8683,189.344 201.053,190.7792 205.7917,245.9008 206.9764,263.3356 208.1611,274.8171 209.3458,264.6114 210.5305,249.1964 215.2692,232.2932 216.4539,233.9941 217.6386,250.1532 218.8233,272.2657 222.3774,278.5167 223.5621,293.1024 224.7468,286.7238 225.9314,299.9062 227.1161,300.3314 230.6702,290.5509 233.0396,296.0791 234.2243,281.1957 235.4089,272.6909 238.963,284.5976 240.1477,294.9628 241.3324,290.5509 242.5171,296.0791 243.7018,304.1586 247.2558,306.2848 248.4405,304.1586 249.6252,292.6771 250.8099,293.5276 251.9946,288.4247 255.5486,299.0557 256.7333,300.3314 257.918,315.6401 259.1027,320.7429 260.2874,332.6496 263.8415,332.6496 265.0261,333.5001 266.2108,326.6963 267.3955,327.1215 268.5802,323.7196 272.1343,332.2244 273.319,331.3739 274.5036,328.3972 275.6883,311.3877 276.873,307.1353 280.4271,285.4481 281.6118,285.4481 282.7965,284.1724 283.9811,295.2286 285.1658,290.5509 288.7199,282.8966 289.9046,283.3219 291.0893,277.7938 292.274,256.9571 293.4586,243.7746 297.0127,237.8213 298.1974,237.3961 299.3821,240.798 300.5668,232.2932 301.7515,241.6484 305.3055,255.2561 306.4902,252.7047 307.6749,257.8075 308.8596,269.7142 310.0443,251.0037 314.783,241.2232 315.9677,252.2794 317.1524,238.6718 318.3371,263.3356 321.8912,256.4893 323.0758,249.3028 324.2605,214.0079 325.4452,229.3165 326.6299,226.3398 330.184,219.9613 331.3687,205.9284 332.5534,209.7555 333.738,199.5498 334.9227,181.6897 338.4768,167.6568 339.6615,179.5635 340.8462,190.1945 342.0309,185.9421 343.2155,188.0683 346.7696,207.2041 347.9543,198.2741 349.139,193.5964 350.3237,218.2603 351.5084,233.1437 355.0624,240.3727 356.2471,247.1766 357.4318,256.5318 359.8012,232.7184 363.3552,234.8446 364.5399,224.2136 365.7246,219.9613 366.9093,223.1505 368.094,249.3028 372.8327,284.5976 374.0174,302.8829 375.2021,310.1119 376.3868,312.6634 379.9409,318.4041 381.1256,322.0186 382.3102,321.1682 384.6796,336.4768 388.2337,347.9582 389.4184,351.7854 390.6031,355.1873 391.7877,354.4963 392.9724,358.5892 396.5265,360.7154 397.7112,359.8649 398.8959,359.8649 400.0806,359.0144 401.2652,356.8882 404.8193,356.8882 406.004,356.463 407.1887,359.0144 408.3734,361.5659 409.5581,362.8416 413.1121,362.4164 414.2968,363.6921 415.4815,361.1406 416.6662,358.5892 417.8509,359.4397 421.4049,359.4397 423.7743,359.8649 426.1437,361.5659 429.6978,362.4164 432.0671,357.3135 434.4365,349.2339 440.3599,340.7292 442.7293,330.0982 448.6528,328.8225 451.0221,339.0282 456.9456,338.603 459.315,333.9253 465.2384,312.6634 467.6078,288.4247 473.5312,281.6209 475.9006,292.6771 481.824,242.0737 484.1934,234.8446 490.1168,266.3123 492.4862,257.8075 500.779,271.4152 509.0718,296.0791 514.9953,305.0091 517.3647,309.6867 523.2881,313.0886 525.6575,321.5934 531.5809,333.0749 533.9503,333.0749 539.8737,332.6496 542.2431,332.2244 548.1665,332.2244 550.5359,318.6167 556.4594,290.9762 558.8287,263.3356 564.7522,256.5318 567.1216,242.0737 573.045,184.6664 575.4144,163.4045 581.3378,142.1425 583.7072,140.8668 589.6306,63.4733 592,32.4308" style="fill:none;stroke:rgb(31,119,180);stroke-width:2;stroke-linejoin:bevel" />
  <text dominant-baseline="hanging" text-anchor="middle" transform="translate(313.006,8)" font-family="Segoe UI" font-size="18" font-weight="700" fill="black">7-Tage-Inzidenz Stadt Aachen 26.11.2021</text>
  <polygon points="34.012,29.0795 592,29.0795 592,370.947 34.012,370.947" style="fill:none;stroke:black;stroke-width:1" />
  <polygon points="42.012,37.0795 247.014,37.0795 247.014,63.1325 42.012,63.1325" style="fill:none;stroke:none;" />
  <text dominant-baseline="hanging" text-anchor="start" transform="translate(70.012,45.0795)" font-family="Segoe UI" font-size="12" font-weight="400" fill="black">7-Tage-Inzidenz Stadt Aachen 26.11.2021</text>
  <polyline points="50.012,50.106 66.012,50.106" style="fill:none;stroke:rgb(31,119,180);stroke-width:2" />
</svg>