<?xml version="1.0" encoding="utf-8" standalone="no"?>
<!DOCTYPE svg PUBLIC "-//W3C//DTD SVG 1.1//EN" "http://www.w3.org/Graphics/SVG/1.1/DTD/svg11.dtd">
<svg width="600" height="400" version="1.1" xmlns:xlink="http://www.w3.org/1999/xlink" xmlns="http://www.w3.org/2000/svg">
  <rect x="0" y="0" width="600" height="400" style="fill:rgb(255,255,255);stroke:none;" />
  <polyline points="34.012,362.7539 30.012,362.7539" style="fill:none;stroke:black;stroke-width:1" />
  <polyline points="34.012,348.3289 30.012,348.3289" style="fill:none;stroke:black;stroke-width:1" />
  <polyline points="34.012,333.904 30.012,333.904" style="fill:none;stroke:black;stroke-width:1" />
  <polyline points="34.012,319.479 30.012,319.479" style="fill:none;stroke:black;stroke-width:1" />
  <polyline points="34.012,290.6291 30.012,290.6291" style="fill:none;stroke:black;stroke-width:1" />
  <polyline points="34.012,276.2041 30.012,276.2041" style="fill:none;stroke:black;stroke-width:1" />
  <polyline points="34.012,261.7792 30.012,261.7792" style="fill:none;stroke:black;stroke-width:1" />
  <polyline points="34.012,247.3542 30.012,247.3542" style="fill:none;stroke:black;stroke-width:1" />
  <polyline points="34.012,218.5043 30.012,218.5043" style="fill:none;stroke:black;stroke-width:1" />
  <polyline points="34.012,204.0794 30.012,204.0794" style="fill:none;stroke:black;stroke-width:1" />
  <polyline points="34.012,189.6544 30.012,189.6544" style="fill:none;stroke:black;stroke-width:1" />
  <polyline points="34.012,175.2295 30.012,175.2295" style="fill:none;stroke:black;stroke-width:1" />
  <polyline points="34.012,146.3796 30.012,146.3796" style="fill:none;stroke:black;stroke-width:1" />
  <polyline points="34.012,131.9546 30.012,131.9546" style="fill:none;stroke:black;stroke-width:1" />
  <polyline points="34.012,117.5297 30.012,117.5297" style="fill:none;stroke:black;stroke-width:1" />
  <polyline points="34.012,103.1047 30.012,103.1047" style="fill:none;stroke:black;stroke-width:1" />
  <polyline points="34.012,74.2548 30.012,74.2548" style="fill:none;stroke:black;stroke-width:1" />
  <polyline points="34.012,59.8299 30.012,59.8299" style="fill:none;stroke:black;stroke-width:1" />
  <polyline points="34.012,45.4049 30.012,45.4049" style="fill:none;stroke:black;stroke-width:1" />
  <polyline points="34.012,30.98 30.012,30.98" style="fill:none;stroke:black;stroke-width:1" />
  <text dominant-baseline="middle" text-anchor="end" transform="translate(23.012,305.0541)" font-family="Segoe UI" font-size="12" font-weight="400" fill="black">50</text>
  <text dominant-baseline="middle" text-anchor="end" transform="translate(23.012,232.9293)" font-family="Segoe UI" font-size="12" font-weight="400" fill="black">100</text>
  <text dominant-baseline="middle" text-anchor="end" transform="translate(23.012,160.8045)" font-family="Segoe UI" font-size="12" font-weight="400" fill="black">150</text>
  <text dominant-baseline="middle" text-anchor="end" transform="translate(23.012,88.6798)" font-family="Segoe UI" font-size="12" font-weight="400" fill="black">200</text>
  <polyline points="34.012,305.0541 27.012,305.0541" style="fill:none;stroke:black;stroke-width:1" />
  <polyline points="34.012,232.9293 27.012,232.9293" style="fill:none;stroke:black;stroke-width:1" />
  <polyline points="34.012,160.8045 27.012,160.8045" style="fill:none;stroke:black;stroke-width:1" />
  <polyline points="34.012,88.6798 27.012,88.6798" style="fill:none;stroke:black;stroke-width:1" />
  <text dominant-baseline="hanging" text-anchor="middle" transform="translate(81.4227,381.947)" font-family="Segoe UI" font-size="12" font-weight="400" fill="black">01. September</text>
  <text dominant-baseline="hanging" text-anchor="middle" transform="translate(190.8322,381.947)" font-family="Segoe UI" font-size="12" font-weight="400" fill="black">01. October</text>
  <text dominant-baseline="hanging" text-anchor="middle" transform="translate(303.8885,381.947)" font-family="Segoe UI" font-size="12" font-weight="400" fill="black">01. November</text>
  <text dominant-baseline="hanging" text-anchor="middle" transform="translate(413.298,381.947)" font-family="Segoe UI" font-size="12" font-weight="400" fill="black">01. December</text>
  <text dominant-baseline="hanging" text-anchor="middle" transform="translate(526.3544,381.947)" font-family="Segoe UI" font-size="12" font-weight="400" fill="black">01. January</text>
  <polyline points="81.4227,370.947 81.4227,377.947" style="fill:none;stroke:black;stroke-width:1" />
  <polyline points="190.8322,370.947 190.8322,377.947" style="fill:none;stroke:black;stroke-width:1" />
  <polyline points="303.8885,370.947 303.8885,377.947" style="fill:none;stroke:black;stroke-width:1" />
  <polyline points="413.298,370.947 413.298,377.947" style="fill:none;stroke:black;stroke-width:1" />
  <polyline points="526.3544,370.947 526.3544,377.947" style="fill:none;stroke:black;stroke-width:1" />
  <polyline points="34.012,356.8142 37.659,356.3899 41.306,362.471 52.2469,358.5112 55.8939,362.471 59.5409,363.0367 63.1878,363.6024 66.8348,362.471 77.7758,366.9965 81.4227,365.2994 85.0697,365.8651 88.7167,365.2994 92.3637,365.2994 103.3046,365.8651 106.9516,367.5622 110.5986,365.8651 114.2456,365.2994 117.8925,363.0367 128.8335,356.8142 132.4805,352.2887 136.1275,347.1975 139.7744,346.6319 143.4214,342.1064 154.3624,347.7632 158.0093,348.3289 161.6563,352.2887 165.3033,350.5916 168.9503,351.723 179.8912,335.8838 183.5382,336.4495 187.1852,335.3182 190.8322,325.1358 194.4791,319.479 205.4201,312.6908 209.0671,313.8222 212.714,305.9026 216.361,304.7528 220.008,307.6498 230.9489,292.5852 234.5959,290.847 238.2429,285.6323 241.8899,275.2029 245.5369,253.1854 256.4778,230.5885 260.1248,225.9532 263.7718,221.8974 267.4187,202.7769 271.0657,202.1975 282.0067,137.3037 285.6536,132.0891 289.3006,129.192 292.9476,131.5096 296.5946,98.4834 307.5355,118.1833 311.1825,107.7539 314.8295,108.9127 318.4765,101.3804 322.1235,119.3421 333.0644,90.9511 336.7114,84.5776 340.3584,58.5042 347.6523,32.4308 358.5933,61.4012 362.2402,75.8864 365.8872,84.5776 369.5342,65.3847 373.1812,120.5009 384.1221,167.433 387.7691,150.6301 391.4161,153.5272 395.0631,208.571 398.71,185.974 409.651,188.8711 413.298,213.7856 416.9449,225.9532 420.5919,198.1416 424.2389,202.1975 435.1798,179.0211 438.8268,181.3388 442.4738,179.6005 446.1208,151.2095 449.7678,173.2271 460.7087,154.1066 464.3557,144.2566 468.0027,132.6685 471.6496,145.4155 475.2966,134.4067 486.2376,116.445 489.8845,117.0244 493.5315,140.7802 511.7664,157.0036 515.4134,154.686 519.0604,134.4067 522.7074,136.3622 537.2953,211.468 540.9423,235.2238 544.5893,250.8678 548.2362,236.962 551.8832,215.9584 566.4711,192.9269 570.1181,195.2446 573.7651,217.2621 577.4121,247.3913 588.353,255.9086 592,275.7823" style="fill:none;stroke:rgb(31,119,180);stroke-width:2;stroke-linejoin:bevel" />
  <text dominant-baseline="hanging" text-anchor="middle" transform="translate(313.006,8)" font-family="Segoe UI" font-size="18" font-weight="700" fill="black">7-Tage-Inzidenz Stadt Aachen 19.01.2021</text>
  <polygon points="34.012,29.0795 592,29.0795 592,370.947 34.012,370.947" style="fill:none;stroke:black;stroke-width:1" />
  <polygon points="42.012,37.0795 247.014,37.0795 247.014,63.1325 42.012,63.1325" style="fill:none;stroke:none;" />
  <text dominant-baseline="hanging" text-anchor="start" transform="translate(70.012,45.0795)" font-family="Segoe UI" font-size="12" font-weight="400" fill="black">7-Tage-Inzidenz Stadt Aachen 19.01.2021</text>
  <polyline points="50.012,50.106 66.012,50.106" style="fill:none;stroke:rgb(31,119,180);stroke-width:2" />
</svg>