<?xml version="1.0" encoding="utf-8" standalone="no"?>
<!DOCTYPE svg PUBLIC "-//W3C//DTD SVG 1.1//EN" "http://www.w3.org/Graphics/SVG/1.1/DTD/svg11.dtd">
<svg width="600" height="400" version="1.1" xmlns:xlink="http://www.w3.org/1999/xlink" xmlns="http://www.w3.org/2000/svg">
  <rect x="0" y="0" width="600" height="400" style="fill:rgb(255,255,255);stroke:none;" />
  <polyline points="34.012,362.7539 30.012,362.7539" style="fill:none;stroke:black;stroke-width:1" />
  <polyline points="34.012,348.3289 30.012,348.3289" style="fill:none;stroke:black;stroke-width:1" />
  <polyline points="34.012,333.904 30.012,333.904" style="fill:none;stroke:black;stroke-width:1" />
  <polyline points="34.012,319.479 30.012,319.479" style="fill:none;stroke:black;stroke-width:1" />
  <polyline points="34.012,290.6291 30.012,290.6291" style="fill:none;stroke:black;stroke-width:1" />
  <polyline points="34.012,276.2041 30.012,276.2041" style="fill:none;stroke:black;stroke-width:1" />
  <polyline points="34.012,261.7792 30.012,261.7792" style="fill:none;stroke:black;stroke-width:1" />
  <polyline points="34.012,247.3542 30.012,247.3542" style="fill:none;stroke:black;stroke-width:1" />
  <polyline points="34.012,218.5043 30.012,218.5043" style="fill:none;stroke:black;stroke-width:1" />
  <polyline points="34.012,204.0794 30.012,204.0794" style="fill:none;stroke:black;stroke-width:1" />
  <polyline points="34.012,189.6544 30.012,189.6544" style="fill:none;stroke:black;stroke-width:1" />
  <polyline points="34.012,175.2295 30.012,175.2295" style="fill:none;stroke:black;stroke-width:1" />
  <polyline points="34.012,146.3796 30.012,146.3796" style="fill:none;stroke:black;stroke-width:1" />
  <polyline points="34.012,131.9546 30.012,131.9546" style="fill:none;stroke:black;stroke-width:1" />
  <polyline points="34.012,117.5297 30.012,117.5297" style="fill:none;stroke:black;stroke-width:1" />
  <polyline points="34.012,103.1047 30.012,103.1047" style="fill:none;stroke:black;stroke-width:1" />
  <polyline points="34.012,74.2548 30.012,74.2548" style="fill:none;stroke:black;stroke-width:1" />
  <polyline points="34.012,59.8299 30.012,59.8299" style="fill:none;stroke:black;stroke-width:1" />
  <polyline points="34.012,45.4049 30.012,45.4049" style="fill:none;stroke:black;stroke-width:1" />
  <polyline points="34.012,30.98 30.012,30.98" style="fill:none;stroke:black;stroke-width:1" />
  <text dominant-baseline="middle" text-anchor="end" transform="translate(23.012,305.0541)" font-family="Segoe UI" font-size="12" font-weight="400" fill="black">50</text>
  <text dominant-baseline="middle" text-anchor="end" transform="translate(23.012,232.9293)" font-family="Segoe UI" font-size="12" font-weight="400" fill="black">100</text>
  <text dominant-baseline="middle" text-anchor="end" transform="translate(23.012,160.8045)" font-family="Segoe UI" font-size="12" font-weight="400" fill="black">150</text>
  <text dominant-baseline="middle" text-anchor="end" transform="translate(23.012,88.6798)" font-family="Segoe UI" font-size="12" font-weight="400" fill="black">200</text>
  <polyline points="34.012,305.0541 27.012,305.0541" style="fill:none;stroke:black;stroke-width:1" />
  <polyline points="34.012,232.9293 27.012,232.9293" style="fill:none;stroke:black;stroke-width:1" />
  <polyline points="34.012,160.8045 27.012,160.8045" style="fill:none;stroke:black;stroke-width:1" />
  <polyline points="34.012,88.6798 27.012,88.6798" style="fill:none;stroke:black;stroke-width:1" />
  <text dominant-baseline="hanging" text-anchor="middle" transform="translate(66.687,381.947)" font-family="Segoe UI" font-size="12" font-weight="400" fill="black">01. September</text>
  <text dominant-baseline="hanging" text-anchor="middle" transform="translate(142.0908,381.947)" font-family="Segoe UI" font-size="12" font-weight="400" fill="black">01. October</text>
  <text dominant-baseline="hanging" text-anchor="middle" transform="translate(220.008,381.947)" font-family="Segoe UI" font-size="12" font-weight="400" fill="black">01. November</text>
  <text dominant-baseline="hanging" text-anchor="middle" transform="translate(295.4118,381.947)" font-family="Segoe UI" font-size="12" font-weight="400" fill="black">01. December</text>
  <text dominant-baseline="hanging" text-anchor="middle" transform="translate(373.329,381.947)" font-family="Segoe UI" font-size="12" font-weight="400" fill="black">01. January</text>
  <text dominant-baseline="hanging" text-anchor="middle" transform="translate(451.2463,381.947)" font-family="Segoe UI" font-size="12" font-weight="400" fill="black">01. February</text>
  <text dominant-baseline="hanging" text-anchor="middle" transform="translate(521.6231,381.947)" font-family="Segoe UI" font-size="12" font-weight="400" fill="black">01. March</text>
  <polyline points="66.687,370.947 66.687,377.947" style="fill:none;stroke:black;stroke-width:1" />
  <polyline points="142.0908,370.947 142.0908,377.947" style="fill:none;stroke:black;stroke-width:1" />
  <polyline points="220.008,370.947 220.008,377.947" style="fill:none;stroke:black;stroke-width:1" />
  <polyline points="295.4118,370.947 295.4118,377.947" style="fill:none;stroke:black;stroke-width:1" />
  <polyline points="373.329,370.947 373.329,377.947" style="fill:none;stroke:black;stroke-width:1" />
  <polyline points="451.2463,370.947 451.2463,377.947" style="fill:none;stroke:black;stroke-width:1" />
  <polyline points="521.6231,370.947 521.6231,377.947" style="fill:none;stroke:black;stroke-width:1" />
  <polyline points="34.012,356.8142 36.5255,356.3899 39.0389,362.471 46.5793,358.5112 49.0928,362.471 51.6062,363.0367 54.1197,363.6024 56.6331,362.471 64.1735,366.9965 66.687,365.2994 69.2004,365.8651 71.7139,365.2994 74.2274,365.2994 81.7677,365.8651 84.2812,367.5622 86.7946,365.8651 89.3081,365.2994 91.8216,363.0367 99.3619,356.8142 101.8754,352.2887 104.3889,347.1975 106.9023,346.6319 109.4158,342.1064 116.9562,347.7632 119.4696,348.3289 121.9831,352.2887 124.4965,350.5916 127.01,351.723 134.5504,335.8838 137.0638,336.4495 139.5773,335.3182 142.0908,325.1358 144.6042,319.479 152.1446,312.6908 154.6581,313.8222 157.1715,305.9026 159.685,304.7528 162.1984,307.6498 169.7388,292.5852 172.2523,290.847 174.7657,285.6323 177.2792,275.2029 179.7926,253.1854 187.333,230.5885 189.8465,225.9532 192.3599,221.8974 194.8734,202.7769 197.3869,202.1975 204.9272,137.3037 207.4407,132.0891 209.9542,129.192 212.4676,131.5096 214.9811,98.4834 222.5215,118.1833 225.0349,107.7539 227.5484,108.9127 230.0618,101.3804 232.5753,119.3421 240.1157,90.9511 242.6291,84.5776 245.1426,58.5042 250.1695,32.4308 257.7099,61.4012 260.2234,75.8864 262.7368,84.5776 265.2503,65.3847 267.7637,120.5009 275.3041,167.433 277.8176,150.6301 280.331,153.5272 282.8445,208.571 285.3579,185.974 292.8983,188.8711 295.4118,213.7856 297.9252,225.9532 300.4387,198.1416 302.9522,202.1975 310.4925,179.0211 313.006,181.3388 315.5195,179.6005 318.0329,151.2095 320.5464,173.2271 328.0868,154.1066 330.6002,144.2566 333.1137,132.6685 335.6271,145.4155 338.1406,134.4067 345.681,116.445 348.1944,117.0244 350.7079,140.7802 363.2752,157.0036 365.7886,154.686 368.3021,134.4067 370.8156,136.3622 380.8694,211.468 383.3829,235.2238 385.8963,250.8678 388.4098,236.962 390.9232,215.9584 400.9771,192.9269 403.4905,195.2446 406.004,217.2621 408.5175,247.3913 416.0578,255.9086 418.5713,275.7823 421.0848,267.0912 423.5982,285.0529 426.1117,285.6323 433.6521,272.3059 438.679,279.8382 441.1924,259.5589 443.7059,247.9707 451.2463,264.1942 453.7597,278.3173 456.2732,272.3059 458.7866,279.8382 461.3001,290.847 468.8405,293.744 471.3539,290.847 473.8674,275.2029 476.3809,276.3617 478.8943,269.4088 486.4347,283.8941 488.9482,285.6323 491.4616,306.491 493.9751,313.4439 496.4885,329.6673 504.0289,329.6673 506.5424,330.8261 509.0558,321.5556 511.5693,322.135 514.0828,317.4997 521.6231,329.0879 524.1366,327.9291 526.6501,323.8732 529.1635,300.6969 531.677,294.9028 539.2174,265.353 541.7308,265.353 544.2443,263.6148 546.7577,278.6794 549.2712,272.3059 556.8116,261.8765 559.325,262.4559 561.8385,254.9236 564.3519,226.5326 566.8654,208.571 574.4058,200.4592 576.9192,199.8798 579.4327,204.5151 581.9462,192.9269 584.4596,205.6739 592,224.215" style="fill:none;stroke:rgb(31,119,180);stroke-width:2;stroke-linejoin:bevel" />
  <text dominant-baseline="hanging" text-anchor="middle" transform="translate(313.006,8)" font-family="Segoe UI" font-size="18" font-weight="700" fill="black">7-Tage-Inzidenz Stadt Aachen 29.03.2021</text>
  <polygon points="34.012,29.0795 592,29.0795 592,370.947 34.012,370.947" style="fill:none;stroke:black;stroke-width:1" />
  <polygon points="42.012,37.0795 247.014,37.0795 247.014,63.1325 42.012,63.1325" style="fill:none;stroke:none;" />
  <text dominant-baseline="hanging" text-anchor="start" transform="translate(70.012,45.0795)" font-family="Segoe UI" font-size="12" font-weight="400" fill="black">7-Tage-Inzidenz Stadt Aachen 29.03.2021</text>
  <polyline points="50.012,50.106 66.012,50.106" style="fill:none;stroke:rgb(31,119,180);stroke-width:2" />
</svg>