<?xml version="1.0" encoding="utf-8" standalone="no"?>
<!DOCTYPE svg PUBLIC "-//W3C//DTD SVG 1.1//EN" "http://www.w3.org/Graphics/SVG/1.1/DTD/svg11.dtd">
<svg width="600" height="400" version="1.1" xmlns:xlink="http://www.w3.org/1999/xlink" xmlns="http://www.w3.org/2000/svg">
  <rect x="0" y="0" width="600" height="400" style="fill:rgb(255,255,255);stroke:none;" />
  <polyline points="34.012,358.4713 30.012,358.4713" style="fill:none;stroke:black;stroke-width:1" />
  <polyline points="34.012,344.2334 30.012,344.2334" style="fill:none;stroke:black;stroke-width:1" />
  <polyline points="34.012,329.9954 30.012,329.9954" style="fill:none;stroke:black;stroke-width:1" />
  <polyline points="34.012,315.7575 30.012,315.7575" style="fill:none;stroke:black;stroke-width:1" />
  <polyline points="34.012,287.2816 30.012,287.2816" style="fill:none;stroke:black;stroke-width:1" />
  <polyline points="34.012,273.0437 30.012,273.0437" style="fill:none;stroke:black;stroke-width:1" />
  <polyline points="34.012,258.8058 30.012,258.8058" style="fill:none;stroke:black;stroke-width:1" />
  <polyline points="34.012,244.5678 30.012,244.5678" style="fill:none;stroke:black;stroke-width:1" />
  <polyline points="34.012,216.0919 30.012,216.0919" style="fill:none;stroke:black;stroke-width:1" />
  <polyline points="34.012,201.854 30.012,201.854" style="fill:none;stroke:black;stroke-width:1" />
  <polyline points="34.012,187.6161 30.012,187.6161" style="fill:none;stroke:black;stroke-width:1" />
  <polyline points="34.012,173.3781 30.012,173.3781" style="fill:none;stroke:black;stroke-width:1" />
  <polyline points="34.012,144.9023 30.012,144.9023" style="fill:none;stroke:black;stroke-width:1" />
  <polyline points="34.012,130.6643 30.012,130.6643" style="fill:none;stroke:black;stroke-width:1" />
  <polyline points="34.012,116.4264 30.012,116.4264" style="fill:none;stroke:black;stroke-width:1" />
  <polyline points="34.012,102.1885 30.012,102.1885" style="fill:none;stroke:black;stroke-width:1" />
  <polyline points="34.012,73.7126 30.012,73.7126" style="fill:none;stroke:black;stroke-width:1" />
  <polyline points="34.012,59.4747 30.012,59.4747" style="fill:none;stroke:black;stroke-width:1" />
  <polyline points="34.012,45.2367 30.012,45.2367" style="fill:none;stroke:black;stroke-width:1" />
  <polyline points="34.012,30.9988 30.012,30.9988" style="fill:none;stroke:black;stroke-width:1" />
  <polyline points="55.6008,370.947 55.6008,374.947" style="fill:none;stroke:black;stroke-width:1" />
  <polyline points="156.9022,370.947 156.9022,374.947" style="fill:none;stroke:black;stroke-width:1" />
  <polyline points="258.2036,370.947 258.2036,374.947" style="fill:none;stroke:black;stroke-width:1" />
  <polyline points="356.1836,370.947 356.1836,374.947" style="fill:none;stroke:black;stroke-width:1" />
  <polyline points="457.485,370.947 457.485,374.947" style="fill:none;stroke:black;stroke-width:1" />
  <polyline points="558.7864,370.947 558.7864,374.947" style="fill:none;stroke:black;stroke-width:1" />
  <text dominant-baseline="middle" text-anchor="end" transform="translate(23.012,301.5196)" font-family="Segoe UI" font-size="12" font-weight="400" fill="black">50</text>
  <text dominant-baseline="middle" text-anchor="end" transform="translate(23.012,230.3299)" font-family="Segoe UI" font-size="12" font-weight="400" fill="black">100</text>
  <text dominant-baseline="middle" text-anchor="end" transform="translate(23.012,159.1402)" font-family="Segoe UI" font-size="12" font-weight="400" fill="black">150</text>
  <text dominant-baseline="middle" text-anchor="end" transform="translate(23.012,87.9505)" font-family="Segoe UI" font-size="12" font-weight="400" fill="black">200</text>
  <polyline points="34.012,301.5196 27.012,301.5196" style="fill:none;stroke:black;stroke-width:1" />
  <polyline points="34.012,230.3299 27.012,230.3299" style="fill:none;stroke:black;stroke-width:1" />
  <polyline points="34.012,159.1402 27.012,159.1402" style="fill:none;stroke:black;stroke-width:1" />
  <polyline points="34.012,87.9505 27.012,87.9505" style="fill:none;stroke:black;stroke-width:1" />
  <text dominant-baseline="hanging" text-anchor="middle" transform="translate(105.4212,381.947)" font-family="Segoe UI" font-size="12" font-weight="400" fill="black">01. October</text>
  <text dominant-baseline="hanging" text-anchor="middle" transform="translate(206.7226,381.947)" font-family="Segoe UI" font-size="12" font-weight="400" fill="black">01. December</text>
  <text dominant-baseline="hanging" text-anchor="middle" transform="translate(309.6846,381.947)" font-family="Segoe UI" font-size="12" font-weight="400" fill="black">01. February</text>
  <text dominant-baseline="hanging" text-anchor="middle" transform="translate(407.6647,381.947)" font-family="Segoe UI" font-size="12" font-weight="400" fill="black">01. April</text>
  <text dominant-baseline="hanging" text-anchor="middle" transform="translate(508.9661,381.947)" font-family="Segoe UI" font-size="12" font-weight="400" fill="black">01. June</text>
  <polyline points="105.4212,370.947 105.4212,377.947" style="fill:none;stroke:black;stroke-width:1" />
  <polyline points="206.7226,370.947 206.7226,377.947" style="fill:none;stroke:black;stroke-width:1" />
  <polyline points="309.6846,370.947 309.6846,377.947" style="fill:none;stroke:black;stroke-width:1" />
  <polyline points="407.6647,370.947 407.6647,377.947" style="fill:none;stroke:black;stroke-width:1" />
  <polyline points="508.9661,370.947 508.9661,377.947" style="fill:none;stroke:black;stroke-width:1" />
  <polyline points="34.012,352.6086 35.6727,352.1899 37.3334,358.1921 42.3154,354.2837 43.9761,358.1921 45.6368,358.7505 47.2974,359.3088 48.9581,358.1921 53.9401,362.6589 55.6008,360.9839 57.2615,361.5422 58.9222,360.9839 60.5829,360.9839 65.5649,361.5422 67.2256,363.2173 68.8863,361.5422 70.5469,360.9839 72.2076,358.7505 77.1896,352.6086 78.8503,348.1418 80.511,343.1167 82.1717,342.5583 83.8324,338.0915 88.8144,343.675 90.4751,344.2334 92.1358,348.1418 93.7964,346.4668 95.4571,347.5835 100.4391,331.9497 102.0998,332.508 103.7605,331.3913 105.4212,321.341 107.0819,315.7575 112.0639,309.0573 113.7246,310.174 115.3853,302.3571 117.0459,301.2222 118.7066,304.0817 123.6886,289.2124 125.3493,287.4967 127.01,282.3496 128.6707,272.0555 130.3314,250.3234 135.3134,228.0194 136.9741,223.4443 138.6348,219.441 140.2954,200.5684 141.9561,199.9965 146.9381,135.9441 148.5988,130.797 150.2595,127.9375 151.9202,130.2251 153.5809,97.627 158.5629,117.0715 160.2236,106.7774 161.8843,107.9212 163.5449,100.4865 165.2056,118.2153 170.1876,90.1924 171.8483,83.9015 173.509,58.1662 176.8304,32.4308 181.8124,61.0256 183.4731,75.3231 185.1338,83.9015 186.7944,64.9574 188.4551,119.3591 193.4371,165.6827 195.0978,149.0977 196.7585,151.9572 198.4192,206.2874 200.0799,183.9834 205.0619,186.8429 206.7226,211.4344 208.3833,223.4443 210.0439,195.9932 211.7046,199.9965 216.6866,177.1206 218.3473,179.4082 220.008,177.6925 221.6687,149.6696 223.3294,171.4017 228.3114,152.5291 229.9721,142.8068 231.6328,131.3689 233.2934,143.9506 234.9541,133.0846 239.9361,115.3558 241.5968,115.9277 243.2575,139.3755 251.5609,155.3886 253.2216,153.101 254.8823,133.0846 256.5429,135.0148 263.1856,209.1468 264.8463,232.5946 266.507,248.0358 268.1677,234.3103 269.8284,213.579 276.4711,190.8461 278.1318,193.1337 279.7924,214.8658 281.4531,244.6044 286.4351,253.0113 288.0958,272.6274 289.7565,264.0489 291.4172,281.7777 293.0779,282.3496 298.0599,269.196 301.3813,276.6306 303.0419,256.6142 304.7026,245.1763 309.6846,261.1894 311.3453,275.1294 313.006,269.196 314.6667,276.6306 316.3274,287.4967 321.3094,290.3561 322.9701,287.4967 324.6308,272.0555 326.2914,273.1992 327.9521,266.3365 332.9341,280.6339 334.5948,282.3496 336.2555,302.9379 337.9162,309.8006 339.5769,325.8137 344.5589,325.8137 346.2196,326.9575 347.8803,317.8072 349.5409,318.3791 351.2016,313.8039 356.1836,325.2418 357.8443,324.098 359.505,320.0948 361.1657,297.2189 362.8264,291.4999 367.8084,262.3332 369.4691,262.3332 371.1298,260.6175 372.7904,275.4868 374.4511,269.196 379.4331,258.9018 381.0938,259.4737 382.7545,252.0391 384.4152,224.0161 386.0759,206.2874 391.0579,198.2808 392.7186,197.7089 394.3793,202.2841 396.0399,190.8461 397.7006,203.4279 402.6826,221.7286 404.3433,218.2972 406.004,225.1599 407.6647,241.173 409.3254,216.0096 415.9681,202.856 417.6288,217.7253 419.2894,199.4246 420.9501,232.5946 425.9321,223.3871 427.5928,213.722 429.2535,166.2546 430.9142,186.8429 432.5749,182.8396 437.5569,174.2612 439.2176,155.3886 440.8783,160.5356 442.5389,146.8101 444.1996,122.7905 449.1816,103.9179 450.8423,119.931 452.503,134.2284 454.1637,128.5094 455.8244,131.3689 460.8064,157.1043 462.4671,145.0944 464.1278,138.8036 465.7884,171.9736 467.4491,191.9899 472.4311,201.7122 474.0918,210.8625 475.7525,223.4443 479.0739,191.418 484.0559,194.2775 485.7166,179.9801 487.3773,174.2612 489.0379,178.5504 490.6986,213.722 497.3413,261.1894 499.002,285.781 500.6627,295.5032 502.3234,298.9346 507.3054,306.6552 508.9661,311.5163 510.6268,310.3725 513.9481,330.9608 518.9301,346.402 520.5908,351.5491 522.2515,356.1242 523.9122,355.1949 525.5729,360.6994 530.5549,363.5589 532.2156,362.4151 533.8763,362.4151 535.5369,361.2713 537.1976,358.4118 542.1796,358.4118 543.8403,357.8399 545.501,361.2713 547.1617,364.7027 548.8224,366.4184 553.8044,365.8465 555.4651,367.5622 557.1258,364.1308 558.7864,360.6994 560.4471,361.8432 565.4291,361.8432 568.7505,362.4151 572.0719,364.7027 577.0539,365.8465 580.3753,358.9837 583.6966,348.1177 592,336.6798" style="fill:none;stroke:rgb(31,119,180);stroke-width:2;stroke-linejoin:bevel" />
  <text dominant-baseline="hanging" text-anchor="middle" transform="translate(313.006,8)" font-family="Segoe UI" font-size="18" font-weight="700" fill="black">7-Tage-Inzidenz Stadt Aachen 21.07.2021</text>
  <polygon points="34.012,29.0795 592,29.0795 592,370.947 34.012,370.947" style="fill:none;stroke:black;stroke-width:1" />
  <polygon points="42.012,37.0795 247.014,37.0795 247.014,63.1325 42.012,63.1325" style="fill:none;stroke:none;" />
  <text dominant-baseline="hanging" text-anchor="start" transform="translate(70.012,45.0795)" font-family="Segoe UI" font-size="12" font-weight="400" fill="black">7-Tage-Inzidenz Stadt Aachen 21.07.2021</text>
  <polyline points="50.012,50.106 66.012,50.106" style="fill:none;stroke:rgb(31,119,180);stroke-width:2" />
</svg>