<?xml version="1.0" encoding="utf-8" standalone="no"?>
<!DOCTYPE svg PUBLIC "-//W3C//DTD SVG 1.1//EN" "http://www.w3.org/Graphics/SVG/1.1/DTD/svg11.dtd">
<svg width="600" height="400" version="1.1" xmlns:xlink="http://www.w3.org/1999/xlink" xmlns="http://www.w3.org/2000/svg">
  <rect x="0" y="0" width="600" height="400" style="fill:rgb(255,255,255);stroke:none;" />
  <polyline points="34.012,362.7539 30.012,362.7539" style="fill:none;stroke:black;stroke-width:1" />
  <polyline points="34.012,348.3289 30.012,348.3289" style="fill:none;stroke:black;stroke-width:1" />
  <polyline points="34.012,333.904 30.012,333.904" style="fill:none;stroke:black;stroke-width:1" />
  <polyline points="34.012,319.479 30.012,319.479" style="fill:none;stroke:black;stroke-width:1" />
  <polyline points="34.012,290.6291 30.012,290.6291" style="fill:none;stroke:black;stroke-width:1" />
  <polyline points="34.012,276.2041 30.012,276.2041" style="fill:none;stroke:black;stroke-width:1" />
  <polyline points="34.012,261.7792 30.012,261.7792" style="fill:none;stroke:black;stroke-width:1" />
  <polyline points="34.012,247.3542 30.012,247.3542" style="fill:none;stroke:black;stroke-width:1" />
  <polyline points="34.012,218.5043 30.012,218.5043" style="fill:none;stroke:black;stroke-width:1" />
  <polyline points="34.012,204.0794 30.012,204.0794" style="fill:none;stroke:black;stroke-width:1" />
  <polyline points="34.012,189.6544 30.012,189.6544" style="fill:none;stroke:black;stroke-width:1" />
  <polyline points="34.012,175.2295 30.012,175.2295" style="fill:none;stroke:black;stroke-width:1" />
  <polyline points="34.012,146.3796 30.012,146.3796" style="fill:none;stroke:black;stroke-width:1" />
  <polyline points="34.012,131.9546 30.012,131.9546" style="fill:none;stroke:black;stroke-width:1" />
  <polyline points="34.012,117.5297 30.012,117.5297" style="fill:none;stroke:black;stroke-width:1" />
  <polyline points="34.012,103.1047 30.012,103.1047" style="fill:none;stroke:black;stroke-width:1" />
  <polyline points="34.012,74.2548 30.012,74.2548" style="fill:none;stroke:black;stroke-width:1" />
  <polyline points="34.012,59.8299 30.012,59.8299" style="fill:none;stroke:black;stroke-width:1" />
  <polyline points="34.012,45.4049 30.012,45.4049" style="fill:none;stroke:black;stroke-width:1" />
  <polyline points="34.012,30.98 30.012,30.98" style="fill:none;stroke:black;stroke-width:1" />
  <text dominant-baseline="middle" text-anchor="end" transform="translate(23.012,305.0541)" font-family="Segoe UI" font-size="12" font-weight="400" fill="black">50</text>
  <text dominant-baseline="middle" text-anchor="end" transform="translate(23.012,232.9293)" font-family="Segoe UI" font-size="12" font-weight="400" fill="black">100</text>
  <text dominant-baseline="middle" text-anchor="end" transform="translate(23.012,160.8045)" font-family="Segoe UI" font-size="12" font-weight="400" fill="black">150</text>
  <text dominant-baseline="middle" text-anchor="end" transform="translate(23.012,88.6798)" font-family="Segoe UI" font-size="12" font-weight="400" fill="black">200</text>
  <polyline points="34.012,305.0541 27.012,305.0541" style="fill:none;stroke:black;stroke-width:1" />
  <polyline points="34.012,232.9293 27.012,232.9293" style="fill:none;stroke:black;stroke-width:1" />
  <polyline points="34.012,160.8045 27.012,160.8045" style="fill:none;stroke:black;stroke-width:1" />
  <polyline points="34.012,88.6798 27.012,88.6798" style="fill:none;stroke:black;stroke-width:1" />
  <text dominant-baseline="hanging" text-anchor="middle" transform="translate(80.511,381.947)" font-family="Segoe UI" font-size="12" font-weight="400" fill="black">01. September</text>
  <text dominant-baseline="hanging" text-anchor="middle" transform="translate(187.8164,381.947)" font-family="Segoe UI" font-size="12" font-weight="400" fill="black">01. October</text>
  <text dominant-baseline="hanging" text-anchor="middle" transform="translate(298.6986,381.947)" font-family="Segoe UI" font-size="12" font-weight="400" fill="black">01. November</text>
  <text dominant-baseline="hanging" text-anchor="middle" transform="translate(406.004,381.947)" font-family="Segoe UI" font-size="12" font-weight="400" fill="black">01. December</text>
  <text dominant-baseline="hanging" text-anchor="middle" transform="translate(516.8862,381.947)" font-family="Segoe UI" font-size="12" font-weight="400" fill="black">01. January</text>
  <polyline points="80.511,370.947 80.511,377.947" style="fill:none;stroke:black;stroke-width:1" />
  <polyline points="187.8164,370.947 187.8164,377.947" style="fill:none;stroke:black;stroke-width:1" />
  <polyline points="298.6986,370.947 298.6986,377.947" style="fill:none;stroke:black;stroke-width:1" />
  <polyline points="406.004,370.947 406.004,377.947" style="fill:none;stroke:black;stroke-width:1" />
  <polyline points="516.8862,370.947 516.8862,377.947" style="fill:none;stroke:black;stroke-width:1" />
  <polyline points="34.012,356.8142 37.5888,356.3899 41.1657,362.471 51.8962,358.5112 55.4731,362.471 59.0499,363.0367 62.6268,363.6024 66.2036,362.471 76.9342,366.9965 80.511,365.2994 84.0878,365.8651 87.6647,365.2994 91.2415,365.2994 101.9721,365.8651 105.5489,367.5622 109.1258,365.8651 112.7026,365.2994 116.2795,363.0367 127.01,356.8142 130.5868,352.2887 134.1637,347.1975 137.7405,346.6319 141.3174,342.1064 152.0479,347.7632 155.6248,348.3289 159.2016,352.2887 162.7785,350.5916 166.3553,351.723 177.0858,335.8838 180.6627,336.4495 184.2395,335.3182 187.8164,325.1358 191.3932,319.479 202.1238,312.6908 205.7006,313.8222 209.2775,305.9026 212.8543,304.7528 216.4312,307.6498 227.1617,292.5852 230.7385,290.847 234.3154,285.6323 237.8922,275.2029 241.4691,253.1854 252.1996,230.5885 255.7765,225.9532 259.3533,221.8974 262.9302,202.7769 266.507,202.1975 277.2375,137.3037 280.8144,132.0891 284.3912,129.192 287.9681,131.5096 291.5449,98.4834 302.2755,118.1833 305.8523,107.7539 309.4292,108.9127 313.006,101.3804 316.5828,119.3421 327.3134,90.9511 330.8902,84.5776 334.4671,58.5042 341.6208,32.4308 352.3513,61.4012 355.9282,75.8864 359.505,84.5776 363.0818,65.3847 366.6587,120.5009 377.3892,167.433 380.9661,150.6301 384.5429,153.5272 388.1198,208.571 391.6966,185.974 402.4272,188.8711 406.004,213.7856 409.5808,225.9532 413.1577,198.1416 416.7345,202.1975 427.4651,179.0211 431.0419,181.3388 434.6188,179.6005 438.1956,151.2095 441.7725,173.2271 452.503,154.1066 456.0798,144.2566 459.6567,132.6685 463.2335,145.4155 466.8104,134.4067 477.5409,116.445 481.1178,117.0244 484.6946,140.7802 502.5788,157.0036 506.1557,154.686 509.7325,134.4067 513.3094,136.3622 527.6168,211.468 531.1936,235.2238 534.7705,250.8678 538.3473,236.962 541.9242,215.9584 556.2315,192.9269 559.8084,195.2446 563.3852,217.2621 566.9621,247.3913 577.6926,255.9086 581.2695,275.7823 584.8463,267.0912 588.4232,285.0529 592,285.6323" style="fill:none;stroke:rgb(31,119,180);stroke-width:2;stroke-linejoin:bevel" />
  <text dominant-baseline="hanging" text-anchor="middle" transform="translate(313.006,8)" font-family="Segoe UI" font-size="18" font-weight="700" fill="black">7-Tage-Inzidenz Stadt Aachen 22.01.2021</text>
  <polygon points="34.012,29.0795 592,29.0795 592,370.947 34.012,370.947" style="fill:none;stroke:black;stroke-width:1" />
  <polygon points="42.012,37.0795 247.014,37.0795 247.014,63.1325 42.012,63.1325" style="fill:none;stroke:none;" />
  <text dominant-baseline="hanging" text-anchor="start" transform="translate(70.012,45.0795)" font-family="Segoe UI" font-size="12" font-weight="400" fill="black">7-Tage-Inzidenz Stadt Aachen 22.01.2021</text>
  <polyline points="50.012,50.106 66.012,50.106" style="fill:none;stroke:rgb(31,119,180);stroke-width:2" />
</svg>