<?xml version="1.0" encoding="utf-8" standalone="no"?>
<!DOCTYPE svg PUBLIC "-//W3C//DTD SVG 1.1//EN" "http://www.w3.org/Graphics/SVG/1.1/DTD/svg11.dtd">
<svg width="600" height="400" version="1.1" xmlns:xlink="http://www.w3.org/1999/xlink" xmlns="http://www.w3.org/2000/svg">
  <rect x="0" y="0" width="600" height="400" style="fill:rgb(255,255,255);stroke:none;" />
  <polyline points="34.012,353.4851 30.012,353.4851" style="fill:none;stroke:black;stroke-width:1" />
  <polyline points="34.012,339.4649 30.012,339.4649" style="fill:none;stroke:black;stroke-width:1" />
  <polyline points="34.012,325.4447 30.012,325.4447" style="fill:none;stroke:black;stroke-width:1" />
  <polyline points="34.012,311.4245 30.012,311.4245" style="fill:none;stroke:black;stroke-width:1" />
  <polyline points="34.012,283.3841 30.012,283.3841" style="fill:none;stroke:black;stroke-width:1" />
  <polyline points="34.012,269.3639 30.012,269.3639" style="fill:none;stroke:black;stroke-width:1" />
  <polyline points="34.012,255.3438 30.012,255.3438" style="fill:none;stroke:black;stroke-width:1" />
  <polyline points="34.012,241.3236 30.012,241.3236" style="fill:none;stroke:black;stroke-width:1" />
  <polyline points="34.012,213.2832 30.012,213.2832" style="fill:none;stroke:black;stroke-width:1" />
  <polyline points="34.012,199.263 30.012,199.263" style="fill:none;stroke:black;stroke-width:1" />
  <polyline points="34.012,185.2428 30.012,185.2428" style="fill:none;stroke:black;stroke-width:1" />
  <polyline points="34.012,171.2226 30.012,171.2226" style="fill:none;stroke:black;stroke-width:1" />
  <polyline points="34.012,143.1822 30.012,143.1822" style="fill:none;stroke:black;stroke-width:1" />
  <polyline points="34.012,129.162 30.012,129.162" style="fill:none;stroke:black;stroke-width:1" />
  <polyline points="34.012,115.1418 30.012,115.1418" style="fill:none;stroke:black;stroke-width:1" />
  <polyline points="34.012,101.1216 30.012,101.1216" style="fill:none;stroke:black;stroke-width:1" />
  <polyline points="34.012,73.0813 30.012,73.0813" style="fill:none;stroke:black;stroke-width:1" />
  <polyline points="34.012,59.0611 30.012,59.0611" style="fill:none;stroke:black;stroke-width:1" />
  <polyline points="34.012,45.0409 30.012,45.0409" style="fill:none;stroke:black;stroke-width:1" />
  <polyline points="34.012,31.0207 30.012,31.0207" style="fill:none;stroke:black;stroke-width:1" />
  <text dominant-baseline="middle" text-anchor="end" transform="translate(23.012,367.5053)" font-family="Segoe UI" font-size="12" font-weight="400" fill="black">0</text>
  <text dominant-baseline="middle" text-anchor="end" transform="translate(23.012,297.4043)" font-family="Segoe UI" font-size="12" font-weight="400" fill="black">50</text>
  <text dominant-baseline="middle" text-anchor="end" transform="translate(23.012,227.3034)" font-family="Segoe UI" font-size="12" font-weight="400" fill="black">100</text>
  <text dominant-baseline="middle" text-anchor="end" transform="translate(23.012,157.2024)" font-family="Segoe UI" font-size="12" font-weight="400" fill="black">150</text>
  <text dominant-baseline="middle" text-anchor="end" transform="translate(23.012,87.1015)" font-family="Segoe UI" font-size="12" font-weight="400" fill="black">200</text>
  <polyline points="34.012,367.5053 27.012,367.5053" style="fill:none;stroke:black;stroke-width:1" />
  <polyline points="34.012,297.4043 27.012,297.4043" style="fill:none;stroke:black;stroke-width:1" />
  <polyline points="34.012,227.3034 27.012,227.3034" style="fill:none;stroke:black;stroke-width:1" />
  <polyline points="34.012,157.2024 27.012,157.2024" style="fill:none;stroke:black;stroke-width:1" />
  <polyline points="34.012,87.1015 27.012,87.1015" style="fill:none;stroke:black;stroke-width:1" />
  <text dominant-baseline="hanging" text-anchor="middle" transform="translate(235.1143,381.947)" font-family="Segoe UI" font-size="12" font-weight="400" fill="black">01. January</text>
  <polyline points="235.1143,370.947 235.1143,377.947" style="fill:none;stroke:black;stroke-width:1" />
  <polyline points="34.012,367.5622 36.8444,367.5621 41.0931,367.5621 42.5093,367.562 43.9255,347.7121 45.3417,347.2997 46.7579,353.2102 51.0066,349.3615 52.4228,353.2102 53.839,353.76 55.2552,354.3098 56.6714,353.2102 60.9201,357.6087 62.3363,355.9593 63.7525,356.5091 65.1687,355.9593 66.5849,355.9593 70.8335,356.5091 72.2498,358.1585 73.666,356.5091 75.0822,355.9593 76.4984,353.76 80.747,347.7121 82.1632,343.3136 83.5795,338.3653 84.9957,337.8155 86.4119,333.417 90.6605,338.9151 92.0767,339.4649 93.493,343.3136 94.9092,341.6642 96.3254,342.7638 100.574,327.3691 101.9902,327.9189 103.4064,326.8192 104.8227,316.9226 106.2389,311.4245 110.4875,304.8268 111.9037,305.9264 113.3199,298.229 114.7362,297.1115 116.1524,299.9272 120.401,285.2853 121.8172,283.5959 123.2334,278.5275 124.6496,268.3908 126.0659,246.9911 130.3145,225.0282 131.7307,220.523 133.1469,216.581 134.5631,197.997 135.9794,197.4339 140.228,134.361 141.6442,129.2927 143.0604,126.4769 144.4766,128.7295 145.8928,96.63 150.1415,115.7771 151.5577,105.6404 152.9739,106.7667 154.3901,99.4457 155.8063,116.9034 160.055,89.309 161.4712,83.1143 162.8874,57.7726 165.7198,32.4308 169.9685,60.5883 171.3847,74.6671 172.8009,83.1143 174.2171,64.46 175.6333,118.0297 179.882,163.6449 181.2982,147.3135 182.7144,150.1292 184.1306,203.6285 185.5468,181.6657 189.7955,184.4814 191.2117,208.6969 192.6279,220.523 194.0441,193.4918 195.4603,197.4339 199.7089,174.9079 201.1252,177.1605 202.5414,175.471 203.9576,147.8766 205.3738,169.2764 209.6224,150.6924 211.0386,141.1188 212.4549,129.8558 213.8711,142.2451 215.2873,131.5453 219.5359,114.0876 220.9521,114.6508 222.3684,137.7399 229.4494,153.5081 230.8656,151.2555 232.2818,131.5453 233.6981,133.4459 239.3629,206.4443 240.7791,229.5334 242.1953,244.7385 243.6116,231.2229 245.0278,210.8087 250.6926,188.4235 252.1088,190.6761 253.525,212.0758 254.9413,241.3596 259.1899,249.6379 260.6061,268.954 262.0223,260.5067 263.4385,277.9644 264.8548,278.5275 269.1034,265.5751 271.9358,272.896 273.352,253.1858 274.7682,241.9228 279.0169,257.691 280.4331,271.4178 281.8493,265.5751 283.2655,272.896 284.6817,283.5959 288.9304,286.4116 290.3466,283.5959 291.7628,268.3908 293.179,269.5171 294.5952,262.7593 298.8439,276.8381 300.2601,278.5275 301.6763,298.8009 303.0925,305.5587 304.5087,321.327 308.7574,321.327 310.1736,322.4533 311.5898,313.4429 313.006,314.006 314.4222,309.5008 318.6709,320.7638 320.0871,319.6375 321.5033,315.6955 322.9195,293.1694 324.3357,287.5379 328.5843,258.8173 330.0006,258.8173 331.4168,257.1278 332.833,271.7697 334.2492,265.5751 338.4978,255.4384 339.9141,256.0015 341.3303,248.6806 342.7465,221.0862 344.1627,203.6285 348.4113,195.7444 349.8275,195.1813 351.2438,199.6865 352.66,188.4235 354.0762,200.8128 358.3248,218.8336 359.741,215.4547 361.1572,222.2125 362.5735,237.9807 363.9897,213.2021 369.6545,200.2496 371.0707,214.8915 372.487,196.8707 373.9032,229.5334 378.1518,220.4667 379.568,210.9495 380.9842,164.208 382.4004,184.4814 383.8167,180.5394 388.0653,172.0921 389.4815,153.5081 390.8977,158.5765 392.3139,145.0609 393.7302,121.4086 397.9788,102.8246 399.395,118.5928 400.8112,132.6716 402.2274,127.0401 403.6436,129.8558 407.8923,155.1976 409.3085,143.3714 410.7247,137.1768 412.1409,169.8395 413.5571,189.5498 417.8058,199.1233 419.222,208.1337 420.6382,220.523 423.4706,188.9866 427.7193,191.8024 429.1355,177.7236 430.5517,172.0921 431.9679,176.3157 433.3841,210.9495 439.049,257.691 440.4652,281.9064 441.8814,291.48 443.2976,294.8589 447.5463,302.4614 448.9625,307.2482 450.3787,306.1219 453.2111,326.3953 457.4597,341.6004 458.876,346.6687 460.2922,351.1739 461.7084,350.2588 463.1246,355.6791 467.3732,358.4949 468.7895,357.3686 470.2057,357.3686 471.6219,356.2423 473.0381,353.4265 477.2867,353.4265 478.7029,352.8634 480.1192,356.2423 481.5354,359.6212 482.9516,361.3106 487.2002,360.7475 488.6164,362.4369 490.0326,359.058 491.4489,355.6791 492.8651,356.8054 497.1137,356.8054 499.9461,357.3686 502.7786,359.6212 507.0272,360.7475 509.8596,353.9897 512.6921,343.2898 519.7731,332.0268 522.6056,317.9481 529.6866,316.2586 532.519,329.7742 539.6001,329.2111 542.4325,323.0164 549.5136,294.8589 552.346,262.7593 559.4271,253.7489 562.2595,268.3908 569.3406,201.3759 572.173,191.8024 579.2541,233.4755 582.0865,222.2125 592,240.2333" style="fill:none;stroke:rgb(31,119,180);stroke-width:2;stroke-linejoin:bevel" />
  <text dominant-baseline="hanging" text-anchor="middle" transform="translate(313.006,8)" font-family="Segoe UI" font-size="18" font-weight="700" fill="black">7-Tage-Inzidenz Stadt Aachen 10.09.2021</text>
  <polygon points="34.012,29.0795 592,29.0795 592,370.947 34.012,370.947" style="fill:none;stroke:black;stroke-width:1" />
  <polygon points="42.012,37.0795 247.014,37.0795 247.014,63.1325 42.012,63.1325" style="fill:none;stroke:none;" />
  <text dominant-baseline="hanging" text-anchor="start" transform="translate(70.012,45.0795)" font-family="Segoe UI" font-size="12" font-weight="400" fill="black">7-Tage-Inzidenz Stadt Aachen 10.09.2021</text>
  <polyline points="50.012,50.106 66.012,50.106" style="fill:none;stroke:rgb(31,119,180);stroke-width:2" />
</svg>