<?xml version="1.0" encoding="utf-8" standalone="no"?>
<!DOCTYPE svg PUBLIC "-//W3C//DTD SVG 1.1//EN" "http://www.w3.org/Graphics/SVG/1.1/DTD/svg11.dtd">
<svg width="600" height="400" version="1.1" xmlns:xlink="http://www.w3.org/1999/xlink" xmlns="http://www.w3.org/2000/svg">
  <rect x="0" y="0" width="600" height="400" style="fill:rgb(255,255,255);stroke:none;" />
  <polyline points="34.012,362.7539 30.012,362.7539" style="fill:none;stroke:black;stroke-width:1" />
  <polyline points="34.012,348.3289 30.012,348.3289" style="fill:none;stroke:black;stroke-width:1" />
  <polyline points="34.012,333.904 30.012,333.904" style="fill:none;stroke:black;stroke-width:1" />
  <polyline points="34.012,319.479 30.012,319.479" style="fill:none;stroke:black;stroke-width:1" />
  <polyline points="34.012,290.6291 30.012,290.6291" style="fill:none;stroke:black;stroke-width:1" />
  <polyline points="34.012,276.2041 30.012,276.2041" style="fill:none;stroke:black;stroke-width:1" />
  <polyline points="34.012,261.7792 30.012,261.7792" style="fill:none;stroke:black;stroke-width:1" />
  <polyline points="34.012,247.3542 30.012,247.3542" style="fill:none;stroke:black;stroke-width:1" />
  <polyline points="34.012,218.5043 30.012,218.5043" style="fill:none;stroke:black;stroke-width:1" />
  <polyline points="34.012,204.0794 30.012,204.0794" style="fill:none;stroke:black;stroke-width:1" />
  <polyline points="34.012,189.6544 30.012,189.6544" style="fill:none;stroke:black;stroke-width:1" />
  <polyline points="34.012,175.2295 30.012,175.2295" style="fill:none;stroke:black;stroke-width:1" />
  <polyline points="34.012,146.3796 30.012,146.3796" style="fill:none;stroke:black;stroke-width:1" />
  <polyline points="34.012,131.9546 30.012,131.9546" style="fill:none;stroke:black;stroke-width:1" />
  <polyline points="34.012,117.5297 30.012,117.5297" style="fill:none;stroke:black;stroke-width:1" />
  <polyline points="34.012,103.1047 30.012,103.1047" style="fill:none;stroke:black;stroke-width:1" />
  <polyline points="34.012,74.2548 30.012,74.2548" style="fill:none;stroke:black;stroke-width:1" />
  <polyline points="34.012,59.8299 30.012,59.8299" style="fill:none;stroke:black;stroke-width:1" />
  <polyline points="34.012,45.4049 30.012,45.4049" style="fill:none;stroke:black;stroke-width:1" />
  <polyline points="34.012,30.98 30.012,30.98" style="fill:none;stroke:black;stroke-width:1" />
  <text dominant-baseline="middle" text-anchor="end" transform="translate(23.012,305.0541)" font-family="Segoe UI" font-size="12" font-weight="400" fill="black">50</text>
  <text dominant-baseline="middle" text-anchor="end" transform="translate(23.012,232.9293)" font-family="Segoe UI" font-size="12" font-weight="400" fill="black">100</text>
  <text dominant-baseline="middle" text-anchor="end" transform="translate(23.012,160.8045)" font-family="Segoe UI" font-size="12" font-weight="400" fill="black">150</text>
  <text dominant-baseline="middle" text-anchor="end" transform="translate(23.012,88.6798)" font-family="Segoe UI" font-size="12" font-weight="400" fill="black">200</text>
  <polyline points="34.012,305.0541 27.012,305.0541" style="fill:none;stroke:black;stroke-width:1" />
  <polyline points="34.012,232.9293 27.012,232.9293" style="fill:none;stroke:black;stroke-width:1" />
  <polyline points="34.012,160.8045 27.012,160.8045" style="fill:none;stroke:black;stroke-width:1" />
  <polyline points="34.012,88.6798 27.012,88.6798" style="fill:none;stroke:black;stroke-width:1" />
  <text dominant-baseline="hanging" text-anchor="middle" transform="translate(60.0114,381.947)" font-family="Segoe UI" font-size="12" font-weight="400" fill="black">01. September</text>
  <text dominant-baseline="hanging" text-anchor="middle" transform="translate(120.0102,381.947)" font-family="Segoe UI" font-size="12" font-weight="400" fill="black">01. October</text>
  <text dominant-baseline="hanging" text-anchor="middle" transform="translate(182.0088,381.947)" font-family="Segoe UI" font-size="12" font-weight="400" fill="black">01. November</text>
  <text dominant-baseline="hanging" text-anchor="middle" transform="translate(242.0075,381.947)" font-family="Segoe UI" font-size="12" font-weight="400" fill="black">01. December</text>
  <text dominant-baseline="hanging" text-anchor="middle" transform="translate(304.0062,381.947)" font-family="Segoe UI" font-size="12" font-weight="400" fill="black">01. January</text>
  <text dominant-baseline="hanging" text-anchor="middle" transform="translate(366.0049,381.947)" font-family="Segoe UI" font-size="12" font-weight="400" fill="black">01. February</text>
  <text dominant-baseline="hanging" text-anchor="middle" transform="translate(422.0037,381.947)" font-family="Segoe UI" font-size="12" font-weight="400" fill="black">01. March</text>
  <text dominant-baseline="hanging" text-anchor="middle" transform="translate(484.0023,381.947)" font-family="Segoe UI" font-size="12" font-weight="400" fill="black">01. April</text>
  <text dominant-baseline="hanging" text-anchor="middle" transform="translate(544.001,381.947)" font-family="Segoe UI" font-size="12" font-weight="400" fill="black">01. May</text>
  <polyline points="60.0114,370.947 60.0114,377.947" style="fill:none;stroke:black;stroke-width:1" />
  <polyline points="120.0102,370.947 120.0102,377.947" style="fill:none;stroke:black;stroke-width:1" />
  <polyline points="182.0088,370.947 182.0088,377.947" style="fill:none;stroke:black;stroke-width:1" />
  <polyline points="242.0075,370.947 242.0075,377.947" style="fill:none;stroke:black;stroke-width:1" />
  <polyline points="304.0062,370.947 304.0062,377.947" style="fill:none;stroke:black;stroke-width:1" />
  <polyline points="366.0049,370.947 366.0049,377.947" style="fill:none;stroke:black;stroke-width:1" />
  <polyline points="422.0037,370.947 422.0037,377.947" style="fill:none;stroke:black;stroke-width:1" />
  <polyline points="484.0023,370.947 484.0023,377.947" style="fill:none;stroke:black;stroke-width:1" />
  <polyline points="544.001,370.947 544.001,377.947" style="fill:none;stroke:black;stroke-width:1" />
  <polyline points="34.012,356.8142 36.012,356.3899 38.0119,362.471 44.0118,358.5112 46.0117,362.471 48.0117,363.0367 50.0117,363.6024 52.0116,362.471 58.0115,366.9965 60.0114,365.2994 62.0114,365.8651 64.0114,365.2994 66.0113,365.2994 72.0112,365.8651 74.0111,367.5622 76.0111,365.8651 78.0111,365.2994 80.011,363.0367 86.0109,356.8142 88.0108,352.2887 90.0108,347.1975 92.0108,346.6319 94.0107,342.1064 100.0106,347.7632 102.0105,348.3289 104.0105,352.2887 106.0105,350.5916 108.0104,351.723 114.0103,335.8838 116.0102,336.4495 118.0102,335.3182 120.0102,325.1358 122.0101,319.479 128.01,312.6908 130.0099,313.8222 132.0099,305.9026 134.0098,304.7528 136.0098,307.6498 142.0097,292.5852 144.0096,290.847 146.0096,285.6323 148.0095,275.2029 150.0095,253.1854 156.0094,230.5885 158.0093,225.9532 160.0093,221.8974 162.0092,202.7769 164.0092,202.1975 170.0091,137.3037 172.009,132.0891 174.009,129.192 176.0089,131.5096 178.0089,98.4834 184.0088,118.1833 186.0087,107.7539 188.0087,108.9127 190.0086,101.3804 192.0086,119.3421 198.0085,90.9511 200.0084,84.5776 202.0084,58.5042 206.0083,32.4308 212.0082,61.4012 214.0081,75.8864 216.0081,84.5776 218.008,65.3847 220.008,120.5009 226.0079,167.433 228.0078,150.6301 230.0078,153.5272 232.0077,208.571 234.0077,185.974 240.0076,188.8711 242.0075,213.7856 244.0075,225.9532 246.0074,198.1416 248.0074,202.1975 254.0073,179.0211 256.0072,181.3388 258.0072,179.6005 260.0071,151.2095 262.0071,173.2271 268.007,154.1066 270.0069,144.2566 272.0069,132.6685 274.0068,145.4155 276.0068,134.4067 282.0067,116.445 284.0066,117.0244 286.0066,140.7802 296.0064,157.0036 298.0063,154.686 300.0063,134.4067 302.0062,136.3622 310.0061,211.468 312.006,235.2238 314.006,250.8678 316.0059,236.962 318.0059,215.9584 326.0057,192.9269 328.0057,195.2446 330.0056,217.2621 332.0056,247.3913 338.0055,255.9086 340.0054,275.7823 342.0054,267.0912 344.0053,285.0529 346.0053,285.6323 352.0052,272.3059 356.0051,279.8382 358.005,259.5589 360.005,247.9707 366.0049,264.1942 368.0048,278.3173 370.0048,272.3059 372.0047,279.8382 374.0047,290.847 380.0046,293.744 382.0045,290.847 384.0045,275.2029 386.0044,276.3617 388.0044,269.4088 394.0043,283.8941 396.0042,285.6323 398.0042,306.491 400.0041,313.4439 402.0041,329.6673 408.004,329.6673 410.0039,330.8261 412.0039,321.5556 414.0038,322.135 416.0038,317.4997 422.0037,329.0879 424.0036,327.9291 426.0036,323.8732 428.0035,300.6969 430.0035,294.9028 436.0034,265.353 438.0033,265.353 440.0033,263.6148 442.0032,278.6794 444.0032,272.3059 450.0031,261.8765 452.003,262.4559 454.003,254.9236 456.0029,226.5326 458.0029,208.571 464.0028,200.4592 466.0027,199.8798 468.0027,204.5151 470.0026,192.9269 472.0026,205.6739 478.0025,224.215 480.0024,220.7385 482.0024,227.6914 484.0023,243.9149 486.0023,218.4209 494.0021,205.0945 496.0021,220.1591 498.002,201.6181 500.002,235.2238 506.0018,225.8953 508.0018,216.1033 510.0018,168.0124 512.0017,188.8711 514.0017,184.8152 520.0015,176.1241 522.0015,157.0036 524.0015,162.2183 526.0014,148.3125 528.0014,123.9773 534.0012,104.8569 536.0012,121.0803 538.0012,135.5655 540.0011,129.7714 542.0011,132.6685 548.0009,158.7418 550.0009,146.5743 552.0009,140.2008 554.0008,173.8065 556.0008,194.0858 562.0006,203.9357 564.0006,213.2062 566.0006,225.9532 570.0005,193.5063 576.0003,196.4034 578.0003,181.9182 580.0003,176.1241 582.0002,180.4697 584.0002,216.1033 592,264.1942" style="fill:none;stroke:rgb(31,119,180);stroke-width:2;stroke-linejoin:bevel" />
  <text dominant-baseline="hanging" text-anchor="middle" transform="translate(313.006,8)" font-family="Segoe UI" font-size="18" font-weight="700" fill="black">7-Tage-Inzidenz Stadt Aachen 25.05.2021</text>
  <polygon points="34.012,29.0795 592,29.0795 592,370.947 34.012,370.947" style="fill:none;stroke:black;stroke-width:1" />
  <polygon points="42.012,37.0795 247.014,37.0795 247.014,63.1325 42.012,63.1325" style="fill:none;stroke:none;" />
  <text dominant-baseline="hanging" text-anchor="start" transform="translate(70.012,45.0795)" font-family="Segoe UI" font-size="12" font-weight="400" fill="black">7-Tage-Inzidenz Stadt Aachen 25.05.2021</text>
  <polyline points="50.012,50.106 66.012,50.106" style="fill:none;stroke:rgb(31,119,180);stroke-width:2" />
</svg>