<?xml version="1.0" encoding="utf-8" standalone="no"?>
<!DOCTYPE svg PUBLIC "-//W3C//DTD SVG 1.1//EN" "http://www.w3.org/Graphics/SVG/1.1/DTD/svg11.dtd">
<svg width="600" height="400" version="1.1" xmlns:xlink="http://www.w3.org/1999/xlink" xmlns="http://www.w3.org/2000/svg">
  <rect x="0" y="0" width="600" height="400" style="fill:rgb(255,255,255);stroke:none;" />
  <polyline points="34.012,362.7539 30.012,362.7539" style="fill:none;stroke:black;stroke-width:1" />
  <polyline points="34.012,348.3289 30.012,348.3289" style="fill:none;stroke:black;stroke-width:1" />
  <polyline points="34.012,333.904 30.012,333.904" style="fill:none;stroke:black;stroke-width:1" />
  <polyline points="34.012,319.479 30.012,319.479" style="fill:none;stroke:black;stroke-width:1" />
  <polyline points="34.012,290.6291 30.012,290.6291" style="fill:none;stroke:black;stroke-width:1" />
  <polyline points="34.012,276.2041 30.012,276.2041" style="fill:none;stroke:black;stroke-width:1" />
  <polyline points="34.012,261.7792 30.012,261.7792" style="fill:none;stroke:black;stroke-width:1" />
  <polyline points="34.012,247.3542 30.012,247.3542" style="fill:none;stroke:black;stroke-width:1" />
  <polyline points="34.012,218.5043 30.012,218.5043" style="fill:none;stroke:black;stroke-width:1" />
  <polyline points="34.012,204.0794 30.012,204.0794" style="fill:none;stroke:black;stroke-width:1" />
  <polyline points="34.012,189.6544 30.012,189.6544" style="fill:none;stroke:black;stroke-width:1" />
  <polyline points="34.012,175.2295 30.012,175.2295" style="fill:none;stroke:black;stroke-width:1" />
  <polyline points="34.012,146.3796 30.012,146.3796" style="fill:none;stroke:black;stroke-width:1" />
  <polyline points="34.012,131.9546 30.012,131.9546" style="fill:none;stroke:black;stroke-width:1" />
  <polyline points="34.012,117.5297 30.012,117.5297" style="fill:none;stroke:black;stroke-width:1" />
  <polyline points="34.012,103.1047 30.012,103.1047" style="fill:none;stroke:black;stroke-width:1" />
  <polyline points="34.012,74.2548 30.012,74.2548" style="fill:none;stroke:black;stroke-width:1" />
  <polyline points="34.012,59.8299 30.012,59.8299" style="fill:none;stroke:black;stroke-width:1" />
  <polyline points="34.012,45.4049 30.012,45.4049" style="fill:none;stroke:black;stroke-width:1" />
  <polyline points="34.012,30.98 30.012,30.98" style="fill:none;stroke:black;stroke-width:1" />
  <text dominant-baseline="middle" text-anchor="end" transform="translate(23.012,305.0541)" font-family="Segoe UI" font-size="12" font-weight="400" fill="black">50</text>
  <text dominant-baseline="middle" text-anchor="end" transform="translate(23.012,232.9293)" font-family="Segoe UI" font-size="12" font-weight="400" fill="black">100</text>
  <text dominant-baseline="middle" text-anchor="end" transform="translate(23.012,160.8045)" font-family="Segoe UI" font-size="12" font-weight="400" fill="black">150</text>
  <text dominant-baseline="middle" text-anchor="end" transform="translate(23.012,88.6798)" font-family="Segoe UI" font-size="12" font-weight="400" fill="black">200</text>
  <polyline points="34.012,305.0541 27.012,305.0541" style="fill:none;stroke:black;stroke-width:1" />
  <polyline points="34.012,232.9293 27.012,232.9293" style="fill:none;stroke:black;stroke-width:1" />
  <polyline points="34.012,160.8045 27.012,160.8045" style="fill:none;stroke:black;stroke-width:1" />
  <polyline points="34.012,88.6798 27.012,88.6798" style="fill:none;stroke:black;stroke-width:1" />
  <text dominant-baseline="hanging" text-anchor="middle" transform="translate(81.7033,381.947)" font-family="Segoe UI" font-size="12" font-weight="400" fill="black">29. August</text>
  <text dominant-baseline="hanging" text-anchor="middle" transform="translate(148.4711,381.947)" font-family="Segoe UI" font-size="12" font-weight="400" fill="black">12. September</text>
  <text dominant-baseline="hanging" text-anchor="middle" transform="translate(215.2389,381.947)" font-family="Segoe UI" font-size="12" font-weight="400" fill="black">26. September</text>
  <text dominant-baseline="hanging" text-anchor="middle" transform="translate(282.0067,381.947)" font-family="Segoe UI" font-size="12" font-weight="400" fill="black">10. October</text>
  <text dominant-baseline="hanging" text-anchor="middle" transform="translate(348.7745,381.947)" font-family="Segoe UI" font-size="12" font-weight="400" fill="black">24. October</text>
  <text dominant-baseline="hanging" text-anchor="middle" transform="translate(415.5423,381.947)" font-family="Segoe UI" font-size="12" font-weight="400" fill="black">07. November</text>
  <text dominant-baseline="hanging" text-anchor="middle" transform="translate(482.3101,381.947)" font-family="Segoe UI" font-size="12" font-weight="400" fill="black">21. November</text>
  <text dominant-baseline="hanging" text-anchor="middle" transform="translate(549.0778,381.947)" font-family="Segoe UI" font-size="12" font-weight="400" fill="black">05. December</text>
  <polyline points="81.7033,370.947 81.7033,377.947" style="fill:none;stroke:black;stroke-width:1" />
  <polyline points="148.4711,370.947 148.4711,377.947" style="fill:none;stroke:black;stroke-width:1" />
  <polyline points="215.2389,370.947 215.2389,377.947" style="fill:none;stroke:black;stroke-width:1" />
  <polyline points="282.0067,370.947 282.0067,377.947" style="fill:none;stroke:black;stroke-width:1" />
  <polyline points="348.7745,370.947 348.7745,377.947" style="fill:none;stroke:black;stroke-width:1" />
  <polyline points="415.5423,370.947 415.5423,377.947" style="fill:none;stroke:black;stroke-width:1" />
  <polyline points="482.3101,370.947 482.3101,377.947" style="fill:none;stroke:black;stroke-width:1" />
  <polyline points="549.0778,370.947 549.0778,377.947" style="fill:none;stroke:black;stroke-width:1" />
  <polyline points="34.012,356.8142 38.7811,356.3899 43.5503,362.471 57.8576,358.5112 62.6268,362.471 67.3959,363.0367 72.165,363.6024 76.9342,362.471 91.2415,366.9965 96.0107,365.2994 100.7798,365.8651 105.5489,365.2994 110.3181,365.2994 124.6254,365.8651 129.3946,367.5622 134.1637,365.8651 138.9328,365.2994 143.7019,363.0367 158.0093,356.8142 162.7785,352.2887 167.5476,347.1975 172.3167,346.6319 177.0858,342.1064 191.3932,347.7632 196.1624,348.3289 200.9315,352.2887 205.7006,350.5916 210.4697,351.723 224.7771,335.8838 229.5463,336.4495 234.3154,335.3182 239.0845,325.1358 243.8536,319.479 258.161,312.6908 262.9302,313.8222 267.6993,305.9026 272.4684,304.7528 277.2375,307.6498 291.5449,292.5852 296.3141,290.847 301.0832,285.6323 305.8523,275.2029 310.6214,253.1854 324.9288,230.5885 329.6979,225.9532 334.4671,221.8974 339.2362,202.7769 344.0053,202.1975 358.3127,137.3037 363.0818,132.0891 367.851,129.192 372.6201,131.5096 377.3892,98.4834 391.6966,118.1833 396.4657,107.7539 401.2349,108.9127 406.004,101.3804 410.7731,119.3421 425.0805,90.9511 429.8496,84.5776 434.6188,58.5042 444.157,32.4308 458.4644,61.4012 463.2335,75.8864 468.0027,84.5776 472.7718,65.3847 477.5409,120.5009 491.8483,167.433 496.6174,150.6301 501.3866,153.5272 506.1557,208.571 510.9248,185.974 525.2322,188.8711 530.0013,213.7856 534.7705,225.9532 539.5396,198.1416 544.3087,202.1975 558.6161,179.0211 563.3852,181.3388 568.1544,179.6005 572.9235,151.2095 577.6926,173.2271 592,154.1066" style="fill:none;stroke:rgb(31,119,180);stroke-width:2;stroke-linejoin:bevel" />
  <text dominant-baseline="hanging" text-anchor="middle" transform="translate(313.006,8)" font-family="Segoe UI" font-size="18" font-weight="700" fill="black">7-Tage-Inzidenz Stadt Aachen 14.12.2020</text>
  <polygon points="34.012,29.0795 592,29.0795 592,370.947 34.012,370.947" style="fill:none;stroke:black;stroke-width:1" />
  <polygon points="42.012,37.0795 247.014,37.0795 247.014,63.1325 42.012,63.1325" style="fill:none;stroke:none;" />
  <text dominant-baseline="hanging" text-anchor="start" transform="translate(70.012,45.0795)" font-family="Segoe UI" font-size="12" font-weight="400" fill="black">7-Tage-Inzidenz Stadt Aachen 14.12.2020</text>
  <polyline points="50.012,50.106 66.012,50.106" style="fill:none;stroke:rgb(31,119,180);stroke-width:2" />
</svg>