<?xml version="1.0" encoding="utf-8" standalone="no"?>
<!DOCTYPE svg PUBLIC "-//W3C//DTD SVG 1.1//EN" "http://www.w3.org/Graphics/SVG/1.1/DTD/svg11.dtd">
<svg width="600" height="400" version="1.1" xmlns:xlink="http://www.w3.org/1999/xlink" xmlns="http://www.w3.org/2000/svg">
  <rect x="0" y="0" width="600" height="400" style="fill:rgb(255,255,255);stroke:none;" />
  <polyline points="34.012,362.7539 30.012,362.7539" style="fill:none;stroke:black;stroke-width:1" />
  <polyline points="34.012,348.3289 30.012,348.3289" style="fill:none;stroke:black;stroke-width:1" />
  <polyline points="34.012,333.904 30.012,333.904" style="fill:none;stroke:black;stroke-width:1" />
  <polyline points="34.012,319.479 30.012,319.479" style="fill:none;stroke:black;stroke-width:1" />
  <polyline points="34.012,290.6291 30.012,290.6291" style="fill:none;stroke:black;stroke-width:1" />
  <polyline points="34.012,276.2041 30.012,276.2041" style="fill:none;stroke:black;stroke-width:1" />
  <polyline points="34.012,261.7792 30.012,261.7792" style="fill:none;stroke:black;stroke-width:1" />
  <polyline points="34.012,247.3542 30.012,247.3542" style="fill:none;stroke:black;stroke-width:1" />
  <polyline points="34.012,218.5043 30.012,218.5043" style="fill:none;stroke:black;stroke-width:1" />
  <polyline points="34.012,204.0794 30.012,204.0794" style="fill:none;stroke:black;stroke-width:1" />
  <polyline points="34.012,189.6544 30.012,189.6544" style="fill:none;stroke:black;stroke-width:1" />
  <polyline points="34.012,175.2295 30.012,175.2295" style="fill:none;stroke:black;stroke-width:1" />
  <polyline points="34.012,146.3796 30.012,146.3796" style="fill:none;stroke:black;stroke-width:1" />
  <polyline points="34.012,131.9546 30.012,131.9546" style="fill:none;stroke:black;stroke-width:1" />
  <polyline points="34.012,117.5297 30.012,117.5297" style="fill:none;stroke:black;stroke-width:1" />
  <polyline points="34.012,103.1047 30.012,103.1047" style="fill:none;stroke:black;stroke-width:1" />
  <polyline points="34.012,74.2548 30.012,74.2548" style="fill:none;stroke:black;stroke-width:1" />
  <polyline points="34.012,59.8299 30.012,59.8299" style="fill:none;stroke:black;stroke-width:1" />
  <polyline points="34.012,45.4049 30.012,45.4049" style="fill:none;stroke:black;stroke-width:1" />
  <polyline points="34.012,30.98 30.012,30.98" style="fill:none;stroke:black;stroke-width:1" />
  <text dominant-baseline="middle" text-anchor="end" transform="translate(23.012,305.0541)" font-family="Segoe UI" font-size="12" font-weight="400" fill="black">50</text>
  <text dominant-baseline="middle" text-anchor="end" transform="translate(23.012,232.9293)" font-family="Segoe UI" font-size="12" font-weight="400" fill="black">100</text>
  <text dominant-baseline="middle" text-anchor="end" transform="translate(23.012,160.8045)" font-family="Segoe UI" font-size="12" font-weight="400" fill="black">150</text>
  <text dominant-baseline="middle" text-anchor="end" transform="translate(23.012,88.6798)" font-family="Segoe UI" font-size="12" font-weight="400" fill="black">200</text>
  <polyline points="34.012,305.0541 27.012,305.0541" style="fill:none;stroke:black;stroke-width:1" />
  <polyline points="34.012,232.9293 27.012,232.9293" style="fill:none;stroke:black;stroke-width:1" />
  <polyline points="34.012,160.8045 27.012,160.8045" style="fill:none;stroke:black;stroke-width:1" />
  <polyline points="34.012,88.6798 27.012,88.6798" style="fill:none;stroke:black;stroke-width:1" />
  <text dominant-baseline="hanging" text-anchor="middle" transform="translate(62.2371,381.947)" font-family="Segoe UI" font-size="12" font-weight="400" fill="black">01. September</text>
  <text dominant-baseline="hanging" text-anchor="middle" transform="translate(127.3719,381.947)" font-family="Segoe UI" font-size="12" font-weight="400" fill="black">01. October</text>
  <text dominant-baseline="hanging" text-anchor="middle" transform="translate(194.6778,381.947)" font-family="Segoe UI" font-size="12" font-weight="400" fill="black">01. November</text>
  <text dominant-baseline="hanging" text-anchor="middle" transform="translate(259.8126,381.947)" font-family="Segoe UI" font-size="12" font-weight="400" fill="black">01. December</text>
  <text dominant-baseline="hanging" text-anchor="middle" transform="translate(327.1185,381.947)" font-family="Segoe UI" font-size="12" font-weight="400" fill="black">01. January</text>
  <text dominant-baseline="hanging" text-anchor="middle" transform="translate(394.4245,381.947)" font-family="Segoe UI" font-size="12" font-weight="400" fill="black">01. February</text>
  <text dominant-baseline="hanging" text-anchor="middle" transform="translate(455.2169,381.947)" font-family="Segoe UI" font-size="12" font-weight="400" fill="black">01. March</text>
  <text dominant-baseline="hanging" text-anchor="middle" transform="translate(522.5229,381.947)" font-family="Segoe UI" font-size="12" font-weight="400" fill="black">01. April</text>
  <text dominant-baseline="hanging" text-anchor="middle" transform="translate(587.6577,381.947)" font-family="Segoe UI" font-size="12" font-weight="400" fill="black">01. May</text>
  <polyline points="62.2371,370.947 62.2371,377.947" style="fill:none;stroke:black;stroke-width:1" />
  <polyline points="127.3719,370.947 127.3719,377.947" style="fill:none;stroke:black;stroke-width:1" />
  <polyline points="194.6778,370.947 194.6778,377.947" style="fill:none;stroke:black;stroke-width:1" />
  <polyline points="259.8126,370.947 259.8126,377.947" style="fill:none;stroke:black;stroke-width:1" />
  <polyline points="327.1185,370.947 327.1185,377.947" style="fill:none;stroke:black;stroke-width:1" />
  <polyline points="394.4245,370.947 394.4245,377.947" style="fill:none;stroke:black;stroke-width:1" />
  <polyline points="455.2169,370.947 455.2169,377.947" style="fill:none;stroke:black;stroke-width:1" />
  <polyline points="522.5229,370.947 522.5229,377.947" style="fill:none;stroke:black;stroke-width:1" />
  <polyline points="587.6577,370.947 587.6577,377.947" style="fill:none;stroke:black;stroke-width:1" />
  <polyline points="34.012,356.8142 36.1832,356.3899 38.3543,362.471 44.8678,358.5112 47.039,362.471 49.2101,363.0367 51.3813,363.6024 53.5524,362.471 60.0659,366.9965 62.2371,365.2994 64.4082,365.8651 66.5794,365.2994 68.7506,365.2994 75.264,365.8651 77.4352,367.5622 79.6064,365.8651 81.7775,365.2994 83.9487,363.0367 90.4621,356.8142 92.6333,352.2887 94.8045,347.1975 96.9756,346.6319 99.1468,342.1064 105.6603,347.7632 107.8314,348.3289 110.0026,352.2887 112.1737,350.5916 114.3449,351.723 120.8584,335.8838 123.0295,336.4495 125.2007,335.3182 127.3719,325.1358 129.543,319.479 136.0565,312.6908 138.2277,313.8222 140.3988,305.9026 142.57,304.7528 144.7411,307.6498 151.2546,292.5852 153.4258,290.847 155.5969,285.6323 157.7681,275.2029 159.9393,253.1854 166.4527,230.5885 168.6239,225.9532 170.7951,221.8974 172.9662,202.7769 175.1374,202.1975 181.6508,137.3037 183.822,132.0891 185.9932,129.192 188.1643,131.5096 190.3355,98.4834 196.849,118.1833 199.0201,107.7539 201.1913,108.9127 203.3624,101.3804 205.5336,119.3421 212.0471,90.9511 214.2182,84.5776 216.3894,58.5042 220.7317,32.4308 227.2452,61.4012 229.4164,75.8864 231.5875,84.5776 233.7587,65.3847 235.9298,120.5009 242.4433,167.433 244.6145,150.6301 246.7856,153.5272 248.9568,208.571 251.128,185.974 257.6414,188.8711 259.8126,213.7856 261.9838,225.9532 264.1549,198.1416 266.3261,202.1975 272.8395,179.0211 275.0107,181.3388 277.1819,179.6005 279.353,151.2095 281.5242,173.2271 288.0377,154.1066 290.2088,144.2566 292.38,132.6685 294.5511,145.4155 296.7223,134.4067 303.2358,116.445 305.4069,117.0244 307.5781,140.7802 318.4339,157.0036 320.6051,154.686 322.7762,134.4067 324.9474,136.3622 333.632,211.468 335.8032,235.2238 337.9743,250.8678 340.1455,236.962 342.3167,215.9584 351.0013,192.9269 353.1725,195.2446 355.3436,217.2621 357.5148,247.3913 364.0282,255.9086 366.1994,275.7823 368.3706,267.0912 370.5417,285.0529 372.7129,285.6323 379.2264,272.3059 383.5687,279.8382 385.7398,259.5589 387.911,247.9707 394.4245,264.1942 396.5956,278.3173 398.7668,272.3059 400.938,279.8382 403.1091,290.847 409.6226,293.744 411.7938,290.847 413.9649,275.2029 416.1361,276.3617 418.3072,269.4088 424.8207,283.8941 426.9919,285.6323 429.163,306.491 431.3342,313.4439 433.5054,329.6673 440.0188,329.6673 442.19,330.8261 444.3612,321.5556 446.5323,322.135 448.7035,317.4997 455.2169,329.0879 457.3881,327.9291 459.5593,323.8732 461.7304,300.6969 463.9016,294.9028 470.4151,265.353 472.5862,265.353 474.7574,263.6148 476.9285,278.6794 479.0997,272.3059 485.6132,261.8765 487.7843,262.4559 489.9555,254.9236 492.1267,226.5326 494.2978,208.571 500.8113,200.4592 502.9825,199.8798 505.1536,204.5151 507.3248,192.9269 509.4959,205.6739 516.0094,224.215 518.1806,220.7385 520.3517,227.6914 522.5229,243.9149 524.6941,218.4209 533.3787,205.0945 535.5499,220.1591 537.721,201.6181 539.8922,235.2238 546.4056,225.8953 548.5768,216.1033 550.748,168.0124 552.9191,188.8711 555.0903,184.8152 561.6038,176.1241 563.7749,157.0036 565.9461,162.2183 568.1172,148.3125 570.2884,123.9773 576.8019,104.8569 578.973,121.0803 581.1442,135.5655 583.3154,129.7714 585.4865,132.6685 592,158.7418" style="fill:none;stroke:rgb(31,119,180);stroke-width:2;stroke-linejoin:bevel" />
  <text dominant-baseline="hanging" text-anchor="middle" transform="translate(313.006,8)" font-family="Segoe UI" font-size="18" font-weight="700" fill="black">7-Tage-Inzidenz Stadt Aachen 03.05.2021</text>
  <polygon points="34.012,29.0795 592,29.0795 592,370.947 34.012,370.947" style="fill:none;stroke:black;stroke-width:1" />
  <polygon points="42.012,37.0795 247.014,37.0795 247.014,63.1325 42.012,63.1325" style="fill:none;stroke:none;" />
  <text dominant-baseline="hanging" text-anchor="start" transform="translate(70.012,45.0795)" font-family="Segoe UI" font-size="12" font-weight="400" fill="black">7-Tage-Inzidenz Stadt Aachen 03.05.2021</text>
  <polyline points="50.012,50.106 66.012,50.106" style="fill:none;stroke:rgb(31,119,180);stroke-width:2" />
</svg>