<?xml version="1.0" encoding="utf-8" standalone="no"?>
<!DOCTYPE svg PUBLIC "-//W3C//DTD SVG 1.1//EN" "http://www.w3.org/Graphics/SVG/1.1/DTD/svg11.dtd">
<svg width="600" height="400" version="1.1" xmlns:xlink="http://www.w3.org/1999/xlink" xmlns="http://www.w3.org/2000/svg">
  <rect x="0" y="0" width="600" height="400" style="fill:rgb(255,255,255);stroke:none;" />
  <polyline points="34.012,362.7539 30.012,362.7539" style="fill:none;stroke:black;stroke-width:1" />
  <polyline points="34.012,348.3289 30.012,348.3289" style="fill:none;stroke:black;stroke-width:1" />
  <polyline points="34.012,333.904 30.012,333.904" style="fill:none;stroke:black;stroke-width:1" />
  <polyline points="34.012,319.479 30.012,319.479" style="fill:none;stroke:black;stroke-width:1" />
  <polyline points="34.012,290.6291 30.012,290.6291" style="fill:none;stroke:black;stroke-width:1" />
  <polyline points="34.012,276.2041 30.012,276.2041" style="fill:none;stroke:black;stroke-width:1" />
  <polyline points="34.012,261.7792 30.012,261.7792" style="fill:none;stroke:black;stroke-width:1" />
  <polyline points="34.012,247.3542 30.012,247.3542" style="fill:none;stroke:black;stroke-width:1" />
  <polyline points="34.012,218.5043 30.012,218.5043" style="fill:none;stroke:black;stroke-width:1" />
  <polyline points="34.012,204.0794 30.012,204.0794" style="fill:none;stroke:black;stroke-width:1" />
  <polyline points="34.012,189.6544 30.012,189.6544" style="fill:none;stroke:black;stroke-width:1" />
  <polyline points="34.012,175.2295 30.012,175.2295" style="fill:none;stroke:black;stroke-width:1" />
  <polyline points="34.012,146.3796 30.012,146.3796" style="fill:none;stroke:black;stroke-width:1" />
  <polyline points="34.012,131.9546 30.012,131.9546" style="fill:none;stroke:black;stroke-width:1" />
  <polyline points="34.012,117.5297 30.012,117.5297" style="fill:none;stroke:black;stroke-width:1" />
  <polyline points="34.012,103.1047 30.012,103.1047" style="fill:none;stroke:black;stroke-width:1" />
  <polyline points="34.012,74.2548 30.012,74.2548" style="fill:none;stroke:black;stroke-width:1" />
  <polyline points="34.012,59.8299 30.012,59.8299" style="fill:none;stroke:black;stroke-width:1" />
  <polyline points="34.012,45.4049 30.012,45.4049" style="fill:none;stroke:black;stroke-width:1" />
  <polyline points="34.012,30.98 30.012,30.98" style="fill:none;stroke:black;stroke-width:1" />
  <text dominant-baseline="middle" text-anchor="end" transform="translate(23.012,305.0541)" font-family="Segoe UI" font-size="12" font-weight="400" fill="black">50</text>
  <text dominant-baseline="middle" text-anchor="end" transform="translate(23.012,232.9293)" font-family="Segoe UI" font-size="12" font-weight="400" fill="black">100</text>
  <text dominant-baseline="middle" text-anchor="end" transform="translate(23.012,160.8045)" font-family="Segoe UI" font-size="12" font-weight="400" fill="black">150</text>
  <text dominant-baseline="middle" text-anchor="end" transform="translate(23.012,88.6798)" font-family="Segoe UI" font-size="12" font-weight="400" fill="black">200</text>
  <polyline points="34.012,305.0541 27.012,305.0541" style="fill:none;stroke:black;stroke-width:1" />
  <polyline points="34.012,232.9293 27.012,232.9293" style="fill:none;stroke:black;stroke-width:1" />
  <polyline points="34.012,160.8045 27.012,160.8045" style="fill:none;stroke:black;stroke-width:1" />
  <polyline points="34.012,88.6798 27.012,88.6798" style="fill:none;stroke:black;stroke-width:1" />
  <text dominant-baseline="hanging" text-anchor="middle" transform="translate(80.9017,381.947)" font-family="Segoe UI" font-size="12" font-weight="400" fill="black">29. August</text>
  <text dominant-baseline="hanging" text-anchor="middle" transform="translate(146.5474,381.947)" font-family="Segoe UI" font-size="12" font-weight="400" fill="black">12. September</text>
  <text dominant-baseline="hanging" text-anchor="middle" transform="translate(212.193,381.947)" font-family="Segoe UI" font-size="12" font-weight="400" fill="black">26. September</text>
  <text dominant-baseline="hanging" text-anchor="middle" transform="translate(277.8387,381.947)" font-family="Segoe UI" font-size="12" font-weight="400" fill="black">10. October</text>
  <text dominant-baseline="hanging" text-anchor="middle" transform="translate(343.4843,381.947)" font-family="Segoe UI" font-size="12" font-weight="400" fill="black">24. October</text>
  <text dominant-baseline="hanging" text-anchor="middle" transform="translate(409.13,381.947)" font-family="Segoe UI" font-size="12" font-weight="400" fill="black">07. November</text>
  <text dominant-baseline="hanging" text-anchor="middle" transform="translate(474.7756,381.947)" font-family="Segoe UI" font-size="12" font-weight="400" fill="black">21. November</text>
  <text dominant-baseline="hanging" text-anchor="middle" transform="translate(540.4213,381.947)" font-family="Segoe UI" font-size="12" font-weight="400" fill="black">05. December</text>
  <polyline points="80.9017,370.947 80.9017,377.947" style="fill:none;stroke:black;stroke-width:1" />
  <polyline points="146.5474,370.947 146.5474,377.947" style="fill:none;stroke:black;stroke-width:1" />
  <polyline points="212.193,370.947 212.193,377.947" style="fill:none;stroke:black;stroke-width:1" />
  <polyline points="277.8387,370.947 277.8387,377.947" style="fill:none;stroke:black;stroke-width:1" />
  <polyline points="343.4843,370.947 343.4843,377.947" style="fill:none;stroke:black;stroke-width:1" />
  <polyline points="409.13,370.947 409.13,377.947" style="fill:none;stroke:black;stroke-width:1" />
  <polyline points="474.7756,370.947 474.7756,377.947" style="fill:none;stroke:black;stroke-width:1" />
  <polyline points="540.4213,370.947 540.4213,377.947" style="fill:none;stroke:black;stroke-width:1" />
  <polyline points="34.012,356.8142 38.701,356.3899 43.3899,362.471 57.4569,358.5112 62.1458,362.471 66.8348,363.0367 71.5238,363.6024 76.2128,362.471 90.2797,366.9965 94.9687,365.2994 99.6576,365.8651 104.3466,365.2994 109.0356,365.2994 123.1025,365.8651 127.7915,367.5622 132.4805,365.8651 137.1694,365.2994 141.8584,363.0367 155.9253,356.8142 160.6143,352.2887 165.3033,347.1975 169.9923,346.6319 174.6812,342.1064 188.7482,347.7632 193.4371,348.3289 198.1261,352.2887 202.8151,350.5916 207.5041,351.723 221.571,335.8838 226.26,336.4495 230.9489,335.3182 235.6379,325.1358 240.3269,319.479 254.3938,312.6908 259.0828,313.8222 263.7718,305.9026 268.4607,304.7528 273.1497,307.6498 287.2166,292.5852 291.9056,290.847 296.5946,285.6323 301.2836,275.2029 305.9725,253.1854 320.0395,230.5885 324.7284,225.9532 329.4174,221.8974 334.1064,202.7769 338.7954,202.1975 352.8623,137.3037 357.5513,132.0891 362.2402,129.192 366.9292,131.5096 371.6182,98.4834 385.6851,118.1833 390.3741,107.7539 395.0631,108.9127 399.752,101.3804 404.441,119.3421 418.5079,90.9511 423.1969,84.5776 427.8859,58.5042 437.2638,32.4308 451.3308,61.4012 456.0197,75.8864 460.7087,84.5776 465.3977,65.3847 470.0867,120.5009 484.1536,167.433 488.8426,150.6301 493.5315,153.5272 498.2205,208.571 502.9095,185.974 516.9764,188.8711 521.6654,213.7856 526.3544,225.9532 531.0433,198.1416 535.7323,202.1975 549.7992,179.0211 554.4882,181.3388 559.1772,179.6005 563.8662,151.2095 568.5551,173.2271 582.6221,154.1066 587.311,144.2566 592,132.6685" style="fill:none;stroke:rgb(31,119,180);stroke-width:2;stroke-linejoin:bevel" />
  <text dominant-baseline="hanging" text-anchor="middle" transform="translate(313.006,8)" font-family="Segoe UI" font-size="18" font-weight="700" fill="black">7-Tage-Inzidenz Stadt Aachen 16.12.2020</text>
  <polygon points="34.012,29.0795 592,29.0795 592,370.947 34.012,370.947" style="fill:none;stroke:black;stroke-width:1" />
  <polygon points="42.012,37.0795 247.014,37.0795 247.014,63.1325 42.012,63.1325" style="fill:none;stroke:none;" />
  <text dominant-baseline="hanging" text-anchor="start" transform="translate(70.012,45.0795)" font-family="Segoe UI" font-size="12" font-weight="400" fill="black">7-Tage-Inzidenz Stadt Aachen 16.12.2020</text>
  <polyline points="50.012,50.106 66.012,50.106" style="fill:none;stroke:rgb(31,119,180);stroke-width:2" />
</svg>