<?xml version="1.0" encoding="utf-8" standalone="no"?>
<!DOCTYPE svg PUBLIC "-//W3C//DTD SVG 1.1//EN" "http://www.w3.org/Graphics/SVG/1.1/DTD/svg11.dtd">
<svg width="600" height="400" version="1.1" xmlns:xlink="http://www.w3.org/1999/xlink" xmlns="http://www.w3.org/2000/svg">
  <rect x="0" y="0" width="600" height="400" style="fill:rgb(255,255,255);stroke:none;" />
  <polyline points="34.012,362.7539 30.012,362.7539" style="fill:none;stroke:black;stroke-width:1" />
  <polyline points="34.012,348.3289 30.012,348.3289" style="fill:none;stroke:black;stroke-width:1" />
  <polyline points="34.012,333.904 30.012,333.904" style="fill:none;stroke:black;stroke-width:1" />
  <polyline points="34.012,319.479 30.012,319.479" style="fill:none;stroke:black;stroke-width:1" />
  <polyline points="34.012,290.6291 30.012,290.6291" style="fill:none;stroke:black;stroke-width:1" />
  <polyline points="34.012,276.2041 30.012,276.2041" style="fill:none;stroke:black;stroke-width:1" />
  <polyline points="34.012,261.7792 30.012,261.7792" style="fill:none;stroke:black;stroke-width:1" />
  <polyline points="34.012,247.3542 30.012,247.3542" style="fill:none;stroke:black;stroke-width:1" />
  <polyline points="34.012,218.5043 30.012,218.5043" style="fill:none;stroke:black;stroke-width:1" />
  <polyline points="34.012,204.0794 30.012,204.0794" style="fill:none;stroke:black;stroke-width:1" />
  <polyline points="34.012,189.6544 30.012,189.6544" style="fill:none;stroke:black;stroke-width:1" />
  <polyline points="34.012,175.2295 30.012,175.2295" style="fill:none;stroke:black;stroke-width:1" />
  <polyline points="34.012,146.3796 30.012,146.3796" style="fill:none;stroke:black;stroke-width:1" />
  <polyline points="34.012,131.9546 30.012,131.9546" style="fill:none;stroke:black;stroke-width:1" />
  <polyline points="34.012,117.5297 30.012,117.5297" style="fill:none;stroke:black;stroke-width:1" />
  <polyline points="34.012,103.1047 30.012,103.1047" style="fill:none;stroke:black;stroke-width:1" />
  <polyline points="34.012,74.2548 30.012,74.2548" style="fill:none;stroke:black;stroke-width:1" />
  <polyline points="34.012,59.8299 30.012,59.8299" style="fill:none;stroke:black;stroke-width:1" />
  <polyline points="34.012,45.4049 30.012,45.4049" style="fill:none;stroke:black;stroke-width:1" />
  <polyline points="34.012,30.98 30.012,30.98" style="fill:none;stroke:black;stroke-width:1" />
  <text dominant-baseline="middle" text-anchor="end" transform="translate(23.012,305.0541)" font-family="Segoe UI" font-size="12" font-weight="400" fill="black">50</text>
  <text dominant-baseline="middle" text-anchor="end" transform="translate(23.012,232.9293)" font-family="Segoe UI" font-size="12" font-weight="400" fill="black">100</text>
  <text dominant-baseline="middle" text-anchor="end" transform="translate(23.012,160.8045)" font-family="Segoe UI" font-size="12" font-weight="400" fill="black">150</text>
  <text dominant-baseline="middle" text-anchor="end" transform="translate(23.012,88.6798)" font-family="Segoe UI" font-size="12" font-weight="400" fill="black">200</text>
  <polyline points="34.012,305.0541 27.012,305.0541" style="fill:none;stroke:black;stroke-width:1" />
  <polyline points="34.012,232.9293 27.012,232.9293" style="fill:none;stroke:black;stroke-width:1" />
  <polyline points="34.012,160.8045 27.012,160.8045" style="fill:none;stroke:black;stroke-width:1" />
  <polyline points="34.012,88.6798 27.012,88.6798" style="fill:none;stroke:black;stroke-width:1" />
  <text dominant-baseline="hanging" text-anchor="middle" transform="translate(60.4859,381.947)" font-family="Segoe UI" font-size="12" font-weight="400" fill="black">01. September</text>
  <text dominant-baseline="hanging" text-anchor="middle" transform="translate(121.5795,381.947)" font-family="Segoe UI" font-size="12" font-weight="400" fill="black">01. October</text>
  <text dominant-baseline="hanging" text-anchor="middle" transform="translate(184.7095,381.947)" font-family="Segoe UI" font-size="12" font-weight="400" fill="black">01. November</text>
  <text dominant-baseline="hanging" text-anchor="middle" transform="translate(245.8031,381.947)" font-family="Segoe UI" font-size="12" font-weight="400" fill="black">01. December</text>
  <text dominant-baseline="hanging" text-anchor="middle" transform="translate(308.9331,381.947)" font-family="Segoe UI" font-size="12" font-weight="400" fill="black">01. January</text>
  <text dominant-baseline="hanging" text-anchor="middle" transform="translate(372.0631,381.947)" font-family="Segoe UI" font-size="12" font-weight="400" fill="black">01. February</text>
  <text dominant-baseline="hanging" text-anchor="middle" transform="translate(429.0838,381.947)" font-family="Segoe UI" font-size="12" font-weight="400" fill="black">01. March</text>
  <text dominant-baseline="hanging" text-anchor="middle" transform="translate(492.2138,381.947)" font-family="Segoe UI" font-size="12" font-weight="400" fill="black">01. April</text>
  <text dominant-baseline="hanging" text-anchor="middle" transform="translate(553.3074,381.947)" font-family="Segoe UI" font-size="12" font-weight="400" fill="black">01. May</text>
  <polyline points="60.4859,370.947 60.4859,377.947" style="fill:none;stroke:black;stroke-width:1" />
  <polyline points="121.5795,370.947 121.5795,377.947" style="fill:none;stroke:black;stroke-width:1" />
  <polyline points="184.7095,370.947 184.7095,377.947" style="fill:none;stroke:black;stroke-width:1" />
  <polyline points="245.8031,370.947 245.8031,377.947" style="fill:none;stroke:black;stroke-width:1" />
  <polyline points="308.9331,370.947 308.9331,377.947" style="fill:none;stroke:black;stroke-width:1" />
  <polyline points="372.0631,370.947 372.0631,377.947" style="fill:none;stroke:black;stroke-width:1" />
  <polyline points="429.0838,370.947 429.0838,377.947" style="fill:none;stroke:black;stroke-width:1" />
  <polyline points="492.2138,370.947 492.2138,377.947" style="fill:none;stroke:black;stroke-width:1" />
  <polyline points="553.3074,370.947 553.3074,377.947" style="fill:none;stroke:black;stroke-width:1" />
  <polyline points="34.012,356.8142 36.0485,356.3899 38.0849,362.471 44.1943,358.5112 46.2307,362.471 48.2672,363.0367 50.3036,363.6024 52.3401,362.471 58.4494,366.9965 60.4859,365.2994 62.5223,365.8651 64.5588,365.2994 66.5952,365.2994 72.7046,365.8651 74.7411,367.5622 76.7775,365.8651 78.814,365.2994 80.8504,363.0367 86.9598,356.8142 88.9962,352.2887 91.0327,347.1975 93.0691,346.6319 95.1056,342.1064 101.2149,347.7632 103.2514,348.3289 105.2878,352.2887 107.3243,350.5916 109.3607,351.723 115.4701,335.8838 117.5066,336.4495 119.543,335.3182 121.5795,325.1358 123.6159,319.479 129.7253,312.6908 131.7617,313.8222 133.7982,305.9026 135.8346,304.7528 137.8711,307.6498 143.9804,292.5852 146.0169,290.847 148.0533,285.6323 150.0898,275.2029 152.1262,253.1854 158.2356,230.5885 160.2721,225.9532 162.3085,221.8974 164.345,202.7769 166.3814,202.1975 172.4908,137.3037 174.5272,132.0891 176.5637,129.192 178.6001,131.5096 180.6366,98.4834 186.7459,118.1833 188.7824,107.7539 190.8188,108.9127 192.8553,101.3804 194.8918,119.3421 201.0011,90.9511 203.0376,84.5776 205.074,58.5042 209.1469,32.4308 215.2563,61.4012 217.2927,75.8864 219.3292,84.5776 221.3656,65.3847 223.4021,120.5009 229.5114,167.433 231.5479,150.6301 233.5844,153.5272 235.6208,208.571 237.6573,185.974 243.7666,188.8711 245.8031,213.7856 247.8395,225.9532 249.876,198.1416 251.9124,202.1975 258.0218,179.0211 260.0582,181.3388 262.0947,179.6005 264.1311,151.2095 266.1676,173.2271 272.2769,154.1066 274.3134,144.2566 276.3499,132.6685 278.3863,145.4155 280.4228,134.4067 286.5321,116.445 288.5686,117.0244 290.605,140.7802 300.7873,157.0036 302.8237,154.686 304.8602,134.4067 306.8966,136.3622 315.0425,211.468 317.0789,235.2238 319.1154,250.8678 321.1518,236.962 323.1883,215.9584 331.3341,192.9269 333.3705,195.2446 335.407,217.2621 337.4434,247.3913 343.5528,255.9086 345.5892,275.7823 347.6257,267.0912 349.6621,285.0529 351.6986,285.6323 357.808,272.3059 361.8809,279.8382 363.9173,259.5589 365.9538,247.9707 372.0631,264.1942 374.0996,278.3173 376.136,272.3059 378.1725,279.8382 380.2089,290.847 386.3183,293.744 388.3547,290.847 390.3912,275.2029 392.4276,276.3617 394.4641,269.4088 400.5735,283.8941 402.6099,285.6323 404.6464,306.491 406.6828,313.4439 408.7193,329.6673 414.8286,329.6673 416.8651,330.8261 418.9015,321.5556 420.938,322.135 422.9744,317.4997 429.0838,329.0879 431.1202,327.9291 433.1567,323.8732 435.1932,300.6969 437.2296,294.9028 443.339,265.353 445.3754,265.353 447.4119,263.6148 449.4483,278.6794 451.4848,272.3059 457.5941,261.8765 459.6306,262.4559 461.667,254.9236 463.7035,226.5326 465.7399,208.571 471.8493,200.4592 473.8858,199.8798 475.9222,204.5151 477.9587,192.9269 479.9951,205.6739 486.1045,224.215 488.1409,220.7385 490.1774,227.6914 492.2138,243.9149 494.2503,218.4209 502.3961,205.0945 504.4325,220.1591 506.469,201.6181 508.5054,235.2238 514.6148,225.8953 516.6513,216.1033 518.6877,168.0124 520.7242,188.8711 522.7606,184.8152 528.87,176.1241 530.9064,157.0036 532.9429,162.2183 534.9793,148.3125 537.0158,123.9773 543.1251,104.8569 545.1616,121.0803 547.198,135.5655 549.2345,129.7714 551.2709,132.6685 557.3803,158.7418 559.4168,146.5743 561.4532,140.2008 563.4897,173.8065 565.5261,194.0858 571.6355,203.9357 573.6719,213.2062 575.7084,225.9532 579.7813,193.5063 585.8906,196.4034 587.9271,181.9182 589.9635,176.1241 592,180.4697" style="fill:none;stroke:rgb(31,119,180);stroke-width:2;stroke-linejoin:bevel" />
  <text dominant-baseline="hanging" text-anchor="middle" transform="translate(313.006,8)" font-family="Segoe UI" font-size="18" font-weight="700" fill="black">7-Tage-Inzidenz Stadt Aachen 20.05.2021</text>
  <polygon points="34.012,29.0795 592,29.0795 592,370.947 34.012,370.947" style="fill:none;stroke:black;stroke-width:1" />
  <polygon points="42.012,37.0795 247.014,37.0795 247.014,63.1325 42.012,63.1325" style="fill:none;stroke:none;" />
  <text dominant-baseline="hanging" text-anchor="start" transform="translate(70.012,45.0795)" font-family="Segoe UI" font-size="12" font-weight="400" fill="black">7-Tage-Inzidenz Stadt Aachen 20.05.2021</text>
  <polyline points="50.012,50.106 66.012,50.106" style="fill:none;stroke:rgb(31,119,180);stroke-width:2" />
</svg>