<?xml version="1.0" encoding="utf-8" standalone="no"?>
<!DOCTYPE svg PUBLIC "-//W3C//DTD SVG 1.1//EN" "http://www.w3.org/Graphics/SVG/1.1/DTD/svg11.dtd">
<svg width="600" height="400" version="1.1" xmlns:xlink="http://www.w3.org/1999/xlink" xmlns="http://www.w3.org/2000/svg">
  <rect x="0" y="0" width="600" height="400" style="fill:rgb(255,255,255);stroke:none;" />
  <polyline points="34.012,362.7539 30.012,362.7539" style="fill:none;stroke:black;stroke-width:1" />
  <polyline points="34.012,348.3289 30.012,348.3289" style="fill:none;stroke:black;stroke-width:1" />
  <polyline points="34.012,333.904 30.012,333.904" style="fill:none;stroke:black;stroke-width:1" />
  <polyline points="34.012,319.479 30.012,319.479" style="fill:none;stroke:black;stroke-width:1" />
  <polyline points="34.012,290.6291 30.012,290.6291" style="fill:none;stroke:black;stroke-width:1" />
  <polyline points="34.012,276.2041 30.012,276.2041" style="fill:none;stroke:black;stroke-width:1" />
  <polyline points="34.012,261.7792 30.012,261.7792" style="fill:none;stroke:black;stroke-width:1" />
  <polyline points="34.012,247.3542 30.012,247.3542" style="fill:none;stroke:black;stroke-width:1" />
  <polyline points="34.012,218.5043 30.012,218.5043" style="fill:none;stroke:black;stroke-width:1" />
  <polyline points="34.012,204.0794 30.012,204.0794" style="fill:none;stroke:black;stroke-width:1" />
  <polyline points="34.012,189.6544 30.012,189.6544" style="fill:none;stroke:black;stroke-width:1" />
  <polyline points="34.012,175.2295 30.012,175.2295" style="fill:none;stroke:black;stroke-width:1" />
  <polyline points="34.012,146.3796 30.012,146.3796" style="fill:none;stroke:black;stroke-width:1" />
  <polyline points="34.012,131.9546 30.012,131.9546" style="fill:none;stroke:black;stroke-width:1" />
  <polyline points="34.012,117.5297 30.012,117.5297" style="fill:none;stroke:black;stroke-width:1" />
  <polyline points="34.012,103.1047 30.012,103.1047" style="fill:none;stroke:black;stroke-width:1" />
  <polyline points="34.012,74.2548 30.012,74.2548" style="fill:none;stroke:black;stroke-width:1" />
  <polyline points="34.012,59.8299 30.012,59.8299" style="fill:none;stroke:black;stroke-width:1" />
  <polyline points="34.012,45.4049 30.012,45.4049" style="fill:none;stroke:black;stroke-width:1" />
  <polyline points="34.012,30.98 30.012,30.98" style="fill:none;stroke:black;stroke-width:1" />
  <text dominant-baseline="middle" text-anchor="end" transform="translate(23.012,305.0541)" font-family="Segoe UI" font-size="12" font-weight="400" fill="black">50</text>
  <text dominant-baseline="middle" text-anchor="end" transform="translate(23.012,232.9293)" font-family="Segoe UI" font-size="12" font-weight="400" fill="black">100</text>
  <text dominant-baseline="middle" text-anchor="end" transform="translate(23.012,160.8045)" font-family="Segoe UI" font-size="12" font-weight="400" fill="black">150</text>
  <text dominant-baseline="middle" text-anchor="end" transform="translate(23.012,88.6798)" font-family="Segoe UI" font-size="12" font-weight="400" fill="black">200</text>
  <polyline points="34.012,305.0541 27.012,305.0541" style="fill:none;stroke:black;stroke-width:1" />
  <polyline points="34.012,232.9293 27.012,232.9293" style="fill:none;stroke:black;stroke-width:1" />
  <polyline points="34.012,160.8045 27.012,160.8045" style="fill:none;stroke:black;stroke-width:1" />
  <polyline points="34.012,88.6798 27.012,88.6798" style="fill:none;stroke:black;stroke-width:1" />
  <text dominant-baseline="hanging" text-anchor="middle" transform="translate(84.0385,381.947)" font-family="Segoe UI" font-size="12" font-weight="400" fill="black">01. September</text>
  <text dominant-baseline="hanging" text-anchor="middle" transform="translate(199.4843,381.947)" font-family="Segoe UI" font-size="12" font-weight="400" fill="black">01. October</text>
  <text dominant-baseline="hanging" text-anchor="middle" transform="translate(318.7783,381.947)" font-family="Segoe UI" font-size="12" font-weight="400" fill="black">01. November</text>
  <text dominant-baseline="hanging" text-anchor="middle" transform="translate(434.2241,381.947)" font-family="Segoe UI" font-size="12" font-weight="400" fill="black">01. December</text>
  <text dominant-baseline="hanging" text-anchor="middle" transform="translate(553.5181,381.947)" font-family="Segoe UI" font-size="12" font-weight="400" fill="black">01. January</text>
  <polyline points="84.0385,370.947 84.0385,377.947" style="fill:none;stroke:black;stroke-width:1" />
  <polyline points="199.4843,370.947 199.4843,377.947" style="fill:none;stroke:black;stroke-width:1" />
  <polyline points="318.7783,370.947 318.7783,377.947" style="fill:none;stroke:black;stroke-width:1" />
  <polyline points="434.2241,370.947 434.2241,377.947" style="fill:none;stroke:black;stroke-width:1" />
  <polyline points="553.5181,370.947 553.5181,377.947" style="fill:none;stroke:black;stroke-width:1" />
  <polyline points="34.012,356.8142 37.8602,356.3899 41.7084,362.471 53.253,358.5112 57.1012,362.471 60.9494,363.0367 64.7975,363.6024 68.6457,362.471 80.1903,366.9965 84.0385,365.2994 87.8867,365.8651 91.7349,365.2994 95.5831,365.2994 107.1277,365.8651 110.9759,367.5622 114.8241,365.8651 118.6722,365.2994 122.5204,363.0367 134.065,356.8142 137.9132,352.2887 141.7614,347.1975 145.6096,346.6319 149.4578,342.1064 161.0024,347.7632 164.8506,348.3289 168.6988,352.2887 172.547,350.5916 176.3951,351.723 187.9397,335.8838 191.7879,336.4495 195.6361,335.3182 199.4843,325.1358 203.3325,319.479 214.8771,312.6908 218.7253,313.8222 222.5735,305.9026 226.4217,304.7528 230.2698,307.6498 241.8144,292.5852 245.6626,290.847 249.5108,285.6323 253.359,275.2029 257.2072,253.1854 268.7518,230.5885 272.6,225.9532 276.4482,221.8974 280.2964,202.7769 284.1446,202.1975 295.6891,137.3037 299.5373,132.0891 303.3855,129.192 307.2337,131.5096 311.0819,98.4834 322.6265,118.1833 326.4747,107.7539 330.3229,108.9127 334.1711,101.3804 338.0193,119.3421 349.5638,90.9511 353.412,84.5776 357.2602,58.5042 364.9566,32.4308 376.5012,61.4012 380.3494,75.8864 384.1976,84.5776 388.0458,65.3847 391.894,120.5009 403.4385,167.433 407.2867,150.6301 411.1349,153.5272 414.9831,208.571 418.8313,185.974 430.3759,188.8711 434.2241,213.7856 438.0723,225.9532 441.9205,198.1416 445.7687,202.1975 457.3132,179.0211 461.1614,181.3388 465.0096,179.6005 468.8578,151.2095 472.706,173.2271 484.2506,154.1066 488.0988,144.2566 491.947,132.6685 495.7952,145.4155 499.6434,134.4067 511.1879,116.445 515.0361,117.0244 518.8843,140.7802 538.1253,157.0036 541.9735,154.686 545.8217,134.4067 549.6699,136.3622 565.0626,211.468 568.9108,235.2238 572.759,250.8678 576.6072,236.962 580.4554,215.9584 592,202.7769" style="fill:none;stroke:rgb(31,119,180);stroke-width:2;stroke-linejoin:bevel" />
  <text dominant-baseline="hanging" text-anchor="middle" transform="translate(313.006,8)" font-family="Segoe UI" font-size="18" font-weight="700" fill="black">7-Tage-Inzidenz Stadt Aachen 11.01.2021</text>
  <polygon points="34.012,29.0795 592,29.0795 592,370.947 34.012,370.947" style="fill:none;stroke:black;stroke-width:1" />
  <polygon points="42.012,37.0795 247.014,37.0795 247.014,63.1325 42.012,63.1325" style="fill:none;stroke:none;" />
  <text dominant-baseline="hanging" text-anchor="start" transform="translate(70.012,45.0795)" font-family="Segoe UI" font-size="12" font-weight="400" fill="black">7-Tage-Inzidenz Stadt Aachen 11.01.2021</text>
  <polyline points="50.012,50.106 66.012,50.106" style="fill:none;stroke:rgb(31,119,180);stroke-width:2" />
</svg>