<?xml version="1.0" encoding="utf-8" standalone="no"?>
<!DOCTYPE svg PUBLIC "-//W3C//DTD SVG 1.1//EN" "http://www.w3.org/Graphics/SVG/1.1/DTD/svg11.dtd">
<svg width="600" height="400" version="1.1" xmlns:xlink="http://www.w3.org/1999/xlink" xmlns="http://www.w3.org/2000/svg">
  <rect x="0" y="0" width="600" height="400" style="fill:rgb(255,255,255);stroke:none;" />
  <polyline points="34.012,362.7539 30.012,362.7539" style="fill:none;stroke:black;stroke-width:1" />
  <polyline points="34.012,348.3289 30.012,348.3289" style="fill:none;stroke:black;stroke-width:1" />
  <polyline points="34.012,333.904 30.012,333.904" style="fill:none;stroke:black;stroke-width:1" />
  <polyline points="34.012,319.479 30.012,319.479" style="fill:none;stroke:black;stroke-width:1" />
  <polyline points="34.012,290.6291 30.012,290.6291" style="fill:none;stroke:black;stroke-width:1" />
  <polyline points="34.012,276.2041 30.012,276.2041" style="fill:none;stroke:black;stroke-width:1" />
  <polyline points="34.012,261.7792 30.012,261.7792" style="fill:none;stroke:black;stroke-width:1" />
  <polyline points="34.012,247.3542 30.012,247.3542" style="fill:none;stroke:black;stroke-width:1" />
  <polyline points="34.012,218.5043 30.012,218.5043" style="fill:none;stroke:black;stroke-width:1" />
  <polyline points="34.012,204.0794 30.012,204.0794" style="fill:none;stroke:black;stroke-width:1" />
  <polyline points="34.012,189.6544 30.012,189.6544" style="fill:none;stroke:black;stroke-width:1" />
  <polyline points="34.012,175.2295 30.012,175.2295" style="fill:none;stroke:black;stroke-width:1" />
  <polyline points="34.012,146.3796 30.012,146.3796" style="fill:none;stroke:black;stroke-width:1" />
  <polyline points="34.012,131.9546 30.012,131.9546" style="fill:none;stroke:black;stroke-width:1" />
  <polyline points="34.012,117.5297 30.012,117.5297" style="fill:none;stroke:black;stroke-width:1" />
  <polyline points="34.012,103.1047 30.012,103.1047" style="fill:none;stroke:black;stroke-width:1" />
  <polyline points="34.012,74.2548 30.012,74.2548" style="fill:none;stroke:black;stroke-width:1" />
  <polyline points="34.012,59.8299 30.012,59.8299" style="fill:none;stroke:black;stroke-width:1" />
  <polyline points="34.012,45.4049 30.012,45.4049" style="fill:none;stroke:black;stroke-width:1" />
  <polyline points="34.012,30.98 30.012,30.98" style="fill:none;stroke:black;stroke-width:1" />
  <text dominant-baseline="middle" text-anchor="end" transform="translate(23.012,305.0541)" font-family="Segoe UI" font-size="12" font-weight="400" fill="black">50</text>
  <text dominant-baseline="middle" text-anchor="end" transform="translate(23.012,232.9293)" font-family="Segoe UI" font-size="12" font-weight="400" fill="black">100</text>
  <text dominant-baseline="middle" text-anchor="end" transform="translate(23.012,160.8045)" font-family="Segoe UI" font-size="12" font-weight="400" fill="black">150</text>
  <text dominant-baseline="middle" text-anchor="end" transform="translate(23.012,88.6798)" font-family="Segoe UI" font-size="12" font-weight="400" fill="black">200</text>
  <polyline points="34.012,305.0541 27.012,305.0541" style="fill:none;stroke:black;stroke-width:1" />
  <polyline points="34.012,232.9293 27.012,232.9293" style="fill:none;stroke:black;stroke-width:1" />
  <polyline points="34.012,160.8045 27.012,160.8045" style="fill:none;stroke:black;stroke-width:1" />
  <polyline points="34.012,88.6798 27.012,88.6798" style="fill:none;stroke:black;stroke-width:1" />
  <text dominant-baseline="hanging" text-anchor="middle" transform="translate(77.1896,381.947)" font-family="Segoe UI" font-size="12" font-weight="400" fill="black">01. September</text>
  <text dominant-baseline="hanging" text-anchor="middle" transform="translate(176.8304,381.947)" font-family="Segoe UI" font-size="12" font-weight="400" fill="black">01. October</text>
  <text dominant-baseline="hanging" text-anchor="middle" transform="translate(279.7924,381.947)" font-family="Segoe UI" font-size="12" font-weight="400" fill="black">01. November</text>
  <text dominant-baseline="hanging" text-anchor="middle" transform="translate(379.4331,381.947)" font-family="Segoe UI" font-size="12" font-weight="400" fill="black">01. December</text>
  <text dominant-baseline="hanging" text-anchor="middle" transform="translate(482.3952,381.947)" font-family="Segoe UI" font-size="12" font-weight="400" fill="black">01. January</text>
  <text dominant-baseline="hanging" text-anchor="middle" transform="translate(585.3573,381.947)" font-family="Segoe UI" font-size="12" font-weight="400" fill="black">01. February</text>
  <polyline points="77.1896,370.947 77.1896,377.947" style="fill:none;stroke:black;stroke-width:1" />
  <polyline points="176.8304,370.947 176.8304,377.947" style="fill:none;stroke:black;stroke-width:1" />
  <polyline points="279.7924,370.947 279.7924,377.947" style="fill:none;stroke:black;stroke-width:1" />
  <polyline points="379.4331,370.947 379.4331,377.947" style="fill:none;stroke:black;stroke-width:1" />
  <polyline points="482.3952,370.947 482.3952,377.947" style="fill:none;stroke:black;stroke-width:1" />
  <polyline points="585.3573,370.947 585.3573,377.947" style="fill:none;stroke:black;stroke-width:1" />
  <polyline points="34.012,356.8142 37.3334,356.3899 40.6547,362.471 50.6188,358.5112 53.9401,362.471 57.2615,363.0367 60.5829,363.6024 63.9042,362.471 73.8683,366.9965 77.1896,365.2994 80.511,365.8651 83.8324,365.2994 87.1537,365.2994 97.1178,365.8651 100.4391,367.5622 103.7605,365.8651 107.0819,365.2994 110.4032,363.0367 120.3673,356.8142 123.6886,352.2887 127.01,347.1975 130.3314,346.6319 133.6527,342.1064 143.6168,347.7632 146.9381,348.3289 150.2595,352.2887 153.5809,350.5916 156.9022,351.723 166.8663,335.8838 170.1876,336.4495 173.509,335.3182 176.8304,325.1358 180.1517,319.479 190.1158,312.6908 193.4371,313.8222 196.7585,305.9026 200.0799,304.7528 203.4012,307.6498 213.3653,292.5852 216.6866,290.847 220.008,285.6323 223.3294,275.2029 226.6507,253.1854 236.6148,230.5885 239.9361,225.9532 243.2575,221.8974 246.5789,202.7769 249.9002,202.1975 259.8643,137.3037 263.1856,132.0891 266.507,129.192 269.8284,131.5096 273.1497,98.4834 283.1138,118.1833 286.4351,107.7539 289.7565,108.9127 293.0779,101.3804 296.3992,119.3421 306.3633,90.9511 309.6846,84.5776 313.006,58.5042 319.6487,32.4308 329.6128,61.4012 332.9341,75.8864 336.2555,84.5776 339.5769,65.3847 342.8982,120.5009 352.8623,167.433 356.1836,150.6301 359.505,153.5272 362.8264,208.571 366.1477,185.974 376.1118,188.8711 379.4331,213.7856 382.7545,225.9532 386.0759,198.1416 389.3972,202.1975 399.3613,179.0211 402.6826,181.3388 406.004,179.6005 409.3254,151.2095 412.6467,173.2271 422.6108,154.1066 425.9321,144.2566 429.2535,132.6685 432.5749,145.4155 435.8962,134.4067 445.8603,116.445 449.1816,117.0244 452.503,140.7802 469.1098,157.0036 472.4311,154.686 475.7525,134.4067 479.0739,136.3622 492.3593,211.468 495.6806,235.2238 499.002,250.8678 502.3234,236.962 505.6447,215.9584 518.9301,192.9269 522.2515,195.2446 525.5729,217.2621 528.8942,247.3913 538.8583,255.9086 542.1796,275.7823 545.501,267.0912 548.8224,285.0529 552.1437,285.6323 562.1078,272.3059 568.7505,279.8382 572.0719,259.5589 575.3932,247.9707 585.3573,264.1942 588.6786,278.3173 592,272.3059" style="fill:none;stroke:rgb(31,119,180);stroke-width:2;stroke-linejoin:bevel" />
  <text dominant-baseline="hanging" text-anchor="middle" transform="translate(313.006,8)" font-family="Segoe UI" font-size="18" font-weight="700" fill="black">7-Tage-Inzidenz Stadt Aachen 03.02.2021</text>
  <polygon points="34.012,29.0795 592,29.0795 592,370.947 34.012,370.947" style="fill:none;stroke:black;stroke-width:1" />
  <polygon points="42.012,37.0795 247.014,37.0795 247.014,63.1325 42.012,63.1325" style="fill:none;stroke:none;" />
  <text dominant-baseline="hanging" text-anchor="start" transform="translate(70.012,45.0795)" font-family="Segoe UI" font-size="12" font-weight="400" fill="black">7-Tage-Inzidenz Stadt Aachen 03.02.2021</text>
  <polyline points="50.012,50.106 66.012,50.106" style="fill:none;stroke:rgb(31,119,180);stroke-width:2" />
</svg>