<?xml version="1.0" encoding="utf-8" standalone="no"?>
<!DOCTYPE svg PUBLIC "-//W3C//DTD SVG 1.1//EN" "http://www.w3.org/Graphics/SVG/1.1/DTD/svg11.dtd">
<svg width="600" height="400" version="1.1" xmlns:xlink="http://www.w3.org/1999/xlink" xmlns="http://www.w3.org/2000/svg">
  <rect x="0" y="0" width="600" height="400" style="fill:rgb(255,255,255);stroke:none;" />
  <polyline points="34.012,353.4851 30.012,353.4851" style="fill:none;stroke:black;stroke-width:1" />
  <polyline points="34.012,339.4649 30.012,339.4649" style="fill:none;stroke:black;stroke-width:1" />
  <polyline points="34.012,325.4447 30.012,325.4447" style="fill:none;stroke:black;stroke-width:1" />
  <polyline points="34.012,311.4245 30.012,311.4245" style="fill:none;stroke:black;stroke-width:1" />
  <polyline points="34.012,283.3841 30.012,283.3841" style="fill:none;stroke:black;stroke-width:1" />
  <polyline points="34.012,269.3639 30.012,269.3639" style="fill:none;stroke:black;stroke-width:1" />
  <polyline points="34.012,255.3438 30.012,255.3438" style="fill:none;stroke:black;stroke-width:1" />
  <polyline points="34.012,241.3236 30.012,241.3236" style="fill:none;stroke:black;stroke-width:1" />
  <polyline points="34.012,213.2832 30.012,213.2832" style="fill:none;stroke:black;stroke-width:1" />
  <polyline points="34.012,199.263 30.012,199.263" style="fill:none;stroke:black;stroke-width:1" />
  <polyline points="34.012,185.2428 30.012,185.2428" style="fill:none;stroke:black;stroke-width:1" />
  <polyline points="34.012,171.2226 30.012,171.2226" style="fill:none;stroke:black;stroke-width:1" />
  <polyline points="34.012,143.1822 30.012,143.1822" style="fill:none;stroke:black;stroke-width:1" />
  <polyline points="34.012,129.162 30.012,129.162" style="fill:none;stroke:black;stroke-width:1" />
  <polyline points="34.012,115.1418 30.012,115.1418" style="fill:none;stroke:black;stroke-width:1" />
  <polyline points="34.012,101.1216 30.012,101.1216" style="fill:none;stroke:black;stroke-width:1" />
  <polyline points="34.012,73.0813 30.012,73.0813" style="fill:none;stroke:black;stroke-width:1" />
  <polyline points="34.012,59.0611 30.012,59.0611" style="fill:none;stroke:black;stroke-width:1" />
  <polyline points="34.012,45.0409 30.012,45.0409" style="fill:none;stroke:black;stroke-width:1" />
  <polyline points="34.012,31.0207 30.012,31.0207" style="fill:none;stroke:black;stroke-width:1" />
  <text dominant-baseline="middle" text-anchor="end" transform="translate(23.012,367.5053)" font-family="Segoe UI" font-size="12" font-weight="400" fill="black">0</text>
  <text dominant-baseline="middle" text-anchor="end" transform="translate(23.012,297.4043)" font-family="Segoe UI" font-size="12" font-weight="400" fill="black">50</text>
  <text dominant-baseline="middle" text-anchor="end" transform="translate(23.012,227.3034)" font-family="Segoe UI" font-size="12" font-weight="400" fill="black">100</text>
  <text dominant-baseline="middle" text-anchor="end" transform="translate(23.012,157.2024)" font-family="Segoe UI" font-size="12" font-weight="400" fill="black">150</text>
  <text dominant-baseline="middle" text-anchor="end" transform="translate(23.012,87.1015)" font-family="Segoe UI" font-size="12" font-weight="400" fill="black">200</text>
  <polyline points="34.012,367.5053 27.012,367.5053" style="fill:none;stroke:black;stroke-width:1" />
  <polyline points="34.012,297.4043 27.012,297.4043" style="fill:none;stroke:black;stroke-width:1" />
  <polyline points="34.012,227.3034 27.012,227.3034" style="fill:none;stroke:black;stroke-width:1" />
  <polyline points="34.012,157.2024 27.012,157.2024" style="fill:none;stroke:black;stroke-width:1" />
  <polyline points="34.012,87.1015 27.012,87.1015" style="fill:none;stroke:black;stroke-width:1" />
  <text dominant-baseline="hanging" text-anchor="middle" transform="translate(221.771,381.947)" font-family="Segoe UI" font-size="12" font-weight="400" fill="black">01. January</text>
  <polyline points="221.771,370.947 221.771,377.947" style="fill:none;stroke:black;stroke-width:1" />
  <polyline points="34.012,367.5622 36.6565,367.5621 40.6232,367.5621 41.9455,367.562 43.2677,347.7121 44.59,347.2997 45.9122,353.2102 49.879,349.3615 51.2012,353.2102 52.5235,353.76 53.8457,354.3098 55.1679,353.2102 59.1347,357.6087 60.4569,355.9593 61.7792,356.5091 63.1014,355.9593 64.4237,355.9593 68.3904,356.5091 69.7127,358.1585 71.0349,356.5091 72.3571,355.9593 73.6794,353.76 77.6461,347.7121 78.9684,343.3136 80.2906,338.3653 81.6129,337.8155 82.9351,333.417 86.9019,338.9151 88.2241,339.4649 89.5464,343.3136 90.8686,341.6642 92.1908,342.7638 96.1576,327.3691 97.4798,327.9189 98.8021,326.8192 100.1243,316.9226 101.4466,311.4245 105.4133,304.8268 106.7356,305.9264 108.0578,298.229 109.38,297.1115 110.7023,299.9272 114.669,285.2853 115.9913,283.5959 117.3135,278.5275 118.6358,268.3908 119.958,246.9911 123.9248,225.0282 125.247,220.523 126.5693,216.581 127.8915,197.997 129.2137,197.4339 133.1805,134.361 134.5027,129.2927 135.825,126.4769 137.1472,128.7295 138.4695,96.63 142.4362,115.7771 143.7585,105.6404 145.0807,106.7667 146.4029,99.4457 147.7252,116.9034 151.6919,89.309 153.0142,83.1143 154.3364,57.7726 156.9809,32.4308 160.9477,60.5883 162.2699,74.6671 163.5922,83.1143 164.9144,64.46 166.2366,118.0297 170.2034,163.6449 171.5256,147.3135 172.8479,150.1292 174.1701,203.6285 175.4924,181.6657 179.4591,184.4814 180.7814,208.6969 182.1036,220.523 183.4258,193.4918 184.7481,197.4339 188.7148,174.9079 190.0371,177.1605 191.3593,175.471 192.6816,147.8766 194.0038,169.2764 197.9706,150.6924 199.2928,141.1188 200.6151,129.8558 201.9373,142.2451 203.2595,131.5453 207.2263,114.0876 208.5485,114.6508 209.8708,137.7399 216.482,153.5081 217.8043,151.2555 219.1265,131.5453 220.4487,133.4459 225.7377,206.4443 227.06,229.5334 228.3822,244.7385 229.7045,231.2229 231.0267,210.8087 236.3157,188.4235 237.638,190.6761 238.9602,212.0758 240.2824,241.3596 244.2492,249.6379 245.5714,268.954 246.8937,260.5067 248.2159,277.9644 249.5382,278.5275 253.5049,265.5751 256.1494,272.896 257.4716,253.1858 258.7939,241.9228 262.7606,257.691 264.0829,271.4178 265.4051,265.5751 266.7274,272.896 268.0496,283.5959 272.0164,286.4116 273.3386,283.5959 274.6609,268.3908 275.9831,269.5171 277.3053,262.7593 281.2721,276.8381 282.5943,278.5275 283.9166,298.8009 285.2388,305.5587 286.5611,321.327 290.5278,321.327 291.8501,322.4533 293.1723,313.4429 294.4945,314.006 295.8168,309.5008 299.7835,320.7638 301.1058,319.6375 302.428,315.6955 303.7503,293.1694 305.0725,287.5379 309.0393,258.8173 310.3615,258.8173 311.6838,257.1278 313.006,271.7697 314.3282,265.5751 318.295,255.4384 319.6172,256.0015 320.9395,248.6806 322.2617,221.0862 323.584,203.6285 327.5507,195.7444 328.873,195.1813 330.1952,199.6865 331.5175,188.4235 332.8397,200.8128 336.8064,218.8336 338.1287,215.4547 339.4509,222.2125 340.7732,237.9807 342.0954,213.2021 347.3844,200.2496 348.7067,214.8915 350.0289,196.8707 351.3511,229.5334 355.3179,220.4667 356.6401,210.9495 357.9624,164.208 359.2846,184.4814 360.6069,180.5394 364.5736,172.0921 365.8959,153.5081 367.2181,158.5765 368.5404,145.0609 369.8626,121.4086 373.8293,102.8246 375.1516,118.5928 376.4738,132.6716 377.7961,127.0401 379.1183,129.8558 383.0851,155.1976 384.4073,143.3714 385.7296,137.1768 387.0518,169.8395 388.374,189.5498 392.3408,199.1233 393.663,208.1337 394.9853,220.523 397.6298,188.9866 401.5965,191.8024 402.9188,177.7236 404.241,172.0921 405.5633,176.3157 406.8855,210.9495 412.1745,257.691 413.4967,281.9064 414.819,291.48 416.1412,294.8589 420.108,302.4614 421.4302,307.2482 422.7525,306.1219 425.3969,326.3953 429.3637,341.6004 430.6859,346.6687 432.0082,351.1739 433.3304,350.2588 434.6527,355.6791 438.6194,358.4949 439.9417,357.3686 441.2639,357.3686 442.5862,356.2423 443.9084,353.4265 447.8751,353.4265 449.1974,352.8634 450.5196,356.2423 451.8419,359.6212 453.1641,361.3106 457.1309,360.7475 458.4531,362.4369 459.7754,359.058 461.0976,355.6791 462.4198,356.8054 466.3866,356.8054 469.0311,357.3686 471.6756,359.6212 475.6423,360.7475 478.2868,353.9897 480.9313,343.2898 487.5425,332.0268 490.187,317.9481 496.7983,316.2586 499.4427,329.7742 506.054,329.2111 508.6985,323.0164 515.3097,294.8589 517.9542,262.7593 524.5654,253.7489 527.2099,268.3908 533.8212,201.3759 536.4656,191.8024 543.0769,233.4755 545.7214,222.2125 554.9771,240.2333 564.2328,272.896 570.8441,284.7222 573.4885,290.9168 580.0998,295.422 582.7443,306.6851 589.3555,321.8901 592,321.8901" style="fill:none;stroke:rgb(31,119,180);stroke-width:2;stroke-linejoin:bevel" />
  <text dominant-baseline="hanging" text-anchor="middle" transform="translate(313.006,8)" font-family="Segoe UI" font-size="18" font-weight="700" fill="black">7-Tage-Inzidenz Stadt Aachen 08.10.2021</text>
  <polygon points="34.012,29.0795 592,29.0795 592,370.947 34.012,370.947" style="fill:none;stroke:black;stroke-width:1" />
  <polygon points="42.012,37.0795 247.014,37.0795 247.014,63.1325 42.012,63.1325" style="fill:none;stroke:none;" />
  <text dominant-baseline="hanging" text-anchor="start" transform="translate(70.012,45.0795)" font-family="Segoe UI" font-size="12" font-weight="400" fill="black">7-Tage-Inzidenz Stadt Aachen 08.10.2021</text>
  <polyline points="50.012,50.106 66.012,50.106" style="fill:none;stroke:rgb(31,119,180);stroke-width:2" />
</svg>